<?xml version="1.0" encoding="UTF-8" standalone="no"?>
<!DOCTYPE svg PUBLIC "-//W3C//DTD SVG 1.1//EN"
 "http://www.w3.org/Graphics/SVG/1.1/DTD/svg11.dtd">
<!-- Generated by graphviz version 12.1.1 (20240910.0053)
 -->
<!-- Title: Deluxe.DeluxeBrandCenter.AMM.Domain.Utility.CampaignScheduleHelper.GetScheduledDates Pages: 1 -->
<!--zoomable 545 -->

<svg id="main" version="1.1" xmlns="http://www.w3.org/2000/svg" xmlns:xlink="http://www.w3.org/1999/xlink" xml:space="preserve" onload="init(evt)">

<style type="text/css"><![CDATA[
.node, .edge {opacity: 0.7;}
.node.selected, .edge.selected {opacity: 1;}
.edge:hover path { stroke: red; }
.edge:hover polygon { stroke: red; fill: red; }
]]></style>

<defs>
  <circle id="rim" cx="0" cy="0" r="7"/>
  <circle id="rim2" cx="0" cy="0" r="3.5"/>
  <g id="zoomPlus">
    <use xlink:href="#rim" fill="#404040"><set attributeName="fill" to="#808080" begin="zoomplus.mouseover" end="zoomplus.mouseout"/></use>
    <path d="M-4,0h8M0,-4v8" fill="none" stroke="white" stroke-width="1.5" pointer-events="none"/>
  </g>
  <g id="zoomMin">
    <use xlink:href="#rim" fill="#404040"><set attributeName="fill" to="#808080" begin="zoomminus.mouseover" end="zoomminus.mouseout"/></use>
    <path d="M-4,0h8" fill="none" stroke="white" stroke-width="1.5" pointer-events="none"/>
  </g>
  <g id="arrowUp" transform="translate(30 24)">
    <use xlink:href="#rim"/>
    <path pointer-events="none" fill="none" stroke="white" stroke-width="1.5" d="M0,-3.0v7 M-2.5,-0.5L0,-3.0L2.5,-0.5"/>
  </g>
  <g id="arrowRight" transform="rotate(90) translate(36 -43)">
    <use xlink:href="#rim"/>
    <path pointer-events="none" fill="none" stroke="white" stroke-width="1.5" d="M0,-3.0v7 M-2.5,-0.5L0,-3.0L2.5,-0.5"/>
  </g>
  <g id="arrowDown" transform="rotate(180) translate(-30 -48)">
    <use xlink:href="#rim"/>
    <path pointer-events="none" fill="none" stroke="white" stroke-width="1.5" d="M0,-3.0v7 M-2.5,-0.5L0,-3.0L2.5,-0.5"/>
  </g>
  <g id="arrowLeft" transform="rotate(270) translate(-36 17)">
    <use xlink:href="#rim"/>
    <path pointer-events="none" fill="none" stroke="white" stroke-width="1.5" d="M0,-3.0v7 M-2.5,-0.5L0,-3.0L2.5,-0.5"/>
  </g>
  <g id="resetDef">
    <use xlink:href="#rim2" fill="#404040"><set attributeName="fill" to="#808080" begin="reset.mouseover" end="reset.mouseout"/></use>
  </g>
</defs>
<script type="application/ecmascript">
var viewWidth = 882;
var viewHeight = 545;
var sectionId = 'dynsection-10';
</script>
<script type="application/ecmascript" xlink:href="../../svg.min.js"/>
<svg id="graph" class="graph">
<g id="viewport">
<title>Deluxe.DeluxeBrandCenter.AMM.Domain.Utility.CampaignScheduleHelper.GetScheduledDates</title>
<!-- Node1 -->
<g id="Node000001" class="node">
<title>Node1</title>
<g id="a_Node000001"><a xlink:title=" ">
<polygon fill="#999999" stroke="#666666" points="191.5,-289 0,-289 0,-245 191.5,-245 191.5,-289"/>
<text text-anchor="start" x="8" y="-275.5" font-family="Helvetica,sans-Serif" font-size="10.00">Deluxe.DeluxeBrandCenter.</text>
<text text-anchor="start" x="8" y="-263.5" font-family="Helvetica,sans-Serif" font-size="10.00">AMM.Domain.Utility.CampaignSchedule</text>
<text text-anchor="middle" x="95.75" y="-251.5" font-family="Helvetica,sans-Serif" font-size="10.00">Helper.GetScheduledDates</text>
</a>
</g>
</g>
<!-- Node2 -->
<g id="Node000002" class="node">
<title>Node2</title>
<g id="a_Node000002"><a xlink:href="../../d2/db4/class_deluxe_1_1_deluxe_brand_center_1_1_a_m_m_1_1_domain_1_1_utility_1_1_campaign_schedule_helper.html#a3b181742537edc1a3cc4257dfa4b54cc" target="_top" xlink:title=" ">
<polygon fill="white" stroke="#666666" points="419,-537 227.5,-537 227.5,-493 419,-493 419,-537"/>
<text text-anchor="start" x="235.5" y="-523.5" font-family="Helvetica,sans-Serif" font-size="10.00">Deluxe.DeluxeBrandCenter.</text>
<text text-anchor="start" x="235.5" y="-511.5" font-family="Helvetica,sans-Serif" font-size="10.00">AMM.Domain.Utility.CampaignSchedule</text>
<text text-anchor="middle" x="323.25" y="-499.5" font-family="Helvetica,sans-Serif" font-size="10.00">Helper.CheckMonthlyOffset</text>
</a>
</g>
</g>
<!-- Node1&#45;&gt;Node2 -->
<g id="edge1_Node000001_Node000002" class="edge">
<title>Node1&#45;&gt;Node2</title>
<g id="a_edge1_Node000001_Node000002"><a xlink:title=" ">
<path fill="none" stroke="#63b8ff" d="M104.17,-289.33C119.87,-333.14 160.57,-430.72 227.5,-484 228.64,-484.91 229.81,-485.79 231.01,-486.65"/>
<polygon fill="#63b8ff" stroke="#63b8ff" points="229,-489.52 239.32,-491.93 232.75,-483.61 229,-489.52"/>
</a>
</g>
</g>
<!-- Node3 -->
<g id="Node000003" class="node">
<title>Node3</title>
<g id="a_Node000003"><a xlink:href="../../d2/db4/class_deluxe_1_1_deluxe_brand_center_1_1_a_m_m_1_1_domain_1_1_utility_1_1_campaign_schedule_helper.html#ac249f0dc473affb58fc99c6bd64dca32" target="_top" xlink:title=" ">
<polygon fill="white" stroke="#666666" points="419,-475 227.5,-475 227.5,-431 419,-431 419,-475"/>
<text text-anchor="start" x="235.5" y="-461.5" font-family="Helvetica,sans-Serif" font-size="10.00">Deluxe.DeluxeBrandCenter.</text>
<text text-anchor="start" x="235.5" y="-449.5" font-family="Helvetica,sans-Serif" font-size="10.00">AMM.Domain.Utility.CampaignSchedule</text>
<text text-anchor="middle" x="323.25" y="-437.5" font-family="Helvetica,sans-Serif" font-size="10.00">Helper.CheckYearlyOffset</text>
</a>
</g>
</g>
<!-- Node1&#45;&gt;Node3 -->
<g id="edge2_Node000001_Node000003" class="edge">
<title>Node1&#45;&gt;Node3</title>
<g id="a_edge2_Node000001_Node000003"><a xlink:title=" ">
<path fill="none" stroke="#63b8ff" d="M109.89,-289.39C130.7,-322.95 174.37,-386.19 227.5,-422 229.13,-423.1 230.8,-424.16 232.5,-425.18"/>
<polygon fill="#63b8ff" stroke="#63b8ff" points="230.81,-428.25 241.27,-429.96 234.16,-422.1 230.81,-428.25"/>
</a>
</g>
</g>
<!-- Node4 -->
<g id="Node000004" class="node">
<title>Node4</title>
<g id="a_Node000004"><a xlink:href="../../d2/db4/class_deluxe_1_1_deluxe_brand_center_1_1_a_m_m_1_1_domain_1_1_utility_1_1_campaign_schedule_helper.html#ac4dbdbdb1c5c96bc8627656cb13279b1" target="_top" xlink:title=" ">
<polygon fill="white" stroke="#666666" points="419,-413 227.5,-413 227.5,-369 419,-369 419,-413"/>
<text text-anchor="start" x="235.5" y="-399.5" font-family="Helvetica,sans-Serif" font-size="10.00">Deluxe.DeluxeBrandCenter.</text>
<text text-anchor="start" x="235.5" y="-387.5" font-family="Helvetica,sans-Serif" font-size="10.00">AMM.Domain.Utility.CampaignSchedule</text>
<text text-anchor="middle" x="323.25" y="-375.5" font-family="Helvetica,sans-Serif" font-size="10.00">Helper.SetDailySchedule</text>
</a>
</g>
</g>
<!-- Node1&#45;&gt;Node4 -->
<g id="edge3_Node000001_Node000004" class="edge">
<title>Node1&#45;&gt;Node4</title>
<g id="a_edge3_Node000001_Node000004"><a xlink:title=" ">
<path fill="none" stroke="#63b8ff" d="M122.77,-289.13C148.12,-309.79 188.45,-340.3 227.5,-360 230.4,-361.46 233.38,-362.88 236.42,-364.24"/>
<polygon fill="#63b8ff" stroke="#63b8ff" points="234.95,-367.42 245.52,-368.1 237.68,-360.98 234.95,-367.42"/>
</a>
</g>
</g>
<!-- Node5 -->
<g id="Node000005" class="node">
<title>Node5</title>
<g id="a_Node000005"><a xlink:href="../../d2/db4/class_deluxe_1_1_deluxe_brand_center_1_1_a_m_m_1_1_domain_1_1_utility_1_1_campaign_schedule_helper.html#a1eb14fddf61b36673bcbc3787492744b" target="_top" xlink:title=" ">
<polygon fill="white" stroke="#666666" points="419,-351 227.5,-351 227.5,-307 419,-307 419,-351"/>
<text text-anchor="start" x="235.5" y="-337.5" font-family="Helvetica,sans-Serif" font-size="10.00">Deluxe.DeluxeBrandCenter.</text>
<text text-anchor="start" x="235.5" y="-325.5" font-family="Helvetica,sans-Serif" font-size="10.00">AMM.Domain.Utility.CampaignSchedule</text>
<text text-anchor="middle" x="323.25" y="-313.5" font-family="Helvetica,sans-Serif" font-size="10.00">Helper.SetMinutelySchedule</text>
</a>
</g>
</g>
<!-- Node1&#45;&gt;Node5 -->
<g id="edge4_Node000001_Node000005" class="edge">
<title>Node1&#45;&gt;Node5</title>
<g id="a_edge4_Node000001_Node000005"><a xlink:title=" ">
<path fill="none" stroke="#63b8ff" d="M178.48,-289.47C195.02,-294.02 212.53,-298.83 229.43,-303.48"/>
<polygon fill="#63b8ff" stroke="#63b8ff" points="228.39,-306.82 238.96,-306.1 230.25,-300.07 228.39,-306.82"/>
</a>
</g>
</g>
<!-- Node6 -->
<g id="Node000006" class="node">
<title>Node6</title>
<g id="a_Node000006"><a xlink:href="../../d2/db4/class_deluxe_1_1_deluxe_brand_center_1_1_a_m_m_1_1_domain_1_1_utility_1_1_campaign_schedule_helper.html#a2a98991643473399f61f1cd75c248723" target="_top" xlink:title=" ">
<polygon fill="white" stroke="#666666" points="419,-289 227.5,-289 227.5,-245 419,-245 419,-289"/>
<text text-anchor="start" x="235.5" y="-275.5" font-family="Helvetica,sans-Serif" font-size="10.00">Deluxe.DeluxeBrandCenter.</text>
<text text-anchor="start" x="235.5" y="-263.5" font-family="Helvetica,sans-Serif" font-size="10.00">AMM.Domain.Utility.CampaignSchedule</text>
<text text-anchor="middle" x="323.25" y="-251.5" font-family="Helvetica,sans-Serif" font-size="10.00">Helper.SetMonthlyDate</text>
</a>
</g>
</g>
<!-- Node1&#45;&gt;Node6 -->
<g id="edge5_Node000001_Node000006" class="edge">
<title>Node1&#45;&gt;Node6</title>
<g id="a_edge5_Node000001_Node000006"><a xlink:title=" ">
<path fill="none" stroke="#63b8ff" d="M191.73,-267C199.66,-267 207.72,-267 215.73,-267"/>
<polygon fill="#63b8ff" stroke="#63b8ff" points="215.51,-270.5 225.51,-267 215.51,-263.5 215.51,-270.5"/>
</a>
</g>
</g>
<!-- Node7 -->
<g id="Node000007" class="node">
<title>Node7</title>
<g id="a_Node000007"><a xlink:href="../../d2/db4/class_deluxe_1_1_deluxe_brand_center_1_1_a_m_m_1_1_domain_1_1_utility_1_1_campaign_schedule_helper.html#afae9ec48770ee3f76de51784166b44a2" target="_top" xlink:title=" ">
<polygon fill="white" stroke="#666666" points="419,-227 227.5,-227 227.5,-183 419,-183 419,-227"/>
<text text-anchor="start" x="235.5" y="-213.5" font-family="Helvetica,sans-Serif" font-size="10.00">Deluxe.DeluxeBrandCenter.</text>
<text text-anchor="start" x="235.5" y="-201.5" font-family="Helvetica,sans-Serif" font-size="10.00">AMM.Domain.Utility.CampaignSchedule</text>
<text text-anchor="middle" x="323.25" y="-189.5" font-family="Helvetica,sans-Serif" font-size="10.00">Helper.SetMonthlyDateOffset</text>
</a>
</g>
</g>
<!-- Node1&#45;&gt;Node7 -->
<g id="edge6_Node000001_Node000007" class="edge">
<title>Node1&#45;&gt;Node7</title>
<g id="a_edge6_Node000001_Node000007"><a xlink:title=" ">
<path fill="none" stroke="#63b8ff" d="M178.48,-244.53C195.02,-239.98 212.53,-235.17 229.43,-230.52"/>
<polygon fill="#63b8ff" stroke="#63b8ff" points="230.25,-233.93 238.96,-227.9 228.39,-227.18 230.25,-233.93"/>
</a>
</g>
</g>
<!-- Node11 -->
<g id="Node000011" class="node">
<title>Node11</title>
<g id="a_Node000011"><a xlink:href="../../d2/db4/class_deluxe_1_1_deluxe_brand_center_1_1_a_m_m_1_1_domain_1_1_utility_1_1_campaign_schedule_helper.html#a592e1971770ebf838acd4869c3e943f8" target="_top" xlink:title=" ">
<polygon fill="white" stroke="#666666" points="419,-165 227.5,-165 227.5,-121 419,-121 419,-165"/>
<text text-anchor="start" x="235.5" y="-151.5" font-family="Helvetica,sans-Serif" font-size="10.00">Deluxe.DeluxeBrandCenter.</text>
<text text-anchor="start" x="235.5" y="-139.5" font-family="Helvetica,sans-Serif" font-size="10.00">AMM.Domain.Utility.CampaignSchedule</text>
<text text-anchor="middle" x="323.25" y="-127.5" font-family="Helvetica,sans-Serif" font-size="10.00">Helper.SetWeeklyDate</text>
</a>
</g>
</g>
<!-- Node1&#45;&gt;Node11 -->
<g id="edge10_Node000001_Node000011" class="edge">
<title>Node1&#45;&gt;Node11</title>
<g id="a_edge10_Node000001_Node000011"><a xlink:title=" ">
<path fill="none" stroke="#63b8ff" d="M122.77,-244.87C148.12,-224.21 188.45,-193.7 227.5,-174 230.4,-172.54 233.38,-171.12 236.42,-169.76"/>
<polygon fill="#63b8ff" stroke="#63b8ff" points="237.68,-173.02 245.52,-165.9 234.95,-166.58 237.68,-173.02"/>
</a>
</g>
</g>
<!-- Node14 -->
<g id="Node000014" class="node">
<title>Node14</title>
<g id="a_Node000014"><a xlink:href="../../d2/db4/class_deluxe_1_1_deluxe_brand_center_1_1_a_m_m_1_1_domain_1_1_utility_1_1_campaign_schedule_helper.html#a6db9aa3a1897065d22d8668e3782836c" target="_top" xlink:title=" ">
<polygon fill="white" stroke="#666666" points="419,-103 227.5,-103 227.5,-59 419,-59 419,-103"/>
<text text-anchor="start" x="235.5" y="-89.5" font-family="Helvetica,sans-Serif" font-size="10.00">Deluxe.DeluxeBrandCenter.</text>
<text text-anchor="start" x="235.5" y="-77.5" font-family="Helvetica,sans-Serif" font-size="10.00">AMM.Domain.Utility.CampaignSchedule</text>
<text text-anchor="middle" x="323.25" y="-65.5" font-family="Helvetica,sans-Serif" font-size="10.00">Helper.SetYearlyDate</text>
</a>
</g>
</g>
<!-- Node1&#45;&gt;Node14 -->
<g id="edge13_Node000001_Node000014" class="edge">
<title>Node1&#45;&gt;Node14</title>
<g id="a_edge13_Node000001_Node000014"><a xlink:title=" ">
<path fill="none" stroke="#63b8ff" d="M109.89,-244.61C130.7,-211.05 174.37,-147.81 227.5,-112 229.13,-110.9 230.8,-109.84 232.5,-108.82"/>
<polygon fill="#63b8ff" stroke="#63b8ff" points="234.16,-111.9 241.27,-104.04 230.81,-105.75 234.16,-111.9"/>
</a>
</g>
</g>
<!-- Node15 -->
<g id="Node000015" class="node">
<title>Node15</title>
<g id="a_Node000015"><a xlink:href="../../d2/db4/class_deluxe_1_1_deluxe_brand_center_1_1_a_m_m_1_1_domain_1_1_utility_1_1_campaign_schedule_helper.html#aab28b21ef93160c4103ecc1baf380624" target="_top" xlink:title=" ">
<polygon fill="white" stroke="#666666" points="646.5,-44 455,-44 455,0 646.5,0 646.5,-44"/>
<text text-anchor="start" x="463" y="-30.5" font-family="Helvetica,sans-Serif" font-size="10.00">Deluxe.DeluxeBrandCenter.</text>
<text text-anchor="start" x="463" y="-18.5" font-family="Helvetica,sans-Serif" font-size="10.00">AMM.Domain.Utility.CampaignSchedule</text>
<text text-anchor="middle" x="550.75" y="-6.5" font-family="Helvetica,sans-Serif" font-size="10.00">Helper.SetYearlyDateOffset</text>
</a>
</g>
</g>
<!-- Node1&#45;&gt;Node15 -->
<g id="edge14_Node000001_Node000015" class="edge">
<title>Node1&#45;&gt;Node15</title>
<g id="a_edge14_Node000001_Node000015"><a xlink:title=" ">
<path fill="none" stroke="#63b8ff" d="M102.77,-244.69C116.37,-199.11 154.16,-95.73 227.5,-50 291.35,-10.18 376.65,-4.38 443.45,-7.89"/>
<polygon fill="#63b8ff" stroke="#63b8ff" points="443.14,-11.37 453.34,-8.49 443.57,-4.39 443.14,-11.37"/>
</a>
</g>
</g>
<!-- Node8 -->
<g id="Node000008" class="node">
<title>Node8</title>
<g id="a_Node000008"><a xlink:href="../../d2/db4/class_deluxe_1_1_deluxe_brand_center_1_1_a_m_m_1_1_domain_1_1_utility_1_1_campaign_schedule_helper.html#aec7db8e834e6fc8119dbac478d4c8ce4" target="_top" xlink:title=" ">
<polygon fill="white" stroke="#666666" points="646.5,-230 455,-230 455,-186 646.5,-186 646.5,-230"/>
<text text-anchor="start" x="463" y="-216.5" font-family="Helvetica,sans-Serif" font-size="10.00">Deluxe.DeluxeBrandCenter.</text>
<text text-anchor="start" x="463" y="-204.5" font-family="Helvetica,sans-Serif" font-size="10.00">AMM.Domain.Utility.CampaignSchedule</text>
<text text-anchor="middle" x="550.75" y="-192.5" font-family="Helvetica,sans-Serif" font-size="10.00">Helper.GenerateMonthlyDate</text>
</a>
</g>
</g>
<!-- Node7&#45;&gt;Node8 -->
<g id="edge7_Node000007_Node000008" class="edge">
<title>Node7&#45;&gt;Node8</title>
<g id="a_edge7_Node000007_Node000008"><a xlink:title=" ">
<path fill="none" stroke="#63b8ff" d="M419.23,-206.26C427.16,-206.37 435.22,-206.48 443.23,-206.58"/>
<polygon fill="#63b8ff" stroke="#63b8ff" points="442.96,-210.08 453.01,-206.71 443.05,-203.08 442.96,-210.08"/>
</a>
</g>
</g>
<!-- Node9 -->
<g id="Node000009" class="node">
<title>Node9</title>
<g id="a_Node000009"><a xlink:href="../../d2/db4/class_deluxe_1_1_deluxe_brand_center_1_1_a_m_m_1_1_domain_1_1_utility_1_1_campaign_schedule_helper.html#accc78fccbe7403b4ee1c208ce954bbb4" target="_top" xlink:title=" ">
<polygon fill="white" stroke="#666666" points="874,-230 682.5,-230 682.5,-186 874,-186 874,-230"/>
<text text-anchor="start" x="690.5" y="-216.5" font-family="Helvetica,sans-Serif" font-size="10.00">Deluxe.DeluxeBrandCenter.</text>
<text text-anchor="start" x="690.5" y="-204.5" font-family="Helvetica,sans-Serif" font-size="10.00">AMM.Domain.Utility.CampaignSchedule</text>
<text text-anchor="middle" x="778.25" y="-192.5" font-family="Helvetica,sans-Serif" font-size="10.00">Helper.FindDay</text>
</a>
</g>
</g>
<!-- Node8&#45;&gt;Node9 -->
<g id="edge8_Node000008_Node000009" class="edge">
<title>Node8&#45;&gt;Node9</title>
<g id="a_edge8_Node000008_Node000009"><a xlink:title=" ">
<path fill="none" stroke="#63b8ff" d="M646.73,-208C654.66,-208 662.72,-208 670.73,-208"/>
<polygon fill="#63b8ff" stroke="#63b8ff" points="670.51,-211.5 680.51,-208 670.51,-204.5 670.51,-211.5"/>
</a>
</g>
</g>
<!-- Node10 -->
<g id="Node000010" class="node">
<title>Node10</title>
<g id="a_Node000010"><a xlink:href="../../d2/db4/class_deluxe_1_1_deluxe_brand_center_1_1_a_m_m_1_1_domain_1_1_utility_1_1_campaign_schedule_helper.html#a7254f682f3b8a675339c5f2ab7f6a985" target="_top" xlink:title=" ">
<polygon fill="white" stroke="#666666" points="874,-106 682.5,-106 682.5,-62 874,-62 874,-106"/>
<text text-anchor="start" x="690.5" y="-92.5" font-family="Helvetica,sans-Serif" font-size="10.00">Deluxe.DeluxeBrandCenter.</text>
<text text-anchor="start" x="690.5" y="-80.5" font-family="Helvetica,sans-Serif" font-size="10.00">AMM.Domain.Utility.CampaignSchedule</text>
<text text-anchor="middle" x="778.25" y="-68.5" font-family="Helvetica,sans-Serif" font-size="10.00">Helper.GetDayOfWeek</text>
</a>
</g>
</g>
<!-- Node8&#45;&gt;Node10 -->
<g id="edge9_Node000008_Node000010" class="edge">
<title>Node8&#45;&gt;Node10</title>
<g id="a_edge9_Node000008_Node000010"><a xlink:title=" ">
<path fill="none" stroke="#63b8ff" d="M627.08,-185.69C633.76,-183.02 640.32,-180.12 646.5,-177 681.28,-159.46 717.07,-133.33 742.4,-113.23"/>
<polygon fill="#63b8ff" stroke="#63b8ff" points="744.45,-116.07 750.05,-107.08 740.06,-110.62 744.45,-116.07"/>
</a>
</g>
</g>
<!-- Node12 -->
<g id="Node000012" class="node">
<title>Node12</title>
<g id="a_Node000012"><a xlink:href="../../d2/db4/class_deluxe_1_1_deluxe_brand_center_1_1_a_m_m_1_1_domain_1_1_utility_1_1_campaign_schedule_helper.html#ab0b369cdc77dcc1522410bc65f0dca41" target="_top" xlink:title=" ">
<polygon fill="white" stroke="#666666" points="646.5,-168 455,-168 455,-124 646.5,-124 646.5,-168"/>
<text text-anchor="start" x="463" y="-154.5" font-family="Helvetica,sans-Serif" font-size="10.00">Deluxe.DeluxeBrandCenter.</text>
<text text-anchor="start" x="463" y="-142.5" font-family="Helvetica,sans-Serif" font-size="10.00">AMM.Domain.Utility.CampaignSchedule</text>
<text text-anchor="middle" x="550.75" y="-130.5" font-family="Helvetica,sans-Serif" font-size="10.00">Helper.DaysOfTheWeekToInt</text>
</a>
</g>
</g>
<!-- Node11&#45;&gt;Node12 -->
<g id="edge11_Node000011_Node000012" class="edge">
<title>Node11&#45;&gt;Node12</title>
<g id="a_edge11_Node000011_Node000012"><a xlink:title=" ">
<path fill="none" stroke="#63b8ff" d="M419.23,-144.26C427.16,-144.37 435.22,-144.48 443.23,-144.58"/>
<polygon fill="#63b8ff" stroke="#63b8ff" points="442.96,-148.08 453.01,-144.71 443.05,-141.08 442.96,-148.08"/>
</a>
</g>
</g>
<!-- Node13 -->
<g id="Node000013" class="node">
<title>Node13</title>
<g id="a_Node000013"><a xlink:href="../../d2/db4/class_deluxe_1_1_deluxe_brand_center_1_1_a_m_m_1_1_domain_1_1_utility_1_1_campaign_schedule_helper.html#a42c3b3f1ca8f22a4f3440309568d6b26" target="_top" xlink:title=" ">
<polygon fill="white" stroke="#666666" points="646.5,-106 455,-106 455,-62 646.5,-62 646.5,-106"/>
<text text-anchor="start" x="463" y="-92.5" font-family="Helvetica,sans-Serif" font-size="10.00">Deluxe.DeluxeBrandCenter.</text>
<text text-anchor="start" x="463" y="-80.5" font-family="Helvetica,sans-Serif" font-size="10.00">AMM.Domain.Utility.CampaignSchedule</text>
<text text-anchor="middle" x="550.75" y="-68.5" font-family="Helvetica,sans-Serif" font-size="10.00">Helper.GetFirstDay</text>
</a>
</g>
</g>
<!-- Node11&#45;&gt;Node13 -->
<g id="edge12_Node000011_Node000013" class="edge">
<title>Node11&#45;&gt;Node13</title>
<g id="a_edge12_Node000011_Node000013"><a xlink:title=" ">
<path fill="none" stroke="#63b8ff" d="M410.15,-120.53C424.23,-116.84 438.91,-113 453.23,-109.25"/>
<polygon fill="#63b8ff" stroke="#63b8ff" points="453.84,-112.71 462.63,-106.79 452.07,-105.94 453.84,-112.71"/>
</a>
</g>
</g>
<!-- Node15&#45;&gt;Node10 -->
<g id="edge15_Node000015_Node000010" class="edge">
<title>Node15&#45;&gt;Node10</title>
<g id="a_edge15_Node000015_Node000010"><a xlink:title=" ">
<path fill="none" stroke="#63b8ff" d="M633.48,-44.47C650.02,-49.02 667.53,-53.83 684.43,-58.48"/>
<polygon fill="#63b8ff" stroke="#63b8ff" points="683.39,-61.82 693.96,-61.1 685.25,-55.07 683.39,-61.82"/>
</a>
</g>
</g>
</g>
</svg>

<g id="navigator" transform="translate(0 0)" fill="#404254">
  <rect fill="#f2f5e9" fill-opacity="0.5" stroke="#606060" stroke-width=".5" x="0" y="0" width="60" height="60"/>
  <use id="zoomplus" xlink:href="#zoomPlus" x="17" y="9" onmousedown="handleZoom(evt,'in')"/>
  <use id="zoomminus" xlink:href="#zoomMin" x="42" y="9" onmousedown="handleZoom(evt,'out')"/>
  <use id="reset" xlink:href="#resetDef" x="30" y="36" onmousedown="handleReset()"/>
   <use id="arrowup" xlink:href="#arrowUp" x="0" y="0" onmousedown="handlePan(0,-1)"/>
  <use id="arrowright" xlink:href="#arrowRight" x="0" y="0" onmousedown="handlePan(1,0)"/>
  <use id="arrowdown" xlink:href="#arrowDown" x="0" y="0" onmousedown="handlePan(0,1)"/>
  <use id="arrowleft" xlink:href="#arrowLeft" x="0" y="0" onmousedown="handlePan(-1,0)"/>
</g>
<svg viewBox="0 0 15 15" width="100%" height="30px" preserveAspectRatio="xMaxYMin meet">
 <g id="arrow_out" transform="scale(0.3 0.3)">
  <a xlink:href="class_deluxe_1_1_deluxe_brand_center_1_1_a_m_m_1_1_domain_1_1_utility_1_1_campaign_schedule_helper_a98e9416a9783f3c9e6f50d571e7a9fbf_cgraph_org.svg" target="_base">
   <rect id="button" ry="5" rx="5" y="6" x="6" height="38" width="38"
        fill="#f2f5e9" fill-opacity="0.5" stroke="#606060" stroke-width="1.0"/>
   <path id="arrow"
     d="M 11.500037,31.436501 C 11.940474,20.09759 22.043105,11.32322 32.158766,21.979434 L 37.068811,17.246167 C 37.068811,17.246167 37.088388,32 37.088388,32 L 22.160133,31.978069 C 22.160133,31.978069 26.997745,27.140456 26.997745,27.140456 C 18.528582,18.264221 13.291696,25.230495 11.500037,31.436501 z"
     style="fill:#404040;"/>
  </a>
 </g>
</svg>

<style type='text/css'>
<![CDATA[
[data-mouse-over-selected='false'] { opacity: 0.7; }
[data-mouse-over-selected='true']  { opacity: 1.0; }
]]>
</style>
<script type="application/ecmascript"><![CDATA[
document.addEventListener('DOMContentLoaded', (event) => {
  highlightEdges();
  highlightAdjacentNodes();
});
]]></script>
</svg>
