<?xml version="1.0" encoding="UTF-8" standalone="no"?>
<!DOCTYPE svg PUBLIC "-//W3C//DTD SVG 1.1//EN"
 "http://www.w3.org/Graphics/SVG/1.1/DTD/svg11.dtd">
<!-- Generated by graphviz version 12.1.1 (20240910.0053)
 -->
<!-- Title: Deluxe.DeluxeBrandCenter.AMM.Domain.Utility.CampaignScheduleHelper.GetDayOfWeek Pages: 1 -->
<svg width="882pt" height="114pt"
 viewBox="0.00 0.00 882.00 114.00" xmlns="http://www.w3.org/2000/svg" xmlns:xlink="http://www.w3.org/1999/xlink">
<g id="graph0" class="graph" transform="scale(1 1) rotate(0) translate(4 110)">
<title>Deluxe.DeluxeBrandCenter.AMM.Domain.Utility.CampaignScheduleHelper.GetDayOfWeek</title>
<!-- Node1 -->
<g id="Node000001" class="node">
<title>Node1</title>
<g id="a_Node000001"><a xlink:title=" ">
<polygon fill="#999999" stroke="#666666" points="874,-75 682.5,-75 682.5,-31 874,-31 874,-75"/>
<text text-anchor="start" x="690.5" y="-61.5" font-family="Helvetica,sans-Serif" font-size="10.00">Deluxe.DeluxeBrandCenter.</text>
<text text-anchor="start" x="690.5" y="-49.5" font-family="Helvetica,sans-Serif" font-size="10.00">AMM.Domain.Utility.CampaignSchedule</text>
<text text-anchor="middle" x="778.25" y="-37.5" font-family="Helvetica,sans-Serif" font-size="10.00">Helper.GetDayOfWeek</text>
</a>
</g>
</g>
<!-- Node2 -->
<g id="Node000002" class="node">
<title>Node2</title>
<g id="a_Node000002"><a xlink:href="../../d2/db4/class_deluxe_1_1_deluxe_brand_center_1_1_a_m_m_1_1_domain_1_1_utility_1_1_campaign_schedule_helper.html#aec7db8e834e6fc8119dbac478d4c8ce4" target="_top" xlink:title=" ">
<polygon fill="white" stroke="#666666" points="646.5,-103 455,-103 455,-59 646.5,-59 646.5,-103"/>
<text text-anchor="start" x="463" y="-89.5" font-family="Helvetica,sans-Serif" font-size="10.00">Deluxe.DeluxeBrandCenter.</text>
<text text-anchor="start" x="463" y="-77.5" font-family="Helvetica,sans-Serif" font-size="10.00">AMM.Domain.Utility.CampaignSchedule</text>
<text text-anchor="middle" x="550.75" y="-65.5" font-family="Helvetica,sans-Serif" font-size="10.00">Helper.GenerateMonthlyDate</text>
</a>
</g>
</g>
<!-- Node1&#45;&gt;Node2 -->
<g id="edge1_Node000001_Node000002" class="edge">
<title>Node1&#45;&gt;Node2</title>
<g id="a_edge1_Node000001_Node000002"><a xlink:title=" ">
<path fill="none" stroke="#63b8ff" d="M670.99,-66.19C662.98,-67.19 654.92,-68.19 646.98,-69.18"/>
<polygon fill="#63b8ff" stroke="#63b8ff" points="671.28,-69.69 680.77,-64.98 670.41,-62.74 671.28,-69.69"/>
</a>
</g>
</g>
<!-- Node5 -->
<g id="Node000005" class="node">
<title>Node5</title>
<g id="a_Node000005"><a xlink:href="../../d2/db4/class_deluxe_1_1_deluxe_brand_center_1_1_a_m_m_1_1_domain_1_1_utility_1_1_campaign_schedule_helper.html#aab28b21ef93160c4103ecc1baf380624" target="_top" xlink:title=" ">
<polygon fill="white" stroke="#666666" points="419,-44 227.5,-44 227.5,0 419,0 419,-44"/>
<text text-anchor="start" x="235.5" y="-30.5" font-family="Helvetica,sans-Serif" font-size="10.00">Deluxe.DeluxeBrandCenter.</text>
<text text-anchor="start" x="235.5" y="-18.5" font-family="Helvetica,sans-Serif" font-size="10.00">AMM.Domain.Utility.CampaignSchedule</text>
<text text-anchor="middle" x="323.25" y="-6.5" font-family="Helvetica,sans-Serif" font-size="10.00">Helper.SetYearlyDateOffset</text>
</a>
</g>
</g>
<!-- Node1&#45;&gt;Node5 -->
<g id="edge4_Node000001_Node000005" class="edge">
<title>Node1&#45;&gt;Node5</title>
<g id="a_edge4_Node000001_Node000005"><a xlink:title=" ">
<path fill="none" stroke="#63b8ff" d="M670.95,-45.73C594.72,-40.51 492.92,-33.54 419.36,-28.51"/>
<polygon fill="#63b8ff" stroke="#63b8ff" points="670.28,-49.19 680.5,-46.38 670.76,-42.2 670.28,-49.19"/>
</a>
</g>
</g>
<!-- Node3 -->
<g id="Node000003" class="node">
<title>Node3</title>
<g id="a_Node000003"><a xlink:href="../../d2/db4/class_deluxe_1_1_deluxe_brand_center_1_1_a_m_m_1_1_domain_1_1_utility_1_1_campaign_schedule_helper.html#afae9ec48770ee3f76de51784166b44a2" target="_top" xlink:title=" ">
<polygon fill="white" stroke="#666666" points="419,-106 227.5,-106 227.5,-62 419,-62 419,-106"/>
<text text-anchor="start" x="235.5" y="-92.5" font-family="Helvetica,sans-Serif" font-size="10.00">Deluxe.DeluxeBrandCenter.</text>
<text text-anchor="start" x="235.5" y="-80.5" font-family="Helvetica,sans-Serif" font-size="10.00">AMM.Domain.Utility.CampaignSchedule</text>
<text text-anchor="middle" x="323.25" y="-68.5" font-family="Helvetica,sans-Serif" font-size="10.00">Helper.SetMonthlyDateOffset</text>
</a>
</g>
</g>
<!-- Node2&#45;&gt;Node3 -->
<g id="edge2_Node000002_Node000003" class="edge">
<title>Node2&#45;&gt;Node3</title>
<g id="a_edge2_Node000002_Node000003"><a xlink:title=" ">
<path fill="none" stroke="#63b8ff" d="M443.49,-82.41C435.48,-82.52 427.42,-82.63 419.48,-82.73"/>
<polygon fill="#63b8ff" stroke="#63b8ff" points="443.31,-85.92 453.26,-82.28 443.21,-78.92 443.31,-85.92"/>
</a>
</g>
</g>
<!-- Node4 -->
<g id="Node000004" class="node">
<title>Node4</title>
<g id="a_Node000004"><a xlink:href="../../d2/db4/class_deluxe_1_1_deluxe_brand_center_1_1_a_m_m_1_1_domain_1_1_utility_1_1_campaign_schedule_helper.html#a98e9416a9783f3c9e6f50d571e7a9fbf" target="_top" xlink:title=" ">
<polygon fill="white" stroke="#666666" points="191.5,-75 0,-75 0,-31 191.5,-31 191.5,-75"/>
<text text-anchor="start" x="8" y="-61.5" font-family="Helvetica,sans-Serif" font-size="10.00">Deluxe.DeluxeBrandCenter.</text>
<text text-anchor="start" x="8" y="-49.5" font-family="Helvetica,sans-Serif" font-size="10.00">AMM.Domain.Utility.CampaignSchedule</text>
<text text-anchor="middle" x="95.75" y="-37.5" font-family="Helvetica,sans-Serif" font-size="10.00">Helper.GetScheduledDates</text>
</a>
</g>
</g>
<!-- Node3&#45;&gt;Node4 -->
<g id="edge3_Node000003_Node000004" class="edge">
<title>Node3&#45;&gt;Node4</title>
<g id="a_edge3_Node000003_Node000004"><a xlink:title=" ">
<path fill="none" stroke="#63b8ff" d="M215.99,-69.39C207.98,-68.29 199.92,-67.18 191.98,-66.09"/>
<polygon fill="#63b8ff" stroke="#63b8ff" points="215.39,-72.84 225.77,-70.74 216.34,-65.91 215.39,-72.84"/>
</a>
</g>
</g>
<!-- Node5&#45;&gt;Node4 -->
<g id="edge5_Node000005_Node000004" class="edge">
<title>Node5&#45;&gt;Node4</title>
<g id="a_edge5_Node000005_Node000004"><a xlink:title=" ">
<path fill="none" stroke="#63b8ff" d="M215.99,-36.61C207.98,-37.71 199.92,-38.82 191.98,-39.91"/>
<polygon fill="#63b8ff" stroke="#63b8ff" points="216.34,-40.09 225.77,-35.26 215.39,-33.16 216.34,-40.09"/>
</a>
</g>
</g>
</g>
</svg>
