<?xml version="1.0" encoding="UTF-8" standalone="no"?>
<!DOCTYPE svg PUBLIC "-//W3C//DTD SVG 1.1//EN"
 "http://www.w3.org/Graphics/SVG/1.1/DTD/svg11.dtd">
<!-- Generated by graphviz version 12.1.1 (20240910.0053)
 -->
<!-- Title: Deluxe.DeluxeBrandCenter.AMM.API.Services.ClientService Pages: 1 -->
<svg width="1023pt" height="115pt"
 viewBox="0.00 0.00 1022.50 115.30" xmlns="http://www.w3.org/2000/svg" xmlns:xlink="http://www.w3.org/1999/xlink">
<g id="graph0" class="graph" transform="scale(1 1) rotate(0) translate(4 111.3)">
<title>Deluxe.DeluxeBrandCenter.AMM.API.Services.ClientService</title>
<!-- Node1 -->
<g id="Node000001" class="node">
<title>Node1</title>
<g id="a_Node000001"><a xlink:title=" ">
<polygon fill="#999999" stroke="#666666" points="1014.5,-71 853,-71 853,-39 1014.5,-39 1014.5,-71"/>
<text text-anchor="start" x="861" y="-57.5" font-family="Helvetica,sans-Serif" font-size="10.00">Deluxe.DeluxeBrandCenter.</text>
<text text-anchor="middle" x="933.75" y="-45.5" font-family="Helvetica,sans-Serif" font-size="10.00">AMM.API.Services.ClientService</text>
</a>
</g>
</g>
<!-- Node2 -->
<g id="Node000002" class="node">
<title>Node2</title>
<g id="a_Node000002"><a xlink:href="../../da/d9e/class_deluxe_1_1_deluxe_brand_center_1_1_a_m_m_1_1_a_p_i_1_1_services_1_1_client_d_b_service.html" target="_top" xlink:title=" ">
<polygon fill="white" stroke="#666666" points="816,-104 681.5,-104 681.5,-60 816,-60 816,-104"/>
<text text-anchor="start" x="689.5" y="-90.5" font-family="Helvetica,sans-Serif" font-size="10.00">ClientDBService&lt; Domain.</text>
<text text-anchor="start" x="689.5" y="-78.5" font-family="Helvetica,sans-Serif" font-size="10.00">DataModel.Client.Client,</text>
<text text-anchor="middle" x="748.75" y="-66.5" font-family="Helvetica,sans-Serif" font-size="10.00"> ClientVM &gt;</text>
</a>
</g>
</g>
<!-- Node2&#45;&gt;Node1 -->
<g id="edge1_Node000001_Node000002" class="edge">
<title>Node2&#45;&gt;Node1</title>
<g id="a_edge1_Node000001_Node000002"><a xlink:title=" ">
<path fill="none" stroke="#63b8ff" d="M827.5,-70.53C835.78,-69.31 844.21,-68.06 852.51,-66.84"/>
<polygon fill="#63b8ff" stroke="#63b8ff" points="827.21,-67.03 817.83,-71.96 828.24,-73.96 827.21,-67.03"/>
</a>
</g>
</g>
<!-- Node3 -->
<g id="Node000003" class="node">
<title>Node3</title>
<g id="a_Node000003"><a xlink:href="../../da/d9e/class_deluxe_1_1_deluxe_brand_center_1_1_a_m_m_1_1_a_p_i_1_1_services_1_1_client_d_b_service.html" target="_top" xlink:title=" ">
<polygon fill="white" stroke="#666666" points="518,-106 342.25,-106 342.25,-62 518,-62 518,-106"/>
<text text-anchor="start" x="350.25" y="-92.5" font-family="Helvetica,sans-Serif" font-size="10.00">Deluxe.DeluxeBrandCenter.</text>
<text text-anchor="start" x="350.25" y="-80.5" font-family="Helvetica,sans-Serif" font-size="10.00">AMM.API.Services.ClientDBService</text>
<text text-anchor="middle" x="430.12" y="-68.5" font-family="Helvetica,sans-Serif" font-size="10.00">&lt; TModel, TModelVM &gt;</text>
</a>
</g>
</g>
<!-- Node3&#45;&gt;Node2 -->
<g id="edge2_Node000002_Node000003" class="edge">
<title>Node3&#45;&gt;Node2</title>
<g id="a_edge2_Node000002_Node000003"><a xlink:title=" ">
<path fill="none" stroke="orange" stroke-dasharray="5,2" d="M529.8,-83.38C578.98,-83.07 637.14,-82.7 681.01,-82.42"/>
<polygon fill="orange" stroke="orange" points="529.97,-79.88 520,-83.44 530.02,-86.88 529.97,-79.88"/>
</a>
</g>
<text text-anchor="start" x="536" y="-97.8" font-family="Helvetica,sans-Serif" font-size="10.00" fill="grey"> &lt; Domain.DataModel.Client.</text>
<text text-anchor="middle" x="599.75" y="-85.8" font-family="Helvetica,sans-Serif" font-size="10.00" fill="grey">Client, ClientVM &gt;</text>
</g>
<!-- Node4 -->
<g id="Node000004" class="node">
<title>Node4</title>
<g id="a_Node000004"><a xlink:href="../../d0/dcc/interface_deluxe_1_1_deluxe_brand_center_1_1_a_m_m_1_1_a_p_i_1_1_services_1_1_i_client_d_b_service.html" target="_top" xlink:title=" ">
<polygon fill="white" stroke="#666666" points="157,-100 21.75,-100 21.75,-68 157,-68 157,-100"/>
<text text-anchor="start" x="29.75" y="-86.5" font-family="Helvetica,sans-Serif" font-size="10.00">IClientDBService&lt; TModel,</text>
<text text-anchor="middle" x="89.38" y="-74.5" font-family="Helvetica,sans-Serif" font-size="10.00"> TModelVM &gt;</text>
</a>
</g>
</g>
<!-- Node4&#45;&gt;Node3 -->
<g id="edge3_Node000003_Node000004" class="edge">
<title>Node4&#45;&gt;Node3</title>
<g id="a_edge3_Node000003_Node000004"><a xlink:title=" ">
<path fill="none" stroke="#63b8ff" d="M168.75,-84C220.48,-84 288.31,-84 341.77,-84"/>
<polygon fill="#63b8ff" stroke="#63b8ff" points="168.81,-80.5 158.81,-84 168.81,-87.5 168.81,-80.5"/>
</a>
</g>
</g>
<!-- Node5 -->
<g id="Node000005" class="node">
<title>Node5</title>
<g id="a_Node000005"><a xlink:href="../../d0/d36/interface_deluxe_1_1_deluxe_brand_center_1_1_a_m_m_1_1_a_p_i_1_1_services_1_1_i_client_service.html" target="_top" xlink:title=" ">
<polygon fill="white" stroke="#666666" points="787.5,-41 710,-41 710,-21 787.5,-21 787.5,-41"/>
<text text-anchor="middle" x="748.75" y="-27.5" font-family="Helvetica,sans-Serif" font-size="10.00">IClientService</text>
</a>
</g>
</g>
<!-- Node5&#45;&gt;Node1 -->
<g id="edge4_Node000001_Node000005" class="edge">
<title>Node5&#45;&gt;Node1</title>
<g id="a_edge4_Node000001_Node000005"><a xlink:title=" ">
<path fill="none" stroke="#63b8ff" d="M798.72,-37.42C815.3,-39.6 834.27,-42.09 852.62,-44.49"/>
<polygon fill="#63b8ff" stroke="#63b8ff" points="799.54,-34 789.17,-36.17 798.63,-40.94 799.54,-34"/>
</a>
</g>
</g>
<!-- Node6 -->
<g id="Node000006" class="node">
<title>Node6</title>
<g id="a_Node000006"><a xlink:href="../../d0/dcc/interface_deluxe_1_1_deluxe_brand_center_1_1_a_m_m_1_1_a_p_i_1_1_services_1_1_i_client_d_b_service.html" target="_top" xlink:title=" ">
<polygon fill="white" stroke="#666666" points="498.88,-44 361.38,-44 361.38,0 498.88,0 498.88,-44"/>
<text text-anchor="start" x="369.38" y="-30.5" font-family="Helvetica,sans-Serif" font-size="10.00">IClientDBService&lt; Domain.</text>
<text text-anchor="start" x="369.38" y="-18.5" font-family="Helvetica,sans-Serif" font-size="10.00">DataModel.Client.Client,</text>
<text text-anchor="middle" x="430.12" y="-6.5" font-family="Helvetica,sans-Serif" font-size="10.00"> ClientVM &gt;</text>
</a>
</g>
</g>
<!-- Node6&#45;&gt;Node5 -->
<g id="edge5_Node000005_Node000006" class="edge">
<title>Node6&#45;&gt;Node5</title>
<g id="a_edge5_Node000005_Node000006"><a xlink:title=" ">
<path fill="none" stroke="#63b8ff" d="M510.25,-24.25C573.92,-26.06 660.59,-28.52 709.69,-29.92"/>
<polygon fill="#63b8ff" stroke="#63b8ff" points="510.66,-20.76 500.56,-23.97 510.46,-27.76 510.66,-20.76"/>
</a>
</g>
</g>
<!-- Node7 -->
<g id="Node000007" class="node">
<title>Node7</title>
<g id="a_Node000007"><a xlink:href="../../d0/dcc/interface_deluxe_1_1_deluxe_brand_center_1_1_a_m_m_1_1_a_p_i_1_1_services_1_1_i_client_d_b_service.html" target="_top" xlink:title=" ">
<polygon fill="white" stroke="#666666" points="178.75,-44 0,-44 0,0 178.75,0 178.75,-44"/>
<text text-anchor="start" x="8" y="-30.5" font-family="Helvetica,sans-Serif" font-size="10.00">Deluxe.DeluxeBrandCenter.</text>
<text text-anchor="start" x="8" y="-18.5" font-family="Helvetica,sans-Serif" font-size="10.00">AMM.API.Services.IClientDBService</text>
<text text-anchor="middle" x="89.38" y="-6.5" font-family="Helvetica,sans-Serif" font-size="10.00">&lt; TModel, TModelVM &gt;</text>
</a>
</g>
</g>
<!-- Node7&#45;&gt;Node6 -->
<g id="edge6_Node000006_Node000007" class="edge">
<title>Node7&#45;&gt;Node6</title>
<g id="a_edge6_Node000006_Node000007"><a xlink:title=" ">
<path fill="none" stroke="orange" stroke-dasharray="5,2" d="M190.14,-22C245.19,-22 312.13,-22 361.14,-22"/>
<polygon fill="orange" stroke="orange" points="190.45,-18.5 180.45,-22 190.45,-25.5 190.45,-18.5"/>
</a>
</g>
<text text-anchor="start" x="196.75" y="-36.5" font-family="Helvetica,sans-Serif" font-size="10.00" fill="grey"> &lt; Domain.DataModel.Client.</text>
<text text-anchor="middle" x="260.5" y="-24.5" font-family="Helvetica,sans-Serif" font-size="10.00" fill="grey">Client, ClientVM &gt;</text>
</g>
</g>
</svg>
