<?xml version="1.0" encoding="UTF-8" standalone="no"?>
<!DOCTYPE svg PUBLIC "-//W3C//DTD SVG 1.1//EN"
 "http://www.w3.org/Graphics/SVG/1.1/DTD/svg11.dtd">
<!-- Generated by graphviz version 12.1.1 (20240910.0053)
 -->
<!-- Title: Deluxe.DeluxeBrandCenter.AMM.Domain.ITableEditor&lt; T &gt; Pages: 1 -->
<svg width="1433pt" height="97pt"
 viewBox="0.00 0.00 1433.00 97.00" xmlns="http://www.w3.org/2000/svg" xmlns:xlink="http://www.w3.org/1999/xlink">
<g id="graph0" class="graph" transform="scale(1 1) rotate(0) translate(4 93)">
<title>Deluxe.DeluxeBrandCenter.AMM.Domain.ITableEditor&lt; T &gt;</title>
<!-- Node1 -->
<g id="Node000001" class="node">
<title>Node1</title>
<g id="a_Node000001"><a xlink:title="Interface implements IRowEditor and IColumnEditor.">
<polygon fill="#999999" stroke="#666666" points="292.5,-58 138.5,-58 138.5,-26 292.5,-26 292.5,-58"/>
<text text-anchor="start" x="146.5" y="-44.5" font-family="Helvetica,sans-Serif" font-size="10.00">Deluxe.DeluxeBrandCenter.</text>
<text text-anchor="middle" x="215.5" y="-32.5" font-family="Helvetica,sans-Serif" font-size="10.00">AMM.Domain.ITableEditor&lt; T &gt;</text>
</a>
</g>
</g>
<!-- Node4 -->
<g id="Node000004" class="node">
<title>Node4</title>
<g id="a_Node000004"><a xlink:href="../../d8/d96/interface_deluxe_1_1_deluxe_brand_center_1_1_a_m_m_1_1_domain_1_1_i_table.html" target="_top" xlink:title="Interface implements ITableReader, ITableWriter, ITableEditor.">
<polygon fill="white" stroke="#666666" points="467.75,-58 329.5,-58 329.5,-26 467.75,-26 467.75,-58"/>
<text text-anchor="start" x="337.5" y="-44.5" font-family="Helvetica,sans-Serif" font-size="10.00">Deluxe.DeluxeBrandCenter.</text>
<text text-anchor="middle" x="398.62" y="-32.5" font-family="Helvetica,sans-Serif" font-size="10.00">AMM.Domain.ITable&lt; T &gt;</text>
</a>
</g>
</g>
<!-- Node1&#45;&gt;Node4 -->
<g id="edge3_Node000001_Node000004" class="edge">
<title>Node1&#45;&gt;Node4</title>
<g id="a_edge3_Node000001_Node000004"><a xlink:title=" ">
<path fill="none" stroke="#63b8ff" d="M304.19,-42C312.59,-42 321.02,-42 329.2,-42"/>
<polygon fill="#63b8ff" stroke="#63b8ff" points="304.3,-38.5 294.3,-42 304.3,-45.5 304.3,-38.5"/>
</a>
</g>
</g>
<!-- Node2 -->
<g id="Node000002" class="node">
<title>Node2</title>
<g id="a_Node000002"><a xlink:href="../../d0/d81/interface_deluxe_1_1_deluxe_brand_center_1_1_a_m_m_1_1_domain_1_1_i_row_editor.html" target="_top" xlink:title="Interface for row editing that has Delete row, append row and insert row.">
<polygon fill="white" stroke="#666666" points="94.75,-71 6.75,-71 6.75,-51 94.75,-51 94.75,-71"/>
<text text-anchor="middle" x="50.75" y="-57.5" font-family="Helvetica,sans-Serif" font-size="10.00">IRowEditor&lt; T &gt;</text>
</a>
</g>
</g>
<!-- Node2&#45;&gt;Node1 -->
<g id="edge1_Node000001_Node000002" class="edge">
<title>Node2&#45;&gt;Node1</title>
<g id="a_edge1_Node000001_Node000002"><a xlink:title=" ">
<path fill="none" stroke="#63b8ff" d="M106.18,-54.65C116.42,-53.45 127.3,-52.18 138.06,-50.92"/>
<polygon fill="#63b8ff" stroke="#63b8ff" points="105.97,-51.15 96.44,-55.78 106.78,-58.1 105.97,-51.15"/>
</a>
</g>
</g>
<!-- Node3 -->
<g id="Node000003" class="node">
<title>Node3</title>
<g id="a_Node000003"><a xlink:href="../../d7/d95/interface_deluxe_1_1_deluxe_brand_center_1_1_a_m_m_1_1_domain_1_1_i_column_editor.html" target="_top" xlink:title="Interface for column editing (delete column, append column and insert column)">
<polygon fill="white" stroke="#666666" points="101.5,-33 0,-33 0,-13 101.5,-13 101.5,-33"/>
<text text-anchor="middle" x="50.75" y="-19.5" font-family="Helvetica,sans-Serif" font-size="10.00">IColumnEditor&lt; T &gt;</text>
</a>
</g>
</g>
<!-- Node3&#45;&gt;Node1 -->
<g id="edge2_Node000001_Node000003" class="edge">
<title>Node3&#45;&gt;Node1</title>
<g id="a_edge2_Node000001_Node000003"><a xlink:title=" ">
<path fill="none" stroke="#63b8ff" d="M113.21,-30.18C121.37,-31.13 129.81,-32.11 138.17,-33.09"/>
<polygon fill="#63b8ff" stroke="#63b8ff" points="113.75,-26.71 103.41,-29.03 112.94,-33.67 113.75,-26.71"/>
</a>
</g>
</g>
<!-- Node5 -->
<g id="Node000005" class="node">
<title>Node5</title>
<g id="a_Node000005"><a xlink:href="../../d7/d96/class_deluxe_1_1_deluxe_brand_center_1_1_a_m_m_1_1_domain_1_1_table.html" target="_top" xlink:title=" ">
<polygon fill="white" stroke="#666666" points="687,-89 548.75,-89 548.75,-57 687,-57 687,-89"/>
<text text-anchor="start" x="556.75" y="-75.5" font-family="Helvetica,sans-Serif" font-size="10.00">Deluxe.DeluxeBrandCenter.</text>
<text text-anchor="middle" x="617.88" y="-63.5" font-family="Helvetica,sans-Serif" font-size="10.00">AMM.Domain.Table&lt; T &gt;</text>
</a>
</g>
</g>
<!-- Node4&#45;&gt;Node5 -->
<g id="edge4_Node000004_Node000005" class="edge">
<title>Node4&#45;&gt;Node5</title>
<g id="a_edge4_Node000004_Node000005"><a xlink:title=" ">
<path fill="none" stroke="#63b8ff" d="M479.37,-53.38C502.02,-56.61 526.48,-60.1 548.4,-63.23"/>
<polygon fill="#63b8ff" stroke="#63b8ff" points="479.96,-49.93 469.56,-51.98 478.97,-56.86 479.96,-49.93"/>
</a>
</g>
</g>
<!-- Node10 -->
<g id="Node000010" class="node">
<title>Node10</title>
<g id="a_Node000010"><a xlink:href="../../d8/d96/interface_deluxe_1_1_deluxe_brand_center_1_1_a_m_m_1_1_domain_1_1_i_table.html" target="_top" xlink:title=" ">
<polygon fill="white" stroke="#666666" points="852.25,-45 705,-45 705,-13 852.25,-13 852.25,-45"/>
<text text-anchor="start" x="713" y="-31.5" font-family="Helvetica,sans-Serif" font-size="10.00">Deluxe.DeluxeBrandCenter.</text>
<text text-anchor="middle" x="778.62" y="-19.5" font-family="Helvetica,sans-Serif" font-size="10.00">AMM.Domain.ITable&lt; string &gt;</text>
</a>
</g>
</g>
<!-- Node4&#45;&gt;Node10 -->
<g id="edge9_Node000004_Node000010" class="edge">
<title>Node4&#45;&gt;Node10</title>
<g id="a_edge9_Node000004_Node000010"><a xlink:title=" ">
<path fill="none" stroke="orange" stroke-dasharray="5,2" d="M479.11,-39.23C481.35,-39.15 483.56,-39.08 485.75,-39 560.36,-36.42 645.71,-33.5 704.76,-31.49"/>
<polygon fill="orange" stroke="orange" points="479.18,-35.73 469.31,-39.57 479.42,-42.72 479.18,-35.73"/>
</a>
</g>
<text text-anchor="middle" x="508.25" y="-41.5" font-family="Helvetica,sans-Serif" font-size="10.00" fill="grey"> &lt; string &gt;</text>
</g>
<!-- Node6 -->
<g id="Node000006" class="node">
<title>Node6</title>
<g id="a_Node000006"><a xlink:href="../../d7/d96/class_deluxe_1_1_deluxe_brand_center_1_1_a_m_m_1_1_domain_1_1_table.html" target="_top" xlink:title=" ">
<polygon fill="white" stroke="#666666" points="1014.5,-89 870.25,-89 870.25,-57 1014.5,-57 1014.5,-89"/>
<text text-anchor="start" x="878.25" y="-75.5" font-family="Helvetica,sans-Serif" font-size="10.00">Deluxe.DeluxeBrandCenter.</text>
<text text-anchor="middle" x="942.38" y="-63.5" font-family="Helvetica,sans-Serif" font-size="10.00">AMM.Domain.Table&lt; string &gt;</text>
</a>
</g>
</g>
<!-- Node5&#45;&gt;Node6 -->
<g id="edge5_Node000005_Node000006" class="edge">
<title>Node5&#45;&gt;Node6</title>
<g id="a_edge5_Node000005_Node000006"><a xlink:title=" ">
<path fill="none" stroke="orange" stroke-dasharray="5,2" d="M698.56,-73C751.08,-73 819.27,-73 870.01,-73"/>
<polygon fill="orange" stroke="orange" points="698.78,-69.5 688.78,-73 698.78,-76.5 698.78,-69.5"/>
</a>
</g>
<text text-anchor="middle" x="778.62" y="-75.5" font-family="Helvetica,sans-Serif" font-size="10.00" fill="grey"> &lt; string &gt;</text>
</g>
<!-- Node7 -->
<g id="Node000007" class="node">
<title>Node7</title>
<g id="a_Node000007"><a xlink:href="../../d0/d2a/class_deluxe_1_1_deluxe_brand_center_1_1_a_m_m_1_1_domain_1_1_utility_1_1_c_s_v_table.html" target="_top" xlink:title=" ">
<polygon fill="white" stroke="#666666" points="1202.5,-57 1051.5,-57 1051.5,-25 1202.5,-25 1202.5,-57"/>
<text text-anchor="start" x="1059.5" y="-43.5" font-family="Helvetica,sans-Serif" font-size="10.00">Deluxe.DeluxeBrandCenter.</text>
<text text-anchor="middle" x="1127" y="-31.5" font-family="Helvetica,sans-Serif" font-size="10.00">AMM.Domain.Utility.CSVTable</text>
</a>
</g>
</g>
<!-- Node6&#45;&gt;Node7 -->
<g id="edge6_Node000006_Node000007" class="edge">
<title>Node6&#45;&gt;Node7</title>
<g id="a_edge6_Node000006_Node000007"><a xlink:title=" ">
<path fill="none" stroke="#63b8ff" d="M1026.04,-58.52C1034.37,-57.06 1042.8,-55.58 1051.04,-54.13"/>
<polygon fill="#63b8ff" stroke="#63b8ff" points="1025.5,-55.06 1016.26,-60.23 1026.71,-61.95 1025.5,-55.06"/>
</a>
</g>
</g>
<!-- Node8 -->
<g id="Node000008" class="node">
<title>Node8</title>
<g id="a_Node000008"><a xlink:href="../../d8/d92/class_deluxe_1_1_deluxe_brand_center_1_1_a_m_m_1_1_domain_1_1_utility_1_1_activity_c_s_v_table.html" target="_top" xlink:title=" ">
<polygon fill="white" stroke="#666666" points="1424.25,-82 1240.25,-82 1240.25,-50 1424.25,-50 1424.25,-82"/>
<text text-anchor="start" x="1248.25" y="-68.5" font-family="Helvetica,sans-Serif" font-size="10.00">Deluxe.DeluxeBrandCenter.</text>
<text text-anchor="middle" x="1332.25" y="-56.5" font-family="Helvetica,sans-Serif" font-size="10.00">AMM.Domain.Utility.ActivityCSVTable</text>
</a>
</g>
</g>
<!-- Node7&#45;&gt;Node8 -->
<g id="edge7_Node000007_Node000008" class="edge">
<title>Node7&#45;&gt;Node8</title>
<g id="a_edge7_Node000007_Node000008"><a xlink:title=" ">
<path fill="none" stroke="#63b8ff" d="M1214.02,-51.58C1222.62,-52.64 1231.38,-53.72 1240.03,-54.78"/>
<polygon fill="#63b8ff" stroke="#63b8ff" points="1214.67,-48.13 1204.32,-50.39 1213.82,-55.08 1214.67,-48.13"/>
</a>
</g>
</g>
<!-- Node9 -->
<g id="Node000009" class="node">
<title>Node9</title>
<g id="a_Node000009"><a xlink:href="../../dd/d19/class_deluxe_1_1_deluxe_brand_center_1_1_a_m_m_1_1_domain_1_1_utility_1_1_contact_c_s_v_table.html" target="_top" xlink:title=" ">
<polygon fill="white" stroke="#666666" points="1425,-32 1239.5,-32 1239.5,0 1425,0 1425,-32"/>
<text text-anchor="start" x="1247.5" y="-18.5" font-family="Helvetica,sans-Serif" font-size="10.00">Deluxe.DeluxeBrandCenter.</text>
<text text-anchor="middle" x="1332.25" y="-6.5" font-family="Helvetica,sans-Serif" font-size="10.00">AMM.Domain.Utility.ContactCSVTable</text>
</a>
</g>
</g>
<!-- Node7&#45;&gt;Node9 -->
<g id="edge8_Node000007_Node000009" class="edge">
<title>Node7&#45;&gt;Node9</title>
<g id="a_edge8_Node000007_Node000009"><a xlink:title=" ">
<path fill="none" stroke="#63b8ff" d="M1214.09,-30.41C1222.44,-29.38 1230.93,-28.34 1239.34,-27.31"/>
<polygon fill="#63b8ff" stroke="#63b8ff" points="1213.82,-26.92 1204.32,-31.61 1214.67,-33.87 1213.82,-26.92"/>
</a>
</g>
</g>
<!-- Node10&#45;&gt;Node7 -->
<g id="edge10_Node000010_Node000007" class="edge">
<title>Node10&#45;&gt;Node7</title>
<g id="a_edge10_Node000010_Node000007"><a xlink:title=" ">
<path fill="none" stroke="#63b8ff" d="M863.86,-31.92C921.11,-33.9 996.15,-36.5 1051.27,-38.41"/>
<polygon fill="#63b8ff" stroke="#63b8ff" points="864.29,-28.43 854.17,-31.58 864.04,-35.43 864.29,-28.43"/>
</a>
</g>
</g>
</g>
</svg>
