<?xml version="1.0" encoding="UTF-8" standalone="no"?>
<!DOCTYPE svg PUBLIC "-//W3C//DTD SVG 1.1//EN"
 "http://www.w3.org/Graphics/SVG/1.1/DTD/svg11.dtd">
<!-- Generated by graphviz version 12.1.1 (20240910.0053)
 -->
<!-- Title: Deluxe.DeluxeBrandCenter.AMM.Infrastructure.PMS.IPersonaMicroservice.GetPersonaInstance Pages: 1 -->
<svg width="597pt" height="276pt"
 viewBox="0.00 0.00 596.75 276.00" xmlns="http://www.w3.org/2000/svg" xmlns:xlink="http://www.w3.org/1999/xlink">
<g id="graph0" class="graph" transform="scale(1 1) rotate(0) translate(4 272)">
<title>Deluxe.DeluxeBrandCenter.AMM.Infrastructure.PMS.IPersonaMicroservice.GetPersonaInstance</title>
<!-- Node1 -->
<g id="Node000001" class="node">
<title>Node1</title>
<g id="a_Node000001"><a xlink:title=" ">
<polygon fill="#999999" stroke="#666666" points="588.75,-168 422,-168 422,-124 588.75,-124 588.75,-168"/>
<text text-anchor="start" x="430" y="-154.5" font-family="Helvetica,sans-Serif" font-size="10.00">Deluxe.DeluxeBrandCenter.</text>
<text text-anchor="start" x="430" y="-142.5" font-family="Helvetica,sans-Serif" font-size="10.00">AMM.Infrastructure.PMS.IPersona</text>
<text text-anchor="middle" x="505.38" y="-130.5" font-family="Helvetica,sans-Serif" font-size="10.00">Microservice.GetPersonaInstance</text>
</a>
</g>
</g>
<!-- Node2 -->
<g id="Node000002" class="node">
<title>Node2</title>
<g id="a_Node000002"><a xlink:href="../../d5/d6c/class_deluxe_1_1_deluxe_brand_center_1_1_a_m_m_1_1_a_p_i_1_1_services_1_1_persona_service.html#a5cd63501cc523b3c5ab46cb60f1d957c" target="_top" xlink:title=" ">
<polygon fill="white" stroke="#666666" points="386,-268 211,-268 211,-224 386,-224 386,-268"/>
<text text-anchor="start" x="219" y="-254.5" font-family="Helvetica,sans-Serif" font-size="10.00">Deluxe.DeluxeBrandCenter.</text>
<text text-anchor="start" x="219" y="-242.5" font-family="Helvetica,sans-Serif" font-size="10.00">AMM.API.Services.PersonaService.</text>
<text text-anchor="middle" x="298.5" y="-230.5" font-family="Helvetica,sans-Serif" font-size="10.00">FindPersonaByType</text>
</a>
</g>
</g>
<!-- Node1&#45;&gt;Node2 -->
<g id="edge1_Node000001_Node000002" class="edge">
<title>Node1&#45;&gt;Node2</title>
<g id="a_edge1_Node000001_Node000002"><a xlink:title=" ">
<path fill="none" stroke="#63b8ff" d="M455.17,-174.05C434.12,-185.67 409.11,-198.98 386,-210 376.31,-214.62 365.87,-219.25 355.7,-223.58"/>
<polygon fill="#63b8ff" stroke="#63b8ff" points="456.8,-177.15 463.84,-169.23 453.4,-171.03 456.8,-177.15"/>
</a>
</g>
</g>
<!-- Node3 -->
<g id="Node000003" class="node">
<title>Node3</title>
<g id="a_Node000003"><a xlink:href="../../d5/d6c/class_deluxe_1_1_deluxe_brand_center_1_1_a_m_m_1_1_a_p_i_1_1_services_1_1_persona_service.html#aeac46e324eda8e66b9048cee84da0bb9" target="_top" xlink:title=" ">
<polygon fill="white" stroke="#666666" points="175,-243 0,-243 0,-199 175,-199 175,-243"/>
<text text-anchor="start" x="8" y="-229.5" font-family="Helvetica,sans-Serif" font-size="10.00">Deluxe.DeluxeBrandCenter.</text>
<text text-anchor="start" x="8" y="-217.5" font-family="Helvetica,sans-Serif" font-size="10.00">AMM.API.Services.PersonaService.</text>
<text text-anchor="middle" x="87.5" y="-205.5" font-family="Helvetica,sans-Serif" font-size="10.00">GetDefaultPersonaForProfile</text>
</a>
</g>
</g>
<!-- Node1&#45;&gt;Node3 -->
<g id="edge3_Node000001_Node000003" class="edge">
<title>Node1&#45;&gt;Node3</title>
<g id="a_edge3_Node000001_Node000003"><a xlink:title=" ">
<path fill="none" stroke="#63b8ff" d="M412.28,-171.16C403.43,-173.26 394.56,-175.25 386,-177 315.53,-191.39 234.76,-203.04 175.18,-210.72"/>
<polygon fill="#63b8ff" stroke="#63b8ff" points="413.1,-174.56 421.99,-168.8 411.45,-167.76 413.1,-174.56"/>
</a>
</g>
</g>
<!-- Node4 -->
<g id="Node000004" class="node">
<title>Node4</title>
<g id="a_Node000004"><a xlink:href="../../d5/d6c/class_deluxe_1_1_deluxe_brand_center_1_1_a_m_m_1_1_a_p_i_1_1_services_1_1_persona_service.html#a43f89b3f0a8d5cadfcc099860878bedd" target="_top" xlink:title=" ">
<polygon fill="white" stroke="#666666" points="386,-168 211,-168 211,-124 386,-124 386,-168"/>
<text text-anchor="start" x="219" y="-154.5" font-family="Helvetica,sans-Serif" font-size="10.00">Deluxe.DeluxeBrandCenter.</text>
<text text-anchor="start" x="219" y="-142.5" font-family="Helvetica,sans-Serif" font-size="10.00">AMM.API.Services.PersonaService.</text>
<text text-anchor="middle" x="298.5" y="-130.5" font-family="Helvetica,sans-Serif" font-size="10.00">GetPersonaByGUID</text>
</a>
</g>
</g>
<!-- Node1&#45;&gt;Node4 -->
<g id="edge4_Node000001_Node000004" class="edge">
<title>Node1&#45;&gt;Node4</title>
<g id="a_edge4_Node000001_Node000004"><a xlink:title=" ">
<path fill="none" stroke="#63b8ff" d="M410.34,-146C402.31,-146 394.2,-146 386.23,-146"/>
<polygon fill="#63b8ff" stroke="#63b8ff" points="410.12,-149.5 420.12,-146 410.12,-142.5 410.12,-149.5"/>
</a>
</g>
</g>
<!-- Node5 -->
<g id="Node000005" class="node">
<title>Node5</title>
<g id="a_Node000005"><a xlink:href="../../d5/d6c/class_deluxe_1_1_deluxe_brand_center_1_1_a_m_m_1_1_a_p_i_1_1_services_1_1_persona_service.html#ac63f498e6f4d9a8b1df97daace8afb30" target="_top" xlink:title=" ">
<polygon fill="white" stroke="#666666" points="386,-106 211,-106 211,-62 386,-62 386,-106"/>
<text text-anchor="start" x="219" y="-92.5" font-family="Helvetica,sans-Serif" font-size="10.00">Deluxe.DeluxeBrandCenter.</text>
<text text-anchor="start" x="219" y="-80.5" font-family="Helvetica,sans-Serif" font-size="10.00">AMM.API.Services.PersonaService.</text>
<text text-anchor="middle" x="298.5" y="-68.5" font-family="Helvetica,sans-Serif" font-size="10.00">GetPersonasForProfile</text>
</a>
</g>
</g>
<!-- Node1&#45;&gt;Node5 -->
<g id="edge5_Node000001_Node000005" class="edge">
<title>Node1&#45;&gt;Node5</title>
<g id="a_edge5_Node000001_Node000005"><a xlink:title=" ">
<path fill="none" stroke="#63b8ff" d="M419.26,-120.24C404.18,-115.68 388.59,-110.96 373.84,-106.5"/>
<polygon fill="#63b8ff" stroke="#63b8ff" points="418.09,-123.54 428.67,-123.09 420.11,-116.84 418.09,-123.54"/>
</a>
</g>
</g>
<!-- Node6 -->
<g id="Node000006" class="node">
<title>Node6</title>
<g id="a_Node000006"><a xlink:href="../../d5/d6c/class_deluxe_1_1_deluxe_brand_center_1_1_a_m_m_1_1_a_p_i_1_1_services_1_1_persona_service.html#a6882190ee9ea6f2e4692cafaf4f80c37" target="_top" xlink:title=" ">
<polygon fill="white" stroke="#666666" points="386,-44 211,-44 211,0 386,0 386,-44"/>
<text text-anchor="start" x="219" y="-30.5" font-family="Helvetica,sans-Serif" font-size="10.00">Deluxe.DeluxeBrandCenter.</text>
<text text-anchor="start" x="219" y="-18.5" font-family="Helvetica,sans-Serif" font-size="10.00">AMM.API.Services.PersonaService.</text>
<text text-anchor="middle" x="298.5" y="-6.5" font-family="Helvetica,sans-Serif" font-size="10.00">Single</text>
</a>
</g>
</g>
<!-- Node1&#45;&gt;Node6 -->
<g id="edge6_Node000001_Node000006" class="edge">
<title>Node1&#45;&gt;Node6</title>
<g id="a_edge6_Node000001_Node000006"><a xlink:title=" ">
<path fill="none" stroke="#63b8ff" d="M472.09,-115.94C449.37,-96.01 417.5,-70.41 386,-53 380.42,-49.91 374.46,-47.03 368.4,-44.37"/>
<polygon fill="#63b8ff" stroke="#63b8ff" points="469.71,-118.5 479.5,-122.54 474.36,-113.27 469.71,-118.5"/>
</a>
</g>
</g>
<!-- Node2&#45;&gt;Node3 -->
<g id="edge2_Node000002_Node000003" class="edge">
<title>Node2&#45;&gt;Node3</title>
<g id="a_edge2_Node000002_Node000003"><a xlink:title=" ">
<path fill="none" stroke="#63b8ff" d="M199.4,-234.27C191.38,-233.31 183.31,-232.34 175.39,-231.39"/>
<polygon fill="#63b8ff" stroke="#63b8ff" points="198.83,-237.72 209.18,-235.44 199.66,-230.77 198.83,-237.72"/>
</a>
</g>
</g>
</g>
</svg>
