<?xml version="1.0" encoding="UTF-8" standalone="no"?>
<!DOCTYPE svg PUBLIC "-//W3C//DTD SVG 1.1//EN"
 "http://www.w3.org/Graphics/SVG/1.1/DTD/svg11.dtd">
<!-- Generated by graphviz version 12.1.1 (20240910.0053)
 -->
<!-- Title: Deluxe.DeluxeBrandCenter.AMM.Infrastructure.Mindfire.ContactServiceMF.ImportCSV Pages: 1 -->
<svg width="605pt" height="176pt"
 viewBox="0.00 0.00 605.00 176.00" xmlns="http://www.w3.org/2000/svg" xmlns:xlink="http://www.w3.org/1999/xlink">
<g id="graph0" class="graph" transform="scale(1 1) rotate(0) translate(4 172)">
<title>Deluxe.DeluxeBrandCenter.AMM.Infrastructure.Mindfire.ContactServiceMF.ImportCSV</title>
<!-- Node1 -->
<g id="Node000001" class="node">
<title>Node1</title>
<g id="a_Node000001"><a xlink:title=" ">
<polygon fill="#999999" stroke="#666666" points="175,-75 0,-75 0,-31 175,-31 175,-75"/>
<text text-anchor="start" x="8" y="-61.5" font-family="Helvetica,sans-Serif" font-size="10.00">Deluxe.DeluxeBrandCenter.</text>
<text text-anchor="start" x="8" y="-49.5" font-family="Helvetica,sans-Serif" font-size="10.00">AMM.Infrastructure.Mindfire.Contact</text>
<text text-anchor="middle" x="87.5" y="-37.5" font-family="Helvetica,sans-Serif" font-size="10.00">ServiceMF.ImportCSV</text>
</a>
</g>
</g>
<!-- Node2 -->
<g id="Node000002" class="node">
<title>Node2</title>
<g id="a_Node000002"><a xlink:href="../../d5/d64/class_deluxe_1_1_deluxe_brand_center_1_1_a_m_m_1_1_infrastructure_1_1_mindfire_1_1_contact_service_m_f.html#a44f963b37ed5200d265d8a46854e8348" target="_top" xlink:title=" ">
<polygon fill="white" stroke="#666666" points="386,-106 211,-106 211,-62 386,-62 386,-106"/>
<text text-anchor="start" x="219" y="-92.5" font-family="Helvetica,sans-Serif" font-size="10.00">Deluxe.DeluxeBrandCenter.</text>
<text text-anchor="start" x="219" y="-80.5" font-family="Helvetica,sans-Serif" font-size="10.00">AMM.Infrastructure.Mindfire.Contact</text>
<text text-anchor="middle" x="298.5" y="-68.5" font-family="Helvetica,sans-Serif" font-size="10.00">ServiceMF.GetFinishedImport</text>
</a>
</g>
</g>
<!-- Node1&#45;&gt;Node2 -->
<g id="edge1_Node000001_Node000002" class="edge">
<title>Node1&#45;&gt;Node2</title>
<g id="a_edge1_Node000001_Node000002"><a xlink:title=" ">
<path fill="none" stroke="#63b8ff" d="M175.32,-65.88C183.25,-67.05 191.31,-68.25 199.33,-69.44"/>
<polygon fill="#63b8ff" stroke="#63b8ff" points="198.71,-72.89 209.12,-70.89 199.74,-65.96 198.71,-72.89"/>
</a>
</g>
</g>
<!-- Node5 -->
<g id="Node000005" class="node">
<title>Node5</title>
<g id="a_Node000005"><a xlink:href="../../d5/d64/class_deluxe_1_1_deluxe_brand_center_1_1_a_m_m_1_1_infrastructure_1_1_mindfire_1_1_contact_service_m_f.html#a9fac9401aa87c5340d8a5e914dbae8d9" target="_top" xlink:title=" ">
<polygon fill="white" stroke="#666666" points="386,-44 211,-44 211,0 386,0 386,-44"/>
<text text-anchor="start" x="219" y="-30.5" font-family="Helvetica,sans-Serif" font-size="10.00">Deluxe.DeluxeBrandCenter.</text>
<text text-anchor="start" x="219" y="-18.5" font-family="Helvetica,sans-Serif" font-size="10.00">AMM.Infrastructure.Mindfire.Contact</text>
<text text-anchor="middle" x="298.5" y="-6.5" font-family="Helvetica,sans-Serif" font-size="10.00">ServiceMF.ImportContacts</text>
</a>
</g>
</g>
<!-- Node1&#45;&gt;Node5 -->
<g id="edge4_Node000001_Node000005" class="edge">
<title>Node1&#45;&gt;Node5</title>
<g id="a_edge4_Node000001_Node000005"><a xlink:title=" ">
<path fill="none" stroke="#63b8ff" d="M175.32,-40.12C183.25,-38.95 191.31,-37.75 199.33,-36.56"/>
<polygon fill="#63b8ff" stroke="#63b8ff" points="199.74,-40.04 209.12,-35.11 198.71,-33.11 199.74,-40.04"/>
</a>
</g>
</g>
<!-- Node3 -->
<g id="Node000003" class="node">
<title>Node3</title>
<g id="a_Node000003"><a xlink:href="../../d5/d64/class_deluxe_1_1_deluxe_brand_center_1_1_a_m_m_1_1_infrastructure_1_1_mindfire_1_1_contact_service_m_f.html#a6ec75c4b2217b1a22fe29bed81ed9f05" target="_top" xlink:title=" ">
<polygon fill="white" stroke="#666666" points="597,-168 422,-168 422,-124 597,-124 597,-168"/>
<text text-anchor="start" x="430" y="-154.5" font-family="Helvetica,sans-Serif" font-size="10.00">Deluxe.DeluxeBrandCenter.</text>
<text text-anchor="start" x="430" y="-142.5" font-family="Helvetica,sans-Serif" font-size="10.00">AMM.Infrastructure.Mindfire.Contact</text>
<text text-anchor="middle" x="509.5" y="-130.5" font-family="Helvetica,sans-Serif" font-size="10.00">ServiceMF.GetImportList</text>
</a>
</g>
</g>
<!-- Node2&#45;&gt;Node3 -->
<g id="edge2_Node000002_Node000003" class="edge">
<title>Node2&#45;&gt;Node3</title>
<g id="a_edge2_Node000002_Node000003"><a xlink:title=" ">
<path fill="none" stroke="#63b8ff" d="M375.25,-106.47C390.44,-110.98 406.5,-115.74 422.02,-120.35"/>
<polygon fill="#63b8ff" stroke="#63b8ff" points="420.62,-123.58 431.21,-123.07 422.62,-116.87 420.62,-123.58"/>
</a>
</g>
</g>
<!-- Node4 -->
<g id="Node000004" class="node">
<title>Node4</title>
<g id="a_Node000004"><a xlink:href="../../d5/d64/class_deluxe_1_1_deluxe_brand_center_1_1_a_m_m_1_1_infrastructure_1_1_mindfire_1_1_contact_service_m_f.html#a4e62250e3ffabe5b93317214cb9eac07" target="_top" xlink:title=" ">
<polygon fill="white" stroke="#666666" points="597,-106 422,-106 422,-62 597,-62 597,-106"/>
<text text-anchor="start" x="430" y="-92.5" font-family="Helvetica,sans-Serif" font-size="10.00">Deluxe.DeluxeBrandCenter.</text>
<text text-anchor="start" x="430" y="-80.5" font-family="Helvetica,sans-Serif" font-size="10.00">AMM.Infrastructure.Mindfire.Contact</text>
<text text-anchor="middle" x="509.5" y="-68.5" font-family="Helvetica,sans-Serif" font-size="10.00">ServiceMF.GetImportLog</text>
</a>
</g>
</g>
<!-- Node2&#45;&gt;Node4 -->
<g id="edge3_Node000002_Node000004" class="edge">
<title>Node2&#45;&gt;Node4</title>
<g id="a_edge3_Node000002_Node000004"><a xlink:title=" ">
<path fill="none" stroke="#63b8ff" d="M386.32,-84C394.25,-84 402.31,-84 410.33,-84"/>
<polygon fill="#63b8ff" stroke="#63b8ff" points="410.1,-87.5 420.1,-84 410.1,-80.5 410.1,-87.5"/>
</a>
</g>
</g>
<!-- Node6 -->
<g id="Node000006" class="node">
<title>Node6</title>
<g id="a_Node000006"><a xlink:href="../../d5/d64/class_deluxe_1_1_deluxe_brand_center_1_1_a_m_m_1_1_infrastructure_1_1_mindfire_1_1_contact_service_m_f.html#af3487ab4fe238464fb2455a6b7fac56d" target="_top" xlink:title=" ">
<polygon fill="white" stroke="#666666" points="597,-44 422,-44 422,0 597,0 597,-44"/>
<text text-anchor="start" x="430" y="-30.5" font-family="Helvetica,sans-Serif" font-size="10.00">Deluxe.DeluxeBrandCenter.</text>
<text text-anchor="start" x="430" y="-18.5" font-family="Helvetica,sans-Serif" font-size="10.00">AMM.Infrastructure.Mindfire.Contact</text>
<text text-anchor="middle" x="509.5" y="-6.5" font-family="Helvetica,sans-Serif" font-size="10.00">ServiceMF.POSTImportContacts</text>
</a>
</g>
</g>
<!-- Node5&#45;&gt;Node6 -->
<g id="edge5_Node000005_Node000006" class="edge">
<title>Node5&#45;&gt;Node6</title>
<g id="a_edge5_Node000005_Node000006"><a xlink:title=" ">
<path fill="none" stroke="#63b8ff" d="M386.32,-22C394.25,-22 402.31,-22 410.33,-22"/>
<polygon fill="#63b8ff" stroke="#63b8ff" points="410.1,-25.5 420.1,-22 410.1,-18.5 410.1,-25.5"/>
</a>
</g>
</g>
</g>
</svg>
