<?xml version="1.0" encoding="UTF-8" standalone="no"?>
<!DOCTYPE svg PUBLIC "-//W3C//DTD SVG 1.1//EN"
 "http://www.w3.org/Graphics/SVG/1.1/DTD/svg11.dtd">
<!-- Generated by graphviz version 12.1.1 (20240910.0053)
 -->
<!-- Title: Deluxe.DeluxeBrandCenter.AMM.API.Services.SettingsService.SingleByName Pages: 1 -->
<svg width="402pt" height="486pt"
 viewBox="0.00 0.00 402.25 486.00" xmlns="http://www.w3.org/2000/svg" xmlns:xlink="http://www.w3.org/1999/xlink">
<g id="graph0" class="graph" transform="scale(1 1) rotate(0) translate(4 482)">
<title>Deluxe.DeluxeBrandCenter.AMM.API.Services.SettingsService.SingleByName</title>
<!-- Node1 -->
<g id="Node000001" class="node">
<title>Node1</title>
<g id="a_Node000001"><a xlink:title=" ">
<polygon fill="#999999" stroke="#666666" points="394.25,-261 219.25,-261 219.25,-217 394.25,-217 394.25,-261"/>
<text text-anchor="start" x="227.25" y="-247.5" font-family="Helvetica,sans-Serif" font-size="10.00">Deluxe.DeluxeBrandCenter.</text>
<text text-anchor="start" x="227.25" y="-235.5" font-family="Helvetica,sans-Serif" font-size="10.00">AMM.API.Services.SettingsService.</text>
<text text-anchor="middle" x="306.75" y="-223.5" font-family="Helvetica,sans-Serif" font-size="10.00">SingleByName</text>
</a>
</g>
</g>
<!-- Node2 -->
<g id="Node000002" class="node">
<title>Node2</title>
<g id="a_Node000002"><a xlink:href="../../d3/d4f/class_deluxe_1_1_deluxe_brand_center_1_1_a_m_m_1_1_a_p_i_1_1_services_1_1_settings_service.html#a6b72ea33669e89c494f883b13696065f" target="_top" xlink:title=" ">
<polygon fill="white" stroke="#666666" points="179.12,-478 4.12,-478 4.12,-434 179.12,-434 179.12,-478"/>
<text text-anchor="start" x="12.12" y="-464.5" font-family="Helvetica,sans-Serif" font-size="10.00">Deluxe.DeluxeBrandCenter.</text>
<text text-anchor="start" x="12.12" y="-452.5" font-family="Helvetica,sans-Serif" font-size="10.00">AMM.API.Services.SettingsService.</text>
<text text-anchor="middle" x="91.62" y="-440.5" font-family="Helvetica,sans-Serif" font-size="10.00">GetBackCanvasJson</text>
</a>
</g>
</g>
<!-- Node1&#45;&gt;Node2 -->
<g id="edge1_Node000001_Node000002" class="edge">
<title>Node1&#45;&gt;Node2</title>
<g id="a_edge1_Node000001_Node000002"><a xlink:title=" ">
<path fill="none" stroke="#63b8ff" d="M292.31,-271.71C273.7,-313.09 236.29,-383.92 183.25,-425 179.17,-428.16 174.76,-431 170.14,-433.57"/>
<polygon fill="#63b8ff" stroke="#63b8ff" points="295.43,-273.31 296.23,-262.74 289.01,-270.5 295.43,-273.31"/>
</a>
</g>
</g>
<!-- Node3 -->
<g id="Node000003" class="node">
<title>Node3</title>
<g id="a_Node000003"><a xlink:href="../../d7/d3d/class_deluxe_1_1_deluxe_brand_center_1_1_a_m_m_1_1_a_p_i_1_1_services_1_1_campaign_service.html#aec9d6a9b47f017840bec0e02cd505e67" target="_top" xlink:title=" ">
<polygon fill="white" stroke="#666666" points="183.25,-416 0,-416 0,-372 183.25,-372 183.25,-416"/>
<text text-anchor="start" x="8" y="-402.5" font-family="Helvetica,sans-Serif" font-size="10.00">Deluxe.DeluxeBrandCenter.</text>
<text text-anchor="start" x="8" y="-390.5" font-family="Helvetica,sans-Serif" font-size="10.00">AMM.API.Services.CampaignService.</text>
<text text-anchor="middle" x="91.62" y="-378.5" font-family="Helvetica,sans-Serif" font-size="10.00">GetCampaignsForProfile</text>
</a>
</g>
</g>
<!-- Node1&#45;&gt;Node3 -->
<g id="edge2_Node000001_Node000003" class="edge">
<title>Node1&#45;&gt;Node3</title>
<g id="a_edge2_Node000001_Node000003"><a xlink:title=" ">
<path fill="none" stroke="#63b8ff" d="M281.94,-270.28C259.28,-298.11 222.86,-338.14 183.25,-363 178.18,-366.18 172.74,-369.08 167.14,-371.72"/>
<polygon fill="#63b8ff" stroke="#63b8ff" points="284.62,-272.53 288.13,-262.53 279.15,-268.16 284.62,-272.53"/>
</a>
</g>
</g>
<!-- Node4 -->
<g id="Node000004" class="node">
<title>Node4</title>
<g id="a_Node000004"><a xlink:href="../../d3/d4f/class_deluxe_1_1_deluxe_brand_center_1_1_a_m_m_1_1_a_p_i_1_1_services_1_1_settings_service.html#aaa578a6ef2672bf0512ff7357ec270df" target="_top" xlink:title=" ">
<polygon fill="white" stroke="#666666" points="179.12,-354 4.12,-354 4.12,-310 179.12,-310 179.12,-354"/>
<text text-anchor="start" x="12.12" y="-340.5" font-family="Helvetica,sans-Serif" font-size="10.00">Deluxe.DeluxeBrandCenter.</text>
<text text-anchor="start" x="12.12" y="-328.5" font-family="Helvetica,sans-Serif" font-size="10.00">AMM.API.Services.SettingsService.</text>
<text text-anchor="middle" x="91.62" y="-316.5" font-family="Helvetica,sans-Serif" font-size="10.00">GetFrontCanvasJson</text>
</a>
</g>
</g>
<!-- Node1&#45;&gt;Node4 -->
<g id="edge3_Node000001_Node000004" class="edge">
<title>Node1&#45;&gt;Node4</title>
<g id="a_edge3_Node000001_Node000004"><a xlink:title=" ">
<path fill="none" stroke="#63b8ff" d="M255.02,-266.67C233.25,-278.02 207.33,-290.85 183.25,-301 176.2,-303.97 168.76,-306.88 161.3,-309.64"/>
<polygon fill="#63b8ff" stroke="#63b8ff" points="256.47,-269.86 263.69,-262.11 253.21,-263.67 256.47,-269.86"/>
</a>
</g>
</g>
<!-- Node5 -->
<g id="Node000005" class="node">
<title>Node5</title>
<g id="a_Node000005"><a xlink:href="../../d3/d4f/class_deluxe_1_1_deluxe_brand_center_1_1_a_m_m_1_1_a_p_i_1_1_services_1_1_settings_service.html#a28cf412e13dcd32092e823965772dabf" target="_top" xlink:title=" ">
<polygon fill="white" stroke="#666666" points="179.12,-292 4.12,-292 4.12,-248 179.12,-248 179.12,-292"/>
<text text-anchor="start" x="12.12" y="-278.5" font-family="Helvetica,sans-Serif" font-size="10.00">Deluxe.DeluxeBrandCenter.</text>
<text text-anchor="start" x="12.12" y="-266.5" font-family="Helvetica,sans-Serif" font-size="10.00">AMM.API.Services.SettingsService.</text>
<text text-anchor="middle" x="91.62" y="-254.5" font-family="Helvetica,sans-Serif" font-size="10.00">GetLibraryJson</text>
</a>
</g>
</g>
<!-- Node1&#45;&gt;Node5 -->
<g id="edge4_Node000001_Node000005" class="edge">
<title>Node1&#45;&gt;Node5</title>
<g id="a_edge4_Node000001_Node000005"><a xlink:title=" ">
<path fill="none" stroke="#63b8ff" d="M207.4,-253.31C198.03,-254.67 188.58,-256.04 179.34,-257.39"/>
<polygon fill="#63b8ff" stroke="#63b8ff" points="207.87,-256.77 217.26,-251.87 206.86,-249.85 207.87,-256.77"/>
</a>
</g>
</g>
<!-- Node6 -->
<g id="Node000006" class="node">
<title>Node6</title>
<g id="a_Node000006"><a xlink:href="../../d3/d4f/class_deluxe_1_1_deluxe_brand_center_1_1_a_m_m_1_1_a_p_i_1_1_services_1_1_settings_service.html#ad0c600fd8db53a08dca3fd872a99cf8e" target="_top" xlink:title=" ">
<polygon fill="white" stroke="#666666" points="179.12,-230 4.12,-230 4.12,-186 179.12,-186 179.12,-230"/>
<text text-anchor="start" x="12.12" y="-216.5" font-family="Helvetica,sans-Serif" font-size="10.00">Deluxe.DeluxeBrandCenter.</text>
<text text-anchor="start" x="12.12" y="-204.5" font-family="Helvetica,sans-Serif" font-size="10.00">AMM.API.Services.SettingsService.</text>
<text text-anchor="middle" x="91.62" y="-192.5" font-family="Helvetica,sans-Serif" font-size="10.00">GetSliderJson</text>
</a>
</g>
</g>
<!-- Node1&#45;&gt;Node6 -->
<g id="edge5_Node000001_Node000006" class="edge">
<title>Node1&#45;&gt;Node6</title>
<g id="a_edge5_Node000001_Node000006"><a xlink:title=" ">
<path fill="none" stroke="#63b8ff" d="M207.4,-224.69C198.03,-223.33 188.58,-221.96 179.34,-220.61"/>
<polygon fill="#63b8ff" stroke="#63b8ff" points="206.86,-228.15 217.26,-226.13 207.87,-221.23 206.86,-228.15"/>
</a>
</g>
</g>
<!-- Node7 -->
<g id="Node000007" class="node">
<title>Node7</title>
<g id="a_Node000007"><a xlink:href="../../d3/d4f/class_deluxe_1_1_deluxe_brand_center_1_1_a_m_m_1_1_a_p_i_1_1_services_1_1_settings_service.html#a428117827bdd1009921861cbfa3bf230" target="_top" xlink:title=" ">
<polygon fill="white" stroke="#666666" points="179.12,-168 4.12,-168 4.12,-124 179.12,-124 179.12,-168"/>
<text text-anchor="start" x="12.12" y="-154.5" font-family="Helvetica,sans-Serif" font-size="10.00">Deluxe.DeluxeBrandCenter.</text>
<text text-anchor="start" x="12.12" y="-142.5" font-family="Helvetica,sans-Serif" font-size="10.00">AMM.API.Services.SettingsService.</text>
<text text-anchor="middle" x="91.62" y="-130.5" font-family="Helvetica,sans-Serif" font-size="10.00">UpdateCanvasJson</text>
</a>
</g>
</g>
<!-- Node1&#45;&gt;Node7 -->
<g id="edge6_Node000001_Node000007" class="edge">
<title>Node1&#45;&gt;Node7</title>
<g id="a_edge6_Node000001_Node000007"><a xlink:title=" ">
<path fill="none" stroke="#63b8ff" d="M255.02,-211.33C233.25,-199.98 207.33,-187.15 183.25,-177 176.2,-174.03 168.76,-171.12 161.3,-168.36"/>
<polygon fill="#63b8ff" stroke="#63b8ff" points="253.21,-214.33 263.69,-215.89 256.47,-208.14 253.21,-214.33"/>
</a>
</g>
</g>
<!-- Node8 -->
<g id="Node000008" class="node">
<title>Node8</title>
<g id="a_Node000008"><a xlink:href="../../d3/d4f/class_deluxe_1_1_deluxe_brand_center_1_1_a_m_m_1_1_a_p_i_1_1_services_1_1_settings_service.html#a47ed4d6c5cb94d67677c09b98eaa56ed" target="_top" xlink:title=" ">
<polygon fill="white" stroke="#666666" points="179.12,-106 4.12,-106 4.12,-62 179.12,-62 179.12,-106"/>
<text text-anchor="start" x="12.12" y="-92.5" font-family="Helvetica,sans-Serif" font-size="10.00">Deluxe.DeluxeBrandCenter.</text>
<text text-anchor="start" x="12.12" y="-80.5" font-family="Helvetica,sans-Serif" font-size="10.00">AMM.API.Services.SettingsService.</text>
<text text-anchor="middle" x="91.62" y="-68.5" font-family="Helvetica,sans-Serif" font-size="10.00">UpdateLibraryJson</text>
</a>
</g>
</g>
<!-- Node1&#45;&gt;Node8 -->
<g id="edge7_Node000001_Node000008" class="edge">
<title>Node1&#45;&gt;Node8</title>
<g id="a_edge7_Node000001_Node000008"><a xlink:title=" ">
<path fill="none" stroke="#63b8ff" d="M281.94,-207.72C259.28,-179.89 222.86,-139.86 183.25,-115 178.18,-111.82 172.74,-108.92 167.14,-106.28"/>
<polygon fill="#63b8ff" stroke="#63b8ff" points="279.15,-209.84 288.13,-215.47 284.62,-205.47 279.15,-209.84"/>
</a>
</g>
</g>
<!-- Node9 -->
<g id="Node000009" class="node">
<title>Node9</title>
<g id="a_Node000009"><a xlink:href="../../d3/d4f/class_deluxe_1_1_deluxe_brand_center_1_1_a_m_m_1_1_a_p_i_1_1_services_1_1_settings_service.html#aecdb5f43648975bddf2d0917dcd13c51" target="_top" xlink:title=" ">
<polygon fill="white" stroke="#666666" points="179.12,-44 4.12,-44 4.12,0 179.12,0 179.12,-44"/>
<text text-anchor="start" x="12.12" y="-30.5" font-family="Helvetica,sans-Serif" font-size="10.00">Deluxe.DeluxeBrandCenter.</text>
<text text-anchor="start" x="12.12" y="-18.5" font-family="Helvetica,sans-Serif" font-size="10.00">AMM.API.Services.SettingsService.</text>
<text text-anchor="middle" x="91.62" y="-6.5" font-family="Helvetica,sans-Serif" font-size="10.00">UpdateSliderJson</text>
</a>
</g>
</g>
<!-- Node1&#45;&gt;Node9 -->
<g id="edge8_Node000001_Node000009" class="edge">
<title>Node1&#45;&gt;Node9</title>
<g id="a_edge8_Node000001_Node000009"><a xlink:title=" ">
<path fill="none" stroke="#63b8ff" d="M292.31,-206.29C273.7,-164.91 236.29,-94.08 183.25,-53 179.17,-49.84 174.76,-47 170.14,-44.43"/>
<polygon fill="#63b8ff" stroke="#63b8ff" points="289.01,-207.5 296.23,-215.26 295.43,-204.69 289.01,-207.5"/>
</a>
</g>
</g>
</g>
</svg>
