<?xml version="1.0" encoding="UTF-8" standalone="no"?>
<!DOCTYPE svg PUBLIC "-//W3C//DTD SVG 1.1//EN"
 "http://www.w3.org/Graphics/SVG/1.1/DTD/svg11.dtd">
<!-- Generated by graphviz version 12.1.1 (20240910.0053)
 -->
<!-- Title: Deluxe.DeluxeBrandCenter.AMM.API.Services.SettingsService.SingleByName Pages: 1 -->
<!--zoomable 486 -->

<svg id="main" version="1.1" xmlns="http://www.w3.org/2000/svg" xmlns:xlink="http://www.w3.org/1999/xlink" xml:space="preserve" onload="init(evt)">

<style type="text/css"><![CDATA[
.node, .edge {opacity: 0.7;}
.node.selected, .edge.selected {opacity: 1;}
.edge:hover path { stroke: red; }
.edge:hover polygon { stroke: red; fill: red; }
]]></style>

<defs>
  <circle id="rim" cx="0" cy="0" r="7"/>
  <circle id="rim2" cx="0" cy="0" r="3.5"/>
  <g id="zoomPlus">
    <use xlink:href="#rim" fill="#404040"><set attributeName="fill" to="#808080" begin="zoomplus.mouseover" end="zoomplus.mouseout"/></use>
    <path d="M-4,0h8M0,-4v8" fill="none" stroke="white" stroke-width="1.5" pointer-events="none"/>
  </g>
  <g id="zoomMin">
    <use xlink:href="#rim" fill="#404040"><set attributeName="fill" to="#808080" begin="zoomminus.mouseover" end="zoomminus.mouseout"/></use>
    <path d="M-4,0h8" fill="none" stroke="white" stroke-width="1.5" pointer-events="none"/>
  </g>
  <g id="arrowUp" transform="translate(30 24)">
    <use xlink:href="#rim"/>
    <path pointer-events="none" fill="none" stroke="white" stroke-width="1.5" d="M0,-3.0v7 M-2.5,-0.5L0,-3.0L2.5,-0.5"/>
  </g>
  <g id="arrowRight" transform="rotate(90) translate(36 -43)">
    <use xlink:href="#rim"/>
    <path pointer-events="none" fill="none" stroke="white" stroke-width="1.5" d="M0,-3.0v7 M-2.5,-0.5L0,-3.0L2.5,-0.5"/>
  </g>
  <g id="arrowDown" transform="rotate(180) translate(-30 -48)">
    <use xlink:href="#rim"/>
    <path pointer-events="none" fill="none" stroke="white" stroke-width="1.5" d="M0,-3.0v7 M-2.5,-0.5L0,-3.0L2.5,-0.5"/>
  </g>
  <g id="arrowLeft" transform="rotate(270) translate(-36 17)">
    <use xlink:href="#rim"/>
    <path pointer-events="none" fill="none" stroke="white" stroke-width="1.5" d="M0,-3.0v7 M-2.5,-0.5L0,-3.0L2.5,-0.5"/>
  </g>
  <g id="resetDef">
    <use xlink:href="#rim2" fill="#404040"><set attributeName="fill" to="#808080" begin="reset.mouseover" end="reset.mouseout"/></use>
  </g>
</defs>
<script type="application/ecmascript">
var viewWidth = 402;
var viewHeight = 486;
var sectionId = 'dynsection-7';
</script>
<script type="application/ecmascript" xlink:href="../../svg.min.js"/>
<svg id="graph" class="graph">
<g id="viewport">
<title>Deluxe.DeluxeBrandCenter.AMM.API.Services.SettingsService.SingleByName</title>
<!-- Node1 -->
<g id="Node000001" class="node">
<title>Node1</title>
<g id="a_Node000001"><a xlink:title=" ">
<polygon fill="#999999" stroke="#666666" points="394.25,-261 219.25,-261 219.25,-217 394.25,-217 394.25,-261"/>
<text text-anchor="start" x="227.25" y="-247.5" font-family="Helvetica,sans-Serif" font-size="10.00">Deluxe.DeluxeBrandCenter.</text>
<text text-anchor="start" x="227.25" y="-235.5" font-family="Helvetica,sans-Serif" font-size="10.00">AMM.API.Services.SettingsService.</text>
<text text-anchor="middle" x="306.75" y="-223.5" font-family="Helvetica,sans-Serif" font-size="10.00">SingleByName</text>
</a>
</g>
</g>
<!-- Node2 -->
<g id="Node000002" class="node">
<title>Node2</title>
<g id="a_Node000002"><a xlink:href="../../d3/d4f/class_deluxe_1_1_deluxe_brand_center_1_1_a_m_m_1_1_a_p_i_1_1_services_1_1_settings_service.html#a6b72ea33669e89c494f883b13696065f" target="_top" xlink:title=" ">
<polygon fill="white" stroke="#666666" points="179.12,-478 4.12,-478 4.12,-434 179.12,-434 179.12,-478"/>
<text text-anchor="start" x="12.12" y="-464.5" font-family="Helvetica,sans-Serif" font-size="10.00">Deluxe.DeluxeBrandCenter.</text>
<text text-anchor="start" x="12.12" y="-452.5" font-family="Helvetica,sans-Serif" font-size="10.00">AMM.API.Services.SettingsService.</text>
<text text-anchor="middle" x="91.62" y="-440.5" font-family="Helvetica,sans-Serif" font-size="10.00">GetBackCanvasJson</text>
</a>
</g>
</g>
<!-- Node1&#45;&gt;Node2 -->
<g id="edge1_Node000001_Node000002" class="edge">
<title>Node1&#45;&gt;Node2</title>
<g id="a_edge1_Node000001_Node000002"><a xlink:title=" ">
<path fill="none" stroke="#63b8ff" d="M292.31,-271.71C273.7,-313.09 236.29,-383.92 183.25,-425 179.17,-428.16 174.76,-431 170.14,-433.57"/>
<polygon fill="#63b8ff" stroke="#63b8ff" points="295.43,-273.31 296.23,-262.74 289.01,-270.5 295.43,-273.31"/>
</a>
</g>
</g>
<!-- Node3 -->
<g id="Node000003" class="node">
<title>Node3</title>
<g id="a_Node000003"><a xlink:href="../../d7/d3d/class_deluxe_1_1_deluxe_brand_center_1_1_a_m_m_1_1_a_p_i_1_1_services_1_1_campaign_service.html#aec9d6a9b47f017840bec0e02cd505e67" target="_top" xlink:title=" ">
<polygon fill="white" stroke="#666666" points="183.25,-416 0,-416 0,-372 183.25,-372 183.25,-416"/>
<text text-anchor="start" x="8" y="-402.5" font-family="Helvetica,sans-Serif" font-size="10.00">Deluxe.DeluxeBrandCenter.</text>
<text text-anchor="start" x="8" y="-390.5" font-family="Helvetica,sans-Serif" font-size="10.00">AMM.API.Services.CampaignService.</text>
<text text-anchor="middle" x="91.62" y="-378.5" font-family="Helvetica,sans-Serif" font-size="10.00">GetCampaignsForProfile</text>
</a>
</g>
</g>
<!-- Node1&#45;&gt;Node3 -->
<g id="edge2_Node000001_Node000003" class="edge">
<title>Node1&#45;&gt;Node3</title>
<g id="a_edge2_Node000001_Node000003"><a xlink:title=" ">
<path fill="none" stroke="#63b8ff" d="M281.94,-270.28C259.28,-298.11 222.86,-338.14 183.25,-363 178.18,-366.18 172.74,-369.08 167.14,-371.72"/>
<polygon fill="#63b8ff" stroke="#63b8ff" points="284.62,-272.53 288.13,-262.53 279.15,-268.16 284.62,-272.53"/>
</a>
</g>
</g>
<!-- Node4 -->
<g id="Node000004" class="node">
<title>Node4</title>
<g id="a_Node000004"><a xlink:href="../../d3/d4f/class_deluxe_1_1_deluxe_brand_center_1_1_a_m_m_1_1_a_p_i_1_1_services_1_1_settings_service.html#aaa578a6ef2672bf0512ff7357ec270df" target="_top" xlink:title=" ">
<polygon fill="white" stroke="#666666" points="179.12,-354 4.12,-354 4.12,-310 179.12,-310 179.12,-354"/>
<text text-anchor="start" x="12.12" y="-340.5" font-family="Helvetica,sans-Serif" font-size="10.00">Deluxe.DeluxeBrandCenter.</text>
<text text-anchor="start" x="12.12" y="-328.5" font-family="Helvetica,sans-Serif" font-size="10.00">AMM.API.Services.SettingsService.</text>
<text text-anchor="middle" x="91.62" y="-316.5" font-family="Helvetica,sans-Serif" font-size="10.00">GetFrontCanvasJson</text>
</a>
</g>
</g>
<!-- Node1&#45;&gt;Node4 -->
<g id="edge3_Node000001_Node000004" class="edge">
<title>Node1&#45;&gt;Node4</title>
<g id="a_edge3_Node000001_Node000004"><a xlink:title=" ">
<path fill="none" stroke="#63b8ff" d="M255.02,-266.67C233.25,-278.02 207.33,-290.85 183.25,-301 176.2,-303.97 168.76,-306.88 161.3,-309.64"/>
<polygon fill="#63b8ff" stroke="#63b8ff" points="256.47,-269.86 263.69,-262.11 253.21,-263.67 256.47,-269.86"/>
</a>
</g>
</g>
<!-- Node5 -->
<g id="Node000005" class="node">
<title>Node5</title>
<g id="a_Node000005"><a xlink:href="../../d3/d4f/class_deluxe_1_1_deluxe_brand_center_1_1_a_m_m_1_1_a_p_i_1_1_services_1_1_settings_service.html#a28cf412e13dcd32092e823965772dabf" target="_top" xlink:title=" ">
<polygon fill="white" stroke="#666666" points="179.12,-292 4.12,-292 4.12,-248 179.12,-248 179.12,-292"/>
<text text-anchor="start" x="12.12" y="-278.5" font-family="Helvetica,sans-Serif" font-size="10.00">Deluxe.DeluxeBrandCenter.</text>
<text text-anchor="start" x="12.12" y="-266.5" font-family="Helvetica,sans-Serif" font-size="10.00">AMM.API.Services.SettingsService.</text>
<text text-anchor="middle" x="91.62" y="-254.5" font-family="Helvetica,sans-Serif" font-size="10.00">GetLibraryJson</text>
</a>
</g>
</g>
<!-- Node1&#45;&gt;Node5 -->
<g id="edge4_Node000001_Node000005" class="edge">
<title>Node1&#45;&gt;Node5</title>
<g id="a_edge4_Node000001_Node000005"><a xlink:title=" ">
<path fill="none" stroke="#63b8ff" d="M207.4,-253.31C198.03,-254.67 188.58,-256.04 179.34,-257.39"/>
<polygon fill="#63b8ff" stroke="#63b8ff" points="207.87,-256.77 217.26,-251.87 206.86,-249.85 207.87,-256.77"/>
</a>
</g>
</g>
<!-- Node6 -->
<g id="Node000006" class="node">
<title>Node6</title>
<g id="a_Node000006"><a xlink:href="../../d3/d4f/class_deluxe_1_1_deluxe_brand_center_1_1_a_m_m_1_1_a_p_i_1_1_services_1_1_settings_service.html#ad0c600fd8db53a08dca3fd872a99cf8e" target="_top" xlink:title=" ">
<polygon fill="white" stroke="#666666" points="179.12,-230 4.12,-230 4.12,-186 179.12,-186 179.12,-230"/>
<text text-anchor="start" x="12.12" y="-216.5" font-family="Helvetica,sans-Serif" font-size="10.00">Deluxe.DeluxeBrandCenter.</text>
<text text-anchor="start" x="12.12" y="-204.5" font-family="Helvetica,sans-Serif" font-size="10.00">AMM.API.Services.SettingsService.</text>
<text text-anchor="middle" x="91.62" y="-192.5" font-family="Helvetica,sans-Serif" font-size="10.00">GetSliderJson</text>
</a>
</g>
</g>
<!-- Node1&#45;&gt;Node6 -->
<g id="edge5_Node000001_Node000006" class="edge">
<title>Node1&#45;&gt;Node6</title>
<g id="a_edge5_Node000001_Node000006"><a xlink:title=" ">
<path fill="none" stroke="#63b8ff" d="M207.4,-224.69C198.03,-223.33 188.58,-221.96 179.34,-220.61"/>
<polygon fill="#63b8ff" stroke="#63b8ff" points="206.86,-228.15 217.26,-226.13 207.87,-221.23 206.86,-228.15"/>
</a>
</g>
</g>
<!-- Node7 -->
<g id="Node000007" class="node">
<title>Node7</title>
<g id="a_Node000007"><a xlink:href="../../d3/d4f/class_deluxe_1_1_deluxe_brand_center_1_1_a_m_m_1_1_a_p_i_1_1_services_1_1_settings_service.html#a428117827bdd1009921861cbfa3bf230" target="_top" xlink:title=" ">
<polygon fill="white" stroke="#666666" points="179.12,-168 4.12,-168 4.12,-124 179.12,-124 179.12,-168"/>
<text text-anchor="start" x="12.12" y="-154.5" font-family="Helvetica,sans-Serif" font-size="10.00">Deluxe.DeluxeBrandCenter.</text>
<text text-anchor="start" x="12.12" y="-142.5" font-family="Helvetica,sans-Serif" font-size="10.00">AMM.API.Services.SettingsService.</text>
<text text-anchor="middle" x="91.62" y="-130.5" font-family="Helvetica,sans-Serif" font-size="10.00">UpdateCanvasJson</text>
</a>
</g>
</g>
<!-- Node1&#45;&gt;Node7 -->
<g id="edge6_Node000001_Node000007" class="edge">
<title>Node1&#45;&gt;Node7</title>
<g id="a_edge6_Node000001_Node000007"><a xlink:title=" ">
<path fill="none" stroke="#63b8ff" d="M255.02,-211.33C233.25,-199.98 207.33,-187.15 183.25,-177 176.2,-174.03 168.76,-171.12 161.3,-168.36"/>
<polygon fill="#63b8ff" stroke="#63b8ff" points="253.21,-214.33 263.69,-215.89 256.47,-208.14 253.21,-214.33"/>
</a>
</g>
</g>
<!-- Node8 -->
<g id="Node000008" class="node">
<title>Node8</title>
<g id="a_Node000008"><a xlink:href="../../d3/d4f/class_deluxe_1_1_deluxe_brand_center_1_1_a_m_m_1_1_a_p_i_1_1_services_1_1_settings_service.html#a47ed4d6c5cb94d67677c09b98eaa56ed" target="_top" xlink:title=" ">
<polygon fill="white" stroke="#666666" points="179.12,-106 4.12,-106 4.12,-62 179.12,-62 179.12,-106"/>
<text text-anchor="start" x="12.12" y="-92.5" font-family="Helvetica,sans-Serif" font-size="10.00">Deluxe.DeluxeBrandCenter.</text>
<text text-anchor="start" x="12.12" y="-80.5" font-family="Helvetica,sans-Serif" font-size="10.00">AMM.API.Services.SettingsService.</text>
<text text-anchor="middle" x="91.62" y="-68.5" font-family="Helvetica,sans-Serif" font-size="10.00">UpdateLibraryJson</text>
</a>
</g>
</g>
<!-- Node1&#45;&gt;Node8 -->
<g id="edge7_Node000001_Node000008" class="edge">
<title>Node1&#45;&gt;Node8</title>
<g id="a_edge7_Node000001_Node000008"><a xlink:title=" ">
<path fill="none" stroke="#63b8ff" d="M281.94,-207.72C259.28,-179.89 222.86,-139.86 183.25,-115 178.18,-111.82 172.74,-108.92 167.14,-106.28"/>
<polygon fill="#63b8ff" stroke="#63b8ff" points="279.15,-209.84 288.13,-215.47 284.62,-205.47 279.15,-209.84"/>
</a>
</g>
</g>
<!-- Node9 -->
<g id="Node000009" class="node">
<title>Node9</title>
<g id="a_Node000009"><a xlink:href="../../d3/d4f/class_deluxe_1_1_deluxe_brand_center_1_1_a_m_m_1_1_a_p_i_1_1_services_1_1_settings_service.html#aecdb5f43648975bddf2d0917dcd13c51" target="_top" xlink:title=" ">
<polygon fill="white" stroke="#666666" points="179.12,-44 4.12,-44 4.12,0 179.12,0 179.12,-44"/>
<text text-anchor="start" x="12.12" y="-30.5" font-family="Helvetica,sans-Serif" font-size="10.00">Deluxe.DeluxeBrandCenter.</text>
<text text-anchor="start" x="12.12" y="-18.5" font-family="Helvetica,sans-Serif" font-size="10.00">AMM.API.Services.SettingsService.</text>
<text text-anchor="middle" x="91.62" y="-6.5" font-family="Helvetica,sans-Serif" font-size="10.00">UpdateSliderJson</text>
</a>
</g>
</g>
<!-- Node1&#45;&gt;Node9 -->
<g id="edge8_Node000001_Node000009" class="edge">
<title>Node1&#45;&gt;Node9</title>
<g id="a_edge8_Node000001_Node000009"><a xlink:title=" ">
<path fill="none" stroke="#63b8ff" d="M292.31,-206.29C273.7,-164.91 236.29,-94.08 183.25,-53 179.17,-49.84 174.76,-47 170.14,-44.43"/>
<polygon fill="#63b8ff" stroke="#63b8ff" points="289.01,-207.5 296.23,-215.26 295.43,-204.69 289.01,-207.5"/>
</a>
</g>
</g>
</g>
</svg>

<g id="navigator" transform="translate(0 0)" fill="#404254">
  <rect fill="#f2f5e9" fill-opacity="0.5" stroke="#606060" stroke-width=".5" x="0" y="0" width="60" height="60"/>
  <use id="zoomplus" xlink:href="#zoomPlus" x="17" y="9" onmousedown="handleZoom(evt,'in')"/>
  <use id="zoomminus" xlink:href="#zoomMin" x="42" y="9" onmousedown="handleZoom(evt,'out')"/>
  <use id="reset" xlink:href="#resetDef" x="30" y="36" onmousedown="handleReset()"/>
   <use id="arrowup" xlink:href="#arrowUp" x="0" y="0" onmousedown="handlePan(0,-1)"/>
  <use id="arrowright" xlink:href="#arrowRight" x="0" y="0" onmousedown="handlePan(1,0)"/>
  <use id="arrowdown" xlink:href="#arrowDown" x="0" y="0" onmousedown="handlePan(0,1)"/>
  <use id="arrowleft" xlink:href="#arrowLeft" x="0" y="0" onmousedown="handlePan(-1,0)"/>
</g>
<svg viewBox="0 0 15 15" width="100%" height="30px" preserveAspectRatio="xMaxYMin meet">
 <g id="arrow_out" transform="scale(0.3 0.3)">
  <a xlink:href="class_deluxe_1_1_deluxe_brand_center_1_1_a_m_m_1_1_a_p_i_1_1_services_1_1_settings_service_aff1f77381077aa56a4609597d67d19b9_icgraph_org.svg" target="_base">
   <rect id="button" ry="5" rx="5" y="6" x="6" height="38" width="38"
        fill="#f2f5e9" fill-opacity="0.5" stroke="#606060" stroke-width="1.0"/>
   <path id="arrow"
     d="M 11.500037,31.436501 C 11.940474,20.09759 22.043105,11.32322 32.158766,21.979434 L 37.068811,17.246167 C 37.068811,17.246167 37.088388,32 37.088388,32 L 22.160133,31.978069 C 22.160133,31.978069 26.997745,27.140456 26.997745,27.140456 C 18.528582,18.264221 13.291696,25.230495 11.500037,31.436501 z"
     style="fill:#404040;"/>
  </a>
 </g>
</svg>

<style type='text/css'>
<![CDATA[
[data-mouse-over-selected='false'] { opacity: 0.7; }
[data-mouse-over-selected='true']  { opacity: 1.0; }
]]>
</style>
<script type="application/ecmascript"><![CDATA[
document.addEventListener('DOMContentLoaded', (event) => {
  highlightEdges();
  highlightAdjacentNodes();
});
]]></script>
</svg>
