<?xml version="1.0" encoding="UTF-8" standalone="no"?>
<!DOCTYPE svg PUBLIC "-//W3C//DTD SVG 1.1//EN"
 "http://www.w3.org/Graphics/SVG/1.1/DTD/svg11.dtd">
<!-- Generated by graphviz version 12.1.1 (20240910.0053)
 -->
<!-- Title: Deluxe.DeluxeBrandCenter.AMM.Domain.ITableWriter&lt; T &gt; Pages: 1 -->
<svg width="1295pt" height="97pt"
 viewBox="0.00 0.00 1294.50 97.00" xmlns="http://www.w3.org/2000/svg" xmlns:xlink="http://www.w3.org/1999/xlink">
<g id="graph0" class="graph" transform="scale(1 1) rotate(0) translate(4 93)">
<title>Deluxe.DeluxeBrandCenter.AMM.Domain.ITableWriter&lt; T &gt;</title>
<!-- Node1 -->
<g id="Node000001" class="node">
<title>Node1</title>
<g id="a_Node000001"><a xlink:title="Interface for writing that has SetValue.">
<polygon fill="#999999" stroke="#666666" points="154,-58 0,-58 0,-26 154,-26 154,-58"/>
<text text-anchor="start" x="8" y="-44.5" font-family="Helvetica,sans-Serif" font-size="10.00">Deluxe.DeluxeBrandCenter.</text>
<text text-anchor="middle" x="77" y="-32.5" font-family="Helvetica,sans-Serif" font-size="10.00">AMM.Domain.ITableWriter&lt; T &gt;</text>
</a>
</g>
</g>
<!-- Node2 -->
<g id="Node000002" class="node">
<title>Node2</title>
<g id="a_Node000002"><a xlink:href="../../d8/d96/interface_deluxe_1_1_deluxe_brand_center_1_1_a_m_m_1_1_domain_1_1_i_table.html" target="_top" xlink:title="Interface implements ITableReader, ITableWriter, ITableEditor.">
<polygon fill="white" stroke="#666666" points="329.25,-58 191,-58 191,-26 329.25,-26 329.25,-58"/>
<text text-anchor="start" x="199" y="-44.5" font-family="Helvetica,sans-Serif" font-size="10.00">Deluxe.DeluxeBrandCenter.</text>
<text text-anchor="middle" x="260.12" y="-32.5" font-family="Helvetica,sans-Serif" font-size="10.00">AMM.Domain.ITable&lt; T &gt;</text>
</a>
</g>
</g>
<!-- Node1&#45;&gt;Node2 -->
<g id="edge1_Node000001_Node000002" class="edge">
<title>Node1&#45;&gt;Node2</title>
<g id="a_edge1_Node000001_Node000002"><a xlink:title=" ">
<path fill="none" stroke="#63b8ff" d="M165.69,-42C174.09,-42 182.52,-42 190.7,-42"/>
<polygon fill="#63b8ff" stroke="#63b8ff" points="165.8,-38.5 155.8,-42 165.8,-45.5 165.8,-38.5"/>
</a>
</g>
</g>
<!-- Node3 -->
<g id="Node000003" class="node">
<title>Node3</title>
<g id="a_Node000003"><a xlink:href="../../d7/d96/class_deluxe_1_1_deluxe_brand_center_1_1_a_m_m_1_1_domain_1_1_table.html" target="_top" xlink:title=" ">
<polygon fill="white" stroke="#666666" points="548.5,-89 410.25,-89 410.25,-57 548.5,-57 548.5,-89"/>
<text text-anchor="start" x="418.25" y="-75.5" font-family="Helvetica,sans-Serif" font-size="10.00">Deluxe.DeluxeBrandCenter.</text>
<text text-anchor="middle" x="479.38" y="-63.5" font-family="Helvetica,sans-Serif" font-size="10.00">AMM.Domain.Table&lt; T &gt;</text>
</a>
</g>
</g>
<!-- Node2&#45;&gt;Node3 -->
<g id="edge2_Node000002_Node000003" class="edge">
<title>Node2&#45;&gt;Node3</title>
<g id="a_edge2_Node000002_Node000003"><a xlink:title=" ">
<path fill="none" stroke="#63b8ff" d="M340.87,-53.38C363.52,-56.61 387.98,-60.1 409.9,-63.23"/>
<polygon fill="#63b8ff" stroke="#63b8ff" points="341.46,-49.93 331.06,-51.98 340.47,-56.86 341.46,-49.93"/>
</a>
</g>
</g>
<!-- Node8 -->
<g id="Node000008" class="node">
<title>Node8</title>
<g id="a_Node000008"><a xlink:href="../../d8/d96/interface_deluxe_1_1_deluxe_brand_center_1_1_a_m_m_1_1_domain_1_1_i_table.html" target="_top" xlink:title=" ">
<polygon fill="white" stroke="#666666" points="713.75,-45 566.5,-45 566.5,-13 713.75,-13 713.75,-45"/>
<text text-anchor="start" x="574.5" y="-31.5" font-family="Helvetica,sans-Serif" font-size="10.00">Deluxe.DeluxeBrandCenter.</text>
<text text-anchor="middle" x="640.12" y="-19.5" font-family="Helvetica,sans-Serif" font-size="10.00">AMM.Domain.ITable&lt; string &gt;</text>
</a>
</g>
</g>
<!-- Node2&#45;&gt;Node8 -->
<g id="edge7_Node000002_Node000008" class="edge">
<title>Node2&#45;&gt;Node8</title>
<g id="a_edge7_Node000002_Node000008"><a xlink:title=" ">
<path fill="none" stroke="orange" stroke-dasharray="5,2" d="M340.61,-39.23C342.85,-39.15 345.06,-39.08 347.25,-39 421.86,-36.42 507.21,-33.5 566.26,-31.49"/>
<polygon fill="orange" stroke="orange" points="340.68,-35.73 330.81,-39.57 340.92,-42.72 340.68,-35.73"/>
</a>
</g>
<text text-anchor="middle" x="369.75" y="-41.5" font-family="Helvetica,sans-Serif" font-size="10.00" fill="grey"> &lt; string &gt;</text>
</g>
<!-- Node4 -->
<g id="Node000004" class="node">
<title>Node4</title>
<g id="a_Node000004"><a xlink:href="../../d7/d96/class_deluxe_1_1_deluxe_brand_center_1_1_a_m_m_1_1_domain_1_1_table.html" target="_top" xlink:title=" ">
<polygon fill="white" stroke="#666666" points="876,-89 731.75,-89 731.75,-57 876,-57 876,-89"/>
<text text-anchor="start" x="739.75" y="-75.5" font-family="Helvetica,sans-Serif" font-size="10.00">Deluxe.DeluxeBrandCenter.</text>
<text text-anchor="middle" x="803.88" y="-63.5" font-family="Helvetica,sans-Serif" font-size="10.00">AMM.Domain.Table&lt; string &gt;</text>
</a>
</g>
</g>
<!-- Node3&#45;&gt;Node4 -->
<g id="edge3_Node000003_Node000004" class="edge">
<title>Node3&#45;&gt;Node4</title>
<g id="a_edge3_Node000003_Node000004"><a xlink:title=" ">
<path fill="none" stroke="orange" stroke-dasharray="5,2" d="M560.06,-73C612.58,-73 680.77,-73 731.51,-73"/>
<polygon fill="orange" stroke="orange" points="560.28,-69.5 550.28,-73 560.28,-76.5 560.28,-69.5"/>
</a>
</g>
<text text-anchor="middle" x="640.12" y="-75.5" font-family="Helvetica,sans-Serif" font-size="10.00" fill="grey"> &lt; string &gt;</text>
</g>
<!-- Node5 -->
<g id="Node000005" class="node">
<title>Node5</title>
<g id="a_Node000005"><a xlink:href="../../d0/d2a/class_deluxe_1_1_deluxe_brand_center_1_1_a_m_m_1_1_domain_1_1_utility_1_1_c_s_v_table.html" target="_top" xlink:title=" ">
<polygon fill="white" stroke="#666666" points="1064,-57 913,-57 913,-25 1064,-25 1064,-57"/>
<text text-anchor="start" x="921" y="-43.5" font-family="Helvetica,sans-Serif" font-size="10.00">Deluxe.DeluxeBrandCenter.</text>
<text text-anchor="middle" x="988.5" y="-31.5" font-family="Helvetica,sans-Serif" font-size="10.00">AMM.Domain.Utility.CSVTable</text>
</a>
</g>
</g>
<!-- Node4&#45;&gt;Node5 -->
<g id="edge4_Node000004_Node000005" class="edge">
<title>Node4&#45;&gt;Node5</title>
<g id="a_edge4_Node000004_Node000005"><a xlink:title=" ">
<path fill="none" stroke="#63b8ff" d="M887.54,-58.52C895.87,-57.06 904.3,-55.58 912.54,-54.13"/>
<polygon fill="#63b8ff" stroke="#63b8ff" points="887,-55.06 877.76,-60.23 888.21,-61.95 887,-55.06"/>
</a>
</g>
</g>
<!-- Node6 -->
<g id="Node000006" class="node">
<title>Node6</title>
<g id="a_Node000006"><a xlink:href="../../d8/d92/class_deluxe_1_1_deluxe_brand_center_1_1_a_m_m_1_1_domain_1_1_utility_1_1_activity_c_s_v_table.html" target="_top" xlink:title=" ">
<polygon fill="white" stroke="#666666" points="1285.75,-82 1101.75,-82 1101.75,-50 1285.75,-50 1285.75,-82"/>
<text text-anchor="start" x="1109.75" y="-68.5" font-family="Helvetica,sans-Serif" font-size="10.00">Deluxe.DeluxeBrandCenter.</text>
<text text-anchor="middle" x="1193.75" y="-56.5" font-family="Helvetica,sans-Serif" font-size="10.00">AMM.Domain.Utility.ActivityCSVTable</text>
</a>
</g>
</g>
<!-- Node5&#45;&gt;Node6 -->
<g id="edge5_Node000005_Node000006" class="edge">
<title>Node5&#45;&gt;Node6</title>
<g id="a_edge5_Node000005_Node000006"><a xlink:title=" ">
<path fill="none" stroke="#63b8ff" d="M1075.52,-51.58C1084.12,-52.64 1092.88,-53.72 1101.53,-54.78"/>
<polygon fill="#63b8ff" stroke="#63b8ff" points="1076.17,-48.13 1065.82,-50.39 1075.32,-55.08 1076.17,-48.13"/>
</a>
</g>
</g>
<!-- Node7 -->
<g id="Node000007" class="node">
<title>Node7</title>
<g id="a_Node000007"><a xlink:href="../../dd/d19/class_deluxe_1_1_deluxe_brand_center_1_1_a_m_m_1_1_domain_1_1_utility_1_1_contact_c_s_v_table.html" target="_top" xlink:title=" ">
<polygon fill="white" stroke="#666666" points="1286.5,-32 1101,-32 1101,0 1286.5,0 1286.5,-32"/>
<text text-anchor="start" x="1109" y="-18.5" font-family="Helvetica,sans-Serif" font-size="10.00">Deluxe.DeluxeBrandCenter.</text>
<text text-anchor="middle" x="1193.75" y="-6.5" font-family="Helvetica,sans-Serif" font-size="10.00">AMM.Domain.Utility.ContactCSVTable</text>
</a>
</g>
</g>
<!-- Node5&#45;&gt;Node7 -->
<g id="edge6_Node000005_Node000007" class="edge">
<title>Node5&#45;&gt;Node7</title>
<g id="a_edge6_Node000005_Node000007"><a xlink:title=" ">
<path fill="none" stroke="#63b8ff" d="M1075.59,-30.41C1083.94,-29.38 1092.43,-28.34 1100.84,-27.31"/>
<polygon fill="#63b8ff" stroke="#63b8ff" points="1075.32,-26.92 1065.82,-31.61 1076.17,-33.87 1075.32,-26.92"/>
</a>
</g>
</g>
<!-- Node8&#45;&gt;Node5 -->
<g id="edge8_Node000008_Node000005" class="edge">
<title>Node8&#45;&gt;Node5</title>
<g id="a_edge8_Node000008_Node000005"><a xlink:title=" ">
<path fill="none" stroke="#63b8ff" d="M725.36,-31.92C782.61,-33.9 857.65,-36.5 912.77,-38.41"/>
<polygon fill="#63b8ff" stroke="#63b8ff" points="725.79,-28.43 715.67,-31.58 725.54,-35.43 725.79,-28.43"/>
</a>
</g>
</g>
</g>
</svg>
