<?xml version="1.0" encoding="UTF-8" standalone="no"?>
<!DOCTYPE svg PUBLIC "-//W3C//DTD SVG 1.1//EN"
 "http://www.w3.org/Graphics/SVG/1.1/DTD/svg11.dtd">
<!-- Generated by graphviz version 12.1.1 (20240910.0053)
 -->
<!-- Title: Deluxe.DeluxeBrandCenter.AMM.Domain.Utility.ContactCSVTable.CountContacts Pages: 1 -->
<svg width="372pt" height="52pt"
 viewBox="0.00 0.00 371.50 52.00" xmlns="http://www.w3.org/2000/svg" xmlns:xlink="http://www.w3.org/1999/xlink">
<g id="graph0" class="graph" transform="scale(1 1) rotate(0) translate(4 48)">
<title>Deluxe.DeluxeBrandCenter.AMM.Domain.Utility.ContactCSVTable.CountContacts</title>
<!-- Node1 -->
<g id="Node000001" class="node">
<title>Node1</title>
<g id="a_Node000001"><a xlink:title=" ">
<polygon fill="#999999" stroke="#666666" points="188.5,-44 0,-44 0,0 188.5,0 188.5,-44"/>
<text text-anchor="start" x="8" y="-30.5" font-family="Helvetica,sans-Serif" font-size="10.00">Deluxe.DeluxeBrandCenter.</text>
<text text-anchor="start" x="8" y="-18.5" font-family="Helvetica,sans-Serif" font-size="10.00">AMM.Domain.Utility.ContactCSVTable.</text>
<text text-anchor="middle" x="94.25" y="-6.5" font-family="Helvetica,sans-Serif" font-size="10.00">CountContacts</text>
</a>
</g>
</g>
<!-- Node2 -->
<g id="Node000002" class="node">
<title>Node2</title>
<g id="a_Node000002"><a xlink:href="../../d7/d96/class_deluxe_1_1_deluxe_brand_center_1_1_a_m_m_1_1_domain_1_1_table.html#aec63c5179a35ee90ad13d60fbd19303e" target="_top" xlink:title=" ">
<polygon fill="white" stroke="#666666" points="363.5,-38 224.5,-38 224.5,-6 363.5,-6 363.5,-38"/>
<text text-anchor="start" x="232.5" y="-24.5" font-family="Helvetica,sans-Serif" font-size="10.00">Deluxe.DeluxeBrandCenter.</text>
<text text-anchor="middle" x="294" y="-12.5" font-family="Helvetica,sans-Serif" font-size="10.00">AMM.Domain.Table.Column</text>
</a>
</g>
</g>
<!-- Node1&#45;&gt;Node2 -->
<g id="edge1_Node000001_Node000002" class="edge">
<title>Node1&#45;&gt;Node2</title>
<g id="a_edge1_Node000001_Node000002"><a xlink:title=" ">
<path fill="none" stroke="#63b8ff" d="M188.91,-15.26C196.89,-15.23 204.92,-15.27 212.79,-15.36"/>
<polygon fill="#63b8ff" stroke="#63b8ff" points="212.6,-18.86 222.65,-15.51 212.71,-11.86 212.6,-18.86"/>
</a>
</g>
</g>
<!-- Node1&#45;&gt;Node2 -->
<g id="edge2_Node000001_Node000002" class="edge">
<title>Node1&#45;&gt;Node2</title>
<g id="a_edge2_Node000001_Node000002"><a xlink:title=" ">
<path fill="none" stroke="#63b8ff" d="M188.91,-28.74C196.89,-28.77 204.92,-28.73 212.79,-28.64"/>
<polygon fill="#63b8ff" stroke="#63b8ff" points="212.71,-32.14 222.65,-28.49 212.6,-25.14 212.71,-32.14"/>
</a>
</g>
</g>
</g>
</svg>
