<?xml version="1.0" encoding="UTF-8" standalone="no"?>
<!DOCTYPE svg PUBLIC "-//W3C//DTD SVG 1.1//EN"
 "http://www.w3.org/Graphics/SVG/1.1/DTD/svg11.dtd">
<!-- Generated by graphviz version 12.1.1 (20240910.0053)
 -->
<!-- Title: Deluxe.DeluxeBrandCenter.AMM.Domain.Utility.ContactCSVTable.SetAccountId Pages: 1 -->
<svg width="646pt" height="238pt"
 viewBox="0.00 0.00 645.50 238.00" xmlns="http://www.w3.org/2000/svg" xmlns:xlink="http://www.w3.org/1999/xlink">
<g id="graph0" class="graph" transform="scale(1 1) rotate(0) translate(4 234)">
<title>Deluxe.DeluxeBrandCenter.AMM.Domain.Utility.ContactCSVTable.SetAccountId</title>
<!-- Node1 -->
<g id="Node000001" class="node">
<title>Node1</title>
<g id="a_Node000001"><a xlink:title=" ">
<polygon fill="#999999" stroke="#666666" points="188.5,-137 0,-137 0,-93 188.5,-93 188.5,-137"/>
<text text-anchor="start" x="8" y="-123.5" font-family="Helvetica,sans-Serif" font-size="10.00">Deluxe.DeluxeBrandCenter.</text>
<text text-anchor="start" x="8" y="-111.5" font-family="Helvetica,sans-Serif" font-size="10.00">AMM.Domain.Utility.ContactCSVTable.</text>
<text text-anchor="middle" x="94.25" y="-99.5" font-family="Helvetica,sans-Serif" font-size="10.00">SetAccountId</text>
</a>
</g>
</g>
<!-- Node2 -->
<g id="Node000002" class="node">
<title>Node2</title>
<g id="a_Node000002"><a xlink:href="../../d7/d96/class_deluxe_1_1_deluxe_brand_center_1_1_a_m_m_1_1_domain_1_1_table.html#a825b952404a9e84cb0be14c68e6b428f" target="_top" xlink:title=" ">
<polygon fill="white" stroke="#666666" points="387.88,-230 249.62,-230 249.62,-186 387.88,-186 387.88,-230"/>
<text text-anchor="start" x="257.62" y="-216.5" font-family="Helvetica,sans-Serif" font-size="10.00">Deluxe.DeluxeBrandCenter.</text>
<text text-anchor="start" x="257.62" y="-204.5" font-family="Helvetica,sans-Serif" font-size="10.00">AMM.Domain.Table&lt; string</text>
<text text-anchor="middle" x="318.75" y="-192.5" font-family="Helvetica,sans-Serif" font-size="10.00"> &gt;::AppendColumn</text>
</a>
</g>
</g>
<!-- Node1&#45;&gt;Node2 -->
<g id="edge1_Node000001_Node000002" class="edge">
<title>Node1&#45;&gt;Node2</title>
<g id="a_edge1_Node000001_Node000002"><a xlink:title=" ">
<path fill="none" stroke="#63b8ff" d="M138.6,-137.49C163.41,-149.93 195.31,-165.2 224.5,-177 229.07,-178.85 233.8,-180.67 238.59,-182.46"/>
<polygon fill="#63b8ff" stroke="#63b8ff" points="237.13,-185.65 247.72,-185.78 239.52,-179.07 237.13,-185.65"/>
</a>
</g>
</g>
<!-- Node3 -->
<g id="Node000003" class="node">
<title>Node3</title>
<g id="a_Node000003"><a xlink:href="../../d7/d96/class_deluxe_1_1_deluxe_brand_center_1_1_a_m_m_1_1_domain_1_1_table.html#a16e661cd62aceaa49f099a1454be6a2d" target="_top" xlink:title=" ">
<polygon fill="white" stroke="#666666" points="387.88,-168 249.62,-168 249.62,-124 387.88,-124 387.88,-168"/>
<text text-anchor="start" x="257.62" y="-154.5" font-family="Helvetica,sans-Serif" font-size="10.00">Deluxe.DeluxeBrandCenter.</text>
<text text-anchor="start" x="257.62" y="-142.5" font-family="Helvetica,sans-Serif" font-size="10.00">AMM.Domain.Table&lt; string</text>
<text text-anchor="middle" x="318.75" y="-130.5" font-family="Helvetica,sans-Serif" font-size="10.00"> &gt;::GetColumnNo</text>
</a>
</g>
</g>
<!-- Node1&#45;&gt;Node3 -->
<g id="edge2_Node000001_Node000003" class="edge">
<title>Node1&#45;&gt;Node3</title>
<g id="a_edge2_Node000001_Node000003"><a xlink:title=" ">
<path fill="none" stroke="#63b8ff" d="M188.97,-128.06C205.21,-130.32 221.97,-132.66 237.81,-134.86"/>
<polygon fill="#63b8ff" stroke="#63b8ff" points="237.27,-138.32 247.66,-136.23 238.24,-131.39 237.27,-138.32"/>
</a>
</g>
</g>
<!-- Node4 -->
<g id="Node000004" class="node">
<title>Node4</title>
<g id="a_Node000004"><a xlink:href="../../d5/d37/class_deluxe_1_1_deluxe_brand_center_1_1_a_m_m_1_1_domain_1_1_utility_1_1_hash_helper.html#acba4243f79f37b8b22aff859a90c4a81" target="_top" xlink:title=" ">
<polygon fill="white" stroke="#666666" points="399.5,-106 238,-106 238,-62 399.5,-62 399.5,-106"/>
<text text-anchor="start" x="246" y="-92.5" font-family="Helvetica,sans-Serif" font-size="10.00">Deluxe.DeluxeBrandCenter.</text>
<text text-anchor="start" x="246" y="-80.5" font-family="Helvetica,sans-Serif" font-size="10.00">AMM.Domain.Utility.HashHelper.</text>
<text text-anchor="middle" x="318.75" y="-68.5" font-family="Helvetica,sans-Serif" font-size="10.00">GetHashCode</text>
</a>
</g>
</g>
<!-- Node1&#45;&gt;Node4 -->
<g id="edge3_Node000001_Node000004" class="edge">
<title>Node1&#45;&gt;Node4</title>
<g id="a_edge3_Node000001_Node000004"><a xlink:title=" ">
<path fill="none" stroke="#63b8ff" d="M188.97,-101.94C201.33,-100.22 213.99,-98.46 226.32,-96.74"/>
<polygon fill="#63b8ff" stroke="#63b8ff" points="226.61,-100.23 236.03,-95.39 225.64,-93.3 226.61,-100.23"/>
</a>
</g>
</g>
<!-- Node5 -->
<g id="Node000005" class="node">
<title>Node5</title>
<g id="a_Node000005"><a xlink:href="../../dd/d19/class_deluxe_1_1_deluxe_brand_center_1_1_a_m_m_1_1_domain_1_1_utility_1_1_contact_c_s_v_table.html#abe42ffe53fb04e44d563e21a26bcf92a" target="_top" xlink:title=" ">
<polygon fill="white" stroke="#666666" points="413,-44 224.5,-44 224.5,0 413,0 413,-44"/>
<text text-anchor="start" x="232.5" y="-30.5" font-family="Helvetica,sans-Serif" font-size="10.00">Deluxe.DeluxeBrandCenter.</text>
<text text-anchor="start" x="232.5" y="-18.5" font-family="Helvetica,sans-Serif" font-size="10.00">AMM.Domain.Utility.ContactCSVTable.</text>
<text text-anchor="middle" x="318.75" y="-6.5" font-family="Helvetica,sans-Serif" font-size="10.00">SetValue</text>
</a>
</g>
</g>
<!-- Node1&#45;&gt;Node5 -->
<g id="edge4_Node000001_Node000005" class="edge">
<title>Node1&#45;&gt;Node5</title>
<g id="a_edge4_Node000001_Node000005"><a xlink:title=" ">
<path fill="none" stroke="#63b8ff" d="M138.6,-92.51C163.41,-80.07 195.31,-64.8 224.5,-53 228.37,-51.44 232.34,-49.89 236.37,-48.37"/>
<polygon fill="#63b8ff" stroke="#63b8ff" points="237.54,-51.67 245.72,-44.94 235.12,-45.1 237.54,-51.67"/>
</a>
</g>
</g>
<!-- Node6 -->
<g id="Node000006" class="node">
<title>Node6</title>
<g id="a_Node000006"><a xlink:href="../../dd/d19/class_deluxe_1_1_deluxe_brand_center_1_1_a_m_m_1_1_domain_1_1_utility_1_1_contact_c_s_v_table.html#a5ae94898c67c3ea77bb863a210eed88e" target="_top" xlink:title=" ">
<polygon fill="white" stroke="#666666" points="637.5,-44 449,-44 449,0 637.5,0 637.5,-44"/>
<text text-anchor="start" x="457" y="-30.5" font-family="Helvetica,sans-Serif" font-size="10.00">Deluxe.DeluxeBrandCenter.</text>
<text text-anchor="start" x="457" y="-18.5" font-family="Helvetica,sans-Serif" font-size="10.00">AMM.Domain.Utility.ContactCSVTable.</text>
<text text-anchor="middle" x="543.25" y="-6.5" font-family="Helvetica,sans-Serif" font-size="10.00">IsNullableType</text>
</a>
</g>
</g>
<!-- Node5&#45;&gt;Node6 -->
<g id="edge5_Node000005_Node000006" class="edge">
<title>Node5&#45;&gt;Node6</title>
<g id="a_edge5_Node000005_Node000006"><a xlink:title=" ">
<path fill="none" stroke="#63b8ff" d="M413.47,-22C421.38,-22 429.41,-22 437.4,-22"/>
<polygon fill="#63b8ff" stroke="#63b8ff" points="437.13,-25.5 447.13,-22 437.13,-18.5 437.13,-25.5"/>
</a>
</g>
</g>
</g>
</svg>
