<?xml version="1.0" encoding="UTF-8" standalone="no"?>
<!DOCTYPE svg PUBLIC "-//W3C//DTD SVG 1.1//EN"
 "http://www.w3.org/Graphics/SVG/1.1/DTD/svg11.dtd">
<!-- Generated by graphviz version 12.1.1 (20240910.0053)
 -->
<!-- Title: Deluxe.DeluxeBrandCenter.AMM.Domain.Utility.ContactCSVTable.FormatDateFields Pages: 1 -->
<svg width="648pt" height="176pt"
 viewBox="0.00 0.00 647.75 176.00" xmlns="http://www.w3.org/2000/svg" xmlns:xlink="http://www.w3.org/1999/xlink">
<g id="graph0" class="graph" transform="scale(1 1) rotate(0) translate(4 172)">
<title>Deluxe.DeluxeBrandCenter.AMM.Domain.Utility.ContactCSVTable.FormatDateFields</title>
<!-- Node1 -->
<g id="Node000001" class="node">
<title>Node1</title>
<g id="a_Node000001"><a xlink:title=" ">
<polygon fill="#999999" stroke="#666666" points="188.5,-106 0,-106 0,-62 188.5,-62 188.5,-106"/>
<text text-anchor="start" x="8" y="-92.5" font-family="Helvetica,sans-Serif" font-size="10.00">Deluxe.DeluxeBrandCenter.</text>
<text text-anchor="start" x="8" y="-80.5" font-family="Helvetica,sans-Serif" font-size="10.00">AMM.Domain.Utility.ContactCSVTable.</text>
<text text-anchor="middle" x="94.25" y="-68.5" font-family="Helvetica,sans-Serif" font-size="10.00">FormatDateFields</text>
</a>
</g>
</g>
<!-- Node2 -->
<g id="Node000002" class="node">
<title>Node2</title>
<g id="a_Node000002"><a xlink:href="../../d7/d96/class_deluxe_1_1_deluxe_brand_center_1_1_a_m_m_1_1_domain_1_1_table.html#a16e661cd62aceaa49f099a1454be6a2d" target="_top" xlink:title=" ">
<polygon fill="white" stroke="#666666" points="389,-168 250.75,-168 250.75,-124 389,-124 389,-168"/>
<text text-anchor="start" x="258.75" y="-154.5" font-family="Helvetica,sans-Serif" font-size="10.00">Deluxe.DeluxeBrandCenter.</text>
<text text-anchor="start" x="258.75" y="-142.5" font-family="Helvetica,sans-Serif" font-size="10.00">AMM.Domain.Table&lt; string</text>
<text text-anchor="middle" x="319.88" y="-130.5" font-family="Helvetica,sans-Serif" font-size="10.00"> &gt;::GetColumnNo</text>
</a>
</g>
</g>
<!-- Node1&#45;&gt;Node2 -->
<g id="edge1_Node000001_Node000002" class="edge">
<title>Node1&#45;&gt;Node2</title>
<g id="a_edge1_Node000001_Node000002"><a xlink:title=" ">
<path fill="none" stroke="#63b8ff" d="M176.3,-106.47C196.85,-112.17 218.91,-118.29 239.39,-123.96"/>
<polygon fill="#63b8ff" stroke="#63b8ff" points="238.23,-127.27 248.8,-126.57 240.1,-120.53 238.23,-127.27"/>
</a>
</g>
</g>
<!-- Node3 -->
<g id="Node000003" class="node">
<title>Node3</title>
<g id="a_Node000003"><a xlink:href="../../df/df6/class_deluxe_1_1_deluxe_brand_center_1_1_a_m_m_1_1_domain_1_1_ext_service_model_1_1_contact_v_m.html#af93941da74872d2c8b0ecb643d3dd9e3" target="_top" xlink:title=" ">
<polygon fill="white" stroke="#666666" points="415.25,-106 224.5,-106 224.5,-62 415.25,-62 415.25,-106"/>
<text text-anchor="start" x="232.5" y="-92.5" font-family="Helvetica,sans-Serif" font-size="10.00">Deluxe.DeluxeBrandCenter.</text>
<text text-anchor="start" x="232.5" y="-80.5" font-family="Helvetica,sans-Serif" font-size="10.00">AMM.Domain.ExtServiceModel.Contact</text>
<text text-anchor="middle" x="319.88" y="-68.5" font-family="Helvetica,sans-Serif" font-size="10.00">VM.GetDateFields</text>
</a>
</g>
</g>
<!-- Node1&#45;&gt;Node3 -->
<g id="edge2_Node000001_Node000003" class="edge">
<title>Node1&#45;&gt;Node3</title>
<g id="a_edge2_Node000001_Node000003"><a xlink:title=" ">
<path fill="none" stroke="#63b8ff" d="M188.79,-84C196.76,-84 204.86,-84 212.92,-84"/>
<polygon fill="#63b8ff" stroke="#63b8ff" points="212.76,-87.5 222.76,-84 212.76,-80.5 212.76,-87.5"/>
</a>
</g>
</g>
<!-- Node4 -->
<g id="Node000004" class="node">
<title>Node4</title>
<g id="a_Node000004"><a xlink:href="../../dd/d19/class_deluxe_1_1_deluxe_brand_center_1_1_a_m_m_1_1_domain_1_1_utility_1_1_contact_c_s_v_table.html#abe42ffe53fb04e44d563e21a26bcf92a" target="_top" xlink:title=" ">
<polygon fill="white" stroke="#666666" points="414.12,-44 225.62,-44 225.62,0 414.12,0 414.12,-44"/>
<text text-anchor="start" x="233.62" y="-30.5" font-family="Helvetica,sans-Serif" font-size="10.00">Deluxe.DeluxeBrandCenter.</text>
<text text-anchor="start" x="233.62" y="-18.5" font-family="Helvetica,sans-Serif" font-size="10.00">AMM.Domain.Utility.ContactCSVTable.</text>
<text text-anchor="middle" x="319.88" y="-6.5" font-family="Helvetica,sans-Serif" font-size="10.00">SetValue</text>
</a>
</g>
</g>
<!-- Node1&#45;&gt;Node4 -->
<g id="edge3_Node000001_Node000004" class="edge">
<title>Node1&#45;&gt;Node4</title>
<g id="a_edge3_Node000001_Node000004"><a xlink:title=" ">
<path fill="none" stroke="#63b8ff" d="M176.3,-61.53C192.71,-56.98 210.07,-52.17 226.82,-47.52"/>
<polygon fill="#63b8ff" stroke="#63b8ff" points="227.57,-50.95 236.27,-44.9 225.7,-44.2 227.57,-50.95"/>
</a>
</g>
</g>
<!-- Node5 -->
<g id="Node000005" class="node">
<title>Node5</title>
<g id="a_Node000005"><a xlink:href="../../dd/d19/class_deluxe_1_1_deluxe_brand_center_1_1_a_m_m_1_1_domain_1_1_utility_1_1_contact_c_s_v_table.html#a5ae94898c67c3ea77bb863a210eed88e" target="_top" xlink:title=" ">
<polygon fill="white" stroke="#666666" points="639.75,-44 451.25,-44 451.25,0 639.75,0 639.75,-44"/>
<text text-anchor="start" x="459.25" y="-30.5" font-family="Helvetica,sans-Serif" font-size="10.00">Deluxe.DeluxeBrandCenter.</text>
<text text-anchor="start" x="459.25" y="-18.5" font-family="Helvetica,sans-Serif" font-size="10.00">AMM.Domain.Utility.ContactCSVTable.</text>
<text text-anchor="middle" x="545.5" y="-6.5" font-family="Helvetica,sans-Serif" font-size="10.00">IsNullableType</text>
</a>
</g>
</g>
<!-- Node4&#45;&gt;Node5 -->
<g id="edge4_Node000004_Node000005" class="edge">
<title>Node4&#45;&gt;Node5</title>
<g id="a_edge4_Node000004_Node000005"><a xlink:title=" ">
<path fill="none" stroke="#63b8ff" d="M414.42,-22C422.73,-22 431.18,-22 439.57,-22"/>
<polygon fill="#63b8ff" stroke="#63b8ff" points="439.46,-25.5 449.46,-22 439.46,-18.5 439.46,-25.5"/>
</a>
</g>
</g>
</g>
</svg>
