<?xml version="1.0" encoding="UTF-8" standalone="no"?>
<!DOCTYPE svg PUBLIC "-//W3C//DTD SVG 1.1//EN"
 "http://www.w3.org/Graphics/SVG/1.1/DTD/svg11.dtd">
<!-- Generated by graphviz version 12.1.1 (20240910.0053)
 -->
<!-- Title: Deluxe.DeluxeBrandCenter.AMM.Domain.Utility.ContactCSVTable.SetSource Pages: 1 -->
<svg width="646pt" height="176pt"
 viewBox="0.00 0.00 645.50 176.00" xmlns="http://www.w3.org/2000/svg" xmlns:xlink="http://www.w3.org/1999/xlink">
<g id="graph0" class="graph" transform="scale(1 1) rotate(0) translate(4 172)">
<title>Deluxe.DeluxeBrandCenter.AMM.Domain.Utility.ContactCSVTable.SetSource</title>
<!-- Node1 -->
<g id="Node000001" class="node">
<title>Node1</title>
<g id="a_Node000001"><a xlink:title="Add ContsctSource column if it does&#39;n exist and fill it with selected source.">
<polygon fill="#999999" stroke="#666666" points="188.5,-106 0,-106 0,-62 188.5,-62 188.5,-106"/>
<text text-anchor="start" x="8" y="-92.5" font-family="Helvetica,sans-Serif" font-size="10.00">Deluxe.DeluxeBrandCenter.</text>
<text text-anchor="start" x="8" y="-80.5" font-family="Helvetica,sans-Serif" font-size="10.00">AMM.Domain.Utility.ContactCSVTable.</text>
<text text-anchor="middle" x="94.25" y="-68.5" font-family="Helvetica,sans-Serif" font-size="10.00">SetSource</text>
</a>
</g>
</g>
<!-- Node2 -->
<g id="Node000002" class="node">
<title>Node2</title>
<g id="a_Node000002"><a xlink:href="../../d7/d96/class_deluxe_1_1_deluxe_brand_center_1_1_a_m_m_1_1_domain_1_1_table.html#a825b952404a9e84cb0be14c68e6b428f" target="_top" xlink:title=" ">
<polygon fill="white" stroke="#666666" points="387.88,-168 249.62,-168 249.62,-124 387.88,-124 387.88,-168"/>
<text text-anchor="start" x="257.62" y="-154.5" font-family="Helvetica,sans-Serif" font-size="10.00">Deluxe.DeluxeBrandCenter.</text>
<text text-anchor="start" x="257.62" y="-142.5" font-family="Helvetica,sans-Serif" font-size="10.00">AMM.Domain.Table&lt; string</text>
<text text-anchor="middle" x="318.75" y="-130.5" font-family="Helvetica,sans-Serif" font-size="10.00"> &gt;::AppendColumn</text>
</a>
</g>
</g>
<!-- Node1&#45;&gt;Node2 -->
<g id="edge1_Node000001_Node000002" class="edge">
<title>Node1&#45;&gt;Node2</title>
<g id="a_edge1_Node000001_Node000002"><a xlink:title=" ">
<path fill="none" stroke="#63b8ff" d="M175.89,-106.47C196.34,-112.17 218.29,-118.29 238.67,-123.96"/>
<polygon fill="#63b8ff" stroke="#63b8ff" points="237.45,-127.26 248.02,-126.57 239.33,-120.51 237.45,-127.26"/>
</a>
</g>
</g>
<!-- Node3 -->
<g id="Node000003" class="node">
<title>Node3</title>
<g id="a_Node000003"><a xlink:href="../../d7/d96/class_deluxe_1_1_deluxe_brand_center_1_1_a_m_m_1_1_domain_1_1_table.html#a16e661cd62aceaa49f099a1454be6a2d" target="_top" xlink:title=" ">
<polygon fill="white" stroke="#666666" points="387.88,-106 249.62,-106 249.62,-62 387.88,-62 387.88,-106"/>
<text text-anchor="start" x="257.62" y="-92.5" font-family="Helvetica,sans-Serif" font-size="10.00">Deluxe.DeluxeBrandCenter.</text>
<text text-anchor="start" x="257.62" y="-80.5" font-family="Helvetica,sans-Serif" font-size="10.00">AMM.Domain.Table&lt; string</text>
<text text-anchor="middle" x="318.75" y="-68.5" font-family="Helvetica,sans-Serif" font-size="10.00"> &gt;::GetColumnNo</text>
</a>
</g>
</g>
<!-- Node1&#45;&gt;Node3 -->
<g id="edge2_Node000001_Node000003" class="edge">
<title>Node1&#45;&gt;Node3</title>
<g id="a_edge2_Node000001_Node000003"><a xlink:title=" ">
<path fill="none" stroke="#63b8ff" d="M188.97,-84C205.21,-84 221.97,-84 237.81,-84"/>
<polygon fill="#63b8ff" stroke="#63b8ff" points="237.64,-87.5 247.64,-84 237.64,-80.5 237.64,-87.5"/>
</a>
</g>
</g>
<!-- Node4 -->
<g id="Node000004" class="node">
<title>Node4</title>
<g id="a_Node000004"><a xlink:href="../../dd/d19/class_deluxe_1_1_deluxe_brand_center_1_1_a_m_m_1_1_domain_1_1_utility_1_1_contact_c_s_v_table.html#abe42ffe53fb04e44d563e21a26bcf92a" target="_top" xlink:title=" ">
<polygon fill="white" stroke="#666666" points="413,-44 224.5,-44 224.5,0 413,0 413,-44"/>
<text text-anchor="start" x="232.5" y="-30.5" font-family="Helvetica,sans-Serif" font-size="10.00">Deluxe.DeluxeBrandCenter.</text>
<text text-anchor="start" x="232.5" y="-18.5" font-family="Helvetica,sans-Serif" font-size="10.00">AMM.Domain.Utility.ContactCSVTable.</text>
<text text-anchor="middle" x="318.75" y="-6.5" font-family="Helvetica,sans-Serif" font-size="10.00">SetValue</text>
</a>
</g>
</g>
<!-- Node1&#45;&gt;Node4 -->
<g id="edge3_Node000001_Node000004" class="edge">
<title>Node1&#45;&gt;Node4</title>
<g id="a_edge3_Node000001_Node000004"><a xlink:title=" ">
<path fill="none" stroke="#63b8ff" d="M175.89,-61.53C192.22,-56.98 209.49,-52.17 226.16,-47.52"/>
<polygon fill="#63b8ff" stroke="#63b8ff" points="226.86,-50.96 235.55,-44.9 224.98,-44.22 226.86,-50.96"/>
</a>
</g>
</g>
<!-- Node5 -->
<g id="Node000005" class="node">
<title>Node5</title>
<g id="a_Node000005"><a xlink:href="../../dd/d19/class_deluxe_1_1_deluxe_brand_center_1_1_a_m_m_1_1_domain_1_1_utility_1_1_contact_c_s_v_table.html#a5ae94898c67c3ea77bb863a210eed88e" target="_top" xlink:title=" ">
<polygon fill="white" stroke="#666666" points="637.5,-44 449,-44 449,0 637.5,0 637.5,-44"/>
<text text-anchor="start" x="457" y="-30.5" font-family="Helvetica,sans-Serif" font-size="10.00">Deluxe.DeluxeBrandCenter.</text>
<text text-anchor="start" x="457" y="-18.5" font-family="Helvetica,sans-Serif" font-size="10.00">AMM.Domain.Utility.ContactCSVTable.</text>
<text text-anchor="middle" x="543.25" y="-6.5" font-family="Helvetica,sans-Serif" font-size="10.00">IsNullableType</text>
</a>
</g>
</g>
<!-- Node4&#45;&gt;Node5 -->
<g id="edge4_Node000004_Node000005" class="edge">
<title>Node4&#45;&gt;Node5</title>
<g id="a_edge4_Node000004_Node000005"><a xlink:title=" ">
<path fill="none" stroke="#63b8ff" d="M413.47,-22C421.38,-22 429.41,-22 437.4,-22"/>
<polygon fill="#63b8ff" stroke="#63b8ff" points="437.13,-25.5 447.13,-22 437.13,-18.5 437.13,-25.5"/>
</a>
</g>
</g>
</g>
</svg>
