<?xml version="1.0" encoding="UTF-8" standalone="no"?>
<!DOCTYPE svg PUBLIC "-//W3C//DTD SVG 1.1//EN"
 "http://www.w3.org/Graphics/SVG/1.1/DTD/svg11.dtd">
<!-- Generated by graphviz version 12.1.1 (20240910.0053)
 -->
<!-- Title: Deluxe.DeluxeBrandCenter.AMM.Domain.Utility.ContactCSVTable.ToSingleContact Pages: 1 -->
<svg width="870pt" height="52pt"
 viewBox="0.00 0.00 870.00 52.00" xmlns="http://www.w3.org/2000/svg" xmlns:xlink="http://www.w3.org/1999/xlink">
<g id="graph0" class="graph" transform="scale(1 1) rotate(0) translate(4 48)">
<title>Deluxe.DeluxeBrandCenter.AMM.Domain.Utility.ContactCSVTable.ToSingleContact</title>
<!-- Node1 -->
<g id="Node000001" class="node">
<title>Node1</title>
<g id="a_Node000001"><a xlink:title=" ">
<polygon fill="#999999" stroke="#666666" points="188.5,-44 0,-44 0,0 188.5,0 188.5,-44"/>
<text text-anchor="start" x="8" y="-30.5" font-family="Helvetica,sans-Serif" font-size="10.00">Deluxe.DeluxeBrandCenter.</text>
<text text-anchor="start" x="8" y="-18.5" font-family="Helvetica,sans-Serif" font-size="10.00">AMM.Domain.Utility.ContactCSVTable.</text>
<text text-anchor="middle" x="94.25" y="-6.5" font-family="Helvetica,sans-Serif" font-size="10.00">ToSingleContact</text>
</a>
</g>
</g>
<!-- Node2 -->
<g id="Node000002" class="node">
<title>Node2</title>
<g id="a_Node000002"><a xlink:href="../../dd/d19/class_deluxe_1_1_deluxe_brand_center_1_1_a_m_m_1_1_domain_1_1_utility_1_1_contact_c_s_v_table.html#a2ff4386a4128dc36d9d39b6eaaba077c" target="_top" xlink:title=" ">
<polygon fill="white" stroke="#666666" points="413,-44 224.5,-44 224.5,0 413,0 413,-44"/>
<text text-anchor="start" x="232.5" y="-30.5" font-family="Helvetica,sans-Serif" font-size="10.00">Deluxe.DeluxeBrandCenter.</text>
<text text-anchor="start" x="232.5" y="-18.5" font-family="Helvetica,sans-Serif" font-size="10.00">AMM.Domain.Utility.ContactCSVTable.</text>
<text text-anchor="middle" x="318.75" y="-6.5" font-family="Helvetica,sans-Serif" font-size="10.00">CreateContact</text>
</a>
</g>
</g>
<!-- Node1&#45;&gt;Node2 -->
<g id="edge1_Node000001_Node000002" class="edge">
<title>Node1&#45;&gt;Node2</title>
<g id="a_edge1_Node000001_Node000002"><a xlink:title=" ">
<path fill="none" stroke="#63b8ff" d="M188.97,-22C196.88,-22 204.91,-22 212.9,-22"/>
<polygon fill="#63b8ff" stroke="#63b8ff" points="212.63,-25.5 222.63,-22 212.63,-18.5 212.63,-25.5"/>
</a>
</g>
</g>
<!-- Node3 -->
<g id="Node000003" class="node">
<title>Node3</title>
<g id="a_Node000003"><a xlink:href="../../dd/d19/class_deluxe_1_1_deluxe_brand_center_1_1_a_m_m_1_1_domain_1_1_utility_1_1_contact_c_s_v_table.html#abe42ffe53fb04e44d563e21a26bcf92a" target="_top" xlink:title=" ">
<polygon fill="white" stroke="#666666" points="637.5,-44 449,-44 449,0 637.5,0 637.5,-44"/>
<text text-anchor="start" x="457" y="-30.5" font-family="Helvetica,sans-Serif" font-size="10.00">Deluxe.DeluxeBrandCenter.</text>
<text text-anchor="start" x="457" y="-18.5" font-family="Helvetica,sans-Serif" font-size="10.00">AMM.Domain.Utility.ContactCSVTable.</text>
<text text-anchor="middle" x="543.25" y="-6.5" font-family="Helvetica,sans-Serif" font-size="10.00">SetValue</text>
</a>
</g>
</g>
<!-- Node2&#45;&gt;Node3 -->
<g id="edge2_Node000002_Node000003" class="edge">
<title>Node2&#45;&gt;Node3</title>
<g id="a_edge2_Node000002_Node000003"><a xlink:title=" ">
<path fill="none" stroke="#63b8ff" d="M413.47,-22C421.38,-22 429.41,-22 437.4,-22"/>
<polygon fill="#63b8ff" stroke="#63b8ff" points="437.13,-25.5 447.13,-22 437.13,-18.5 437.13,-25.5"/>
</a>
</g>
</g>
<!-- Node4 -->
<g id="Node000004" class="node">
<title>Node4</title>
<g id="a_Node000004"><a xlink:href="../../dd/d19/class_deluxe_1_1_deluxe_brand_center_1_1_a_m_m_1_1_domain_1_1_utility_1_1_contact_c_s_v_table.html#a5ae94898c67c3ea77bb863a210eed88e" target="_top" xlink:title=" ">
<polygon fill="white" stroke="#666666" points="862,-44 673.5,-44 673.5,0 862,0 862,-44"/>
<text text-anchor="start" x="681.5" y="-30.5" font-family="Helvetica,sans-Serif" font-size="10.00">Deluxe.DeluxeBrandCenter.</text>
<text text-anchor="start" x="681.5" y="-18.5" font-family="Helvetica,sans-Serif" font-size="10.00">AMM.Domain.Utility.ContactCSVTable.</text>
<text text-anchor="middle" x="767.75" y="-6.5" font-family="Helvetica,sans-Serif" font-size="10.00">IsNullableType</text>
</a>
</g>
</g>
<!-- Node3&#45;&gt;Node4 -->
<g id="edge3_Node000003_Node000004" class="edge">
<title>Node3&#45;&gt;Node4</title>
<g id="a_edge3_Node000003_Node000004"><a xlink:title=" ">
<path fill="none" stroke="#63b8ff" d="M637.97,-22C645.88,-22 653.91,-22 661.9,-22"/>
<polygon fill="#63b8ff" stroke="#63b8ff" points="661.63,-25.5 671.63,-22 661.63,-18.5 661.63,-25.5"/>
</a>
</g>
</g>
</g>
</svg>
