<?xml version="1.0" encoding="UTF-8" standalone="no"?>
<!DOCTYPE svg PUBLIC "-//W3C//DTD SVG 1.1//EN"
 "http://www.w3.org/Graphics/SVG/1.1/DTD/svg11.dtd">
<!-- Generated by graphviz version 12.1.1 (20240910.0053)
 -->
<!-- Title: Deluxe.DeluxeBrandCenter.AMM.Domain.Utility.ContactCSVTable.ValidateRow Pages: 1 -->
<svg width="421pt" height="300pt"
 viewBox="0.00 0.00 421.00 300.00" xmlns="http://www.w3.org/2000/svg" xmlns:xlink="http://www.w3.org/1999/xlink">
<g id="graph0" class="graph" transform="scale(1 1) rotate(0) translate(4 296)">
<title>Deluxe.DeluxeBrandCenter.AMM.Domain.Utility.ContactCSVTable.ValidateRow</title>
<!-- Node1 -->
<g id="Node000001" class="node">
<title>Node1</title>
<g id="a_Node000001"><a xlink:title=" ">
<polygon fill="#999999" stroke="#666666" points="188.5,-168 0,-168 0,-124 188.5,-124 188.5,-168"/>
<text text-anchor="start" x="8" y="-154.5" font-family="Helvetica,sans-Serif" font-size="10.00">Deluxe.DeluxeBrandCenter.</text>
<text text-anchor="start" x="8" y="-142.5" font-family="Helvetica,sans-Serif" font-size="10.00">AMM.Domain.Utility.ContactCSVTable.</text>
<text text-anchor="middle" x="94.25" y="-130.5" font-family="Helvetica,sans-Serif" font-size="10.00">ValidateRow</text>
</a>
</g>
</g>
<!-- Node2 -->
<g id="Node000002" class="node">
<title>Node2</title>
<g id="a_Node000002"><a xlink:href="../../dd/d19/class_deluxe_1_1_deluxe_brand_center_1_1_a_m_m_1_1_domain_1_1_utility_1_1_contact_c_s_v_table.html#a06c517187863b1f2787bdf232624816e" target="_top" xlink:title=" ">
<polygon fill="white" stroke="#666666" points="413,-292 224.5,-292 224.5,-248 413,-248 413,-292"/>
<text text-anchor="start" x="232.5" y="-278.5" font-family="Helvetica,sans-Serif" font-size="10.00">Deluxe.DeluxeBrandCenter.</text>
<text text-anchor="start" x="232.5" y="-266.5" font-family="Helvetica,sans-Serif" font-size="10.00">AMM.Domain.Utility.ContactCSVTable.</text>
<text text-anchor="middle" x="318.75" y="-254.5" font-family="Helvetica,sans-Serif" font-size="10.00">CheckBooleanProperty</text>
</a>
</g>
</g>
<!-- Node1&#45;&gt;Node2 -->
<g id="edge1_Node000001_Node000002" class="edge">
<title>Node1&#45;&gt;Node2</title>
<g id="a_edge1_Node000001_Node000002"><a xlink:title=" ">
<path fill="none" stroke="#63b8ff" d="M120.95,-168.11C145.99,-188.75 185.85,-219.25 224.5,-239 227.35,-240.46 230.28,-241.86 233.27,-243.22"/>
<polygon fill="#63b8ff" stroke="#63b8ff" points="231.64,-246.33 242.21,-247.07 234.4,-239.9 231.64,-246.33"/>
</a>
</g>
</g>
<!-- Node3 -->
<g id="Node000003" class="node">
<title>Node3</title>
<g id="a_Node000003"><a xlink:href="../../dd/d19/class_deluxe_1_1_deluxe_brand_center_1_1_a_m_m_1_1_domain_1_1_utility_1_1_contact_c_s_v_table.html#a3c97ddfce6f0b80231a84ce368daad1f" target="_top" xlink:title=" ">
<polygon fill="white" stroke="#666666" points="413,-230 224.5,-230 224.5,-186 413,-186 413,-230"/>
<text text-anchor="start" x="232.5" y="-216.5" font-family="Helvetica,sans-Serif" font-size="10.00">Deluxe.DeluxeBrandCenter.</text>
<text text-anchor="start" x="232.5" y="-204.5" font-family="Helvetica,sans-Serif" font-size="10.00">AMM.Domain.Utility.ContactCSVTable.</text>
<text text-anchor="middle" x="318.75" y="-192.5" font-family="Helvetica,sans-Serif" font-size="10.00">CheckDateTimeProperty</text>
</a>
</g>
</g>
<!-- Node1&#45;&gt;Node3 -->
<g id="edge2_Node000001_Node000003" class="edge">
<title>Node1&#45;&gt;Node3</title>
<g id="a_edge2_Node000001_Node000003"><a xlink:title=" ">
<path fill="none" stroke="#63b8ff" d="M175.89,-168.47C192.22,-173.02 209.49,-177.83 226.16,-182.48"/>
<polygon fill="#63b8ff" stroke="#63b8ff" points="224.98,-185.78 235.55,-185.1 226.86,-179.04 224.98,-185.78"/>
</a>
</g>
</g>
<!-- Node4 -->
<g id="Node000004" class="node">
<title>Node4</title>
<g id="a_Node000004"><a xlink:href="../../dd/d19/class_deluxe_1_1_deluxe_brand_center_1_1_a_m_m_1_1_domain_1_1_utility_1_1_contact_c_s_v_table.html#acc24412c8e7e0d3e6e8c7c4b4e2282b2" target="_top" xlink:title=" ">
<polygon fill="white" stroke="#666666" points="413,-168 224.5,-168 224.5,-124 413,-124 413,-168"/>
<text text-anchor="start" x="232.5" y="-154.5" font-family="Helvetica,sans-Serif" font-size="10.00">Deluxe.DeluxeBrandCenter.</text>
<text text-anchor="start" x="232.5" y="-142.5" font-family="Helvetica,sans-Serif" font-size="10.00">AMM.Domain.Utility.ContactCSVTable.</text>
<text text-anchor="middle" x="318.75" y="-130.5" font-family="Helvetica,sans-Serif" font-size="10.00">CheckIntegerProperty</text>
</a>
</g>
</g>
<!-- Node1&#45;&gt;Node4 -->
<g id="edge3_Node000001_Node000004" class="edge">
<title>Node1&#45;&gt;Node4</title>
<g id="a_edge3_Node000001_Node000004"><a xlink:title=" ">
<path fill="none" stroke="#63b8ff" d="M188.97,-146C196.88,-146 204.91,-146 212.9,-146"/>
<polygon fill="#63b8ff" stroke="#63b8ff" points="212.63,-149.5 222.63,-146 212.63,-142.5 212.63,-149.5"/>
</a>
</g>
</g>
<!-- Node5 -->
<g id="Node000005" class="node">
<title>Node5</title>
<g id="a_Node000005"><a xlink:href="../../dd/d19/class_deluxe_1_1_deluxe_brand_center_1_1_a_m_m_1_1_domain_1_1_utility_1_1_contact_c_s_v_table.html#a73dd8723a2e24aef98c119fd7079b674" target="_top" xlink:title=" ">
<polygon fill="white" stroke="#666666" points="413,-106 224.5,-106 224.5,-62 413,-62 413,-106"/>
<text text-anchor="start" x="232.5" y="-92.5" font-family="Helvetica,sans-Serif" font-size="10.00">Deluxe.DeluxeBrandCenter.</text>
<text text-anchor="start" x="232.5" y="-80.5" font-family="Helvetica,sans-Serif" font-size="10.00">AMM.Domain.Utility.ContactCSVTable.</text>
<text text-anchor="middle" x="318.75" y="-68.5" font-family="Helvetica,sans-Serif" font-size="10.00">CheckStringProperty</text>
</a>
</g>
</g>
<!-- Node1&#45;&gt;Node5 -->
<g id="edge4_Node000001_Node000005" class="edge">
<title>Node1&#45;&gt;Node5</title>
<g id="a_edge4_Node000001_Node000005"><a xlink:title=" ">
<path fill="none" stroke="#63b8ff" d="M175.89,-123.53C192.22,-118.98 209.49,-114.17 226.16,-109.52"/>
<polygon fill="#63b8ff" stroke="#63b8ff" points="226.86,-112.96 235.55,-106.9 224.98,-106.22 226.86,-112.96"/>
</a>
</g>
</g>
<!-- Node6 -->
<g id="Node000006" class="node">
<title>Node6</title>
<g id="a_Node000006"><a xlink:href="../../d7/d96/class_deluxe_1_1_deluxe_brand_center_1_1_a_m_m_1_1_domain_1_1_table.html#a936e56d57d027b6c1819b8527f1d6ee4" target="_top" xlink:title=" ">
<polygon fill="white" stroke="#666666" points="387.88,-44 249.62,-44 249.62,0 387.88,0 387.88,-44"/>
<text text-anchor="start" x="257.62" y="-30.5" font-family="Helvetica,sans-Serif" font-size="10.00">Deluxe.DeluxeBrandCenter.</text>
<text text-anchor="start" x="257.62" y="-18.5" font-family="Helvetica,sans-Serif" font-size="10.00">AMM.Domain.Table&lt; string</text>
<text text-anchor="middle" x="318.75" y="-6.5" font-family="Helvetica,sans-Serif" font-size="10.00"> &gt;::DataOrDefault</text>
</a>
</g>
</g>
<!-- Node1&#45;&gt;Node6 -->
<g id="edge5_Node000001_Node000006" class="edge">
<title>Node1&#45;&gt;Node6</title>
<g id="a_edge5_Node000001_Node000006"><a xlink:title=" ">
<path fill="none" stroke="#63b8ff" d="M120.95,-123.89C145.99,-103.25 185.85,-72.75 224.5,-53 229.19,-50.6 234.11,-48.33 239.12,-46.2"/>
<polygon fill="#63b8ff" stroke="#63b8ff" points="240.16,-49.55 248.13,-42.56 237.54,-43.06 240.16,-49.55"/>
</a>
</g>
</g>
</g>
</svg>
