<?xml version="1.0" encoding="UTF-8" standalone="no"?>
<!DOCTYPE svg PUBLIC "-//W3C//DTD SVG 1.1//EN"
 "http://www.w3.org/Graphics/SVG/1.1/DTD/svg11.dtd">
<!-- Generated by graphviz version 12.1.1 (20240910.0053)
 -->
<!-- Title: Deluxe.DeluxeBrandCenter.AMM.API.Services.SessionService.SetSessionInt32 Pages: 1 -->
<svg width="393pt" height="362pt"
 viewBox="0.00 0.00 392.50 362.00" xmlns="http://www.w3.org/2000/svg" xmlns:xlink="http://www.w3.org/1999/xlink">
<g id="graph0" class="graph" transform="scale(1 1) rotate(0) translate(4 358)">
<title>Deluxe.DeluxeBrandCenter.AMM.API.Services.SessionService.SetSessionInt32</title>
<!-- Node1 -->
<g id="Node000001" class="node">
<title>Node1</title>
<g id="a_Node000001"><a xlink:title=" ">
<polygon fill="#999999" stroke="#666666" points="384.5,-199 210.25,-199 210.25,-155 384.5,-155 384.5,-199"/>
<text text-anchor="start" x="218.25" y="-185.5" font-family="Helvetica,sans-Serif" font-size="10.00">Deluxe.DeluxeBrandCenter.</text>
<text text-anchor="start" x="218.25" y="-173.5" font-family="Helvetica,sans-Serif" font-size="10.00">AMM.API.Services.SessionService.</text>
<text text-anchor="middle" x="297.38" y="-161.5" font-family="Helvetica,sans-Serif" font-size="10.00">SetSessionInt32</text>
</a>
</g>
</g>
<!-- Node2 -->
<g id="Node000002" class="node">
<title>Node2</title>
<g id="a_Node000002"><a xlink:href="../../d3/dae/class_deluxe_1_1_deluxe_brand_center_1_1_a_m_m_1_1_a_p_i_1_1_services_1_1_session_service.html#a2a4368c355f7a2f5dca39eba82b652d4" target="_top" xlink:title=" ">
<polygon fill="white" stroke="#666666" points="174.25,-354 0,-354 0,-310 174.25,-310 174.25,-354"/>
<text text-anchor="start" x="8" y="-340.5" font-family="Helvetica,sans-Serif" font-size="10.00">Deluxe.DeluxeBrandCenter.</text>
<text text-anchor="start" x="8" y="-328.5" font-family="Helvetica,sans-Serif" font-size="10.00">AMM.API.Services.SessionService.</text>
<text text-anchor="middle" x="87.12" y="-316.5" font-family="Helvetica,sans-Serif" font-size="10.00">SessionSetClientId</text>
</a>
</g>
</g>
<!-- Node1&#45;&gt;Node2 -->
<g id="edge1_Node000001_Node000002" class="edge">
<title>Node1&#45;&gt;Node2</title>
<g id="a_edge1_Node000001_Node000002"><a xlink:title=" ">
<path fill="none" stroke="#63b8ff" d="M272.56,-208.14C249.93,-235.87 213.58,-275.83 174.25,-301 169.3,-304.17 163.98,-307.07 158.5,-309.71"/>
<polygon fill="#63b8ff" stroke="#63b8ff" points="275.22,-210.41 278.75,-200.42 269.76,-206.03 275.22,-210.41"/>
</a>
</g>
</g>
<!-- Node3 -->
<g id="Node000003" class="node">
<title>Node3</title>
<g id="a_Node000003"><a xlink:href="../../d3/dae/class_deluxe_1_1_deluxe_brand_center_1_1_a_m_m_1_1_a_p_i_1_1_services_1_1_session_service.html#a22a3f0d4145b196b9d0c6673211c6736" target="_top" xlink:title=" ">
<polygon fill="white" stroke="#666666" points="174.25,-292 0,-292 0,-248 174.25,-248 174.25,-292"/>
<text text-anchor="start" x="8" y="-278.5" font-family="Helvetica,sans-Serif" font-size="10.00">Deluxe.DeluxeBrandCenter.</text>
<text text-anchor="start" x="8" y="-266.5" font-family="Helvetica,sans-Serif" font-size="10.00">AMM.API.Services.SessionService.</text>
<text text-anchor="middle" x="87.12" y="-254.5" font-family="Helvetica,sans-Serif" font-size="10.00">SessionSetDeadlineForSubscription</text>
</a>
</g>
</g>
<!-- Node1&#45;&gt;Node3 -->
<g id="edge2_Node000001_Node000003" class="edge">
<title>Node1&#45;&gt;Node3</title>
<g id="a_edge2_Node000001_Node000003"><a xlink:title=" ">
<path fill="none" stroke="#63b8ff" d="M245.48,-204.62C223.81,-215.91 198.09,-228.71 174.25,-239 167.39,-241.96 160.15,-244.88 152.9,-247.67"/>
<polygon fill="#63b8ff" stroke="#63b8ff" points="246.87,-207.84 254.1,-200.09 243.62,-201.65 246.87,-207.84"/>
</a>
</g>
</g>
<!-- Node4 -->
<g id="Node000004" class="node">
<title>Node4</title>
<g id="a_Node000004"><a xlink:href="../../d3/dae/class_deluxe_1_1_deluxe_brand_center_1_1_a_m_m_1_1_a_p_i_1_1_services_1_1_session_service.html#a9483f4c11189dcd274ad754c68dce4d7" target="_top" xlink:title=" ">
<polygon fill="white" stroke="#666666" points="174.25,-230 0,-230 0,-186 174.25,-186 174.25,-230"/>
<text text-anchor="start" x="8" y="-216.5" font-family="Helvetica,sans-Serif" font-size="10.00">Deluxe.DeluxeBrandCenter.</text>
<text text-anchor="start" x="8" y="-204.5" font-family="Helvetica,sans-Serif" font-size="10.00">AMM.API.Services.SessionService.</text>
<text text-anchor="middle" x="87.12" y="-192.5" font-family="Helvetica,sans-Serif" font-size="10.00">SessionSetMaxContacts</text>
</a>
</g>
</g>
<!-- Node1&#45;&gt;Node4 -->
<g id="edge3_Node000001_Node000004" class="edge">
<title>Node1&#45;&gt;Node4</title>
<g id="a_edge3_Node000001_Node000004"><a xlink:title=" ">
<path fill="none" stroke="#63b8ff" d="M198.63,-191.55C190.64,-192.74 182.6,-193.94 174.7,-195.11"/>
<polygon fill="#63b8ff" stroke="#63b8ff" points="198.99,-195.03 208.37,-190.1 197.96,-188.11 198.99,-195.03"/>
</a>
</g>
</g>
<!-- Node5 -->
<g id="Node000005" class="node">
<title>Node5</title>
<g id="a_Node000005"><a xlink:href="../../d3/dae/class_deluxe_1_1_deluxe_brand_center_1_1_a_m_m_1_1_a_p_i_1_1_services_1_1_session_service.html#abafaccbbfeee28ea60adf6263745832f" target="_top" xlink:title=" ">
<polygon fill="white" stroke="#666666" points="174.25,-168 0,-168 0,-124 174.25,-124 174.25,-168"/>
<text text-anchor="start" x="8" y="-154.5" font-family="Helvetica,sans-Serif" font-size="10.00">Deluxe.DeluxeBrandCenter.</text>
<text text-anchor="start" x="8" y="-142.5" font-family="Helvetica,sans-Serif" font-size="10.00">AMM.API.Services.SessionService.</text>
<text text-anchor="middle" x="87.12" y="-130.5" font-family="Helvetica,sans-Serif" font-size="10.00">SessionSetMaxPersonas</text>
</a>
</g>
</g>
<!-- Node1&#45;&gt;Node5 -->
<g id="edge4_Node000001_Node000005" class="edge">
<title>Node1&#45;&gt;Node5</title>
<g id="a_edge4_Node000001_Node000005"><a xlink:title=" ">
<path fill="none" stroke="#63b8ff" d="M198.63,-162.45C190.64,-161.26 182.6,-160.06 174.7,-158.89"/>
<polygon fill="#63b8ff" stroke="#63b8ff" points="197.96,-165.89 208.37,-163.9 198.99,-158.97 197.96,-165.89"/>
</a>
</g>
</g>
<!-- Node6 -->
<g id="Node000006" class="node">
<title>Node6</title>
<g id="a_Node000006"><a xlink:href="../../d3/dae/class_deluxe_1_1_deluxe_brand_center_1_1_a_m_m_1_1_a_p_i_1_1_services_1_1_session_service.html#a717c75e5adf1c436bde11dc6ea10b1a1" target="_top" xlink:title=" ">
<polygon fill="white" stroke="#666666" points="174.25,-106 0,-106 0,-62 174.25,-62 174.25,-106"/>
<text text-anchor="start" x="8" y="-92.5" font-family="Helvetica,sans-Serif" font-size="10.00">Deluxe.DeluxeBrandCenter.</text>
<text text-anchor="start" x="8" y="-80.5" font-family="Helvetica,sans-Serif" font-size="10.00">AMM.API.Services.SessionService.</text>
<text text-anchor="middle" x="87.12" y="-68.5" font-family="Helvetica,sans-Serif" font-size="10.00">SessionSetMFMasterAccountId</text>
</a>
</g>
</g>
<!-- Node1&#45;&gt;Node6 -->
<g id="edge5_Node000001_Node000006" class="edge">
<title>Node1&#45;&gt;Node6</title>
<g id="a_edge5_Node000001_Node000006"><a xlink:title=" ">
<path fill="none" stroke="#63b8ff" d="M245.48,-149.38C223.81,-138.09 198.09,-125.29 174.25,-115 167.39,-112.04 160.15,-109.12 152.9,-106.33"/>
<polygon fill="#63b8ff" stroke="#63b8ff" points="243.62,-152.35 254.1,-153.91 246.87,-146.16 243.62,-152.35"/>
</a>
</g>
</g>
<!-- Node7 -->
<g id="Node000007" class="node">
<title>Node7</title>
<g id="a_Node000007"><a xlink:href="../../d3/dae/class_deluxe_1_1_deluxe_brand_center_1_1_a_m_m_1_1_a_p_i_1_1_services_1_1_session_service.html#af3587c6be0c8fa98df5ed55afbaf5378" target="_top" xlink:title=" ">
<polygon fill="white" stroke="#666666" points="174.25,-44 0,-44 0,0 174.25,0 174.25,-44"/>
<text text-anchor="start" x="8" y="-30.5" font-family="Helvetica,sans-Serif" font-size="10.00">Deluxe.DeluxeBrandCenter.</text>
<text text-anchor="start" x="8" y="-18.5" font-family="Helvetica,sans-Serif" font-size="10.00">AMM.API.Services.SessionService.</text>
<text text-anchor="middle" x="87.12" y="-6.5" font-family="Helvetica,sans-Serif" font-size="10.00">SessionSetUserCreditCard</text>
</a>
</g>
</g>
<!-- Node1&#45;&gt;Node7 -->
<g id="edge6_Node000001_Node000007" class="edge">
<title>Node1&#45;&gt;Node7</title>
<g id="a_edge6_Node000001_Node000007"><a xlink:title=" ">
<path fill="none" stroke="#63b8ff" d="M272.56,-145.86C249.93,-118.13 213.58,-78.17 174.25,-53 169.3,-49.83 163.98,-46.93 158.5,-44.29"/>
<polygon fill="#63b8ff" stroke="#63b8ff" points="269.76,-147.97 278.75,-153.58 275.22,-143.59 269.76,-147.97"/>
</a>
</g>
</g>
</g>
</svg>
