<?xml version="1.0" encoding="UTF-8" standalone="no"?>
<!DOCTYPE svg PUBLIC "-//W3C//DTD SVG 1.1//EN"
 "http://www.w3.org/Graphics/SVG/1.1/DTD/svg11.dtd">
<!-- Generated by graphviz version 12.1.1 (20240910.0053)
 -->
<!-- Title: Deluxe.DeluxeBrandCenter.AMM.API.Services.SessionService.SetSessionString Pages: 1 -->
<svg width="393pt" height="1106pt"
 viewBox="0.00 0.00 392.50 1106.00" xmlns="http://www.w3.org/2000/svg" xmlns:xlink="http://www.w3.org/1999/xlink">
<g id="graph0" class="graph" transform="scale(1 1) rotate(0) translate(4 1102)">
<title>Deluxe.DeluxeBrandCenter.AMM.API.Services.SessionService.SetSessionString</title>
<!-- Node1 -->
<g id="Node000001" class="node">
<title>Node1</title>
<g id="a_Node000001"><a xlink:title=" ">
<polygon fill="#999999" stroke="#666666" points="384.5,-571 210.25,-571 210.25,-527 384.5,-527 384.5,-571"/>
<text text-anchor="start" x="218.25" y="-557.5" font-family="Helvetica,sans-Serif" font-size="10.00">Deluxe.DeluxeBrandCenter.</text>
<text text-anchor="start" x="218.25" y="-545.5" font-family="Helvetica,sans-Serif" font-size="10.00">AMM.API.Services.SessionService.</text>
<text text-anchor="middle" x="297.38" y="-533.5" font-family="Helvetica,sans-Serif" font-size="10.00">SetSessionString</text>
</a>
</g>
</g>
<!-- Node2 -->
<g id="Node000002" class="node">
<title>Node2</title>
<g id="a_Node000002"><a xlink:href="../../d3/dae/class_deluxe_1_1_deluxe_brand_center_1_1_a_m_m_1_1_a_p_i_1_1_services_1_1_session_service.html#a14ff983d9e4086345a7faa6c3bb681cd" target="_top" xlink:title=" ">
<polygon fill="white" stroke="#666666" points="174.25,-1098 0,-1098 0,-1054 174.25,-1054 174.25,-1098"/>
<text text-anchor="start" x="8" y="-1084.5" font-family="Helvetica,sans-Serif" font-size="10.00">Deluxe.DeluxeBrandCenter.</text>
<text text-anchor="start" x="8" y="-1072.5" font-family="Helvetica,sans-Serif" font-size="10.00">AMM.API.Services.SessionService.</text>
<text text-anchor="middle" x="87.12" y="-1060.5" font-family="Helvetica,sans-Serif" font-size="10.00">SessionGetUserEmail</text>
</a>
</g>
</g>
<!-- Node1&#45;&gt;Node2 -->
<g id="edge1_Node000001_Node000002" class="edge">
<title>Node1&#45;&gt;Node2</title>
<g id="a_edge1_Node000001_Node000002"><a xlink:title=" ">
<path fill="none" stroke="#63b8ff" d="M292.26,-582.57C279.39,-682.49 237,-975.36 174.25,-1045 171.38,-1048.19 168.15,-1051.05 164.68,-1053.61"/>
<polygon fill="#63b8ff" stroke="#63b8ff" points="295.7,-583.23 293.49,-572.87 288.76,-582.35 295.7,-583.23"/>
</a>
</g>
</g>
<!-- Node3 -->
<g id="Node000003" class="node">
<title>Node3</title>
<g id="a_Node000003"><a xlink:href="../../d3/dae/class_deluxe_1_1_deluxe_brand_center_1_1_a_m_m_1_1_a_p_i_1_1_services_1_1_session_service.html#a87d3faed56aea80f664e213133dc5964" target="_top" xlink:title=" ">
<polygon fill="white" stroke="#666666" points="174.25,-1036 0,-1036 0,-992 174.25,-992 174.25,-1036"/>
<text text-anchor="start" x="8" y="-1022.5" font-family="Helvetica,sans-Serif" font-size="10.00">Deluxe.DeluxeBrandCenter.</text>
<text text-anchor="start" x="8" y="-1010.5" font-family="Helvetica,sans-Serif" font-size="10.00">AMM.API.Services.SessionService.</text>
<text text-anchor="middle" x="87.12" y="-998.5" font-family="Helvetica,sans-Serif" font-size="10.00">SessionSetClientName</text>
</a>
</g>
</g>
<!-- Node1&#45;&gt;Node3 -->
<g id="edge2_Node000001_Node000003" class="edge">
<title>Node1&#45;&gt;Node3</title>
<g id="a_edge2_Node000001_Node000003"><a xlink:title=" ">
<path fill="none" stroke="#63b8ff" d="M296.76,-582.63C295.83,-662.76 282.32,-866.95 174.25,-983 171.22,-986.26 167.82,-989.17 164.17,-991.78"/>
<polygon fill="#63b8ff" stroke="#63b8ff" points="300.26,-582.82 296.81,-572.81 293.26,-582.79 300.26,-582.82"/>
</a>
</g>
</g>
<!-- Node4 -->
<g id="Node000004" class="node">
<title>Node4</title>
<g id="a_Node000004"><a xlink:href="../../d3/dae/class_deluxe_1_1_deluxe_brand_center_1_1_a_m_m_1_1_a_p_i_1_1_services_1_1_session_service.html#a5cd098c16c941dbd9140a6309ef2eae4" target="_top" xlink:title=" ">
<polygon fill="white" stroke="#666666" points="174.25,-974 0,-974 0,-930 174.25,-930 174.25,-974"/>
<text text-anchor="start" x="8" y="-960.5" font-family="Helvetica,sans-Serif" font-size="10.00">Deluxe.DeluxeBrandCenter.</text>
<text text-anchor="start" x="8" y="-948.5" font-family="Helvetica,sans-Serif" font-size="10.00">AMM.API.Services.SessionService.</text>
<text text-anchor="middle" x="87.12" y="-936.5" font-family="Helvetica,sans-Serif" font-size="10.00">SessionSetCompanyId</text>
</a>
</g>
</g>
<!-- Node1&#45;&gt;Node4 -->
<g id="edge3_Node000001_Node000004" class="edge">
<title>Node1&#45;&gt;Node4</title>
<g id="a_edge3_Node000001_Node000004"><a xlink:title=" ">
<path fill="none" stroke="#63b8ff" d="M294.86,-582.72C289.82,-654.66 268.08,-824.47 174.25,-921 171.15,-924.19 167.7,-927.05 164,-929.62"/>
<polygon fill="#63b8ff" stroke="#63b8ff" points="298.35,-582.96 295.48,-572.77 291.36,-582.53 298.35,-582.96"/>
</a>
</g>
</g>
<!-- Node5 -->
<g id="Node000005" class="node">
<title>Node5</title>
<g id="a_Node000005"><a xlink:href="../../d3/dae/class_deluxe_1_1_deluxe_brand_center_1_1_a_m_m_1_1_a_p_i_1_1_services_1_1_session_service.html#a1863777d69cdee4dddd772eb0bac725a" target="_top" xlink:title=" ">
<polygon fill="white" stroke="#666666" points="174.25,-912 0,-912 0,-868 174.25,-868 174.25,-912"/>
<text text-anchor="start" x="8" y="-898.5" font-family="Helvetica,sans-Serif" font-size="10.00">Deluxe.DeluxeBrandCenter.</text>
<text text-anchor="start" x="8" y="-886.5" font-family="Helvetica,sans-Serif" font-size="10.00">AMM.API.Services.SessionService.</text>
<text text-anchor="middle" x="87.12" y="-874.5" font-family="Helvetica,sans-Serif" font-size="10.00">SessionSetDefaultFromAddress</text>
</a>
</g>
</g>
<!-- Node1&#45;&gt;Node5 -->
<g id="edge4_Node000001_Node000005" class="edge">
<title>Node1&#45;&gt;Node5</title>
<g id="a_edge4_Node000001_Node000005"><a xlink:title=" ">
<path fill="none" stroke="#63b8ff" d="M292.32,-582.36C282.97,-645.12 254.19,-781.41 174.25,-859 170.94,-862.21 167.28,-865.09 163.38,-867.67"/>
<polygon fill="#63b8ff" stroke="#63b8ff" points="295.76,-583.06 293.69,-572.67 288.83,-582.09 295.76,-583.06"/>
</a>
</g>
</g>
<!-- Node6 -->
<g id="Node000006" class="node">
<title>Node6</title>
<g id="a_Node000006"><a xlink:href="../../d3/dae/class_deluxe_1_1_deluxe_brand_center_1_1_a_m_m_1_1_a_p_i_1_1_services_1_1_session_service.html#a7b20cb282342fadab59cf2ee11a81f50" target="_top" xlink:title=" ">
<polygon fill="white" stroke="#666666" points="174.25,-850 0,-850 0,-806 174.25,-806 174.25,-850"/>
<text text-anchor="start" x="8" y="-836.5" font-family="Helvetica,sans-Serif" font-size="10.00">Deluxe.DeluxeBrandCenter.</text>
<text text-anchor="start" x="8" y="-824.5" font-family="Helvetica,sans-Serif" font-size="10.00">AMM.API.Services.SessionService.</text>
<text text-anchor="middle" x="87.12" y="-812.5" font-family="Helvetica,sans-Serif" font-size="10.00">SessionSetDefaultUserType</text>
</a>
</g>
</g>
<!-- Node1&#45;&gt;Node6 -->
<g id="edge5_Node000001_Node000006" class="edge">
<title>Node1&#45;&gt;Node6</title>
<g id="a_edge5_Node000001_Node000006"><a xlink:title=" ">
<path fill="none" stroke="#63b8ff" d="M288.58,-582.38C274.58,-635.18 240.29,-737.98 174.25,-797 170.7,-800.18 166.79,-803.04 162.67,-805.61"/>
<polygon fill="#63b8ff" stroke="#63b8ff" points="291.95,-583.33 291.03,-572.77 285.17,-581.59 291.95,-583.33"/>
</a>
</g>
</g>
<!-- Node7 -->
<g id="Node000007" class="node">
<title>Node7</title>
<g id="a_Node000007"><a xlink:href="../../d3/dae/class_deluxe_1_1_deluxe_brand_center_1_1_a_m_m_1_1_a_p_i_1_1_services_1_1_session_service.html#a7bda6cf8ebae13883dcb0d69c040b350" target="_top" xlink:title=" ">
<polygon fill="white" stroke="#666666" points="174.25,-788 0,-788 0,-744 174.25,-744 174.25,-788"/>
<text text-anchor="start" x="8" y="-774.5" font-family="Helvetica,sans-Serif" font-size="10.00">Deluxe.DeluxeBrandCenter.</text>
<text text-anchor="start" x="8" y="-762.5" font-family="Helvetica,sans-Serif" font-size="10.00">AMM.API.Services.SessionService.</text>
<text text-anchor="middle" x="87.12" y="-750.5" font-family="Helvetica,sans-Serif" font-size="10.00">SessionSetGlobalFormId</text>
</a>
</g>
</g>
<!-- Node1&#45;&gt;Node7 -->
<g id="edge6_Node000001_Node000007" class="edge">
<title>Node1&#45;&gt;Node7</title>
<g id="a_edge6_Node000001_Node000007"><a xlink:title=" ">
<path fill="none" stroke="#63b8ff" d="M282.9,-581.57C264.27,-622.82 226.88,-693.5 174.25,-735 170.26,-738.15 165.92,-740.99 161.38,-743.56"/>
<polygon fill="#63b8ff" stroke="#63b8ff" points="286,-583.21 286.83,-572.65 279.59,-580.39 286,-583.21"/>
</a>
</g>
</g>
<!-- Node8 -->
<g id="Node000008" class="node">
<title>Node8</title>
<g id="a_Node000008"><a xlink:href="../../d3/dae/class_deluxe_1_1_deluxe_brand_center_1_1_a_m_m_1_1_a_p_i_1_1_services_1_1_session_service.html#a1bd2e652a295afc6cfc233a175883e1a" target="_top" xlink:title=" ">
<polygon fill="white" stroke="#666666" points="174.25,-726 0,-726 0,-682 174.25,-682 174.25,-726"/>
<text text-anchor="start" x="8" y="-712.5" font-family="Helvetica,sans-Serif" font-size="10.00">Deluxe.DeluxeBrandCenter.</text>
<text text-anchor="start" x="8" y="-700.5" font-family="Helvetica,sans-Serif" font-size="10.00">AMM.API.Services.SessionService.</text>
<text text-anchor="middle" x="87.12" y="-688.5" font-family="Helvetica,sans-Serif" font-size="10.00">SessionSetMFAccountId</text>
</a>
</g>
</g>
<!-- Node1&#45;&gt;Node8 -->
<g id="edge7_Node000001_Node000008" class="edge">
<title>Node1&#45;&gt;Node8</title>
<g id="a_edge7_Node000001_Node000008"><a xlink:title=" ">
<path fill="none" stroke="#63b8ff" d="M272.56,-580.14C249.93,-607.87 213.58,-647.83 174.25,-673 169.3,-676.17 163.98,-679.07 158.5,-681.71"/>
<polygon fill="#63b8ff" stroke="#63b8ff" points="275.22,-582.41 278.75,-572.42 269.76,-578.03 275.22,-582.41"/>
</a>
</g>
</g>
<!-- Node9 -->
<g id="Node000009" class="node">
<title>Node9</title>
<g id="a_Node000009"><a xlink:href="../../d3/dae/class_deluxe_1_1_deluxe_brand_center_1_1_a_m_m_1_1_a_p_i_1_1_services_1_1_session_service.html#a52a24ad25646c9e4b67f3a21b0ab5216" target="_top" xlink:title=" ">
<polygon fill="white" stroke="#666666" points="174.25,-664 0,-664 0,-620 174.25,-620 174.25,-664"/>
<text text-anchor="start" x="8" y="-650.5" font-family="Helvetica,sans-Serif" font-size="10.00">Deluxe.DeluxeBrandCenter.</text>
<text text-anchor="start" x="8" y="-638.5" font-family="Helvetica,sans-Serif" font-size="10.00">AMM.API.Services.SessionService.</text>
<text text-anchor="middle" x="87.12" y="-626.5" font-family="Helvetica,sans-Serif" font-size="10.00">SessionSetMFAccountNamePrefix</text>
</a>
</g>
</g>
<!-- Node1&#45;&gt;Node9 -->
<g id="edge8_Node000001_Node000009" class="edge">
<title>Node1&#45;&gt;Node9</title>
<g id="a_edge8_Node000001_Node000009"><a xlink:title=" ">
<path fill="none" stroke="#63b8ff" d="M245.48,-576.62C223.81,-587.91 198.09,-600.71 174.25,-611 167.39,-613.96 160.15,-616.88 152.9,-619.67"/>
<polygon fill="#63b8ff" stroke="#63b8ff" points="246.87,-579.84 254.1,-572.09 243.62,-573.65 246.87,-579.84"/>
</a>
</g>
</g>
<!-- Node10 -->
<g id="Node000010" class="node">
<title>Node10</title>
<g id="a_Node000010"><a xlink:href="../../d3/dae/class_deluxe_1_1_deluxe_brand_center_1_1_a_m_m_1_1_a_p_i_1_1_services_1_1_session_service.html#a1afd46990f439af1f0e34fc0c0726873" target="_top" xlink:title=" ">
<polygon fill="white" stroke="#666666" points="174.25,-602 0,-602 0,-558 174.25,-558 174.25,-602"/>
<text text-anchor="start" x="8" y="-588.5" font-family="Helvetica,sans-Serif" font-size="10.00">Deluxe.DeluxeBrandCenter.</text>
<text text-anchor="start" x="8" y="-576.5" font-family="Helvetica,sans-Serif" font-size="10.00">AMM.API.Services.SessionService.</text>
<text text-anchor="middle" x="87.12" y="-564.5" font-family="Helvetica,sans-Serif" font-size="10.00">SessionSetMFDomain</text>
</a>
</g>
</g>
<!-- Node1&#45;&gt;Node10 -->
<g id="edge9_Node000001_Node000010" class="edge">
<title>Node1&#45;&gt;Node10</title>
<g id="a_edge9_Node000001_Node000010"><a xlink:title=" ">
<path fill="none" stroke="#63b8ff" d="M198.63,-563.55C190.64,-564.74 182.6,-565.94 174.7,-567.11"/>
<polygon fill="#63b8ff" stroke="#63b8ff" points="198.99,-567.03 208.37,-562.1 197.96,-560.11 198.99,-567.03"/>
</a>
</g>
</g>
<!-- Node11 -->
<g id="Node000011" class="node">
<title>Node11</title>
<g id="a_Node000011"><a xlink:href="../../d3/dae/class_deluxe_1_1_deluxe_brand_center_1_1_a_m_m_1_1_a_p_i_1_1_services_1_1_session_service.html#afb91c12a5a3fdc07379c5486e959d621" target="_top" xlink:title=" ">
<polygon fill="white" stroke="#666666" points="174.25,-540 0,-540 0,-496 174.25,-496 174.25,-540"/>
<text text-anchor="start" x="8" y="-526.5" font-family="Helvetica,sans-Serif" font-size="10.00">Deluxe.DeluxeBrandCenter.</text>
<text text-anchor="start" x="8" y="-514.5" font-family="Helvetica,sans-Serif" font-size="10.00">AMM.API.Services.SessionService.</text>
<text text-anchor="middle" x="87.12" y="-502.5" font-family="Helvetica,sans-Serif" font-size="10.00">SessionSetRootUrl</text>
</a>
</g>
</g>
<!-- Node1&#45;&gt;Node11 -->
<g id="edge10_Node000001_Node000011" class="edge">
<title>Node1&#45;&gt;Node11</title>
<g id="a_edge10_Node000001_Node000011"><a xlink:title=" ">
<path fill="none" stroke="#63b8ff" d="M198.63,-534.45C190.64,-533.26 182.6,-532.06 174.7,-530.89"/>
<polygon fill="#63b8ff" stroke="#63b8ff" points="197.96,-537.89 208.37,-535.9 198.99,-530.97 197.96,-537.89"/>
</a>
</g>
</g>
<!-- Node12 -->
<g id="Node000012" class="node">
<title>Node12</title>
<g id="a_Node000012"><a xlink:href="../../d3/dae/class_deluxe_1_1_deluxe_brand_center_1_1_a_m_m_1_1_a_p_i_1_1_services_1_1_session_service.html#a8b9b0d35a52305dfce32eb3f8e89053a" target="_top" xlink:title=" ">
<polygon fill="white" stroke="#666666" points="174.25,-478 0,-478 0,-434 174.25,-434 174.25,-478"/>
<text text-anchor="start" x="8" y="-464.5" font-family="Helvetica,sans-Serif" font-size="10.00">Deluxe.DeluxeBrandCenter.</text>
<text text-anchor="start" x="8" y="-452.5" font-family="Helvetica,sans-Serif" font-size="10.00">AMM.API.Services.SessionService.</text>
<text text-anchor="middle" x="87.12" y="-440.5" font-family="Helvetica,sans-Serif" font-size="10.00">SessionSetS3Bucket</text>
</a>
</g>
</g>
<!-- Node1&#45;&gt;Node12 -->
<g id="edge11_Node000001_Node000012" class="edge">
<title>Node1&#45;&gt;Node12</title>
<g id="a_edge11_Node000001_Node000012"><a xlink:title=" ">
<path fill="none" stroke="#63b8ff" d="M245.48,-521.38C223.81,-510.09 198.09,-497.29 174.25,-487 167.39,-484.04 160.15,-481.12 152.9,-478.33"/>
<polygon fill="#63b8ff" stroke="#63b8ff" points="243.62,-524.35 254.1,-525.91 246.87,-518.16 243.62,-524.35"/>
</a>
</g>
</g>
<!-- Node13 -->
<g id="Node000013" class="node">
<title>Node13</title>
<g id="a_Node000013"><a xlink:href="../../d3/dae/class_deluxe_1_1_deluxe_brand_center_1_1_a_m_m_1_1_a_p_i_1_1_services_1_1_session_service.html#ab665c1af7c9ce8afaf86550b3cc846a0" target="_top" xlink:title=" ">
<polygon fill="white" stroke="#666666" points="174.25,-416 0,-416 0,-372 174.25,-372 174.25,-416"/>
<text text-anchor="start" x="8" y="-402.5" font-family="Helvetica,sans-Serif" font-size="10.00">Deluxe.DeluxeBrandCenter.</text>
<text text-anchor="start" x="8" y="-390.5" font-family="Helvetica,sans-Serif" font-size="10.00">AMM.API.Services.SessionService.</text>
<text text-anchor="middle" x="87.12" y="-378.5" font-family="Helvetica,sans-Serif" font-size="10.00">SessionSetSFApiVersion</text>
</a>
</g>
</g>
<!-- Node1&#45;&gt;Node13 -->
<g id="edge12_Node000001_Node000013" class="edge">
<title>Node1&#45;&gt;Node13</title>
<g id="a_edge12_Node000001_Node000013"><a xlink:title=" ">
<path fill="none" stroke="#63b8ff" d="M272.56,-517.86C249.93,-490.13 213.58,-450.17 174.25,-425 169.3,-421.83 163.98,-418.93 158.5,-416.29"/>
<polygon fill="#63b8ff" stroke="#63b8ff" points="269.76,-519.97 278.75,-525.58 275.22,-515.59 269.76,-519.97"/>
</a>
</g>
</g>
<!-- Node14 -->
<g id="Node000014" class="node">
<title>Node14</title>
<g id="a_Node000014"><a xlink:href="../../d3/dae/class_deluxe_1_1_deluxe_brand_center_1_1_a_m_m_1_1_a_p_i_1_1_services_1_1_session_service.html#a067edb5d7ec196ba97c50541becc8374" target="_top" xlink:title=" ">
<polygon fill="white" stroke="#666666" points="174.25,-354 0,-354 0,-310 174.25,-310 174.25,-354"/>
<text text-anchor="start" x="8" y="-340.5" font-family="Helvetica,sans-Serif" font-size="10.00">Deluxe.DeluxeBrandCenter.</text>
<text text-anchor="start" x="8" y="-328.5" font-family="Helvetica,sans-Serif" font-size="10.00">AMM.API.Services.SessionService.</text>
<text text-anchor="middle" x="87.12" y="-316.5" font-family="Helvetica,sans-Serif" font-size="10.00">SessionSetSFAuthToken</text>
</a>
</g>
</g>
<!-- Node1&#45;&gt;Node14 -->
<g id="edge13_Node000001_Node000014" class="edge">
<title>Node1&#45;&gt;Node14</title>
<g id="a_edge13_Node000001_Node000014"><a xlink:title=" ">
<path fill="none" stroke="#63b8ff" d="M282.9,-516.43C264.27,-475.18 226.88,-404.5 174.25,-363 170.26,-359.85 165.92,-357.01 161.38,-354.44"/>
<polygon fill="#63b8ff" stroke="#63b8ff" points="279.59,-517.61 286.83,-525.35 286,-514.79 279.59,-517.61"/>
</a>
</g>
</g>
<!-- Node15 -->
<g id="Node000015" class="node">
<title>Node15</title>
<g id="a_Node000015"><a xlink:href="../../d3/dae/class_deluxe_1_1_deluxe_brand_center_1_1_a_m_m_1_1_a_p_i_1_1_services_1_1_session_service.html#aefa47fda0b0b3013828cbb9fc2254bc6" target="_top" xlink:title=" ">
<polygon fill="white" stroke="#666666" points="174.25,-292 0,-292 0,-248 174.25,-248 174.25,-292"/>
<text text-anchor="start" x="8" y="-278.5" font-family="Helvetica,sans-Serif" font-size="10.00">Deluxe.DeluxeBrandCenter.</text>
<text text-anchor="start" x="8" y="-266.5" font-family="Helvetica,sans-Serif" font-size="10.00">AMM.API.Services.SessionService.</text>
<text text-anchor="middle" x="87.12" y="-254.5" font-family="Helvetica,sans-Serif" font-size="10.00">SessionSetSFInstance</text>
</a>
</g>
</g>
<!-- Node1&#45;&gt;Node15 -->
<g id="edge14_Node000001_Node000015" class="edge">
<title>Node1&#45;&gt;Node15</title>
<g id="a_edge14_Node000001_Node000015"><a xlink:title=" ">
<path fill="none" stroke="#63b8ff" d="M288.58,-515.62C274.58,-462.82 240.29,-360.02 174.25,-301 170.7,-297.82 166.79,-294.96 162.67,-292.39"/>
<polygon fill="#63b8ff" stroke="#63b8ff" points="285.17,-516.41 291.03,-525.23 291.95,-514.67 285.17,-516.41"/>
</a>
</g>
</g>
<!-- Node16 -->
<g id="Node000016" class="node">
<title>Node16</title>
<g id="a_Node000016"><a xlink:href="../../d3/dae/class_deluxe_1_1_deluxe_brand_center_1_1_a_m_m_1_1_a_p_i_1_1_services_1_1_session_service.html#a65d4e398f50a937a3f90a82c0057e6a2" target="_top" xlink:title=" ">
<polygon fill="white" stroke="#666666" points="174.25,-230 0,-230 0,-186 174.25,-186 174.25,-230"/>
<text text-anchor="start" x="8" y="-216.5" font-family="Helvetica,sans-Serif" font-size="10.00">Deluxe.DeluxeBrandCenter.</text>
<text text-anchor="start" x="8" y="-204.5" font-family="Helvetica,sans-Serif" font-size="10.00">AMM.API.Services.SessionService.</text>
<text text-anchor="middle" x="87.12" y="-192.5" font-family="Helvetica,sans-Serif" font-size="10.00">SessionSetSFRefreshToken</text>
</a>
</g>
</g>
<!-- Node1&#45;&gt;Node16 -->
<g id="edge15_Node000001_Node000016" class="edge">
<title>Node1&#45;&gt;Node16</title>
<g id="a_edge15_Node000001_Node000016"><a xlink:title=" ">
<path fill="none" stroke="#63b8ff" d="M292.32,-515.64C282.97,-452.88 254.19,-316.59 174.25,-239 170.94,-235.79 167.28,-232.91 163.38,-230.33"/>
<polygon fill="#63b8ff" stroke="#63b8ff" points="288.83,-515.91 293.69,-525.33 295.76,-514.94 288.83,-515.91"/>
</a>
</g>
</g>
<!-- Node17 -->
<g id="Node000017" class="node">
<title>Node17</title>
<g id="a_Node000017"><a xlink:href="../../d3/dae/class_deluxe_1_1_deluxe_brand_center_1_1_a_m_m_1_1_a_p_i_1_1_services_1_1_session_service.html#a951b03f7b64aec268a92a3ce68fd0085" target="_top" xlink:title=" ">
<polygon fill="white" stroke="#666666" points="174.25,-168 0,-168 0,-124 174.25,-124 174.25,-168"/>
<text text-anchor="start" x="8" y="-154.5" font-family="Helvetica,sans-Serif" font-size="10.00">Deluxe.DeluxeBrandCenter.</text>
<text text-anchor="start" x="8" y="-142.5" font-family="Helvetica,sans-Serif" font-size="10.00">AMM.API.Services.SessionService.</text>
<text text-anchor="middle" x="87.12" y="-130.5" font-family="Helvetica,sans-Serif" font-size="10.00">SessionSetTechnicalSupportPhone</text>
</a>
</g>
</g>
<!-- Node1&#45;&gt;Node17 -->
<g id="edge16_Node000001_Node000017" class="edge">
<title>Node1&#45;&gt;Node17</title>
<g id="a_edge16_Node000001_Node000017"><a xlink:title=" ">
<path fill="none" stroke="#63b8ff" d="M294.86,-515.28C289.82,-443.34 268.08,-273.53 174.25,-177 171.15,-173.81 167.7,-170.95 164,-168.38"/>
<polygon fill="#63b8ff" stroke="#63b8ff" points="291.36,-515.47 295.48,-525.23 298.35,-515.04 291.36,-515.47"/>
</a>
</g>
</g>
<!-- Node18 -->
<g id="Node000018" class="node">
<title>Node18</title>
<g id="a_Node000018"><a xlink:href="../../d3/dae/class_deluxe_1_1_deluxe_brand_center_1_1_a_m_m_1_1_a_p_i_1_1_services_1_1_session_service.html#a0e56a4c69093dd9b517667051bb13002" target="_top" xlink:title=" ">
<polygon fill="white" stroke="#666666" points="174.25,-106 0,-106 0,-62 174.25,-62 174.25,-106"/>
<text text-anchor="start" x="8" y="-92.5" font-family="Helvetica,sans-Serif" font-size="10.00">Deluxe.DeluxeBrandCenter.</text>
<text text-anchor="start" x="8" y="-80.5" font-family="Helvetica,sans-Serif" font-size="10.00">AMM.API.Services.SessionService.</text>
<text text-anchor="middle" x="87.12" y="-68.5" font-family="Helvetica,sans-Serif" font-size="10.00">SessionSetTenant</text>
</a>
</g>
</g>
<!-- Node1&#45;&gt;Node18 -->
<g id="edge17_Node000001_Node000018" class="edge">
<title>Node1&#45;&gt;Node18</title>
<g id="a_edge17_Node000001_Node000018"><a xlink:title=" ">
<path fill="none" stroke="#63b8ff" d="M296.76,-515.37C295.83,-435.24 282.32,-231.05 174.25,-115 171.22,-111.74 167.82,-108.83 164.17,-106.22"/>
<polygon fill="#63b8ff" stroke="#63b8ff" points="293.26,-515.21 296.81,-525.19 300.26,-515.18 293.26,-515.21"/>
</a>
</g>
</g>
<!-- Node19 -->
<g id="Node000019" class="node">
<title>Node19</title>
<g id="a_Node000019"><a xlink:href="../../d3/dae/class_deluxe_1_1_deluxe_brand_center_1_1_a_m_m_1_1_a_p_i_1_1_services_1_1_session_service.html#a2dbc854c92685ddf579b22fdc1bab67f" target="_top" xlink:title=" ">
<polygon fill="white" stroke="#666666" points="174.25,-44 0,-44 0,0 174.25,0 174.25,-44"/>
<text text-anchor="start" x="8" y="-30.5" font-family="Helvetica,sans-Serif" font-size="10.00">Deluxe.DeluxeBrandCenter.</text>
<text text-anchor="start" x="8" y="-18.5" font-family="Helvetica,sans-Serif" font-size="10.00">AMM.API.Services.SessionService.</text>
<text text-anchor="middle" x="87.12" y="-6.5" font-family="Helvetica,sans-Serif" font-size="10.00">SessionSetUserId</text>
</a>
</g>
</g>
<!-- Node1&#45;&gt;Node19 -->
<g id="edge18_Node000001_Node000019" class="edge">
<title>Node1&#45;&gt;Node19</title>
<g id="a_edge18_Node000001_Node000019"><a xlink:title=" ">
<path fill="none" stroke="#63b8ff" d="M292.26,-515.43C279.39,-415.51 237,-122.64 174.25,-53 171.38,-49.81 168.15,-46.95 164.68,-44.39"/>
<polygon fill="#63b8ff" stroke="#63b8ff" points="288.76,-515.65 293.49,-525.13 295.7,-514.77 288.76,-515.65"/>
</a>
</g>
</g>
</g>
</svg>
