<?xml version="1.0" encoding="UTF-8" standalone="no"?>
<!DOCTYPE svg PUBLIC "-//W3C//DTD SVG 1.1//EN"
 "http://www.w3.org/Graphics/SVG/1.1/DTD/svg11.dtd">
<!-- Generated by graphviz version 12.1.1 (20240910.0053)
 -->
<!-- Title: Deluxe.DeluxeBrandCenter.AMM.Infrastructure.Mindfire.ProgramServiceMF Pages: 1 -->
<svg width="236pt" height="164pt"
 viewBox="0.00 0.00 235.50 164.00" xmlns="http://www.w3.org/2000/svg" xmlns:xlink="http://www.w3.org/1999/xlink">
<g id="graph0" class="graph" transform="scale(1 1) rotate(0) translate(4 160)">
<title>Deluxe.DeluxeBrandCenter.AMM.Infrastructure.Mindfire.ProgramServiceMF</title>
<!-- Node1 -->
<g id="Node000001" class="node">
<title>Node1</title>
<g id="a_Node000001"><a xlink:title=" ">
<polygon fill="#999999" stroke="#666666" points="202.62,-44 25.38,-44 25.38,0 202.62,0 202.62,-44"/>
<text text-anchor="start" x="33.38" y="-30.5" font-family="Helvetica,sans-Serif" font-size="10.00">Deluxe.DeluxeBrandCenter.</text>
<text text-anchor="start" x="33.38" y="-18.5" font-family="Helvetica,sans-Serif" font-size="10.00">AMM.Infrastructure.Mindfire.Program</text>
<text text-anchor="middle" x="114" y="-6.5" font-family="Helvetica,sans-Serif" font-size="10.00">ServiceMF</text>
</a>
</g>
</g>
<!-- Node2 -->
<g id="Node000002" class="node">
<title>Node2</title>
<g id="a_Node000002"><a xlink:href="../../d7/d00/class_deluxe_1_1_deluxe_brand_center_1_1_a_m_m_1_1_infrastructure_1_1_mindfire_1_1_base_mindfire_service.html" target="_top" xlink:title=" ">
<polygon fill="white" stroke="#666666" points="106,-100 0,-100 0,-80 106,-80 106,-100"/>
<text text-anchor="middle" x="53" y="-86.5" font-family="Helvetica,sans-Serif" font-size="10.00">BaseMindfireService</text>
</a>
</g>
</g>
<!-- Node2&#45;&gt;Node1 -->
<g id="edge1_Node000001_Node000002" class="edge">
<title>Node2&#45;&gt;Node1</title>
<g id="a_edge1_Node000001_Node000002"><a xlink:title=" ">
<path fill="none" stroke="#63b8ff" d="M69.31,-71.35C76.97,-63.07 86.15,-53.13 94.2,-44.43"/>
<polygon fill="#63b8ff" stroke="#63b8ff" points="66.98,-68.71 62.77,-78.43 72.12,-73.46 66.98,-68.71"/>
</a>
</g>
</g>
<!-- Node3 -->
<g id="Node000003" class="node">
<title>Node3</title>
<g id="a_Node000003"><a xlink:href="../../de/d4f/interface_deluxe_1_1_deluxe_brand_center_1_1_a_m_m_1_1_infrastructure_1_1_mindfire_1_1_i_base_mindfire_service.html" target="_top" xlink:title=" ">
<polygon fill="white" stroke="#666666" points="168.5,-156 59.5,-156 59.5,-136 168.5,-136 168.5,-156"/>
<text text-anchor="middle" x="114" y="-142.5" font-family="Helvetica,sans-Serif" font-size="10.00">IBaseMindfireService</text>
</a>
</g>
</g>
<!-- Node3&#45;&gt;Node2 -->
<g id="edge2_Node000002_Node000003" class="edge">
<title>Node3&#45;&gt;Node2</title>
<g id="a_edge2_Node000002_Node000003"><a xlink:title=" ">
<path fill="none" stroke="#63b8ff" d="M94.94,-128.13C84.56,-118.94 72.13,-107.93 63.5,-100.3"/>
<polygon fill="#63b8ff" stroke="#63b8ff" points="92.43,-130.58 102.24,-134.59 97.07,-125.34 92.43,-130.58"/>
</a>
</g>
</g>
<!-- Node4 -->
<g id="Node000004" class="node">
<title>Node4</title>
<g id="a_Node000004"><a xlink:href="../../da/d66/interface_deluxe_1_1_deluxe_brand_center_1_1_a_m_m_1_1_infrastructure_1_1_mindfire_1_1_i_program_service_m_f.html" target="_top" xlink:title=" ">
<polygon fill="white" stroke="#666666" points="227.5,-100 124.5,-100 124.5,-80 227.5,-80 227.5,-100"/>
<text text-anchor="middle" x="176" y="-86.5" font-family="Helvetica,sans-Serif" font-size="10.00">IProgramServiceMF</text>
</a>
</g>
</g>
<!-- Node3&#45;&gt;Node4 -->
<g id="edge4_Node000004_Node000003" class="edge">
<title>Node3&#45;&gt;Node4</title>
<g id="a_edge4_Node000004_Node000003"><a xlink:title=" ">
<path fill="none" stroke="#63b8ff" d="M133.37,-128.13C143.92,-118.94 156.56,-107.93 165.32,-100.3"/>
<polygon fill="#63b8ff" stroke="#63b8ff" points="131.18,-125.39 125.94,-134.6 135.78,-130.67 131.18,-125.39"/>
</a>
</g>
</g>
<!-- Node4&#45;&gt;Node1 -->
<g id="edge3_Node000001_Node000004" class="edge">
<title>Node4&#45;&gt;Node1</title>
<g id="a_edge3_Node000001_Node000004"><a xlink:title=" ">
<path fill="none" stroke="#63b8ff" d="M159.42,-71.35C151.64,-63.07 142.31,-53.13 134.13,-44.43"/>
<polygon fill="#63b8ff" stroke="#63b8ff" points="156.68,-73.55 166.08,-78.44 161.78,-68.76 156.68,-73.55"/>
</a>
</g>
</g>
</g>
</svg>
