<?xml version="1.0" encoding="UTF-8" standalone="no"?>
<!DOCTYPE svg PUBLIC "-//W3C//DTD SVG 1.1//EN"
 "http://www.w3.org/Graphics/SVG/1.1/DTD/svg11.dtd">
<!-- Generated by graphviz version 12.1.1 (20240910.0053)
 -->
<!-- Title: Deluxe.DeluxeBrandCenter.AMM.ScriptRunner.Services.IScript&lt; DataType &gt; Pages: 1 -->
<!--zoomable 360 -->

<svg id="main" version="1.1" xmlns="http://www.w3.org/2000/svg" xmlns:xlink="http://www.w3.org/1999/xlink" xml:space="preserve" onload="init(evt)">

<style type="text/css"><![CDATA[
.node, .edge {opacity: 0.7;}
.node.selected, .edge.selected {opacity: 1;}
.edge:hover path { stroke: red; }
.edge:hover polygon { stroke: red; fill: red; }
]]></style>

<defs>
  <circle id="rim" cx="0" cy="0" r="7"/>
  <circle id="rim2" cx="0" cy="0" r="3.5"/>
  <g id="zoomPlus">
    <use xlink:href="#rim" fill="#404040"><set attributeName="fill" to="#808080" begin="zoomplus.mouseover" end="zoomplus.mouseout"/></use>
    <path d="M-4,0h8M0,-4v8" fill="none" stroke="white" stroke-width="1.5" pointer-events="none"/>
  </g>
  <g id="zoomMin">
    <use xlink:href="#rim" fill="#404040"><set attributeName="fill" to="#808080" begin="zoomminus.mouseover" end="zoomminus.mouseout"/></use>
    <path d="M-4,0h8" fill="none" stroke="white" stroke-width="1.5" pointer-events="none"/>
  </g>
  <g id="arrowUp" transform="translate(30 24)">
    <use xlink:href="#rim"/>
    <path pointer-events="none" fill="none" stroke="white" stroke-width="1.5" d="M0,-3.0v7 M-2.5,-0.5L0,-3.0L2.5,-0.5"/>
  </g>
  <g id="arrowRight" transform="rotate(90) translate(36 -43)">
    <use xlink:href="#rim"/>
    <path pointer-events="none" fill="none" stroke="white" stroke-width="1.5" d="M0,-3.0v7 M-2.5,-0.5L0,-3.0L2.5,-0.5"/>
  </g>
  <g id="arrowDown" transform="rotate(180) translate(-30 -48)">
    <use xlink:href="#rim"/>
    <path pointer-events="none" fill="none" stroke="white" stroke-width="1.5" d="M0,-3.0v7 M-2.5,-0.5L0,-3.0L2.5,-0.5"/>
  </g>
  <g id="arrowLeft" transform="rotate(270) translate(-36 17)">
    <use xlink:href="#rim"/>
    <path pointer-events="none" fill="none" stroke="white" stroke-width="1.5" d="M0,-3.0v7 M-2.5,-0.5L0,-3.0L2.5,-0.5"/>
  </g>
  <g id="resetDef">
    <use xlink:href="#rim2" fill="#404040"><set attributeName="fill" to="#808080" begin="reset.mouseover" end="reset.mouseout"/></use>
  </g>
</defs>
<script type="application/ecmascript">
var viewWidth = 1036;
var viewHeight = 360;
var sectionId = 'dynsection-0';
</script>
<script type="application/ecmascript" xlink:href="../../svg.min.js"/>
<svg id="graph" class="graph">
<g id="viewport">
<title>Deluxe.DeluxeBrandCenter.AMM.ScriptRunner.Services.IScript&lt; DataType &gt;</title>
<!-- Node1 -->
<g id="Node000001" class="node">
<title>Node1</title>
<g id="a_Node000001"><a xlink:title=" ">
<polygon fill="#999999" stroke="#666666" points="172,-198 0,-198 0,-154 172,-154 172,-198"/>
<text text-anchor="start" x="8" y="-184.5" font-family="Helvetica,sans-Serif" font-size="10.00">Deluxe.DeluxeBrandCenter.</text>
<text text-anchor="start" x="8" y="-172.5" font-family="Helvetica,sans-Serif" font-size="10.00">AMM.ScriptRunner.Services.IScript</text>
<text text-anchor="middle" x="86" y="-160.5" font-family="Helvetica,sans-Serif" font-size="10.00">&lt; DataType &gt;</text>
</a>
</g>
</g>
<!-- Node2 -->
<g id="Node000002" class="node">
<title>Node2</title>
<g id="a_Node000002"><a xlink:href="../../d9/d9b/class_deluxe_1_1_deluxe_brand_center_1_1_a_m_m_1_1_script_runner_1_1_services_1_1_script.html" target="_top" xlink:title=" ">
<polygon fill="white" stroke="#666666" points="378,-198 209,-198 209,-154 378,-154 378,-198"/>
<text text-anchor="start" x="217" y="-184.5" font-family="Helvetica,sans-Serif" font-size="10.00">Deluxe.DeluxeBrandCenter.</text>
<text text-anchor="start" x="217" y="-172.5" font-family="Helvetica,sans-Serif" font-size="10.00">AMM.ScriptRunner.Services.Script</text>
<text text-anchor="middle" x="293.5" y="-160.5" font-family="Helvetica,sans-Serif" font-size="10.00">&lt; CsvLogEntryType, DataType &gt;</text>
</a>
</g>
</g>
<!-- Node1&#45;&gt;Node2 -->
<g id="edge1_Node000001_Node000002" class="edge">
<title>Node1&#45;&gt;Node2</title>
<g id="a_edge1_Node000001_Node000002"><a xlink:title=" ">
<path fill="none" stroke="#63b8ff" d="M183.71,-176C192.07,-176 200.48,-176 208.72,-176"/>
<polygon fill="#63b8ff" stroke="#63b8ff" points="183.88,-172.5 173.88,-176 183.88,-179.5 183.88,-172.5"/>
</a>
</g>
</g>
<!-- Node3 -->
<g id="Node000003" class="node">
<title>Node3</title>
<g id="a_Node000003"><a xlink:href="../../d9/d9b/class_deluxe_1_1_deluxe_brand_center_1_1_a_m_m_1_1_script_runner_1_1_services_1_1_script.html" target="_top" xlink:title=" ">
<polygon fill="white" stroke="#666666" points="805.38,-352 605.62,-352 605.62,-296 805.38,-296 805.38,-352"/>
<text text-anchor="start" x="613.62" y="-338.5" font-family="Helvetica,sans-Serif" font-size="10.00">Deluxe.DeluxeBrandCenter.</text>
<text text-anchor="start" x="613.62" y="-326.5" font-family="Helvetica,sans-Serif" font-size="10.00">AMM.ScriptRunner.Services.Script</text>
<text text-anchor="start" x="613.62" y="-314.5" font-family="Helvetica,sans-Serif" font-size="10.00">&lt; CsvLogCampaignScriptEntry,</text>
<text text-anchor="middle" x="705.5" y="-302.5" font-family="Helvetica,sans-Serif" font-size="10.00"> SyncCampaignElementCommentsData &gt;</text>
</a>
</g>
</g>
<!-- Node2&#45;&gt;Node3 -->
<g id="edge2_Node000002_Node000003" class="edge">
<title>Node2&#45;&gt;Node3</title>
<g id="a_edge2_Node000002_Node000003"><a xlink:title=" ">
<path fill="none" stroke="orange" stroke-dasharray="5,2" d="M321.83,-206.39C340.78,-225.56 367.63,-249.23 396,-263 461.57,-294.83 542.65,-310.05 605.23,-317.33"/>
<polygon fill="orange" stroke="orange" points="324.46,-204.08 315,-199.31 319.42,-208.94 324.46,-204.08"/>
</a>
</g>
<text text-anchor="start" x="396" y="-327.8" font-family="Helvetica,sans-Serif" font-size="10.00" fill="grey"> &lt; CsvLogCampaignScriptEntry,</text>
<text text-anchor="middle" x="487.88" y="-315.8" font-family="Helvetica,sans-Serif" font-size="10.00" fill="grey"> SyncCampaignElementCommentsData &gt;</text>
</g>
<!-- Node5 -->
<g id="Node000005" class="node">
<title>Node5</title>
<g id="a_Node000005"><a xlink:href="../../d9/d9b/class_deluxe_1_1_deluxe_brand_center_1_1_a_m_m_1_1_script_runner_1_1_services_1_1_script.html" target="_top" xlink:title=" ">
<polygon fill="white" stroke="#666666" points="813.25,-278 597.75,-278 597.75,-222 813.25,-222 813.25,-278"/>
<text text-anchor="start" x="605.75" y="-264.5" font-family="Helvetica,sans-Serif" font-size="10.00">Deluxe.DeluxeBrandCenter.</text>
<text text-anchor="start" x="605.75" y="-252.5" font-family="Helvetica,sans-Serif" font-size="10.00">AMM.ScriptRunner.Services.Script</text>
<text text-anchor="start" x="605.75" y="-240.5" font-family="Helvetica,sans-Serif" font-size="10.00">&lt; CsvLogPersonaScriptEntry, SyncCampaign</text>
<text text-anchor="middle" x="705.5" y="-228.5" font-family="Helvetica,sans-Serif" font-size="10.00">WithPersonaData &gt;</text>
</a>
</g>
</g>
<!-- Node2&#45;&gt;Node5 -->
<g id="edge4_Node000002_Node000005" class="edge">
<title>Node2&#45;&gt;Node5</title>
<g id="a_edge4_Node000002_Node000005"><a xlink:title=" ">
<path fill="none" stroke="orange" stroke-dasharray="5,2" d="M383.03,-201.1C387.41,-202.12 391.75,-203.1 396,-204 462.49,-218.07 537.93,-229.4 597.56,-237.3"/>
<polygon fill="orange" stroke="orange" points="384.14,-197.76 373.59,-198.8 382.48,-204.57 384.14,-197.76"/>
</a>
</g>
<text text-anchor="start" x="409.88" y="-249.26" font-family="Helvetica,sans-Serif" font-size="10.00" fill="grey"> &lt; CsvLogPersonaScriptEntry,</text>
<text text-anchor="middle" x="487.88" y="-237.26" font-family="Helvetica,sans-Serif" font-size="10.00" fill="grey"> SyncCampaignWithPersonaData &gt;</text>
</g>
<!-- Node7 -->
<g id="Node000007" class="node">
<title>Node7</title>
<g id="a_Node000007"><a xlink:href="../../d9/d9b/class_deluxe_1_1_deluxe_brand_center_1_1_a_m_m_1_1_script_runner_1_1_services_1_1_script.html" target="_top" xlink:title=" ">
<polygon fill="white" stroke="#666666" points="790,-204 621,-204 621,-148 790,-148 790,-204"/>
<text text-anchor="start" x="629" y="-190.5" font-family="Helvetica,sans-Serif" font-size="10.00">Deluxe.DeluxeBrandCenter.</text>
<text text-anchor="start" x="629" y="-178.5" font-family="Helvetica,sans-Serif" font-size="10.00">AMM.ScriptRunner.Services.Script</text>
<text text-anchor="start" x="629" y="-166.5" font-family="Helvetica,sans-Serif" font-size="10.00">&lt; CsvLogCampaignScriptEntry,</text>
<text text-anchor="middle" x="705.5" y="-154.5" font-family="Helvetica,sans-Serif" font-size="10.00"> UpdateBillingCodesData &gt;</text>
</a>
</g>
</g>
<!-- Node2&#45;&gt;Node7 -->
<g id="edge6_Node000002_Node000007" class="edge">
<title>Node2&#45;&gt;Node7</title>
<g id="a_edge6_Node000002_Node000007"><a xlink:title=" ">
<path fill="none" stroke="orange" stroke-dasharray="5,2" d="M389.89,-176C459.75,-176 553.66,-176 620.65,-176"/>
<polygon fill="orange" stroke="orange" points="389.97,-172.5 379.97,-176 389.97,-179.5 389.97,-172.5"/>
</a>
</g>
<text text-anchor="start" x="417.38" y="-190.5" font-family="Helvetica,sans-Serif" font-size="10.00" fill="grey"> &lt; CsvLogCampaignScriptEntry,</text>
<text text-anchor="middle" x="487.88" y="-178.5" font-family="Helvetica,sans-Serif" font-size="10.00" fill="grey"> UpdateBillingCodesData &gt;</text>
</g>
<!-- Node9 -->
<g id="Node000009" class="node">
<title>Node9</title>
<g id="a_Node000009"><a xlink:href="../../d9/d9b/class_deluxe_1_1_deluxe_brand_center_1_1_a_m_m_1_1_script_runner_1_1_services_1_1_script.html" target="_top" xlink:title=" ">
<polygon fill="white" stroke="#666666" points="790,-130 621,-130 621,-74 790,-74 790,-130"/>
<text text-anchor="start" x="629" y="-116.5" font-family="Helvetica,sans-Serif" font-size="10.00">Deluxe.DeluxeBrandCenter.</text>
<text text-anchor="start" x="629" y="-104.5" font-family="Helvetica,sans-Serif" font-size="10.00">AMM.ScriptRunner.Services.Script</text>
<text text-anchor="start" x="629" y="-92.5" font-family="Helvetica,sans-Serif" font-size="10.00">&lt; CsvLogCampaignScriptEntry,</text>
<text text-anchor="middle" x="705.5" y="-80.5" font-family="Helvetica,sans-Serif" font-size="10.00"> UpdateRecurringSchedulesData &gt;</text>
</a>
</g>
</g>
<!-- Node2&#45;&gt;Node9 -->
<g id="edge8_Node000002_Node000009" class="edge">
<title>Node2&#45;&gt;Node9</title>
<g id="a_edge8_Node000002_Node000009"><a xlink:title=" ">
<path fill="none" stroke="orange" stroke-dasharray="5,2" d="M383.03,-150.9C387.41,-149.88 391.75,-148.9 396,-148 471.36,-132.05 558.22,-119.62 620.54,-111.73"/>
<polygon fill="orange" stroke="orange" points="382.48,-147.43 373.59,-153.2 384.14,-154.24 382.48,-147.43"/>
</a>
</g>
<text text-anchor="start" x="411.75" y="-162.5" font-family="Helvetica,sans-Serif" font-size="10.00" fill="grey"> &lt; CsvLogCampaignScriptEntry,</text>
<text text-anchor="middle" x="487.88" y="-150.5" font-family="Helvetica,sans-Serif" font-size="10.00" fill="grey"> UpdateRecurringSchedulesData &gt;</text>
</g>
<!-- Node11 -->
<g id="Node000011" class="node">
<title>Node11</title>
<g id="a_Node000011"><a xlink:href="../../d9/d9b/class_deluxe_1_1_deluxe_brand_center_1_1_a_m_m_1_1_script_runner_1_1_services_1_1_script.html" target="_top" xlink:title=" ">
<polygon fill="white" stroke="#666666" points="790,-56 621,-56 621,0 790,0 790,-56"/>
<text text-anchor="start" x="629" y="-42.5" font-family="Helvetica,sans-Serif" font-size="10.00">Deluxe.DeluxeBrandCenter.</text>
<text text-anchor="start" x="629" y="-30.5" font-family="Helvetica,sans-Serif" font-size="10.00">AMM.ScriptRunner.Services.Script</text>
<text text-anchor="start" x="629" y="-18.5" font-family="Helvetica,sans-Serif" font-size="10.00">&lt; CsvLogCampaignScriptEntry,</text>
<text text-anchor="middle" x="705.5" y="-6.5" font-family="Helvetica,sans-Serif" font-size="10.00"> JsonObject &gt;</text>
</a>
</g>
</g>
<!-- Node2&#45;&gt;Node11 -->
<g id="edge10_Node000002_Node000011" class="edge">
<title>Node2&#45;&gt;Node11</title>
<g id="a_edge10_Node000002_Node000011"><a xlink:title=" ">
<path fill="none" stroke="orange" stroke-dasharray="5,2" d="M321.83,-145.61C340.78,-126.44 367.63,-102.77 396,-89 467.09,-54.49 556.42,-39.5 620.63,-33"/>
<polygon fill="orange" stroke="orange" points="319.42,-143.06 315,-152.69 324.46,-147.92 319.42,-143.06"/>
</a>
</g>
<text text-anchor="start" x="417.38" y="-103.5" font-family="Helvetica,sans-Serif" font-size="10.00" fill="grey"> &lt; CsvLogCampaignScriptEntry,</text>
<text text-anchor="middle" x="487.88" y="-91.5" font-family="Helvetica,sans-Serif" font-size="10.00" fill="grey"> JsonObject &gt;</text>
</g>
<!-- Node4 -->
<g id="Node000004" class="node">
<title>Node4</title>
<g id="a_Node000004"><a xlink:href="../../de/d34/class_deluxe_1_1_deluxe_brand_center_1_1_a_m_m_1_1_script_runner_1_1_services_1_1_scripts_1_1_sync_campaign_element_metadata.html" target="_top" xlink:title=" ">
<polygon fill="white" stroke="#666666" points="1027.5,-346 850.25,-346 850.25,-302 1027.5,-302 1027.5,-346"/>
<text text-anchor="start" x="858.25" y="-332.5" font-family="Helvetica,sans-Serif" font-size="10.00">Deluxe.DeluxeBrandCenter.</text>
<text text-anchor="start" x="858.25" y="-320.5" font-family="Helvetica,sans-Serif" font-size="10.00">AMM.ScriptRunner.Services.Scripts.</text>
<text text-anchor="middle" x="938.88" y="-308.5" font-family="Helvetica,sans-Serif" font-size="10.00">SyncCampaignElementMetadata</text>
</a>
</g>
</g>
<!-- Node3&#45;&gt;Node4 -->
<g id="edge3_Node000003_Node000004" class="edge">
<title>Node3&#45;&gt;Node4</title>
<g id="a_edge3_Node000003_Node000004"><a xlink:title=" ">
<path fill="none" stroke="#63b8ff" d="M817.07,-324C828.09,-324 839.16,-324 849.9,-324"/>
<polygon fill="#63b8ff" stroke="#63b8ff" points="817.14,-320.5 807.14,-324 817.14,-327.5 817.14,-320.5"/>
</a>
</g>
</g>
<!-- Node6 -->
<g id="Node000006" class="node">
<title>Node6</title>
<g id="a_Node000006"><a xlink:href="../../db/d64/class_deluxe_1_1_deluxe_brand_center_1_1_a_m_m_1_1_script_runner_1_1_services_1_1_scripts_1_1_sync_campaign_with_persona.html" target="_top" xlink:title=" ">
<polygon fill="white" stroke="#666666" points="1027.5,-272 850.25,-272 850.25,-228 1027.5,-228 1027.5,-272"/>
<text text-anchor="start" x="858.25" y="-258.5" font-family="Helvetica,sans-Serif" font-size="10.00">Deluxe.DeluxeBrandCenter.</text>
<text text-anchor="start" x="858.25" y="-246.5" font-family="Helvetica,sans-Serif" font-size="10.00">AMM.ScriptRunner.Services.Scripts.</text>
<text text-anchor="middle" x="938.88" y="-234.5" font-family="Helvetica,sans-Serif" font-size="10.00">SyncCampaignWithPersona</text>
</a>
</g>
</g>
<!-- Node5&#45;&gt;Node6 -->
<g id="edge5_Node000005_Node000006" class="edge">
<title>Node5&#45;&gt;Node6</title>
<g id="a_edge5_Node000005_Node000006"><a xlink:title=" ">
<path fill="none" stroke="#63b8ff" d="M825.16,-250C833.54,-250 841.91,-250 850.08,-250"/>
<polygon fill="#63b8ff" stroke="#63b8ff" points="825.23,-246.5 815.23,-250 825.23,-253.5 825.23,-246.5"/>
</a>
</g>
</g>
<!-- Node8 -->
<g id="Node000008" class="node">
<title>Node8</title>
<g id="a_Node000008"><a xlink:href="../../d5/dd8/class_deluxe_1_1_deluxe_brand_center_1_1_a_m_m_1_1_script_runner_1_1_services_1_1_scripts_1_1_update_billing_codes.html" target="_top" xlink:title=" ">
<polygon fill="white" stroke="#666666" points="1027.5,-198 850.25,-198 850.25,-154 1027.5,-154 1027.5,-198"/>
<text text-anchor="start" x="858.25" y="-184.5" font-family="Helvetica,sans-Serif" font-size="10.00">Deluxe.DeluxeBrandCenter.</text>
<text text-anchor="start" x="858.25" y="-172.5" font-family="Helvetica,sans-Serif" font-size="10.00">AMM.ScriptRunner.Services.Scripts.</text>
<text text-anchor="middle" x="938.88" y="-160.5" font-family="Helvetica,sans-Serif" font-size="10.00">UpdateBillingCodes</text>
</a>
</g>
</g>
<!-- Node7&#45;&gt;Node8 -->
<g id="edge7_Node000007_Node000008" class="edge">
<title>Node7&#45;&gt;Node8</title>
<g id="a_edge7_Node000007_Node000008"><a xlink:title=" ">
<path fill="none" stroke="#63b8ff" d="M801.86,-176C817.8,-176 834.27,-176 850.02,-176"/>
<polygon fill="#63b8ff" stroke="#63b8ff" points="801.87,-172.5 791.87,-176 801.87,-179.5 801.87,-172.5"/>
</a>
</g>
</g>
<!-- Node10 -->
<g id="Node000010" class="node">
<title>Node10</title>
<g id="a_Node000010"><a xlink:href="../../da/d5b/class_deluxe_1_1_deluxe_brand_center_1_1_a_m_m_1_1_script_runner_1_1_services_1_1_scripts_1_1_update_recurring_schedules.html" target="_top" xlink:title=" ">
<polygon fill="white" stroke="#666666" points="1027.5,-124 850.25,-124 850.25,-80 1027.5,-80 1027.5,-124"/>
<text text-anchor="start" x="858.25" y="-110.5" font-family="Helvetica,sans-Serif" font-size="10.00">Deluxe.DeluxeBrandCenter.</text>
<text text-anchor="start" x="858.25" y="-98.5" font-family="Helvetica,sans-Serif" font-size="10.00">AMM.ScriptRunner.Services.Scripts.</text>
<text text-anchor="middle" x="938.88" y="-86.5" font-family="Helvetica,sans-Serif" font-size="10.00">UpdateRecurringSchedules</text>
</a>
</g>
</g>
<!-- Node9&#45;&gt;Node10 -->
<g id="edge9_Node000009_Node000010" class="edge">
<title>Node9&#45;&gt;Node10</title>
<g id="a_edge9_Node000009_Node000010"><a xlink:title=" ">
<path fill="none" stroke="#63b8ff" d="M801.86,-102C817.8,-102 834.27,-102 850.02,-102"/>
<polygon fill="#63b8ff" stroke="#63b8ff" points="801.87,-98.5 791.87,-102 801.87,-105.5 801.87,-98.5"/>
</a>
</g>
</g>
<!-- Node12 -->
<g id="Node000012" class="node">
<title>Node12</title>
<g id="a_Node000012"><a xlink:href="../../d9/dc8/class_deluxe_1_1_deluxe_brand_center_1_1_a_m_m_1_1_script_runner_1_1_services_1_1_scripts_1_1_update_social_callback_url.html" target="_top" xlink:title=" ">
<polygon fill="white" stroke="#666666" points="1027.5,-50 850.25,-50 850.25,-6 1027.5,-6 1027.5,-50"/>
<text text-anchor="start" x="858.25" y="-36.5" font-family="Helvetica,sans-Serif" font-size="10.00">Deluxe.DeluxeBrandCenter.</text>
<text text-anchor="start" x="858.25" y="-24.5" font-family="Helvetica,sans-Serif" font-size="10.00">AMM.ScriptRunner.Services.Scripts.</text>
<text text-anchor="middle" x="938.88" y="-12.5" font-family="Helvetica,sans-Serif" font-size="10.00">UpdateSocialCallbackUrl</text>
</a>
</g>
</g>
<!-- Node11&#45;&gt;Node12 -->
<g id="edge11_Node000011_Node000012" class="edge">
<title>Node11&#45;&gt;Node12</title>
<g id="a_edge11_Node000011_Node000012"><a xlink:title=" ">
<path fill="none" stroke="#63b8ff" d="M801.86,-28C817.8,-28 834.27,-28 850.02,-28"/>
<polygon fill="#63b8ff" stroke="#63b8ff" points="801.87,-24.5 791.87,-28 801.87,-31.5 801.87,-24.5"/>
</a>
</g>
</g>
</g>
</svg>

<g id="navigator" transform="translate(0 0)" fill="#404254">
  <rect fill="#f2f5e9" fill-opacity="0.5" stroke="#606060" stroke-width=".5" x="0" y="0" width="60" height="60"/>
  <use id="zoomplus" xlink:href="#zoomPlus" x="17" y="9" onmousedown="handleZoom(evt,'in')"/>
  <use id="zoomminus" xlink:href="#zoomMin" x="42" y="9" onmousedown="handleZoom(evt,'out')"/>
  <use id="reset" xlink:href="#resetDef" x="30" y="36" onmousedown="handleReset()"/>
   <use id="arrowup" xlink:href="#arrowUp" x="0" y="0" onmousedown="handlePan(0,-1)"/>
  <use id="arrowright" xlink:href="#arrowRight" x="0" y="0" onmousedown="handlePan(1,0)"/>
  <use id="arrowdown" xlink:href="#arrowDown" x="0" y="0" onmousedown="handlePan(0,1)"/>
  <use id="arrowleft" xlink:href="#arrowLeft" x="0" y="0" onmousedown="handlePan(-1,0)"/>
</g>
<svg viewBox="0 0 15 15" width="100%" height="30px" preserveAspectRatio="xMaxYMin meet">
 <g id="arrow_out" transform="scale(0.3 0.3)">
  <a xlink:href="interface_deluxe_1_1_deluxe_brand_center_1_1_a_m_m_1_1_script_runner_1_1_services_1_1_i_script__inherit__graph_org.svg" target="_base">
   <rect id="button" ry="5" rx="5" y="6" x="6" height="38" width="38"
        fill="#f2f5e9" fill-opacity="0.5" stroke="#606060" stroke-width="1.0"/>
   <path id="arrow"
     d="M 11.500037,31.436501 C 11.940474,20.09759 22.043105,11.32322 32.158766,21.979434 L 37.068811,17.246167 C 37.068811,17.246167 37.088388,32 37.088388,32 L 22.160133,31.978069 C 22.160133,31.978069 26.997745,27.140456 26.997745,27.140456 C 18.528582,18.264221 13.291696,25.230495 11.500037,31.436501 z"
     style="fill:#404040;"/>
  </a>
 </g>
</svg>

<style type='text/css'>
<![CDATA[
[data-mouse-over-selected='false'] { opacity: 0.7; }
[data-mouse-over-selected='true']  { opacity: 1.0; }
]]>
</style>
<script type="application/ecmascript"><![CDATA[
document.addEventListener('DOMContentLoaded', (event) => {
  highlightEdges();
  highlightAdjacentNodes();
});
]]></script>
</svg>
