<?xml version="1.0" encoding="UTF-8" standalone="no"?>
<!DOCTYPE svg PUBLIC "-//W3C//DTD SVG 1.1//EN"
 "http://www.w3.org/Graphics/SVG/1.1/DTD/svg11.dtd">
<!-- Generated by graphviz version 12.1.1 (20240910.0053)
 -->
<!-- Title: Deluxe.DeluxeBrandCenter.AMM.API.Services.CampaignService Pages: 1 -->
<svg width="1218pt" height="152pt"
 viewBox="0.00 0.00 1218.00 152.00" xmlns="http://www.w3.org/2000/svg" xmlns:xlink="http://www.w3.org/1999/xlink">
<g id="graph0" class="graph" transform="scale(1 1) rotate(0) translate(4 148)">
<title>Deluxe.DeluxeBrandCenter.AMM.API.Services.CampaignService</title>
<!-- Node1 -->
<g id="Node000001" class="node">
<title>Node1</title>
<g id="a_Node000001"><a xlink:title=" ">
<polygon fill="#999999" stroke="#666666" points="1210,-71 1029.75,-71 1029.75,-39 1210,-39 1210,-71"/>
<text text-anchor="start" x="1037.75" y="-57.5" font-family="Helvetica,sans-Serif" font-size="10.00">Deluxe.DeluxeBrandCenter.</text>
<text text-anchor="middle" x="1119.88" y="-45.5" font-family="Helvetica,sans-Serif" font-size="10.00">AMM.API.Services.CampaignService</text>
</a>
</g>
</g>
<!-- Node2 -->
<g id="Node000002" class="node">
<title>Node2</title>
<g id="a_Node000002"><a xlink:href="../../dd/dd8/class_deluxe_1_1_deluxe_brand_center_1_1_a_m_m_1_1_a_p_i_1_1_services_1_1_named_db_service.html" target="_top" xlink:title=" ">
<polygon fill="white" stroke="#666666" points="992.75,-92 843.25,-92 843.25,-60 992.75,-60 992.75,-92"/>
<text text-anchor="start" x="851.25" y="-78.5" font-family="Helvetica,sans-Serif" font-size="10.00">NamedDbService&lt; Campaign,</text>
<text text-anchor="middle" x="918" y="-66.5" font-family="Helvetica,sans-Serif" font-size="10.00"> CampaignVM &gt;</text>
</a>
</g>
</g>
<!-- Node2&#45;&gt;Node1 -->
<g id="edge1_Node000001_Node000002" class="edge">
<title>Node2&#45;&gt;Node1</title>
<g id="a_edge1_Node000001_Node000002"><a xlink:title=" ">
<path fill="none" stroke="#63b8ff" d="M1004.31,-67.04C1012.58,-66.17 1020.98,-65.28 1029.29,-64.41"/>
<polygon fill="#63b8ff" stroke="#63b8ff" points="1004.23,-63.53 994.65,-68.05 1004.96,-70.49 1004.23,-63.53"/>
</a>
</g>
</g>
<!-- Node3 -->
<g id="Node000003" class="node">
<title>Node3</title>
<g id="a_Node000003"><a xlink:href="../../dd/dd8/class_deluxe_1_1_deluxe_brand_center_1_1_a_m_m_1_1_a_p_i_1_1_services_1_1_named_db_service.html" target="_top" xlink:title=" ">
<polygon fill="white" stroke="#666666" points="676.75,-100 496.5,-100 496.5,-56 676.75,-56 676.75,-100"/>
<text text-anchor="start" x="504.5" y="-86.5" font-family="Helvetica,sans-Serif" font-size="10.00">Deluxe.DeluxeBrandCenter.</text>
<text text-anchor="start" x="504.5" y="-74.5" font-family="Helvetica,sans-Serif" font-size="10.00">AMM.API.Services.NamedDbService</text>
<text text-anchor="middle" x="586.62" y="-62.5" font-family="Helvetica,sans-Serif" font-size="10.00">&lt; TModel, TModelVM &gt;</text>
</a>
</g>
</g>
<!-- Node3&#45;&gt;Node2 -->
<g id="edge2_Node000002_Node000003" class="edge">
<title>Node3&#45;&gt;Node2</title>
<g id="a_edge2_Node000002_Node000003"><a xlink:title=" ">
<path fill="none" stroke="orange" stroke-dasharray="5,2" d="M688.66,-77.39C738.47,-77.08 797.47,-76.73 843.02,-76.45"/>
<polygon fill="orange" stroke="orange" points="688.69,-73.89 678.71,-77.45 688.73,-80.89 688.69,-73.89"/>
</a>
</g>
<text text-anchor="middle" x="760" y="-79.8" font-family="Helvetica,sans-Serif" font-size="10.00" fill="grey"> &lt; Campaign, CampaignVM &gt;</text>
</g>
<!-- Node4 -->
<g id="Node000004" class="node">
<title>Node4</title>
<g id="a_Node000004"><a xlink:href="../../d6/d4e/class_deluxe_1_1_deluxe_brand_center_1_1_a_m_m_1_1_a_p_i_1_1_services_1_1_d_b_service.html" target="_top" xlink:title=" ">
<polygon fill="white" stroke="#666666" points="291.75,-144 185,-144 185,-112 291.75,-112 291.75,-144"/>
<text text-anchor="start" x="193" y="-130.5" font-family="Helvetica,sans-Serif" font-size="10.00">DBService&lt; TModel,</text>
<text text-anchor="middle" x="238.38" y="-118.5" font-family="Helvetica,sans-Serif" font-size="10.00"> TModelVM &gt;</text>
</a>
</g>
</g>
<!-- Node4&#45;&gt;Node3 -->
<g id="edge3_Node000003_Node000004" class="edge">
<title>Node4&#45;&gt;Node3</title>
<g id="a_edge3_Node000003_Node000004"><a xlink:title=" ">
<path fill="none" stroke="#63b8ff" d="M303.14,-118.79C357.31,-110.97 435.66,-99.66 496.11,-90.93"/>
<polygon fill="#63b8ff" stroke="#63b8ff" points="302.86,-115.3 293.46,-120.19 303.86,-122.22 302.86,-115.3"/>
</a>
</g>
</g>
<!-- Node5 -->
<g id="Node000005" class="node">
<title>Node5</title>
<g id="a_Node000005"><a xlink:href="../../d3/ddb/interface_deluxe_1_1_deluxe_brand_center_1_1_a_m_m_1_1_a_p_i_1_1_services_1_1_i_d_b_service.html" target="_top" xlink:title=" ">
<polygon fill="white" stroke="#666666" points="109.75,-94 0,-94 0,-62 109.75,-62 109.75,-94"/>
<text text-anchor="start" x="8" y="-80.5" font-family="Helvetica,sans-Serif" font-size="10.00">IDBService&lt; TModel,</text>
<text text-anchor="middle" x="54.88" y="-68.5" font-family="Helvetica,sans-Serif" font-size="10.00"> TModelVM &gt;</text>
</a>
</g>
</g>
<!-- Node5&#45;&gt;Node4 -->
<g id="edge4_Node000004_Node000005" class="edge">
<title>Node5&#45;&gt;Node4</title>
<g id="a_edge4_Node000004_Node000005"><a xlink:title=" ">
<path fill="none" stroke="#63b8ff" d="M120.88,-95.91C141.77,-101.66 164.65,-107.97 184.56,-113.45"/>
<polygon fill="#63b8ff" stroke="#63b8ff" points="121.87,-92.55 111.3,-93.27 120.01,-99.3 121.87,-92.55"/>
</a>
</g>
</g>
<!-- Node6 -->
<g id="Node000006" class="node">
<title>Node6</title>
<g id="a_Node000006"><a xlink:href="../../d3/dac/interface_deluxe_1_1_deluxe_brand_center_1_1_a_m_m_1_1_a_p_i_1_1_services_1_1_i_named_db_service.html" target="_top" xlink:title=" ">
<polygon fill="white" stroke="#666666" points="308.25,-94 168.5,-94 168.5,-62 308.25,-62 308.25,-94"/>
<text text-anchor="start" x="176.5" y="-80.5" font-family="Helvetica,sans-Serif" font-size="10.00">INamedDbService&lt; TModel,</text>
<text text-anchor="middle" x="238.38" y="-68.5" font-family="Helvetica,sans-Serif" font-size="10.00"> TModelVM &gt;</text>
</a>
</g>
</g>
<!-- Node5&#45;&gt;Node6 -->
<g id="edge6_Node000006_Node000005" class="edge">
<title>Node5&#45;&gt;Node6</title>
<g id="a_edge6_Node000006_Node000005"><a xlink:title=" ">
<path fill="none" stroke="#63b8ff" d="M121.25,-78C136.47,-78 152.73,-78 168.12,-78"/>
<polygon fill="#63b8ff" stroke="#63b8ff" points="121.35,-74.5 111.35,-78 121.35,-81.5 121.35,-74.5"/>
</a>
</g>
</g>
<!-- Node9 -->
<g id="Node000009" class="node">
<title>Node9</title>
<g id="a_Node000009"><a xlink:href="../../d3/dac/interface_deluxe_1_1_deluxe_brand_center_1_1_a_m_m_1_1_a_p_i_1_1_services_1_1_i_named_db_service.html" target="_top" xlink:title=" ">
<polygon fill="white" stroke="#666666" points="330,-44 146.75,-44 146.75,0 330,0 330,-44"/>
<text text-anchor="start" x="154.75" y="-30.5" font-family="Helvetica,sans-Serif" font-size="10.00">Deluxe.DeluxeBrandCenter.</text>
<text text-anchor="start" x="154.75" y="-18.5" font-family="Helvetica,sans-Serif" font-size="10.00">AMM.API.Services.INamedDbService</text>
<text text-anchor="middle" x="238.38" y="-6.5" font-family="Helvetica,sans-Serif" font-size="10.00">&lt; TModel, TModelVM &gt;</text>
</a>
</g>
</g>
<!-- Node5&#45;&gt;Node9 -->
<g id="edge10_Node000009_Node000005" class="edge">
<title>Node5&#45;&gt;Node9</title>
<g id="a_edge10_Node000009_Node000005"><a xlink:title=" ">
<path fill="none" stroke="#63b8ff" d="M120.17,-58.16C134.61,-53.71 150.03,-48.95 164.78,-44.4"/>
<polygon fill="#63b8ff" stroke="#63b8ff" points="119.32,-54.76 110.8,-61.05 121.38,-61.45 119.32,-54.76"/>
</a>
</g>
</g>
<!-- Node6&#45;&gt;Node3 -->
<g id="edge5_Node000003_Node000006" class="edge">
<title>Node6&#45;&gt;Node3</title>
<g id="a_edge5_Node000003_Node000006"><a xlink:title=" ">
<path fill="none" stroke="#63b8ff" d="M319.95,-78C372.69,-78 441.66,-78 496.11,-78"/>
<polygon fill="#63b8ff" stroke="#63b8ff" points="320.13,-74.5 310.13,-78 320.13,-81.5 320.13,-74.5"/>
</a>
</g>
</g>
<!-- Node7 -->
<g id="Node000007" class="node">
<title>Node7</title>
<g id="a_Node000007"><a xlink:href="../../d7/d95/interface_deluxe_1_1_deluxe_brand_center_1_1_a_m_m_1_1_a_p_i_1_1_services_1_1_i_campaign_service.html" target="_top" xlink:title=" ">
<polygon fill="white" stroke="#666666" points="966.12,-41 869.88,-41 869.88,-21 966.12,-21 966.12,-41"/>
<text text-anchor="middle" x="918" y="-27.5" font-family="Helvetica,sans-Serif" font-size="10.00">ICampaignService</text>
</a>
</g>
</g>
<!-- Node7&#45;&gt;Node1 -->
<g id="edge7_Node000001_Node000007" class="edge">
<title>Node7&#45;&gt;Node1</title>
<g id="a_edge7_Node000001_Node000007"><a xlink:title=" ">
<path fill="none" stroke="#63b8ff" d="M978.01,-38.09C994.12,-40.02 1011.93,-42.16 1029.32,-44.25"/>
<polygon fill="#63b8ff" stroke="#63b8ff" points="978.47,-34.62 968.12,-36.9 977.64,-41.57 978.47,-34.62"/>
</a>
</g>
</g>
<!-- Node8 -->
<g id="Node000008" class="node">
<title>Node8</title>
<g id="a_Node000008"><a xlink:href="../../d3/dac/interface_deluxe_1_1_deluxe_brand_center_1_1_a_m_m_1_1_a_p_i_1_1_services_1_1_i_named_db_service.html" target="_top" xlink:title=" ">
<polygon fill="white" stroke="#666666" points="662.88,-38 510.38,-38 510.38,-6 662.88,-6 662.88,-38"/>
<text text-anchor="start" x="518.38" y="-24.5" font-family="Helvetica,sans-Serif" font-size="10.00">INamedDbService&lt; Campaign,</text>
<text text-anchor="middle" x="586.62" y="-12.5" font-family="Helvetica,sans-Serif" font-size="10.00"> CampaignVM &gt;</text>
</a>
</g>
</g>
<!-- Node8&#45;&gt;Node7 -->
<g id="edge8_Node000007_Node000008" class="edge">
<title>Node8&#45;&gt;Node7</title>
<g id="a_edge8_Node000007_Node000008"><a xlink:title=" ">
<path fill="none" stroke="#63b8ff" d="M674.62,-24.38C737.13,-26.09 819,-28.32 869.79,-29.71"/>
<polygon fill="#63b8ff" stroke="#63b8ff" points="674.8,-20.88 664.7,-24.11 674.6,-27.88 674.8,-20.88"/>
</a>
</g>
</g>
<!-- Node9&#45;&gt;Node8 -->
<g id="edge9_Node000008_Node000009" class="edge">
<title>Node9&#45;&gt;Node8</title>
<g id="a_edge9_Node000008_Node000009"><a xlink:title=" ">
<path fill="none" stroke="orange" stroke-dasharray="5,2" d="M341.69,-22C395.69,-22 460.79,-22 510.16,-22"/>
<polygon fill="orange" stroke="orange" points="341.86,-18.5 331.86,-22 341.86,-25.5 341.86,-18.5"/>
</a>
</g>
<text text-anchor="middle" x="413.25" y="-24.5" font-family="Helvetica,sans-Serif" font-size="10.00" fill="grey"> &lt; Campaign, CampaignVM &gt;</text>
</g>
</g>
</svg>
