<?xml version="1.0" encoding="UTF-8" standalone="no"?>
<!DOCTYPE svg PUBLIC "-//W3C//DTD SVG 1.1//EN"
 "http://www.w3.org/Graphics/SVG/1.1/DTD/svg11.dtd">
<!-- Generated by graphviz version 12.1.1 (20240910.0053)
 -->
<!-- Title: Deluxe.DeluxeBrandCenter.AMM.API.Controllers.RootController.GetJob&lt; T &gt; Pages: 1 -->
<svg width="828pt" height="52pt"
 viewBox="0.00 0.00 828.00 52.00" xmlns="http://www.w3.org/2000/svg" xmlns:xlink="http://www.w3.org/1999/xlink">
<g id="graph0" class="graph" transform="scale(1 1) rotate(0) translate(4 48)">
<title>Deluxe.DeluxeBrandCenter.AMM.API.Controllers.RootController.GetJob&lt; T &gt;</title>
<!-- Node1 -->
<g id="Node000001" class="node">
<title>Node1</title>
<g id="a_Node000001"><a xlink:title=" ">
<polygon fill="#999999" stroke="#666666" points="178,-44 0,-44 0,0 178,0 178,-44"/>
<text text-anchor="start" x="8" y="-30.5" font-family="Helvetica,sans-Serif" font-size="10.00">Deluxe.DeluxeBrandCenter.</text>
<text text-anchor="start" x="8" y="-18.5" font-family="Helvetica,sans-Serif" font-size="10.00">AMM.API.Controllers.RootController.</text>
<text text-anchor="middle" x="89" y="-6.5" font-family="Helvetica,sans-Serif" font-size="10.00">GetJob&lt; T &gt;</text>
</a>
</g>
</g>
<!-- Node2 -->
<g id="Node000002" class="node">
<title>Node2</title>
<g id="a_Node000002"><a xlink:href="../../d0/d53/class_deluxe_1_1_deluxe_brand_center_1_1_a_m_m_1_1_a_p_i_1_1_models_1_1_controller_result.html#aedbea8b3284f4fa00fc470b2b82d4423" target="_top" xlink:title=" ">
<polygon fill="white" stroke="#666666" points="406.25,-38 214,-38 214,-6 406.25,-6 406.25,-38"/>
<text text-anchor="start" x="222" y="-24.5" font-family="Helvetica,sans-Serif" font-size="10.00">Deluxe.DeluxeBrandCenter.</text>
<text text-anchor="middle" x="310.12" y="-12.5" font-family="Helvetica,sans-Serif" font-size="10.00">AMM.API.Models.ControllerResult.From</text>
</a>
</g>
</g>
<!-- Node1&#45;&gt;Node2 -->
<g id="edge1_Node000001_Node000002" class="edge">
<title>Node1&#45;&gt;Node2</title>
<g id="a_edge1_Node000001_Node000002"><a xlink:title=" ">
<path fill="none" stroke="#63b8ff" d="M178.49,-22C186.41,-22 194.47,-22 202.51,-22"/>
<polygon fill="#63b8ff" stroke="#63b8ff" points="202.34,-25.5 212.34,-22 202.34,-18.5 202.34,-25.5"/>
</a>
</g>
</g>
<!-- Node3 -->
<g id="Node000003" class="node">
<title>Node3</title>
<g id="a_Node000003"><a xlink:href="../../d0/d53/class_deluxe_1_1_deluxe_brand_center_1_1_a_m_m_1_1_a_p_i_1_1_models_1_1_controller_result.html#a90968814acadbd1870734f4eb0a71de0" target="_top" xlink:title=" ">
<polygon fill="white" stroke="#666666" points="612,-44 442.25,-44 442.25,0 612,0 612,-44"/>
<text text-anchor="start" x="450.25" y="-30.5" font-family="Helvetica,sans-Serif" font-size="10.00">Deluxe.DeluxeBrandCenter.</text>
<text text-anchor="start" x="450.25" y="-18.5" font-family="Helvetica,sans-Serif" font-size="10.00">AMM.API.Models.ControllerResult.</text>
<text text-anchor="middle" x="527.12" y="-6.5" font-family="Helvetica,sans-Serif" font-size="10.00">ControllerResult</text>
</a>
</g>
</g>
<!-- Node2&#45;&gt;Node3 -->
<g id="edge2_Node000002_Node000003" class="edge">
<title>Node2&#45;&gt;Node3</title>
<g id="a_edge2_Node000002_Node000003"><a xlink:title=" ">
<path fill="none" stroke="#63b8ff" d="M406.68,-22C414.59,-22 422.59,-22 430.5,-22"/>
<polygon fill="#63b8ff" stroke="#63b8ff" points="430.5,-25.5 440.5,-22 430.5,-18.5 430.5,-25.5"/>
</a>
</g>
</g>
<!-- Node4 -->
<g id="Node000004" class="node">
<title>Node4</title>
<g id="a_Node000004"><a xlink:href="../../d0/d53/class_deluxe_1_1_deluxe_brand_center_1_1_a_m_m_1_1_a_p_i_1_1_models_1_1_controller_result.html#a3d8dece2bda1f0cba873ac9778ee8e25" target="_top" xlink:title=" ">
<polygon fill="white" stroke="#666666" points="820,-44 648,-44 648,0 820,0 820,-44"/>
<text text-anchor="start" x="656" y="-30.5" font-family="Helvetica,sans-Serif" font-size="10.00">Deluxe.DeluxeBrandCenter.</text>
<text text-anchor="start" x="656" y="-18.5" font-family="Helvetica,sans-Serif" font-size="10.00">AMM.API.Models.ControllerResult.</text>
<text text-anchor="middle" x="734" y="-6.5" font-family="Helvetica,sans-Serif" font-size="10.00">GetDefaultSuccessHttpStatusCode</text>
</a>
</g>
</g>
<!-- Node3&#45;&gt;Node4 -->
<g id="edge3_Node000003_Node000004" class="edge">
<title>Node3&#45;&gt;Node4</title>
<g id="a_edge3_Node000003_Node000004"><a xlink:title=" ">
<path fill="none" stroke="#63b8ff" d="M612.34,-22C620.29,-22 628.4,-22 636.45,-22"/>
<polygon fill="#63b8ff" stroke="#63b8ff" points="636.27,-25.5 646.27,-22 636.27,-18.5 636.27,-25.5"/>
</a>
</g>
</g>
</g>
</svg>
