<?xml version="1.0" encoding="UTF-8" standalone="no"?>
<!DOCTYPE svg PUBLIC "-//W3C//DTD SVG 1.1//EN"
 "http://www.w3.org/Graphics/SVG/1.1/DTD/svg11.dtd">
<!-- Generated by graphviz version 12.1.1 (20240910.0053)
 -->
<!-- Title: Deluxe.DeluxeBrandCenter.AMM.Infrastructure.Mindfire.IBaseMindfireService Pages: 1 -->
<!--zoomable 424 -->

<svg id="main" version="1.1" xmlns="http://www.w3.org/2000/svg" xmlns:xlink="http://www.w3.org/1999/xlink" xml:space="preserve" onload="init(evt)">

<style type="text/css"><![CDATA[
.node, .edge {opacity: 0.7;}
.node.selected, .edge.selected {opacity: 1;}
.edge:hover path { stroke: red; }
.edge:hover polygon { stroke: red; fill: red; }
]]></style>

<defs>
  <circle id="rim" cx="0" cy="0" r="7"/>
  <circle id="rim2" cx="0" cy="0" r="3.5"/>
  <g id="zoomPlus">
    <use xlink:href="#rim" fill="#404040"><set attributeName="fill" to="#808080" begin="zoomplus.mouseover" end="zoomplus.mouseout"/></use>
    <path d="M-4,0h8M0,-4v8" fill="none" stroke="white" stroke-width="1.5" pointer-events="none"/>
  </g>
  <g id="zoomMin">
    <use xlink:href="#rim" fill="#404040"><set attributeName="fill" to="#808080" begin="zoomminus.mouseover" end="zoomminus.mouseout"/></use>
    <path d="M-4,0h8" fill="none" stroke="white" stroke-width="1.5" pointer-events="none"/>
  </g>
  <g id="arrowUp" transform="translate(30 24)">
    <use xlink:href="#rim"/>
    <path pointer-events="none" fill="none" stroke="white" stroke-width="1.5" d="M0,-3.0v7 M-2.5,-0.5L0,-3.0L2.5,-0.5"/>
  </g>
  <g id="arrowRight" transform="rotate(90) translate(36 -43)">
    <use xlink:href="#rim"/>
    <path pointer-events="none" fill="none" stroke="white" stroke-width="1.5" d="M0,-3.0v7 M-2.5,-0.5L0,-3.0L2.5,-0.5"/>
  </g>
  <g id="arrowDown" transform="rotate(180) translate(-30 -48)">
    <use xlink:href="#rim"/>
    <path pointer-events="none" fill="none" stroke="white" stroke-width="1.5" d="M0,-3.0v7 M-2.5,-0.5L0,-3.0L2.5,-0.5"/>
  </g>
  <g id="arrowLeft" transform="rotate(270) translate(-36 17)">
    <use xlink:href="#rim"/>
    <path pointer-events="none" fill="none" stroke="white" stroke-width="1.5" d="M0,-3.0v7 M-2.5,-0.5L0,-3.0L2.5,-0.5"/>
  </g>
  <g id="resetDef">
    <use xlink:href="#rim2" fill="#404040"><set attributeName="fill" to="#808080" begin="reset.mouseover" end="reset.mouseout"/></use>
  </g>
</defs>
<script type="application/ecmascript">
var viewWidth = 646;
var viewHeight = 424;
var sectionId = 'dynsection-0';
</script>
<script type="application/ecmascript" xlink:href="../../svg.min.js"/>
<svg id="graph" class="graph">
<g id="viewport">
<title>Deluxe.DeluxeBrandCenter.AMM.Infrastructure.Mindfire.IBaseMindfireService</title>
<!-- Node1 -->
<g id="Node000001" class="node">
<title>Node1</title>
<g id="a_Node000001"><a xlink:title=" ">
<polygon fill="#999999" stroke="#666666" points="166,-230 0,-230 0,-186 166,-186 166,-230"/>
<text text-anchor="start" x="8" y="-216.5" font-family="Helvetica,sans-Serif" font-size="10.00">Deluxe.DeluxeBrandCenter.</text>
<text text-anchor="start" x="8" y="-204.5" font-family="Helvetica,sans-Serif" font-size="10.00">AMM.Infrastructure.Mindfire.IBase</text>
<text text-anchor="middle" x="83" y="-192.5" font-family="Helvetica,sans-Serif" font-size="10.00">MindfireService</text>
</a>
</g>
</g>
<!-- Node2 -->
<g id="Node000002" class="node">
<title>Node2</title>
<g id="a_Node000002"><a xlink:href="../../d7/d00/class_deluxe_1_1_deluxe_brand_center_1_1_a_m_m_1_1_infrastructure_1_1_mindfire_1_1_base_mindfire_service.html" target="_top" xlink:title=" ">
<polygon fill="white" stroke="#666666" points="384.12,-230 221.12,-230 221.12,-186 384.12,-186 384.12,-230"/>
<text text-anchor="start" x="229.12" y="-216.5" font-family="Helvetica,sans-Serif" font-size="10.00">Deluxe.DeluxeBrandCenter.</text>
<text text-anchor="start" x="229.12" y="-204.5" font-family="Helvetica,sans-Serif" font-size="10.00">AMM.Infrastructure.Mindfire.Base</text>
<text text-anchor="middle" x="302.62" y="-192.5" font-family="Helvetica,sans-Serif" font-size="10.00">MindfireService</text>
</a>
</g>
</g>
<!-- Node1&#45;&gt;Node2 -->
<g id="edge1_Node000001_Node000002" class="edge">
<title>Node1&#45;&gt;Node2</title>
<g id="a_edge1_Node000001_Node000002"><a xlink:title=" ">
<path fill="none" stroke="#63b8ff" d="M177.66,-208C191.98,-208 206.66,-208 220.68,-208"/>
<polygon fill="#63b8ff" stroke="#63b8ff" points="177.79,-204.5 167.79,-208 177.79,-211.5 177.79,-204.5"/>
</a>
</g>
</g>
<!-- Node9 -->
<g id="Node000009" class="node">
<title>Node9</title>
<g id="a_Node000009"><a xlink:href="../../d2/df2/interface_deluxe_1_1_deluxe_brand_center_1_1_a_m_m_1_1_infrastructure_1_1_mindfire_1_1_i_account_service_m_f.html" target="_top" xlink:title=" ">
<polygon fill="white" stroke="#666666" points="392.38,-416 212.88,-416 212.88,-372 392.38,-372 392.38,-416"/>
<text text-anchor="start" x="220.88" y="-402.5" font-family="Helvetica,sans-Serif" font-size="10.00">Deluxe.DeluxeBrandCenter.</text>
<text text-anchor="start" x="220.88" y="-390.5" font-family="Helvetica,sans-Serif" font-size="10.00">AMM.Infrastructure.Mindfire.IAccount</text>
<text text-anchor="middle" x="302.62" y="-378.5" font-family="Helvetica,sans-Serif" font-size="10.00">ServiceMF</text>
</a>
</g>
</g>
<!-- Node1&#45;&gt;Node9 -->
<g id="edge8_Node000001_Node000009" class="edge">
<title>Node1&#45;&gt;Node9</title>
<g id="a_edge8_Node000001_Node000009"><a xlink:title=" ">
<path fill="none" stroke="#63b8ff" d="M100.41,-240C120,-275.12 155.98,-330.78 202,-363 206.6,-366.22 211.55,-369.12 216.69,-371.72"/>
<polygon fill="#63b8ff" stroke="#63b8ff" points="103.68,-238.67 95.82,-231.57 97.53,-242.02 103.68,-238.67"/>
</a>
</g>
</g>
<!-- Node10 -->
<g id="Node000010" class="node">
<title>Node10</title>
<g id="a_Node000010"><a xlink:href="../../dd/d2f/interface_deluxe_1_1_deluxe_brand_center_1_1_a_m_m_1_1_infrastructure_1_1_mindfire_1_1_i_configuration_service_m_f.html" target="_top" xlink:title=" ">
<polygon fill="white" stroke="#666666" points="403.25,-354 202,-354 202,-310 403.25,-310 403.25,-354"/>
<text text-anchor="start" x="210" y="-340.5" font-family="Helvetica,sans-Serif" font-size="10.00">Deluxe.DeluxeBrandCenter.</text>
<text text-anchor="start" x="210" y="-328.5" font-family="Helvetica,sans-Serif" font-size="10.00">AMM.Infrastructure.Mindfire.IConfiguration</text>
<text text-anchor="middle" x="302.62" y="-316.5" font-family="Helvetica,sans-Serif" font-size="10.00">ServiceMF</text>
</a>
</g>
</g>
<!-- Node1&#45;&gt;Node10 -->
<g id="edge10_Node000001_Node000010" class="edge">
<title>Node1&#45;&gt;Node10</title>
<g id="a_edge10_Node000001_Node000010"><a xlink:title=" ">
<path fill="none" stroke="#63b8ff" d="M115.5,-238.11C138.07,-258.29 170.01,-284.16 202,-301 207.85,-304.08 214.06,-306.91 220.4,-309.5"/>
<polygon fill="#63b8ff" stroke="#63b8ff" points="117.91,-235.57 108.15,-231.43 113.2,-240.74 117.91,-235.57"/>
</a>
</g>
</g>
<!-- Node11 -->
<g id="Node000011" class="node">
<title>Node11</title>
<g id="a_Node000011"><a xlink:href="../../dc/d23/interface_deluxe_1_1_deluxe_brand_center_1_1_a_m_m_1_1_infrastructure_1_1_mindfire_1_1_i_contact_service_m_f.html" target="_top" xlink:title=" ">
<polygon fill="white" stroke="#666666" points="391.62,-292 213.62,-292 213.62,-248 391.62,-248 391.62,-292"/>
<text text-anchor="start" x="221.62" y="-278.5" font-family="Helvetica,sans-Serif" font-size="10.00">Deluxe.DeluxeBrandCenter.</text>
<text text-anchor="start" x="221.62" y="-266.5" font-family="Helvetica,sans-Serif" font-size="10.00">AMM.Infrastructure.Mindfire.IContact</text>
<text text-anchor="middle" x="302.62" y="-254.5" font-family="Helvetica,sans-Serif" font-size="10.00">ServiceMF</text>
</a>
</g>
</g>
<!-- Node1&#45;&gt;Node11 -->
<g id="edge12_Node000001_Node000011" class="edge">
<title>Node1&#45;&gt;Node11</title>
<g id="a_edge12_Node000001_Node000011"><a xlink:title=" ">
<path fill="none" stroke="#63b8ff" d="M173.49,-233.49C189.79,-238.14 206.68,-242.95 222.65,-247.5"/>
<polygon fill="#63b8ff" stroke="#63b8ff" points="174.91,-230.26 164.33,-230.89 172.99,-236.99 174.91,-230.26"/>
</a>
</g>
</g>
<!-- Node12 -->
<g id="Node000012" class="node">
<title>Node12</title>
<g id="a_Node000012"><a xlink:href="../../da/d66/interface_deluxe_1_1_deluxe_brand_center_1_1_a_m_m_1_1_infrastructure_1_1_mindfire_1_1_i_program_service_m_f.html" target="_top" xlink:title=" ">
<polygon fill="white" stroke="#666666" points="392.75,-168 212.5,-168 212.5,-124 392.75,-124 392.75,-168"/>
<text text-anchor="start" x="220.5" y="-154.5" font-family="Helvetica,sans-Serif" font-size="10.00">Deluxe.DeluxeBrandCenter.</text>
<text text-anchor="start" x="220.5" y="-142.5" font-family="Helvetica,sans-Serif" font-size="10.00">AMM.Infrastructure.Mindfire.IProgram</text>
<text text-anchor="middle" x="302.62" y="-130.5" font-family="Helvetica,sans-Serif" font-size="10.00">ServiceMF</text>
</a>
</g>
</g>
<!-- Node1&#45;&gt;Node12 -->
<g id="edge14_Node000001_Node000012" class="edge">
<title>Node1&#45;&gt;Node12</title>
<g id="a_edge14_Node000001_Node000012"><a xlink:title=" ">
<path fill="none" stroke="#63b8ff" d="M173.49,-182.51C189.79,-177.86 206.68,-173.05 222.65,-168.5"/>
<polygon fill="#63b8ff" stroke="#63b8ff" points="172.99,-179.01 164.33,-185.11 174.91,-185.74 172.99,-179.01"/>
</a>
</g>
</g>
<!-- Node13 -->
<g id="Node000013" class="node">
<title>Node13</title>
<g id="a_Node000013"><a xlink:href="../../da/d26/interface_deluxe_1_1_deluxe_brand_center_1_1_a_m_m_1_1_infrastructure_1_1_mindfire_1_1_i_report_service_m_f.html" target="_top" xlink:title=" ">
<polygon fill="white" stroke="#666666" points="389,-106 216.25,-106 216.25,-62 389,-62 389,-106"/>
<text text-anchor="start" x="224.25" y="-92.5" font-family="Helvetica,sans-Serif" font-size="10.00">Deluxe.DeluxeBrandCenter.</text>
<text text-anchor="start" x="224.25" y="-80.5" font-family="Helvetica,sans-Serif" font-size="10.00">AMM.Infrastructure.Mindfire.IReport</text>
<text text-anchor="middle" x="302.62" y="-68.5" font-family="Helvetica,sans-Serif" font-size="10.00">ServiceMF</text>
</a>
</g>
</g>
<!-- Node1&#45;&gt;Node13 -->
<g id="edge16_Node000001_Node000013" class="edge">
<title>Node1&#45;&gt;Node13</title>
<g id="a_edge16_Node000001_Node000013"><a xlink:title=" ">
<path fill="none" stroke="#63b8ff" d="M115.5,-177.89C138.07,-157.71 170.01,-131.84 202,-115 207.85,-111.92 214.06,-109.09 220.4,-106.5"/>
<polygon fill="#63b8ff" stroke="#63b8ff" points="113.2,-175.26 108.15,-184.57 117.91,-180.43 113.2,-175.26"/>
</a>
</g>
</g>
<!-- Node14 -->
<g id="Node000014" class="node">
<title>Node14</title>
<g id="a_Node000014"><a xlink:href="../../d0/d33/interface_deluxe_1_1_deluxe_brand_center_1_1_a_m_m_1_1_infrastructure_1_1_mindfire_1_1_i_user_service_m_f.html" target="_top" xlink:title=" ">
<polygon fill="white" stroke="#666666" points="384.88,-44 220.38,-44 220.38,0 384.88,0 384.88,-44"/>
<text text-anchor="start" x="228.38" y="-30.5" font-family="Helvetica,sans-Serif" font-size="10.00">Deluxe.DeluxeBrandCenter.</text>
<text text-anchor="start" x="228.38" y="-18.5" font-family="Helvetica,sans-Serif" font-size="10.00">AMM.Infrastructure.Mindfire.IUser</text>
<text text-anchor="middle" x="302.62" y="-6.5" font-family="Helvetica,sans-Serif" font-size="10.00">ServiceMF</text>
</a>
</g>
</g>
<!-- Node1&#45;&gt;Node14 -->
<g id="edge18_Node000001_Node000014" class="edge">
<title>Node1&#45;&gt;Node14</title>
<g id="a_edge18_Node000001_Node000014"><a xlink:title=" ">
<path fill="none" stroke="#63b8ff" d="M100.41,-176C120,-140.88 155.98,-85.22 202,-53 207.56,-49.1 213.64,-45.68 219.95,-42.68"/>
<polygon fill="#63b8ff" stroke="#63b8ff" points="97.53,-173.98 95.82,-184.43 103.68,-177.33 97.53,-173.98"/>
</a>
</g>
</g>
<!-- Node3 -->
<g id="Node000003" class="node">
<title>Node3</title>
<g id="a_Node000003"><a xlink:href="../../df/d7f/class_deluxe_1_1_deluxe_brand_center_1_1_a_m_m_1_1_infrastructure_1_1_mindfire_1_1_account_service_m_f.html" target="_top" xlink:title=" ">
<polygon fill="white" stroke="#666666" points="626.62,-408 450.12,-408 450.12,-364 626.62,-364 626.62,-408"/>
<text text-anchor="start" x="458.12" y="-394.5" font-family="Helvetica,sans-Serif" font-size="10.00">Deluxe.DeluxeBrandCenter.</text>
<text text-anchor="start" x="458.12" y="-382.5" font-family="Helvetica,sans-Serif" font-size="10.00">AMM.Infrastructure.Mindfire.Account</text>
<text text-anchor="middle" x="538.38" y="-370.5" font-family="Helvetica,sans-Serif" font-size="10.00">ServiceMF</text>
</a>
</g>
</g>
<!-- Node2&#45;&gt;Node3 -->
<g id="edge2_Node000002_Node000003" class="edge">
<title>Node2&#45;&gt;Node3</title>
<g id="a_edge2_Node000002_Node000003"><a xlink:title=" ">
<path fill="none" stroke="#63b8ff" d="M393.96,-231.31C397.26,-233.63 400.38,-236.19 403.25,-239 439.38,-274.42 404.5,-310.23 439.25,-347 445.42,-353.53 452.82,-358.99 460.76,-363.55"/>
<polygon fill="#63b8ff" stroke="#63b8ff" points="395.86,-228.37 385.5,-226.14 392.21,-234.34 395.86,-228.37"/>
</a>
</g>
</g>
<!-- Node4 -->
<g id="Node000004" class="node">
<title>Node4</title>
<g id="a_Node000004"><a xlink:href="../../dc/d3c/class_deluxe_1_1_deluxe_brand_center_1_1_a_m_m_1_1_infrastructure_1_1_mindfire_1_1_configuration_service_m_f.html" target="_top" xlink:title=" ">
<polygon fill="white" stroke="#666666" points="637.5,-338 439.25,-338 439.25,-294 637.5,-294 637.5,-338"/>
<text text-anchor="start" x="447.25" y="-324.5" font-family="Helvetica,sans-Serif" font-size="10.00">Deluxe.DeluxeBrandCenter.</text>
<text text-anchor="start" x="447.25" y="-312.5" font-family="Helvetica,sans-Serif" font-size="10.00">AMM.Infrastructure.Mindfire.Configuration</text>
<text text-anchor="middle" x="538.38" y="-300.5" font-family="Helvetica,sans-Serif" font-size="10.00">ServiceMF</text>
</a>
</g>
</g>
<!-- Node2&#45;&gt;Node4 -->
<g id="edge3_Node000002_Node000004" class="edge">
<title>Node2&#45;&gt;Node4</title>
<g id="a_edge3_Node000002_Node000004"><a xlink:title=" ">
<path fill="none" stroke="#63b8ff" d="M394.95,-234.71C397.78,-236.08 400.56,-237.51 403.25,-239 421.72,-249.24 421.53,-258.52 439.25,-270 452.75,-278.74 468.18,-286.78 482.74,-293.6"/>
<polygon fill="#63b8ff" stroke="#63b8ff" points="396.42,-231.53 385.86,-230.62 393.55,-237.91 396.42,-231.53"/>
</a>
</g>
</g>
<!-- Node5 -->
<g id="Node000005" class="node">
<title>Node5</title>
<g id="a_Node000005"><a xlink:href="../../d5/d64/class_deluxe_1_1_deluxe_brand_center_1_1_a_m_m_1_1_infrastructure_1_1_mindfire_1_1_contact_service_m_f.html" target="_top" xlink:title=" ">
<polygon fill="white" stroke="#666666" points="625.88,-261 450.88,-261 450.88,-217 625.88,-217 625.88,-261"/>
<text text-anchor="start" x="458.88" y="-247.5" font-family="Helvetica,sans-Serif" font-size="10.00">Deluxe.DeluxeBrandCenter.</text>
<text text-anchor="start" x="458.88" y="-235.5" font-family="Helvetica,sans-Serif" font-size="10.00">AMM.Infrastructure.Mindfire.Contact</text>
<text text-anchor="middle" x="538.38" y="-223.5" font-family="Helvetica,sans-Serif" font-size="10.00">ServiceMF</text>
</a>
</g>
</g>
<!-- Node2&#45;&gt;Node5 -->
<g id="edge4_Node000002_Node000005" class="edge">
<title>Node2&#45;&gt;Node5</title>
<g id="a_edge4_Node000002_Node000005"><a xlink:title=" ">
<path fill="none" stroke="#63b8ff" d="M395.56,-220.19C413.69,-222.6 432.66,-225.11 450.62,-227.49"/>
<polygon fill="#63b8ff" stroke="#63b8ff" points="396.27,-216.76 385.9,-218.91 395.35,-223.7 396.27,-216.76"/>
</a>
</g>
</g>
<!-- Node6 -->
<g id="Node000006" class="node">
<title>Node6</title>
<g id="a_Node000006"><a xlink:href="../../d2/d75/class_deluxe_1_1_deluxe_brand_center_1_1_a_m_m_1_1_infrastructure_1_1_mindfire_1_1_program_service_m_f.html" target="_top" xlink:title=" ">
<polygon fill="white" stroke="#666666" points="627,-168 449.75,-168 449.75,-124 627,-124 627,-168"/>
<text text-anchor="start" x="457.75" y="-154.5" font-family="Helvetica,sans-Serif" font-size="10.00">Deluxe.DeluxeBrandCenter.</text>
<text text-anchor="start" x="457.75" y="-142.5" font-family="Helvetica,sans-Serif" font-size="10.00">AMM.Infrastructure.Mindfire.Program</text>
<text text-anchor="middle" x="538.38" y="-130.5" font-family="Helvetica,sans-Serif" font-size="10.00">ServiceMF</text>
</a>
</g>
</g>
<!-- Node2&#45;&gt;Node6 -->
<g id="edge5_Node000002_Node000006" class="edge">
<title>Node2&#45;&gt;Node6</title>
<g id="a_edge5_Node000002_Node000006"><a xlink:title=" ">
<path fill="none" stroke="#63b8ff" d="M395.38,-183.66C414.24,-178.66 434.02,-173.41 452.62,-168.48"/>
<polygon fill="#63b8ff" stroke="#63b8ff" points="394.63,-180.24 385.86,-186.19 396.42,-187.01 394.63,-180.24"/>
</a>
</g>
</g>
<!-- Node7 -->
<g id="Node000007" class="node">
<title>Node7</title>
<g id="a_Node000007"><a xlink:href="../../d1/d19/class_deluxe_1_1_deluxe_brand_center_1_1_a_m_m_1_1_infrastructure_1_1_mindfire_1_1_report_service_m_f.html" target="_top" xlink:title=" ">
<polygon fill="white" stroke="#666666" points="623.25,-106 453.5,-106 453.5,-62 623.25,-62 623.25,-106"/>
<text text-anchor="start" x="461.5" y="-92.5" font-family="Helvetica,sans-Serif" font-size="10.00">Deluxe.DeluxeBrandCenter.</text>
<text text-anchor="start" x="461.5" y="-80.5" font-family="Helvetica,sans-Serif" font-size="10.00">AMM.Infrastructure.Mindfire.Report</text>
<text text-anchor="middle" x="538.38" y="-68.5" font-family="Helvetica,sans-Serif" font-size="10.00">ServiceMF</text>
</a>
</g>
</g>
<!-- Node2&#45;&gt;Node7 -->
<g id="edge6_Node000002_Node000007" class="edge">
<title>Node2&#45;&gt;Node7</title>
<g id="a_edge6_Node000002_Node000007"><a xlink:title=" ">
<path fill="none" stroke="#63b8ff" d="M394.59,-183.11C397.61,-181.22 400.51,-179.19 403.25,-177 428.16,-157.13 414.38,-134.92 439.25,-115 443.57,-111.54 448.29,-108.46 453.24,-105.72"/>
<polygon fill="#63b8ff" stroke="#63b8ff" points="392.96,-180.02 385.94,-187.94 396.37,-186.13 392.96,-180.02"/>
</a>
</g>
</g>
<!-- Node8 -->
<g id="Node000008" class="node">
<title>Node8</title>
<g id="a_Node000008"><a xlink:href="../../de/da7/class_deluxe_1_1_deluxe_brand_center_1_1_a_m_m_1_1_infrastructure_1_1_mindfire_1_1_user_service_m_f.html" target="_top" xlink:title=" ">
<polygon fill="white" stroke="#666666" points="619.12,-44 457.62,-44 457.62,0 619.12,0 619.12,-44"/>
<text text-anchor="start" x="465.62" y="-30.5" font-family="Helvetica,sans-Serif" font-size="10.00">Deluxe.DeluxeBrandCenter.</text>
<text text-anchor="start" x="465.62" y="-18.5" font-family="Helvetica,sans-Serif" font-size="10.00">AMM.Infrastructure.Mindfire.User</text>
<text text-anchor="middle" x="538.38" y="-6.5" font-family="Helvetica,sans-Serif" font-size="10.00">ServiceMF</text>
</a>
</g>
</g>
<!-- Node2&#45;&gt;Node8 -->
<g id="edge7_Node000002_Node000008" class="edge">
<title>Node2&#45;&gt;Node8</title>
<g id="a_edge7_Node000002_Node000008"><a xlink:title=" ">
<path fill="none" stroke="#63b8ff" d="M394.1,-184.83C397.36,-182.47 400.44,-179.87 403.25,-177 443.44,-136.04 399.15,-94.05 439.25,-53 444.49,-47.63 450.66,-43.19 457.3,-39.52"/>
<polygon fill="#63b8ff" stroke="#63b8ff" points="392.34,-181.8 385.72,-190.07 396.05,-187.74 392.34,-181.8"/>
</a>
</g>
</g>
<!-- Node9&#45;&gt;Node3 -->
<g id="edge9_Node000009_Node000003" class="edge">
<title>Node9&#45;&gt;Node3</title>
<g id="a_edge9_Node000009_Node000003"><a xlink:title=" ">
<path fill="none" stroke="#63b8ff" d="M403.72,-390.57C419.03,-390.05 434.73,-389.51 449.74,-389"/>
<polygon fill="#63b8ff" stroke="#63b8ff" points="404.05,-387.06 394.18,-390.9 404.29,-394.06 404.05,-387.06"/>
</a>
</g>
</g>
<!-- Node10&#45;&gt;Node4 -->
<g id="edge11_Node000010_Node000004" class="edge">
<title>Node10&#45;&gt;Node4</title>
<g id="a_edge11_Node000010_Node000004"><a xlink:title=" ">
<path fill="none" stroke="#63b8ff" d="M414.82,-324.39C422.9,-323.84 431.02,-323.28 439.02,-322.73"/>
<polygon fill="#63b8ff" stroke="#63b8ff" points="414.68,-320.89 404.94,-325.06 415.16,-327.87 414.68,-320.89"/>
</a>
</g>
</g>
<!-- Node11&#45;&gt;Node5 -->
<g id="edge13_Node000011_Node000005" class="edge">
<title>Node11&#45;&gt;Node5</title>
<g id="a_edge13_Node000011_Node000005"><a xlink:title=" ">
<path fill="none" stroke="#63b8ff" d="M403.31,-256.78C418.98,-254.7 435.08,-252.57 450.43,-250.53"/>
<polygon fill="#63b8ff" stroke="#63b8ff" points="402.95,-253.3 393.5,-258.08 403.87,-260.24 402.95,-253.3"/>
</a>
</g>
</g>
<!-- Node12&#45;&gt;Node6 -->
<g id="edge15_Node000012_Node000006" class="edge">
<title>Node12&#45;&gt;Node6</title>
<g id="a_edge15_Node000012_Node000006"><a xlink:title=" ">
<path fill="none" stroke="#63b8ff" d="M404.41,-146C419.45,-146 434.85,-146 449.6,-146"/>
<polygon fill="#63b8ff" stroke="#63b8ff" points="404.51,-142.5 394.51,-146 404.51,-149.5 404.51,-142.5"/>
</a>
</g>
</g>
<!-- Node13&#45;&gt;Node7 -->
<g id="edge17_Node000013_Node000007" class="edge">
<title>Node13&#45;&gt;Node7</title>
<g id="a_edge17_Node000013_Node000007"><a xlink:title=" ">
<path fill="none" stroke="#63b8ff" d="M400.7,-84C418.14,-84 436.19,-84 453.23,-84"/>
<polygon fill="#63b8ff" stroke="#63b8ff" points="400.85,-80.5 390.85,-84 400.85,-87.5 400.85,-80.5"/>
</a>
</g>
</g>
<!-- Node14&#45;&gt;Node8 -->
<g id="edge19_Node000014_Node000008" class="edge">
<title>Node14&#45;&gt;Node8</title>
<g id="a_edge19_Node000014_Node000008"><a xlink:title=" ">
<path fill="none" stroke="#63b8ff" d="M396.46,-22C416.63,-22 437.8,-22 457.42,-22"/>
<polygon fill="#63b8ff" stroke="#63b8ff" points="396.56,-18.5 386.56,-22 396.56,-25.5 396.56,-18.5"/>
</a>
</g>
</g>
</g>
</svg>

<g id="navigator" transform="translate(0 0)" fill="#404254">
  <rect fill="#f2f5e9" fill-opacity="0.5" stroke="#606060" stroke-width=".5" x="0" y="0" width="60" height="60"/>
  <use id="zoomplus" xlink:href="#zoomPlus" x="17" y="9" onmousedown="handleZoom(evt,'in')"/>
  <use id="zoomminus" xlink:href="#zoomMin" x="42" y="9" onmousedown="handleZoom(evt,'out')"/>
  <use id="reset" xlink:href="#resetDef" x="30" y="36" onmousedown="handleReset()"/>
   <use id="arrowup" xlink:href="#arrowUp" x="0" y="0" onmousedown="handlePan(0,-1)"/>
  <use id="arrowright" xlink:href="#arrowRight" x="0" y="0" onmousedown="handlePan(1,0)"/>
  <use id="arrowdown" xlink:href="#arrowDown" x="0" y="0" onmousedown="handlePan(0,1)"/>
  <use id="arrowleft" xlink:href="#arrowLeft" x="0" y="0" onmousedown="handlePan(-1,0)"/>
</g>
<svg viewBox="0 0 15 15" width="100%" height="30px" preserveAspectRatio="xMaxYMin meet">
 <g id="arrow_out" transform="scale(0.3 0.3)">
  <a xlink:href="interface_deluxe_1_1_deluxe_brand_center_1_1_a_m_m_1_1_infrastructure_1_1_mindfire_1_1_i_base_mindfire_service__inherit__graph_org.svg" target="_base">
   <rect id="button" ry="5" rx="5" y="6" x="6" height="38" width="38"
        fill="#f2f5e9" fill-opacity="0.5" stroke="#606060" stroke-width="1.0"/>
   <path id="arrow"
     d="M 11.500037,31.436501 C 11.940474,20.09759 22.043105,11.32322 32.158766,21.979434 L 37.068811,17.246167 C 37.068811,17.246167 37.088388,32 37.088388,32 L 22.160133,31.978069 C 22.160133,31.978069 26.997745,27.140456 26.997745,27.140456 C 18.528582,18.264221 13.291696,25.230495 11.500037,31.436501 z"
     style="fill:#404040;"/>
  </a>
 </g>
</svg>

<style type='text/css'>
<![CDATA[
[data-mouse-over-selected='false'] { opacity: 0.7; }
[data-mouse-over-selected='true']  { opacity: 1.0; }
]]>
</style>
<script type="application/ecmascript"><![CDATA[
document.addEventListener('DOMContentLoaded', (event) => {
  highlightEdges();
  highlightAdjacentNodes();
});
]]></script>
</svg>
