<?xml version="1.0" encoding="UTF-8" standalone="no"?>
<!DOCTYPE svg PUBLIC "-//W3C//DTD SVG 1.1//EN"
 "http://www.w3.org/Graphics/SVG/1.1/DTD/svg11.dtd">
<!-- Generated by graphviz version 12.1.1 (20240910.0053)
 -->
<!-- Title: Deluxe.DeluxeBrandCenter.AMM.API.Services.IPersonaService.Single Pages: 1 -->
<svg width="1523pt" height="413pt"
 viewBox="0.00 0.00 1522.50 413.00" xmlns="http://www.w3.org/2000/svg" xmlns:xlink="http://www.w3.org/1999/xlink">
<g id="graph0" class="graph" transform="scale(1 1) rotate(0) translate(4 409)">
<title>Deluxe.DeluxeBrandCenter.AMM.API.Services.IPersonaService.Single</title>
<!-- Node1 -->
<g id="Node000001" class="node">
<title>Node1</title>
<g id="a_Node000001"><a xlink:title=" ">
<polygon fill="#999999" stroke="#666666" points="1514.5,-230 1336.5,-230 1336.5,-186 1514.5,-186 1514.5,-230"/>
<text text-anchor="start" x="1344.5" y="-216.5" font-family="Helvetica,sans-Serif" font-size="10.00">Deluxe.DeluxeBrandCenter.</text>
<text text-anchor="start" x="1344.5" y="-204.5" font-family="Helvetica,sans-Serif" font-size="10.00">AMM.API.Services.IPersonaService.</text>
<text text-anchor="middle" x="1425.5" y="-192.5" font-family="Helvetica,sans-Serif" font-size="10.00">Single</text>
</a>
</g>
</g>
<!-- Node2 -->
<g id="Node000002" class="node">
<title>Node2</title>
<g id="a_Node000002"><a xlink:href="../../d6/d65/class_deluxe_1_1_deluxe_brand_center_1_1_a_m_m_1_1_a_p_i_1_1_services_1_1_campaign_builder_service.html#a586c0501817a5a833896810a9317d00c" target="_top" xlink:title=" ">
<polygon fill="white" stroke="#666666" points="1060.25,-405 883,-405 883,-361 1060.25,-361 1060.25,-405"/>
<text text-anchor="start" x="891" y="-391.5" font-family="Helvetica,sans-Serif" font-size="10.00">Deluxe.DeluxeBrandCenter.</text>
<text text-anchor="start" x="891" y="-379.5" font-family="Helvetica,sans-Serif" font-size="10.00">AMM.API.Services.CampaignBuilder</text>
<text text-anchor="middle" x="971.62" y="-367.5" font-family="Helvetica,sans-Serif" font-size="10.00">Service.MapEmailElementToXML</text>
</a>
</g>
</g>
<!-- Node1&#45;&gt;Node2 -->
<g id="edge1_Node000001_Node000002" class="edge">
<title>Node1&#45;&gt;Node2</title>
<g id="a_edge1_Node000001_Node000002"><a xlink:title=" ">
<path fill="none" stroke="#63b8ff" d="M1404.15,-239.72C1382.47,-270.61 1345.15,-316.14 1300.5,-339 1225.73,-377.27 1129.38,-386.18 1060.51,-386.78"/>
<polygon fill="#63b8ff" stroke="#63b8ff" points="1407.01,-241.73 1409.77,-231.5 1401.24,-237.78 1407.01,-241.73"/>
</a>
</g>
</g>
<!-- Node7 -->
<g id="Node000007" class="node">
<title>Node7</title>
<g id="a_Node000007"><a xlink:href="../../d6/d65/class_deluxe_1_1_deluxe_brand_center_1_1_a_m_m_1_1_a_p_i_1_1_services_1_1_campaign_builder_service.html#a1ee9d2087d39b6615bb021ac3f84f3f3" target="_top" xlink:title=" ">
<polygon fill="white" stroke="#666666" points="1287,-330 1109.75,-330 1109.75,-286 1287,-286 1287,-330"/>
<text text-anchor="start" x="1117.75" y="-316.5" font-family="Helvetica,sans-Serif" font-size="10.00">Deluxe.DeluxeBrandCenter.</text>
<text text-anchor="start" x="1117.75" y="-304.5" font-family="Helvetica,sans-Serif" font-size="10.00">AMM.API.Services.CampaignBuilder</text>
<text text-anchor="middle" x="1198.38" y="-292.5" font-family="Helvetica,sans-Serif" font-size="10.00">Service.MapScheduleToXML</text>
</a>
</g>
</g>
<!-- Node1&#45;&gt;Node7 -->
<g id="edge7_Node000001_Node000007" class="edge">
<title>Node1&#45;&gt;Node7</title>
<g id="a_edge7_Node000001_Node000007"><a xlink:title=" ">
<path fill="none" stroke="#63b8ff" d="M1374.48,-235.76C1352.17,-247.64 1325.36,-261.22 1300.5,-272 1289.64,-276.71 1277.95,-281.3 1266.5,-285.53"/>
<polygon fill="#63b8ff" stroke="#63b8ff" points="1375.91,-238.97 1383.06,-231.16 1372.6,-232.8 1375.91,-238.97"/>
</a>
</g>
</g>
<!-- Node9 -->
<g id="Node000009" class="node">
<title>Node9</title>
<g id="a_Node000009"><a xlink:href="../../d6/d65/class_deluxe_1_1_deluxe_brand_center_1_1_a_m_m_1_1_a_p_i_1_1_services_1_1_campaign_builder_service.html#af750674ed0f54f17fe4e2987ff7c0a63" target="_top" xlink:title=" ">
<polygon fill="white" stroke="#666666" points="1060.25,-243 883,-243 883,-199 1060.25,-199 1060.25,-243"/>
<text text-anchor="start" x="891" y="-229.5" font-family="Helvetica,sans-Serif" font-size="10.00">Deluxe.DeluxeBrandCenter.</text>
<text text-anchor="start" x="891" y="-217.5" font-family="Helvetica,sans-Serif" font-size="10.00">AMM.API.Services.CampaignBuilder</text>
<text text-anchor="middle" x="971.62" y="-205.5" font-family="Helvetica,sans-Serif" font-size="10.00">Service.MapSocialElementToXML</text>
</a>
</g>
</g>
<!-- Node1&#45;&gt;Node9 -->
<g id="edge11_Node000001_Node000009" class="edge">
<title>Node1&#45;&gt;Node9</title>
<g id="a_edge11_Node000001_Node000009"><a xlink:title=" ">
<path fill="none" stroke="#63b8ff" d="M1335.78,-232.96C1324,-235.45 1312.02,-237.58 1300.5,-239 1210.4,-250.09 1186.79,-245.56 1096.25,-239 1084.68,-238.16 1072.54,-236.89 1060.58,-235.4"/>
<polygon fill="#63b8ff" stroke="#63b8ff" points="1336.51,-236.38 1345.52,-230.79 1335,-229.54 1336.51,-236.38"/>
</a>
</g>
</g>
<!-- Node10 -->
<g id="Node000010" class="node">
<title>Node10</title>
<g id="a_Node000010"><a xlink:href="../../d8/d0b/class_deluxe_1_1_deluxe_brand_center_1_1_a_m_m_1_1_a_p_i_1_1_services_1_1_user_campaign_service.html#a2d5fba3ea8f821e97e4ce3813c7b24b7" target="_top" xlink:title=" ">
<polygon fill="white" stroke="#666666" points="1300.5,-230 1096.25,-230 1096.25,-186 1300.5,-186 1300.5,-230"/>
<text text-anchor="start" x="1104.25" y="-216.5" font-family="Helvetica,sans-Serif" font-size="10.00">Deluxe.DeluxeBrandCenter.</text>
<text text-anchor="start" x="1104.25" y="-204.5" font-family="Helvetica,sans-Serif" font-size="10.00">AMM.API.Services.UserCampaignService.</text>
<text text-anchor="middle" x="1198.38" y="-192.5" font-family="Helvetica,sans-Serif" font-size="10.00">PendingCampaigns</text>
</a>
</g>
</g>
<!-- Node1&#45;&gt;Node10 -->
<g id="edge13_Node000001_Node000010" class="edge">
<title>Node1&#45;&gt;Node10</title>
<g id="a_edge13_Node000001_Node000010"><a xlink:title=" ">
<path fill="none" stroke="#63b8ff" d="M1324.67,-208C1316.77,-208 1308.79,-208 1300.88,-208"/>
<polygon fill="#63b8ff" stroke="#63b8ff" points="1324.66,-211.5 1334.66,-208 1324.66,-204.5 1324.66,-211.5"/>
</a>
</g>
</g>
<!-- Node11 -->
<g id="Node000011" class="node">
<title>Node11</title>
<g id="a_Node000011"><a xlink:href="../../d6/d65/class_deluxe_1_1_deluxe_brand_center_1_1_a_m_m_1_1_a_p_i_1_1_services_1_1_campaign_builder_service.html#abc8ddc1be6dddb6105f94113a7542ea9" target="_top" xlink:title=" ">
<polygon fill="white" stroke="#666666" points="1287,-168 1109.75,-168 1109.75,-124 1287,-124 1287,-168"/>
<text text-anchor="start" x="1117.75" y="-154.5" font-family="Helvetica,sans-Serif" font-size="10.00">Deluxe.DeluxeBrandCenter.</text>
<text text-anchor="start" x="1117.75" y="-142.5" font-family="Helvetica,sans-Serif" font-size="10.00">AMM.API.Services.CampaignBuilder</text>
<text text-anchor="middle" x="1198.38" y="-130.5" font-family="Helvetica,sans-Serif" font-size="10.00">Service.SendTestEmail</text>
</a>
</g>
</g>
<!-- Node1&#45;&gt;Node11 -->
<g id="edge14_Node000001_Node000011" class="edge">
<title>Node1&#45;&gt;Node11</title>
<g id="a_edge14_Node000001_Node000011"><a xlink:title=" ">
<path fill="none" stroke="#63b8ff" d="M1331.93,-182.51C1315.07,-177.86 1297.59,-173.05 1281.07,-168.5"/>
<polygon fill="#63b8ff" stroke="#63b8ff" points="1330.88,-185.85 1341.45,-185.13 1332.74,-179.1 1330.88,-185.85"/>
</a>
</g>
</g>
<!-- Node12 -->
<g id="Node000012" class="node">
<title>Node12</title>
<g id="a_Node000012"><a xlink:href="../../d6/d65/class_deluxe_1_1_deluxe_brand_center_1_1_a_m_m_1_1_a_p_i_1_1_services_1_1_campaign_builder_service.html#a04a2bdc2d02130bbd00f6b00406563d4" target="_top" xlink:title=" ">
<polygon fill="white" stroke="#666666" points="1288.12,-106 1108.62,-106 1108.62,-62 1288.12,-62 1288.12,-106"/>
<text text-anchor="start" x="1116.62" y="-92.5" font-family="Helvetica,sans-Serif" font-size="10.00">Deluxe.DeluxeBrandCenter.</text>
<text text-anchor="start" x="1116.62" y="-80.5" font-family="Helvetica,sans-Serif" font-size="10.00">AMM.API.Services.CampaignBuilder</text>
<text text-anchor="middle" x="1198.38" y="-68.5" font-family="Helvetica,sans-Serif" font-size="10.00">Service.UpdateNameAndContentUrls</text>
</a>
</g>
</g>
<!-- Node1&#45;&gt;Node12 -->
<g id="edge15_Node000001_Node000012" class="edge">
<title>Node1&#45;&gt;Node12</title>
<g id="a_edge15_Node000001_Node000012"><a xlink:title=" ">
<path fill="none" stroke="#63b8ff" d="M1391.48,-178.2C1367.64,-158 1333.89,-131.98 1300.5,-115 1294.44,-111.92 1288.03,-109.08 1281.48,-106.48"/>
<polygon fill="#63b8ff" stroke="#63b8ff" points="1389.1,-180.77 1398.96,-184.64 1393.66,-175.46 1389.1,-180.77"/>
</a>
</g>
</g>
<!-- Node13 -->
<g id="Node000013" class="node">
<title>Node13</title>
<g id="a_Node000013"><a xlink:href="../../d6/d65/class_deluxe_1_1_deluxe_brand_center_1_1_a_m_m_1_1_a_p_i_1_1_services_1_1_campaign_builder_service.html#a494f644e3b419bf8652100d7ece78f2e" target="_top" xlink:title=" ">
<polygon fill="white" stroke="#666666" points="1287,-44 1109.75,-44 1109.75,0 1287,0 1287,-44"/>
<text text-anchor="start" x="1117.75" y="-30.5" font-family="Helvetica,sans-Serif" font-size="10.00">Deluxe.DeluxeBrandCenter.</text>
<text text-anchor="start" x="1117.75" y="-18.5" font-family="Helvetica,sans-Serif" font-size="10.00">AMM.API.Services.CampaignBuilder</text>
<text text-anchor="middle" x="1198.38" y="-6.5" font-family="Helvetica,sans-Serif" font-size="10.00">Service.UpdateUserCampaign</text>
</a>
</g>
</g>
<!-- Node1&#45;&gt;Node13 -->
<g id="edge16_Node000001_Node000013" class="edge">
<title>Node1&#45;&gt;Node13</title>
<g id="a_edge16_Node000001_Node000013"><a xlink:title=" ">
<path fill="none" stroke="#63b8ff" d="M1406.88,-175.98C1385.96,-140.85 1347.85,-85.17 1300.5,-53 1295.87,-49.85 1290.9,-47.02 1285.75,-44.46"/>
<polygon fill="#63b8ff" stroke="#63b8ff" points="1403.75,-177.56 1411.81,-184.44 1409.8,-174.04 1403.75,-177.56"/>
</a>
</g>
</g>
<!-- Node3 -->
<g id="Node000003" class="node">
<title>Node3</title>
<g id="a_Node000003"><a xlink:href="../../d6/d65/class_deluxe_1_1_deluxe_brand_center_1_1_a_m_m_1_1_a_p_i_1_1_services_1_1_campaign_builder_service.html#a9e215d58437e7593cd45bea7ec806076" target="_top" xlink:title=" ">
<polygon fill="white" stroke="#666666" points="847,-330 665.25,-330 665.25,-286 847,-286 847,-330"/>
<text text-anchor="start" x="673.25" y="-316.5" font-family="Helvetica,sans-Serif" font-size="10.00">Deluxe.DeluxeBrandCenter.</text>
<text text-anchor="start" x="673.25" y="-304.5" font-family="Helvetica,sans-Serif" font-size="10.00">AMM.API.Services.CampaignBuilder</text>
<text text-anchor="middle" x="756.12" y="-292.5" font-family="Helvetica,sans-Serif" font-size="10.00">Service.MapCampaignElementToXML</text>
</a>
</g>
</g>
<!-- Node2&#45;&gt;Node3 -->
<g id="edge2_Node000002_Node000003" class="edge">
<title>Node2&#45;&gt;Node3</title>
<g id="a_edge2_Node000002_Node000003"><a xlink:title=" ">
<path fill="none" stroke="#63b8ff" d="M896.15,-356.84C871.63,-348.22 844.59,-338.73 820.93,-330.41"/>
<polygon fill="#63b8ff" stroke="#63b8ff" points="894.83,-360.09 905.43,-360.1 897.15,-353.48 894.83,-360.09"/>
</a>
</g>
</g>
<!-- Node4 -->
<g id="Node000004" class="node">
<title>Node4</title>
<g id="a_Node000004"><a xlink:href="../../d6/d65/class_deluxe_1_1_deluxe_brand_center_1_1_a_m_m_1_1_a_p_i_1_1_services_1_1_campaign_builder_service.html#a6703c8b60de403fb70c7b691d4d7c2a9" target="_top" xlink:title=" ">
<polygon fill="white" stroke="#666666" points="629.25,-330 452,-330 452,-286 629.25,-286 629.25,-330"/>
<text text-anchor="start" x="460" y="-316.5" font-family="Helvetica,sans-Serif" font-size="10.00">Deluxe.DeluxeBrandCenter.</text>
<text text-anchor="start" x="460" y="-304.5" font-family="Helvetica,sans-Serif" font-size="10.00">AMM.API.Services.CampaignBuilder</text>
<text text-anchor="middle" x="540.62" y="-292.5" font-family="Helvetica,sans-Serif" font-size="10.00">Service.MapUserCampaignToXML</text>
</a>
</g>
</g>
<!-- Node3&#45;&gt;Node4 -->
<g id="edge3_Node000003_Node000004" class="edge">
<title>Node3&#45;&gt;Node4</title>
<g id="a_edge3_Node000003_Node000004"><a xlink:title=" ">
<path fill="none" stroke="#63b8ff" d="M653.56,-308C645.52,-308 637.43,-308 629.49,-308"/>
<polygon fill="#63b8ff" stroke="#63b8ff" points="653.38,-311.5 663.38,-308 653.38,-304.5 653.38,-311.5"/>
</a>
</g>
</g>
<!-- Node5 -->
<g id="Node000005" class="node">
<title>Node5</title>
<g id="a_Node000005"><a xlink:href="../../d6/d65/class_deluxe_1_1_deluxe_brand_center_1_1_a_m_m_1_1_a_p_i_1_1_services_1_1_campaign_builder_service.html#ab302b4e7e24055c5859436dea04b8f65" target="_top" xlink:title=" ">
<polygon fill="white" stroke="#666666" points="416,-355 213.25,-355 213.25,-311 416,-311 416,-355"/>
<text text-anchor="start" x="221.25" y="-341.5" font-family="Helvetica,sans-Serif" font-size="10.00">Deluxe.DeluxeBrandCenter.</text>
<text text-anchor="start" x="221.25" y="-329.5" font-family="Helvetica,sans-Serif" font-size="10.00">AMM.API.Services.CampaignBuilder</text>
<text text-anchor="middle" x="314.62" y="-317.5" font-family="Helvetica,sans-Serif" font-size="10.00">Service.LaunchAlreadyLaunchedCampaign</text>
</a>
</g>
</g>
<!-- Node4&#45;&gt;Node5 -->
<g id="edge4_Node000004_Node000005" class="edge">
<title>Node4&#45;&gt;Node5</title>
<g id="a_edge4_Node000004_Node000005"><a xlink:title=" ">
<path fill="none" stroke="#63b8ff" d="M440.45,-319.07C432.42,-319.97 424.29,-320.87 416.25,-321.77"/>
<polygon fill="#63b8ff" stroke="#63b8ff" points="440.68,-322.56 450.23,-317.98 439.91,-315.61 440.68,-322.56"/>
</a>
</g>
</g>
<!-- Node6 -->
<g id="Node000006" class="node">
<title>Node6</title>
<g id="a_Node000006"><a xlink:href="../../d6/d65/class_deluxe_1_1_deluxe_brand_center_1_1_a_m_m_1_1_a_p_i_1_1_services_1_1_campaign_builder_service.html#a947f982ab93bc77b7199c9aa69ae3628" target="_top" xlink:title=" ">
<polygon fill="white" stroke="#666666" points="177.25,-330 0,-330 0,-286 177.25,-286 177.25,-330"/>
<text text-anchor="start" x="8" y="-316.5" font-family="Helvetica,sans-Serif" font-size="10.00">Deluxe.DeluxeBrandCenter.</text>
<text text-anchor="start" x="8" y="-304.5" font-family="Helvetica,sans-Serif" font-size="10.00">AMM.API.Services.CampaignBuilder</text>
<text text-anchor="middle" x="88.62" y="-292.5" font-family="Helvetica,sans-Serif" font-size="10.00">Service.LaunchCampaign</text>
</a>
</g>
</g>
<!-- Node4&#45;&gt;Node6 -->
<g id="edge6_Node000004_Node000006" class="edge">
<title>Node4&#45;&gt;Node6</title>
<g id="a_edge6_Node000004_Node000006"><a xlink:title=" ">
<path fill="none" stroke="#63b8ff" d="M440.02,-302.75C431.9,-302.45 423.81,-302.19 416,-302 325.92,-299.82 303.33,-299.82 213.25,-302 201.76,-302.28 189.67,-302.7 177.74,-303.2"/>
<polygon fill="#63b8ff" stroke="#63b8ff" points="439.87,-306.24 450,-303.14 440.15,-299.25 439.87,-306.24"/>
</a>
</g>
</g>
<!-- Node5&#45;&gt;Node6 -->
<g id="edge5_Node000005_Node000006" class="edge">
<title>Node5&#45;&gt;Node6</title>
<g id="a_edge5_Node000005_Node000006"><a xlink:title=" ">
<path fill="none" stroke="#63b8ff" d="M201.46,-320.48C193.45,-319.59 185.45,-318.69 177.61,-317.82"/>
<polygon fill="#63b8ff" stroke="#63b8ff" points="200.93,-323.94 211.26,-321.58 201.71,-316.99 200.93,-323.94"/>
</a>
</g>
</g>
<!-- Node7&#45;&gt;Node3 -->
<g id="edge8_Node000007_Node000003" class="edge">
<title>Node7&#45;&gt;Node3</title>
<g id="a_edge8_Node000007_Node000003"><a xlink:title=" ">
<path fill="none" stroke="#63b8ff" d="M1098.39,-312.85C1085.56,-313.32 1072.6,-313.73 1060.25,-314 981.49,-315.72 961.76,-315.88 883,-314 871.41,-313.72 859.22,-313.3 847.18,-312.81"/>
<polygon fill="#63b8ff" stroke="#63b8ff" points="1098.24,-316.36 1108.1,-312.47 1097.97,-309.36 1098.24,-316.36"/>
</a>
</g>
</g>
<!-- Node8 -->
<g id="Node000008" class="node">
<title>Node8</title>
<g id="a_Node000008"><a xlink:href="../../d6/d65/class_deluxe_1_1_deluxe_brand_center_1_1_a_m_m_1_1_a_p_i_1_1_services_1_1_campaign_builder_service.html#ae2f681b48d3a471996c14c03a41f153d" target="_top" xlink:title=" ">
<polygon fill="white" stroke="#666666" points="1060.25,-305 883,-305 883,-261 1060.25,-261 1060.25,-305"/>
<text text-anchor="start" x="891" y="-291.5" font-family="Helvetica,sans-Serif" font-size="10.00">Deluxe.DeluxeBrandCenter.</text>
<text text-anchor="start" x="891" y="-279.5" font-family="Helvetica,sans-Serif" font-size="10.00">AMM.API.Services.CampaignBuilder</text>
<text text-anchor="middle" x="971.62" y="-267.5" font-family="Helvetica,sans-Serif" font-size="10.00">Service.MapMicrositeSchedules</text>
</a>
</g>
</g>
<!-- Node7&#45;&gt;Node8 -->
<g id="edge9_Node000007_Node000008" class="edge">
<title>Node7&#45;&gt;Node8</title>
<g id="a_edge9_Node000007_Node000008"><a xlink:title=" ">
<path fill="none" stroke="#63b8ff" d="M1098.08,-296.95C1085.53,-295.56 1072.77,-294.14 1060.42,-292.77"/>
<polygon fill="#63b8ff" stroke="#63b8ff" points="1097.69,-300.43 1108.01,-298.06 1098.46,-293.48 1097.69,-300.43"/>
</a>
</g>
</g>
<!-- Node8&#45;&gt;Node3 -->
<g id="edge10_Node000008_Node000003" class="edge">
<title>Node8&#45;&gt;Node3</title>
<g id="a_edge10_Node000008_Node000003"><a xlink:title=" ">
<path fill="none" stroke="#63b8ff" d="M871.33,-294.63C863.35,-295.56 855.32,-296.5 847.41,-297.43"/>
<polygon fill="#63b8ff" stroke="#63b8ff" points="871.53,-298.13 881.05,-293.49 870.71,-291.18 871.53,-298.13"/>
</a>
</g>
</g>
<!-- Node9&#45;&gt;Node3 -->
<g id="edge12_Node000009_Node000003" class="edge">
<title>Node9&#45;&gt;Node3</title>
<g id="a_edge12_Node000009_Node000003"><a xlink:title=" ">
<path fill="none" stroke="#63b8ff" d="M894.73,-247.43C890.75,-248.95 886.82,-250.48 883,-252 857,-262.36 828.48,-274.95 805.16,-285.56"/>
<polygon fill="#63b8ff" stroke="#63b8ff" points="895.78,-250.78 903.92,-243.99 893.33,-244.22 895.78,-250.78"/>
</a>
</g>
</g>
<!-- Node14 -->
<g id="Node000014" class="node">
<title>Node14</title>
<g id="a_Node000014"><a xlink:href="../../d6/d65/class_deluxe_1_1_deluxe_brand_center_1_1_a_m_m_1_1_a_p_i_1_1_services_1_1_campaign_builder_service.html#ab467537fb4f9a8ae0c85d2f0bc74e2e9" target="_top" xlink:title=" ">
<polygon fill="white" stroke="#666666" points="1060.25,-44 883,-44 883,0 1060.25,0 1060.25,-44"/>
<text text-anchor="start" x="891" y="-30.5" font-family="Helvetica,sans-Serif" font-size="10.00">Deluxe.DeluxeBrandCenter.</text>
<text text-anchor="start" x="891" y="-18.5" font-family="Helvetica,sans-Serif" font-size="10.00">AMM.API.Services.CampaignBuilder</text>
<text text-anchor="middle" x="971.62" y="-6.5" font-family="Helvetica,sans-Serif" font-size="10.00">Service.SaveCampaign</text>
</a>
</g>
</g>
<!-- Node13&#45;&gt;Node14 -->
<g id="edge17_Node000013_Node000014" class="edge">
<title>Node13&#45;&gt;Node14</title>
<g id="a_edge17_Node000013_Node000014"><a xlink:title=" ">
<path fill="none" stroke="#63b8ff" d="M1098.08,-22C1085.53,-22 1072.77,-22 1060.42,-22"/>
<polygon fill="#63b8ff" stroke="#63b8ff" points="1098,-25.5 1108,-22 1098,-18.5 1098,-25.5"/>
</a>
</g>
</g>
</g>
</svg>
