<?xml version="1.0" encoding="UTF-8" standalone="no"?>
<!DOCTYPE svg PUBLIC "-//W3C//DTD SVG 1.1//EN"
 "http://www.w3.org/Graphics/SVG/1.1/DTD/svg11.dtd">
<!-- Generated by graphviz version 12.1.1 (20240910.0053)
 -->
<!-- Title: Deluxe.DeluxeBrandCenter.AMM.API.Services.IMindfireService.SetUserCredentials Pages: 1 -->
<svg width="612pt" height="362pt"
 viewBox="0.00 0.00 611.75 362.00" xmlns="http://www.w3.org/2000/svg" xmlns:xlink="http://www.w3.org/1999/xlink">
<g id="graph0" class="graph" transform="scale(1 1) rotate(0) translate(4 358)">
<title>Deluxe.DeluxeBrandCenter.AMM.API.Services.IMindfireService.SetUserCredentials</title>
<!-- Node1 -->
<g id="Node000001" class="node">
<title>Node1</title>
<g id="a_Node000001"><a xlink:title=" ">
<polygon fill="#999999" stroke="#666666" points="603.75,-199 427.25,-199 427.25,-155 603.75,-155 603.75,-199"/>
<text text-anchor="start" x="435.25" y="-185.5" font-family="Helvetica,sans-Serif" font-size="10.00">Deluxe.DeluxeBrandCenter.</text>
<text text-anchor="start" x="435.25" y="-173.5" font-family="Helvetica,sans-Serif" font-size="10.00">AMM.API.Services.IMindfireService.</text>
<text text-anchor="middle" x="515.5" y="-161.5" font-family="Helvetica,sans-Serif" font-size="10.00">SetUserCredentials</text>
</a>
</g>
</g>
<!-- Node2 -->
<g id="Node000002" class="node">
<title>Node2</title>
<g id="a_Node000002"><a xlink:href="../../de/d34/class_deluxe_1_1_deluxe_brand_center_1_1_a_m_m_1_1_script_runner_1_1_services_1_1_scripts_1_1_sync_campaign_element_metadata.html#a2dc07ce280c82cbd08cb77a581c9af0e" target="_top" xlink:title=" ">
<polygon fill="white" stroke="#666666" points="391.25,-354 211,-354 211,-310 391.25,-310 391.25,-354"/>
<text text-anchor="start" x="219" y="-340.5" font-family="Helvetica,sans-Serif" font-size="10.00">Deluxe.DeluxeBrandCenter.</text>
<text text-anchor="start" x="219" y="-328.5" font-family="Helvetica,sans-Serif" font-size="10.00">AMM.ScriptRunner.Services.Scripts.</text>
<text text-anchor="middle" x="301.12" y="-316.5" font-family="Helvetica,sans-Serif" font-size="10.00">SyncCampaignElementMetadata.Run</text>
</a>
</g>
</g>
<!-- Node1&#45;&gt;Node2 -->
<g id="edge1_Node000001_Node000002" class="edge">
<title>Node1&#45;&gt;Node2</title>
<g id="a_edge1_Node000001_Node000002"><a xlink:title=" ">
<path fill="none" stroke="#63b8ff" d="M490.47,-208.23C467.63,-236.02 430.95,-276.02 391.25,-301 386.26,-304.14 380.91,-307.01 375.4,-309.63"/>
<polygon fill="#63b8ff" stroke="#63b8ff" points="493.16,-210.47 496.72,-200.49 487.72,-206.07 493.16,-210.47"/>
</a>
</g>
</g>
<!-- Node3 -->
<g id="Node000003" class="node">
<title>Node3</title>
<g id="a_Node000003"><a xlink:href="../../db/d64/class_deluxe_1_1_deluxe_brand_center_1_1_a_m_m_1_1_script_runner_1_1_services_1_1_scripts_1_1_sync_campaign_with_persona.html#a66c0a549986cd95034673dce0a592cc9" target="_top" xlink:title=" ">
<polygon fill="white" stroke="#666666" points="389.75,-292 212.5,-292 212.5,-248 389.75,-248 389.75,-292"/>
<text text-anchor="start" x="220.5" y="-278.5" font-family="Helvetica,sans-Serif" font-size="10.00">Deluxe.DeluxeBrandCenter.</text>
<text text-anchor="start" x="220.5" y="-266.5" font-family="Helvetica,sans-Serif" font-size="10.00">AMM.ScriptRunner.Services.Scripts.</text>
<text text-anchor="middle" x="301.12" y="-254.5" font-family="Helvetica,sans-Serif" font-size="10.00">SyncCampaignWithPersona.Run</text>
</a>
</g>
</g>
<!-- Node1&#45;&gt;Node3 -->
<g id="edge2_Node000001_Node000003" class="edge">
<title>Node1&#45;&gt;Node3</title>
<g id="a_edge2_Node000001_Node000003"><a xlink:title=" ">
<path fill="none" stroke="#63b8ff" d="M463.16,-204.72C441.3,-216.02 415.34,-228.8 391.25,-239 384.31,-241.94 376.99,-244.82 369.64,-247.57"/>
<polygon fill="#63b8ff" stroke="#63b8ff" points="464.62,-207.91 471.87,-200.18 461.39,-201.7 464.62,-207.91"/>
</a>
</g>
</g>
<!-- Node4 -->
<g id="Node000004" class="node">
<title>Node4</title>
<g id="a_Node000004"><a xlink:href="../../d5/dd8/class_deluxe_1_1_deluxe_brand_center_1_1_a_m_m_1_1_script_runner_1_1_services_1_1_scripts_1_1_update_billing_codes.html#a9f558c64bc2ce711e63fdb8471f846dd" target="_top" xlink:title=" ">
<polygon fill="white" stroke="#666666" points="389.75,-230 212.5,-230 212.5,-186 389.75,-186 389.75,-230"/>
<text text-anchor="start" x="220.5" y="-216.5" font-family="Helvetica,sans-Serif" font-size="10.00">Deluxe.DeluxeBrandCenter.</text>
<text text-anchor="start" x="220.5" y="-204.5" font-family="Helvetica,sans-Serif" font-size="10.00">AMM.ScriptRunner.Services.Scripts.</text>
<text text-anchor="middle" x="301.12" y="-192.5" font-family="Helvetica,sans-Serif" font-size="10.00">UpdateBillingCodes.Run</text>
</a>
</g>
</g>
<!-- Node1&#45;&gt;Node4 -->
<g id="edge3_Node000001_Node000004" class="edge">
<title>Node1&#45;&gt;Node4</title>
<g id="a_edge3_Node000001_Node000004"><a xlink:title=" ">
<path fill="none" stroke="#63b8ff" d="M415.75,-191.41C407.23,-192.66 398.64,-193.91 390.22,-195.14"/>
<polygon fill="#63b8ff" stroke="#63b8ff" points="416.01,-194.91 425.4,-190.01 414.99,-187.99 416.01,-194.91"/>
</a>
</g>
</g>
<!-- Node5 -->
<g id="Node000005" class="node">
<title>Node5</title>
<g id="a_Node000005"><a xlink:href="../../da/d5b/class_deluxe_1_1_deluxe_brand_center_1_1_a_m_m_1_1_script_runner_1_1_services_1_1_scripts_1_1_update_recurring_schedules.html#a312e788a76f2d0d5e65fcc363d93d5f1" target="_top" xlink:title=" ">
<polygon fill="white" stroke="#666666" points="389.75,-168 212.5,-168 212.5,-124 389.75,-124 389.75,-168"/>
<text text-anchor="start" x="220.5" y="-154.5" font-family="Helvetica,sans-Serif" font-size="10.00">Deluxe.DeluxeBrandCenter.</text>
<text text-anchor="start" x="220.5" y="-142.5" font-family="Helvetica,sans-Serif" font-size="10.00">AMM.ScriptRunner.Services.Scripts.</text>
<text text-anchor="middle" x="301.12" y="-130.5" font-family="Helvetica,sans-Serif" font-size="10.00">UpdateRecurringSchedules.Run</text>
</a>
</g>
</g>
<!-- Node1&#45;&gt;Node5 -->
<g id="edge4_Node000001_Node000005" class="edge">
<title>Node1&#45;&gt;Node5</title>
<g id="a_edge4_Node000001_Node000005"><a xlink:title=" ">
<path fill="none" stroke="#63b8ff" d="M415.75,-162.59C407.23,-161.34 398.64,-160.09 390.22,-158.86"/>
<polygon fill="#63b8ff" stroke="#63b8ff" points="414.99,-166.01 425.4,-163.99 416.01,-159.09 414.99,-166.01"/>
</a>
</g>
</g>
<!-- Node6 -->
<g id="Node000006" class="node">
<title>Node6</title>
<g id="a_Node000006"><a xlink:href="../../d9/dc8/class_deluxe_1_1_deluxe_brand_center_1_1_a_m_m_1_1_script_runner_1_1_services_1_1_scripts_1_1_update_social_callback_url.html#ac6b0e2b6a7a8b74581551d913ae00445" target="_top" xlink:title=" ">
<polygon fill="white" stroke="#666666" points="389.75,-106 212.5,-106 212.5,-62 389.75,-62 389.75,-106"/>
<text text-anchor="start" x="220.5" y="-92.5" font-family="Helvetica,sans-Serif" font-size="10.00">Deluxe.DeluxeBrandCenter.</text>
<text text-anchor="start" x="220.5" y="-80.5" font-family="Helvetica,sans-Serif" font-size="10.00">AMM.ScriptRunner.Services.Scripts.</text>
<text text-anchor="middle" x="301.12" y="-68.5" font-family="Helvetica,sans-Serif" font-size="10.00">UpdateSocialCallbackUrl.Run</text>
</a>
</g>
</g>
<!-- Node1&#45;&gt;Node6 -->
<g id="edge5_Node000001_Node000006" class="edge">
<title>Node1&#45;&gt;Node6</title>
<g id="a_edge5_Node000001_Node000006"><a xlink:title=" ">
<path fill="none" stroke="#63b8ff" d="M463.16,-149.28C441.3,-137.98 415.34,-125.2 391.25,-115 384.31,-112.06 376.99,-109.18 369.64,-106.43"/>
<polygon fill="#63b8ff" stroke="#63b8ff" points="461.39,-152.3 471.87,-153.82 464.62,-146.09 461.39,-152.3"/>
</a>
</g>
</g>
<!-- Node7 -->
<g id="Node000007" class="node">
<title>Node7</title>
<g id="a_Node000007"><a xlink:href="../../dc/db9/class_deluxe_1_1_deluxe_brand_center_1_1_a_m_m_1_1_a_p_i_1_1_services_1_1_account_service.html#a9280300b6414aabe58c40ef3dd7780c3" target="_top" xlink:title=" ">
<polygon fill="white" stroke="#666666" points="388.62,-44 213.62,-44 213.62,0 388.62,0 388.62,-44"/>
<text text-anchor="start" x="221.62" y="-30.5" font-family="Helvetica,sans-Serif" font-size="10.00">Deluxe.DeluxeBrandCenter.</text>
<text text-anchor="start" x="221.62" y="-18.5" font-family="Helvetica,sans-Serif" font-size="10.00">AMM.API.Services.AccountService.</text>
<text text-anchor="middle" x="301.12" y="-6.5" font-family="Helvetica,sans-Serif" font-size="10.00">SignIn</text>
</a>
</g>
</g>
<!-- Node1&#45;&gt;Node7 -->
<g id="edge6_Node000001_Node000007" class="edge">
<title>Node1&#45;&gt;Node7</title>
<g id="a_edge6_Node000001_Node000007"><a xlink:title=" ">
<path fill="none" stroke="#63b8ff" d="M490.47,-145.77C467.63,-117.98 430.95,-77.98 391.25,-53 386.26,-49.86 380.91,-46.99 375.4,-44.37"/>
<polygon fill="#63b8ff" stroke="#63b8ff" points="487.72,-147.93 496.72,-153.51 493.16,-143.53 487.72,-147.93"/>
</a>
</g>
</g>
<!-- Node8 -->
<g id="Node000008" class="node">
<title>Node8</title>
<g id="a_Node000008"><a xlink:href="../../dc/db9/class_deluxe_1_1_deluxe_brand_center_1_1_a_m_m_1_1_a_p_i_1_1_services_1_1_account_service.html#ae3584aa7350a66b28807932012ac7dd2" target="_top" xlink:title=" ">
<polygon fill="white" stroke="#666666" points="175,-44 0,-44 0,0 175,0 175,-44"/>
<text text-anchor="start" x="8" y="-30.5" font-family="Helvetica,sans-Serif" font-size="10.00">Deluxe.DeluxeBrandCenter.</text>
<text text-anchor="start" x="8" y="-18.5" font-family="Helvetica,sans-Serif" font-size="10.00">AMM.API.Services.AccountService.</text>
<text text-anchor="middle" x="87.5" y="-6.5" font-family="Helvetica,sans-Serif" font-size="10.00">SSOSignIn</text>
</a>
</g>
</g>
<!-- Node7&#45;&gt;Node8 -->
<g id="edge7_Node000007_Node000008" class="edge">
<title>Node7&#45;&gt;Node8</title>
<g id="a_edge7_Node000007_Node000008"><a xlink:title=" ">
<path fill="none" stroke="#63b8ff" d="M201.7,-22C192.95,-22 184.14,-22 175.5,-22"/>
<polygon fill="#63b8ff" stroke="#63b8ff" points="201.62,-25.5 211.62,-22 201.62,-18.5 201.62,-25.5"/>
</a>
</g>
</g>
</g>
</svg>
