<?xml version="1.0" encoding="UTF-8" standalone="no"?>
<!DOCTYPE svg PUBLIC "-//W3C//DTD SVG 1.1//EN"
 "http://www.w3.org/Graphics/SVG/1.1/DTD/svg11.dtd">
<!-- Generated by graphviz version 12.1.1 (20240910.0053)
 -->
<!-- Title: Deluxe.DeluxeBrandCenter.AMM.API.Services.UserService Pages: 1 -->
<svg width="918pt" height="108pt"
 viewBox="0.00 0.00 918.25 108.00" xmlns="http://www.w3.org/2000/svg" xmlns:xlink="http://www.w3.org/1999/xlink">
<g id="graph0" class="graph" transform="scale(1 1) rotate(0) translate(4 104)">
<title>Deluxe.DeluxeBrandCenter.AMM.API.Services.UserService</title>
<!-- Node1 -->
<g id="Node000001" class="node">
<title>Node1</title>
<g id="a_Node000001"><a xlink:title=" ">
<polygon fill="#999999" stroke="#666666" points="910.25,-68 753.25,-68 753.25,-36 910.25,-36 910.25,-68"/>
<text text-anchor="start" x="761.25" y="-54.5" font-family="Helvetica,sans-Serif" font-size="10.00">Deluxe.DeluxeBrandCenter.</text>
<text text-anchor="middle" x="831.75" y="-42.5" font-family="Helvetica,sans-Serif" font-size="10.00">AMM.API.Services.UserService</text>
</a>
</g>
</g>
<!-- Node2 -->
<g id="Node000002" class="node">
<title>Node2</title>
<g id="a_Node000002"><a xlink:href="../../da/d9e/class_deluxe_1_1_deluxe_brand_center_1_1_a_m_m_1_1_a_p_i_1_1_services_1_1_client_d_b_service.html" target="_top" xlink:title=" ">
<polygon fill="white" stroke="#666666" points="716.25,-92 594.5,-92 594.5,-60 716.25,-60 716.25,-92"/>
<text text-anchor="start" x="602.5" y="-78.5" font-family="Helvetica,sans-Serif" font-size="10.00">ClientDBService&lt; User,</text>
<text text-anchor="middle" x="655.38" y="-66.5" font-family="Helvetica,sans-Serif" font-size="10.00"> UserVM &gt;</text>
</a>
</g>
</g>
<!-- Node2&#45;&gt;Node1 -->
<g id="edge1_Node000001_Node000002" class="edge">
<title>Node2&#45;&gt;Node1</title>
<g id="a_edge1_Node000001_Node000002"><a xlink:title=" ">
<path fill="none" stroke="#63b8ff" d="M727.56,-66.2C735.87,-65.06 744.38,-63.89 752.77,-62.73"/>
<polygon fill="#63b8ff" stroke="#63b8ff" points="727.31,-62.7 717.88,-67.53 728.27,-69.64 727.31,-62.7"/>
</a>
</g>
</g>
<!-- Node3 -->
<g id="Node000003" class="node">
<title>Node3</title>
<g id="a_Node000003"><a xlink:href="../../da/d9e/class_deluxe_1_1_deluxe_brand_center_1_1_a_m_m_1_1_a_p_i_1_1_services_1_1_client_d_b_service.html" target="_top" xlink:title=" ">
<polygon fill="white" stroke="#666666" points="474.5,-100 298.75,-100 298.75,-56 474.5,-56 474.5,-100"/>
<text text-anchor="start" x="306.75" y="-86.5" font-family="Helvetica,sans-Serif" font-size="10.00">Deluxe.DeluxeBrandCenter.</text>
<text text-anchor="start" x="306.75" y="-74.5" font-family="Helvetica,sans-Serif" font-size="10.00">AMM.API.Services.ClientDBService</text>
<text text-anchor="middle" x="386.62" y="-62.5" font-family="Helvetica,sans-Serif" font-size="10.00">&lt; TModel, TModelVM &gt;</text>
</a>
</g>
</g>
<!-- Node3&#45;&gt;Node2 -->
<g id="edge2_Node000002_Node000003" class="edge">
<title>Node3&#45;&gt;Node2</title>
<g id="a_edge2_Node000002_Node000003"><a xlink:title=" ">
<path fill="none" stroke="orange" stroke-dasharray="5,2" d="M486.1,-77.26C522.38,-76.99 562.37,-76.69 594.26,-76.45"/>
<polygon fill="orange" stroke="orange" points="486.46,-73.76 476.48,-77.33 486.51,-80.76 486.46,-73.76"/>
</a>
</g>
<text text-anchor="middle" x="534.5" y="-79.68" font-family="Helvetica,sans-Serif" font-size="10.00" fill="grey"> &lt; User, UserVM &gt;</text>
</g>
<!-- Node4 -->
<g id="Node000004" class="node">
<title>Node4</title>
<g id="a_Node000004"><a xlink:href="../../d0/dcc/interface_deluxe_1_1_deluxe_brand_center_1_1_a_m_m_1_1_a_p_i_1_1_services_1_1_i_client_d_b_service.html" target="_top" xlink:title=" ">
<polygon fill="white" stroke="#666666" points="157,-94 21.75,-94 21.75,-62 157,-62 157,-94"/>
<text text-anchor="start" x="29.75" y="-80.5" font-family="Helvetica,sans-Serif" font-size="10.00">IClientDBService&lt; TModel,</text>
<text text-anchor="middle" x="89.38" y="-68.5" font-family="Helvetica,sans-Serif" font-size="10.00"> TModelVM &gt;</text>
</a>
</g>
</g>
<!-- Node4&#45;&gt;Node3 -->
<g id="edge3_Node000003_Node000004" class="edge">
<title>Node4&#45;&gt;Node3</title>
<g id="a_edge3_Node000003_Node000004"><a xlink:title=" ">
<path fill="none" stroke="#63b8ff" d="M168.66,-78C208.6,-78 257.3,-78 298.43,-78"/>
<polygon fill="#63b8ff" stroke="#63b8ff" points="168.89,-74.5 158.89,-78 168.89,-81.5 168.89,-74.5"/>
</a>
</g>
</g>
<!-- Node5 -->
<g id="Node000005" class="node">
<title>Node5</title>
<g id="a_Node000005"><a xlink:href="../../d7/d38/interface_deluxe_1_1_deluxe_brand_center_1_1_a_m_m_1_1_a_p_i_1_1_services_1_1_i_user_service.html" target="_top" xlink:title=" ">
<polygon fill="white" stroke="#666666" points="691.88,-41 618.88,-41 618.88,-21 691.88,-21 691.88,-41"/>
<text text-anchor="middle" x="655.38" y="-27.5" font-family="Helvetica,sans-Serif" font-size="10.00">IUserService</text>
</a>
</g>
</g>
<!-- Node5&#45;&gt;Node1 -->
<g id="edge4_Node000001_Node000005" class="edge">
<title>Node5&#45;&gt;Node1</title>
<g id="a_edge4_Node000001_Node000005"><a xlink:title=" ">
<path fill="none" stroke="#63b8ff" d="M703.33,-36.65C718.63,-38.5 736.05,-40.6 752.99,-42.64"/>
<polygon fill="#63b8ff" stroke="#63b8ff" points="703.93,-33.2 693.59,-35.48 703.1,-40.15 703.93,-33.2"/>
</a>
</g>
</g>
<!-- Node6 -->
<g id="Node000006" class="node">
<title>Node6</title>
<g id="a_Node000006"><a xlink:href="../../d0/dcc/interface_deluxe_1_1_deluxe_brand_center_1_1_a_m_m_1_1_a_p_i_1_1_services_1_1_i_client_d_b_service.html" target="_top" xlink:title=" ">
<polygon fill="white" stroke="#666666" points="449,-38 324.25,-38 324.25,-6 449,-6 449,-38"/>
<text text-anchor="start" x="332.25" y="-24.5" font-family="Helvetica,sans-Serif" font-size="10.00">IClientDBService&lt; User,</text>
<text text-anchor="middle" x="386.62" y="-12.5" font-family="Helvetica,sans-Serif" font-size="10.00"> UserVM &gt;</text>
</a>
</g>
</g>
<!-- Node6&#45;&gt;Node5 -->
<g id="edge5_Node000005_Node000006" class="edge">
<title>Node6&#45;&gt;Node5</title>
<g id="a_edge5_Node000005_Node000006"><a xlink:title=" ">
<path fill="none" stroke="#63b8ff" d="M460.86,-24.47C512.16,-26.2 578.47,-28.44 618.64,-29.79"/>
<polygon fill="#63b8ff" stroke="#63b8ff" points="461.12,-20.98 451.01,-24.14 460.88,-27.97 461.12,-20.98"/>
</a>
</g>
</g>
<!-- Node7 -->
<g id="Node000007" class="node">
<title>Node7</title>
<g id="a_Node000007"><a xlink:href="../../d0/dcc/interface_deluxe_1_1_deluxe_brand_center_1_1_a_m_m_1_1_a_p_i_1_1_services_1_1_i_client_d_b_service.html" target="_top" xlink:title=" ">
<polygon fill="white" stroke="#666666" points="178.75,-44 0,-44 0,0 178.75,0 178.75,-44"/>
<text text-anchor="start" x="8" y="-30.5" font-family="Helvetica,sans-Serif" font-size="10.00">Deluxe.DeluxeBrandCenter.</text>
<text text-anchor="start" x="8" y="-18.5" font-family="Helvetica,sans-Serif" font-size="10.00">AMM.API.Services.IClientDBService</text>
<text text-anchor="middle" x="89.38" y="-6.5" font-family="Helvetica,sans-Serif" font-size="10.00">&lt; TModel, TModelVM &gt;</text>
</a>
</g>
</g>
<!-- Node7&#45;&gt;Node6 -->
<g id="edge6_Node000006_Node000007" class="edge">
<title>Node7&#45;&gt;Node6</title>
<g id="a_edge6_Node000006_Node000007"><a xlink:title=" ">
<path fill="none" stroke="orange" stroke-dasharray="5,2" d="M190.35,-22C234.57,-22 285.19,-22 323.8,-22"/>
<polygon fill="orange" stroke="orange" points="190.47,-18.5 180.47,-22 190.47,-25.5 190.47,-18.5"/>
</a>
</g>
<text text-anchor="middle" x="238.75" y="-24.5" font-family="Helvetica,sans-Serif" font-size="10.00" fill="grey"> &lt; User, UserVM &gt;</text>
</g>
</g>
</svg>
