<?xml version="1.0" encoding="UTF-8" standalone="no"?>
<!DOCTYPE svg PUBLIC "-//W3C//DTD SVG 1.1//EN"
 "http://www.w3.org/Graphics/SVG/1.1/DTD/svg11.dtd">
<!-- Generated by graphviz version 12.1.1 (20240910.0053)
 -->
<!-- Title: Source/Domain/DataModel Pages: 1 -->
<!--zoomable 96 -->

<svg id="main" version="1.1" xmlns="http://www.w3.org/2000/svg" xmlns:xlink="http://www.w3.org/1999/xlink" xml:space="preserve" onload="init(evt)">

<style type="text/css"><![CDATA[
.node, .edge {opacity: 0.7;}
.node.selected, .edge.selected {opacity: 1;}
.edge:hover path { stroke: red; }
.edge:hover polygon { stroke: red; fill: red; }
]]></style>

<defs>
  <circle id="rim" cx="0" cy="0" r="7"/>
  <circle id="rim2" cx="0" cy="0" r="3.5"/>
  <g id="zoomPlus">
    <use xlink:href="#rim" fill="#404040"><set attributeName="fill" to="#808080" begin="zoomplus.mouseover" end="zoomplus.mouseout"/></use>
    <path d="M-4,0h8M0,-4v8" fill="none" stroke="white" stroke-width="1.5" pointer-events="none"/>
  </g>
  <g id="zoomMin">
    <use xlink:href="#rim" fill="#404040"><set attributeName="fill" to="#808080" begin="zoomminus.mouseover" end="zoomminus.mouseout"/></use>
    <path d="M-4,0h8" fill="none" stroke="white" stroke-width="1.5" pointer-events="none"/>
  </g>
  <g id="arrowUp" transform="translate(30 24)">
    <use xlink:href="#rim"/>
    <path pointer-events="none" fill="none" stroke="white" stroke-width="1.5" d="M0,-3.0v7 M-2.5,-0.5L0,-3.0L2.5,-0.5"/>
  </g>
  <g id="arrowRight" transform="rotate(90) translate(36 -43)">
    <use xlink:href="#rim"/>
    <path pointer-events="none" fill="none" stroke="white" stroke-width="1.5" d="M0,-3.0v7 M-2.5,-0.5L0,-3.0L2.5,-0.5"/>
  </g>
  <g id="arrowDown" transform="rotate(180) translate(-30 -48)">
    <use xlink:href="#rim"/>
    <path pointer-events="none" fill="none" stroke="white" stroke-width="1.5" d="M0,-3.0v7 M-2.5,-0.5L0,-3.0L2.5,-0.5"/>
  </g>
  <g id="arrowLeft" transform="rotate(270) translate(-36 17)">
    <use xlink:href="#rim"/>
    <path pointer-events="none" fill="none" stroke="white" stroke-width="1.5" d="M0,-3.0v7 M-2.5,-0.5L0,-3.0L2.5,-0.5"/>
  </g>
  <g id="resetDef">
    <use xlink:href="#rim2" fill="#404040"><set attributeName="fill" to="#808080" begin="reset.mouseover" end="reset.mouseout"/></use>
  </g>
</defs>
<script type="application/ecmascript">
var viewWidth = 791;
var viewHeight = 96;
var sectionId = 'dynsection-0';
</script>
<script type="application/ecmascript" xlink:href="svg.min.js"/>
<svg id="graph" class="graph">
<g id="viewport">
<title>Source/Domain/DataModel</title>
<g id="clust1" class="cluster">
<title>clusterdir_0c98962a5eed5ec2560bb3603b7d1c78</title>
<g id="a_clust1"><a xlink:href="dir_0c98962a5eed5ec2560bb3603b7d1c78.html" target="_top" xlink:title="Domain">
<polygon fill="#daedff" stroke="#7f7f7f" stroke-dasharray="5,2" points="8,-8 8,-80 775,-80 775,-8 8,-8"/>
<text text-anchor="middle" x="391.5" y="-66.5" font-family="Helvetica,sans-Serif" font-size="10.00">Domain</text>
</a>
</g>
</g>
<g id="clust2" class="cluster">
<title>clusterdir_d2361954d3cfb4a783a8ae3a022cd2a9</title>
<g id="a_clust2"><a xlink:href="dir_d2361954d3cfb4a783a8ae3a022cd2a9.html" target="_top">
<polygon fill="#daedff" stroke="#404040" stroke-width="2" points="16,-16 16,-52 767,-52 767,-16 16,-16"/>
</a>
</g>
</g>
<!-- dir_d2361954d3cfb4a783a8ae3a022cd2a9 -->
<g id="node1" class="node">
<title>dir_d2361954d3cfb4a783a8ae3a022cd2a9</title>
<text text-anchor="middle" x="56" y="-30.5" font-family="Helvetica,sans-Serif" font-size="10.00">DataModel</text>
</g>
<!-- dir_5994ffd13a8297e099ab7655e69b957a -->
<g id="node2" class="node">
<title>dir_5994ffd13a8297e099ab7655e69b957a</title>
<g id="a_node2"><a xlink:href="dir_5994ffd13a8297e099ab7655e69b957a.html" target="_top" xlink:title="Campaigns">
<polygon fill="#4ea9ff" stroke="#404040" points="170.75,-44 105.25,-44 105.25,-24 170.75,-24 170.75,-44"/>
<text text-anchor="middle" x="138" y="-30.5" font-family="Helvetica,sans-Serif" font-size="10.00">Campaigns</text>
</a>
</g>
</g>
<!-- dir_6d9f742798586fae51a7a4d40d31f236 -->
<g id="node3" class="node">
<title>dir_6d9f742798586fae51a7a4d40d31f236</title>
<g id="a_node3"><a xlink:href="dir_6d9f742798586fae51a7a4d40d31f236.html" target="_top" xlink:title="Client">
<polygon fill="#4ea9ff" stroke="#404040" points="230.75,-44 189.25,-44 189.25,-24 230.75,-24 230.75,-44"/>
<text text-anchor="middle" x="210" y="-30.5" font-family="Helvetica,sans-Serif" font-size="10.00">Client</text>
</a>
</g>
</g>
<!-- dir_ba023577712dbfa99e7d7dfcf39c495a -->
<g id="node4" class="node">
<title>dir_ba023577712dbfa99e7d7dfcf39c495a</title>
<g id="a_node4"><a xlink:href="dir_ba023577712dbfa99e7d7dfcf39c495a.html" target="_top" xlink:title="ContactManager">
<polygon fill="#4ea9ff" stroke="#404040" points="337,-44 249,-44 249,-24 337,-24 337,-44"/>
<text text-anchor="middle" x="293" y="-30.5" font-family="Helvetica,sans-Serif" font-size="10.00">ContactManager</text>
</a>
</g>
</g>
<!-- dir_10aae4f125cf9cce8414d42505258b3b -->
<g id="node5" class="node">
<title>dir_10aae4f125cf9cce8414d42505258b3b</title>
<g id="a_node5"><a xlink:href="dir_10aae4f125cf9cce8414d42505258b3b.html" target="_top" xlink:title="Interface">
<polygon fill="#4ea9ff" stroke="#404040" points="409.12,-44 354.88,-44 354.88,-24 409.12,-24 409.12,-44"/>
<text text-anchor="middle" x="382" y="-30.5" font-family="Helvetica,sans-Serif" font-size="10.00">Interface</text>
</a>
</g>
</g>
<!-- dir_c3f56a3bcf4a8e50d3e3329468a1f63a -->
<g id="node6" class="node">
<title>dir_c3f56a3bcf4a8e50d3e3329468a1f63a</title>
<g id="a_node6"><a xlink:href="dir_c3f56a3bcf4a8e50d3e3329468a1f63a.html" target="_top" xlink:title="Settings">
<polygon fill="#4ea9ff" stroke="#404040" points="479,-44 427,-44 427,-24 479,-24 479,-44"/>
<text text-anchor="middle" x="453" y="-30.5" font-family="Helvetica,sans-Serif" font-size="10.00">Settings</text>
</a>
</g>
</g>
<!-- dir_153ecbecd2417998b26e0574d9eac783 -->
<g id="node7" class="node">
<title>dir_153ecbecd2417998b26e0574d9eac783</title>
<g id="a_node7"><a xlink:href="dir_153ecbecd2417998b26e0574d9eac783.html" target="_top" xlink:title="Social">
<polygon fill="#4ea9ff" stroke="#404040" points="540.5,-44 497.5,-44 497.5,-24 540.5,-24 540.5,-44"/>
<text text-anchor="middle" x="519" y="-30.5" font-family="Helvetica,sans-Serif" font-size="10.00">Social</text>
</a>
</g>
</g>
<!-- dir_e0b79422f21dae3a71e143d8609714b7 -->
<g id="node8" class="node">
<title>dir_e0b79422f21dae3a71e143d8609714b7</title>
<g id="a_node8"><a xlink:href="dir_e0b79422f21dae3a71e143d8609714b7.html" target="_top" xlink:title="Super">
<polygon fill="#4ea9ff" stroke="#404040" points="599.75,-44 558.25,-44 558.25,-24 599.75,-24 599.75,-44"/>
<text text-anchor="middle" x="579" y="-30.5" font-family="Helvetica,sans-Serif" font-size="10.00">Super</text>
</a>
</g>
</g>
<!-- dir_bfbd87056d234061f6240af469fe8a80 -->
<g id="node9" class="node">
<title>dir_bfbd87056d234061f6240af469fe8a80</title>
<g id="a_node9"><a xlink:href="dir_bfbd87056d234061f6240af469fe8a80.html" target="_top" xlink:title="User">
<polygon fill="#4ea9ff" stroke="#404040" points="654.5,-44 617.5,-44 617.5,-24 654.5,-24 654.5,-44"/>
<text text-anchor="middle" x="636" y="-30.5" font-family="Helvetica,sans-Serif" font-size="10.00">User</text>
</a>
</g>
</g>
<!-- dir_be72106df82a3316a3dc6dceaa1e77b9 -->
<g id="node10" class="node">
<title>dir_be72106df82a3316a3dc6dceaa1e77b9</title>
<g id="a_node10"><a xlink:href="dir_be72106df82a3316a3dc6dceaa1e77b9.html" target="_top" xlink:title="UserCampaigns">
<polygon fill="#4ea9ff" stroke="#404040" points="759.25,-44 672.75,-44 672.75,-24 759.25,-24 759.25,-44"/>
<text text-anchor="middle" x="716" y="-30.5" font-family="Helvetica,sans-Serif" font-size="10.00">UserCampaigns</text>
</a>
</g>
</g>
</g>
</svg>

<g id="navigator" transform="translate(0 0)" fill="#404254">
  <rect fill="#f2f5e9" fill-opacity="0.5" stroke="#606060" stroke-width=".5" x="0" y="0" width="60" height="60"/>
  <use id="zoomplus" xlink:href="#zoomPlus" x="17" y="9" onmousedown="handleZoom(evt,'in')"/>
  <use id="zoomminus" xlink:href="#zoomMin" x="42" y="9" onmousedown="handleZoom(evt,'out')"/>
  <use id="reset" xlink:href="#resetDef" x="30" y="36" onmousedown="handleReset()"/>
   <use id="arrowup" xlink:href="#arrowUp" x="0" y="0" onmousedown="handlePan(0,-1)"/>
  <use id="arrowright" xlink:href="#arrowRight" x="0" y="0" onmousedown="handlePan(1,0)"/>
  <use id="arrowdown" xlink:href="#arrowDown" x="0" y="0" onmousedown="handlePan(0,1)"/>
  <use id="arrowleft" xlink:href="#arrowLeft" x="0" y="0" onmousedown="handlePan(-1,0)"/>
</g>
<svg viewBox="0 0 15 15" width="100%" height="30px" preserveAspectRatio="xMaxYMin meet">
 <g id="arrow_out" transform="scale(0.3 0.3)">
  <a xlink:href="dir_d2361954d3cfb4a783a8ae3a022cd2a9_dep_org.svg" target="_base">
   <rect id="button" ry="5" rx="5" y="6" x="6" height="38" width="38"
        fill="#f2f5e9" fill-opacity="0.5" stroke="#606060" stroke-width="1.0"/>
   <path id="arrow"
     d="M 11.500037,31.436501 C 11.940474,20.09759 22.043105,11.32322 32.158766,21.979434 L 37.068811,17.246167 C 37.068811,17.246167 37.088388,32 37.088388,32 L 22.160133,31.978069 C 22.160133,31.978069 26.997745,27.140456 26.997745,27.140456 C 18.528582,18.264221 13.291696,25.230495 11.500037,31.436501 z"
     style="fill:#404040;"/>
  </a>
 </g>
</svg>

<style type='text/css'>
<![CDATA[
[data-mouse-over-selected='false'] { opacity: 0.7; }
[data-mouse-over-selected='true']  { opacity: 1.0; }
]]>
</style>
<script type="application/ecmascript"><![CDATA[
document.addEventListener('DOMContentLoaded', (event) => {
  highlightEdges();
  highlightAdjacentNodes();
});
]]></script>
</svg>
