<?xml version="1.0" encoding="UTF-8" standalone="no"?>
<!DOCTYPE svg PUBLIC "-//W3C//DTD SVG 1.1//EN"
 "http://www.w3.org/Graphics/SVG/1.1/DTD/svg11.dtd">
<!-- Generated by graphviz version 12.1.1 (20240910.0053)
 -->
<!-- Title: Source/Tests Pages: 1 -->
<!--zoomable 96 -->

<svg id="main" version="1.1" xmlns="http://www.w3.org/2000/svg" xmlns:xlink="http://www.w3.org/1999/xlink" xml:space="preserve" onload="init(evt)">

<style type="text/css"><![CDATA[
.node, .edge {opacity: 0.7;}
.node.selected, .edge.selected {opacity: 1;}
.edge:hover path { stroke: red; }
.edge:hover polygon { stroke: red; fill: red; }
]]></style>

<defs>
  <circle id="rim" cx="0" cy="0" r="7"/>
  <circle id="rim2" cx="0" cy="0" r="3.5"/>
  <g id="zoomPlus">
    <use xlink:href="#rim" fill="#404040"><set attributeName="fill" to="#808080" begin="zoomplus.mouseover" end="zoomplus.mouseout"/></use>
    <path d="M-4,0h8M0,-4v8" fill="none" stroke="white" stroke-width="1.5" pointer-events="none"/>
  </g>
  <g id="zoomMin">
    <use xlink:href="#rim" fill="#404040"><set attributeName="fill" to="#808080" begin="zoomminus.mouseover" end="zoomminus.mouseout"/></use>
    <path d="M-4,0h8" fill="none" stroke="white" stroke-width="1.5" pointer-events="none"/>
  </g>
  <g id="arrowUp" transform="translate(30 24)">
    <use xlink:href="#rim"/>
    <path pointer-events="none" fill="none" stroke="white" stroke-width="1.5" d="M0,-3.0v7 M-2.5,-0.5L0,-3.0L2.5,-0.5"/>
  </g>
  <g id="arrowRight" transform="rotate(90) translate(36 -43)">
    <use xlink:href="#rim"/>
    <path pointer-events="none" fill="none" stroke="white" stroke-width="1.5" d="M0,-3.0v7 M-2.5,-0.5L0,-3.0L2.5,-0.5"/>
  </g>
  <g id="arrowDown" transform="rotate(180) translate(-30 -48)">
    <use xlink:href="#rim"/>
    <path pointer-events="none" fill="none" stroke="white" stroke-width="1.5" d="M0,-3.0v7 M-2.5,-0.5L0,-3.0L2.5,-0.5"/>
  </g>
  <g id="arrowLeft" transform="rotate(270) translate(-36 17)">
    <use xlink:href="#rim"/>
    <path pointer-events="none" fill="none" stroke="white" stroke-width="1.5" d="M0,-3.0v7 M-2.5,-0.5L0,-3.0L2.5,-0.5"/>
  </g>
  <g id="resetDef">
    <use xlink:href="#rim2" fill="#404040"><set attributeName="fill" to="#808080" begin="reset.mouseover" end="reset.mouseout"/></use>
  </g>
</defs>
<script type="application/ecmascript">
var viewWidth = 619;
var viewHeight = 96;
var sectionId = 'dynsection-0';
</script>
<script type="application/ecmascript" xlink:href="svg.min.js"/>
<svg id="graph" class="graph">
<g id="viewport">
<title>Source/Tests</title>
<g id="clust1" class="cluster">
<title>clusterdir_74389ed8173ad57b461b9d623a1f3867</title>
<g id="a_clust1"><a xlink:href="dir_74389ed8173ad57b461b9d623a1f3867.html" target="_top" xlink:title="Source">
<polygon fill="#daedff" stroke="#404040" stroke-dasharray="5,2" points="8,-8 8,-80 603,-80 603,-8 8,-8"/>
<text text-anchor="middle" x="305.5" y="-66.5" font-family="Helvetica,sans-Serif" font-size="10.00">Source</text>
</a>
</g>
</g>
<g id="clust2" class="cluster">
<title>clusterdir_c4649485c883873e4a98325dc46175f5</title>
<g id="a_clust2"><a xlink:href="dir_c4649485c883873e4a98325dc46175f5.html" target="_top">
<polygon fill="#daedff" stroke="#404040" stroke-width="2" points="16,-16 16,-52 595,-52 595,-16 16,-16"/>
</a>
</g>
</g>
<!-- dir_c4649485c883873e4a98325dc46175f5 -->
<g id="node1" class="node">
<title>dir_c4649485c883873e4a98325dc46175f5</title>
<text text-anchor="middle" x="44" y="-30.5" font-family="Helvetica,sans-Serif" font-size="10.00">Tests</text>
</g>
<!-- dir_a0ed9ebc285d390ec41cec17765fa8ca -->
<g id="node2" class="node">
<title>dir_a0ed9ebc285d390ec41cec17765fa8ca</title>
<g id="a_node2"><a xlink:href="dir_a0ed9ebc285d390ec41cec17765fa8ca.html" target="_top" xlink:title="Acters">
<polygon fill="#4ea9ff" stroke="#404040" points="126.25,-44 81.75,-44 81.75,-24 126.25,-24 126.25,-44"/>
<text text-anchor="middle" x="104" y="-30.5" font-family="Helvetica,sans-Serif" font-size="10.00">Acters</text>
</a>
</g>
</g>
<!-- dir_e9470e3d01c9a15f64797d5f265eb9e5 -->
<g id="node3" class="node">
<title>dir_e9470e3d01c9a15f64797d5f265eb9e5</title>
<g id="a_node3"><a xlink:href="dir_e9470e3d01c9a15f64797d5f265eb9e5.html" target="_top" xlink:title="Arrangers">
<polygon fill="#4ea9ff" stroke="#404040" points="202,-44 144,-44 144,-24 202,-24 202,-44"/>
<text text-anchor="middle" x="173" y="-30.5" font-family="Helvetica,sans-Serif" font-size="10.00">Arrangers</text>
</a>
</g>
</g>
<!-- dir_ff420bc074c4ae98f488ab73b97a367e -->
<g id="node4" class="node">
<title>dir_ff420bc074c4ae98f488ab73b97a367e</title>
<g id="a_node4"><a xlink:href="dir_ff420bc074c4ae98f488ab73b97a367e.html" target="_top" xlink:title="Asserters">
<polygon fill="#4ea9ff" stroke="#404040" points="278,-44 220,-44 220,-24 278,-24 278,-44"/>
<text text-anchor="middle" x="249" y="-30.5" font-family="Helvetica,sans-Serif" font-size="10.00">Asserters</text>
</a>
</g>
</g>
<!-- dir_146d775149ceede939571104b5e03a4a -->
<g id="node5" class="node">
<title>dir_146d775149ceede939571104b5e03a4a</title>
<g id="a_node5"><a xlink:href="dir_146d775149ceede939571104b5e03a4a.html" target="_top" xlink:title="Contexts">
<polygon fill="#4ea9ff" stroke="#404040" points="351.88,-44 296.12,-44 296.12,-24 351.88,-24 351.88,-44"/>
<text text-anchor="middle" x="324" y="-30.5" font-family="Helvetica,sans-Serif" font-size="10.00">Contexts</text>
</a>
</g>
</g>
<!-- dir_1e567ce215409295e8efe393845205aa -->
<g id="node6" class="node">
<title>dir_1e567ce215409295e8efe393845205aa</title>
<g id="a_node6"><a xlink:href="dir_1e567ce215409295e8efe393845205aa.html" target="_top" xlink:title="Mocks">
<polygon fill="#4ea9ff" stroke="#404040" points="415.62,-44 370.38,-44 370.38,-24 415.62,-24 415.62,-44"/>
<text text-anchor="middle" x="393" y="-30.5" font-family="Helvetica,sans-Serif" font-size="10.00">Mocks</text>
</a>
</g>
</g>
<!-- dir_e20f95a11f3220c92d84d72f852e9d53 -->
<g id="node7" class="node">
<title>dir_e20f95a11f3220c92d84d72f852e9d53</title>
<g id="a_node7"><a xlink:href="dir_e20f95a11f3220c92d84d72f852e9d53.html" target="_top" xlink:title="Stubs">
<polygon fill="#4ea9ff" stroke="#404040" points="474.75,-44 433.25,-44 433.25,-24 474.75,-24 474.75,-44"/>
<text text-anchor="middle" x="454" y="-30.5" font-family="Helvetica,sans-Serif" font-size="10.00">Stubs</text>
</a>
</g>
</g>
<!-- dir_1205af755709b1ef5f45238f30ef9721 -->
<g id="node8" class="node">
<title>dir_1205af755709b1ef5f45238f30ef9721</title>
<g id="a_node8"><a xlink:href="dir_1205af755709b1ef5f45238f30ef9721.html" target="_top" xlink:title="SUT">
<polygon fill="#4ea9ff" stroke="#404040" points="529.12,-44 492.88,-44 492.88,-24 529.12,-24 529.12,-44"/>
<text text-anchor="middle" x="511" y="-30.5" font-family="Helvetica,sans-Serif" font-size="10.00">SUT</text>
</a>
</g>
</g>
<!-- dir_f6fda670a5d5942472318f6bd87c6bb3 -->
<g id="node9" class="node">
<title>dir_f6fda670a5d5942472318f6bd87c6bb3</title>
<g id="a_node9"><a xlink:href="dir_f6fda670a5d5942472318f6bd87c6bb3.html" target="_top" xlink:title="Tests">
<polygon fill="#4ea9ff" stroke="#404040" points="587,-44 547,-44 547,-24 587,-24 587,-44"/>
<text text-anchor="middle" x="567" y="-30.5" font-family="Helvetica,sans-Serif" font-size="10.00">Tests</text>
</a>
</g>
</g>
</g>
</svg>

<g id="navigator" transform="translate(0 0)" fill="#404254">
  <rect fill="#f2f5e9" fill-opacity="0.5" stroke="#606060" stroke-width=".5" x="0" y="0" width="60" height="60"/>
  <use id="zoomplus" xlink:href="#zoomPlus" x="17" y="9" onmousedown="handleZoom(evt,'in')"/>
  <use id="zoomminus" xlink:href="#zoomMin" x="42" y="9" onmousedown="handleZoom(evt,'out')"/>
  <use id="reset" xlink:href="#resetDef" x="30" y="36" onmousedown="handleReset()"/>
   <use id="arrowup" xlink:href="#arrowUp" x="0" y="0" onmousedown="handlePan(0,-1)"/>
  <use id="arrowright" xlink:href="#arrowRight" x="0" y="0" onmousedown="handlePan(1,0)"/>
  <use id="arrowdown" xlink:href="#arrowDown" x="0" y="0" onmousedown="handlePan(0,1)"/>
  <use id="arrowleft" xlink:href="#arrowLeft" x="0" y="0" onmousedown="handlePan(-1,0)"/>
</g>
<svg viewBox="0 0 15 15" width="100%" height="30px" preserveAspectRatio="xMaxYMin meet">
 <g id="arrow_out" transform="scale(0.3 0.3)">
  <a xlink:href="dir_c4649485c883873e4a98325dc46175f5_dep_org.svg" target="_base">
   <rect id="button" ry="5" rx="5" y="6" x="6" height="38" width="38"
        fill="#f2f5e9" fill-opacity="0.5" stroke="#606060" stroke-width="1.0"/>
   <path id="arrow"
     d="M 11.500037,31.436501 C 11.940474,20.09759 22.043105,11.32322 32.158766,21.979434 L 37.068811,17.246167 C 37.068811,17.246167 37.088388,32 37.088388,32 L 22.160133,31.978069 C 22.160133,31.978069 26.997745,27.140456 26.997745,27.140456 C 18.528582,18.264221 13.291696,25.230495 11.500037,31.436501 z"
     style="fill:#404040;"/>
  </a>
 </g>
</svg>

<style type='text/css'>
<![CDATA[
[data-mouse-over-selected='false'] { opacity: 0.7; }
[data-mouse-over-selected='true']  { opacity: 1.0; }
]]>
</style>
<script type="application/ecmascript"><![CDATA[
document.addEventListener('DOMContentLoaded', (event) => {
  highlightEdges();
  highlightAdjacentNodes();
});
]]></script>
</svg>
