<?xml version="1.0" encoding="UTF-8" standalone="no"?>
<!DOCTYPE svg PUBLIC "-//W3C//DTD SVG 1.1//EN"
 "http://www.w3.org/Graphics/SVG/1.1/DTD/svg11.dtd">
<!-- Generated by graphviz version 12.1.1 (20240910.0053)
 -->
<!-- Title: Source/Domain Pages: 1 -->
<!--zoomable 96 -->

<svg id="main" version="1.1" xmlns="http://www.w3.org/2000/svg" xmlns:xlink="http://www.w3.org/1999/xlink" xml:space="preserve" onload="init(evt)">

<style type="text/css"><![CDATA[
.node, .edge {opacity: 0.7;}
.node.selected, .edge.selected {opacity: 1;}
.edge:hover path { stroke: red; }
.edge:hover polygon { stroke: red; fill: red; }
]]></style>

<defs>
  <circle id="rim" cx="0" cy="0" r="7"/>
  <circle id="rim2" cx="0" cy="0" r="3.5"/>
  <g id="zoomPlus">
    <use xlink:href="#rim" fill="#404040"><set attributeName="fill" to="#808080" begin="zoomplus.mouseover" end="zoomplus.mouseout"/></use>
    <path d="M-4,0h8M0,-4v8" fill="none" stroke="white" stroke-width="1.5" pointer-events="none"/>
  </g>
  <g id="zoomMin">
    <use xlink:href="#rim" fill="#404040"><set attributeName="fill" to="#808080" begin="zoomminus.mouseover" end="zoomminus.mouseout"/></use>
    <path d="M-4,0h8" fill="none" stroke="white" stroke-width="1.5" pointer-events="none"/>
  </g>
  <g id="arrowUp" transform="translate(30 24)">
    <use xlink:href="#rim"/>
    <path pointer-events="none" fill="none" stroke="white" stroke-width="1.5" d="M0,-3.0v7 M-2.5,-0.5L0,-3.0L2.5,-0.5"/>
  </g>
  <g id="arrowRight" transform="rotate(90) translate(36 -43)">
    <use xlink:href="#rim"/>
    <path pointer-events="none" fill="none" stroke="white" stroke-width="1.5" d="M0,-3.0v7 M-2.5,-0.5L0,-3.0L2.5,-0.5"/>
  </g>
  <g id="arrowDown" transform="rotate(180) translate(-30 -48)">
    <use xlink:href="#rim"/>
    <path pointer-events="none" fill="none" stroke="white" stroke-width="1.5" d="M0,-3.0v7 M-2.5,-0.5L0,-3.0L2.5,-0.5"/>
  </g>
  <g id="arrowLeft" transform="rotate(270) translate(-36 17)">
    <use xlink:href="#rim"/>
    <path pointer-events="none" fill="none" stroke="white" stroke-width="1.5" d="M0,-3.0v7 M-2.5,-0.5L0,-3.0L2.5,-0.5"/>
  </g>
  <g id="resetDef">
    <use xlink:href="#rim2" fill="#404040"><set attributeName="fill" to="#808080" begin="reset.mouseover" end="reset.mouseout"/></use>
  </g>
</defs>
<script type="application/ecmascript">
var viewWidth = 1038;
var viewHeight = 96;
var sectionId = 'dynsection-0';
</script>
<script type="application/ecmascript" xlink:href="svg.min.js"/>
<svg id="graph" class="graph">
<g id="viewport">
<title>Source/Domain</title>
<g id="clust1" class="cluster">
<title>clusterdir_74389ed8173ad57b461b9d623a1f3867</title>
<g id="a_clust1"><a xlink:href="dir_74389ed8173ad57b461b9d623a1f3867.html" target="_top" xlink:title="Source">
<polygon fill="#daedff" stroke="#404040" stroke-dasharray="5,2" points="8,-8 8,-80 1022,-80 1022,-8 8,-8"/>
<text text-anchor="middle" x="515" y="-66.5" font-family="Helvetica,sans-Serif" font-size="10.00">Source</text>
</a>
</g>
</g>
<g id="clust2" class="cluster">
<title>clusterdir_0c98962a5eed5ec2560bb3603b7d1c78</title>
<g id="a_clust2"><a xlink:href="dir_0c98962a5eed5ec2560bb3603b7d1c78.html" target="_top">
<polygon fill="#daedff" stroke="#404040" stroke-width="2" points="16,-16 16,-52 1014,-52 1014,-16 16,-16"/>
</a>
</g>
</g>
<!-- dir_0c98962a5eed5ec2560bb3603b7d1c78 -->
<g id="node1" class="node">
<title>dir_0c98962a5eed5ec2560bb3603b7d1c78</title>
<text text-anchor="middle" x="49" y="-30.5" font-family="Helvetica,sans-Serif" font-size="10.00">Domain</text>
</g>
<!-- dir_7cc7e4d8222443b1c2e796f9e81996e4 -->
<g id="node2" class="node">
<title>dir_7cc7e4d8222443b1c2e796f9e81996e4</title>
<g id="a_node2"><a xlink:href="dir_7cc7e4d8222443b1c2e796f9e81996e4.html" target="_top" xlink:title="BI">
<polygon fill="#4ea9ff" stroke="#404040" points="120.4,-44 91.6,-44 91.6,-24 120.4,-24 120.4,-44"/>
<text text-anchor="middle" x="106" y="-30.5" font-family="Helvetica,sans-Serif" font-size="10.00">BI</text>
</a>
</g>
</g>
<!-- dir_f6347e7cd18115bd6d454cd26ba6cc3e -->
<g id="node3" class="node">
<title>dir_f6347e7cd18115bd6d454cd26ba6cc3e</title>
<g id="a_node3"><a xlink:href="dir_f6347e7cd18115bd6d454cd26ba6cc3e.html" target="_top" xlink:title="ConfigModel">
<polygon fill="#4ea9ff" stroke="#404040" points="209.38,-44 138.62,-44 138.62,-24 209.38,-24 209.38,-44"/>
<text text-anchor="middle" x="174" y="-30.5" font-family="Helvetica,sans-Serif" font-size="10.00">ConfigModel</text>
</a>
</g>
</g>
<!-- dir_4460b16a8ea23af1a29b37fb992337ed -->
<g id="node4" class="node">
<title>dir_4460b16a8ea23af1a29b37fb992337ed</title>
<g id="a_node4"><a xlink:href="dir_4460b16a8ea23af1a29b37fb992337ed.html" target="_top" xlink:title="ControllerModel">
<polygon fill="#4ea9ff" stroke="#404040" points="312.12,-44 227.88,-44 227.88,-24 312.12,-24 312.12,-44"/>
<text text-anchor="middle" x="270" y="-30.5" font-family="Helvetica,sans-Serif" font-size="10.00">ControllerModel</text>
</a>
</g>
</g>
<!-- dir_d2361954d3cfb4a783a8ae3a022cd2a9 -->
<g id="node5" class="node">
<title>dir_d2361954d3cfb4a783a8ae3a022cd2a9</title>
<g id="a_node5"><a xlink:href="dir_d2361954d3cfb4a783a8ae3a022cd2a9.html" target="_top" xlink:title="DataModel">
<polygon fill="#4ea9ff" stroke="#404040" points="393.62,-44 330.38,-44 330.38,-24 393.62,-24 393.62,-44"/>
<text text-anchor="middle" x="362" y="-30.5" font-family="Helvetica,sans-Serif" font-size="10.00">DataModel</text>
</a>
</g>
</g>
<!-- dir_8d8d30717d035206102564065f4753cc -->
<g id="node6" class="node">
<title>dir_8d8d30717d035206102564065f4753cc</title>
<g id="a_node6"><a xlink:href="dir_8d8d30717d035206102564065f4753cc.html" target="_top" xlink:title="Enums">
<polygon fill="#4ea9ff" stroke="#404040" points="458.38,-44 411.62,-44 411.62,-24 458.38,-24 458.38,-44"/>
<text text-anchor="middle" x="435" y="-30.5" font-family="Helvetica,sans-Serif" font-size="10.00">Enums</text>
</a>
</g>
</g>
<!-- dir_bcd9be6c5cca0a9d4841bc4e01f397a9 -->
<g id="node7" class="node">
<title>dir_bcd9be6c5cca0a9d4841bc4e01f397a9</title>
<g id="a_node7"><a xlink:href="dir_bcd9be6c5cca0a9d4841bc4e01f397a9.html" target="_top" xlink:title="ExtServiceModel">
<polygon fill="#4ea9ff" stroke="#404040" points="567.12,-44 476.88,-44 476.88,-24 567.12,-24 567.12,-44"/>
<text text-anchor="middle" x="522" y="-30.5" font-family="Helvetica,sans-Serif" font-size="10.00">ExtServiceModel</text>
</a>
</g>
</g>
<!-- dir_8c3362d2f100c7d7835f54a04871aa65 -->
<g id="node8" class="node">
<title>dir_8c3362d2f100c7d7835f54a04871aa65</title>
<g id="a_node8"><a xlink:href="dir_8c3362d2f100c7d7835f54a04871aa65.html" target="_top" xlink:title="Mapper">
<polygon fill="#4ea9ff" stroke="#404040" points="633.12,-44 584.88,-44 584.88,-24 633.12,-24 633.12,-44"/>
<text text-anchor="middle" x="609" y="-30.5" font-family="Helvetica,sans-Serif" font-size="10.00">Mapper</text>
</a>
</g>
</g>
<!-- dir_ba047a5dab1db26c71b3840374963a8a -->
<g id="node9" class="node">
<title>dir_ba047a5dab1db26c71b3840374963a8a</title>
<g id="a_node9"><a xlink:href="dir_ba047a5dab1db26c71b3840374963a8a.html" target="_top" xlink:title="Models">
<polygon fill="#4ea9ff" stroke="#404040" points="698.75,-44 651.25,-44 651.25,-24 698.75,-24 698.75,-44"/>
<text text-anchor="middle" x="675" y="-30.5" font-family="Helvetica,sans-Serif" font-size="10.00">Models</text>
</a>
</g>
</g>
<!-- dir_aafdf4196a7dd518694125024f27e2d2 -->
<g id="node10" class="node">
<title>dir_aafdf4196a7dd518694125024f27e2d2</title>
<g id="a_node10"><a xlink:href="dir_aafdf4196a7dd518694125024f27e2d2.html" target="_top" xlink:title="ServiceModel">
<polygon fill="#4ea9ff" stroke="#404040" points="791.62,-44 716.38,-44 716.38,-24 791.62,-24 791.62,-44"/>
<text text-anchor="middle" x="754" y="-30.5" font-family="Helvetica,sans-Serif" font-size="10.00">ServiceModel</text>
</a>
</g>
</g>
<!-- dir_a92ae00de0b8bc5d5a3fab51e6c5b0e2 -->
<g id="node11" class="node">
<title>dir_a92ae00de0b8bc5d5a3fab51e6c5b0e2</title>
<g id="a_node11"><a xlink:href="dir_a92ae00de0b8bc5d5a3fab51e6c5b0e2.html" target="_top" xlink:title="Services">
<polygon fill="#4ea9ff" stroke="#404040" points="864.12,-44 809.88,-44 809.88,-24 864.12,-24 864.12,-44"/>
<text text-anchor="middle" x="837" y="-30.5" font-family="Helvetica,sans-Serif" font-size="10.00">Services</text>
</a>
</g>
</g>
<!-- dir_57c4c97f1fbb8ea6911ebfc1f9ee3da9 -->
<g id="node12" class="node">
<title>dir_57c4c97f1fbb8ea6911ebfc1f9ee3da9</title>
<g id="a_node12"><a xlink:href="dir_57c4c97f1fbb8ea6911ebfc1f9ee3da9.html" target="_top" xlink:title="Utility">
<polygon fill="#4ea9ff" stroke="#404040" points="923.75,-44 882.25,-44 882.25,-24 923.75,-24 923.75,-44"/>
<text text-anchor="middle" x="903" y="-30.5" font-family="Helvetica,sans-Serif" font-size="10.00">Utility</text>
</a>
</g>
</g>
<!-- dir_6e18cfcd769c3fcecbe0f80eef539352 -->
<g id="node13" class="node">
<title>dir_6e18cfcd769c3fcecbe0f80eef539352</title>
<g id="a_node13"><a xlink:href="dir_6e18cfcd769c3fcecbe0f80eef539352.html" target="_top" xlink:title="ViewModel">
<polygon fill="#4ea9ff" stroke="#404040" points="1006,-44 942,-44 942,-24 1006,-24 1006,-44"/>
<text text-anchor="middle" x="974" y="-30.5" font-family="Helvetica,sans-Serif" font-size="10.00">ViewModel</text>
</a>
</g>
</g>
</g>
</svg>

<g id="navigator" transform="translate(0 0)" fill="#404254">
  <rect fill="#f2f5e9" fill-opacity="0.5" stroke="#606060" stroke-width=".5" x="0" y="0" width="60" height="60"/>
  <use id="zoomplus" xlink:href="#zoomPlus" x="17" y="9" onmousedown="handleZoom(evt,'in')"/>
  <use id="zoomminus" xlink:href="#zoomMin" x="42" y="9" onmousedown="handleZoom(evt,'out')"/>
  <use id="reset" xlink:href="#resetDef" x="30" y="36" onmousedown="handleReset()"/>
   <use id="arrowup" xlink:href="#arrowUp" x="0" y="0" onmousedown="handlePan(0,-1)"/>
  <use id="arrowright" xlink:href="#arrowRight" x="0" y="0" onmousedown="handlePan(1,0)"/>
  <use id="arrowdown" xlink:href="#arrowDown" x="0" y="0" onmousedown="handlePan(0,1)"/>
  <use id="arrowleft" xlink:href="#arrowLeft" x="0" y="0" onmousedown="handlePan(-1,0)"/>
</g>
<svg viewBox="0 0 15 15" width="100%" height="30px" preserveAspectRatio="xMaxYMin meet">
 <g id="arrow_out" transform="scale(0.3 0.3)">
  <a xlink:href="dir_0c98962a5eed5ec2560bb3603b7d1c78_dep_org.svg" target="_base">
   <rect id="button" ry="5" rx="5" y="6" x="6" height="38" width="38"
        fill="#f2f5e9" fill-opacity="0.5" stroke="#606060" stroke-width="1.0"/>
   <path id="arrow"
     d="M 11.500037,31.436501 C 11.940474,20.09759 22.043105,11.32322 32.158766,21.979434 L 37.068811,17.246167 C 37.068811,17.246167 37.088388,32 37.088388,32 L 22.160133,31.978069 C 22.160133,31.978069 26.997745,27.140456 26.997745,27.140456 C 18.528582,18.264221 13.291696,25.230495 11.500037,31.436501 z"
     style="fill:#404040;"/>
  </a>
 </g>
</svg>

<style type='text/css'>
<![CDATA[
[data-mouse-over-selected='false'] { opacity: 0.7; }
[data-mouse-over-selected='true']  { opacity: 1.0; }
]]>
</style>
<script type="application/ecmascript"><![CDATA[
document.addEventListener('DOMContentLoaded', (event) => {
  highlightEdges();
  highlightAdjacentNodes();
});
]]></script>
</svg>
