<?xml version="1.0" encoding="UTF-8" standalone="no"?>
<!DOCTYPE svg PUBLIC "-//W3C//DTD SVG 1.1//EN"
 "http://www.w3.org/Graphics/SVG/1.1/DTD/svg11.dtd">
<!-- Generated by graphviz version 12.1.1 (20240910.0053)
 -->
<!-- Title: Source/Infrastructure Pages: 1 -->
<!--zoomable 96 -->

<svg id="main" version="1.1" xmlns="http://www.w3.org/2000/svg" xmlns:xlink="http://www.w3.org/1999/xlink" xml:space="preserve" onload="init(evt)">

<style type="text/css"><![CDATA[
.node, .edge {opacity: 0.7;}
.node.selected, .edge.selected {opacity: 1;}
.edge:hover path { stroke: red; }
.edge:hover polygon { stroke: red; fill: red; }
]]></style>

<defs>
  <circle id="rim" cx="0" cy="0" r="7"/>
  <circle id="rim2" cx="0" cy="0" r="3.5"/>
  <g id="zoomPlus">
    <use xlink:href="#rim" fill="#404040"><set attributeName="fill" to="#808080" begin="zoomplus.mouseover" end="zoomplus.mouseout"/></use>
    <path d="M-4,0h8M0,-4v8" fill="none" stroke="white" stroke-width="1.5" pointer-events="none"/>
  </g>
  <g id="zoomMin">
    <use xlink:href="#rim" fill="#404040"><set attributeName="fill" to="#808080" begin="zoomminus.mouseover" end="zoomminus.mouseout"/></use>
    <path d="M-4,0h8" fill="none" stroke="white" stroke-width="1.5" pointer-events="none"/>
  </g>
  <g id="arrowUp" transform="translate(30 24)">
    <use xlink:href="#rim"/>
    <path pointer-events="none" fill="none" stroke="white" stroke-width="1.5" d="M0,-3.0v7 M-2.5,-0.5L0,-3.0L2.5,-0.5"/>
  </g>
  <g id="arrowRight" transform="rotate(90) translate(36 -43)">
    <use xlink:href="#rim"/>
    <path pointer-events="none" fill="none" stroke="white" stroke-width="1.5" d="M0,-3.0v7 M-2.5,-0.5L0,-3.0L2.5,-0.5"/>
  </g>
  <g id="arrowDown" transform="rotate(180) translate(-30 -48)">
    <use xlink:href="#rim"/>
    <path pointer-events="none" fill="none" stroke="white" stroke-width="1.5" d="M0,-3.0v7 M-2.5,-0.5L0,-3.0L2.5,-0.5"/>
  </g>
  <g id="arrowLeft" transform="rotate(270) translate(-36 17)">
    <use xlink:href="#rim"/>
    <path pointer-events="none" fill="none" stroke="white" stroke-width="1.5" d="M0,-3.0v7 M-2.5,-0.5L0,-3.0L2.5,-0.5"/>
  </g>
  <g id="resetDef">
    <use xlink:href="#rim2" fill="#404040"><set attributeName="fill" to="#808080" begin="reset.mouseover" end="reset.mouseout"/></use>
  </g>
</defs>
<script type="application/ecmascript">
var viewWidth = 680;
var viewHeight = 96;
var sectionId = 'dynsection-0';
</script>
<script type="application/ecmascript" xlink:href="svg.min.js"/>
<svg id="graph" class="graph">
<g id="viewport">
<title>Source/Infrastructure</title>
<g id="clust1" class="cluster">
<title>clusterdir_74389ed8173ad57b461b9d623a1f3867</title>
<g id="a_clust1"><a xlink:href="dir_74389ed8173ad57b461b9d623a1f3867.html" target="_top" xlink:title="Source">
<polygon fill="#daedff" stroke="#404040" stroke-dasharray="5,2" points="8,-8 8,-80 664,-80 664,-8 8,-8"/>
<text text-anchor="middle" x="336" y="-66.5" font-family="Helvetica,sans-Serif" font-size="10.00">Source</text>
</a>
</g>
</g>
<g id="clust2" class="cluster">
<title>clusterdir_96d3e59e59547f84e633a570c746b80b</title>
<g id="a_clust2"><a xlink:href="dir_96d3e59e59547f84e633a570c746b80b.html" target="_top">
<polygon fill="#daedff" stroke="#404040" stroke-width="2" points="16,-16 16,-52 656,-52 656,-16 16,-16"/>
</a>
</g>
</g>
<!-- dir_96d3e59e59547f84e633a570c746b80b -->
<g id="node1" class="node">
<title>dir_96d3e59e59547f84e633a570c746b80b</title>
<text text-anchor="middle" x="61" y="-30.5" font-family="Helvetica,sans-Serif" font-size="10.00">Infrastructure</text>
</g>
<!-- dir_dbf40e3836396db455362ace791e53df -->
<g id="node2" class="node">
<title>dir_dbf40e3836396db455362ace791e53df</title>
<g id="a_node2"><a xlink:href="dir_dbf40e3836396db455362ace791e53df.html" target="_top" xlink:title="AWS">
<polygon fill="#4ea9ff" stroke="#404040" points="154.25,-44 115.75,-44 115.75,-24 154.25,-24 154.25,-44"/>
<text text-anchor="middle" x="135" y="-30.5" font-family="Helvetica,sans-Serif" font-size="10.00">AWS</text>
</a>
</g>
</g>
<!-- dir_ee439c1d9390e0d4cea3601ddbe826bf -->
<g id="node3" class="node">
<title>dir_ee439c1d9390e0d4cea3601ddbe826bf</title>
<g id="a_node3"><a xlink:href="dir_ee439c1d9390e0d4cea3601ddbe826bf.html" target="_top" xlink:title="Databases">
<polygon fill="#4ea9ff" stroke="#404040" points="235.62,-44 172.38,-44 172.38,-24 235.62,-24 235.62,-44"/>
<text text-anchor="middle" x="204" y="-30.5" font-family="Helvetica,sans-Serif" font-size="10.00">Databases</text>
</a>
</g>
</g>
<!-- dir_99e4d0a2f112878a3966bf2f6c404cc1 -->
<g id="node4" class="node">
<title>dir_99e4d0a2f112878a3966bf2f6c404cc1</title>
<g id="a_node4"><a xlink:href="dir_99e4d0a2f112878a3966bf2f6c404cc1.html" target="_top" xlink:title="Mindfire">
<polygon fill="#4ea9ff" stroke="#404040" points="304.25,-44 253.75,-44 253.75,-24 304.25,-24 304.25,-44"/>
<text text-anchor="middle" x="279" y="-30.5" font-family="Helvetica,sans-Serif" font-size="10.00">Mindfire</text>
</a>
</g>
</g>
<!-- dir_ba10e4e6dfd063a8809c063de4c48d33 -->
<g id="node5" class="node">
<title>dir_ba10e4e6dfd063a8809c063de4c48d33</title>
<g id="a_node5"><a xlink:href="dir_ba10e4e6dfd063a8809c063de4c48d33.html" target="_top" xlink:title="PMS">
<polygon fill="#4ea9ff" stroke="#404040" points="359.88,-44 322.12,-44 322.12,-24 359.88,-24 359.88,-44"/>
<text text-anchor="middle" x="341" y="-30.5" font-family="Helvetica,sans-Serif" font-size="10.00">PMS</text>
</a>
</g>
</g>
<!-- dir_5b7459fbbb92dfde2c1510b581237ade -->
<g id="node6" class="node">
<title>dir_5b7459fbbb92dfde2c1510b581237ade</title>
<g id="a_node6"><a xlink:href="dir_5b7459fbbb92dfde2c1510b581237ade.html" target="_top" xlink:title="RedTail">
<polygon fill="#4ea9ff" stroke="#404040" points="426.5,-44 377.5,-44 377.5,-24 426.5,-24 426.5,-44"/>
<text text-anchor="middle" x="402" y="-30.5" font-family="Helvetica,sans-Serif" font-size="10.00">RedTail</text>
</a>
</g>
</g>
<!-- dir_1efbf6315eb7004b232daa583480ae34 -->
<g id="node7" class="node">
<title>dir_1efbf6315eb7004b232daa583480ae34</title>
<g id="a_node7"><a xlink:href="dir_1efbf6315eb7004b232daa583480ae34.html" target="_top" xlink:title="Salesforce">
<polygon fill="#4ea9ff" stroke="#404040" points="507.25,-44 444.75,-44 444.75,-24 507.25,-24 507.25,-44"/>
<text text-anchor="middle" x="476" y="-30.5" font-family="Helvetica,sans-Serif" font-size="10.00">Salesforce</text>
</a>
</g>
</g>
<!-- dir_90ed3e00d02fac7efe9735328678193e -->
<g id="node8" class="node">
<title>dir_90ed3e00d02fac7efe9735328678193e</title>
<g id="a_node8"><a xlink:href="dir_90ed3e00d02fac7efe9735328678193e.html" target="_top" xlink:title="Social">
<polygon fill="#4ea9ff" stroke="#404040" points="568.5,-44 525.5,-44 525.5,-24 568.5,-24 568.5,-44"/>
<text text-anchor="middle" x="547" y="-30.5" font-family="Helvetica,sans-Serif" font-size="10.00">Social</text>
</a>
</g>
</g>
<!-- dir_077a7e02a75960bbe48bf31a3462e6cb -->
<g id="node9" class="node">
<title>dir_077a7e02a75960bbe48bf31a3462e6cb</title>
<g id="a_node9"><a xlink:href="dir_077a7e02a75960bbe48bf31a3462e6cb.html" target="_top" xlink:title="SparkPost">
<polygon fill="#4ea9ff" stroke="#404040" points="647.88,-44 586.12,-44 586.12,-24 647.88,-24 647.88,-44"/>
<text text-anchor="middle" x="617" y="-30.5" font-family="Helvetica,sans-Serif" font-size="10.00">SparkPost</text>
</a>
</g>
</g>
</g>
</svg>

<g id="navigator" transform="translate(0 0)" fill="#404254">
  <rect fill="#f2f5e9" fill-opacity="0.5" stroke="#606060" stroke-width=".5" x="0" y="0" width="60" height="60"/>
  <use id="zoomplus" xlink:href="#zoomPlus" x="17" y="9" onmousedown="handleZoom(evt,'in')"/>
  <use id="zoomminus" xlink:href="#zoomMin" x="42" y="9" onmousedown="handleZoom(evt,'out')"/>
  <use id="reset" xlink:href="#resetDef" x="30" y="36" onmousedown="handleReset()"/>
   <use id="arrowup" xlink:href="#arrowUp" x="0" y="0" onmousedown="handlePan(0,-1)"/>
  <use id="arrowright" xlink:href="#arrowRight" x="0" y="0" onmousedown="handlePan(1,0)"/>
  <use id="arrowdown" xlink:href="#arrowDown" x="0" y="0" onmousedown="handlePan(0,1)"/>
  <use id="arrowleft" xlink:href="#arrowLeft" x="0" y="0" onmousedown="handlePan(-1,0)"/>
</g>
<svg viewBox="0 0 15 15" width="100%" height="30px" preserveAspectRatio="xMaxYMin meet">
 <g id="arrow_out" transform="scale(0.3 0.3)">
  <a xlink:href="dir_96d3e59e59547f84e633a570c746b80b_dep_org.svg" target="_base">
   <rect id="button" ry="5" rx="5" y="6" x="6" height="38" width="38"
        fill="#f2f5e9" fill-opacity="0.5" stroke="#606060" stroke-width="1.0"/>
   <path id="arrow"
     d="M 11.500037,31.436501 C 11.940474,20.09759 22.043105,11.32322 32.158766,21.979434 L 37.068811,17.246167 C 37.068811,17.246167 37.088388,32 37.088388,32 L 22.160133,31.978069 C 22.160133,31.978069 26.997745,27.140456 26.997745,27.140456 C 18.528582,18.264221 13.291696,25.230495 11.500037,31.436501 z"
     style="fill:#404040;"/>
  </a>
 </g>
</svg>

<style type='text/css'>
<![CDATA[
[data-mouse-over-selected='false'] { opacity: 0.7; }
[data-mouse-over-selected='true']  { opacity: 1.0; }
]]>
</style>
<script type="application/ecmascript"><![CDATA[
document.addEventListener('DOMContentLoaded', (event) => {
  highlightEdges();
  highlightAdjacentNodes();
});
]]></script>
</svg>
