<?xml version="1.0" encoding="UTF-8" standalone="no"?>
<!DOCTYPE svg PUBLIC "-//W3C//DTD SVG 1.1//EN"
 "http://www.w3.org/Graphics/SVG/1.1/DTD/svg11.dtd">
<!-- Generated by graphviz version 12.1.1 (20240910.0053)
 -->
<!-- Title: Graphical Class Hierarchy Pages: 1 -->
<svg width="450pt" height="114pt"
 viewBox="0.00 0.00 449.50 114.00" xmlns="http://www.w3.org/2000/svg" xmlns:xlink="http://www.w3.org/1999/xlink">
<g id="graph0" class="graph" transform="scale(1 1) rotate(0) translate(4 110)">
<title>Graphical Class Hierarchy</title>
<!-- Node0 -->
<g id="Node000000" class="node">
<title>Node0</title>
<g id="a_Node000000"><a xlink:href="d3/d96/interface_deluxe_1_1_deluxe_brand_center_1_1_a_m_m_1_1_infrastructure_1_1_databases_1_1_i_application_db_context.html" target="_top" xlink:title=" ">
<polygon fill="white" stroke="#666666" points="204.25,-50 0,-50 0,-6 204.25,-6 204.25,-50"/>
<text text-anchor="start" x="8" y="-36.5" font-family="Helvetica,sans-Serif" font-size="10.00">Deluxe.DeluxeBrandCenter.</text>
<text text-anchor="start" x="8" y="-24.5" font-family="Helvetica,sans-Serif" font-size="10.00">AMM.Infrastructure.Databases.IApplication</text>
<text text-anchor="middle" x="102.12" y="-12.5" font-family="Helvetica,sans-Serif" font-size="10.00">DbContext</text>
</a>
</g>
</g>
<!-- Node1 -->
<g id="Node000001" class="node">
<title>Node1</title>
<g id="a_Node000001"><a xlink:href="d6/db1/class_deluxe_1_1_deluxe_brand_center_1_1_a_m_m_1_1_infrastructure_1_1_databases_1_1_application_db_context.html" target="_top" xlink:title=" ">
<polygon fill="white" stroke="#666666" points="441.5,-106 240.25,-106 240.25,-62 441.5,-62 441.5,-106"/>
<text text-anchor="start" x="248.25" y="-92.5" font-family="Helvetica,sans-Serif" font-size="10.00">Deluxe.DeluxeBrandCenter.</text>
<text text-anchor="start" x="248.25" y="-80.5" font-family="Helvetica,sans-Serif" font-size="10.00">AMM.Infrastructure.Databases.Application</text>
<text text-anchor="middle" x="340.88" y="-68.5" font-family="Helvetica,sans-Serif" font-size="10.00">DbContext</text>
</a>
</g>
</g>
<!-- Node0&#45;&gt;Node1 -->
<g id="edge152_Node000000_Node000001" class="edge">
<title>Node0&#45;&gt;Node1</title>
<g id="a_edge152_Node000000_Node000001"><a xlink:title=" ">
<path fill="none" stroke="#63b8ff" d="M208.99,-53.04C220.96,-55.87 233.1,-58.74 244.92,-61.54"/>
<polygon fill="#63b8ff" stroke="#63b8ff" points="210.07,-49.7 199.53,-50.8 208.45,-56.51 210.07,-49.7"/>
</a>
</g>
</g>
<!-- Node3 -->
<g id="Node000003" class="node">
<title>Node3</title>
<g id="a_Node000003"><a xlink:href="d9/de8/class_deluxe_1_1_deluxe_brand_center_1_1_a_m_m_1_1_tests_1_1_stubs_1_1_stub_application_db_context.html" target="_top" xlink:title=" ">
<polygon fill="white" stroke="#666666" points="423.88,-44 257.88,-44 257.88,0 423.88,0 423.88,-44"/>
<text text-anchor="start" x="265.88" y="-30.5" font-family="Helvetica,sans-Serif" font-size="10.00">Deluxe.DeluxeBrandCenter.</text>
<text text-anchor="start" x="265.88" y="-18.5" font-family="Helvetica,sans-Serif" font-size="10.00">AMM.Tests.Stubs.StubApplication</text>
<text text-anchor="middle" x="340.88" y="-6.5" font-family="Helvetica,sans-Serif" font-size="10.00">DbContext</text>
</a>
</g>
</g>
<!-- Node0&#45;&gt;Node3 -->
<g id="edge153_Node000000_Node000003" class="edge">
<title>Node0&#45;&gt;Node3</title>
<g id="a_edge153_Node000000_Node000003"><a xlink:title=" ">
<path fill="none" stroke="#63b8ff" d="M215.81,-25.14C229.89,-24.79 244.07,-24.43 257.57,-24.09"/>
<polygon fill="#63b8ff" stroke="#63b8ff" points="215.98,-21.64 206.07,-25.39 216.16,-28.64 215.98,-21.64"/>
</a>
</g>
</g>
<!-- Node2 -->
<g id="Node000002" class="node">
<title>Node2</title>
<g id="a_Node000002"><a xlink:title=" ">
<polygon fill="#e0e0e0" stroke="#999999" points="149.88,-94 54.38,-94 54.38,-74 149.88,-74 149.88,-94"/>
<text text-anchor="middle" x="102.12" y="-80.5" font-family="Helvetica,sans-Serif" font-size="10.00">IdentityDbContext</text>
</a>
</g>
</g>
<!-- Node2&#45;&gt;Node1 -->
<g id="edge154_Node000002_Node000001" class="edge">
<title>Node2&#45;&gt;Node1</title>
<g id="a_edge154_Node000002_Node000001"><a xlink:title=" ">
<path fill="none" stroke="#63b8ff" d="M161.45,-84C185.17,-84 213.26,-84 240.05,-84"/>
<polygon fill="#63b8ff" stroke="#63b8ff" points="161.7,-80.5 151.7,-84 161.7,-87.5 161.7,-80.5"/>
</a>
</g>
</g>
</g>
</svg>
