<?xml version="1.0" encoding="UTF-8" standalone="no"?>
<!DOCTYPE svg PUBLIC "-//W3C//DTD SVG 1.1//EN"
 "http://www.w3.org/Graphics/SVG/1.1/DTD/svg11.dtd">
<!-- Generated by graphviz version 12.1.1 (20240910.0053)
 -->
<!-- Title: Graphical Class Hierarchy Pages: 1 -->
<svg width="527pt" height="114pt"
 viewBox="0.00 0.00 527.00 114.00" xmlns="http://www.w3.org/2000/svg" xmlns:xlink="http://www.w3.org/1999/xlink">
<g id="graph0" class="graph" transform="scale(1 1) rotate(0) translate(4 110)">
<title>Graphical Class Hierarchy</title>
<!-- Node0 -->
<g id="Node000000" class="node">
<title>Node0</title>
<g id="a_Node000000"><a xlink:title=" ">
<polygon fill="#e0e0e0" stroke="#999999" points="59.5,-63 0,-63 0,-43 59.5,-43 59.5,-63"/>
<text text-anchor="middle" x="29.75" y="-49.5" font-family="Helvetica,sans-Serif" font-size="10.00">Exception</text>
</a>
</g>
</g>
<!-- Node1 -->
<g id="Node000001" class="node">
<title>Node1</title>
<g id="a_Node000001"><a xlink:href="da/d7b/class_deluxe_1_1_deluxe_brand_center_1_1_a_m_m_1_1_a_p_i_1_1_services_1_1_contact_manager_1_1_contact_manager_exception.html" target="_top" xlink:title=" ">
<polygon fill="white" stroke="#666666" points="281.38,-106 103.38,-106 103.38,-62 281.38,-62 281.38,-106"/>
<text text-anchor="start" x="111.38" y="-92.5" font-family="Helvetica,sans-Serif" font-size="10.00">Deluxe.DeluxeBrandCenter.</text>
<text text-anchor="start" x="111.38" y="-80.5" font-family="Helvetica,sans-Serif" font-size="10.00">AMM.API.Services.ContactManager.</text>
<text text-anchor="middle" x="192.38" y="-68.5" font-family="Helvetica,sans-Serif" font-size="10.00">ContactManagerException</text>
</a>
</g>
</g>
<!-- Node0&#45;&gt;Node1 -->
<g id="edge239_Node000000_Node000001" class="edge">
<title>Node0&#45;&gt;Node1</title>
<g id="a_edge239_Node000000_Node000001"><a xlink:title=" ">
<path fill="none" stroke="#63b8ff" d="M70.9,-60.75C80.79,-62.66 91.78,-64.78 102.98,-66.94"/>
<polygon fill="#63b8ff" stroke="#63b8ff" points="71.81,-57.36 61.32,-58.9 70.48,-64.23 71.81,-57.36"/>
</a>
</g>
</g>
<!-- Node2 -->
<g id="Node000002" class="node">
<title>Node2</title>
<g id="a_Node000002"><a xlink:href="df/d77/class_deluxe_1_1_deluxe_brand_center_1_1_a_m_m_1_1_domain_1_1_ext_service_model_1_1_mindfire_1_1_mind_fire_exception.html" target="_top" xlink:title=" ">
<polygon fill="white" stroke="#666666" points="289.25,-44 95.5,-44 95.5,0 289.25,0 289.25,-44"/>
<text text-anchor="start" x="103.5" y="-30.5" font-family="Helvetica,sans-Serif" font-size="10.00">Deluxe.DeluxeBrandCenter.</text>
<text text-anchor="start" x="103.5" y="-18.5" font-family="Helvetica,sans-Serif" font-size="10.00">AMM.Domain.ExtServiceModel.Mindfire.</text>
<text text-anchor="middle" x="192.38" y="-6.5" font-family="Helvetica,sans-Serif" font-size="10.00">MindFireException</text>
</a>
</g>
</g>
<!-- Node0&#45;&gt;Node2 -->
<g id="edge240_Node000000_Node000002" class="edge">
<title>Node0&#45;&gt;Node2</title>
<g id="a_edge240_Node000000_Node000002"><a xlink:title=" ">
<path fill="none" stroke="#63b8ff" d="M71.1,-45.21C78.62,-43.76 86.78,-42.19 95.18,-40.57"/>
<polygon fill="#63b8ff" stroke="#63b8ff" points="70.48,-41.77 61.32,-47.1 71.81,-48.64 70.48,-41.77"/>
</a>
</g>
</g>
<!-- Node3 -->
<g id="Node000003" class="node">
<title>Node3</title>
<g id="a_Node000003"><a xlink:href="d7/dcf/class_deluxe_1_1_deluxe_brand_center_1_1_a_m_m_1_1_domain_1_1_ext_service_model_1_1_mindfire_1_1_mind_fire_validation_exception.html" target="_top" xlink:title=" ">
<polygon fill="white" stroke="#666666" points="519,-44 325.25,-44 325.25,0 519,0 519,-44"/>
<text text-anchor="start" x="333.25" y="-30.5" font-family="Helvetica,sans-Serif" font-size="10.00">Deluxe.DeluxeBrandCenter.</text>
<text text-anchor="start" x="333.25" y="-18.5" font-family="Helvetica,sans-Serif" font-size="10.00">AMM.Domain.ExtServiceModel.Mindfire.</text>
<text text-anchor="middle" x="422.12" y="-6.5" font-family="Helvetica,sans-Serif" font-size="10.00">MindFireValidationException</text>
</a>
</g>
</g>
<!-- Node2&#45;&gt;Node3 -->
<g id="edge241_Node000002_Node000003" class="edge">
<title>Node2&#45;&gt;Node3</title>
<g id="a_edge241_Node000002_Node000003"><a xlink:title=" ">
<path fill="none" stroke="#63b8ff" d="M300.89,-22C308.89,-22 316.93,-22 324.85,-22"/>
<polygon fill="#63b8ff" stroke="#63b8ff" points="301.14,-18.5 291.14,-22 301.14,-25.5 301.14,-18.5"/>
</a>
</g>
</g>
</g>
</svg>
