<?xml version="1.0" encoding="UTF-8" standalone="no"?>
<!DOCTYPE svg PUBLIC "-//W3C//DTD SVG 1.1//EN"
 "http://www.w3.org/Graphics/SVG/1.1/DTD/svg11.dtd">
<!-- Generated by graphviz version 12.1.1 (20240910.0053)
 -->
<!-- Title: Graphical Class Hierarchy Pages: 1 -->
<svg width="592pt" height="108pt"
 viewBox="0.00 0.00 591.50 108.00" xmlns="http://www.w3.org/2000/svg" xmlns:xlink="http://www.w3.org/1999/xlink">
<g id="graph0" class="graph" transform="scale(1 1) rotate(0) translate(4 104)">
<title>Graphical Class Hierarchy</title>
<!-- Node0 -->
<g id="Node000000" class="node">
<title>Node0</title>
<g id="a_Node000000"><a xlink:href="da/d9e/class_deluxe_1_1_deluxe_brand_center_1_1_a_m_m_1_1_a_p_i_1_1_services_1_1_client_d_b_service.html" target="_top" xlink:title=" ">
<polygon fill="white" stroke="#666666" points="390.5,-100 214.75,-100 214.75,-56 390.5,-56 390.5,-100"/>
<text text-anchor="start" x="222.75" y="-86.5" font-family="Helvetica,sans-Serif" font-size="10.00">Deluxe.DeluxeBrandCenter.</text>
<text text-anchor="start" x="222.75" y="-74.5" font-family="Helvetica,sans-Serif" font-size="10.00">AMM.API.Services.ClientDBService</text>
<text text-anchor="middle" x="302.62" y="-62.5" font-family="Helvetica,sans-Serif" font-size="10.00">&lt; User, UserVM &gt;</text>
</a>
</g>
</g>
<!-- Node1 -->
<g id="Node000001" class="node">
<title>Node1</title>
<g id="a_Node000001"><a xlink:href="d3/df8/class_deluxe_1_1_deluxe_brand_center_1_1_a_m_m_1_1_a_p_i_1_1_services_1_1_user_service.html" target="_top" xlink:title=" ">
<polygon fill="white" stroke="#666666" points="583.5,-66 426.5,-66 426.5,-34 583.5,-34 583.5,-66"/>
<text text-anchor="start" x="434.5" y="-52.5" font-family="Helvetica,sans-Serif" font-size="10.00">Deluxe.DeluxeBrandCenter.</text>
<text text-anchor="middle" x="505" y="-40.5" font-family="Helvetica,sans-Serif" font-size="10.00">AMM.API.Services.UserService</text>
</a>
</g>
</g>
<!-- Node0&#45;&gt;Node1 -->
<g id="edge30_Node000000_Node000001" class="edge">
<title>Node0&#45;&gt;Node1</title>
<g id="a_edge30_Node000000_Node000001"><a xlink:title=" ">
<path fill="none" stroke="#63b8ff" d="M402.23,-64.22C410.25,-63.1 418.27,-61.98 426.11,-60.88"/>
<polygon fill="#63b8ff" stroke="#63b8ff" points="401.85,-60.74 392.43,-65.59 402.82,-67.67 401.85,-60.74"/>
</a>
</g>
</g>
<!-- Node3 -->
<g id="Node000003" class="node">
<title>Node3</title>
<g id="a_Node000003"><a xlink:href="d0/dcc/interface_deluxe_1_1_deluxe_brand_center_1_1_a_m_m_1_1_a_p_i_1_1_services_1_1_i_client_d_b_service.html" target="_top" xlink:title=" ">
<polygon fill="white" stroke="#666666" points="178.75,-44 0,-44 0,0 178.75,0 178.75,-44"/>
<text text-anchor="start" x="8" y="-30.5" font-family="Helvetica,sans-Serif" font-size="10.00">Deluxe.DeluxeBrandCenter.</text>
<text text-anchor="start" x="8" y="-18.5" font-family="Helvetica,sans-Serif" font-size="10.00">AMM.API.Services.IClientDBService</text>
<text text-anchor="middle" x="89.38" y="-6.5" font-family="Helvetica,sans-Serif" font-size="10.00">&lt; User, UserVM &gt;</text>
</a>
</g>
</g>
<!-- Node2 -->
<g id="Node000002" class="node">
<title>Node2</title>
<g id="a_Node000002"><a xlink:href="d7/d38/interface_deluxe_1_1_deluxe_brand_center_1_1_a_m_m_1_1_a_p_i_1_1_services_1_1_i_user_service.html" target="_top" xlink:title=" ">
<polygon fill="white" stroke="#666666" points="382.62,-38 222.62,-38 222.62,-6 382.62,-6 382.62,-38"/>
<text text-anchor="start" x="230.62" y="-24.5" font-family="Helvetica,sans-Serif" font-size="10.00">Deluxe.DeluxeBrandCenter.</text>
<text text-anchor="middle" x="302.62" y="-12.5" font-family="Helvetica,sans-Serif" font-size="10.00">AMM.API.Services.IUserService</text>
</a>
</g>
</g>
<!-- Node3&#45;&gt;Node2 -->
<g id="edge31_Node000003_Node000002" class="edge">
<title>Node3&#45;&gt;Node2</title>
<g id="a_edge31_Node000003_Node000002"><a xlink:title=" ">
<path fill="none" stroke="#63b8ff" d="M190.54,-22C201.18,-22 211.9,-22 222.25,-22"/>
<polygon fill="#63b8ff" stroke="#63b8ff" points="190.56,-18.5 180.56,-22 190.56,-25.5 190.56,-18.5"/>
</a>
</g>
</g>
<!-- Node2&#45;&gt;Node1 -->
<g id="edge32_Node000002_Node000001" class="edge">
<title>Node2&#45;&gt;Node1</title>
<g id="a_edge32_Node000002_Node000001"><a xlink:title=" ">
<path fill="none" stroke="#63b8ff" d="M394.19,-34.66C404.89,-36.15 415.75,-37.67 426.25,-39.14"/>
<polygon fill="#63b8ff" stroke="#63b8ff" points="394.99,-31.23 384.61,-33.32 394.02,-38.17 394.99,-31.23"/>
</a>
</g>
</g>
</g>
</svg>
