<?xml version="1.0" encoding="UTF-8" standalone="no"?>
<!DOCTYPE svg PUBLIC "-//W3C//DTD SVG 1.1//EN"
 "http://www.w3.org/Graphics/SVG/1.1/DTD/svg11.dtd">
<!-- Generated by graphviz version 12.1.1 (20240910.0053)
 -->
<!-- Title: Graphical Class Hierarchy Pages: 1 -->
<svg width="644pt" height="108pt"
 viewBox="0.00 0.00 644.00 108.00" xmlns="http://www.w3.org/2000/svg" xmlns:xlink="http://www.w3.org/1999/xlink">
<g id="graph0" class="graph" transform="scale(1 1) rotate(0) translate(4 104)">
<title>Graphical Class Hierarchy</title>
<!-- Node0 -->
<g id="Node000000" class="node">
<title>Node0</title>
<g id="a_Node000000"><a xlink:href="d6/d4e/class_deluxe_1_1_deluxe_brand_center_1_1_a_m_m_1_1_a_p_i_1_1_services_1_1_d_b_service.html" target="_top" xlink:title=" ">
<polygon fill="white" stroke="#666666" points="392.75,-100 220.75,-100 220.75,-56 392.75,-56 392.75,-100"/>
<text text-anchor="start" x="228.75" y="-86.5" font-family="Helvetica,sans-Serif" font-size="10.00">Deluxe.DeluxeBrandCenter.</text>
<text text-anchor="start" x="228.75" y="-74.5" font-family="Helvetica,sans-Serif" font-size="10.00">AMM.API.Services.DBService</text>
<text text-anchor="middle" x="306.75" y="-62.5" font-family="Helvetica,sans-Serif" font-size="10.00">&lt; EmailDomain, EmailDomainVM &gt;</text>
</a>
</g>
</g>
<!-- Node1 -->
<g id="Node000001" class="node">
<title>Node1</title>
<g id="a_Node000001"><a xlink:href="dc/d62/class_deluxe_1_1_deluxe_brand_center_1_1_a_m_m_1_1_a_p_i_1_1_services_1_1_email_domain_service.html" target="_top" xlink:title=" ">
<polygon fill="white" stroke="#666666" points="636,-66 441.5,-66 441.5,-34 636,-34 636,-66"/>
<text text-anchor="start" x="449.5" y="-52.5" font-family="Helvetica,sans-Serif" font-size="10.00">Deluxe.DeluxeBrandCenter.</text>
<text text-anchor="middle" x="538.75" y="-40.5" font-family="Helvetica,sans-Serif" font-size="10.00">AMM.API.Services.EmailDomainService</text>
</a>
</g>
</g>
<!-- Node0&#45;&gt;Node1 -->
<g id="edge36_Node000000_Node000001" class="edge">
<title>Node0&#45;&gt;Node1</title>
<g id="a_edge36_Node000000_Node000001"><a xlink:title=" ">
<path fill="none" stroke="#63b8ff" d="M404.24,-66.25C416.51,-64.76 429.07,-63.23 441.34,-61.74"/>
<polygon fill="#63b8ff" stroke="#63b8ff" points="404.07,-62.75 394.57,-67.43 404.92,-69.7 404.07,-62.75"/>
</a>
</g>
</g>
<!-- Node3 -->
<g id="Node000003" class="node">
<title>Node3</title>
<g id="a_Node000003"><a xlink:href="d3/ddb/interface_deluxe_1_1_deluxe_brand_center_1_1_a_m_m_1_1_a_p_i_1_1_services_1_1_i_d_b_service.html" target="_top" xlink:title=" ">
<polygon fill="white" stroke="#666666" points="172,-44 0,-44 0,0 172,0 172,-44"/>
<text text-anchor="start" x="8" y="-30.5" font-family="Helvetica,sans-Serif" font-size="10.00">Deluxe.DeluxeBrandCenter.</text>
<text text-anchor="start" x="8" y="-18.5" font-family="Helvetica,sans-Serif" font-size="10.00">AMM.API.Services.IDBService</text>
<text text-anchor="middle" x="86" y="-6.5" font-family="Helvetica,sans-Serif" font-size="10.00">&lt; EmailDomain, EmailDomainVM &gt;</text>
</a>
</g>
</g>
<!-- Node2 -->
<g id="Node000002" class="node">
<title>Node2</title>
<g id="a_Node000002"><a xlink:href="d1/d31/interface_deluxe_1_1_deluxe_brand_center_1_1_a_m_m_1_1_a_p_i_1_1_services_1_1_i_email_domain_service.html" target="_top" xlink:title=" ">
<polygon fill="white" stroke="#666666" points="405.5,-38 208,-38 208,-6 405.5,-6 405.5,-38"/>
<text text-anchor="start" x="216" y="-24.5" font-family="Helvetica,sans-Serif" font-size="10.00">Deluxe.DeluxeBrandCenter.</text>
<text text-anchor="middle" x="306.75" y="-12.5" font-family="Helvetica,sans-Serif" font-size="10.00">AMM.API.Services.IEmailDomainService</text>
</a>
</g>
</g>
<!-- Node3&#45;&gt;Node2 -->
<g id="edge37_Node000003_Node000002" class="edge">
<title>Node3&#45;&gt;Node2</title>
<g id="a_edge37_Node000003_Node000002"><a xlink:title=" ">
<path fill="none" stroke="#63b8ff" d="M183.48,-22C191.52,-22 199.65,-22 207.7,-22"/>
<polygon fill="#63b8ff" stroke="#63b8ff" points="183.71,-18.5 173.71,-22 183.71,-25.5 183.71,-18.5"/>
</a>
</g>
</g>
<!-- Node2&#45;&gt;Node1 -->
<g id="edge38_Node000002_Node000001" class="edge">
<title>Node2&#45;&gt;Node1</title>
<g id="a_edge38_Node000002_Node000001"><a xlink:title=" ">
<path fill="none" stroke="#63b8ff" d="M417.28,-35.33C425.31,-36.31 433.38,-37.29 441.33,-38.26"/>
<polygon fill="#63b8ff" stroke="#63b8ff" points="417.81,-31.87 407.46,-34.14 416.96,-38.82 417.81,-31.87"/>
</a>
</g>
</g>
</g>
</svg>
