<?xml version="1.0" encoding="UTF-8" standalone="no"?>
<!DOCTYPE svg PUBLIC "-//W3C//DTD SVG 1.1//EN"
 "http://www.w3.org/Graphics/SVG/1.1/DTD/svg11.dtd">
<!-- Generated by graphviz version 12.1.1 (20240910.0053)
 -->
<!-- Title: Graphical Class Hierarchy Pages: 1 -->
<svg width="623pt" height="114pt"
 viewBox="0.00 0.00 623.00 114.00" xmlns="http://www.w3.org/2000/svg" xmlns:xlink="http://www.w3.org/1999/xlink">
<g id="graph0" class="graph" transform="scale(1 1) rotate(0) translate(4 110)">
<title>Graphical Class Hierarchy</title>
<!-- Node0 -->
<g id="Node000000" class="node">
<title>Node0</title>
<g id="a_Node000000"><a xlink:href="d6/d4e/class_deluxe_1_1_deluxe_brand_center_1_1_a_m_m_1_1_a_p_i_1_1_services_1_1_d_b_service.html" target="_top" xlink:title=" ">
<polygon fill="white" stroke="#666666" points="410,-106 223,-106 223,-62 410,-62 410,-106"/>
<text text-anchor="start" x="231" y="-92.5" font-family="Helvetica,sans-Serif" font-size="10.00">Deluxe.DeluxeBrandCenter.</text>
<text text-anchor="start" x="231" y="-80.5" font-family="Helvetica,sans-Serif" font-size="10.00">AMM.API.Services.DBService</text>
<text text-anchor="middle" x="316.5" y="-68.5" font-family="Helvetica,sans-Serif" font-size="10.00">&lt; SignatureBlock, SignatureBlockVM &gt;</text>
</a>
</g>
</g>
<!-- Node1 -->
<g id="Node000001" class="node">
<title>Node1</title>
<g id="a_Node000001"><a xlink:href="d5/dd8/class_deluxe_1_1_deluxe_brand_center_1_1_a_m_m_1_1_a_p_i_1_1_services_1_1_signature_block_service.html" target="_top" xlink:title=" ">
<polygon fill="white" stroke="#666666" points="615,-75 446,-75 446,-31 615,-31 615,-75"/>
<text text-anchor="start" x="454" y="-61.5" font-family="Helvetica,sans-Serif" font-size="10.00">Deluxe.DeluxeBrandCenter.</text>
<text text-anchor="start" x="454" y="-49.5" font-family="Helvetica,sans-Serif" font-size="10.00">AMM.API.Services.SignatureBlock</text>
<text text-anchor="middle" x="530.5" y="-37.5" font-family="Helvetica,sans-Serif" font-size="10.00">Service</text>
</a>
</g>
</g>
<!-- Node0&#45;&gt;Node1 -->
<g id="edge39_Node000000_Node000001" class="edge">
<title>Node0&#45;&gt;Node1</title>
<g id="a_edge39_Node000000_Node000001"><a xlink:title=" ">
<path fill="none" stroke="#63b8ff" d="M421.76,-68.75C429.75,-67.59 437.76,-66.42 445.59,-65.27"/>
<polygon fill="#63b8ff" stroke="#63b8ff" points="421.37,-65.27 411.98,-70.18 422.39,-72.2 421.37,-65.27"/>
</a>
</g>
</g>
<!-- Node3 -->
<g id="Node000003" class="node">
<title>Node3</title>
<g id="a_Node000003"><a xlink:href="d3/ddb/interface_deluxe_1_1_deluxe_brand_center_1_1_a_m_m_1_1_a_p_i_1_1_services_1_1_i_d_b_service.html" target="_top" xlink:title=" ">
<polygon fill="white" stroke="#666666" points="187,-44 0,-44 0,0 187,0 187,-44"/>
<text text-anchor="start" x="8" y="-30.5" font-family="Helvetica,sans-Serif" font-size="10.00">Deluxe.DeluxeBrandCenter.</text>
<text text-anchor="start" x="8" y="-18.5" font-family="Helvetica,sans-Serif" font-size="10.00">AMM.API.Services.IDBService</text>
<text text-anchor="middle" x="93.5" y="-6.5" font-family="Helvetica,sans-Serif" font-size="10.00">&lt; SignatureBlock, SignatureBlockVM &gt;</text>
</a>
</g>
</g>
<!-- Node2 -->
<g id="Node000002" class="node">
<title>Node2</title>
<g id="a_Node000002"><a xlink:href="dd/d36/interface_deluxe_1_1_deluxe_brand_center_1_1_a_m_m_1_1_a_p_i_1_1_services_1_1_i_signature_block_service.html" target="_top" xlink:title=" ">
<polygon fill="white" stroke="#666666" points="402.5,-44 230.5,-44 230.5,0 402.5,0 402.5,-44"/>
<text text-anchor="start" x="238.5" y="-30.5" font-family="Helvetica,sans-Serif" font-size="10.00">Deluxe.DeluxeBrandCenter.</text>
<text text-anchor="start" x="238.5" y="-18.5" font-family="Helvetica,sans-Serif" font-size="10.00">AMM.API.Services.ISignatureBlock</text>
<text text-anchor="middle" x="316.5" y="-6.5" font-family="Helvetica,sans-Serif" font-size="10.00">Service</text>
</a>
</g>
</g>
<!-- Node3&#45;&gt;Node2 -->
<g id="edge40_Node000003_Node000002" class="edge">
<title>Node3&#45;&gt;Node2</title>
<g id="a_edge40_Node000003_Node000002"><a xlink:title=" ">
<path fill="none" stroke="#63b8ff" d="M198.63,-22C209.14,-22 219.73,-22 230.02,-22"/>
<polygon fill="#63b8ff" stroke="#63b8ff" points="198.78,-18.5 188.78,-22 198.78,-25.5 198.78,-18.5"/>
</a>
</g>
</g>
<!-- Node2&#45;&gt;Node1 -->
<g id="edge41_Node000002_Node000001" class="edge">
<title>Node2&#45;&gt;Node1</title>
<g id="a_edge41_Node000002_Node000001"><a xlink:title=" ">
<path fill="none" stroke="#63b8ff" d="M414.18,-36.14C424.72,-37.68 435.38,-39.24 445.74,-40.75"/>
<polygon fill="#63b8ff" stroke="#63b8ff" points="414.71,-32.68 404.31,-34.69 413.7,-39.6 414.71,-32.68"/>
</a>
</g>
</g>
</g>
</svg>
