<?xml version="1.0" encoding="UTF-8" standalone="no"?>
<!DOCTYPE svg PUBLIC "-//W3C//DTD SVG 1.1//EN"
 "http://www.w3.org/Graphics/SVG/1.1/DTD/svg11.dtd">
<!-- Generated by graphviz version 12.1.1 (20240910.0053)
 -->
<!-- Title: Graphical Class Hierarchy Pages: 1 -->
<svg width="329pt" height="114pt"
 viewBox="0.00 0.00 328.75 114.00" xmlns="http://www.w3.org/2000/svg" xmlns:xlink="http://www.w3.org/1999/xlink">
<g id="graph0" class="graph" transform="scale(1 1) rotate(0) translate(4 110)">
<title>Graphical Class Hierarchy</title>
<!-- Node0 -->
<g id="Node000000" class="node">
<title>Node0</title>
<g id="a_Node000000"><a xlink:title=" ">
<polygon fill="#e0e0e0" stroke="#999999" points="83.5,-63 0,-63 0,-43 83.5,-43 83.5,-63"/>
<text text-anchor="middle" x="41.75" y="-49.5" font-family="Helvetica,sans-Serif" font-size="10.00">ModelSnapshot</text>
</a>
</g>
</g>
<!-- Node1 -->
<g id="Node000001" class="node">
<title>Node1</title>
<g id="a_Node000001"><a xlink:href="df/d9b/class_deluxe_1_1_deluxe_brand_center_1_1_a_m_m_1_1_infrastructure_1_1_databases_1_1_migrations_143ee0339b37f1a42cfd23dc07f8ac048.html" target="_top" xlink:title=" ">
<polygon fill="white" stroke="#666666" points="320.75,-106 119.5,-106 119.5,-62 320.75,-62 320.75,-106"/>
<text text-anchor="start" x="127.5" y="-92.5" font-family="Helvetica,sans-Serif" font-size="10.00">Deluxe.DeluxeBrandCenter.</text>
<text text-anchor="start" x="127.5" y="-80.5" font-family="Helvetica,sans-Serif" font-size="10.00">AMM.Infrastructure.Databases.Migrations.</text>
<text text-anchor="middle" x="220.12" y="-68.5" font-family="Helvetica,sans-Serif" font-size="10.00">ApplicationDbContextModelSnapshot</text>
</a>
</g>
</g>
<!-- Node0&#45;&gt;Node1 -->
<g id="edge420_Node000000_Node000001" class="edge">
<title>Node0&#45;&gt;Node1</title>
<g id="a_edge420_Node000000_Node000001"><a xlink:title=" ">
<path fill="none" stroke="#63b8ff" d="M94.94,-62.17C102.63,-63.52 110.75,-64.95 119.02,-66.41"/>
<polygon fill="#63b8ff" stroke="#63b8ff" points="95.6,-58.74 85.15,-60.45 94.39,-65.63 95.6,-58.74"/>
</a>
</g>
</g>
<!-- Node2 -->
<g id="Node000002" class="node">
<title>Node2</title>
<g id="a_Node000002"><a xlink:href="d9/d7b/class_deluxe_1_1_deluxe_brand_center_1_1_a_m_m_1_1_infrastructure_1_1_databases_1_1_migrations_1dd5478fe2c4fc254a8719bdad013b685.html" target="_top" xlink:title=" ">
<polygon fill="white" stroke="#666666" points="320.75,-44 119.5,-44 119.5,0 320.75,0 320.75,-44"/>
<text text-anchor="start" x="127.5" y="-30.5" font-family="Helvetica,sans-Serif" font-size="10.00">Deluxe.DeluxeBrandCenter.</text>
<text text-anchor="start" x="127.5" y="-18.5" font-family="Helvetica,sans-Serif" font-size="10.00">AMM.Infrastructure.Databases.Migrations.</text>
<text text-anchor="middle" x="220.12" y="-6.5" font-family="Helvetica,sans-Serif" font-size="10.00">ClientDb.ClientDbContextModelSnapshot</text>
</a>
</g>
</g>
<!-- Node0&#45;&gt;Node2 -->
<g id="edge421_Node000000_Node000002" class="edge">
<title>Node0&#45;&gt;Node2</title>
<g id="a_edge421_Node000000_Node000002"><a xlink:title=" ">
<path fill="none" stroke="#63b8ff" d="M94.94,-43.83C102.63,-42.48 110.75,-41.05 119.02,-39.59"/>
<polygon fill="#63b8ff" stroke="#63b8ff" points="94.39,-40.37 85.15,-45.55 95.6,-47.26 94.39,-40.37"/>
</a>
</g>
</g>
</g>
</svg>
