<?xml version="1.0" encoding="UTF-8" standalone="no"?>
<!DOCTYPE svg PUBLIC "-//W3C//DTD SVG 1.1//EN"
 "http://www.w3.org/Graphics/SVG/1.1/DTD/svg11.dtd">
<!-- Generated by graphviz version 12.1.1 (20240910.0053)
 -->
<!-- Title: Graphical Class Hierarchy Pages: 1 -->
<svg width="908pt" height="238pt"
 viewBox="0.00 0.00 907.50 238.00" xmlns="http://www.w3.org/2000/svg" xmlns:xlink="http://www.w3.org/1999/xlink">
<g id="graph0" class="graph" transform="scale(1 1) rotate(0) translate(4 234)">
<title>Graphical Class Hierarchy</title>
<!-- Node0 -->
<g id="Node000000" class="node">
<title>Node0</title>
<g id="a_Node000000"><a xlink:href="d3/ddb/interface_deluxe_1_1_deluxe_brand_center_1_1_a_m_m_1_1_a_p_i_1_1_services_1_1_i_d_b_service.html" target="_top" xlink:title=" ">
<polygon fill="white" stroke="#666666" points="185.5,-230 0,-230 0,-186 185.5,-186 185.5,-230"/>
<text text-anchor="start" x="8" y="-216.5" font-family="Helvetica,sans-Serif" font-size="10.00">Deluxe.DeluxeBrandCenter.</text>
<text text-anchor="start" x="8" y="-204.5" font-family="Helvetica,sans-Serif" font-size="10.00">AMM.API.Services.IDBService</text>
<text text-anchor="middle" x="92.75" y="-192.5" font-family="Helvetica,sans-Serif" font-size="10.00">&lt; UserCampaign, UserCampaignVM &gt;</text>
</a>
</g>
</g>
<!-- Node1 -->
<g id="Node000001" class="node">
<title>Node1</title>
<g id="a_Node000001"><a xlink:href="d9/daf/interface_deluxe_1_1_deluxe_brand_center_1_1_a_m_m_1_1_a_p_i_1_1_services_1_1_i_user_campaign_service.html" target="_top" xlink:title=" ">
<polygon fill="white" stroke="#666666" points="408.88,-230 237.62,-230 237.62,-186 408.88,-186 408.88,-230"/>
<text text-anchor="start" x="245.62" y="-216.5" font-family="Helvetica,sans-Serif" font-size="10.00">Deluxe.DeluxeBrandCenter.</text>
<text text-anchor="start" x="245.62" y="-204.5" font-family="Helvetica,sans-Serif" font-size="10.00">AMM.API.Services.IUserCampaign</text>
<text text-anchor="middle" x="323.25" y="-192.5" font-family="Helvetica,sans-Serif" font-size="10.00">Service</text>
</a>
</g>
</g>
<!-- Node0&#45;&gt;Node1 -->
<g id="edge54_Node000000_Node000001" class="edge">
<title>Node0&#45;&gt;Node1</title>
<g id="a_edge54_Node000000_Node000001"><a xlink:title=" ">
<path fill="none" stroke="#63b8ff" d="M196.93,-208C210.38,-208 224.04,-208 237.14,-208"/>
<polygon fill="#63b8ff" stroke="#63b8ff" points="197.22,-204.5 187.22,-208 197.22,-211.5 197.22,-204.5"/>
</a>
</g>
</g>
<!-- Node2 -->
<g id="Node000002" class="node">
<title>Node2</title>
<g id="a_Node000002"><a xlink:href="d8/d0b/class_deluxe_1_1_deluxe_brand_center_1_1_a_m_m_1_1_a_p_i_1_1_services_1_1_user_campaign_service.html" target="_top" xlink:title=" ">
<polygon fill="white" stroke="#666666" points="663,-191 461.75,-191 461.75,-159 663,-159 663,-191"/>
<text text-anchor="start" x="469.75" y="-177.5" font-family="Helvetica,sans-Serif" font-size="10.00">Deluxe.DeluxeBrandCenter.</text>
<text text-anchor="middle" x="562.38" y="-165.5" font-family="Helvetica,sans-Serif" font-size="10.00">AMM.API.Services.UserCampaignService</text>
</a>
</g>
</g>
<!-- Node1&#45;&gt;Node2 -->
<g id="edge55_Node000001_Node000002" class="edge">
<title>Node1&#45;&gt;Node2</title>
<g id="a_edge55_Node000001_Node000002"><a xlink:title=" ">
<path fill="none" stroke="#63b8ff" d="M420.39,-194.62C433.86,-192.75 447.72,-190.82 461.26,-188.93"/>
<polygon fill="#63b8ff" stroke="#63b8ff" points="420.11,-191.13 410.69,-195.97 421.07,-198.06 420.11,-191.13"/>
</a>
</g>
</g>
<!-- Node7 -->
<g id="Node000007" class="node">
<title>Node7</title>
<g id="a_Node000007"><a xlink:href="d9/dbf/interface_deluxe_1_1_deluxe_brand_center_1_1_a_m_m_1_1_tests_1_1_mocks_1_1_i_mock_service.html" target="_top" xlink:title=" ">
<polygon fill="white" stroke="#666666" points="425,-44 221.5,-44 221.5,0 425,0 425,-44"/>
<text text-anchor="start" x="229.5" y="-30.5" font-family="Helvetica,sans-Serif" font-size="10.00">Deluxe.DeluxeBrandCenter.</text>
<text text-anchor="start" x="229.5" y="-18.5" font-family="Helvetica,sans-Serif" font-size="10.00">AMM.Tests.Mocks.IMockService</text>
<text text-anchor="middle" x="323.25" y="-6.5" font-family="Helvetica,sans-Serif" font-size="10.00">&lt; CampaignBuilderServiceDependencies &gt;</text>
</a>
</g>
</g>
<!-- Node6 -->
<g id="Node000006" class="node">
<title>Node6</title>
<g id="a_Node000006"><a xlink:href="d1/d36/interface_deluxe_1_1_deluxe_brand_center_1_1_a_m_m_1_1_tests_1_1_mocks_1_1_i_mock_campaign_builder_service.html" target="_top" xlink:title=" ">
<polygon fill="white" stroke="#666666" points="663.75,-76 461,-76 461,-32 663.75,-32 663.75,-76"/>
<text text-anchor="start" x="469" y="-62.5" font-family="Helvetica,sans-Serif" font-size="10.00">Deluxe.DeluxeBrandCenter.</text>
<text text-anchor="start" x="469" y="-50.5" font-family="Helvetica,sans-Serif" font-size="10.00">AMM.Tests.Mocks.IMockCampaignBuilder</text>
<text text-anchor="middle" x="562.38" y="-38.5" font-family="Helvetica,sans-Serif" font-size="10.00">Service</text>
</a>
</g>
</g>
<!-- Node7&#45;&gt;Node6 -->
<g id="edge56_Node000007_Node000006" class="edge">
<title>Node7&#45;&gt;Node6</title>
<g id="a_edge56_Node000007_Node000006"><a xlink:title=" ">
<path fill="none" stroke="#63b8ff" d="M436.48,-37.15C444.52,-38.23 452.59,-39.32 460.56,-40.39"/>
<polygon fill="#63b8ff" stroke="#63b8ff" points="437.03,-33.69 426.66,-35.82 436.1,-40.63 437.03,-33.69"/>
</a>
</g>
</g>
<!-- Node5 -->
<g id="Node000005" class="node">
<title>Node5</title>
<g id="a_Node000005"><a xlink:href="d3/d00/class_deluxe_1_1_deluxe_brand_center_1_1_a_m_m_1_1_tests_1_1_mocks_1_1_mock_campaign_builder_service.html" target="_top" xlink:title=" ">
<polygon fill="white" stroke="#666666" points="899.5,-107 699.75,-107 699.75,-63 899.5,-63 899.5,-107"/>
<text text-anchor="start" x="707.75" y="-93.5" font-family="Helvetica,sans-Serif" font-size="10.00">Deluxe.DeluxeBrandCenter.</text>
<text text-anchor="start" x="707.75" y="-81.5" font-family="Helvetica,sans-Serif" font-size="10.00">AMM.Tests.Mocks.MockCampaignBuilder</text>
<text text-anchor="middle" x="799.62" y="-69.5" font-family="Helvetica,sans-Serif" font-size="10.00">Service</text>
</a>
</g>
</g>
<!-- Node6&#45;&gt;Node5 -->
<g id="edge57_Node000006_Node000005" class="edge">
<title>Node6&#45;&gt;Node5</title>
<g id="a_edge57_Node000006_Node000005"><a xlink:title=" ">
<path fill="none" stroke="#63b8ff" d="M675.49,-68.77C683.52,-69.83 691.59,-70.9 699.54,-71.94"/>
<polygon fill="#63b8ff" stroke="#63b8ff" points="676.04,-65.32 665.67,-67.48 675.12,-72.26 676.04,-65.32"/>
</a>
</g>
</g>
<!-- Node9 -->
<g id="Node000009" class="node">
<title>Node9</title>
<g id="a_Node000009"><a xlink:href="d3/dac/interface_deluxe_1_1_deluxe_brand_center_1_1_a_m_m_1_1_a_p_i_1_1_services_1_1_i_named_db_service.html" target="_top" xlink:title=" ">
<polygon fill="white" stroke="#666666" points="185.5,-106 0,-106 0,-62 185.5,-62 185.5,-106"/>
<text text-anchor="start" x="8" y="-92.5" font-family="Helvetica,sans-Serif" font-size="10.00">Deluxe.DeluxeBrandCenter.</text>
<text text-anchor="start" x="8" y="-80.5" font-family="Helvetica,sans-Serif" font-size="10.00">AMM.API.Services.INamedDbService</text>
<text text-anchor="middle" x="92.75" y="-68.5" font-family="Helvetica,sans-Serif" font-size="10.00">&lt; UserCampaign, UserCampaignVM &gt;</text>
</a>
</g>
</g>
<!-- Node8 -->
<g id="Node000008" class="node">
<title>Node8</title>
<g id="a_Node000008"><a xlink:href="d6/d35/interface_deluxe_1_1_deluxe_brand_center_1_1_a_m_m_1_1_a_p_i_1_1_services_1_1_i_campaign_builder_service.html" target="_top" xlink:title=" ">
<polygon fill="white" stroke="#666666" points="413.38,-106 233.12,-106 233.12,-62 413.38,-62 413.38,-106"/>
<text text-anchor="start" x="241.12" y="-92.5" font-family="Helvetica,sans-Serif" font-size="10.00">Deluxe.DeluxeBrandCenter.</text>
<text text-anchor="start" x="241.12" y="-80.5" font-family="Helvetica,sans-Serif" font-size="10.00">AMM.API.Services.ICampaignBuilder</text>
<text text-anchor="middle" x="323.25" y="-68.5" font-family="Helvetica,sans-Serif" font-size="10.00">Service</text>
</a>
</g>
</g>
<!-- Node9&#45;&gt;Node8 -->
<g id="edge58_Node000009_Node000008" class="edge">
<title>Node9&#45;&gt;Node8</title>
<g id="a_edge58_Node000009_Node000008"><a xlink:title=" ">
<path fill="none" stroke="#63b8ff" d="M197.05,-84C208.95,-84 221.01,-84 232.71,-84"/>
<polygon fill="#63b8ff" stroke="#63b8ff" points="197.22,-80.5 187.22,-84 197.22,-87.5 197.22,-80.5"/>
</a>
</g>
</g>
<!-- Node8&#45;&gt;Node6 -->
<g id="edge61_Node000008_Node000006" class="edge">
<title>Node8&#45;&gt;Node6</title>
<g id="a_edge61_Node000008_Node000006"><a xlink:title=" ">
<path fill="none" stroke="#63b8ff" d="M424.83,-71.28C436.67,-69.78 448.77,-68.25 460.61,-66.75"/>
<polygon fill="#63b8ff" stroke="#63b8ff" points="424.54,-67.78 415.06,-72.51 425.42,-74.73 424.54,-67.78"/>
</a>
</g>
</g>
<!-- Node4 -->
<g id="Node000004" class="node">
<title>Node4</title>
<g id="a_Node000004"><a xlink:href="d6/d65/class_deluxe_1_1_deluxe_brand_center_1_1_a_m_m_1_1_a_p_i_1_1_services_1_1_campaign_builder_service.html" target="_top" xlink:title=" ">
<polygon fill="white" stroke="#666666" points="651,-138 473.75,-138 473.75,-94 651,-94 651,-138"/>
<text text-anchor="start" x="481.75" y="-124.5" font-family="Helvetica,sans-Serif" font-size="10.00">Deluxe.DeluxeBrandCenter.</text>
<text text-anchor="start" x="481.75" y="-112.5" font-family="Helvetica,sans-Serif" font-size="10.00">AMM.API.Services.CampaignBuilder</text>
<text text-anchor="middle" x="562.38" y="-100.5" font-family="Helvetica,sans-Serif" font-size="10.00">Service</text>
</a>
</g>
</g>
<!-- Node8&#45;&gt;Node4 -->
<g id="edge59_Node000008_Node000004" class="edge">
<title>Node8&#45;&gt;Node4</title>
<g id="a_edge59_Node000008_Node000004"><a xlink:title=" ">
<path fill="none" stroke="#63b8ff" d="M424.67,-97.55C440.84,-99.73 457.47,-101.98 473.33,-104.12"/>
<polygon fill="#63b8ff" stroke="#63b8ff" points="425.44,-94.12 415.06,-96.25 424.5,-101.06 425.44,-94.12"/>
</a>
</g>
</g>
<!-- Node4&#45;&gt;Node5 -->
<g id="edge60_Node000004_Node000005" class="edge">
<title>Node4&#45;&gt;Node5</title>
<g id="a_edge60_Node000004_Node000005"><a xlink:title=" ">
<path fill="none" stroke="#63b8ff" d="M662.43,-102.95C674.64,-101.34 687.12,-99.69 699.33,-98.08"/>
<polygon fill="#63b8ff" stroke="#63b8ff" points="662.27,-99.44 652.81,-104.21 663.18,-106.38 662.27,-99.44"/>
</a>
</g>
</g>
<!-- Node3 -->
<g id="Node000003" class="node">
<title>Node3</title>
<g id="a_Node000003"><a xlink:href="dd/dd8/class_deluxe_1_1_deluxe_brand_center_1_1_a_m_m_1_1_a_p_i_1_1_services_1_1_named_db_service.html" target="_top" xlink:title=" ">
<polygon fill="white" stroke="#666666" points="416,-168 230.5,-168 230.5,-124 416,-124 416,-168"/>
<text text-anchor="start" x="238.5" y="-154.5" font-family="Helvetica,sans-Serif" font-size="10.00">Deluxe.DeluxeBrandCenter.</text>
<text text-anchor="start" x="238.5" y="-142.5" font-family="Helvetica,sans-Serif" font-size="10.00">AMM.API.Services.NamedDbService</text>
<text text-anchor="middle" x="323.25" y="-130.5" font-family="Helvetica,sans-Serif" font-size="10.00">&lt; UserCampaign, UserCampaignVM &gt;</text>
</a>
</g>
</g>
<!-- Node3&#45;&gt;Node2 -->
<g id="edge63_Node000003_Node000002" class="edge">
<title>Node3&#45;&gt;Node2</title>
<g id="a_edge63_Node000003_Node000002"><a xlink:title=" ">
<path fill="none" stroke="#63b8ff" d="M427.49,-158.63C438.8,-160.01 450.29,-161.41 461.55,-162.79"/>
<polygon fill="#63b8ff" stroke="#63b8ff" points="428.12,-155.18 417.77,-157.44 427.27,-162.13 428.12,-155.18"/>
</a>
</g>
</g>
<!-- Node3&#45;&gt;Node4 -->
<g id="edge62_Node000003_Node000004" class="edge">
<title>Node3&#45;&gt;Node4</title>
<g id="a_edge62_Node000003_Node000004"><a xlink:title=" ">
<path fill="none" stroke="#63b8ff" d="M427.34,-132.96C442.66,-131.02 458.33,-129.04 473.3,-127.14"/>
<polygon fill="#63b8ff" stroke="#63b8ff" points="427.25,-129.44 417.77,-134.17 428.13,-136.39 427.25,-129.44"/>
</a>
</g>
</g>
</g>
</svg>
