<?xml version="1.0" encoding="UTF-8" standalone="no"?>
<!DOCTYPE svg PUBLIC "-//W3C//DTD SVG 1.1//EN"
 "http://www.w3.org/Graphics/SVG/1.1/DTD/svg11.dtd">
<!-- Generated by graphviz version 12.1.1 (20240910.0053)
 -->
<!-- Title: Graphical Class Hierarchy Pages: 1 -->
<svg width="951pt" height="269pt"
 viewBox="0.00 0.00 951.00 269.00" xmlns="http://www.w3.org/2000/svg" xmlns:xlink="http://www.w3.org/1999/xlink">
<g id="graph0" class="graph" transform="scale(1 1) rotate(0) translate(4 265)">
<title>Graphical Class Hierarchy</title>
<!-- Node0 -->
<g id="Node000000" class="node">
<title>Node0</title>
<g id="a_Node000000"><a xlink:href="d2/dc6/class_deluxe_1_1_deluxe_brand_center_1_1_a_m_m_1_1_tests_1_1_s_u_t_1_1_domain_1_1_utility_1_1_c_0c0591159136c0b6fcf71b2ebd606c8b.html" target="_top" xlink:title=" ">
<polygon fill="white" stroke="#666666" points="208.75,-75 0,-75 0,-31 208.75,-31 208.75,-75"/>
<text text-anchor="start" x="8" y="-61.5" font-family="Helvetica,sans-Serif" font-size="10.00">Deluxe.DeluxeBrandCenter.</text>
<text text-anchor="start" x="8" y="-49.5" font-family="Helvetica,sans-Serif" font-size="10.00">AMM.Tests.SUT.Domain.Utility.CSVHelper.</text>
<text text-anchor="middle" x="104.38" y="-37.5" font-family="Helvetica,sans-Serif" font-size="10.00">Validate.Test</text>
</a>
</g>
</g>
<!-- Node1 -->
<g id="Node000001" class="node">
<title>Node1</title>
<g id="a_Node000001"><a xlink:href="d5/d59/class_deluxe_1_1_deluxe_brand_center_1_1_a_m_m_1_1_tests_1_1_s_u_t_1_1_domain_1_1_utility_1_1_c_0c1cc7186836f8055f71b0a1b5c1d39f.html" target="_top" xlink:title=" ">
<polygon fill="white" stroke="#666666" points="453.5,-106 244.75,-106 244.75,-62 453.5,-62 453.5,-106"/>
<text text-anchor="start" x="252.75" y="-92.5" font-family="Helvetica,sans-Serif" font-size="10.00">Deluxe.DeluxeBrandCenter.</text>
<text text-anchor="start" x="252.75" y="-80.5" font-family="Helvetica,sans-Serif" font-size="10.00">AMM.Tests.SUT.Domain.Utility.CSVHelper.</text>
<text text-anchor="middle" x="349.12" y="-68.5" font-family="Helvetica,sans-Serif" font-size="10.00">Validate.FailureTestWithoutDefaultActer</text>
</a>
</g>
</g>
<!-- Node0&#45;&gt;Node1 -->
<g id="edge230_Node000000_Node000001" class="edge">
<title>Node0&#45;&gt;Node1</title>
<g id="a_edge230_Node000000_Node000001"><a xlink:title=" ">
<path fill="none" stroke="#63b8ff" d="M220.35,-67.68C228.39,-68.71 236.46,-69.74 244.43,-70.76"/>
<polygon fill="#63b8ff" stroke="#63b8ff" points="220.89,-64.22 210.53,-66.43 220,-71.17 220.89,-64.22"/>
</a>
</g>
</g>
<!-- Node9 -->
<g id="Node000009" class="node">
<title>Node9</title>
<g id="a_Node000009"><a xlink:href="d1/de1/class_deluxe_1_1_deluxe_brand_center_1_1_a_m_m_1_1_tests_1_1_s_u_t_1_1_domain_1_1_utility_1_1_c_e1df454e52065d6b2e559bef184da083.html" target="_top" xlink:title=" ">
<polygon fill="white" stroke="#666666" points="453.5,-44 244.75,-44 244.75,0 453.5,0 453.5,-44"/>
<text text-anchor="start" x="252.75" y="-30.5" font-family="Helvetica,sans-Serif" font-size="10.00">Deluxe.DeluxeBrandCenter.</text>
<text text-anchor="start" x="252.75" y="-18.5" font-family="Helvetica,sans-Serif" font-size="10.00">AMM.Tests.SUT.Domain.Utility.CSVHelper.</text>
<text text-anchor="middle" x="349.12" y="-6.5" font-family="Helvetica,sans-Serif" font-size="10.00">Validate.Success</text>
</a>
</g>
</g>
<!-- Node0&#45;&gt;Node9 -->
<g id="edge238_Node000000_Node000009" class="edge">
<title>Node0&#45;&gt;Node9</title>
<g id="a_edge238_Node000000_Node000009"><a xlink:title=" ">
<path fill="none" stroke="#63b8ff" d="M220.35,-38.32C228.39,-37.29 236.46,-36.26 244.43,-35.24"/>
<polygon fill="#63b8ff" stroke="#63b8ff" points="220,-34.83 210.53,-39.57 220.89,-41.78 220,-34.83"/>
</a>
</g>
</g>
<!-- Node2 -->
<g id="Node000002" class="node">
<title>Node2</title>
<g id="a_Node000002"><a xlink:href="dc/df6/class_deluxe_1_1_deluxe_brand_center_1_1_a_m_m_1_1_tests_1_1_s_u_t_1_1_domain_1_1_utility_1_1_c_3b25b5dfd0a6c0fc22bc89261ef780e4.html" target="_top" xlink:title=" ">
<polygon fill="white" stroke="#666666" points="698.25,-168 489.5,-168 489.5,-124 698.25,-124 698.25,-168"/>
<text text-anchor="start" x="497.5" y="-154.5" font-family="Helvetica,sans-Serif" font-size="10.00">Deluxe.DeluxeBrandCenter.</text>
<text text-anchor="start" x="497.5" y="-142.5" font-family="Helvetica,sans-Serif" font-size="10.00">AMM.Tests.SUT.Domain.Utility.CSVHelper.</text>
<text text-anchor="middle" x="593.88" y="-130.5" font-family="Helvetica,sans-Serif" font-size="10.00">Validate.FailureTest</text>
</a>
</g>
</g>
<!-- Node1&#45;&gt;Node2 -->
<g id="edge231_Node000001_Node000002" class="edge">
<title>Node1&#45;&gt;Node2</title>
<g id="a_edge231_Node000001_Node000002"><a xlink:title=" ">
<path fill="none" stroke="#63b8ff" d="M449.16,-109.29C467.59,-114 486.72,-118.89 504.79,-123.5"/>
<polygon fill="#63b8ff" stroke="#63b8ff" points="450.13,-105.93 439.57,-106.85 448.4,-112.71 450.13,-105.93"/>
</a>
</g>
</g>
<!-- Node7 -->
<g id="Node000007" class="node">
<title>Node7</title>
<g id="a_Node000007"><a xlink:href="d1/d21/class_deluxe_1_1_deluxe_brand_center_1_1_a_m_m_1_1_tests_1_1_s_u_t_1_1_domain_1_1_utility_1_1_c_223071db8f8ae1df3fa2bacc9ff5b016.html" target="_top" xlink:title=" ">
<polygon fill="white" stroke="#666666" points="698.25,-106 489.5,-106 489.5,-62 698.25,-62 698.25,-106"/>
<text text-anchor="start" x="497.5" y="-92.5" font-family="Helvetica,sans-Serif" font-size="10.00">Deluxe.DeluxeBrandCenter.</text>
<text text-anchor="start" x="497.5" y="-80.5" font-family="Helvetica,sans-Serif" font-size="10.00">AMM.Tests.SUT.Domain.Utility.CSVHelper.</text>
<text text-anchor="middle" x="593.88" y="-68.5" font-family="Helvetica,sans-Serif" font-size="10.00">Validate.MalformedRowError</text>
</a>
</g>
</g>
<!-- Node1&#45;&gt;Node7 -->
<g id="edge236_Node000001_Node000007" class="edge">
<title>Node1&#45;&gt;Node7</title>
<g id="a_edge236_Node000001_Node000007"><a xlink:title=" ">
<path fill="none" stroke="#63b8ff" d="M465.1,-84C473.14,-84 481.21,-84 489.18,-84"/>
<polygon fill="#63b8ff" stroke="#63b8ff" points="465.29,-80.5 455.29,-84 465.29,-87.5 465.29,-80.5"/>
</a>
</g>
</g>
<!-- Node8 -->
<g id="Node000008" class="node">
<title>Node8</title>
<g id="a_Node000008"><a xlink:href="d4/dd5/class_deluxe_1_1_deluxe_brand_center_1_1_a_m_m_1_1_tests_1_1_s_u_t_1_1_domain_1_1_utility_1_1_c_f29b47d5f87c722b5c26b2d49b7bb47d.html" target="_top" xlink:title=" ">
<polygon fill="white" stroke="#666666" points="698.25,-44 489.5,-44 489.5,0 698.25,0 698.25,-44"/>
<text text-anchor="start" x="497.5" y="-30.5" font-family="Helvetica,sans-Serif" font-size="10.00">Deluxe.DeluxeBrandCenter.</text>
<text text-anchor="start" x="497.5" y="-18.5" font-family="Helvetica,sans-Serif" font-size="10.00">AMM.Tests.SUT.Domain.Utility.CSVHelper.</text>
<text text-anchor="middle" x="593.88" y="-6.5" font-family="Helvetica,sans-Serif" font-size="10.00">Validate.NotEnoughColumnsError</text>
</a>
</g>
</g>
<!-- Node1&#45;&gt;Node8 -->
<g id="edge237_Node000001_Node000008" class="edge">
<title>Node1&#45;&gt;Node8</title>
<g id="a_edge237_Node000001_Node000008"><a xlink:title=" ">
<path fill="none" stroke="#63b8ff" d="M449.16,-58.71C467.59,-54 486.72,-49.11 504.79,-44.5"/>
<polygon fill="#63b8ff" stroke="#63b8ff" points="448.4,-55.29 439.57,-61.15 450.13,-62.07 448.4,-55.29"/>
</a>
</g>
</g>
<!-- Node3 -->
<g id="Node000003" class="node">
<title>Node3</title>
<g id="a_Node000003"><a xlink:href="d9/d45/class_deluxe_1_1_deluxe_brand_center_1_1_a_m_m_1_1_tests_1_1_s_u_t_1_1_domain_1_1_utility_1_1_c_343468b8d83770ba3b955c82b828f30d.html" target="_top" xlink:title=" ">
<polygon fill="white" stroke="#666666" points="943,-261 734.25,-261 734.25,-217 943,-217 943,-261"/>
<text text-anchor="start" x="742.25" y="-247.5" font-family="Helvetica,sans-Serif" font-size="10.00">Deluxe.DeluxeBrandCenter.</text>
<text text-anchor="start" x="742.25" y="-235.5" font-family="Helvetica,sans-Serif" font-size="10.00">AMM.Tests.SUT.Domain.Utility.CSVHelper.</text>
<text text-anchor="middle" x="838.62" y="-223.5" font-family="Helvetica,sans-Serif" font-size="10.00">Validate.DuplicateHeadersError</text>
</a>
</g>
</g>
<!-- Node2&#45;&gt;Node3 -->
<g id="edge232_Node000002_Node000003" class="edge">
<title>Node2&#45;&gt;Node3</title>
<g id="a_edge232_Node000002_Node000003"><a xlink:title=" ">
<path fill="none" stroke="#63b8ff" d="M651.75,-173.27C676.76,-184.74 706.66,-197.77 734.25,-208 742.16,-210.93 750.48,-213.79 758.82,-216.51"/>
<polygon fill="#63b8ff" stroke="#63b8ff" points="653.27,-170.12 642.73,-169.09 650.34,-176.47 653.27,-170.12"/>
</a>
</g>
</g>
<!-- Node4 -->
<g id="Node000004" class="node">
<title>Node4</title>
<g id="a_Node000004"><a xlink:href="d9/d02/class_deluxe_1_1_deluxe_brand_center_1_1_a_m_m_1_1_tests_1_1_s_u_t_1_1_domain_1_1_utility_1_1_c_59ed60615affa9c544f24dd3996f97a5.html" target="_top" xlink:title=" ">
<polygon fill="white" stroke="#666666" points="943,-199 734.25,-199 734.25,-155 943,-155 943,-199"/>
<text text-anchor="start" x="742.25" y="-185.5" font-family="Helvetica,sans-Serif" font-size="10.00">Deluxe.DeluxeBrandCenter.</text>
<text text-anchor="start" x="742.25" y="-173.5" font-family="Helvetica,sans-Serif" font-size="10.00">AMM.Tests.SUT.Domain.Utility.CSVHelper.</text>
<text text-anchor="middle" x="838.62" y="-161.5" font-family="Helvetica,sans-Serif" font-size="10.00">Validate.GroupNameHeaderError</text>
</a>
</g>
</g>
<!-- Node2&#45;&gt;Node4 -->
<g id="edge233_Node000002_Node000004" class="edge">
<title>Node2&#45;&gt;Node4</title>
<g id="a_edge233_Node000002_Node000004"><a xlink:title=" ">
<path fill="none" stroke="#63b8ff" d="M709.85,-160.68C717.89,-161.71 725.96,-162.74 733.93,-163.76"/>
<polygon fill="#63b8ff" stroke="#63b8ff" points="710.39,-157.22 700.03,-159.43 709.5,-164.17 710.39,-157.22"/>
</a>
</g>
</g>
<!-- Node5 -->
<g id="Node000005" class="node">
<title>Node5</title>
<g id="a_Node000005"><a xlink:href="d3/dc8/class_deluxe_1_1_deluxe_brand_center_1_1_a_m_m_1_1_tests_1_1_s_u_t_1_1_domain_1_1_utility_1_1_c_dd252a39ed45aa609e1faffd54cf8bca.html" target="_top" xlink:title=" ">
<polygon fill="white" stroke="#666666" points="943,-137 734.25,-137 734.25,-93 943,-93 943,-137"/>
<text text-anchor="start" x="742.25" y="-123.5" font-family="Helvetica,sans-Serif" font-size="10.00">Deluxe.DeluxeBrandCenter.</text>
<text text-anchor="start" x="742.25" y="-111.5" font-family="Helvetica,sans-Serif" font-size="10.00">AMM.Tests.SUT.Domain.Utility.CSVHelper.</text>
<text text-anchor="middle" x="838.62" y="-99.5" font-family="Helvetica,sans-Serif" font-size="10.00">Validate.GroupNameWithSpaceHeaderError</text>
</a>
</g>
</g>
<!-- Node2&#45;&gt;Node5 -->
<g id="edge234_Node000002_Node000005" class="edge">
<title>Node2&#45;&gt;Node5</title>
<g id="a_edge234_Node000002_Node000005"><a xlink:title=" ">
<path fill="none" stroke="#63b8ff" d="M709.85,-131.32C717.89,-130.29 725.96,-129.26 733.93,-128.24"/>
<polygon fill="#63b8ff" stroke="#63b8ff" points="709.5,-127.83 700.03,-132.57 710.39,-134.78 709.5,-127.83"/>
</a>
</g>
</g>
<!-- Node6 -->
<g id="Node000006" class="node">
<title>Node6</title>
<g id="a_Node000006"><a xlink:href="da/da9/class_deluxe_1_1_deluxe_brand_center_1_1_a_m_m_1_1_tests_1_1_s_u_t_1_1_domain_1_1_utility_1_1_c_d7781deb2855cdef4c0e80c9ed837a65.html" target="_top" xlink:title=" ">
<polygon fill="white" stroke="#666666" points="943,-75 734.25,-75 734.25,-31 943,-31 943,-75"/>
<text text-anchor="start" x="742.25" y="-61.5" font-family="Helvetica,sans-Serif" font-size="10.00">Deluxe.DeluxeBrandCenter.</text>
<text text-anchor="start" x="742.25" y="-49.5" font-family="Helvetica,sans-Serif" font-size="10.00">AMM.Tests.SUT.Domain.Utility.CSVHelper.</text>
<text text-anchor="middle" x="838.62" y="-37.5" font-family="Helvetica,sans-Serif" font-size="10.00">Validate.NoDataError</text>
</a>
</g>
</g>
<!-- Node2&#45;&gt;Node6 -->
<g id="edge235_Node000002_Node000006" class="edge">
<title>Node2&#45;&gt;Node6</title>
<g id="a_edge235_Node000002_Node000006"><a xlink:title=" ">
<path fill="none" stroke="#63b8ff" d="M690.62,-118.92C693.22,-117.66 695.77,-116.36 698.25,-115 716.77,-104.86 715.73,-94.14 734.25,-84 739.92,-80.89 745.94,-78.06 752.11,-75.49"/>
<polygon fill="#63b8ff" stroke="#63b8ff" points="689.46,-115.61 681.77,-122.89 692.33,-121.99 689.46,-115.61"/>
</a>
</g>
</g>
</g>
</svg>
