<?xml version="1.0" encoding="UTF-8" standalone="no"?>
<!DOCTYPE svg PUBLIC "-//W3C//DTD SVG 1.1//EN"
 "http://www.w3.org/Graphics/SVG/1.1/DTD/svg11.dtd">
<!-- Generated by graphviz version 12.1.1 (20240910.0053)
 -->
<!-- Title: Graphical Class Hierarchy Pages: 1 -->
<svg width="596pt" height="126pt"
 viewBox="0.00 0.00 596.00 126.00" xmlns="http://www.w3.org/2000/svg" xmlns:xlink="http://www.w3.org/1999/xlink">
<g id="graph0" class="graph" transform="scale(1 1) rotate(0) translate(4 122)">
<title>Graphical Class Hierarchy</title>
<!-- Node0 -->
<g id="Node000000" class="node">
<title>Node0</title>
<g id="a_Node000000"><a xlink:href="da/d9e/class_deluxe_1_1_deluxe_brand_center_1_1_a_m_m_1_1_a_p_i_1_1_services_1_1_client_d_b_service.html" target="_top" xlink:title=" ">
<polygon fill="white" stroke="#666666" points="390.5,-118 214.75,-118 214.75,-62 390.5,-62 390.5,-118"/>
<text text-anchor="start" x="222.75" y="-104.5" font-family="Helvetica,sans-Serif" font-size="10.00">Deluxe.DeluxeBrandCenter.</text>
<text text-anchor="start" x="222.75" y="-92.5" font-family="Helvetica,sans-Serif" font-size="10.00">AMM.API.Services.ClientDBService</text>
<text text-anchor="start" x="222.75" y="-80.5" font-family="Helvetica,sans-Serif" font-size="10.00">&lt; Domain.DataModel.Client.Client,</text>
<text text-anchor="middle" x="302.62" y="-68.5" font-family="Helvetica,sans-Serif" font-size="10.00"> ClientVM &gt;</text>
</a>
</g>
</g>
<!-- Node1 -->
<g id="Node000001" class="node">
<title>Node1</title>
<g id="a_Node000001"><a xlink:href="dd/d67/class_deluxe_1_1_deluxe_brand_center_1_1_a_m_m_1_1_a_p_i_1_1_services_1_1_client_service.html" target="_top" xlink:title=" ">
<polygon fill="white" stroke="#666666" points="588,-75 426.5,-75 426.5,-43 588,-43 588,-75"/>
<text text-anchor="start" x="434.5" y="-61.5" font-family="Helvetica,sans-Serif" font-size="10.00">Deluxe.DeluxeBrandCenter.</text>
<text text-anchor="middle" x="507.25" y="-49.5" font-family="Helvetica,sans-Serif" font-size="10.00">AMM.API.Services.ClientService</text>
</a>
</g>
</g>
<!-- Node0&#45;&gt;Node1 -->
<g id="edge27_Node000000_Node000001" class="edge">
<title>Node0&#45;&gt;Node1</title>
<g id="a_edge27_Node000000_Node000001"><a xlink:title=" ">
<path fill="none" stroke="#63b8ff" d="M401.85,-74.97C410.03,-73.72 418.24,-72.47 426.26,-71.24"/>
<polygon fill="#63b8ff" stroke="#63b8ff" points="401.58,-71.47 392.23,-76.44 402.64,-78.39 401.58,-71.47"/>
</a>
</g>
</g>
<!-- Node3 -->
<g id="Node000003" class="node">
<title>Node3</title>
<g id="a_Node000003"><a xlink:href="d0/dcc/interface_deluxe_1_1_deluxe_brand_center_1_1_a_m_m_1_1_a_p_i_1_1_services_1_1_i_client_d_b_service.html" target="_top" xlink:title=" ">
<polygon fill="white" stroke="#666666" points="178.75,-56 0,-56 0,0 178.75,0 178.75,-56"/>
<text text-anchor="start" x="8" y="-42.5" font-family="Helvetica,sans-Serif" font-size="10.00">Deluxe.DeluxeBrandCenter.</text>
<text text-anchor="start" x="8" y="-30.5" font-family="Helvetica,sans-Serif" font-size="10.00">AMM.API.Services.IClientDBService</text>
<text text-anchor="start" x="8" y="-18.5" font-family="Helvetica,sans-Serif" font-size="10.00">&lt; Domain.DataModel.Client.Client,</text>
<text text-anchor="middle" x="89.38" y="-6.5" font-family="Helvetica,sans-Serif" font-size="10.00"> ClientVM &gt;</text>
</a>
</g>
</g>
<!-- Node2 -->
<g id="Node000002" class="node">
<title>Node2</title>
<g id="a_Node000002"><a xlink:href="d0/d36/interface_deluxe_1_1_deluxe_brand_center_1_1_a_m_m_1_1_a_p_i_1_1_services_1_1_i_client_service.html" target="_top" xlink:title=" ">
<polygon fill="white" stroke="#666666" points="384.88,-44 220.38,-44 220.38,-12 384.88,-12 384.88,-44"/>
<text text-anchor="start" x="228.38" y="-30.5" font-family="Helvetica,sans-Serif" font-size="10.00">Deluxe.DeluxeBrandCenter.</text>
<text text-anchor="middle" x="302.62" y="-18.5" font-family="Helvetica,sans-Serif" font-size="10.00">AMM.API.Services.IClientService</text>
</a>
</g>
</g>
<!-- Node3&#45;&gt;Node2 -->
<g id="edge28_Node000003_Node000002" class="edge">
<title>Node3&#45;&gt;Node2</title>
<g id="a_edge28_Node000003_Node000002"><a xlink:title=" ">
<path fill="none" stroke="#63b8ff" d="M190.55,-28C200.39,-28 210.29,-28 219.92,-28"/>
<polygon fill="#63b8ff" stroke="#63b8ff" points="190.56,-24.5 180.56,-28 190.56,-31.5 190.56,-24.5"/>
</a>
</g>
</g>
<!-- Node2&#45;&gt;Node1 -->
<g id="edge29_Node000002_Node000001" class="edge">
<title>Node2&#45;&gt;Node1</title>
<g id="a_edge29_Node000002_Node000001"><a xlink:title=" ">
<path fill="none" stroke="#63b8ff" d="M396.35,-42.19C406.32,-43.71 416.39,-45.25 426.2,-46.75"/>
<polygon fill="#63b8ff" stroke="#63b8ff" points="397.07,-38.76 386.66,-40.7 396.02,-45.68 397.07,-38.76"/>
</a>
</g>
</g>
</g>
</svg>
