<?xml version="1.0" encoding="UTF-8" standalone="no"?>
<!DOCTYPE svg PUBLIC "-//W3C//DTD SVG 1.1//EN"
 "http://www.w3.org/Graphics/SVG/1.1/DTD/svg11.dtd">
<!-- Generated by graphviz version 12.1.1 (20240910.0053)
 -->
<!-- Title: Graphical Class Hierarchy Pages: 1 -->
<svg width="413pt" height="1676pt"
 viewBox="0.00 0.00 412.75 1676.00" xmlns="http://www.w3.org/2000/svg" xmlns:xlink="http://www.w3.org/1999/xlink">
<g id="graph0" class="graph" transform="scale(1 1) rotate(0) translate(4 1672)">
<title>Graphical Class Hierarchy</title>
<!-- Node0 -->
<g id="Node000000" class="node">
<title>Node0</title>
<g id="a_Node000000"><a xlink:title=" ">
<polygon fill="#e0e0e0" stroke="#999999" points="123.25,-850 0,-850 0,-830 123.25,-830 123.25,-850"/>
<text text-anchor="middle" x="61.62" y="-836.5" font-family="Helvetica,sans-Serif" font-size="10.00">IEntityTypeConfiguration</text>
</a>
</g>
</g>
<!-- Node1 -->
<g id="Node000001" class="node">
<title>Node1</title>
<g id="a_Node000001"><a xlink:href="d6/dca/class_deluxe_1_1_deluxe_brand_center_1_1_a_m_m_1_1_infrastructure_1_1_databases_1_1_entity_confi4f4cc3d35494cc7d266be9429910ea83.html" target="_top" xlink:title=" ">
<polygon fill="white" stroke="#666666" points="381.5,-1668 182.5,-1668 182.5,-1624 381.5,-1624 381.5,-1668"/>
<text text-anchor="start" x="190.5" y="-1654.5" font-family="Helvetica,sans-Serif" font-size="10.00">Deluxe.DeluxeBrandCenter.</text>
<text text-anchor="start" x="190.5" y="-1642.5" font-family="Helvetica,sans-Serif" font-size="10.00">AMM.Infrastructure.Databases.Entity</text>
<text text-anchor="middle" x="282" y="-1630.5" font-family="Helvetica,sans-Serif" font-size="10.00">Configuration.AccountStatusConfiguration</text>
</a>
</g>
</g>
<!-- Node0&#45;&gt;Node1 -->
<g id="edge304_Node000000_Node000001" class="edge">
<title>Node0&#45;&gt;Node1</title>
<g id="a_edge304_Node000000_Node000001"><a xlink:title=" ">
<path fill="none" stroke="#63b8ff" d="M63.87,-861.49C70.98,-980.61 107.82,-1556.68 159.25,-1615 165.67,-1622.28 173.54,-1627.96 182.15,-1632.39"/>
<polygon fill="#63b8ff" stroke="#63b8ff" points="67.39,-861.62 63.3,-851.84 60.4,-862.03 67.39,-861.62"/>
</a>
</g>
</g>
<!-- Node2 -->
<g id="Node000002" class="node">
<title>Node2</title>
<g id="a_Node000002"><a xlink:href="d8/d80/class_deluxe_1_1_deluxe_brand_center_1_1_a_m_m_1_1_infrastructure_1_1_databases_1_1_entity_confi4164294837557a9bf0b75e0f2c2d546e.html" target="_top" xlink:title=" ">
<polygon fill="white" stroke="#666666" points="371.38,-1606 192.62,-1606 192.62,-1562 371.38,-1562 371.38,-1606"/>
<text text-anchor="start" x="200.62" y="-1592.5" font-family="Helvetica,sans-Serif" font-size="10.00">Deluxe.DeluxeBrandCenter.</text>
<text text-anchor="start" x="200.62" y="-1580.5" font-family="Helvetica,sans-Serif" font-size="10.00">AMM.Infrastructure.Databases.Entity</text>
<text text-anchor="middle" x="282" y="-1568.5" font-family="Helvetica,sans-Serif" font-size="10.00">Configuration.CampaignConfiguration</text>
</a>
</g>
</g>
<!-- Node0&#45;&gt;Node2 -->
<g id="edge305_Node000000_Node000002" class="edge">
<title>Node0&#45;&gt;Node2</title>
<g id="a_edge305_Node000000_Node000002"><a xlink:title=" ">
<path fill="none" stroke="#63b8ff" d="M62.43,-861.61C61.91,-969.33 64.99,-1447.27 159.25,-1553 168.18,-1563.01 179.84,-1570 192.41,-1574.85"/>
<polygon fill="#63b8ff" stroke="#63b8ff" points="65.93,-861.9 62.5,-851.87 58.93,-861.85 65.93,-861.9"/>
</a>
</g>
</g>
<!-- Node3 -->
<g id="Node000003" class="node">
<title>Node3</title>
<g id="a_Node000003"><a xlink:href="d2/d9e/class_deluxe_1_1_deluxe_brand_center_1_1_a_m_m_1_1_infrastructure_1_1_databases_1_1_entity_confi1463052556f182f623029bf2fefdbbd0.html" target="_top" xlink:title=" ">
<polygon fill="white" stroke="#666666" points="389.38,-1544 174.62,-1544 174.62,-1500 389.38,-1500 389.38,-1544"/>
<text text-anchor="start" x="182.62" y="-1530.5" font-family="Helvetica,sans-Serif" font-size="10.00">Deluxe.DeluxeBrandCenter.</text>
<text text-anchor="start" x="182.62" y="-1518.5" font-family="Helvetica,sans-Serif" font-size="10.00">AMM.Infrastructure.Databases.Entity</text>
<text text-anchor="middle" x="282" y="-1506.5" font-family="Helvetica,sans-Serif" font-size="10.00">Configuration.CampaignElementConfiguration</text>
</a>
</g>
</g>
<!-- Node0&#45;&gt;Node3 -->
<g id="edge306_Node000000_Node000003" class="edge">
<title>Node0&#45;&gt;Node3</title>
<g id="a_edge306_Node000000_Node000003"><a xlink:title=" ">
<path fill="none" stroke="#63b8ff" d="M62.74,-861.64C63.72,-963.63 72.97,-1395.44 159.25,-1491 163.64,-1495.86 168.66,-1500 174.13,-1503.53"/>
<polygon fill="#63b8ff" stroke="#63b8ff" points="66.24,-861.9 62.66,-851.93 59.24,-861.95 66.24,-861.9"/>
</a>
</g>
</g>
<!-- Node4 -->
<g id="Node000004" class="node">
<title>Node4</title>
<g id="a_Node000004"><a xlink:href="de/de8/class_deluxe_1_1_deluxe_brand_center_1_1_a_m_m_1_1_infrastructure_1_1_databases_1_1_entity_confi0de5768972ee792f2bc159d12afb9e8d.html" target="_top" xlink:title=" ">
<polygon fill="white" stroke="#666666" points="386.75,-1482 177.25,-1482 177.25,-1438 386.75,-1438 386.75,-1482"/>
<text text-anchor="start" x="185.25" y="-1468.5" font-family="Helvetica,sans-Serif" font-size="10.00">Deluxe.DeluxeBrandCenter.</text>
<text text-anchor="start" x="185.25" y="-1456.5" font-family="Helvetica,sans-Serif" font-size="10.00">AMM.Infrastructure.Databases.Entity</text>
<text text-anchor="middle" x="282" y="-1444.5" font-family="Helvetica,sans-Serif" font-size="10.00">Configuration.CampaignSettingConfiguration</text>
</a>
</g>
</g>
<!-- Node0&#45;&gt;Node4 -->
<g id="edge307_Node000000_Node000004" class="edge">
<title>Node0&#45;&gt;Node4</title>
<g id="a_edge307_Node000000_Node000004"><a xlink:title=" ">
<path fill="none" stroke="#63b8ff" d="M63.11,-861.66C65.7,-957.64 80.92,-1343.56 159.25,-1429 164.41,-1434.63 170.43,-1439.29 176.99,-1443.16"/>
<polygon fill="#63b8ff" stroke="#63b8ff" points="66.61,-861.74 62.87,-851.84 59.62,-861.92 66.61,-861.74"/>
</a>
</g>
</g>
<!-- Node5 -->
<g id="Node000005" class="node">
<title>Node5</title>
<g id="a_Node000005"><a xlink:href="d9/d54/class_deluxe_1_1_deluxe_brand_center_1_1_a_m_m_1_1_infrastructure_1_1_databases_1_1_entity_confi8163127419461d0a8ed443d3a8be81f8.html" target="_top" xlink:title=" ">
<polygon fill="white" stroke="#666666" points="381.88,-1420 182.12,-1420 182.12,-1376 381.88,-1376 381.88,-1420"/>
<text text-anchor="start" x="190.12" y="-1406.5" font-family="Helvetica,sans-Serif" font-size="10.00">Deluxe.DeluxeBrandCenter.</text>
<text text-anchor="start" x="190.12" y="-1394.5" font-family="Helvetica,sans-Serif" font-size="10.00">AMM.Infrastructure.Databases.Entity</text>
<text text-anchor="middle" x="282" y="-1382.5" font-family="Helvetica,sans-Serif" font-size="10.00">Configuration.CampaignTypeConfiguration</text>
</a>
</g>
</g>
<!-- Node0&#45;&gt;Node5 -->
<g id="edge308_Node000000_Node000005" class="edge">
<title>Node0&#45;&gt;Node5</title>
<g id="a_edge308_Node000000_Node000005"><a xlink:title=" ">
<path fill="none" stroke="#63b8ff" d="M63.55,-861.33C67.85,-950.41 88.74,-1291.53 159.25,-1367 165.65,-1373.85 173.34,-1379.28 181.7,-1383.56"/>
<polygon fill="#63b8ff" stroke="#63b8ff" points="67.06,-861.42 63.1,-851.59 60.07,-861.74 67.06,-861.42"/>
</a>
</g>
</g>
<!-- Node6 -->
<g id="Node000006" class="node">
<title>Node6</title>
<g id="a_Node000006"><a xlink:href="dc/dc6/class_deluxe_1_1_deluxe_brand_center_1_1_a_m_m_1_1_infrastructure_1_1_databases_1_1_entity_conficcdce16eb7a2e9745404ba6f701a7984.html" target="_top" xlink:title=" ">
<polygon fill="white" stroke="#666666" points="382.62,-1358 181.38,-1358 181.38,-1314 382.62,-1314 382.62,-1358"/>
<text text-anchor="start" x="189.38" y="-1344.5" font-family="Helvetica,sans-Serif" font-size="10.00">Deluxe.DeluxeBrandCenter.</text>
<text text-anchor="start" x="189.38" y="-1332.5" font-family="Helvetica,sans-Serif" font-size="10.00">AMM.Infrastructure.Databases.Entity</text>
<text text-anchor="middle" x="282" y="-1320.5" font-family="Helvetica,sans-Serif" font-size="10.00">Configuration.ClientDb.ClientConfiguration</text>
</a>
</g>
</g>
<!-- Node0&#45;&gt;Node6 -->
<g id="edge309_Node000000_Node000006" class="edge">
<title>Node0&#45;&gt;Node6</title>
<g id="a_edge309_Node000000_Node000006"><a xlink:title=" ">
<path fill="none" stroke="#63b8ff" d="M64.16,-861.94C70.43,-945.12 96.77,-1239.67 159.25,-1305 165.51,-1311.54 172.93,-1316.78 180.99,-1320.96"/>
<polygon fill="#63b8ff" stroke="#63b8ff" points="67.65,-861.7 63.44,-851.98 60.67,-862.21 67.65,-861.7"/>
</a>
</g>
</g>
<!-- Node7 -->
<g id="Node000007" class="node">
<title>Node7</title>
<g id="a_Node000007"><a xlink:href="d3/d58/class_deluxe_1_1_deluxe_brand_center_1_1_a_m_m_1_1_infrastructure_1_1_databases_1_1_entity_confie10d8cd53585d2503dd7c400d5f8c892.html" target="_top" xlink:title=" ">
<polygon fill="white" stroke="#666666" points="380.38,-1296 183.62,-1296 183.62,-1252 380.38,-1252 380.38,-1296"/>
<text text-anchor="start" x="191.62" y="-1282.5" font-family="Helvetica,sans-Serif" font-size="10.00">Deluxe.DeluxeBrandCenter.</text>
<text text-anchor="start" x="191.62" y="-1270.5" font-family="Helvetica,sans-Serif" font-size="10.00">AMM.Infrastructure.Databases.Entity</text>
<text text-anchor="middle" x="282" y="-1258.5" font-family="Helvetica,sans-Serif" font-size="10.00">Configuration.ClientDb.UserConfiguration</text>
</a>
</g>
</g>
<!-- Node0&#45;&gt;Node7 -->
<g id="edge310_Node000000_Node000007" class="edge">
<title>Node0&#45;&gt;Node7</title>
<g id="a_edge310_Node000000_Node000007"><a xlink:title=" ">
<path fill="none" stroke="#63b8ff" d="M64.86,-861.39C73.14,-936.62 104.45,-1187.43 159.25,-1243 166.14,-1249.99 174.37,-1255.48 183.26,-1259.78"/>
<polygon fill="#63b8ff" stroke="#63b8ff" points="68.36,-861.24 63.81,-851.68 61.4,-861.99 68.36,-861.24"/>
</a>
</g>
</g>
<!-- Node8 -->
<g id="Node000008" class="node">
<title>Node8</title>
<g id="a_Node000008"><a xlink:href="d8/d60/class_deluxe_1_1_deluxe_brand_center_1_1_a_m_m_1_1_infrastructure_1_1_databases_1_1_entity_confi828a77d74e3c224d7576f4c0e4e4aef6.html" target="_top" xlink:title=" ">
<polygon fill="white" stroke="#666666" points="371.38,-1234 192.62,-1234 192.62,-1190 371.38,-1190 371.38,-1234"/>
<text text-anchor="start" x="200.62" y="-1220.5" font-family="Helvetica,sans-Serif" font-size="10.00">Deluxe.DeluxeBrandCenter.</text>
<text text-anchor="start" x="200.62" y="-1208.5" font-family="Helvetica,sans-Serif" font-size="10.00">AMM.Infrastructure.Databases.Entity</text>
<text text-anchor="middle" x="282" y="-1196.5" font-family="Helvetica,sans-Serif" font-size="10.00">Configuration.ContactConfiguration</text>
</a>
</g>
</g>
<!-- Node0&#45;&gt;Node8 -->
<g id="edge311_Node000000_Node000008" class="edge">
<title>Node0&#45;&gt;Node8</title>
<g id="a_edge311_Node000000_Node000008"><a xlink:title=" ">
<path fill="none" stroke="#63b8ff" d="M61.87,-861.86C61.06,-922.05 67.45,-1091.63 159.25,-1181 168.55,-1190.05 180.1,-1196.57 192.36,-1201.25"/>
<polygon fill="#63b8ff" stroke="#63b8ff" points="65.37,-862.05 62.1,-851.97 58.37,-861.88 65.37,-862.05"/>
</a>
</g>
</g>
<!-- Node9 -->
<g id="Node000009" class="node">
<title>Node9</title>
<g id="a_Node000009"><a xlink:href="dd/de4/class_deluxe_1_1_deluxe_brand_center_1_1_a_m_m_1_1_infrastructure_1_1_databases_1_1_entity_confi15a9cbcf8e7b631ce6c16bf8af220bcc.html" target="_top" xlink:title=" ">
<polygon fill="white" stroke="#666666" points="379.62,-1172 184.38,-1172 184.38,-1128 379.62,-1128 379.62,-1172"/>
<text text-anchor="start" x="192.38" y="-1158.5" font-family="Helvetica,sans-Serif" font-size="10.00">Deluxe.DeluxeBrandCenter.</text>
<text text-anchor="start" x="192.38" y="-1146.5" font-family="Helvetica,sans-Serif" font-size="10.00">AMM.Infrastructure.Databases.Entity</text>
<text text-anchor="middle" x="282" y="-1134.5" font-family="Helvetica,sans-Serif" font-size="10.00">Configuration.ContactGroupConfiguration</text>
</a>
</g>
</g>
<!-- Node0&#45;&gt;Node9 -->
<g id="edge312_Node000000_Node000009" class="edge">
<title>Node0&#45;&gt;Node9</title>
<g id="a_edge312_Node000000_Node000009"><a xlink:title=" ">
<path fill="none" stroke="#63b8ff" d="M63.47,-861.68C66.73,-914.09 82.55,-1048.49 159.25,-1119 166.48,-1125.64 174.92,-1130.91 183.94,-1135.07"/>
<polygon fill="#63b8ff" stroke="#63b8ff" points="66.98,-861.79 62.97,-851.98 59.99,-862.15 66.98,-861.79"/>
</a>
</g>
</g>
<!-- Node10 -->
<g id="Node000010" class="node">
<title>Node10</title>
<g id="a_Node000010"><a xlink:href="d7/d9b/class_deluxe_1_1_deluxe_brand_center_1_1_a_m_m_1_1_infrastructure_1_1_databases_1_1_entity_conficaae2977242e14b7e5608c43f2d78307.html" target="_top" xlink:title=" ">
<polygon fill="white" stroke="#666666" points="374.38,-1110 189.62,-1110 189.62,-1066 374.38,-1066 374.38,-1110"/>
<text text-anchor="start" x="197.62" y="-1096.5" font-family="Helvetica,sans-Serif" font-size="10.00">Deluxe.DeluxeBrandCenter.</text>
<text text-anchor="start" x="197.62" y="-1084.5" font-family="Helvetica,sans-Serif" font-size="10.00">AMM.Infrastructure.Databases.Entity</text>
<text text-anchor="middle" x="282" y="-1072.5" font-family="Helvetica,sans-Serif" font-size="10.00">Configuration.ContactTagConfiguration</text>
</a>
</g>
</g>
<!-- Node0&#45;&gt;Node10 -->
<g id="edge313_Node000000_Node000010" class="edge">
<title>Node0&#45;&gt;Node10</title>
<g id="a_edge313_Node000000_Node000010"><a xlink:title=" ">
<path fill="none" stroke="#63b8ff" d="M65.81,-861.19C73.5,-904.77 97.27,-1004.73 159.25,-1057 168.09,-1064.45 178.48,-1070.15 189.42,-1074.49"/>
<polygon fill="#63b8ff" stroke="#63b8ff" points="69.29,-860.83 64.22,-851.53 62.39,-861.96 69.29,-860.83"/>
</a>
</g>
</g>
<!-- Node11 -->
<g id="Node000011" class="node">
<title>Node11</title>
<g id="a_Node000011"><a xlink:href="dd/de3/class_deluxe_1_1_deluxe_brand_center_1_1_a_m_m_1_1_infrastructure_1_1_databases_1_1_entity_confi822e5964c2fcae4c67150d0a36f9434d.html" target="_top" xlink:title=" ">
<polygon fill="white" stroke="#666666" points="372.5,-1048 191.5,-1048 191.5,-1004 372.5,-1004 372.5,-1048"/>
<text text-anchor="start" x="199.5" y="-1034.5" font-family="Helvetica,sans-Serif" font-size="10.00">Deluxe.DeluxeBrandCenter.</text>
<text text-anchor="start" x="199.5" y="-1022.5" font-family="Helvetica,sans-Serif" font-size="10.00">AMM.Infrastructure.Databases.Entity</text>
<text text-anchor="middle" x="282" y="-1010.5" font-family="Helvetica,sans-Serif" font-size="10.00">Configuration.EditorFieldConfiguration</text>
</a>
</g>
</g>
<!-- Node0&#45;&gt;Node11 -->
<g id="edge314_Node000000_Node000011" class="edge">
<title>Node0&#45;&gt;Node11</title>
<g id="a_edge314_Node000000_Node000011"><a xlink:title=" ">
<path fill="none" stroke="#63b8ff" d="M69.82,-861.03C82.44,-894.67 111.83,-960.33 159.25,-995 168.85,-1002.02 179.87,-1007.45 191.29,-1011.66"/>
<polygon fill="#63b8ff" stroke="#63b8ff" points="73.12,-859.85 66.44,-851.62 66.53,-862.22 73.12,-859.85"/>
</a>
</g>
</g>
<!-- Node12 -->
<g id="Node000012" class="node">
<title>Node12</title>
<g id="a_Node000012"><a xlink:href="d1/db1/class_deluxe_1_1_deluxe_brand_center_1_1_a_m_m_1_1_infrastructure_1_1_databases_1_1_entity_confi6ee5a15e83288b8deafa29a251f52720.html" target="_top" xlink:title=" ">
<polygon fill="white" stroke="#666666" points="378.5,-986 185.5,-986 185.5,-942 378.5,-942 378.5,-986"/>
<text text-anchor="start" x="193.5" y="-972.5" font-family="Helvetica,sans-Serif" font-size="10.00">Deluxe.DeluxeBrandCenter.</text>
<text text-anchor="start" x="193.5" y="-960.5" font-family="Helvetica,sans-Serif" font-size="10.00">AMM.Infrastructure.Databases.Entity</text>
<text text-anchor="middle" x="282" y="-948.5" font-family="Helvetica,sans-Serif" font-size="10.00">Configuration.EmailDomainConfiguration</text>
</a>
</g>
</g>
<!-- Node0&#45;&gt;Node12 -->
<g id="edge315_Node000000_Node000012" class="edge">
<title>Node0&#45;&gt;Node12</title>
<g id="a_edge315_Node000000_Node000012"><a xlink:title=" ">
<path fill="none" stroke="#63b8ff" d="M77.38,-859.24C94.69,-880.48 125.38,-914.15 159.25,-933 167.35,-937.51 176.12,-941.37 185.1,-944.68"/>
<polygon fill="#63b8ff" stroke="#63b8ff" points="80.3,-857.29 71.34,-851.64 74.82,-861.65 80.3,-857.29"/>
</a>
</g>
</g>
<!-- Node13 -->
<g id="Node000013" class="node">
<title>Node13</title>
<g id="a_Node000013"><a xlink:href="d9/d03/class_deluxe_1_1_deluxe_brand_center_1_1_a_m_m_1_1_infrastructure_1_1_databases_1_1_entity_confia1eb1f53880e5a20b806241b8dd0170f.html" target="_top" xlink:title=" ">
<polygon fill="white" stroke="#666666" points="374.75,-924 189.25,-924 189.25,-880 374.75,-880 374.75,-924"/>
<text text-anchor="start" x="197.25" y="-910.5" font-family="Helvetica,sans-Serif" font-size="10.00">Deluxe.DeluxeBrandCenter.</text>
<text text-anchor="start" x="197.25" y="-898.5" font-family="Helvetica,sans-Serif" font-size="10.00">AMM.Infrastructure.Databases.Entity</text>
<text text-anchor="middle" x="282" y="-886.5" font-family="Helvetica,sans-Serif" font-size="10.00">Configuration.EventDetailConfiguration</text>
</a>
</g>
</g>
<!-- Node0&#45;&gt;Node13 -->
<g id="edge316_Node000000_Node000013" class="edge">
<title>Node0&#45;&gt;Node13</title>
<g id="a_edge316_Node000000_Node000013"><a xlink:title=" ">
<path fill="none" stroke="#63b8ff" d="M104.09,-853.92C121.11,-859.47 141.05,-865.77 159.25,-871 169.21,-873.86 179.66,-876.73 190.08,-879.5"/>
<polygon fill="#63b8ff" stroke="#63b8ff" points="105.41,-850.66 94.81,-850.87 103.22,-857.32 105.41,-850.66"/>
</a>
</g>
</g>
<!-- Node14 -->
<g id="Node000014" class="node">
<title>Node14</title>
<g id="a_Node000014"><a xlink:href="d9/def/class_deluxe_1_1_deluxe_brand_center_1_1_a_m_m_1_1_infrastructure_1_1_databases_1_1_entity_configuration_1_1_job_configuration.html" target="_top" xlink:title=" ">
<polygon fill="white" stroke="#666666" points="371.38,-862 192.62,-862 192.62,-818 371.38,-818 371.38,-862"/>
<text text-anchor="start" x="200.62" y="-848.5" font-family="Helvetica,sans-Serif" font-size="10.00">Deluxe.DeluxeBrandCenter.</text>
<text text-anchor="start" x="200.62" y="-836.5" font-family="Helvetica,sans-Serif" font-size="10.00">AMM.Infrastructure.Databases.Entity</text>
<text text-anchor="middle" x="282" y="-824.5" font-family="Helvetica,sans-Serif" font-size="10.00">Configuration.JobConfiguration</text>
</a>
</g>
</g>
<!-- Node0&#45;&gt;Node14 -->
<g id="edge317_Node000000_Node000014" class="edge">
<title>Node0&#45;&gt;Node14</title>
<g id="a_edge317_Node000000_Node000014"><a xlink:title=" ">
<path fill="none" stroke="#63b8ff" d="M135.18,-840C153.42,-840 173.2,-840 192.13,-840"/>
<polygon fill="#63b8ff" stroke="#63b8ff" points="135.26,-836.5 125.26,-840 135.26,-843.5 135.26,-836.5"/>
</a>
</g>
</g>
<!-- Node15 -->
<g id="Node000015" class="node">
<title>Node15</title>
<g id="a_Node000015"><a xlink:href="de/da1/class_deluxe_1_1_deluxe_brand_center_1_1_a_m_m_1_1_infrastructure_1_1_databases_1_1_entity_confi3b3927d856ddb4112bfb4ec0bcf83641.html" target="_top" xlink:title=" ">
<polygon fill="white" stroke="#666666" points="374.38,-800 189.62,-800 189.62,-756 374.38,-756 374.38,-800"/>
<text text-anchor="start" x="197.62" y="-786.5" font-family="Helvetica,sans-Serif" font-size="10.00">Deluxe.DeluxeBrandCenter.</text>
<text text-anchor="start" x="197.62" y="-774.5" font-family="Helvetica,sans-Serif" font-size="10.00">AMM.Infrastructure.Databases.Entity</text>
<text text-anchor="middle" x="282" y="-762.5" font-family="Helvetica,sans-Serif" font-size="10.00">Configuration.RecurrenceConfiguration</text>
</a>
</g>
</g>
<!-- Node0&#45;&gt;Node15 -->
<g id="edge318_Node000000_Node000015" class="edge">
<title>Node0&#45;&gt;Node15</title>
<g id="a_edge318_Node000000_Node000015"><a xlink:title=" ">
<path fill="none" stroke="#63b8ff" d="M104.09,-826.08C121.11,-820.53 141.05,-814.23 159.25,-809 169.21,-806.14 179.66,-803.27 190.08,-800.5"/>
<polygon fill="#63b8ff" stroke="#63b8ff" points="103.22,-822.68 94.81,-829.13 105.41,-829.34 103.22,-822.68"/>
</a>
</g>
</g>
<!-- Node16 -->
<g id="Node000016" class="node">
<title>Node16</title>
<g id="a_Node000016"><a xlink:href="dc/dca/class_deluxe_1_1_deluxe_brand_center_1_1_a_m_m_1_1_infrastructure_1_1_databases_1_1_entity_confi64fd64c996f59546fd7e5ecfa478f250.html" target="_top" xlink:title=" ">
<polygon fill="white" stroke="#666666" points="371.38,-738 192.62,-738 192.62,-694 371.38,-694 371.38,-738"/>
<text text-anchor="start" x="200.62" y="-724.5" font-family="Helvetica,sans-Serif" font-size="10.00">Deluxe.DeluxeBrandCenter.</text>
<text text-anchor="start" x="200.62" y="-712.5" font-family="Helvetica,sans-Serif" font-size="10.00">AMM.Infrastructure.Databases.Entity</text>
<text text-anchor="middle" x="282" y="-700.5" font-family="Helvetica,sans-Serif" font-size="10.00">Configuration.ScheduleConfiguration</text>
</a>
</g>
</g>
<!-- Node0&#45;&gt;Node16 -->
<g id="edge319_Node000000_Node000016" class="edge">
<title>Node0&#45;&gt;Node16</title>
<g id="a_edge319_Node000000_Node000016"><a xlink:title=" ">
<path fill="none" stroke="#63b8ff" d="M77.38,-820.76C94.69,-799.52 125.38,-765.85 159.25,-747 169.54,-741.27 180.91,-736.58 192.44,-732.75"/>
<polygon fill="#63b8ff" stroke="#63b8ff" points="74.82,-818.35 71.34,-828.36 80.3,-822.71 74.82,-818.35"/>
</a>
</g>
</g>
<!-- Node17 -->
<g id="Node000017" class="node">
<title>Node17</title>
<g id="a_Node000017"><a xlink:href="d7/d09/class_deluxe_1_1_deluxe_brand_center_1_1_a_m_m_1_1_infrastructure_1_1_databases_1_1_entity_confi1846f2f389d5d3ce7052cf69c6196b23.html" target="_top" xlink:title=" ">
<polygon fill="white" stroke="#666666" points="371.38,-676 192.62,-676 192.62,-632 371.38,-632 371.38,-676"/>
<text text-anchor="start" x="200.62" y="-662.5" font-family="Helvetica,sans-Serif" font-size="10.00">Deluxe.DeluxeBrandCenter.</text>
<text text-anchor="start" x="200.62" y="-650.5" font-family="Helvetica,sans-Serif" font-size="10.00">AMM.Infrastructure.Databases.Entity</text>
<text text-anchor="middle" x="282" y="-638.5" font-family="Helvetica,sans-Serif" font-size="10.00">Configuration.SessionConfiguration</text>
</a>
</g>
</g>
<!-- Node0&#45;&gt;Node17 -->
<g id="edge320_Node000000_Node000017" class="edge">
<title>Node0&#45;&gt;Node17</title>
<g id="a_edge320_Node000000_Node000017"><a xlink:title=" ">
<path fill="none" stroke="#63b8ff" d="M69.82,-818.97C82.44,-785.33 111.83,-719.67 159.25,-685 169.11,-677.79 180.48,-672.25 192.23,-668"/>
<polygon fill="#63b8ff" stroke="#63b8ff" points="66.53,-817.78 66.44,-828.38 73.12,-820.15 66.53,-817.78"/>
</a>
</g>
</g>
<!-- Node18 -->
<g id="Node000018" class="node">
<title>Node18</title>
<g id="a_Node000018"><a xlink:href="db/df2/class_deluxe_1_1_deluxe_brand_center_1_1_a_m_m_1_1_infrastructure_1_1_databases_1_1_entity_confi32291857d81a4cb1fd9e5a1e92a3a3f6.html" target="_top" xlink:title=" ">
<polygon fill="white" stroke="#666666" points="377.38,-614 186.62,-614 186.62,-570 377.38,-570 377.38,-614"/>
<text text-anchor="start" x="194.62" y="-600.5" font-family="Helvetica,sans-Serif" font-size="10.00">Deluxe.DeluxeBrandCenter.</text>
<text text-anchor="start" x="194.62" y="-588.5" font-family="Helvetica,sans-Serif" font-size="10.00">AMM.Infrastructure.Databases.Entity</text>
<text text-anchor="middle" x="282" y="-576.5" font-family="Helvetica,sans-Serif" font-size="10.00">Configuration.SessionDataConfiguration</text>
</a>
</g>
</g>
<!-- Node0&#45;&gt;Node18 -->
<g id="edge321_Node000000_Node000018" class="edge">
<title>Node0&#45;&gt;Node18</title>
<g id="a_edge321_Node000000_Node000018"><a xlink:title=" ">
<path fill="none" stroke="#63b8ff" d="M65.81,-818.81C73.5,-775.23 97.27,-675.27 159.25,-623 167.25,-616.25 176.54,-610.94 186.34,-606.77"/>
<polygon fill="#63b8ff" stroke="#63b8ff" points="62.39,-818.04 64.22,-828.47 69.29,-819.17 62.39,-818.04"/>
</a>
</g>
</g>
<!-- Node19 -->
<g id="Node000019" class="node">
<title>Node19</title>
<g id="a_Node000019"><a xlink:href="d4/d2f/class_deluxe_1_1_deluxe_brand_center_1_1_a_m_m_1_1_infrastructure_1_1_databases_1_1_entity_confid0e13c5f1733b4f3aee42e47f394cd95.html" target="_top" xlink:title=" ">
<polygon fill="white" stroke="#666666" points="382.25,-552 181.75,-552 181.75,-508 382.25,-508 382.25,-552"/>
<text text-anchor="start" x="189.75" y="-538.5" font-family="Helvetica,sans-Serif" font-size="10.00">Deluxe.DeluxeBrandCenter.</text>
<text text-anchor="start" x="189.75" y="-526.5" font-family="Helvetica,sans-Serif" font-size="10.00">AMM.Infrastructure.Databases.Entity</text>
<text text-anchor="middle" x="282" y="-514.5" font-family="Helvetica,sans-Serif" font-size="10.00">Configuration.SignatureBlockConfiguration</text>
</a>
</g>
</g>
<!-- Node0&#45;&gt;Node19 -->
<g id="edge322_Node000000_Node000019" class="edge">
<title>Node0&#45;&gt;Node19</title>
<g id="a_edge322_Node000000_Node000019"><a xlink:title=" ">
<path fill="none" stroke="#63b8ff" d="M63.47,-818.32C66.73,-765.91 82.55,-631.51 159.25,-561 165.75,-555.02 173.25,-550.16 181.25,-546.21"/>
<polygon fill="#63b8ff" stroke="#63b8ff" points="59.99,-817.85 62.97,-828.02 66.98,-818.21 59.99,-817.85"/>
</a>
</g>
</g>
<!-- Node20 -->
<g id="Node000020" class="node">
<title>Node20</title>
<g id="a_Node000020"><a xlink:href="d6/def/class_deluxe_1_1_deluxe_brand_center_1_1_a_m_m_1_1_infrastructure_1_1_databases_1_1_entity_confi2b641594b6701dbdca7b64cb7d6753ed.html" target="_top" xlink:title=" ">
<polygon fill="white" stroke="#666666" points="380.75,-490 183.25,-490 183.25,-446 380.75,-446 380.75,-490"/>
<text text-anchor="start" x="191.25" y="-476.5" font-family="Helvetica,sans-Serif" font-size="10.00">Deluxe.DeluxeBrandCenter.</text>
<text text-anchor="start" x="191.25" y="-464.5" font-family="Helvetica,sans-Serif" font-size="10.00">AMM.Infrastructure.Databases.Entity</text>
<text text-anchor="middle" x="282" y="-452.5" font-family="Helvetica,sans-Serif" font-size="10.00">Configuration.SocialPostLogConfiguration</text>
</a>
</g>
</g>
<!-- Node0&#45;&gt;Node20 -->
<g id="edge323_Node000000_Node000020" class="edge">
<title>Node0&#45;&gt;Node20</title>
<g id="a_edge323_Node000000_Node000020"><a xlink:title=" ">
<path fill="none" stroke="#63b8ff" d="M61.87,-818.14C61.06,-757.95 67.45,-588.37 159.25,-499 166.13,-492.31 174.24,-487 182.95,-482.79"/>
<polygon fill="#63b8ff" stroke="#63b8ff" points="58.37,-818.12 62.1,-828.03 65.37,-817.95 58.37,-818.12"/>
</a>
</g>
</g>
<!-- Node21 -->
<g id="Node000021" class="node">
<title>Node21</title>
<g id="a_Node000021"><a xlink:href="d5/d9f/class_deluxe_1_1_deluxe_brand_center_1_1_a_m_m_1_1_infrastructure_1_1_databases_1_1_entity_confi78b5dedb36868eb4ed1e217c004f0a1b.html" target="_top" xlink:title=" ">
<polygon fill="white" stroke="#666666" points="371.38,-428 192.62,-428 192.62,-384 371.38,-384 371.38,-428"/>
<text text-anchor="start" x="200.62" y="-414.5" font-family="Helvetica,sans-Serif" font-size="10.00">Deluxe.DeluxeBrandCenter.</text>
<text text-anchor="start" x="200.62" y="-402.5" font-family="Helvetica,sans-Serif" font-size="10.00">AMM.Infrastructure.Databases.Entity</text>
<text text-anchor="middle" x="282" y="-390.5" font-family="Helvetica,sans-Serif" font-size="10.00">Configuration.TemplateConfiguration</text>
</a>
</g>
</g>
<!-- Node0&#45;&gt;Node21 -->
<g id="edge324_Node000000_Node000021" class="edge">
<title>Node0&#45;&gt;Node21</title>
<g id="a_edge324_Node000000_Node000021"><a xlink:title=" ">
<path fill="none" stroke="#63b8ff" d="M64.86,-818.61C73.14,-743.38 104.45,-492.57 159.25,-437 168.44,-427.68 180.01,-421.03 192.34,-416.3"/>
<polygon fill="#63b8ff" stroke="#63b8ff" points="61.4,-818.01 63.81,-828.32 68.36,-818.76 61.4,-818.01"/>
</a>
</g>
</g>
<!-- Node22 -->
<g id="Node000022" class="node">
<title>Node22</title>
<g id="a_Node000022"><a xlink:href="d0/dcf/class_deluxe_1_1_deluxe_brand_center_1_1_a_m_m_1_1_infrastructure_1_1_databases_1_1_entity_confi67e7c3d99f1ebd664d9bf45b6bd7f53d.html" target="_top" xlink:title=" ">
<polygon fill="white" stroke="#666666" points="379.62,-366 184.38,-366 184.38,-322 379.62,-322 379.62,-366"/>
<text text-anchor="start" x="192.38" y="-352.5" font-family="Helvetica,sans-Serif" font-size="10.00">Deluxe.DeluxeBrandCenter.</text>
<text text-anchor="start" x="192.38" y="-340.5" font-family="Helvetica,sans-Serif" font-size="10.00">AMM.Infrastructure.Databases.Entity</text>
<text text-anchor="middle" x="282" y="-328.5" font-family="Helvetica,sans-Serif" font-size="10.00">Configuration.TemplateFieldConfiguration</text>
</a>
</g>
</g>
<!-- Node0&#45;&gt;Node22 -->
<g id="edge325_Node000000_Node000022" class="edge">
<title>Node0&#45;&gt;Node22</title>
<g id="a_edge325_Node000000_Node000022"><a xlink:title=" ">
<path fill="none" stroke="#63b8ff" d="M64.16,-818.06C70.43,-734.88 96.77,-440.33 159.25,-375 166.26,-367.67 174.74,-361.98 183.93,-357.58"/>
<polygon fill="#63b8ff" stroke="#63b8ff" points="60.67,-817.79 63.44,-828.02 67.65,-818.3 60.67,-817.79"/>
</a>
</g>
</g>
<!-- Node23 -->
<g id="Node000023" class="node">
<title>Node23</title>
<g id="a_Node000023"><a xlink:href="d8/d3e/class_deluxe_1_1_deluxe_brand_center_1_1_a_m_m_1_1_infrastructure_1_1_databases_1_1_entity_confic8ae00837271c44941dcc41af8736703.html" target="_top" xlink:title=" ">
<polygon fill="white" stroke="#666666" points="393.88,-304 170.12,-304 170.12,-260 393.88,-260 393.88,-304"/>
<text text-anchor="start" x="178.12" y="-290.5" font-family="Helvetica,sans-Serif" font-size="10.00">Deluxe.DeluxeBrandCenter.</text>
<text text-anchor="start" x="178.12" y="-278.5" font-family="Helvetica,sans-Serif" font-size="10.00">AMM.Infrastructure.Databases.Entity</text>
<text text-anchor="middle" x="282" y="-266.5" font-family="Helvetica,sans-Serif" font-size="10.00">Configuration.TemplateFieldOptionConfiguration</text>
</a>
</g>
</g>
<!-- Node0&#45;&gt;Node23 -->
<g id="edge326_Node000000_Node000023" class="edge">
<title>Node0&#45;&gt;Node23</title>
<g id="a_edge326_Node000000_Node000023"><a xlink:title=" ">
<path fill="none" stroke="#63b8ff" d="M63.55,-818.67C67.85,-729.59 88.74,-388.47 159.25,-313 162.45,-309.57 165.97,-306.5 169.74,-303.75"/>
<polygon fill="#63b8ff" stroke="#63b8ff" points="60.07,-818.26 63.1,-828.41 67.06,-818.58 60.07,-818.26"/>
</a>
</g>
</g>
<!-- Node24 -->
<g id="Node000024" class="node">
<title>Node24</title>
<g id="a_Node000024"><a xlink:href="dc/dd8/class_deluxe_1_1_deluxe_brand_center_1_1_a_m_m_1_1_infrastructure_1_1_databases_1_1_entity_confi61be294fbf0d118b4bf06c6aebd5fd03.html" target="_top" xlink:title=" ">
<polygon fill="white" stroke="#666666" points="404.75,-242 159.25,-242 159.25,-198 404.75,-198 404.75,-242"/>
<text text-anchor="start" x="167.25" y="-228.5" font-family="Helvetica,sans-Serif" font-size="10.00">Deluxe.DeluxeBrandCenter.</text>
<text text-anchor="start" x="167.25" y="-216.5" font-family="Helvetica,sans-Serif" font-size="10.00">AMM.Infrastructure.Databases.Entity</text>
<text text-anchor="middle" x="282" y="-204.5" font-family="Helvetica,sans-Serif" font-size="10.00">Configuration.TemplateThumbnailModelConfiguration</text>
</a>
</g>
</g>
<!-- Node0&#45;&gt;Node24 -->
<g id="edge327_Node000000_Node000024" class="edge">
<title>Node0&#45;&gt;Node24</title>
<g id="a_edge327_Node000000_Node000024"><a xlink:title=" ">
<path fill="none" stroke="#63b8ff" d="M63.11,-818.34C65.7,-722.36 80.92,-336.44 159.25,-251 162.12,-247.86 165.27,-245.03 168.62,-242.46"/>
<polygon fill="#63b8ff" stroke="#63b8ff" points="59.62,-818.08 62.87,-828.16 66.61,-818.26 59.62,-818.08"/>
</a>
</g>
</g>
<!-- Node25 -->
<g id="Node000025" class="node">
<title>Node25</title>
<g id="a_Node000025"><a xlink:href="da/d5e/class_deluxe_1_1_deluxe_brand_center_1_1_a_m_m_1_1_infrastructure_1_1_databases_1_1_entity_confif055add8a0ee563a9141a04001186f75.html" target="_top" xlink:title=" ">
<polygon fill="white" stroke="#666666" points="392.75,-180 171.25,-180 171.25,-124 392.75,-124 392.75,-180"/>
<text text-anchor="start" x="179.25" y="-166.5" font-family="Helvetica,sans-Serif" font-size="10.00">Deluxe.DeluxeBrandCenter.</text>
<text text-anchor="start" x="179.25" y="-154.5" font-family="Helvetica,sans-Serif" font-size="10.00">AMM.Infrastructure.Databases.Entity</text>
<text text-anchor="start" x="179.25" y="-142.5" font-family="Helvetica,sans-Serif" font-size="10.00">Configuration.TemplateThumbnailOverlayModel</text>
<text text-anchor="middle" x="282" y="-130.5" font-family="Helvetica,sans-Serif" font-size="10.00">Configuration</text>
</a>
</g>
</g>
<!-- Node0&#45;&gt;Node25 -->
<g id="edge328_Node000000_Node000025" class="edge">
<title>Node0&#45;&gt;Node25</title>
<g id="a_edge328_Node000000_Node000025"><a xlink:title=" ">
<path fill="none" stroke="#63b8ff" d="M62.84,-818.14C64.27,-715.96 75.26,-286.41 159.25,-189 162.71,-184.98 166.6,-181.4 170.79,-178.19"/>
<polygon fill="#63b8ff" stroke="#63b8ff" points="59.34,-818.07 62.72,-828.12 66.34,-818.16 59.34,-818.07"/>
</a>
</g>
</g>
<!-- Node26 -->
<g id="Node000026" class="node">
<title>Node26</title>
<g id="a_Node000026"><a xlink:href="d6/d55/class_deluxe_1_1_deluxe_brand_center_1_1_a_m_m_1_1_infrastructure_1_1_databases_1_1_entity_confi72734798de0a9e1ac741ed305e3ad704.html" target="_top" xlink:title=" ">
<polygon fill="white" stroke="#666666" points="381.88,-106 182.12,-106 182.12,-62 381.88,-62 381.88,-106"/>
<text text-anchor="start" x="190.12" y="-92.5" font-family="Helvetica,sans-Serif" font-size="10.00">Deluxe.DeluxeBrandCenter.</text>
<text text-anchor="start" x="190.12" y="-80.5" font-family="Helvetica,sans-Serif" font-size="10.00">AMM.Infrastructure.Databases.Entity</text>
<text text-anchor="middle" x="282" y="-68.5" font-family="Helvetica,sans-Serif" font-size="10.00">Configuration.TwitterAccountConfiguration</text>
</a>
</g>
</g>
<!-- Node0&#45;&gt;Node26 -->
<g id="edge329_Node000000_Node000026" class="edge">
<title>Node0&#45;&gt;Node26</title>
<g id="a_edge329_Node000000_Node000026"><a xlink:title=" ">
<path fill="none" stroke="#63b8ff" d="M62.38,-818.72C61.57,-710.57 63.35,-222.81 159.25,-115 165.56,-107.91 173.23,-102.34 181.64,-97.96"/>
<polygon fill="#63b8ff" stroke="#63b8ff" points="58.88,-818.49 62.47,-828.46 65.88,-818.43 58.88,-818.49"/>
</a>
</g>
</g>
<!-- Node27 -->
<g id="Node000027" class="node">
<title>Node27</title>
<g id="a_Node000027"><a xlink:href="dd/d11/class_deluxe_1_1_deluxe_brand_center_1_1_a_m_m_1_1_infrastructure_1_1_databases_1_1_entity_confi5a662a005ba453d7929a939d557318c4.html" target="_top" xlink:title=" ">
<polygon fill="white" stroke="#666666" points="381.88,-44 182.12,-44 182.12,0 381.88,0 381.88,-44"/>
<text text-anchor="start" x="190.12" y="-30.5" font-family="Helvetica,sans-Serif" font-size="10.00">Deluxe.DeluxeBrandCenter.</text>
<text text-anchor="start" x="190.12" y="-18.5" font-family="Helvetica,sans-Serif" font-size="10.00">AMM.Infrastructure.Databases.Entity</text>
<text text-anchor="middle" x="282" y="-6.5" font-family="Helvetica,sans-Serif" font-size="10.00">Configuration.UserCampaignConfiguration</text>
</a>
</g>
</g>
<!-- Node0&#45;&gt;Node27 -->
<g id="edge330_Node000000_Node000027" class="edge">
<title>Node0&#45;&gt;Node27</title>
<g id="a_edge330_Node000000_Node000027"><a xlink:title=" ">
<path fill="none" stroke="#63b8ff" d="M63.85,-818.18C70.82,-697.22 107.09,-112.26 159.25,-53 165.59,-45.8 173.35,-40.15 181.85,-35.75"/>
<polygon fill="#63b8ff" stroke="#63b8ff" points="60.36,-817.81 63.29,-828 67.35,-818.21 60.36,-817.81"/>
</a>
</g>
</g>
</g>
</svg>
