<?xml version="1.0" encoding="UTF-8" standalone="no"?>
<!DOCTYPE svg PUBLIC "-//W3C//DTD SVG 1.1//EN"
 "http://www.w3.org/Graphics/SVG/1.1/DTD/svg11.dtd">
<!-- Generated by graphviz version 12.1.1 (20240910.0053)
 -->
<!-- Title: Graphical Class Hierarchy Pages: 1 -->
<svg width="314pt" height="190pt"
 viewBox="0.00 0.00 313.75 190.00" xmlns="http://www.w3.org/2000/svg" xmlns:xlink="http://www.w3.org/1999/xlink">
<g id="graph0" class="graph" transform="scale(1 1) rotate(0) translate(4 186)">
<title>Graphical Class Hierarchy</title>
<!-- Node0 -->
<g id="Node000000" class="node">
<title>Node0</title>
<g id="a_Node000000"><a xlink:title=" ">
<polygon fill="#e0e0e0" stroke="#999999" points="52.75,-101 0,-101 0,-81 52.75,-81 52.75,-101"/>
<text text-anchor="middle" x="26.38" y="-87.5" font-family="Helvetica,sans-Serif" font-size="10.00">Attribute</text>
</a>
</g>
</g>
<!-- Node1 -->
<g id="Node000001" class="node">
<title>Node1</title>
<g id="a_Node000001"><a xlink:href="dc/d2f/class_deluxe_1_1_deluxe_brand_center_1_1_a_m_m_1_1_domain_1_1_enums_1_1_is_canadian.html" target="_top" xlink:title=" ">
<polygon fill="white" stroke="#666666" points="278.38,-182 116.12,-182 116.12,-150 278.38,-150 278.38,-182"/>
<text text-anchor="start" x="124.12" y="-168.5" font-family="Helvetica,sans-Serif" font-size="10.00">Deluxe.DeluxeBrandCenter.</text>
<text text-anchor="middle" x="197.25" y="-156.5" font-family="Helvetica,sans-Serif" font-size="10.00">AMM.Domain.Enums.IsCanadian</text>
</a>
</g>
</g>
<!-- Node0&#45;&gt;Node1 -->
<g id="edge1_Node000000_Node000001" class="edge">
<title>Node0&#45;&gt;Node1</title>
<g id="a_edge1_Node000000_Node000001"><a xlink:title=" ">
<path fill="none" stroke="#63b8ff" d="M45.43,-109.45C56.9,-120.17 72.59,-133.07 88.75,-141 97.27,-145.18 106.51,-148.67 115.88,-151.6"/>
<polygon fill="#63b8ff" stroke="#63b8ff" points="47.9,-106.98 38.29,-102.52 43.03,-112 47.9,-106.98"/>
</a>
</g>
</g>
<!-- Node2 -->
<g id="Node000002" class="node">
<title>Node2</title>
<g id="a_Node000002"><a xlink:href="d5/d9a/class_deluxe_1_1_deluxe_brand_center_1_1_a_m_m_1_1_domain_1_1_ext_service_model_1_1_mindfire_1_1_desc.html" target="_top" xlink:title=" ">
<polygon fill="white" stroke="#666666" points="305.75,-132 88.75,-132 88.75,-100 305.75,-100 305.75,-132"/>
<text text-anchor="start" x="96.75" y="-118.5" font-family="Helvetica,sans-Serif" font-size="10.00">Deluxe.DeluxeBrandCenter.</text>
<text text-anchor="middle" x="197.25" y="-106.5" font-family="Helvetica,sans-Serif" font-size="10.00">AMM.Domain.ExtServiceModel.Mindfire.Desc</text>
</a>
</g>
</g>
<!-- Node0&#45;&gt;Node2 -->
<g id="edge2_Node000000_Node000002" class="edge">
<title>Node0&#45;&gt;Node2</title>
<g id="a_edge2_Node000000_Node000002"><a xlink:title=" ">
<path fill="none" stroke="#63b8ff" d="M64.39,-96.48C71.81,-97.58 79.95,-98.78 88.43,-100.04"/>
<polygon fill="#63b8ff" stroke="#63b8ff" points="64.93,-93.02 54.52,-95.02 63.9,-99.95 64.93,-93.02"/>
</a>
</g>
</g>
<!-- Node3 -->
<g id="Node000003" class="node">
<title>Node3</title>
<g id="a_Node000003"><a xlink:href="da/dfd/class_deluxe_1_1_deluxe_brand_center_1_1_a_m_m_1_1_domain_1_1_utility_1_1_sensible_data.html" target="_top" xlink:title=" ">
<polygon fill="white" stroke="#666666" points="279.88,-82 114.62,-82 114.62,-50 279.88,-50 279.88,-82"/>
<text text-anchor="start" x="122.62" y="-68.5" font-family="Helvetica,sans-Serif" font-size="10.00">Deluxe.DeluxeBrandCenter.</text>
<text text-anchor="middle" x="197.25" y="-56.5" font-family="Helvetica,sans-Serif" font-size="10.00">AMM.Domain.Utility.SensibleData</text>
</a>
</g>
</g>
<!-- Node0&#45;&gt;Node3 -->
<g id="edge3_Node000000_Node000003" class="edge">
<title>Node0&#45;&gt;Node3</title>
<g id="a_edge3_Node000000_Node000003"><a xlink:title=" ">
<path fill="none" stroke="#63b8ff" d="M64.21,-85.55C79.01,-83.36 96.71,-80.74 114.26,-78.14"/>
<polygon fill="#63b8ff" stroke="#63b8ff" points="63.9,-82.05 54.52,-86.98 64.93,-88.98 63.9,-82.05"/>
</a>
</g>
</g>
<!-- Node4 -->
<g id="Node000004" class="node">
<title>Node4</title>
<g id="a_Node000004"><a xlink:href="d3/d7b/class_deluxe_1_1_deluxe_brand_center_1_1_a_m_m_1_1_domain_1_1_view_model_1_1_validate.html" target="_top" xlink:title=" ">
<polygon fill="white" stroke="#666666" points="279.5,-32 115,-32 115,0 279.5,0 279.5,-32"/>
<text text-anchor="start" x="123" y="-18.5" font-family="Helvetica,sans-Serif" font-size="10.00">Deluxe.DeluxeBrandCenter.</text>
<text text-anchor="middle" x="197.25" y="-6.5" font-family="Helvetica,sans-Serif" font-size="10.00">AMM.Domain.ViewModel.Validate</text>
</a>
</g>
</g>
<!-- Node0&#45;&gt;Node4 -->
<g id="edge4_Node000000_Node000004" class="edge">
<title>Node0&#45;&gt;Node4</title>
<g id="a_edge4_Node000000_Node000004"><a xlink:title=" ">
<path fill="none" stroke="#63b8ff" d="M45.43,-72.55C56.9,-61.83 72.59,-48.93 88.75,-41 96.92,-36.99 105.76,-33.61 114.74,-30.76"/>
<polygon fill="#63b8ff" stroke="#63b8ff" points="43.03,-70 38.29,-79.48 47.9,-75.02 43.03,-70"/>
</a>
</g>
</g>
</g>
</svg>
