<?xml version="1.0" encoding="UTF-8" standalone="no"?>
<!DOCTYPE svg PUBLIC "-//W3C//DTD SVG 1.1//EN"
 "http://www.w3.org/Graphics/SVG/1.1/DTD/svg11.dtd">
<!-- Generated by graphviz version 12.1.1 (20240910.0053)
 -->
<!-- Title: Graphical Class Hierarchy Pages: 1 -->
<svg width="760pt" height="942pt"
 viewBox="0.00 0.00 760.25 942.00" xmlns="http://www.w3.org/2000/svg" xmlns:xlink="http://www.w3.org/1999/xlink">
<g id="graph0" class="graph" transform="scale(1 1) rotate(0) translate(4 938)">
<title>Graphical Class Hierarchy</title>
<!-- Node0 -->
<g id="Node000000" class="node">
<title>Node0</title>
<g id="a_Node000000"><a xlink:href="d7/d23/class_deluxe_1_1_deluxe_brand_center_1_1_a_m_m_1_1_tests_1_1_s_u_t_1_1_a_p_i_1_1_services_1_1_ca082cc8593b30dd900f7cb3ed94b60995.html" target="_top" xlink:title=" ">
<polygon fill="white" stroke="#666666" points="196.75,-186 0,-186 0,-142 196.75,-142 196.75,-186"/>
<text text-anchor="start" x="8" y="-172.5" font-family="Helvetica,sans-Serif" font-size="10.00">Deluxe.DeluxeBrandCenter.</text>
<text text-anchor="start" x="8" y="-160.5" font-family="Helvetica,sans-Serif" font-size="10.00">AMM.Tests.SUT.API.Services.Campaign</text>
<text text-anchor="middle" x="98.38" y="-148.5" font-family="Helvetica,sans-Serif" font-size="10.00">BuilderService.LaunchCampaign.Test</text>
</a>
</g>
</g>
<!-- Node1 -->
<g id="Node000001" class="node">
<title>Node1</title>
<g id="a_Node000001"><a xlink:href="db/d4c/class_deluxe_1_1_deluxe_brand_center_1_1_a_m_m_1_1_tests_1_1_s_u_t_1_1_a_p_i_1_1_services_1_1_cafec0a7bd1a6caabcec664d137fddd08f.html" target="_top" xlink:title=" ">
<polygon fill="white" stroke="#666666" points="446,-569 237.25,-569 237.25,-525 446,-525 446,-569"/>
<text text-anchor="start" x="245.25" y="-555.5" font-family="Helvetica,sans-Serif" font-size="10.00">Deluxe.DeluxeBrandCenter.</text>
<text text-anchor="start" x="245.25" y="-543.5" font-family="Helvetica,sans-Serif" font-size="10.00">AMM.Tests.SUT.API.Services.Campaign</text>
<text text-anchor="middle" x="341.62" y="-531.5" font-family="Helvetica,sans-Serif" font-size="10.00">BuilderService.LaunchCampaign.FailureTest</text>
</a>
</g>
</g>
<!-- Node0&#45;&gt;Node1 -->
<g id="edge213_Node000000_Node000001" class="edge">
<title>Node0&#45;&gt;Node1</title>
<g id="a_edge213_Node000000_Node000001"><a xlink:title=" ">
<path fill="none" stroke="#63b8ff" d="M119.34,-195.7C166.86,-271.13 285.72,-459.83 326.57,-524.69"/>
<polygon fill="#63b8ff" stroke="#63b8ff" points="122.49,-194.12 114.2,-187.53 116.56,-197.85 122.49,-194.12"/>
</a>
</g>
</g>
<!-- Node13 -->
<g id="Node000013" class="node">
<title>Node13</title>
<g id="a_Node000013"><a xlink:href="df/d35/class_deluxe_1_1_deluxe_brand_center_1_1_a_m_m_1_1_tests_1_1_s_u_t_1_1_a_p_i_1_1_services_1_1_ca89a34d6a35523a8d6e95895d9a21d568.html" target="_top" xlink:title=" ">
<polygon fill="white" stroke="#666666" points="446,-192 237.25,-192 237.25,-136 446,-136 446,-192"/>
<text text-anchor="start" x="245.25" y="-178.5" font-family="Helvetica,sans-Serif" font-size="10.00">Deluxe.DeluxeBrandCenter.</text>
<text text-anchor="start" x="245.25" y="-166.5" font-family="Helvetica,sans-Serif" font-size="10.00">AMM.Tests.SUT.API.Services.Campaign</text>
<text text-anchor="start" x="245.25" y="-154.5" font-family="Helvetica,sans-Serif" font-size="10.00">BuilderService.LaunchCampaign.FailureTest</text>
<text text-anchor="middle" x="341.62" y="-142.5" font-family="Helvetica,sans-Serif" font-size="10.00">WithoutDefaultActer</text>
</a>
</g>
</g>
<!-- Node0&#45;&gt;Node13 -->
<g id="edge225_Node000000_Node000013" class="edge">
<title>Node0&#45;&gt;Node13</title>
<g id="a_edge225_Node000000_Node000013"><a xlink:title=" ">
<path fill="none" stroke="#63b8ff" d="M208.56,-164C217.96,-164 227.45,-164 236.81,-164"/>
<polygon fill="#63b8ff" stroke="#63b8ff" points="208.67,-160.5 198.67,-164 208.67,-167.5 208.67,-160.5"/>
</a>
</g>
</g>
<!-- Node15 -->
<g id="Node000015" class="node">
<title>Node15</title>
<g id="a_Node000015"><a xlink:href="d8/d6b/class_deluxe_1_1_deluxe_brand_center_1_1_a_m_m_1_1_tests_1_1_s_u_t_1_1_a_p_i_1_1_services_1_1_ca175bd470432734d14df09b506a159183.html" target="_top" xlink:title=" ">
<polygon fill="white" stroke="#666666" points="450.5,-112 232.75,-112 232.75,-68 450.5,-68 450.5,-112"/>
<text text-anchor="start" x="240.75" y="-98.5" font-family="Helvetica,sans-Serif" font-size="10.00">Deluxe.DeluxeBrandCenter.</text>
<text text-anchor="start" x="240.75" y="-86.5" font-family="Helvetica,sans-Serif" font-size="10.00">AMM.Tests.SUT.API.Services.Campaign</text>
<text text-anchor="middle" x="341.62" y="-74.5" font-family="Helvetica,sans-Serif" font-size="10.00">BuilderService.LaunchCampaign.SuccessTest</text>
</a>
</g>
</g>
<!-- Node0&#45;&gt;Node15 -->
<g id="edge227_Node000000_Node000015" class="edge">
<title>Node0&#45;&gt;Node15</title>
<g id="a_edge227_Node000000_Node000015"><a xlink:title=" ">
<path fill="none" stroke="#63b8ff" d="M183.17,-138.3C210.6,-129.88 240.84,-120.61 267.42,-112.45"/>
<polygon fill="#63b8ff" stroke="#63b8ff" points="182.39,-134.87 173.86,-141.15 184.45,-141.57 182.39,-134.87"/>
</a>
</g>
</g>
<!-- Node2 -->
<g id="Node000002" class="node">
<title>Node2</title>
<g id="a_Node000002"><a xlink:href="d3/da5/class_deluxe_1_1_deluxe_brand_center_1_1_a_m_m_1_1_tests_1_1_s_u_t_1_1_a_p_i_1_1_services_1_1_ca1898569d3275ec518d2408bf72aa4bb9.html" target="_top" xlink:title=" ">
<polygon fill="white" stroke="#666666" points="743.25,-934 495.5,-934 495.5,-890 743.25,-890 743.25,-934"/>
<text text-anchor="start" x="503.5" y="-920.5" font-family="Helvetica,sans-Serif" font-size="10.00">Deluxe.DeluxeBrandCenter.</text>
<text text-anchor="start" x="503.5" y="-908.5" font-family="Helvetica,sans-Serif" font-size="10.00">AMM.Tests.SUT.API.Services.Campaign</text>
<text text-anchor="middle" x="619.38" y="-896.5" font-family="Helvetica,sans-Serif" font-size="10.00">BuilderService.LaunchCampaign.CampaignNotFound</text>
</a>
</g>
</g>
<!-- Node1&#45;&gt;Node2 -->
<g id="edge214_Node000001_Node000002" class="edge">
<title>Node1&#45;&gt;Node2</title>
<g id="a_edge214_Node000001_Node000002"><a xlink:title=" ">
<path fill="none" stroke="#63b8ff" d="M347.04,-580.61C357.79,-648.35 391.77,-801.62 486.5,-881 490.29,-884.17 494.34,-887.03 498.59,-889.61"/>
<polygon fill="#63b8ff" stroke="#63b8ff" points="350.52,-580.23 345.57,-570.86 343.6,-581.27 350.52,-580.23"/>
</a>
</g>
</g>
<!-- Node3 -->
<g id="Node000003" class="node">
<title>Node3</title>
<g id="a_Node000003"><a xlink:href="d7/db7/class_deluxe_1_1_deluxe_brand_center_1_1_a_m_m_1_1_tests_1_1_s_u_t_1_1_a_p_i_1_1_services_1_1_caabc268621ef1bcda282685d7a460e0be.html" target="_top" xlink:title=" ">
<polygon fill="white" stroke="#666666" points="752.25,-872 486.5,-872 486.5,-828 752.25,-828 752.25,-872"/>
<text text-anchor="start" x="494.5" y="-858.5" font-family="Helvetica,sans-Serif" font-size="10.00">Deluxe.DeluxeBrandCenter.</text>
<text text-anchor="start" x="494.5" y="-846.5" font-family="Helvetica,sans-Serif" font-size="10.00">AMM.Tests.SUT.API.Services.Campaign</text>
<text text-anchor="middle" x="619.38" y="-834.5" font-family="Helvetica,sans-Serif" font-size="10.00">BuilderService.LaunchCampaign.CampaignTemplateError</text>
</a>
</g>
</g>
<!-- Node1&#45;&gt;Node3 -->
<g id="edge215_Node000001_Node000003" class="edge">
<title>Node1&#45;&gt;Node3</title>
<g id="a_edge215_Node000001_Node000003"><a xlink:title=" ">
<path fill="none" stroke="#63b8ff" d="M350.61,-580.48C366.26,-638.47 406.6,-757.3 486.5,-819 490.6,-822.16 494.96,-825.01 499.52,-827.57"/>
<polygon fill="#63b8ff" stroke="#63b8ff" points="354.02,-579.66 348.11,-570.86 347.24,-581.42 354.02,-579.66"/>
</a>
</g>
</g>
<!-- Node4 -->
<g id="Node000004" class="node">
<title>Node4</title>
<g id="a_Node000004"><a xlink:href="df/d6e/class_deluxe_1_1_deluxe_brand_center_1_1_a_m_m_1_1_tests_1_1_s_u_t_1_1_a_p_i_1_1_services_1_1_ca708692ca734c9044d2616e3c982ef00d.html" target="_top" xlink:title=" ">
<polygon fill="white" stroke="#666666" points="742.12,-810 496.62,-810 496.62,-766 742.12,-766 742.12,-810"/>
<text text-anchor="start" x="504.62" y="-796.5" font-family="Helvetica,sans-Serif" font-size="10.00">Deluxe.DeluxeBrandCenter.</text>
<text text-anchor="start" x="504.62" y="-784.5" font-family="Helvetica,sans-Serif" font-size="10.00">AMM.Tests.SUT.API.Services.Campaign</text>
<text text-anchor="middle" x="619.38" y="-772.5" font-family="Helvetica,sans-Serif" font-size="10.00">BuilderService.LaunchCampaign.FilterValidationError</text>
</a>
</g>
</g>
<!-- Node1&#45;&gt;Node4 -->
<g id="edge216_Node000001_Node000004" class="edge">
<title>Node1&#45;&gt;Node4</title>
<g id="a_edge216_Node000001_Node000004"><a xlink:title=" ">
<path fill="none" stroke="#63b8ff" d="M355.92,-579.96C376.6,-626.87 421.01,-712.15 486.5,-757 491.16,-760.19 496.1,-763.05 501.23,-765.62"/>
<polygon fill="#63b8ff" stroke="#63b8ff" points="359.17,-578.66 352,-570.85 352.74,-581.42 359.17,-578.66"/>
</a>
</g>
</g>
<!-- Node5 -->
<g id="Node000005" class="node">
<title>Node5</title>
<g id="a_Node000005"><a xlink:href="d0/d41/class_deluxe_1_1_deluxe_brand_center_1_1_a_m_m_1_1_tests_1_1_s_u_t_1_1_a_p_i_1_1_services_1_1_ca0804a7917dbfab010328979f3e78f147.html" target="_top" xlink:title=" ">
<polygon fill="white" stroke="#666666" points="732,-748 506.75,-748 506.75,-692 732,-692 732,-748"/>
<text text-anchor="start" x="514.75" y="-734.5" font-family="Helvetica,sans-Serif" font-size="10.00">Deluxe.DeluxeBrandCenter.</text>
<text text-anchor="start" x="514.75" y="-722.5" font-family="Helvetica,sans-Serif" font-size="10.00">AMM.Tests.SUT.API.Services.Campaign</text>
<text text-anchor="start" x="514.75" y="-710.5" font-family="Helvetica,sans-Serif" font-size="10.00">BuilderService.LaunchCampaign.LaunchAlready</text>
<text text-anchor="middle" x="619.38" y="-698.5" font-family="Helvetica,sans-Serif" font-size="10.00">LaunchedCampaignError</text>
</a>
</g>
</g>
<!-- Node1&#45;&gt;Node5 -->
<g id="edge217_Node000001_Node000005" class="edge">
<title>Node1&#45;&gt;Node5</title>
<g id="a_edge217_Node000001_Node000005"><a xlink:title=" ">
<path fill="none" stroke="#63b8ff" d="M367.42,-577.96C393.8,-608.91 438.32,-655.71 486.5,-683 492.81,-686.57 499.49,-689.82 506.36,-692.77"/>
<polygon fill="#63b8ff" stroke="#63b8ff" points="370.23,-575.87 361.12,-570.45 364.87,-580.36 370.23,-575.87"/>
</a>
</g>
</g>
<!-- Node6 -->
<g id="Node000006" class="node">
<title>Node6</title>
<g id="a_Node000006"><a xlink:href="db/d69/class_deluxe_1_1_deluxe_brand_center_1_1_a_m_m_1_1_tests_1_1_s_u_t_1_1_a_p_i_1_1_services_1_1_ca6777966e9919441b18058b8ded8bf40e.html" target="_top" xlink:title=" ">
<polygon fill="white" stroke="#666666" points="741.75,-674 497,-674 497,-618 741.75,-618 741.75,-674"/>
<text text-anchor="start" x="505" y="-660.5" font-family="Helvetica,sans-Serif" font-size="10.00">Deluxe.DeluxeBrandCenter.</text>
<text text-anchor="start" x="505" y="-648.5" font-family="Helvetica,sans-Serif" font-size="10.00">AMM.Tests.SUT.API.Services.Campaign</text>
<text text-anchor="start" x="505" y="-636.5" font-family="Helvetica,sans-Serif" font-size="10.00">BuilderService.LaunchCampaign.MapUserCampaign</text>
<text text-anchor="middle" x="619.38" y="-624.5" font-family="Helvetica,sans-Serif" font-size="10.00">ToXMLError</text>
</a>
</g>
</g>
<!-- Node1&#45;&gt;Node6 -->
<g id="edge218_Node000001_Node000006" class="edge">
<title>Node1&#45;&gt;Node6</title>
<g id="a_edge218_Node000001_Node000006"><a xlink:title=" ">
<path fill="none" stroke="#63b8ff" d="M400.68,-574.11C426.62,-585.68 457.77,-598.83 486.5,-609 494.79,-611.94 503.45,-614.8 512.18,-617.54"/>
<polygon fill="#63b8ff" stroke="#63b8ff" points="402.21,-570.97 391.65,-570.06 399.34,-577.35 402.21,-570.97"/>
</a>
</g>
</g>
<!-- Node7 -->
<g id="Node000007" class="node">
<title>Node7</title>
<g id="a_Node000007"><a xlink:href="d5/de7/class_deluxe_1_1_deluxe_brand_center_1_1_a_m_m_1_1_tests_1_1_s_u_t_1_1_a_p_i_1_1_services_1_1_ca1284dfadbc29639f51dd5156f1837347.html" target="_top" xlink:title=" ">
<polygon fill="white" stroke="#666666" points="737.62,-600 501.12,-600 501.12,-556 737.62,-556 737.62,-600"/>
<text text-anchor="start" x="509.12" y="-586.5" font-family="Helvetica,sans-Serif" font-size="10.00">Deluxe.DeluxeBrandCenter.</text>
<text text-anchor="start" x="509.12" y="-574.5" font-family="Helvetica,sans-Serif" font-size="10.00">AMM.Tests.SUT.API.Services.Campaign</text>
<text text-anchor="middle" x="619.38" y="-562.5" font-family="Helvetica,sans-Serif" font-size="10.00">BuilderService.LaunchCampaign.MapperException</text>
</a>
</g>
</g>
<!-- Node1&#45;&gt;Node7 -->
<g id="edge219_Node000001_Node000007" class="edge">
<title>Node1&#45;&gt;Node7</title>
<g id="a_edge219_Node000001_Node000007"><a xlink:title=" ">
<path fill="none" stroke="#63b8ff" d="M457.78,-559.95C471.98,-561.54 486.5,-563.17 500.74,-564.77"/>
<polygon fill="#63b8ff" stroke="#63b8ff" points="458.31,-556.48 447.99,-558.84 457.53,-563.44 458.31,-556.48"/>
</a>
</g>
</g>
<!-- Node8 -->
<g id="Node000008" class="node">
<title>Node8</title>
<g id="a_Node000008"><a xlink:href="d4/d91/class_deluxe_1_1_deluxe_brand_center_1_1_a_m_m_1_1_tests_1_1_s_u_t_1_1_a_p_i_1_1_services_1_1_cab8b2bbcda2c4f4ce77b06bafd9f99cb3.html" target="_top" xlink:title=" ">
<polygon fill="white" stroke="#666666" points="739.12,-538 499.62,-538 499.62,-494 739.12,-494 739.12,-538"/>
<text text-anchor="start" x="507.62" y="-524.5" font-family="Helvetica,sans-Serif" font-size="10.00">Deluxe.DeluxeBrandCenter.</text>
<text text-anchor="start" x="507.62" y="-512.5" font-family="Helvetica,sans-Serif" font-size="10.00">AMM.Tests.SUT.API.Services.Campaign</text>
<text text-anchor="middle" x="619.38" y="-500.5" font-family="Helvetica,sans-Serif" font-size="10.00">BuilderService.LaunchCampaign.PersonaNotFound</text>
</a>
</g>
</g>
<!-- Node1&#45;&gt;Node8 -->
<g id="edge220_Node000001_Node000008" class="edge">
<title>Node1&#45;&gt;Node8</title>
<g id="a_edge220_Node000001_Node000008"><a xlink:title=" ">
<path fill="none" stroke="#63b8ff" d="M457.9,-534.04C471.59,-532.5 485.59,-530.93 499.34,-529.38"/>
<polygon fill="#63b8ff" stroke="#63b8ff" points="457.53,-530.56 447.99,-535.16 458.31,-537.52 457.53,-530.56"/>
</a>
</g>
</g>
<!-- Node9 -->
<g id="Node000009" class="node">
<title>Node9</title>
<g id="a_Node000009"><a xlink:href="d5/d72/class_deluxe_1_1_deluxe_brand_center_1_1_a_m_m_1_1_tests_1_1_s_u_t_1_1_a_p_i_1_1_services_1_1_ca6fa9d397b9bf26ab67a17e3b4cd4cef5.html" target="_top" xlink:title=" ">
<polygon fill="white" stroke="#666666" points="744.75,-476 494,-476 494,-432 744.75,-432 744.75,-476"/>
<text text-anchor="start" x="502" y="-462.5" font-family="Helvetica,sans-Serif" font-size="10.00">Deluxe.DeluxeBrandCenter.</text>
<text text-anchor="start" x="502" y="-450.5" font-family="Helvetica,sans-Serif" font-size="10.00">AMM.Tests.SUT.API.Services.Campaign</text>
<text text-anchor="middle" x="619.38" y="-438.5" font-family="Helvetica,sans-Serif" font-size="10.00">BuilderService.LaunchCampaign.PublishProgramError</text>
</a>
</g>
</g>
<!-- Node1&#45;&gt;Node9 -->
<g id="edge221_Node000001_Node000009" class="edge">
<title>Node1&#45;&gt;Node9</title>
<g id="a_edge221_Node000001_Node000009"><a xlink:title=" ">
<path fill="none" stroke="#63b8ff" d="M399.27,-519.85C425.41,-508.04 457.1,-494.71 486.5,-485 495.66,-481.98 505.26,-479.13 514.94,-476.47"/>
<polygon fill="#63b8ff" stroke="#63b8ff" points="397.81,-516.67 390.17,-524 400.72,-523.03 397.81,-516.67"/>
</a>
</g>
</g>
<!-- Node10 -->
<g id="Node000010" class="node">
<title>Node10</title>
<g id="a_Node000010"><a xlink:href="d9/dba/class_deluxe_1_1_deluxe_brand_center_1_1_a_m_m_1_1_tests_1_1_s_u_t_1_1_a_p_i_1_1_services_1_1_caa9434b708b82bd7d5733a64922c8ff7a.html" target="_top" xlink:title=" ">
<polygon fill="white" stroke="#666666" points="728.25,-414 510.5,-414 510.5,-358 728.25,-358 728.25,-414"/>
<text text-anchor="start" x="518.5" y="-400.5" font-family="Helvetica,sans-Serif" font-size="10.00">Deluxe.DeluxeBrandCenter.</text>
<text text-anchor="start" x="518.5" y="-388.5" font-family="Helvetica,sans-Serif" font-size="10.00">AMM.Tests.SUT.API.Services.Campaign</text>
<text text-anchor="start" x="518.5" y="-376.5" font-family="Helvetica,sans-Serif" font-size="10.00">BuilderService.LaunchCampaign.SetOutbound</text>
<text text-anchor="middle" x="619.38" y="-364.5" font-family="Helvetica,sans-Serif" font-size="10.00">IdsError</text>
</a>
</g>
</g>
<!-- Node1&#45;&gt;Node10 -->
<g id="edge222_Node000001_Node000010" class="edge">
<title>Node1&#45;&gt;Node10</title>
<g id="a_edge222_Node000001_Node000010"><a xlink:title=" ">
<path fill="none" stroke="#63b8ff" d="M370.18,-516.57C397.22,-488.45 440.94,-447.44 486.5,-423 494.04,-418.95 502.07,-415.31 510.3,-412.04"/>
<polygon fill="#63b8ff" stroke="#63b8ff" points="367.71,-514.09 363.38,-523.75 372.8,-518.9 367.71,-514.09"/>
</a>
</g>
</g>
<!-- Node11 -->
<g id="Node000011" class="node">
<title>Node11</title>
<g id="a_Node000011"><a xlink:href="d5/d9d/class_deluxe_1_1_deluxe_brand_center_1_1_a_m_m_1_1_tests_1_1_s_u_t_1_1_a_p_i_1_1_services_1_1_cad53d40ba9b8fea5fdd02675ca9f074b7.html" target="_top" xlink:title=" ">
<polygon fill="white" stroke="#666666" points="728.25,-340 510.5,-340 510.5,-284 728.25,-284 728.25,-340"/>
<text text-anchor="start" x="518.5" y="-326.5" font-family="Helvetica,sans-Serif" font-size="10.00">Deluxe.DeluxeBrandCenter.</text>
<text text-anchor="start" x="518.5" y="-314.5" font-family="Helvetica,sans-Serif" font-size="10.00">AMM.Tests.SUT.API.Services.Campaign</text>
<text text-anchor="start" x="518.5" y="-302.5" font-family="Helvetica,sans-Serif" font-size="10.00">BuilderService.LaunchCampaign.SetOutbound</text>
<text text-anchor="middle" x="619.38" y="-290.5" font-family="Helvetica,sans-Serif" font-size="10.00">IdsException</text>
</a>
</g>
</g>
<!-- Node1&#45;&gt;Node11 -->
<g id="edge223_Node000001_Node000011" class="edge">
<title>Node1&#45;&gt;Node11</title>
<g id="a_edge223_Node000001_Node000011"><a xlink:title=" ">
<path fill="none" stroke="#63b8ff" d="M357.5,-514.62C379.43,-470.5 424.64,-392.05 486.5,-349 493.82,-343.91 501.82,-339.51 510.16,-335.72"/>
<polygon fill="#63b8ff" stroke="#63b8ff" points="354.44,-512.92 353.21,-523.44 360.73,-515.98 354.44,-512.92"/>
</a>
</g>
</g>
<!-- Node12 -->
<g id="Node000012" class="node">
<title>Node12</title>
<g id="a_Node000012"><a xlink:href="dd/da6/class_deluxe_1_1_deluxe_brand_center_1_1_a_m_m_1_1_tests_1_1_s_u_t_1_1_a_p_i_1_1_services_1_1_cab849786c5288483517d6cd65c62d4b69.html" target="_top" xlink:title=" ">
<polygon fill="white" stroke="#666666" points="735.38,-266 503.38,-266 503.38,-210 735.38,-210 735.38,-266"/>
<text text-anchor="start" x="511.38" y="-252.5" font-family="Helvetica,sans-Serif" font-size="10.00">Deluxe.DeluxeBrandCenter.</text>
<text text-anchor="start" x="511.38" y="-240.5" font-family="Helvetica,sans-Serif" font-size="10.00">AMM.Tests.SUT.API.Services.Campaign</text>
<text text-anchor="start" x="511.38" y="-228.5" font-family="Helvetica,sans-Serif" font-size="10.00">BuilderService.LaunchCampaign.SocialCampaign</text>
<text text-anchor="middle" x="619.38" y="-216.5" font-family="Helvetica,sans-Serif" font-size="10.00">ElementNotFound</text>
</a>
</g>
</g>
<!-- Node1&#45;&gt;Node12 -->
<g id="edge224_Node000001_Node000012" class="edge">
<title>Node1&#45;&gt;Node12</title>
<g id="a_edge224_Node000001_Node000012"><a xlink:title=" ">
<path fill="none" stroke="#63b8ff" d="M350.89,-513.87C366.96,-456.42 407.93,-338.39 486.5,-275 491.59,-270.89 497.11,-267.24 502.9,-264"/>
<polygon fill="#63b8ff" stroke="#63b8ff" points="347.55,-512.82 348.31,-523.38 354.31,-514.64 347.55,-512.82"/>
</a>
</g>
</g>
<!-- Node14 -->
<g id="Node000014" class="node">
<title>Node14</title>
<g id="a_Node000014"><a xlink:href="de/da0/class_deluxe_1_1_deluxe_brand_center_1_1_a_m_m_1_1_tests_1_1_s_u_t_1_1_a_p_i_1_1_services_1_1_ca9c27568c593ee54d88668ead1c682981.html" target="_top" xlink:title=" ">
<polygon fill="white" stroke="#666666" points="732.38,-192 506.38,-192 506.38,-136 732.38,-136 732.38,-192"/>
<text text-anchor="start" x="514.38" y="-178.5" font-family="Helvetica,sans-Serif" font-size="10.00">Deluxe.DeluxeBrandCenter.</text>
<text text-anchor="start" x="514.38" y="-166.5" font-family="Helvetica,sans-Serif" font-size="10.00">AMM.Tests.SUT.API.Services.Campaign</text>
<text text-anchor="start" x="514.38" y="-154.5" font-family="Helvetica,sans-Serif" font-size="10.00">BuilderService.LaunchCampaign.UserCampaign</text>
<text text-anchor="middle" x="619.38" y="-142.5" font-family="Helvetica,sans-Serif" font-size="10.00">NotFound</text>
</a>
</g>
</g>
<!-- Node13&#45;&gt;Node14 -->
<g id="edge226_Node000013_Node000014" class="edge">
<title>Node13&#45;&gt;Node14</title>
<g id="a_edge226_Node000013_Node000014"><a xlink:title=" ">
<path fill="none" stroke="#63b8ff" d="M457.56,-164C473.69,-164 490.25,-164 506.32,-164"/>
<polygon fill="#63b8ff" stroke="#63b8ff" points="457.99,-160.5 447.99,-164 457.99,-167.5 457.99,-160.5"/>
</a>
</g>
</g>
<!-- Node16 -->
<g id="Node000016" class="node">
<title>Node16</title>
<g id="a_Node000016"><a xlink:href="db/d87/class_deluxe_1_1_deluxe_brand_center_1_1_a_m_m_1_1_tests_1_1_s_u_t_1_1_a_p_i_1_1_services_1_1_caf0a8581ccb3d38f5e684813e95f0fd66.html" target="_top" xlink:title=" ">
<polygon fill="white" stroke="#666666" points="732,-118 506.75,-118 506.75,-62 732,-62 732,-118"/>
<text text-anchor="start" x="514.75" y="-104.5" font-family="Helvetica,sans-Serif" font-size="10.00">Deluxe.DeluxeBrandCenter.</text>
<text text-anchor="start" x="514.75" y="-92.5" font-family="Helvetica,sans-Serif" font-size="10.00">AMM.Tests.SUT.API.Services.Campaign</text>
<text text-anchor="start" x="514.75" y="-80.5" font-family="Helvetica,sans-Serif" font-size="10.00">BuilderService.LaunchCampaign.LaunchAlready</text>
<text text-anchor="middle" x="619.38" y="-68.5" font-family="Helvetica,sans-Serif" font-size="10.00">LaunchedCampaignSuccess</text>
</a>
</g>
</g>
<!-- Node15&#45;&gt;Node16 -->
<g id="edge228_Node000015_Node000016" class="edge">
<title>Node15&#45;&gt;Node16</title>
<g id="a_edge228_Node000015_Node000016"><a xlink:title=" ">
<path fill="none" stroke="#63b8ff" d="M462.02,-90C476.76,-90 491.79,-90 506.41,-90"/>
<polygon fill="#63b8ff" stroke="#63b8ff" points="462.33,-86.5 452.33,-90 462.33,-93.5 462.33,-86.5"/>
</a>
</g>
</g>
<!-- Node17 -->
<g id="Node000017" class="node">
<title>Node17</title>
<g id="a_Node000017"><a xlink:href="d9/d00/class_deluxe_1_1_deluxe_brand_center_1_1_a_m_m_1_1_tests_1_1_s_u_t_1_1_a_p_i_1_1_services_1_1_ca50f43ed4e17c3427a6bdcfc21aae36c5.html" target="_top" xlink:title=" ">
<polygon fill="white" stroke="#666666" points="718.88,-44 519.88,-44 519.88,0 718.88,0 718.88,-44"/>
<text text-anchor="start" x="527.88" y="-30.5" font-family="Helvetica,sans-Serif" font-size="10.00">Deluxe.DeluxeBrandCenter.</text>
<text text-anchor="start" x="527.88" y="-18.5" font-family="Helvetica,sans-Serif" font-size="10.00">AMM.Tests.SUT.API.Services.Campaign</text>
<text text-anchor="middle" x="619.38" y="-6.5" font-family="Helvetica,sans-Serif" font-size="10.00">BuilderService.LaunchCampaign.Success</text>
</a>
</g>
</g>
<!-- Node15&#45;&gt;Node17 -->
<g id="edge229_Node000015_Node000017" class="edge">
<title>Node15&#45;&gt;Node17</title>
<g id="a_edge229_Node000015_Node000017"><a xlink:title=" ">
<path fill="none" stroke="#63b8ff" d="M439.66,-64.75C455.31,-60.77 471.34,-56.73 486.5,-53 497.92,-50.19 509.91,-47.29 521.81,-44.46"/>
<polygon fill="#63b8ff" stroke="#63b8ff" points="439.19,-61.26 430.37,-67.13 440.92,-68.04 439.19,-61.26"/>
</a>
</g>
</g>
</g>
</svg>
