<?xml version="1.0" encoding="UTF-8" standalone="no"?>
<!DOCTYPE svg PUBLIC "-//W3C//DTD SVG 1.1//EN"
 "http://www.w3.org/Graphics/SVG/1.1/DTD/svg11.dtd">
<!-- Generated by graphviz version 12.1.1 (20240910.0053)
 -->
<!-- Title: Graphical Class Hierarchy Pages: 1 -->
<svg width="615pt" height="114pt"
 viewBox="0.00 0.00 614.75 114.00" xmlns="http://www.w3.org/2000/svg" xmlns:xlink="http://www.w3.org/1999/xlink">
<g id="graph0" class="graph" transform="scale(1 1) rotate(0) translate(4 110)">
<title>Graphical Class Hierarchy</title>
<!-- Node0 -->
<g id="Node000000" class="node">
<title>Node0</title>
<g id="a_Node000000"><a xlink:href="d9/d0a/class_deluxe_1_1_deluxe_brand_center_1_1_a_m_m_1_1_script_runner_1_1_models_1_1_csv_log_entry.html" target="_top" xlink:title=" ">
<polygon fill="white" stroke="#666666" points="193.75,-69 0,-69 0,-37 193.75,-37 193.75,-69"/>
<text text-anchor="start" x="8" y="-55.5" font-family="Helvetica,sans-Serif" font-size="10.00">Deluxe.DeluxeBrandCenter.</text>
<text text-anchor="middle" x="96.88" y="-43.5" font-family="Helvetica,sans-Serif" font-size="10.00">AMM.ScriptRunner.Models.CsvLogEntry</text>
</a>
</g>
</g>
<!-- Node1 -->
<g id="Node000001" class="node">
<title>Node1</title>
<g id="a_Node000001"><a xlink:href="dd/dfb/class_deluxe_1_1_deluxe_brand_center_1_1_a_m_m_1_1_script_runner_1_1_models_1_1_csv_log_script_entry.html" target="_top" xlink:title=" ">
<polygon fill="white" stroke="#666666" points="400.25,-75 229.75,-75 229.75,-31 400.25,-31 400.25,-75"/>
<text text-anchor="start" x="237.75" y="-61.5" font-family="Helvetica,sans-Serif" font-size="10.00">Deluxe.DeluxeBrandCenter.</text>
<text text-anchor="start" x="237.75" y="-49.5" font-family="Helvetica,sans-Serif" font-size="10.00">AMM.ScriptRunner.Models.CsvLog</text>
<text text-anchor="middle" x="315" y="-37.5" font-family="Helvetica,sans-Serif" font-size="10.00">ScriptEntry</text>
</a>
</g>
</g>
<!-- Node0&#45;&gt;Node1 -->
<g id="edge180_Node000000_Node000001" class="edge">
<title>Node0&#45;&gt;Node1</title>
<g id="a_edge180_Node000000_Node000001"><a xlink:title=" ">
<path fill="none" stroke="#63b8ff" d="M205.53,-53C213.53,-53 221.53,-53 229.36,-53"/>
<polygon fill="#63b8ff" stroke="#63b8ff" points="205.76,-49.5 195.76,-53 205.76,-56.5 205.76,-49.5"/>
</a>
</g>
</g>
<!-- Node2 -->
<g id="Node000002" class="node">
<title>Node2</title>
<g id="a_Node000002"><a xlink:href="d2/d67/class_deluxe_1_1_deluxe_brand_center_1_1_a_m_m_1_1_script_runner_1_1_models_1_1_csv_log_campaign_script_entry.html" target="_top" xlink:title=" ">
<polygon fill="white" stroke="#666666" points="606.75,-106 436.25,-106 436.25,-62 606.75,-62 606.75,-106"/>
<text text-anchor="start" x="444.25" y="-92.5" font-family="Helvetica,sans-Serif" font-size="10.00">Deluxe.DeluxeBrandCenter.</text>
<text text-anchor="start" x="444.25" y="-80.5" font-family="Helvetica,sans-Serif" font-size="10.00">AMM.ScriptRunner.Models.CsvLog</text>
<text text-anchor="middle" x="521.5" y="-68.5" font-family="Helvetica,sans-Serif" font-size="10.00">CampaignScriptEntry</text>
</a>
</g>
</g>
<!-- Node1&#45;&gt;Node2 -->
<g id="edge181_Node000001_Node000002" class="edge">
<title>Node1&#45;&gt;Node2</title>
<g id="a_edge181_Node000001_Node000002"><a xlink:title=" ">
<path fill="none" stroke="#63b8ff" d="M411.92,-67.54C419.93,-68.75 427.99,-69.98 435.91,-71.18"/>
<polygon fill="#63b8ff" stroke="#63b8ff" points="412.56,-64.1 402.15,-66.06 411.51,-71.02 412.56,-64.1"/>
</a>
</g>
</g>
<!-- Node3 -->
<g id="Node000003" class="node">
<title>Node3</title>
<g id="a_Node000003"><a xlink:href="d7/d12/class_deluxe_1_1_deluxe_brand_center_1_1_a_m_m_1_1_script_runner_1_1_models_1_1_csv_log_persona_script_entry.html" target="_top" xlink:title=" ">
<polygon fill="white" stroke="#666666" points="606.75,-44 436.25,-44 436.25,0 606.75,0 606.75,-44"/>
<text text-anchor="start" x="444.25" y="-30.5" font-family="Helvetica,sans-Serif" font-size="10.00">Deluxe.DeluxeBrandCenter.</text>
<text text-anchor="start" x="444.25" y="-18.5" font-family="Helvetica,sans-Serif" font-size="10.00">AMM.ScriptRunner.Models.CsvLog</text>
<text text-anchor="middle" x="521.5" y="-6.5" font-family="Helvetica,sans-Serif" font-size="10.00">PersonaScriptEntry</text>
</a>
</g>
</g>
<!-- Node1&#45;&gt;Node3 -->
<g id="edge182_Node000001_Node000003" class="edge">
<title>Node1&#45;&gt;Node3</title>
<g id="a_edge182_Node000001_Node000003"><a xlink:title=" ">
<path fill="none" stroke="#63b8ff" d="M411.92,-38.46C419.93,-37.25 427.99,-36.02 435.91,-34.82"/>
<polygon fill="#63b8ff" stroke="#63b8ff" points="411.51,-34.98 402.15,-39.94 412.56,-41.9 411.51,-34.98"/>
</a>
</g>
</g>
</g>
</svg>
