<?xml version="1.0" encoding="UTF-8" standalone="no"?>
<!DOCTYPE svg PUBLIC "-//W3C//DTD SVG 1.1//EN"
 "http://www.w3.org/Graphics/SVG/1.1/DTD/svg11.dtd">
<!-- Generated by graphviz version 12.1.1 (20240910.0053)
 -->
<!-- Title: Graphical Class Hierarchy Pages: 1 -->
<svg width="284pt" height="114pt"
 viewBox="0.00 0.00 283.75 114.00" xmlns="http://www.w3.org/2000/svg" xmlns:xlink="http://www.w3.org/1999/xlink">
<g id="graph0" class="graph" transform="scale(1 1) rotate(0) translate(4 110)">
<title>Graphical Class Hierarchy</title>
<!-- Node0 -->
<g id="Node000000" class="node">
<title>Node0</title>
<g id="a_Node000000"><a xlink:title=" ">
<polygon fill="#e0e0e0" stroke="#999999" points="54.25,-63 0,-63 0,-43 54.25,-43 54.25,-63"/>
<text text-anchor="middle" x="27.12" y="-49.5" font-family="Helvetica,sans-Serif" font-size="10.00">ISession</text>
</a>
</g>
</g>
<!-- Node1 -->
<g id="Node000001" class="node">
<title>Node1</title>
<g id="a_Node000001"><a xlink:href="d1/da9/class_deluxe_1_1_deluxe_brand_center_1_1_a_m_m_1_1_a_p_i_1_1_services_1_1_session_1_1_database_session.html" target="_top" xlink:title=" ">
<polygon fill="white" stroke="#666666" points="274.62,-106 91.38,-106 91.38,-62 274.62,-62 274.62,-106"/>
<text text-anchor="start" x="99.38" y="-92.5" font-family="Helvetica,sans-Serif" font-size="10.00">Deluxe.DeluxeBrandCenter.</text>
<text text-anchor="start" x="99.38" y="-80.5" font-family="Helvetica,sans-Serif" font-size="10.00">AMM.API.Services.Session.Database</text>
<text text-anchor="middle" x="183" y="-68.5" font-family="Helvetica,sans-Serif" font-size="10.00">Session</text>
</a>
</g>
</g>
<!-- Node0&#45;&gt;Node1 -->
<g id="edge332_Node000000_Node000001" class="edge">
<title>Node0&#45;&gt;Node1</title>
<g id="a_edge332_Node000000_Node000001"><a xlink:title=" ">
<path fill="none" stroke="#63b8ff" d="M65.84,-60.6C73.67,-62.18 82.25,-63.9 91.08,-65.68"/>
<polygon fill="#63b8ff" stroke="#63b8ff" points="66.56,-57.17 56.06,-58.63 65.17,-64.03 66.56,-57.17"/>
</a>
</g>
</g>
<!-- Node2 -->
<g id="Node000002" class="node">
<title>Node2</title>
<g id="a_Node000002"><a xlink:href="d8/ded/class_deluxe_1_1_deluxe_brand_center_1_1_a_m_m_1_1_a_p_i_1_1_services_1_1_session_1_1_dictionary_session.html" target="_top" xlink:title=" ">
<polygon fill="white" stroke="#666666" points="275.75,-44 90.25,-44 90.25,0 275.75,0 275.75,-44"/>
<text text-anchor="start" x="98.25" y="-30.5" font-family="Helvetica,sans-Serif" font-size="10.00">Deluxe.DeluxeBrandCenter.</text>
<text text-anchor="start" x="98.25" y="-18.5" font-family="Helvetica,sans-Serif" font-size="10.00">AMM.API.Services.Session.Dictionary</text>
<text text-anchor="middle" x="183" y="-6.5" font-family="Helvetica,sans-Serif" font-size="10.00">Session</text>
</a>
</g>
</g>
<!-- Node0&#45;&gt;Node2 -->
<g id="edge333_Node000000_Node000002" class="edge">
<title>Node0&#45;&gt;Node2</title>
<g id="a_edge333_Node000000_Node000002"><a xlink:title=" ">
<path fill="none" stroke="#63b8ff" d="M65.71,-45.43C73.2,-43.92 81.36,-42.28 89.78,-40.58"/>
<polygon fill="#63b8ff" stroke="#63b8ff" points="65.17,-41.97 56.06,-47.37 66.56,-48.83 65.17,-41.97"/>
</a>
</g>
</g>
</g>
</svg>
