<?xml version="1.0" encoding="UTF-8" standalone="no"?>
<!DOCTYPE svg PUBLIC "-//W3C//DTD SVG 1.1//EN"
 "http://www.w3.org/Graphics/SVG/1.1/DTD/svg11.dtd">
<!-- Generated by graphviz version 12.1.1 (20240910.0053)
 -->
<!-- Title: Graphical Class Hierarchy Pages: 1 -->
<svg width="616pt" height="108pt"
 viewBox="0.00 0.00 615.50 108.00" xmlns="http://www.w3.org/2000/svg" xmlns:xlink="http://www.w3.org/1999/xlink">
<g id="graph0" class="graph" transform="scale(1 1) rotate(0) translate(4 104)">
<title>Graphical Class Hierarchy</title>
<!-- Node0 -->
<g id="Node000000" class="node">
<title>Node0</title>
<g id="a_Node000000"><a xlink:href="d3/dac/interface_deluxe_1_1_deluxe_brand_center_1_1_a_m_m_1_1_a_p_i_1_1_services_1_1_i_named_db_service.html" target="_top" xlink:title=" ">
<polygon fill="white" stroke="#666666" points="183.25,-100 0,-100 0,-56 183.25,-56 183.25,-100"/>
<text text-anchor="start" x="8" y="-86.5" font-family="Helvetica,sans-Serif" font-size="10.00">Deluxe.DeluxeBrandCenter.</text>
<text text-anchor="start" x="8" y="-74.5" font-family="Helvetica,sans-Serif" font-size="10.00">AMM.API.Services.INamedDbService</text>
<text text-anchor="middle" x="91.62" y="-62.5" font-family="Helvetica,sans-Serif" font-size="10.00">&lt; Settings, SettingsVM &gt;</text>
</a>
</g>
</g>
<!-- Node1 -->
<g id="Node000001" class="node">
<title>Node1</title>
<g id="a_Node000001"><a xlink:href="d3/d8e/interface_deluxe_1_1_deluxe_brand_center_1_1_a_m_m_1_1_a_p_i_1_1_services_1_1_i_settings_service.html" target="_top" xlink:title=" ">
<polygon fill="white" stroke="#666666" points="396.88,-94 221.88,-94 221.88,-62 396.88,-62 396.88,-94"/>
<text text-anchor="start" x="229.88" y="-80.5" font-family="Helvetica,sans-Serif" font-size="10.00">Deluxe.DeluxeBrandCenter.</text>
<text text-anchor="middle" x="309.38" y="-68.5" font-family="Helvetica,sans-Serif" font-size="10.00">AMM.API.Services.ISettingsService</text>
</a>
</g>
</g>
<!-- Node0&#45;&gt;Node1 -->
<g id="edge75_Node000000_Node000001" class="edge">
<title>Node0&#45;&gt;Node1</title>
<g id="a_edge75_Node000000_Node000001"><a xlink:title=" ">
<path fill="none" stroke="#63b8ff" d="M194.74,-78C203.66,-78 212.62,-78 221.4,-78"/>
<polygon fill="#63b8ff" stroke="#63b8ff" points="195.01,-74.5 185.01,-78 195.01,-81.5 195.01,-74.5"/>
</a>
</g>
</g>
<!-- Node2 -->
<g id="Node000002" class="node">
<title>Node2</title>
<g id="a_Node000002"><a xlink:href="d3/d4f/class_deluxe_1_1_deluxe_brand_center_1_1_a_m_m_1_1_a_p_i_1_1_services_1_1_settings_service.html" target="_top" xlink:title=" ">
<polygon fill="white" stroke="#666666" points="607.5,-66 435.5,-66 435.5,-34 607.5,-34 607.5,-66"/>
<text text-anchor="start" x="443.5" y="-52.5" font-family="Helvetica,sans-Serif" font-size="10.00">Deluxe.DeluxeBrandCenter.</text>
<text text-anchor="middle" x="521.5" y="-40.5" font-family="Helvetica,sans-Serif" font-size="10.00">AMM.API.Services.SettingsService</text>
</a>
</g>
</g>
<!-- Node1&#45;&gt;Node2 -->
<g id="edge76_Node000001_Node000002" class="edge">
<title>Node1&#45;&gt;Node2</title>
<g id="a_edge76_Node000001_Node000002"><a xlink:title=" ">
<path fill="none" stroke="#63b8ff" d="M408.59,-64.91C417.51,-63.72 426.49,-62.53 435.27,-61.36"/>
<polygon fill="#63b8ff" stroke="#63b8ff" points="408.31,-61.42 398.86,-66.21 409.23,-68.36 408.31,-61.42"/>
</a>
</g>
</g>
<!-- Node3 -->
<g id="Node000003" class="node">
<title>Node3</title>
<g id="a_Node000003"><a xlink:href="dd/dd8/class_deluxe_1_1_deluxe_brand_center_1_1_a_m_m_1_1_a_p_i_1_1_services_1_1_named_db_service.html" target="_top" xlink:title=" ">
<polygon fill="white" stroke="#666666" points="399.5,-44 219.25,-44 219.25,0 399.5,0 399.5,-44"/>
<text text-anchor="start" x="227.25" y="-30.5" font-family="Helvetica,sans-Serif" font-size="10.00">Deluxe.DeluxeBrandCenter.</text>
<text text-anchor="start" x="227.25" y="-18.5" font-family="Helvetica,sans-Serif" font-size="10.00">AMM.API.Services.NamedDbService</text>
<text text-anchor="middle" x="309.38" y="-6.5" font-family="Helvetica,sans-Serif" font-size="10.00">&lt; Settings, SettingsVM &gt;</text>
</a>
</g>
</g>
<!-- Node3&#45;&gt;Node2 -->
<g id="edge77_Node000003_Node000002" class="edge">
<title>Node3&#45;&gt;Node2</title>
<g id="a_edge77_Node000003_Node000002"><a xlink:title=" ">
<path fill="none" stroke="#63b8ff" d="M411.12,-35.43C419.17,-36.5 427.25,-37.57 435.17,-38.63"/>
<polygon fill="#63b8ff" stroke="#63b8ff" points="411.67,-31.97 401.29,-34.12 410.74,-38.91 411.67,-31.97"/>
</a>
</g>
</g>
</g>
</svg>
