<?xml version="1.0" encoding="UTF-8" standalone="no"?>
<!DOCTYPE svg PUBLIC "-//W3C//DTD SVG 1.1//EN"
 "http://www.w3.org/Graphics/SVG/1.1/DTD/svg11.dtd">
<!-- Generated by graphviz version 12.1.1 (20240910.0053)
 -->
<!-- Title: Graphical Class Hierarchy Pages: 1 -->
<svg width="588pt" height="108pt"
 viewBox="0.00 0.00 587.75 108.00" xmlns="http://www.w3.org/2000/svg" xmlns:xlink="http://www.w3.org/1999/xlink">
<g id="graph0" class="graph" transform="scale(1 1) rotate(0) translate(4 104)">
<title>Graphical Class Hierarchy</title>
<!-- Node0 -->
<g id="Node000000" class="node">
<title>Node0</title>
<g id="a_Node000000"><a xlink:href="d6/d4e/class_deluxe_1_1_deluxe_brand_center_1_1_a_m_m_1_1_a_p_i_1_1_services_1_1_d_b_service.html" target="_top" xlink:title=" ">
<polygon fill="white" stroke="#666666" points="353.75,-100 203.5,-100 203.5,-56 353.75,-56 353.75,-100"/>
<text text-anchor="start" x="211.5" y="-86.5" font-family="Helvetica,sans-Serif" font-size="10.00">Deluxe.DeluxeBrandCenter.</text>
<text text-anchor="start" x="211.5" y="-74.5" font-family="Helvetica,sans-Serif" font-size="10.00">AMM.API.Services.DBService</text>
<text text-anchor="middle" x="278.62" y="-62.5" font-family="Helvetica,sans-Serif" font-size="10.00">&lt; Template, TemplateVM &gt;</text>
</a>
</g>
</g>
<!-- Node1 -->
<g id="Node000001" class="node">
<title>Node1</title>
<g id="a_Node000001"><a xlink:href="de/d5c/class_deluxe_1_1_deluxe_brand_center_1_1_a_m_m_1_1_a_p_i_1_1_services_1_1_template_service.html" target="_top" xlink:title=" ">
<polygon fill="white" stroke="#666666" points="579.75,-66 404,-66 404,-34 579.75,-34 579.75,-66"/>
<text text-anchor="start" x="412" y="-52.5" font-family="Helvetica,sans-Serif" font-size="10.00">Deluxe.DeluxeBrandCenter.</text>
<text text-anchor="middle" x="491.88" y="-40.5" font-family="Helvetica,sans-Serif" font-size="10.00">AMM.API.Services.TemplateService</text>
</a>
</g>
</g>
<!-- Node0&#45;&gt;Node1 -->
<g id="edge42_Node000000_Node000001" class="edge">
<title>Node0&#45;&gt;Node1</title>
<g id="a_edge42_Node000000_Node000001"><a xlink:title=" ">
<path fill="none" stroke="#63b8ff" d="M365.15,-66.66C377.85,-64.98 390.96,-63.24 403.7,-61.55"/>
<polygon fill="#63b8ff" stroke="#63b8ff" points="365.06,-63.15 355.6,-67.93 365.98,-70.08 365.06,-63.15"/>
</a>
</g>
</g>
<!-- Node3 -->
<g id="Node000003" class="node">
<title>Node3</title>
<g id="a_Node000003"><a xlink:href="d3/ddb/interface_deluxe_1_1_deluxe_brand_center_1_1_a_m_m_1_1_a_p_i_1_1_services_1_1_i_d_b_service.html" target="_top" xlink:title=" ">
<polygon fill="white" stroke="#666666" points="153.25,-44 0,-44 0,0 153.25,0 153.25,-44"/>
<text text-anchor="start" x="8" y="-30.5" font-family="Helvetica,sans-Serif" font-size="10.00">Deluxe.DeluxeBrandCenter.</text>
<text text-anchor="start" x="8" y="-18.5" font-family="Helvetica,sans-Serif" font-size="10.00">AMM.API.Services.IDBService</text>
<text text-anchor="middle" x="76.62" y="-6.5" font-family="Helvetica,sans-Serif" font-size="10.00">&lt; Template, TemplateVM &gt;</text>
</a>
</g>
</g>
<!-- Node2 -->
<g id="Node000002" class="node">
<title>Node2</title>
<g id="a_Node000002"><a xlink:href="d0/ddb/interface_deluxe_1_1_deluxe_brand_center_1_1_a_m_m_1_1_a_p_i_1_1_services_1_1_i_template_service.html" target="_top" xlink:title=" ">
<polygon fill="white" stroke="#666666" points="368,-38 189.25,-38 189.25,-6 368,-6 368,-38"/>
<text text-anchor="start" x="197.25" y="-24.5" font-family="Helvetica,sans-Serif" font-size="10.00">Deluxe.DeluxeBrandCenter.</text>
<text text-anchor="middle" x="278.62" y="-12.5" font-family="Helvetica,sans-Serif" font-size="10.00">AMM.API.Services.ITemplateService</text>
</a>
</g>
</g>
<!-- Node3&#45;&gt;Node2 -->
<g id="edge43_Node000003_Node000002" class="edge">
<title>Node3&#45;&gt;Node2</title>
<g id="a_edge43_Node000003_Node000002"><a xlink:title=" ">
<path fill="none" stroke="#63b8ff" d="M164.79,-22C172.83,-22 180.98,-22 189.03,-22"/>
<polygon fill="#63b8ff" stroke="#63b8ff" points="165.04,-18.5 155.04,-22 165.04,-25.5 165.04,-18.5"/>
</a>
</g>
</g>
<!-- Node2&#45;&gt;Node1 -->
<g id="edge44_Node000002_Node000001" class="edge">
<title>Node2&#45;&gt;Node1</title>
<g id="a_edge44_Node000002_Node000001"><a xlink:title=" ">
<path fill="none" stroke="#63b8ff" d="M379.65,-35.26C387.71,-36.33 395.82,-37.4 403.78,-38.46"/>
<polygon fill="#63b8ff" stroke="#63b8ff" points="380.17,-31.8 369.8,-33.95 379.25,-38.74 380.17,-31.8"/>
</a>
</g>
</g>
</g>
</svg>
