<?xml version="1.0" encoding="UTF-8" standalone="no"?>
<!DOCTYPE svg PUBLIC "-//W3C//DTD SVG 1.1//EN"
 "http://www.w3.org/Graphics/SVG/1.1/DTD/svg11.dtd">
<!-- Generated by graphviz version 12.1.1 (20240910.0053)
 -->
<!-- Title: Deluxe.DeluxeBrandCenter.AMM.Domain.DataModel.TemplateThumbnailOverlayModel Pages: 1 -->
<svg width="222pt" height="220pt"
 viewBox="0.00 0.00 222.00 220.00" xmlns="http://www.w3.org/2000/svg" xmlns:xlink="http://www.w3.org/1999/xlink">

<svg id="main" version="1.1" xmlns="http://www.w3.org/2000/svg" xmlns:xlink="http://www.w3.org/1999/xlink" xml:space="preserve">

<style type="text/css"><![CDATA[
.node, .edge {opacity: 0.7;}
.node.selected, .edge.selected {opacity: 1;}
.edge:hover path { stroke: red; }
.edge:hover polygon { stroke: red; fill: red; }
]]></style>
<script type="application/ecmascript" xlink:href="../../svg.min.js"/>
<svg id="graph" class="graph">
<g id="graph0" class="graph" transform="scale(1 1) rotate(0) translate(4 216)">
<title>Deluxe.DeluxeBrandCenter.AMM.Domain.DataModel.TemplateThumbnailOverlayModel</title>
<!-- Node1 -->
<g id="Node000001" class="node">
<title>Node1</title>
<g id="a_Node000001"><a xlink:title=" ">
<polygon fill="#999999" stroke="#666666" points="214,-44 0,-44 0,0 214,0 214,-44"/>
<text text-anchor="start" x="8" y="-30.5" font-family="Helvetica,sans-Serif" font-size="10.00">Deluxe.DeluxeBrandCenter.</text>
<text text-anchor="start" x="8" y="-18.5" font-family="Helvetica,sans-Serif" font-size="10.00">AMM.Domain.DataModel.TemplateThumbnail</text>
<text text-anchor="middle" x="107" y="-6.5" font-family="Helvetica,sans-Serif" font-size="10.00">OverlayModel</text>
</a>
</g>
</g>
<!-- Node2 -->
<g id="Node000002" class="node">
<title>Node2</title>
<g id="a_Node000002"><a xlink:href="../../d7/d1c/class_deluxe_1_1_deluxe_brand_center_1_1_a_m_m_1_1_domain_1_1_data_model_1_1_base_entity.html" target="_top" xlink:title=" ">
<polygon fill="white" stroke="#666666" points="139,-100 75,-100 75,-80 139,-80 139,-100"/>
<text text-anchor="middle" x="107" y="-86.5" font-family="Helvetica,sans-Serif" font-size="10.00">BaseEntity</text>
</a>
</g>
</g>
<!-- Node2&#45;&gt;Node1 -->
<g id="edge1_Node000001_Node000002" class="edge">
<title>Node2&#45;&gt;Node1</title>
<g id="a_edge1_Node000001_Node000002"><a xlink:title=" ">
<path fill="none" stroke="#63b8ff" d="M107,-68.1C107,-60.55 107,-52.02 107,-44.43"/>
<polygon fill="#63b8ff" stroke="#63b8ff" points="103.5,-68.03 107,-78.03 110.5,-68.03 103.5,-68.03"/>
</a>
</g>
</g>
<!-- Node3 -->
<g id="Node000003" class="node">
<title>Node3</title>
<g id="a_Node000003"><a xlink:href="../../d6/df6/class_deluxe_1_1_deluxe_brand_center_1_1_a_m_m_1_1_domain_1_1_data_model_1_1_modified_entity.html" target="_top" xlink:title=" ">
<polygon fill="white" stroke="#666666" points="101.12,-156 22.88,-156 22.88,-136 101.12,-136 101.12,-156"/>
<text text-anchor="middle" x="62" y="-142.5" font-family="Helvetica,sans-Serif" font-size="10.00">ModifiedEntity</text>
</a>
</g>
</g>
<!-- Node3&#45;&gt;Node2 -->
<g id="edge2_Node000002_Node000003" class="edge">
<title>Node3&#45;&gt;Node2</title>
<g id="a_edge2_Node000002_Node000003"><a xlink:title=" ">
<path fill="none" stroke="#63b8ff" d="M77,-127C84.45,-118.06 93.15,-107.62 99.25,-100.3"/>
<polygon fill="#63b8ff" stroke="#63b8ff" points="74.52,-124.51 70.81,-134.43 79.9,-128.99 74.52,-124.51"/>
</a>
</g>
</g>
<!-- Node4 -->
<g id="Node000004" class="node">
<title>Node4</title>
<g id="a_Node000004"><a xlink:href="../../d6/dad/interface_deluxe_1_1_deluxe_brand_center_1_1_a_m_m_1_1_domain_1_1_data_model_1_1_interface_1_1_i_modified.html" target="_top" xlink:title=" ">
<polygon fill="white" stroke="#666666" points="134.88,-212 79.12,-212 79.12,-192 134.88,-192 134.88,-212"/>
<text text-anchor="middle" x="107" y="-198.5" font-family="Helvetica,sans-Serif" font-size="10.00">IModified</text>
</a>
</g>
</g>
<!-- Node4&#45;&gt;Node3 -->
<g id="edge3_Node000003_Node000004" class="edge">
<title>Node4&#45;&gt;Node3</title>
<g id="a_edge3_Node000003_Node000004"><a xlink:title=" ">
<path fill="none" stroke="#63b8ff" d="M92,-183C84.55,-174.06 75.85,-163.62 69.75,-156.3"/>
<polygon fill="#63b8ff" stroke="#63b8ff" points="89.1,-184.99 98.19,-190.43 94.48,-180.51 89.1,-184.99"/>
</a>
</g>
</g>
<!-- Node5 -->
<g id="Node000005" class="node">
<title>Node5</title>
<g id="a_Node000005"><a xlink:href="../../d5/d26/interface_deluxe_1_1_deluxe_brand_center_1_1_a_m_m_1_1_domain_1_1_data_model_1_1_interface_1_1_i_base_entity.html" target="_top" xlink:title=" ">
<polygon fill="white" stroke="#666666" points="186.5,-156 119.5,-156 119.5,-136 186.5,-136 186.5,-156"/>
<text text-anchor="middle" x="153" y="-142.5" font-family="Helvetica,sans-Serif" font-size="10.00">IBaseEntity</text>
</a>
</g>
</g>
<!-- Node4&#45;&gt;Node5 -->
<g id="edge5_Node000005_Node000004" class="edge">
<title>Node4&#45;&gt;Node5</title>
<g id="a_edge5_Node000005_Node000004"><a xlink:title=" ">
<path fill="none" stroke="#63b8ff" d="M122.33,-183C129.95,-174.06 138.84,-163.62 145.08,-156.3"/>
<polygon fill="#63b8ff" stroke="#63b8ff" points="119.81,-180.56 115.99,-190.44 125.14,-185.1 119.81,-180.56"/>
</a>
</g>
</g>
<!-- Node5&#45;&gt;Node2 -->
<g id="edge4_Node000002_Node000005" class="edge">
<title>Node5&#45;&gt;Node2</title>
<g id="a_edge4_Node000002_Node000005"><a xlink:title=" ">
<path fill="none" stroke="#63b8ff" d="M137.67,-127C130.05,-118.06 121.16,-107.62 114.92,-100.3"/>
<polygon fill="#63b8ff" stroke="#63b8ff" points="134.86,-129.1 144.01,-134.44 140.19,-124.56 134.86,-129.1"/>
</a>
</g>
</g>
</g>
</svg>
</svg>

<style type='text/css'>
<![CDATA[
[data-mouse-over-selected='false'] { opacity: 0.7; }
[data-mouse-over-selected='true']  { opacity: 1.0; }
]]>
</style>
<script type="application/ecmascript"><![CDATA[
document.addEventListener('DOMContentLoaded', (event) => {
  highlightEdges();
  highlightAdjacentNodes();
});
]]></script>
</svg>
