<?xml version="1.0" encoding="UTF-8" standalone="no"?>
<!DOCTYPE svg PUBLIC "-//W3C//DTD SVG 1.1//EN"
 "http://www.w3.org/Graphics/SVG/1.1/DTD/svg11.dtd">
<!-- Generated by graphviz version 12.1.1 (20240910.0053)
 -->
<!-- Title: Deluxe.DeluxeBrandCenter.AMM.API.Services.IStateService.GetStates Pages: 1 -->
<svg width="820pt" height="269pt"
 viewBox="0.00 0.00 819.75 269.00" xmlns="http://www.w3.org/2000/svg" xmlns:xlink="http://www.w3.org/1999/xlink">
<g id="graph0" class="graph" transform="scale(1 1) rotate(0) translate(4 265)">
<title>Deluxe.DeluxeBrandCenter.AMM.API.Services.IStateService.GetStates</title>
<!-- Node1 -->
<g id="Node000001" class="node">
<title>Node1</title>
<g id="a_Node000001"><a xlink:title=" ">
<polygon fill="#999999" stroke="#666666" points="811.75,-137 646.5,-137 646.5,-93 811.75,-93 811.75,-137"/>
<text text-anchor="start" x="654.5" y="-123.5" font-family="Helvetica,sans-Serif" font-size="10.00">Deluxe.DeluxeBrandCenter.</text>
<text text-anchor="start" x="654.5" y="-111.5" font-family="Helvetica,sans-Serif" font-size="10.00">AMM.API.Services.IStateService.</text>
<text text-anchor="middle" x="729.12" y="-99.5" font-family="Helvetica,sans-Serif" font-size="10.00">GetStates</text>
</a>
</g>
</g>
<!-- Node2 -->
<g id="Node000002" class="node">
<title>Node2</title>
<g id="a_Node000002"><a xlink:href="../../d4/d06/class_deluxe_1_1_deluxe_brand_center_1_1_a_m_m_1_1_a_p_i_1_1_services_1_1_contact_manager_service.html#a6b3cb62fedd89a5b7c82e4c21859750f" target="_top" xlink:title=" ">
<polygon fill="white" stroke="#666666" points="603.75,-230 428.75,-230 428.75,-186 603.75,-186 603.75,-230"/>
<text text-anchor="start" x="436.75" y="-216.5" font-family="Helvetica,sans-Serif" font-size="10.00">Deluxe.DeluxeBrandCenter.</text>
<text text-anchor="start" x="436.75" y="-204.5" font-family="Helvetica,sans-Serif" font-size="10.00">AMM.API.Services.ContactManager</text>
<text text-anchor="middle" x="516.25" y="-192.5" font-family="Helvetica,sans-Serif" font-size="10.00">Service.FormatCSV</text>
</a>
</g>
</g>
<!-- Node1&#45;&gt;Node2 -->
<g id="edge1_Node000001_Node000002" class="edge">
<title>Node1&#45;&gt;Node2</title>
<g id="a_edge1_Node000001_Node000002"><a xlink:title=" ">
<path fill="none" stroke="#63b8ff" d="M679.54,-142.91C658.66,-154.29 633.77,-167.08 610.5,-177 603.52,-179.98 596.14,-182.86 588.73,-185.58"/>
<polygon fill="#63b8ff" stroke="#63b8ff" points="681.04,-146.08 688.11,-138.19 677.66,-139.95 681.04,-146.08"/>
</a>
</g>
</g>
<!-- Node6 -->
<g id="Node000006" class="node">
<title>Node6</title>
<g id="a_Node000006"><a xlink:href="../../d4/d06/class_deluxe_1_1_deluxe_brand_center_1_1_a_m_m_1_1_a_p_i_1_1_services_1_1_contact_manager_service.html#ab308541a7dfc0ce6c37951b978981a75" target="_top" xlink:title=" ">
<polygon fill="white" stroke="#666666" points="610.5,-168 422,-168 422,-124 610.5,-124 610.5,-168"/>
<text text-anchor="start" x="430" y="-154.5" font-family="Helvetica,sans-Serif" font-size="10.00">Deluxe.DeluxeBrandCenter.</text>
<text text-anchor="start" x="430" y="-142.5" font-family="Helvetica,sans-Serif" font-size="10.00">AMM.API.Services.ContactManager</text>
<text text-anchor="middle" x="516.25" y="-130.5" font-family="Helvetica,sans-Serif" font-size="10.00">Service.GenerateGroupCreationOptions</text>
</a>
</g>
</g>
<!-- Node1&#45;&gt;Node6 -->
<g id="edge5_Node000001_Node000006" class="edge">
<title>Node1&#45;&gt;Node6</title>
<g id="a_edge5_Node000001_Node000006"><a xlink:title=" ">
<path fill="none" stroke="#63b8ff" d="M635.06,-128.68C627.06,-129.86 618.97,-131.05 610.96,-132.22"/>
<polygon fill="#63b8ff" stroke="#63b8ff" points="635.41,-132.17 644.8,-127.25 634.39,-125.24 635.41,-132.17"/>
</a>
</g>
</g>
<!-- Node7 -->
<g id="Node000007" class="node">
<title>Node7</title>
<g id="a_Node000007"><a xlink:href="../../d4/dfa/class_deluxe_1_1_deluxe_brand_center_1_1_a_m_m_1_1_a_p_i_1_1_controllers_1_1_utility_controller.html#a71948d039969e96090dbcd9da79d2122" target="_top" xlink:title="Get a list of all Canadian provinces.">
<polygon fill="white" stroke="#666666" points="607.5,-106 425,-106 425,-62 607.5,-62 607.5,-106"/>
<text text-anchor="start" x="433" y="-92.5" font-family="Helvetica,sans-Serif" font-size="10.00">Deluxe.DeluxeBrandCenter.</text>
<text text-anchor="start" x="433" y="-80.5" font-family="Helvetica,sans-Serif" font-size="10.00">AMM.API.Controllers.UtilityController.</text>
<text text-anchor="middle" x="516.25" y="-68.5" font-family="Helvetica,sans-Serif" font-size="10.00">GetCanadianProvinces</text>
</a>
</g>
</g>
<!-- Node1&#45;&gt;Node7 -->
<g id="edge6_Node000001_Node000007" class="edge">
<title>Node1&#45;&gt;Node7</title>
<g id="a_edge6_Node000001_Node000007"><a xlink:title=" ">
<path fill="none" stroke="#63b8ff" d="M634.95,-101.3C625.93,-99.98 616.78,-98.63 607.78,-97.31"/>
<polygon fill="#63b8ff" stroke="#63b8ff" points="634.39,-104.76 644.8,-102.75 635.41,-97.83 634.39,-104.76"/>
</a>
</g>
</g>
<!-- Node8 -->
<g id="Node000008" class="node">
<title>Node8</title>
<g id="a_Node000008"><a xlink:href="../../d4/dfa/class_deluxe_1_1_deluxe_brand_center_1_1_a_m_m_1_1_a_p_i_1_1_controllers_1_1_utility_controller.html#a90813aa9f17eb4d1bdf803c08a1b6ff7" target="_top" xlink:title="Get a list of all States.">
<polygon fill="white" stroke="#666666" points="607.5,-44 425,-44 425,0 607.5,0 607.5,-44"/>
<text text-anchor="start" x="433" y="-30.5" font-family="Helvetica,sans-Serif" font-size="10.00">Deluxe.DeluxeBrandCenter.</text>
<text text-anchor="start" x="433" y="-18.5" font-family="Helvetica,sans-Serif" font-size="10.00">AMM.API.Controllers.UtilityController.</text>
<text text-anchor="middle" x="516.25" y="-6.5" font-family="Helvetica,sans-Serif" font-size="10.00">GetStates</text>
</a>
</g>
</g>
<!-- Node1&#45;&gt;Node8 -->
<g id="edge7_Node000001_Node000008" class="edge">
<title>Node1&#45;&gt;Node8</title>
<g id="a_edge7_Node000001_Node000008"><a xlink:title=" ">
<path fill="none" stroke="#63b8ff" d="M679.54,-87.09C658.66,-75.71 633.77,-62.92 610.5,-53 603.52,-50.02 596.14,-47.14 588.73,-44.42"/>
<polygon fill="#63b8ff" stroke="#63b8ff" points="677.66,-90.05 688.11,-91.81 681.04,-83.92 677.66,-90.05"/>
</a>
</g>
</g>
<!-- Node3 -->
<g id="Node000003" class="node">
<title>Node3</title>
<g id="a_Node000003"><a xlink:href="../../d4/d06/class_deluxe_1_1_deluxe_brand_center_1_1_a_m_m_1_1_a_p_i_1_1_services_1_1_contact_manager_service.html#aa1fe050e4d5227a691150b9849f7b1a3" target="_top" xlink:title=" ">
<polygon fill="white" stroke="#666666" points="386,-230 211,-230 211,-186 386,-186 386,-230"/>
<text text-anchor="start" x="219" y="-216.5" font-family="Helvetica,sans-Serif" font-size="10.00">Deluxe.DeluxeBrandCenter.</text>
<text text-anchor="start" x="219" y="-204.5" font-family="Helvetica,sans-Serif" font-size="10.00">AMM.API.Services.ContactManager</text>
<text text-anchor="middle" x="298.5" y="-192.5" font-family="Helvetica,sans-Serif" font-size="10.00">Service.UploadContacts</text>
</a>
</g>
</g>
<!-- Node2&#45;&gt;Node3 -->
<g id="edge2_Node000002_Node000003" class="edge">
<title>Node2&#45;&gt;Node3</title>
<g id="a_edge2_Node000002_Node000003"><a xlink:title=" ">
<path fill="none" stroke="#63b8ff" d="M417.01,-208C406.83,-208 396.54,-208 386.49,-208"/>
<polygon fill="#63b8ff" stroke="#63b8ff" points="416.92,-211.5 426.92,-208 416.92,-204.5 416.92,-211.5"/>
</a>
</g>
</g>
<!-- Node4 -->
<g id="Node000004" class="node">
<title>Node4</title>
<g id="a_Node000004"><a xlink:href="../../d4/d06/class_deluxe_1_1_deluxe_brand_center_1_1_a_m_m_1_1_a_p_i_1_1_services_1_1_contact_manager_service.html#a7f6af03e51f7bb3b4b003c2296015349" target="_top" xlink:title=" ">
<polygon fill="white" stroke="#666666" points="175,-261 0,-261 0,-217 175,-217 175,-261"/>
<text text-anchor="start" x="8" y="-247.5" font-family="Helvetica,sans-Serif" font-size="10.00">Deluxe.DeluxeBrandCenter.</text>
<text text-anchor="start" x="8" y="-235.5" font-family="Helvetica,sans-Serif" font-size="10.00">AMM.API.Services.ContactManager</text>
<text text-anchor="middle" x="87.5" y="-223.5" font-family="Helvetica,sans-Serif" font-size="10.00">Service.UploadRedTailContacts</text>
</a>
</g>
</g>
<!-- Node3&#45;&gt;Node4 -->
<g id="edge3_Node000003_Node000004" class="edge">
<title>Node3&#45;&gt;Node4</title>
<g id="a_edge3_Node000003_Node000004"><a xlink:title=" ">
<path fill="none" stroke="#63b8ff" d="M199.4,-222.55C191.38,-223.74 183.31,-224.94 175.39,-226.11"/>
<polygon fill="#63b8ff" stroke="#63b8ff" points="199.81,-226.03 209.18,-221.1 198.78,-219.1 199.81,-226.03"/>
</a>
</g>
</g>
<!-- Node5 -->
<g id="Node000005" class="node">
<title>Node5</title>
<g id="a_Node000005"><a xlink:href="../../d4/d06/class_deluxe_1_1_deluxe_brand_center_1_1_a_m_m_1_1_a_p_i_1_1_services_1_1_contact_manager_service.html#a9fed8bce1aa679c38c8e729ee735ca5f" target="_top" xlink:title=" ">
<polygon fill="white" stroke="#666666" points="175,-199 0,-199 0,-155 175,-155 175,-199"/>
<text text-anchor="start" x="8" y="-185.5" font-family="Helvetica,sans-Serif" font-size="10.00">Deluxe.DeluxeBrandCenter.</text>
<text text-anchor="start" x="8" y="-173.5" font-family="Helvetica,sans-Serif" font-size="10.00">AMM.API.Services.ContactManager</text>
<text text-anchor="middle" x="87.5" y="-161.5" font-family="Helvetica,sans-Serif" font-size="10.00">Service.UploadSaleForceContacts</text>
</a>
</g>
</g>
<!-- Node3&#45;&gt;Node5 -->
<g id="edge4_Node000003_Node000005" class="edge">
<title>Node3&#45;&gt;Node5</title>
<g id="a_edge4_Node000003_Node000005"><a xlink:title=" ">
<path fill="none" stroke="#63b8ff" d="M199.4,-193.45C191.38,-192.26 183.31,-191.06 175.39,-189.89"/>
<polygon fill="#63b8ff" stroke="#63b8ff" points="198.78,-196.9 209.18,-194.9 199.81,-189.97 198.78,-196.9"/>
</a>
</g>
</g>
</g>
</svg>
