<?xml version="1.0" encoding="UTF-8" standalone="no"?>
<!DOCTYPE svg PUBLIC "-//W3C//DTD SVG 1.1//EN"
 "http://www.w3.org/Graphics/SVG/1.1/DTD/svg11.dtd">
<!-- Generated by graphviz version 12.1.1 (20240910.0053)
 -->
<!-- Title: Deluxe.DeluxeBrandCenter.AMM.Domain.Utility.Util.ReplaceStageFolder Pages: 1 -->
<svg width="1269pt" height="487pt"
 viewBox="0.00 0.00 1268.75 486.70" xmlns="http://www.w3.org/2000/svg" xmlns:xlink="http://www.w3.org/1999/xlink">
<g id="graph0" class="graph" transform="scale(1 1) rotate(0) translate(4 482.7)">
<title>Deluxe.DeluxeBrandCenter.AMM.Domain.Utility.Util.ReplaceStageFolder</title>
<!-- Node1 -->
<g id="Node000001" class="node">
<title>Node1</title>
<g id="a_Node000001"><a xlink:title=" ">
<polygon fill="#999999" stroke="#666666" points="1260.75,-226.88 1100,-226.88 1100,-182.88 1260.75,-182.88 1260.75,-226.88"/>
<text text-anchor="start" x="1108" y="-213.38" font-family="Helvetica,sans-Serif" font-size="10.00">Deluxe.DeluxeBrandCenter.</text>
<text text-anchor="start" x="1108" y="-201.38" font-family="Helvetica,sans-Serif" font-size="10.00">AMM.Domain.Utility.Util.Replace</text>
<text text-anchor="middle" x="1180.38" y="-189.38" font-family="Helvetica,sans-Serif" font-size="10.00">StageFolder</text>
</a>
</g>
</g>
<!-- Node2 -->
<g id="Node000002" class="node">
<title>Node2</title>
<g id="a_Node000002"><a xlink:href="../../d6/d65/class_deluxe_1_1_deluxe_brand_center_1_1_a_m_m_1_1_a_p_i_1_1_services_1_1_campaign_builder_service.html#a00435debfde767c6070db823007d2077" target="_top" xlink:title=" ">
<polygon fill="white" stroke="#666666" points="847,-465.88 669.75,-465.88 669.75,-421.88 847,-421.88 847,-465.88"/>
<text text-anchor="start" x="677.75" y="-452.38" font-family="Helvetica,sans-Serif" font-size="10.00">Deluxe.DeluxeBrandCenter.</text>
<text text-anchor="start" x="677.75" y="-440.38" font-family="Helvetica,sans-Serif" font-size="10.00">AMM.API.Services.CampaignBuilder</text>
<text text-anchor="middle" x="758.38" y="-428.38" font-family="Helvetica,sans-Serif" font-size="10.00">Service.FillRuleGroup</text>
</a>
</g>
</g>
<!-- Node1&#45;&gt;Node2 -->
<g id="edge1_Node000001_Node000002" class="edge">
<title>Node1&#45;&gt;Node2</title>
<g id="a_edge1_Node000001_Node000002"><a xlink:title=" ">
<path fill="none" stroke="#63b8ff" d="M1174.76,-238.2C1165.18,-292.95 1137.53,-400.48 1064,-446.88 996.24,-489.64 901.99,-480.74 836.34,-466.34"/>
<polygon fill="#63b8ff" stroke="#63b8ff" points="1178.18,-238.97 1176.34,-228.54 1171.27,-237.84 1178.18,-238.97"/>
</a>
</g>
</g>
<!-- Node6 -->
<g id="Node000006" class="node">
<title>Node6</title>
<g id="a_Node000006"><a xlink:href="../../d6/d65/class_deluxe_1_1_deluxe_brand_center_1_1_a_m_m_1_1_a_p_i_1_1_services_1_1_campaign_builder_service.html#a586c0501817a5a833896810a9317d00c" target="_top" xlink:title=" ">
<polygon fill="white" stroke="#666666" points="1063.25,-375.88 886,-375.88 886,-331.88 1063.25,-331.88 1063.25,-375.88"/>
<text text-anchor="start" x="894" y="-362.38" font-family="Helvetica,sans-Serif" font-size="10.00">Deluxe.DeluxeBrandCenter.</text>
<text text-anchor="start" x="894" y="-350.38" font-family="Helvetica,sans-Serif" font-size="10.00">AMM.API.Services.CampaignBuilder</text>
<text text-anchor="middle" x="974.62" y="-338.38" font-family="Helvetica,sans-Serif" font-size="10.00">Service.MapEmailElementToXML</text>
</a>
</g>
</g>
<!-- Node1&#45;&gt;Node6 -->
<g id="edge6_Node000001_Node000006" class="edge">
<title>Node1&#45;&gt;Node6</title>
<g id="a_edge6_Node000001_Node000006"><a xlink:title=" ">
<path fill="none" stroke="#63b8ff" d="M1155.94,-235.86C1134.55,-262.24 1100.75,-299.47 1064,-322.88 1059.06,-326.02 1053.77,-328.89 1048.31,-331.51"/>
<polygon fill="#63b8ff" stroke="#63b8ff" points="1158.54,-238.21 1162.03,-228.21 1153.06,-233.85 1158.54,-238.21"/>
</a>
</g>
</g>
<!-- Node8 -->
<g id="Node000008" class="node">
<title>Node8</title>
<g id="a_Node000008"><a xlink:href="../../d6/d65/class_deluxe_1_1_deluxe_brand_center_1_1_a_m_m_1_1_a_p_i_1_1_services_1_1_campaign_builder_service.html#add42dd4418158ccde63613d83cc6b7f6" target="_top" xlink:title=" ">
<polygon fill="white" stroke="#666666" points="1063.25,-313.88 886,-313.88 886,-269.88 1063.25,-269.88 1063.25,-313.88"/>
<text text-anchor="start" x="894" y="-300.38" font-family="Helvetica,sans-Serif" font-size="10.00">Deluxe.DeluxeBrandCenter.</text>
<text text-anchor="start" x="894" y="-288.38" font-family="Helvetica,sans-Serif" font-size="10.00">AMM.API.Services.CampaignBuilder</text>
<text text-anchor="middle" x="974.62" y="-276.38" font-family="Helvetica,sans-Serif" font-size="10.00">Service.MapMicrositeElementToXML</text>
</a>
</g>
</g>
<!-- Node1&#45;&gt;Node8 -->
<g id="edge9_Node000001_Node000008" class="edge">
<title>Node1&#45;&gt;Node8</title>
<g id="a_edge9_Node000001_Node000008"><a xlink:title=" ">
<path fill="none" stroke="#63b8ff" d="M1125.97,-232.37C1106.67,-241.89 1084.56,-252.31 1064,-260.88 1056.95,-263.81 1049.5,-266.72 1042.05,-269.5"/>
<polygon fill="#63b8ff" stroke="#63b8ff" points="1127.33,-235.61 1134.73,-228.02 1124.22,-229.34 1127.33,-235.61"/>
</a>
</g>
</g>
<!-- Node9 -->
<g id="Node000009" class="node">
<title>Node9</title>
<g id="a_Node000009"><a xlink:href="../../d6/d65/class_deluxe_1_1_deluxe_brand_center_1_1_a_m_m_1_1_a_p_i_1_1_services_1_1_campaign_builder_service.html#af750674ed0f54f17fe4e2987ff7c0a63" target="_top" xlink:title=" ">
<polygon fill="white" stroke="#666666" points="1063.25,-437.88 886,-437.88 886,-393.88 1063.25,-393.88 1063.25,-437.88"/>
<text text-anchor="start" x="894" y="-424.38" font-family="Helvetica,sans-Serif" font-size="10.00">Deluxe.DeluxeBrandCenter.</text>
<text text-anchor="start" x="894" y="-412.38" font-family="Helvetica,sans-Serif" font-size="10.00">AMM.API.Services.CampaignBuilder</text>
<text text-anchor="middle" x="974.62" y="-400.38" font-family="Helvetica,sans-Serif" font-size="10.00">Service.MapSocialElementToXML</text>
</a>
</g>
</g>
<!-- Node1&#45;&gt;Node9 -->
<g id="edge11_Node000001_Node000009" class="edge">
<title>Node1&#45;&gt;Node9</title>
<g id="a_edge11_Node000001_Node000009"><a xlink:title=" ">
<path fill="none" stroke="#63b8ff" d="M1166.25,-237.94C1148.7,-278.12 1113.9,-345.42 1064,-384.88 1059.92,-388.1 1055.48,-391.01 1050.83,-393.62"/>
<polygon fill="#63b8ff" stroke="#63b8ff" points="1169.46,-239.34 1170.15,-228.76 1163.02,-236.6 1169.46,-239.34"/>
</a>
</g>
</g>
<!-- Node10 -->
<g id="Node000010" class="node">
<title>Node10</title>
<g id="a_Node000010"><a xlink:href="../../d6/d65/class_deluxe_1_1_deluxe_brand_center_1_1_a_m_m_1_1_a_p_i_1_1_services_1_1_campaign_builder_service.html#af629a897fd36af8802d6d7406ffcc7eb" target="_top" xlink:title=" ">
<polygon fill="white" stroke="#666666" points="847,-175.88 669.75,-175.88 669.75,-131.88 847,-131.88 847,-175.88"/>
<text text-anchor="start" x="677.75" y="-162.38" font-family="Helvetica,sans-Serif" font-size="10.00">Deluxe.DeluxeBrandCenter.</text>
<text text-anchor="start" x="677.75" y="-150.38" font-family="Helvetica,sans-Serif" font-size="10.00">AMM.API.Services.CampaignBuilder</text>
<text text-anchor="middle" x="758.38" y="-138.38" font-family="Helvetica,sans-Serif" font-size="10.00">Service.MapXMLToEmailElement</text>
</a>
</g>
</g>
<!-- Node1&#45;&gt;Node10 -->
<g id="edge13_Node000001_Node000010" class="edge">
<title>Node1&#45;&gt;Node10</title>
<g id="a_edge13_Node000001_Node000010"><a xlink:title=" ">
<path fill="none" stroke="#63b8ff" d="M1088.65,-193.86C1017.14,-185.18 918.01,-173.14 847.25,-164.55"/>
<polygon fill="#63b8ff" stroke="#63b8ff" points="1088.03,-197.31 1098.38,-195.04 1088.87,-190.36 1088.03,-197.31"/>
</a>
</g>
</g>
<!-- Node13 -->
<g id="Node000013" class="node">
<title>Node13</title>
<g id="a_Node000013"><a xlink:href="../../d6/d65/class_deluxe_1_1_deluxe_brand_center_1_1_a_m_m_1_1_a_p_i_1_1_services_1_1_campaign_builder_service.html#a04a2bdc2d02130bbd00f6b00406563d4" target="_top" xlink:title=" ">
<polygon fill="white" stroke="#666666" points="404.38,-125.88 224.88,-125.88 224.88,-81.88 404.38,-81.88 404.38,-125.88"/>
<text text-anchor="start" x="232.88" y="-112.38" font-family="Helvetica,sans-Serif" font-size="10.00">Deluxe.DeluxeBrandCenter.</text>
<text text-anchor="start" x="232.88" y="-100.38" font-family="Helvetica,sans-Serif" font-size="10.00">AMM.API.Services.CampaignBuilder</text>
<text text-anchor="middle" x="314.62" y="-88.38" font-family="Helvetica,sans-Serif" font-size="10.00">Service.UpdateNameAndContentUrls</text>
</a>
</g>
</g>
<!-- Node1&#45;&gt;Node13 -->
<g id="edge30_Node000001_Node000013" class="edge">
<title>Node1&#45;&gt;Node13</title>
<g id="a_edge30_Node000001_Node000013"><a xlink:title=" ">
<path fill="none" stroke="#63b8ff" d="M1107.14,-178.88C1092.94,-174.22 1078.08,-169.65 1064,-165.88 969.98,-140.68 945.93,-134.2 849.25,-122.88 693.65,-104.65 510.93,-102.21 404.71,-102.65"/>
<polygon fill="#63b8ff" stroke="#63b8ff" points="1105.82,-182.13 1116.41,-181.97 1108.04,-175.49 1105.82,-182.13"/>
</a>
</g>
</g>
<!-- Node14 -->
<g id="Node000014" class="node">
<title>Node14</title>
<g id="a_Node000014"><a xlink:href="../../d6/d65/class_deluxe_1_1_deluxe_brand_center_1_1_a_m_m_1_1_a_p_i_1_1_services_1_1_campaign_builder_service.html#a7aebfa9e7d0d3f4331ac1194517913cb" target="_top" xlink:title=" ">
<polygon fill="white" stroke="#666666" points="847,-237.88 669.75,-237.88 669.75,-193.88 847,-193.88 847,-237.88"/>
<text text-anchor="start" x="677.75" y="-224.38" font-family="Helvetica,sans-Serif" font-size="10.00">Deluxe.DeluxeBrandCenter.</text>
<text text-anchor="start" x="677.75" y="-212.38" font-family="Helvetica,sans-Serif" font-size="10.00">AMM.API.Services.CampaignBuilder</text>
<text text-anchor="middle" x="758.38" y="-200.38" font-family="Helvetica,sans-Serif" font-size="10.00">Service.MapXMLToSocialElement</text>
</a>
</g>
</g>
<!-- Node1&#45;&gt;Node14 -->
<g id="edge17_Node000001_Node000014" class="edge">
<title>Node1&#45;&gt;Node14</title>
<g id="a_edge17_Node000001_Node000014"><a xlink:title=" ">
<path fill="none" stroke="#63b8ff" d="M1088.41,-199.7C1080.16,-199.37 1071.93,-199.08 1064,-198.88 984.58,-196.81 964.52,-193.55 885.25,-198.88 872.93,-199.7 859.97,-200.98 847.25,-202.48"/>
<polygon fill="#63b8ff" stroke="#63b8ff" points="1087.99,-203.19 1098.13,-200.12 1088.29,-196.19 1087.99,-203.19"/>
</a>
</g>
</g>
<!-- Node15 -->
<g id="Node000015" class="node">
<title>Node15</title>
<g id="a_Node000015"><a xlink:href="../../d6/d65/class_deluxe_1_1_deluxe_brand_center_1_1_a_m_m_1_1_a_p_i_1_1_services_1_1_campaign_builder_service.html#adae5961ebe38792ec9c29dfd3b9f0260" target="_top" xlink:title=" ">
<polygon fill="white" stroke="#666666" points="1064,-75.88 885.25,-75.88 885.25,-31.88 1064,-31.88 1064,-75.88"/>
<text text-anchor="start" x="893.25" y="-62.38" font-family="Helvetica,sans-Serif" font-size="10.00">Deluxe.DeluxeBrandCenter.</text>
<text text-anchor="start" x="893.25" y="-50.38" font-family="Helvetica,sans-Serif" font-size="10.00">AMM.API.Services.CampaignBuilder</text>
<text text-anchor="middle" x="974.62" y="-38.38" font-family="Helvetica,sans-Serif" font-size="10.00">Service.ParseHtmlForSelectedArticle</text>
</a>
</g>
</g>
<!-- Node1&#45;&gt;Node15 -->
<g id="edge19_Node000001_Node000015" class="edge">
<title>Node1&#45;&gt;Node15</title>
<g id="a_edge19_Node000001_Node000015"><a xlink:title=" ">
<path fill="none" stroke="#63b8ff" d="M1154.72,-174.25C1133.02,-148.9 1099.43,-113.36 1064,-89.88 1056.4,-84.84 1047.99,-80.31 1039.47,-76.3"/>
<polygon fill="#63b8ff" stroke="#63b8ff" points="1151.79,-176.21 1160.91,-181.6 1157.15,-171.7 1151.79,-176.21"/>
</a>
</g>
</g>
<!-- Node16 -->
<g id="Node000016" class="node">
<title>Node16</title>
<g id="a_Node000016"><a xlink:href="../../d6/d65/class_deluxe_1_1_deluxe_brand_center_1_1_a_m_m_1_1_a_p_i_1_1_services_1_1_campaign_builder_service.html#a38066e3d8c523305fc157d5169d0abd1" target="_top" xlink:title=" ">
<polygon fill="white" stroke="#666666" points="847,-75.88 669.75,-75.88 669.75,-31.88 847,-31.88 847,-75.88"/>
<text text-anchor="start" x="677.75" y="-62.38" font-family="Helvetica,sans-Serif" font-size="10.00">Deluxe.DeluxeBrandCenter.</text>
<text text-anchor="start" x="677.75" y="-50.38" font-family="Helvetica,sans-Serif" font-size="10.00">AMM.API.Services.CampaignBuilder</text>
<text text-anchor="middle" x="758.38" y="-38.38" font-family="Helvetica,sans-Serif" font-size="10.00">Service.UpdateContentUrls</text>
</a>
</g>
</g>
<!-- Node1&#45;&gt;Node16 -->
<g id="edge29_Node000001_Node000016" class="edge">
<title>Node1&#45;&gt;Node16</title>
<g id="a_edge29_Node000001_Node000016"><a xlink:title=" ">
<path fill="none" stroke="#63b8ff" d="M1169.46,-171.81C1154.51,-128.56 1121.62,-54.57 1064,-22.88 984.35,20.94 875.19,-7.61 811.48,-31.4"/>
<polygon fill="#63b8ff" stroke="#63b8ff" points="1166.1,-172.79 1172.57,-181.18 1172.75,-170.58 1166.1,-172.79"/>
</a>
</g>
</g>
<!-- Node17 -->
<g id="Node000017" class="node">
<title>Node17</title>
<g id="a_Node000017"><a xlink:href="../../d6/d65/class_deluxe_1_1_deluxe_brand_center_1_1_a_m_m_1_1_a_p_i_1_1_services_1_1_campaign_builder_service.html#aa547f128337d386d430cdb3079f2d4c3" target="_top" xlink:title=" ">
<polygon fill="white" stroke="#666666" points="1063.25,-251.88 886,-251.88 886,-207.88 1063.25,-207.88 1063.25,-251.88"/>
<text text-anchor="start" x="894" y="-238.38" font-family="Helvetica,sans-Serif" font-size="10.00">Deluxe.DeluxeBrandCenter.</text>
<text text-anchor="start" x="894" y="-226.38" font-family="Helvetica,sans-Serif" font-size="10.00">AMM.API.Services.CampaignBuilder</text>
<text text-anchor="middle" x="974.62" y="-214.38" font-family="Helvetica,sans-Serif" font-size="10.00">Service.SetMessageBody</text>
</a>
</g>
</g>
<!-- Node1&#45;&gt;Node17 -->
<g id="edge22_Node000001_Node000017" class="edge">
<title>Node1&#45;&gt;Node17</title>
<g id="a_edge22_Node000001_Node000017"><a xlink:title=" ">
<path fill="none" stroke="#63b8ff" d="M1088.53,-216.02C1080.26,-217.04 1071.9,-218.06 1063.65,-219.08"/>
<polygon fill="#63b8ff" stroke="#63b8ff" points="1088.72,-219.53 1098.22,-214.83 1087.87,-212.58 1088.72,-219.53"/>
</a>
</g>
</g>
<!-- Node3 -->
<g id="Node000003" class="node">
<title>Node3</title>
<g id="a_Node000003"><a xlink:href="../../d6/d65/class_deluxe_1_1_deluxe_brand_center_1_1_a_m_m_1_1_a_p_i_1_1_services_1_1_campaign_builder_service.html#a6703c8b60de403fb70c7b691d4d7c2a9" target="_top" xlink:title=" ">
<polygon fill="white" stroke="#666666" points="630.38,-393.88 453.12,-393.88 453.12,-349.88 630.38,-349.88 630.38,-393.88"/>
<text text-anchor="start" x="461.12" y="-380.38" font-family="Helvetica,sans-Serif" font-size="10.00">Deluxe.DeluxeBrandCenter.</text>
<text text-anchor="start" x="461.12" y="-368.38" font-family="Helvetica,sans-Serif" font-size="10.00">AMM.API.Services.CampaignBuilder</text>
<text text-anchor="middle" x="541.75" y="-356.38" font-family="Helvetica,sans-Serif" font-size="10.00">Service.MapUserCampaignToXML</text>
</a>
</g>
</g>
<!-- Node2&#45;&gt;Node3 -->
<g id="edge2_Node000002_Node000003" class="edge">
<title>Node2&#45;&gt;Node3</title>
<g id="a_edge2_Node000002_Node000003"><a xlink:title=" ">
<path fill="none" stroke="#63b8ff" d="M679.62,-417.79C656.7,-410.1 631.82,-401.76 609.64,-394.31"/>
<polygon fill="#63b8ff" stroke="#63b8ff" points="678.32,-421.05 688.91,-420.91 680.55,-414.41 678.32,-421.05"/>
</a>
</g>
</g>
<!-- Node4 -->
<g id="Node000004" class="node">
<title>Node4</title>
<g id="a_Node000004"><a xlink:href="../../d6/d65/class_deluxe_1_1_deluxe_brand_center_1_1_a_m_m_1_1_a_p_i_1_1_services_1_1_campaign_builder_service.html#ab302b4e7e24055c5859436dea04b8f65" target="_top" xlink:title=" ">
<polygon fill="white" stroke="#666666" points="416,-349.88 213.25,-349.88 213.25,-305.88 416,-305.88 416,-349.88"/>
<text text-anchor="start" x="221.25" y="-336.38" font-family="Helvetica,sans-Serif" font-size="10.00">Deluxe.DeluxeBrandCenter.</text>
<text text-anchor="start" x="221.25" y="-324.38" font-family="Helvetica,sans-Serif" font-size="10.00">AMM.API.Services.CampaignBuilder</text>
<text text-anchor="middle" x="314.62" y="-312.38" font-family="Helvetica,sans-Serif" font-size="10.00">Service.LaunchAlreadyLaunchedCampaign</text>
</a>
</g>
</g>
<!-- Node3&#45;&gt;Node4 -->
<g id="edge3_Node000003_Node000004" class="edge">
<title>Node3&#45;&gt;Node4</title>
<g id="a_edge3_Node000003_Node000004"><a xlink:title=" ">
<path fill="none" stroke="#63b8ff" d="M441.72,-352.52C433.27,-350.87 424.72,-349.2 416.27,-347.55"/>
<polygon fill="#63b8ff" stroke="#63b8ff" points="440.77,-355.9 451.26,-354.39 442.12,-349.03 440.77,-355.9"/>
</a>
</g>
</g>
<!-- Node5 -->
<g id="Node000005" class="node">
<title>Node5</title>
<g id="a_Node000005"><a xlink:href="../../d6/d65/class_deluxe_1_1_deluxe_brand_center_1_1_a_m_m_1_1_a_p_i_1_1_services_1_1_campaign_builder_service.html#a947f982ab93bc77b7199c9aa69ae3628" target="_top" xlink:title=" ">
<polygon fill="white" stroke="#666666" points="177.25,-349.88 0,-349.88 0,-305.88 177.25,-305.88 177.25,-349.88"/>
<text text-anchor="start" x="8" y="-336.38" font-family="Helvetica,sans-Serif" font-size="10.00">Deluxe.DeluxeBrandCenter.</text>
<text text-anchor="start" x="8" y="-324.38" font-family="Helvetica,sans-Serif" font-size="10.00">AMM.API.Services.CampaignBuilder</text>
<text text-anchor="middle" x="88.62" y="-312.38" font-family="Helvetica,sans-Serif" font-size="10.00">Service.LaunchCampaign</text>
</a>
</g>
</g>
<!-- Node3&#45;&gt;Node5 -->
<g id="edge5_Node000003_Node000005" class="edge">
<title>Node3&#45;&gt;Node5</title>
<g id="a_edge5_Node000003_Node000005"><a xlink:title=" ">
<path fill="none" stroke="#63b8ff" d="M441.24,-373.23C376.08,-372.81 289.23,-369.79 213.25,-358.88 198.79,-356.8 183.58,-353.73 168.95,-350.33"/>
<polygon fill="#63b8ff" stroke="#63b8ff" points="441.2,-376.73 451.22,-373.27 441.23,-369.73 441.2,-376.73"/>
</a>
</g>
</g>
<!-- Node4&#45;&gt;Node5 -->
<g id="edge4_Node000004_Node000005" class="edge">
<title>Node4&#45;&gt;Node5</title>
<g id="a_edge4_Node000004_Node000005"><a xlink:title=" ">
<path fill="none" stroke="#63b8ff" d="M201.46,-327.88C193.45,-327.88 185.45,-327.88 177.61,-327.88"/>
<polygon fill="#63b8ff" stroke="#63b8ff" points="201.25,-331.38 211.25,-327.88 201.25,-324.38 201.25,-331.38"/>
</a>
</g>
</g>
<!-- Node7 -->
<g id="Node000007" class="node">
<title>Node7</title>
<g id="a_Node000007"><a xlink:href="../../d6/d65/class_deluxe_1_1_deluxe_brand_center_1_1_a_m_m_1_1_a_p_i_1_1_services_1_1_campaign_builder_service.html#a9e215d58437e7593cd45bea7ec806076" target="_top" xlink:title=" ">
<polygon fill="white" stroke="#666666" points="849.25,-381.88 667.5,-381.88 667.5,-337.88 849.25,-337.88 849.25,-381.88"/>
<text text-anchor="start" x="675.5" y="-368.38" font-family="Helvetica,sans-Serif" font-size="10.00">Deluxe.DeluxeBrandCenter.</text>
<text text-anchor="start" x="675.5" y="-356.38" font-family="Helvetica,sans-Serif" font-size="10.00">AMM.API.Services.CampaignBuilder</text>
<text text-anchor="middle" x="758.38" y="-344.38" font-family="Helvetica,sans-Serif" font-size="10.00">Service.MapCampaignElementToXML</text>
</a>
</g>
</g>
<!-- Node6&#45;&gt;Node7 -->
<g id="edge7_Node000006_Node000007" class="edge">
<title>Node6&#45;&gt;Node7</title>
<g id="a_edge7_Node000006_Node000007"><a xlink:title=" ">
<path fill="none" stroke="#63b8ff" d="M874.05,-356.66C865.87,-356.89 857.64,-357.12 849.53,-357.35"/>
<polygon fill="#63b8ff" stroke="#63b8ff" points="874.14,-360.16 884.04,-356.39 873.95,-353.17 874.14,-360.16"/>
</a>
</g>
</g>
<!-- Node7&#45;&gt;Node3 -->
<g id="edge8_Node000007_Node000003" class="edge">
<title>Node7&#45;&gt;Node3</title>
<g id="a_edge8_Node000007_Node000003"><a xlink:title=" ">
<path fill="none" stroke="#63b8ff" d="M655.82,-365.55C647.37,-366.03 638.88,-366.5 630.55,-366.97"/>
<polygon fill="#63b8ff" stroke="#63b8ff" points="655.99,-369.05 665.78,-365 655.6,-362.06 655.99,-369.05"/>
</a>
</g>
</g>
<!-- Node8&#45;&gt;Node7 -->
<g id="edge10_Node000008_Node000007" class="edge">
<title>Node8&#45;&gt;Node7</title>
<g id="a_edge10_Node000008_Node000007"><a xlink:title=" ">
<path fill="none" stroke="#63b8ff" d="M892.02,-317.78C871.61,-324.26 849.88,-331.15 830.05,-337.45"/>
<polygon fill="#63b8ff" stroke="#63b8ff" points="892.96,-321.15 901.44,-314.79 890.84,-314.48 892.96,-321.15"/>
</a>
</g>
</g>
<!-- Node9&#45;&gt;Node7 -->
<g id="edge12_Node000009_Node000007" class="edge">
<title>Node9&#45;&gt;Node7</title>
<g id="a_edge12_Node000009_Node000007"><a xlink:title=" ">
<path fill="none" stroke="#63b8ff" d="M876.83,-390.58C866.32,-387.83 855.67,-385.05 845.3,-382.34"/>
<polygon fill="#63b8ff" stroke="#63b8ff" points="875.69,-393.9 886.25,-393.04 877.46,-387.12 875.69,-393.9"/>
</a>
</g>
</g>
<!-- Node11 -->
<g id="Node000011" class="node">
<title>Node11</title>
<g id="a_Node000011"><a xlink:href="../../d6/d65/class_deluxe_1_1_deluxe_brand_center_1_1_a_m_m_1_1_a_p_i_1_1_services_1_1_campaign_builder_service.html#ad283235567b856b4e70d91da2bbeca0e" target="_top" xlink:title=" ">
<polygon fill="white" stroke="#666666" points="631.5,-181.88 452,-181.88 452,-137.88 631.5,-137.88 631.5,-181.88"/>
<text text-anchor="start" x="460" y="-168.38" font-family="Helvetica,sans-Serif" font-size="10.00">Deluxe.DeluxeBrandCenter.</text>
<text text-anchor="start" x="460" y="-156.38" font-family="Helvetica,sans-Serif" font-size="10.00">AMM.API.Services.CampaignBuilder</text>
<text text-anchor="middle" x="541.75" y="-144.38" font-family="Helvetica,sans-Serif" font-size="10.00">Service.MapXMLtoCampaignElement</text>
</a>
</g>
</g>
<!-- Node10&#45;&gt;Node11 -->
<g id="edge14_Node000010_Node000011" class="edge">
<title>Node10&#45;&gt;Node11</title>
<g id="a_edge14_Node000010_Node000011"><a xlink:title=" ">
<path fill="none" stroke="#63b8ff" d="M658.06,-156.65C649.34,-156.9 640.55,-157.14 631.92,-157.38"/>
<polygon fill="#63b8ff" stroke="#63b8ff" points="658.05,-160.15 667.95,-156.38 657.85,-153.16 658.05,-160.15"/>
</a>
</g>
</g>
<!-- Node12 -->
<g id="Node000012" class="node">
<title>Node12</title>
<g id="a_Node000012"><a xlink:href="../../d6/d65/class_deluxe_1_1_deluxe_brand_center_1_1_a_m_m_1_1_a_p_i_1_1_services_1_1_campaign_builder_service.html#a57435ae2fe593aa7ce835a599a8cb799" target="_top" xlink:title=" ">
<polygon fill="white" stroke="#666666" points="403.25,-187.88 226,-187.88 226,-143.88 403.25,-143.88 403.25,-187.88"/>
<text text-anchor="start" x="234" y="-174.38" font-family="Helvetica,sans-Serif" font-size="10.00">Deluxe.DeluxeBrandCenter.</text>
<text text-anchor="start" x="234" y="-162.38" font-family="Helvetica,sans-Serif" font-size="10.00">AMM.API.Services.CampaignBuilder</text>
<text text-anchor="middle" x="314.62" y="-150.38" font-family="Helvetica,sans-Serif" font-size="10.00">Service.GetCampaign</text>
</a>
</g>
</g>
<!-- Node11&#45;&gt;Node12 -->
<g id="edge15_Node000011_Node000012" class="edge">
<title>Node11&#45;&gt;Node12</title>
<g id="a_edge15_Node000011_Node000012"><a xlink:title=" ">
<path fill="none" stroke="#63b8ff" d="M440.54,-162.55C428.22,-162.88 415.7,-163.21 403.59,-163.53"/>
<polygon fill="#63b8ff" stroke="#63b8ff" points="440.36,-166.05 450.26,-162.29 440.17,-159.06 440.36,-166.05"/>
</a>
</g>
</g>
<!-- Node11&#45;&gt;Node13 -->
<g id="edge16_Node000011_Node000013" class="edge">
<title>Node11&#45;&gt;Node13</title>
<g id="a_edge16_Node000011_Node000013"><a xlink:title=" ">
<path fill="none" stroke="#63b8ff" d="M440.8,-135.01C428.77,-132.02 416.55,-128.98 404.69,-126.03"/>
<polygon fill="#63b8ff" stroke="#63b8ff" points="439.76,-138.36 450.31,-137.38 441.45,-131.57 439.76,-138.36"/>
</a>
</g>
</g>
<!-- Node14&#45;&gt;Node11 -->
<g id="edge18_Node000014_Node000011" class="edge">
<title>Node14&#45;&gt;Node11</title>
<g id="a_edge18_Node000014_Node000011"><a xlink:title=" ">
<path fill="none" stroke="#63b8ff" d="M660.41,-190.58C649.88,-187.83 639.22,-185.05 628.83,-182.34"/>
<polygon fill="#63b8ff" stroke="#63b8ff" points="659.29,-193.9 669.85,-193.04 661.06,-187.13 659.29,-193.9"/>
</a>
</g>
</g>
<!-- Node15&#45;&gt;Node16 -->
<g id="edge20_Node000015_Node000016" class="edge">
<title>Node15&#45;&gt;Node16</title>
<g id="a_edge20_Node000015_Node000016"><a xlink:title=" ">
<path fill="none" stroke="#63b8ff" d="M873.49,-53.88C864.75,-53.88 855.94,-53.88 847.31,-53.88"/>
<polygon fill="#63b8ff" stroke="#63b8ff" points="873.42,-57.38 883.42,-53.88 873.42,-50.38 873.42,-57.38"/>
</a>
</g>
</g>
<!-- Node16&#45;&gt;Node13 -->
<g id="edge21_Node000016_Node000013" class="edge">
<title>Node16&#45;&gt;Node13</title>
<g id="a_edge21_Node000016_Node000013"><a xlink:title=" ">
<path fill="none" stroke="#63b8ff" d="M658.29,-65.09C582.22,-73.7 478.11,-85.49 404.67,-93.8"/>
<polygon fill="#63b8ff" stroke="#63b8ff" points="658.26,-68.62 667.8,-64.01 657.47,-61.66 658.26,-68.62"/>
</a>
</g>
</g>
<!-- Node17&#45;&gt;Node14 -->
<g id="edge23_Node000017_Node000014" class="edge">
<title>Node17&#45;&gt;Node14</title>
<g id="a_edge23_Node000017_Node000014"><a xlink:title=" ">
<path fill="none" stroke="#63b8ff" d="M874.27,-223.38C865.32,-222.8 856.3,-222.21 847.45,-221.63"/>
<polygon fill="#63b8ff" stroke="#63b8ff" points="873.84,-226.86 884.04,-224.02 874.29,-219.88 873.84,-226.86"/>
</a>
</g>
</g>
<!-- Node18 -->
<g id="Node000018" class="node">
<title>Node18</title>
<g id="a_Node000018"><a xlink:href="../../d6/d65/class_deluxe_1_1_deluxe_brand_center_1_1_a_m_m_1_1_a_p_i_1_1_services_1_1_campaign_builder_service.html#a5cf68d2a0e9c29659835e8bb5032992c" target="_top" xlink:title=" ">
<polygon fill="white" stroke="#666666" points="630.38,-249.88 453.12,-249.88 453.12,-205.88 630.38,-205.88 630.38,-249.88"/>
<text text-anchor="start" x="461.12" y="-236.38" font-family="Helvetica,sans-Serif" font-size="10.00">Deluxe.DeluxeBrandCenter.</text>
<text text-anchor="start" x="461.12" y="-224.38" font-family="Helvetica,sans-Serif" font-size="10.00">AMM.API.Services.CampaignBuilder</text>
<text text-anchor="middle" x="541.75" y="-212.38" font-family="Helvetica,sans-Serif" font-size="10.00">Service.SetUserCampaignVM</text>
</a>
</g>
</g>
<!-- Node17&#45;&gt;Node18 -->
<g id="edge24_Node000017_Node000018" class="edge">
<title>Node17&#45;&gt;Node18</title>
<g id="a_edge24_Node000017_Node000018"><a xlink:title=" ">
<path fill="none" stroke="#63b8ff" d="M874.56,-244.65C866.02,-245.55 857.49,-246.32 849.25,-246.88 768.66,-252.36 748.05,-252.98 667.5,-246.88 655.59,-245.97 643.1,-244.6 630.82,-242.98"/>
<polygon fill="#63b8ff" stroke="#63b8ff" points="874.73,-248.15 884.28,-243.56 873.95,-241.19 874.73,-248.15"/>
</a>
</g>
</g>
<!-- Node18&#45;&gt;Node5 -->
<g id="edge27_Node000018_Node000005" class="edge">
<title>Node18&#45;&gt;Node5</title>
<g id="a_edge27_Node000018_Node000005"><a xlink:title=" ">
<path fill="none" stroke="#63b8ff" d="M441.91,-253C433.16,-255.05 424.43,-257.04 416,-258.88 326.42,-278.38 302.81,-277.27 213.25,-296.88 201.25,-299.5 188.65,-302.45 176.26,-305.45"/>
<polygon fill="#63b8ff" stroke="#63b8ff" points="442.59,-256.43 451.51,-250.72 440.97,-249.62 442.59,-256.43"/>
</a>
</g>
</g>
<!-- Node18&#45;&gt;Node12 -->
<g id="edge25_Node000018_Node000012" class="edge">
<title>Node18&#45;&gt;Node12</title>
<g id="a_edge25_Node000018_Node000012"><a xlink:title=" ">
<path fill="none" stroke="#63b8ff" d="M448.18,-202.38C431.32,-197.74 413.84,-192.92 397.32,-188.37"/>
<polygon fill="#63b8ff" stroke="#63b8ff" points="447.13,-205.72 457.7,-205 448.99,-198.97 447.13,-205.72"/>
</a>
</g>
</g>
<!-- Node18&#45;&gt;Node13 -->
<g id="edge28_Node000018_Node000013" class="edge">
<title>Node18&#45;&gt;Node13</title>
<g id="a_edge28_Node000018_Node000013"><a xlink:title=" ">
<path fill="none" stroke="#63b8ff" d="M464.37,-199.82C460.01,-197.07 455.85,-194.1 452,-190.88 429.32,-171.88 439.56,-152.77 416,-134.88 411.79,-131.68 407.24,-128.81 402.49,-126.23"/>
<polygon fill="#63b8ff" stroke="#63b8ff" points="462.45,-202.75 472.86,-204.7 465.94,-196.68 462.45,-202.75"/>
</a>
</g>
</g>
<!-- Node19 -->
<g id="Node000019" class="node">
<title>Node19</title>
<g id="a_Node000019"><a xlink:href="../../d6/d65/class_deluxe_1_1_deluxe_brand_center_1_1_a_m_m_1_1_a_p_i_1_1_services_1_1_campaign_builder_service.html#a3479067e8c8a3a312a9e39890ebb9a9c" target="_top" xlink:title=" ">
<polygon fill="white" stroke="#666666" points="403.25,-249.88 226,-249.88 226,-205.88 403.25,-205.88 403.25,-249.88"/>
<text text-anchor="start" x="234" y="-236.38" font-family="Helvetica,sans-Serif" font-size="10.00">Deluxe.DeluxeBrandCenter.</text>
<text text-anchor="start" x="234" y="-224.38" font-family="Helvetica,sans-Serif" font-size="10.00">AMM.API.Services.CampaignBuilder</text>
<text text-anchor="middle" x="314.62" y="-212.38" font-family="Helvetica,sans-Serif" font-size="10.00">Service.GetListForProfile</text>
</a>
</g>
</g>
<!-- Node18&#45;&gt;Node19 -->
<g id="edge26_Node000018_Node000019" class="edge">
<title>Node18&#45;&gt;Node19</title>
<g id="a_edge26_Node000018_Node000019"><a xlink:title=" ">
<path fill="none" stroke="#63b8ff" d="M441.29,-227.88C428.72,-227.88 415.94,-227.88 403.57,-227.88"/>
<polygon fill="#63b8ff" stroke="#63b8ff" points="441.23,-231.38 451.23,-227.88 441.23,-224.38 441.23,-231.38"/>
</a>
</g>
</g>
</g>
</svg>
