<?xml version="1.0" encoding="UTF-8" standalone="no"?>
<!DOCTYPE svg PUBLIC "-//W3C//DTD SVG 1.1//EN"
 "http://www.w3.org/Graphics/SVG/1.1/DTD/svg11.dtd">
<!-- Generated by graphviz version 12.1.1 (20240910.0053)
 -->
<!-- Title: Deluxe.DeluxeBrandCenter.AMM.Domain.DataModel.ModifiedEntity Pages: 1 -->
<svg width="1023pt" height="1116pt"
 viewBox="0.00 0.00 1023.25 1116.00" xmlns="http://www.w3.org/2000/svg" xmlns:xlink="http://www.w3.org/1999/xlink">
<g id="graph0" class="graph" transform="scale(1 1) rotate(0) translate(4 1112)">
<title>Deluxe.DeluxeBrandCenter.AMM.Domain.DataModel.ModifiedEntity</title>
<!-- Node1 -->
<g id="Node000001" class="node">
<title>Node1</title>
<g id="a_Node000001"><a xlink:title=" ">
<polygon fill="#999999" stroke="#666666" points="283.25,-418 91.75,-418 91.75,-386 283.25,-386 283.25,-418"/>
<text text-anchor="start" x="99.75" y="-404.5" font-family="Helvetica,sans-Serif" font-size="10.00">Deluxe.DeluxeBrandCenter.</text>
<text text-anchor="middle" x="187.5" y="-392.5" font-family="Helvetica,sans-Serif" font-size="10.00">AMM.Domain.DataModel.ModifiedEntity</text>
</a>
</g>
</g>
<!-- Node3 -->
<g id="Node000003" class="node">
<title>Node3</title>
<g id="a_Node000003"><a xlink:href="../../d7/d1c/class_deluxe_1_1_deluxe_brand_center_1_1_a_m_m_1_1_domain_1_1_data_model_1_1_base_entity.html" target="_top" xlink:title=" ">
<polygon fill="white" stroke="#666666" points="496.5,-446 319.25,-446 319.25,-414 496.5,-414 496.5,-446"/>
<text text-anchor="start" x="327.25" y="-432.5" font-family="Helvetica,sans-Serif" font-size="10.00">Deluxe.DeluxeBrandCenter.</text>
<text text-anchor="middle" x="407.88" y="-420.5" font-family="Helvetica,sans-Serif" font-size="10.00">AMM.Domain.DataModel.BaseEntity</text>
</a>
</g>
</g>
<!-- Node1&#45;&gt;Node3 -->
<g id="edge2_Node000001_Node000003" class="edge">
<title>Node1&#45;&gt;Node3</title>
<g id="a_edge2_Node000001_Node000003"><a xlink:title=" ">
<path fill="none" stroke="#63b8ff" d="M294.96,-415.65C302.99,-416.68 311.03,-417.71 318.92,-418.72"/>
<polygon fill="#63b8ff" stroke="#63b8ff" points="295.51,-412.19 285.15,-414.39 294.62,-419.14 295.51,-412.19"/>
</a>
</g>
</g>
<!-- Node36 -->
<g id="Node000036" class="node">
<title>Node36</title>
<g id="a_Node000036"><a xlink:href="../../dc/dca/class_deluxe_1_1_deluxe_brand_center_1_1_a_m_m_1_1_domain_1_1_data_model_1_1_social_post_log_line.html" target="_top" xlink:title=" ">
<polygon fill="white" stroke="#666666" points="496.12,-396 319.62,-396 319.62,-352 496.12,-352 496.12,-396"/>
<text text-anchor="start" x="327.62" y="-382.5" font-family="Helvetica,sans-Serif" font-size="10.00">Deluxe.DeluxeBrandCenter.</text>
<text text-anchor="start" x="327.62" y="-370.5" font-family="Helvetica,sans-Serif" font-size="10.00">AMM.Domain.DataModel.SocialPost</text>
<text text-anchor="middle" x="407.88" y="-358.5" font-family="Helvetica,sans-Serif" font-size="10.00">LogLine</text>
</a>
</g>
</g>
<!-- Node1&#45;&gt;Node36 -->
<g id="edge35_Node000001_Node000036" class="edge">
<title>Node1&#45;&gt;Node36</title>
<g id="a_edge35_Node000001_Node000036"><a xlink:title=" ">
<path fill="none" stroke="#63b8ff" d="M294.79,-388.37C302.99,-387.32 311.21,-386.27 319.27,-385.23"/>
<polygon fill="#63b8ff" stroke="#63b8ff" points="294.62,-384.86 285.15,-389.61 295.51,-391.81 294.62,-384.86"/>
</a>
</g>
</g>
<!-- Node2 -->
<g id="Node000002" class="node">
<title>Node2</title>
<g id="a_Node000002"><a xlink:href="../../d6/dad/interface_deluxe_1_1_deluxe_brand_center_1_1_a_m_m_1_1_domain_1_1_data_model_1_1_interface_1_1_i_modified.html" target="_top" xlink:title=" ">
<polygon fill="white" stroke="#666666" points="55.75,-412 0,-412 0,-392 55.75,-392 55.75,-412"/>
<text text-anchor="middle" x="27.88" y="-398.5" font-family="Helvetica,sans-Serif" font-size="10.00">IModified</text>
</a>
</g>
</g>
<!-- Node2&#45;&gt;Node1 -->
<g id="edge1_Node000001_Node000002" class="edge">
<title>Node2&#45;&gt;Node1</title>
<g id="a_edge1_Node000001_Node000002"><a xlink:title=" ">
<path fill="none" stroke="#63b8ff" d="M67.45,-402C74.89,-402 83,-402 91.36,-402"/>
<polygon fill="#63b8ff" stroke="#63b8ff" points="67.49,-398.5 57.49,-402 67.49,-405.5 67.49,-398.5"/>
</a>
</g>
</g>
<!-- Node4 -->
<g id="Node000004" class="node">
<title>Node4</title>
<g id="a_Node000004"><a xlink:href="../../d5/d4f/class_deluxe_1_1_deluxe_brand_center_1_1_a_m_m_1_1_domain_1_1_content_url.html" target="_top" xlink:title=" ">
<polygon fill="white" stroke="#666666" points="721.75,-969 583.5,-969 583.5,-937 721.75,-937 721.75,-969"/>
<text text-anchor="start" x="591.5" y="-955.5" font-family="Helvetica,sans-Serif" font-size="10.00">Deluxe.DeluxeBrandCenter.</text>
<text text-anchor="middle" x="652.62" y="-943.5" font-family="Helvetica,sans-Serif" font-size="10.00">AMM.Domain.ContentUrl</text>
</a>
</g>
</g>
<!-- Node3&#45;&gt;Node4 -->
<g id="edge3_Node000003_Node000004" class="edge">
<title>Node3&#45;&gt;Node4</title>
<g id="a_edge3_Node000003_Node000004"><a xlink:title=" ">
<path fill="none" stroke="#63b8ff" d="M411.91,-457.72C422.83,-552.46 463.23,-861.21 532.5,-928 546.12,-941.13 564.77,-948.13 583.28,-951.69"/>
<polygon fill="#63b8ff" stroke="#63b8ff" points="415.39,-457.34 410.78,-447.8 408.43,-458.13 415.39,-457.34"/>
</a>
</g>
</g>
<!-- Node5 -->
<g id="Node000005" class="node">
<title>Node5</title>
<g id="a_Node000005"><a xlink:href="../../db/d37/class_deluxe_1_1_deluxe_brand_center_1_1_a_m_m_1_1_domain_1_1_data_model_1_1_address_info.html" target="_top" xlink:title=" ">
<polygon fill="white" stroke="#666666" points="743.5,-919 561.75,-919 561.75,-887 743.5,-887 743.5,-919"/>
<text text-anchor="start" x="569.75" y="-905.5" font-family="Helvetica,sans-Serif" font-size="10.00">Deluxe.DeluxeBrandCenter.</text>
<text text-anchor="middle" x="652.62" y="-893.5" font-family="Helvetica,sans-Serif" font-size="10.00">AMM.Domain.DataModel.AddressInfo</text>
</a>
</g>
</g>
<!-- Node3&#45;&gt;Node5 -->
<g id="edge4_Node000003_Node000005" class="edge">
<title>Node3&#45;&gt;Node5</title>
<g id="a_edge4_Node000003_Node000005"><a xlink:title=" ">
<path fill="none" stroke="#63b8ff" d="M417.26,-457.32C434.74,-512.47 478,-640.27 532.5,-739 564.47,-796.92 613.73,-858.22 637.64,-886.69"/>
<polygon fill="#63b8ff" stroke="#63b8ff" points="420.62,-456.33 414.29,-447.84 413.94,-458.43 420.62,-456.33"/>
</a>
</g>
</g>
<!-- Node8 -->
<g id="Node000008" class="node">
<title>Node8</title>
<g id="a_Node000008"><a xlink:href="../../d4/d1a/class_deluxe_1_1_deluxe_brand_center_1_1_a_m_m_1_1_domain_1_1_data_model_1_1_base_entity_named.html" target="_top" xlink:title=" ">
<polygon fill="white" stroke="#666666" points="757,-730 548.25,-730 548.25,-698 757,-698 757,-730"/>
<text text-anchor="start" x="556.25" y="-716.5" font-family="Helvetica,sans-Serif" font-size="10.00">Deluxe.DeluxeBrandCenter.</text>
<text text-anchor="middle" x="652.62" y="-704.5" font-family="Helvetica,sans-Serif" font-size="10.00">AMM.Domain.DataModel.BaseEntityNamed</text>
</a>
</g>
</g>
<!-- Node3&#45;&gt;Node8 -->
<g id="edge7_Node000003_Node000008" class="edge">
<title>Node3&#45;&gt;Node8</title>
<g id="a_edge7_Node000003_Node000008"><a xlink:title=" ">
<path fill="none" stroke="#63b8ff" d="M413.69,-457.45C424.6,-510.96 456.39,-629.17 532.5,-689 537.23,-692.72 542.39,-695.92 547.82,-698.68"/>
<polygon fill="#63b8ff" stroke="#63b8ff" points="417.19,-457.12 411.85,-447.96 410.32,-458.45 417.19,-457.12"/>
</a>
</g>
</g>
<!-- Node23 -->
<g id="Node000023" class="node">
<title>Node23</title>
<g id="a_Node000023"><a xlink:href="../../d5/d2b/class_deluxe_1_1_deluxe_brand_center_1_1_a_m_m_1_1_domain_1_1_data_model_1_1_client_1_1_user.html" target="_top" xlink:title=" ">
<polygon fill="white" stroke="#666666" points="742,-680 563.25,-680 563.25,-648 742,-648 742,-680"/>
<text text-anchor="start" x="571.25" y="-666.5" font-family="Helvetica,sans-Serif" font-size="10.00">Deluxe.DeluxeBrandCenter.</text>
<text text-anchor="middle" x="652.62" y="-654.5" font-family="Helvetica,sans-Serif" font-size="10.00">AMM.Domain.DataModel.Client.User</text>
</a>
</g>
</g>
<!-- Node3&#45;&gt;Node23 -->
<g id="edge22_Node000003_Node000023" class="edge">
<title>Node3&#45;&gt;Node23</title>
<g id="a_edge22_Node000003_Node000023"><a xlink:title=" ">
<path fill="none" stroke="#63b8ff" d="M416.96,-457.21C431.91,-502.53 468.35,-593.03 532.5,-639 541.6,-645.52 552.04,-650.42 562.88,-654.08"/>
<polygon fill="#63b8ff" stroke="#63b8ff" points="420.37,-456.37 414,-447.9 413.7,-458.49 420.37,-456.37"/>
</a>
</g>
</g>
<!-- Node24 -->
<g id="Node000024" class="node">
<title>Node24</title>
<g id="a_Node000024"><a xlink:href="../../d4/d45/class_deluxe_1_1_deluxe_brand_center_1_1_a_m_m_1_1_domain_1_1_data_model_1_1_contact.html" target="_top" xlink:title=" ">
<polygon fill="white" stroke="#666666" points="734.5,-630 570.75,-630 570.75,-598 734.5,-598 734.5,-630"/>
<text text-anchor="start" x="578.75" y="-616.5" font-family="Helvetica,sans-Serif" font-size="10.00">Deluxe.DeluxeBrandCenter.</text>
<text text-anchor="middle" x="652.62" y="-604.5" font-family="Helvetica,sans-Serif" font-size="10.00">AMM.Domain.DataModel.Contact</text>
</a>
</g>
</g>
<!-- Node3&#45;&gt;Node24 -->
<g id="edge23_Node000003_Node000024" class="edge">
<title>Node3&#45;&gt;Node24</title>
<g id="a_edge23_Node000003_Node000024"><a xlink:title=" ">
<path fill="none" stroke="#63b8ff" d="M421.88,-456.61C440.93,-492.63 479.96,-556.18 532.5,-589 543.97,-596.17 557.15,-601.31 570.47,-605"/>
<polygon fill="#63b8ff" stroke="#63b8ff" points="424.99,-455.01 417.3,-447.72 418.77,-458.21 424.99,-455.01"/>
</a>
</g>
</g>
<!-- Node25 -->
<g id="Node000025" class="node">
<title>Node25</title>
<g id="a_Node000025"><a xlink:href="../../d2/d8e/class_deluxe_1_1_deluxe_brand_center_1_1_a_m_m_1_1_domain_1_1_data_model_1_1_email_domain.html" target="_top" xlink:title=" ">
<polygon fill="white" stroke="#666666" points="746.5,-580 558.75,-580 558.75,-548 746.5,-548 746.5,-580"/>
<text text-anchor="start" x="566.75" y="-566.5" font-family="Helvetica,sans-Serif" font-size="10.00">Deluxe.DeluxeBrandCenter.</text>
<text text-anchor="middle" x="652.62" y="-554.5" font-family="Helvetica,sans-Serif" font-size="10.00">AMM.Domain.DataModel.EmailDomain</text>
</a>
</g>
</g>
<!-- Node3&#45;&gt;Node25 -->
<g id="edge24_Node000003_Node000025" class="edge">
<title>Node3&#45;&gt;Node25</title>
<g id="a_edge24_Node000003_Node000025"><a xlink:title=" ">
<path fill="none" stroke="#63b8ff" d="M429.54,-454.52C452.18,-479.71 490.86,-518.12 532.5,-539 540.62,-543.07 549.38,-546.48 558.32,-549.34"/>
<polygon fill="#63b8ff" stroke="#63b8ff" points="432.46,-452.54 423.22,-447.34 427.2,-457.16 432.46,-452.54"/>
</a>
</g>
</g>
<!-- Node26 -->
<g id="Node000026" class="node">
<title>Node26</title>
<g id="a_Node000026"><a xlink:href="../../d1/d8d/class_deluxe_1_1_deluxe_brand_center_1_1_a_m_m_1_1_domain_1_1_data_model_1_1_event_detail.html" target="_top" xlink:title=" ">
<polygon fill="white" stroke="#666666" points="742.75,-530 562.5,-530 562.5,-498 742.75,-498 742.75,-530"/>
<text text-anchor="start" x="570.5" y="-516.5" font-family="Helvetica,sans-Serif" font-size="10.00">Deluxe.DeluxeBrandCenter.</text>
<text text-anchor="middle" x="652.62" y="-504.5" font-family="Helvetica,sans-Serif" font-size="10.00">AMM.Domain.DataModel.EventDetail</text>
</a>
</g>
</g>
<!-- Node3&#45;&gt;Node26 -->
<g id="edge25_Node000003_Node000026" class="edge">
<title>Node3&#45;&gt;Node26</title>
<g id="a_edge25_Node000003_Node000026"><a xlink:title=" ">
<path fill="none" stroke="#63b8ff" d="M448.07,-451.67C471.89,-464.08 503.26,-479.11 532.5,-489 542.01,-492.22 552.09,-495.1 562.2,-497.66"/>
<polygon fill="#63b8ff" stroke="#63b8ff" points="449.83,-448.65 439.36,-447.06 446.56,-454.83 449.83,-448.65"/>
</a>
</g>
</g>
<!-- Node27 -->
<g id="Node000027" class="node">
<title>Node27</title>
<g id="a_Node000027"><a xlink:href="../../d2/dd1/class_deluxe_1_1_deluxe_brand_center_1_1_a_m_m_1_1_domain_1_1_data_model_1_1_social_1_1_linkedin_account.html" target="_top" xlink:title=" ">
<polygon fill="white" stroke="#666666" points="750.25,-480 555,-480 555,-436 750.25,-436 750.25,-480"/>
<text text-anchor="start" x="563" y="-466.5" font-family="Helvetica,sans-Serif" font-size="10.00">Deluxe.DeluxeBrandCenter.</text>
<text text-anchor="start" x="563" y="-454.5" font-family="Helvetica,sans-Serif" font-size="10.00">AMM.Domain.DataModel.Social.Linkedin</text>
<text text-anchor="middle" x="652.62" y="-442.5" font-family="Helvetica,sans-Serif" font-size="10.00">Account</text>
</a>
</g>
</g>
<!-- Node3&#45;&gt;Node27 -->
<g id="edge26_Node000003_Node000027" class="edge">
<title>Node3&#45;&gt;Node27</title>
<g id="a_edge26_Node000003_Node000027"><a xlink:title=" ">
<path fill="none" stroke="#63b8ff" d="M508.03,-441.44C523.51,-443.22 539.49,-445.07 554.91,-446.84"/>
<polygon fill="#63b8ff" stroke="#63b8ff" points="508.7,-437.99 498.36,-440.32 507.89,-444.94 508.7,-437.99"/>
</a>
</g>
</g>
<!-- Node28 -->
<g id="Node000028" class="node">
<title>Node28</title>
<g id="a_Node000028"><a xlink:href="../../d8/dde/class_deluxe_1_1_deluxe_brand_center_1_1_a_m_m_1_1_domain_1_1_data_model_1_1_template.html" target="_top" xlink:title=" ">
<polygon fill="white" stroke="#666666" points="737.12,-418 568.12,-418 568.12,-386 737.12,-386 737.12,-418"/>
<text text-anchor="start" x="576.12" y="-404.5" font-family="Helvetica,sans-Serif" font-size="10.00">Deluxe.DeluxeBrandCenter.</text>
<text text-anchor="middle" x="652.62" y="-392.5" font-family="Helvetica,sans-Serif" font-size="10.00">AMM.Domain.DataModel.Template</text>
</a>
</g>
</g>
<!-- Node3&#45;&gt;Node28 -->
<g id="edge27_Node000003_Node000028" class="edge">
<title>Node3&#45;&gt;Node28</title>
<g id="a_edge27_Node000003_Node000028"><a xlink:title=" ">
<path fill="none" stroke="#63b8ff" d="M508.12,-418.55C528,-416.26 548.7,-413.87 567.99,-411.65"/>
<polygon fill="#63b8ff" stroke="#63b8ff" points="507.89,-415.06 498.36,-419.68 508.7,-422.01 507.89,-415.06"/>
</a>
</g>
</g>
<!-- Node29 -->
<g id="Node000029" class="node">
<title>Node29</title>
<g id="a_Node000029"><a xlink:href="../../de/de4/class_deluxe_1_1_deluxe_brand_center_1_1_a_m_m_1_1_domain_1_1_data_model_1_1_template_field.html" target="_top" xlink:title=" ">
<polygon fill="white" stroke="#666666" points="747.62,-368 557.62,-368 557.62,-336 747.62,-336 747.62,-368"/>
<text text-anchor="start" x="565.62" y="-354.5" font-family="Helvetica,sans-Serif" font-size="10.00">Deluxe.DeluxeBrandCenter.</text>
<text text-anchor="middle" x="652.62" y="-342.5" font-family="Helvetica,sans-Serif" font-size="10.00">AMM.Domain.DataModel.TemplateField</text>
</a>
</g>
</g>
<!-- Node3&#45;&gt;Node29 -->
<g id="edge28_Node000003_Node000029" class="edge">
<title>Node3&#45;&gt;Node29</title>
<g id="a_edge28_Node000003_Node000029"><a xlink:title=" ">
<path fill="none" stroke="#63b8ff" d="M486.98,-409.43C490.24,-408.04 493.42,-406.56 496.5,-405 514.58,-395.83 514.11,-385.52 532.5,-377 540.36,-373.36 548.76,-370.24 557.32,-367.57"/>
<polygon fill="#63b8ff" stroke="#63b8ff" points="485.82,-406.13 477.8,-413.05 488.39,-412.64 485.82,-406.13"/>
</a>
</g>
</g>
<!-- Node30 -->
<g id="Node000030" class="node">
<title>Node30</title>
<g id="a_Node000030"><a xlink:href="../../df/d65/class_deluxe_1_1_deluxe_brand_center_1_1_a_m_m_1_1_domain_1_1_data_model_1_1_template_field_option.html" target="_top" xlink:title=" ">
<polygon fill="white" stroke="#666666" points="747.62,-318 557.62,-318 557.62,-274 747.62,-274 747.62,-318"/>
<text text-anchor="start" x="565.62" y="-304.5" font-family="Helvetica,sans-Serif" font-size="10.00">Deluxe.DeluxeBrandCenter.</text>
<text text-anchor="start" x="565.62" y="-292.5" font-family="Helvetica,sans-Serif" font-size="10.00">AMM.Domain.DataModel.TemplateField</text>
<text text-anchor="middle" x="652.62" y="-280.5" font-family="Helvetica,sans-Serif" font-size="10.00">Option</text>
</a>
</g>
</g>
<!-- Node3&#45;&gt;Node30 -->
<g id="edge29_Node000003_Node000030" class="edge">
<title>Node3&#45;&gt;Node30</title>
<g id="a_edge29_Node000003_Node000030"><a xlink:title=" ">
<path fill="none" stroke="#63b8ff" d="M493.54,-407.39C494.55,-406.62 495.54,-405.82 496.5,-405 525.5,-380.17 503.21,-351.49 532.5,-327 539.88,-320.83 548.34,-315.87 557.28,-311.89"/>
<polygon fill="#63b8ff" stroke="#63b8ff" points="491.66,-404.44 485.17,-412.81 495.47,-410.31 491.66,-404.44"/>
</a>
</g>
</g>
<!-- Node31 -->
<g id="Node000031" class="node">
<title>Node31</title>
<g id="a_Node000031"><a xlink:href="../../db/d7b/class_deluxe_1_1_deluxe_brand_center_1_1_a_m_m_1_1_domain_1_1_data_model_1_1_template_thumbnail_model.html" target="_top" xlink:title=" ">
<polygon fill="white" stroke="#666666" points="772.75,-256 532.5,-256 532.5,-224 772.75,-224 772.75,-256"/>
<text text-anchor="start" x="540.5" y="-242.5" font-family="Helvetica,sans-Serif" font-size="10.00">Deluxe.DeluxeBrandCenter.</text>
<text text-anchor="middle" x="652.62" y="-230.5" font-family="Helvetica,sans-Serif" font-size="10.00">AMM.Domain.DataModel.TemplateThumbnailModel</text>
</a>
</g>
</g>
<!-- Node3&#45;&gt;Node31 -->
<g id="edge30_Node000003_Node000031" class="edge">
<title>Node3&#45;&gt;Node31</title>
<g id="a_edge30_Node000003_Node000031"><a xlink:title=" ">
<path fill="none" stroke="#63b8ff" d="M494.66,-406.8C495.29,-406.22 495.9,-405.62 496.5,-405 541.33,-358.98 486.06,-309.4 532.5,-265 535.86,-261.79 539.52,-258.94 543.41,-256.42"/>
<polygon fill="#63b8ff" stroke="#63b8ff" points="492.79,-403.82 487.03,-412.71 497.08,-409.36 492.79,-403.82"/>
</a>
</g>
</g>
<!-- Node32 -->
<g id="Node000032" class="node">
<title>Node32</title>
<g id="a_Node000032"><a xlink:href="../../dc/daf/class_deluxe_1_1_deluxe_brand_center_1_1_a_m_m_1_1_domain_1_1_data_model_1_1_template_thumbnail_overlay_model.html" target="_top" xlink:title=" ">
<polygon fill="white" stroke="#666666" points="759.62,-206 545.62,-206 545.62,-162 759.62,-162 759.62,-206"/>
<text text-anchor="start" x="553.62" y="-192.5" font-family="Helvetica,sans-Serif" font-size="10.00">Deluxe.DeluxeBrandCenter.</text>
<text text-anchor="start" x="553.62" y="-180.5" font-family="Helvetica,sans-Serif" font-size="10.00">AMM.Domain.DataModel.TemplateThumbnail</text>
<text text-anchor="middle" x="652.62" y="-168.5" font-family="Helvetica,sans-Serif" font-size="10.00">OverlayModel</text>
</a>
</g>
</g>
<!-- Node3&#45;&gt;Node32 -->
<g id="edge31_Node000003_Node000032" class="edge">
<title>Node3&#45;&gt;Node32</title>
<g id="a_edge31_Node000003_Node000032"><a xlink:title=" ">
<path fill="none" stroke="#63b8ff" d="M495.07,-406.5C495.56,-406.01 496.03,-405.51 496.5,-405 554.46,-341.53 473.81,-277.78 532.5,-215 536.29,-210.94 540.55,-207.39 545.13,-204.28"/>
<polygon fill="#63b8ff" stroke="#63b8ff" points="493.12,-403.58 487.64,-412.65 497.58,-408.97 493.12,-403.58"/>
</a>
</g>
</g>
<!-- Node33 -->
<g id="Node000033" class="node">
<title>Node33</title>
<g id="a_Node000033"><a xlink:href="../../de/ddb/class_deluxe_1_1_deluxe_brand_center_1_1_a_m_m_1_1_domain_1_1_data_model_1_1_twitter_account.html" target="_top" xlink:title=" ">
<polygon fill="white" stroke="#666666" points="749.88,-144 555.38,-144 555.38,-112 749.88,-112 749.88,-144"/>
<text text-anchor="start" x="563.38" y="-130.5" font-family="Helvetica,sans-Serif" font-size="10.00">Deluxe.DeluxeBrandCenter.</text>
<text text-anchor="middle" x="652.62" y="-118.5" font-family="Helvetica,sans-Serif" font-size="10.00">AMM.Domain.DataModel.TwitterAccount</text>
</a>
</g>
</g>
<!-- Node3&#45;&gt;Node33 -->
<g id="edge32_Node000003_Node000033" class="edge">
<title>Node3&#45;&gt;Node33</title>
<g id="a_edge32_Node000003_Node000033"><a xlink:title=" ">
<path fill="none" stroke="#63b8ff" d="M495.43,-406.19C495.79,-405.8 496.15,-405.4 496.5,-405 570.88,-319.75 455.14,-235.56 532.5,-153 538.86,-146.22 546.55,-141.02 554.93,-137.08"/>
<polygon fill="#63b8ff" stroke="#63b8ff" points="493.42,-403.3 488.18,-412.51 498.02,-408.57 493.42,-403.3"/>
</a>
</g>
</g>
<!-- Node34 -->
<g id="Node000034" class="node">
<title>Node34</title>
<g id="a_Node000034"><a xlink:href="../../de/d83/class_deluxe_1_1_deluxe_brand_center_1_1_a_m_m_1_1_domain_1_1_data_model_1_1_user_campaigns_1_1_recurrence.html" target="_top" xlink:title=" ">
<polygon fill="white" stroke="#666666" points="754,-94 551.25,-94 551.25,-50 754,-50 754,-94"/>
<text text-anchor="start" x="559.25" y="-80.5" font-family="Helvetica,sans-Serif" font-size="10.00">Deluxe.DeluxeBrandCenter.</text>
<text text-anchor="start" x="559.25" y="-68.5" font-family="Helvetica,sans-Serif" font-size="10.00">AMM.Domain.DataModel.UserCampaigns.</text>
<text text-anchor="middle" x="652.62" y="-56.5" font-family="Helvetica,sans-Serif" font-size="10.00">Recurrence</text>
</a>
</g>
</g>
<!-- Node3&#45;&gt;Node34 -->
<g id="edge33_Node000003_Node000034" class="edge">
<title>Node3&#45;&gt;Node34</title>
<g id="a_edge33_Node000003_Node000034"><a xlink:title=" ">
<path fill="none" stroke="#63b8ff" d="M495.71,-405.9C495.98,-405.61 496.24,-405.3 496.5,-405 584.17,-302.12 443.63,-204.85 532.5,-103 537.77,-96.96 544.05,-92.03 550.93,-88"/>
<polygon fill="#63b8ff" stroke="#63b8ff" points="493.38,-403.29 488.26,-412.57 498.05,-408.51 493.38,-403.29"/>
</a>
</g>
</g>
<!-- Node35 -->
<g id="Node000035" class="node">
<title>Node35</title>
<g id="a_Node000035"><a xlink:href="../../dc/dbc/class_deluxe_1_1_deluxe_brand_center_1_1_a_m_m_1_1_domain_1_1_schedule.html" target="_top" xlink:title=" ">
<polygon fill="white" stroke="#666666" points="721.75,-32 583.5,-32 583.5,0 721.75,0 721.75,-32"/>
<text text-anchor="start" x="591.5" y="-18.5" font-family="Helvetica,sans-Serif" font-size="10.00">Deluxe.DeluxeBrandCenter.</text>
<text text-anchor="middle" x="652.62" y="-6.5" font-family="Helvetica,sans-Serif" font-size="10.00">AMM.Domain.Schedule</text>
</a>
</g>
</g>
<!-- Node3&#45;&gt;Node35 -->
<g id="edge34_Node000003_Node000035" class="edge">
<title>Node3&#45;&gt;Node35</title>
<g id="a_edge34_Node000003_Node000035"><a xlink:title=" ">
<path fill="none" stroke="#63b8ff" d="M495.72,-405.91C495.98,-405.61 496.24,-405.31 496.5,-405 548.6,-342.61 478.22,-101.5 532.5,-41 545.41,-26.61 564.31,-19.31 583.27,-15.87"/>
<polygon fill="#63b8ff" stroke="#63b8ff" points="493.38,-403.31 488.33,-412.63 498.08,-408.49 493.38,-403.31"/>
</a>
</g>
</g>
<!-- Node6 -->
<g id="Node000006" class="node">
<title>Node6</title>
<g id="a_Node000006"><a xlink:href="../../d0/d41/class_deluxe_1_1_deluxe_brand_center_1_1_a_m_m_1_1_domain_1_1_data_model_1_1_branch_data.html" target="_top" xlink:title=" ">
<polygon fill="white" stroke="#666666" points="1002.5,-1108 821.5,-1108 821.5,-1076 1002.5,-1076 1002.5,-1108"/>
<text text-anchor="start" x="829.5" y="-1094.5" font-family="Helvetica,sans-Serif" font-size="10.00">Deluxe.DeluxeBrandCenter.</text>
<text text-anchor="middle" x="912" y="-1082.5" font-family="Helvetica,sans-Serif" font-size="10.00">AMM.Domain.DataModel.BranchData</text>
</a>
</g>
</g>
<!-- Node5&#45;&gt;Node6 -->
<g id="edge5_Node000005_Node000006" class="edge">
<title>Node5&#45;&gt;Node6</title>
<g id="a_edge5_Node000005_Node000006"><a xlink:title=" ">
<path fill="none" stroke="#63b8ff" d="M754.18,-915.03C760.96,-918.49 767.26,-922.76 772.75,-928 818.91,-972.06 763.32,-1022.18 808.75,-1067 812.52,-1070.72 816.75,-1073.92 821.29,-1076.67"/>
<polygon fill="#63b8ff" stroke="#63b8ff" points="755.91,-911.97 745.35,-911.14 753.09,-918.38 755.91,-911.97"/>
</a>
</g>
</g>
<!-- Node7 -->
<g id="Node000007" class="node">
<title>Node7</title>
<g id="a_Node000007"><a xlink:href="../../d1/d96/class_deluxe_1_1_deluxe_brand_center_1_1_a_m_m_1_1_domain_1_1_data_model_1_1_mailing_data.html" target="_top" xlink:title=" ">
<polygon fill="white" stroke="#666666" points="1002.5,-1058 821.5,-1058 821.5,-1026 1002.5,-1026 1002.5,-1058"/>
<text text-anchor="start" x="829.5" y="-1044.5" font-family="Helvetica,sans-Serif" font-size="10.00">Deluxe.DeluxeBrandCenter.</text>
<text text-anchor="middle" x="912" y="-1032.5" font-family="Helvetica,sans-Serif" font-size="10.00">AMM.Domain.DataModel.MailingData</text>
</a>
</g>
</g>
<!-- Node5&#45;&gt;Node7 -->
<g id="edge6_Node000005_Node000007" class="edge">
<title>Node5&#45;&gt;Node7</title>
<g id="a_edge6_Node000005_Node000007"><a xlink:title=" ">
<path fill="none" stroke="#63b8ff" d="M754.5,-916.36C761.05,-919.54 767.22,-923.37 772.75,-928 805.48,-955.38 776.48,-989.09 808.75,-1017 812.62,-1020.35 816.87,-1023.26 821.36,-1025.8"/>
<polygon fill="#63b8ff" stroke="#63b8ff" points="755.91,-913.16 745.34,-912.48 753.18,-919.6 755.91,-913.16"/>
</a>
</g>
</g>
<!-- Node9 -->
<g id="Node000009" class="node">
<title>Node9</title>
<g id="a_Node000009"><a xlink:href="../../d2/d0f/class_deluxe_1_1_deluxe_brand_center_1_1_a_m_m_1_1_domain_1_1_campaign_element.html" target="_top" xlink:title=" ">
<polygon fill="white" stroke="#666666" points="991.62,-1008 832.38,-1008 832.38,-976 991.62,-976 991.62,-1008"/>
<text text-anchor="start" x="840.38" y="-994.5" font-family="Helvetica,sans-Serif" font-size="10.00">Deluxe.DeluxeBrandCenter.</text>
<text text-anchor="middle" x="912" y="-982.5" font-family="Helvetica,sans-Serif" font-size="10.00">AMM.Domain.CampaignElement</text>
</a>
</g>
</g>
<!-- Node8&#45;&gt;Node9 -->
<g id="edge8_Node000008_Node000009" class="edge">
<title>Node8&#45;&gt;Node9</title>
<g id="a_edge8_Node000008_Node000009"><a xlink:title=" ">
<path fill="none" stroke="#63b8ff" d="M674.93,-739.17C700.54,-770.28 743.68,-825.57 772.75,-878 793.44,-915.32 776.48,-939.09 808.75,-967 815.59,-972.92 823.61,-977.48 832.1,-980.99"/>
<polygon fill="#63b8ff" stroke="#63b8ff" points="677.63,-736.94 668.55,-731.48 672.25,-741.41 677.63,-736.94"/>
</a>
</g>
</g>
<!-- Node10 -->
<g id="Node000010" class="node">
<title>Node10</title>
<g id="a_Node000010"><a xlink:href="../../db/d20/class_deluxe_1_1_deluxe_brand_center_1_1_a_m_m_1_1_domain_1_1_data_model_1_1_account_status.html" target="_top" xlink:title=" ">
<polygon fill="white" stroke="#666666" points="1008.88,-958 815.12,-958 815.12,-926 1008.88,-926 1008.88,-958"/>
<text text-anchor="start" x="823.12" y="-944.5" font-family="Helvetica,sans-Serif" font-size="10.00">Deluxe.DeluxeBrandCenter.</text>
<text text-anchor="middle" x="912" y="-932.5" font-family="Helvetica,sans-Serif" font-size="10.00">AMM.Domain.DataModel.AccountStatus</text>
</a>
</g>
</g>
<!-- Node8&#45;&gt;Node10 -->
<g id="edge9_Node000008_Node000010" class="edge">
<title>Node8&#45;&gt;Node10</title>
<g id="a_edge9_Node000008_Node000010"><a xlink:title=" ">
<path fill="none" stroke="#63b8ff" d="M671.74,-739.62C708.61,-791.49 790.48,-905.06 808.75,-917 813.72,-920.25 819.08,-923.08 824.64,-925.54"/>
<polygon fill="#63b8ff" stroke="#63b8ff" points="674.71,-737.77 666.07,-731.64 669,-741.82 674.71,-737.77"/>
</a>
</g>
</g>
<!-- Node11 -->
<g id="Node000011" class="node">
<title>Node11</title>
<g id="a_Node000011"><a xlink:href="../../dd/ddc/class_deluxe_1_1_deluxe_brand_center_1_1_a_m_m_1_1_domain_1_1_data_model_1_1_campaign.html" target="_top" xlink:title=" ">
<polygon fill="white" stroke="#666666" points="998.75,-908 825.25,-908 825.25,-876 998.75,-876 998.75,-908"/>
<text text-anchor="start" x="833.25" y="-894.5" font-family="Helvetica,sans-Serif" font-size="10.00">Deluxe.DeluxeBrandCenter.</text>
<text text-anchor="middle" x="912" y="-882.5" font-family="Helvetica,sans-Serif" font-size="10.00">AMM.Domain.DataModel.Campaign</text>
</a>
</g>
</g>
<!-- Node8&#45;&gt;Node11 -->
<g id="edge10_Node000008_Node000011" class="edge">
<title>Node8&#45;&gt;Node11</title>
<g id="a_edge10_Node000008_Node000011"><a xlink:title=" ">
<path fill="none" stroke="#63b8ff" d="M671.98,-739.2C698.32,-773.49 750.18,-834.3 808.75,-867 814.57,-870.25 820.82,-873.08 827.24,-875.55"/>
<polygon fill="#63b8ff" stroke="#63b8ff" points="674.97,-737.36 666.15,-731.49 669.38,-741.58 674.97,-737.36"/>
</a>
</g>
</g>
<!-- Node12 -->
<g id="Node000012" class="node">
<title>Node12</title>
<g id="a_Node000012"><a xlink:href="../../d2/d93/class_deluxe_1_1_deluxe_brand_center_1_1_a_m_m_1_1_domain_1_1_data_model_1_1_campaign_setting.html" target="_top" xlink:title=" ">
<polygon fill="white" stroke="#666666" points="1014.12,-858 809.88,-858 809.88,-826 1014.12,-826 1014.12,-858"/>
<text text-anchor="start" x="817.88" y="-844.5" font-family="Helvetica,sans-Serif" font-size="10.00">Deluxe.DeluxeBrandCenter.</text>
<text text-anchor="middle" x="912" y="-832.5" font-family="Helvetica,sans-Serif" font-size="10.00">AMM.Domain.DataModel.CampaignSetting</text>
</a>
</g>
</g>
<!-- Node8&#45;&gt;Node12 -->
<g id="edge11_Node000008_Node000012" class="edge">
<title>Node8&#45;&gt;Node12</title>
<g id="a_edge11_Node000008_Node000012"><a xlink:title=" ">
<path fill="none" stroke="#63b8ff" d="M682.38,-737.56C712.25,-760.93 761.19,-796.16 808.75,-817 816.03,-820.19 823.79,-823.02 831.65,-825.51"/>
<polygon fill="#63b8ff" stroke="#63b8ff" points="684.57,-734.84 674.56,-731.37 680.22,-740.32 684.57,-734.84"/>
</a>
</g>
</g>
<!-- Node13 -->
<g id="Node000013" class="node">
<title>Node13</title>
<g id="a_Node000013"><a xlink:href="../../de/dc3/class_deluxe_1_1_deluxe_brand_center_1_1_a_m_m_1_1_domain_1_1_data_model_1_1_campaign_type.html" target="_top" xlink:title="Campaign types standard, event, ...">
<polygon fill="white" stroke="#666666" points="1009.25,-808 814.75,-808 814.75,-776 1009.25,-776 1009.25,-808"/>
<text text-anchor="start" x="822.75" y="-794.5" font-family="Helvetica,sans-Serif" font-size="10.00">Deluxe.DeluxeBrandCenter.</text>
<text text-anchor="middle" x="912" y="-782.5" font-family="Helvetica,sans-Serif" font-size="10.00">AMM.Domain.DataModel.CampaignType</text>
</a>
</g>
</g>
<!-- Node8&#45;&gt;Node13 -->
<g id="edge12_Node000008_Node000013" class="edge">
<title>Node8&#45;&gt;Node13</title>
<g id="a_edge12_Node000008_Node000013"><a xlink:title=" ">
<path fill="none" stroke="#63b8ff" d="M708.91,-734.23C738.35,-744.67 775.3,-757.22 808.75,-767 818.84,-769.95 829.55,-772.84 840.1,-775.54"/>
<polygon fill="#63b8ff" stroke="#63b8ff" points="710.45,-731.06 699.85,-731 708.09,-737.66 710.45,-731.06"/>
</a>
</g>
</g>
<!-- Node14 -->
<g id="Node000014" class="node">
<title>Node14</title>
<g id="a_Node000014"><a xlink:href="../../d3/d4c/class_deluxe_1_1_deluxe_brand_center_1_1_a_m_m_1_1_domain_1_1_data_model_1_1_client_1_1_client.html" target="_top" xlink:title=" ">
<polygon fill="white" stroke="#666666" points="1003.62,-758 820.38,-758 820.38,-726 1003.62,-726 1003.62,-758"/>
<text text-anchor="start" x="828.38" y="-744.5" font-family="Helvetica,sans-Serif" font-size="10.00">Deluxe.DeluxeBrandCenter.</text>
<text text-anchor="middle" x="912" y="-732.5" font-family="Helvetica,sans-Serif" font-size="10.00">AMM.Domain.DataModel.Client.Client</text>
</a>
</g>
</g>
<!-- Node8&#45;&gt;Node14 -->
<g id="edge13_Node000008_Node000014" class="edge">
<title>Node8&#45;&gt;Node14</title>
<g id="a_edge13_Node000008_Node000014"><a xlink:title=" ">
<path fill="none" stroke="#63b8ff" d="M768.49,-726.5C785.77,-728.38 803.39,-730.29 820.08,-732.11"/>
<polygon fill="#63b8ff" stroke="#63b8ff" points="769.02,-723.03 758.7,-725.43 768.26,-729.99 769.02,-723.03"/>
</a>
</g>
</g>
<!-- Node15 -->
<g id="Node000015" class="node">
<title>Node15</title>
<g id="a_Node000015"><a xlink:href="../../db/de4/class_deluxe_1_1_deluxe_brand_center_1_1_a_m_m_1_1_domain_1_1_data_model_1_1_contact_manager_1_1_contact_group.html" target="_top" xlink:title=" ">
<polygon fill="white" stroke="#666666" points="1014.12,-708 809.88,-708 809.88,-664 1014.12,-664 1014.12,-708"/>
<text text-anchor="start" x="817.88" y="-694.5" font-family="Helvetica,sans-Serif" font-size="10.00">Deluxe.DeluxeBrandCenter.</text>
<text text-anchor="start" x="817.88" y="-682.5" font-family="Helvetica,sans-Serif" font-size="10.00">AMM.Domain.DataModel.ContactManager.</text>
<text text-anchor="middle" x="912" y="-670.5" font-family="Helvetica,sans-Serif" font-size="10.00">ContactGroup</text>
</a>
</g>
</g>
<!-- Node8&#45;&gt;Node15 -->
<g id="edge14_Node000008_Node000015" class="edge">
<title>Node8&#45;&gt;Node15</title>
<g id="a_edge14_Node000008_Node000015"><a xlink:title=" ">
<path fill="none" stroke="#63b8ff" d="M768.64,-701.49C782.34,-700 796.25,-698.48 809.73,-697.02"/>
<polygon fill="#63b8ff" stroke="#63b8ff" points="768.26,-698.01 758.7,-702.57 769.02,-704.97 768.26,-698.01"/>
</a>
</g>
</g>
<!-- Node16 -->
<g id="Node000016" class="node">
<title>Node16</title>
<g id="a_Node000016"><a xlink:href="../../dc/d10/class_deluxe_1_1_deluxe_brand_center_1_1_a_m_m_1_1_domain_1_1_data_model_1_1_contact_manager_1_1_contact_tag.html" target="_top" xlink:title=" ">
<polygon fill="white" stroke="#666666" points="1014.12,-646 809.88,-646 809.88,-602 1014.12,-602 1014.12,-646"/>
<text text-anchor="start" x="817.88" y="-632.5" font-family="Helvetica,sans-Serif" font-size="10.00">Deluxe.DeluxeBrandCenter.</text>
<text text-anchor="start" x="817.88" y="-620.5" font-family="Helvetica,sans-Serif" font-size="10.00">AMM.Domain.DataModel.ContactManager.</text>
<text text-anchor="middle" x="912" y="-608.5" font-family="Helvetica,sans-Serif" font-size="10.00">ContactTag</text>
</a>
</g>
</g>
<!-- Node8&#45;&gt;Node16 -->
<g id="edge15_Node000008_Node000016" class="edge">
<title>Node8&#45;&gt;Node16</title>
<g id="a_edge15_Node000008_Node000016"><a xlink:title=" ">
<path fill="none" stroke="#63b8ff" d="M763.38,-693.47C766.58,-692.08 769.71,-690.59 772.75,-689 792.25,-678.8 789.71,-666.04 808.75,-655 814.13,-651.88 819.84,-649.05 825.73,-646.48"/>
<polygon fill="#63b8ff" stroke="#63b8ff" points="762.36,-690.11 754.35,-697.05 764.94,-696.62 762.36,-690.11"/>
</a>
</g>
</g>
<!-- Node17 -->
<g id="Node000017" class="node">
<title>Node17</title>
<g id="a_Node000017"><a xlink:href="../../db/d17/class_deluxe_1_1_deluxe_brand_center_1_1_a_m_m_1_1_domain_1_1_data_model_1_1_customized_video.html" target="_top" xlink:title=" ">
<polygon fill="white" stroke="#666666" points="1015.25,-584 808.75,-584 808.75,-552 1015.25,-552 1015.25,-584"/>
<text text-anchor="start" x="816.75" y="-570.5" font-family="Helvetica,sans-Serif" font-size="10.00">Deluxe.DeluxeBrandCenter.</text>
<text text-anchor="middle" x="912" y="-558.5" font-family="Helvetica,sans-Serif" font-size="10.00">AMM.Domain.DataModel.CustomizedVideo</text>
</a>
</g>
</g>
<!-- Node8&#45;&gt;Node17 -->
<g id="edge16_Node000008_Node000017" class="edge">
<title>Node8&#45;&gt;Node17</title>
<g id="a_edge16_Node000008_Node000017"><a xlink:title=" ">
<path fill="none" stroke="#63b8ff" d="M766.75,-693.66C768.83,-692.2 770.83,-690.65 772.75,-689 807.32,-659.32 774.67,-623.25 808.75,-593 812.44,-589.72 816.49,-586.86 820.78,-584.36"/>
<polygon fill="#63b8ff" stroke="#63b8ff" points="765.26,-690.47 758.55,-698.67 768.91,-696.44 765.26,-690.47"/>
</a>
</g>
</g>
<!-- Node18 -->
<g id="Node000018" class="node">
<title>Node18</title>
<g id="a_Node000018"><a xlink:href="../../d9/d05/class_deluxe_1_1_deluxe_brand_center_1_1_a_m_m_1_1_domain_1_1_data_model_1_1_editor_field.html" target="_top" xlink:title=" ">
<polygon fill="white" stroke="#666666" points="999.88,-534 824.12,-534 824.12,-502 999.88,-502 999.88,-534"/>
<text text-anchor="start" x="832.12" y="-520.5" font-family="Helvetica,sans-Serif" font-size="10.00">Deluxe.DeluxeBrandCenter.</text>
<text text-anchor="middle" x="912" y="-508.5" font-family="Helvetica,sans-Serif" font-size="10.00">AMM.Domain.DataModel.EditorField</text>
</a>
</g>
</g>
<!-- Node8&#45;&gt;Node18 -->
<g id="edge17_Node000008_Node000018" class="edge">
<title>Node8&#45;&gt;Node18</title>
<g id="a_edge17_Node000008_Node000018"><a xlink:title=" ">
<path fill="none" stroke="#63b8ff" d="M766.82,-694.11C768.89,-692.52 770.87,-690.82 772.75,-689 820.82,-642.57 761.45,-590.21 808.75,-543 813.28,-538.48 818.48,-534.73 824.08,-531.62"/>
<polygon fill="#63b8ff" stroke="#63b8ff" points="764.97,-691.14 758.55,-699.57 768.83,-696.98 764.97,-691.14"/>
</a>
</g>
</g>
<!-- Node19 -->
<g id="Node000019" class="node">
<title>Node19</title>
<g id="a_Node000019"><a xlink:href="../../d4/da4/class_deluxe_1_1_deluxe_brand_center_1_1_a_m_m_1_1_domain_1_1_data_model_1_1_settings.html" target="_top" xlink:title=" ">
<polygon fill="white" stroke="#666666" points="994.62,-484 829.38,-484 829.38,-452 994.62,-452 994.62,-484"/>
<text text-anchor="start" x="837.38" y="-470.5" font-family="Helvetica,sans-Serif" font-size="10.00">Deluxe.DeluxeBrandCenter.</text>
<text text-anchor="middle" x="912" y="-458.5" font-family="Helvetica,sans-Serif" font-size="10.00">AMM.Domain.DataModel.Settings</text>
</a>
</g>
</g>
<!-- Node8&#45;&gt;Node19 -->
<g id="edge18_Node000008_Node000019" class="edge">
<title>Node8&#45;&gt;Node19</title>
<g id="a_edge18_Node000008_Node000019"><a xlink:title=" ">
<path fill="none" stroke="#63b8ff" d="M766.4,-694.72C768.63,-692.96 770.75,-691.05 772.75,-689 834.58,-625.59 747.97,-557.42 808.75,-493 814.52,-486.89 821.52,-482.16 829.11,-478.53"/>
<polygon fill="#63b8ff" stroke="#63b8ff" points="764.89,-691.52 758.59,-700.03 768.83,-697.31 764.89,-691.52"/>
</a>
</g>
</g>
<!-- Node20 -->
<g id="Node000020" class="node">
<title>Node20</title>
<g id="a_Node000020"><a xlink:href="../../dc/ddd/class_deluxe_1_1_deluxe_brand_center_1_1_a_m_m_1_1_domain_1_1_data_model_1_1_settings_group.html" target="_top" xlink:title=" ">
<polygon fill="white" stroke="#666666" points="1007.75,-434 816.25,-434 816.25,-402 1007.75,-402 1007.75,-434"/>
<text text-anchor="start" x="824.25" y="-420.5" font-family="Helvetica,sans-Serif" font-size="10.00">Deluxe.DeluxeBrandCenter.</text>
<text text-anchor="middle" x="912" y="-408.5" font-family="Helvetica,sans-Serif" font-size="10.00">AMM.Domain.DataModel.SettingsGroup</text>
</a>
</g>
</g>
<!-- Node8&#45;&gt;Node20 -->
<g id="edge19_Node000008_Node000020" class="edge">
<title>Node8&#45;&gt;Node20</title>
<g id="a_edge19_Node000008_Node000020"><a xlink:title=" ">
<path fill="none" stroke="#63b8ff" d="M766.39,-694.91C768.63,-693.09 770.76,-691.12 772.75,-689 848.44,-608.5 734.39,-524.74 808.75,-443 811.7,-439.76 815,-436.9 818.55,-434.39"/>
<polygon fill="#63b8ff" stroke="#63b8ff" points="764.74,-691.8 758.51,-700.37 768.72,-697.55 764.74,-691.8"/>
</a>
</g>
</g>
<!-- Node21 -->
<g id="Node000021" class="node">
<title>Node21</title>
<g id="a_Node000021"><a xlink:href="../../dc/d90/class_deluxe_1_1_deluxe_brand_center_1_1_a_m_m_1_1_domain_1_1_data_model_1_1_signature_block.html" target="_top" xlink:title=" ">
<polygon fill="white" stroke="#666666" points="1009.62,-384 814.38,-384 814.38,-352 1009.62,-352 1009.62,-384"/>
<text text-anchor="start" x="822.38" y="-370.5" font-family="Helvetica,sans-Serif" font-size="10.00">Deluxe.DeluxeBrandCenter.</text>
<text text-anchor="middle" x="912" y="-358.5" font-family="Helvetica,sans-Serif" font-size="10.00">AMM.Domain.DataModel.SignatureBlock</text>
</a>
</g>
</g>
<!-- Node8&#45;&gt;Node21 -->
<g id="edge20_Node000008_Node000021" class="edge">
<title>Node8&#45;&gt;Node21</title>
<g id="a_edge20_Node000008_Node000021"><a xlink:title=" ">
<path fill="none" stroke="#63b8ff" d="M766.46,-694.97C768.68,-693.13 770.78,-691.15 772.75,-689 862.35,-591.36 720.77,-492.11 808.75,-393 811.66,-389.72 814.93,-386.84 818.45,-384.3"/>
<polygon fill="#63b8ff" stroke="#63b8ff" points="764.8,-691.87 758.64,-700.49 768.83,-697.59 764.8,-691.87"/>
</a>
</g>
</g>
<!-- Node22 -->
<g id="Node000022" class="node">
<title>Node22</title>
<g id="a_Node000022"><a xlink:href="../../db/dda/class_deluxe_1_1_deluxe_brand_center_1_1_a_m_m_1_1_domain_1_1_data_model_1_1_user_campaign.html" target="_top" xlink:title=" ">
<polygon fill="white" stroke="#666666" points="1009.25,-334 814.75,-334 814.75,-302 1009.25,-302 1009.25,-334"/>
<text text-anchor="start" x="822.75" y="-320.5" font-family="Helvetica,sans-Serif" font-size="10.00">Deluxe.DeluxeBrandCenter.</text>
<text text-anchor="middle" x="912" y="-308.5" font-family="Helvetica,sans-Serif" font-size="10.00">AMM.Domain.DataModel.UserCampaign</text>
</a>
</g>
</g>
<!-- Node8&#45;&gt;Node22 -->
<g id="edge21_Node000008_Node000022" class="edge">
<title>Node8&#45;&gt;Node22</title>
<g id="a_edge21_Node000008_Node000022"><a xlink:title=" ">
<path fill="none" stroke="#63b8ff" d="M766.51,-695.02C768.71,-693.17 770.8,-691.16 772.75,-689 876.29,-574.18 707.11,-459.51 808.75,-343 811.63,-339.69 814.87,-336.79 818.38,-334.24"/>
<polygon fill="#63b8ff" stroke="#63b8ff" points="764.84,-691.91 758.73,-700.57 768.9,-697.61 764.84,-691.91"/>
</a>
</g>
</g>
</g>
</svg>
