<?xml version="1.0" encoding="UTF-8" standalone="no"?>
<!DOCTYPE svg PUBLIC "-//W3C//DTD SVG 1.1//EN"
 "http://www.w3.org/Graphics/SVG/1.1/DTD/svg11.dtd">
<!-- Generated by graphviz version 12.1.1 (20240910.0053)
 -->
<!-- Title: Deluxe.DeluxeBrandCenter.AMM.API.Services.PersonaService.GetDefaultPersonaForProfile Pages: 1 -->
<svg width="689pt" height="226pt"
 viewBox="0.00 0.00 689.00 226.00" xmlns="http://www.w3.org/2000/svg" xmlns:xlink="http://www.w3.org/1999/xlink">
<g id="graph0" class="graph" transform="scale(1 1) rotate(0) translate(4 222)">
<title>Deluxe.DeluxeBrandCenter.AMM.API.Services.PersonaService.GetDefaultPersonaForProfile</title>
<!-- Node1 -->
<g id="Node000001" class="node">
<title>Node1</title>
<g id="a_Node000001"><a xlink:title=" ">
<polygon fill="#999999" stroke="#666666" points="175,-137 0,-137 0,-93 175,-93 175,-137"/>
<text text-anchor="start" x="8" y="-123.5" font-family="Helvetica,sans-Serif" font-size="10.00">Deluxe.DeluxeBrandCenter.</text>
<text text-anchor="start" x="8" y="-111.5" font-family="Helvetica,sans-Serif" font-size="10.00">AMM.API.Services.PersonaService.</text>
<text text-anchor="middle" x="87.5" y="-99.5" font-family="Helvetica,sans-Serif" font-size="10.00">GetDefaultPersonaForProfile</text>
</a>
</g>
</g>
<!-- Node2 -->
<g id="Node000002" class="node">
<title>Node2</title>
<g id="a_Node000002"><a xlink:href="../../d5/d6c/class_deluxe_1_1_deluxe_brand_center_1_1_a_m_m_1_1_a_p_i_1_1_services_1_1_persona_service.html#a5cd63501cc523b3c5ab46cb60f1d957c" target="_top" xlink:title=" ">
<polygon fill="white" stroke="#666666" points="418.25,-168 243.25,-168 243.25,-124 418.25,-124 418.25,-168"/>
<text text-anchor="start" x="251.25" y="-154.5" font-family="Helvetica,sans-Serif" font-size="10.00">Deluxe.DeluxeBrandCenter.</text>
<text text-anchor="start" x="251.25" y="-142.5" font-family="Helvetica,sans-Serif" font-size="10.00">AMM.API.Services.PersonaService.</text>
<text text-anchor="middle" x="330.75" y="-130.5" font-family="Helvetica,sans-Serif" font-size="10.00">FindPersonaByType</text>
</a>
</g>
</g>
<!-- Node1&#45;&gt;Node2 -->
<g id="edge1_Node000001_Node000002" class="edge">
<title>Node1&#45;&gt;Node2</title>
<g id="a_edge1_Node000001_Node000002"><a xlink:title=" ">
<path fill="none" stroke="#63b8ff" d="M175.26,-126.15C193.58,-128.5 213.03,-131 231.73,-133.41"/>
<polygon fill="#63b8ff" stroke="#63b8ff" points="231.09,-136.85 241.45,-134.65 231.98,-129.91 231.09,-136.85"/>
</a>
</g>
</g>
<!-- Node3 -->
<g id="Node000003" class="node">
<title>Node3</title>
<g id="a_Node000003"><a xlink:href="../../d3/d78/interface_deluxe_1_1_deluxe_brand_center_1_1_a_m_m_1_1_infrastructure_1_1_p_m_s_1_1_i_persona_microservice.html#a1b8071920f8efdad5a29be353c5f189b" target="_top" xlink:title=" ">
<polygon fill="white" stroke="#666666" points="667.12,-218 500.38,-218 500.38,-174 667.12,-174 667.12,-218"/>
<text text-anchor="start" x="508.38" y="-204.5" font-family="Helvetica,sans-Serif" font-size="10.00">Deluxe.DeluxeBrandCenter.</text>
<text text-anchor="start" x="508.38" y="-192.5" font-family="Helvetica,sans-Serif" font-size="10.00">AMM.Infrastructure.PMS.IPersona</text>
<text text-anchor="middle" x="583.75" y="-180.5" font-family="Helvetica,sans-Serif" font-size="10.00">Microservice.GetPersonaInstance</text>
</a>
</g>
</g>
<!-- Node1&#45;&gt;Node3 -->
<g id="edge4_Node000001_Node000003" class="edge">
<title>Node1&#45;&gt;Node3</title>
<g id="a_edge4_Node000001_Node000003"><a xlink:title=" ">
<path fill="none" stroke="#63b8ff" d="M123.1,-137.45C146.82,-151.57 179.56,-168.64 211,-177 303.08,-201.48 412.4,-204.06 488.56,-201.85"/>
<polygon fill="#63b8ff" stroke="#63b8ff" points="488.63,-205.35 498.51,-201.53 488.4,-198.36 488.63,-205.35"/>
</a>
</g>
</g>
<!-- Node5 -->
<g id="Node000005" class="node">
<title>Node5</title>
<g id="a_Node000005"><a xlink:href="../../d3/d78/interface_deluxe_1_1_deluxe_brand_center_1_1_a_m_m_1_1_infrastructure_1_1_p_m_s_1_1_i_persona_microservice.html#aeebea88b9c6ffb965de9860c133b5259" target="_top" xlink:title=" ">
<polygon fill="white" stroke="#666666" points="450.5,-106 211,-106 211,-62 450.5,-62 450.5,-106"/>
<text text-anchor="start" x="219" y="-92.5" font-family="Helvetica,sans-Serif" font-size="10.00">Deluxe.DeluxeBrandCenter.</text>
<text text-anchor="start" x="219" y="-80.5" font-family="Helvetica,sans-Serif" font-size="10.00">AMM.Infrastructure.PMS.IPersona</text>
<text text-anchor="middle" x="330.75" y="-68.5" font-family="Helvetica,sans-Serif" font-size="10.00">Microservice.GetPersonaInstancesForUser_Simple</text>
</a>
</g>
</g>
<!-- Node1&#45;&gt;Node5 -->
<g id="edge5_Node000001_Node000005" class="edge">
<title>Node1&#45;&gt;Node5</title>
<g id="a_edge5_Node000001_Node000005"><a xlink:title=" ">
<path fill="none" stroke="#63b8ff" d="M175.26,-103.85C183.15,-102.84 191.25,-101.8 199.42,-100.75"/>
<polygon fill="#63b8ff" stroke="#63b8ff" points="199.6,-104.25 209.07,-99.51 198.71,-97.31 199.6,-104.25"/>
</a>
</g>
</g>
<!-- Node6 -->
<g id="Node000006" class="node">
<title>Node6</title>
<g id="a_Node000006"><a xlink:href="../../d5/d6c/class_deluxe_1_1_deluxe_brand_center_1_1_a_m_m_1_1_a_p_i_1_1_services_1_1_persona_service.html#a667006a6c7b1f1969d953c833e06b562" target="_top" xlink:title=" ">
<polygon fill="white" stroke="#666666" points="418.25,-44 243.25,-44 243.25,0 418.25,0 418.25,-44"/>
<text text-anchor="start" x="251.25" y="-30.5" font-family="Helvetica,sans-Serif" font-size="10.00">Deluxe.DeluxeBrandCenter.</text>
<text text-anchor="start" x="251.25" y="-18.5" font-family="Helvetica,sans-Serif" font-size="10.00">AMM.API.Services.PersonaService.</text>
<text text-anchor="middle" x="330.75" y="-6.5" font-family="Helvetica,sans-Serif" font-size="10.00">GetUser</text>
</a>
</g>
</g>
<!-- Node1&#45;&gt;Node6 -->
<g id="edge6_Node000001_Node000006" class="edge">
<title>Node1&#45;&gt;Node6</title>
<g id="a_edge6_Node000001_Node000006"><a xlink:title=" ">
<path fill="none" stroke="#63b8ff" d="M127.53,-92.55C151.12,-79.67 182.13,-63.93 211,-53 217.75,-50.44 224.79,-48.02 231.93,-45.74"/>
<polygon fill="#63b8ff" stroke="#63b8ff" points="232.84,-49.13 241.36,-42.84 230.78,-42.44 232.84,-49.13"/>
</a>
</g>
</g>
<!-- Node2&#45;&gt;Node3 -->
<g id="edge2_Node000002_Node000003" class="edge">
<title>Node2&#45;&gt;Node3</title>
<g id="a_edge2_Node000002_Node000003"><a xlink:title=" ">
<path fill="none" stroke="#63b8ff" d="M418.48,-163.28C441.25,-167.81 465.91,-172.73 489.03,-177.33"/>
<polygon fill="#63b8ff" stroke="#63b8ff" points="488.27,-180.75 498.76,-179.27 489.64,-173.88 488.27,-180.75"/>
</a>
</g>
</g>
<!-- Node4 -->
<g id="Node000004" class="node">
<title>Node4</title>
<g id="a_Node000004"><a xlink:href="../../dd/d7d/interface_deluxe_1_1_deluxe_brand_center_1_1_a_m_m_1_1_domain_1_1_services_1_1_i_session_service.html#aaac0af72e9b32df926d2afea555e1e34" target="_top" xlink:title=" ">
<polygon fill="white" stroke="#666666" points="681,-156 486.5,-156 486.5,-112 681,-112 681,-156"/>
<text text-anchor="start" x="494.5" y="-142.5" font-family="Helvetica,sans-Serif" font-size="10.00">Deluxe.DeluxeBrandCenter.</text>
<text text-anchor="start" x="494.5" y="-130.5" font-family="Helvetica,sans-Serif" font-size="10.00">AMM.Domain.Services.ISessionService.</text>
<text text-anchor="middle" x="583.75" y="-118.5" font-family="Helvetica,sans-Serif" font-size="10.00">SessionGetUserId</text>
</a>
</g>
</g>
<!-- Node2&#45;&gt;Node4 -->
<g id="edge3_Node000002_Node000004" class="edge">
<title>Node2&#45;&gt;Node4</title>
<g id="a_edge3_Node000002_Node000004"><a xlink:title=" ">
<path fill="none" stroke="#63b8ff" d="M418.48,-141.85C436.64,-140.99 455.99,-140.06 474.81,-139.16"/>
<polygon fill="#63b8ff" stroke="#63b8ff" points="474.8,-142.67 484.62,-138.69 474.46,-135.67 474.8,-142.67"/>
</a>
</g>
</g>
</g>
</svg>
