<?xml version="1.0" encoding="UTF-8" standalone="no"?>
<!DOCTYPE svg PUBLIC "-//W3C//DTD SVG 1.1//EN"
 "http://www.w3.org/Graphics/SVG/1.1/DTD/svg11.dtd">
<!-- Generated by graphviz version 12.1.1 (20240910.0053)
 -->
<!-- Title: Deluxe.DeluxeBrandCenter.AMM.Infrastructure.Mindfire.ProgramServiceMF.StopCampaign Pages: 1 -->
<svg width="399pt" height="212pt"
 viewBox="0.00 0.00 398.50 212.00" xmlns="http://www.w3.org/2000/svg" xmlns:xlink="http://www.w3.org/1999/xlink">

<svg id="main" version="1.1" xmlns="http://www.w3.org/2000/svg" xmlns:xlink="http://www.w3.org/1999/xlink" xml:space="preserve">

<style type="text/css"><![CDATA[
.node, .edge {opacity: 0.7;}
.node.selected, .edge.selected {opacity: 1;}
.edge:hover path { stroke: red; }
.edge:hover polygon { stroke: red; fill: red; }
]]></style>
<script type="application/ecmascript" xlink:href="../../svg.min.js"/>
<svg id="graph" class="graph">
<g id="graph0" class="graph" transform="scale(1 1) rotate(0) translate(4 208)">
<title>Deluxe.DeluxeBrandCenter.AMM.Infrastructure.Mindfire.ProgramServiceMF.StopCampaign</title>
<!-- Node1 -->
<g id="Node000001" class="node">
<title>Node1</title>
<g id="a_Node000001"><a xlink:title=" ">
<polygon fill="#999999" stroke="#666666" points="177.25,-106 0,-106 0,-62 177.25,-62 177.25,-106"/>
<text text-anchor="start" x="8" y="-92.5" font-family="Helvetica,sans-Serif" font-size="10.00">Deluxe.DeluxeBrandCenter.</text>
<text text-anchor="start" x="8" y="-80.5" font-family="Helvetica,sans-Serif" font-size="10.00">AMM.Infrastructure.Mindfire.Program</text>
<text text-anchor="middle" x="88.62" y="-68.5" font-family="Helvetica,sans-Serif" font-size="10.00">ServiceMF.StopCampaign</text>
</a>
</g>
</g>
<!-- Node2 -->
<g id="Node000002" class="node">
<title>Node2</title>
<g id="a_Node000002"><a xlink:href="../../d2/d75/class_deluxe_1_1_deluxe_brand_center_1_1_a_m_m_1_1_infrastructure_1_1_mindfire_1_1_program_service_m_f.html#accef25a4e382f272079212c2052e42c5" target="_top" xlink:title=" ">
<polygon fill="white" stroke="#666666" points="390.5,-186 213.25,-186 213.25,-142 390.5,-142 390.5,-186"/>
<text text-anchor="start" x="221.25" y="-172.5" font-family="Helvetica,sans-Serif" font-size="10.00">Deluxe.DeluxeBrandCenter.</text>
<text text-anchor="start" x="221.25" y="-160.5" font-family="Helvetica,sans-Serif" font-size="10.00">AMM.Infrastructure.Mindfire.Program</text>
<text text-anchor="middle" x="301.88" y="-148.5" font-family="Helvetica,sans-Serif" font-size="10.00">ServiceMF.CheckInProgram</text>
</a>
</g>
</g>
<!-- Node1&#45;&gt;Node2 -->
<g id="edge1_Node000001_Node000002" class="edge">
<title>Node1&#45;&gt;Node2</title>
<g id="a_edge1_Node000001_Node000002"><a xlink:title=" ">
<path fill="none" stroke="#63b8ff" d="M144.84,-106.4C166.15,-114.9 190.77,-124.57 213.25,-133 217.38,-134.55 221.63,-136.12 225.92,-137.69"/>
<polygon fill="#63b8ff" stroke="#63b8ff" points="224.63,-140.95 235.23,-141.07 227.02,-134.37 224.63,-140.95"/>
</a>
</g>
</g>
<!-- Node3 -->
<g id="Node000003" class="node">
<title>Node3</title>
<g id="a_Node000003"><a xlink:href="../../d2/d75/class_deluxe_1_1_deluxe_brand_center_1_1_a_m_m_1_1_infrastructure_1_1_mindfire_1_1_program_service_m_f.html#a9a47da7791095368f8c5d48094318817" target="_top" xlink:title=" ">
<polygon fill="white" stroke="#666666" points="390.5,-106 213.25,-106 213.25,-62 390.5,-62 390.5,-106"/>
<text text-anchor="start" x="221.25" y="-92.5" font-family="Helvetica,sans-Serif" font-size="10.00">Deluxe.DeluxeBrandCenter.</text>
<text text-anchor="start" x="221.25" y="-80.5" font-family="Helvetica,sans-Serif" font-size="10.00">AMM.Infrastructure.Mindfire.Program</text>
<text text-anchor="middle" x="301.88" y="-68.5" font-family="Helvetica,sans-Serif" font-size="10.00">ServiceMF.CheckOutProgram</text>
</a>
</g>
</g>
<!-- Node1&#45;&gt;Node3 -->
<g id="edge3_Node000001_Node000003" class="edge">
<title>Node1&#45;&gt;Node3</title>
<g id="a_edge3_Node000001_Node000003"><a xlink:title=" ">
<path fill="none" stroke="#63b8ff" d="M177.68,-84C185.61,-84 193.67,-84 201.68,-84"/>
<polygon fill="#63b8ff" stroke="#63b8ff" points="201.44,-87.5 211.44,-84 201.44,-80.5 201.44,-87.5"/>
</a>
</g>
</g>
<!-- Node4 -->
<g id="Node000004" class="node">
<title>Node4</title>
<g id="a_Node000004"><a xlink:href="../../d2/d75/class_deluxe_1_1_deluxe_brand_center_1_1_a_m_m_1_1_infrastructure_1_1_mindfire_1_1_program_service_m_f.html#a232d13b5179043147b7df0a50aff2004" target="_top" xlink:title=" ">
<polygon fill="white" stroke="#666666" points="390.5,-44 213.25,-44 213.25,0 390.5,0 390.5,-44"/>
<text text-anchor="start" x="221.25" y="-30.5" font-family="Helvetica,sans-Serif" font-size="10.00">Deluxe.DeluxeBrandCenter.</text>
<text text-anchor="start" x="221.25" y="-18.5" font-family="Helvetica,sans-Serif" font-size="10.00">AMM.Infrastructure.Mindfire.Program</text>
<text text-anchor="middle" x="301.88" y="-6.5" font-family="Helvetica,sans-Serif" font-size="10.00">ServiceMF.UndoProgramChanges</text>
</a>
</g>
</g>
<!-- Node1&#45;&gt;Node4 -->
<g id="edge5_Node000001_Node000004" class="edge">
<title>Node1&#45;&gt;Node4</title>
<g id="a_edge5_Node000001_Node000004"><a xlink:title=" ">
<path fill="none" stroke="#63b8ff" d="M166.19,-61.53C181.54,-57.02 197.78,-52.26 213.46,-47.65"/>
<polygon fill="#63b8ff" stroke="#63b8ff" points="214.15,-51.1 222.76,-44.92 212.18,-44.38 214.15,-51.1"/>
</a>
</g>
</g>
<!-- Node2&#45;&gt;Node2 -->
<g id="edge2_Node000002_Node000002" class="edge">
<title>Node2&#45;&gt;Node2</title>
<g id="a_edge2_Node000002_Node000002"><a xlink:title=" ">
<path fill="none" stroke="#63b8ff" d="M262.37,-186.21C259.13,-195.8 272.3,-204 301.88,-204 319.43,-204 331.21,-201.11 337.2,-196.75"/>
<polygon fill="#63b8ff" stroke="#63b8ff" points="340.39,-198.21 340.82,-187.62 333.88,-195.62 340.39,-198.21"/>
</a>
</g>
</g>
<!-- Node3&#45;&gt;Node3 -->
<g id="edge4_Node000003_Node000003" class="edge">
<title>Node3&#45;&gt;Node3</title>
<g id="a_edge4_Node000003_Node000003"><a xlink:title=" ">
<path fill="none" stroke="#63b8ff" d="M262.37,-106.21C259.13,-115.8 272.3,-124 301.88,-124 319.43,-124 331.21,-121.11 337.2,-116.75"/>
<polygon fill="#63b8ff" stroke="#63b8ff" points="340.39,-118.21 340.82,-107.62 333.88,-115.62 340.39,-118.21"/>
</a>
</g>
</g>
</g>
</svg>
</svg>

<style type='text/css'>
<![CDATA[
[data-mouse-over-selected='false'] { opacity: 0.7; }
[data-mouse-over-selected='true']  { opacity: 1.0; }
]]>
</style>
<script type="application/ecmascript"><![CDATA[
document.addEventListener('DOMContentLoaded', (event) => {
  highlightEdges();
  highlightAdjacentNodes();
});
]]></script>
</svg>
