<?xml version="1.0" encoding="UTF-8" standalone="no"?>
<!DOCTYPE svg PUBLIC "-//W3C//DTD SVG 1.1//EN"
 "http://www.w3.org/Graphics/SVG/1.1/DTD/svg11.dtd">
<!-- Generated by graphviz version 12.1.1 (20240910.0053)
 -->
<!-- Title: Deluxe.DeluxeBrandCenter.AMM.Domain.Utility.FilterConfiguration Pages: 1 -->
<svg width="438pt" height="424pt"
 viewBox="0.00 0.00 437.50 424.00" xmlns="http://www.w3.org/2000/svg" xmlns:xlink="http://www.w3.org/1999/xlink">
<g id="graph0" class="graph" transform="scale(1 1) rotate(0) translate(4 420)">
<title>Deluxe.DeluxeBrandCenter.AMM.Domain.Utility.FilterConfiguration</title>
<!-- Node1 -->
<g id="Node000001" class="node">
<title>Node1</title>
<g id="a_Node000001"><a xlink:title=" ">
<polygon fill="#999999" stroke="#666666" points="186.25,-224 0,-224 0,-192 186.25,-192 186.25,-224"/>
<text text-anchor="start" x="8" y="-210.5" font-family="Helvetica,sans-Serif" font-size="10.00">Deluxe.DeluxeBrandCenter.</text>
<text text-anchor="middle" x="93.12" y="-198.5" font-family="Helvetica,sans-Serif" font-size="10.00">AMM.Domain.Utility.FilterConfiguration</text>
</a>
</g>
</g>
<!-- Node2 -->
<g id="Node000002" class="node">
<title>Node2</title>
<g id="a_Node000002"><a xlink:href="../../db/d31/class_deluxe_1_1_deluxe_brand_center_1_1_a_m_m_1_1_domain_1_1_view_model_1_1_campaign_builder_1_1_campaign_get_v_m.html" target="_top" xlink:title=" ">
<polygon fill="white" stroke="#666666" points="429.5,-416 222.25,-416 222.25,-372 429.5,-372 429.5,-416"/>
<text text-anchor="start" x="230.25" y="-402.5" font-family="Helvetica,sans-Serif" font-size="10.00">Deluxe.DeluxeBrandCenter.</text>
<text text-anchor="start" x="230.25" y="-390.5" font-family="Helvetica,sans-Serif" font-size="10.00">AMM.Domain.ViewModel.CampaignBuilder.</text>
<text text-anchor="middle" x="325.88" y="-378.5" font-family="Helvetica,sans-Serif" font-size="10.00">CampaignGetVM</text>
</a>
</g>
</g>
<!-- Node1&#45;&gt;Node2 -->
<g id="edge1_Node000001_Node000002" class="edge">
<title>Node1&#45;&gt;Node2</title>
<g id="a_edge1_Node000001_Node000002"><a xlink:title=" ">
<path fill="none" stroke="#63b8ff" d="M108.92,-234.09C129.8,-268.61 171.13,-329.02 222.25,-363 226.98,-366.14 232.03,-368.98 237.28,-371.53"/>
<polygon fill="#63b8ff" stroke="#63b8ff" points="111.98,-232.4 103.88,-225.58 105.96,-235.96 111.98,-232.4"/>
</a>
</g>
</g>
<!-- Node3 -->
<g id="Node000003" class="node">
<title>Node3</title>
<g id="a_Node000003"><a xlink:href="../../dc/db0/class_deluxe_1_1_deluxe_brand_center_1_1_a_m_m_1_1_domain_1_1_view_model_1_1_contact_manager_1_1_associated_groups_filter_v_m.html" target="_top" xlink:title=" ">
<polygon fill="white" stroke="#666666" points="428.38,-354 223.38,-354 223.38,-310 428.38,-310 428.38,-354"/>
<text text-anchor="start" x="231.38" y="-340.5" font-family="Helvetica,sans-Serif" font-size="10.00">Deluxe.DeluxeBrandCenter.</text>
<text text-anchor="start" x="231.38" y="-328.5" font-family="Helvetica,sans-Serif" font-size="10.00">AMM.Domain.ViewModel.ContactManager.</text>
<text text-anchor="middle" x="325.88" y="-316.5" font-family="Helvetica,sans-Serif" font-size="10.00">AssociatedGroupsFilterVM</text>
</a>
</g>
</g>
<!-- Node1&#45;&gt;Node3 -->
<g id="edge2_Node000001_Node000003" class="edge">
<title>Node1&#45;&gt;Node3</title>
<g id="a_edge2_Node000001_Node000003"><a xlink:title=" ">
<path fill="none" stroke="#63b8ff" d="M120.84,-231.53C145.63,-252.32 184.31,-282.18 222.25,-301 228.5,-304.1 235.12,-306.96 241.87,-309.58"/>
<polygon fill="#63b8ff" stroke="#63b8ff" points="123.4,-229.12 113.52,-225.3 118.87,-234.45 123.4,-229.12"/>
</a>
</g>
</g>
<!-- Node4 -->
<g id="Node000004" class="node">
<title>Node4</title>
<g id="a_Node000004"><a xlink:href="../../d5/dee/class_deluxe_1_1_deluxe_brand_center_1_1_a_m_m_1_1_domain_1_1_view_model_1_1_contact_manager_1_1_contact_activities_v_m.html" target="_top" xlink:title=" ">
<polygon fill="white" stroke="#666666" points="428.38,-292 223.38,-292 223.38,-248 428.38,-248 428.38,-292"/>
<text text-anchor="start" x="231.38" y="-278.5" font-family="Helvetica,sans-Serif" font-size="10.00">Deluxe.DeluxeBrandCenter.</text>
<text text-anchor="start" x="231.38" y="-266.5" font-family="Helvetica,sans-Serif" font-size="10.00">AMM.Domain.ViewModel.ContactManager.</text>
<text text-anchor="middle" x="325.88" y="-254.5" font-family="Helvetica,sans-Serif" font-size="10.00">ContactActivitiesVM</text>
</a>
</g>
</g>
<!-- Node1&#45;&gt;Node4 -->
<g id="edge3_Node000001_Node000004" class="edge">
<title>Node1&#45;&gt;Node4</title>
<g id="a_edge3_Node000001_Node000004"><a xlink:title=" ">
<path fill="none" stroke="#63b8ff" d="M166.4,-227.42C190.13,-233.79 216.7,-240.93 241.2,-247.52"/>
<polygon fill="#63b8ff" stroke="#63b8ff" points="167.38,-224.06 156.82,-224.84 165.57,-230.82 167.38,-224.06"/>
</a>
</g>
</g>
<!-- Node5 -->
<g id="Node000005" class="node">
<title>Node5</title>
<g id="a_Node000005"><a xlink:href="../../d8/dce/class_deluxe_1_1_deluxe_brand_center_1_1_a_m_m_1_1_domain_1_1_view_model_1_1_contact_manager_1_1_contact_filter_v_m.html" target="_top" xlink:title=" ">
<polygon fill="white" stroke="#666666" points="428.38,-230 223.38,-230 223.38,-186 428.38,-186 428.38,-230"/>
<text text-anchor="start" x="231.38" y="-216.5" font-family="Helvetica,sans-Serif" font-size="10.00">Deluxe.DeluxeBrandCenter.</text>
<text text-anchor="start" x="231.38" y="-204.5" font-family="Helvetica,sans-Serif" font-size="10.00">AMM.Domain.ViewModel.ContactManager.</text>
<text text-anchor="middle" x="325.88" y="-192.5" font-family="Helvetica,sans-Serif" font-size="10.00">ContactFilterVM</text>
</a>
</g>
</g>
<!-- Node1&#45;&gt;Node5 -->
<g id="edge4_Node000001_Node000005" class="edge">
<title>Node1&#45;&gt;Node5</title>
<g id="a_edge4_Node000001_Node000005"><a xlink:title=" ">
<path fill="none" stroke="#63b8ff" d="M198.02,-208C206.41,-208 214.87,-208 223.24,-208"/>
<polygon fill="#63b8ff" stroke="#63b8ff" points="198.16,-204.5 188.16,-208 198.16,-211.5 198.16,-204.5"/>
</a>
</g>
</g>
<!-- Node6 -->
<g id="Node000006" class="node">
<title>Node6</title>
<g id="a_Node000006"><a xlink:href="../../df/dbe/class_deluxe_1_1_deluxe_brand_center_1_1_a_m_m_1_1_domain_1_1_view_model_1_1_contact_manager_1_1_get_group_contacts.html" target="_top" xlink:title=" ">
<polygon fill="white" stroke="#666666" points="428.38,-168 223.38,-168 223.38,-124 428.38,-124 428.38,-168"/>
<text text-anchor="start" x="231.38" y="-154.5" font-family="Helvetica,sans-Serif" font-size="10.00">Deluxe.DeluxeBrandCenter.</text>
<text text-anchor="start" x="231.38" y="-142.5" font-family="Helvetica,sans-Serif" font-size="10.00">AMM.Domain.ViewModel.ContactManager.</text>
<text text-anchor="middle" x="325.88" y="-130.5" font-family="Helvetica,sans-Serif" font-size="10.00">GetGroupContacts</text>
</a>
</g>
</g>
<!-- Node1&#45;&gt;Node6 -->
<g id="edge5_Node000001_Node000006" class="edge">
<title>Node1&#45;&gt;Node6</title>
<g id="a_edge5_Node000001_Node000006"><a xlink:title=" ">
<path fill="none" stroke="#63b8ff" d="M166.4,-188.58C190.13,-182.21 216.7,-175.07 241.2,-168.48"/>
<polygon fill="#63b8ff" stroke="#63b8ff" points="165.57,-185.18 156.82,-191.16 167.38,-191.94 165.57,-185.18"/>
</a>
</g>
</g>
<!-- Node7 -->
<g id="Node000007" class="node">
<title>Node7</title>
<g id="a_Node000007"><a xlink:href="../../dc/d59/class_deluxe_1_1_deluxe_brand_center_1_1_a_m_m_1_1_domain_1_1_view_model_1_1_contact_manager_1_1_red_tail_tag_group_v_m.html" target="_top" xlink:title=" ">
<polygon fill="white" stroke="#666666" points="428.38,-106 223.38,-106 223.38,-62 428.38,-62 428.38,-106"/>
<text text-anchor="start" x="231.38" y="-92.5" font-family="Helvetica,sans-Serif" font-size="10.00">Deluxe.DeluxeBrandCenter.</text>
<text text-anchor="start" x="231.38" y="-80.5" font-family="Helvetica,sans-Serif" font-size="10.00">AMM.Domain.ViewModel.ContactManager.</text>
<text text-anchor="middle" x="325.88" y="-68.5" font-family="Helvetica,sans-Serif" font-size="10.00">RedTailTagGroupVM</text>
</a>
</g>
</g>
<!-- Node1&#45;&gt;Node7 -->
<g id="edge6_Node000001_Node000007" class="edge">
<title>Node1&#45;&gt;Node7</title>
<g id="a_edge6_Node000001_Node000007"><a xlink:title=" ">
<path fill="none" stroke="#63b8ff" d="M120.84,-184.47C145.63,-163.68 184.31,-133.82 222.25,-115 228.5,-111.9 235.12,-109.04 241.87,-106.42"/>
<polygon fill="#63b8ff" stroke="#63b8ff" points="118.87,-181.55 113.52,-190.7 123.4,-186.88 118.87,-181.55"/>
</a>
</g>
</g>
<!-- Node8 -->
<g id="Node000008" class="node">
<title>Node8</title>
<g id="a_Node000008"><a xlink:href="../../d5/db1/class_deluxe_1_1_deluxe_brand_center_1_1_a_m_m_1_1_domain_1_1_view_model_1_1_sales_force_get_contact_input.html" target="_top" xlink:title=" ">
<polygon fill="white" stroke="#666666" points="415.62,-44 236.12,-44 236.12,0 415.62,0 415.62,-44"/>
<text text-anchor="start" x="244.12" y="-30.5" font-family="Helvetica,sans-Serif" font-size="10.00">Deluxe.DeluxeBrandCenter.</text>
<text text-anchor="start" x="244.12" y="-18.5" font-family="Helvetica,sans-Serif" font-size="10.00">AMM.Domain.ViewModel.SalesForce</text>
<text text-anchor="middle" x="325.88" y="-6.5" font-family="Helvetica,sans-Serif" font-size="10.00">GetContactInput</text>
</a>
</g>
</g>
<!-- Node1&#45;&gt;Node8 -->
<g id="edge7_Node000001_Node000008" class="edge">
<title>Node1&#45;&gt;Node8</title>
<g id="a_edge7_Node000001_Node000008"><a xlink:title=" ">
<path fill="none" stroke="#63b8ff" d="M108.92,-181.91C129.8,-147.39 171.13,-86.98 222.25,-53 226.98,-49.86 232.03,-47.02 237.28,-44.47"/>
<polygon fill="#63b8ff" stroke="#63b8ff" points="105.96,-180.04 103.88,-190.42 111.98,-183.6 105.96,-180.04"/>
</a>
</g>
</g>
</g>
</svg>
