<?xml version="1.0" encoding="UTF-8" standalone="no"?>
<!DOCTYPE svg PUBLIC "-//W3C//DTD SVG 1.1//EN"
 "http://www.w3.org/Graphics/SVG/1.1/DTD/svg11.dtd">
<!-- Generated by graphviz version 12.1.1 (20240910.0053)
 -->
<!-- Title: Deluxe.DeluxeBrandCenter.AMM.Infrastructure.AWS.S3.IAmazonS3Service.UploadHtml Pages: 1 -->
<svg width="860pt" height="176pt"
 viewBox="0.00 0.00 859.50 176.00" xmlns="http://www.w3.org/2000/svg" xmlns:xlink="http://www.w3.org/1999/xlink">
<g id="graph0" class="graph" transform="scale(1 1) rotate(0) translate(4 172)">
<title>Deluxe.DeluxeBrandCenter.AMM.Infrastructure.AWS.S3.IAmazonS3Service.UploadHtml</title>
<!-- Node1 -->
<g id="Node000001" class="node">
<title>Node1</title>
<g id="a_Node000001"><a xlink:title=" ">
<polygon fill="#999999" stroke="#666666" points="851.5,-106 669,-106 669,-62 851.5,-62 851.5,-106"/>
<text text-anchor="start" x="677" y="-92.5" font-family="Helvetica,sans-Serif" font-size="10.00">Deluxe.DeluxeBrandCenter.</text>
<text text-anchor="start" x="677" y="-80.5" font-family="Helvetica,sans-Serif" font-size="10.00">AMM.Infrastructure.AWS.S3.IAmazon</text>
<text text-anchor="middle" x="760.25" y="-68.5" font-family="Helvetica,sans-Serif" font-size="10.00">S3Service.UploadHtml</text>
</a>
</g>
</g>
<!-- Node2 -->
<g id="Node000002" class="node">
<title>Node2</title>
<g id="a_Node000002"><a xlink:href="../../d8/d0b/class_deluxe_1_1_deluxe_brand_center_1_1_a_m_m_1_1_a_p_i_1_1_services_1_1_user_campaign_service.html#aded739d67eedc332d45dbba0d8a95f0a" target="_top" xlink:title=" ">
<polygon fill="white" stroke="#666666" points="633,-168 428.75,-168 428.75,-124 633,-124 633,-168"/>
<text text-anchor="start" x="436.75" y="-154.5" font-family="Helvetica,sans-Serif" font-size="10.00">Deluxe.DeluxeBrandCenter.</text>
<text text-anchor="start" x="436.75" y="-142.5" font-family="Helvetica,sans-Serif" font-size="10.00">AMM.API.Services.UserCampaignService.</text>
<text text-anchor="middle" x="530.88" y="-130.5" font-family="Helvetica,sans-Serif" font-size="10.00">CampaignDetails</text>
</a>
</g>
</g>
<!-- Node1&#45;&gt;Node2 -->
<g id="edge1_Node000001_Node000002" class="edge">
<title>Node1&#45;&gt;Node2</title>
<g id="a_edge1_Node000001_Node000002"><a xlink:title=" ">
<path fill="none" stroke="#63b8ff" d="M665.76,-109.49C648.72,-114.14 631.07,-118.95 614.38,-123.5"/>
<polygon fill="#63b8ff" stroke="#63b8ff" points="666.65,-112.88 675.38,-106.87 664.81,-106.12 666.65,-112.88"/>
</a>
</g>
</g>
<!-- Node3 -->
<g id="Node000003" class="node">
<title>Node3</title>
<g id="a_Node000003"><a xlink:href="../../d6/d65/class_deluxe_1_1_deluxe_brand_center_1_1_a_m_m_1_1_a_p_i_1_1_services_1_1_campaign_builder_service.html#a38066e3d8c523305fc157d5169d0abd1" target="_top" xlink:title=" ">
<polygon fill="white" stroke="#666666" points="619.5,-106 442.25,-106 442.25,-62 619.5,-62 619.5,-106"/>
<text text-anchor="start" x="450.25" y="-92.5" font-family="Helvetica,sans-Serif" font-size="10.00">Deluxe.DeluxeBrandCenter.</text>
<text text-anchor="start" x="450.25" y="-80.5" font-family="Helvetica,sans-Serif" font-size="10.00">AMM.API.Services.CampaignBuilder</text>
<text text-anchor="middle" x="530.88" y="-68.5" font-family="Helvetica,sans-Serif" font-size="10.00">Service.UpdateContentUrls</text>
</a>
</g>
</g>
<!-- Node1&#45;&gt;Node3 -->
<g id="edge2_Node000001_Node000003" class="edge">
<title>Node1&#45;&gt;Node3</title>
<g id="a_edge2_Node000001_Node000003"><a xlink:title=" ">
<path fill="none" stroke="#63b8ff" d="M657.32,-84C644.82,-84 632.13,-84 619.86,-84"/>
<polygon fill="#63b8ff" stroke="#63b8ff" points="657.22,-87.5 667.22,-84 657.22,-80.5 657.22,-87.5"/>
</a>
</g>
</g>
<!-- Node5 -->
<g id="Node000005" class="node">
<title>Node5</title>
<g id="a_Node000005"><a xlink:href="../../d6/d65/class_deluxe_1_1_deluxe_brand_center_1_1_a_m_m_1_1_a_p_i_1_1_services_1_1_campaign_builder_service.html#af75af05b6bf79bd7819022b164a6c684" target="_top" xlink:title=" ">
<polygon fill="white" stroke="#666666" points="619.5,-44 442.25,-44 442.25,0 619.5,0 619.5,-44"/>
<text text-anchor="start" x="450.25" y="-30.5" font-family="Helvetica,sans-Serif" font-size="10.00">Deluxe.DeluxeBrandCenter.</text>
<text text-anchor="start" x="450.25" y="-18.5" font-family="Helvetica,sans-Serif" font-size="10.00">AMM.API.Services.CampaignBuilder</text>
<text text-anchor="middle" x="530.88" y="-6.5" font-family="Helvetica,sans-Serif" font-size="10.00">Service.UploadHtmlContent</text>
</a>
</g>
</g>
<!-- Node1&#45;&gt;Node5 -->
<g id="edge4_Node000001_Node000005" class="edge">
<title>Node1&#45;&gt;Node5</title>
<g id="a_edge4_Node000001_Node000005"><a xlink:title=" ">
<path fill="none" stroke="#63b8ff" d="M665.76,-58.51C648.72,-53.86 631.07,-49.05 614.38,-44.5"/>
<polygon fill="#63b8ff" stroke="#63b8ff" points="664.81,-61.88 675.38,-61.13 666.65,-55.12 664.81,-61.88"/>
</a>
</g>
</g>
<!-- Node4 -->
<g id="Node000004" class="node">
<title>Node4</title>
<g id="a_Node000004"><a xlink:href="../../d6/d65/class_deluxe_1_1_deluxe_brand_center_1_1_a_m_m_1_1_a_p_i_1_1_services_1_1_campaign_builder_service.html#a04a2bdc2d02130bbd00f6b00406563d4" target="_top" xlink:title=" ">
<polygon fill="white" stroke="#666666" points="392.75,-106 213.25,-106 213.25,-62 392.75,-62 392.75,-106"/>
<text text-anchor="start" x="221.25" y="-92.5" font-family="Helvetica,sans-Serif" font-size="10.00">Deluxe.DeluxeBrandCenter.</text>
<text text-anchor="start" x="221.25" y="-80.5" font-family="Helvetica,sans-Serif" font-size="10.00">AMM.API.Services.CampaignBuilder</text>
<text text-anchor="middle" x="303" y="-68.5" font-family="Helvetica,sans-Serif" font-size="10.00">Service.UpdateNameAndContentUrls</text>
</a>
</g>
</g>
<!-- Node3&#45;&gt;Node4 -->
<g id="edge3_Node000003_Node000004" class="edge">
<title>Node3&#45;&gt;Node4</title>
<g id="a_edge3_Node000003_Node000004"><a xlink:title=" ">
<path fill="none" stroke="#63b8ff" d="M430.57,-84C418.14,-84 405.49,-84 393.22,-84"/>
<polygon fill="#63b8ff" stroke="#63b8ff" points="430.39,-87.5 440.39,-84 430.39,-80.5 430.39,-87.5"/>
</a>
</g>
</g>
<!-- Node6 -->
<g id="Node000006" class="node">
<title>Node6</title>
<g id="a_Node000006"><a xlink:href="../../d6/d65/class_deluxe_1_1_deluxe_brand_center_1_1_a_m_m_1_1_a_p_i_1_1_services_1_1_campaign_builder_service.html#a494f644e3b419bf8652100d7ece78f2e" target="_top" xlink:title=" ">
<polygon fill="white" stroke="#666666" points="391.62,-44 214.38,-44 214.38,0 391.62,0 391.62,-44"/>
<text text-anchor="start" x="222.38" y="-30.5" font-family="Helvetica,sans-Serif" font-size="10.00">Deluxe.DeluxeBrandCenter.</text>
<text text-anchor="start" x="222.38" y="-18.5" font-family="Helvetica,sans-Serif" font-size="10.00">AMM.API.Services.CampaignBuilder</text>
<text text-anchor="middle" x="303" y="-6.5" font-family="Helvetica,sans-Serif" font-size="10.00">Service.UpdateUserCampaign</text>
</a>
</g>
</g>
<!-- Node5&#45;&gt;Node6 -->
<g id="edge5_Node000005_Node000006" class="edge">
<title>Node5&#45;&gt;Node6</title>
<g id="a_edge5_Node000005_Node000006"><a xlink:title=" ">
<path fill="none" stroke="#63b8ff" d="M430.69,-22C417.84,-22 404.76,-22 392.11,-22"/>
<polygon fill="#63b8ff" stroke="#63b8ff" points="430.39,-25.5 440.39,-22 430.39,-18.5 430.39,-25.5"/>
</a>
</g>
</g>
<!-- Node7 -->
<g id="Node000007" class="node">
<title>Node7</title>
<g id="a_Node000007"><a xlink:href="../../d6/d65/class_deluxe_1_1_deluxe_brand_center_1_1_a_m_m_1_1_a_p_i_1_1_services_1_1_campaign_builder_service.html#ab467537fb4f9a8ae0c85d2f0bc74e2e9" target="_top" xlink:title=" ">
<polygon fill="white" stroke="#666666" points="177.25,-44 0,-44 0,0 177.25,0 177.25,-44"/>
<text text-anchor="start" x="8" y="-30.5" font-family="Helvetica,sans-Serif" font-size="10.00">Deluxe.DeluxeBrandCenter.</text>
<text text-anchor="start" x="8" y="-18.5" font-family="Helvetica,sans-Serif" font-size="10.00">AMM.API.Services.CampaignBuilder</text>
<text text-anchor="middle" x="88.62" y="-6.5" font-family="Helvetica,sans-Serif" font-size="10.00">Service.SaveCampaign</text>
</a>
</g>
</g>
<!-- Node6&#45;&gt;Node7 -->
<g id="edge6_Node000006_Node000007" class="edge">
<title>Node6&#45;&gt;Node7</title>
<g id="a_edge6_Node000006_Node000007"><a xlink:title=" ">
<path fill="none" stroke="#63b8ff" d="M202.67,-22C194.26,-22 185.79,-22 177.47,-22"/>
<polygon fill="#63b8ff" stroke="#63b8ff" points="202.57,-25.5 212.57,-22 202.57,-18.5 202.57,-25.5"/>
</a>
</g>
</g>
</g>
</svg>
