<?xml version="1.0" encoding="UTF-8" standalone="no"?>
<!DOCTYPE svg PUBLIC "-//W3C//DTD SVG 1.1//EN"
 "http://www.w3.org/Graphics/SVG/1.1/DTD/svg11.dtd">
<!-- Generated by graphviz version 12.1.1 (20240910.0053)
 -->
<!-- Title: Deluxe.DeluxeBrandCenter.AMM.Infrastructure.AWS.S3.IAmazonS3Service.DownloadString Pages: 1 -->
<!--zoomable 428 -->

<svg id="main" version="1.1" xmlns="http://www.w3.org/2000/svg" xmlns:xlink="http://www.w3.org/1999/xlink" xml:space="preserve" onload="init(evt)">

<style type="text/css"><![CDATA[
.node, .edge {opacity: 0.7;}
.node.selected, .edge.selected {opacity: 1;}
.edge:hover path { stroke: red; }
.edge:hover polygon { stroke: red; fill: red; }
]]></style>

<defs>
  <circle id="rim" cx="0" cy="0" r="7"/>
  <circle id="rim2" cx="0" cy="0" r="3.5"/>
  <g id="zoomPlus">
    <use xlink:href="#rim" fill="#404040"><set attributeName="fill" to="#808080" begin="zoomplus.mouseover" end="zoomplus.mouseout"/></use>
    <path d="M-4,0h8M0,-4v8" fill="none" stroke="white" stroke-width="1.5" pointer-events="none"/>
  </g>
  <g id="zoomMin">
    <use xlink:href="#rim" fill="#404040"><set attributeName="fill" to="#808080" begin="zoomminus.mouseover" end="zoomminus.mouseout"/></use>
    <path d="M-4,0h8" fill="none" stroke="white" stroke-width="1.5" pointer-events="none"/>
  </g>
  <g id="arrowUp" transform="translate(30 24)">
    <use xlink:href="#rim"/>
    <path pointer-events="none" fill="none" stroke="white" stroke-width="1.5" d="M0,-3.0v7 M-2.5,-0.5L0,-3.0L2.5,-0.5"/>
  </g>
  <g id="arrowRight" transform="rotate(90) translate(36 -43)">
    <use xlink:href="#rim"/>
    <path pointer-events="none" fill="none" stroke="white" stroke-width="1.5" d="M0,-3.0v7 M-2.5,-0.5L0,-3.0L2.5,-0.5"/>
  </g>
  <g id="arrowDown" transform="rotate(180) translate(-30 -48)">
    <use xlink:href="#rim"/>
    <path pointer-events="none" fill="none" stroke="white" stroke-width="1.5" d="M0,-3.0v7 M-2.5,-0.5L0,-3.0L2.5,-0.5"/>
  </g>
  <g id="arrowLeft" transform="rotate(270) translate(-36 17)">
    <use xlink:href="#rim"/>
    <path pointer-events="none" fill="none" stroke="white" stroke-width="1.5" d="M0,-3.0v7 M-2.5,-0.5L0,-3.0L2.5,-0.5"/>
  </g>
  <g id="resetDef">
    <use xlink:href="#rim2" fill="#404040"><set attributeName="fill" to="#808080" begin="reset.mouseover" end="reset.mouseout"/></use>
  </g>
</defs>
<script type="application/ecmascript">
var viewWidth = 1316;
var viewHeight = 428;
var sectionId = 'dynsection-5';
</script>
<script type="application/ecmascript" xlink:href="../../svg.min.js"/>
<svg id="graph" class="graph">
<g id="viewport">
<title>Deluxe.DeluxeBrandCenter.AMM.Infrastructure.AWS.S3.IAmazonS3Service.DownloadString</title>
<!-- Node1 -->
<g id="Node000001" class="node">
<title>Node1</title>
<g id="a_Node000001"><a xlink:title=" ">
<polygon fill="#999999" stroke="#666666" points="1308,-283 1125.5,-283 1125.5,-239 1308,-239 1308,-283"/>
<text text-anchor="start" x="1133.5" y="-269.5" font-family="Helvetica,sans-Serif" font-size="10.00">Deluxe.DeluxeBrandCenter.</text>
<text text-anchor="start" x="1133.5" y="-257.5" font-family="Helvetica,sans-Serif" font-size="10.00">AMM.Infrastructure.AWS.S3.IAmazon</text>
<text text-anchor="middle" x="1216.75" y="-245.5" font-family="Helvetica,sans-Serif" font-size="10.00">S3Service.DownloadString</text>
</a>
</g>
</g>
<!-- Node2 -->
<g id="Node000002" class="node">
<title>Node2</title>
<g id="a_Node000002"><a xlink:href="../../d8/d0b/class_deluxe_1_1_deluxe_brand_center_1_1_a_m_m_1_1_a_p_i_1_1_services_1_1_user_campaign_service.html#aded739d67eedc332d45dbba0d8a95f0a" target="_top" xlink:title=" ">
<polygon fill="white" stroke="#666666" points="1089.5,-420 885.25,-420 885.25,-376 1089.5,-376 1089.5,-420"/>
<text text-anchor="start" x="893.25" y="-406.5" font-family="Helvetica,sans-Serif" font-size="10.00">Deluxe.DeluxeBrandCenter.</text>
<text text-anchor="start" x="893.25" y="-394.5" font-family="Helvetica,sans-Serif" font-size="10.00">AMM.API.Services.UserCampaignService.</text>
<text text-anchor="middle" x="987.38" y="-382.5" font-family="Helvetica,sans-Serif" font-size="10.00">CampaignDetails</text>
</a>
</g>
</g>
<!-- Node1&#45;&gt;Node2 -->
<g id="edge1_Node000001_Node000002" class="edge">
<title>Node1&#45;&gt;Node2</title>
<g id="a_edge1_Node000001_Node000002"><a xlink:title=" ">
<path fill="none" stroke="#63b8ff" d="M1186.97,-291.07C1162.9,-314.68 1126.61,-346.82 1089.5,-367 1083.77,-370.11 1077.69,-372.96 1071.46,-375.55"/>
<polygon fill="#63b8ff" stroke="#63b8ff" points="1189.28,-293.72 1193.89,-284.18 1184.33,-288.76 1189.28,-293.72"/>
</a>
</g>
</g>
<!-- Node3 -->
<g id="Node000003" class="node">
<title>Node3</title>
<g id="a_Node000003"><a xlink:href="../../d6/d65/class_deluxe_1_1_deluxe_brand_center_1_1_a_m_m_1_1_a_p_i_1_1_services_1_1_campaign_builder_service.html#af750674ed0f54f17fe4e2987ff7c0a63" target="_top" xlink:title=" ">
<polygon fill="white" stroke="#666666" points="1076,-358 898.75,-358 898.75,-314 1076,-314 1076,-358"/>
<text text-anchor="start" x="906.75" y="-344.5" font-family="Helvetica,sans-Serif" font-size="10.00">Deluxe.DeluxeBrandCenter.</text>
<text text-anchor="start" x="906.75" y="-332.5" font-family="Helvetica,sans-Serif" font-size="10.00">AMM.API.Services.CampaignBuilder</text>
<text text-anchor="middle" x="987.38" y="-320.5" font-family="Helvetica,sans-Serif" font-size="10.00">Service.MapSocialElementToXML</text>
</a>
</g>
</g>
<!-- Node1&#45;&gt;Node3 -->
<g id="edge2_Node000001_Node000003" class="edge">
<title>Node1&#45;&gt;Node3</title>
<g id="a_edge2_Node000001_Node000003"><a xlink:title=" ">
<path fill="none" stroke="#63b8ff" d="M1137.14,-286.93C1110.83,-295.61 1081.75,-305.2 1056.33,-313.59"/>
<polygon fill="#63b8ff" stroke="#63b8ff" points="1138,-290.33 1146.4,-283.88 1135.81,-283.68 1138,-290.33"/>
</a>
</g>
</g>
<!-- Node8 -->
<g id="Node000008" class="node">
<title>Node8</title>
<g id="a_Node000008"><a xlink:href="../../d6/d65/class_deluxe_1_1_deluxe_brand_center_1_1_a_m_m_1_1_a_p_i_1_1_services_1_1_campaign_builder_service.html#af629a897fd36af8802d6d7406ffcc7eb" target="_top" xlink:title=" ">
<polygon fill="white" stroke="#666666" points="847,-330 669.75,-330 669.75,-286 847,-286 847,-330"/>
<text text-anchor="start" x="677.75" y="-316.5" font-family="Helvetica,sans-Serif" font-size="10.00">Deluxe.DeluxeBrandCenter.</text>
<text text-anchor="start" x="677.75" y="-304.5" font-family="Helvetica,sans-Serif" font-size="10.00">AMM.API.Services.CampaignBuilder</text>
<text text-anchor="middle" x="758.38" y="-292.5" font-family="Helvetica,sans-Serif" font-size="10.00">Service.MapXMLToEmailElement</text>
</a>
</g>
</g>
<!-- Node1&#45;&gt;Node8 -->
<g id="edge8_Node000001_Node000008" class="edge">
<title>Node1&#45;&gt;Node8</title>
<g id="a_edge8_Node000001_Node000008"><a xlink:title=" ">
<path fill="none" stroke="#63b8ff" d="M1113.95,-271.48C1033.86,-279.73 923.44,-291.1 847.2,-298.96"/>
<polygon fill="#63b8ff" stroke="#63b8ff" points="1113.94,-275 1123.53,-270.5 1113.23,-268.04 1113.94,-275"/>
</a>
</g>
</g>
<!-- Node12 -->
<g id="Node000012" class="node">
<title>Node12</title>
<g id="a_Node000012"><a xlink:href="../../d3/d85/class_deluxe_1_1_deluxe_brand_center_1_1_a_m_m_1_1_infrastructure_1_1_spark_post_1_1_spark_post_service.html#af3325f0f6f6a4311864b4adc489bbe56" target="_top" xlink:title=" ">
<polygon fill="white" stroke="#666666" points="1076,-187 898.75,-187 898.75,-143 1076,-143 1076,-187"/>
<text text-anchor="start" x="906.75" y="-173.5" font-family="Helvetica,sans-Serif" font-size="10.00">Deluxe.DeluxeBrandCenter.</text>
<text text-anchor="start" x="906.75" y="-161.5" font-family="Helvetica,sans-Serif" font-size="10.00">AMM.Infrastructure.SparkPost.Spark</text>
<text text-anchor="middle" x="987.38" y="-149.5" font-family="Helvetica,sans-Serif" font-size="10.00">PostService.SendEmail</text>
</a>
</g>
</g>
<!-- Node1&#45;&gt;Node12 -->
<g id="edge12_Node000001_Node000012" class="edge">
<title>Node1&#45;&gt;Node12</title>
<g id="a_edge12_Node000001_Node000012"><a xlink:title=" ">
<path fill="none" stroke="#63b8ff" d="M1156.12,-233.95C1135.14,-224.59 1111.35,-214.16 1089.5,-205 1075.57,-199.16 1060.47,-193.06 1046.3,-187.44"/>
<polygon fill="#63b8ff" stroke="#63b8ff" points="1154.55,-237.08 1165.1,-237.97 1157.41,-230.69 1154.55,-237.08"/>
</a>
</g>
</g>
<!-- Node14 -->
<g id="Node000014" class="node">
<title>Node14</title>
<g id="a_Node000014"><a xlink:href="../../d6/d65/class_deluxe_1_1_deluxe_brand_center_1_1_a_m_m_1_1_a_p_i_1_1_services_1_1_campaign_builder_service.html#aa547f128337d386d430cdb3079f2d4c3" target="_top" xlink:title=" ">
<polygon fill="white" stroke="#666666" points="1076,-258 898.75,-258 898.75,-214 1076,-214 1076,-258"/>
<text text-anchor="start" x="906.75" y="-244.5" font-family="Helvetica,sans-Serif" font-size="10.00">Deluxe.DeluxeBrandCenter.</text>
<text text-anchor="start" x="906.75" y="-232.5" font-family="Helvetica,sans-Serif" font-size="10.00">AMM.API.Services.CampaignBuilder</text>
<text text-anchor="middle" x="987.38" y="-220.5" font-family="Helvetica,sans-Serif" font-size="10.00">Service.SetMessageBody</text>
</a>
</g>
</g>
<!-- Node1&#45;&gt;Node14 -->
<g id="edge14_Node000001_Node000014" class="edge">
<title>Node1&#45;&gt;Node14</title>
<g id="a_edge14_Node000001_Node000014"><a xlink:title=" ">
<path fill="none" stroke="#63b8ff" d="M1113.82,-249.79C1101.32,-248.42 1088.63,-247.02 1076.36,-245.67"/>
<polygon fill="#63b8ff" stroke="#63b8ff" points="1113.4,-253.27 1123.73,-250.88 1114.17,-246.31 1113.4,-253.27"/>
</a>
</g>
</g>
<!-- Node18 -->
<g id="Node000018" class="node">
<title>Node18</title>
<g id="a_Node000018"><a xlink:href="../../d4/d06/class_deluxe_1_1_deluxe_brand_center_1_1_a_m_m_1_1_a_p_i_1_1_services_1_1_contact_manager_service.html#aa1fe050e4d5227a691150b9849f7b1a3" target="_top" xlink:title=" ">
<polygon fill="white" stroke="#666666" points="1074.88,-106 899.88,-106 899.88,-62 1074.88,-62 1074.88,-106"/>
<text text-anchor="start" x="907.88" y="-92.5" font-family="Helvetica,sans-Serif" font-size="10.00">Deluxe.DeluxeBrandCenter.</text>
<text text-anchor="start" x="907.88" y="-80.5" font-family="Helvetica,sans-Serif" font-size="10.00">AMM.API.Services.ContactManager</text>
<text text-anchor="middle" x="987.38" y="-68.5" font-family="Helvetica,sans-Serif" font-size="10.00">Service.UploadContacts</text>
</a>
</g>
</g>
<!-- Node1&#45;&gt;Node18 -->
<g id="edge22_Node000001_Node000018" class="edge">
<title>Node1&#45;&gt;Node18</title>
<g id="a_edge22_Node000001_Node000018"><a xlink:title=" ">
<path fill="none" stroke="#63b8ff" d="M1190.24,-230.06C1166.3,-202.4 1128.44,-162.02 1089.5,-134 1074.95,-123.53 1057.89,-114.16 1041.96,-106.44"/>
<polygon fill="#63b8ff" stroke="#63b8ff" points="1187.37,-232.09 1196.53,-237.41 1192.69,-227.54 1187.37,-232.09"/>
</a>
</g>
</g>
<!-- Node4 -->
<g id="Node000004" class="node">
<title>Node4</title>
<g id="a_Node000004"><a xlink:href="../../d6/d65/class_deluxe_1_1_deluxe_brand_center_1_1_a_m_m_1_1_a_p_i_1_1_services_1_1_campaign_builder_service.html#a9e215d58437e7593cd45bea7ec806076" target="_top" xlink:title=" ">
<polygon fill="white" stroke="#666666" points="849.25,-392 667.5,-392 667.5,-348 849.25,-348 849.25,-392"/>
<text text-anchor="start" x="675.5" y="-378.5" font-family="Helvetica,sans-Serif" font-size="10.00">Deluxe.DeluxeBrandCenter.</text>
<text text-anchor="start" x="675.5" y="-366.5" font-family="Helvetica,sans-Serif" font-size="10.00">AMM.API.Services.CampaignBuilder</text>
<text text-anchor="middle" x="758.38" y="-354.5" font-family="Helvetica,sans-Serif" font-size="10.00">Service.MapCampaignElementToXML</text>
</a>
</g>
</g>
<!-- Node3&#45;&gt;Node4 -->
<g id="edge3_Node000003_Node000004" class="edge">
<title>Node3&#45;&gt;Node4</title>
<g id="a_edge3_Node000003_Node000004"><a xlink:title=" ">
<path fill="none" stroke="#63b8ff" d="M886.97,-350.89C874.56,-352.75 861.92,-354.64 849.66,-356.48"/>
<polygon fill="#63b8ff" stroke="#63b8ff" points="887.42,-354.36 896.79,-349.42 886.38,-347.44 887.42,-354.36"/>
</a>
</g>
</g>
<!-- Node5 -->
<g id="Node000005" class="node">
<title>Node5</title>
<g id="a_Node000005"><a xlink:href="../../d6/d65/class_deluxe_1_1_deluxe_brand_center_1_1_a_m_m_1_1_a_p_i_1_1_services_1_1_campaign_builder_service.html#a6703c8b60de403fb70c7b691d4d7c2a9" target="_top" xlink:title=" ">
<polygon fill="white" stroke="#666666" points="630.38,-392 453.12,-392 453.12,-348 630.38,-348 630.38,-392"/>
<text text-anchor="start" x="461.12" y="-378.5" font-family="Helvetica,sans-Serif" font-size="10.00">Deluxe.DeluxeBrandCenter.</text>
<text text-anchor="start" x="461.12" y="-366.5" font-family="Helvetica,sans-Serif" font-size="10.00">AMM.API.Services.CampaignBuilder</text>
<text text-anchor="middle" x="541.75" y="-354.5" font-family="Helvetica,sans-Serif" font-size="10.00">Service.MapUserCampaignToXML</text>
</a>
</g>
</g>
<!-- Node4&#45;&gt;Node5 -->
<g id="edge4_Node000004_Node000005" class="edge">
<title>Node4&#45;&gt;Node5</title>
<g id="a_edge4_Node000004_Node000005"><a xlink:title=" ">
<path fill="none" stroke="#63b8ff" d="M655.82,-370C647.37,-370 638.88,-370 630.55,-370"/>
<polygon fill="#63b8ff" stroke="#63b8ff" points="655.77,-373.5 665.77,-370 655.77,-366.5 655.77,-373.5"/>
</a>
</g>
</g>
<!-- Node6 -->
<g id="Node000006" class="node">
<title>Node6</title>
<g id="a_Node000006"><a xlink:href="../../d6/d65/class_deluxe_1_1_deluxe_brand_center_1_1_a_m_m_1_1_a_p_i_1_1_services_1_1_campaign_builder_service.html#ab302b4e7e24055c5859436dea04b8f65" target="_top" xlink:title=" ">
<polygon fill="white" stroke="#666666" points="416,-367 213.25,-367 213.25,-323 416,-323 416,-367"/>
<text text-anchor="start" x="221.25" y="-353.5" font-family="Helvetica,sans-Serif" font-size="10.00">Deluxe.DeluxeBrandCenter.</text>
<text text-anchor="start" x="221.25" y="-341.5" font-family="Helvetica,sans-Serif" font-size="10.00">AMM.API.Services.CampaignBuilder</text>
<text text-anchor="middle" x="314.62" y="-329.5" font-family="Helvetica,sans-Serif" font-size="10.00">Service.LaunchAlreadyLaunchedCampaign</text>
</a>
</g>
</g>
<!-- Node5&#45;&gt;Node6 -->
<g id="edge5_Node000005_Node000006" class="edge">
<title>Node5&#45;&gt;Node6</title>
<g id="a_edge5_Node000005_Node000006"><a xlink:title=" ">
<path fill="none" stroke="#63b8ff" d="M441.43,-358.97C433.08,-358.04 424.63,-357.1 416.27,-356.18"/>
<polygon fill="#63b8ff" stroke="#63b8ff" points="440.91,-362.43 451.24,-360.06 441.69,-355.48 440.91,-362.43"/>
</a>
</g>
</g>
<!-- Node7 -->
<g id="Node000007" class="node">
<title>Node7</title>
<g id="a_Node000007"><a xlink:href="../../d6/d65/class_deluxe_1_1_deluxe_brand_center_1_1_a_m_m_1_1_a_p_i_1_1_services_1_1_campaign_builder_service.html#a947f982ab93bc77b7199c9aa69ae3628" target="_top" xlink:title=" ">
<polygon fill="white" stroke="#666666" points="177.25,-367 0,-367 0,-323 177.25,-323 177.25,-367"/>
<text text-anchor="start" x="8" y="-353.5" font-family="Helvetica,sans-Serif" font-size="10.00">Deluxe.DeluxeBrandCenter.</text>
<text text-anchor="start" x="8" y="-341.5" font-family="Helvetica,sans-Serif" font-size="10.00">AMM.API.Services.CampaignBuilder</text>
<text text-anchor="middle" x="88.62" y="-329.5" font-family="Helvetica,sans-Serif" font-size="10.00">Service.LaunchCampaign</text>
</a>
</g>
</g>
<!-- Node5&#45;&gt;Node7 -->
<g id="edge7_Node000005_Node000007" class="edge">
<title>Node5&#45;&gt;Node7</title>
<g id="a_edge7_Node000005_Node000007"><a xlink:title=" ">
<path fill="none" stroke="#63b8ff" d="M441.34,-379.07C376.22,-383.23 289.39,-385.4 213.25,-376 198.1,-374.13 182.13,-371.01 166.89,-367.46"/>
<polygon fill="#63b8ff" stroke="#63b8ff" points="441.57,-382.56 451.32,-378.4 441.11,-375.58 441.57,-382.56"/>
</a>
</g>
</g>
<!-- Node6&#45;&gt;Node7 -->
<g id="edge6_Node000006_Node000007" class="edge">
<title>Node6&#45;&gt;Node7</title>
<g id="a_edge6_Node000006_Node000007"><a xlink:title=" ">
<path fill="none" stroke="#63b8ff" d="M201.46,-345C193.45,-345 185.45,-345 177.61,-345"/>
<polygon fill="#63b8ff" stroke="#63b8ff" points="201.25,-348.5 211.25,-345 201.25,-341.5 201.25,-348.5"/>
</a>
</g>
</g>
<!-- Node9 -->
<g id="Node000009" class="node">
<title>Node9</title>
<g id="a_Node000009"><a xlink:href="../../d6/d65/class_deluxe_1_1_deluxe_brand_center_1_1_a_m_m_1_1_a_p_i_1_1_services_1_1_campaign_builder_service.html#ad283235567b856b4e70d91da2bbeca0e" target="_top" xlink:title=" ">
<polygon fill="white" stroke="#666666" points="631.5,-292 452,-292 452,-248 631.5,-248 631.5,-292"/>
<text text-anchor="start" x="460" y="-278.5" font-family="Helvetica,sans-Serif" font-size="10.00">Deluxe.DeluxeBrandCenter.</text>
<text text-anchor="start" x="460" y="-266.5" font-family="Helvetica,sans-Serif" font-size="10.00">AMM.API.Services.CampaignBuilder</text>
<text text-anchor="middle" x="541.75" y="-254.5" font-family="Helvetica,sans-Serif" font-size="10.00">Service.MapXMLtoCampaignElement</text>
</a>
</g>
</g>
<!-- Node8&#45;&gt;Node9 -->
<g id="edge9_Node000008_Node000009" class="edge">
<title>Node8&#45;&gt;Node9</title>
<g id="a_edge9_Node000008_Node000009"><a xlink:title=" ">
<path fill="none" stroke="#63b8ff" d="M658.35,-290.47C649.54,-288.91 640.64,-287.33 631.92,-285.79"/>
<polygon fill="#63b8ff" stroke="#63b8ff" points="657.51,-293.87 667.97,-292.17 658.73,-286.98 657.51,-293.87"/>
</a>
</g>
</g>
<!-- Node10 -->
<g id="Node000010" class="node">
<title>Node10</title>
<g id="a_Node000010"><a xlink:href="../../d6/d65/class_deluxe_1_1_deluxe_brand_center_1_1_a_m_m_1_1_a_p_i_1_1_services_1_1_campaign_builder_service.html#a57435ae2fe593aa7ce835a599a8cb799" target="_top" xlink:title=" ">
<polygon fill="white" stroke="#666666" points="403.25,-243 226,-243 226,-199 403.25,-199 403.25,-243"/>
<text text-anchor="start" x="234" y="-229.5" font-family="Helvetica,sans-Serif" font-size="10.00">Deluxe.DeluxeBrandCenter.</text>
<text text-anchor="start" x="234" y="-217.5" font-family="Helvetica,sans-Serif" font-size="10.00">AMM.API.Services.CampaignBuilder</text>
<text text-anchor="middle" x="314.62" y="-205.5" font-family="Helvetica,sans-Serif" font-size="10.00">Service.GetCampaign</text>
</a>
</g>
</g>
<!-- Node9&#45;&gt;Node10 -->
<g id="edge10_Node000009_Node000010" class="edge">
<title>Node9&#45;&gt;Node10</title>
<g id="a_edge10_Node000009_Node000010"><a xlink:title=" ">
<path fill="none" stroke="#63b8ff" d="M440.54,-248.19C428.22,-245.51 415.7,-242.78 403.59,-240.15"/>
<polygon fill="#63b8ff" stroke="#63b8ff" points="439.78,-251.61 450.3,-250.31 441.27,-244.77 439.78,-251.61"/>
</a>
</g>
</g>
<!-- Node11 -->
<g id="Node000011" class="node">
<title>Node11</title>
<g id="a_Node000011"><a xlink:href="../../d6/d65/class_deluxe_1_1_deluxe_brand_center_1_1_a_m_m_1_1_a_p_i_1_1_services_1_1_campaign_builder_service.html#a04a2bdc2d02130bbd00f6b00406563d4" target="_top" xlink:title=" ">
<polygon fill="white" stroke="#666666" points="404.38,-305 224.88,-305 224.88,-261 404.38,-261 404.38,-305"/>
<text text-anchor="start" x="232.88" y="-291.5" font-family="Helvetica,sans-Serif" font-size="10.00">Deluxe.DeluxeBrandCenter.</text>
<text text-anchor="start" x="232.88" y="-279.5" font-family="Helvetica,sans-Serif" font-size="10.00">AMM.API.Services.CampaignBuilder</text>
<text text-anchor="middle" x="314.62" y="-267.5" font-family="Helvetica,sans-Serif" font-size="10.00">Service.UpdateNameAndContentUrls</text>
</a>
</g>
</g>
<!-- Node9&#45;&gt;Node11 -->
<g id="edge11_Node000009_Node000011" class="edge">
<title>Node9&#45;&gt;Node11</title>
<g id="a_edge11_Node000009_Node000011"><a xlink:title=" ">
<path fill="none" stroke="#63b8ff" d="M440.43,-275.79C428.52,-276.48 416.43,-277.18 404.69,-277.86"/>
<polygon fill="#63b8ff" stroke="#63b8ff" points="440.48,-279.3 450.26,-275.23 440.08,-272.31 440.48,-279.3"/>
</a>
</g>
</g>
<!-- Node13 -->
<g id="Node000013" class="node">
<title>Node13</title>
<g id="a_Node000013"><a xlink:href="../../d3/d85/class_deluxe_1_1_deluxe_brand_center_1_1_a_m_m_1_1_infrastructure_1_1_spark_post_1_1_spark_post_service.html#a048528b56725e02272df40df5f9ee16d" target="_top" xlink:title=" ">
<polygon fill="white" stroke="#666666" points="847,-168 669.75,-168 669.75,-124 847,-124 847,-168"/>
<text text-anchor="start" x="677.75" y="-154.5" font-family="Helvetica,sans-Serif" font-size="10.00">Deluxe.DeluxeBrandCenter.</text>
<text text-anchor="start" x="677.75" y="-142.5" font-family="Helvetica,sans-Serif" font-size="10.00">AMM.Infrastructure.SparkPost.Spark</text>
<text text-anchor="middle" x="758.38" y="-130.5" font-family="Helvetica,sans-Serif" font-size="10.00">PostService.SendEmail</text>
</a>
</g>
</g>
<!-- Node12&#45;&gt;Node13 -->
<g id="edge13_Node000012_Node000013" class="edge">
<title>Node12&#45;&gt;Node13</title>
<g id="a_edge13_Node000012_Node000013"><a xlink:title=" ">
<path fill="none" stroke="#63b8ff" d="M886.83,-156.67C873.71,-155.57 860.33,-154.45 847.41,-153.37"/>
<polygon fill="#63b8ff" stroke="#63b8ff" points="886.52,-160.15 896.78,-157.5 887.1,-153.18 886.52,-160.15"/>
</a>
</g>
</g>
<!-- Node15 -->
<g id="Node000015" class="node">
<title>Node15</title>
<g id="a_Node000015"><a xlink:href="../../d6/d65/class_deluxe_1_1_deluxe_brand_center_1_1_a_m_m_1_1_a_p_i_1_1_services_1_1_campaign_builder_service.html#a7aebfa9e7d0d3f4331ac1194517913cb" target="_top" xlink:title=" ">
<polygon fill="white" stroke="#666666" points="847,-268 669.75,-268 669.75,-224 847,-224 847,-268"/>
<text text-anchor="start" x="677.75" y="-254.5" font-family="Helvetica,sans-Serif" font-size="10.00">Deluxe.DeluxeBrandCenter.</text>
<text text-anchor="start" x="677.75" y="-242.5" font-family="Helvetica,sans-Serif" font-size="10.00">AMM.API.Services.CampaignBuilder</text>
<text text-anchor="middle" x="758.38" y="-230.5" font-family="Helvetica,sans-Serif" font-size="10.00">Service.MapXMLToSocialElement</text>
</a>
</g>
</g>
<!-- Node14&#45;&gt;Node15 -->
<g id="edge15_Node000014_Node000015" class="edge">
<title>Node14&#45;&gt;Node15</title>
<g id="a_edge15_Node000014_Node000015"><a xlink:title=" ">
<path fill="none" stroke="#63b8ff" d="M886.83,-240.39C873.71,-240.96 860.33,-241.55 847.41,-242.12"/>
<polygon fill="#63b8ff" stroke="#63b8ff" points="886.94,-243.88 896.77,-239.95 886.63,-236.89 886.94,-243.88"/>
</a>
</g>
</g>
<!-- Node16 -->
<g id="Node000016" class="node">
<title>Node16</title>
<g id="a_Node000016"><a xlink:href="../../d6/d65/class_deluxe_1_1_deluxe_brand_center_1_1_a_m_m_1_1_a_p_i_1_1_services_1_1_campaign_builder_service.html#a5cf68d2a0e9c29659835e8bb5032992c" target="_top" xlink:title=" ">
<polygon fill="white" stroke="#666666" points="630.38,-218 453.12,-218 453.12,-174 630.38,-174 630.38,-218"/>
<text text-anchor="start" x="461.12" y="-204.5" font-family="Helvetica,sans-Serif" font-size="10.00">Deluxe.DeluxeBrandCenter.</text>
<text text-anchor="start" x="461.12" y="-192.5" font-family="Helvetica,sans-Serif" font-size="10.00">AMM.API.Services.CampaignBuilder</text>
<text text-anchor="middle" x="541.75" y="-180.5" font-family="Helvetica,sans-Serif" font-size="10.00">Service.SetUserCampaignVM</text>
</a>
</g>
</g>
<!-- Node14&#45;&gt;Node16 -->
<g id="edge17_Node000014_Node000016" class="edge">
<title>Node14&#45;&gt;Node16</title>
<g id="a_edge17_Node000014_Node000016"><a xlink:title=" ">
<path fill="none" stroke="#63b8ff" d="M887.23,-219.74C874.47,-217.96 861.57,-216.32 849.25,-215 775.83,-207.12 692.14,-202.2 630.79,-199.35"/>
<polygon fill="#63b8ff" stroke="#63b8ff" points="886.49,-223.17 896.88,-221.11 887.47,-216.24 886.49,-223.17"/>
</a>
</g>
</g>
<!-- Node15&#45;&gt;Node9 -->
<g id="edge16_Node000015_Node000009" class="edge">
<title>Node15&#45;&gt;Node9</title>
<g id="a_edge16_Node000015_Node000009"><a xlink:title=" ">
<path fill="none" stroke="#63b8ff" d="M658.06,-257.11C649.34,-258.08 640.55,-259.06 631.92,-260.03"/>
<polygon fill="#63b8ff" stroke="#63b8ff" points="658.41,-260.59 667.96,-256 657.63,-253.63 658.41,-260.59"/>
</a>
</g>
</g>
<!-- Node16&#45;&gt;Node7 -->
<g id="edge20_Node000016_Node000007" class="edge">
<title>Node16&#45;&gt;Node7</title>
<g id="a_edge20_Node000016_Node000007"><a xlink:title=" ">
<path fill="none" stroke="#63b8ff" d="M441.66,-171.72C373.99,-160.38 284.11,-155.88 213.25,-190 155.72,-217.7 116.65,-286.64 99.5,-322.51"/>
<polygon fill="#63b8ff" stroke="#63b8ff" points="440.8,-175.13 451.26,-173.41 442.02,-168.23 440.8,-175.13"/>
</a>
</g>
</g>
<!-- Node16&#45;&gt;Node10 -->
<g id="edge18_Node000016_Node000010" class="edge">
<title>Node16&#45;&gt;Node10</title>
<g id="a_edge18_Node000016_Node000010"><a xlink:title=" ">
<path fill="none" stroke="#63b8ff" d="M441.67,-207C428.98,-208.41 416.06,-209.85 403.57,-211.23"/>
<polygon fill="#63b8ff" stroke="#63b8ff" points="441.69,-210.52 451.24,-205.94 440.91,-203.57 441.69,-210.52"/>
</a>
</g>
</g>
<!-- Node16&#45;&gt;Node11 -->
<g id="edge21_Node000016_Node000011" class="edge">
<title>Node16&#45;&gt;Node11</title>
<g id="a_edge21_Node000016_Node000011"><a xlink:title=" ">
<path fill="none" stroke="#63b8ff" d="M484.1,-223.19C462.97,-232.87 438.61,-243.47 416,-252 408.24,-254.93 400.06,-257.8 391.87,-260.53"/>
<polygon fill="#63b8ff" stroke="#63b8ff" points="485.53,-226.39 493.14,-219.02 482.6,-220.03 485.53,-226.39"/>
</a>
</g>
</g>
<!-- Node17 -->
<g id="Node000017" class="node">
<title>Node17</title>
<g id="a_Node000017"><a xlink:href="../../d6/d65/class_deluxe_1_1_deluxe_brand_center_1_1_a_m_m_1_1_a_p_i_1_1_services_1_1_campaign_builder_service.html#a3479067e8c8a3a312a9e39890ebb9a9c" target="_top" xlink:title=" ">
<polygon fill="white" stroke="#666666" points="403.25,-143 226,-143 226,-99 403.25,-99 403.25,-143"/>
<text text-anchor="start" x="234" y="-129.5" font-family="Helvetica,sans-Serif" font-size="10.00">Deluxe.DeluxeBrandCenter.</text>
<text text-anchor="start" x="234" y="-117.5" font-family="Helvetica,sans-Serif" font-size="10.00">AMM.API.Services.CampaignBuilder</text>
<text text-anchor="middle" x="314.62" y="-105.5" font-family="Helvetica,sans-Serif" font-size="10.00">Service.GetListForProfile</text>
</a>
</g>
</g>
<!-- Node16&#45;&gt;Node17 -->
<g id="edge19_Node000016_Node000017" class="edge">
<title>Node16&#45;&gt;Node17</title>
<g id="a_edge19_Node000016_Node000017"><a xlink:title=" ">
<path fill="none" stroke="#63b8ff" d="M462.92,-170.07C436.87,-161.39 408.08,-151.8 382.91,-143.41"/>
<polygon fill="#63b8ff" stroke="#63b8ff" points="461.48,-173.28 472.07,-173.12 463.69,-166.64 461.48,-173.28"/>
</a>
</g>
</g>
<!-- Node19 -->
<g id="Node000019" class="node">
<title>Node19</title>
<g id="a_Node000019"><a xlink:href="../../d4/d06/class_deluxe_1_1_deluxe_brand_center_1_1_a_m_m_1_1_a_p_i_1_1_services_1_1_contact_manager_service.html#a7f6af03e51f7bb3b4b003c2296015349" target="_top" xlink:title=" ">
<polygon fill="white" stroke="#666666" points="845.88,-44 670.88,-44 670.88,0 845.88,0 845.88,-44"/>
<text text-anchor="start" x="678.88" y="-30.5" font-family="Helvetica,sans-Serif" font-size="10.00">Deluxe.DeluxeBrandCenter.</text>
<text text-anchor="start" x="678.88" y="-18.5" font-family="Helvetica,sans-Serif" font-size="10.00">AMM.API.Services.ContactManager</text>
<text text-anchor="middle" x="758.38" y="-6.5" font-family="Helvetica,sans-Serif" font-size="10.00">Service.UploadRedTailContacts</text>
</a>
</g>
</g>
<!-- Node18&#45;&gt;Node19 -->
<g id="edge23_Node000018_Node000019" class="edge">
<title>Node18&#45;&gt;Node19</title>
<g id="a_edge23_Node000018_Node000019"><a xlink:title=" ">
<path fill="none" stroke="#63b8ff" d="M893.04,-58.51C876.03,-53.86 858.41,-49.05 841.75,-44.5"/>
<polygon fill="#63b8ff" stroke="#63b8ff" points="892.07,-61.87 902.64,-61.13 893.92,-55.12 892.07,-61.87"/>
</a>
</g>
</g>
<!-- Node20 -->
<g id="Node000020" class="node">
<title>Node20</title>
<g id="a_Node000020"><a xlink:href="../../d4/d06/class_deluxe_1_1_deluxe_brand_center_1_1_a_m_m_1_1_a_p_i_1_1_services_1_1_contact_manager_service.html#a9fed8bce1aa679c38c8e729ee735ca5f" target="_top" xlink:title=" ">
<polygon fill="white" stroke="#666666" points="845.88,-106 670.88,-106 670.88,-62 845.88,-62 845.88,-106"/>
<text text-anchor="start" x="678.88" y="-92.5" font-family="Helvetica,sans-Serif" font-size="10.00">Deluxe.DeluxeBrandCenter.</text>
<text text-anchor="start" x="678.88" y="-80.5" font-family="Helvetica,sans-Serif" font-size="10.00">AMM.API.Services.ContactManager</text>
<text text-anchor="middle" x="758.38" y="-68.5" font-family="Helvetica,sans-Serif" font-size="10.00">Service.UploadSaleForceContacts</text>
</a>
</g>
</g>
<!-- Node18&#45;&gt;Node20 -->
<g id="edge24_Node000018_Node000020" class="edge">
<title>Node18&#45;&gt;Node20</title>
<g id="a_edge24_Node000018_Node000020"><a xlink:title=" ">
<path fill="none" stroke="#63b8ff" d="M888.39,-84C874.33,-84 859.94,-84 846.12,-84"/>
<polygon fill="#63b8ff" stroke="#63b8ff" points="888.07,-87.5 898.07,-84 888.07,-80.5 888.07,-87.5"/>
</a>
</g>
</g>
</g>
</svg>

<g id="navigator" transform="translate(0 0)" fill="#404254">
  <rect fill="#f2f5e9" fill-opacity="0.5" stroke="#606060" stroke-width=".5" x="0" y="0" width="60" height="60"/>
  <use id="zoomplus" xlink:href="#zoomPlus" x="17" y="9" onmousedown="handleZoom(evt,'in')"/>
  <use id="zoomminus" xlink:href="#zoomMin" x="42" y="9" onmousedown="handleZoom(evt,'out')"/>
  <use id="reset" xlink:href="#resetDef" x="30" y="36" onmousedown="handleReset()"/>
   <use id="arrowup" xlink:href="#arrowUp" x="0" y="0" onmousedown="handlePan(0,-1)"/>
  <use id="arrowright" xlink:href="#arrowRight" x="0" y="0" onmousedown="handlePan(1,0)"/>
  <use id="arrowdown" xlink:href="#arrowDown" x="0" y="0" onmousedown="handlePan(0,1)"/>
  <use id="arrowleft" xlink:href="#arrowLeft" x="0" y="0" onmousedown="handlePan(-1,0)"/>
</g>
<svg viewBox="0 0 15 15" width="100%" height="30px" preserveAspectRatio="xMaxYMin meet">
 <g id="arrow_out" transform="scale(0.3 0.3)">
  <a xlink:href="interface_deluxe_1_1_deluxe_brand_center_1_1_a_m_m_1_1_infrastructure_1_1_a_w_s_1_1_s3_1_1_i_amazon_s3_service_ad8b9fc7f361abef30885bd62c0cca386_icgraph_org.svg" target="_base">
   <rect id="button" ry="5" rx="5" y="6" x="6" height="38" width="38"
        fill="#f2f5e9" fill-opacity="0.5" stroke="#606060" stroke-width="1.0"/>
   <path id="arrow"
     d="M 11.500037,31.436501 C 11.940474,20.09759 22.043105,11.32322 32.158766,21.979434 L 37.068811,17.246167 C 37.068811,17.246167 37.088388,32 37.088388,32 L 22.160133,31.978069 C 22.160133,31.978069 26.997745,27.140456 26.997745,27.140456 C 18.528582,18.264221 13.291696,25.230495 11.500037,31.436501 z"
     style="fill:#404040;"/>
  </a>
 </g>
</svg>

<style type='text/css'>
<![CDATA[
[data-mouse-over-selected='false'] { opacity: 0.7; }
[data-mouse-over-selected='true']  { opacity: 1.0; }
]]>
</style>
<script type="application/ecmascript"><![CDATA[
document.addEventListener('DOMContentLoaded', (event) => {
  highlightEdges();
  highlightAdjacentNodes();
});
]]></script>
</svg>
