<?xml version="1.0" encoding="UTF-8" standalone="no"?>
<!DOCTYPE svg PUBLIC "-//W3C//DTD SVG 1.1//EN"
 "http://www.w3.org/Graphics/SVG/1.1/DTD/svg11.dtd">
<!-- Generated by graphviz version 12.1.1 (20240910.0053)
 -->
<!-- Title: Deluxe.DeluxeBrandCenter.AMM.API.Services.IRedShiftService.getCamapignElements Pages: 1 -->
<svg width="603pt" height="114pt"
 viewBox="0.00 0.00 602.75 114.00" xmlns="http://www.w3.org/2000/svg" xmlns:xlink="http://www.w3.org/1999/xlink">
<g id="graph0" class="graph" transform="scale(1 1) rotate(0) translate(4 110)">
<title>Deluxe.DeluxeBrandCenter.AMM.API.Services.IRedShiftService.getCamapignElements</title>
<!-- Node1 -->
<g id="Node000001" class="node">
<title>Node1</title>
<g id="a_Node000001"><a xlink:title=" ">
<polygon fill="#999999" stroke="#666666" points="594.75,-75 401,-75 401,-31 594.75,-31 594.75,-75"/>
<text text-anchor="start" x="409" y="-61.5" font-family="Helvetica,sans-Serif" font-size="10.00">Deluxe.DeluxeBrandCenter.</text>
<text text-anchor="start" x="409" y="-49.5" font-family="Helvetica,sans-Serif" font-size="10.00">AMM.API.Services.IRedShiftService.get</text>
<text text-anchor="middle" x="497.88" y="-37.5" font-family="Helvetica,sans-Serif" font-size="10.00">CamapignElements</text>
</a>
</g>
</g>
<!-- Node2 -->
<g id="Node000002" class="node">
<title>Node2</title>
<g id="a_Node000002"><a xlink:href="../../d3/d7d/class_deluxe_1_1_deluxe_brand_center_1_1_a_m_m_1_1_a_p_i_1_1_services_1_1_b_i_service.html#a80f3ec4dfdf2aef354dee336dcae14c8" target="_top" xlink:title=" ">
<polygon fill="white" stroke="#666666" points="365,-106 200.5,-106 200.5,-62 365,-62 365,-106"/>
<text text-anchor="start" x="208.5" y="-92.5" font-family="Helvetica,sans-Serif" font-size="10.00">Deluxe.DeluxeBrandCenter.</text>
<text text-anchor="start" x="208.5" y="-80.5" font-family="Helvetica,sans-Serif" font-size="10.00">AMM.API.Services.BIService.Get</text>
<text text-anchor="middle" x="282.75" y="-68.5" font-family="Helvetica,sans-Serif" font-size="10.00">CampaignElements</text>
</a>
</g>
</g>
<!-- Node1&#45;&gt;Node2 -->
<g id="edge1_Node000001_Node000002" class="edge">
<title>Node1&#45;&gt;Node2</title>
<g id="a_edge1_Node000001_Node000002"><a xlink:title=" ">
<path fill="none" stroke="#63b8ff" d="M389.23,-68.66C381.17,-69.83 373.12,-71 365.27,-72.14"/>
<polygon fill="#63b8ff" stroke="#63b8ff" points="389.71,-72.12 399.1,-67.22 388.7,-65.2 389.71,-72.12"/>
</a>
</g>
</g>
<!-- Node3 -->
<g id="Node000003" class="node">
<title>Node3</title>
<g id="a_Node000003"><a xlink:href="../../d3/d7d/class_deluxe_1_1_deluxe_brand_center_1_1_a_m_m_1_1_a_p_i_1_1_services_1_1_b_i_service.html#a27c49d051ba20f0221f1caf56d38b09d" target="_top" xlink:title=" ">
<polygon fill="white" stroke="#666666" points="365,-44 200.5,-44 200.5,0 365,0 365,-44"/>
<text text-anchor="start" x="208.5" y="-30.5" font-family="Helvetica,sans-Serif" font-size="10.00">Deluxe.DeluxeBrandCenter.</text>
<text text-anchor="start" x="208.5" y="-18.5" font-family="Helvetica,sans-Serif" font-size="10.00">AMM.API.Services.BIService.Get</text>
<text text-anchor="middle" x="282.75" y="-6.5" font-family="Helvetica,sans-Serif" font-size="10.00">CampaignsWithElements</text>
</a>
</g>
</g>
<!-- Node1&#45;&gt;Node3 -->
<g id="edge2_Node000001_Node000003" class="edge">
<title>Node1&#45;&gt;Node3</title>
<g id="a_edge2_Node000001_Node000003"><a xlink:title=" ">
<path fill="none" stroke="#63b8ff" d="M389.23,-37.34C381.17,-36.17 373.12,-35 365.27,-33.86"/>
<polygon fill="#63b8ff" stroke="#63b8ff" points="388.7,-40.8 399.1,-38.78 389.71,-33.88 388.7,-40.8"/>
</a>
</g>
</g>
<!-- Node4 -->
<g id="Node000004" class="node">
<title>Node4</title>
<g id="a_Node000004"><a xlink:href="../../d3/d7d/class_deluxe_1_1_deluxe_brand_center_1_1_a_m_m_1_1_a_p_i_1_1_services_1_1_b_i_service.html#a16746817aced3795d9ed8f95e89c36b3" target="_top" xlink:title=" ">
<polygon fill="white" stroke="#666666" points="164.5,-44 0,-44 0,0 164.5,0 164.5,-44"/>
<text text-anchor="start" x="8" y="-30.5" font-family="Helvetica,sans-Serif" font-size="10.00">Deluxe.DeluxeBrandCenter.</text>
<text text-anchor="start" x="8" y="-18.5" font-family="Helvetica,sans-Serif" font-size="10.00">AMM.API.Services.BIService.Get</text>
<text text-anchor="middle" x="82.25" y="-6.5" font-family="Helvetica,sans-Serif" font-size="10.00">CampaignsAndStats</text>
</a>
</g>
</g>
<!-- Node3&#45;&gt;Node4 -->
<g id="edge3_Node000003_Node000004" class="edge">
<title>Node3&#45;&gt;Node4</title>
<g id="a_edge3_Node000003_Node000004"><a xlink:title=" ">
<path fill="none" stroke="#63b8ff" d="M188.87,-22C180.85,-22 172.77,-22 164.85,-22"/>
<polygon fill="#63b8ff" stroke="#63b8ff" points="188.64,-25.5 198.64,-22 188.64,-18.5 188.64,-25.5"/>
</a>
</g>
</g>
</g>
</svg>
