<?xml version="1.0" encoding="UTF-8" standalone="no"?>
<!DOCTYPE svg PUBLIC "-//W3C//DTD SVG 1.1//EN"
 "http://www.w3.org/Graphics/SVG/1.1/DTD/svg11.dtd">
<!-- Generated by graphviz version 12.1.1 (20240910.0053)
 -->
<!-- Title: Deluxe.DeluxeBrandCenter.AMM.Domain.DataModel.SettingsGroup Pages: 1 -->
<svg width="256pt" height="264pt"
 viewBox="0.00 0.00 255.88 264.00" xmlns="http://www.w3.org/2000/svg" xmlns:xlink="http://www.w3.org/1999/xlink">

<svg id="main" version="1.1" xmlns="http://www.w3.org/2000/svg" xmlns:xlink="http://www.w3.org/1999/xlink" xml:space="preserve">

<style type="text/css"><![CDATA[
.node, .edge {opacity: 0.7;}
.node.selected, .edge.selected {opacity: 1;}
.edge:hover path { stroke: red; }
.edge:hover polygon { stroke: red; fill: red; }
]]></style>
<script type="application/ecmascript" xlink:href="../../svg.min.js"/>
<svg id="graph" class="graph">
<g id="graph0" class="graph" transform="scale(1 1) rotate(0) translate(4 260)">
<title>Deluxe.DeluxeBrandCenter.AMM.Domain.DataModel.SettingsGroup</title>
<!-- Node1 -->
<g id="Node000001" class="node">
<title>Node1</title>
<g id="a_Node000001"><a xlink:title=" ">
<polygon fill="#999999" stroke="#666666" points="247.88,-32 56.38,-32 56.38,0 247.88,0 247.88,-32"/>
<text text-anchor="start" x="64.38" y="-18.5" font-family="Helvetica,sans-Serif" font-size="10.00">Deluxe.DeluxeBrandCenter.</text>
<text text-anchor="middle" x="152.12" y="-6.5" font-family="Helvetica,sans-Serif" font-size="10.00">AMM.Domain.DataModel.SettingsGroup</text>
</a>
</g>
</g>
<!-- Node2 -->
<g id="Node000002" class="node">
<title>Node2</title>
<g id="a_Node000002"><a xlink:href="../../d4/d1a/class_deluxe_1_1_deluxe_brand_center_1_1_a_m_m_1_1_domain_1_1_data_model_1_1_base_entity_named.html" target="_top" xlink:title=" ">
<polygon fill="white" stroke="#666666" points="146.88,-88 51.38,-88 51.38,-68 146.88,-68 146.88,-88"/>
<text text-anchor="middle" x="99.12" y="-74.5" font-family="Helvetica,sans-Serif" font-size="10.00">BaseEntityNamed</text>
</a>
</g>
</g>
<!-- Node2&#45;&gt;Node1 -->
<g id="edge1_Node000001_Node000002" class="edge">
<title>Node2&#45;&gt;Node1</title>
<g id="a_edge1_Node000001_Node000002"><a xlink:title=" ">
<path fill="none" stroke="#63b8ff" d="M114.94,-59.1C122.52,-50.51 131.51,-40.34 138.75,-32.14"/>
<polygon fill="#63b8ff" stroke="#63b8ff" points="112.41,-56.68 108.41,-66.49 117.65,-61.31 112.41,-56.68"/>
</a>
</g>
</g>
<!-- Node3 -->
<g id="Node000003" class="node">
<title>Node3</title>
<g id="a_Node000003"><a xlink:href="../../d7/d1c/class_deluxe_1_1_deluxe_brand_center_1_1_a_m_m_1_1_domain_1_1_data_model_1_1_base_entity.html" target="_top" xlink:title=" ">
<polygon fill="white" stroke="#666666" points="86.12,-144 22.12,-144 22.12,-124 86.12,-124 86.12,-144"/>
<text text-anchor="middle" x="54.12" y="-130.5" font-family="Helvetica,sans-Serif" font-size="10.00">BaseEntity</text>
</a>
</g>
</g>
<!-- Node3&#45;&gt;Node2 -->
<g id="edge2_Node000002_Node000003" class="edge">
<title>Node3&#45;&gt;Node2</title>
<g id="a_edge2_Node000002_Node000003"><a xlink:title=" ">
<path fill="none" stroke="#63b8ff" d="M69.12,-115C76.58,-106.06 85.27,-95.62 91.38,-88.3"/>
<polygon fill="#63b8ff" stroke="#63b8ff" points="66.65,-112.51 62.93,-122.43 72.02,-116.99 66.65,-112.51"/>
</a>
</g>
</g>
<!-- Node4 -->
<g id="Node000004" class="node">
<title>Node4</title>
<g id="a_Node000004"><a xlink:href="../../d6/df6/class_deluxe_1_1_deluxe_brand_center_1_1_a_m_m_1_1_domain_1_1_data_model_1_1_modified_entity.html" target="_top" xlink:title=" ">
<polygon fill="white" stroke="#666666" points="78.25,-200 0,-200 0,-180 78.25,-180 78.25,-200"/>
<text text-anchor="middle" x="39.12" y="-186.5" font-family="Helvetica,sans-Serif" font-size="10.00">ModifiedEntity</text>
</a>
</g>
</g>
<!-- Node4&#45;&gt;Node3 -->
<g id="edge3_Node000003_Node000004" class="edge">
<title>Node4&#45;&gt;Node3</title>
<g id="a_edge3_Node000003_Node000004"><a xlink:title=" ">
<path fill="none" stroke="#63b8ff" d="M44.76,-168.71C47.09,-160.32 49.68,-151.01 51.54,-144.3"/>
<polygon fill="#63b8ff" stroke="#63b8ff" points="41.45,-167.56 42.14,-178.14 48.19,-169.44 41.45,-167.56"/>
</a>
</g>
</g>
<!-- Node5 -->
<g id="Node000005" class="node">
<title>Node5</title>
<g id="a_Node000005"><a xlink:href="../../d6/dad/interface_deluxe_1_1_deluxe_brand_center_1_1_a_m_m_1_1_domain_1_1_data_model_1_1_interface_1_1_i_modified.html" target="_top" xlink:title=" ">
<polygon fill="white" stroke="#666666" points="112,-256 56.25,-256 56.25,-236 112,-236 112,-256"/>
<text text-anchor="middle" x="84.12" y="-242.5" font-family="Helvetica,sans-Serif" font-size="10.00">IModified</text>
</a>
</g>
</g>
<!-- Node5&#45;&gt;Node4 -->
<g id="edge4_Node000004_Node000005" class="edge">
<title>Node5&#45;&gt;Node4</title>
<g id="a_edge4_Node000004_Node000005"><a xlink:title=" ">
<path fill="none" stroke="#63b8ff" d="M69.13,-227C61.67,-218.06 52.98,-207.62 46.87,-200.3"/>
<polygon fill="#63b8ff" stroke="#63b8ff" points="66.23,-228.99 75.32,-234.43 71.6,-224.51 66.23,-228.99"/>
</a>
</g>
</g>
<!-- Node6 -->
<g id="Node000006" class="node">
<title>Node6</title>
<g id="a_Node000006"><a xlink:href="../../d5/d26/interface_deluxe_1_1_deluxe_brand_center_1_1_a_m_m_1_1_domain_1_1_data_model_1_1_interface_1_1_i_base_entity.html" target="_top" xlink:title=" ">
<polygon fill="white" stroke="#666666" points="163.62,-200 96.62,-200 96.62,-180 163.62,-180 163.62,-200"/>
<text text-anchor="middle" x="130.12" y="-186.5" font-family="Helvetica,sans-Serif" font-size="10.00">IBaseEntity</text>
</a>
</g>
</g>
<!-- Node5&#45;&gt;Node6 -->
<g id="edge6_Node000006_Node000005" class="edge">
<title>Node5&#45;&gt;Node6</title>
<g id="a_edge6_Node000006_Node000005"><a xlink:title=" ">
<path fill="none" stroke="#63b8ff" d="M99.46,-227C107.08,-218.06 115.96,-207.62 122.2,-200.3"/>
<polygon fill="#63b8ff" stroke="#63b8ff" points="96.94,-224.56 93.12,-234.44 102.27,-229.1 96.94,-224.56"/>
</a>
</g>
</g>
<!-- Node6&#45;&gt;Node2 -->
<g id="edge9_Node000002_Node000006" class="edge">
<title>Node6&#45;&gt;Node2</title>
<g id="a_edge9_Node000002_Node000006"><a xlink:title=" ">
<path fill="none" stroke="#63b8ff" d="M124.39,-168.64C117.64,-144.72 106.74,-106.03 101.76,-88.35"/>
<polygon fill="#63b8ff" stroke="#63b8ff" points="120.99,-169.49 127.07,-178.16 127.73,-167.59 120.99,-169.49"/>
</a>
</g>
</g>
<!-- Node6&#45;&gt;Node3 -->
<g id="edge5_Node000003_Node000006" class="edge">
<title>Node6&#45;&gt;Node3</title>
<g id="a_edge5_Node000003_Node000006"><a xlink:title=" ">
<path fill="none" stroke="#63b8ff" d="M107.6,-173C94.55,-163.72 78.55,-152.35 67.47,-144.48"/>
<polygon fill="#63b8ff" stroke="#63b8ff" points="105.47,-175.78 115.65,-178.72 109.53,-170.07 105.47,-175.78"/>
</a>
</g>
</g>
<!-- Node7 -->
<g id="Node000007" class="node">
<title>Node7</title>
<g id="a_Node000007"><a xlink:href="../../d9/dec/interface_deluxe_1_1_deluxe_brand_center_1_1_a_m_m_1_1_domain_1_1_data_model_1_1_interface_1_1_i_base_entity_named.html" target="_top" xlink:title=" ">
<polygon fill="white" stroke="#666666" points="240.38,-144 141.88,-144 141.88,-124 240.38,-124 240.38,-144"/>
<text text-anchor="middle" x="191.12" y="-130.5" font-family="Helvetica,sans-Serif" font-size="10.00">IBaseEntityNamed</text>
</a>
</g>
</g>
<!-- Node6&#45;&gt;Node7 -->
<g id="edge8_Node000007_Node000006" class="edge">
<title>Node6&#45;&gt;Node7</title>
<g id="a_edge8_Node000007_Node000006"><a xlink:title=" ">
<path fill="none" stroke="#63b8ff" d="M149.19,-172.13C159.56,-162.94 172,-151.93 180.62,-144.3"/>
<polygon fill="#63b8ff" stroke="#63b8ff" points="147.05,-169.34 141.88,-178.59 151.69,-174.58 147.05,-169.34"/>
</a>
</g>
</g>
<!-- Node7&#45;&gt;Node2 -->
<g id="edge7_Node000002_Node000007" class="edge">
<title>Node7&#45;&gt;Node2</title>
<g id="a_edge7_Node000002_Node000007"><a xlink:title=" ">
<path fill="none" stroke="#63b8ff" d="M165.25,-117.81C149.2,-108.39 129.08,-96.58 115.28,-88.48"/>
<polygon fill="#63b8ff" stroke="#63b8ff" points="163.4,-120.78 173.79,-122.83 166.94,-114.75 163.4,-120.78"/>
</a>
</g>
</g>
<!-- Node8 -->
<g id="Node000008" class="node">
<title>Node8</title>
<g id="a_Node000008"><a xlink:href="../../d0/dfb/interface_deluxe_1_1_deluxe_brand_center_1_1_a_m_m_1_1_domain_1_1_data_model_1_1_interface_1_1_i_settings_group.html" target="_top" xlink:title=" ">
<polygon fill="white" stroke="#666666" points="245.75,-88 164.5,-88 164.5,-68 245.75,-68 245.75,-88"/>
<text text-anchor="middle" x="205.12" y="-74.5" font-family="Helvetica,sans-Serif" font-size="10.00">ISettingsGroup</text>
</a>
</g>
</g>
<!-- Node7&#45;&gt;Node8 -->
<g id="edge11_Node000008_Node000007" class="edge">
<title>Node7&#45;&gt;Node8</title>
<g id="a_edge11_Node000008_Node000007"><a xlink:title=" ">
<path fill="none" stroke="#63b8ff" d="M196.38,-112.71C198.56,-104.32 200.98,-95.01 202.71,-88.3"/>
<polygon fill="#63b8ff" stroke="#63b8ff" points="193.07,-111.57 193.94,-122.13 199.84,-113.33 193.07,-111.57"/>
</a>
</g>
</g>
<!-- Node8&#45;&gt;Node1 -->
<g id="edge10_Node000001_Node000008" class="edge">
<title>Node8&#45;&gt;Node1</title>
<g id="a_edge10_Node000001_Node000008"><a xlink:title=" ">
<path fill="none" stroke="#63b8ff" d="M189.31,-59.1C181.73,-50.51 172.74,-40.34 165.5,-32.14"/>
<polygon fill="#63b8ff" stroke="#63b8ff" points="186.6,-61.31 195.84,-66.49 191.84,-56.68 186.6,-61.31"/>
</a>
</g>
</g>
</g>
</svg>
</svg>

<style type='text/css'>
<![CDATA[
[data-mouse-over-selected='false'] { opacity: 0.7; }
[data-mouse-over-selected='true']  { opacity: 1.0; }
]]>
</style>
<script type="application/ecmascript"><![CDATA[
document.addEventListener('DOMContentLoaded', (event) => {
  highlightEdges();
  highlightAdjacentNodes();
});
]]></script>
</svg>
