<?xml version="1.0" encoding="UTF-8" standalone="no"?>
<!DOCTYPE svg PUBLIC "-//W3C//DTD SVG 1.1//EN"
 "http://www.w3.org/Graphics/SVG/1.1/DTD/svg11.dtd">
<!-- Generated by graphviz version 12.1.1 (20240910.0053)
 -->
<!-- Title: Deluxe.DeluxeBrandCenter.AMM.API.Services.BIService.getMFAccountIdFilter Pages: 1 -->
<svg width="605pt" height="548pt"
 viewBox="0.00 0.00 605.00 548.00" xmlns="http://www.w3.org/2000/svg" xmlns:xlink="http://www.w3.org/1999/xlink">
<g id="graph0" class="graph" transform="scale(1 1) rotate(0) translate(4 544)">
<title>Deluxe.DeluxeBrandCenter.AMM.API.Services.BIService.getMFAccountIdFilter</title>
<!-- Node1 -->
<g id="Node000001" class="node">
<title>Node1</title>
<g id="a_Node000001"><a xlink:title=" ">
<polygon fill="#999999" stroke="#666666" points="597,-292 434.75,-292 434.75,-248 597,-248 597,-292"/>
<text text-anchor="start" x="442.75" y="-278.5" font-family="Helvetica,sans-Serif" font-size="10.00">Deluxe.DeluxeBrandCenter.</text>
<text text-anchor="start" x="442.75" y="-266.5" font-family="Helvetica,sans-Serif" font-size="10.00">AMM.API.Services.BIService.get</text>
<text text-anchor="middle" x="515.88" y="-254.5" font-family="Helvetica,sans-Serif" font-size="10.00">MFAccountIdFilter</text>
</a>
</g>
</g>
<!-- Node2 -->
<g id="Node000002" class="node">
<title>Node2</title>
<g id="a_Node000002"><a xlink:href="../../d3/d7d/class_deluxe_1_1_deluxe_brand_center_1_1_a_m_m_1_1_a_p_i_1_1_services_1_1_b_i_service.html#ac438a2ff3b9291e54ec3525b570a5134" target="_top" xlink:title=" ">
<polygon fill="white" stroke="#666666" points="385.25,-540 214,-540 214,-496 385.25,-496 385.25,-540"/>
<text text-anchor="start" x="222" y="-526.5" font-family="Helvetica,sans-Serif" font-size="10.00">Deluxe.DeluxeBrandCenter.</text>
<text text-anchor="start" x="222" y="-514.5" font-family="Helvetica,sans-Serif" font-size="10.00">AMM.API.Services.BIService.get</text>
<text text-anchor="middle" x="299.62" y="-502.5" font-family="Helvetica,sans-Serif" font-size="10.00">ContactsClickedOutboundSchedule</text>
</a>
</g>
</g>
<!-- Node1&#45;&gt;Node2 -->
<g id="edge1_Node000001_Node000002" class="edge">
<title>Node1&#45;&gt;Node2</title>
<g id="a_edge1_Node000001_Node000002"><a xlink:title=" ">
<path fill="none" stroke="#63b8ff" d="M505.82,-303.28C491.18,-350.86 457.83,-437.97 398.75,-487 394.63,-490.42 390.12,-493.47 385.38,-496.18"/>
<polygon fill="#63b8ff" stroke="#63b8ff" points="509.14,-304.4 508.63,-293.82 502.43,-302.41 509.14,-304.4"/>
</a>
</g>
</g>
<!-- Node4 -->
<g id="Node000004" class="node">
<title>Node4</title>
<g id="a_Node000004"><a xlink:href="../../d3/d7d/class_deluxe_1_1_deluxe_brand_center_1_1_a_m_m_1_1_a_p_i_1_1_services_1_1_b_i_service.html#a40294412c5295e5bf66fcec65c0b8056" target="_top" xlink:title=" ">
<polygon fill="white" stroke="#666666" points="381.88,-478 217.38,-478 217.38,-434 381.88,-434 381.88,-478"/>
<text text-anchor="start" x="225.38" y="-464.5" font-family="Helvetica,sans-Serif" font-size="10.00">Deluxe.DeluxeBrandCenter.</text>
<text text-anchor="start" x="225.38" y="-452.5" font-family="Helvetica,sans-Serif" font-size="10.00">AMM.API.Services.BIService.get</text>
<text text-anchor="middle" x="299.62" y="-440.5" font-family="Helvetica,sans-Serif" font-size="10.00">ContactsFailedOutboundSchedule</text>
</a>
</g>
</g>
<!-- Node1&#45;&gt;Node4 -->
<g id="edge3_Node000001_Node000004" class="edge">
<title>Node1&#45;&gt;Node4</title>
<g id="a_edge3_Node000001_Node000004"><a xlink:title=" ">
<path fill="none" stroke="#63b8ff" d="M498.67,-302.25C479.44,-337.36 444.18,-392.78 398.75,-425 393.65,-428.62 388.11,-431.83 382.35,-434.67"/>
<polygon fill="#63b8ff" stroke="#63b8ff" points="501.54,-304.3 503.17,-293.83 495.37,-300.99 501.54,-304.3"/>
</a>
</g>
</g>
<!-- Node5 -->
<g id="Node000005" class="node">
<title>Node5</title>
<g id="a_Node000005"><a xlink:href="../../d3/d7d/class_deluxe_1_1_deluxe_brand_center_1_1_a_m_m_1_1_a_p_i_1_1_services_1_1_b_i_service.html#a24ae7f128dc1d8e9679c5923383b19aa" target="_top" xlink:title=" ">
<polygon fill="white" stroke="#666666" points="398.38,-416 200.88,-416 200.88,-372 398.38,-372 398.38,-416"/>
<text text-anchor="start" x="208.88" y="-402.5" font-family="Helvetica,sans-Serif" font-size="10.00">Deluxe.DeluxeBrandCenter.</text>
<text text-anchor="start" x="208.88" y="-390.5" font-family="Helvetica,sans-Serif" font-size="10.00">AMM.API.Services.BIService.get</text>
<text text-anchor="middle" x="299.62" y="-378.5" font-family="Helvetica,sans-Serif" font-size="10.00">ContactsHardBouncedOutboundSchedule</text>
</a>
</g>
</g>
<!-- Node1&#45;&gt;Node5 -->
<g id="edge5_Node000001_Node000005" class="edge">
<title>Node1&#45;&gt;Node5</title>
<g id="a_edge5_Node000001_Node000005"><a xlink:title=" ">
<path fill="none" stroke="#63b8ff" d="M483.93,-300.09C461.75,-320.27 430.33,-346.13 398.75,-363 392.92,-366.11 386.72,-368.98 380.39,-371.59"/>
<polygon fill="#63b8ff" stroke="#63b8ff" points="486.18,-302.78 491.14,-293.42 481.43,-297.64 486.18,-302.78"/>
</a>
</g>
</g>
<!-- Node6 -->
<g id="Node000006" class="node">
<title>Node6</title>
<g id="a_Node000006"><a xlink:href="../../d3/d7d/class_deluxe_1_1_deluxe_brand_center_1_1_a_m_m_1_1_a_p_i_1_1_services_1_1_b_i_service.html#a12ef235813913d045ab25e814da407e7" target="_top" xlink:title=" ">
<polygon fill="white" stroke="#666666" points="384.12,-354 215.12,-354 215.12,-310 384.12,-310 384.12,-354"/>
<text text-anchor="start" x="223.12" y="-340.5" font-family="Helvetica,sans-Serif" font-size="10.00">Deluxe.DeluxeBrandCenter.</text>
<text text-anchor="start" x="223.12" y="-328.5" font-family="Helvetica,sans-Serif" font-size="10.00">AMM.API.Services.BIService.get</text>
<text text-anchor="middle" x="299.62" y="-316.5" font-family="Helvetica,sans-Serif" font-size="10.00">ContactsSentToOutboundSchedule</text>
</a>
</g>
</g>
<!-- Node1&#45;&gt;Node6 -->
<g id="edge7_Node000001_Node000006" class="edge">
<title>Node1&#45;&gt;Node6</title>
<g id="a_edge7_Node000001_Node000006"><a xlink:title=" ">
<path fill="none" stroke="#63b8ff" d="M426.32,-295.63C410.41,-300.23 393.94,-305 378.37,-309.5"/>
<polygon fill="#63b8ff" stroke="#63b8ff" points="427.14,-299.03 435.77,-292.89 425.19,-292.31 427.14,-299.03"/>
</a>
</g>
</g>
<!-- Node7 -->
<g id="Node000007" class="node">
<title>Node7</title>
<g id="a_Node000007"><a xlink:href="../../d3/d7d/class_deluxe_1_1_deluxe_brand_center_1_1_a_m_m_1_1_a_p_i_1_1_services_1_1_b_i_service.html#a58e2ab35990c3cb2490c147a162bc0f5" target="_top" xlink:title=" ">
<polygon fill="white" stroke="#666666" points="396.88,-292 202.38,-292 202.38,-248 396.88,-248 396.88,-292"/>
<text text-anchor="start" x="210.38" y="-278.5" font-family="Helvetica,sans-Serif" font-size="10.00">Deluxe.DeluxeBrandCenter.</text>
<text text-anchor="start" x="210.38" y="-266.5" font-family="Helvetica,sans-Serif" font-size="10.00">AMM.API.Services.BIService.get</text>
<text text-anchor="middle" x="299.62" y="-254.5" font-family="Helvetica,sans-Serif" font-size="10.00">ContactsSoftBouncedOutboundSchedule</text>
</a>
</g>
</g>
<!-- Node1&#45;&gt;Node7 -->
<g id="edge9_Node000001_Node000007" class="edge">
<title>Node1&#45;&gt;Node7</title>
<g id="a_edge9_Node000001_Node000007"><a xlink:title=" ">
<path fill="none" stroke="#63b8ff" d="M423.01,-270C414.52,-270 405.9,-270 397.37,-270"/>
<polygon fill="#63b8ff" stroke="#63b8ff" points="422.97,-273.5 432.97,-270 422.97,-266.5 422.97,-273.5"/>
</a>
</g>
</g>
<!-- Node8 -->
<g id="Node000008" class="node">
<title>Node8</title>
<g id="a_Node000008"><a xlink:href="../../d3/d7d/class_deluxe_1_1_deluxe_brand_center_1_1_a_m_m_1_1_a_p_i_1_1_services_1_1_b_i_service.html#a92e62641b985e4a39ddbcef67fb4fa72" target="_top" xlink:title=" ">
<polygon fill="white" stroke="#666666" points="381.5,-230 217.75,-230 217.75,-186 381.5,-186 381.5,-230"/>
<text text-anchor="start" x="225.75" y="-216.5" font-family="Helvetica,sans-Serif" font-size="10.00">Deluxe.DeluxeBrandCenter.</text>
<text text-anchor="start" x="225.75" y="-204.5" font-family="Helvetica,sans-Serif" font-size="10.00">AMM.API.Services.BIService.get</text>
<text text-anchor="middle" x="299.62" y="-192.5" font-family="Helvetica,sans-Serif" font-size="10.00">ContactsSpamOutboundSchedule</text>
</a>
</g>
</g>
<!-- Node1&#45;&gt;Node8 -->
<g id="edge11_Node000001_Node000008" class="edge">
<title>Node1&#45;&gt;Node8</title>
<g id="a_edge11_Node000001_Node000008"><a xlink:title=" ">
<path fill="none" stroke="#63b8ff" d="M426.32,-244.37C410.41,-239.77 393.94,-235 378.37,-230.5"/>
<polygon fill="#63b8ff" stroke="#63b8ff" points="425.19,-247.69 435.77,-247.11 427.14,-240.97 425.19,-247.69"/>
</a>
</g>
</g>
<!-- Node9 -->
<g id="Node000009" class="node">
<title>Node9</title>
<g id="a_Node000009"><a xlink:href="../../d3/d7d/class_deluxe_1_1_deluxe_brand_center_1_1_a_m_m_1_1_a_p_i_1_1_services_1_1_b_i_service.html#ab8361802e83bfa08afaee412e957ec2a" target="_top" xlink:title=" ">
<polygon fill="white" stroke="#666666" points="394.62,-168 204.62,-168 204.62,-124 394.62,-124 394.62,-168"/>
<text text-anchor="start" x="212.62" y="-154.5" font-family="Helvetica,sans-Serif" font-size="10.00">Deluxe.DeluxeBrandCenter.</text>
<text text-anchor="start" x="212.62" y="-142.5" font-family="Helvetica,sans-Serif" font-size="10.00">AMM.API.Services.BIService.get</text>
<text text-anchor="middle" x="299.62" y="-130.5" font-family="Helvetica,sans-Serif" font-size="10.00">ContactsSuppressedOutboundSchedule</text>
</a>
</g>
</g>
<!-- Node1&#45;&gt;Node9 -->
<g id="edge13_Node000001_Node000009" class="edge">
<title>Node1&#45;&gt;Node9</title>
<g id="a_edge13_Node000001_Node000009"><a xlink:title=" ">
<path fill="none" stroke="#63b8ff" d="M483.93,-239.91C461.75,-219.73 430.33,-193.87 398.75,-177 392.92,-173.89 386.72,-171.02 380.39,-168.41"/>
<polygon fill="#63b8ff" stroke="#63b8ff" points="481.43,-242.36 491.14,-246.58 486.18,-237.22 481.43,-242.36"/>
</a>
</g>
</g>
<!-- Node10 -->
<g id="Node000010" class="node">
<title>Node10</title>
<g id="a_Node000010"><a xlink:href="../../d3/d7d/class_deluxe_1_1_deluxe_brand_center_1_1_a_m_m_1_1_a_p_i_1_1_services_1_1_b_i_service.html#ab647c728f6a0d4e637ebd96a2ec60810" target="_top" xlink:title=" ">
<polygon fill="white" stroke="#666666" points="395.38,-106 203.88,-106 203.88,-62 395.38,-62 395.38,-106"/>
<text text-anchor="start" x="211.88" y="-92.5" font-family="Helvetica,sans-Serif" font-size="10.00">Deluxe.DeluxeBrandCenter.</text>
<text text-anchor="start" x="211.88" y="-80.5" font-family="Helvetica,sans-Serif" font-size="10.00">AMM.API.Services.BIService.get</text>
<text text-anchor="middle" x="299.62" y="-68.5" font-family="Helvetica,sans-Serif" font-size="10.00">ContactsThatOpenedOutboundSchedule</text>
</a>
</g>
</g>
<!-- Node1&#45;&gt;Node10 -->
<g id="edge15_Node000001_Node000010" class="edge">
<title>Node1&#45;&gt;Node10</title>
<g id="a_edge15_Node000001_Node000010"><a xlink:title=" ">
<path fill="none" stroke="#63b8ff" d="M498.67,-237.75C479.44,-202.64 444.18,-147.22 398.75,-115 394.23,-111.8 389.37,-108.91 384.31,-106.32"/>
<polygon fill="#63b8ff" stroke="#63b8ff" points="495.37,-239.01 503.17,-246.17 501.54,-235.7 495.37,-239.01"/>
</a>
</g>
</g>
<!-- Node11 -->
<g id="Node000011" class="node">
<title>Node11</title>
<g id="a_Node000011"><a xlink:href="../../d3/d7d/class_deluxe_1_1_deluxe_brand_center_1_1_a_m_m_1_1_a_p_i_1_1_services_1_1_b_i_service.html#af3ae2eeefc59b71f73ea788938828cb3" target="_top" xlink:title=" ">
<polygon fill="white" stroke="#666666" points="398.75,-44 200.5,-44 200.5,0 398.75,0 398.75,-44"/>
<text text-anchor="start" x="208.5" y="-30.5" font-family="Helvetica,sans-Serif" font-size="10.00">Deluxe.DeluxeBrandCenter.</text>
<text text-anchor="start" x="208.5" y="-18.5" font-family="Helvetica,sans-Serif" font-size="10.00">AMM.API.Services.BIService.get</text>
<text text-anchor="middle" x="299.62" y="-6.5" font-family="Helvetica,sans-Serif" font-size="10.00">ContactsUnsubscribedOutboundSchedule</text>
</a>
</g>
</g>
<!-- Node1&#45;&gt;Node11 -->
<g id="edge17_Node000001_Node000011" class="edge">
<title>Node1&#45;&gt;Node11</title>
<g id="a_edge17_Node000001_Node000011"><a xlink:title=" ">
<path fill="none" stroke="#63b8ff" d="M505.82,-236.72C491.18,-189.14 457.83,-102.03 398.75,-53 394.9,-49.81 390.72,-46.94 386.33,-44.37"/>
<polygon fill="#63b8ff" stroke="#63b8ff" points="502.43,-237.59 508.63,-246.18 509.14,-235.6 502.43,-237.59"/>
</a>
</g>
</g>
<!-- Node3 -->
<g id="Node000003" class="node">
<title>Node3</title>
<g id="a_Node000003"><a xlink:href="../../d3/d7d/class_deluxe_1_1_deluxe_brand_center_1_1_a_m_m_1_1_a_p_i_1_1_services_1_1_b_i_service.html#acd7fff30cfe54558eacf9f451081e426" target="_top" xlink:title=" ">
<polygon fill="white" stroke="#666666" points="164.5,-292 0,-292 0,-248 164.5,-248 164.5,-292"/>
<text text-anchor="start" x="8" y="-278.5" font-family="Helvetica,sans-Serif" font-size="10.00">Deluxe.DeluxeBrandCenter.</text>
<text text-anchor="start" x="8" y="-266.5" font-family="Helvetica,sans-Serif" font-size="10.00">AMM.API.Services.BIService.Get</text>
<text text-anchor="middle" x="82.25" y="-254.5" font-family="Helvetica,sans-Serif" font-size="10.00">ContactActivityCSV</text>
</a>
</g>
</g>
<!-- Node2&#45;&gt;Node3 -->
<g id="edge2_Node000002_Node000003" class="edge">
<title>Node2&#45;&gt;Node3</title>
<g id="a_edge2_Node000002_Node000003"><a xlink:title=" ">
<path fill="none" stroke="#63b8ff" d="M204.48,-490.09C203.12,-489.1 201.79,-488.07 200.5,-487 136.3,-433.94 101.97,-336.24 89.18,-292.37"/>
<polygon fill="#63b8ff" stroke="#63b8ff" points="202.31,-492.86 212.61,-495.34 206.11,-486.98 202.31,-492.86"/>
</a>
</g>
</g>
<!-- Node4&#45;&gt;Node3 -->
<g id="edge4_Node000004_Node000003" class="edge">
<title>Node4&#45;&gt;Node3</title>
<g id="a_edge4_Node000004_Node000003"><a xlink:title=" ">
<path fill="none" stroke="#63b8ff" d="M206.93,-429.2C204.72,-427.86 202.58,-426.46 200.5,-425 150.33,-389.59 112.23,-326.19 94.4,-292.49"/>
<polygon fill="#63b8ff" stroke="#63b8ff" points="205.14,-432.21 215.59,-433.92 208.49,-426.06 205.14,-432.21"/>
</a>
</g>
</g>
<!-- Node5&#45;&gt;Node3 -->
<g id="edge6_Node000005_Node000003" class="edge">
<title>Node5&#45;&gt;Node3</title>
<g id="a_edge6_Node000005_Node000003"><a xlink:title=" ">
<path fill="none" stroke="#63b8ff" d="M208.35,-366.93C205.68,-365.67 203.05,-364.36 200.5,-363 164.48,-343.86 128.54,-313.22 106.13,-292.38"/>
<polygon fill="#63b8ff" stroke="#63b8ff" points="206.93,-370.12 217.49,-370.95 209.75,-363.72 206.93,-370.12"/>
</a>
</g>
</g>
<!-- Node6&#45;&gt;Node3 -->
<g id="edge8_Node000006_Node000003" class="edge">
<title>Node6&#45;&gt;Node3</title>
<g id="a_edge8_Node000006_Node000003"><a xlink:title=" ">
<path fill="none" stroke="#63b8ff" d="M209.6,-306.37C193.61,-301.77 177.06,-297 161.41,-292.5"/>
<polygon fill="#63b8ff" stroke="#63b8ff" points="208.53,-309.71 219.11,-309.11 210.47,-302.98 208.53,-309.71"/>
</a>
</g>
</g>
<!-- Node7&#45;&gt;Node3 -->
<g id="edge10_Node000007_Node000003" class="edge">
<title>Node7&#45;&gt;Node3</title>
<g id="a_edge10_Node000007_Node000003"><a xlink:title=" ">
<path fill="none" stroke="#63b8ff" d="M190.58,-270C181.91,-270 173.24,-270 164.8,-270"/>
<polygon fill="#63b8ff" stroke="#63b8ff" points="190.45,-273.5 200.45,-270 190.45,-266.5 190.45,-273.5"/>
</a>
</g>
</g>
<!-- Node8&#45;&gt;Node3 -->
<g id="edge12_Node000008_Node000003" class="edge">
<title>Node8&#45;&gt;Node3</title>
<g id="a_edge12_Node000008_Node000003"><a xlink:title=" ">
<path fill="none" stroke="#63b8ff" d="M209.6,-233.63C193.61,-238.23 177.06,-243 161.41,-247.5"/>
<polygon fill="#63b8ff" stroke="#63b8ff" points="210.47,-237.02 219.11,-230.89 208.53,-230.29 210.47,-237.02"/>
</a>
</g>
</g>
<!-- Node9&#45;&gt;Node3 -->
<g id="edge14_Node000009_Node000003" class="edge">
<title>Node9&#45;&gt;Node3</title>
<g id="a_edge14_Node000009_Node000003"><a xlink:title=" ">
<path fill="none" stroke="#63b8ff" d="M208.35,-173.07C205.68,-174.33 203.05,-175.64 200.5,-177 164.48,-196.14 128.54,-226.78 106.13,-247.62"/>
<polygon fill="#63b8ff" stroke="#63b8ff" points="209.75,-176.28 217.49,-169.05 206.93,-169.88 209.75,-176.28"/>
</a>
</g>
</g>
<!-- Node10&#45;&gt;Node3 -->
<g id="edge16_Node000010_Node000003" class="edge">
<title>Node10&#45;&gt;Node3</title>
<g id="a_edge16_Node000010_Node000003"><a xlink:title=" ">
<path fill="none" stroke="#63b8ff" d="M205.28,-111.82C203.65,-112.84 202.06,-113.9 200.5,-115 150.33,-150.41 112.23,-213.81 94.4,-247.51"/>
<polygon fill="#63b8ff" stroke="#63b8ff" points="206.66,-115.06 213.64,-107.09 203.21,-108.97 206.66,-115.06"/>
</a>
</g>
</g>
<!-- Node11&#45;&gt;Node3 -->
<g id="edge18_Node000011_Node000003" class="edge">
<title>Node11&#45;&gt;Node3</title>
<g id="a_edge18_Node000011_Node000003"><a xlink:title=" ">
<path fill="none" stroke="#63b8ff" d="M203.45,-50.67C202.45,-51.43 201.46,-52.2 200.5,-53 136.3,-106.06 101.97,-203.76 89.18,-247.63"/>
<polygon fill="#63b8ff" stroke="#63b8ff" points="205.27,-53.66 211.68,-45.22 201.41,-47.83 205.27,-53.66"/>
</a>
</g>
</g>
</g>
</svg>
