<?xml version="1.0" encoding="UTF-8" standalone="no"?>
<!DOCTYPE svg PUBLIC "-//W3C//DTD SVG 1.1//EN"
 "http://www.w3.org/Graphics/SVG/1.1/DTD/svg11.dtd">
<!-- Generated by graphviz version 12.1.1 (20240910.0053)
 -->
<!-- Title: Deluxe.DeluxeBrandCenter.AMM.API.Services.BIService.GetContactActivityCSV Pages: 1 -->
<!--zoomable 672 -->

<svg id="main" version="1.1" xmlns="http://www.w3.org/2000/svg" xmlns:xlink="http://www.w3.org/1999/xlink" xml:space="preserve" onload="init(evt)">

<style type="text/css"><![CDATA[
.node, .edge {opacity: 0.7;}
.node.selected, .edge.selected {opacity: 1;}
.edge:hover path { stroke: red; }
.edge:hover polygon { stroke: red; fill: red; }
]]></style>

<defs>
  <circle id="rim" cx="0" cy="0" r="7"/>
  <circle id="rim2" cx="0" cy="0" r="3.5"/>
  <g id="zoomPlus">
    <use xlink:href="#rim" fill="#404040"><set attributeName="fill" to="#808080" begin="zoomplus.mouseover" end="zoomplus.mouseout"/></use>
    <path d="M-4,0h8M0,-4v8" fill="none" stroke="white" stroke-width="1.5" pointer-events="none"/>
  </g>
  <g id="zoomMin">
    <use xlink:href="#rim" fill="#404040"><set attributeName="fill" to="#808080" begin="zoomminus.mouseover" end="zoomminus.mouseout"/></use>
    <path d="M-4,0h8" fill="none" stroke="white" stroke-width="1.5" pointer-events="none"/>
  </g>
  <g id="arrowUp" transform="translate(30 24)">
    <use xlink:href="#rim"/>
    <path pointer-events="none" fill="none" stroke="white" stroke-width="1.5" d="M0,-3.0v7 M-2.5,-0.5L0,-3.0L2.5,-0.5"/>
  </g>
  <g id="arrowRight" transform="rotate(90) translate(36 -43)">
    <use xlink:href="#rim"/>
    <path pointer-events="none" fill="none" stroke="white" stroke-width="1.5" d="M0,-3.0v7 M-2.5,-0.5L0,-3.0L2.5,-0.5"/>
  </g>
  <g id="arrowDown" transform="rotate(180) translate(-30 -48)">
    <use xlink:href="#rim"/>
    <path pointer-events="none" fill="none" stroke="white" stroke-width="1.5" d="M0,-3.0v7 M-2.5,-0.5L0,-3.0L2.5,-0.5"/>
  </g>
  <g id="arrowLeft" transform="rotate(270) translate(-36 17)">
    <use xlink:href="#rim"/>
    <path pointer-events="none" fill="none" stroke="white" stroke-width="1.5" d="M0,-3.0v7 M-2.5,-0.5L0,-3.0L2.5,-0.5"/>
  </g>
  <g id="resetDef">
    <use xlink:href="#rim2" fill="#404040"><set attributeName="fill" to="#808080" begin="reset.mouseover" end="reset.mouseout"/></use>
  </g>
</defs>
<script type="application/ecmascript">
var viewWidth = 664;
var viewHeight = 672;
var sectionId = 'dynsection-8';
</script>
<script type="application/ecmascript" xlink:href="../../svg.min.js"/>
<svg id="graph" class="graph">
<g id="viewport">
<title>Deluxe.DeluxeBrandCenter.AMM.API.Services.BIService.GetContactActivityCSV</title>
<!-- Node1 -->
<g id="Node000001" class="node">
<title>Node1</title>
<g id="a_Node000001"><a xlink:title=" ">
<polygon fill="#999999" stroke="#666666" points="164.5,-354 0,-354 0,-310 164.5,-310 164.5,-354"/>
<text text-anchor="start" x="8" y="-340.5" font-family="Helvetica,sans-Serif" font-size="10.00">Deluxe.DeluxeBrandCenter.</text>
<text text-anchor="start" x="8" y="-328.5" font-family="Helvetica,sans-Serif" font-size="10.00">AMM.API.Services.BIService.Get</text>
<text text-anchor="middle" x="82.25" y="-316.5" font-family="Helvetica,sans-Serif" font-size="10.00">ContactActivityCSV</text>
</a>
</g>
</g>
<!-- Node2 -->
<g id="Node000002" class="node">
<title>Node2</title>
<g id="a_Node000002"><a xlink:href="../../d3/d7d/class_deluxe_1_1_deluxe_brand_center_1_1_a_m_m_1_1_a_p_i_1_1_services_1_1_b_i_service.html#ac438a2ff3b9291e54ec3525b570a5134" target="_top" xlink:title=" ">
<polygon fill="white" stroke="#666666" points="385.25,-416 214,-416 214,-372 385.25,-372 385.25,-416"/>
<text text-anchor="start" x="222" y="-402.5" font-family="Helvetica,sans-Serif" font-size="10.00">Deluxe.DeluxeBrandCenter.</text>
<text text-anchor="start" x="222" y="-390.5" font-family="Helvetica,sans-Serif" font-size="10.00">AMM.API.Services.BIService.get</text>
<text text-anchor="middle" x="299.62" y="-378.5" font-family="Helvetica,sans-Serif" font-size="10.00">ContactsClickedOutboundSchedule</text>
</a>
</g>
</g>
<!-- Node1&#45;&gt;Node2 -->
<g id="edge1_Node000001_Node000002" class="edge">
<title>Node1&#45;&gt;Node2</title>
<g id="a_edge1_Node000001_Node000002"><a xlink:title=" ">
<path fill="none" stroke="#63b8ff" d="M161.31,-354.47C176.96,-358.98 193.51,-363.74 209.51,-368.35"/>
<polygon fill="#63b8ff" stroke="#63b8ff" points="208.44,-371.68 219.02,-371.08 210.37,-364.95 208.44,-371.68"/>
</a>
</g>
</g>
<!-- Node6 -->
<g id="Node000006" class="node">
<title>Node6</title>
<g id="a_Node000006"><a xlink:href="../../d3/d7d/class_deluxe_1_1_deluxe_brand_center_1_1_a_m_m_1_1_a_p_i_1_1_services_1_1_b_i_service.html#a40294412c5295e5bf66fcec65c0b8056" target="_top" xlink:title=" ">
<polygon fill="white" stroke="#666666" points="381.88,-478 217.38,-478 217.38,-434 381.88,-434 381.88,-478"/>
<text text-anchor="start" x="225.38" y="-464.5" font-family="Helvetica,sans-Serif" font-size="10.00">Deluxe.DeluxeBrandCenter.</text>
<text text-anchor="start" x="225.38" y="-452.5" font-family="Helvetica,sans-Serif" font-size="10.00">AMM.API.Services.BIService.get</text>
<text text-anchor="middle" x="299.62" y="-440.5" font-family="Helvetica,sans-Serif" font-size="10.00">ContactsFailedOutboundSchedule</text>
</a>
</g>
</g>
<!-- Node1&#45;&gt;Node6 -->
<g id="edge5_Node000001_Node000006" class="edge">
<title>Node1&#45;&gt;Node6</title>
<g id="a_edge5_Node000001_Node000006"><a xlink:title=" ">
<path fill="none" stroke="#63b8ff" d="M106.13,-354.38C128.54,-375.22 164.48,-405.86 200.5,-425 203.05,-426.36 205.68,-427.67 208.35,-428.93"/>
<polygon fill="#63b8ff" stroke="#63b8ff" points="206.93,-432.12 217.49,-432.95 209.75,-425.72 206.93,-432.12"/>
</a>
</g>
</g>
<!-- Node8 -->
<g id="Node000008" class="node">
<title>Node8</title>
<g id="a_Node000008"><a xlink:href="../../d3/d7d/class_deluxe_1_1_deluxe_brand_center_1_1_a_m_m_1_1_a_p_i_1_1_services_1_1_b_i_service.html#a24ae7f128dc1d8e9679c5923383b19aa" target="_top" xlink:title=" ">
<polygon fill="white" stroke="#666666" points="398.38,-602 200.88,-602 200.88,-558 398.38,-558 398.38,-602"/>
<text text-anchor="start" x="208.88" y="-588.5" font-family="Helvetica,sans-Serif" font-size="10.00">Deluxe.DeluxeBrandCenter.</text>
<text text-anchor="start" x="208.88" y="-576.5" font-family="Helvetica,sans-Serif" font-size="10.00">AMM.API.Services.BIService.get</text>
<text text-anchor="middle" x="299.62" y="-564.5" font-family="Helvetica,sans-Serif" font-size="10.00">ContactsHardBouncedOutboundSchedule</text>
</a>
</g>
</g>
<!-- Node1&#45;&gt;Node8 -->
<g id="edge9_Node000001_Node000008" class="edge">
<title>Node1&#45;&gt;Node8</title>
<g id="a_edge9_Node000001_Node000008"><a xlink:title=" ">
<path fill="none" stroke="#63b8ff" d="M89.18,-354.37C101.97,-398.24 136.3,-495.94 200.5,-549 201.46,-549.8 202.45,-550.57 203.45,-551.33"/>
<polygon fill="#63b8ff" stroke="#63b8ff" points="201.41,-554.17 211.68,-556.78 205.27,-548.34 201.41,-554.17"/>
</a>
</g>
</g>
<!-- Node10 -->
<g id="Node000010" class="node">
<title>Node10</title>
<g id="a_Node000010"><a xlink:href="../../d3/d7d/class_deluxe_1_1_deluxe_brand_center_1_1_a_m_m_1_1_a_p_i_1_1_services_1_1_b_i_service.html#a12ef235813913d045ab25e814da407e7" target="_top" xlink:title=" ">
<polygon fill="white" stroke="#666666" points="384.12,-540 215.12,-540 215.12,-496 384.12,-496 384.12,-540"/>
<text text-anchor="start" x="223.12" y="-526.5" font-family="Helvetica,sans-Serif" font-size="10.00">Deluxe.DeluxeBrandCenter.</text>
<text text-anchor="start" x="223.12" y="-514.5" font-family="Helvetica,sans-Serif" font-size="10.00">AMM.API.Services.BIService.get</text>
<text text-anchor="middle" x="299.62" y="-502.5" font-family="Helvetica,sans-Serif" font-size="10.00">ContactsSentToOutboundSchedule</text>
</a>
</g>
</g>
<!-- Node1&#45;&gt;Node10 -->
<g id="edge13_Node000001_Node000010" class="edge">
<title>Node1&#45;&gt;Node10</title>
<g id="a_edge13_Node000001_Node000010"><a xlink:title=" ">
<path fill="none" stroke="#63b8ff" d="M94.4,-354.49C112.23,-388.19 150.33,-451.59 200.5,-487 202.06,-488.1 203.65,-489.16 205.28,-490.18"/>
<polygon fill="#63b8ff" stroke="#63b8ff" points="203.21,-493.03 213.64,-494.91 206.66,-486.94 203.21,-493.03"/>
</a>
</g>
</g>
<!-- Node12 -->
<g id="Node000012" class="node">
<title>Node12</title>
<g id="a_Node000012"><a xlink:href="../../d3/d7d/class_deluxe_1_1_deluxe_brand_center_1_1_a_m_m_1_1_a_p_i_1_1_services_1_1_b_i_service.html#a58e2ab35990c3cb2490c147a162bc0f5" target="_top" xlink:title=" ">
<polygon fill="white" stroke="#666666" points="396.88,-354 202.38,-354 202.38,-310 396.88,-310 396.88,-354"/>
<text text-anchor="start" x="210.38" y="-340.5" font-family="Helvetica,sans-Serif" font-size="10.00">Deluxe.DeluxeBrandCenter.</text>
<text text-anchor="start" x="210.38" y="-328.5" font-family="Helvetica,sans-Serif" font-size="10.00">AMM.API.Services.BIService.get</text>
<text text-anchor="middle" x="299.62" y="-316.5" font-family="Helvetica,sans-Serif" font-size="10.00">ContactsSoftBouncedOutboundSchedule</text>
</a>
</g>
</g>
<!-- Node1&#45;&gt;Node12 -->
<g id="edge17_Node000001_Node000012" class="edge">
<title>Node1&#45;&gt;Node12</title>
<g id="a_edge17_Node000001_Node000012"><a xlink:title=" ">
<path fill="none" stroke="#63b8ff" d="M164.98,-332C173.42,-332 182.09,-332 190.75,-332"/>
<polygon fill="#63b8ff" stroke="#63b8ff" points="190.62,-335.5 200.62,-332 190.62,-328.5 190.62,-335.5"/>
</a>
</g>
</g>
<!-- Node14 -->
<g id="Node000014" class="node">
<title>Node14</title>
<g id="a_Node000014"><a xlink:href="../../d3/d7d/class_deluxe_1_1_deluxe_brand_center_1_1_a_m_m_1_1_a_p_i_1_1_services_1_1_b_i_service.html#a92e62641b985e4a39ddbcef67fb4fa72" target="_top" xlink:title=" ">
<polygon fill="white" stroke="#666666" points="381.5,-292 217.75,-292 217.75,-248 381.5,-248 381.5,-292"/>
<text text-anchor="start" x="225.75" y="-278.5" font-family="Helvetica,sans-Serif" font-size="10.00">Deluxe.DeluxeBrandCenter.</text>
<text text-anchor="start" x="225.75" y="-266.5" font-family="Helvetica,sans-Serif" font-size="10.00">AMM.API.Services.BIService.get</text>
<text text-anchor="middle" x="299.62" y="-254.5" font-family="Helvetica,sans-Serif" font-size="10.00">ContactsSpamOutboundSchedule</text>
</a>
</g>
</g>
<!-- Node1&#45;&gt;Node14 -->
<g id="edge21_Node000001_Node000014" class="edge">
<title>Node1&#45;&gt;Node14</title>
<g id="a_edge21_Node000001_Node000014"><a xlink:title=" ">
<path fill="none" stroke="#63b8ff" d="M161.31,-309.53C176.96,-305.02 193.51,-300.26 209.51,-295.65"/>
<polygon fill="#63b8ff" stroke="#63b8ff" points="210.37,-299.05 219.02,-292.92 208.44,-292.32 210.37,-299.05"/>
</a>
</g>
</g>
<!-- Node16 -->
<g id="Node000016" class="node">
<title>Node16</title>
<g id="a_Node000016"><a xlink:href="../../d3/d7d/class_deluxe_1_1_deluxe_brand_center_1_1_a_m_m_1_1_a_p_i_1_1_services_1_1_b_i_service.html#ab8361802e83bfa08afaee412e957ec2a" target="_top" xlink:title=" ">
<polygon fill="white" stroke="#666666" points="394.62,-106 204.62,-106 204.62,-62 394.62,-62 394.62,-106"/>
<text text-anchor="start" x="212.62" y="-92.5" font-family="Helvetica,sans-Serif" font-size="10.00">Deluxe.DeluxeBrandCenter.</text>
<text text-anchor="start" x="212.62" y="-80.5" font-family="Helvetica,sans-Serif" font-size="10.00">AMM.API.Services.BIService.get</text>
<text text-anchor="middle" x="299.62" y="-68.5" font-family="Helvetica,sans-Serif" font-size="10.00">ContactsSuppressedOutboundSchedule</text>
</a>
</g>
</g>
<!-- Node1&#45;&gt;Node16 -->
<g id="edge25_Node000001_Node000016" class="edge">
<title>Node1&#45;&gt;Node16</title>
<g id="a_edge25_Node000001_Node000016"><a xlink:title=" ">
<path fill="none" stroke="#63b8ff" d="M89.18,-309.63C101.97,-265.76 136.3,-168.06 200.5,-115 201.46,-114.2 202.45,-113.43 203.45,-112.67"/>
<polygon fill="#63b8ff" stroke="#63b8ff" points="205.27,-115.66 211.68,-107.22 201.41,-109.83 205.27,-115.66"/>
</a>
</g>
</g>
<!-- Node18 -->
<g id="Node000018" class="node">
<title>Node18</title>
<g id="a_Node000018"><a xlink:href="../../d3/d7d/class_deluxe_1_1_deluxe_brand_center_1_1_a_m_m_1_1_a_p_i_1_1_services_1_1_b_i_service.html#ab647c728f6a0d4e637ebd96a2ec60810" target="_top" xlink:title=" ">
<polygon fill="white" stroke="#666666" points="395.38,-230 203.88,-230 203.88,-186 395.38,-186 395.38,-230"/>
<text text-anchor="start" x="211.88" y="-216.5" font-family="Helvetica,sans-Serif" font-size="10.00">Deluxe.DeluxeBrandCenter.</text>
<text text-anchor="start" x="211.88" y="-204.5" font-family="Helvetica,sans-Serif" font-size="10.00">AMM.API.Services.BIService.get</text>
<text text-anchor="middle" x="299.62" y="-192.5" font-family="Helvetica,sans-Serif" font-size="10.00">ContactsThatOpenedOutboundSchedule</text>
</a>
</g>
</g>
<!-- Node1&#45;&gt;Node18 -->
<g id="edge29_Node000001_Node000018" class="edge">
<title>Node1&#45;&gt;Node18</title>
<g id="a_edge29_Node000001_Node000018"><a xlink:title=" ">
<path fill="none" stroke="#63b8ff" d="M106.13,-309.62C128.54,-288.78 164.48,-258.14 200.5,-239 203.05,-237.64 205.68,-236.33 208.35,-235.07"/>
<polygon fill="#63b8ff" stroke="#63b8ff" points="209.75,-238.28 217.49,-231.05 206.93,-231.88 209.75,-238.28"/>
</a>
</g>
</g>
<!-- Node20 -->
<g id="Node000020" class="node">
<title>Node20</title>
<g id="a_Node000020"><a xlink:href="../../d3/d7d/class_deluxe_1_1_deluxe_brand_center_1_1_a_m_m_1_1_a_p_i_1_1_services_1_1_b_i_service.html#af3ae2eeefc59b71f73ea788938828cb3" target="_top" xlink:title=" ">
<polygon fill="white" stroke="#666666" points="398.75,-168 200.5,-168 200.5,-124 398.75,-124 398.75,-168"/>
<text text-anchor="start" x="208.5" y="-154.5" font-family="Helvetica,sans-Serif" font-size="10.00">Deluxe.DeluxeBrandCenter.</text>
<text text-anchor="start" x="208.5" y="-142.5" font-family="Helvetica,sans-Serif" font-size="10.00">AMM.API.Services.BIService.get</text>
<text text-anchor="middle" x="299.62" y="-130.5" font-family="Helvetica,sans-Serif" font-size="10.00">ContactsUnsubscribedOutboundSchedule</text>
</a>
</g>
</g>
<!-- Node1&#45;&gt;Node20 -->
<g id="edge33_Node000001_Node000020" class="edge">
<title>Node1&#45;&gt;Node20</title>
<g id="a_edge33_Node000001_Node000020"><a xlink:title=" ">
<path fill="none" stroke="#63b8ff" d="M94.4,-309.51C112.23,-275.81 150.33,-212.41 200.5,-177 202.06,-175.9 203.65,-174.84 205.28,-173.82"/>
<polygon fill="#63b8ff" stroke="#63b8ff" points="206.66,-177.06 213.64,-169.09 203.21,-170.97 206.66,-177.06"/>
</a>
</g>
</g>
<!-- Node3 -->
<g id="Node000003" class="node">
<title>Node3</title>
<g id="a_Node000003"><a xlink:href="../../d8/d4e/interface_deluxe_1_1_deluxe_brand_center_1_1_a_m_m_1_1_a_p_i_1_1_services_1_1_i_contact_manager_service.html#a132f719e011ede18baf1bc4e8bc7e259" target="_top" xlink:title=" ">
<polygon fill="white" stroke="#666666" points="634.5,-416 456.5,-416 456.5,-372 634.5,-372 634.5,-416"/>
<text text-anchor="start" x="464.5" y="-402.5" font-family="Helvetica,sans-Serif" font-size="10.00">Deluxe.DeluxeBrandCenter.</text>
<text text-anchor="start" x="464.5" y="-390.5" font-family="Helvetica,sans-Serif" font-size="10.00">AMM.API.Services.IContactManager</text>
<text text-anchor="middle" x="545.5" y="-378.5" font-family="Helvetica,sans-Serif" font-size="10.00">Service.DownloadCSV</text>
</a>
</g>
</g>
<!-- Node2&#45;&gt;Node3 -->
<g id="edge2_Node000002_Node000003" class="edge">
<title>Node2&#45;&gt;Node3</title>
<g id="a_edge2_Node000002_Node000003"><a xlink:title=" ">
<path fill="none" stroke="#63b8ff" d="M385.58,-394C404.65,-394 425.06,-394 444.68,-394"/>
<polygon fill="#63b8ff" stroke="#63b8ff" points="444.61,-397.5 454.61,-394 444.61,-390.5 444.61,-397.5"/>
</a>
</g>
</g>
<!-- Node4 -->
<g id="Node000004" class="node">
<title>Node4</title>
<g id="a_Node000004"><a xlink:href="../../de/de7/interface_deluxe_1_1_deluxe_brand_center_1_1_a_m_m_1_1_a_p_i_1_1_services_1_1_i_red_shift_service.html#ac3d5f2f5cf3ebe4ad3a0bda19a15e795" target="_top" xlink:title=" ">
<polygon fill="white" stroke="#666666" points="642.38,-478 448.62,-478 448.62,-434 642.38,-434 642.38,-478"/>
<text text-anchor="start" x="456.62" y="-464.5" font-family="Helvetica,sans-Serif" font-size="10.00">Deluxe.DeluxeBrandCenter.</text>
<text text-anchor="start" x="456.62" y="-452.5" font-family="Helvetica,sans-Serif" font-size="10.00">AMM.API.Services.IRedShiftService.get</text>
<text text-anchor="middle" x="545.5" y="-440.5" font-family="Helvetica,sans-Serif" font-size="10.00">ElegetOutboundElementContactsClicks</text>
</a>
</g>
</g>
<!-- Node2&#45;&gt;Node4 -->
<g id="edge3_Node000002_Node000004" class="edge">
<title>Node2&#45;&gt;Node4</title>
<g id="a_edge3_Node000002_Node000004"><a xlink:title=" ">
<path fill="none" stroke="#63b8ff" d="M385.58,-415.6C404.83,-420.49 425.44,-425.73 445.23,-430.76"/>
<polygon fill="#63b8ff" stroke="#63b8ff" points="444.1,-434.09 454.66,-433.16 445.83,-427.3 444.1,-434.09"/>
</a>
</g>
</g>
<!-- Node5 -->
<g id="Node000005" class="node">
<title>Node5</title>
<g id="a_Node000005"><a xlink:href="../../d3/d7d/class_deluxe_1_1_deluxe_brand_center_1_1_a_m_m_1_1_a_p_i_1_1_services_1_1_b_i_service.html#a2dad090e9ed421320777cf02268ef4d2" target="_top" xlink:title=" ">
<polygon fill="white" stroke="#666666" points="626.62,-354 464.38,-354 464.38,-310 626.62,-310 626.62,-354"/>
<text text-anchor="start" x="472.38" y="-340.5" font-family="Helvetica,sans-Serif" font-size="10.00">Deluxe.DeluxeBrandCenter.</text>
<text text-anchor="start" x="472.38" y="-328.5" font-family="Helvetica,sans-Serif" font-size="10.00">AMM.API.Services.BIService.get</text>
<text text-anchor="middle" x="545.5" y="-316.5" font-family="Helvetica,sans-Serif" font-size="10.00">MFAccountIdFilter</text>
</a>
</g>
</g>
<!-- Node2&#45;&gt;Node5 -->
<g id="edge4_Node000002_Node000005" class="edge">
<title>Node2&#45;&gt;Node5</title>
<g id="a_edge4_Node000002_Node000005"><a xlink:title=" ">
<path fill="none" stroke="#63b8ff" d="M385.58,-372.4C407.33,-366.87 430.82,-360.9 452.9,-355.29"/>
<polygon fill="#63b8ff" stroke="#63b8ff" points="453.65,-358.71 462.48,-352.85 451.93,-351.92 453.65,-358.71"/>
</a>
</g>
</g>
<!-- Node6&#45;&gt;Node3 -->
<g id="edge6_Node000006_Node000003" class="edge">
<title>Node6&#45;&gt;Node3</title>
<g id="a_edge6_Node000006_Node000003"><a xlink:title=" ">
<path fill="none" stroke="#63b8ff" d="M382.17,-435.27C402.45,-430.11 424.41,-424.53 445.44,-419.18"/>
<polygon fill="#63b8ff" stroke="#63b8ff" points="446.03,-422.64 454.86,-416.79 444.31,-415.86 446.03,-422.64"/>
</a>
</g>
</g>
<!-- Node6&#45;&gt;Node5 -->
<g id="edge8_Node000006_Node000005" class="edge">
<title>Node6&#45;&gt;Node5</title>
<g id="a_edge8_Node000006_Node000005"><a xlink:title=" ">
<path fill="none" stroke="#63b8ff" d="M382.35,-435.58C388.18,-432.52 393.73,-429.02 398.75,-425 423.62,-405.08 409.58,-382.54 434.75,-363 440.58,-358.47 447.04,-354.61 453.83,-351.31"/>
<polygon fill="#63b8ff" stroke="#63b8ff" points="454.82,-354.69 462.58,-347.47 452.01,-348.28 454.82,-354.69"/>
</a>
</g>
</g>
<!-- Node7 -->
<g id="Node000007" class="node">
<title>Node7</title>
<g id="a_Node000007"><a xlink:href="../../de/de7/interface_deluxe_1_1_deluxe_brand_center_1_1_a_m_m_1_1_a_p_i_1_1_services_1_1_i_red_shift_service.html#a752016877644207e85f16e2c5dcffd28" target="_top" xlink:title=" ">
<polygon fill="white" stroke="#666666" points="642.38,-540 448.62,-540 448.62,-496 642.38,-496 642.38,-540"/>
<text text-anchor="start" x="456.62" y="-526.5" font-family="Helvetica,sans-Serif" font-size="10.00">Deluxe.DeluxeBrandCenter.</text>
<text text-anchor="start" x="456.62" y="-514.5" font-family="Helvetica,sans-Serif" font-size="10.00">AMM.API.Services.IRedShiftService.get</text>
<text text-anchor="middle" x="545.5" y="-502.5" font-family="Helvetica,sans-Serif" font-size="10.00">ElegetOutboundElementContactsFailed</text>
</a>
</g>
</g>
<!-- Node6&#45;&gt;Node7 -->
<g id="edge7_Node000006_Node000007" class="edge">
<title>Node6&#45;&gt;Node7</title>
<g id="a_edge7_Node000006_Node000007"><a xlink:title=" ">
<path fill="none" stroke="#63b8ff" d="M382.17,-476.73C402.45,-481.89 424.41,-487.47 445.44,-492.82"/>
<polygon fill="#63b8ff" stroke="#63b8ff" points="444.31,-496.14 454.86,-495.21 446.03,-489.36 444.31,-496.14"/>
</a>
</g>
</g>
<!-- Node8&#45;&gt;Node3 -->
<g id="edge10_Node000008_Node000003" class="edge">
<title>Node8&#45;&gt;Node3</title>
<g id="a_edge10_Node000008_Node000003"><a xlink:title=" ">
<path fill="none" stroke="#63b8ff" d="M388.5,-557.63C392.18,-555.06 395.63,-552.2 398.75,-549 438.85,-507.95 394.02,-465.43 434.75,-425 438.23,-421.55 442.06,-418.47 446.14,-415.74"/>
<polygon fill="#63b8ff" stroke="#63b8ff" points="447.9,-418.76 454.77,-410.7 444.37,-412.72 447.9,-418.76"/>
</a>
</g>
</g>
<!-- Node8&#45;&gt;Node5 -->
<g id="edge12_Node000008_Node000005" class="edge">
<title>Node8&#45;&gt;Node5</title>
<g id="a_edge12_Node000008_Node000005"><a xlink:title=" ">
<path fill="none" stroke="#63b8ff" d="M389.3,-557.65C392.72,-555.07 395.9,-552.2 398.75,-549 454.77,-486.14 377.77,-424.99 434.75,-363 440.28,-356.99 446.87,-352.11 454.05,-348.15"/>
<polygon fill="#63b8ff" stroke="#63b8ff" points="455.28,-351.44 462.78,-343.96 452.25,-345.13 455.28,-351.44"/>
</a>
</g>
</g>
<!-- Node9 -->
<g id="Node000009" class="node">
<title>Node9</title>
<g id="a_Node000009"><a xlink:href="../../de/de7/interface_deluxe_1_1_deluxe_brand_center_1_1_a_m_m_1_1_a_p_i_1_1_services_1_1_i_red_shift_service.html#af7b9c7eeb9ad22b1638df6d378b91f00" target="_top" xlink:title=" ">
<polygon fill="white" stroke="#666666" points="655.88,-664 435.12,-664 435.12,-620 655.88,-620 655.88,-664"/>
<text text-anchor="start" x="443.12" y="-650.5" font-family="Helvetica,sans-Serif" font-size="10.00">Deluxe.DeluxeBrandCenter.</text>
<text text-anchor="start" x="443.12" y="-638.5" font-family="Helvetica,sans-Serif" font-size="10.00">AMM.API.Services.IRedShiftService.get</text>
<text text-anchor="middle" x="545.5" y="-626.5" font-family="Helvetica,sans-Serif" font-size="10.00">ElegetOutboundElementContactsHardBounced</text>
</a>
</g>
</g>
<!-- Node8&#45;&gt;Node9 -->
<g id="edge11_Node000008_Node000009" class="edge">
<title>Node8&#45;&gt;Node9</title>
<g id="a_edge11_Node000008_Node000009"><a xlink:title=" ">
<path fill="none" stroke="#63b8ff" d="M389.01,-602.47C407.16,-607.08 426.38,-611.97 444.89,-616.68"/>
<polygon fill="#63b8ff" stroke="#63b8ff" points="443.98,-620.06 454.54,-619.13 445.71,-613.27 443.98,-620.06"/>
</a>
</g>
</g>
<!-- Node10&#45;&gt;Node3 -->
<g id="edge14_Node000010_Node000003" class="edge">
<title>Node10&#45;&gt;Node3</title>
<g id="a_edge14_Node000010_Node000003"><a xlink:title=" ">
<path fill="none" stroke="#63b8ff" d="M384.29,-496.54C389.41,-493.74 394.29,-490.57 398.75,-487 423.62,-467.08 409.58,-444.54 434.75,-425 438.3,-422.24 442.08,-419.73 446.03,-417.45"/>
<polygon fill="#63b8ff" stroke="#63b8ff" points="447.53,-420.61 454.79,-412.91 444.31,-414.4 447.53,-420.61"/>
</a>
</g>
</g>
<!-- Node10&#45;&gt;Node5 -->
<g id="edge16_Node000010_Node000005" class="edge">
<title>Node10&#45;&gt;Node5</title>
<g id="a_edge16_Node000010_Node000005"><a xlink:title=" ">
<path fill="none" stroke="#63b8ff" d="M384.44,-498.3C389.66,-495.08 394.51,-491.35 398.75,-487 438.85,-445.95 394.02,-403.43 434.75,-363 440.4,-357.39 446.99,-352.78 454.07,-348.99"/>
<polygon fill="#63b8ff" stroke="#63b8ff" points="455.07,-352.38 462.63,-344.96 452.09,-346.05 455.07,-352.38"/>
</a>
</g>
</g>
<!-- Node11 -->
<g id="Node000011" class="node">
<title>Node11</title>
<g id="a_Node000011"><a xlink:href="../../de/de7/interface_deluxe_1_1_deluxe_brand_center_1_1_a_m_m_1_1_a_p_i_1_1_services_1_1_i_red_shift_service.html#aa86427a9b942b0522c46c9ee107fb151" target="_top" xlink:title=" ">
<polygon fill="white" stroke="#666666" points="642.38,-602 448.62,-602 448.62,-558 642.38,-558 642.38,-602"/>
<text text-anchor="start" x="456.62" y="-588.5" font-family="Helvetica,sans-Serif" font-size="10.00">Deluxe.DeluxeBrandCenter.</text>
<text text-anchor="start" x="456.62" y="-576.5" font-family="Helvetica,sans-Serif" font-size="10.00">AMM.API.Services.IRedShiftService.get</text>
<text text-anchor="middle" x="545.5" y="-564.5" font-family="Helvetica,sans-Serif" font-size="10.00">ElegetOutboundElementContactsSentTo</text>
</a>
</g>
</g>
<!-- Node10&#45;&gt;Node11 -->
<g id="edge15_Node000010_Node000011" class="edge">
<title>Node10&#45;&gt;Node11</title>
<g id="a_edge15_Node000010_Node000011"><a xlink:title=" ">
<path fill="none" stroke="#63b8ff" d="M384.55,-539.34C404.08,-544.3 425.06,-549.63 445.18,-554.75"/>
<polygon fill="#63b8ff" stroke="#63b8ff" points="444.24,-558.12 454.79,-557.19 445.97,-551.34 444.24,-558.12"/>
</a>
</g>
</g>
<!-- Node12&#45;&gt;Node3 -->
<g id="edge18_Node000012_Node000003" class="edge">
<title>Node12&#45;&gt;Node3</title>
<g id="a_edge18_Node000012_Node000003"><a xlink:title=" ">
<path fill="none" stroke="#63b8ff" d="M389.01,-354.47C407.16,-359.08 426.38,-363.97 444.89,-368.68"/>
<polygon fill="#63b8ff" stroke="#63b8ff" points="443.98,-372.06 454.54,-371.13 445.71,-365.27 443.98,-372.06"/>
</a>
</g>
</g>
<!-- Node12&#45;&gt;Node5 -->
<g id="edge20_Node000012_Node000005" class="edge">
<title>Node12&#45;&gt;Node5</title>
<g id="a_edge20_Node000012_Node000005"><a xlink:title=" ">
<path fill="none" stroke="#63b8ff" d="M397.36,-332C415.56,-332 434.53,-332 452.58,-332"/>
<polygon fill="#63b8ff" stroke="#63b8ff" points="452.46,-335.5 462.46,-332 452.46,-328.5 452.46,-335.5"/>
</a>
</g>
</g>
<!-- Node13 -->
<g id="Node000013" class="node">
<title>Node13</title>
<g id="a_Node000013"><a xlink:href="../../de/de7/interface_deluxe_1_1_deluxe_brand_center_1_1_a_m_m_1_1_a_p_i_1_1_services_1_1_i_red_shift_service.html#ab65ced774a7c58e5433e5c5311fefeaa" target="_top" xlink:title=" ">
<polygon fill="white" stroke="#666666" points="654.38,-292 436.62,-292 436.62,-248 654.38,-248 654.38,-292"/>
<text text-anchor="start" x="444.62" y="-278.5" font-family="Helvetica,sans-Serif" font-size="10.00">Deluxe.DeluxeBrandCenter.</text>
<text text-anchor="start" x="444.62" y="-266.5" font-family="Helvetica,sans-Serif" font-size="10.00">AMM.API.Services.IRedShiftService.get</text>
<text text-anchor="middle" x="545.5" y="-254.5" font-family="Helvetica,sans-Serif" font-size="10.00">ElegetOutboundElementContactsSoftBounced</text>
</a>
</g>
</g>
<!-- Node12&#45;&gt;Node13 -->
<g id="edge19_Node000012_Node000013" class="edge">
<title>Node12&#45;&gt;Node13</title>
<g id="a_edge19_Node000012_Node000013"><a xlink:title=" ">
<path fill="none" stroke="#63b8ff" d="M389.01,-309.53C407.16,-304.92 426.38,-300.03 444.89,-295.32"/>
<polygon fill="#63b8ff" stroke="#63b8ff" points="445.71,-298.73 454.54,-292.87 443.98,-291.94 445.71,-298.73"/>
</a>
</g>
</g>
<!-- Node14&#45;&gt;Node3 -->
<g id="edge22_Node000014_Node000003" class="edge">
<title>Node14&#45;&gt;Node3</title>
<g id="a_edge22_Node000014_Node000003"><a xlink:title=" ">
<path fill="none" stroke="#63b8ff" d="M381.87,-290.17C387.87,-293.28 393.59,-296.87 398.75,-301 423.62,-320.92 409.58,-343.46 434.75,-363 438.3,-365.76 442.08,-368.27 446.03,-370.55"/>
<polygon fill="#63b8ff" stroke="#63b8ff" points="444.31,-373.6 454.79,-375.09 447.53,-367.39 444.31,-373.6"/>
</a>
</g>
</g>
<!-- Node14&#45;&gt;Node5 -->
<g id="edge24_Node000014_Node000005" class="edge">
<title>Node14&#45;&gt;Node5</title>
<g id="a_edge24_Node000014_Node000005"><a xlink:title=" ">
<path fill="none" stroke="#63b8ff" d="M381.83,-290.65C404.68,-296.45 429.68,-302.81 453.08,-308.76"/>
<polygon fill="#63b8ff" stroke="#63b8ff" points="452.04,-312.11 462.6,-311.18 453.77,-305.32 452.04,-312.11"/>
</a>
</g>
</g>
<!-- Node15 -->
<g id="Node000015" class="node">
<title>Node15</title>
<g id="a_Node000015"><a xlink:href="../../de/de7/interface_deluxe_1_1_deluxe_brand_center_1_1_a_m_m_1_1_a_p_i_1_1_services_1_1_i_red_shift_service.html#ae1b4f655b6195ee221962a2cb70184bd" target="_top" xlink:title=" ">
<polygon fill="white" stroke="#666666" points="642.38,-230 448.62,-230 448.62,-186 642.38,-186 642.38,-230"/>
<text text-anchor="start" x="456.62" y="-216.5" font-family="Helvetica,sans-Serif" font-size="10.00">Deluxe.DeluxeBrandCenter.</text>
<text text-anchor="start" x="456.62" y="-204.5" font-family="Helvetica,sans-Serif" font-size="10.00">AMM.API.Services.IRedShiftService.get</text>
<text text-anchor="middle" x="545.5" y="-192.5" font-family="Helvetica,sans-Serif" font-size="10.00">ElegetOutboundElementContactsSpam</text>
</a>
</g>
</g>
<!-- Node14&#45;&gt;Node15 -->
<g id="edge23_Node000014_Node000015" class="edge">
<title>Node14&#45;&gt;Node15</title>
<g id="a_edge23_Node000014_Node000015"><a xlink:title=" ">
<path fill="none" stroke="#63b8ff" d="M381.83,-249.35C402.13,-244.2 424.12,-238.6 445.18,-233.25"/>
<polygon fill="#63b8ff" stroke="#63b8ff" points="445.8,-236.7 454.63,-230.85 444.08,-229.92 445.8,-236.7"/>
</a>
</g>
</g>
<!-- Node16&#45;&gt;Node3 -->
<g id="edge26_Node000016_Node000003" class="edge">
<title>Node16&#45;&gt;Node3</title>
<g id="a_edge26_Node000016_Node000003"><a xlink:title=" ">
<path fill="none" stroke="#63b8ff" d="M389.48,-106.18C392.85,-108.81 395.97,-111.73 398.75,-115 470.88,-199.86 361.32,-279.25 434.75,-363 438.22,-366.96 442.16,-370.43 446.42,-373.47"/>
<polygon fill="#63b8ff" stroke="#63b8ff" points="444.58,-376.45 454.94,-378.68 448.23,-370.48 444.58,-376.45"/>
</a>
</g>
</g>
<!-- Node16&#45;&gt;Node5 -->
<g id="edge28_Node000016_Node000005" class="edge">
<title>Node16&#45;&gt;Node5</title>
<g id="a_edge28_Node000016_Node000005"><a xlink:title=" ">
<path fill="none" stroke="#63b8ff" d="M389.3,-106.35C392.72,-108.93 395.9,-111.8 398.75,-115 454.77,-177.86 377.77,-239.01 434.75,-301 440.28,-307.01 446.87,-311.89 454.05,-315.85"/>
<polygon fill="#63b8ff" stroke="#63b8ff" points="452.25,-318.87 462.78,-320.04 455.28,-312.56 452.25,-318.87"/>
</a>
</g>
</g>
<!-- Node17 -->
<g id="Node000017" class="node">
<title>Node17</title>
<g id="a_Node000017"><a xlink:href="../../de/de7/interface_deluxe_1_1_deluxe_brand_center_1_1_a_m_m_1_1_a_p_i_1_1_services_1_1_i_red_shift_service.html#a1075b3aad375e7a60230e440c9b4a495" target="_top" xlink:title=" ">
<polygon fill="white" stroke="#666666" points="652.12,-44 438.88,-44 438.88,0 652.12,0 652.12,-44"/>
<text text-anchor="start" x="446.88" y="-30.5" font-family="Helvetica,sans-Serif" font-size="10.00">Deluxe.DeluxeBrandCenter.</text>
<text text-anchor="start" x="446.88" y="-18.5" font-family="Helvetica,sans-Serif" font-size="10.00">AMM.API.Services.IRedShiftService.get</text>
<text text-anchor="middle" x="545.5" y="-6.5" font-family="Helvetica,sans-Serif" font-size="10.00">ElegetOutboundElementContactsSuppressed</text>
</a>
</g>
</g>
<!-- Node16&#45;&gt;Node17 -->
<g id="edge27_Node000016_Node000017" class="edge">
<title>Node16&#45;&gt;Node17</title>
<g id="a_edge27_Node000016_Node000017"><a xlink:title=" ">
<path fill="none" stroke="#63b8ff" d="M389.01,-61.53C407.16,-56.92 426.38,-52.03 444.89,-47.32"/>
<polygon fill="#63b8ff" stroke="#63b8ff" points="445.71,-50.73 454.54,-44.87 443.98,-43.94 445.71,-50.73"/>
</a>
</g>
</g>
<!-- Node18&#45;&gt;Node3 -->
<g id="edge30_Node000018_Node000003" class="edge">
<title>Node18&#45;&gt;Node3</title>
<g id="a_edge30_Node000018_Node000003"><a xlink:title=" ">
<path fill="none" stroke="#63b8ff" d="M388.5,-230.37C392.18,-232.94 395.63,-235.8 398.75,-239 438.85,-280.05 394.02,-322.57 434.75,-363 438.23,-366.45 442.06,-369.53 446.14,-372.26"/>
<polygon fill="#63b8ff" stroke="#63b8ff" points="444.37,-375.28 454.77,-377.3 447.9,-369.24 444.37,-375.28"/>
</a>
</g>
</g>
<!-- Node18&#45;&gt;Node5 -->
<g id="edge32_Node000018_Node000005" class="edge">
<title>Node18&#45;&gt;Node5</title>
<g id="a_edge32_Node000018_Node000005"><a xlink:title=" ">
<path fill="none" stroke="#63b8ff" d="M385.72,-230.26C390.32,-232.86 394.71,-235.76 398.75,-239 423.62,-258.92 409.58,-281.46 434.75,-301 440.58,-305.53 447.04,-309.39 453.83,-312.69"/>
<polygon fill="#63b8ff" stroke="#63b8ff" points="452.01,-315.72 462.58,-316.53 454.82,-309.31 452.01,-315.72"/>
</a>
</g>
</g>
<!-- Node19 -->
<g id="Node000019" class="node">
<title>Node19</title>
<g id="a_Node000019"><a xlink:href="../../de/de7/interface_deluxe_1_1_deluxe_brand_center_1_1_a_m_m_1_1_a_p_i_1_1_services_1_1_i_red_shift_service.html#a8701171097efccaf7e0fe28c74579dd1" target="_top" xlink:title=" ">
<polygon fill="white" stroke="#666666" points="643.12,-168 447.88,-168 447.88,-124 643.12,-124 643.12,-168"/>
<text text-anchor="start" x="455.88" y="-154.5" font-family="Helvetica,sans-Serif" font-size="10.00">Deluxe.DeluxeBrandCenter.</text>
<text text-anchor="start" x="455.88" y="-142.5" font-family="Helvetica,sans-Serif" font-size="10.00">AMM.API.Services.IRedShiftService.get</text>
<text text-anchor="middle" x="545.5" y="-130.5" font-family="Helvetica,sans-Serif" font-size="10.00">ElegetOutboundElementContactsOpened</text>
</a>
</g>
</g>
<!-- Node18&#45;&gt;Node19 -->
<g id="edge31_Node000018_Node000019" class="edge">
<title>Node18&#45;&gt;Node19</title>
<g id="a_edge31_Node000018_Node000019"><a xlink:title=" ">
<path fill="none" stroke="#63b8ff" d="M389.01,-185.53C407.16,-180.92 426.38,-176.03 444.89,-171.32"/>
<polygon fill="#63b8ff" stroke="#63b8ff" points="445.71,-174.73 454.54,-168.87 443.98,-167.94 445.71,-174.73"/>
</a>
</g>
</g>
<!-- Node20&#45;&gt;Node3 -->
<g id="edge34_Node000020_Node000003" class="edge">
<title>Node20&#45;&gt;Node3</title>
<g id="a_edge34_Node000020_Node000003"><a xlink:title=" ">
<path fill="none" stroke="#63b8ff" d="M389.3,-168.35C392.72,-170.93 395.9,-173.8 398.75,-177 454.77,-239.86 377.77,-301.01 434.75,-363 438.24,-366.79 442.15,-370.13 446.36,-373.08"/>
<polygon fill="#63b8ff" stroke="#63b8ff" points="444.35,-375.95 454.72,-378.12 447.97,-369.96 444.35,-375.95"/>
</a>
</g>
</g>
<!-- Node20&#45;&gt;Node5 -->
<g id="edge36_Node000020_Node000005" class="edge">
<title>Node20&#45;&gt;Node5</title>
<g id="a_edge36_Node000020_Node000005"><a xlink:title=" ">
<path fill="none" stroke="#63b8ff" d="M388.5,-168.37C392.18,-170.94 395.63,-173.8 398.75,-177 438.85,-218.05 394.02,-260.57 434.75,-301 440.4,-306.61 446.99,-311.22 454.07,-315.01"/>
<polygon fill="#63b8ff" stroke="#63b8ff" points="452.09,-317.95 462.63,-319.04 455.07,-311.62 452.09,-317.95"/>
</a>
</g>
</g>
<!-- Node21 -->
<g id="Node000021" class="node">
<title>Node21</title>
<g id="a_Node000021"><a xlink:href="../../de/de7/interface_deluxe_1_1_deluxe_brand_center_1_1_a_m_m_1_1_a_p_i_1_1_services_1_1_i_red_shift_service.html#a0957918fe22561067924156327e3a1a3" target="_top" xlink:title=" ">
<polygon fill="white" stroke="#666666" points="656.25,-106 434.75,-106 434.75,-62 656.25,-62 656.25,-106"/>
<text text-anchor="start" x="442.75" y="-92.5" font-family="Helvetica,sans-Serif" font-size="10.00">Deluxe.DeluxeBrandCenter.</text>
<text text-anchor="start" x="442.75" y="-80.5" font-family="Helvetica,sans-Serif" font-size="10.00">AMM.API.Services.IRedShiftService.get</text>
<text text-anchor="middle" x="545.5" y="-68.5" font-family="Helvetica,sans-Serif" font-size="10.00">ElegetOutboundElementContactsUnsubscribed</text>
</a>
</g>
</g>
<!-- Node20&#45;&gt;Node21 -->
<g id="edge35_Node000020_Node000021" class="edge">
<title>Node20&#45;&gt;Node21</title>
<g id="a_edge35_Node000020_Node000021"><a xlink:title=" ">
<path fill="none" stroke="#63b8ff" d="M389.01,-123.53C407.16,-118.92 426.38,-114.03 444.89,-109.32"/>
<polygon fill="#63b8ff" stroke="#63b8ff" points="445.71,-112.73 454.54,-106.87 443.98,-105.94 445.71,-112.73"/>
</a>
</g>
</g>
</g>
</svg>

<g id="navigator" transform="translate(0 0)" fill="#404254">
  <rect fill="#f2f5e9" fill-opacity="0.5" stroke="#606060" stroke-width=".5" x="0" y="0" width="60" height="60"/>
  <use id="zoomplus" xlink:href="#zoomPlus" x="17" y="9" onmousedown="handleZoom(evt,'in')"/>
  <use id="zoomminus" xlink:href="#zoomMin" x="42" y="9" onmousedown="handleZoom(evt,'out')"/>
  <use id="reset" xlink:href="#resetDef" x="30" y="36" onmousedown="handleReset()"/>
   <use id="arrowup" xlink:href="#arrowUp" x="0" y="0" onmousedown="handlePan(0,-1)"/>
  <use id="arrowright" xlink:href="#arrowRight" x="0" y="0" onmousedown="handlePan(1,0)"/>
  <use id="arrowdown" xlink:href="#arrowDown" x="0" y="0" onmousedown="handlePan(0,1)"/>
  <use id="arrowleft" xlink:href="#arrowLeft" x="0" y="0" onmousedown="handlePan(-1,0)"/>
</g>
<svg viewBox="0 0 15 15" width="100%" height="30px" preserveAspectRatio="xMaxYMin meet">
 <g id="arrow_out" transform="scale(0.3 0.3)">
  <a xlink:href="class_deluxe_1_1_deluxe_brand_center_1_1_a_m_m_1_1_a_p_i_1_1_services_1_1_b_i_service_acd7fff30cfe54558eacf9f451081e426_cgraph_org.svg" target="_base">
   <rect id="button" ry="5" rx="5" y="6" x="6" height="38" width="38"
        fill="#f2f5e9" fill-opacity="0.5" stroke="#606060" stroke-width="1.0"/>
   <path id="arrow"
     d="M 11.500037,31.436501 C 11.940474,20.09759 22.043105,11.32322 32.158766,21.979434 L 37.068811,17.246167 C 37.068811,17.246167 37.088388,32 37.088388,32 L 22.160133,31.978069 C 22.160133,31.978069 26.997745,27.140456 26.997745,27.140456 C 18.528582,18.264221 13.291696,25.230495 11.500037,31.436501 z"
     style="fill:#404040;"/>
  </a>
 </g>
</svg>

<style type='text/css'>
<![CDATA[
[data-mouse-over-selected='false'] { opacity: 0.7; }
[data-mouse-over-selected='true']  { opacity: 1.0; }
]]>
</style>
<script type="application/ecmascript"><![CDATA[
document.addEventListener('DOMContentLoaded', (event) => {
  highlightEdges();
  highlightAdjacentNodes();
});
]]></script>
</svg>
