<?xml version="1.0" encoding="UTF-8" standalone="no"?>
<!DOCTYPE svg PUBLIC "-//W3C//DTD SVG 1.1//EN"
 "http://www.w3.org/Graphics/SVG/1.1/DTD/svg11.dtd">
<!-- Generated by graphviz version 12.1.1 (20240910.0053)
 -->
<!-- Title: Deluxe.DeluxeBrandCenter.AMM.API.Services.BIService.GetCampaignsAndStats Pages: 1 -->
<!--zoomable 1258 -->

<svg id="main" version="1.1" xmlns="http://www.w3.org/2000/svg" xmlns:xlink="http://www.w3.org/1999/xlink" xml:space="preserve" onload="init(evt)">

<style type="text/css"><![CDATA[
.node, .edge {opacity: 0.7;}
.node.selected, .edge.selected {opacity: 1;}
.edge:hover path { stroke: red; }
.edge:hover polygon { stroke: red; fill: red; }
]]></style>

<defs>
  <circle id="rim" cx="0" cy="0" r="7"/>
  <circle id="rim2" cx="0" cy="0" r="3.5"/>
  <g id="zoomPlus">
    <use xlink:href="#rim" fill="#404040"><set attributeName="fill" to="#808080" begin="zoomplus.mouseover" end="zoomplus.mouseout"/></use>
    <path d="M-4,0h8M0,-4v8" fill="none" stroke="white" stroke-width="1.5" pointer-events="none"/>
  </g>
  <g id="zoomMin">
    <use xlink:href="#rim" fill="#404040"><set attributeName="fill" to="#808080" begin="zoomminus.mouseover" end="zoomminus.mouseout"/></use>
    <path d="M-4,0h8" fill="none" stroke="white" stroke-width="1.5" pointer-events="none"/>
  </g>
  <g id="arrowUp" transform="translate(30 24)">
    <use xlink:href="#rim"/>
    <path pointer-events="none" fill="none" stroke="white" stroke-width="1.5" d="M0,-3.0v7 M-2.5,-0.5L0,-3.0L2.5,-0.5"/>
  </g>
  <g id="arrowRight" transform="rotate(90) translate(36 -43)">
    <use xlink:href="#rim"/>
    <path pointer-events="none" fill="none" stroke="white" stroke-width="1.5" d="M0,-3.0v7 M-2.5,-0.5L0,-3.0L2.5,-0.5"/>
  </g>
  <g id="arrowDown" transform="rotate(180) translate(-30 -48)">
    <use xlink:href="#rim"/>
    <path pointer-events="none" fill="none" stroke="white" stroke-width="1.5" d="M0,-3.0v7 M-2.5,-0.5L0,-3.0L2.5,-0.5"/>
  </g>
  <g id="arrowLeft" transform="rotate(270) translate(-36 17)">
    <use xlink:href="#rim"/>
    <path pointer-events="none" fill="none" stroke="white" stroke-width="1.5" d="M0,-3.0v7 M-2.5,-0.5L0,-3.0L2.5,-0.5"/>
  </g>
  <g id="resetDef">
    <use xlink:href="#rim2" fill="#404040"><set attributeName="fill" to="#808080" begin="reset.mouseover" end="reset.mouseout"/></use>
  </g>
</defs>
<script type="application/ecmascript">
var viewWidth = 634;
var viewHeight = 1258;
var sectionId = 'dynsection-4';
</script>
<script type="application/ecmascript" xlink:href="../../svg.min.js"/>
<svg id="graph" class="graph">
<g id="viewport">
<title>Deluxe.DeluxeBrandCenter.AMM.API.Services.BIService.GetCampaignsAndStats</title>
<!-- Node1 -->
<g id="Node000001" class="node">
<title>Node1</title>
<g id="a_Node000001"><a xlink:title=" ">
<polygon fill="#999999" stroke="#666666" points="164.5,-602 0,-602 0,-558 164.5,-558 164.5,-602"/>
<text text-anchor="start" x="8" y="-588.5" font-family="Helvetica,sans-Serif" font-size="10.00">Deluxe.DeluxeBrandCenter.</text>
<text text-anchor="start" x="8" y="-576.5" font-family="Helvetica,sans-Serif" font-size="10.00">AMM.API.Services.BIService.Get</text>
<text text-anchor="middle" x="82.25" y="-564.5" font-family="Helvetica,sans-Serif" font-size="10.00">CampaignsAndStats</text>
</a>
</g>
</g>
<!-- Node2 -->
<g id="Node000002" class="node">
<title>Node2</title>
<g id="a_Node000002"><a xlink:href="../../d3/d7d/class_deluxe_1_1_deluxe_brand_center_1_1_a_m_m_1_1_a_p_i_1_1_services_1_1_b_i_service.html#a27c49d051ba20f0221f1caf56d38b09d" target="_top" xlink:title=" ">
<polygon fill="white" stroke="#666666" points="380,-1160 215.5,-1160 215.5,-1116 380,-1116 380,-1160"/>
<text text-anchor="start" x="223.5" y="-1146.5" font-family="Helvetica,sans-Serif" font-size="10.00">Deluxe.DeluxeBrandCenter.</text>
<text text-anchor="start" x="223.5" y="-1134.5" font-family="Helvetica,sans-Serif" font-size="10.00">AMM.API.Services.BIService.Get</text>
<text text-anchor="middle" x="297.75" y="-1122.5" font-family="Helvetica,sans-Serif" font-size="10.00">CampaignsWithElements</text>
</a>
</g>
</g>
<!-- Node1&#45;&gt;Node2 -->
<g id="edge1_Node000001_Node000002" class="edge">
<title>Node1&#45;&gt;Node2</title>
<g id="a_edge1_Node000001_Node000002"><a xlink:title=" ">
<path fill="none" stroke="#63b8ff" d="M85.28,-602.26C93.96,-692.56 130.66,-1030.36 200.5,-1107 202.23,-1108.9 204.08,-1110.68 206.02,-1112.35"/>
<polygon fill="#63b8ff" stroke="#63b8ff" points="203.75,-1115.03 213.89,-1118.12 207.89,-1109.39 203.75,-1115.03"/>
</a>
</g>
</g>
<!-- Node7 -->
<g id="Node000007" class="node">
<title>Node7</title>
<g id="a_Node000007"><a xlink:href="../../de/de7/interface_deluxe_1_1_deluxe_brand_center_1_1_a_m_m_1_1_a_p_i_1_1_services_1_1_i_red_shift_service.html#acdb06c08e547d4c19087366f8e77d40a" target="_top" xlink:title=" ">
<polygon fill="white" stroke="#666666" points="394.62,-1098 200.88,-1098 200.88,-1054 394.62,-1054 394.62,-1098"/>
<text text-anchor="start" x="208.88" y="-1084.5" font-family="Helvetica,sans-Serif" font-size="10.00">Deluxe.DeluxeBrandCenter.</text>
<text text-anchor="start" x="208.88" y="-1072.5" font-family="Helvetica,sans-Serif" font-size="10.00">AMM.API.Services.IRedShiftService.get</text>
<text text-anchor="middle" x="297.75" y="-1060.5" font-family="Helvetica,sans-Serif" font-size="10.00">ClicksEmailsSql</text>
</a>
</g>
</g>
<!-- Node1&#45;&gt;Node7 -->
<g id="edge6_Node000001_Node000007" class="edge">
<title>Node1&#45;&gt;Node7</title>
<g id="a_edge6_Node000001_Node000007"><a xlink:title=" ">
<path fill="none" stroke="#63b8ff" d="M86.02,-602.45C96.77,-686.14 138.22,-978.56 200.5,-1045 200.88,-1045.4 201.26,-1045.8 201.64,-1046.19"/>
<polygon fill="#63b8ff" stroke="#63b8ff" points="199.37,-1048.85 209.25,-1052.67 203.91,-1043.52 199.37,-1048.85"/>
</a>
</g>
</g>
<!-- Node8 -->
<g id="Node000008" class="node">
<title>Node8</title>
<g id="a_Node000008"><a xlink:href="../../de/de7/interface_deluxe_1_1_deluxe_brand_center_1_1_a_m_m_1_1_a_p_i_1_1_services_1_1_i_red_shift_service.html#ab877ef2d344405045e530def4a7be7a6" target="_top" xlink:title=" ">
<polygon fill="white" stroke="#666666" points="394.62,-1036 200.88,-1036 200.88,-992 394.62,-992 394.62,-1036"/>
<text text-anchor="start" x="208.88" y="-1022.5" font-family="Helvetica,sans-Serif" font-size="10.00">Deluxe.DeluxeBrandCenter.</text>
<text text-anchor="start" x="208.88" y="-1010.5" font-family="Helvetica,sans-Serif" font-size="10.00">AMM.API.Services.IRedShiftService.get</text>
<text text-anchor="middle" x="297.75" y="-998.5" font-family="Helvetica,sans-Serif" font-size="10.00">MicrositeClicksSql</text>
</a>
</g>
</g>
<!-- Node1&#45;&gt;Node8 -->
<g id="edge7_Node000001_Node000008" class="edge">
<title>Node1&#45;&gt;Node8</title>
<g id="a_edge7_Node000001_Node000008"><a xlink:title=" ">
<path fill="none" stroke="#63b8ff" d="M82.91,-602.28C83.13,-669.51 93.09,-872.49 200.5,-983 200.98,-983.49 201.46,-983.98 201.96,-984.45"/>
<polygon fill="#63b8ff" stroke="#63b8ff" points="199.43,-986.91 209.38,-990.56 203.88,-981.5 199.43,-986.91"/>
</a>
</g>
</g>
<!-- Node9 -->
<g id="Node000009" class="node">
<title>Node9</title>
<g id="a_Node000009"><a xlink:href="../../de/de7/interface_deluxe_1_1_deluxe_brand_center_1_1_a_m_m_1_1_a_p_i_1_1_services_1_1_i_red_shift_service.html#a93396aac2f0d856459aed7dae49a2d6f" target="_top" xlink:title=" ">
<polygon fill="white" stroke="#666666" points="394.62,-974 200.88,-974 200.88,-930 394.62,-930 394.62,-974"/>
<text text-anchor="start" x="208.88" y="-960.5" font-family="Helvetica,sans-Serif" font-size="10.00">Deluxe.DeluxeBrandCenter.</text>
<text text-anchor="start" x="208.88" y="-948.5" font-family="Helvetica,sans-Serif" font-size="10.00">AMM.API.Services.IRedShiftService.get</text>
<text text-anchor="middle" x="297.75" y="-936.5" font-family="Helvetica,sans-Serif" font-size="10.00">MicrositeSubmitsSql</text>
</a>
</g>
</g>
<!-- Node1&#45;&gt;Node9 -->
<g id="edge8_Node000001_Node000009" class="edge">
<title>Node1&#45;&gt;Node9</title>
<g id="a_edge8_Node000001_Node000009"><a xlink:title=" ">
<path fill="none" stroke="#63b8ff" d="M84.29,-602.29C88.32,-662.51 107.75,-830.05 200.5,-921 201.11,-921.6 201.73,-922.19 202.37,-922.76"/>
<polygon fill="#63b8ff" stroke="#63b8ff" points="199.94,-925.31 209.98,-928.7 204.25,-919.79 199.94,-925.31"/>
</a>
</g>
</g>
<!-- Node10 -->
<g id="Node000010" class="node">
<title>Node10</title>
<g id="a_Node000010"><a xlink:href="../../de/de7/interface_deluxe_1_1_deluxe_brand_center_1_1_a_m_m_1_1_a_p_i_1_1_services_1_1_i_red_shift_service.html#ab9bc14abb9081e208ad900a015ba1ef2" target="_top" xlink:title=" ">
<polygon fill="white" stroke="#666666" points="394.62,-912 200.88,-912 200.88,-868 394.62,-868 394.62,-912"/>
<text text-anchor="start" x="208.88" y="-898.5" font-family="Helvetica,sans-Serif" font-size="10.00">Deluxe.DeluxeBrandCenter.</text>
<text text-anchor="start" x="208.88" y="-886.5" font-family="Helvetica,sans-Serif" font-size="10.00">AMM.API.Services.IRedShiftService.get</text>
<text text-anchor="middle" x="297.75" y="-874.5" font-family="Helvetica,sans-Serif" font-size="10.00">MicrositeVisitsSql</text>
</a>
</g>
</g>
<!-- Node1&#45;&gt;Node10 -->
<g id="edge9_Node000001_Node000010" class="edge">
<title>Node1&#45;&gt;Node10</title>
<g id="a_edge9_Node000001_Node000010"><a xlink:title=" ">
<path fill="none" stroke="#63b8ff" d="M86.26,-602.43C94.5,-655.02 122.29,-787.26 200.5,-859 201.26,-859.7 202.04,-860.39 202.84,-861.06"/>
<polygon fill="#63b8ff" stroke="#63b8ff" points="200.51,-863.69 210.65,-866.76 204.64,-858.04 200.51,-863.69"/>
</a>
</g>
</g>
<!-- Node11 -->
<g id="Node000011" class="node">
<title>Node11</title>
<g id="a_Node000011"><a xlink:href="../../de/de7/interface_deluxe_1_1_deluxe_brand_center_1_1_a_m_m_1_1_a_p_i_1_1_services_1_1_i_red_shift_service.html#a7de4a9045170eab335081e343c666f54" target="_top" xlink:title=" ">
<polygon fill="white" stroke="#666666" points="394.62,-850 200.88,-850 200.88,-806 394.62,-806 394.62,-850"/>
<text text-anchor="start" x="208.88" y="-836.5" font-family="Helvetica,sans-Serif" font-size="10.00">Deluxe.DeluxeBrandCenter.</text>
<text text-anchor="start" x="208.88" y="-824.5" font-family="Helvetica,sans-Serif" font-size="10.00">AMM.API.Services.IRedShiftService.get</text>
<text text-anchor="middle" x="297.75" y="-812.5" font-family="Helvetica,sans-Serif" font-size="10.00">OpenedEmailsSql</text>
</a>
</g>
</g>
<!-- Node1&#45;&gt;Node11 -->
<g id="edge10_Node000001_Node000011" class="edge">
<title>Node1&#45;&gt;Node11</title>
<g id="a_edge10_Node000001_Node000011"><a xlink:title=" ">
<path fill="none" stroke="#63b8ff" d="M89.21,-602.34C102.04,-646.16 136.45,-743.76 200.5,-797 201.45,-797.79 202.41,-798.55 203.39,-799.3"/>
<polygon fill="#63b8ff" stroke="#63b8ff" points="201.18,-802.03 211.44,-804.67 205.07,-796.21 201.18,-802.03"/>
</a>
</g>
</g>
<!-- Node12 -->
<g id="Node000012" class="node">
<title>Node12</title>
<g id="a_Node000012"><a xlink:href="../../de/de7/interface_deluxe_1_1_deluxe_brand_center_1_1_a_m_m_1_1_a_p_i_1_1_services_1_1_i_red_shift_service.html#a8f6d2e5e839aab1060a2a490760cc462" target="_top" xlink:title=" ">
<polygon fill="white" stroke="#666666" points="393.12,-788 202.38,-788 202.38,-744 393.12,-744 393.12,-788"/>
<text text-anchor="start" x="210.38" y="-774.5" font-family="Helvetica,sans-Serif" font-size="10.00">Deluxe.DeluxeBrandCenter.</text>
<text text-anchor="start" x="210.38" y="-762.5" font-family="Helvetica,sans-Serif" font-size="10.00">AMM.API.Services.IRedShiftService.ge</text>
<text text-anchor="middle" x="297.75" y="-750.5" font-family="Helvetica,sans-Serif" font-size="10.00">TotalNumberOfLaunchedCampaigns</text>
</a>
</g>
</g>
<!-- Node1&#45;&gt;Node12 -->
<g id="edge11_Node000001_Node000012" class="edge">
<title>Node1&#45;&gt;Node12</title>
<g id="a_edge11_Node000001_Node000012"><a xlink:title=" ">
<path fill="none" stroke="#63b8ff" d="M94.43,-602.46C112.29,-636.11 150.43,-699.45 200.5,-735 201.89,-735.98 203.31,-736.94 204.75,-737.86"/>
<polygon fill="#63b8ff" stroke="#63b8ff" points="202.95,-740.86 213.36,-742.8 206.43,-734.79 202.95,-740.86"/>
</a>
</g>
</g>
<!-- Node13 -->
<g id="Node000013" class="node">
<title>Node13</title>
<g id="a_Node000013"><a xlink:href="../../de/de7/interface_deluxe_1_1_deluxe_brand_center_1_1_a_m_m_1_1_a_p_i_1_1_services_1_1_i_red_shift_service.html#a175132f5eee2eb9caa00f6266b6e9f7c" target="_top" xlink:title=" ">
<polygon fill="white" stroke="#666666" points="394.62,-726 200.88,-726 200.88,-682 394.62,-682 394.62,-726"/>
<text text-anchor="start" x="208.88" y="-712.5" font-family="Helvetica,sans-Serif" font-size="10.00">Deluxe.DeluxeBrandCenter.</text>
<text text-anchor="start" x="208.88" y="-700.5" font-family="Helvetica,sans-Serif" font-size="10.00">AMM.API.Services.IRedShiftService.get</text>
<text text-anchor="middle" x="297.75" y="-688.5" font-family="Helvetica,sans-Serif" font-size="10.00">PrintsSentSql</text>
</a>
</g>
</g>
<!-- Node1&#45;&gt;Node13 -->
<g id="edge12_Node000001_Node000013" class="edge">
<title>Node1&#45;&gt;Node13</title>
<g id="a_edge12_Node000001_Node000013"><a xlink:title=" ">
<path fill="none" stroke="#63b8ff" d="M106.15,-602.34C128.58,-623.14 164.53,-653.76 200.5,-673 203.04,-674.36 205.65,-675.67 208.31,-676.93"/>
<polygon fill="#63b8ff" stroke="#63b8ff" points="206.84,-680.11 217.39,-680.97 209.68,-673.71 206.84,-680.11"/>
</a>
</g>
</g>
<!-- Node14 -->
<g id="Node000014" class="node">
<title>Node14</title>
<g id="a_Node000014"><a xlink:href="../../de/de7/interface_deluxe_1_1_deluxe_brand_center_1_1_a_m_m_1_1_a_p_i_1_1_services_1_1_i_red_shift_service.html#a79e44c33ac375d0f19177870351d3208" target="_top" xlink:title=" ">
<polygon fill="white" stroke="#666666" points="394.62,-664 200.88,-664 200.88,-620 394.62,-620 394.62,-664"/>
<text text-anchor="start" x="208.88" y="-650.5" font-family="Helvetica,sans-Serif" font-size="10.00">Deluxe.DeluxeBrandCenter.</text>
<text text-anchor="start" x="208.88" y="-638.5" font-family="Helvetica,sans-Serif" font-size="10.00">AMM.API.Services.IRedShiftService.get</text>
<text text-anchor="middle" x="297.75" y="-626.5" font-family="Helvetica,sans-Serif" font-size="10.00">SentEmailsSql</text>
</a>
</g>
</g>
<!-- Node1&#45;&gt;Node14 -->
<g id="edge13_Node000001_Node000014" class="edge">
<title>Node1&#45;&gt;Node14</title>
<g id="a_edge13_Node000001_Node000014"><a xlink:title=" ">
<path fill="none" stroke="#63b8ff" d="M160.63,-602.47C176.14,-606.98 192.56,-611.74 208.41,-616.35"/>
<polygon fill="#63b8ff" stroke="#63b8ff" points="207.24,-619.65 217.82,-619.08 209.19,-612.93 207.24,-619.65"/>
</a>
</g>
</g>
<!-- Node15 -->
<g id="Node000015" class="node">
<title>Node15</title>
<g id="a_Node000015"><a xlink:href="../../de/de7/interface_deluxe_1_1_deluxe_brand_center_1_1_a_m_m_1_1_a_p_i_1_1_services_1_1_i_red_shift_service.html#a097be1ce9438c1e3f7fdbd1a1a912cf7" target="_top" xlink:title=" ">
<polygon fill="white" stroke="#666666" points="394.62,-602 200.88,-602 200.88,-558 394.62,-558 394.62,-602"/>
<text text-anchor="start" x="208.88" y="-588.5" font-family="Helvetica,sans-Serif" font-size="10.00">Deluxe.DeluxeBrandCenter.</text>
<text text-anchor="start" x="208.88" y="-576.5" font-family="Helvetica,sans-Serif" font-size="10.00">AMM.API.Services.IRedShiftService.get</text>
<text text-anchor="middle" x="297.75" y="-564.5" font-family="Helvetica,sans-Serif" font-size="10.00">SocialPostsSql</text>
</a>
</g>
</g>
<!-- Node1&#45;&gt;Node15 -->
<g id="edge14_Node000001_Node000015" class="edge">
<title>Node1&#45;&gt;Node15</title>
<g id="a_edge14_Node000001_Node000015"><a xlink:title=" ">
<path fill="none" stroke="#63b8ff" d="M164.88,-580C172.8,-580 180.92,-580 189.04,-580"/>
<polygon fill="#63b8ff" stroke="#63b8ff" points="189,-583.5 199,-580 189,-576.5 189,-583.5"/>
</a>
</g>
</g>
<!-- Node16 -->
<g id="Node000016" class="node">
<title>Node16</title>
<g id="a_Node000016"><a xlink:href="../../de/de7/interface_deluxe_1_1_deluxe_brand_center_1_1_a_m_m_1_1_a_p_i_1_1_services_1_1_i_red_shift_service.html#a716a2c50006d56d9563df29d94b9d53f" target="_top" xlink:title=" ">
<polygon fill="white" stroke="#666666" points="394.62,-540 200.88,-540 200.88,-496 394.62,-496 394.62,-540"/>
<text text-anchor="start" x="208.88" y="-526.5" font-family="Helvetica,sans-Serif" font-size="10.00">Deluxe.DeluxeBrandCenter.</text>
<text text-anchor="start" x="208.88" y="-514.5" font-family="Helvetica,sans-Serif" font-size="10.00">AMM.API.Services.IRedShiftService.get</text>
<text text-anchor="middle" x="297.75" y="-502.5" font-family="Helvetica,sans-Serif" font-size="10.00">SpamEmailsSql</text>
</a>
</g>
</g>
<!-- Node1&#45;&gt;Node16 -->
<g id="edge15_Node000001_Node000016" class="edge">
<title>Node1&#45;&gt;Node16</title>
<g id="a_edge15_Node000001_Node000016"><a xlink:title=" ">
<path fill="none" stroke="#63b8ff" d="M160.63,-557.53C176.14,-553.02 192.56,-548.26 208.41,-543.65"/>
<polygon fill="#63b8ff" stroke="#63b8ff" points="209.19,-547.07 217.82,-540.92 207.24,-540.35 209.19,-547.07"/>
</a>
</g>
</g>
<!-- Node17 -->
<g id="Node000017" class="node">
<title>Node17</title>
<g id="a_Node000017"><a xlink:href="../../de/de7/interface_deluxe_1_1_deluxe_brand_center_1_1_a_m_m_1_1_a_p_i_1_1_services_1_1_i_red_shift_service.html#a713880e0c425207d1aa959cb05e2d4b7" target="_top" xlink:title=" ">
<polygon fill="white" stroke="#666666" points="394.62,-478 200.88,-478 200.88,-434 394.62,-434 394.62,-478"/>
<text text-anchor="start" x="208.88" y="-464.5" font-family="Helvetica,sans-Serif" font-size="10.00">Deluxe.DeluxeBrandCenter.</text>
<text text-anchor="start" x="208.88" y="-452.5" font-family="Helvetica,sans-Serif" font-size="10.00">AMM.API.Services.IRedShiftService.get</text>
<text text-anchor="middle" x="297.75" y="-440.5" font-family="Helvetica,sans-Serif" font-size="10.00">SqlRedShiftMultipleAsync</text>
</a>
</g>
</g>
<!-- Node1&#45;&gt;Node17 -->
<g id="edge16_Node000001_Node000017" class="edge">
<title>Node1&#45;&gt;Node17</title>
<g id="a_edge16_Node000001_Node000017"><a xlink:title=" ">
<path fill="none" stroke="#63b8ff" d="M106.15,-557.66C128.58,-536.86 164.53,-506.24 200.5,-487 203.04,-485.64 205.65,-484.33 208.31,-483.07"/>
<polygon fill="#63b8ff" stroke="#63b8ff" points="209.68,-486.29 217.39,-479.03 206.84,-479.89 209.68,-486.29"/>
</a>
</g>
</g>
<!-- Node18 -->
<g id="Node000018" class="node">
<title>Node18</title>
<g id="a_Node000018"><a xlink:href="../../de/de7/interface_deluxe_1_1_deluxe_brand_center_1_1_a_m_m_1_1_a_p_i_1_1_services_1_1_i_red_shift_service.html#a257739cdb3f97135c7c3b9088c8e285d" target="_top" xlink:title=" ">
<polygon fill="white" stroke="#666666" points="394.62,-416 200.88,-416 200.88,-372 394.62,-372 394.62,-416"/>
<text text-anchor="start" x="208.88" y="-402.5" font-family="Helvetica,sans-Serif" font-size="10.00">Deluxe.DeluxeBrandCenter.</text>
<text text-anchor="start" x="208.88" y="-390.5" font-family="Helvetica,sans-Serif" font-size="10.00">AMM.API.Services.IRedShiftService.get</text>
<text text-anchor="middle" x="297.75" y="-378.5" font-family="Helvetica,sans-Serif" font-size="10.00">SuppressedEmailsSql</text>
</a>
</g>
</g>
<!-- Node1&#45;&gt;Node18 -->
<g id="edge17_Node000001_Node000018" class="edge">
<title>Node1&#45;&gt;Node18</title>
<g id="a_edge17_Node000001_Node000018"><a xlink:title=" ">
<path fill="none" stroke="#63b8ff" d="M94.43,-557.54C112.29,-523.89 150.43,-460.55 200.5,-425 201.89,-424.02 203.31,-423.06 204.75,-422.14"/>
<polygon fill="#63b8ff" stroke="#63b8ff" points="206.43,-425.21 213.36,-417.2 202.95,-419.14 206.43,-425.21"/>
</a>
</g>
</g>
<!-- Node19 -->
<g id="Node000019" class="node">
<title>Node19</title>
<g id="a_Node000019"><a xlink:href="../../de/de7/interface_deluxe_1_1_deluxe_brand_center_1_1_a_m_m_1_1_a_p_i_1_1_services_1_1_i_red_shift_service.html#adc8b913d3a338aefa743ba501aa59795" target="_top" xlink:title=" ">
<polygon fill="white" stroke="#666666" points="394.62,-354 200.88,-354 200.88,-310 394.62,-310 394.62,-354"/>
<text text-anchor="start" x="208.88" y="-340.5" font-family="Helvetica,sans-Serif" font-size="10.00">Deluxe.DeluxeBrandCenter.</text>
<text text-anchor="start" x="208.88" y="-328.5" font-family="Helvetica,sans-Serif" font-size="10.00">AMM.API.Services.IRedShiftService.get</text>
<text text-anchor="middle" x="297.75" y="-316.5" font-family="Helvetica,sans-Serif" font-size="10.00">TopNCampaigns</text>
</a>
</g>
</g>
<!-- Node1&#45;&gt;Node19 -->
<g id="edge18_Node000001_Node000019" class="edge">
<title>Node1&#45;&gt;Node19</title>
<g id="a_edge18_Node000001_Node000019"><a xlink:title=" ">
<path fill="none" stroke="#63b8ff" d="M89.21,-557.66C102.04,-513.84 136.45,-416.24 200.5,-363 201.45,-362.21 202.41,-361.45 203.39,-360.7"/>
<polygon fill="#63b8ff" stroke="#63b8ff" points="205.07,-363.79 211.44,-355.33 201.18,-357.97 205.07,-363.79"/>
</a>
</g>
</g>
<!-- Node20 -->
<g id="Node000020" class="node">
<title>Node20</title>
<g id="a_Node000020"><a xlink:href="../../de/de7/interface_deluxe_1_1_deluxe_brand_center_1_1_a_m_m_1_1_a_p_i_1_1_services_1_1_i_red_shift_service.html#a693f33c05ce9698296106f7ac5ecb9c6" target="_top" xlink:title=" ">
<polygon fill="white" stroke="#666666" points="394.62,-292 200.88,-292 200.88,-248 394.62,-248 394.62,-292"/>
<text text-anchor="start" x="208.88" y="-278.5" font-family="Helvetica,sans-Serif" font-size="10.00">Deluxe.DeluxeBrandCenter.</text>
<text text-anchor="start" x="208.88" y="-266.5" font-family="Helvetica,sans-Serif" font-size="10.00">AMM.API.Services.IRedShiftService.get</text>
<text text-anchor="middle" x="297.75" y="-254.5" font-family="Helvetica,sans-Serif" font-size="10.00">TopNEngagedCampaignsSql</text>
</a>
</g>
</g>
<!-- Node1&#45;&gt;Node20 -->
<g id="edge19_Node000001_Node000020" class="edge">
<title>Node1&#45;&gt;Node20</title>
<g id="a_edge19_Node000001_Node000020"><a xlink:title=" ">
<path fill="none" stroke="#63b8ff" d="M86.26,-557.57C94.5,-504.98 122.29,-372.74 200.5,-301 201.26,-300.3 202.04,-299.61 202.84,-298.94"/>
<polygon fill="#63b8ff" stroke="#63b8ff" points="204.64,-301.96 210.65,-293.24 200.51,-296.31 204.64,-301.96"/>
</a>
</g>
</g>
<!-- Node21 -->
<g id="Node000021" class="node">
<title>Node21</title>
<g id="a_Node000021"><a xlink:href="../../de/de7/interface_deluxe_1_1_deluxe_brand_center_1_1_a_m_m_1_1_a_p_i_1_1_services_1_1_i_red_shift_service.html#a0cfe3350c4b8df0928d67bc1ce0c0624" target="_top" xlink:title=" ">
<polygon fill="white" stroke="#666666" points="394.62,-230 200.88,-230 200.88,-186 394.62,-186 394.62,-230"/>
<text text-anchor="start" x="208.88" y="-216.5" font-family="Helvetica,sans-Serif" font-size="10.00">Deluxe.DeluxeBrandCenter.</text>
<text text-anchor="start" x="208.88" y="-204.5" font-family="Helvetica,sans-Serif" font-size="10.00">AMM.API.Services.IRedShiftService.get</text>
<text text-anchor="middle" x="297.75" y="-192.5" font-family="Helvetica,sans-Serif" font-size="10.00">TopNEngagedContactsSql</text>
</a>
</g>
</g>
<!-- Node1&#45;&gt;Node21 -->
<g id="edge20_Node000001_Node000021" class="edge">
<title>Node1&#45;&gt;Node21</title>
<g id="a_edge20_Node000001_Node000021"><a xlink:title=" ">
<path fill="none" stroke="#63b8ff" d="M84.29,-557.71C88.32,-497.49 107.75,-329.95 200.5,-239 201.11,-238.4 201.73,-237.81 202.37,-237.24"/>
<polygon fill="#63b8ff" stroke="#63b8ff" points="204.25,-240.21 209.98,-231.3 199.94,-234.69 204.25,-240.21"/>
</a>
</g>
</g>
<!-- Node22 -->
<g id="Node000022" class="node">
<title>Node22</title>
<g id="a_Node000022"><a xlink:href="../../de/de7/interface_deluxe_1_1_deluxe_brand_center_1_1_a_m_m_1_1_a_p_i_1_1_services_1_1_i_red_shift_service.html#ab1a03d5efa1ff10b09c5dcfaa4b734e5" target="_top" xlink:title=" ">
<polygon fill="white" stroke="#666666" points="394.62,-168 200.88,-168 200.88,-124 394.62,-124 394.62,-168"/>
<text text-anchor="start" x="208.88" y="-154.5" font-family="Helvetica,sans-Serif" font-size="10.00">Deluxe.DeluxeBrandCenter.</text>
<text text-anchor="start" x="208.88" y="-142.5" font-family="Helvetica,sans-Serif" font-size="10.00">AMM.API.Services.IRedShiftService.get</text>
<text text-anchor="middle" x="297.75" y="-130.5" font-family="Helvetica,sans-Serif" font-size="10.00">UndeliverableEmailsSql</text>
</a>
</g>
</g>
<!-- Node1&#45;&gt;Node22 -->
<g id="edge21_Node000001_Node000022" class="edge">
<title>Node1&#45;&gt;Node22</title>
<g id="a_edge21_Node000001_Node000022"><a xlink:title=" ">
<path fill="none" stroke="#63b8ff" d="M82.91,-557.72C83.13,-490.49 93.09,-287.51 200.5,-177 200.98,-176.51 201.46,-176.02 201.96,-175.55"/>
<polygon fill="#63b8ff" stroke="#63b8ff" points="203.88,-178.5 209.38,-169.44 199.43,-173.09 203.88,-178.5"/>
</a>
</g>
</g>
<!-- Node23 -->
<g id="Node000023" class="node">
<title>Node23</title>
<g id="a_Node000023"><a xlink:href="../../de/de7/interface_deluxe_1_1_deluxe_brand_center_1_1_a_m_m_1_1_a_p_i_1_1_services_1_1_i_red_shift_service.html#a09236ef63769b331c06a561dec99d970" target="_top" xlink:title=" ">
<polygon fill="white" stroke="#666666" points="394.62,-106 200.88,-106 200.88,-62 394.62,-62 394.62,-106"/>
<text text-anchor="start" x="208.88" y="-92.5" font-family="Helvetica,sans-Serif" font-size="10.00">Deluxe.DeluxeBrandCenter.</text>
<text text-anchor="start" x="208.88" y="-80.5" font-family="Helvetica,sans-Serif" font-size="10.00">AMM.API.Services.IRedShiftService.get</text>
<text text-anchor="middle" x="297.75" y="-68.5" font-family="Helvetica,sans-Serif" font-size="10.00">UnsubscribeEmailsSql</text>
</a>
</g>
</g>
<!-- Node1&#45;&gt;Node23 -->
<g id="edge22_Node000001_Node000023" class="edge">
<title>Node1&#45;&gt;Node23</title>
<g id="a_edge22_Node000001_Node000023"><a xlink:title=" ">
<path fill="none" stroke="#63b8ff" d="M86.02,-557.55C96.77,-473.86 138.22,-181.44 200.5,-115 200.88,-114.6 201.26,-114.2 201.64,-113.81"/>
<polygon fill="#63b8ff" stroke="#63b8ff" points="203.91,-116.48 209.25,-107.33 199.37,-111.15 203.91,-116.48"/>
</a>
</g>
</g>
<!-- Node24 -->
<g id="Node000024" class="node">
<title>Node24</title>
<g id="a_Node000024"><a xlink:href="../../dd/d7d/interface_deluxe_1_1_deluxe_brand_center_1_1_a_m_m_1_1_domain_1_1_services_1_1_i_session_service.html#a31fd07938dc12b3d600f3bd500d3aacd" target="_top" xlink:title=" ">
<polygon fill="white" stroke="#666666" points="395,-44 200.5,-44 200.5,0 395,0 395,-44"/>
<text text-anchor="start" x="208.5" y="-30.5" font-family="Helvetica,sans-Serif" font-size="10.00">Deluxe.DeluxeBrandCenter.</text>
<text text-anchor="start" x="208.5" y="-18.5" font-family="Helvetica,sans-Serif" font-size="10.00">AMM.Domain.Services.ISessionService.</text>
<text text-anchor="middle" x="297.75" y="-6.5" font-family="Helvetica,sans-Serif" font-size="10.00">SessionGetClientId</text>
</a>
</g>
</g>
<!-- Node1&#45;&gt;Node24 -->
<g id="edge23_Node000001_Node000024" class="edge">
<title>Node1&#45;&gt;Node24</title>
<g id="a_edge23_Node000001_Node000024"><a xlink:title=" ">
<path fill="none" stroke="#63b8ff" d="M85.28,-557.74C93.96,-467.44 130.66,-129.64 200.5,-53 200.87,-52.59 201.24,-52.19 201.62,-51.8"/>
<polygon fill="#63b8ff" stroke="#63b8ff" points="203.91,-54.45 209.15,-45.24 199.31,-49.17 203.91,-54.45"/>
</a>
</g>
</g>
<!-- Node3 -->
<g id="Node000003" class="node">
<title>Node3</title>
<g id="a_Node000003"><a xlink:href="../../de/de7/interface_deluxe_1_1_deluxe_brand_center_1_1_a_m_m_1_1_a_p_i_1_1_services_1_1_i_red_shift_service.html#ad1eee8f58d47fc67af73a6b6472f734a" target="_top" xlink:title=" ">
<polygon fill="white" stroke="#666666" points="625.12,-1250 431.38,-1250 431.38,-1206 625.12,-1206 625.12,-1250"/>
<text text-anchor="start" x="439.38" y="-1236.5" font-family="Helvetica,sans-Serif" font-size="10.00">Deluxe.DeluxeBrandCenter.</text>
<text text-anchor="start" x="439.38" y="-1224.5" font-family="Helvetica,sans-Serif" font-size="10.00">AMM.API.Services.IRedShiftService.get</text>
<text text-anchor="middle" x="528.25" y="-1212.5" font-family="Helvetica,sans-Serif" font-size="10.00">CamapignElements</text>
</a>
</g>
</g>
<!-- Node2&#45;&gt;Node3 -->
<g id="edge2_Node000002_Node000003" class="edge">
<title>Node2&#45;&gt;Node3</title>
<g id="a_edge2_Node000002_Node000003"><a xlink:title=" ">
<path fill="none" stroke="#63b8ff" d="M345.67,-1160.42C370.72,-1172.01 402.24,-1185.99 431,-1197 435.29,-1198.64 439.71,-1200.27 444.18,-1201.87"/>
<polygon fill="#63b8ff" stroke="#63b8ff" points="442.67,-1205.05 453.26,-1205.06 444.98,-1198.45 442.67,-1205.05"/>
</a>
</g>
</g>
<!-- Node4 -->
<g id="Node000004" class="node">
<title>Node4</title>
<g id="a_Node000004"><a xlink:href="../../de/de7/interface_deluxe_1_1_deluxe_brand_center_1_1_a_m_m_1_1_a_p_i_1_1_services_1_1_i_red_shift_service.html#afc3a5dce423dcb9cadd28a6884ad56ae" target="_top" xlink:title=" ">
<polygon fill="white" stroke="#666666" points="625.12,-1188 431.38,-1188 431.38,-1144 625.12,-1144 625.12,-1188"/>
<text text-anchor="start" x="439.38" y="-1174.5" font-family="Helvetica,sans-Serif" font-size="10.00">Deluxe.DeluxeBrandCenter.</text>
<text text-anchor="start" x="439.38" y="-1162.5" font-family="Helvetica,sans-Serif" font-size="10.00">AMM.API.Services.IRedShiftService.get</text>
<text text-anchor="middle" x="528.25" y="-1150.5" font-family="Helvetica,sans-Serif" font-size="10.00">CampaignsAsync</text>
</a>
</g>
</g>
<!-- Node2&#45;&gt;Node4 -->
<g id="edge3_Node000002_Node000004" class="edge">
<title>Node2&#45;&gt;Node4</title>
<g id="a_edge3_Node000002_Node000004"><a xlink:title=" ">
<path fill="none" stroke="#63b8ff" d="M380.28,-1147.99C393.09,-1149.56 406.51,-1151.2 419.8,-1152.83"/>
<polygon fill="#63b8ff" stroke="#63b8ff" points="419.07,-1156.27 429.42,-1154.01 419.92,-1149.32 419.07,-1156.27"/>
</a>
</g>
</g>
<!-- Node5 -->
<g id="Node000005" class="node">
<title>Node5</title>
<g id="a_Node000005"><a xlink:href="../../d3/ddb/interface_deluxe_1_1_deluxe_brand_center_1_1_a_m_m_1_1_a_p_i_1_1_services_1_1_i_d_b_service.html#a2f5b86a9e6416b5a491f9e19e79046d6" target="_top" xlink:title=" ">
<polygon fill="white" stroke="#666666" points="622.12,-1126 434.38,-1126 434.38,-1094 622.12,-1094 622.12,-1126"/>
<text text-anchor="start" x="442.38" y="-1112.5" font-family="Helvetica,sans-Serif" font-size="10.00">Deluxe.DeluxeBrandCenter.</text>
<text text-anchor="middle" x="528.25" y="-1100.5" font-family="Helvetica,sans-Serif" font-size="10.00">AMM.API.Services.IDBService.GetList</text>
</a>
</g>
</g>
<!-- Node2&#45;&gt;Node5 -->
<g id="edge4_Node000002_Node000005" class="edge">
<title>Node2&#45;&gt;Node5</title>
<g id="a_edge4_Node000002_Node000005"><a xlink:title=" ">
<path fill="none" stroke="#63b8ff" d="M380.28,-1128.01C394.03,-1126.32 408.48,-1124.55 422.72,-1122.81"/>
<polygon fill="#63b8ff" stroke="#63b8ff" points="423.08,-1126.29 432.58,-1121.6 422.22,-1119.34 423.08,-1126.29"/>
</a>
</g>
</g>
<!-- Node6 -->
<g id="Node000006" class="node">
<title>Node6</title>
<g id="a_Node000006"><a xlink:href="../../dd/d7d/interface_deluxe_1_1_deluxe_brand_center_1_1_a_m_m_1_1_domain_1_1_services_1_1_i_session_service.html#aaac0af72e9b32df926d2afea555e1e34" target="_top" xlink:title=" ">
<polygon fill="white" stroke="#666666" points="625.5,-1076 431,-1076 431,-1032 625.5,-1032 625.5,-1076"/>
<text text-anchor="start" x="439" y="-1062.5" font-family="Helvetica,sans-Serif" font-size="10.00">Deluxe.DeluxeBrandCenter.</text>
<text text-anchor="start" x="439" y="-1050.5" font-family="Helvetica,sans-Serif" font-size="10.00">AMM.Domain.Services.ISessionService.</text>
<text text-anchor="middle" x="528.25" y="-1038.5" font-family="Helvetica,sans-Serif" font-size="10.00">SessionGetUserId</text>
</a>
</g>
</g>
<!-- Node2&#45;&gt;Node6 -->
<g id="edge5_Node000002_Node000006" class="edge">
<title>Node2&#45;&gt;Node6</title>
<g id="a_edge5_Node000002_Node000006"><a xlink:title=" ">
<path fill="none" stroke="#63b8ff" d="M374.28,-1115.58C381.37,-1112.9 388.38,-1110.04 395,-1107 412.04,-1099.18 413.96,-1092.82 431,-1085 434.31,-1083.48 437.72,-1082 441.18,-1080.57"/>
<polygon fill="#63b8ff" stroke="#63b8ff" points="442.29,-1083.9 450.31,-1076.98 439.72,-1077.39 442.29,-1083.9"/>
</a>
</g>
</g>
</g>
</svg>

<g id="navigator" transform="translate(0 0)" fill="#404254">
  <rect fill="#f2f5e9" fill-opacity="0.5" stroke="#606060" stroke-width=".5" x="0" y="0" width="60" height="60"/>
  <use id="zoomplus" xlink:href="#zoomPlus" x="17" y="9" onmousedown="handleZoom(evt,'in')"/>
  <use id="zoomminus" xlink:href="#zoomMin" x="42" y="9" onmousedown="handleZoom(evt,'out')"/>
  <use id="reset" xlink:href="#resetDef" x="30" y="36" onmousedown="handleReset()"/>
   <use id="arrowup" xlink:href="#arrowUp" x="0" y="0" onmousedown="handlePan(0,-1)"/>
  <use id="arrowright" xlink:href="#arrowRight" x="0" y="0" onmousedown="handlePan(1,0)"/>
  <use id="arrowdown" xlink:href="#arrowDown" x="0" y="0" onmousedown="handlePan(0,1)"/>
  <use id="arrowleft" xlink:href="#arrowLeft" x="0" y="0" onmousedown="handlePan(-1,0)"/>
</g>
<svg viewBox="0 0 15 15" width="100%" height="30px" preserveAspectRatio="xMaxYMin meet">
 <g id="arrow_out" transform="scale(0.3 0.3)">
  <a xlink:href="class_deluxe_1_1_deluxe_brand_center_1_1_a_m_m_1_1_a_p_i_1_1_services_1_1_b_i_service_a16746817aced3795d9ed8f95e89c36b3_cgraph_org.svg" target="_base">
   <rect id="button" ry="5" rx="5" y="6" x="6" height="38" width="38"
        fill="#f2f5e9" fill-opacity="0.5" stroke="#606060" stroke-width="1.0"/>
   <path id="arrow"
     d="M 11.500037,31.436501 C 11.940474,20.09759 22.043105,11.32322 32.158766,21.979434 L 37.068811,17.246167 C 37.068811,17.246167 37.088388,32 37.088388,32 L 22.160133,31.978069 C 22.160133,31.978069 26.997745,27.140456 26.997745,27.140456 C 18.528582,18.264221 13.291696,25.230495 11.500037,31.436501 z"
     style="fill:#404040;"/>
  </a>
 </g>
</svg>

<style type='text/css'>
<![CDATA[
[data-mouse-over-selected='false'] { opacity: 0.7; }
[data-mouse-over-selected='true']  { opacity: 1.0; }
]]>
</style>
<script type="application/ecmascript"><![CDATA[
document.addEventListener('DOMContentLoaded', (event) => {
  highlightEdges();
  highlightAdjacentNodes();
});
]]></script>
</svg>
