<?xml version="1.0" encoding="UTF-8" standalone="no"?>
<!DOCTYPE svg PUBLIC "-//W3C//DTD SVG 1.1//EN"
 "http://www.w3.org/Graphics/SVG/1.1/DTD/svg11.dtd">
<!-- Generated by graphviz version 12.1.1 (20240910.0053)
 -->
<!-- Title: Deluxe.DeluxeBrandCenter.AMM.API.Services.BIService.getClickRates Pages: 1 -->
<svg width="410pt" height="300pt"
 viewBox="0.00 0.00 409.75 300.00" xmlns="http://www.w3.org/2000/svg" xmlns:xlink="http://www.w3.org/1999/xlink">
<g id="graph0" class="graph" transform="scale(1 1) rotate(0) translate(4 296)">
<title>Deluxe.DeluxeBrandCenter.AMM.API.Services.BIService.getClickRates</title>
<!-- Node1 -->
<g id="Node000001" class="node">
<title>Node1</title>
<g id="a_Node000001"><a xlink:title=" ">
<polygon fill="#999999" stroke="#666666" points="162.25,-168 0,-168 0,-124 162.25,-124 162.25,-168"/>
<text text-anchor="start" x="8" y="-154.5" font-family="Helvetica,sans-Serif" font-size="10.00">Deluxe.DeluxeBrandCenter.</text>
<text text-anchor="start" x="8" y="-142.5" font-family="Helvetica,sans-Serif" font-size="10.00">AMM.API.Services.BIService.get</text>
<text text-anchor="middle" x="81.12" y="-130.5" font-family="Helvetica,sans-Serif" font-size="10.00">ClickRates</text>
</a>
</g>
</g>
<!-- Node2 -->
<g id="Node000002" class="node">
<title>Node2</title>
<g id="a_Node000002"><a xlink:href="../../de/de7/interface_deluxe_1_1_deluxe_brand_center_1_1_a_m_m_1_1_a_p_i_1_1_services_1_1_i_red_shift_service.html#a2eb126a93e852e9d421526ec76ffbdf7" target="_top" xlink:title=" ">
<polygon fill="white" stroke="#666666" points="396.88,-292 203.12,-292 203.12,-248 396.88,-248 396.88,-292"/>
<text text-anchor="start" x="211.12" y="-278.5" font-family="Helvetica,sans-Serif" font-size="10.00">Deluxe.DeluxeBrandCenter.</text>
<text text-anchor="start" x="211.12" y="-266.5" font-family="Helvetica,sans-Serif" font-size="10.00">AMM.API.Services.IRedShiftService.get</text>
<text text-anchor="middle" x="300" y="-254.5" font-family="Helvetica,sans-Serif" font-size="10.00">ClickRatesOverDays</text>
</a>
</g>
</g>
<!-- Node1&#45;&gt;Node2 -->
<g id="edge1_Node000001_Node000002" class="edge">
<title>Node1&#45;&gt;Node2</title>
<g id="a_edge1_Node000001_Node000002"><a xlink:title=" ">
<path fill="none" stroke="#63b8ff" d="M104.71,-168.46C126.85,-189.35 162.41,-220.03 198.25,-239 200.93,-240.42 203.67,-241.78 206.48,-243.09"/>
<polygon fill="#63b8ff" stroke="#63b8ff" points="204.88,-246.21 215.44,-247 207.68,-239.79 204.88,-246.21"/>
</a>
</g>
</g>
<!-- Node3 -->
<g id="Node000003" class="node">
<title>Node3</title>
<g id="a_Node000003"><a xlink:href="../../de/de7/interface_deluxe_1_1_deluxe_brand_center_1_1_a_m_m_1_1_a_p_i_1_1_services_1_1_i_red_shift_service.html#a09103c6e72de249e2fd0c1cf00954b41" target="_top" xlink:title=" ">
<polygon fill="white" stroke="#666666" points="396.88,-230 203.12,-230 203.12,-186 396.88,-186 396.88,-230"/>
<text text-anchor="start" x="211.12" y="-216.5" font-family="Helvetica,sans-Serif" font-size="10.00">Deluxe.DeluxeBrandCenter.</text>
<text text-anchor="start" x="211.12" y="-204.5" font-family="Helvetica,sans-Serif" font-size="10.00">AMM.API.Services.IRedShiftService.get</text>
<text text-anchor="middle" x="300" y="-192.5" font-family="Helvetica,sans-Serif" font-size="10.00">TopNClickRateByAction</text>
</a>
</g>
</g>
<!-- Node1&#45;&gt;Node3 -->
<g id="edge2_Node000001_Node000003" class="edge">
<title>Node1&#45;&gt;Node3</title>
<g id="a_edge2_Node000001_Node000003"><a xlink:title=" ">
<path fill="none" stroke="#63b8ff" d="M160.73,-168.47C176.49,-172.98 193.16,-177.74 209.26,-182.35"/>
<polygon fill="#63b8ff" stroke="#63b8ff" points="208.27,-185.7 218.85,-185.09 210.19,-178.97 208.27,-185.7"/>
</a>
</g>
</g>
<!-- Node4 -->
<g id="Node000004" class="node">
<title>Node4</title>
<g id="a_Node000004"><a xlink:href="../../de/de7/interface_deluxe_1_1_deluxe_brand_center_1_1_a_m_m_1_1_a_p_i_1_1_services_1_1_i_red_shift_service.html#a33e2ddef11c2624e5236ec8a4b17e455" target="_top" xlink:title=" ">
<polygon fill="white" stroke="#666666" points="396.88,-168 203.12,-168 203.12,-124 396.88,-124 396.88,-168"/>
<text text-anchor="start" x="211.12" y="-154.5" font-family="Helvetica,sans-Serif" font-size="10.00">Deluxe.DeluxeBrandCenter.</text>
<text text-anchor="start" x="211.12" y="-142.5" font-family="Helvetica,sans-Serif" font-size="10.00">AMM.API.Services.IRedShiftService.get</text>
<text text-anchor="middle" x="300" y="-130.5" font-family="Helvetica,sans-Serif" font-size="10.00">TopNClickRateByEmail</text>
</a>
</g>
</g>
<!-- Node1&#45;&gt;Node4 -->
<g id="edge3_Node000001_Node000004" class="edge">
<title>Node1&#45;&gt;Node4</title>
<g id="a_edge3_Node000001_Node000004"><a xlink:title=" ">
<path fill="none" stroke="#63b8ff" d="M162.57,-146C172.02,-146 181.77,-146 191.5,-146"/>
<polygon fill="#63b8ff" stroke="#63b8ff" points="191.4,-149.5 201.4,-146 191.4,-142.5 191.4,-149.5"/>
</a>
</g>
</g>
<!-- Node5 -->
<g id="Node000005" class="node">
<title>Node5</title>
<g id="a_Node000005"><a xlink:href="../../de/de7/interface_deluxe_1_1_deluxe_brand_center_1_1_a_m_m_1_1_a_p_i_1_1_services_1_1_i_red_shift_service.html#a11976377519a49f0e20a306c83a1dd8a" target="_top" xlink:title=" ">
<polygon fill="white" stroke="#666666" points="396.88,-106 203.12,-106 203.12,-62 396.88,-62 396.88,-106"/>
<text text-anchor="start" x="211.12" y="-92.5" font-family="Helvetica,sans-Serif" font-size="10.00">Deluxe.DeluxeBrandCenter.</text>
<text text-anchor="start" x="211.12" y="-80.5" font-family="Helvetica,sans-Serif" font-size="10.00">AMM.API.Services.IRedShiftService.get</text>
<text text-anchor="middle" x="300" y="-68.5" font-family="Helvetica,sans-Serif" font-size="10.00">TopNClickRateByOutboundName</text>
</a>
</g>
</g>
<!-- Node1&#45;&gt;Node5 -->
<g id="edge4_Node000001_Node000005" class="edge">
<title>Node1&#45;&gt;Node5</title>
<g id="a_edge4_Node000001_Node000005"><a xlink:title=" ">
<path fill="none" stroke="#63b8ff" d="M160.73,-123.53C176.49,-119.02 193.16,-114.26 209.26,-109.65"/>
<polygon fill="#63b8ff" stroke="#63b8ff" points="210.19,-113.03 218.85,-106.91 208.27,-106.3 210.19,-113.03"/>
</a>
</g>
</g>
<!-- Node6 -->
<g id="Node000006" class="node">
<title>Node6</title>
<g id="a_Node000006"><a xlink:href="../../de/de7/interface_deluxe_1_1_deluxe_brand_center_1_1_a_m_m_1_1_a_p_i_1_1_services_1_1_i_red_shift_service.html#a2d8a28cc2a70bbbfc0a979e7676fffcb" target="_top" xlink:title=" ">
<polygon fill="white" stroke="#666666" points="401.75,-44 198.25,-44 198.25,0 401.75,0 401.75,-44"/>
<text text-anchor="start" x="206.25" y="-30.5" font-family="Helvetica,sans-Serif" font-size="10.00">Deluxe.DeluxeBrandCenter.</text>
<text text-anchor="start" x="206.25" y="-18.5" font-family="Helvetica,sans-Serif" font-size="10.00">AMM.API.Services.IRedShiftService.get</text>
<text text-anchor="middle" x="300" y="-6.5" font-family="Helvetica,sans-Serif" font-size="10.00">TopNClickRateByOutboundScheduleName</text>
</a>
</g>
</g>
<!-- Node1&#45;&gt;Node6 -->
<g id="edge5_Node000001_Node000006" class="edge">
<title>Node1&#45;&gt;Node6</title>
<g id="a_edge5_Node000001_Node000006"><a xlink:title=" ">
<path fill="none" stroke="#63b8ff" d="M104.71,-123.54C126.85,-102.65 162.41,-71.97 198.25,-53 200.93,-51.58 203.67,-50.22 206.48,-48.91"/>
<polygon fill="#63b8ff" stroke="#63b8ff" points="207.68,-52.21 215.44,-45 204.88,-45.79 207.68,-52.21"/>
</a>
</g>
</g>
</g>
</svg>
