<?xml version="1.0" encoding="UTF-8" standalone="no"?>
<!DOCTYPE svg PUBLIC "-//W3C//DTD SVG 1.1//EN"
 "http://www.w3.org/Graphics/SVG/1.1/DTD/svg11.dtd">
<!-- Generated by graphviz version 12.1.1 (20240910.0053)
 -->
<!-- Title: Deluxe.DeluxeBrandCenter.AMM.API.Controllers.DBCController Pages: 1 -->
<svg width="486pt" height="128pt"
 viewBox="0.00 0.00 486.25 128.00" xmlns="http://www.w3.org/2000/svg" xmlns:xlink="http://www.w3.org/1999/xlink">
<g id="graph0" class="graph" transform="scale(1 1) rotate(0) translate(4 124)">
<title>Deluxe.DeluxeBrandCenter.AMM.API.Controllers.DBCController</title>
<!-- Node1 -->
<g id="Node000001" class="node">
<title>Node1</title>
<g id="a_Node000001"><a xlink:title=" ">
<polygon fill="#999999" stroke="#666666" points="478.25,-82 302.5,-82 302.5,-50 478.25,-50 478.25,-82"/>
<text text-anchor="start" x="310.5" y="-68.5" font-family="Helvetica,sans-Serif" font-size="10.00">Deluxe.DeluxeBrandCenter.</text>
<text text-anchor="middle" x="390.38" y="-56.5" font-family="Helvetica,sans-Serif" font-size="10.00">AMM.API.Controllers.DBCController</text>
</a>
</g>
</g>
<!-- Node2 -->
<g id="Node000002" class="node">
<title>Node2</title>
<g id="a_Node000002"><a xlink:title=" ">
<polygon fill="white" stroke="#666666" points="136,-120 55.5,-120 55.5,-100 136,-100 136,-120"/>
<text text-anchor="middle" x="95.75" y="-106.5" font-family="Helvetica,sans-Serif" font-size="10.00">ControllerBase</text>
</a>
</g>
</g>
<!-- Node2&#45;&gt;Node1 -->
<g id="edge1_Node000001_Node000002" class="edge">
<title>Node2&#45;&gt;Node1</title>
<g id="a_edge1_Node000001_Node000002"><a xlink:title=" ">
<path fill="none" stroke="#63b8ff" d="M147.53,-102.47C185.31,-96.86 238.13,-88.99 284.5,-82 290.24,-81.13 296.15,-80.24 302.11,-79.34"/>
<polygon fill="#63b8ff" stroke="#63b8ff" points="147.19,-98.99 137.81,-103.92 148.22,-105.91 147.19,-98.99"/>
</a>
</g>
</g>
<!-- Node3 -->
<g id="Node000003" class="node">
<title>Node3</title>
<g id="a_Node000003"><a xlink:href="../../d0/d18/interface_deluxe_1_1_deluxe_brand_center_1_1_a_m_m_1_1_a_p_i_1_1_services_1_1_i_d_b_c_service.html" target="_top" xlink:title=" ">
<polygon fill="white" stroke="#666666" points="176.12,-82 15.38,-82 15.38,-50 176.12,-50 176.12,-82"/>
<text text-anchor="start" x="23.38" y="-68.5" font-family="Helvetica,sans-Serif" font-size="10.00">Deluxe.DeluxeBrandCenter.</text>
<text text-anchor="middle" x="95.75" y="-56.5" font-family="Helvetica,sans-Serif" font-size="10.00">AMM.API.Services.IDBCService</text>
</a>
</g>
</g>
<!-- Node3&#45;&gt;Node1 -->
<g id="edge2_Node000001_Node000003" class="edge">
<title>Node3&#45;&gt;Node1</title>
<g id="a_edge2_Node000001_Node000003"><a xlink:title=" ">
<path fill="none" stroke="#9a32cd" stroke-dasharray="5,2" d="M187.47,-66C223.99,-66 265.94,-66 302.1,-66"/>
<polygon fill="#9a32cd" stroke="#9a32cd" points="187.84,-62.5 177.84,-66 187.84,-69.5 187.84,-62.5"/>
</a>
</g>
<text text-anchor="middle" x="247" y="-68.5" font-family="Helvetica,sans-Serif" font-size="10.00" fill="grey"> _dbcService</text>
</g>
<!-- Node4 -->
<g id="Node000004" class="node">
<title>Node4</title>
<g id="a_Node000004"><a xlink:href="../../dd/d7d/interface_deluxe_1_1_deluxe_brand_center_1_1_a_m_m_1_1_domain_1_1_services_1_1_i_session_service.html" target="_top" xlink:title=" ">
<polygon fill="white" stroke="#666666" points="191.5,-32 0,-32 0,0 191.5,0 191.5,-32"/>
<text text-anchor="start" x="8" y="-18.5" font-family="Helvetica,sans-Serif" font-size="10.00">Deluxe.DeluxeBrandCenter.</text>
<text text-anchor="middle" x="95.75" y="-6.5" font-family="Helvetica,sans-Serif" font-size="10.00">AMM.Domain.Services.ISessionService</text>
</a>
</g>
</g>
<!-- Node4&#45;&gt;Node1 -->
<g id="edge3_Node000001_Node000004" class="edge">
<title>Node4&#45;&gt;Node1</title>
<g id="a_edge3_Node000001_Node000004"><a xlink:title=" ">
<path fill="none" stroke="#9a32cd" stroke-dasharray="5,2" d="M202.72,-34.11C235.41,-39.69 271.01,-45.78 302.27,-51.12"/>
<polygon fill="#9a32cd" stroke="#9a32cd" points="203.7,-30.72 193.25,-32.49 202.52,-37.62 203.7,-30.72"/>
</a>
</g>
<text text-anchor="middle" x="247" y="-49.45" font-family="Helvetica,sans-Serif" font-size="10.00" fill="grey"> _sessionService</text>
</g>
</g>
</svg>
