<?xml version="1.0" encoding="UTF-8" standalone="no"?>
<!DOCTYPE svg PUBLIC "-//W3C//DTD SVG 1.1//EN"
 "http://www.w3.org/Graphics/SVG/1.1/DTD/svg11.dtd">
<!-- Generated by graphviz version 12.1.1 (20240910.0053)
 -->
<!-- Title: Deluxe.DeluxeBrandCenter.AMM.API.Services.ICampaignBuilderService Pages: 1 -->
<svg width="1414pt" height="114pt"
 viewBox="0.00 0.00 1413.75 114.00" xmlns="http://www.w3.org/2000/svg" xmlns:xlink="http://www.w3.org/1999/xlink">
<g id="graph0" class="graph" transform="scale(1 1) rotate(0) translate(4 110)">
<title>Deluxe.DeluxeBrandCenter.AMM.API.Services.ICampaignBuilderService</title>
<!-- Node1 -->
<g id="Node000001" class="node">
<title>Node1</title>
<g id="a_Node000001"><a xlink:title=" ">
<polygon fill="#999999" stroke="#666666" points="929.25,-74 749,-74 749,-30 929.25,-30 929.25,-74"/>
<text text-anchor="start" x="757" y="-60.5" font-family="Helvetica,sans-Serif" font-size="10.00">Deluxe.DeluxeBrandCenter.</text>
<text text-anchor="start" x="757" y="-48.5" font-family="Helvetica,sans-Serif" font-size="10.00">AMM.API.Services.ICampaignBuilder</text>
<text text-anchor="middle" x="839.12" y="-36.5" font-family="Helvetica,sans-Serif" font-size="10.00">Service</text>
</a>
</g>
</g>
<!-- Node5 -->
<g id="Node000005" class="node">
<title>Node5</title>
<g id="a_Node000005"><a xlink:href="../../d6/d65/class_deluxe_1_1_deluxe_brand_center_1_1_a_m_m_1_1_a_p_i_1_1_services_1_1_campaign_builder_service.html" target="_top" xlink:title=" ">
<polygon fill="white" stroke="#666666" points="1156.25,-106 979,-106 979,-62 1156.25,-62 1156.25,-106"/>
<text text-anchor="start" x="987" y="-92.5" font-family="Helvetica,sans-Serif" font-size="10.00">Deluxe.DeluxeBrandCenter.</text>
<text text-anchor="start" x="987" y="-80.5" font-family="Helvetica,sans-Serif" font-size="10.00">AMM.API.Services.CampaignBuilder</text>
<text text-anchor="middle" x="1067.62" y="-68.5" font-family="Helvetica,sans-Serif" font-size="10.00">Service</text>
</a>
</g>
</g>
<!-- Node1&#45;&gt;Node5 -->
<g id="edge4_Node000001_Node000005" class="edge">
<title>Node1&#45;&gt;Node5</title>
<g id="a_edge4_Node000001_Node000005"><a xlink:title=" ">
<path fill="none" stroke="#63b8ff" d="M940.74,-66.22C953.45,-68.01 966.38,-69.84 978.87,-71.6"/>
<polygon fill="#63b8ff" stroke="#63b8ff" points="941.53,-62.79 931.14,-64.86 940.55,-69.72 941.53,-62.79"/>
</a>
</g>
</g>
<!-- Node7 -->
<g id="Node000007" class="node">
<title>Node7</title>
<g id="a_Node000007"><a xlink:href="../../d1/d36/interface_deluxe_1_1_deluxe_brand_center_1_1_a_m_m_1_1_tests_1_1_mocks_1_1_i_mock_campaign_builder_service.html" target="_top" xlink:title=" ">
<polygon fill="white" stroke="#666666" points="1169,-44 966.25,-44 966.25,0 1169,0 1169,-44"/>
<text text-anchor="start" x="974.25" y="-30.5" font-family="Helvetica,sans-Serif" font-size="10.00">Deluxe.DeluxeBrandCenter.</text>
<text text-anchor="start" x="974.25" y="-18.5" font-family="Helvetica,sans-Serif" font-size="10.00">AMM.Tests.Mocks.IMockCampaignBuilder</text>
<text text-anchor="middle" x="1067.62" y="-6.5" font-family="Helvetica,sans-Serif" font-size="10.00">Service</text>
</a>
</g>
</g>
<!-- Node1&#45;&gt;Node7 -->
<g id="edge6_Node000001_Node000007" class="edge">
<title>Node1&#45;&gt;Node7</title>
<g id="a_edge6_Node000001_Node000007"><a xlink:title=" ">
<path fill="none" stroke="#63b8ff" d="M940.86,-38.66C949.14,-37.56 957.51,-36.45 965.79,-35.35"/>
<polygon fill="#63b8ff" stroke="#63b8ff" points="940.6,-35.16 931.14,-39.94 941.52,-42.1 940.6,-35.16"/>
</a>
</g>
</g>
<!-- Node2 -->
<g id="Node000002" class="node">
<title>Node2</title>
<g id="a_Node000002"><a xlink:href="../../d3/dac/interface_deluxe_1_1_deluxe_brand_center_1_1_a_m_m_1_1_a_p_i_1_1_services_1_1_i_named_db_service.html" target="_top" xlink:title=" ">
<polygon fill="white" stroke="#666666" points="712,-68 538.5,-68 538.5,-36 712,-36 712,-68"/>
<text text-anchor="start" x="546.5" y="-54.5" font-family="Helvetica,sans-Serif" font-size="10.00">INamedDbService&lt; UserCampaign,</text>
<text text-anchor="middle" x="625.25" y="-42.5" font-family="Helvetica,sans-Serif" font-size="10.00"> UserCampaignVM &gt;</text>
</a>
</g>
</g>
<!-- Node2&#45;&gt;Node1 -->
<g id="edge1_Node000001_Node000002" class="edge">
<title>Node2&#45;&gt;Node1</title>
<g id="a_edge1_Node000001_Node000002"><a xlink:title=" ">
<path fill="none" stroke="#63b8ff" d="M723.68,-52C731.98,-52 740.35,-52 748.58,-52"/>
<polygon fill="#63b8ff" stroke="#63b8ff" points="723.94,-48.5 713.94,-52 723.94,-55.5 723.94,-48.5"/>
</a>
</g>
</g>
<!-- Node3 -->
<g id="Node000003" class="node">
<title>Node3</title>
<g id="a_Node000003"><a xlink:href="../../d3/dac/interface_deluxe_1_1_deluxe_brand_center_1_1_a_m_m_1_1_a_p_i_1_1_services_1_1_i_named_db_service.html" target="_top" xlink:title=" ">
<polygon fill="white" stroke="#666666" points="330,-74 146.75,-74 146.75,-30 330,-30 330,-74"/>
<text text-anchor="start" x="154.75" y="-60.5" font-family="Helvetica,sans-Serif" font-size="10.00">Deluxe.DeluxeBrandCenter.</text>
<text text-anchor="start" x="154.75" y="-48.5" font-family="Helvetica,sans-Serif" font-size="10.00">AMM.API.Services.INamedDbService</text>
<text text-anchor="middle" x="238.38" y="-36.5" font-family="Helvetica,sans-Serif" font-size="10.00">&lt; TModel, TModelVM &gt;</text>
</a>
</g>
</g>
<!-- Node3&#45;&gt;Node2 -->
<g id="edge2_Node000002_Node000003" class="edge">
<title>Node3&#45;&gt;Node2</title>
<g id="a_edge2_Node000002_Node000003"><a xlink:title=" ">
<path fill="none" stroke="orange" stroke-dasharray="5,2" d="M341.35,-52C402.67,-52 479.85,-52 538.1,-52"/>
<polygon fill="orange" stroke="orange" points="341.61,-48.5 331.61,-52 341.61,-55.5 341.61,-48.5"/>
</a>
</g>
<text text-anchor="middle" x="434.25" y="-54.5" font-family="Helvetica,sans-Serif" font-size="10.00" fill="grey"> &lt; UserCampaign, UserCampaignVM &gt;</text>
</g>
<!-- Node4 -->
<g id="Node000004" class="node">
<title>Node4</title>
<g id="a_Node000004"><a xlink:href="../../d3/ddb/interface_deluxe_1_1_deluxe_brand_center_1_1_a_m_m_1_1_a_p_i_1_1_services_1_1_i_d_b_service.html" target="_top" xlink:title=" ">
<polygon fill="white" stroke="#666666" points="109.75,-68 0,-68 0,-36 109.75,-36 109.75,-68"/>
<text text-anchor="start" x="8" y="-54.5" font-family="Helvetica,sans-Serif" font-size="10.00">IDBService&lt; TModel,</text>
<text text-anchor="middle" x="54.88" y="-42.5" font-family="Helvetica,sans-Serif" font-size="10.00"> TModelVM &gt;</text>
</a>
</g>
</g>
<!-- Node4&#45;&gt;Node3 -->
<g id="edge3_Node000003_Node000004" class="edge">
<title>Node4&#45;&gt;Node3</title>
<g id="a_edge3_Node000003_Node000004"><a xlink:title=" ">
<path fill="none" stroke="#63b8ff" d="M121.25,-52C129.49,-52 138.03,-52 146.57,-52"/>
<polygon fill="#63b8ff" stroke="#63b8ff" points="121.35,-48.5 111.35,-52 121.35,-55.5 121.35,-48.5"/>
</a>
</g>
</g>
<!-- Node6 -->
<g id="Node000006" class="node">
<title>Node6</title>
<g id="a_Node000006"><a xlink:href="../../d3/d00/class_deluxe_1_1_deluxe_brand_center_1_1_a_m_m_1_1_tests_1_1_mocks_1_1_mock_campaign_builder_service.html" target="_top" xlink:title=" ">
<polygon fill="white" stroke="#666666" points="1405.75,-74 1206,-74 1206,-30 1405.75,-30 1405.75,-74"/>
<text text-anchor="start" x="1214" y="-60.5" font-family="Helvetica,sans-Serif" font-size="10.00">Deluxe.DeluxeBrandCenter.</text>
<text text-anchor="start" x="1214" y="-48.5" font-family="Helvetica,sans-Serif" font-size="10.00">AMM.Tests.Mocks.MockCampaignBuilder</text>
<text text-anchor="middle" x="1305.88" y="-36.5" font-family="Helvetica,sans-Serif" font-size="10.00">Service</text>
</a>
</g>
</g>
<!-- Node5&#45;&gt;Node6 -->
<g id="edge5_Node000005_Node000006" class="edge">
<title>Node5&#45;&gt;Node6</title>
<g id="a_edge5_Node000005_Node000006"><a xlink:title=" ">
<path fill="none" stroke="#63b8ff" d="M1167.96,-70.54C1180.45,-68.85 1193.22,-67.12 1205.7,-65.43"/>
<polygon fill="#63b8ff" stroke="#63b8ff" points="1167.54,-67.07 1158.1,-71.88 1168.47,-74.01 1167.54,-67.07"/>
</a>
</g>
</g>
<!-- Node7&#45;&gt;Node6 -->
<g id="edge7_Node000007_Node000006" class="edge">
<title>Node7&#45;&gt;Node6</title>
<g id="a_edge7_Node000007_Node000006"><a xlink:title=" ">
<path fill="none" stroke="#63b8ff" d="M1180.52,-36.21C1188.88,-37.27 1197.28,-38.34 1205.56,-39.39"/>
<polygon fill="#63b8ff" stroke="#63b8ff" points="1181.02,-32.74 1170.66,-34.96 1180.14,-39.69 1181.02,-32.74"/>
</a>
</g>
</g>
</g>
</svg>
