<?xml version="1.0" encoding="UTF-8" standalone="no"?>
<!DOCTYPE svg PUBLIC "-//W3C//DTD SVG 1.1//EN"
 "http://www.w3.org/Graphics/SVG/1.1/DTD/svg11.dtd">
<!-- Generated by graphviz version 12.1.1 (20240910.0053)
 -->
<!-- Title: Deluxe.DeluxeBrandCenter.AMM.Infrastructure.Social.TwitterService.GetSettings Pages: 1 -->
<svg width="792pt" height="362pt"
 viewBox="0.00 0.00 792.00 362.00" xmlns="http://www.w3.org/2000/svg" xmlns:xlink="http://www.w3.org/1999/xlink">
<g id="graph0" class="graph" transform="scale(1 1) rotate(0) translate(4 358)">
<title>Deluxe.DeluxeBrandCenter.AMM.Infrastructure.Social.TwitterService.GetSettings</title>
<!-- Node1 -->
<g id="Node000001" class="node">
<title>Node1</title>
<g id="a_Node000001"><a xlink:title=" ">
<polygon fill="#999999" stroke="#666666" points="784,-199 621.75,-199 621.75,-155 784,-155 784,-199"/>
<text text-anchor="start" x="629.75" y="-185.5" font-family="Helvetica,sans-Serif" font-size="10.00">Deluxe.DeluxeBrandCenter.</text>
<text text-anchor="start" x="629.75" y="-173.5" font-family="Helvetica,sans-Serif" font-size="10.00">AMM.Infrastructure.Social.Twitter</text>
<text text-anchor="middle" x="702.88" y="-161.5" font-family="Helvetica,sans-Serif" font-size="10.00">Service.GetSettings</text>
</a>
</g>
</g>
<!-- Node2 -->
<g id="Node000002" class="node">
<title>Node2</title>
<g id="a_Node000002"><a xlink:href="../../de/d3c/class_deluxe_1_1_deluxe_brand_center_1_1_a_m_m_1_1_infrastructure_1_1_social_1_1_twitter_service.html#abd1f76787e213da822fe733ccfaf9821" target="_top" xlink:title=" ">
<polygon fill="white" stroke="#666666" points="572.25,-323 410,-323 410,-279 572.25,-279 572.25,-323"/>
<text text-anchor="start" x="418" y="-309.5" font-family="Helvetica,sans-Serif" font-size="10.00">Deluxe.DeluxeBrandCenter.</text>
<text text-anchor="start" x="418" y="-297.5" font-family="Helvetica,sans-Serif" font-size="10.00">AMM.Infrastructure.Social.Twitter</text>
<text text-anchor="middle" x="491.12" y="-285.5" font-family="Helvetica,sans-Serif" font-size="10.00">Service.Authenticate</text>
</a>
</g>
</g>
<!-- Node1&#45;&gt;Node2 -->
<g id="edge1_Node000001_Node000002" class="edge">
<title>Node1&#45;&gt;Node2</title>
<g id="a_edge1_Node000001_Node000002"><a xlink:title=" ">
<path fill="none" stroke="#63b8ff" d="M654.18,-205.19C616.63,-227.39 564.99,-257.92 530.18,-278.5"/>
<polygon fill="#63b8ff" stroke="#63b8ff" points="655.76,-208.33 662.59,-200.23 652.2,-202.3 655.76,-208.33"/>
</a>
</g>
</g>
<!-- Node4 -->
<g id="Node000004" class="node">
<title>Node4</title>
<g id="a_Node000004"><a xlink:href="../../de/d3c/class_deluxe_1_1_deluxe_brand_center_1_1_a_m_m_1_1_infrastructure_1_1_social_1_1_twitter_service.html#a72e59a2a1e8ea896af7a541ca90f5823" target="_top" xlink:title=" ">
<polygon fill="white" stroke="#666666" points="585.75,-230 396.5,-230 396.5,-186 585.75,-186 585.75,-230"/>
<text text-anchor="start" x="404.5" y="-216.5" font-family="Helvetica,sans-Serif" font-size="10.00">Deluxe.DeluxeBrandCenter.</text>
<text text-anchor="start" x="404.5" y="-204.5" font-family="Helvetica,sans-Serif" font-size="10.00">AMM.Infrastructure.Social.Twitter</text>
<text text-anchor="middle" x="491.12" y="-192.5" font-family="Helvetica,sans-Serif" font-size="10.00">Service.AuthenticateWithAccountCreds</text>
</a>
</g>
</g>
<!-- Node1&#45;&gt;Node4 -->
<g id="edge3_Node000001_Node000004" class="edge">
<title>Node1&#45;&gt;Node4</title>
<g id="a_edge3_Node000001_Node000004"><a xlink:title=" ">
<path fill="none" stroke="#63b8ff" d="M610.17,-190.55C602.18,-191.73 594.08,-192.93 586.07,-194.12"/>
<polygon fill="#63b8ff" stroke="#63b8ff" points="610.5,-194.04 619.88,-189.12 609.48,-187.12 610.5,-194.04"/>
</a>
</g>
</g>
<!-- Node10 -->
<g id="Node000010" class="node">
<title>Node10</title>
<g id="a_Node000010"><a xlink:href="../../de/d3c/class_deluxe_1_1_deluxe_brand_center_1_1_a_m_m_1_1_infrastructure_1_1_social_1_1_twitter_service.html#aca01d3ff04915fe7606aebf2b03a42f7" target="_top" xlink:title=" ">
<polygon fill="white" stroke="#666666" points="572.25,-168 410,-168 410,-124 572.25,-124 572.25,-168"/>
<text text-anchor="start" x="418" y="-154.5" font-family="Helvetica,sans-Serif" font-size="10.00">Deluxe.DeluxeBrandCenter.</text>
<text text-anchor="start" x="418" y="-142.5" font-family="Helvetica,sans-Serif" font-size="10.00">AMM.Infrastructure.Social.Twitter</text>
<text text-anchor="middle" x="491.12" y="-130.5" font-family="Helvetica,sans-Serif" font-size="10.00">Service.GetProfile</text>
</a>
</g>
</g>
<!-- Node1&#45;&gt;Node10 -->
<g id="edge12_Node000001_Node000010" class="edge">
<title>Node1&#45;&gt;Node10</title>
<g id="a_edge12_Node000001_Node000010"><a xlink:title=" ">
<path fill="none" stroke="#63b8ff" d="M610.36,-163.47C597.72,-161.61 584.82,-159.7 572.4,-157.86"/>
<polygon fill="#63b8ff" stroke="#63b8ff" points="609.48,-166.88 619.88,-164.88 610.5,-159.96 609.48,-166.88"/>
</a>
</g>
</g>
<!-- Node12 -->
<g id="Node000012" class="node">
<title>Node12</title>
<g id="a_Node000012"><a xlink:href="../../de/d3c/class_deluxe_1_1_deluxe_brand_center_1_1_a_m_m_1_1_infrastructure_1_1_social_1_1_twitter_service.html#a0ab0505caaa0407cd085cf521aade6a7" target="_top" xlink:title=" ">
<polygon fill="white" stroke="#666666" points="572.25,-106 410,-106 410,-62 572.25,-62 572.25,-106"/>
<text text-anchor="start" x="418" y="-92.5" font-family="Helvetica,sans-Serif" font-size="10.00">Deluxe.DeluxeBrandCenter.</text>
<text text-anchor="start" x="418" y="-80.5" font-family="Helvetica,sans-Serif" font-size="10.00">AMM.Infrastructure.Social.Twitter</text>
<text text-anchor="middle" x="491.12" y="-68.5" font-family="Helvetica,sans-Serif" font-size="10.00">Service.GetSocailAccountInfo</text>
</a>
</g>
</g>
<!-- Node1&#45;&gt;Node12 -->
<g id="edge18_Node000001_Node000012" class="edge">
<title>Node1&#45;&gt;Node12</title>
<g id="a_edge18_Node000001_Node000012"><a xlink:title=" ">
<path fill="none" stroke="#63b8ff" d="M654.19,-149.17C633.54,-137.75 608.86,-124.91 585.75,-115 578.83,-112.03 571.52,-109.17 564.16,-106.46"/>
<polygon fill="#63b8ff" stroke="#63b8ff" points="652.22,-152.08 662.66,-153.91 655.64,-145.97 652.22,-152.08"/>
</a>
</g>
</g>
<!-- Node3 -->
<g id="Node000003" class="node">
<title>Node3</title>
<g id="a_Node000003"><a xlink:href="../../de/d3c/class_deluxe_1_1_deluxe_brand_center_1_1_a_m_m_1_1_infrastructure_1_1_social_1_1_twitter_service.html#a8879863182c5941470f63edc2e8e18f9" target="_top" xlink:title=" ">
<polygon fill="white" stroke="#666666" points="360.5,-354 198.25,-354 198.25,-310 360.5,-310 360.5,-354"/>
<text text-anchor="start" x="206.25" y="-340.5" font-family="Helvetica,sans-Serif" font-size="10.00">Deluxe.DeluxeBrandCenter.</text>
<text text-anchor="start" x="206.25" y="-328.5" font-family="Helvetica,sans-Serif" font-size="10.00">AMM.Infrastructure.Social.Twitter</text>
<text text-anchor="middle" x="279.38" y="-316.5" font-family="Helvetica,sans-Serif" font-size="10.00">Service.Auth</text>
</a>
</g>
</g>
<!-- Node2&#45;&gt;Node3 -->
<g id="edge2_Node000002_Node000003" class="edge">
<title>Node2&#45;&gt;Node3</title>
<g id="a_edge2_Node000002_Node000003"><a xlink:title=" ">
<path fill="none" stroke="#63b8ff" d="M398.61,-314.53C385.97,-316.39 373.07,-318.3 360.65,-320.14"/>
<polygon fill="#63b8ff" stroke="#63b8ff" points="398.75,-318.04 408.13,-313.12 397.73,-311.12 398.75,-318.04"/>
</a>
</g>
</g>
<!-- Node5 -->
<g id="Node000005" class="node">
<title>Node5</title>
<g id="a_Node000005"><a xlink:href="../../de/d3c/class_deluxe_1_1_deluxe_brand_center_1_1_a_m_m_1_1_infrastructure_1_1_social_1_1_twitter_service.html#a368592534732b514132595616114f332" target="_top" xlink:title=" ">
<polygon fill="white" stroke="#666666" points="360.5,-168 198.25,-168 198.25,-124 360.5,-124 360.5,-168"/>
<text text-anchor="start" x="206.25" y="-154.5" font-family="Helvetica,sans-Serif" font-size="10.00">Deluxe.DeluxeBrandCenter.</text>
<text text-anchor="start" x="206.25" y="-142.5" font-family="Helvetica,sans-Serif" font-size="10.00">AMM.Infrastructure.Social.Twitter</text>
<text text-anchor="middle" x="279.38" y="-130.5" font-family="Helvetica,sans-Serif" font-size="10.00">Service.PublishImage</text>
</a>
</g>
</g>
<!-- Node4&#45;&gt;Node5 -->
<g id="edge4_Node000004_Node000005" class="edge">
<title>Node4&#45;&gt;Node5</title>
<g id="a_edge4_Node000004_Node000005"><a xlink:title=" ">
<path fill="none" stroke="#63b8ff" d="M403.43,-182.37C387.86,-177.77 371.73,-173 356.49,-168.5"/>
<polygon fill="#63b8ff" stroke="#63b8ff" points="402.07,-185.62 412.65,-185.1 404.05,-178.91 402.07,-185.62"/>
</a>
</g>
</g>
<!-- Node7 -->
<g id="Node000007" class="node">
<title>Node7</title>
<g id="a_Node000007"><a xlink:href="../../de/d3c/class_deluxe_1_1_deluxe_brand_center_1_1_a_m_m_1_1_infrastructure_1_1_social_1_1_twitter_service.html#a7726847f0092599767b92713a87db769" target="_top" xlink:title=" ">
<polygon fill="white" stroke="#666666" points="360.5,-106 198.25,-106 198.25,-62 360.5,-62 360.5,-106"/>
<text text-anchor="start" x="206.25" y="-92.5" font-family="Helvetica,sans-Serif" font-size="10.00">Deluxe.DeluxeBrandCenter.</text>
<text text-anchor="start" x="206.25" y="-80.5" font-family="Helvetica,sans-Serif" font-size="10.00">AMM.Infrastructure.Social.Twitter</text>
<text text-anchor="middle" x="279.38" y="-68.5" font-family="Helvetica,sans-Serif" font-size="10.00">Service.PublishMessage</text>
</a>
</g>
</g>
<!-- Node4&#45;&gt;Node7 -->
<g id="edge6_Node000004_Node000007" class="edge">
<title>Node4&#45;&gt;Node7</title>
<g id="a_edge6_Node000004_Node000007"><a xlink:title=" ">
<path fill="none" stroke="#63b8ff" d="M399.94,-179.65C398.77,-178.8 397.62,-177.91 396.5,-177 371.77,-156.91 384.73,-135.7 360.5,-115 356.76,-111.8 352.65,-108.92 348.33,-106.31"/>
<polygon fill="#63b8ff" stroke="#63b8ff" points="397.81,-182.44 408.11,-184.93 401.61,-176.56 397.81,-182.44"/>
</a>
</g>
</g>
<!-- Node8 -->
<g id="Node000008" class="node">
<title>Node8</title>
<g id="a_Node000008"><a xlink:href="../../de/d3c/class_deluxe_1_1_deluxe_brand_center_1_1_a_m_m_1_1_infrastructure_1_1_social_1_1_twitter_service.html#ab01e0b274d085aaf96d3c8fe663f91a5" target="_top" xlink:title=" ">
<polygon fill="white" stroke="#666666" points="360.5,-292 198.25,-292 198.25,-248 360.5,-248 360.5,-292"/>
<text text-anchor="start" x="206.25" y="-278.5" font-family="Helvetica,sans-Serif" font-size="10.00">Deluxe.DeluxeBrandCenter.</text>
<text text-anchor="start" x="206.25" y="-266.5" font-family="Helvetica,sans-Serif" font-size="10.00">AMM.Infrastructure.Social.Twitter</text>
<text text-anchor="middle" x="279.38" y="-254.5" font-family="Helvetica,sans-Serif" font-size="10.00">Service.PublishUrl</text>
</a>
</g>
</g>
<!-- Node4&#45;&gt;Node8 -->
<g id="edge8_Node000004_Node000008" class="edge">
<title>Node4&#45;&gt;Node8</title>
<g id="a_edge8_Node000004_Node000008"><a xlink:title=" ">
<path fill="none" stroke="#63b8ff" d="M403.43,-233.63C387.86,-238.23 371.73,-243 356.49,-247.5"/>
<polygon fill="#63b8ff" stroke="#63b8ff" points="404.05,-237.09 412.65,-230.9 402.07,-230.38 404.05,-237.09"/>
</a>
</g>
</g>
<!-- Node9 -->
<g id="Node000009" class="node">
<title>Node9</title>
<g id="a_Node000009"><a xlink:href="../../de/d3c/class_deluxe_1_1_deluxe_brand_center_1_1_a_m_m_1_1_infrastructure_1_1_social_1_1_twitter_service.html#ae9a77b9a48d038a2e4054f083d43f45d" target="_top" xlink:title=" ">
<polygon fill="white" stroke="#666666" points="360.5,-230 198.25,-230 198.25,-186 360.5,-186 360.5,-230"/>
<text text-anchor="start" x="206.25" y="-216.5" font-family="Helvetica,sans-Serif" font-size="10.00">Deluxe.DeluxeBrandCenter.</text>
<text text-anchor="start" x="206.25" y="-204.5" font-family="Helvetica,sans-Serif" font-size="10.00">AMM.Infrastructure.Social.Twitter</text>
<text text-anchor="middle" x="279.38" y="-192.5" font-family="Helvetica,sans-Serif" font-size="10.00">Service.PublishVideo</text>
</a>
</g>
</g>
<!-- Node4&#45;&gt;Node9 -->
<g id="edge10_Node000004_Node000009" class="edge">
<title>Node4&#45;&gt;Node9</title>
<g id="a_edge10_Node000004_Node000009"><a xlink:title=" ">
<path fill="none" stroke="#63b8ff" d="M384.93,-208C376.89,-208 368.84,-208 360.99,-208"/>
<polygon fill="#63b8ff" stroke="#63b8ff" points="384.78,-211.5 394.78,-208 384.78,-204.5 384.78,-211.5"/>
</a>
</g>
</g>
<!-- Node6 -->
<g id="Node000006" class="node">
<title>Node6</title>
<g id="a_Node000006"><a xlink:href="../../de/d3c/class_deluxe_1_1_deluxe_brand_center_1_1_a_m_m_1_1_infrastructure_1_1_social_1_1_twitter_service.html#aebc502d4c769705eb68f12f7f3b5699a" target="_top" xlink:title=" ">
<polygon fill="white" stroke="#666666" points="162.25,-199 0,-199 0,-155 162.25,-155 162.25,-199"/>
<text text-anchor="start" x="8" y="-185.5" font-family="Helvetica,sans-Serif" font-size="10.00">Deluxe.DeluxeBrandCenter.</text>
<text text-anchor="start" x="8" y="-173.5" font-family="Helvetica,sans-Serif" font-size="10.00">AMM.Infrastructure.Social.Twitter</text>
<text text-anchor="middle" x="81.12" y="-161.5" font-family="Helvetica,sans-Serif" font-size="10.00">Service.PublishTweet</text>
</a>
</g>
</g>
<!-- Node5&#45;&gt;Node6 -->
<g id="edge5_Node000005_Node000006" class="edge">
<title>Node5&#45;&gt;Node6</title>
<g id="a_edge5_Node000005_Node000006"><a xlink:title=" ">
<path fill="none" stroke="#63b8ff" d="M186.71,-160.48C178.7,-161.75 170.62,-163.02 162.71,-164.27"/>
<polygon fill="#63b8ff" stroke="#63b8ff" points="187.16,-163.95 196.49,-158.93 186.07,-157.04 187.16,-163.95"/>
</a>
</g>
</g>
<!-- Node7&#45;&gt;Node6 -->
<g id="edge7_Node000007_Node000006" class="edge">
<title>Node7&#45;&gt;Node6</title>
<g id="a_edge7_Node000007_Node000006"><a xlink:title=" ">
<path fill="none" stroke="#63b8ff" d="M207.72,-110.78C204.51,-112.18 201.34,-113.59 198.25,-115 172.07,-127 143.53,-142.21 121.3,-154.56"/>
<polygon fill="#63b8ff" stroke="#63b8ff" points="208.85,-114.11 216.71,-107 206.13,-107.66 208.85,-114.11"/>
</a>
</g>
</g>
<!-- Node8&#45;&gt;Node6 -->
<g id="edge9_Node000008_Node000006" class="edge">
<title>Node8&#45;&gt;Node6</title>
<g id="a_edge9_Node000008_Node000006"><a xlink:title=" ">
<path fill="none" stroke="#63b8ff" d="M207.72,-243.22C204.51,-241.82 201.34,-240.41 198.25,-239 172.07,-227 143.53,-211.79 121.3,-199.44"/>
<polygon fill="#63b8ff" stroke="#63b8ff" points="206.13,-246.34 216.71,-247 208.85,-239.89 206.13,-246.34"/>
</a>
</g>
</g>
<!-- Node9&#45;&gt;Node6 -->
<g id="edge11_Node000009_Node000006" class="edge">
<title>Node9&#45;&gt;Node6</title>
<g id="a_edge11_Node000009_Node000006"><a xlink:title=" ">
<path fill="none" stroke="#63b8ff" d="M186.71,-193.52C178.7,-192.25 170.62,-190.98 162.71,-189.73"/>
<polygon fill="#63b8ff" stroke="#63b8ff" points="186.07,-196.96 196.49,-195.07 187.16,-190.05 186.07,-196.96"/>
</a>
</g>
</g>
<!-- Node10&#45;&gt;Node5 -->
<g id="edge13_Node000010_Node000005" class="edge">
<title>Node10&#45;&gt;Node5</title>
<g id="a_edge13_Node000010_Node000005"><a xlink:title=" ">
<path fill="none" stroke="#63b8ff" d="M398.23,-146C385.71,-146 372.94,-146 360.65,-146"/>
<polygon fill="#63b8ff" stroke="#63b8ff" points="398.12,-149.5 408.12,-146 398.12,-142.5 398.12,-149.5"/>
</a>
</g>
</g>
<!-- Node10&#45;&gt;Node7 -->
<g id="edge14_Node000010_Node000007" class="edge">
<title>Node10&#45;&gt;Node7</title>
<g id="a_edge14_Node000010_Node000007"><a xlink:title=" ">
<path fill="none" stroke="#63b8ff" d="M403.43,-120.37C387.86,-115.77 371.73,-111 356.49,-106.5"/>
<polygon fill="#63b8ff" stroke="#63b8ff" points="402.07,-123.62 412.65,-123.1 404.05,-116.91 402.07,-123.62"/>
</a>
</g>
</g>
<!-- Node10&#45;&gt;Node8 -->
<g id="edge15_Node000010_Node000008" class="edge">
<title>Node10&#45;&gt;Node8</title>
<g id="a_edge15_Node000010_Node000008"><a xlink:title=" ">
<path fill="none" stroke="#63b8ff" d="M400.47,-173.97C399.11,-174.94 397.79,-175.95 396.5,-177 371.77,-197.09 384.73,-218.3 360.5,-239 356.76,-242.2 352.65,-245.08 348.33,-247.69"/>
<polygon fill="#63b8ff" stroke="#63b8ff" points="402.01,-177.13 408.56,-168.8 398.24,-171.23 402.01,-177.13"/>
</a>
</g>
</g>
<!-- Node10&#45;&gt;Node9 -->
<g id="edge16_Node000010_Node000009" class="edge">
<title>Node10&#45;&gt;Node9</title>
<g id="a_edge16_Node000010_Node000009"><a xlink:title=" ">
<path fill="none" stroke="#63b8ff" d="M403.43,-171.63C387.86,-176.23 371.73,-181 356.49,-185.5"/>
<polygon fill="#63b8ff" stroke="#63b8ff" points="404.05,-175.09 412.65,-168.9 402.07,-168.38 404.05,-175.09"/>
</a>
</g>
</g>
<!-- Node11 -->
<g id="Node000011" class="node">
<title>Node11</title>
<g id="a_Node000011"><a xlink:href="../../de/d3c/class_deluxe_1_1_deluxe_brand_center_1_1_a_m_m_1_1_infrastructure_1_1_social_1_1_twitter_service.html#abf7bcf69ca6e4a59e8c11a856119cb74" target="_top" xlink:title=" ">
<polygon fill="white" stroke="#666666" points="360.5,-44 198.25,-44 198.25,0 360.5,0 360.5,-44"/>
<text text-anchor="start" x="206.25" y="-30.5" font-family="Helvetica,sans-Serif" font-size="10.00">Deluxe.DeluxeBrandCenter.</text>
<text text-anchor="start" x="206.25" y="-18.5" font-family="Helvetica,sans-Serif" font-size="10.00">AMM.Infrastructure.Social.Twitter</text>
<text text-anchor="middle" x="279.38" y="-6.5" font-family="Helvetica,sans-Serif" font-size="10.00">Service.SaveCredentials</text>
</a>
</g>
</g>
<!-- Node10&#45;&gt;Node11 -->
<g id="edge17_Node000010_Node000011" class="edge">
<title>Node10&#45;&gt;Node11</title>
<g id="a_edge17_Node000010_Node000011"><a xlink:title=" ">
<path fill="none" stroke="#63b8ff" d="M400.47,-118.03C399.11,-117.06 397.79,-116.05 396.5,-115 371.77,-94.91 384.73,-73.7 360.5,-53 356.76,-49.8 352.65,-46.92 348.33,-44.31"/>
<polygon fill="#63b8ff" stroke="#63b8ff" points="398.24,-120.77 408.56,-123.2 402.01,-114.87 398.24,-120.77"/>
</a>
</g>
</g>
</g>
</svg>
