<?xml version="1.0" encoding="UTF-8" standalone="no"?>
<!DOCTYPE svg PUBLIC "-//W3C//DTD SVG 1.1//EN"
 "http://www.w3.org/Graphics/SVG/1.1/DTD/svg11.dtd">
<!-- Generated by graphviz version 12.1.1 (20240910.0053)
 -->
<!-- Title: Deluxe.DeluxeBrandCenter.AMM.Infrastructure.Social.TwitterService.GetProfile Pages: 1 -->
<svg width="567pt" height="300pt"
 viewBox="0.00 0.00 566.75 300.00" xmlns="http://www.w3.org/2000/svg" xmlns:xlink="http://www.w3.org/1999/xlink">
<g id="graph0" class="graph" transform="scale(1 1) rotate(0) translate(4 296)">
<title>Deluxe.DeluxeBrandCenter.AMM.Infrastructure.Social.TwitterService.GetProfile</title>
<!-- Node1 -->
<g id="Node000001" class="node">
<title>Node1</title>
<g id="a_Node000001"><a xlink:title=" ">
<polygon fill="#999999" stroke="#666666" points="558.75,-168 396.5,-168 396.5,-124 558.75,-124 558.75,-168"/>
<text text-anchor="start" x="404.5" y="-154.5" font-family="Helvetica,sans-Serif" font-size="10.00">Deluxe.DeluxeBrandCenter.</text>
<text text-anchor="start" x="404.5" y="-142.5" font-family="Helvetica,sans-Serif" font-size="10.00">AMM.Infrastructure.Social.Twitter</text>
<text text-anchor="middle" x="477.62" y="-130.5" font-family="Helvetica,sans-Serif" font-size="10.00">Service.GetProfile</text>
</a>
</g>
</g>
<!-- Node2 -->
<g id="Node000002" class="node">
<title>Node2</title>
<g id="a_Node000002"><a xlink:href="../../de/d3c/class_deluxe_1_1_deluxe_brand_center_1_1_a_m_m_1_1_infrastructure_1_1_social_1_1_twitter_service.html#a368592534732b514132595616114f332" target="_top" xlink:title=" ">
<polygon fill="white" stroke="#666666" points="360.5,-292 198.25,-292 198.25,-248 360.5,-248 360.5,-292"/>
<text text-anchor="start" x="206.25" y="-278.5" font-family="Helvetica,sans-Serif" font-size="10.00">Deluxe.DeluxeBrandCenter.</text>
<text text-anchor="start" x="206.25" y="-266.5" font-family="Helvetica,sans-Serif" font-size="10.00">AMM.Infrastructure.Social.Twitter</text>
<text text-anchor="middle" x="279.38" y="-254.5" font-family="Helvetica,sans-Serif" font-size="10.00">Service.PublishImage</text>
</a>
</g>
</g>
<!-- Node1&#45;&gt;Node2 -->
<g id="edge1_Node000001_Node000002" class="edge">
<title>Node1&#45;&gt;Node2</title>
<g id="a_edge1_Node000001_Node000002"><a xlink:title=" ">
<path fill="none" stroke="#63b8ff" d="M444.91,-175.85C422.6,-195.69 391.33,-221.26 360.5,-239 355.2,-242.05 349.54,-244.92 343.78,-247.59"/>
<polygon fill="#63b8ff" stroke="#63b8ff" points="447.09,-178.6 452.17,-169.3 442.4,-173.4 447.09,-178.6"/>
</a>
</g>
</g>
<!-- Node4 -->
<g id="Node000004" class="node">
<title>Node4</title>
<g id="a_Node000004"><a xlink:href="../../de/d3c/class_deluxe_1_1_deluxe_brand_center_1_1_a_m_m_1_1_infrastructure_1_1_social_1_1_twitter_service.html#a7726847f0092599767b92713a87db769" target="_top" xlink:title=" ">
<polygon fill="white" stroke="#666666" points="360.5,-230 198.25,-230 198.25,-186 360.5,-186 360.5,-230"/>
<text text-anchor="start" x="206.25" y="-216.5" font-family="Helvetica,sans-Serif" font-size="10.00">Deluxe.DeluxeBrandCenter.</text>
<text text-anchor="start" x="206.25" y="-204.5" font-family="Helvetica,sans-Serif" font-size="10.00">AMM.Infrastructure.Social.Twitter</text>
<text text-anchor="middle" x="279.38" y="-192.5" font-family="Helvetica,sans-Serif" font-size="10.00">Service.PublishMessage</text>
</a>
</g>
</g>
<!-- Node1&#45;&gt;Node4 -->
<g id="edge3_Node000001_Node000004" class="edge">
<title>Node1&#45;&gt;Node4</title>
<g id="a_edge3_Node000001_Node000004"><a xlink:title=" ">
<path fill="none" stroke="#63b8ff" d="M394.67,-171.89C380.36,-176.41 365.58,-181.08 351.59,-185.5"/>
<polygon fill="#63b8ff" stroke="#63b8ff" points="395.57,-175.28 404.05,-168.93 393.46,-168.6 395.57,-175.28"/>
</a>
</g>
</g>
<!-- Node5 -->
<g id="Node000005" class="node">
<title>Node5</title>
<g id="a_Node000005"><a xlink:href="../../de/d3c/class_deluxe_1_1_deluxe_brand_center_1_1_a_m_m_1_1_infrastructure_1_1_social_1_1_twitter_service.html#ab01e0b274d085aaf96d3c8fe663f91a5" target="_top" xlink:title=" ">
<polygon fill="white" stroke="#666666" points="360.5,-168 198.25,-168 198.25,-124 360.5,-124 360.5,-168"/>
<text text-anchor="start" x="206.25" y="-154.5" font-family="Helvetica,sans-Serif" font-size="10.00">Deluxe.DeluxeBrandCenter.</text>
<text text-anchor="start" x="206.25" y="-142.5" font-family="Helvetica,sans-Serif" font-size="10.00">AMM.Infrastructure.Social.Twitter</text>
<text text-anchor="middle" x="279.38" y="-130.5" font-family="Helvetica,sans-Serif" font-size="10.00">Service.PublishUrl</text>
</a>
</g>
</g>
<!-- Node1&#45;&gt;Node5 -->
<g id="edge5_Node000001_Node000005" class="edge">
<title>Node1&#45;&gt;Node5</title>
<g id="a_edge5_Node000001_Node000005"><a xlink:title=" ">
<path fill="none" stroke="#63b8ff" d="M384.96,-146C376.95,-146 368.87,-146 360.96,-146"/>
<polygon fill="#63b8ff" stroke="#63b8ff" points="384.72,-149.5 394.72,-146 384.72,-142.5 384.72,-149.5"/>
</a>
</g>
</g>
<!-- Node6 -->
<g id="Node000006" class="node">
<title>Node6</title>
<g id="a_Node000006"><a xlink:href="../../de/d3c/class_deluxe_1_1_deluxe_brand_center_1_1_a_m_m_1_1_infrastructure_1_1_social_1_1_twitter_service.html#ae9a77b9a48d038a2e4054f083d43f45d" target="_top" xlink:title=" ">
<polygon fill="white" stroke="#666666" points="360.5,-106 198.25,-106 198.25,-62 360.5,-62 360.5,-106"/>
<text text-anchor="start" x="206.25" y="-92.5" font-family="Helvetica,sans-Serif" font-size="10.00">Deluxe.DeluxeBrandCenter.</text>
<text text-anchor="start" x="206.25" y="-80.5" font-family="Helvetica,sans-Serif" font-size="10.00">AMM.Infrastructure.Social.Twitter</text>
<text text-anchor="middle" x="279.38" y="-68.5" font-family="Helvetica,sans-Serif" font-size="10.00">Service.PublishVideo</text>
</a>
</g>
</g>
<!-- Node1&#45;&gt;Node6 -->
<g id="edge7_Node000001_Node000006" class="edge">
<title>Node1&#45;&gt;Node6</title>
<g id="a_edge7_Node000001_Node000006"><a xlink:title=" ">
<path fill="none" stroke="#63b8ff" d="M394.67,-120.11C380.36,-115.59 365.58,-110.92 351.59,-106.5"/>
<polygon fill="#63b8ff" stroke="#63b8ff" points="393.46,-123.4 404.05,-123.07 395.57,-116.72 393.46,-123.4"/>
</a>
</g>
</g>
<!-- Node7 -->
<g id="Node000007" class="node">
<title>Node7</title>
<g id="a_Node000007"><a xlink:href="../../de/d3c/class_deluxe_1_1_deluxe_brand_center_1_1_a_m_m_1_1_infrastructure_1_1_social_1_1_twitter_service.html#abf7bcf69ca6e4a59e8c11a856119cb74" target="_top" xlink:title=" ">
<polygon fill="white" stroke="#666666" points="360.5,-44 198.25,-44 198.25,0 360.5,0 360.5,-44"/>
<text text-anchor="start" x="206.25" y="-30.5" font-family="Helvetica,sans-Serif" font-size="10.00">Deluxe.DeluxeBrandCenter.</text>
<text text-anchor="start" x="206.25" y="-18.5" font-family="Helvetica,sans-Serif" font-size="10.00">AMM.Infrastructure.Social.Twitter</text>
<text text-anchor="middle" x="279.38" y="-6.5" font-family="Helvetica,sans-Serif" font-size="10.00">Service.SaveCredentials</text>
</a>
</g>
</g>
<!-- Node1&#45;&gt;Node7 -->
<g id="edge9_Node000001_Node000007" class="edge">
<title>Node1&#45;&gt;Node7</title>
<g id="a_edge9_Node000001_Node000007"><a xlink:title=" ">
<path fill="none" stroke="#63b8ff" d="M444.91,-116.15C422.6,-96.31 391.33,-70.74 360.5,-53 355.2,-49.95 349.54,-47.08 343.78,-44.41"/>
<polygon fill="#63b8ff" stroke="#63b8ff" points="442.4,-118.6 452.17,-122.7 447.09,-113.4 442.4,-118.6"/>
</a>
</g>
</g>
<!-- Node3 -->
<g id="Node000003" class="node">
<title>Node3</title>
<g id="a_Node000003"><a xlink:href="../../de/d3c/class_deluxe_1_1_deluxe_brand_center_1_1_a_m_m_1_1_infrastructure_1_1_social_1_1_twitter_service.html#aebc502d4c769705eb68f12f7f3b5699a" target="_top" xlink:title=" ">
<polygon fill="white" stroke="#666666" points="162.25,-199 0,-199 0,-155 162.25,-155 162.25,-199"/>
<text text-anchor="start" x="8" y="-185.5" font-family="Helvetica,sans-Serif" font-size="10.00">Deluxe.DeluxeBrandCenter.</text>
<text text-anchor="start" x="8" y="-173.5" font-family="Helvetica,sans-Serif" font-size="10.00">AMM.Infrastructure.Social.Twitter</text>
<text text-anchor="middle" x="81.12" y="-161.5" font-family="Helvetica,sans-Serif" font-size="10.00">Service.PublishTweet</text>
</a>
</g>
</g>
<!-- Node2&#45;&gt;Node3 -->
<g id="edge2_Node000002_Node000003" class="edge">
<title>Node2&#45;&gt;Node3</title>
<g id="a_edge2_Node000002_Node000003"><a xlink:title=" ">
<path fill="none" stroke="#63b8ff" d="M207.72,-243.22C204.51,-241.82 201.34,-240.41 198.25,-239 172.07,-227 143.53,-211.79 121.3,-199.44"/>
<polygon fill="#63b8ff" stroke="#63b8ff" points="206.13,-246.34 216.71,-247 208.85,-239.89 206.13,-246.34"/>
</a>
</g>
</g>
<!-- Node4&#45;&gt;Node3 -->
<g id="edge4_Node000004_Node000003" class="edge">
<title>Node4&#45;&gt;Node3</title>
<g id="a_edge4_Node000004_Node000003"><a xlink:title=" ">
<path fill="none" stroke="#63b8ff" d="M186.71,-193.52C178.7,-192.25 170.62,-190.98 162.71,-189.73"/>
<polygon fill="#63b8ff" stroke="#63b8ff" points="186.07,-196.96 196.49,-195.07 187.16,-190.05 186.07,-196.96"/>
</a>
</g>
</g>
<!-- Node5&#45;&gt;Node3 -->
<g id="edge6_Node000005_Node000003" class="edge">
<title>Node5&#45;&gt;Node3</title>
<g id="a_edge6_Node000005_Node000003"><a xlink:title=" ">
<path fill="none" stroke="#63b8ff" d="M186.71,-160.48C178.7,-161.75 170.62,-163.02 162.71,-164.27"/>
<polygon fill="#63b8ff" stroke="#63b8ff" points="187.16,-163.95 196.49,-158.93 186.07,-157.04 187.16,-163.95"/>
</a>
</g>
</g>
<!-- Node6&#45;&gt;Node3 -->
<g id="edge8_Node000006_Node000003" class="edge">
<title>Node6&#45;&gt;Node3</title>
<g id="a_edge8_Node000006_Node000003"><a xlink:title=" ">
<path fill="none" stroke="#63b8ff" d="M207.72,-110.78C204.51,-112.18 201.34,-113.59 198.25,-115 172.07,-127 143.53,-142.21 121.3,-154.56"/>
<polygon fill="#63b8ff" stroke="#63b8ff" points="208.85,-114.11 216.71,-107 206.13,-107.66 208.85,-114.11"/>
</a>
</g>
</g>
</g>
</svg>
