<?xml version="1.0" encoding="UTF-8" standalone="no"?>
<!DOCTYPE svg PUBLIC "-//W3C//DTD SVG 1.1//EN"
 "http://www.w3.org/Graphics/SVG/1.1/DTD/svg11.dtd">
<!-- Generated by graphviz version 12.1.1 (20240910.0053)
 -->
<!-- Title: Deluxe.DeluxeBrandCenter.AMM.Infrastructure.Social.TwitterService.PublishTweet Pages: 1 -->
<svg width="801pt" height="300pt"
 viewBox="0.00 0.00 801.00 300.00" xmlns="http://www.w3.org/2000/svg" xmlns:xlink="http://www.w3.org/1999/xlink">
<g id="graph0" class="graph" transform="scale(1 1) rotate(0) translate(4 296)">
<title>Deluxe.DeluxeBrandCenter.AMM.Infrastructure.Social.TwitterService.PublishTweet</title>
<!-- Node1 -->
<g id="Node000001" class="node">
<title>Node1</title>
<g id="a_Node000001"><a xlink:title=" ">
<polygon fill="#999999" stroke="#666666" points="162.25,-168 0,-168 0,-124 162.25,-124 162.25,-168"/>
<text text-anchor="start" x="8" y="-154.5" font-family="Helvetica,sans-Serif" font-size="10.00">Deluxe.DeluxeBrandCenter.</text>
<text text-anchor="start" x="8" y="-142.5" font-family="Helvetica,sans-Serif" font-size="10.00">AMM.Infrastructure.Social.Twitter</text>
<text text-anchor="middle" x="81.12" y="-130.5" font-family="Helvetica,sans-Serif" font-size="10.00">Service.PublishTweet</text>
</a>
</g>
</g>
<!-- Node2 -->
<g id="Node000002" class="node">
<title>Node2</title>
<g id="a_Node000002"><a xlink:href="../../de/d3c/class_deluxe_1_1_deluxe_brand_center_1_1_a_m_m_1_1_infrastructure_1_1_social_1_1_twitter_service.html#ad5d61c3135e433420c5e196c9276a98a" target="_top" xlink:title=" ">
<polygon fill="white" stroke="#666666" points="360.5,-292 198.25,-292 198.25,-248 360.5,-248 360.5,-292"/>
<text text-anchor="start" x="206.25" y="-278.5" font-family="Helvetica,sans-Serif" font-size="10.00">Deluxe.DeluxeBrandCenter.</text>
<text text-anchor="start" x="206.25" y="-266.5" font-family="Helvetica,sans-Serif" font-size="10.00">AMM.Infrastructure.Social.Twitter</text>
<text text-anchor="middle" x="279.38" y="-254.5" font-family="Helvetica,sans-Serif" font-size="10.00">Service.CheckTwitterCategory</text>
</a>
</g>
</g>
<!-- Node1&#45;&gt;Node2 -->
<g id="edge1_Node000001_Node000002" class="edge">
<title>Node1&#45;&gt;Node2</title>
<g id="a_edge1_Node000001_Node000002"><a xlink:title=" ">
<path fill="none" stroke="#63b8ff" d="M105.45,-168.29C127.84,-188.76 163.33,-218.9 198.25,-239 200.4,-240.24 202.62,-241.45 204.87,-242.63"/>
<polygon fill="#63b8ff" stroke="#63b8ff" points="203.09,-245.65 213.61,-246.92 206.18,-239.37 203.09,-245.65"/>
</a>
</g>
</g>
<!-- Node3 -->
<g id="Node000003" class="node">
<title>Node3</title>
<g id="a_Node000003"><a xlink:href="../../de/d3c/class_deluxe_1_1_deluxe_brand_center_1_1_a_m_m_1_1_infrastructure_1_1_social_1_1_twitter_service.html#a368592534732b514132595616114f332" target="_top" xlink:title=" ">
<polygon fill="white" stroke="#666666" points="360.5,-44 198.25,-44 198.25,0 360.5,0 360.5,-44"/>
<text text-anchor="start" x="206.25" y="-30.5" font-family="Helvetica,sans-Serif" font-size="10.00">Deluxe.DeluxeBrandCenter.</text>
<text text-anchor="start" x="206.25" y="-18.5" font-family="Helvetica,sans-Serif" font-size="10.00">AMM.Infrastructure.Social.Twitter</text>
<text text-anchor="middle" x="279.38" y="-6.5" font-family="Helvetica,sans-Serif" font-size="10.00">Service.PublishImage</text>
</a>
</g>
</g>
<!-- Node1&#45;&gt;Node3 -->
<g id="edge2_Node000001_Node000003" class="edge">
<title>Node1&#45;&gt;Node3</title>
<g id="a_edge2_Node000001_Node000003"><a xlink:title=" ">
<path fill="none" stroke="#63b8ff" d="M105.45,-123.71C127.84,-103.24 163.33,-73.1 198.25,-53 200.4,-51.76 202.62,-50.55 204.87,-49.37"/>
<polygon fill="#63b8ff" stroke="#63b8ff" points="206.18,-52.63 213.61,-45.08 203.09,-46.35 206.18,-52.63"/>
</a>
</g>
</g>
<!-- Node8 -->
<g id="Node000008" class="node">
<title>Node8</title>
<g id="a_Node000008"><a xlink:href="../../de/d3c/class_deluxe_1_1_deluxe_brand_center_1_1_a_m_m_1_1_infrastructure_1_1_social_1_1_twitter_service.html#a7726847f0092599767b92713a87db769" target="_top" xlink:title=" ">
<polygon fill="white" stroke="#666666" points="360.5,-168 198.25,-168 198.25,-124 360.5,-124 360.5,-168"/>
<text text-anchor="start" x="206.25" y="-154.5" font-family="Helvetica,sans-Serif" font-size="10.00">Deluxe.DeluxeBrandCenter.</text>
<text text-anchor="start" x="206.25" y="-142.5" font-family="Helvetica,sans-Serif" font-size="10.00">AMM.Infrastructure.Social.Twitter</text>
<text text-anchor="middle" x="279.38" y="-130.5" font-family="Helvetica,sans-Serif" font-size="10.00">Service.PublishMessage</text>
</a>
</g>
</g>
<!-- Node1&#45;&gt;Node8 -->
<g id="edge8_Node000001_Node000008" class="edge">
<title>Node1&#45;&gt;Node8</title>
<g id="a_edge8_Node000001_Node000008"><a xlink:title=" ">
<path fill="none" stroke="#63b8ff" d="M162.51,-146C170.43,-146 178.5,-146 186.52,-146"/>
<polygon fill="#63b8ff" stroke="#63b8ff" points="186.28,-149.5 196.28,-146 186.28,-142.5 186.28,-149.5"/>
</a>
</g>
</g>
<!-- Node9 -->
<g id="Node000009" class="node">
<title>Node9</title>
<g id="a_Node000009"><a xlink:href="../../de/d3c/class_deluxe_1_1_deluxe_brand_center_1_1_a_m_m_1_1_infrastructure_1_1_social_1_1_twitter_service.html#ab01e0b274d085aaf96d3c8fe663f91a5" target="_top" xlink:title=" ">
<polygon fill="white" stroke="#666666" points="360.5,-230 198.25,-230 198.25,-186 360.5,-186 360.5,-230"/>
<text text-anchor="start" x="206.25" y="-216.5" font-family="Helvetica,sans-Serif" font-size="10.00">Deluxe.DeluxeBrandCenter.</text>
<text text-anchor="start" x="206.25" y="-204.5" font-family="Helvetica,sans-Serif" font-size="10.00">AMM.Infrastructure.Social.Twitter</text>
<text text-anchor="middle" x="279.38" y="-192.5" font-family="Helvetica,sans-Serif" font-size="10.00">Service.PublishUrl</text>
</a>
</g>
</g>
<!-- Node1&#45;&gt;Node9 -->
<g id="edge11_Node000001_Node000009" class="edge">
<title>Node1&#45;&gt;Node9</title>
<g id="a_edge11_Node000001_Node000009"><a xlink:title=" ">
<path fill="none" stroke="#63b8ff" d="M153.25,-168.47C167.24,-172.89 182.02,-177.56 196.33,-182.08"/>
<polygon fill="#63b8ff" stroke="#63b8ff" points="195.13,-185.37 205.72,-185.05 197.24,-178.7 195.13,-185.37"/>
</a>
</g>
</g>
<!-- Node10 -->
<g id="Node000010" class="node">
<title>Node10</title>
<g id="a_Node000010"><a xlink:href="../../de/d3c/class_deluxe_1_1_deluxe_brand_center_1_1_a_m_m_1_1_infrastructure_1_1_social_1_1_twitter_service.html#ae9a77b9a48d038a2e4054f083d43f45d" target="_top" xlink:title=" ">
<polygon fill="white" stroke="#666666" points="360.5,-106 198.25,-106 198.25,-62 360.5,-62 360.5,-106"/>
<text text-anchor="start" x="206.25" y="-92.5" font-family="Helvetica,sans-Serif" font-size="10.00">Deluxe.DeluxeBrandCenter.</text>
<text text-anchor="start" x="206.25" y="-80.5" font-family="Helvetica,sans-Serif" font-size="10.00">AMM.Infrastructure.Social.Twitter</text>
<text text-anchor="middle" x="279.38" y="-68.5" font-family="Helvetica,sans-Serif" font-size="10.00">Service.PublishVideo</text>
</a>
</g>
</g>
<!-- Node1&#45;&gt;Node10 -->
<g id="edge14_Node000001_Node000010" class="edge">
<title>Node1&#45;&gt;Node10</title>
<g id="a_edge14_Node000001_Node000010"><a xlink:title=" ">
<path fill="none" stroke="#63b8ff" d="M153.25,-123.53C167.24,-119.11 182.02,-114.44 196.33,-109.92"/>
<polygon fill="#63b8ff" stroke="#63b8ff" points="197.24,-113.3 205.72,-106.95 195.13,-106.63 197.24,-113.3"/>
</a>
</g>
</g>
<!-- Node4 -->
<g id="Node000004" class="node">
<title>Node4</title>
<g id="a_Node000004"><a xlink:href="../../de/d3c/class_deluxe_1_1_deluxe_brand_center_1_1_a_m_m_1_1_infrastructure_1_1_social_1_1_twitter_service.html#a72e59a2a1e8ea896af7a541ca90f5823" target="_top" xlink:title=" ">
<polygon fill="white" stroke="#666666" points="590.25,-168 401,-168 401,-124 590.25,-124 590.25,-168"/>
<text text-anchor="start" x="409" y="-154.5" font-family="Helvetica,sans-Serif" font-size="10.00">Deluxe.DeluxeBrandCenter.</text>
<text text-anchor="start" x="409" y="-142.5" font-family="Helvetica,sans-Serif" font-size="10.00">AMM.Infrastructure.Social.Twitter</text>
<text text-anchor="middle" x="495.62" y="-130.5" font-family="Helvetica,sans-Serif" font-size="10.00">Service.AuthenticateWithAccountCreds</text>
</a>
</g>
</g>
<!-- Node3&#45;&gt;Node4 -->
<g id="edge3_Node000003_Node000004" class="edge">
<title>Node3&#45;&gt;Node4</title>
<g id="a_edge3_Node000003_Node000004"><a xlink:title=" ">
<path fill="none" stroke="#63b8ff" d="M348.33,-44.31C352.65,-46.92 356.76,-49.8 360.5,-53 384.73,-73.7 371.63,-95.08 396.5,-115 397.64,-115.91 398.8,-116.8 399.99,-117.65"/>
<polygon fill="#63b8ff" stroke="#63b8ff" points="397.94,-120.5 408.25,-122.93 401.71,-114.6 397.94,-120.5"/>
</a>
</g>
</g>
<!-- Node6 -->
<g id="Node000006" class="node">
<title>Node6</title>
<g id="a_Node000006"><a xlink:href="../../d5/da1/class_deluxe_1_1_deluxe_brand_center_1_1_a_m_m_1_1_domain_1_1_utility_1_1_util.html#a7bc91bfcd30f9750b066036628542fdb" target="_top" xlink:title=" ">
<polygon fill="white" stroke="#666666" points="594.75,-41 396.5,-41 396.5,-9 594.75,-9 594.75,-41"/>
<text text-anchor="start" x="404.5" y="-27.5" font-family="Helvetica,sans-Serif" font-size="10.00">Deluxe.DeluxeBrandCenter.</text>
<text text-anchor="middle" x="495.62" y="-15.5" font-family="Helvetica,sans-Serif" font-size="10.00">AMM.Domain.Utility.Util.CheckMimeType</text>
</a>
</g>
</g>
<!-- Node3&#45;&gt;Node6 -->
<g id="edge5_Node000003_Node000006" class="edge">
<title>Node3&#45;&gt;Node6</title>
<g id="a_edge5_Node000003_Node000006"><a xlink:title=" ">
<path fill="none" stroke="#63b8ff" d="M360.76,-23.13C368.59,-23.24 376.62,-23.35 384.68,-23.46"/>
<polygon fill="#63b8ff" stroke="#63b8ff" points="384.5,-26.96 394.54,-23.6 384.59,-19.96 384.5,-26.96"/>
</a>
</g>
</g>
<!-- Node7 -->
<g id="Node000007" class="node">
<title>Node7</title>
<g id="a_Node000007"><a xlink:href="../../de/d3c/class_deluxe_1_1_deluxe_brand_center_1_1_a_m_m_1_1_infrastructure_1_1_social_1_1_twitter_service.html#aca01d3ff04915fe7606aebf2b03a42f7" target="_top" xlink:title=" ">
<polygon fill="white" stroke="#666666" points="576.75,-106 414.5,-106 414.5,-62 576.75,-62 576.75,-106"/>
<text text-anchor="start" x="422.5" y="-92.5" font-family="Helvetica,sans-Serif" font-size="10.00">Deluxe.DeluxeBrandCenter.</text>
<text text-anchor="start" x="422.5" y="-80.5" font-family="Helvetica,sans-Serif" font-size="10.00">AMM.Infrastructure.Social.Twitter</text>
<text text-anchor="middle" x="495.62" y="-68.5" font-family="Helvetica,sans-Serif" font-size="10.00">Service.GetProfile</text>
</a>
</g>
</g>
<!-- Node3&#45;&gt;Node7 -->
<g id="edge6_Node000003_Node000007" class="edge">
<title>Node3&#45;&gt;Node7</title>
<g id="a_edge6_Node000003_Node000007"><a xlink:title=" ">
<path fill="none" stroke="#63b8ff" d="M358.03,-44.47C373.6,-48.98 390.06,-53.74 405.97,-58.35"/>
<polygon fill="#63b8ff" stroke="#63b8ff" points="404.85,-61.66 415.42,-61.08 406.79,-54.94 404.85,-61.66"/>
</a>
</g>
</g>
<!-- Node5 -->
<g id="Node000005" class="node">
<title>Node5</title>
<g id="a_Node000005"><a xlink:href="../../de/d3c/class_deluxe_1_1_deluxe_brand_center_1_1_a_m_m_1_1_infrastructure_1_1_social_1_1_twitter_service.html#a0e855ed9e6ee80a750077f33713840bd" target="_top" xlink:title=" ">
<polygon fill="white" stroke="#666666" points="793,-137 630.75,-137 630.75,-93 793,-93 793,-137"/>
<text text-anchor="start" x="638.75" y="-123.5" font-family="Helvetica,sans-Serif" font-size="10.00">Deluxe.DeluxeBrandCenter.</text>
<text text-anchor="start" x="638.75" y="-111.5" font-family="Helvetica,sans-Serif" font-size="10.00">AMM.Infrastructure.Social.Twitter</text>
<text text-anchor="middle" x="711.88" y="-99.5" font-family="Helvetica,sans-Serif" font-size="10.00">Service.GetSettings</text>
</a>
</g>
</g>
<!-- Node4&#45;&gt;Node5 -->
<g id="edge4_Node000004_Node000005" class="edge">
<title>Node4&#45;&gt;Node5</title>
<g id="a_edge4_Node000004_Node000005"><a xlink:title=" ">
<path fill="none" stroke="#63b8ff" d="M590.6,-132.4C600.03,-131.04 609.6,-129.65 619.01,-128.29"/>
<polygon fill="#63b8ff" stroke="#63b8ff" points="619.5,-131.76 628.89,-126.86 618.49,-124.83 619.5,-131.76"/>
</a>
</g>
</g>
<!-- Node7&#45;&gt;Node5 -->
<g id="edge7_Node000007_Node000005" class="edge">
<title>Node7&#45;&gt;Node5</title>
<g id="a_edge7_Node000007_Node000005"><a xlink:title=" ">
<path fill="none" stroke="#63b8ff" d="M577.01,-95.63C590.79,-97.62 605.19,-99.71 619.23,-101.74"/>
<polygon fill="#63b8ff" stroke="#63b8ff" points="618.5,-105.17 628.89,-103.14 619.5,-98.24 618.5,-105.17"/>
</a>
</g>
</g>
<!-- Node8&#45;&gt;Node4 -->
<g id="edge9_Node000008_Node000004" class="edge">
<title>Node8&#45;&gt;Node4</title>
<g id="a_edge9_Node000008_Node000004"><a xlink:title=" ">
<path fill="none" stroke="#63b8ff" d="M360.76,-146C370.15,-146 379.83,-146 389.49,-146"/>
<polygon fill="#63b8ff" stroke="#63b8ff" points="389.29,-149.5 399.29,-146 389.29,-142.5 389.29,-149.5"/>
</a>
</g>
</g>
<!-- Node8&#45;&gt;Node7 -->
<g id="edge10_Node000008_Node000007" class="edge">
<title>Node8&#45;&gt;Node7</title>
<g id="a_edge10_Node000008_Node000007"><a xlink:title=" ">
<path fill="none" stroke="#63b8ff" d="M358.03,-123.53C373.6,-119.02 390.06,-114.26 405.97,-109.65"/>
<polygon fill="#63b8ff" stroke="#63b8ff" points="406.79,-113.06 415.42,-106.92 404.85,-106.34 406.79,-113.06"/>
</a>
</g>
</g>
<!-- Node9&#45;&gt;Node4 -->
<g id="edge12_Node000009_Node000004" class="edge">
<title>Node9&#45;&gt;Node4</title>
<g id="a_edge12_Node000009_Node000004"><a xlink:title=" ">
<path fill="none" stroke="#63b8ff" d="M358.03,-185.53C373.6,-181.02 390.06,-176.26 405.97,-171.65"/>
<polygon fill="#63b8ff" stroke="#63b8ff" points="406.79,-175.06 415.42,-168.92 404.85,-168.34 406.79,-175.06"/>
</a>
</g>
</g>
<!-- Node9&#45;&gt;Node7 -->
<g id="edge13_Node000009_Node000007" class="edge">
<title>Node9&#45;&gt;Node7</title>
<g id="a_edge13_Node000009_Node000007"><a xlink:title=" ">
<path fill="none" stroke="#63b8ff" d="M348.33,-185.69C352.65,-183.08 356.76,-180.2 360.5,-177 384.73,-156.3 371.63,-134.92 396.5,-115 399.05,-112.96 401.73,-111.05 404.52,-109.27"/>
<polygon fill="#63b8ff" stroke="#63b8ff" points="406.08,-112.41 413.04,-104.42 402.62,-106.32 406.08,-112.41"/>
</a>
</g>
</g>
<!-- Node10&#45;&gt;Node4 -->
<g id="edge15_Node000010_Node000004" class="edge">
<title>Node10&#45;&gt;Node4</title>
<g id="a_edge15_Node000010_Node000004"><a xlink:title=" ">
<path fill="none" stroke="#63b8ff" d="M358.03,-106.47C373.6,-110.98 390.06,-115.74 405.97,-120.35"/>
<polygon fill="#63b8ff" stroke="#63b8ff" points="404.85,-123.66 415.42,-123.08 406.79,-116.94 404.85,-123.66"/>
</a>
</g>
</g>
<!-- Node10&#45;&gt;Node6 -->
<g id="edge16_Node000010_Node000006" class="edge">
<title>Node10&#45;&gt;Node6</title>
<g id="a_edge16_Node000010_Node000006"><a xlink:title=" ">
<path fill="none" stroke="#63b8ff" d="M360.76,-61.86C381.5,-56.15 403.67,-50.05 423.88,-44.48"/>
<polygon fill="#63b8ff" stroke="#63b8ff" points="424.71,-47.88 433.42,-41.85 422.85,-41.14 424.71,-47.88"/>
</a>
</g>
</g>
<!-- Node10&#45;&gt;Node7 -->
<g id="edge17_Node000010_Node000007" class="edge">
<title>Node10&#45;&gt;Node7</title>
<g id="a_edge17_Node000010_Node000007"><a xlink:title=" ">
<path fill="none" stroke="#63b8ff" d="M360.76,-84C374.54,-84 388.94,-84 402.98,-84"/>
<polygon fill="#63b8ff" stroke="#63b8ff" points="402.63,-87.5 412.63,-84 402.63,-80.5 402.63,-87.5"/>
</a>
</g>
</g>
</g>
</svg>
