<?xml version="1.0" encoding="UTF-8" standalone="no"?>
<!DOCTYPE svg PUBLIC "-//W3C//DTD SVG 1.1//EN"
 "http://www.w3.org/Graphics/SVG/1.1/DTD/svg11.dtd">
<!-- Generated by graphviz version 12.1.1 (20240910.0053)
 -->
<!-- Title: Deluxe.DeluxeBrandCenter.AMM.API.Services.IDBService.Single Pages: 1 -->
<svg width="1101pt" height="257pt"
 viewBox="0.00 0.00 1101.25 257.00" xmlns="http://www.w3.org/2000/svg" xmlns:xlink="http://www.w3.org/1999/xlink">
<g id="graph0" class="graph" transform="scale(1 1) rotate(0) translate(4 253)">
<title>Deluxe.DeluxeBrandCenter.AMM.API.Services.IDBService.Single</title>
<!-- Node1 -->
<g id="Node000001" class="node">
<title>Node1</title>
<g id="a_Node000001"><a xlink:title=" ">
<polygon fill="#999999" stroke="#666666" points="1093.25,-112 910,-112 910,-80 1093.25,-80 1093.25,-112"/>
<text text-anchor="start" x="918" y="-98.5" font-family="Helvetica,sans-Serif" font-size="10.00">Deluxe.DeluxeBrandCenter.</text>
<text text-anchor="middle" x="1001.62" y="-86.5" font-family="Helvetica,sans-Serif" font-size="10.00">AMM.API.Services.IDBService.Single</text>
</a>
</g>
</g>
<!-- Node2 -->
<g id="Node000002" class="node">
<title>Node2</title>
<g id="a_Node000002"><a xlink:href="../../d6/d65/class_deluxe_1_1_deluxe_brand_center_1_1_a_m_m_1_1_a_p_i_1_1_services_1_1_campaign_builder_service.html#a1ad8120183764df0a34c58257d7a91b9" target="_top" xlink:title=" ">
<polygon fill="white" stroke="#666666" points="860.5,-211 683.25,-211 683.25,-167 860.5,-167 860.5,-211"/>
<text text-anchor="start" x="691.25" y="-197.5" font-family="Helvetica,sans-Serif" font-size="10.00">Deluxe.DeluxeBrandCenter.</text>
<text text-anchor="start" x="691.25" y="-185.5" font-family="Helvetica,sans-Serif" font-size="10.00">AMM.API.Services.CampaignBuilder</text>
<text text-anchor="middle" x="771.88" y="-173.5" font-family="Helvetica,sans-Serif" font-size="10.00">Service.AddEditorFields</text>
</a>
</g>
</g>
<!-- Node1&#45;&gt;Node2 -->
<g id="edge1_Node000001_Node000002" class="edge">
<title>Node1&#45;&gt;Node2</title>
<g id="a_edge1_Node000001_Node000002"><a xlink:title=" ">
<path fill="none" stroke="#63b8ff" d="M960.51,-117.66C935.97,-130.41 903.68,-146.27 874,-158 866.49,-160.97 858.57,-163.83 850.61,-166.54"/>
<polygon fill="#63b8ff" stroke="#63b8ff" points="961.96,-120.86 969.19,-113.12 958.71,-114.66 961.96,-120.86"/>
</a>
</g>
</g>
<!-- Node8 -->
<g id="Node000008" class="node">
<title>Node8</title>
<g id="a_Node000008"><a xlink:href="../../d8/d0b/class_deluxe_1_1_deluxe_brand_center_1_1_a_m_m_1_1_a_p_i_1_1_services_1_1_user_campaign_service.html#aded739d67eedc332d45dbba0d8a95f0a" target="_top" xlink:title=" ">
<polygon fill="white" stroke="#666666" points="874,-149 669.75,-149 669.75,-105 874,-105 874,-149"/>
<text text-anchor="start" x="677.75" y="-135.5" font-family="Helvetica,sans-Serif" font-size="10.00">Deluxe.DeluxeBrandCenter.</text>
<text text-anchor="start" x="677.75" y="-123.5" font-family="Helvetica,sans-Serif" font-size="10.00">AMM.API.Services.UserCampaignService.</text>
<text text-anchor="middle" x="771.88" y="-111.5" font-family="Helvetica,sans-Serif" font-size="10.00">CampaignDetails</text>
</a>
</g>
</g>
<!-- Node1&#45;&gt;Node8 -->
<g id="edge8_Node000001_Node000008" class="edge">
<title>Node1&#45;&gt;Node8</title>
<g id="a_edge8_Node000001_Node000008"><a xlink:title=" ">
<path fill="none" stroke="#63b8ff" d="M898.35,-109.92C890.33,-111.01 882.22,-112.12 874.21,-113.21"/>
<polygon fill="#63b8ff" stroke="#63b8ff" points="898.69,-113.41 908.13,-108.59 897.75,-106.47 898.69,-113.41"/>
</a>
</g>
</g>
<!-- Node9 -->
<g id="Node000009" class="node">
<title>Node9</title>
<g id="a_Node000009"><a xlink:href="../../d6/d65/class_deluxe_1_1_deluxe_brand_center_1_1_a_m_m_1_1_a_p_i_1_1_services_1_1_campaign_builder_service.html#a6703c8b60de403fb70c7b691d4d7c2a9" target="_top" xlink:title=" ">
<polygon fill="white" stroke="#666666" points="860.5,-87 683.25,-87 683.25,-43 860.5,-43 860.5,-87"/>
<text text-anchor="start" x="691.25" y="-73.5" font-family="Helvetica,sans-Serif" font-size="10.00">Deluxe.DeluxeBrandCenter.</text>
<text text-anchor="start" x="691.25" y="-61.5" font-family="Helvetica,sans-Serif" font-size="10.00">AMM.API.Services.CampaignBuilder</text>
<text text-anchor="middle" x="771.88" y="-49.5" font-family="Helvetica,sans-Serif" font-size="10.00">Service.MapUserCampaignToXML</text>
</a>
</g>
</g>
<!-- Node1&#45;&gt;Node9 -->
<g id="edge9_Node000001_Node000009" class="edge">
<title>Node1&#45;&gt;Node9</title>
<g id="a_edge9_Node000001_Node000009"><a xlink:title=" ">
<path fill="none" stroke="#63b8ff" d="M898.6,-82.11C885.97,-80.39 873.15,-78.65 860.76,-76.96"/>
<polygon fill="#63b8ff" stroke="#63b8ff" points="897.75,-85.53 908.13,-83.41 898.69,-78.59 897.75,-85.53"/>
</a>
</g>
</g>
<!-- Node12 -->
<g id="Node000012" class="node">
<title>Node12</title>
<g id="a_Node000012"><a xlink:href="../../d6/d65/class_deluxe_1_1_deluxe_brand_center_1_1_a_m_m_1_1_a_p_i_1_1_services_1_1_campaign_builder_service.html#a38066e3d8c523305fc157d5169d0abd1" target="_top" xlink:title=" ">
<polygon fill="white" stroke="#666666" points="393.88,-44 216.62,-44 216.62,0 393.88,0 393.88,-44"/>
<text text-anchor="start" x="224.62" y="-30.5" font-family="Helvetica,sans-Serif" font-size="10.00">Deluxe.DeluxeBrandCenter.</text>
<text text-anchor="start" x="224.62" y="-18.5" font-family="Helvetica,sans-Serif" font-size="10.00">AMM.API.Services.CampaignBuilder</text>
<text text-anchor="middle" x="305.25" y="-6.5" font-family="Helvetica,sans-Serif" font-size="10.00">Service.UpdateContentUrls</text>
</a>
</g>
</g>
<!-- Node1&#45;&gt;Node12 -->
<g id="edge13_Node000001_Node000012" class="edge">
<title>Node1&#45;&gt;Node12</title>
<g id="a_edge13_Node000001_Node000012"><a xlink:title=" ">
<path fill="none" stroke="#63b8ff" d="M966.1,-73.98C941.49,-59.58 907.03,-42.02 874,-34 708.26,6.25 507.25,-2.42 394.33,-12.27"/>
<polygon fill="#63b8ff" stroke="#63b8ff" points="964.01,-76.8 974.39,-78.93 967.6,-70.8 964.01,-76.8"/>
</a>
</g>
</g>
<!-- Node3 -->
<g id="Node000003" class="node">
<title>Node3</title>
<g id="a_Node000003"><a xlink:href="../../d6/d65/class_deluxe_1_1_deluxe_brand_center_1_1_a_m_m_1_1_a_p_i_1_1_services_1_1_campaign_builder_service.html#a266bed18cfff1ca8655d571f811db2e5" target="_top" xlink:title=" ">
<polygon fill="white" stroke="#666666" points="622.88,-249 441.88,-249 441.88,-205 622.88,-205 622.88,-249"/>
<text text-anchor="start" x="449.88" y="-235.5" font-family="Helvetica,sans-Serif" font-size="10.00">Deluxe.DeluxeBrandCenter.</text>
<text text-anchor="start" x="449.88" y="-223.5" font-family="Helvetica,sans-Serif" font-size="10.00">AMM.API.Services.CampaignBuilder</text>
<text text-anchor="middle" x="532.38" y="-211.5" font-family="Helvetica,sans-Serif" font-size="10.00">Service.MapXMLToDirectMailElement</text>
</a>
</g>
</g>
<!-- Node2&#45;&gt;Node3 -->
<g id="edge2_Node000002_Node000003" class="edge">
<title>Node2&#45;&gt;Node3</title>
<g id="a_edge2_Node000002_Node000003"><a xlink:title=" ">
<path fill="none" stroke="#63b8ff" d="M671.75,-204.86C655.69,-207.43 639.14,-210.08 623.32,-212.61"/>
<polygon fill="#63b8ff" stroke="#63b8ff" points="671.96,-208.37 681.28,-203.33 670.85,-201.46 671.96,-208.37"/>
</a>
</g>
</g>
<!-- Node7 -->
<g id="Node000007" class="node">
<title>Node7</title>
<g id="a_Node000007"><a xlink:href="../../d6/d65/class_deluxe_1_1_deluxe_brand_center_1_1_a_m_m_1_1_a_p_i_1_1_services_1_1_campaign_builder_service.html#af629a897fd36af8802d6d7406ffcc7eb" target="_top" xlink:title=" ">
<polygon fill="white" stroke="#666666" points="621,-187 443.75,-187 443.75,-143 621,-143 621,-187"/>
<text text-anchor="start" x="451.75" y="-173.5" font-family="Helvetica,sans-Serif" font-size="10.00">Deluxe.DeluxeBrandCenter.</text>
<text text-anchor="start" x="451.75" y="-161.5" font-family="Helvetica,sans-Serif" font-size="10.00">AMM.API.Services.CampaignBuilder</text>
<text text-anchor="middle" x="532.38" y="-149.5" font-family="Helvetica,sans-Serif" font-size="10.00">Service.MapXMLToEmailElement</text>
</a>
</g>
</g>
<!-- Node2&#45;&gt;Node7 -->
<g id="edge6_Node000002_Node000007" class="edge">
<title>Node2&#45;&gt;Node7</title>
<g id="a_edge6_Node000002_Node000007"><a xlink:title=" ">
<path fill="none" stroke="#63b8ff" d="M671.37,-178.95C654.76,-177.27 637.63,-175.54 621.33,-173.89"/>
<polygon fill="#63b8ff" stroke="#63b8ff" points="670.97,-182.42 681.27,-179.95 671.67,-175.46 670.97,-182.42"/>
</a>
</g>
</g>
<!-- Node4 -->
<g id="Node000004" class="node">
<title>Node4</title>
<g id="a_Node000004"><a xlink:href="../../d6/d65/class_deluxe_1_1_deluxe_brand_center_1_1_a_m_m_1_1_a_p_i_1_1_services_1_1_campaign_builder_service.html#ad283235567b856b4e70d91da2bbeca0e" target="_top" xlink:title=" ">
<polygon fill="white" stroke="#666666" points="395,-187 215.5,-187 215.5,-143 395,-143 395,-187"/>
<text text-anchor="start" x="223.5" y="-173.5" font-family="Helvetica,sans-Serif" font-size="10.00">Deluxe.DeluxeBrandCenter.</text>
<text text-anchor="start" x="223.5" y="-161.5" font-family="Helvetica,sans-Serif" font-size="10.00">AMM.API.Services.CampaignBuilder</text>
<text text-anchor="middle" x="305.25" y="-149.5" font-family="Helvetica,sans-Serif" font-size="10.00">Service.MapXMLtoCampaignElement</text>
</a>
</g>
</g>
<!-- Node3&#45;&gt;Node4 -->
<g id="edge3_Node000003_Node000004" class="edge">
<title>Node3&#45;&gt;Node4</title>
<g id="a_edge3_Node000003_Node000004"><a xlink:title=" ">
<path fill="none" stroke="#63b8ff" d="M438.81,-201.51C421.94,-196.86 404.46,-192.05 387.94,-187.5"/>
<polygon fill="#63b8ff" stroke="#63b8ff" points="437.75,-204.85 448.32,-204.13 439.61,-198.1 437.75,-204.85"/>
</a>
</g>
</g>
<!-- Node5 -->
<g id="Node000005" class="node">
<title>Node5</title>
<g id="a_Node000005"><a xlink:href="../../d6/d65/class_deluxe_1_1_deluxe_brand_center_1_1_a_m_m_1_1_a_p_i_1_1_services_1_1_campaign_builder_service.html#a57435ae2fe593aa7ce835a599a8cb799" target="_top" xlink:title=" ">
<polygon fill="white" stroke="#666666" points="178.38,-187 1.12,-187 1.12,-143 178.38,-143 178.38,-187"/>
<text text-anchor="start" x="9.12" y="-173.5" font-family="Helvetica,sans-Serif" font-size="10.00">Deluxe.DeluxeBrandCenter.</text>
<text text-anchor="start" x="9.12" y="-161.5" font-family="Helvetica,sans-Serif" font-size="10.00">AMM.API.Services.CampaignBuilder</text>
<text text-anchor="middle" x="89.75" y="-149.5" font-family="Helvetica,sans-Serif" font-size="10.00">Service.GetCampaign</text>
</a>
</g>
</g>
<!-- Node4&#45;&gt;Node5 -->
<g id="edge4_Node000004_Node000005" class="edge">
<title>Node4&#45;&gt;Node5</title>
<g id="a_edge4_Node000004_Node000005"><a xlink:title=" ">
<path fill="none" stroke="#63b8ff" d="M203.81,-165C195.38,-165 186.9,-165 178.57,-165"/>
<polygon fill="#63b8ff" stroke="#63b8ff" points="203.74,-168.5 213.74,-165 203.74,-161.5 203.74,-168.5"/>
</a>
</g>
</g>
<!-- Node6 -->
<g id="Node000006" class="node">
<title>Node6</title>
<g id="a_Node000006"><a xlink:href="../../d6/d65/class_deluxe_1_1_deluxe_brand_center_1_1_a_m_m_1_1_a_p_i_1_1_services_1_1_campaign_builder_service.html#a04a2bdc2d02130bbd00f6b00406563d4" target="_top" xlink:title=" ">
<polygon fill="white" stroke="#666666" points="179.5,-94 0,-94 0,-50 179.5,-50 179.5,-94"/>
<text text-anchor="start" x="8" y="-80.5" font-family="Helvetica,sans-Serif" font-size="10.00">Deluxe.DeluxeBrandCenter.</text>
<text text-anchor="start" x="8" y="-68.5" font-family="Helvetica,sans-Serif" font-size="10.00">AMM.API.Services.CampaignBuilder</text>
<text text-anchor="middle" x="89.75" y="-56.5" font-family="Helvetica,sans-Serif" font-size="10.00">Service.UpdateNameAndContentUrls</text>
</a>
</g>
</g>
<!-- Node4&#45;&gt;Node6 -->
<g id="edge5_Node000004_Node000006" class="edge">
<title>Node4&#45;&gt;Node6</title>
<g id="a_edge5_Node000004_Node000006"><a xlink:title=" ">
<path fill="none" stroke="#63b8ff" d="M239.24,-138.14C231.23,-134.76 223.17,-131.32 215.5,-128 190.44,-117.16 162.73,-104.75 139.79,-94.38"/>
<polygon fill="#63b8ff" stroke="#63b8ff" points="237.74,-141.3 248.31,-141.95 240.45,-134.85 237.74,-141.3"/>
</a>
</g>
</g>
<!-- Node7&#45;&gt;Node4 -->
<g id="edge7_Node000007_Node000004" class="edge">
<title>Node7&#45;&gt;Node4</title>
<g id="a_edge7_Node000007_Node000004"><a xlink:title=" ">
<path fill="none" stroke="#63b8ff" d="M432.18,-165C419.9,-165 407.41,-165 395.31,-165"/>
<polygon fill="#63b8ff" stroke="#63b8ff" points="431.86,-168.5 441.86,-165 431.85,-161.5 431.86,-168.5"/>
</a>
</g>
</g>
<!-- Node10 -->
<g id="Node000010" class="node">
<title>Node10</title>
<g id="a_Node000010"><a xlink:href="../../d6/d65/class_deluxe_1_1_deluxe_brand_center_1_1_a_m_m_1_1_a_p_i_1_1_services_1_1_campaign_builder_service.html#ab302b4e7e24055c5859436dea04b8f65" target="_top" xlink:title=" ">
<polygon fill="white" stroke="#666666" points="633.75,-125 431,-125 431,-81 633.75,-81 633.75,-125"/>
<text text-anchor="start" x="439" y="-111.5" font-family="Helvetica,sans-Serif" font-size="10.00">Deluxe.DeluxeBrandCenter.</text>
<text text-anchor="start" x="439" y="-99.5" font-family="Helvetica,sans-Serif" font-size="10.00">AMM.API.Services.CampaignBuilder</text>
<text text-anchor="middle" x="532.38" y="-87.5" font-family="Helvetica,sans-Serif" font-size="10.00">Service.LaunchAlreadyLaunchedCampaign</text>
</a>
</g>
</g>
<!-- Node9&#45;&gt;Node10 -->
<g id="edge10_Node000009_Node000010" class="edge">
<title>Node9&#45;&gt;Node10</title>
<g id="a_edge10_Node000009_Node000010"><a xlink:title=" ">
<path fill="none" stroke="#63b8ff" d="M671.52,-80.9C659.17,-82.87 646.52,-84.9 634.14,-86.88"/>
<polygon fill="#63b8ff" stroke="#63b8ff" points="671.96,-84.37 681.28,-79.33 670.85,-77.46 671.96,-84.37"/>
</a>
</g>
</g>
<!-- Node11 -->
<g id="Node000011" class="node">
<title>Node11</title>
<g id="a_Node000011"><a xlink:href="../../d6/d65/class_deluxe_1_1_deluxe_brand_center_1_1_a_m_m_1_1_a_p_i_1_1_services_1_1_campaign_builder_service.html#a947f982ab93bc77b7199c9aa69ae3628" target="_top" xlink:title=" ">
<polygon fill="white" stroke="#666666" points="393.88,-119 216.62,-119 216.62,-75 393.88,-75 393.88,-119"/>
<text text-anchor="start" x="224.62" y="-105.5" font-family="Helvetica,sans-Serif" font-size="10.00">Deluxe.DeluxeBrandCenter.</text>
<text text-anchor="start" x="224.62" y="-93.5" font-family="Helvetica,sans-Serif" font-size="10.00">AMM.API.Services.CampaignBuilder</text>
<text text-anchor="middle" x="305.25" y="-81.5" font-family="Helvetica,sans-Serif" font-size="10.00">Service.LaunchCampaign</text>
</a>
</g>
</g>
<!-- Node9&#45;&gt;Node11 -->
<g id="edge12_Node000009_Node000011" class="edge">
<title>Node9&#45;&gt;Node11</title>
<g id="a_edge12_Node000009_Node000011"><a xlink:title=" ">
<path fill="none" stroke="#63b8ff" d="M671.81,-62.43C603.85,-61.79 511.72,-63.15 431,-72 419.03,-73.31 406.51,-75.2 394.2,-77.35"/>
<polygon fill="#63b8ff" stroke="#63b8ff" points="671.38,-65.92 681.41,-62.53 671.45,-58.92 671.38,-65.92"/>
</a>
</g>
</g>
<!-- Node10&#45;&gt;Node11 -->
<g id="edge11_Node000010_Node000011" class="edge">
<title>Node10&#45;&gt;Node11</title>
<g id="a_edge11_Node000010_Node000011"><a xlink:title=" ">
<path fill="none" stroke="#63b8ff" d="M419.21,-100.01C410.8,-99.79 402.39,-99.56 394.16,-99.34"/>
<polygon fill="#63b8ff" stroke="#63b8ff" points="419.06,-103.51 429.15,-100.28 419.25,-96.51 419.06,-103.51"/>
</a>
</g>
</g>
<!-- Node12&#45;&gt;Node6 -->
<g id="edge14_Node000012_Node000006" class="edge">
<title>Node12&#45;&gt;Node6</title>
<g id="a_edge14_Node000012_Node000006"><a xlink:title=" ">
<path fill="none" stroke="#63b8ff" d="M205.19,-45.2C196.78,-47.17 188.32,-49.15 180,-51.1"/>
<polygon fill="#63b8ff" stroke="#63b8ff" points="205.77,-48.66 214.71,-42.97 204.17,-41.84 205.77,-48.66"/>
</a>
</g>
</g>
</g>
</svg>
