<?xml version="1.0" encoding="UTF-8" standalone="no"?>
<!DOCTYPE svg PUBLIC "-//W3C//DTD SVG 1.1//EN"
 "http://www.w3.org/Graphics/SVG/1.1/DTD/svg11.dtd">
<!-- Generated by graphviz version 12.1.1 (20240910.0053)
 -->
<!-- Title: Deluxe.DeluxeBrandCenter.AMM.Infrastructure.Salesforce.SalesforceService.GetGetSalesForceContacts Pages: 1 -->
<svg width="915pt" height="138pt"
 viewBox="0.00 0.00 915.00 137.82" xmlns="http://www.w3.org/2000/svg" xmlns:xlink="http://www.w3.org/1999/xlink">
<g id="graph0" class="graph" transform="scale(1 1) rotate(0) translate(4 133.82)">
<title>Deluxe.DeluxeBrandCenter.AMM.Infrastructure.Salesforce.SalesforceService.GetGetSalesForceContacts</title>
<!-- Node1 -->
<g id="Node000001" class="node">
<title>Node1</title>
<g id="a_Node000001"><a xlink:title=" ">
<polygon fill="#999999" stroke="#666666" points="219.25,-128 0,-128 0,-84 219.25,-84 219.25,-128"/>
<text text-anchor="start" x="8" y="-114.5" font-family="Helvetica,sans-Serif" font-size="10.00">Deluxe.DeluxeBrandCenter.</text>
<text text-anchor="start" x="8" y="-102.5" font-family="Helvetica,sans-Serif" font-size="10.00">AMM.Infrastructure.Salesforce.</text>
<text text-anchor="middle" x="109.62" y="-90.5" font-family="Helvetica,sans-Serif" font-size="10.00">SalesforceService.GetGetSalesForceContacts</text>
</a>
</g>
</g>
<!-- Node2 -->
<g id="Node000002" class="node">
<title>Node2</title>
<g id="a_Node000002"><a xlink:href="../../dd/d92/class_deluxe_1_1_deluxe_brand_center_1_1_a_m_m_1_1_infrastructure_1_1_salesforce_1_1_salesforce_service.html#a5b7d917413ae920287ea54d3a83443f0" target="_top" xlink:title=" ">
<polygon fill="white" stroke="#666666" points="907,-100 728.25,-100 728.25,-56 907,-56 907,-100"/>
<text text-anchor="start" x="736.25" y="-86.5" font-family="Helvetica,sans-Serif" font-size="10.00">Deluxe.DeluxeBrandCenter.</text>
<text text-anchor="start" x="736.25" y="-74.5" font-family="Helvetica,sans-Serif" font-size="10.00">AMM.Infrastructure.Salesforce.</text>
<text text-anchor="middle" x="817.62" y="-62.5" font-family="Helvetica,sans-Serif" font-size="10.00">SalesforceService.EncodeInputString</text>
</a>
</g>
</g>
<!-- Node1&#45;&gt;Node2 -->
<g id="edge1_Node000001_Node000002" class="edge">
<title>Node1&#45;&gt;Node2</title>
<g id="a_edge1_Node000001_Node000002"><a xlink:title=" ">
<path fill="none" stroke="#63b8ff" d="M219.56,-117.99C336.93,-128.52 528.86,-138.79 692.25,-115 709.07,-112.55 726.79,-108.33 743.4,-103.59"/>
<polygon fill="#63b8ff" stroke="#63b8ff" points="744.09,-107.04 752.69,-100.85 742.11,-100.33 744.09,-107.04"/>
</a>
</g>
</g>
<!-- Node3 -->
<g id="Node000003" class="node">
<title>Node3</title>
<g id="a_Node000003"><a xlink:href="../../dd/d92/class_deluxe_1_1_deluxe_brand_center_1_1_a_m_m_1_1_infrastructure_1_1_salesforce_1_1_salesforce_service.html#ac500637f30b3f28050ae6ddf7708ff76" target="_top" xlink:title=" ">
<polygon fill="white" stroke="#666666" points="453.5,-106 255.25,-106 255.25,-50 453.5,-50 453.5,-106"/>
<text text-anchor="start" x="263.25" y="-92.5" font-family="Helvetica,sans-Serif" font-size="10.00">Deluxe.DeluxeBrandCenter.</text>
<text text-anchor="start" x="263.25" y="-80.5" font-family="Helvetica,sans-Serif" font-size="10.00">AMM.Infrastructure.Salesforce.</text>
<text text-anchor="start" x="263.25" y="-68.5" font-family="Helvetica,sans-Serif" font-size="10.00">SalesforceService.GetCustomFieldWhere</text>
<text text-anchor="middle" x="354.38" y="-56.5" font-family="Helvetica,sans-Serif" font-size="10.00">Expression</text>
</a>
</g>
</g>
<!-- Node1&#45;&gt;Node3 -->
<g id="edge2_Node000001_Node000003" class="edge">
<title>Node1&#45;&gt;Node3</title>
<g id="a_edge2_Node000001_Node000003"><a xlink:title=" ">
<path fill="none" stroke="#63b8ff" d="M219.57,-93.43C227.54,-92.51 235.58,-91.59 243.55,-90.67"/>
<polygon fill="#63b8ff" stroke="#63b8ff" points="243.73,-94.17 253.26,-89.55 242.93,-87.22 243.73,-94.17"/>
</a>
</g>
</g>
<!-- Node4 -->
<g id="Node000004" class="node">
<title>Node4</title>
<g id="a_Node000004"><a xlink:href="../../dd/d92/class_deluxe_1_1_deluxe_brand_center_1_1_a_m_m_1_1_infrastructure_1_1_salesforce_1_1_salesforce_service.html#a02fbf95c7dbea1af18f738f8ede2d60f" target="_top" xlink:title=" ">
<polygon fill="white" stroke="#666666" points="692.25,-106 489.5,-106 489.5,-62 692.25,-62 692.25,-106"/>
<text text-anchor="start" x="497.5" y="-92.5" font-family="Helvetica,sans-Serif" font-size="10.00">Deluxe.DeluxeBrandCenter.</text>
<text text-anchor="start" x="497.5" y="-80.5" font-family="Helvetica,sans-Serif" font-size="10.00">AMM.Infrastructure.Salesforce.</text>
<text text-anchor="middle" x="590.88" y="-68.5" font-family="Helvetica,sans-Serif" font-size="10.00">SalesforceService.GetCustomFieldsAdmin</text>
</a>
</g>
</g>
<!-- Node3&#45;&gt;Node4 -->
<g id="edge3_Node000003_Node000004" class="edge">
<title>Node3&#45;&gt;Node4</title>
<g id="a_edge3_Node000003_Node000004"><a xlink:title=" ">
<path fill="none" stroke="#63b8ff" d="M453.8,-80.52C461.73,-80.72 469.77,-80.93 477.78,-81.13"/>
<polygon fill="#63b8ff" stroke="#63b8ff" points="477.46,-84.62 487.55,-81.38 477.64,-77.63 477.46,-84.62"/>
</a>
</g>
</g>
<!-- Node5 -->
<g id="Node000005" class="node">
<title>Node5</title>
<g id="a_Node000005"><a xlink:href="../../dd/d92/class_deluxe_1_1_deluxe_brand_center_1_1_a_m_m_1_1_infrastructure_1_1_salesforce_1_1_salesforce_service.html#ad611be5a6846250696dc849dee5ab44e" target="_top" xlink:title=" ">
<polygon fill="white" stroke="#666666" points="687.38,-44 494.38,-44 494.38,0 687.38,0 687.38,-44"/>
<text text-anchor="start" x="502.38" y="-30.5" font-family="Helvetica,sans-Serif" font-size="10.00">Deluxe.DeluxeBrandCenter.</text>
<text text-anchor="start" x="502.38" y="-18.5" font-family="Helvetica,sans-Serif" font-size="10.00">AMM.Infrastructure.Salesforce.</text>
<text text-anchor="middle" x="590.88" y="-6.5" font-family="Helvetica,sans-Serif" font-size="10.00">SalesforceService.SetCustomFieldValue</text>
</a>
</g>
</g>
<!-- Node3&#45;&gt;Node5 -->
<g id="edge4_Node000003_Node000005" class="edge">
<title>Node3&#45;&gt;Node5</title>
<g id="a_edge4_Node000003_Node000005"><a xlink:title=" ">
<path fill="none" stroke="#63b8ff" d="M453.8,-54.49C464.02,-52.05 474.43,-49.57 484.72,-47.11"/>
<polygon fill="#63b8ff" stroke="#63b8ff" points="485.43,-50.54 494.35,-44.81 483.81,-43.73 485.43,-50.54"/>
</a>
</g>
</g>
<!-- Node5&#45;&gt;Node2 -->
<g id="edge5_Node000005_Node000002" class="edge">
<title>Node5&#45;&gt;Node2</title>
<g id="a_edge5_Node000005_Node000002"><a xlink:title=" ">
<path fill="none" stroke="#63b8ff" d="M681.99,-44.45C693.47,-47.31 705.27,-50.25 716.88,-53.15"/>
<polygon fill="#63b8ff" stroke="#63b8ff" points="715.93,-56.52 726.48,-55.54 717.62,-49.73 715.93,-56.52"/>
</a>
</g>
</g>
</g>
</svg>
