<?xml version="1.0" encoding="UTF-8" standalone="no"?>
<!DOCTYPE svg PUBLIC "-//W3C//DTD SVG 1.1//EN"
 "http://www.w3.org/Graphics/SVG/1.1/DTD/svg11.dtd">
<!-- Generated by graphviz version 12.1.1 (20240910.0053)
 -->
<!-- Title: Deluxe.DeluxeBrandCenter.AMM.Infrastructure.Salesforce.SalesforceService.GetSalesForceLeads Pages: 1 -->
<svg width="886pt" height="137pt"
 viewBox="0.00 0.00 885.75 137.46" xmlns="http://www.w3.org/2000/svg" xmlns:xlink="http://www.w3.org/1999/xlink">
<g id="graph0" class="graph" transform="scale(1 1) rotate(0) translate(4 133.46)">
<title>Deluxe.DeluxeBrandCenter.AMM.Infrastructure.Salesforce.SalesforceService.GetSalesForceLeads</title>
<!-- Node1 -->
<g id="Node000001" class="node">
<title>Node1</title>
<g id="a_Node000001"><a xlink:title=" ">
<polygon fill="#999999" stroke="#666666" points="190,-128 0,-128 0,-84 190,-84 190,-128"/>
<text text-anchor="start" x="8" y="-114.5" font-family="Helvetica,sans-Serif" font-size="10.00">Deluxe.DeluxeBrandCenter.</text>
<text text-anchor="start" x="8" y="-102.5" font-family="Helvetica,sans-Serif" font-size="10.00">AMM.Infrastructure.Salesforce.</text>
<text text-anchor="middle" x="95" y="-90.5" font-family="Helvetica,sans-Serif" font-size="10.00">SalesforceService.GetSalesForceLeads</text>
</a>
</g>
</g>
<!-- Node2 -->
<g id="Node000002" class="node">
<title>Node2</title>
<g id="a_Node000002"><a xlink:href="../../dd/d92/class_deluxe_1_1_deluxe_brand_center_1_1_a_m_m_1_1_infrastructure_1_1_salesforce_1_1_salesforce_service.html#a5b7d917413ae920287ea54d3a83443f0" target="_top" xlink:title=" ">
<polygon fill="white" stroke="#666666" points="877.75,-100 699,-100 699,-56 877.75,-56 877.75,-100"/>
<text text-anchor="start" x="707" y="-86.5" font-family="Helvetica,sans-Serif" font-size="10.00">Deluxe.DeluxeBrandCenter.</text>
<text text-anchor="start" x="707" y="-74.5" font-family="Helvetica,sans-Serif" font-size="10.00">AMM.Infrastructure.Salesforce.</text>
<text text-anchor="middle" x="788.38" y="-62.5" font-family="Helvetica,sans-Serif" font-size="10.00">SalesforceService.EncodeInputString</text>
</a>
</g>
</g>
<!-- Node1&#45;&gt;Node2 -->
<g id="edge1_Node000001_Node000002" class="edge">
<title>Node1&#45;&gt;Node2</title>
<g id="a_edge1_Node000001_Node000002"><a xlink:title=" ">
<path fill="none" stroke="#63b8ff" d="M190.4,-116.67C303.42,-127.34 498.11,-139.01 663,-115 679.82,-112.55 697.54,-108.33 714.15,-103.59"/>
<polygon fill="#63b8ff" stroke="#63b8ff" points="714.84,-107.04 723.44,-100.85 712.86,-100.33 714.84,-107.04"/>
</a>
</g>
</g>
<!-- Node3 -->
<g id="Node000003" class="node">
<title>Node3</title>
<g id="a_Node000003"><a xlink:href="../../dd/d92/class_deluxe_1_1_deluxe_brand_center_1_1_a_m_m_1_1_infrastructure_1_1_salesforce_1_1_salesforce_service.html#ac500637f30b3f28050ae6ddf7708ff76" target="_top" xlink:title=" ">
<polygon fill="white" stroke="#666666" points="424.25,-106 226,-106 226,-50 424.25,-50 424.25,-106"/>
<text text-anchor="start" x="234" y="-92.5" font-family="Helvetica,sans-Serif" font-size="10.00">Deluxe.DeluxeBrandCenter.</text>
<text text-anchor="start" x="234" y="-80.5" font-family="Helvetica,sans-Serif" font-size="10.00">AMM.Infrastructure.Salesforce.</text>
<text text-anchor="start" x="234" y="-68.5" font-family="Helvetica,sans-Serif" font-size="10.00">SalesforceService.GetCustomFieldWhere</text>
<text text-anchor="middle" x="325.12" y="-56.5" font-family="Helvetica,sans-Serif" font-size="10.00">Expression</text>
</a>
</g>
</g>
<!-- Node1&#45;&gt;Node3 -->
<g id="edge2_Node000001_Node000003" class="edge">
<title>Node1&#45;&gt;Node3</title>
<g id="a_edge2_Node000001_Node000003"><a xlink:title=" ">
<path fill="none" stroke="#63b8ff" d="M190.43,-94.41C198.35,-93.44 206.39,-92.45 214.41,-91.47"/>
<polygon fill="#63b8ff" stroke="#63b8ff" points="214.71,-94.96 224.2,-90.26 213.85,-88.01 214.71,-94.96"/>
</a>
</g>
</g>
<!-- Node4 -->
<g id="Node000004" class="node">
<title>Node4</title>
<g id="a_Node000004"><a xlink:href="../../dd/d92/class_deluxe_1_1_deluxe_brand_center_1_1_a_m_m_1_1_infrastructure_1_1_salesforce_1_1_salesforce_service.html#a02fbf95c7dbea1af18f738f8ede2d60f" target="_top" xlink:title=" ">
<polygon fill="white" stroke="#666666" points="663,-106 460.25,-106 460.25,-62 663,-62 663,-106"/>
<text text-anchor="start" x="468.25" y="-92.5" font-family="Helvetica,sans-Serif" font-size="10.00">Deluxe.DeluxeBrandCenter.</text>
<text text-anchor="start" x="468.25" y="-80.5" font-family="Helvetica,sans-Serif" font-size="10.00">AMM.Infrastructure.Salesforce.</text>
<text text-anchor="middle" x="561.62" y="-68.5" font-family="Helvetica,sans-Serif" font-size="10.00">SalesforceService.GetCustomFieldsAdmin</text>
</a>
</g>
</g>
<!-- Node3&#45;&gt;Node4 -->
<g id="edge3_Node000003_Node000004" class="edge">
<title>Node3&#45;&gt;Node4</title>
<g id="a_edge3_Node000003_Node000004"><a xlink:title=" ">
<path fill="none" stroke="#63b8ff" d="M424.55,-80.52C432.48,-80.72 440.52,-80.93 448.53,-81.13"/>
<polygon fill="#63b8ff" stroke="#63b8ff" points="448.21,-84.62 458.3,-81.38 448.39,-77.63 448.21,-84.62"/>
</a>
</g>
</g>
<!-- Node5 -->
<g id="Node000005" class="node">
<title>Node5</title>
<g id="a_Node000005"><a xlink:href="../../dd/d92/class_deluxe_1_1_deluxe_brand_center_1_1_a_m_m_1_1_infrastructure_1_1_salesforce_1_1_salesforce_service.html#ad611be5a6846250696dc849dee5ab44e" target="_top" xlink:title=" ">
<polygon fill="white" stroke="#666666" points="658.12,-44 465.12,-44 465.12,0 658.12,0 658.12,-44"/>
<text text-anchor="start" x="473.12" y="-30.5" font-family="Helvetica,sans-Serif" font-size="10.00">Deluxe.DeluxeBrandCenter.</text>
<text text-anchor="start" x="473.12" y="-18.5" font-family="Helvetica,sans-Serif" font-size="10.00">AMM.Infrastructure.Salesforce.</text>
<text text-anchor="middle" x="561.62" y="-6.5" font-family="Helvetica,sans-Serif" font-size="10.00">SalesforceService.SetCustomFieldValue</text>
</a>
</g>
</g>
<!-- Node3&#45;&gt;Node5 -->
<g id="edge4_Node000003_Node000005" class="edge">
<title>Node3&#45;&gt;Node5</title>
<g id="a_edge4_Node000003_Node000005"><a xlink:title=" ">
<path fill="none" stroke="#63b8ff" d="M424.55,-54.49C434.77,-52.05 445.18,-49.57 455.47,-47.11"/>
<polygon fill="#63b8ff" stroke="#63b8ff" points="456.18,-50.54 465.1,-44.81 454.56,-43.73 456.18,-50.54"/>
</a>
</g>
</g>
<!-- Node5&#45;&gt;Node2 -->
<g id="edge5_Node000005_Node000002" class="edge">
<title>Node5&#45;&gt;Node2</title>
<g id="a_edge5_Node000005_Node000002"><a xlink:title=" ">
<path fill="none" stroke="#63b8ff" d="M652.74,-44.45C664.22,-47.31 676.02,-50.25 687.63,-53.15"/>
<polygon fill="#63b8ff" stroke="#63b8ff" points="686.68,-56.52 697.23,-55.54 688.37,-49.73 686.68,-56.52"/>
</a>
</g>
</g>
</g>
</svg>
