<?xml version="1.0" encoding="UTF-8" standalone="no"?>
<!DOCTYPE svg PUBLIC "-//W3C//DTD SVG 1.1//EN"
 "http://www.w3.org/Graphics/SVG/1.1/DTD/svg11.dtd">
<!-- Generated by graphviz version 12.1.1 (20240910.0053)
 -->
<!-- Title: Deluxe.DeluxeBrandCenter.AMM.Infrastructure.Salesforce.SalesforceService.EncodeInputString Pages: 1 -->
<svg width="905pt" height="126pt"
 viewBox="0.00 0.00 905.25 126.00" xmlns="http://www.w3.org/2000/svg" xmlns:xlink="http://www.w3.org/1999/xlink">
<g id="graph0" class="graph" transform="scale(1 1) rotate(0) translate(4 122)">
<title>Deluxe.DeluxeBrandCenter.AMM.Infrastructure.Salesforce.SalesforceService.EncodeInputString</title>
<!-- Node1 -->
<g id="Node000001" class="node">
<title>Node1</title>
<g id="a_Node000001"><a xlink:title=" ">
<polygon fill="#999999" stroke="#666666" points="897.25,-75 718.5,-75 718.5,-31 897.25,-31 897.25,-75"/>
<text text-anchor="start" x="726.5" y="-61.5" font-family="Helvetica,sans-Serif" font-size="10.00">Deluxe.DeluxeBrandCenter.</text>
<text text-anchor="start" x="726.5" y="-49.5" font-family="Helvetica,sans-Serif" font-size="10.00">AMM.Infrastructure.Salesforce.</text>
<text text-anchor="middle" x="807.88" y="-37.5" font-family="Helvetica,sans-Serif" font-size="10.00">SalesforceService.EncodeInputString</text>
</a>
</g>
</g>
<!-- Node2 -->
<g id="Node000002" class="node">
<title>Node2</title>
<g id="a_Node000002"><a xlink:href="../../dd/d92/class_deluxe_1_1_deluxe_brand_center_1_1_a_m_m_1_1_infrastructure_1_1_salesforce_1_1_salesforce_service.html#a5c547e6ea28f7a134f8da25ec8ae2a30" target="_top" xlink:title=" ">
<polygon fill="white" stroke="#666666" points="219.25,-118 0,-118 0,-74 219.25,-74 219.25,-118"/>
<text text-anchor="start" x="8" y="-104.5" font-family="Helvetica,sans-Serif" font-size="10.00">Deluxe.DeluxeBrandCenter.</text>
<text text-anchor="start" x="8" y="-92.5" font-family="Helvetica,sans-Serif" font-size="10.00">AMM.Infrastructure.Salesforce.</text>
<text text-anchor="middle" x="109.62" y="-80.5" font-family="Helvetica,sans-Serif" font-size="10.00">SalesforceService.GetGetSalesForceContacts</text>
</a>
</g>
</g>
<!-- Node1&#45;&gt;Node2 -->
<g id="edge1_Node000001_Node000002" class="edge">
<title>Node1&#45;&gt;Node2</title>
<g id="a_edge1_Node000001_Node000002"><a xlink:title=" ">
<path fill="none" stroke="#63b8ff" d="M716.82,-77.89C705.34,-80.34 693.7,-82.48 682.5,-84 522.48,-105.77 334.99,-104.73 219.5,-101.07"/>
<polygon fill="#63b8ff" stroke="#63b8ff" points="717.28,-81.37 726.28,-75.78 715.76,-74.54 717.28,-81.37"/>
</a>
</g>
</g>
<!-- Node3 -->
<g id="Node000003" class="node">
<title>Node3</title>
<g id="a_Node000003"><a xlink:href="../../dd/d92/class_deluxe_1_1_deluxe_brand_center_1_1_a_m_m_1_1_infrastructure_1_1_salesforce_1_1_salesforce_service.html#a837369bbb251a99a431f1a3e42466b5a" target="_top" xlink:title=" ">
<polygon fill="white" stroke="#666666" points="204.62,-44 14.62,-44 14.62,0 204.62,0 204.62,-44"/>
<text text-anchor="start" x="22.62" y="-30.5" font-family="Helvetica,sans-Serif" font-size="10.00">Deluxe.DeluxeBrandCenter.</text>
<text text-anchor="start" x="22.62" y="-18.5" font-family="Helvetica,sans-Serif" font-size="10.00">AMM.Infrastructure.Salesforce.</text>
<text text-anchor="middle" x="109.62" y="-6.5" font-family="Helvetica,sans-Serif" font-size="10.00">SalesforceService.GetSalesForceLeads</text>
</a>
</g>
</g>
<!-- Node1&#45;&gt;Node3 -->
<g id="edge2_Node000001_Node000003" class="edge">
<title>Node1&#45;&gt;Node3</title>
<g id="a_edge2_Node000001_Node000003"><a xlink:title=" ">
<path fill="none" stroke="#63b8ff" d="M716.82,-28.11C705.34,-25.66 693.7,-23.52 682.5,-22 515.63,0.71 318.82,-6.68 205.01,-14.25"/>
<polygon fill="#63b8ff" stroke="#63b8ff" points="715.76,-31.46 726.28,-30.22 717.28,-24.63 715.76,-31.46"/>
</a>
</g>
</g>
<!-- Node4 -->
<g id="Node000004" class="node">
<title>Node4</title>
<g id="a_Node000004"><a xlink:href="../../dd/d92/class_deluxe_1_1_deluxe_brand_center_1_1_a_m_m_1_1_infrastructure_1_1_salesforce_1_1_salesforce_service.html#ad611be5a6846250696dc849dee5ab44e" target="_top" xlink:title=" ">
<polygon fill="white" stroke="#666666" points="682.5,-75 489.5,-75 489.5,-31 682.5,-31 682.5,-75"/>
<text text-anchor="start" x="497.5" y="-61.5" font-family="Helvetica,sans-Serif" font-size="10.00">Deluxe.DeluxeBrandCenter.</text>
<text text-anchor="start" x="497.5" y="-49.5" font-family="Helvetica,sans-Serif" font-size="10.00">AMM.Infrastructure.Salesforce.</text>
<text text-anchor="middle" x="586" y="-37.5" font-family="Helvetica,sans-Serif" font-size="10.00">SalesforceService.SetCustomFieldValue</text>
</a>
</g>
</g>
<!-- Node1&#45;&gt;Node4 -->
<g id="edge3_Node000001_Node000004" class="edge">
<title>Node1&#45;&gt;Node4</title>
<g id="a_edge3_Node000001_Node000004"><a xlink:title=" ">
<path fill="none" stroke="#63b8ff" d="M706.61,-53C698.74,-53 690.8,-53 682.96,-53"/>
<polygon fill="#63b8ff" stroke="#63b8ff" points="706.56,-56.5 716.56,-53 706.56,-49.5 706.56,-56.5"/>
</a>
</g>
</g>
<!-- Node5 -->
<g id="Node000005" class="node">
<title>Node5</title>
<g id="a_Node000005"><a xlink:href="../../dd/d92/class_deluxe_1_1_deluxe_brand_center_1_1_a_m_m_1_1_infrastructure_1_1_salesforce_1_1_salesforce_service.html#ac500637f30b3f28050ae6ddf7708ff76" target="_top" xlink:title=" ">
<polygon fill="white" stroke="#666666" points="453.5,-81 255.25,-81 255.25,-25 453.5,-25 453.5,-81"/>
<text text-anchor="start" x="263.25" y="-67.5" font-family="Helvetica,sans-Serif" font-size="10.00">Deluxe.DeluxeBrandCenter.</text>
<text text-anchor="start" x="263.25" y="-55.5" font-family="Helvetica,sans-Serif" font-size="10.00">AMM.Infrastructure.Salesforce.</text>
<text text-anchor="start" x="263.25" y="-43.5" font-family="Helvetica,sans-Serif" font-size="10.00">SalesforceService.GetCustomFieldWhere</text>
<text text-anchor="middle" x="354.38" y="-31.5" font-family="Helvetica,sans-Serif" font-size="10.00">Expression</text>
</a>
</g>
</g>
<!-- Node4&#45;&gt;Node5 -->
<g id="edge4_Node000004_Node000005" class="edge">
<title>Node4&#45;&gt;Node5</title>
<g id="a_edge4_Node000004_Node000005"><a xlink:title=" ">
<path fill="none" stroke="#63b8ff" d="M477.98,-53C469.95,-53 461.87,-53 453.9,-53"/>
<polygon fill="#63b8ff" stroke="#63b8ff" points="477.77,-56.5 487.77,-53 477.77,-49.5 477.77,-56.5"/>
</a>
</g>
</g>
<!-- Node5&#45;&gt;Node2 -->
<g id="edge5_Node000005_Node000002" class="edge">
<title>Node5&#45;&gt;Node2</title>
<g id="a_edge5_Node000005_Node000002"><a xlink:title=" ">
<path fill="none" stroke="#63b8ff" d="M243.67,-72.43C235.63,-73.86 227.51,-75.3 219.47,-76.72"/>
<polygon fill="#63b8ff" stroke="#63b8ff" points="244.26,-75.88 253.5,-70.69 243.04,-68.99 244.26,-75.88"/>
</a>
</g>
</g>
<!-- Node5&#45;&gt;Node3 -->
<g id="edge6_Node000005_Node000003" class="edge">
<title>Node5&#45;&gt;Node3</title>
<g id="a_edge6_Node000005_Node000003"><a xlink:title=" ">
<path fill="none" stroke="#63b8ff" d="M243.66,-38.99C230.69,-37.33 217.55,-35.65 204.83,-34.03"/>
<polygon fill="#63b8ff" stroke="#63b8ff" points="243.13,-42.45 253.49,-40.24 244.01,-35.51 243.13,-42.45"/>
</a>
</g>
</g>
</g>
</svg>
