<?xml version="1.0" encoding="UTF-8" standalone="no"?>
<!DOCTYPE svg PUBLIC "-//W3C//DTD SVG 1.1//EN"
 "http://www.w3.org/Graphics/SVG/1.1/DTD/svg11.dtd">
<!-- Generated by graphviz version 12.1.1 (20240910.0053)
 -->
<!-- Title: Deluxe.DeluxeBrandCenter.AMM.Infrastructure.Mindfire.ReportServiceMF.GetUnsubscribedList Pages: 1 -->
<!--zoomable 176 -->

<svg id="main" version="1.1" xmlns="http://www.w3.org/2000/svg" xmlns:xlink="http://www.w3.org/1999/xlink" xml:space="preserve" onload="init(evt)">

<style type="text/css"><![CDATA[
.node, .edge {opacity: 0.7;}
.node.selected, .edge.selected {opacity: 1;}
.edge:hover path { stroke: red; }
.edge:hover polygon { stroke: red; fill: red; }
]]></style>

<defs>
  <circle id="rim" cx="0" cy="0" r="7"/>
  <circle id="rim2" cx="0" cy="0" r="3.5"/>
  <g id="zoomPlus">
    <use xlink:href="#rim" fill="#404040"><set attributeName="fill" to="#808080" begin="zoomplus.mouseover" end="zoomplus.mouseout"/></use>
    <path d="M-4,0h8M0,-4v8" fill="none" stroke="white" stroke-width="1.5" pointer-events="none"/>
  </g>
  <g id="zoomMin">
    <use xlink:href="#rim" fill="#404040"><set attributeName="fill" to="#808080" begin="zoomminus.mouseover" end="zoomminus.mouseout"/></use>
    <path d="M-4,0h8" fill="none" stroke="white" stroke-width="1.5" pointer-events="none"/>
  </g>
  <g id="arrowUp" transform="translate(30 24)">
    <use xlink:href="#rim"/>
    <path pointer-events="none" fill="none" stroke="white" stroke-width="1.5" d="M0,-3.0v7 M-2.5,-0.5L0,-3.0L2.5,-0.5"/>
  </g>
  <g id="arrowRight" transform="rotate(90) translate(36 -43)">
    <use xlink:href="#rim"/>
    <path pointer-events="none" fill="none" stroke="white" stroke-width="1.5" d="M0,-3.0v7 M-2.5,-0.5L0,-3.0L2.5,-0.5"/>
  </g>
  <g id="arrowDown" transform="rotate(180) translate(-30 -48)">
    <use xlink:href="#rim"/>
    <path pointer-events="none" fill="none" stroke="white" stroke-width="1.5" d="M0,-3.0v7 M-2.5,-0.5L0,-3.0L2.5,-0.5"/>
  </g>
  <g id="arrowLeft" transform="rotate(270) translate(-36 17)">
    <use xlink:href="#rim"/>
    <path pointer-events="none" fill="none" stroke="white" stroke-width="1.5" d="M0,-3.0v7 M-2.5,-0.5L0,-3.0L2.5,-0.5"/>
  </g>
  <g id="resetDef">
    <use xlink:href="#rim2" fill="#404040"><set attributeName="fill" to="#808080" begin="reset.mouseover" end="reset.mouseout"/></use>
  </g>
</defs>
<script type="application/ecmascript">
var viewWidth = 890;
var viewHeight = 176;
var sectionId = 'dynsection-3';
</script>
<script type="application/ecmascript" xlink:href="../../svg.min.js"/>
<svg id="graph" class="graph">
<g id="viewport">
<title>Deluxe.DeluxeBrandCenter.AMM.Infrastructure.Mindfire.ReportServiceMF.GetUnsubscribedList</title>
<!-- Node1 -->
<g id="Node000001" class="node">
<title>Node1</title>
<g id="a_Node000001"><a xlink:title=" ">
<polygon fill="#999999" stroke="#666666" points="169.75,-106 0,-106 0,-62 169.75,-62 169.75,-106"/>
<text text-anchor="start" x="8" y="-92.5" font-family="Helvetica,sans-Serif" font-size="10.00">Deluxe.DeluxeBrandCenter.</text>
<text text-anchor="start" x="8" y="-80.5" font-family="Helvetica,sans-Serif" font-size="10.00">AMM.Infrastructure.Mindfire.Report</text>
<text text-anchor="middle" x="84.88" y="-68.5" font-family="Helvetica,sans-Serif" font-size="10.00">ServiceMF.GetUnsubscribedList</text>
</a>
</g>
</g>
<!-- Node1&#45;&gt;Node1 -->
<g id="edge2_Node000001_Node000001" class="edge">
<title>Node1&#45;&gt;Node1</title>
<g id="a_edge2_Node000001_Node000001"><a xlink:title=" ">
<path fill="none" stroke="#63b8ff" d="M43.84,-106.21C40.48,-115.8 54.16,-124 84.88,-124 103.11,-124 115.34,-121.11 121.57,-116.75"/>
<polygon fill="#63b8ff" stroke="#63b8ff" points="124.76,-118.19 125.33,-107.61 118.29,-115.53 124.76,-118.19"/>
</a>
</g>
</g>
<!-- Node2 -->
<g id="Node000002" class="node">
<title>Node2</title>
<g id="a_Node000002"><a xlink:href="../../d1/d19/class_deluxe_1_1_deluxe_brand_center_1_1_a_m_m_1_1_infrastructure_1_1_mindfire_1_1_report_service_m_f.html#a44967f50cc800a9ec2d293f9fc44c625" target="_top" xlink:title=" ">
<polygon fill="white" stroke="#666666" points="399.12,-168 213.62,-168 213.62,-124 399.12,-124 399.12,-168"/>
<text text-anchor="start" x="221.62" y="-154.5" font-family="Helvetica,sans-Serif" font-size="10.00">Deluxe.DeluxeBrandCenter.</text>
<text text-anchor="start" x="221.62" y="-142.5" font-family="Helvetica,sans-Serif" font-size="10.00">AMM.Infrastructure.Mindfire.Report</text>
<text text-anchor="middle" x="306.38" y="-130.5" font-family="Helvetica,sans-Serif" font-size="10.00">ServiceMF.GetUnsubscribeCredentials</text>
</a>
</g>
</g>
<!-- Node1&#45;&gt;Node2 -->
<g id="edge1_Node000001_Node000002" class="edge">
<title>Node1&#45;&gt;Node2</title>
<g id="a_edge1_Node000001_Node000002"><a xlink:title=" ">
<path fill="none" stroke="#63b8ff" d="M165.43,-106.47C181.53,-111.02 198.58,-115.83 215.02,-120.48"/>
<polygon fill="#63b8ff" stroke="#63b8ff" points="213.69,-123.74 224.27,-123.09 215.59,-117 213.69,-123.74"/>
</a>
</g>
</g>
<!-- Node3 -->
<g id="Node000003" class="node">
<title>Node3</title>
<g id="a_Node000003"><a xlink:href="../../d6/db1/class_deluxe_1_1_deluxe_brand_center_1_1_a_m_m_1_1_infrastructure_1_1_databases_1_1_application_db_context.html#a92bd6d01c18ab350b60414ec6991a32d" target="_top" xlink:title=" ">
<polygon fill="white" stroke="#666666" points="407,-106 205.75,-106 205.75,-62 407,-62 407,-106"/>
<text text-anchor="start" x="213.75" y="-92.5" font-family="Helvetica,sans-Serif" font-size="10.00">Deluxe.DeluxeBrandCenter.</text>
<text text-anchor="start" x="213.75" y="-80.5" font-family="Helvetica,sans-Serif" font-size="10.00">AMM.Infrastructure.Databases.Application</text>
<text text-anchor="middle" x="306.38" y="-68.5" font-family="Helvetica,sans-Serif" font-size="10.00">DbContext.SaveChangesAsync</text>
</a>
</g>
</g>
<!-- Node1&#45;&gt;Node3 -->
<g id="edge3_Node000001_Node000003" class="edge">
<title>Node1&#45;&gt;Node3</title>
<g id="a_edge3_Node000001_Node000003"><a xlink:title=" ">
<path fill="none" stroke="#63b8ff" d="M170.11,-84C178,-84 186.08,-84 194.16,-84"/>
<polygon fill="#63b8ff" stroke="#63b8ff" points="194.07,-87.5 204.07,-84 194.07,-80.5 194.07,-87.5"/>
</a>
</g>
</g>
<!-- Node6 -->
<g id="Node000006" class="node">
<title>Node6</title>
<g id="a_Node000006"><a xlink:href="../../dd/d7d/interface_deluxe_1_1_deluxe_brand_center_1_1_a_m_m_1_1_domain_1_1_services_1_1_i_session_service.html#aaac0af72e9b32df926d2afea555e1e34" target="_top" xlink:title=" ">
<polygon fill="white" stroke="#666666" points="403.62,-44 209.12,-44 209.12,0 403.62,0 403.62,-44"/>
<text text-anchor="start" x="217.12" y="-30.5" font-family="Helvetica,sans-Serif" font-size="10.00">Deluxe.DeluxeBrandCenter.</text>
<text text-anchor="start" x="217.12" y="-18.5" font-family="Helvetica,sans-Serif" font-size="10.00">AMM.Domain.Services.ISessionService.</text>
<text text-anchor="middle" x="306.38" y="-6.5" font-family="Helvetica,sans-Serif" font-size="10.00">SessionGetUserId</text>
</a>
</g>
</g>
<!-- Node1&#45;&gt;Node6 -->
<g id="edge6_Node000001_Node000006" class="edge">
<title>Node1&#45;&gt;Node6</title>
<g id="a_edge6_Node000001_Node000006"><a xlink:title=" ">
<path fill="none" stroke="#63b8ff" d="M165.43,-61.53C181.53,-56.98 198.58,-52.17 215.02,-47.52"/>
<polygon fill="#63b8ff" stroke="#63b8ff" points="215.59,-51 224.27,-44.91 213.69,-44.26 215.59,-51"/>
</a>
</g>
</g>
<!-- Node4 -->
<g id="Node000004" class="node">
<title>Node4</title>
<g id="a_Node000004"><a xlink:href="../../d6/db1/class_deluxe_1_1_deluxe_brand_center_1_1_a_m_m_1_1_infrastructure_1_1_databases_1_1_application_db_context.html#aea43a5ab4bb779ccf8678ef7aac5be0c" target="_top" xlink:title=" ">
<polygon fill="white" stroke="#666666" points="644.25,-106 443,-106 443,-62 644.25,-62 644.25,-106"/>
<text text-anchor="start" x="451" y="-92.5" font-family="Helvetica,sans-Serif" font-size="10.00">Deluxe.DeluxeBrandCenter.</text>
<text text-anchor="start" x="451" y="-80.5" font-family="Helvetica,sans-Serif" font-size="10.00">AMM.Infrastructure.Databases.Application</text>
<text text-anchor="middle" x="543.62" y="-68.5" font-family="Helvetica,sans-Serif" font-size="10.00">DbContext.OnBeforeSaveChanges</text>
</a>
</g>
</g>
<!-- Node3&#45;&gt;Node4 -->
<g id="edge4_Node000003_Node000004" class="edge">
<title>Node3&#45;&gt;Node4</title>
<g id="a_edge4_Node000003_Node000004"><a xlink:title=" ">
<path fill="none" stroke="#63b8ff" d="M407.48,-84C415.3,-84 423.22,-84 431.1,-84"/>
<polygon fill="#63b8ff" stroke="#63b8ff" points="431.09,-87.5 441.09,-84 431.09,-80.5 431.09,-87.5"/>
</a>
</g>
</g>
<!-- Node5 -->
<g id="Node000005" class="node">
<title>Node5</title>
<g id="a_Node000005"><a xlink:href="../../d6/db1/class_deluxe_1_1_deluxe_brand_center_1_1_a_m_m_1_1_infrastructure_1_1_databases_1_1_application_db_context.html#a5a50b059decefb01e96a92bc29bcd3e6" target="_top" xlink:title=" ">
<polygon fill="white" stroke="#666666" points="881.5,-106 680.25,-106 680.25,-62 881.5,-62 881.5,-106"/>
<text text-anchor="start" x="688.25" y="-92.5" font-family="Helvetica,sans-Serif" font-size="10.00">Deluxe.DeluxeBrandCenter.</text>
<text text-anchor="start" x="688.25" y="-80.5" font-family="Helvetica,sans-Serif" font-size="10.00">AMM.Infrastructure.Databases.Application</text>
<text text-anchor="middle" x="780.88" y="-68.5" font-family="Helvetica,sans-Serif" font-size="10.00">DbContext.AddTimestampsToEntities</text>
</a>
</g>
</g>
<!-- Node4&#45;&gt;Node5 -->
<g id="edge5_Node000004_Node000005" class="edge">
<title>Node4&#45;&gt;Node5</title>
<g id="a_edge5_Node000004_Node000005"><a xlink:title=" ">
<path fill="none" stroke="#63b8ff" d="M644.73,-84C652.55,-84 660.47,-84 668.35,-84"/>
<polygon fill="#63b8ff" stroke="#63b8ff" points="668.34,-87.5 678.34,-84 668.34,-80.5 668.34,-87.5"/>
</a>
</g>
</g>
</g>
</svg>

<g id="navigator" transform="translate(0 0)" fill="#404254">
  <rect fill="#f2f5e9" fill-opacity="0.5" stroke="#606060" stroke-width=".5" x="0" y="0" width="60" height="60"/>
  <use id="zoomplus" xlink:href="#zoomPlus" x="17" y="9" onmousedown="handleZoom(evt,'in')"/>
  <use id="zoomminus" xlink:href="#zoomMin" x="42" y="9" onmousedown="handleZoom(evt,'out')"/>
  <use id="reset" xlink:href="#resetDef" x="30" y="36" onmousedown="handleReset()"/>
   <use id="arrowup" xlink:href="#arrowUp" x="0" y="0" onmousedown="handlePan(0,-1)"/>
  <use id="arrowright" xlink:href="#arrowRight" x="0" y="0" onmousedown="handlePan(1,0)"/>
  <use id="arrowdown" xlink:href="#arrowDown" x="0" y="0" onmousedown="handlePan(0,1)"/>
  <use id="arrowleft" xlink:href="#arrowLeft" x="0" y="0" onmousedown="handlePan(-1,0)"/>
</g>
<svg viewBox="0 0 15 15" width="100%" height="30px" preserveAspectRatio="xMaxYMin meet">
 <g id="arrow_out" transform="scale(0.3 0.3)">
  <a xlink:href="class_deluxe_1_1_deluxe_brand_center_1_1_a_m_m_1_1_infrastructure_1_1_mindfire_1_1_report_service_m_f_a9ac758f76c8914498504f9c98c65d635_cgraph_org.svg" target="_base">
   <rect id="button" ry="5" rx="5" y="6" x="6" height="38" width="38"
        fill="#f2f5e9" fill-opacity="0.5" stroke="#606060" stroke-width="1.0"/>
   <path id="arrow"
     d="M 11.500037,31.436501 C 11.940474,20.09759 22.043105,11.32322 32.158766,21.979434 L 37.068811,17.246167 C 37.068811,17.246167 37.088388,32 37.088388,32 L 22.160133,31.978069 C 22.160133,31.978069 26.997745,27.140456 26.997745,27.140456 C 18.528582,18.264221 13.291696,25.230495 11.500037,31.436501 z"
     style="fill:#404040;"/>
  </a>
 </g>
</svg>

<style type='text/css'>
<![CDATA[
[data-mouse-over-selected='false'] { opacity: 0.7; }
[data-mouse-over-selected='true']  { opacity: 1.0; }
]]>
</style>
<script type="application/ecmascript"><![CDATA[
document.addEventListener('DOMContentLoaded', (event) => {
  highlightEdges();
  highlightAdjacentNodes();
});
]]></script>
</svg>
