<?xml version="1.0" encoding="UTF-8" standalone="no"?>
<!DOCTYPE svg PUBLIC "-//W3C//DTD SVG 1.1//EN"
 "http://www.w3.org/Graphics/SVG/1.1/DTD/svg11.dtd">
<!-- Generated by graphviz version 12.1.1 (20240910.0053)
 -->
<!-- Title: Deluxe.DeluxeBrandCenter.AMM.Infrastructure.Mindfire.ReportServiceMF.GetUnsubscribeCredentials Pages: 1 -->
<svg width="399pt" height="70pt"
 viewBox="0.00 0.00 399.25 70.00" xmlns="http://www.w3.org/2000/svg" xmlns:xlink="http://www.w3.org/1999/xlink">
<g id="graph0" class="graph" transform="scale(1 1) rotate(0) translate(4 66)">
<title>Deluxe.DeluxeBrandCenter.AMM.Infrastructure.Mindfire.ReportServiceMF.GetUnsubscribeCredentials</title>
<!-- Node1 -->
<g id="Node000001" class="node">
<title>Node1</title>
<g id="a_Node000001"><a xlink:title=" ">
<polygon fill="#999999" stroke="#666666" points="391.25,-44 205.75,-44 205.75,0 391.25,0 391.25,-44"/>
<text text-anchor="start" x="213.75" y="-30.5" font-family="Helvetica,sans-Serif" font-size="10.00">Deluxe.DeluxeBrandCenter.</text>
<text text-anchor="start" x="213.75" y="-18.5" font-family="Helvetica,sans-Serif" font-size="10.00">AMM.Infrastructure.Mindfire.Report</text>
<text text-anchor="middle" x="298.5" y="-6.5" font-family="Helvetica,sans-Serif" font-size="10.00">ServiceMF.GetUnsubscribeCredentials</text>
</a>
</g>
</g>
<!-- Node2 -->
<g id="Node000002" class="node">
<title>Node2</title>
<g id="a_Node000002"><a xlink:href="../../d1/d19/class_deluxe_1_1_deluxe_brand_center_1_1_a_m_m_1_1_infrastructure_1_1_mindfire_1_1_report_service_m_f.html#a9ac758f76c8914498504f9c98c65d635" target="_top" xlink:title=" ">
<polygon fill="white" stroke="#666666" points="169.75,-44 0,-44 0,0 169.75,0 169.75,-44"/>
<text text-anchor="start" x="8" y="-30.5" font-family="Helvetica,sans-Serif" font-size="10.00">Deluxe.DeluxeBrandCenter.</text>
<text text-anchor="start" x="8" y="-18.5" font-family="Helvetica,sans-Serif" font-size="10.00">AMM.Infrastructure.Mindfire.Report</text>
<text text-anchor="middle" x="84.88" y="-6.5" font-family="Helvetica,sans-Serif" font-size="10.00">ServiceMF.GetUnsubscribedList</text>
</a>
</g>
</g>
<!-- Node1&#45;&gt;Node2 -->
<g id="edge1_Node000001_Node000002" class="edge">
<title>Node1&#45;&gt;Node2</title>
<g id="a_edge1_Node000001_Node000002"><a xlink:title=" ">
<path fill="none" stroke="#63b8ff" d="M194.01,-22C186,-22 177.97,-22 170.12,-22"/>
<polygon fill="#63b8ff" stroke="#63b8ff" points="193.78,-25.5 203.78,-22 193.78,-18.5 193.78,-25.5"/>
</a>
</g>
</g>
<!-- Node2&#45;&gt;Node2 -->
<g id="edge2_Node000002_Node000002" class="edge">
<title>Node2&#45;&gt;Node2</title>
<g id="a_edge2_Node000002_Node000002"><a xlink:title=" ">
<path fill="none" stroke="#63b8ff" d="M120.26,-54.75C114.26,-59.11 102.46,-62 84.88,-62 55.25,-62 42.06,-53.8 45.3,-44.21"/>
<polygon fill="#63b8ff" stroke="#63b8ff" points="123.45,-56.2 123.89,-45.62 116.95,-53.62 123.45,-56.2"/>
</a>
</g>
</g>
</g>
</svg>
