<?xml version="1.0" encoding="UTF-8" standalone="no"?>
<!DOCTYPE svg PUBLIC "-//W3C//DTD SVG 1.1//EN"
 "http://www.w3.org/Graphics/SVG/1.1/DTD/svg11.dtd">
<!-- Generated by graphviz version 12.1.1 (20240910.0053)
 -->
<!-- Title: Deluxe.DeluxeBrandCenter.AMM.Domain.IColumnEditor&lt; T &gt; Pages: 1 -->
<!--zoomable 97 -->

<svg id="main" version="1.1" xmlns="http://www.w3.org/2000/svg" xmlns:xlink="http://www.w3.org/1999/xlink" xml:space="preserve" onload="init(evt)">

<style type="text/css"><![CDATA[
.node, .edge {opacity: 0.7;}
.node.selected, .edge.selected {opacity: 1;}
.edge:hover path { stroke: red; }
.edge:hover polygon { stroke: red; fill: red; }
]]></style>

<defs>
  <circle id="rim" cx="0" cy="0" r="7"/>
  <circle id="rim2" cx="0" cy="0" r="3.5"/>
  <g id="zoomPlus">
    <use xlink:href="#rim" fill="#404040"><set attributeName="fill" to="#808080" begin="zoomplus.mouseover" end="zoomplus.mouseout"/></use>
    <path d="M-4,0h8M0,-4v8" fill="none" stroke="white" stroke-width="1.5" pointer-events="none"/>
  </g>
  <g id="zoomMin">
    <use xlink:href="#rim" fill="#404040"><set attributeName="fill" to="#808080" begin="zoomminus.mouseover" end="zoomminus.mouseout"/></use>
    <path d="M-4,0h8" fill="none" stroke="white" stroke-width="1.5" pointer-events="none"/>
  </g>
  <g id="arrowUp" transform="translate(30 24)">
    <use xlink:href="#rim"/>
    <path pointer-events="none" fill="none" stroke="white" stroke-width="1.5" d="M0,-3.0v7 M-2.5,-0.5L0,-3.0L2.5,-0.5"/>
  </g>
  <g id="arrowRight" transform="rotate(90) translate(36 -43)">
    <use xlink:href="#rim"/>
    <path pointer-events="none" fill="none" stroke="white" stroke-width="1.5" d="M0,-3.0v7 M-2.5,-0.5L0,-3.0L2.5,-0.5"/>
  </g>
  <g id="arrowDown" transform="rotate(180) translate(-30 -48)">
    <use xlink:href="#rim"/>
    <path pointer-events="none" fill="none" stroke="white" stroke-width="1.5" d="M0,-3.0v7 M-2.5,-0.5L0,-3.0L2.5,-0.5"/>
  </g>
  <g id="arrowLeft" transform="rotate(270) translate(-36 17)">
    <use xlink:href="#rim"/>
    <path pointer-events="none" fill="none" stroke="white" stroke-width="1.5" d="M0,-3.0v7 M-2.5,-0.5L0,-3.0L2.5,-0.5"/>
  </g>
  <g id="resetDef">
    <use xlink:href="#rim2" fill="#404040"><set attributeName="fill" to="#808080" begin="reset.mouseover" end="reset.mouseout"/></use>
  </g>
</defs>
<script type="application/ecmascript">
var viewWidth = 1496;
var viewHeight = 97;
var sectionId = 'dynsection-0';
</script>
<script type="application/ecmascript" xlink:href="../../svg.min.js"/>
<svg id="graph" class="graph">
<g id="viewport">
<title>Deluxe.DeluxeBrandCenter.AMM.Domain.IColumnEditor&lt; T &gt;</title>
<!-- Node1 -->
<g id="Node000001" class="node">
<title>Node1</title>
<g id="a_Node000001"><a xlink:title="Interface for column editing (delete column, append column and insert column)">
<polygon fill="#999999" stroke="#666666" points="164.5,-58 0,-58 0,-26 164.5,-26 164.5,-58"/>
<text text-anchor="start" x="8" y="-44.5" font-family="Helvetica,sans-Serif" font-size="10.00">Deluxe.DeluxeBrandCenter.</text>
<text text-anchor="middle" x="82.25" y="-32.5" font-family="Helvetica,sans-Serif" font-size="10.00">AMM.Domain.IColumnEditor&lt; T &gt;</text>
</a>
</g>
</g>
<!-- Node2 -->
<g id="Node000002" class="node">
<title>Node2</title>
<g id="a_Node000002"><a xlink:href="../../de/d9e/interface_deluxe_1_1_deluxe_brand_center_1_1_a_m_m_1_1_domain_1_1_i_table_editor.html" target="_top" xlink:title="Interface implements IRowEditor and IColumnEditor.">
<polygon fill="white" stroke="#666666" points="355.5,-58 201.5,-58 201.5,-26 355.5,-26 355.5,-58"/>
<text text-anchor="start" x="209.5" y="-44.5" font-family="Helvetica,sans-Serif" font-size="10.00">Deluxe.DeluxeBrandCenter.</text>
<text text-anchor="middle" x="278.5" y="-32.5" font-family="Helvetica,sans-Serif" font-size="10.00">AMM.Domain.ITableEditor&lt; T &gt;</text>
</a>
</g>
</g>
<!-- Node1&#45;&gt;Node2 -->
<g id="edge1_Node000001_Node000002" class="edge">
<title>Node1&#45;&gt;Node2</title>
<g id="a_edge1_Node000001_Node000002"><a xlink:title=" ">
<path fill="none" stroke="#63b8ff" d="M176.15,-42C184.52,-42 192.93,-42 201.13,-42"/>
<polygon fill="#63b8ff" stroke="#63b8ff" points="176.3,-38.5 166.3,-42 176.3,-45.5 176.3,-38.5"/>
</a>
</g>
</g>
<!-- Node3 -->
<g id="Node000003" class="node">
<title>Node3</title>
<g id="a_Node000003"><a xlink:href="../../d8/d96/interface_deluxe_1_1_deluxe_brand_center_1_1_a_m_m_1_1_domain_1_1_i_table.html" target="_top" xlink:title="Interface implements ITableReader, ITableWriter, ITableEditor.">
<polygon fill="white" stroke="#666666" points="530.75,-58 392.5,-58 392.5,-26 530.75,-26 530.75,-58"/>
<text text-anchor="start" x="400.5" y="-44.5" font-family="Helvetica,sans-Serif" font-size="10.00">Deluxe.DeluxeBrandCenter.</text>
<text text-anchor="middle" x="461.62" y="-32.5" font-family="Helvetica,sans-Serif" font-size="10.00">AMM.Domain.ITable&lt; T &gt;</text>
</a>
</g>
</g>
<!-- Node2&#45;&gt;Node3 -->
<g id="edge2_Node000002_Node000003" class="edge">
<title>Node2&#45;&gt;Node3</title>
<g id="a_edge2_Node000002_Node000003"><a xlink:title=" ">
<path fill="none" stroke="#63b8ff" d="M367.19,-42C375.59,-42 384.02,-42 392.2,-42"/>
<polygon fill="#63b8ff" stroke="#63b8ff" points="367.3,-38.5 357.3,-42 367.3,-45.5 367.3,-38.5"/>
</a>
</g>
</g>
<!-- Node4 -->
<g id="Node000004" class="node">
<title>Node4</title>
<g id="a_Node000004"><a xlink:href="../../d7/d96/class_deluxe_1_1_deluxe_brand_center_1_1_a_m_m_1_1_domain_1_1_table.html" target="_top" xlink:title=" ">
<polygon fill="white" stroke="#666666" points="750,-89 611.75,-89 611.75,-57 750,-57 750,-89"/>
<text text-anchor="start" x="619.75" y="-75.5" font-family="Helvetica,sans-Serif" font-size="10.00">Deluxe.DeluxeBrandCenter.</text>
<text text-anchor="middle" x="680.88" y="-63.5" font-family="Helvetica,sans-Serif" font-size="10.00">AMM.Domain.Table&lt; T &gt;</text>
</a>
</g>
</g>
<!-- Node3&#45;&gt;Node4 -->
<g id="edge3_Node000003_Node000004" class="edge">
<title>Node3&#45;&gt;Node4</title>
<g id="a_edge3_Node000003_Node000004"><a xlink:title=" ">
<path fill="none" stroke="#63b8ff" d="M542.37,-53.38C565.02,-56.61 589.48,-60.1 611.4,-63.23"/>
<polygon fill="#63b8ff" stroke="#63b8ff" points="542.96,-49.93 532.56,-51.98 541.97,-56.86 542.96,-49.93"/>
</a>
</g>
</g>
<!-- Node9 -->
<g id="Node000009" class="node">
<title>Node9</title>
<g id="a_Node000009"><a xlink:href="../../d8/d96/interface_deluxe_1_1_deluxe_brand_center_1_1_a_m_m_1_1_domain_1_1_i_table.html" target="_top" xlink:title=" ">
<polygon fill="white" stroke="#666666" points="915.25,-45 768,-45 768,-13 915.25,-13 915.25,-45"/>
<text text-anchor="start" x="776" y="-31.5" font-family="Helvetica,sans-Serif" font-size="10.00">Deluxe.DeluxeBrandCenter.</text>
<text text-anchor="middle" x="841.62" y="-19.5" font-family="Helvetica,sans-Serif" font-size="10.00">AMM.Domain.ITable&lt; string &gt;</text>
</a>
</g>
</g>
<!-- Node3&#45;&gt;Node9 -->
<g id="edge8_Node000003_Node000009" class="edge">
<title>Node3&#45;&gt;Node9</title>
<g id="a_edge8_Node000003_Node000009"><a xlink:title=" ">
<path fill="none" stroke="orange" stroke-dasharray="5,2" d="M542.11,-39.23C544.35,-39.15 546.56,-39.08 548.75,-39 623.36,-36.42 708.71,-33.5 767.76,-31.49"/>
<polygon fill="orange" stroke="orange" points="542.18,-35.73 532.31,-39.57 542.42,-42.72 542.18,-35.73"/>
</a>
</g>
<text text-anchor="middle" x="571.25" y="-41.5" font-family="Helvetica,sans-Serif" font-size="10.00" fill="grey"> &lt; string &gt;</text>
</g>
<!-- Node5 -->
<g id="Node000005" class="node">
<title>Node5</title>
<g id="a_Node000005"><a xlink:href="../../d7/d96/class_deluxe_1_1_deluxe_brand_center_1_1_a_m_m_1_1_domain_1_1_table.html" target="_top" xlink:title=" ">
<polygon fill="white" stroke="#666666" points="1077.5,-89 933.25,-89 933.25,-57 1077.5,-57 1077.5,-89"/>
<text text-anchor="start" x="941.25" y="-75.5" font-family="Helvetica,sans-Serif" font-size="10.00">Deluxe.DeluxeBrandCenter.</text>
<text text-anchor="middle" x="1005.38" y="-63.5" font-family="Helvetica,sans-Serif" font-size="10.00">AMM.Domain.Table&lt; string &gt;</text>
</a>
</g>
</g>
<!-- Node4&#45;&gt;Node5 -->
<g id="edge4_Node000004_Node000005" class="edge">
<title>Node4&#45;&gt;Node5</title>
<g id="a_edge4_Node000004_Node000005"><a xlink:title=" ">
<path fill="none" stroke="orange" stroke-dasharray="5,2" d="M761.56,-73C814.08,-73 882.27,-73 933.01,-73"/>
<polygon fill="orange" stroke="orange" points="761.78,-69.5 751.78,-73 761.78,-76.5 761.78,-69.5"/>
</a>
</g>
<text text-anchor="middle" x="841.62" y="-75.5" font-family="Helvetica,sans-Serif" font-size="10.00" fill="grey"> &lt; string &gt;</text>
</g>
<!-- Node6 -->
<g id="Node000006" class="node">
<title>Node6</title>
<g id="a_Node000006"><a xlink:href="../../d0/d2a/class_deluxe_1_1_deluxe_brand_center_1_1_a_m_m_1_1_domain_1_1_utility_1_1_c_s_v_table.html" target="_top" xlink:title=" ">
<polygon fill="white" stroke="#666666" points="1265.5,-57 1114.5,-57 1114.5,-25 1265.5,-25 1265.5,-57"/>
<text text-anchor="start" x="1122.5" y="-43.5" font-family="Helvetica,sans-Serif" font-size="10.00">Deluxe.DeluxeBrandCenter.</text>
<text text-anchor="middle" x="1190" y="-31.5" font-family="Helvetica,sans-Serif" font-size="10.00">AMM.Domain.Utility.CSVTable</text>
</a>
</g>
</g>
<!-- Node5&#45;&gt;Node6 -->
<g id="edge5_Node000005_Node000006" class="edge">
<title>Node5&#45;&gt;Node6</title>
<g id="a_edge5_Node000005_Node000006"><a xlink:title=" ">
<path fill="none" stroke="#63b8ff" d="M1089.04,-58.52C1097.37,-57.06 1105.8,-55.58 1114.04,-54.13"/>
<polygon fill="#63b8ff" stroke="#63b8ff" points="1088.5,-55.06 1079.26,-60.23 1089.71,-61.95 1088.5,-55.06"/>
</a>
</g>
</g>
<!-- Node7 -->
<g id="Node000007" class="node">
<title>Node7</title>
<g id="a_Node000007"><a xlink:href="../../d8/d92/class_deluxe_1_1_deluxe_brand_center_1_1_a_m_m_1_1_domain_1_1_utility_1_1_activity_c_s_v_table.html" target="_top" xlink:title=" ">
<polygon fill="white" stroke="#666666" points="1487.25,-82 1303.25,-82 1303.25,-50 1487.25,-50 1487.25,-82"/>
<text text-anchor="start" x="1311.25" y="-68.5" font-family="Helvetica,sans-Serif" font-size="10.00">Deluxe.DeluxeBrandCenter.</text>
<text text-anchor="middle" x="1395.25" y="-56.5" font-family="Helvetica,sans-Serif" font-size="10.00">AMM.Domain.Utility.ActivityCSVTable</text>
</a>
</g>
</g>
<!-- Node6&#45;&gt;Node7 -->
<g id="edge6_Node000006_Node000007" class="edge">
<title>Node6&#45;&gt;Node7</title>
<g id="a_edge6_Node000006_Node000007"><a xlink:title=" ">
<path fill="none" stroke="#63b8ff" d="M1277.02,-51.58C1285.62,-52.64 1294.38,-53.72 1303.03,-54.78"/>
<polygon fill="#63b8ff" stroke="#63b8ff" points="1277.67,-48.13 1267.32,-50.39 1276.82,-55.08 1277.67,-48.13"/>
</a>
</g>
</g>
<!-- Node8 -->
<g id="Node000008" class="node">
<title>Node8</title>
<g id="a_Node000008"><a xlink:href="../../dd/d19/class_deluxe_1_1_deluxe_brand_center_1_1_a_m_m_1_1_domain_1_1_utility_1_1_contact_c_s_v_table.html" target="_top" xlink:title=" ">
<polygon fill="white" stroke="#666666" points="1488,-32 1302.5,-32 1302.5,0 1488,0 1488,-32"/>
<text text-anchor="start" x="1310.5" y="-18.5" font-family="Helvetica,sans-Serif" font-size="10.00">Deluxe.DeluxeBrandCenter.</text>
<text text-anchor="middle" x="1395.25" y="-6.5" font-family="Helvetica,sans-Serif" font-size="10.00">AMM.Domain.Utility.ContactCSVTable</text>
</a>
</g>
</g>
<!-- Node6&#45;&gt;Node8 -->
<g id="edge7_Node000006_Node000008" class="edge">
<title>Node6&#45;&gt;Node8</title>
<g id="a_edge7_Node000006_Node000008"><a xlink:title=" ">
<path fill="none" stroke="#63b8ff" d="M1277.09,-30.41C1285.44,-29.38 1293.93,-28.34 1302.34,-27.31"/>
<polygon fill="#63b8ff" stroke="#63b8ff" points="1276.82,-26.92 1267.32,-31.61 1277.67,-33.87 1276.82,-26.92"/>
</a>
</g>
</g>
<!-- Node9&#45;&gt;Node6 -->
<g id="edge9_Node000009_Node000006" class="edge">
<title>Node9&#45;&gt;Node6</title>
<g id="a_edge9_Node000009_Node000006"><a xlink:title=" ">
<path fill="none" stroke="#63b8ff" d="M926.86,-31.92C984.11,-33.9 1059.15,-36.5 1114.27,-38.41"/>
<polygon fill="#63b8ff" stroke="#63b8ff" points="927.29,-28.43 917.17,-31.58 927.04,-35.43 927.29,-28.43"/>
</a>
</g>
</g>
</g>
</svg>

<g id="navigator" transform="translate(0 0)" fill="#404254">
  <rect fill="#f2f5e9" fill-opacity="0.5" stroke="#606060" stroke-width=".5" x="0" y="0" width="60" height="60"/>
  <use id="zoomplus" xlink:href="#zoomPlus" x="17" y="9" onmousedown="handleZoom(evt,'in')"/>
  <use id="zoomminus" xlink:href="#zoomMin" x="42" y="9" onmousedown="handleZoom(evt,'out')"/>
  <use id="reset" xlink:href="#resetDef" x="30" y="36" onmousedown="handleReset()"/>
   <use id="arrowup" xlink:href="#arrowUp" x="0" y="0" onmousedown="handlePan(0,-1)"/>
  <use id="arrowright" xlink:href="#arrowRight" x="0" y="0" onmousedown="handlePan(1,0)"/>
  <use id="arrowdown" xlink:href="#arrowDown" x="0" y="0" onmousedown="handlePan(0,1)"/>
  <use id="arrowleft" xlink:href="#arrowLeft" x="0" y="0" onmousedown="handlePan(-1,0)"/>
</g>
<svg viewBox="0 0 15 15" width="100%" height="30px" preserveAspectRatio="xMaxYMin meet">
 <g id="arrow_out" transform="scale(0.3 0.3)">
  <a xlink:href="interface_deluxe_1_1_deluxe_brand_center_1_1_a_m_m_1_1_domain_1_1_i_column_editor__inherit__graph_org.svg" target="_base">
   <rect id="button" ry="5" rx="5" y="6" x="6" height="38" width="38"
        fill="#f2f5e9" fill-opacity="0.5" stroke="#606060" stroke-width="1.0"/>
   <path id="arrow"
     d="M 11.500037,31.436501 C 11.940474,20.09759 22.043105,11.32322 32.158766,21.979434 L 37.068811,17.246167 C 37.068811,17.246167 37.088388,32 37.088388,32 L 22.160133,31.978069 C 22.160133,31.978069 26.997745,27.140456 26.997745,27.140456 C 18.528582,18.264221 13.291696,25.230495 11.500037,31.436501 z"
     style="fill:#404040;"/>
  </a>
 </g>
</svg>

<style type='text/css'>
<![CDATA[
[data-mouse-over-selected='false'] { opacity: 0.7; }
[data-mouse-over-selected='true']  { opacity: 1.0; }
]]>
</style>
<script type="application/ecmascript"><![CDATA[
document.addEventListener('DOMContentLoaded', (event) => {
  highlightEdges();
  highlightAdjacentNodes();
});
]]></script>
</svg>
