<?xml version="1.0" encoding="UTF-8" standalone="no"?>
<!DOCTYPE svg PUBLIC "-//W3C//DTD SVG 1.1//EN"
 "http://www.w3.org/Graphics/SVG/1.1/DTD/svg11.dtd">
<!-- Generated by graphviz version 12.1.1 (20240910.0053)
 -->
<!-- Title: Deluxe.DeluxeBrandCenter.AMM.API.Controllers.SignatureBlockController Pages: 1 -->
<svg width="940pt" height="96pt"
 viewBox="0.00 0.00 940.00 96.00" xmlns="http://www.w3.org/2000/svg" xmlns:xlink="http://www.w3.org/1999/xlink">
<g id="graph0" class="graph" transform="scale(1 1) rotate(0) translate(4 92)">
<title>Deluxe.DeluxeBrandCenter.AMM.API.Controllers.SignatureBlockController</title>
<!-- Node1 -->
<g id="Node000001" class="node">
<title>Node1</title>
<g id="a_Node000001"><a xlink:title=" ">
<polygon fill="#999999" stroke="#666666" points="932,-51 754,-51 754,-7 932,-7 932,-51"/>
<text text-anchor="start" x="762" y="-37.5" font-family="Helvetica,sans-Serif" font-size="10.00">Deluxe.DeluxeBrandCenter.</text>
<text text-anchor="start" x="762" y="-25.5" font-family="Helvetica,sans-Serif" font-size="10.00">AMM.API.Controllers.SignatureBlock</text>
<text text-anchor="middle" x="843" y="-13.5" font-family="Helvetica,sans-Serif" font-size="10.00">Controller</text>
</a>
</g>
</g>
<!-- Node2 -->
<g id="Node000002" class="node">
<title>Node2</title>
<g id="a_Node000002"><a xlink:href="../../de/d9b/class_deluxe_1_1_deluxe_brand_center_1_1_a_m_m_1_1_a_p_i_1_1_controllers_1_1_root_controller.html" target="_top" xlink:title=" ">
<polygon fill="white" stroke="#666666" points="613.38,-82 481.12,-82 481.12,-50 613.38,-50 613.38,-82"/>
<text text-anchor="start" x="489.12" y="-68.5" font-family="Helvetica,sans-Serif" font-size="10.00">RootController&lt; ISignature</text>
<text text-anchor="middle" x="547.25" y="-56.5" font-family="Helvetica,sans-Serif" font-size="10.00">BlockService &gt;</text>
</a>
</g>
</g>
<!-- Node2&#45;&gt;Node1 -->
<g id="edge1_Node000001_Node000002" class="edge">
<title>Node2&#45;&gt;Node1</title>
<g id="a_edge1_Node000001_Node000002"><a xlink:title=" ">
<path fill="none" stroke="#63b8ff" d="M625.19,-56.31C664.55,-51.35 712.64,-45.29 753.52,-40.14"/>
<polygon fill="#63b8ff" stroke="#63b8ff" points="624.79,-52.83 615.31,-57.55 625.67,-59.78 624.79,-52.83"/>
</a>
</g>
</g>
<!-- Node3 -->
<g id="Node000003" class="node">
<title>Node3</title>
<g id="a_Node000003"><a xlink:href="../../de/d9b/class_deluxe_1_1_deluxe_brand_center_1_1_a_m_m_1_1_a_p_i_1_1_controllers_1_1_root_controller.html" target="_top" xlink:title="Root Controller.">
<polygon fill="white" stroke="#666666" points="292.5,-88 117.5,-88 117.5,-44 292.5,-44 292.5,-88"/>
<text text-anchor="start" x="125.5" y="-74.5" font-family="Helvetica,sans-Serif" font-size="10.00">Deluxe.DeluxeBrandCenter.</text>
<text text-anchor="start" x="125.5" y="-62.5" font-family="Helvetica,sans-Serif" font-size="10.00">AMM.API.Controllers.RootController</text>
<text text-anchor="middle" x="205" y="-50.5" font-family="Helvetica,sans-Serif" font-size="10.00">&lt; TService &gt;</text>
</a>
</g>
</g>
<!-- Node3&#45;&gt;Node2 -->
<g id="edge2_Node000002_Node000003" class="edge">
<title>Node3&#45;&gt;Node2</title>
<g id="a_edge2_Node000002_Node000003"><a xlink:title=" ">
<path fill="none" stroke="orange" stroke-dasharray="5,2" d="M303.92,-66C360.74,-66 430.75,-66 480.89,-66"/>
<polygon fill="orange" stroke="orange" points="304.25,-62.5 294.25,-66 304.25,-69.5 304.25,-62.5"/>
</a>
</g>
<text text-anchor="middle" x="372" y="-68.5" font-family="Helvetica,sans-Serif" font-size="10.00" fill="grey"> &lt; ISignatureBlockService &gt;</text>
</g>
<!-- Node4 -->
<g id="Node000004" class="node">
<title>Node4</title>
<g id="a_Node000004"><a xlink:title=" ">
<polygon fill="white" stroke="#666666" points="80.5,-76 0,-76 0,-56 80.5,-56 80.5,-76"/>
<text text-anchor="middle" x="40.25" y="-62.5" font-family="Helvetica,sans-Serif" font-size="10.00">ControllerBase</text>
</a>
</g>
</g>
<!-- Node4&#45;&gt;Node3 -->
<g id="edge3_Node000003_Node000004" class="edge">
<title>Node4&#45;&gt;Node3</title>
<g id="a_edge3_Node000003_Node000004"><a xlink:title=" ">
<path fill="none" stroke="#63b8ff" d="M91.99,-66C99.99,-66 108.46,-66 117,-66"/>
<polygon fill="#63b8ff" stroke="#63b8ff" points="92.16,-62.5 82.16,-66 92.16,-69.5 92.16,-62.5"/>
</a>
</g>
</g>
<!-- Node5 -->
<g id="Node000005" class="node">
<title>Node5</title>
<g id="a_Node000005"><a xlink:href="../../dd/d7d/interface_deluxe_1_1_deluxe_brand_center_1_1_a_m_m_1_1_domain_1_1_services_1_1_i_session_service.html" target="_top" xlink:title=" ">
<polygon fill="white" stroke="#666666" points="643,-32 451.5,-32 451.5,0 643,0 643,-32"/>
<text text-anchor="start" x="459.5" y="-18.5" font-family="Helvetica,sans-Serif" font-size="10.00">Deluxe.DeluxeBrandCenter.</text>
<text text-anchor="middle" x="547.25" y="-6.5" font-family="Helvetica,sans-Serif" font-size="10.00">AMM.Domain.Services.ISessionService</text>
</a>
</g>
</g>
<!-- Node5&#45;&gt;Node1 -->
<g id="edge4_Node000001_Node000005" class="edge">
<title>Node5&#45;&gt;Node1</title>
<g id="a_edge4_Node000001_Node000005"><a xlink:title=" ">
<path fill="none" stroke="#9a32cd" stroke-dasharray="5,2" d="M654.6,-20.71C687.17,-22.15 722.62,-23.72 753.84,-25.1"/>
<polygon fill="#9a32cd" stroke="#9a32cd" points="654.87,-17.22 644.73,-20.27 654.56,-24.21 654.87,-17.22"/>
</a>
</g>
<text text-anchor="middle" x="698.5" y="-26.55" font-family="Helvetica,sans-Serif" font-size="10.00" fill="grey"> _sessionService</text>
</g>
</g>
</svg>
