<?xml version="1.0" encoding="UTF-8" standalone="no"?>
<!DOCTYPE svg PUBLIC "-//W3C//DTD SVG 1.1//EN"
 "http://www.w3.org/Graphics/SVG/1.1/DTD/svg11.dtd">
<!-- Generated by graphviz version 12.1.1 (20240910.0053)
 -->
<!-- Title: Deluxe.DeluxeBrandCenter.AMM.Domain.DataModel.ContactManager.ContactGroup Pages: 1 -->
<svg width="248pt" height="276pt"
 viewBox="0.00 0.00 248.38 276.00" xmlns="http://www.w3.org/2000/svg" xmlns:xlink="http://www.w3.org/1999/xlink">
<g id="graph0" class="graph" transform="scale(1 1) rotate(0) translate(4 272)">
<title>Deluxe.DeluxeBrandCenter.AMM.Domain.DataModel.ContactManager.ContactGroup</title>
<!-- Node1 -->
<g id="Node000001" class="node">
<title>Node1</title>
<g id="a_Node000001"><a xlink:title=" ">
<polygon fill="#999999" stroke="#666666" points="216.25,-44 12,-44 12,0 216.25,0 216.25,-44"/>
<text text-anchor="start" x="20" y="-30.5" font-family="Helvetica,sans-Serif" font-size="10.00">Deluxe.DeluxeBrandCenter.</text>
<text text-anchor="start" x="20" y="-18.5" font-family="Helvetica,sans-Serif" font-size="10.00">AMM.Domain.DataModel.ContactManager.</text>
<text text-anchor="middle" x="114.12" y="-6.5" font-family="Helvetica,sans-Serif" font-size="10.00">ContactGroup</text>
</a>
</g>
</g>
<!-- Node2 -->
<g id="Node000002" class="node">
<title>Node2</title>
<g id="a_Node000002"><a xlink:href="../../d4/d1a/class_deluxe_1_1_deluxe_brand_center_1_1_a_m_m_1_1_domain_1_1_data_model_1_1_base_entity_named.html" target="_top" xlink:title=" ">
<polygon fill="white" stroke="#666666" points="161.88,-100 66.38,-100 66.38,-80 161.88,-80 161.88,-100"/>
<text text-anchor="middle" x="114.12" y="-86.5" font-family="Helvetica,sans-Serif" font-size="10.00">BaseEntityNamed</text>
</a>
</g>
</g>
<!-- Node2&#45;&gt;Node1 -->
<g id="edge1_Node000001_Node000002" class="edge">
<title>Node2&#45;&gt;Node1</title>
<g id="a_edge1_Node000001_Node000002"><a xlink:title=" ">
<path fill="none" stroke="#63b8ff" d="M114.12,-68.1C114.12,-60.55 114.12,-52.02 114.12,-44.43"/>
<polygon fill="#63b8ff" stroke="#63b8ff" points="110.63,-68.03 114.13,-78.03 117.63,-68.03 110.63,-68.03"/>
</a>
</g>
</g>
<!-- Node3 -->
<g id="Node000003" class="node">
<title>Node3</title>
<g id="a_Node000003"><a xlink:href="../../d7/d1c/class_deluxe_1_1_deluxe_brand_center_1_1_a_m_m_1_1_domain_1_1_data_model_1_1_base_entity.html" target="_top" xlink:title=" ">
<polygon fill="white" stroke="#666666" points="86.12,-156 22.12,-156 22.12,-136 86.12,-136 86.12,-156"/>
<text text-anchor="middle" x="54.12" y="-142.5" font-family="Helvetica,sans-Serif" font-size="10.00">BaseEntity</text>
</a>
</g>
</g>
<!-- Node3&#45;&gt;Node2 -->
<g id="edge2_Node000002_Node000003" class="edge">
<title>Node3&#45;&gt;Node2</title>
<g id="a_edge2_Node000002_Node000003"><a xlink:title=" ">
<path fill="none" stroke="#63b8ff" d="M72.87,-128.13C83.08,-118.94 95.31,-107.93 103.79,-100.3"/>
<polygon fill="#63b8ff" stroke="#63b8ff" points="70.79,-125.29 65.7,-134.58 75.48,-130.49 70.79,-125.29"/>
</a>
</g>
</g>
<!-- Node4 -->
<g id="Node000004" class="node">
<title>Node4</title>
<g id="a_Node000004"><a xlink:href="../../d6/df6/class_deluxe_1_1_deluxe_brand_center_1_1_a_m_m_1_1_domain_1_1_data_model_1_1_modified_entity.html" target="_top" xlink:title=" ">
<polygon fill="white" stroke="#666666" points="78.25,-212 0,-212 0,-192 78.25,-192 78.25,-212"/>
<text text-anchor="middle" x="39.12" y="-198.5" font-family="Helvetica,sans-Serif" font-size="10.00">ModifiedEntity</text>
</a>
</g>
</g>
<!-- Node4&#45;&gt;Node3 -->
<g id="edge3_Node000003_Node000004" class="edge">
<title>Node4&#45;&gt;Node3</title>
<g id="a_edge3_Node000003_Node000004"><a xlink:title=" ">
<path fill="none" stroke="#63b8ff" d="M44.76,-180.71C47.09,-172.32 49.68,-163.01 51.54,-156.3"/>
<polygon fill="#63b8ff" stroke="#63b8ff" points="41.45,-179.56 42.14,-190.14 48.19,-181.44 41.45,-179.56"/>
</a>
</g>
</g>
<!-- Node5 -->
<g id="Node000005" class="node">
<title>Node5</title>
<g id="a_Node000005"><a xlink:href="../../d6/dad/interface_deluxe_1_1_deluxe_brand_center_1_1_a_m_m_1_1_domain_1_1_data_model_1_1_interface_1_1_i_modified.html" target="_top" xlink:title=" ">
<polygon fill="white" stroke="#666666" points="112,-268 56.25,-268 56.25,-248 112,-248 112,-268"/>
<text text-anchor="middle" x="84.12" y="-254.5" font-family="Helvetica,sans-Serif" font-size="10.00">IModified</text>
</a>
</g>
</g>
<!-- Node5&#45;&gt;Node4 -->
<g id="edge4_Node000004_Node000005" class="edge">
<title>Node5&#45;&gt;Node4</title>
<g id="a_edge4_Node000004_Node000005"><a xlink:title=" ">
<path fill="none" stroke="#63b8ff" d="M69.13,-239C61.67,-230.06 52.98,-219.62 46.87,-212.3"/>
<polygon fill="#63b8ff" stroke="#63b8ff" points="66.23,-240.99 75.32,-246.43 71.6,-236.51 66.23,-240.99"/>
</a>
</g>
</g>
<!-- Node6 -->
<g id="Node000006" class="node">
<title>Node6</title>
<g id="a_Node000006"><a xlink:href="../../d5/d26/interface_deluxe_1_1_deluxe_brand_center_1_1_a_m_m_1_1_domain_1_1_data_model_1_1_interface_1_1_i_base_entity.html" target="_top" xlink:title=" ">
<polygon fill="white" stroke="#666666" points="163.62,-212 96.62,-212 96.62,-192 163.62,-192 163.62,-212"/>
<text text-anchor="middle" x="130.12" y="-198.5" font-family="Helvetica,sans-Serif" font-size="10.00">IBaseEntity</text>
</a>
</g>
</g>
<!-- Node5&#45;&gt;Node6 -->
<g id="edge6_Node000006_Node000005" class="edge">
<title>Node5&#45;&gt;Node6</title>
<g id="a_edge6_Node000006_Node000005"><a xlink:title=" ">
<path fill="none" stroke="#63b8ff" d="M99.46,-239C107.08,-230.06 115.96,-219.62 122.2,-212.3"/>
<polygon fill="#63b8ff" stroke="#63b8ff" points="96.94,-236.56 93.12,-246.44 102.27,-241.1 96.94,-236.56"/>
</a>
</g>
</g>
<!-- Node6&#45;&gt;Node2 -->
<g id="edge9_Node000002_Node000006" class="edge">
<title>Node6&#45;&gt;Node2</title>
<g id="a_edge9_Node000002_Node000006"><a xlink:title=" ">
<path fill="none" stroke="#63b8ff" d="M127.12,-180.31C123.63,-156.36 118.05,-117.95 115.49,-100.35"/>
<polygon fill="#63b8ff" stroke="#63b8ff" points="123.64,-180.73 128.54,-190.12 130.57,-179.72 123.64,-180.73"/>
</a>
</g>
</g>
<!-- Node6&#45;&gt;Node3 -->
<g id="edge5_Node000003_Node000006" class="edge">
<title>Node6&#45;&gt;Node3</title>
<g id="a_edge5_Node000003_Node000006"><a xlink:title=" ">
<path fill="none" stroke="#63b8ff" d="M107.6,-185C94.55,-175.72 78.55,-164.35 67.47,-156.48"/>
<polygon fill="#63b8ff" stroke="#63b8ff" points="105.47,-187.78 115.65,-190.72 109.53,-182.07 105.47,-187.78"/>
</a>
</g>
</g>
<!-- Node7 -->
<g id="Node000007" class="node">
<title>Node7</title>
<g id="a_Node000007"><a xlink:href="../../d9/dec/interface_deluxe_1_1_deluxe_brand_center_1_1_a_m_m_1_1_domain_1_1_data_model_1_1_interface_1_1_i_base_entity_named.html" target="_top" xlink:title=" ">
<polygon fill="white" stroke="#666666" points="240.38,-156 141.88,-156 141.88,-136 240.38,-136 240.38,-156"/>
<text text-anchor="middle" x="191.12" y="-142.5" font-family="Helvetica,sans-Serif" font-size="10.00">IBaseEntityNamed</text>
</a>
</g>
</g>
<!-- Node6&#45;&gt;Node7 -->
<g id="edge8_Node000007_Node000006" class="edge">
<title>Node6&#45;&gt;Node7</title>
<g id="a_edge8_Node000007_Node000006"><a xlink:title=" ">
<path fill="none" stroke="#63b8ff" d="M149.19,-184.13C159.56,-174.94 172,-163.93 180.62,-156.3"/>
<polygon fill="#63b8ff" stroke="#63b8ff" points="147.05,-181.34 141.88,-190.59 151.69,-186.58 147.05,-181.34"/>
</a>
</g>
</g>
<!-- Node7&#45;&gt;Node2 -->
<g id="edge7_Node000002_Node000007" class="edge">
<title>Node7&#45;&gt;Node2</title>
<g id="a_edge7_Node000002_Node000007"><a xlink:title=" ">
<path fill="none" stroke="#63b8ff" d="M168.31,-129C155.08,-119.72 138.87,-108.35 127.64,-100.48"/>
<polygon fill="#63b8ff" stroke="#63b8ff" points="166.28,-131.85 176.47,-134.72 170.3,-126.12 166.28,-131.85"/>
</a>
</g>
</g>
</g>
</svg>
