<?xml version="1.0" encoding="UTF-8" standalone="no"?>
<!DOCTYPE svg PUBLIC "-//W3C//DTD SVG 1.1//EN"
 "http://www.w3.org/Graphics/SVG/1.1/DTD/svg11.dtd">
<!-- Generated by graphviz version 12.1.1 (20240910.0053)
 -->
<!-- Title: Deluxe.DeluxeBrandCenter.AMM.Domain.DataModel.BaseEntityNamed Pages: 1 -->
<svg width="248pt" height="208pt"
 viewBox="0.00 0.00 248.38 208.00" xmlns="http://www.w3.org/2000/svg" xmlns:xlink="http://www.w3.org/1999/xlink">
<g id="graph0" class="graph" transform="scale(1 1) rotate(0) translate(4 204)">
<title>Deluxe.DeluxeBrandCenter.AMM.Domain.DataModel.BaseEntityNamed</title>
<!-- Node1 -->
<g id="Node000001" class="node">
<title>Node1</title>
<g id="a_Node000001"><a xlink:title=" ">
<polygon fill="#999999" stroke="#666666" points="218.5,-32 9.75,-32 9.75,0 218.5,0 218.5,-32"/>
<text text-anchor="start" x="17.75" y="-18.5" font-family="Helvetica,sans-Serif" font-size="10.00">Deluxe.DeluxeBrandCenter.</text>
<text text-anchor="middle" x="114.12" y="-6.5" font-family="Helvetica,sans-Serif" font-size="10.00">AMM.Domain.DataModel.BaseEntityNamed</text>
</a>
</g>
</g>
<!-- Node2 -->
<g id="Node000002" class="node">
<title>Node2</title>
<g id="a_Node000002"><a xlink:href="../../d7/d1c/class_deluxe_1_1_deluxe_brand_center_1_1_a_m_m_1_1_domain_1_1_data_model_1_1_base_entity.html" target="_top" xlink:title=" ">
<polygon fill="white" stroke="#666666" points="86.12,-88 22.12,-88 22.12,-68 86.12,-68 86.12,-88"/>
<text text-anchor="middle" x="54.12" y="-74.5" font-family="Helvetica,sans-Serif" font-size="10.00">BaseEntity</text>
</a>
</g>
</g>
<!-- Node2&#45;&gt;Node1 -->
<g id="edge1_Node000001_Node000002" class="edge">
<title>Node2&#45;&gt;Node1</title>
<g id="a_edge1_Node000001_Node000002"><a xlink:title=" ">
<path fill="none" stroke="#63b8ff" d="M71.48,-59.65C80.18,-50.95 90.61,-40.51 98.98,-32.14"/>
<polygon fill="#63b8ff" stroke="#63b8ff" points="69.17,-57.01 64.57,-66.55 74.12,-61.96 69.17,-57.01"/>
</a>
</g>
</g>
<!-- Node3 -->
<g id="Node000003" class="node">
<title>Node3</title>
<g id="a_Node000003"><a xlink:href="../../d6/df6/class_deluxe_1_1_deluxe_brand_center_1_1_a_m_m_1_1_domain_1_1_data_model_1_1_modified_entity.html" target="_top" xlink:title=" ">
<polygon fill="white" stroke="#666666" points="78.25,-144 0,-144 0,-124 78.25,-124 78.25,-144"/>
<text text-anchor="middle" x="39.12" y="-130.5" font-family="Helvetica,sans-Serif" font-size="10.00">ModifiedEntity</text>
</a>
</g>
</g>
<!-- Node3&#45;&gt;Node2 -->
<g id="edge2_Node000002_Node000003" class="edge">
<title>Node3&#45;&gt;Node2</title>
<g id="a_edge2_Node000002_Node000003"><a xlink:title=" ">
<path fill="none" stroke="#63b8ff" d="M44.76,-112.71C47.09,-104.32 49.68,-95.01 51.54,-88.3"/>
<polygon fill="#63b8ff" stroke="#63b8ff" points="41.45,-111.56 42.14,-122.14 48.19,-113.44 41.45,-111.56"/>
</a>
</g>
</g>
<!-- Node4 -->
<g id="Node000004" class="node">
<title>Node4</title>
<g id="a_Node000004"><a xlink:href="../../d6/dad/interface_deluxe_1_1_deluxe_brand_center_1_1_a_m_m_1_1_domain_1_1_data_model_1_1_interface_1_1_i_modified.html" target="_top" xlink:title=" ">
<polygon fill="white" stroke="#666666" points="112,-200 56.25,-200 56.25,-180 112,-180 112,-200"/>
<text text-anchor="middle" x="84.12" y="-186.5" font-family="Helvetica,sans-Serif" font-size="10.00">IModified</text>
</a>
</g>
</g>
<!-- Node4&#45;&gt;Node3 -->
<g id="edge3_Node000003_Node000004" class="edge">
<title>Node4&#45;&gt;Node3</title>
<g id="a_edge3_Node000003_Node000004"><a xlink:title=" ">
<path fill="none" stroke="#63b8ff" d="M69.13,-171C61.67,-162.06 52.98,-151.62 46.87,-144.3"/>
<polygon fill="#63b8ff" stroke="#63b8ff" points="66.23,-172.99 75.32,-178.43 71.6,-168.51 66.23,-172.99"/>
</a>
</g>
</g>
<!-- Node5 -->
<g id="Node000005" class="node">
<title>Node5</title>
<g id="a_Node000005"><a xlink:href="../../d5/d26/interface_deluxe_1_1_deluxe_brand_center_1_1_a_m_m_1_1_domain_1_1_data_model_1_1_interface_1_1_i_base_entity.html" target="_top" xlink:title=" ">
<polygon fill="white" stroke="#666666" points="163.62,-144 96.62,-144 96.62,-124 163.62,-124 163.62,-144"/>
<text text-anchor="middle" x="130.12" y="-130.5" font-family="Helvetica,sans-Serif" font-size="10.00">IBaseEntity</text>
</a>
</g>
</g>
<!-- Node4&#45;&gt;Node5 -->
<g id="edge5_Node000005_Node000004" class="edge">
<title>Node4&#45;&gt;Node5</title>
<g id="a_edge5_Node000005_Node000004"><a xlink:title=" ">
<path fill="none" stroke="#63b8ff" d="M99.46,-171C107.08,-162.06 115.96,-151.62 122.2,-144.3"/>
<polygon fill="#63b8ff" stroke="#63b8ff" points="96.94,-168.56 93.12,-178.44 102.27,-173.1 96.94,-168.56"/>
</a>
</g>
</g>
<!-- Node5&#45;&gt;Node1 -->
<g id="edge8_Node000001_Node000005" class="edge">
<title>Node5&#45;&gt;Node1</title>
<g id="a_edge8_Node000001_Node000005"><a xlink:title=" ">
<path fill="none" stroke="#63b8ff" d="M127.28,-112.36C124.12,-89.44 119.09,-52.97 116.25,-32.41"/>
<polygon fill="#63b8ff" stroke="#63b8ff" points="123.78,-112.58 128.61,-122.01 130.71,-111.62 123.78,-112.58"/>
</a>
</g>
</g>
<!-- Node5&#45;&gt;Node2 -->
<g id="edge4_Node000002_Node000005" class="edge">
<title>Node5&#45;&gt;Node2</title>
<g id="a_edge4_Node000002_Node000005"><a xlink:title=" ">
<path fill="none" stroke="#63b8ff" d="M107.6,-117C94.55,-107.72 78.55,-96.35 67.47,-88.48"/>
<polygon fill="#63b8ff" stroke="#63b8ff" points="105.47,-119.78 115.65,-122.72 109.53,-114.07 105.47,-119.78"/>
</a>
</g>
</g>
<!-- Node6 -->
<g id="Node000006" class="node">
<title>Node6</title>
<g id="a_Node000006"><a xlink:href="../../d9/dec/interface_deluxe_1_1_deluxe_brand_center_1_1_a_m_m_1_1_domain_1_1_data_model_1_1_interface_1_1_i_base_entity_named.html" target="_top" xlink:title=" ">
<polygon fill="white" stroke="#666666" points="240.38,-88 141.88,-88 141.88,-68 240.38,-68 240.38,-88"/>
<text text-anchor="middle" x="191.12" y="-74.5" font-family="Helvetica,sans-Serif" font-size="10.00">IBaseEntityNamed</text>
</a>
</g>
</g>
<!-- Node5&#45;&gt;Node6 -->
<g id="edge7_Node000006_Node000005" class="edge">
<title>Node5&#45;&gt;Node6</title>
<g id="a_edge7_Node000006_Node000005"><a xlink:title=" ">
<path fill="none" stroke="#63b8ff" d="M149.19,-116.13C159.56,-106.94 172,-95.93 180.62,-88.3"/>
<polygon fill="#63b8ff" stroke="#63b8ff" points="147.05,-113.34 141.88,-122.59 151.69,-118.58 147.05,-113.34"/>
</a>
</g>
</g>
<!-- Node6&#45;&gt;Node1 -->
<g id="edge6_Node000001_Node000006" class="edge">
<title>Node6&#45;&gt;Node1</title>
<g id="a_edge6_Node000001_Node000006"><a xlink:title=" ">
<path fill="none" stroke="#63b8ff" d="M170.3,-60.78C158.97,-51.94 145.02,-41.07 133.85,-32.37"/>
<polygon fill="#63b8ff" stroke="#63b8ff" points="167.86,-63.31 177.9,-66.69 172.16,-57.79 167.86,-63.31"/>
</a>
</g>
</g>
</g>
</svg>
