<?xml version="1.0" encoding="UTF-8" standalone="no"?>
<!DOCTYPE svg PUBLIC "-//W3C//DTD SVG 1.1//EN"
 "http://www.w3.org/Graphics/SVG/1.1/DTD/svg11.dtd">
<!-- Generated by graphviz version 12.1.1 (20240910.0053)
 -->
<!-- Title: Deluxe.DeluxeBrandCenter.AMM.API.Services.SignatureBlockService Pages: 1 -->
<svg width="1020pt" height="214pt"
 viewBox="0.00 0.00 1019.50 214.00" xmlns="http://www.w3.org/2000/svg" xmlns:xlink="http://www.w3.org/1999/xlink">
<g id="graph0" class="graph" transform="scale(1 1) rotate(0) translate(4 210)">
<title>Deluxe.DeluxeBrandCenter.AMM.API.Services.SignatureBlockService</title>
<!-- Node1 -->
<g id="Node000001" class="node">
<title>Node1</title>
<g id="a_Node000001"><a xlink:title=" ">
<polygon fill="#999999" stroke="#666666" points="1011.5,-102 842.5,-102 842.5,-58 1011.5,-58 1011.5,-102"/>
<text text-anchor="start" x="850.5" y="-88.5" font-family="Helvetica,sans-Serif" font-size="10.00">Deluxe.DeluxeBrandCenter.</text>
<text text-anchor="start" x="850.5" y="-76.5" font-family="Helvetica,sans-Serif" font-size="10.00">AMM.API.Services.SignatureBlock</text>
<text text-anchor="middle" x="927" y="-64.5" font-family="Helvetica,sans-Serif" font-size="10.00">Service</text>
</a>
</g>
</g>
<!-- Node2 -->
<g id="Node000002" class="node">
<title>Node2</title>
<g id="a_Node000002"><a xlink:href="../../d6/d4e/class_deluxe_1_1_deluxe_brand_center_1_1_a_m_m_1_1_a_p_i_1_1_services_1_1_d_b_service.html" target="_top" xlink:title=" ">
<polygon fill="white" stroke="#666666" points="805.5,-120 664.25,-120 664.25,-88 805.5,-88 805.5,-120"/>
<text text-anchor="start" x="672.25" y="-106.5" font-family="Helvetica,sans-Serif" font-size="10.00">DBService&lt; SignatureBlock,</text>
<text text-anchor="middle" x="734.88" y="-94.5" font-family="Helvetica,sans-Serif" font-size="10.00"> SignatureBlockVM &gt;</text>
</a>
</g>
</g>
<!-- Node2&#45;&gt;Node1 -->
<g id="edge1_Node000001_Node000002" class="edge">
<title>Node2&#45;&gt;Node1</title>
<g id="a_edge1_Node000001_Node000002"><a xlink:title=" ">
<path fill="none" stroke="#63b8ff" d="M817.12,-93.74C825.46,-92.69 833.94,-91.62 842.31,-90.56"/>
<polygon fill="#63b8ff" stroke="#63b8ff" points="816.85,-90.25 807.36,-94.98 817.72,-97.2 816.85,-90.25"/>
</a>
</g>
</g>
<!-- Node3 -->
<g id="Node000003" class="node">
<title>Node3</title>
<g id="a_Node000003"><a xlink:href="../../d6/d4e/class_deluxe_1_1_deluxe_brand_center_1_1_a_m_m_1_1_a_p_i_1_1_services_1_1_d_b_service.html" target="_top" xlink:title=" ">
<polygon fill="white" stroke="#666666" points="503,-128 352.75,-128 352.75,-84 503,-84 503,-128"/>
<text text-anchor="start" x="360.75" y="-114.5" font-family="Helvetica,sans-Serif" font-size="10.00">Deluxe.DeluxeBrandCenter.</text>
<text text-anchor="start" x="360.75" y="-102.5" font-family="Helvetica,sans-Serif" font-size="10.00">AMM.API.Services.DBService</text>
<text text-anchor="middle" x="427.88" y="-90.5" font-family="Helvetica,sans-Serif" font-size="10.00">&lt; TModel, TModelVM &gt;</text>
</a>
</g>
</g>
<!-- Node3&#45;&gt;Node2 -->
<g id="edge2_Node000002_Node000003" class="edge">
<title>Node3&#45;&gt;Node2</title>
<g id="a_edge2_Node000002_Node000003"><a xlink:title=" ">
<path fill="none" stroke="orange" stroke-dasharray="5,2" d="M514.91,-105.44C562.02,-105.13 619.65,-104.75 663.96,-104.46"/>
<polygon fill="orange" stroke="orange" points="514.98,-101.94 505,-105.5 515.02,-108.94 514.98,-101.94"/>
</a>
</g>
<text text-anchor="start" x="521" y="-119.85" font-family="Helvetica,sans-Serif" font-size="10.00" fill="grey"> &lt; SignatureBlock, Signature</text>
<text text-anchor="middle" x="583.62" y="-107.85" font-family="Helvetica,sans-Serif" font-size="10.00" fill="grey">BlockVM &gt;</text>
</g>
<!-- Node4 -->
<g id="Node000004" class="node">
<title>Node4</title>
<g id="a_Node000004"><a xlink:href="../../d3/ddb/interface_deluxe_1_1_deluxe_brand_center_1_1_a_m_m_1_1_a_p_i_1_1_services_1_1_i_d_b_service.html" target="_top" xlink:title=" ">
<polygon fill="white" stroke="#666666" points="150.62,-206 40.88,-206 40.88,-174 150.62,-174 150.62,-206"/>
<text text-anchor="start" x="48.88" y="-192.5" font-family="Helvetica,sans-Serif" font-size="10.00">IDBService&lt; TModel,</text>
<text text-anchor="middle" x="95.75" y="-180.5" font-family="Helvetica,sans-Serif" font-size="10.00"> TModelVM &gt;</text>
</a>
</g>
</g>
<!-- Node4&#45;&gt;Node3 -->
<g id="edge3_Node000003_Node000004" class="edge">
<title>Node4&#45;&gt;Node3</title>
<g id="a_edge3_Node000003_Node000004"><a xlink:title=" ">
<path fill="none" stroke="#63b8ff" d="M161.92,-178.97C210.11,-170.18 277.09,-156.6 334.75,-140 346.38,-136.65 358.65,-132.54 370.3,-128.36"/>
<polygon fill="#63b8ff" stroke="#63b8ff" points="161.42,-175.51 152.2,-180.73 162.66,-182.4 161.42,-175.51"/>
</a>
</g>
</g>
<!-- Node5 -->
<g id="Node000005" class="node">
<title>Node5</title>
<g id="a_Node000005"><a xlink:href="../../da/d0c/interface_deluxe_1_1_deluxe_brand_center_1_1_a_m_m_1_1_infrastructure_1_1_social_1_1_i_social_network_service.html" target="_top" xlink:title=" ">
<polygon fill="white" stroke="#666666" points="177.25,-156 14.25,-156 14.25,-112 177.25,-112 177.25,-156"/>
<text text-anchor="start" x="22.25" y="-142.5" font-family="Helvetica,sans-Serif" font-size="10.00">Deluxe.DeluxeBrandCenter.</text>
<text text-anchor="start" x="22.25" y="-130.5" font-family="Helvetica,sans-Serif" font-size="10.00">AMM.Infrastructure.Social.ISocial</text>
<text text-anchor="middle" x="95.75" y="-118.5" font-family="Helvetica,sans-Serif" font-size="10.00">NetworkService</text>
</a>
</g>
</g>
<!-- Node5&#45;&gt;Node3 -->
<g id="edge4_Node000003_Node000005" class="edge">
<title>Node5&#45;&gt;Node3</title>
<g id="a_edge4_Node000003_Node000005"><a xlink:title=" ">
<path fill="none" stroke="#9a32cd" stroke-dasharray="5,2" d="M188.66,-126.2C240.27,-121.83 303.83,-116.44 352.32,-112.32"/>
<polygon fill="#9a32cd" stroke="#9a32cd" points="188.68,-122.69 179.02,-127.02 189.28,-129.66 188.68,-122.69"/>
</a>
</g>
<text text-anchor="middle" x="272.12" y="-126.64" font-family="Helvetica,sans-Serif" font-size="10.00" fill="grey"> _socialNetworkService</text>
</g>
<!-- Node6 -->
<g id="Node000006" class="node">
<title>Node6</title>
<g id="a_Node000006"><a xlink:href="../../dd/d7d/interface_deluxe_1_1_deluxe_brand_center_1_1_a_m_m_1_1_domain_1_1_services_1_1_i_session_service.html" target="_top" xlink:title=" ">
<polygon fill="white" stroke="#666666" points="191.5,-94 0,-94 0,-62 191.5,-62 191.5,-94"/>
<text text-anchor="start" x="8" y="-80.5" font-family="Helvetica,sans-Serif" font-size="10.00">Deluxe.DeluxeBrandCenter.</text>
<text text-anchor="middle" x="95.75" y="-68.5" font-family="Helvetica,sans-Serif" font-size="10.00">AMM.Domain.Services.ISessionService</text>
</a>
</g>
</g>
<!-- Node6&#45;&gt;Node3 -->
<g id="edge5_Node000003_Node000006" class="edge">
<title>Node6&#45;&gt;Node3</title>
<g id="a_edge5_Node000003_Node000006"><a xlink:title=" ">
<path fill="none" stroke="#9a32cd" stroke-dasharray="5,2" d="M203.14,-86.88C244.26,-90.32 291.7,-94.32 334.75,-98 340.51,-98.49 346.47,-99 352.46,-99.52"/>
<polygon fill="#9a32cd" stroke="#9a32cd" points="203.49,-83.39 193.23,-86.05 202.9,-90.37 203.49,-83.39"/>
</a>
</g>
<text text-anchor="middle" x="272.12" y="-100.5" font-family="Helvetica,sans-Serif" font-size="10.00" fill="grey"> _sessionService</text>
</g>
<!-- Node7 -->
<g id="Node000007" class="node">
<title>Node7</title>
<g id="a_Node000007"><a xlink:href="../../dd/d36/interface_deluxe_1_1_deluxe_brand_center_1_1_a_m_m_1_1_a_p_i_1_1_services_1_1_i_signature_block_service.html" target="_top" xlink:title=" ">
<polygon fill="white" stroke="#666666" points="793.88,-69 675.88,-69 675.88,-49 793.88,-49 793.88,-69"/>
<text text-anchor="middle" x="734.88" y="-55.5" font-family="Helvetica,sans-Serif" font-size="10.00">ISignatureBlockService</text>
</a>
</g>
</g>
<!-- Node7&#45;&gt;Node1 -->
<g id="edge6_Node000001_Node000007" class="edge">
<title>Node7&#45;&gt;Node1</title>
<g id="a_edge6_Node000001_Node000007"><a xlink:title=" ">
<path fill="none" stroke="#63b8ff" d="M805.47,-66.69C817.42,-68.01 829.96,-69.39 842.23,-70.75"/>
<polygon fill="#63b8ff" stroke="#63b8ff" points="806.04,-63.23 795.72,-65.61 805.27,-70.19 806.04,-63.23"/>
</a>
</g>
</g>
<!-- Node8 -->
<g id="Node000008" class="node">
<title>Node8</title>
<g id="a_Node000008"><a xlink:href="../../d3/ddb/interface_deluxe_1_1_deluxe_brand_center_1_1_a_m_m_1_1_a_p_i_1_1_services_1_1_i_d_b_service.html" target="_top" xlink:title=" ">
<polygon fill="white" stroke="#666666" points="500,-66 355.75,-66 355.75,-34 500,-34 500,-66"/>
<text text-anchor="start" x="363.75" y="-52.5" font-family="Helvetica,sans-Serif" font-size="10.00">IDBService&lt; SignatureBlock,</text>
<text text-anchor="middle" x="427.88" y="-40.5" font-family="Helvetica,sans-Serif" font-size="10.00"> SignatureBlockVM &gt;</text>
</a>
</g>
</g>
<!-- Node8&#45;&gt;Node7 -->
<g id="edge7_Node000007_Node000008" class="edge">
<title>Node8&#45;&gt;Node7</title>
<g id="a_edge7_Node000007_Node000008"><a xlink:title=" ">
<path fill="none" stroke="#63b8ff" d="M511.57,-52.44C563.47,-53.97 629.12,-55.91 675.59,-57.28"/>
<polygon fill="#63b8ff" stroke="#63b8ff" points="512,-48.95 501.9,-52.15 511.79,-55.95 512,-48.95"/>
</a>
</g>
</g>
<!-- Node9 -->
<g id="Node000009" class="node">
<title>Node9</title>
<g id="a_Node000009"><a xlink:href="../../d3/ddb/interface_deluxe_1_1_deluxe_brand_center_1_1_a_m_m_1_1_a_p_i_1_1_services_1_1_i_d_b_service.html" target="_top" xlink:title=" ">
<polygon fill="white" stroke="#666666" points="172.38,-44 19.12,-44 19.12,0 172.38,0 172.38,-44"/>
<text text-anchor="start" x="27.12" y="-30.5" font-family="Helvetica,sans-Serif" font-size="10.00">Deluxe.DeluxeBrandCenter.</text>
<text text-anchor="start" x="27.12" y="-18.5" font-family="Helvetica,sans-Serif" font-size="10.00">AMM.API.Services.IDBService</text>
<text text-anchor="middle" x="95.75" y="-6.5" font-family="Helvetica,sans-Serif" font-size="10.00">&lt; TModel, TModelVM &gt;</text>
</a>
</g>
</g>
<!-- Node9&#45;&gt;Node8 -->
<g id="edge8_Node000008_Node000009" class="edge">
<title>Node9&#45;&gt;Node8</title>
<g id="a_edge8_Node000008_Node000009"><a xlink:title=" ">
<path fill="none" stroke="orange" stroke-dasharray="5,2" d="M183.69,-29.37C237.24,-33.92 305.04,-39.67 355.45,-43.94"/>
<polygon fill="orange" stroke="orange" points="184.26,-25.91 174,-28.55 183.66,-32.88 184.26,-25.91"/>
</a>
</g>
<text text-anchor="start" x="209.5" y="-56.23" font-family="Helvetica,sans-Serif" font-size="10.00" fill="grey"> &lt; SignatureBlock, Signature</text>
<text text-anchor="middle" x="272.12" y="-44.23" font-family="Helvetica,sans-Serif" font-size="10.00" fill="grey">BlockVM &gt;</text>
</g>
</g>
</svg>
