<?xml version="1.0" encoding="UTF-8" standalone="no"?>
<!DOCTYPE svg PUBLIC "-//W3C//DTD SVG 1.1//EN"
 "http://www.w3.org/Graphics/SVG/1.1/DTD/svg11.dtd">
<!-- Generated by graphviz version 12.1.1 (20240910.0053)
 -->
<!-- Title: Deluxe.DeluxeBrandCenter.AMM.API.Services.TemplateService Pages: 1 -->
<svg width="989pt" height="214pt"
 viewBox="0.00 0.00 988.75 214.00" xmlns="http://www.w3.org/2000/svg" xmlns:xlink="http://www.w3.org/1999/xlink">
<g id="graph0" class="graph" transform="scale(1 1) rotate(0) translate(4 210)">
<title>Deluxe.DeluxeBrandCenter.AMM.API.Services.TemplateService</title>
<!-- Node1 -->
<g id="Node000001" class="node">
<title>Node1</title>
<g id="a_Node000001"><a xlink:title=" ">
<polygon fill="#999999" stroke="#666666" points="980.75,-96 805,-96 805,-64 980.75,-64 980.75,-96"/>
<text text-anchor="start" x="813" y="-82.5" font-family="Helvetica,sans-Serif" font-size="10.00">Deluxe.DeluxeBrandCenter.</text>
<text text-anchor="middle" x="892.88" y="-70.5" font-family="Helvetica,sans-Serif" font-size="10.00">AMM.API.Services.TemplateService</text>
</a>
</g>
</g>
<!-- Node2 -->
<g id="Node000002" class="node">
<title>Node2</title>
<g id="a_Node000002"><a xlink:href="../../d6/d4e/class_deluxe_1_1_deluxe_brand_center_1_1_a_m_m_1_1_a_p_i_1_1_services_1_1_d_b_service.html" target="_top" xlink:title=" ">
<polygon fill="white" stroke="#666666" points="768,-120 653.75,-120 653.75,-88 768,-88 768,-120"/>
<text text-anchor="start" x="661.75" y="-106.5" font-family="Helvetica,sans-Serif" font-size="10.00">DBService&lt; Template,</text>
<text text-anchor="middle" x="710.88" y="-94.5" font-family="Helvetica,sans-Serif" font-size="10.00"> TemplateVM &gt;</text>
</a>
</g>
</g>
<!-- Node2&#45;&gt;Node1 -->
<g id="edge1_Node000001_Node000002" class="edge">
<title>Node2&#45;&gt;Node1</title>
<g id="a_edge1_Node000001_Node000002"><a xlink:title=" ">
<path fill="none" stroke="#63b8ff" d="M779.66,-94.96C787.82,-93.87 796.24,-92.75 804.63,-91.63"/>
<polygon fill="#63b8ff" stroke="#63b8ff" points="779.28,-91.48 769.83,-96.27 780.21,-98.42 779.28,-91.48"/>
</a>
</g>
</g>
<!-- Node3 -->
<g id="Node000003" class="node">
<title>Node3</title>
<g id="a_Node000003"><a xlink:href="../../d6/d4e/class_deluxe_1_1_deluxe_brand_center_1_1_a_m_m_1_1_a_p_i_1_1_services_1_1_d_b_service.html" target="_top" xlink:title=" ">
<polygon fill="white" stroke="#666666" points="497.75,-128 347.5,-128 347.5,-84 497.75,-84 497.75,-128"/>
<text text-anchor="start" x="355.5" y="-114.5" font-family="Helvetica,sans-Serif" font-size="10.00">Deluxe.DeluxeBrandCenter.</text>
<text text-anchor="start" x="355.5" y="-102.5" font-family="Helvetica,sans-Serif" font-size="10.00">AMM.API.Services.DBService</text>
<text text-anchor="middle" x="422.62" y="-90.5" font-family="Helvetica,sans-Serif" font-size="10.00">&lt; TModel, TModelVM &gt;</text>
</a>
</g>
</g>
<!-- Node3&#45;&gt;Node2 -->
<g id="edge2_Node000002_Node000003" class="edge">
<title>Node3&#45;&gt;Node2</title>
<g id="a_edge2_Node000002_Node000003"><a xlink:title=" ">
<path fill="none" stroke="orange" stroke-dasharray="5,2" d="M509.4,-105.4C556.02,-105.07 612.35,-104.68 653.42,-104.39"/>
<polygon fill="orange" stroke="orange" points="509.58,-101.9 499.6,-105.47 509.62,-108.9 509.58,-101.9"/>
</a>
</g>
<text text-anchor="middle" x="575.75" y="-107.85" font-family="Helvetica,sans-Serif" font-size="10.00" fill="grey"> &lt; Template, TemplateVM &gt;</text>
</g>
<!-- Node4 -->
<g id="Node000004" class="node">
<title>Node4</title>
<g id="a_Node000004"><a xlink:href="../../d3/ddb/interface_deluxe_1_1_deluxe_brand_center_1_1_a_m_m_1_1_a_p_i_1_1_services_1_1_i_d_b_service.html" target="_top" xlink:title=" ">
<polygon fill="white" stroke="#666666" points="150.62,-206 40.88,-206 40.88,-174 150.62,-174 150.62,-206"/>
<text text-anchor="start" x="48.88" y="-192.5" font-family="Helvetica,sans-Serif" font-size="10.00">IDBService&lt; TModel,</text>
<text text-anchor="middle" x="95.75" y="-180.5" font-family="Helvetica,sans-Serif" font-size="10.00"> TModelVM &gt;</text>
</a>
</g>
</g>
<!-- Node4&#45;&gt;Node3 -->
<g id="edge3_Node000003_Node000004" class="edge">
<title>Node4&#45;&gt;Node3</title>
<g id="a_edge3_Node000003_Node000004"><a xlink:title=" ">
<path fill="none" stroke="#63b8ff" d="M162.16,-178.52C209.15,-169.66 273.77,-156.18 329.5,-140 340.96,-136.67 353.04,-132.62 364.55,-128.49"/>
<polygon fill="#63b8ff" stroke="#63b8ff" points="161.58,-175.07 152.4,-180.34 162.87,-181.95 161.58,-175.07"/>
</a>
</g>
</g>
<!-- Node5 -->
<g id="Node000005" class="node">
<title>Node5</title>
<g id="a_Node000005"><a xlink:href="../../da/d0c/interface_deluxe_1_1_deluxe_brand_center_1_1_a_m_m_1_1_infrastructure_1_1_social_1_1_i_social_network_service.html" target="_top" xlink:title=" ">
<polygon fill="white" stroke="#666666" points="177.25,-156 14.25,-156 14.25,-112 177.25,-112 177.25,-156"/>
<text text-anchor="start" x="22.25" y="-142.5" font-family="Helvetica,sans-Serif" font-size="10.00">Deluxe.DeluxeBrandCenter.</text>
<text text-anchor="start" x="22.25" y="-130.5" font-family="Helvetica,sans-Serif" font-size="10.00">AMM.Infrastructure.Social.ISocial</text>
<text text-anchor="middle" x="95.75" y="-118.5" font-family="Helvetica,sans-Serif" font-size="10.00">NetworkService</text>
</a>
</g>
</g>
<!-- Node5&#45;&gt;Node3 -->
<g id="edge4_Node000003_Node000005" class="edge">
<title>Node5&#45;&gt;Node3</title>
<g id="a_edge4_Node000003_Node000005"><a xlink:title=" ">
<path fill="none" stroke="#9a32cd" stroke-dasharray="5,2" d="M188.65,-126.08C238.78,-121.76 300.04,-116.48 347.16,-112.42"/>
<polygon fill="#9a32cd" stroke="#9a32cd" points="188.64,-122.57 178.98,-126.91 189.25,-129.54 188.64,-122.57"/>
</a>
</g>
<text text-anchor="middle" x="269.5" y="-126.64" font-family="Helvetica,sans-Serif" font-size="10.00" fill="grey"> _socialNetworkService</text>
</g>
<!-- Node6 -->
<g id="Node000006" class="node">
<title>Node6</title>
<g id="a_Node000006"><a xlink:href="../../dd/d7d/interface_deluxe_1_1_deluxe_brand_center_1_1_a_m_m_1_1_domain_1_1_services_1_1_i_session_service.html" target="_top" xlink:title=" ">
<polygon fill="white" stroke="#666666" points="191.5,-94 0,-94 0,-62 191.5,-62 191.5,-94"/>
<text text-anchor="start" x="8" y="-80.5" font-family="Helvetica,sans-Serif" font-size="10.00">Deluxe.DeluxeBrandCenter.</text>
<text text-anchor="middle" x="95.75" y="-68.5" font-family="Helvetica,sans-Serif" font-size="10.00">AMM.Domain.Services.ISessionService</text>
</a>
</g>
</g>
<!-- Node6&#45;&gt;Node3 -->
<g id="edge5_Node000003_Node000006" class="edge">
<title>Node6&#45;&gt;Node3</title>
<g id="a_edge5_Node000003_Node000006"><a xlink:title=" ">
<path fill="none" stroke="#9a32cd" stroke-dasharray="5,2" d="M203.17,-87.12C242.83,-90.53 288.22,-94.43 329.5,-98 335.26,-98.5 341.22,-99.01 347.21,-99.53"/>
<polygon fill="#9a32cd" stroke="#9a32cd" points="203.65,-83.65 193.38,-86.28 203.05,-90.63 203.65,-83.65"/>
</a>
</g>
<text text-anchor="middle" x="269.5" y="-100.5" font-family="Helvetica,sans-Serif" font-size="10.00" fill="grey"> _sessionService</text>
</g>
<!-- Node7 -->
<g id="Node000007" class="node">
<title>Node7</title>
<g id="a_Node000007"><a xlink:href="../../d0/ddb/interface_deluxe_1_1_deluxe_brand_center_1_1_a_m_m_1_1_a_p_i_1_1_services_1_1_i_template_service.html" target="_top" xlink:title=" ">
<polygon fill="white" stroke="#666666" points="756.75,-69 665,-69 665,-49 756.75,-49 756.75,-69"/>
<text text-anchor="middle" x="710.88" y="-55.5" font-family="Helvetica,sans-Serif" font-size="10.00">ITemplateService</text>
</a>
</g>
</g>
<!-- Node7&#45;&gt;Node1 -->
<g id="edge6_Node000001_Node000007" class="edge">
<title>Node7&#45;&gt;Node1</title>
<g id="a_edge6_Node000001_Node000007"><a xlink:title=" ">
<path fill="none" stroke="#63b8ff" d="M768.13,-65.56C779.75,-66.92 792.26,-68.38 804.69,-69.83"/>
<polygon fill="#63b8ff" stroke="#63b8ff" points="768.67,-62.1 758.34,-64.42 767.86,-69.06 768.67,-62.1"/>
</a>
</g>
</g>
<!-- Node8 -->
<g id="Node000008" class="node">
<title>Node8</title>
<g id="a_Node000008"><a xlink:href="../../d3/ddb/interface_deluxe_1_1_deluxe_brand_center_1_1_a_m_m_1_1_a_p_i_1_1_services_1_1_i_d_b_service.html" target="_top" xlink:title=" ">
<polygon fill="white" stroke="#666666" points="481.25,-66 364,-66 364,-34 481.25,-34 481.25,-66"/>
<text text-anchor="start" x="372" y="-52.5" font-family="Helvetica,sans-Serif" font-size="10.00">IDBService&lt; Template,</text>
<text text-anchor="middle" x="422.62" y="-40.5" font-family="Helvetica,sans-Serif" font-size="10.00"> TemplateVM &gt;</text>
</a>
</g>
</g>
<!-- Node8&#45;&gt;Node7 -->
<g id="edge7_Node000007_Node000008" class="edge">
<title>Node8&#45;&gt;Node7</title>
<g id="a_edge7_Node000007_Node000008"><a xlink:title=" ">
<path fill="none" stroke="#63b8ff" d="M492.98,-52.18C546.37,-53.86 618.59,-56.13 664.72,-57.58"/>
<polygon fill="#63b8ff" stroke="#63b8ff" points="493.17,-48.68 483.06,-51.87 492.95,-55.68 493.17,-48.68"/>
</a>
</g>
</g>
<!-- Node9 -->
<g id="Node000009" class="node">
<title>Node9</title>
<g id="a_Node000009"><a xlink:href="../../d3/ddb/interface_deluxe_1_1_deluxe_brand_center_1_1_a_m_m_1_1_a_p_i_1_1_services_1_1_i_d_b_service.html" target="_top" xlink:title=" ">
<polygon fill="white" stroke="#666666" points="172.38,-44 19.12,-44 19.12,0 172.38,0 172.38,-44"/>
<text text-anchor="start" x="27.12" y="-30.5" font-family="Helvetica,sans-Serif" font-size="10.00">Deluxe.DeluxeBrandCenter.</text>
<text text-anchor="start" x="27.12" y="-18.5" font-family="Helvetica,sans-Serif" font-size="10.00">AMM.API.Services.IDBService</text>
<text text-anchor="middle" x="95.75" y="-6.5" font-family="Helvetica,sans-Serif" font-size="10.00">&lt; TModel, TModelVM &gt;</text>
</a>
</g>
</g>
<!-- Node9&#45;&gt;Node8 -->
<g id="edge8_Node000008_Node000009" class="edge">
<title>Node9&#45;&gt;Node8</title>
<g id="a_edge8_Node000008_Node000009"><a xlink:title=" ">
<path fill="none" stroke="orange" stroke-dasharray="5,2" d="M183.68,-29.49C240.64,-34.4 313.54,-40.68 363.55,-44.99"/>
<polygon fill="orange" stroke="orange" points="184.28,-26.03 174.02,-28.66 183.68,-33.01 184.28,-26.03"/>
</a>
</g>
<text text-anchor="middle" x="269.5" y="-44.23" font-family="Helvetica,sans-Serif" font-size="10.00" fill="grey"> &lt; Template, TemplateVM &gt;</text>
</g>
</g>
</svg>
