<?xml version="1.0" encoding="UTF-8" standalone="no"?>
<!DOCTYPE svg PUBLIC "-//W3C//DTD SVG 1.1//EN"
 "http://www.w3.org/Graphics/SVG/1.1/DTD/svg11.dtd">
<!-- Generated by graphviz version 12.1.1 (20240910.0053)
 -->
<!-- Title: Deluxe.DeluxeBrandCenter.AMM.API.Services.CampaignElementService Pages: 1 -->
<svg width="1372pt" height="214pt"
 viewBox="0.00 0.00 1371.50 214.00" xmlns="http://www.w3.org/2000/svg" xmlns:xlink="http://www.w3.org/1999/xlink">
<g id="graph0" class="graph" transform="scale(1 1) rotate(0) translate(4 210)">
<title>Deluxe.DeluxeBrandCenter.AMM.API.Services.CampaignElementService</title>
<!-- Node1 -->
<g id="Node000001" class="node">
<title>Node1</title>
<g id="a_Node000001"><a xlink:title=" ">
<polygon fill="#999999" stroke="#666666" points="1363.5,-74 1180.25,-74 1180.25,-30 1363.5,-30 1363.5,-74"/>
<text text-anchor="start" x="1188.25" y="-60.5" font-family="Helvetica,sans-Serif" font-size="10.00">Deluxe.DeluxeBrandCenter.</text>
<text text-anchor="start" x="1188.25" y="-48.5" font-family="Helvetica,sans-Serif" font-size="10.00">AMM.API.Services.CampaignElement</text>
<text text-anchor="middle" x="1271.88" y="-36.5" font-family="Helvetica,sans-Serif" font-size="10.00">Service</text>
</a>
</g>
</g>
<!-- Node2 -->
<g id="Node000002" class="node">
<title>Node2</title>
<g id="a_Node000002"><a xlink:href="../../dd/dd8/class_deluxe_1_1_deluxe_brand_center_1_1_a_m_m_1_1_a_p_i_1_1_services_1_1_named_db_service.html" target="_top" xlink:title=" ">
<polygon fill="white" stroke="#666666" points="1143.25,-92 981,-92 981,-60 1143.25,-60 1143.25,-92"/>
<text text-anchor="start" x="989" y="-78.5" font-family="Helvetica,sans-Serif" font-size="10.00">NamedDbService&lt; Campaign</text>
<text text-anchor="middle" x="1062.12" y="-66.5" font-family="Helvetica,sans-Serif" font-size="10.00">Element, CampaignElementVM &gt;</text>
</a>
</g>
</g>
<!-- Node2&#45;&gt;Node1 -->
<g id="edge1_Node000001_Node000002" class="edge">
<title>Node2&#45;&gt;Node1</title>
<g id="a_edge1_Node000001_Node000002"><a xlink:title=" ">
<path fill="none" stroke="#63b8ff" d="M1154.97,-65.39C1163.26,-64.43 1171.66,-63.46 1179.95,-62.5"/>
<polygon fill="#63b8ff" stroke="#63b8ff" points="1154.78,-61.89 1145.25,-66.51 1155.58,-68.84 1154.78,-61.89"/>
</a>
</g>
</g>
<!-- Node3 -->
<g id="Node000003" class="node">
<title>Node3</title>
<g id="a_Node000003"><a xlink:href="../../dd/dd8/class_deluxe_1_1_deluxe_brand_center_1_1_a_m_m_1_1_a_p_i_1_1_services_1_1_named_db_service.html" target="_top" xlink:title=" ">
<polygon fill="white" stroke="#666666" points="837.75,-100 657.5,-100 657.5,-56 837.75,-56 837.75,-100"/>
<text text-anchor="start" x="665.5" y="-86.5" font-family="Helvetica,sans-Serif" font-size="10.00">Deluxe.DeluxeBrandCenter.</text>
<text text-anchor="start" x="665.5" y="-74.5" font-family="Helvetica,sans-Serif" font-size="10.00">AMM.API.Services.NamedDbService</text>
<text text-anchor="middle" x="747.62" y="-62.5" font-family="Helvetica,sans-Serif" font-size="10.00">&lt; TModel, TModelVM &gt;</text>
</a>
</g>
</g>
<!-- Node3&#45;&gt;Node2 -->
<g id="edge2_Node000002_Node000003" class="edge">
<title>Node3&#45;&gt;Node2</title>
<g id="a_edge2_Node000002_Node000003"><a xlink:title=" ">
<path fill="none" stroke="orange" stroke-dasharray="5,2" d="M849.67,-77.35C892.07,-77.08 940.7,-76.77 980.63,-76.52"/>
<polygon fill="orange" stroke="orange" points="849.67,-73.85 839.69,-77.42 849.71,-80.85 849.67,-73.85"/>
</a>
</g>
<text text-anchor="start" x="855.75" y="-91.8" font-family="Helvetica,sans-Serif" font-size="10.00" fill="grey"> &lt; CampaignElement,</text>
<text text-anchor="middle" x="909.38" y="-79.8" font-family="Helvetica,sans-Serif" font-size="10.00" fill="grey"> CampaignElementVM &gt;</text>
</g>
<!-- Node4 -->
<g id="Node000004" class="node">
<title>Node4</title>
<g id="a_Node000004"><a xlink:href="../../d6/d4e/class_deluxe_1_1_deluxe_brand_center_1_1_a_m_m_1_1_a_p_i_1_1_services_1_1_d_b_service.html" target="_top" xlink:title=" ">
<polygon fill="white" stroke="#666666" points="476,-144 369.25,-144 369.25,-112 476,-112 476,-144"/>
<text text-anchor="start" x="377.25" y="-130.5" font-family="Helvetica,sans-Serif" font-size="10.00">DBService&lt; TModel,</text>
<text text-anchor="middle" x="422.62" y="-118.5" font-family="Helvetica,sans-Serif" font-size="10.00"> TModelVM &gt;</text>
</a>
</g>
</g>
<!-- Node4&#45;&gt;Node3 -->
<g id="edge3_Node000003_Node000004" class="edge">
<title>Node4&#45;&gt;Node3</title>
<g id="a_edge3_Node000003_Node000004"><a xlink:title=" ">
<path fill="none" stroke="#63b8ff" d="M487.52,-118.11C536,-110.6 603.26,-100.19 657.1,-91.86"/>
<polygon fill="#63b8ff" stroke="#63b8ff" points="487.08,-114.64 477.74,-119.62 488.15,-121.55 487.08,-114.64"/>
</a>
</g>
</g>
<!-- Node5 -->
<g id="Node000005" class="node">
<title>Node5</title>
<g id="a_Node000005"><a xlink:href="../../d3/ddb/interface_deluxe_1_1_deluxe_brand_center_1_1_a_m_m_1_1_a_p_i_1_1_services_1_1_i_d_b_service.html" target="_top" xlink:title=" ">
<polygon fill="white" stroke="#666666" points="150.62,-86 40.88,-86 40.88,-54 150.62,-54 150.62,-86"/>
<text text-anchor="start" x="48.88" y="-72.5" font-family="Helvetica,sans-Serif" font-size="10.00">IDBService&lt; TModel,</text>
<text text-anchor="middle" x="95.75" y="-60.5" font-family="Helvetica,sans-Serif" font-size="10.00"> TModelVM &gt;</text>
</a>
</g>
</g>
<!-- Node5&#45;&gt;Node4 -->
<g id="edge4_Node000004_Node000005" class="edge">
<title>Node5&#45;&gt;Node4</title>
<g id="a_edge4_Node000004_Node000005"><a xlink:title=" ">
<path fill="none" stroke="#63b8ff" d="M161.77,-81.61C222.59,-92.47 312.32,-108.49 368.83,-118.58"/>
<polygon fill="#63b8ff" stroke="#63b8ff" points="162.71,-78.22 152.25,-79.91 161.48,-85.11 162.71,-78.22"/>
</a>
</g>
</g>
<!-- Node8 -->
<g id="Node000008" class="node">
<title>Node8</title>
<g id="a_Node000008"><a xlink:href="../../d3/dac/interface_deluxe_1_1_deluxe_brand_center_1_1_a_m_m_1_1_a_p_i_1_1_services_1_1_i_named_db_service.html" target="_top" xlink:title=" ">
<polygon fill="white" stroke="#666666" points="492.5,-94 352.75,-94 352.75,-62 492.5,-62 492.5,-94"/>
<text text-anchor="start" x="360.75" y="-80.5" font-family="Helvetica,sans-Serif" font-size="10.00">INamedDbService&lt; TModel,</text>
<text text-anchor="middle" x="422.62" y="-68.5" font-family="Helvetica,sans-Serif" font-size="10.00"> TModelVM &gt;</text>
</a>
</g>
</g>
<!-- Node5&#45;&gt;Node8 -->
<g id="edge8_Node000008_Node000005" class="edge">
<title>Node5&#45;&gt;Node8</title>
<g id="a_edge8_Node000008_Node000005"><a xlink:title=" ">
<path fill="none" stroke="#63b8ff" d="M162.17,-71.61C217.39,-72.97 296.22,-74.91 352.47,-76.3"/>
<polygon fill="#63b8ff" stroke="#63b8ff" points="162.36,-68.11 152.27,-71.37 162.19,-75.11 162.36,-68.11"/>
</a>
</g>
</g>
<!-- Node11 -->
<g id="Node000011" class="node">
<title>Node11</title>
<g id="a_Node000011"><a xlink:href="../../d3/dac/interface_deluxe_1_1_deluxe_brand_center_1_1_a_m_m_1_1_a_p_i_1_1_services_1_1_i_named_db_service.html" target="_top" xlink:title=" ">
<polygon fill="white" stroke="#666666" points="514.25,-44 331,-44 331,0 514.25,0 514.25,-44"/>
<text text-anchor="start" x="339" y="-30.5" font-family="Helvetica,sans-Serif" font-size="10.00">Deluxe.DeluxeBrandCenter.</text>
<text text-anchor="start" x="339" y="-18.5" font-family="Helvetica,sans-Serif" font-size="10.00">AMM.API.Services.INamedDbService</text>
<text text-anchor="middle" x="422.62" y="-6.5" font-family="Helvetica,sans-Serif" font-size="10.00">&lt; TModel, TModelVM &gt;</text>
</a>
</g>
</g>
<!-- Node5&#45;&gt;Node11 -->
<g id="edge12_Node000011_Node000005" class="edge">
<title>Node5&#45;&gt;Node11</title>
<g id="a_edge12_Node000011_Node000005"><a xlink:title=" ">
<path fill="none" stroke="#63b8ff" d="M162.03,-60.35C210.41,-53.21 276.97,-43.37 330.58,-35.45"/>
<polygon fill="#63b8ff" stroke="#63b8ff" points="161.64,-56.87 152.26,-61.8 162.66,-63.8 161.64,-56.87"/>
</a>
</g>
</g>
<!-- Node6 -->
<g id="Node000006" class="node">
<title>Node6</title>
<g id="a_Node000006"><a xlink:href="../../da/d0c/interface_deluxe_1_1_deluxe_brand_center_1_1_a_m_m_1_1_infrastructure_1_1_social_1_1_i_social_network_service.html" target="_top" xlink:title=" ">
<polygon fill="white" stroke="#666666" points="177.25,-206 14.25,-206 14.25,-162 177.25,-162 177.25,-206"/>
<text text-anchor="start" x="22.25" y="-192.5" font-family="Helvetica,sans-Serif" font-size="10.00">Deluxe.DeluxeBrandCenter.</text>
<text text-anchor="start" x="22.25" y="-180.5" font-family="Helvetica,sans-Serif" font-size="10.00">AMM.Infrastructure.Social.ISocial</text>
<text text-anchor="middle" x="95.75" y="-168.5" font-family="Helvetica,sans-Serif" font-size="10.00">NetworkService</text>
</a>
</g>
</g>
<!-- Node6&#45;&gt;Node4 -->
<g id="edge5_Node000004_Node000006" class="edge">
<title>Node6&#45;&gt;Node4</title>
<g id="a_edge5_Node000004_Node000006"><a xlink:title=" ">
<path fill="none" stroke="#9a32cd" stroke-dasharray="5,2" d="M188.54,-168.18C246.78,-158.14 320.08,-145.5 368.77,-137.11"/>
<polygon fill="#9a32cd" stroke="#9a32cd" points="188.23,-164.68 178.97,-169.83 189.41,-171.58 188.23,-164.68"/>
</a>
</g>
<text text-anchor="middle" x="261.25" y="-166.79" font-family="Helvetica,sans-Serif" font-size="10.00" fill="grey"> _socialNetworkService</text>
</g>
<!-- Node7 -->
<g id="Node000007" class="node">
<title>Node7</title>
<g id="a_Node000007"><a xlink:href="../../dd/d7d/interface_deluxe_1_1_deluxe_brand_center_1_1_a_m_m_1_1_domain_1_1_services_1_1_i_session_service.html" target="_top" xlink:title=" ">
<polygon fill="white" stroke="#666666" points="191.5,-144 0,-144 0,-112 191.5,-112 191.5,-144"/>
<text text-anchor="start" x="8" y="-130.5" font-family="Helvetica,sans-Serif" font-size="10.00">Deluxe.DeluxeBrandCenter.</text>
<text text-anchor="middle" x="95.75" y="-118.5" font-family="Helvetica,sans-Serif" font-size="10.00">AMM.Domain.Services.ISessionService</text>
</a>
</g>
</g>
<!-- Node7&#45;&gt;Node4 -->
<g id="edge6_Node000004_Node000007" class="edge">
<title>Node7&#45;&gt;Node4</title>
<g id="a_edge6_Node000004_Node000007"><a xlink:title=" ">
<path fill="none" stroke="#9a32cd" stroke-dasharray="5,2" d="M202.94,-128C258.62,-128 324.35,-128 369.11,-128"/>
<polygon fill="#9a32cd" stroke="#9a32cd" points="203.1,-124.5 193.1,-128 203.1,-131.5 203.1,-124.5"/>
</a>
</g>
<text text-anchor="middle" x="261.25" y="-130.5" font-family="Helvetica,sans-Serif" font-size="10.00" fill="grey"> _sessionService</text>
</g>
<!-- Node8&#45;&gt;Node3 -->
<g id="edge7_Node000003_Node000008" class="edge">
<title>Node8&#45;&gt;Node3</title>
<g id="a_edge7_Node000003_Node000008"><a xlink:title=" ">
<path fill="none" stroke="#63b8ff" d="M504.16,-78C550.66,-78 609.24,-78 657.17,-78"/>
<polygon fill="#63b8ff" stroke="#63b8ff" points="504.43,-74.5 494.43,-78 504.43,-81.5 504.43,-74.5"/>
</a>
</g>
</g>
<!-- Node9 -->
<g id="Node000009" class="node">
<title>Node9</title>
<g id="a_Node000009"><a xlink:href="../../d2/d03/interface_deluxe_1_1_deluxe_brand_center_1_1_a_m_m_1_1_a_p_i_1_1_services_1_1_i_campaign_element_service.html" target="_top" xlink:title=" ">
<polygon fill="white" stroke="#666666" points="1128.25,-41 996,-41 996,-21 1128.25,-21 1128.25,-41"/>
<text text-anchor="middle" x="1062.12" y="-27.5" font-family="Helvetica,sans-Serif" font-size="10.00">ICampaignElementService</text>
</a>
</g>
</g>
<!-- Node9&#45;&gt;Node1 -->
<g id="edge9_Node000001_Node000009" class="edge">
<title>Node9&#45;&gt;Node1</title>
<g id="a_edge9_Node000001_Node000009"><a xlink:title=" ">
<path fill="none" stroke="#63b8ff" d="M1139.85,-38.76C1152.89,-40.07 1166.55,-41.45 1179.91,-42.8"/>
<polygon fill="#63b8ff" stroke="#63b8ff" points="1140.38,-35.29 1130.08,-37.77 1139.68,-42.26 1140.38,-35.29"/>
</a>
</g>
</g>
<!-- Node10 -->
<g id="Node000010" class="node">
<title>Node10</title>
<g id="a_Node000010"><a xlink:href="../../d3/dac/interface_deluxe_1_1_deluxe_brand_center_1_1_a_m_m_1_1_a_p_i_1_1_services_1_1_i_named_db_service.html" target="_top" xlink:title=" ">
<polygon fill="white" stroke="#666666" points="828.75,-38 666.5,-38 666.5,-6 828.75,-6 828.75,-38"/>
<text text-anchor="start" x="674.5" y="-24.5" font-family="Helvetica,sans-Serif" font-size="10.00">INamedDbService&lt; Campaign</text>
<text text-anchor="middle" x="747.62" y="-12.5" font-family="Helvetica,sans-Serif" font-size="10.00">Element, CampaignElementVM &gt;</text>
</a>
</g>
</g>
<!-- Node10&#45;&gt;Node9 -->
<g id="edge10_Node000009_Node000010" class="edge">
<title>Node10&#45;&gt;Node9</title>
<g id="a_edge10_Node000009_Node000010"><a xlink:title=" ">
<path fill="none" stroke="#63b8ff" d="M840.53,-24.65C890.32,-26.08 950.66,-27.82 995.64,-29.11"/>
<polygon fill="#63b8ff" stroke="#63b8ff" points="840.71,-21.15 830.61,-24.36 840.51,-28.15 840.71,-21.15"/>
</a>
</g>
</g>
<!-- Node11&#45;&gt;Node10 -->
<g id="edge11_Node000010_Node000011" class="edge">
<title>Node11&#45;&gt;Node10</title>
<g id="a_edge11_Node000010_Node000011"><a xlink:title=" ">
<path fill="none" stroke="orange" stroke-dasharray="5,2" d="M525.81,-22C571.11,-22 623.64,-22 666.1,-22"/>
<polygon fill="orange" stroke="orange" points="525.97,-18.5 515.97,-22 525.97,-25.5 525.97,-18.5"/>
</a>
</g>
<text text-anchor="start" x="532.25" y="-36.5" font-family="Helvetica,sans-Serif" font-size="10.00" fill="grey"> &lt; CampaignElement,</text>
<text text-anchor="middle" x="585.88" y="-24.5" font-family="Helvetica,sans-Serif" font-size="10.00" fill="grey"> CampaignElementVM &gt;</text>
</g>
</g>
</svg>
