<?xml version="1.0" encoding="UTF-8" standalone="no"?>
<!DOCTYPE svg PUBLIC "-//W3C//DTD SVG 1.1//EN"
 "http://www.w3.org/Graphics/SVG/1.1/DTD/svg11.dtd">
<!-- Generated by graphviz version 12.1.1 (20240910.0053)
 -->
<!-- Title: Deluxe.DeluxeBrandCenter.AMM.Domain.ITable&lt; T &gt; Pages: 1 -->
<svg width="1376pt" height="123pt"
 viewBox="0.00 0.00 1376.00 123.00" xmlns="http://www.w3.org/2000/svg" xmlns:xlink="http://www.w3.org/1999/xlink">
<g id="graph0" class="graph" transform="scale(1 1) rotate(0) translate(4 119)">
<title>Deluxe.DeluxeBrandCenter.AMM.Domain.ITable&lt; T &gt;</title>
<!-- Node1 -->
<g id="Node000001" class="node">
<title>Node1</title>
<g id="a_Node000001"><a xlink:title="Interface implements ITableReader, ITableWriter, ITableEditor.">
<polygon fill="#999999" stroke="#666666" points="410.75,-83 272.5,-83 272.5,-51 410.75,-51 410.75,-83"/>
<text text-anchor="start" x="280.5" y="-69.5" font-family="Helvetica,sans-Serif" font-size="10.00">Deluxe.DeluxeBrandCenter.</text>
<text text-anchor="middle" x="341.62" y="-57.5" font-family="Helvetica,sans-Serif" font-size="10.00">AMM.Domain.ITable&lt; T &gt;</text>
</a>
</g>
</g>
<!-- Node7 -->
<g id="Node000007" class="node">
<title>Node7</title>
<g id="a_Node000007"><a xlink:href="../../d7/d96/class_deluxe_1_1_deluxe_brand_center_1_1_a_m_m_1_1_domain_1_1_table.html" target="_top" xlink:title=" ">
<polygon fill="white" stroke="#666666" points="630,-114 491.75,-114 491.75,-82 630,-82 630,-114"/>
<text text-anchor="start" x="499.75" y="-100.5" font-family="Helvetica,sans-Serif" font-size="10.00">Deluxe.DeluxeBrandCenter.</text>
<text text-anchor="middle" x="560.88" y="-88.5" font-family="Helvetica,sans-Serif" font-size="10.00">AMM.Domain.Table&lt; T &gt;</text>
</a>
</g>
</g>
<!-- Node1&#45;&gt;Node7 -->
<g id="edge6_Node000001_Node000007" class="edge">
<title>Node1&#45;&gt;Node7</title>
<g id="a_edge6_Node000001_Node000007"><a xlink:title=" ">
<path fill="none" stroke="#63b8ff" d="M422.37,-78.38C445.02,-81.61 469.48,-85.1 491.4,-88.23"/>
<polygon fill="#63b8ff" stroke="#63b8ff" points="422.96,-74.93 412.56,-76.98 421.97,-81.86 422.96,-74.93"/>
</a>
</g>
</g>
<!-- Node12 -->
<g id="Node000012" class="node">
<title>Node12</title>
<g id="a_Node000012"><a xlink:href="../../d8/d96/interface_deluxe_1_1_deluxe_brand_center_1_1_a_m_m_1_1_domain_1_1_i_table.html" target="_top" xlink:title=" ">
<polygon fill="white" stroke="#666666" points="795.25,-70 648,-70 648,-38 795.25,-38 795.25,-70"/>
<text text-anchor="start" x="656" y="-56.5" font-family="Helvetica,sans-Serif" font-size="10.00">Deluxe.DeluxeBrandCenter.</text>
<text text-anchor="middle" x="721.62" y="-44.5" font-family="Helvetica,sans-Serif" font-size="10.00">AMM.Domain.ITable&lt; string &gt;</text>
</a>
</g>
</g>
<!-- Node1&#45;&gt;Node12 -->
<g id="edge11_Node000001_Node000012" class="edge">
<title>Node1&#45;&gt;Node12</title>
<g id="a_edge11_Node000001_Node000012"><a xlink:title=" ">
<path fill="none" stroke="orange" stroke-dasharray="5,2" d="M422.11,-64.23C424.35,-64.15 426.56,-64.08 428.75,-64 503.36,-61.42 588.71,-58.5 647.76,-56.49"/>
<polygon fill="orange" stroke="orange" points="422.18,-60.73 412.31,-64.57 422.42,-67.72 422.18,-60.73"/>
</a>
</g>
<text text-anchor="middle" x="451.25" y="-66.5" font-family="Helvetica,sans-Serif" font-size="10.00" fill="grey"> &lt; string &gt;</text>
</g>
<!-- Node2 -->
<g id="Node000002" class="node">
<title>Node2</title>
<g id="a_Node000002"><a xlink:href="../../d3/dd6/interface_deluxe_1_1_deluxe_brand_center_1_1_a_m_m_1_1_domain_1_1_i_table_reader.html" target="_top" xlink:title=" ">
<polygon fill="white" stroke="#666666" points="235.5,-115 138.5,-115 138.5,-95 235.5,-95 235.5,-115"/>
<text text-anchor="middle" x="187" y="-101.5" font-family="Helvetica,sans-Serif" font-size="10.00">ITableReader&lt; T &gt;</text>
</a>
</g>
</g>
<!-- Node2&#45;&gt;Node1 -->
<g id="edge1_Node000001_Node000002" class="edge">
<title>Node2&#45;&gt;Node1</title>
<g id="a_edge1_Node000001_Node000002"><a xlink:title=" ">
<path fill="none" stroke="#63b8ff" d="M241.09,-91.78C251.9,-89.09 263.4,-86.23 274.6,-83.44"/>
<polygon fill="#63b8ff" stroke="#63b8ff" points="240.44,-88.34 231.58,-94.15 242.13,-95.13 240.44,-88.34"/>
</a>
</g>
</g>
<!-- Node3 -->
<g id="Node000003" class="node">
<title>Node3</title>
<g id="a_Node000003"><a xlink:href="../../df/d98/interface_deluxe_1_1_deluxe_brand_center_1_1_a_m_m_1_1_domain_1_1_i_table_writer.html" target="_top" xlink:title="Interface for writing that has SetValue.">
<polygon fill="white" stroke="#666666" points="232.5,-77 141.5,-77 141.5,-57 232.5,-57 232.5,-77"/>
<text text-anchor="middle" x="187" y="-63.5" font-family="Helvetica,sans-Serif" font-size="10.00">ITableWriter&lt; T &gt;</text>
</a>
</g>
</g>
<!-- Node3&#45;&gt;Node1 -->
<g id="edge2_Node000001_Node000003" class="edge">
<title>Node3&#45;&gt;Node1</title>
<g id="a_edge2_Node000001_Node000003"><a xlink:title=" ">
<path fill="none" stroke="#63b8ff" d="M244.24,-67C253.34,-67 262.85,-67 272.21,-67"/>
<polygon fill="#63b8ff" stroke="#63b8ff" points="244.48,-63.5 234.48,-67 244.48,-70.5 244.48,-63.5"/>
</a>
</g>
</g>
<!-- Node4 -->
<g id="Node000004" class="node">
<title>Node4</title>
<g id="a_Node000004"><a xlink:href="../../de/d9e/interface_deluxe_1_1_deluxe_brand_center_1_1_a_m_m_1_1_domain_1_1_i_table_editor.html" target="_top" xlink:title="Interface implements IRowEditor and IColumnEditor.">
<polygon fill="white" stroke="#666666" points="232.5,-39 141.5,-39 141.5,-19 232.5,-19 232.5,-39"/>
<text text-anchor="middle" x="187" y="-25.5" font-family="Helvetica,sans-Serif" font-size="10.00">ITableEditor&lt; T &gt;</text>
</a>
</g>
</g>
<!-- Node4&#45;&gt;Node1 -->
<g id="edge3_Node000001_Node000004" class="edge">
<title>Node4&#45;&gt;Node1</title>
<g id="a_edge3_Node000001_Node000004"><a xlink:title=" ">
<path fill="none" stroke="#63b8ff" d="M241.09,-42.22C251.9,-44.91 263.4,-47.77 274.6,-50.56"/>
<polygon fill="#63b8ff" stroke="#63b8ff" points="242.13,-38.87 231.58,-39.85 240.44,-45.66 242.13,-38.87"/>
</a>
</g>
</g>
<!-- Node5 -->
<g id="Node000005" class="node">
<title>Node5</title>
<g id="a_Node000005"><a xlink:href="../../d0/d81/interface_deluxe_1_1_deluxe_brand_center_1_1_a_m_m_1_1_domain_1_1_i_row_editor.html" target="_top" xlink:title="Interface for row editing that has Delete row, append row and insert row.">
<polygon fill="white" stroke="#666666" points="94.75,-58 6.75,-58 6.75,-38 94.75,-38 94.75,-58"/>
<text text-anchor="middle" x="50.75" y="-44.5" font-family="Helvetica,sans-Serif" font-size="10.00">IRowEditor&lt; T &gt;</text>
</a>
</g>
</g>
<!-- Node5&#45;&gt;Node4 -->
<g id="edge4_Node000004_Node000005" class="edge">
<title>Node5&#45;&gt;Node4</title>
<g id="a_edge4_Node000004_Node000005"><a xlink:title=" ">
<path fill="none" stroke="#63b8ff" d="M106.28,-40.28C117.82,-38.65 129.88,-36.94 141.02,-35.37"/>
<polygon fill="#63b8ff" stroke="#63b8ff" points="105.88,-36.8 96.47,-41.67 106.86,-43.74 105.88,-36.8"/>
</a>
</g>
</g>
<!-- Node6 -->
<g id="Node000006" class="node">
<title>Node6</title>
<g id="a_Node000006"><a xlink:href="../../d7/d95/interface_deluxe_1_1_deluxe_brand_center_1_1_a_m_m_1_1_domain_1_1_i_column_editor.html" target="_top" xlink:title="Interface for column editing (delete column, append column and insert column)">
<polygon fill="white" stroke="#666666" points="101.5,-20 0,-20 0,0 101.5,0 101.5,-20"/>
<text text-anchor="middle" x="50.75" y="-6.5" font-family="Helvetica,sans-Serif" font-size="10.00">IColumnEditor&lt; T &gt;</text>
</a>
</g>
</g>
<!-- Node6&#45;&gt;Node4 -->
<g id="edge5_Node000004_Node000006" class="edge">
<title>Node6&#45;&gt;Node4</title>
<g id="a_edge5_Node000004_Node000006"><a xlink:title=" ">
<path fill="none" stroke="#63b8ff" d="M112.85,-18.65C122.43,-20 132.16,-21.38 141.28,-22.67"/>
<polygon fill="#63b8ff" stroke="#63b8ff" points="113.63,-15.22 103.24,-17.29 112.65,-22.15 113.63,-15.22"/>
</a>
</g>
</g>
<!-- Node8 -->
<g id="Node000008" class="node">
<title>Node8</title>
<g id="a_Node000008"><a xlink:href="../../d7/d96/class_deluxe_1_1_deluxe_brand_center_1_1_a_m_m_1_1_domain_1_1_table.html" target="_top" xlink:title=" ">
<polygon fill="white" stroke="#666666" points="957.5,-114 813.25,-114 813.25,-82 957.5,-82 957.5,-114"/>
<text text-anchor="start" x="821.25" y="-100.5" font-family="Helvetica,sans-Serif" font-size="10.00">Deluxe.DeluxeBrandCenter.</text>
<text text-anchor="middle" x="885.38" y="-88.5" font-family="Helvetica,sans-Serif" font-size="10.00">AMM.Domain.Table&lt; string &gt;</text>
</a>
</g>
</g>
<!-- Node7&#45;&gt;Node8 -->
<g id="edge7_Node000007_Node000008" class="edge">
<title>Node7&#45;&gt;Node8</title>
<g id="a_edge7_Node000007_Node000008"><a xlink:title=" ">
<path fill="none" stroke="orange" stroke-dasharray="5,2" d="M641.56,-98C694.08,-98 762.27,-98 813.01,-98"/>
<polygon fill="orange" stroke="orange" points="641.78,-94.5 631.78,-98 641.78,-101.5 641.78,-94.5"/>
</a>
</g>
<text text-anchor="middle" x="721.62" y="-100.5" font-family="Helvetica,sans-Serif" font-size="10.00" fill="grey"> &lt; string &gt;</text>
</g>
<!-- Node9 -->
<g id="Node000009" class="node">
<title>Node9</title>
<g id="a_Node000009"><a xlink:href="../../d0/d2a/class_deluxe_1_1_deluxe_brand_center_1_1_a_m_m_1_1_domain_1_1_utility_1_1_c_s_v_table.html" target="_top" xlink:title=" ">
<polygon fill="white" stroke="#666666" points="1145.5,-82 994.5,-82 994.5,-50 1145.5,-50 1145.5,-82"/>
<text text-anchor="start" x="1002.5" y="-68.5" font-family="Helvetica,sans-Serif" font-size="10.00">Deluxe.DeluxeBrandCenter.</text>
<text text-anchor="middle" x="1070" y="-56.5" font-family="Helvetica,sans-Serif" font-size="10.00">AMM.Domain.Utility.CSVTable</text>
</a>
</g>
</g>
<!-- Node8&#45;&gt;Node9 -->
<g id="edge8_Node000008_Node000009" class="edge">
<title>Node8&#45;&gt;Node9</title>
<g id="a_edge8_Node000008_Node000009"><a xlink:title=" ">
<path fill="none" stroke="#63b8ff" d="M969.04,-83.52C977.37,-82.06 985.8,-80.58 994.04,-79.13"/>
<polygon fill="#63b8ff" stroke="#63b8ff" points="968.5,-80.06 959.26,-85.23 969.71,-86.95 968.5,-80.06"/>
</a>
</g>
</g>
<!-- Node10 -->
<g id="Node000010" class="node">
<title>Node10</title>
<g id="a_Node000010"><a xlink:href="../../d8/d92/class_deluxe_1_1_deluxe_brand_center_1_1_a_m_m_1_1_domain_1_1_utility_1_1_activity_c_s_v_table.html" target="_top" xlink:title=" ">
<polygon fill="white" stroke="#666666" points="1367.25,-107 1183.25,-107 1183.25,-75 1367.25,-75 1367.25,-107"/>
<text text-anchor="start" x="1191.25" y="-93.5" font-family="Helvetica,sans-Serif" font-size="10.00">Deluxe.DeluxeBrandCenter.</text>
<text text-anchor="middle" x="1275.25" y="-81.5" font-family="Helvetica,sans-Serif" font-size="10.00">AMM.Domain.Utility.ActivityCSVTable</text>
</a>
</g>
</g>
<!-- Node9&#45;&gt;Node10 -->
<g id="edge9_Node000009_Node000010" class="edge">
<title>Node9&#45;&gt;Node10</title>
<g id="a_edge9_Node000009_Node000010"><a xlink:title=" ">
<path fill="none" stroke="#63b8ff" d="M1157.02,-76.58C1165.62,-77.64 1174.38,-78.72 1183.03,-79.78"/>
<polygon fill="#63b8ff" stroke="#63b8ff" points="1157.67,-73.13 1147.32,-75.39 1156.82,-80.08 1157.67,-73.13"/>
</a>
</g>
</g>
<!-- Node11 -->
<g id="Node000011" class="node">
<title>Node11</title>
<g id="a_Node000011"><a xlink:href="../../dd/d19/class_deluxe_1_1_deluxe_brand_center_1_1_a_m_m_1_1_domain_1_1_utility_1_1_contact_c_s_v_table.html" target="_top" xlink:title=" ">
<polygon fill="white" stroke="#666666" points="1368,-57 1182.5,-57 1182.5,-25 1368,-25 1368,-57"/>
<text text-anchor="start" x="1190.5" y="-43.5" font-family="Helvetica,sans-Serif" font-size="10.00">Deluxe.DeluxeBrandCenter.</text>
<text text-anchor="middle" x="1275.25" y="-31.5" font-family="Helvetica,sans-Serif" font-size="10.00">AMM.Domain.Utility.ContactCSVTable</text>
</a>
</g>
</g>
<!-- Node9&#45;&gt;Node11 -->
<g id="edge10_Node000009_Node000011" class="edge">
<title>Node9&#45;&gt;Node11</title>
<g id="a_edge10_Node000009_Node000011"><a xlink:title=" ">
<path fill="none" stroke="#63b8ff" d="M1157.09,-55.41C1165.44,-54.38 1173.93,-53.34 1182.34,-52.31"/>
<polygon fill="#63b8ff" stroke="#63b8ff" points="1156.82,-51.92 1147.32,-56.61 1157.67,-58.87 1156.82,-51.92"/>
</a>
</g>
</g>
<!-- Node12&#45;&gt;Node9 -->
<g id="edge12_Node000012_Node000009" class="edge">
<title>Node12&#45;&gt;Node9</title>
<g id="a_edge12_Node000012_Node000009"><a xlink:title=" ">
<path fill="none" stroke="#63b8ff" d="M806.86,-56.92C864.11,-58.9 939.15,-61.5 994.27,-63.41"/>
<polygon fill="#63b8ff" stroke="#63b8ff" points="807.29,-53.43 797.17,-56.58 807.04,-60.43 807.29,-53.43"/>
</a>
</g>
</g>
</g>
</svg>
