<?xml version="1.0" encoding="UTF-8" standalone="no"?>
<!DOCTYPE svg PUBLIC "-//W3C//DTD SVG 1.1//EN"
 "http://www.w3.org/Graphics/SVG/1.1/DTD/svg11.dtd">
<!-- Generated by graphviz version 12.1.1 (20240910.0053)
 -->
<!-- Title: Deluxe.DeluxeBrandCenter.AMM.Domain.ExtServiceModel.Mindfire.SegmentationFilterCriteria.GenerateFilterCriteria Pages: 1 -->
<svg width="889pt" height="510pt"
 viewBox="0.00 0.00 888.75 510.00" xmlns="http://www.w3.org/2000/svg" xmlns:xlink="http://www.w3.org/1999/xlink">
<g id="graph0" class="graph" transform="scale(1 1) rotate(0) translate(4 506)">
<title>Deluxe.DeluxeBrandCenter.AMM.Domain.ExtServiceModel.Mindfire.SegmentationFilterCriteria.GenerateFilterCriteria</title>
<!-- Node1 -->
<g id="Node000001" class="node">
<title>Node1</title>
<g id="a_Node000001"><a xlink:title=" ">
<polygon fill="#999999" stroke="#666666" points="880.75,-282 687,-282 687,-226 880.75,-226 880.75,-282"/>
<text text-anchor="start" x="695" y="-268.5" font-family="Helvetica,sans-Serif" font-size="10.00">Deluxe.DeluxeBrandCenter.</text>
<text text-anchor="start" x="695" y="-256.5" font-family="Helvetica,sans-Serif" font-size="10.00">AMM.Domain.ExtServiceModel.Mindfire.</text>
<text text-anchor="start" x="695" y="-244.5" font-family="Helvetica,sans-Serif" font-size="10.00">SegmentationFilterCriteria.GenerateFilter</text>
<text text-anchor="middle" x="783.88" y="-232.5" font-family="Helvetica,sans-Serif" font-size="10.00">Criteria</text>
</a>
</g>
</g>
<!-- Node2 -->
<g id="Node000002" class="node">
<title>Node2</title>
<g id="a_Node000002"><a xlink:href="../../d4/d06/class_deluxe_1_1_deluxe_brand_center_1_1_a_m_m_1_1_a_p_i_1_1_services_1_1_contact_manager_service.html#aaf5fab01124fe2f97edfbdc8de938b1a" target="_top" xlink:title=" ">
<polygon fill="white" stroke="#666666" points="624,-502 449,-502 449,-458 624,-458 624,-502"/>
<text text-anchor="start" x="457" y="-488.5" font-family="Helvetica,sans-Serif" font-size="10.00">Deluxe.DeluxeBrandCenter.</text>
<text text-anchor="start" x="457" y="-476.5" font-family="Helvetica,sans-Serif" font-size="10.00">AMM.API.Services.ContactManager</text>
<text text-anchor="middle" x="536.5" y="-464.5" font-family="Helvetica,sans-Serif" font-size="10.00">Service.AddManualContacts</text>
</a>
</g>
</g>
<!-- Node1&#45;&gt;Node2 -->
<g id="edge1_Node000001_Node000002" class="edge">
<title>Node1&#45;&gt;Node2</title>
<g id="a_edge1_Node000001_Node000002"><a xlink:title=" ">
<path fill="none" stroke="#63b8ff" d="M766.85,-292.64C746.45,-337.03 707.02,-408.89 651,-449 642.95,-454.77 633.87,-459.46 624.45,-463.28"/>
<polygon fill="#63b8ff" stroke="#63b8ff" points="769.99,-294.19 770.88,-283.64 763.6,-291.33 769.99,-294.19"/>
</a>
</g>
</g>
<!-- Node5 -->
<g id="Node000005" class="node">
<title>Node5</title>
<g id="a_Node000005"><a xlink:href="../../d4/d06/class_deluxe_1_1_deluxe_brand_center_1_1_a_m_m_1_1_a_p_i_1_1_services_1_1_contact_manager_service.html#a19a435c98b149ec6d21c881109ebf6aa" target="_top" xlink:title=" ">
<polygon fill="white" stroke="#666666" points="624,-440 449,-440 449,-396 624,-396 624,-440"/>
<text text-anchor="start" x="457" y="-426.5" font-family="Helvetica,sans-Serif" font-size="10.00">Deluxe.DeluxeBrandCenter.</text>
<text text-anchor="start" x="457" y="-414.5" font-family="Helvetica,sans-Serif" font-size="10.00">AMM.API.Services.ContactManager</text>
<text text-anchor="middle" x="536.5" y="-402.5" font-family="Helvetica,sans-Serif" font-size="10.00">Service.GetContact</text>
</a>
</g>
</g>
<!-- Node1&#45;&gt;Node5 -->
<g id="edge4_Node000001_Node000005" class="edge">
<title>Node1&#45;&gt;Node5</title>
<g id="a_edge4_Node000001_Node000005"><a xlink:title=" ">
<path fill="none" stroke="#63b8ff" d="M754.99,-291.44C730.7,-321.49 692.87,-362.57 651,-387 642.71,-391.84 633.63,-395.94 624.35,-399.42"/>
<polygon fill="#63b8ff" stroke="#63b8ff" points="757.67,-293.69 761.14,-283.68 752.19,-289.34 757.67,-293.69"/>
</a>
</g>
</g>
<!-- Node6 -->
<g id="Node000006" class="node">
<title>Node6</title>
<g id="a_Node000006"><a xlink:href="../../d7/def/class_deluxe_1_1_deluxe_brand_center_1_1_a_m_m_1_1_a_p_i_1_1_services_1_1_contact_manager_1_1_contact_manager_extension_methods.html#af3f3cd0b76be01db5908204e166054ce" target="_top" xlink:title=" ">
<polygon fill="white" stroke="#666666" points="651,-378 422,-378 422,-334 651,-334 651,-378"/>
<text text-anchor="start" x="430" y="-364.5" font-family="Helvetica,sans-Serif" font-size="10.00">Deluxe.DeluxeBrandCenter.</text>
<text text-anchor="start" x="430" y="-352.5" font-family="Helvetica,sans-Serif" font-size="10.00">AMM.API.Services.ContactManager.</text>
<text text-anchor="middle" x="536.5" y="-340.5" font-family="Helvetica,sans-Serif" font-size="10.00">ContactManagerExtensionMethods.RolloutDates</text>
</a>
</g>
</g>
<!-- Node1&#45;&gt;Node6 -->
<g id="edge5_Node000001_Node000006" class="edge">
<title>Node1&#45;&gt;Node6</title>
<g id="a_edge5_Node000001_Node000006"><a xlink:title=" ">
<path fill="none" stroke="#63b8ff" d="M726.36,-288.08C703.52,-300.88 676.55,-314.79 651,-325 643.41,-328.03 635.43,-330.87 627.35,-333.51"/>
<polygon fill="#63b8ff" stroke="#63b8ff" points="727.93,-291.22 734.9,-283.24 724.47,-285.13 727.93,-291.22"/>
</a>
</g>
</g>
<!-- Node7 -->
<g id="Node000007" class="node">
<title>Node7</title>
<g id="a_Node000007"><a xlink:href="../../d7/def/class_deluxe_1_1_deluxe_brand_center_1_1_a_m_m_1_1_a_p_i_1_1_services_1_1_contact_manager_1_1_contact_manager_extension_methods.html#aed99ccf98c409ef6b2b04810b3e75c73" target="_top" xlink:title=" ">
<polygon fill="white" stroke="#666666" points="637.88,-316 435.12,-316 435.12,-260 637.88,-260 637.88,-316"/>
<text text-anchor="start" x="443.12" y="-302.5" font-family="Helvetica,sans-Serif" font-size="10.00">Deluxe.DeluxeBrandCenter.</text>
<text text-anchor="start" x="443.12" y="-290.5" font-family="Helvetica,sans-Serif" font-size="10.00">AMM.API.Services.ContactManager.</text>
<text text-anchor="start" x="443.12" y="-278.5" font-family="Helvetica,sans-Serif" font-size="10.00">ContactManagerExtensionMethods.Rollout</text>
<text text-anchor="middle" x="536.5" y="-266.5" font-family="Helvetica,sans-Serif" font-size="10.00">NONEState</text>
</a>
</g>
</g>
<!-- Node1&#45;&gt;Node7 -->
<g id="edge6_Node000001_Node000007" class="edge">
<title>Node1&#45;&gt;Node7</title>
<g id="a_edge6_Node000001_Node000007"><a xlink:title=" ">
<path fill="none" stroke="#63b8ff" d="M675.37,-268.9C663.07,-270.6 650.56,-272.33 638.35,-274.03"/>
<polygon fill="#63b8ff" stroke="#63b8ff" points="675.68,-272.39 685.1,-267.55 674.72,-265.45 675.68,-272.39"/>
</a>
</g>
</g>
<!-- Node8 -->
<g id="Node000008" class="node">
<title>Node8</title>
<g id="a_Node000008"><a xlink:href="../../d7/def/class_deluxe_1_1_deluxe_brand_center_1_1_a_m_m_1_1_a_p_i_1_1_services_1_1_contact_manager_1_1_contact_manager_extension_methods.html#aca15bdc4bf50749a21a7e56d709a0858" target="_top" xlink:title=" ">
<polygon fill="white" stroke="#666666" points="648.38,-242 424.62,-242 424.62,-198 648.38,-198 648.38,-242"/>
<text text-anchor="start" x="432.62" y="-228.5" font-family="Helvetica,sans-Serif" font-size="10.00">Deluxe.DeluxeBrandCenter.</text>
<text text-anchor="start" x="432.62" y="-216.5" font-family="Helvetica,sans-Serif" font-size="10.00">AMM.API.Services.ContactManager.</text>
<text text-anchor="middle" x="536.5" y="-204.5" font-family="Helvetica,sans-Serif" font-size="10.00">ContactManagerExtensionMethods.RolloutTags</text>
</a>
</g>
</g>
<!-- Node1&#45;&gt;Node8 -->
<g id="edge7_Node000001_Node000008" class="edge">
<title>Node1&#45;&gt;Node8</title>
<g id="a_edge7_Node000001_Node000008"><a xlink:title=" ">
<path fill="none" stroke="#63b8ff" d="M675.39,-239.11C666.49,-237.87 657.47,-236.62 648.54,-235.39"/>
<polygon fill="#63b8ff" stroke="#63b8ff" points="674.72,-242.55 685.1,-240.45 675.68,-235.61 674.72,-242.55"/>
</a>
</g>
</g>
<!-- Node9 -->
<g id="Node000009" class="node">
<title>Node9</title>
<g id="a_Node000009"><a xlink:href="../../de/d46/class_deluxe_1_1_deluxe_brand_center_1_1_a_m_m_1_1_domain_1_1_ext_service_model_1_1_mindfire_1_1_segmentation_filter_helper.html#a41d87c9d068f733a51d15c1bc8129984" target="_top" xlink:title=" ">
<polygon fill="white" stroke="#666666" points="633.38,-180 439.62,-180 439.62,-136 633.38,-136 633.38,-180"/>
<text text-anchor="start" x="447.62" y="-166.5" font-family="Helvetica,sans-Serif" font-size="10.00">Deluxe.DeluxeBrandCenter.</text>
<text text-anchor="start" x="447.62" y="-154.5" font-family="Helvetica,sans-Serif" font-size="10.00">AMM.Domain.ExtServiceModel.Mindfire.</text>
<text text-anchor="middle" x="536.5" y="-142.5" font-family="Helvetica,sans-Serif" font-size="10.00">SegmentationFilterHelper.SetDateFields</text>
</a>
</g>
</g>
<!-- Node1&#45;&gt;Node9 -->
<g id="edge8_Node000001_Node000009" class="edge">
<title>Node1&#45;&gt;Node9</title>
<g id="a_edge8_Node000001_Node000009"><a xlink:title=" ">
<path fill="none" stroke="#63b8ff" d="M720.9,-220.41C699.19,-209.46 674.39,-197.86 651,-189 643.07,-186 634.73,-183.15 626.32,-180.49"/>
<polygon fill="#63b8ff" stroke="#63b8ff" points="719.12,-223.43 729.61,-224.86 722.3,-217.19 719.12,-223.43"/>
</a>
</g>
</g>
<!-- Node10 -->
<g id="Node000010" class="node">
<title>Node10</title>
<g id="a_Node000010"><a xlink:href="../../de/d46/class_deluxe_1_1_deluxe_brand_center_1_1_a_m_m_1_1_domain_1_1_ext_service_model_1_1_mindfire_1_1_segmentation_filter_helper.html#aea6e10bd326f28ff57d59c4012b438cf" target="_top" xlink:title=" ">
<polygon fill="white" stroke="#666666" points="637.88,-118 435.12,-118 435.12,-62 637.88,-62 637.88,-118"/>
<text text-anchor="start" x="443.12" y="-104.5" font-family="Helvetica,sans-Serif" font-size="10.00">Deluxe.DeluxeBrandCenter.</text>
<text text-anchor="start" x="443.12" y="-92.5" font-family="Helvetica,sans-Serif" font-size="10.00">AMM.Domain.ExtServiceModel.Mindfire.</text>
<text text-anchor="start" x="443.12" y="-80.5" font-family="Helvetica,sans-Serif" font-size="10.00">SegmentationFilterHelper.SetFilterCriterias</text>
<text text-anchor="middle" x="536.5" y="-68.5" font-family="Helvetica,sans-Serif" font-size="10.00">ForNONEState</text>
</a>
</g>
</g>
<!-- Node1&#45;&gt;Node10 -->
<g id="edge9_Node000001_Node000010" class="edge">
<title>Node1&#45;&gt;Node10</title>
<g id="a_edge9_Node000001_Node000010"><a xlink:title=" ">
<path fill="none" stroke="#63b8ff" d="M752.97,-217.25C728.27,-189.03 690.88,-150.95 651,-127 645.85,-123.91 640.41,-121.04 634.81,-118.38"/>
<polygon fill="#63b8ff" stroke="#63b8ff" points="750.06,-219.23 759.23,-224.52 755.36,-214.66 750.06,-219.23"/>
</a>
</g>
</g>
<!-- Node11 -->
<g id="Node000011" class="node">
<title>Node11</title>
<g id="a_Node000011"><a xlink:href="../../de/d46/class_deluxe_1_1_deluxe_brand_center_1_1_a_m_m_1_1_domain_1_1_ext_service_model_1_1_mindfire_1_1_segmentation_filter_helper.html#a017f9ca4ba8d73969d815657d4b86972" target="_top" xlink:title=" ">
<polygon fill="white" stroke="#666666" points="633.38,-44 439.62,-44 439.62,0 633.38,0 633.38,-44"/>
<text text-anchor="start" x="447.62" y="-30.5" font-family="Helvetica,sans-Serif" font-size="10.00">Deluxe.DeluxeBrandCenter.</text>
<text text-anchor="start" x="447.62" y="-18.5" font-family="Helvetica,sans-Serif" font-size="10.00">AMM.Domain.ExtServiceModel.Mindfire.</text>
<text text-anchor="middle" x="536.5" y="-6.5" font-family="Helvetica,sans-Serif" font-size="10.00">SegmentationFilterHelper.SetTagsField</text>
</a>
</g>
</g>
<!-- Node1&#45;&gt;Node11 -->
<g id="edge10_Node000001_Node000011" class="edge">
<title>Node1&#45;&gt;Node11</title>
<g id="a_edge10_Node000001_Node000011"><a xlink:title=" ">
<path fill="none" stroke="#63b8ff" d="M767.62,-215.21C747.66,-169.55 708.36,-94.68 651,-53 645.63,-49.1 639.79,-45.69 633.7,-42.7"/>
<polygon fill="#63b8ff" stroke="#63b8ff" points="764.31,-216.38 771.45,-224.21 770.75,-213.64 764.31,-216.38"/>
</a>
</g>
</g>
<!-- Node3 -->
<g id="Node000003" class="node">
<title>Node3</title>
<g id="a_Node000003"><a xlink:href="../../d4/d06/class_deluxe_1_1_deluxe_brand_center_1_1_a_m_m_1_1_a_p_i_1_1_services_1_1_contact_manager_service.html#aacae5406cf025bf160825b800afd0187" target="_top" xlink:title=" ">
<polygon fill="white" stroke="#666666" points="386,-502 211,-502 211,-458 386,-458 386,-502"/>
<text text-anchor="start" x="219" y="-488.5" font-family="Helvetica,sans-Serif" font-size="10.00">Deluxe.DeluxeBrandCenter.</text>
<text text-anchor="start" x="219" y="-476.5" font-family="Helvetica,sans-Serif" font-size="10.00">AMM.API.Services.ContactManager</text>
<text text-anchor="middle" x="298.5" y="-464.5" font-family="Helvetica,sans-Serif" font-size="10.00">Service.AddOrUpdateGroupDb</text>
</a>
</g>
</g>
<!-- Node2&#45;&gt;Node3 -->
<g id="edge2_Node000002_Node000003" class="edge">
<title>Node2&#45;&gt;Node3</title>
<g id="a_edge2_Node000002_Node000003"><a xlink:title=" ">
<path fill="none" stroke="#63b8ff" d="M437.53,-480C420.5,-480 402.89,-480 386.19,-480"/>
<polygon fill="#63b8ff" stroke="#63b8ff" points="437.11,-483.5 447.11,-480 437.11,-476.5 437.11,-483.5"/>
</a>
</g>
</g>
<!-- Node4 -->
<g id="Node000004" class="node">
<title>Node4</title>
<g id="a_Node000004"><a xlink:href="../../d4/d06/class_deluxe_1_1_deluxe_brand_center_1_1_a_m_m_1_1_a_p_i_1_1_services_1_1_contact_manager_service.html#a4a4816316103e1cfbf5450d609a9feb0" target="_top" xlink:title=" ">
<polygon fill="white" stroke="#666666" points="175,-502 0,-502 0,-458 175,-458 175,-502"/>
<text text-anchor="start" x="8" y="-488.5" font-family="Helvetica,sans-Serif" font-size="10.00">Deluxe.DeluxeBrandCenter.</text>
<text text-anchor="start" x="8" y="-476.5" font-family="Helvetica,sans-Serif" font-size="10.00">AMM.API.Services.ContactManager</text>
<text text-anchor="middle" x="87.5" y="-464.5" font-family="Helvetica,sans-Serif" font-size="10.00">Service.AddOrUpdateContactGroup</text>
</a>
</g>
</g>
<!-- Node3&#45;&gt;Node4 -->
<g id="edge3_Node000003_Node000004" class="edge">
<title>Node3&#45;&gt;Node4</title>
<g id="a_edge3_Node000003_Node000004"><a xlink:title=" ">
<path fill="none" stroke="#63b8ff" d="M199.4,-480C191.38,-480 183.31,-480 175.39,-480"/>
<polygon fill="#63b8ff" stroke="#63b8ff" points="199.17,-483.5 209.17,-480 199.17,-476.5 199.17,-483.5"/>
</a>
</g>
</g>
</g>
</svg>
