<?xml version="1.0" encoding="UTF-8" standalone="no"?>
<!DOCTYPE svg PUBLIC "-//W3C//DTD SVG 1.1//EN"
 "http://www.w3.org/Graphics/SVG/1.1/DTD/svg11.dtd">
<!-- Generated by graphviz version 12.1.1 (20240910.0053)
 -->
<!-- Title: Deluxe.DeluxeBrandCenter.AMM.API.Services.DBService.Update Pages: 1 -->
<svg width="664pt" height="140pt"
 viewBox="0.00 0.00 663.50 140.00" xmlns="http://www.w3.org/2000/svg" xmlns:xlink="http://www.w3.org/1999/xlink">
<g id="graph0" class="graph" transform="scale(1 1) rotate(0) translate(4 136)">
<title>Deluxe.DeluxeBrandCenter.AMM.API.Services.DBService.Update</title>
<!-- Node1 -->
<g id="Node000001" class="node">
<title>Node1</title>
<g id="a_Node000001"><a xlink:title=" ">
<polygon fill="#999999" stroke="#666666" points="184.75,-76 0,-76 0,-44 184.75,-44 184.75,-76"/>
<text text-anchor="start" x="8" y="-62.5" font-family="Helvetica,sans-Serif" font-size="10.00">Deluxe.DeluxeBrandCenter.</text>
<text text-anchor="middle" x="92.38" y="-50.5" font-family="Helvetica,sans-Serif" font-size="10.00">AMM.API.Services.DBService.Update</text>
</a>
</g>
</g>
<!-- Node2 -->
<g id="Node000002" class="node">
<title>Node2</title>
<g id="a_Node000002"><a xlink:href="../../d3/d96/interface_deluxe_1_1_deluxe_brand_center_1_1_a_m_m_1_1_infrastructure_1_1_databases_1_1_i_application_db_context.html#a8a659fe1e536a2f0e3016e7ef8f62622" target="_top" xlink:title=" ">
<polygon fill="white" stroke="#666666" points="425,-132 220.75,-132 220.75,-88 425,-88 425,-132"/>
<text text-anchor="start" x="228.75" y="-118.5" font-family="Helvetica,sans-Serif" font-size="10.00">Deluxe.DeluxeBrandCenter.</text>
<text text-anchor="start" x="228.75" y="-106.5" font-family="Helvetica,sans-Serif" font-size="10.00">AMM.Infrastructure.Databases.IApplication</text>
<text text-anchor="middle" x="322.88" y="-94.5" font-family="Helvetica,sans-Serif" font-size="10.00">DbContext.SaveChangesAsync</text>
</a>
</g>
</g>
<!-- Node1&#45;&gt;Node2 -->
<g id="edge1_Node000001_Node000002" class="edge">
<title>Node1&#45;&gt;Node2</title>
<g id="a_edge1_Node000001_Node000002"><a xlink:title=" ">
<path fill="none" stroke="#63b8ff" d="M168.51,-76.44C181.65,-79.32 195.57,-82.36 209.46,-85.4"/>
<polygon fill="#63b8ff" stroke="#63b8ff" points="208.57,-88.79 219.09,-87.51 210.07,-81.95 208.57,-88.79"/>
</a>
</g>
</g>
<!-- Node3 -->
<g id="Node000003" class="node">
<title>Node3</title>
<g id="a_Node000003"><a xlink:href="../../dd/d7d/interface_deluxe_1_1_deluxe_brand_center_1_1_a_m_m_1_1_domain_1_1_services_1_1_i_session_service.html#a31fd07938dc12b3d600f3bd500d3aacd" target="_top" xlink:title=" ">
<polygon fill="white" stroke="#666666" points="655.5,-60 461,-60 461,-16 655.5,-16 655.5,-60"/>
<text text-anchor="start" x="469" y="-46.5" font-family="Helvetica,sans-Serif" font-size="10.00">Deluxe.DeluxeBrandCenter.</text>
<text text-anchor="start" x="469" y="-34.5" font-family="Helvetica,sans-Serif" font-size="10.00">AMM.Domain.Services.ISessionService.</text>
<text text-anchor="middle" x="558.25" y="-22.5" font-family="Helvetica,sans-Serif" font-size="10.00">SessionGetClientId</text>
</a>
</g>
</g>
<!-- Node1&#45;&gt;Node3 -->
<g id="edge2_Node000001_Node000003" class="edge">
<title>Node1&#45;&gt;Node3</title>
<g id="a_edge2_Node000001_Node000003"><a xlink:title=" ">
<path fill="none" stroke="#63b8ff" d="M185.02,-55.65C261.05,-52.05 369.3,-46.91 449.48,-43.11"/>
<polygon fill="#63b8ff" stroke="#63b8ff" points="449.27,-46.63 459.09,-42.66 448.93,-39.63 449.27,-46.63"/>
</a>
</g>
</g>
<!-- Node4 -->
<g id="Node000004" class="node">
<title>Node4</title>
<g id="a_Node000004"><a xlink:href="../../d6/d4e/class_deluxe_1_1_deluxe_brand_center_1_1_a_m_m_1_1_a_p_i_1_1_services_1_1_d_b_service.html#afe2cfea5a2d80d175eb77eed44f64d1c" target="_top" xlink:title=" ">
<polygon fill="white" stroke="#666666" points="413,-32 232.75,-32 232.75,0 413,0 413,-32"/>
<text text-anchor="start" x="240.75" y="-18.5" font-family="Helvetica,sans-Serif" font-size="10.00">Deluxe.DeluxeBrandCenter.</text>
<text text-anchor="middle" x="322.88" y="-6.5" font-family="Helvetica,sans-Serif" font-size="10.00">AMM.API.Services.DBService.Single</text>
</a>
</g>
</g>
<!-- Node1&#45;&gt;Node4 -->
<g id="edge3_Node000001_Node000004" class="edge">
<title>Node1&#45;&gt;Node4</title>
<g id="a_edge3_Node000001_Node000004"><a xlink:title=" ">
<path fill="none" stroke="#63b8ff" d="M178.78,-43.55C193.88,-40.65 209.7,-37.6 225.08,-34.64"/>
<polygon fill="#63b8ff" stroke="#63b8ff" points="225.54,-38.11 234.7,-32.79 224.22,-31.24 225.54,-38.11"/>
</a>
</g>
</g>
<!-- Node4&#45;&gt;Node3 -->
<g id="edge4_Node000004_Node000003" class="edge">
<title>Node4&#45;&gt;Node3</title>
<g id="a_edge4_Node000004_Node000003"><a xlink:title=" ">
<path fill="none" stroke="#63b8ff" d="M413.44,-24.44C425.13,-25.54 437.2,-26.68 449.15,-27.81"/>
<polygon fill="#63b8ff" stroke="#63b8ff" points="448.77,-31.29 459.05,-28.74 449.42,-24.32 448.77,-31.29"/>
</a>
</g>
</g>
</g>
</svg>
