<?xml version="1.0" encoding="UTF-8" standalone="no"?>
<!DOCTYPE svg PUBLIC "-//W3C//DTD SVG 1.1//EN"
 "http://www.w3.org/Graphics/SVG/1.1/DTD/svg11.dtd">
<!-- Generated by graphviz version 12.1.1 (20240910.0053)
 -->
<!-- Title: Deluxe.DeluxeBrandCenter.AMM.Domain.Utility.ContactCSVTable Pages: 1 -->
<svg width="1159pt" height="141pt"
 viewBox="0.00 0.00 1159.25 141.00" xmlns="http://www.w3.org/2000/svg" xmlns:xlink="http://www.w3.org/1999/xlink">
<g id="graph0" class="graph" transform="scale(1 1) rotate(0) translate(4 137)">
<title>Deluxe.DeluxeBrandCenter.AMM.Domain.Utility.ContactCSVTable</title>
<!-- Node1 -->
<g id="Node000001" class="node">
<title>Node1</title>
<g id="a_Node000001"><a xlink:title=" ">
<polygon fill="#999999" stroke="#666666" points="1151.25,-83 965.75,-83 965.75,-51 1151.25,-51 1151.25,-83"/>
<text text-anchor="start" x="973.75" y="-69.5" font-family="Helvetica,sans-Serif" font-size="10.00">Deluxe.DeluxeBrandCenter.</text>
<text text-anchor="middle" x="1058.5" y="-57.5" font-family="Helvetica,sans-Serif" font-size="10.00">AMM.Domain.Utility.ContactCSVTable</text>
</a>
</g>
</g>
<!-- Node2 -->
<g id="Node000002" class="node">
<title>Node2</title>
<g id="a_Node000002"><a xlink:href="../../d0/d2a/class_deluxe_1_1_deluxe_brand_center_1_1_a_m_m_1_1_domain_1_1_utility_1_1_c_s_v_table.html" target="_top" xlink:title=" ">
<polygon fill="white" stroke="#666666" points="928.75,-77 868.5,-77 868.5,-57 928.75,-57 928.75,-77"/>
<text text-anchor="middle" x="898.62" y="-63.5" font-family="Helvetica,sans-Serif" font-size="10.00">CSVTable</text>
</a>
</g>
</g>
<!-- Node2&#45;&gt;Node1 -->
<g id="edge1_Node000001_Node000002" class="edge">
<title>Node2&#45;&gt;Node1</title>
<g id="a_edge1_Node000001_Node000002"><a xlink:title=" ">
<path fill="none" stroke="#63b8ff" d="M940.27,-67C948.1,-67 956.59,-67 965.31,-67"/>
<polygon fill="#63b8ff" stroke="#63b8ff" points="940.46,-63.5 930.46,-67 940.46,-70.5 940.46,-63.5"/>
</a>
</g>
</g>
<!-- Node3 -->
<g id="Node000003" class="node">
<title>Node3</title>
<g id="a_Node000003"><a xlink:href="../../d7/d96/class_deluxe_1_1_deluxe_brand_center_1_1_a_m_m_1_1_domain_1_1_table.html" target="_top" xlink:title=" ">
<polygon fill="white" stroke="#666666" points="831.5,-57 750.25,-57 750.25,-37 831.5,-37 831.5,-57"/>
<text text-anchor="middle" x="790.88" y="-43.5" font-family="Helvetica,sans-Serif" font-size="10.00">Table&lt; string &gt;</text>
</a>
</g>
</g>
<!-- Node3&#45;&gt;Node2 -->
<g id="edge2_Node000002_Node000003" class="edge">
<title>Node3&#45;&gt;Node2</title>
<g id="a_edge2_Node000002_Node000003"><a xlink:title=" ">
<path fill="none" stroke="#63b8ff" d="M843.06,-56.68C851.66,-58.31 860.33,-59.95 868.14,-61.42"/>
<polygon fill="#63b8ff" stroke="#63b8ff" points="843.82,-53.26 833.34,-54.84 842.52,-60.14 843.82,-53.26"/>
</a>
</g>
</g>
<!-- Node4 -->
<g id="Node000004" class="node">
<title>Node4</title>
<g id="a_Node000004"><a xlink:href="../../d7/d96/class_deluxe_1_1_deluxe_brand_center_1_1_a_m_m_1_1_domain_1_1_table.html" target="_top" xlink:title=" ">
<polygon fill="white" stroke="#666666" points="630,-59 491.75,-59 491.75,-27 630,-27 630,-59"/>
<text text-anchor="start" x="499.75" y="-45.5" font-family="Helvetica,sans-Serif" font-size="10.00">Deluxe.DeluxeBrandCenter.</text>
<text text-anchor="middle" x="560.88" y="-33.5" font-family="Helvetica,sans-Serif" font-size="10.00">AMM.Domain.Table&lt; T &gt;</text>
</a>
</g>
</g>
<!-- Node4&#45;&gt;Node3 -->
<g id="edge3_Node000003_Node000004" class="edge">
<title>Node4&#45;&gt;Node3</title>
<g id="a_edge3_Node000003_Node000004"><a xlink:title=" ">
<path fill="none" stroke="orange" stroke-dasharray="5,2" d="M641.48,-44.4C678.18,-45.04 720.12,-45.78 750.03,-46.3"/>
<polygon fill="orange" stroke="orange" points="641.86,-40.9 631.8,-44.23 641.73,-47.9 641.86,-40.9"/>
</a>
</g>
<text text-anchor="middle" x="690.12" y="-48.43" font-family="Helvetica,sans-Serif" font-size="10.00" fill="grey"> &lt; string &gt;</text>
</g>
<!-- Node5 -->
<g id="Node000005" class="node">
<title>Node5</title>
<g id="a_Node000005"><a xlink:href="../../d8/d96/interface_deluxe_1_1_deluxe_brand_center_1_1_a_m_m_1_1_domain_1_1_i_table.html" target="_top" xlink:title="Interface implements ITableReader, ITableWriter, ITableEditor.">
<polygon fill="white" stroke="#666666" points="374.38,-49 308.88,-49 308.88,-29 374.38,-29 374.38,-49"/>
<text text-anchor="middle" x="341.62" y="-35.5" font-family="Helvetica,sans-Serif" font-size="10.00">ITable&lt; T &gt;</text>
</a>
</g>
</g>
<!-- Node5&#45;&gt;Node4 -->
<g id="edge4_Node000004_Node000005" class="edge">
<title>Node5&#45;&gt;Node4</title>
<g id="a_edge4_Node000004_Node000005"><a xlink:title=" ">
<path fill="none" stroke="#63b8ff" d="M386.07,-39.8C416.16,-40.35 456.85,-41.1 491.3,-41.74"/>
<polygon fill="#63b8ff" stroke="#63b8ff" points="386.26,-36.3 376.19,-39.62 386.13,-43.3 386.26,-36.3"/>
</a>
</g>
</g>
<!-- Node6 -->
<g id="Node000006" class="node">
<title>Node6</title>
<g id="a_Node000006"><a xlink:href="../../d3/dd6/interface_deluxe_1_1_deluxe_brand_center_1_1_a_m_m_1_1_domain_1_1_i_table_reader.html" target="_top" xlink:title=" ">
<polygon fill="white" stroke="#666666" points="235.5,-89 138.5,-89 138.5,-69 235.5,-69 235.5,-89"/>
<text text-anchor="middle" x="187" y="-75.5" font-family="Helvetica,sans-Serif" font-size="10.00">ITableReader&lt; T &gt;</text>
</a>
</g>
</g>
<!-- Node6&#45;&gt;Node5 -->
<g id="edge5_Node000005_Node000006" class="edge">
<title>Node6&#45;&gt;Node5</title>
<g id="a_edge5_Node000005_Node000006"><a xlink:title=" ">
<path fill="none" stroke="#63b8ff" d="M238.73,-65.7C261.87,-59.64 288.55,-52.65 308.81,-47.34"/>
<polygon fill="#63b8ff" stroke="#63b8ff" points="237.95,-62.29 229.17,-68.21 239.73,-69.06 237.95,-62.29"/>
</a>
</g>
</g>
<!-- Node12 -->
<g id="Node000012" class="node">
<title>Node12</title>
<g id="a_Node000012"><a xlink:href="../../d8/d96/interface_deluxe_1_1_deluxe_brand_center_1_1_a_m_m_1_1_domain_1_1_i_table.html" target="_top" xlink:title="Interface implements ITableReader, ITableWriter, ITableEditor.">
<polygon fill="white" stroke="#666666" points="410.75,-104 272.5,-104 272.5,-72 410.75,-72 410.75,-104"/>
<text text-anchor="start" x="280.5" y="-90.5" font-family="Helvetica,sans-Serif" font-size="10.00">Deluxe.DeluxeBrandCenter.</text>
<text text-anchor="middle" x="341.62" y="-78.5" font-family="Helvetica,sans-Serif" font-size="10.00">AMM.Domain.ITable&lt; T &gt;</text>
</a>
</g>
</g>
<!-- Node6&#45;&gt;Node12 -->
<g id="edge12_Node000012_Node000006" class="edge">
<title>Node6&#45;&gt;Node12</title>
<g id="a_edge12_Node000012_Node000006"><a xlink:title=" ">
<path fill="none" stroke="#63b8ff" d="M247.23,-82.49C255.43,-82.98 263.9,-83.48 272.24,-83.97"/>
<polygon fill="#63b8ff" stroke="#63b8ff" points="247.57,-79.01 237.38,-81.91 247.16,-85.99 247.57,-79.01"/>
</a>
</g>
</g>
<!-- Node7 -->
<g id="Node000007" class="node">
<title>Node7</title>
<g id="a_Node000007"><a xlink:href="../../df/d98/interface_deluxe_1_1_deluxe_brand_center_1_1_a_m_m_1_1_domain_1_1_i_table_writer.html" target="_top" xlink:title="Interface for writing that has SetValue.">
<polygon fill="white" stroke="#666666" points="232.5,-133 141.5,-133 141.5,-113 232.5,-113 232.5,-133"/>
<text text-anchor="middle" x="187" y="-119.5" font-family="Helvetica,sans-Serif" font-size="10.00">ITableWriter&lt; T &gt;</text>
</a>
</g>
</g>
<!-- Node7&#45;&gt;Node5 -->
<g id="edge6_Node000005_Node000007" class="edge">
<title>Node7&#45;&gt;Node5</title>
<g id="a_edge6_Node000005_Node000007"><a xlink:title=" ">
<path fill="none" stroke="#63b8ff" d="M221.06,-107.11C226.03,-104.29 231,-101.22 235.5,-98 253.91,-84.83 253.18,-74.8 272.5,-63 283.52,-56.27 296.7,-51.07 308.52,-47.26"/>
<polygon fill="#63b8ff" stroke="#63b8ff" points="219.47,-103.99 212.31,-111.79 222.78,-110.16 219.47,-103.99"/>
</a>
</g>
</g>
<!-- Node7&#45;&gt;Node12 -->
<g id="edge13_Node000012_Node000007" class="edge">
<title>Node7&#45;&gt;Node12</title>
<g id="a_edge13_Node000012_Node000007"><a xlink:title=" ">
<path fill="none" stroke="#63b8ff" d="M244.2,-126.54C247.7,-126.19 251.16,-125.69 254.5,-125 274.11,-120.97 294.75,-112.27 310.92,-104.32"/>
<polygon fill="#63b8ff" stroke="#63b8ff" points="244.25,-123.03 234.47,-127.1 244.65,-130.02 244.25,-123.03"/>
</a>
</g>
</g>
<!-- Node8 -->
<g id="Node000008" class="node">
<title>Node8</title>
<g id="a_Node000008"><a xlink:href="../../de/d9e/interface_deluxe_1_1_deluxe_brand_center_1_1_a_m_m_1_1_domain_1_1_i_table_editor.html" target="_top" xlink:title="Interface implements IRowEditor and IColumnEditor.">
<polygon fill="white" stroke="#666666" points="232.5,-39 141.5,-39 141.5,-19 232.5,-19 232.5,-39"/>
<text text-anchor="middle" x="187" y="-25.5" font-family="Helvetica,sans-Serif" font-size="10.00">ITableEditor&lt; T &gt;</text>
</a>
</g>
</g>
<!-- Node8&#45;&gt;Node5 -->
<g id="edge7_Node000005_Node000008" class="edge">
<title>Node8&#45;&gt;Node5</title>
<g id="a_edge7_Node000005_Node000008"><a xlink:title=" ">
<path fill="none" stroke="#63b8ff" d="M244.19,-28.09C247.34,-28.05 250.46,-28.02 253.5,-28 271.79,-27.86 292.08,-30.27 308.47,-32.87"/>
<polygon fill="#63b8ff" stroke="#63b8ff" points="244.22,-24.59 234.26,-28.21 244.3,-31.59 244.22,-24.59"/>
</a>
</g>
</g>
<!-- Node8&#45;&gt;Node12 -->
<g id="edge14_Node000012_Node000008" class="edge">
<title>Node8&#45;&gt;Node12</title>
<g id="a_edge14_Node000012_Node000008"><a xlink:title=" ">
<path fill="none" stroke="#63b8ff" d="M225.52,-43.5C247.5,-52 275.33,-62.76 298.12,-71.57"/>
<polygon fill="#63b8ff" stroke="#63b8ff" points="226.94,-40.3 216.35,-39.96 224.41,-46.83 226.94,-40.3"/>
</a>
</g>
</g>
<!-- Node9 -->
<g id="Node000009" class="node">
<title>Node9</title>
<g id="a_Node000009"><a xlink:href="../../d0/d81/interface_deluxe_1_1_deluxe_brand_center_1_1_a_m_m_1_1_domain_1_1_i_row_editor.html" target="_top" xlink:title="Interface for row editing that has Delete row, append row and insert row.">
<polygon fill="white" stroke="#666666" points="94.75,-58 6.75,-58 6.75,-38 94.75,-38 94.75,-58"/>
<text text-anchor="middle" x="50.75" y="-44.5" font-family="Helvetica,sans-Serif" font-size="10.00">IRowEditor&lt; T &gt;</text>
</a>
</g>
</g>
<!-- Node9&#45;&gt;Node8 -->
<g id="edge8_Node000008_Node000009" class="edge">
<title>Node9&#45;&gt;Node8</title>
<g id="a_edge8_Node000008_Node000009"><a xlink:title=" ">
<path fill="none" stroke="#63b8ff" d="M106.28,-40.28C117.82,-38.65 129.88,-36.94 141.02,-35.37"/>
<polygon fill="#63b8ff" stroke="#63b8ff" points="105.88,-36.8 96.47,-41.67 106.86,-43.74 105.88,-36.8"/>
</a>
</g>
</g>
<!-- Node10 -->
<g id="Node000010" class="node">
<title>Node10</title>
<g id="a_Node000010"><a xlink:href="../../d7/d95/interface_deluxe_1_1_deluxe_brand_center_1_1_a_m_m_1_1_domain_1_1_i_column_editor.html" target="_top" xlink:title="Interface for column editing (delete column, append column and insert column)">
<polygon fill="white" stroke="#666666" points="101.5,-20 0,-20 0,0 101.5,0 101.5,-20"/>
<text text-anchor="middle" x="50.75" y="-6.5" font-family="Helvetica,sans-Serif" font-size="10.00">IColumnEditor&lt; T &gt;</text>
</a>
</g>
</g>
<!-- Node10&#45;&gt;Node8 -->
<g id="edge9_Node000008_Node000010" class="edge">
<title>Node10&#45;&gt;Node8</title>
<g id="a_edge9_Node000008_Node000010"><a xlink:title=" ">
<path fill="none" stroke="#63b8ff" d="M112.85,-18.65C122.43,-20 132.16,-21.38 141.28,-22.67"/>
<polygon fill="#63b8ff" stroke="#63b8ff" points="113.63,-15.22 103.24,-17.29 112.65,-22.15 113.63,-15.22"/>
</a>
</g>
</g>
<!-- Node11 -->
<g id="Node000011" class="node">
<title>Node11</title>
<g id="a_Node000011"><a xlink:href="../../d8/d96/interface_deluxe_1_1_deluxe_brand_center_1_1_a_m_m_1_1_domain_1_1_i_table.html" target="_top" xlink:title=" ">
<polygon fill="white" stroke="#666666" points="732.25,-96 648,-96 648,-76 732.25,-76 732.25,-96"/>
<text text-anchor="middle" x="690.12" y="-82.5" font-family="Helvetica,sans-Serif" font-size="10.00">ITable&lt; string &gt;</text>
</a>
</g>
</g>
<!-- Node11&#45;&gt;Node2 -->
<g id="edge10_Node000002_Node000011" class="edge">
<title>Node11&#45;&gt;Node2</title>
<g id="a_edge10_Node000002_Node000011"><a xlink:title=" ">
<path fill="none" stroke="#63b8ff" d="M743.86,-81.61C774.91,-78.96 814.95,-75.45 850.5,-72 856.23,-71.44 862.35,-70.82 868.22,-70.2"/>
<polygon fill="#63b8ff" stroke="#63b8ff" points="743.6,-78.12 733.93,-82.45 744.19,-85.09 743.6,-78.12"/>
</a>
</g>
</g>
<!-- Node12&#45;&gt;Node11 -->
<g id="edge11_Node000011_Node000012" class="edge">
<title>Node12&#45;&gt;Node11</title>
<g id="a_edge11_Node000011_Node000012"><a xlink:title=" ">
<path fill="none" stroke="orange" stroke-dasharray="5,2" d="M422.55,-87.54C492.92,-87.13 592.58,-86.56 647.96,-86.24"/>
<polygon fill="orange" stroke="orange" points="422.58,-84.04 412.6,-87.6 422.62,-91.04 422.58,-84.04"/>
</a>
</g>
<text text-anchor="middle" x="451.25" y="-89.99" font-family="Helvetica,sans-Serif" font-size="10.00" fill="grey"> &lt; string &gt;</text>
</g>
</g>
</svg>
