<?xml version="1.0" encoding="UTF-8" standalone="no"?>
<!DOCTYPE svg PUBLIC "-//W3C//DTD SVG 1.1//EN"
 "http://www.w3.org/Graphics/SVG/1.1/DTD/svg11.dtd">
<!-- Generated by graphviz version 12.1.1 (20240910.0053)
 -->
<!-- Title: Deluxe.DeluxeBrandCenter.AMM.Domain.Utility.CSVTable.CSVTable Pages: 1 -->
<svg width="613pt" height="176pt"
 viewBox="0.00 0.00 612.50 176.00" xmlns="http://www.w3.org/2000/svg" xmlns:xlink="http://www.w3.org/1999/xlink">
<g id="graph0" class="graph" transform="scale(1 1) rotate(0) translate(4 172)">
<title>Deluxe.DeluxeBrandCenter.AMM.Domain.Utility.CSVTable.CSVTable</title>
<!-- Node1 -->
<g id="Node000001" class="node">
<title>Node1</title>
<g id="a_Node000001"><a xlink:title="Constructor 2 (with csv string)">
<polygon fill="#999999" stroke="#666666" points="198.25,-100 0,-100 0,-68 198.25,-68 198.25,-100"/>
<text text-anchor="start" x="8" y="-86.5" font-family="Helvetica,sans-Serif" font-size="10.00">Deluxe.DeluxeBrandCenter.</text>
<text text-anchor="middle" x="99.12" y="-74.5" font-family="Helvetica,sans-Serif" font-size="10.00">AMM.Domain.Utility.CSVTable.CSVTable</text>
</a>
</g>
</g>
<!-- Node2 -->
<g id="Node000002" class="node">
<title>Node2</title>
<g id="a_Node000002"><a xlink:href="../../d0/d2a/class_deluxe_1_1_deluxe_brand_center_1_1_a_m_m_1_1_domain_1_1_utility_1_1_c_s_v_table.html#a97bf5692de66e240b447e3208c007e31" target="_top" xlink:title="Load csv data from string.">
<polygon fill="white" stroke="#666666" points="430.25,-100 234.25,-100 234.25,-68 430.25,-68 430.25,-100"/>
<text text-anchor="start" x="242.25" y="-86.5" font-family="Helvetica,sans-Serif" font-size="10.00">Deluxe.DeluxeBrandCenter.</text>
<text text-anchor="middle" x="332.25" y="-74.5" font-family="Helvetica,sans-Serif" font-size="10.00">AMM.Domain.Utility.CSVTable.LoadCSV</text>
</a>
</g>
</g>
<!-- Node1&#45;&gt;Node2 -->
<g id="edge1_Node000001_Node000002" class="edge">
<title>Node1&#45;&gt;Node2</title>
<g id="a_edge1_Node000001_Node000002"><a xlink:title=" ">
<path fill="none" stroke="#63b8ff" d="M198.48,-84C206.49,-84 214.62,-84 222.71,-84"/>
<polygon fill="#63b8ff" stroke="#63b8ff" points="222.58,-87.5 232.58,-84 222.58,-80.5 222.58,-87.5"/>
</a>
</g>
</g>
<!-- Node3 -->
<g id="Node000003" class="node">
<title>Node3</title>
<g id="a_Node000003"><a xlink:href="../../d7/d96/class_deluxe_1_1_deluxe_brand_center_1_1_a_m_m_1_1_domain_1_1_table.html#aa15504f4039e3ccebde6742974b9906f" target="_top" xlink:title=" ">
<polygon fill="white" stroke="#666666" points="604.5,-168 466.25,-168 466.25,-124 604.5,-124 604.5,-168"/>
<text text-anchor="start" x="474.25" y="-154.5" font-family="Helvetica,sans-Serif" font-size="10.00">Deluxe.DeluxeBrandCenter.</text>
<text text-anchor="start" x="474.25" y="-142.5" font-family="Helvetica,sans-Serif" font-size="10.00">AMM.Domain.Table&lt; string</text>
<text text-anchor="middle" x="535.38" y="-130.5" font-family="Helvetica,sans-Serif" font-size="10.00"> &gt;::AppendRow</text>
</a>
</g>
</g>
<!-- Node2&#45;&gt;Node3 -->
<g id="edge2_Node000002_Node000003" class="edge">
<title>Node2&#45;&gt;Node3</title>
<g id="a_edge2_Node000002_Node000003"><a xlink:title=" ">
<path fill="none" stroke="#63b8ff" d="M386.62,-100.45C407.62,-106.92 432.16,-114.49 455.15,-121.58"/>
<polygon fill="#63b8ff" stroke="#63b8ff" points="453.9,-124.86 464.49,-124.46 455.96,-118.17 453.9,-124.86"/>
</a>
</g>
</g>
<!-- Node4 -->
<g id="Node000004" class="node">
<title>Node4</title>
<g id="a_Node000004"><a xlink:href="../../d7/d96/class_deluxe_1_1_deluxe_brand_center_1_1_a_m_m_1_1_domain_1_1_table.html#af89da779131f9a7f7ea26d3e4f413cb1" target="_top" xlink:title=" ">
<polygon fill="white" stroke="#666666" points="604.5,-106 466.25,-106 466.25,-62 604.5,-62 604.5,-106"/>
<text text-anchor="start" x="474.25" y="-92.5" font-family="Helvetica,sans-Serif" font-size="10.00">Deluxe.DeluxeBrandCenter.</text>
<text text-anchor="start" x="474.25" y="-80.5" font-family="Helvetica,sans-Serif" font-size="10.00">AMM.Domain.Table&lt; string</text>
<text text-anchor="middle" x="535.38" y="-68.5" font-family="Helvetica,sans-Serif" font-size="10.00"> &gt;::InsertEmptyValues</text>
</a>
</g>
</g>
<!-- Node2&#45;&gt;Node4 -->
<g id="edge3_Node000002_Node000004" class="edge">
<title>Node2&#45;&gt;Node4</title>
<g id="a_edge3_Node000002_Node000004"><a xlink:title=" ">
<path fill="none" stroke="#63b8ff" d="M430.57,-84C438.59,-84 446.63,-84 454.5,-84"/>
<polygon fill="#63b8ff" stroke="#63b8ff" points="454.36,-87.5 464.36,-84 454.36,-80.5 454.36,-87.5"/>
</a>
</g>
</g>
<!-- Node5 -->
<g id="Node000005" class="node">
<title>Node5</title>
<g id="a_Node000005"><a xlink:href="../../d7/d96/class_deluxe_1_1_deluxe_brand_center_1_1_a_m_m_1_1_domain_1_1_table.html#a0c1c4f0f885521459bb09f99201c0f3c" target="_top" xlink:title=" ">
<polygon fill="white" stroke="#666666" points="604.5,-44 466.25,-44 466.25,0 604.5,0 604.5,-44"/>
<text text-anchor="start" x="474.25" y="-30.5" font-family="Helvetica,sans-Serif" font-size="10.00">Deluxe.DeluxeBrandCenter.</text>
<text text-anchor="start" x="474.25" y="-18.5" font-family="Helvetica,sans-Serif" font-size="10.00">AMM.Domain.Table&lt; string</text>
<text text-anchor="middle" x="535.38" y="-6.5" font-family="Helvetica,sans-Serif" font-size="10.00"> &gt;::SetHeader</text>
</a>
</g>
</g>
<!-- Node2&#45;&gt;Node5 -->
<g id="edge4_Node000002_Node000005" class="edge">
<title>Node2&#45;&gt;Node5</title>
<g id="a_edge4_Node000002_Node000005"><a xlink:title=" ">
<path fill="none" stroke="#63b8ff" d="M386.62,-67.55C407.62,-61.08 432.16,-53.51 455.15,-46.42"/>
<polygon fill="#63b8ff" stroke="#63b8ff" points="455.96,-49.83 464.49,-43.54 453.9,-43.14 455.96,-49.83"/>
</a>
</g>
</g>
</g>
</svg>
