<?xml version="1.0" encoding="UTF-8" standalone="no"?>
<!DOCTYPE svg PUBLIC "-//W3C//DTD SVG 1.1//EN"
 "http://www.w3.org/Graphics/SVG/1.1/DTD/svg11.dtd">
<!-- Generated by graphviz version 12.1.1 (20240910.0053)
 -->
<!-- Title: Deluxe.DeluxeBrandCenter.AMM.Domain.DataModel.CustomizedVideo Pages: 1 -->
<svg width="287pt" height="264pt"
 viewBox="0.00 0.00 287.38 264.00" xmlns="http://www.w3.org/2000/svg" xmlns:xlink="http://www.w3.org/1999/xlink">
<g id="graph0" class="graph" transform="scale(1 1) rotate(0) translate(4 260)">
<title>Deluxe.DeluxeBrandCenter.AMM.Domain.DataModel.CustomizedVideo</title>
<!-- Node1 -->
<g id="Node000001" class="node">
<title>Node1</title>
<g id="a_Node000001"><a xlink:title=" ">
<polygon fill="#999999" stroke="#666666" points="206.5,-32 0,-32 0,0 206.5,0 206.5,-32"/>
<text text-anchor="start" x="8" y="-18.5" font-family="Helvetica,sans-Serif" font-size="10.00">Deluxe.DeluxeBrandCenter.</text>
<text text-anchor="middle" x="103.25" y="-6.5" font-family="Helvetica,sans-Serif" font-size="10.00">AMM.Domain.DataModel.CustomizedVideo</text>
</a>
</g>
</g>
<!-- Node2 -->
<g id="Node000002" class="node">
<title>Node2</title>
<g id="a_Node000002"><a xlink:href="../../d4/d1a/class_deluxe_1_1_deluxe_brand_center_1_1_a_m_m_1_1_domain_1_1_data_model_1_1_base_entity_named.html" target="_top" xlink:title=" ">
<polygon fill="white" stroke="#666666" points="227,-88 131.5,-88 131.5,-68 227,-68 227,-88"/>
<text text-anchor="middle" x="179.25" y="-74.5" font-family="Helvetica,sans-Serif" font-size="10.00">BaseEntityNamed</text>
</a>
</g>
</g>
<!-- Node2&#45;&gt;Node1 -->
<g id="edge1_Node000001_Node000002" class="edge">
<title>Node2&#45;&gt;Node1</title>
<g id="a_edge1_Node000001_Node000002"><a xlink:title=" ">
<path fill="none" stroke="#63b8ff" d="M158.36,-60.51C147.23,-51.72 133.63,-40.98 122.72,-32.37"/>
<polygon fill="#63b8ff" stroke="#63b8ff" points="156.17,-63.24 166.19,-66.69 160.51,-57.74 156.17,-63.24"/>
</a>
</g>
</g>
<!-- Node3 -->
<g id="Node000003" class="node">
<title>Node3</title>
<g id="a_Node000003"><a xlink:href="../../d7/d1c/class_deluxe_1_1_deluxe_brand_center_1_1_a_m_m_1_1_domain_1_1_data_model_1_1_base_entity.html" target="_top" xlink:title=" ">
<polygon fill="white" stroke="#666666" points="272.25,-144 208.25,-144 208.25,-124 272.25,-124 272.25,-144"/>
<text text-anchor="middle" x="240.25" y="-130.5" font-family="Helvetica,sans-Serif" font-size="10.00">BaseEntity</text>
</a>
</g>
</g>
<!-- Node3&#45;&gt;Node2 -->
<g id="edge2_Node000002_Node000003" class="edge">
<title>Node3&#45;&gt;Node2</title>
<g id="a_edge2_Node000002_Node000003"><a xlink:title=" ">
<path fill="none" stroke="#63b8ff" d="M221.19,-116.13C210.81,-106.94 198.38,-95.93 189.75,-88.3"/>
<polygon fill="#63b8ff" stroke="#63b8ff" points="218.68,-118.58 228.49,-122.59 223.32,-113.34 218.68,-118.58"/>
</a>
</g>
</g>
<!-- Node4 -->
<g id="Node000004" class="node">
<title>Node4</title>
<g id="a_Node000004"><a xlink:href="../../d6/df6/class_deluxe_1_1_deluxe_brand_center_1_1_a_m_m_1_1_domain_1_1_data_model_1_1_modified_entity.html" target="_top" xlink:title=" ">
<polygon fill="white" stroke="#666666" points="279.38,-200 201.12,-200 201.12,-180 279.38,-180 279.38,-200"/>
<text text-anchor="middle" x="240.25" y="-186.5" font-family="Helvetica,sans-Serif" font-size="10.00">ModifiedEntity</text>
</a>
</g>
</g>
<!-- Node4&#45;&gt;Node3 -->
<g id="edge3_Node000003_Node000004" class="edge">
<title>Node4&#45;&gt;Node3</title>
<g id="a_edge3_Node000003_Node000004"><a xlink:title=" ">
<path fill="none" stroke="#63b8ff" d="M240.25,-168.13C240.25,-159.9 240.25,-150.85 240.25,-144.3"/>
<polygon fill="#63b8ff" stroke="#63b8ff" points="236.75,-168.08 240.25,-178.08 243.75,-168.08 236.75,-168.08"/>
</a>
</g>
</g>
<!-- Node5 -->
<g id="Node000005" class="node">
<title>Node5</title>
<g id="a_Node000005"><a xlink:href="../../d6/dad/interface_deluxe_1_1_deluxe_brand_center_1_1_a_m_m_1_1_domain_1_1_data_model_1_1_interface_1_1_i_modified.html" target="_top" xlink:title=" ">
<polygon fill="white" stroke="#666666" points="222.12,-256 166.38,-256 166.38,-236 222.12,-236 222.12,-256"/>
<text text-anchor="middle" x="194.25" y="-242.5" font-family="Helvetica,sans-Serif" font-size="10.00">IModified</text>
</a>
</g>
</g>
<!-- Node5&#45;&gt;Node4 -->
<g id="edge4_Node000004_Node000005" class="edge">
<title>Node5&#45;&gt;Node4</title>
<g id="a_edge4_Node000004_Node000005"><a xlink:title=" ">
<path fill="none" stroke="#63b8ff" d="M209.58,-227C217.2,-218.06 226.09,-207.62 232.33,-200.3"/>
<polygon fill="#63b8ff" stroke="#63b8ff" points="207.06,-224.56 203.24,-234.44 212.39,-229.1 207.06,-224.56"/>
</a>
</g>
</g>
<!-- Node6 -->
<g id="Node000006" class="node">
<title>Node6</title>
<g id="a_Node000006"><a xlink:href="../../d5/d26/interface_deluxe_1_1_deluxe_brand_center_1_1_a_m_m_1_1_domain_1_1_data_model_1_1_interface_1_1_i_base_entity.html" target="_top" xlink:title=" ">
<polygon fill="white" stroke="#666666" points="182.75,-200 115.75,-200 115.75,-180 182.75,-180 182.75,-200"/>
<text text-anchor="middle" x="149.25" y="-186.5" font-family="Helvetica,sans-Serif" font-size="10.00">IBaseEntity</text>
</a>
</g>
</g>
<!-- Node5&#45;&gt;Node6 -->
<g id="edge6_Node000006_Node000005" class="edge">
<title>Node5&#45;&gt;Node6</title>
<g id="a_edge6_Node000006_Node000005"><a xlink:title=" ">
<path fill="none" stroke="#63b8ff" d="M179.25,-227C171.8,-218.06 163.1,-207.62 157,-200.3"/>
<polygon fill="#63b8ff" stroke="#63b8ff" points="176.35,-228.99 185.44,-234.43 181.73,-224.51 176.35,-228.99"/>
</a>
</g>
</g>
<!-- Node6&#45;&gt;Node1 -->
<g id="edge11_Node000001_Node000006" class="edge">
<title>Node6&#45;&gt;Node1</title>
<g id="a_edge11_Node000001_Node000006"><a xlink:title=" ">
<path fill="none" stroke="#63b8ff" d="M104.31,-181.37C82.58,-175.18 58.4,-164.02 45.25,-144 20.63,-106.52 61.88,-56.89 86.66,-32.24"/>
<polygon fill="#63b8ff" stroke="#63b8ff" points="103.36,-184.74 113.91,-183.81 105.08,-177.96 103.36,-184.74"/>
</a>
</g>
</g>
<!-- Node6&#45;&gt;Node2 -->
<g id="edge9_Node000002_Node000006" class="edge">
<title>Node6&#45;&gt;Node2</title>
<g id="a_edge9_Node000002_Node000006"><a xlink:title=" ">
<path fill="none" stroke="#63b8ff" d="M154.8,-168.64C161.33,-144.72 171.88,-106.03 176.7,-88.35"/>
<polygon fill="#63b8ff" stroke="#63b8ff" points="151.46,-167.59 152.21,-178.16 158.21,-169.43 151.46,-167.59"/>
</a>
</g>
</g>
<!-- Node6&#45;&gt;Node3 -->
<g id="edge5_Node000003_Node000006" class="edge">
<title>Node6&#45;&gt;Node3</title>
<g id="a_edge5_Node000003_Node000006"><a xlink:title=" ">
<path fill="none" stroke="#63b8ff" d="M174.85,-173.81C190.72,-164.39 210.62,-152.58 224.28,-144.48"/>
<polygon fill="#63b8ff" stroke="#63b8ff" points="173.22,-170.71 166.4,-178.82 176.79,-176.73 173.22,-170.71"/>
</a>
</g>
</g>
<!-- Node7 -->
<g id="Node000007" class="node">
<title>Node7</title>
<g id="a_Node000007"><a xlink:href="../../d9/dec/interface_deluxe_1_1_deluxe_brand_center_1_1_a_m_m_1_1_domain_1_1_data_model_1_1_interface_1_1_i_base_entity_named.html" target="_top" xlink:title=" ">
<polygon fill="white" stroke="#666666" points="152.5,-144 54,-144 54,-124 152.5,-124 152.5,-144"/>
<text text-anchor="middle" x="103.25" y="-130.5" font-family="Helvetica,sans-Serif" font-size="10.00">IBaseEntityNamed</text>
</a>
</g>
</g>
<!-- Node6&#45;&gt;Node7 -->
<g id="edge8_Node000007_Node000006" class="edge">
<title>Node6&#45;&gt;Node7</title>
<g id="a_edge8_Node000007_Node000006"><a xlink:title=" ">
<path fill="none" stroke="#63b8ff" d="M133.92,-171C126.3,-162.06 117.41,-151.62 111.17,-144.3"/>
<polygon fill="#63b8ff" stroke="#63b8ff" points="131.11,-173.1 140.26,-178.44 136.44,-168.56 131.11,-173.1"/>
</a>
</g>
</g>
<!-- Node7&#45;&gt;Node1 -->
<g id="edge10_Node000001_Node000007" class="edge">
<title>Node7&#45;&gt;Node1</title>
<g id="a_edge10_Node000001_Node000007"><a xlink:title=" ">
<path fill="none" stroke="#63b8ff" d="M103.25,-112.04C103.25,-89.1 103.25,-52.88 103.25,-32.41"/>
<polygon fill="#63b8ff" stroke="#63b8ff" points="99.75,-111.99 103.25,-121.99 106.75,-111.99 99.75,-111.99"/>
</a>
</g>
</g>
<!-- Node7&#45;&gt;Node2 -->
<g id="edge7_Node000002_Node000007" class="edge">
<title>Node7&#45;&gt;Node2</title>
<g id="a_edge7_Node000002_Node000007"><a xlink:title=" ">
<path fill="none" stroke="#63b8ff" d="M125.77,-117C138.83,-107.72 154.83,-96.35 165.91,-88.48"/>
<polygon fill="#63b8ff" stroke="#63b8ff" points="123.85,-114.07 117.72,-122.72 127.9,-119.78 123.85,-114.07"/>
</a>
</g>
</g>
</g>
</svg>
