<?xml version="1.0" encoding="UTF-8" standalone="no"?>
<!DOCTYPE svg PUBLIC "-//W3C//DTD SVG 1.1//EN"
 "http://www.w3.org/Graphics/SVG/1.1/DTD/svg11.dtd">
<!-- Generated by graphviz version 12.1.1 (20240910.0053)
 -->
<!-- Title: Deluxe.DeluxeBrandCenter.AMM.Domain.ViewModel.SharingRequest.SharingRequest Pages: 1 -->
<svg width="672pt" height="114pt"
 viewBox="0.00 0.00 671.75 114.00" xmlns="http://www.w3.org/2000/svg" xmlns:xlink="http://www.w3.org/1999/xlink">
<g id="graph0" class="graph" transform="scale(1 1) rotate(0) translate(4 110)">
<title>Deluxe.DeluxeBrandCenter.AMM.Domain.ViewModel.SharingRequest.SharingRequest</title>
<!-- Node1 -->
<g id="Node000001" class="node">
<title>Node1</title>
<g id="a_Node000001"><a xlink:title=" ">
<polygon fill="#999999" stroke="#666666" points="202.75,-75 0,-75 0,-31 202.75,-31 202.75,-75"/>
<text text-anchor="start" x="8" y="-61.5" font-family="Helvetica,sans-Serif" font-size="10.00">Deluxe.DeluxeBrandCenter.</text>
<text text-anchor="start" x="8" y="-49.5" font-family="Helvetica,sans-Serif" font-size="10.00">AMM.Domain.ViewModel.SharingRequest.</text>
<text text-anchor="middle" x="101.38" y="-37.5" font-family="Helvetica,sans-Serif" font-size="10.00">SharingRequest</text>
</a>
</g>
</g>
<!-- Node2 -->
<g id="Node000002" class="node">
<title>Node2</title>
<g id="a_Node000002"><a xlink:href="../../d7/dd2/class_deluxe_1_1_deluxe_brand_center_1_1_a_m_m_1_1_domain_1_1_view_model_1_1_publish_for_user.html#a660216f09403865d66a1fbb8c9b9b25c" target="_top" xlink:title=" ">
<polygon fill="white" stroke="#666666" points="424.25,-106 247.75,-106 247.75,-62 424.25,-62 424.25,-106"/>
<text text-anchor="start" x="255.75" y="-92.5" font-family="Helvetica,sans-Serif" font-size="10.00">Deluxe.DeluxeBrandCenter.</text>
<text text-anchor="start" x="255.75" y="-80.5" font-family="Helvetica,sans-Serif" font-size="10.00">AMM.Domain.ViewModel.PublishFor</text>
<text text-anchor="middle" x="336" y="-68.5" font-family="Helvetica,sans-Serif" font-size="10.00">User.GeneratePublishForUser</text>
</a>
</g>
</g>
<!-- Node1&#45;&gt;Node2 -->
<g id="edge1_Node000001_Node000002" class="edge">
<title>Node1&#45;&gt;Node2</title>
<g id="a_edge1_Node000001_Node000002"><a xlink:title=" ">
<path fill="none" stroke="#63b8ff" d="M203.05,-66.42C213.99,-67.87 225.11,-69.36 236.03,-70.81"/>
<polygon fill="#63b8ff" stroke="#63b8ff" points="235.44,-74.26 245.81,-72.11 236.36,-67.32 235.44,-74.26"/>
</a>
</g>
</g>
<!-- Node4 -->
<g id="Node000004" class="node">
<title>Node4</title>
<g id="a_Node000004"><a xlink:href="../../d4/dfa/class_deluxe_1_1_deluxe_brand_center_1_1_a_m_m_1_1_domain_1_1_view_model_1_1_social_content.html#a916dd030c048fe84ff4d045233f59d01" target="_top" xlink:title=" ">
<polygon fill="white" stroke="#666666" points="433.25,-44 238.75,-44 238.75,0 433.25,0 433.25,-44"/>
<text text-anchor="start" x="246.75" y="-30.5" font-family="Helvetica,sans-Serif" font-size="10.00">Deluxe.DeluxeBrandCenter.</text>
<text text-anchor="start" x="246.75" y="-18.5" font-family="Helvetica,sans-Serif" font-size="10.00">AMM.Domain.ViewModel.SocialContent.</text>
<text text-anchor="middle" x="336" y="-6.5" font-family="Helvetica,sans-Serif" font-size="10.00">GenerateSocialContent</text>
</a>
</g>
</g>
<!-- Node1&#45;&gt;Node4 -->
<g id="edge3_Node000001_Node000004" class="edge">
<title>Node1&#45;&gt;Node4</title>
<g id="a_edge3_Node000001_Node000004"><a xlink:title=" ">
<path fill="none" stroke="#63b8ff" d="M203.05,-39.58C211.07,-38.52 219.18,-37.43 227.24,-36.36"/>
<polygon fill="#63b8ff" stroke="#63b8ff" points="227.63,-39.84 237.08,-35.05 226.7,-32.9 227.63,-39.84"/>
</a>
</g>
</g>
<!-- Node3 -->
<g id="Node000003" class="node">
<title>Node3</title>
<g id="a_Node000003"><a xlink:href="../../d7/dd2/class_deluxe_1_1_deluxe_brand_center_1_1_a_m_m_1_1_domain_1_1_view_model_1_1_publish_for_user.html#ad2f23c636d1aa7650b74c56c6208479f" target="_top" xlink:title=" ">
<polygon fill="white" stroke="#666666" points="654.75,-106 478.25,-106 478.25,-62 654.75,-62 654.75,-106"/>
<text text-anchor="start" x="486.25" y="-92.5" font-family="Helvetica,sans-Serif" font-size="10.00">Deluxe.DeluxeBrandCenter.</text>
<text text-anchor="start" x="486.25" y="-80.5" font-family="Helvetica,sans-Serif" font-size="10.00">AMM.Domain.ViewModel.PublishFor</text>
<text text-anchor="middle" x="566.5" y="-68.5" font-family="Helvetica,sans-Serif" font-size="10.00">User.PublishForUser</text>
</a>
</g>
</g>
<!-- Node2&#45;&gt;Node3 -->
<g id="edge2_Node000002_Node000003" class="edge">
<title>Node2&#45;&gt;Node3</title>
<g id="a_edge2_Node000002_Node000003"><a xlink:title=" ">
<path fill="none" stroke="#63b8ff" d="M424.69,-84C438.49,-84 452.85,-84 466.88,-84"/>
<polygon fill="#63b8ff" stroke="#63b8ff" points="466.53,-87.5 476.53,-84 466.53,-80.5 466.53,-87.5"/>
</a>
</g>
</g>
<!-- Node5 -->
<g id="Node000005" class="node">
<title>Node5</title>
<g id="a_Node000005"><a xlink:href="../../d4/dfa/class_deluxe_1_1_deluxe_brand_center_1_1_a_m_m_1_1_domain_1_1_view_model_1_1_social_content.html#ae41bf42e98fd60303d6bd76ac61dae31" target="_top" xlink:title=" ">
<polygon fill="white" stroke="#666666" points="663.75,-44 469.25,-44 469.25,0 663.75,0 663.75,-44"/>
<text text-anchor="start" x="477.25" y="-30.5" font-family="Helvetica,sans-Serif" font-size="10.00">Deluxe.DeluxeBrandCenter.</text>
<text text-anchor="start" x="477.25" y="-18.5" font-family="Helvetica,sans-Serif" font-size="10.00">AMM.Domain.ViewModel.SocialContent.</text>
<text text-anchor="middle" x="566.5" y="-6.5" font-family="Helvetica,sans-Serif" font-size="10.00">SocialContent</text>
</a>
</g>
</g>
<!-- Node4&#45;&gt;Node5 -->
<g id="edge4_Node000004_Node000005" class="edge">
<title>Node4&#45;&gt;Node5</title>
<g id="a_edge4_Node000004_Node000005"><a xlink:title=" ">
<path fill="none" stroke="#63b8ff" d="M433.57,-22C441.52,-22 449.59,-22 457.61,-22"/>
<polygon fill="#63b8ff" stroke="#63b8ff" points="457.39,-25.5 467.39,-22 457.39,-18.5 457.39,-25.5"/>
</a>
</g>
</g>
</g>
</svg>
