<?xml version="1.0" encoding="UTF-8" standalone="no"?>
<!DOCTYPE svg PUBLIC "-//W3C//DTD SVG 1.1//EN"
 "http://www.w3.org/Graphics/SVG/1.1/DTD/svg11.dtd">
<!-- Generated by graphviz version 12.1.1 (20240910.0053)
 -->
<!-- Title: Deluxe.DeluxeBrandCenter.AMM.API.Controllers.UtilityController Pages: 1 -->
<svg width="246pt" height="120pt"
 viewBox="0.00 0.00 246.12 120.00" xmlns="http://www.w3.org/2000/svg" xmlns:xlink="http://www.w3.org/1999/xlink">
<g id="graph0" class="graph" transform="scale(1 1) rotate(0) translate(4 116)">
<title>Deluxe.DeluxeBrandCenter.AMM.API.Controllers.UtilityController</title>
<!-- Node1 -->
<g id="Node000001" class="node">
<title>Node1</title>
<g id="a_Node000001"><a xlink:title="Utility Controller.">
<polygon fill="#999999" stroke="#666666" points="182.75,-32 3.25,-32 3.25,0 182.75,0 182.75,-32"/>
<text text-anchor="start" x="11.25" y="-18.5" font-family="Helvetica,sans-Serif" font-size="10.00">Deluxe.DeluxeBrandCenter.</text>
<text text-anchor="middle" x="93" y="-6.5" font-family="Helvetica,sans-Serif" font-size="10.00">AMM.API.Controllers.UtilityController</text>
</a>
</g>
</g>
<!-- Node2 -->
<g id="Node000002" class="node">
<title>Node2</title>
<g id="a_Node000002"><a xlink:title=" ">
<polygon fill="white" stroke="#666666" points="58,-106 0,-106 0,-86 58,-86 58,-106"/>
<text text-anchor="middle" x="29" y="-92.5" font-family="Helvetica,sans-Serif" font-size="10.00">Controller</text>
</a>
</g>
</g>
<!-- Node2&#45;&gt;Node1 -->
<g id="edge1_Node000001_Node000002" class="edge">
<title>Node2&#45;&gt;Node1</title>
<g id="a_edge1_Node000001_Node000002"><a xlink:title=" ">
<path fill="none" stroke="#63b8ff" d="M43.84,-76.91C54.9,-63.43 69.85,-45.21 80.35,-32.42"/>
<polygon fill="#63b8ff" stroke="#63b8ff" points="41.19,-74.63 37.55,-84.58 46.6,-79.07 41.19,-74.63"/>
</a>
</g>
</g>
<!-- Node3 -->
<g id="Node000003" class="node">
<title>Node3</title>
<g id="a_Node000003"><a xlink:href="../../d8/de3/interface_deluxe_1_1_deluxe_brand_center_1_1_a_m_m_1_1_a_p_i_1_1_services_1_1_i_state_service.html" target="_top" xlink:title=" ">
<polygon fill="white" stroke="#666666" points="238.12,-112 75.88,-112 75.88,-80 238.12,-80 238.12,-112"/>
<text text-anchor="start" x="83.88" y="-98.5" font-family="Helvetica,sans-Serif" font-size="10.00">Deluxe.DeluxeBrandCenter.</text>
<text text-anchor="middle" x="157" y="-86.5" font-family="Helvetica,sans-Serif" font-size="10.00">AMM.API.Services.IStateService</text>
</a>
</g>
</g>
<!-- Node3&#45;&gt;Node1 -->
<g id="edge2_Node000001_Node000003" class="edge">
<title>Node3&#45;&gt;Node1</title>
<g id="a_edge2_Node000001_Node000003"><a xlink:title=" ">
<path fill="none" stroke="#9a32cd" stroke-dasharray="5,2" d="M137.28,-70.96C126.96,-58.39 114.64,-43.37 105.62,-32.38"/>
<polygon fill="#9a32cd" stroke="#9a32cd" points="134.35,-72.91 143.4,-78.42 139.76,-68.47 134.35,-72.91"/>
</a>
</g>
<text text-anchor="middle" x="146.08" y="-52.5" font-family="Helvetica,sans-Serif" font-size="10.00" fill="grey"> service</text>
</g>
</g>
</svg>
