<?xml version="1.0" encoding="UTF-8" standalone="no"?>
<!DOCTYPE svg PUBLIC "-//W3C//DTD SVG 1.1//EN"
 "http://www.w3.org/Graphics/SVG/1.1/DTD/svg11.dtd">
<!-- Generated by graphviz version 12.1.1 (20240910.0053)
 -->
<!-- Title: Deluxe.DeluxeBrandCenter.AMM.API.Controllers.SettingsController Pages: 1 -->
<svg width="198pt" height="258pt"
 viewBox="0.00 0.00 198.00 258.00" xmlns="http://www.w3.org/2000/svg" xmlns:xlink="http://www.w3.org/1999/xlink">
<g id="graph0" class="graph" transform="scale(1 1) rotate(0) translate(4 254)">
<title>Deluxe.DeluxeBrandCenter.AMM.API.Controllers.SettingsController</title>
<!-- Node1 -->
<g id="Node000001" class="node">
<title>Node1</title>
<g id="a_Node000001"><a xlink:title="Settings Controller.">
<polygon fill="#999999" stroke="#666666" points="190,-32 0,-32 0,0 190,0 190,-32"/>
<text text-anchor="start" x="8" y="-18.5" font-family="Helvetica,sans-Serif" font-size="10.00">Deluxe.DeluxeBrandCenter.</text>
<text text-anchor="middle" x="95" y="-6.5" font-family="Helvetica,sans-Serif" font-size="10.00">AMM.API.Controllers.SettingsController</text>
</a>
</g>
</g>
<!-- Node2 -->
<g id="Node000002" class="node">
<title>Node2</title>
<g id="a_Node000002"><a xlink:href="../../de/d9b/class_deluxe_1_1_deluxe_brand_center_1_1_a_m_m_1_1_a_p_i_1_1_controllers_1_1_root_controller.html" target="_top" xlink:title=" ">
<polygon fill="white" stroke="#666666" points="158.5,-101 31.5,-101 31.5,-69 158.5,-69 158.5,-101"/>
<text text-anchor="start" x="39.5" y="-87.5" font-family="Helvetica,sans-Serif" font-size="10.00">RootController&lt; ISettings</text>
<text text-anchor="middle" x="95" y="-75.5" font-family="Helvetica,sans-Serif" font-size="10.00">Service &gt;</text>
</a>
</g>
</g>
<!-- Node2&#45;&gt;Node1 -->
<g id="edge1_Node000001_Node000002" class="edge">
<title>Node2&#45;&gt;Node1</title>
<g id="a_edge1_Node000001_Node000002"><a xlink:title=" ">
<path fill="none" stroke="#63b8ff" d="M95,-57.35C95,-48.78 95,-39.59 95,-32.14"/>
<polygon fill="#63b8ff" stroke="#63b8ff" points="91.5,-57.28 95,-67.28 98.5,-57.28 91.5,-57.28"/>
</a>
</g>
</g>
<!-- Node3 -->
<g id="Node000003" class="node">
<title>Node3</title>
<g id="a_Node000003"><a xlink:href="../../de/d9b/class_deluxe_1_1_deluxe_brand_center_1_1_a_m_m_1_1_a_p_i_1_1_controllers_1_1_root_controller.html" target="_top" xlink:title="Root Controller.">
<polygon fill="white" stroke="#666666" points="182.5,-193 7.5,-193 7.5,-149 182.5,-149 182.5,-193"/>
<text text-anchor="start" x="15.5" y="-179.5" font-family="Helvetica,sans-Serif" font-size="10.00">Deluxe.DeluxeBrandCenter.</text>
<text text-anchor="start" x="15.5" y="-167.5" font-family="Helvetica,sans-Serif" font-size="10.00">AMM.API.Controllers.RootController</text>
<text text-anchor="middle" x="95" y="-155.5" font-family="Helvetica,sans-Serif" font-size="10.00">&lt; TService &gt;</text>
</a>
</g>
</g>
<!-- Node3&#45;&gt;Node2 -->
<g id="edge2_Node000002_Node000003" class="edge">
<title>Node3&#45;&gt;Node2</title>
<g id="a_edge2_Node000002_Node000003"><a xlink:title=" ">
<path fill="none" stroke="orange" stroke-dasharray="5,2" d="M95,-137.41C95,-125 95,-111.44 95,-101.36"/>
<polygon fill="orange" stroke="orange" points="91.5,-137.29 95,-147.29 98.5,-137.29 91.5,-137.29"/>
</a>
</g>
<text text-anchor="middle" x="141.5" y="-121.5" font-family="Helvetica,sans-Serif" font-size="10.00" fill="grey"> &lt; ISettingsService &gt;</text>
</g>
<!-- Node4 -->
<g id="Node000004" class="node">
<title>Node4</title>
<g id="a_Node000004"><a xlink:title=" ">
<polygon fill="white" stroke="#666666" points="135.25,-250 54.75,-250 54.75,-230 135.25,-230 135.25,-250"/>
<text text-anchor="middle" x="95" y="-236.5" font-family="Helvetica,sans-Serif" font-size="10.00">ControllerBase</text>
</a>
</g>
</g>
<!-- Node4&#45;&gt;Node3 -->
<g id="edge3_Node000003_Node000004" class="edge">
<title>Node4&#45;&gt;Node3</title>
<g id="a_edge3_Node000003_Node000004"><a xlink:title=" ">
<path fill="none" stroke="#63b8ff" d="M95,-218.17C95,-210.29 95,-201.31 95,-193.37"/>
<polygon fill="#63b8ff" stroke="#63b8ff" points="91.5,-218.17 95,-228.17 98.5,-218.17 91.5,-218.17"/>
</a>
</g>
</g>
</g>
</svg>
