<?xml version="1.0" encoding="UTF-8" standalone="no"?>
<!DOCTYPE svg PUBLIC "-//W3C//DTD SVG 1.1//EN"
 "http://www.w3.org/Graphics/SVG/1.1/DTD/svg11.dtd">
<!-- Generated by graphviz version 12.1.1 (20240910.0053)
 -->
<!-- Title: Deluxe.DeluxeBrandCenter.AMM.API.Services.IClientDBService&lt; TModel, TModelVM &gt; Pages: 1 -->
<svg width="1067pt" height="226pt"
 viewBox="0.00 0.00 1066.75 226.00" xmlns="http://www.w3.org/2000/svg" xmlns:xlink="http://www.w3.org/1999/xlink">
<g id="graph0" class="graph" transform="scale(1 1) rotate(0) translate(4 222)">
<title>Deluxe.DeluxeBrandCenter.AMM.API.Services.IClientDBService&lt; TModel, TModelVM &gt;</title>
<!-- Node1 -->
<g id="Node000001" class="node">
<title>Node1</title>
<g id="a_Node000001"><a xlink:title=" ">
<polygon fill="#999999" stroke="#666666" points="178.75,-118 0,-118 0,-74 178.75,-74 178.75,-118"/>
<text text-anchor="start" x="8" y="-104.5" font-family="Helvetica,sans-Serif" font-size="10.00">Deluxe.DeluxeBrandCenter.</text>
<text text-anchor="start" x="8" y="-92.5" font-family="Helvetica,sans-Serif" font-size="10.00">AMM.API.Services.IClientDBService</text>
<text text-anchor="middle" x="89.38" y="-80.5" font-family="Helvetica,sans-Serif" font-size="10.00">&lt; TModel, TModelVM &gt;</text>
</a>
</g>
</g>
<!-- Node2 -->
<g id="Node000002" class="node">
<title>Node2</title>
<g id="a_Node000002"><a xlink:href="../../da/d9e/class_deluxe_1_1_deluxe_brand_center_1_1_a_m_m_1_1_a_p_i_1_1_services_1_1_client_d_b_service.html" target="_top" xlink:title=" ">
<polygon fill="white" stroke="#666666" points="519.5,-118 343.75,-118 343.75,-74 519.5,-74 519.5,-118"/>
<text text-anchor="start" x="351.75" y="-104.5" font-family="Helvetica,sans-Serif" font-size="10.00">Deluxe.DeluxeBrandCenter.</text>
<text text-anchor="start" x="351.75" y="-92.5" font-family="Helvetica,sans-Serif" font-size="10.00">AMM.API.Services.ClientDBService</text>
<text text-anchor="middle" x="431.62" y="-80.5" font-family="Helvetica,sans-Serif" font-size="10.00">&lt; TModel, TModelVM &gt;</text>
</a>
</g>
</g>
<!-- Node1&#45;&gt;Node2 -->
<g id="edge1_Node000001_Node000002" class="edge">
<title>Node1&#45;&gt;Node2</title>
<g id="a_edge1_Node000001_Node000002"><a xlink:title=" ">
<path fill="none" stroke="#63b8ff" d="M190.37,-96C238.92,-96 296.71,-96 343.44,-96"/>
<polygon fill="#63b8ff" stroke="#63b8ff" points="190.4,-92.5 180.4,-96 190.4,-99.5 190.4,-92.5"/>
</a>
</g>
</g>
<!-- Node7 -->
<g id="Node000007" class="node">
<title>Node7</title>
<g id="a_Node000007"><a xlink:href="../../d0/dcc/interface_deluxe_1_1_deluxe_brand_center_1_1_a_m_m_1_1_a_p_i_1_1_services_1_1_i_client_d_b_service.html" target="_top" xlink:title=" ">
<polygon fill="white" stroke="#666666" points="521,-198 342.25,-198 342.25,-142 521,-142 521,-198"/>
<text text-anchor="start" x="350.25" y="-184.5" font-family="Helvetica,sans-Serif" font-size="10.00">Deluxe.DeluxeBrandCenter.</text>
<text text-anchor="start" x="350.25" y="-172.5" font-family="Helvetica,sans-Serif" font-size="10.00">AMM.API.Services.IClientDBService</text>
<text text-anchor="start" x="350.25" y="-160.5" font-family="Helvetica,sans-Serif" font-size="10.00">&lt; Domain.DataModel.Client.Client,</text>
<text text-anchor="middle" x="431.62" y="-148.5" font-family="Helvetica,sans-Serif" font-size="10.00"> ClientVM &gt;</text>
</a>
</g>
</g>
<!-- Node1&#45;&gt;Node7 -->
<g id="edge6_Node000001_Node000007" class="edge">
<title>Node1&#45;&gt;Node7</title>
<g id="a_edge6_Node000001_Node000007"><a xlink:title=" ">
<path fill="none" stroke="orange" stroke-dasharray="5,2" d="M189.95,-117.66C238.08,-128.12 295.36,-140.58 341.97,-150.72"/>
<polygon fill="orange" stroke="orange" points="190.88,-114.28 180.36,-115.57 189.39,-121.12 190.88,-114.28"/>
</a>
</g>
<text text-anchor="start" x="196.75" y="-160.56" font-family="Helvetica,sans-Serif" font-size="10.00" fill="grey"> &lt; Domain.DataModel.Client.</text>
<text text-anchor="middle" x="260.5" y="-148.56" font-family="Helvetica,sans-Serif" font-size="10.00" fill="grey">Client, ClientVM &gt;</text>
</g>
<!-- Node9 -->
<g id="Node000009" class="node">
<title>Node9</title>
<g id="a_Node000009"><a xlink:href="../../d0/dcc/interface_deluxe_1_1_deluxe_brand_center_1_1_a_m_m_1_1_a_p_i_1_1_services_1_1_i_client_d_b_service.html" target="_top" xlink:title=" ">
<polygon fill="white" stroke="#666666" points="521,-44 342.25,-44 342.25,0 521,0 521,-44"/>
<text text-anchor="start" x="350.25" y="-30.5" font-family="Helvetica,sans-Serif" font-size="10.00">Deluxe.DeluxeBrandCenter.</text>
<text text-anchor="start" x="350.25" y="-18.5" font-family="Helvetica,sans-Serif" font-size="10.00">AMM.API.Services.IClientDBService</text>
<text text-anchor="middle" x="431.62" y="-6.5" font-family="Helvetica,sans-Serif" font-size="10.00">&lt; User, UserVM &gt;</text>
</a>
</g>
</g>
<!-- Node1&#45;&gt;Node9 -->
<g id="edge9_Node000001_Node000009" class="edge">
<title>Node1&#45;&gt;Node9</title>
<g id="a_edge9_Node000001_Node000009"><a xlink:title=" ">
<path fill="none" stroke="orange" stroke-dasharray="5,2" d="M189.95,-74.34C238.08,-63.88 295.36,-51.42 341.97,-41.28"/>
<polygon fill="orange" stroke="orange" points="189.39,-70.88 180.36,-76.43 190.88,-77.72 189.39,-70.88"/>
</a>
</g>
<text text-anchor="middle" x="260.5" y="-74.56" font-family="Helvetica,sans-Serif" font-size="10.00" fill="grey"> &lt; User, UserVM &gt;</text>
</g>
<!-- Node3 -->
<g id="Node000003" class="node">
<title>Node3</title>
<g id="a_Node000003"><a xlink:href="../../da/d9e/class_deluxe_1_1_deluxe_brand_center_1_1_a_m_m_1_1_a_p_i_1_1_services_1_1_client_d_b_service.html" target="_top" xlink:title=" ">
<polygon fill="white" stroke="#666666" points="860.25,-168 684.5,-168 684.5,-112 860.25,-112 860.25,-168"/>
<text text-anchor="start" x="692.5" y="-154.5" font-family="Helvetica,sans-Serif" font-size="10.00">Deluxe.DeluxeBrandCenter.</text>
<text text-anchor="start" x="692.5" y="-142.5" font-family="Helvetica,sans-Serif" font-size="10.00">AMM.API.Services.ClientDBService</text>
<text text-anchor="start" x="692.5" y="-130.5" font-family="Helvetica,sans-Serif" font-size="10.00">&lt; Domain.DataModel.Client.Client,</text>
<text text-anchor="middle" x="772.38" y="-118.5" font-family="Helvetica,sans-Serif" font-size="10.00"> ClientVM &gt;</text>
</a>
</g>
</g>
<!-- Node2&#45;&gt;Node3 -->
<g id="edge2_Node000002_Node000003" class="edge">
<title>Node2&#45;&gt;Node3</title>
<g id="a_edge2_Node000002_Node000003"><a xlink:title=" ">
<path fill="none" stroke="orange" stroke-dasharray="5,2" d="M531,-108.78C579.43,-115.07 637.31,-122.59 684.14,-128.67"/>
<polygon fill="orange" stroke="orange" points="531.73,-105.34 521.36,-107.53 530.83,-112.29 531.73,-105.34"/>
</a>
</g>
<text text-anchor="start" x="539" y="-140.27" font-family="Helvetica,sans-Serif" font-size="10.00" fill="grey"> &lt; Domain.DataModel.Client.</text>
<text text-anchor="middle" x="602.75" y="-128.27" font-family="Helvetica,sans-Serif" font-size="10.00" fill="grey">Client, ClientVM &gt;</text>
</g>
<!-- Node5 -->
<g id="Node000005" class="node">
<title>Node5</title>
<g id="a_Node000005"><a xlink:href="../../da/d9e/class_deluxe_1_1_deluxe_brand_center_1_1_a_m_m_1_1_a_p_i_1_1_services_1_1_client_d_b_service.html" target="_top" xlink:title=" ">
<polygon fill="white" stroke="#666666" points="860.25,-94 684.5,-94 684.5,-50 860.25,-50 860.25,-94"/>
<text text-anchor="start" x="692.5" y="-80.5" font-family="Helvetica,sans-Serif" font-size="10.00">Deluxe.DeluxeBrandCenter.</text>
<text text-anchor="start" x="692.5" y="-68.5" font-family="Helvetica,sans-Serif" font-size="10.00">AMM.API.Services.ClientDBService</text>
<text text-anchor="middle" x="772.38" y="-56.5" font-family="Helvetica,sans-Serif" font-size="10.00">&lt; User, UserVM &gt;</text>
</a>
</g>
</g>
<!-- Node2&#45;&gt;Node5 -->
<g id="edge4_Node000002_Node000005" class="edge">
<title>Node2&#45;&gt;Node5</title>
<g id="a_edge4_Node000002_Node000005"><a xlink:title=" ">
<path fill="none" stroke="orange" stroke-dasharray="5,2" d="M531.3,-89.01C579.67,-85.58 637.41,-81.49 684.14,-78.18"/>
<polygon fill="orange" stroke="orange" points="531.1,-85.51 521.37,-89.71 531.59,-92.5 531.1,-85.51"/>
</a>
</g>
<text text-anchor="middle" x="602.75" y="-90.74" font-family="Helvetica,sans-Serif" font-size="10.00" fill="grey"> &lt; User, UserVM &gt;</text>
</g>
<!-- Node4 -->
<g id="Node000004" class="node">
<title>Node4</title>
<g id="a_Node000004"><a xlink:href="../../dd/d67/class_deluxe_1_1_deluxe_brand_center_1_1_a_m_m_1_1_a_p_i_1_1_services_1_1_client_service.html" target="_top" xlink:title=" ">
<polygon fill="white" stroke="#666666" points="1058.75,-186 897.25,-186 897.25,-154 1058.75,-154 1058.75,-186"/>
<text text-anchor="start" x="905.25" y="-172.5" font-family="Helvetica,sans-Serif" font-size="10.00">Deluxe.DeluxeBrandCenter.</text>
<text text-anchor="middle" x="978" y="-160.5" font-family="Helvetica,sans-Serif" font-size="10.00">AMM.API.Services.ClientService</text>
</a>
</g>
</g>
<!-- Node3&#45;&gt;Node4 -->
<g id="edge3_Node000003_Node000004" class="edge">
<title>Node3&#45;&gt;Node4</title>
<g id="a_edge3_Node000003_Node000004"><a xlink:title=" ">
<path fill="none" stroke="#63b8ff" d="M871.73,-154.49C880.2,-155.74 888.72,-156.99 897.02,-158.22"/>
<polygon fill="#63b8ff" stroke="#63b8ff" points="872.52,-151.07 862.11,-153.07 871.5,-157.99 872.52,-151.07"/>
</a>
</g>
</g>
<!-- Node6 -->
<g id="Node000006" class="node">
<title>Node6</title>
<g id="a_Node000006"><a xlink:href="../../d3/df8/class_deluxe_1_1_deluxe_brand_center_1_1_a_m_m_1_1_a_p_i_1_1_services_1_1_user_service.html" target="_top" xlink:title=" ">
<polygon fill="white" stroke="#666666" points="1056.5,-61 899.5,-61 899.5,-29 1056.5,-29 1056.5,-61"/>
<text text-anchor="start" x="907.5" y="-47.5" font-family="Helvetica,sans-Serif" font-size="10.00">Deluxe.DeluxeBrandCenter.</text>
<text text-anchor="middle" x="978" y="-35.5" font-family="Helvetica,sans-Serif" font-size="10.00">AMM.API.Services.UserService</text>
</a>
</g>
</g>
<!-- Node5&#45;&gt;Node6 -->
<g id="edge5_Node000005_Node000006" class="edge">
<title>Node5&#45;&gt;Node6</title>
<g id="a_edge5_Node000005_Node000006"><a xlink:title=" ">
<path fill="none" stroke="#63b8ff" d="M871.81,-58.95C881.03,-57.73 890.28,-56.5 899.26,-55.31"/>
<polygon fill="#63b8ff" stroke="#63b8ff" points="871.57,-55.45 862.12,-60.23 872.49,-62.39 871.57,-55.45"/>
</a>
</g>
</g>
<!-- Node8 -->
<g id="Node000008" class="node">
<title>Node8</title>
<g id="a_Node000008"><a xlink:href="../../d0/d36/interface_deluxe_1_1_deluxe_brand_center_1_1_a_m_m_1_1_a_p_i_1_1_services_1_1_i_client_service.html" target="_top" xlink:title=" ">
<polygon fill="white" stroke="#666666" points="854.62,-218 690.12,-218 690.12,-186 854.62,-186 854.62,-218"/>
<text text-anchor="start" x="698.12" y="-204.5" font-family="Helvetica,sans-Serif" font-size="10.00">Deluxe.DeluxeBrandCenter.</text>
<text text-anchor="middle" x="772.38" y="-192.5" font-family="Helvetica,sans-Serif" font-size="10.00">AMM.API.Services.IClientService</text>
</a>
</g>
</g>
<!-- Node7&#45;&gt;Node8 -->
<g id="edge7_Node000007_Node000008" class="edge">
<title>Node7&#45;&gt;Node8</title>
<g id="a_edge7_Node000007_Node000008"><a xlink:title=" ">
<path fill="none" stroke="#63b8ff" d="M532.37,-179.42C582.47,-184.15 642.4,-189.82 689.72,-194.29"/>
<polygon fill="#63b8ff" stroke="#63b8ff" points="532.98,-175.96 522.69,-178.51 532.32,-182.93 532.98,-175.96"/>
</a>
</g>
</g>
<!-- Node8&#45;&gt;Node4 -->
<g id="edge8_Node000008_Node000004" class="edge">
<title>Node8&#45;&gt;Node4</title>
<g id="a_edge8_Node000008_Node000004"><a xlink:title=" ">
<path fill="none" stroke="#63b8ff" d="M866.13,-187.42C876.44,-185.8 886.86,-184.16 896.99,-182.57"/>
<polygon fill="#63b8ff" stroke="#63b8ff" points="865.85,-183.92 856.52,-188.93 866.94,-190.84 865.85,-183.92"/>
</a>
</g>
</g>
<!-- Node10 -->
<g id="Node000010" class="node">
<title>Node10</title>
<g id="a_Node000010"><a xlink:href="../../d7/d38/interface_deluxe_1_1_deluxe_brand_center_1_1_a_m_m_1_1_a_p_i_1_1_services_1_1_i_user_service.html" target="_top" xlink:title=" ">
<polygon fill="white" stroke="#666666" points="852.38,-32 692.38,-32 692.38,0 852.38,0 852.38,-32"/>
<text text-anchor="start" x="700.38" y="-18.5" font-family="Helvetica,sans-Serif" font-size="10.00">Deluxe.DeluxeBrandCenter.</text>
<text text-anchor="middle" x="772.38" y="-6.5" font-family="Helvetica,sans-Serif" font-size="10.00">AMM.API.Services.IUserService</text>
</a>
</g>
</g>
<!-- Node9&#45;&gt;Node10 -->
<g id="edge10_Node000009_Node000010" class="edge">
<title>Node9&#45;&gt;Node10</title>
<g id="a_edge10_Node000009_Node000010"><a xlink:title=" ">
<path fill="none" stroke="#63b8ff" d="M532.54,-20.23C583.41,-19.33 644.4,-18.25 692,-17.41"/>
<polygon fill="#63b8ff" stroke="#63b8ff" points="532.63,-16.73 522.7,-20.4 532.76,-23.73 532.63,-16.73"/>
</a>
</g>
</g>
<!-- Node10&#45;&gt;Node6 -->
<g id="edge11_Node000010_Node000006" class="edge">
<title>Node10&#45;&gt;Node6</title>
<g id="a_edge11_Node000010_Node000006"><a xlink:title=" ">
<path fill="none" stroke="#63b8ff" d="M863.9,-28.89C875.69,-30.57 887.69,-32.28 899.24,-33.93"/>
<polygon fill="#63b8ff" stroke="#63b8ff" points="864.58,-25.45 854.18,-27.51 863.59,-32.38 864.58,-25.45"/>
</a>
</g>
</g>
</g>
</svg>
