<?xml version="1.0" encoding="UTF-8" standalone="no"?>
<!DOCTYPE svg PUBLIC "-//W3C//DTD SVG 1.1//EN"
 "http://www.w3.org/Graphics/SVG/1.1/DTD/svg11.dtd">
<!-- Generated by graphviz version 12.1.1 (20240910.0053)
 -->
<!-- Title: Deluxe.DeluxeBrandCenter.AMM.Infrastructure.Mindfire.ReportServiceMF Pages: 1 -->
<svg width="228pt" height="164pt"
 viewBox="0.00 0.00 227.75 164.00" xmlns="http://www.w3.org/2000/svg" xmlns:xlink="http://www.w3.org/1999/xlink">
<g id="graph0" class="graph" transform="scale(1 1) rotate(0) translate(4 160)">
<title>Deluxe.DeluxeBrandCenter.AMM.Infrastructure.Mindfire.ReportServiceMF</title>
<!-- Node1 -->
<g id="Node000001" class="node">
<title>Node1</title>
<g id="a_Node000001"><a xlink:title=" ">
<polygon fill="#999999" stroke="#666666" points="196.88,-44 27.12,-44 27.12,0 196.88,0 196.88,-44"/>
<text text-anchor="start" x="35.12" y="-30.5" font-family="Helvetica,sans-Serif" font-size="10.00">Deluxe.DeluxeBrandCenter.</text>
<text text-anchor="start" x="35.12" y="-18.5" font-family="Helvetica,sans-Serif" font-size="10.00">AMM.Infrastructure.Mindfire.Report</text>
<text text-anchor="middle" x="112" y="-6.5" font-family="Helvetica,sans-Serif" font-size="10.00">ServiceMF</text>
</a>
</g>
</g>
<!-- Node2 -->
<g id="Node000002" class="node">
<title>Node2</title>
<g id="a_Node000002"><a xlink:href="../../d7/d00/class_deluxe_1_1_deluxe_brand_center_1_1_a_m_m_1_1_infrastructure_1_1_mindfire_1_1_base_mindfire_service.html" target="_top" xlink:title=" ">
<polygon fill="white" stroke="#666666" points="106,-100 0,-100 0,-80 106,-80 106,-100"/>
<text text-anchor="middle" x="53" y="-86.5" font-family="Helvetica,sans-Serif" font-size="10.00">BaseMindfireService</text>
</a>
</g>
</g>
<!-- Node2&#45;&gt;Node1 -->
<g id="edge1_Node000001_Node000002" class="edge">
<title>Node2&#45;&gt;Node1</title>
<g id="a_edge1_Node000001_Node000002"><a xlink:title=" ">
<path fill="none" stroke="#63b8ff" d="M69.02,-71.08C76.37,-62.86 85.14,-53.04 92.84,-44.43"/>
<polygon fill="#63b8ff" stroke="#63b8ff" points="66.52,-68.63 62.46,-78.42 71.74,-73.29 66.52,-68.63"/>
</a>
</g>
</g>
<!-- Node3 -->
<g id="Node000003" class="node">
<title>Node3</title>
<g id="a_Node000003"><a xlink:href="../../de/d4f/interface_deluxe_1_1_deluxe_brand_center_1_1_a_m_m_1_1_infrastructure_1_1_mindfire_1_1_i_base_mindfire_service.html" target="_top" xlink:title=" ">
<polygon fill="white" stroke="#666666" points="166.5,-156 57.5,-156 57.5,-136 166.5,-136 166.5,-156"/>
<text text-anchor="middle" x="112" y="-142.5" font-family="Helvetica,sans-Serif" font-size="10.00">IBaseMindfireService</text>
</a>
</g>
</g>
<!-- Node3&#45;&gt;Node2 -->
<g id="edge2_Node000002_Node000003" class="edge">
<title>Node3&#45;&gt;Node2</title>
<g id="a_edge2_Node000002_Node000003"><a xlink:title=" ">
<path fill="none" stroke="#63b8ff" d="M93.26,-127.85C83.29,-118.72 71.42,-107.86 63.16,-100.3"/>
<polygon fill="#63b8ff" stroke="#63b8ff" points="90.87,-130.4 100.61,-134.57 95.59,-125.24 90.87,-130.4"/>
</a>
</g>
</g>
<!-- Node4 -->
<g id="Node000004" class="node">
<title>Node4</title>
<g id="a_Node000004"><a xlink:href="../../da/d26/interface_deluxe_1_1_deluxe_brand_center_1_1_a_m_m_1_1_infrastructure_1_1_mindfire_1_1_i_report_service_m_f.html" target="_top" xlink:title=" ">
<polygon fill="white" stroke="#666666" points="219.75,-100 124.25,-100 124.25,-80 219.75,-80 219.75,-100"/>
<text text-anchor="middle" x="172" y="-86.5" font-family="Helvetica,sans-Serif" font-size="10.00">IReportServiceMF</text>
</a>
</g>
</g>
<!-- Node3&#45;&gt;Node4 -->
<g id="edge4_Node000004_Node000003" class="edge">
<title>Node3&#45;&gt;Node4</title>
<g id="a_edge4_Node000004_Node000003"><a xlink:title=" ">
<path fill="none" stroke="#63b8ff" d="M130.75,-128.13C140.95,-118.94 153.19,-107.93 161.67,-100.3"/>
<polygon fill="#63b8ff" stroke="#63b8ff" points="128.67,-125.29 123.58,-134.58 133.35,-130.49 128.67,-125.29"/>
</a>
</g>
</g>
<!-- Node4&#45;&gt;Node1 -->
<g id="edge3_Node000001_Node000004" class="edge">
<title>Node4&#45;&gt;Node1</title>
<g id="a_edge3_Node000001_Node000004"><a xlink:title=" ">
<path fill="none" stroke="#63b8ff" d="M155.71,-71.08C148.24,-62.86 139.31,-53.04 131.48,-44.43"/>
<polygon fill="#63b8ff" stroke="#63b8ff" points="153.07,-73.38 162.39,-78.42 158.25,-68.67 153.07,-73.38"/>
</a>
</g>
</g>
</g>
</svg>
