<?xml version="1.0" encoding="UTF-8" standalone="no"?>
<!DOCTYPE svg PUBLIC "-//W3C//DTD SVG 1.1//EN"
 "http://www.w3.org/Graphics/SVG/1.1/DTD/svg11.dtd">
<!-- Generated by graphviz version 12.1.1 (20240910.0053)
 -->
<!-- Title: Deluxe.DeluxeBrandCenter.AMM.API.Services.Session.DatabaseSession Pages: 1 -->
<svg width="808pt" height="178pt"
 viewBox="0.00 0.00 807.50 178.00" xmlns="http://www.w3.org/2000/svg" xmlns:xlink="http://www.w3.org/1999/xlink">
<g id="graph0" class="graph" transform="scale(1 1) rotate(0) translate(4 174)">
<title>Deluxe.DeluxeBrandCenter.AMM.API.Services.Session.DatabaseSession</title>
<!-- Node1 -->
<g id="Node000001" class="node">
<title>Node1</title>
<g id="a_Node000001"><a xlink:title=" ">
<polygon fill="#999999" stroke="#666666" points="799.5,-138 616.25,-138 616.25,-94 799.5,-94 799.5,-138"/>
<text text-anchor="start" x="624.25" y="-124.5" font-family="Helvetica,sans-Serif" font-size="10.00">Deluxe.DeluxeBrandCenter.</text>
<text text-anchor="start" x="624.25" y="-112.5" font-family="Helvetica,sans-Serif" font-size="10.00">AMM.API.Services.Session.Database</text>
<text text-anchor="middle" x="707.88" y="-100.5" font-family="Helvetica,sans-Serif" font-size="10.00">Session</text>
</a>
</g>
</g>
<!-- Node2 -->
<g id="Node000002" class="node">
<title>Node2</title>
<g id="a_Node000002"><a xlink:title=" ">
<polygon fill="white" stroke="#666666" points="458.75,-170 404.5,-170 404.5,-150 458.75,-150 458.75,-170"/>
<text text-anchor="middle" x="431.62" y="-156.5" font-family="Helvetica,sans-Serif" font-size="10.00">ISession</text>
</a>
</g>
</g>
<!-- Node2&#45;&gt;Node1 -->
<g id="edge1_Node000001_Node000002" class="edge">
<title>Node2&#45;&gt;Node1</title>
<g id="a_edge1_Node000001_Node000002"><a xlink:title=" ">
<path fill="none" stroke="#63b8ff" d="M470.25,-153.96C507.58,-147.97 566.22,-138.57 615.78,-130.61"/>
<polygon fill="#63b8ff" stroke="#63b8ff" points="469.73,-150.5 460.42,-155.54 470.84,-157.41 469.73,-150.5"/>
</a>
</g>
</g>
<!-- Node3 -->
<g id="Node000003" class="node">
<title>Node3</title>
<g id="a_Node000003"><a xlink:href="../../d8/dfe/class_deluxe_1_1_deluxe_brand_center_1_1_a_m_m_1_1_domain_1_1_data_model_1_1_session.html" target="_top" xlink:title=" ">
<polygon fill="white" stroke="#666666" points="513.88,-132 349.38,-132 349.38,-100 513.88,-100 513.88,-132"/>
<text text-anchor="start" x="357.38" y="-118.5" font-family="Helvetica,sans-Serif" font-size="10.00">Deluxe.DeluxeBrandCenter.</text>
<text text-anchor="middle" x="431.62" y="-106.5" font-family="Helvetica,sans-Serif" font-size="10.00">AMM.Domain.DataModel.Session</text>
</a>
</g>
</g>
<!-- Node3&#45;&gt;Node1 -->
<g id="edge2_Node000001_Node000003" class="edge">
<title>Node3&#45;&gt;Node1</title>
<g id="a_edge2_Node000001_Node000003"><a xlink:title=" ">
<path fill="none" stroke="#9a32cd" stroke-dasharray="5,2" d="M525.62,-116C554.82,-116 587,-116 616.05,-116"/>
<polygon fill="#9a32cd" stroke="#9a32cd" points="525.68,-112.5 515.68,-116 525.68,-119.5 525.68,-112.5"/>
</a>
</g>
<text text-anchor="middle" x="574.25" y="-118.5" font-family="Helvetica,sans-Serif" font-size="10.00" fill="grey"> session</text>
</g>
<!-- Node4 -->
<g id="Node000004" class="node">
<title>Node4</title>
<g id="a_Node000004"><a xlink:href="../../d6/db1/class_deluxe_1_1_deluxe_brand_center_1_1_a_m_m_1_1_infrastructure_1_1_databases_1_1_application_db_context.html" target="_top" xlink:title=" ">
<polygon fill="white" stroke="#666666" points="532.25,-82 331,-82 331,-38 532.25,-38 532.25,-82"/>
<text text-anchor="start" x="339" y="-68.5" font-family="Helvetica,sans-Serif" font-size="10.00">Deluxe.DeluxeBrandCenter.</text>
<text text-anchor="start" x="339" y="-56.5" font-family="Helvetica,sans-Serif" font-size="10.00">AMM.Infrastructure.Databases.Application</text>
<text text-anchor="middle" x="431.62" y="-44.5" font-family="Helvetica,sans-Serif" font-size="10.00">DbContext</text>
</a>
</g>
</g>
<!-- Node4&#45;&gt;Node1 -->
<g id="edge3_Node000001_Node000004" class="edge">
<title>Node4&#45;&gt;Node1</title>
<g id="a_edge3_Node000001_Node000004"><a xlink:title=" ">
<path fill="none" stroke="#9a32cd" stroke-dasharray="5,2" d="M543.37,-82.61C567.43,-87.53 592.62,-92.67 615.81,-97.41"/>
<polygon fill="#9a32cd" stroke="#9a32cd" points="544.39,-79.25 533.89,-80.68 542.99,-86.11 544.39,-79.25"/>
</a>
</g>
<text text-anchor="middle" x="574.25" y="-95.52" font-family="Helvetica,sans-Serif" font-size="10.00" fill="grey"> dbContext</text>
</g>
<!-- Node5 -->
<g id="Node000005" class="node">
<title>Node5</title>
<g id="a_Node000005"><a xlink:title=" ">
<polygon fill="white" stroke="#666666" points="220,-168 0,-168 0,-88 220,-88 220,-168"/>
<text text-anchor="start" x="8" y="-154.5" font-family="Helvetica,sans-Serif" font-size="10.00">IdentityDbContext&lt;</text>
<text text-anchor="start" x="8" y="-142.5" font-family="Helvetica,sans-Serif" font-size="10.00"> ApplicationUser, Application</text>
<text text-anchor="start" x="8" y="-130.5" font-family="Helvetica,sans-Serif" font-size="10.00">Role, string, IdentityUserClaim</text>
<text text-anchor="start" x="8" y="-118.5" font-family="Helvetica,sans-Serif" font-size="10.00">&lt; string &gt;, ApplicationUserRole,</text>
<text text-anchor="start" x="8" y="-106.5" font-family="Helvetica,sans-Serif" font-size="10.00"> IdentityUserLogin&lt; string &gt;, IdentityRole</text>
<text text-anchor="middle" x="110" y="-94.5" font-family="Helvetica,sans-Serif" font-size="10.00">Claim&lt; string &gt;, IdentityUserToken&lt; string &gt; &gt;</text>
</a>
</g>
</g>
<!-- Node5&#45;&gt;Node4 -->
<g id="edge4_Node000004_Node000005" class="edge">
<title>Node5&#45;&gt;Node4</title>
<g id="a_edge4_Node000004_Node000005"><a xlink:title=" ">
<path fill="none" stroke="#63b8ff" d="M231.12,-102.44C263.91,-95.47 299.07,-87.99 330.61,-81.28"/>
<polygon fill="#63b8ff" stroke="#63b8ff" points="230.64,-98.97 221.58,-104.47 232.09,-105.82 230.64,-98.97"/>
</a>
</g>
</g>
<!-- Node6 -->
<g id="Node000006" class="node">
<title>Node6</title>
<g id="a_Node000006"><a xlink:href="../../d3/d96/interface_deluxe_1_1_deluxe_brand_center_1_1_a_m_m_1_1_infrastructure_1_1_databases_1_1_i_application_db_context.html" target="_top" xlink:title=" ">
<polygon fill="white" stroke="#666666" points="167.12,-70 52.87,-70 52.87,-50 167.12,-50 167.12,-70"/>
<text text-anchor="middle" x="110" y="-56.5" font-family="Helvetica,sans-Serif" font-size="10.00">IApplicationDbContext</text>
</a>
</g>
</g>
<!-- Node6&#45;&gt;Node4 -->
<g id="edge5_Node000004_Node000006" class="edge">
<title>Node6&#45;&gt;Node4</title>
<g id="a_edge5_Node000004_Node000006"><a xlink:title=" ">
<path fill="none" stroke="#63b8ff" d="M178.87,-60C222.96,-60 281.19,-60 330.55,-60"/>
<polygon fill="#63b8ff" stroke="#63b8ff" points="178.92,-56.5 168.92,-60 178.92,-63.5 178.92,-56.5"/>
</a>
</g>
</g>
<!-- Node7 -->
<g id="Node000007" class="node">
<title>Node7</title>
<g id="a_Node000007"><a xlink:href="../../dd/d7d/interface_deluxe_1_1_deluxe_brand_center_1_1_a_m_m_1_1_domain_1_1_services_1_1_i_session_service.html" target="_top" xlink:title=" ">
<polygon fill="white" stroke="#666666" points="205.75,-32 14.25,-32 14.25,0 205.75,0 205.75,-32"/>
<text text-anchor="start" x="22.25" y="-18.5" font-family="Helvetica,sans-Serif" font-size="10.00">Deluxe.DeluxeBrandCenter.</text>
<text text-anchor="middle" x="110" y="-6.5" font-family="Helvetica,sans-Serif" font-size="10.00">AMM.Domain.Services.ISessionService</text>
</a>
</g>
</g>
<!-- Node7&#45;&gt;Node4 -->
<g id="edge6_Node000004_Node000007" class="edge">
<title>Node7&#45;&gt;Node4</title>
<g id="a_edge6_Node000004_Node000007"><a xlink:title=" ">
<path fill="none" stroke="#9a32cd" stroke-dasharray="5,2" d="M217.24,-30.62C253.81,-35.66 294.63,-41.28 330.68,-46.24"/>
<polygon fill="#9a32cd" stroke="#9a32cd" points="217.92,-27.19 207.53,-29.29 216.96,-34.12 217.92,-27.19"/>
</a>
</g>
<text text-anchor="middle" x="275.5" y="-45.73" font-family="Helvetica,sans-Serif" font-size="10.00" fill="grey"> _sessionService</text>
</g>
</g>
</svg>
