<?xml version="1.0" encoding="UTF-8" standalone="no"?>
<!DOCTYPE svg PUBLIC "-//W3C//DTD SVG 1.1//EN"
 "http://www.w3.org/Graphics/SVG/1.1/DTD/svg11.dtd">
<!-- Generated by graphviz version 12.1.1 (20240910.0053)
 -->
<!-- Title: Deluxe.DeluxeBrandCenter.AMM.API.Services.CampaignService Pages: 1 -->
<!--zoomable 214 -->

<svg id="main" version="1.1" xmlns="http://www.w3.org/2000/svg" xmlns:xlink="http://www.w3.org/1999/xlink" xml:space="preserve" onload="init(evt)">

<style type="text/css"><![CDATA[
.node, .edge {opacity: 0.7;}
.node.selected, .edge.selected {opacity: 1;}
.edge:hover path { stroke: red; }
.edge:hover polygon { stroke: red; fill: red; }
]]></style>

<defs>
  <circle id="rim" cx="0" cy="0" r="7"/>
  <circle id="rim2" cx="0" cy="0" r="3.5"/>
  <g id="zoomPlus">
    <use xlink:href="#rim" fill="#404040"><set attributeName="fill" to="#808080" begin="zoomplus.mouseover" end="zoomplus.mouseout"/></use>
    <path d="M-4,0h8M0,-4v8" fill="none" stroke="white" stroke-width="1.5" pointer-events="none"/>
  </g>
  <g id="zoomMin">
    <use xlink:href="#rim" fill="#404040"><set attributeName="fill" to="#808080" begin="zoomminus.mouseover" end="zoomminus.mouseout"/></use>
    <path d="M-4,0h8" fill="none" stroke="white" stroke-width="1.5" pointer-events="none"/>
  </g>
  <g id="arrowUp" transform="translate(30 24)">
    <use xlink:href="#rim"/>
    <path pointer-events="none" fill="none" stroke="white" stroke-width="1.5" d="M0,-3.0v7 M-2.5,-0.5L0,-3.0L2.5,-0.5"/>
  </g>
  <g id="arrowRight" transform="rotate(90) translate(36 -43)">
    <use xlink:href="#rim"/>
    <path pointer-events="none" fill="none" stroke="white" stroke-width="1.5" d="M0,-3.0v7 M-2.5,-0.5L0,-3.0L2.5,-0.5"/>
  </g>
  <g id="arrowDown" transform="rotate(180) translate(-30 -48)">
    <use xlink:href="#rim"/>
    <path pointer-events="none" fill="none" stroke="white" stroke-width="1.5" d="M0,-3.0v7 M-2.5,-0.5L0,-3.0L2.5,-0.5"/>
  </g>
  <g id="arrowLeft" transform="rotate(270) translate(-36 17)">
    <use xlink:href="#rim"/>
    <path pointer-events="none" fill="none" stroke="white" stroke-width="1.5" d="M0,-3.0v7 M-2.5,-0.5L0,-3.0L2.5,-0.5"/>
  </g>
  <g id="resetDef">
    <use xlink:href="#rim2" fill="#404040"><set attributeName="fill" to="#808080" begin="reset.mouseover" end="reset.mouseout"/></use>
  </g>
</defs>
<script type="application/ecmascript">
var viewWidth = 1402;
var viewHeight = 214;
var sectionId = 'dynsection-1';
</script>
<script type="application/ecmascript" xlink:href="../../svg.min.js"/>
<svg id="graph" class="graph">
<g id="viewport">
<title>Deluxe.DeluxeBrandCenter.AMM.API.Services.CampaignService</title>
<!-- Node1 -->
<g id="Node000001" class="node">
<title>Node1</title>
<g id="a_Node000001"><a xlink:title=" ">
<polygon fill="#999999" stroke="#666666" points="1394.25,-68 1214,-68 1214,-36 1394.25,-36 1394.25,-68"/>
<text text-anchor="start" x="1222" y="-54.5" font-family="Helvetica,sans-Serif" font-size="10.00">Deluxe.DeluxeBrandCenter.</text>
<text text-anchor="middle" x="1304.12" y="-42.5" font-family="Helvetica,sans-Serif" font-size="10.00">AMM.API.Services.CampaignService</text>
</a>
</g>
</g>
<!-- Node2 -->
<g id="Node000002" class="node">
<title>Node2</title>
<g id="a_Node000002"><a xlink:href="../../dd/dd8/class_deluxe_1_1_deluxe_brand_center_1_1_a_m_m_1_1_a_p_i_1_1_services_1_1_named_db_service.html" target="_top" xlink:title=" ">
<polygon fill="white" stroke="#666666" points="1177,-92 1027.5,-92 1027.5,-60 1177,-60 1177,-92"/>
<text text-anchor="start" x="1035.5" y="-78.5" font-family="Helvetica,sans-Serif" font-size="10.00">NamedDbService&lt; Campaign,</text>
<text text-anchor="middle" x="1102.25" y="-66.5" font-family="Helvetica,sans-Serif" font-size="10.00"> CampaignVM &gt;</text>
</a>
</g>
</g>
<!-- Node2&#45;&gt;Node1 -->
<g id="edge1_Node000001_Node000002" class="edge">
<title>Node2&#45;&gt;Node1</title>
<g id="a_edge1_Node000001_Node000002"><a xlink:title=" ">
<path fill="none" stroke="#63b8ff" d="M1188.56,-65.76C1196.83,-64.76 1205.23,-63.75 1213.54,-62.76"/>
<polygon fill="#63b8ff" stroke="#63b8ff" points="1188.41,-62.25 1178.89,-66.92 1189.24,-69.2 1188.41,-62.25"/>
</a>
</g>
</g>
<!-- Node3 -->
<g id="Node000003" class="node">
<title>Node3</title>
<g id="a_Node000003"><a xlink:href="../../dd/dd8/class_deluxe_1_1_deluxe_brand_center_1_1_a_m_m_1_1_a_p_i_1_1_services_1_1_named_db_service.html" target="_top" xlink:title=" ">
<polygon fill="white" stroke="#666666" points="861,-100 680.75,-100 680.75,-56 861,-56 861,-100"/>
<text text-anchor="start" x="688.75" y="-86.5" font-family="Helvetica,sans-Serif" font-size="10.00">Deluxe.DeluxeBrandCenter.</text>
<text text-anchor="start" x="688.75" y="-74.5" font-family="Helvetica,sans-Serif" font-size="10.00">AMM.API.Services.NamedDbService</text>
<text text-anchor="middle" x="770.88" y="-62.5" font-family="Helvetica,sans-Serif" font-size="10.00">&lt; TModel, TModelVM &gt;</text>
</a>
</g>
</g>
<!-- Node3&#45;&gt;Node2 -->
<g id="edge2_Node000002_Node000003" class="edge">
<title>Node3&#45;&gt;Node2</title>
<g id="a_edge2_Node000002_Node000003"><a xlink:title=" ">
<path fill="none" stroke="orange" stroke-dasharray="5,2" d="M872.91,-77.39C922.72,-77.08 981.72,-76.73 1027.27,-76.45"/>
<polygon fill="orange" stroke="orange" points="872.94,-73.89 862.96,-77.45 872.98,-80.89 872.94,-73.89"/>
</a>
</g>
<text text-anchor="middle" x="944.25" y="-79.8" font-family="Helvetica,sans-Serif" font-size="10.00" fill="grey"> &lt; Campaign, CampaignVM &gt;</text>
</g>
<!-- Node4 -->
<g id="Node000004" class="node">
<title>Node4</title>
<g id="a_Node000004"><a xlink:href="../../d6/d4e/class_deluxe_1_1_deluxe_brand_center_1_1_a_m_m_1_1_a_p_i_1_1_services_1_1_d_b_service.html" target="_top" xlink:title=" ">
<polygon fill="white" stroke="#666666" points="476,-144 369.25,-144 369.25,-112 476,-112 476,-144"/>
<text text-anchor="start" x="377.25" y="-130.5" font-family="Helvetica,sans-Serif" font-size="10.00">DBService&lt; TModel,</text>
<text text-anchor="middle" x="422.62" y="-118.5" font-family="Helvetica,sans-Serif" font-size="10.00"> TModelVM &gt;</text>
</a>
</g>
</g>
<!-- Node4&#45;&gt;Node3 -->
<g id="edge3_Node000003_Node000004" class="edge">
<title>Node4&#45;&gt;Node3</title>
<g id="a_edge3_Node000003_Node000004"><a xlink:title=" ">
<path fill="none" stroke="#63b8ff" d="M487.39,-118.79C541.56,-110.97 619.91,-99.66 680.36,-90.93"/>
<polygon fill="#63b8ff" stroke="#63b8ff" points="487.11,-115.3 477.71,-120.19 488.11,-122.22 487.11,-115.3"/>
</a>
</g>
</g>
<!-- Node5 -->
<g id="Node000005" class="node">
<title>Node5</title>
<g id="a_Node000005"><a xlink:href="../../d3/ddb/interface_deluxe_1_1_deluxe_brand_center_1_1_a_m_m_1_1_a_p_i_1_1_services_1_1_i_d_b_service.html" target="_top" xlink:title=" ">
<polygon fill="white" stroke="#666666" points="150.62,-86 40.88,-86 40.88,-54 150.62,-54 150.62,-86"/>
<text text-anchor="start" x="48.88" y="-72.5" font-family="Helvetica,sans-Serif" font-size="10.00">IDBService&lt; TModel,</text>
<text text-anchor="middle" x="95.75" y="-60.5" font-family="Helvetica,sans-Serif" font-size="10.00"> TModelVM &gt;</text>
</a>
</g>
</g>
<!-- Node5&#45;&gt;Node4 -->
<g id="edge4_Node000004_Node000005" class="edge">
<title>Node5&#45;&gt;Node4</title>
<g id="a_edge4_Node000004_Node000005"><a xlink:title=" ">
<path fill="none" stroke="#63b8ff" d="M161.77,-81.61C222.59,-92.47 312.32,-108.49 368.83,-118.58"/>
<polygon fill="#63b8ff" stroke="#63b8ff" points="162.71,-78.22 152.25,-79.91 161.48,-85.11 162.71,-78.22"/>
</a>
</g>
</g>
<!-- Node8 -->
<g id="Node000008" class="node">
<title>Node8</title>
<g id="a_Node000008"><a xlink:href="../../d3/dac/interface_deluxe_1_1_deluxe_brand_center_1_1_a_m_m_1_1_a_p_i_1_1_services_1_1_i_named_db_service.html" target="_top" xlink:title=" ">
<polygon fill="white" stroke="#666666" points="492.5,-94 352.75,-94 352.75,-62 492.5,-62 492.5,-94"/>
<text text-anchor="start" x="360.75" y="-80.5" font-family="Helvetica,sans-Serif" font-size="10.00">INamedDbService&lt; TModel,</text>
<text text-anchor="middle" x="422.62" y="-68.5" font-family="Helvetica,sans-Serif" font-size="10.00"> TModelVM &gt;</text>
</a>
</g>
</g>
<!-- Node5&#45;&gt;Node8 -->
<g id="edge8_Node000008_Node000005" class="edge">
<title>Node5&#45;&gt;Node8</title>
<g id="a_edge8_Node000008_Node000005"><a xlink:title=" ">
<path fill="none" stroke="#63b8ff" d="M162.17,-71.61C217.39,-72.97 296.22,-74.91 352.47,-76.3"/>
<polygon fill="#63b8ff" stroke="#63b8ff" points="162.36,-68.11 152.27,-71.37 162.19,-75.11 162.36,-68.11"/>
</a>
</g>
</g>
<!-- Node11 -->
<g id="Node000011" class="node">
<title>Node11</title>
<g id="a_Node000011"><a xlink:href="../../d3/dac/interface_deluxe_1_1_deluxe_brand_center_1_1_a_m_m_1_1_a_p_i_1_1_services_1_1_i_named_db_service.html" target="_top" xlink:title=" ">
<polygon fill="white" stroke="#666666" points="514.25,-44 331,-44 331,0 514.25,0 514.25,-44"/>
<text text-anchor="start" x="339" y="-30.5" font-family="Helvetica,sans-Serif" font-size="10.00">Deluxe.DeluxeBrandCenter.</text>
<text text-anchor="start" x="339" y="-18.5" font-family="Helvetica,sans-Serif" font-size="10.00">AMM.API.Services.INamedDbService</text>
<text text-anchor="middle" x="422.62" y="-6.5" font-family="Helvetica,sans-Serif" font-size="10.00">&lt; TModel, TModelVM &gt;</text>
</a>
</g>
</g>
<!-- Node5&#45;&gt;Node11 -->
<g id="edge12_Node000011_Node000005" class="edge">
<title>Node5&#45;&gt;Node11</title>
<g id="a_edge12_Node000011_Node000005"><a xlink:title=" ">
<path fill="none" stroke="#63b8ff" d="M162.03,-60.35C210.41,-53.21 276.97,-43.37 330.58,-35.45"/>
<polygon fill="#63b8ff" stroke="#63b8ff" points="161.64,-56.87 152.26,-61.8 162.66,-63.8 161.64,-56.87"/>
</a>
</g>
</g>
<!-- Node6 -->
<g id="Node000006" class="node">
<title>Node6</title>
<g id="a_Node000006"><a xlink:href="../../da/d0c/interface_deluxe_1_1_deluxe_brand_center_1_1_a_m_m_1_1_infrastructure_1_1_social_1_1_i_social_network_service.html" target="_top" xlink:title=" ">
<polygon fill="white" stroke="#666666" points="177.25,-206 14.25,-206 14.25,-162 177.25,-162 177.25,-206"/>
<text text-anchor="start" x="22.25" y="-192.5" font-family="Helvetica,sans-Serif" font-size="10.00">Deluxe.DeluxeBrandCenter.</text>
<text text-anchor="start" x="22.25" y="-180.5" font-family="Helvetica,sans-Serif" font-size="10.00">AMM.Infrastructure.Social.ISocial</text>
<text text-anchor="middle" x="95.75" y="-168.5" font-family="Helvetica,sans-Serif" font-size="10.00">NetworkService</text>
</a>
</g>
</g>
<!-- Node6&#45;&gt;Node4 -->
<g id="edge5_Node000004_Node000006" class="edge">
<title>Node6&#45;&gt;Node4</title>
<g id="a_edge5_Node000004_Node000006"><a xlink:title=" ">
<path fill="none" stroke="#9a32cd" stroke-dasharray="5,2" d="M188.54,-168.18C246.78,-158.14 320.08,-145.5 368.77,-137.11"/>
<polygon fill="#9a32cd" stroke="#9a32cd" points="188.23,-164.68 178.97,-169.83 189.41,-171.58 188.23,-164.68"/>
</a>
</g>
<text text-anchor="middle" x="261.25" y="-166.79" font-family="Helvetica,sans-Serif" font-size="10.00" fill="grey"> _socialNetworkService</text>
</g>
<!-- Node7 -->
<g id="Node000007" class="node">
<title>Node7</title>
<g id="a_Node000007"><a xlink:href="../../dd/d7d/interface_deluxe_1_1_deluxe_brand_center_1_1_a_m_m_1_1_domain_1_1_services_1_1_i_session_service.html" target="_top" xlink:title=" ">
<polygon fill="white" stroke="#666666" points="191.5,-144 0,-144 0,-112 191.5,-112 191.5,-144"/>
<text text-anchor="start" x="8" y="-130.5" font-family="Helvetica,sans-Serif" font-size="10.00">Deluxe.DeluxeBrandCenter.</text>
<text text-anchor="middle" x="95.75" y="-118.5" font-family="Helvetica,sans-Serif" font-size="10.00">AMM.Domain.Services.ISessionService</text>
</a>
</g>
</g>
<!-- Node7&#45;&gt;Node4 -->
<g id="edge6_Node000004_Node000007" class="edge">
<title>Node7&#45;&gt;Node4</title>
<g id="a_edge6_Node000004_Node000007"><a xlink:title=" ">
<path fill="none" stroke="#9a32cd" stroke-dasharray="5,2" d="M202.94,-128C258.62,-128 324.35,-128 369.11,-128"/>
<polygon fill="#9a32cd" stroke="#9a32cd" points="203.1,-124.5 193.1,-128 203.1,-131.5 203.1,-124.5"/>
</a>
</g>
<text text-anchor="middle" x="261.25" y="-130.5" font-family="Helvetica,sans-Serif" font-size="10.00" fill="grey"> _sessionService</text>
</g>
<!-- Node8&#45;&gt;Node3 -->
<g id="edge7_Node000003_Node000008" class="edge">
<title>Node8&#45;&gt;Node3</title>
<g id="a_edge7_Node000003_Node000008"><a xlink:title=" ">
<path fill="none" stroke="#63b8ff" d="M504.2,-78C556.94,-78 625.91,-78 680.36,-78"/>
<polygon fill="#63b8ff" stroke="#63b8ff" points="504.38,-74.5 494.38,-78 504.38,-81.5 504.38,-74.5"/>
</a>
</g>
</g>
<!-- Node9 -->
<g id="Node000009" class="node">
<title>Node9</title>
<g id="a_Node000009"><a xlink:href="../../d7/d95/interface_deluxe_1_1_deluxe_brand_center_1_1_a_m_m_1_1_a_p_i_1_1_services_1_1_i_campaign_service.html" target="_top" xlink:title=" ">
<polygon fill="white" stroke="#666666" points="1150.38,-41 1054.12,-41 1054.12,-21 1150.38,-21 1150.38,-41"/>
<text text-anchor="middle" x="1102.25" y="-27.5" font-family="Helvetica,sans-Serif" font-size="10.00">ICampaignService</text>
</a>
</g>
</g>
<!-- Node9&#45;&gt;Node1 -->
<g id="edge9_Node000001_Node000009" class="edge">
<title>Node9&#45;&gt;Node1</title>
<g id="a_edge9_Node000001_Node000009"><a xlink:title=" ">
<path fill="none" stroke="#63b8ff" d="M1162.26,-37.2C1178.37,-38.89 1196.18,-40.76 1213.57,-42.59"/>
<polygon fill="#63b8ff" stroke="#63b8ff" points="1162.69,-33.73 1152.38,-36.16 1161.96,-40.69 1162.69,-33.73"/>
</a>
</g>
</g>
<!-- Node10 -->
<g id="Node000010" class="node">
<title>Node10</title>
<g id="a_Node000010"><a xlink:href="../../d3/dac/interface_deluxe_1_1_deluxe_brand_center_1_1_a_m_m_1_1_a_p_i_1_1_services_1_1_i_named_db_service.html" target="_top" xlink:title=" ">
<polygon fill="white" stroke="#666666" points="847.12,-38 694.62,-38 694.62,-6 847.12,-6 847.12,-38"/>
<text text-anchor="start" x="702.62" y="-24.5" font-family="Helvetica,sans-Serif" font-size="10.00">INamedDbService&lt; Campaign,</text>
<text text-anchor="middle" x="770.88" y="-12.5" font-family="Helvetica,sans-Serif" font-size="10.00"> CampaignVM &gt;</text>
</a>
</g>
</g>
<!-- Node10&#45;&gt;Node9 -->
<g id="edge10_Node000009_Node000010" class="edge">
<title>Node10&#45;&gt;Node9</title>
<g id="a_edge10_Node000009_Node000010"><a xlink:title=" ">
<path fill="none" stroke="#63b8ff" d="M858.87,-24.38C921.38,-26.09 1003.25,-28.32 1054.04,-29.71"/>
<polygon fill="#63b8ff" stroke="#63b8ff" points="859.05,-20.88 848.95,-24.11 858.85,-27.88 859.05,-20.88"/>
</a>
</g>
</g>
<!-- Node11&#45;&gt;Node10 -->
<g id="edge11_Node000010_Node000011" class="edge">
<title>Node11&#45;&gt;Node10</title>
<g id="a_edge11_Node000010_Node000011"><a xlink:title=" ">
<path fill="none" stroke="orange" stroke-dasharray="5,2" d="M525.94,-22C579.94,-22 645.04,-22 694.41,-22"/>
<polygon fill="orange" stroke="orange" points="526.11,-18.5 516.11,-22 526.11,-25.5 526.11,-18.5"/>
</a>
</g>
<text text-anchor="middle" x="597.5" y="-24.5" font-family="Helvetica,sans-Serif" font-size="10.00" fill="grey"> &lt; Campaign, CampaignVM &gt;</text>
</g>
</g>
</svg>

<g id="navigator" transform="translate(0 0)" fill="#404254">
  <rect fill="#f2f5e9" fill-opacity="0.5" stroke="#606060" stroke-width=".5" x="0" y="0" width="60" height="60"/>
  <use id="zoomplus" xlink:href="#zoomPlus" x="17" y="9" onmousedown="handleZoom(evt,'in')"/>
  <use id="zoomminus" xlink:href="#zoomMin" x="42" y="9" onmousedown="handleZoom(evt,'out')"/>
  <use id="reset" xlink:href="#resetDef" x="30" y="36" onmousedown="handleReset()"/>
   <use id="arrowup" xlink:href="#arrowUp" x="0" y="0" onmousedown="handlePan(0,-1)"/>
  <use id="arrowright" xlink:href="#arrowRight" x="0" y="0" onmousedown="handlePan(1,0)"/>
  <use id="arrowdown" xlink:href="#arrowDown" x="0" y="0" onmousedown="handlePan(0,1)"/>
  <use id="arrowleft" xlink:href="#arrowLeft" x="0" y="0" onmousedown="handlePan(-1,0)"/>
</g>
<svg viewBox="0 0 15 15" width="100%" height="30px" preserveAspectRatio="xMaxYMin meet">
 <g id="arrow_out" transform="scale(0.3 0.3)">
  <a xlink:href="class_deluxe_1_1_deluxe_brand_center_1_1_a_m_m_1_1_a_p_i_1_1_services_1_1_campaign_service__coll__graph_org.svg" target="_base">
   <rect id="button" ry="5" rx="5" y="6" x="6" height="38" width="38"
        fill="#f2f5e9" fill-opacity="0.5" stroke="#606060" stroke-width="1.0"/>
   <path id="arrow"
     d="M 11.500037,31.436501 C 11.940474,20.09759 22.043105,11.32322 32.158766,21.979434 L 37.068811,17.246167 C 37.068811,17.246167 37.088388,32 37.088388,32 L 22.160133,31.978069 C 22.160133,31.978069 26.997745,27.140456 26.997745,27.140456 C 18.528582,18.264221 13.291696,25.230495 11.500037,31.436501 z"
     style="fill:#404040;"/>
  </a>
 </g>
</svg>

<style type='text/css'>
<![CDATA[
[data-mouse-over-selected='false'] { opacity: 0.7; }
[data-mouse-over-selected='true']  { opacity: 1.0; }
]]>
</style>
<script type="application/ecmascript"><![CDATA[
document.addEventListener('DOMContentLoaded', (event) => {
  highlightEdges();
  highlightAdjacentNodes();
});
]]></script>
</svg>
