<?xml version="1.0" encoding="UTF-8" standalone="no"?>
<!DOCTYPE svg PUBLIC "-//W3C//DTD SVG 1.1//EN"
 "http://www.w3.org/Graphics/SVG/1.1/DTD/svg11.dtd">
<!-- Generated by graphviz version 12.1.1 (20240910.0053)
 -->
<!-- Title: Deluxe.DeluxeBrandCenter.AMM.API.Program.MigrateDatabase Pages: 1 -->
<svg width="383pt" height="90pt"
 viewBox="0.00 0.00 382.75 90.00" xmlns="http://www.w3.org/2000/svg" xmlns:xlink="http://www.w3.org/1999/xlink">
<g id="graph0" class="graph" transform="scale(1 1) rotate(0) translate(4 86)">
<title>Deluxe.DeluxeBrandCenter.AMM.API.Program.MigrateDatabase</title>
<!-- Node1 -->
<g id="Node000001" class="node">
<title>Node1</title>
<g id="a_Node000001"><a xlink:title=" ">
<polygon fill="#999999" stroke="#666666" points="374.75,-57 199,-57 199,-25 374.75,-25 374.75,-57"/>
<text text-anchor="start" x="207" y="-43.5" font-family="Helvetica,sans-Serif" font-size="10.00">Deluxe.DeluxeBrandCenter.</text>
<text text-anchor="middle" x="286.88" y="-31.5" font-family="Helvetica,sans-Serif" font-size="10.00">AMM.API.Program.MigrateDatabase</text>
</a>
</g>
</g>
<!-- Node2 -->
<g id="Node000002" class="node">
<title>Node2</title>
<g id="a_Node000002"><a xlink:href="../../d7/d46/class_deluxe_1_1_deluxe_brand_center_1_1_a_m_m_1_1_a_p_i_1_1_program.html#a532919596f0e222c40869227ca3f649c" target="_top" xlink:title=" ">
<polygon fill="white" stroke="#666666" points="150.62,-82 12.38,-82 12.38,-50 150.62,-50 150.62,-82"/>
<text text-anchor="start" x="20.38" y="-68.5" font-family="Helvetica,sans-Serif" font-size="10.00">Deluxe.DeluxeBrandCenter.</text>
<text text-anchor="middle" x="81.5" y="-56.5" font-family="Helvetica,sans-Serif" font-size="10.00">AMM.API.Program.Main</text>
</a>
</g>
</g>
<!-- Node1&#45;&gt;Node2 -->
<g id="edge1_Node000001_Node000002" class="edge">
<title>Node1&#45;&gt;Node2</title>
<g id="a_edge1_Node000001_Node000002"><a xlink:title=" ">
<path fill="none" stroke="#63b8ff" d="M187.46,-53.1C175.14,-54.61 162.75,-56.14 151.02,-57.58"/>
<polygon fill="#63b8ff" stroke="#63b8ff" points="187.74,-56.59 197.24,-51.9 186.89,-49.64 187.74,-56.59"/>
</a>
</g>
</g>
<!-- Node3 -->
<g id="Node000003" class="node">
<title>Node3</title>
<g id="a_Node000003"><a xlink:href="../../d5/d31/class_deluxe_1_1_deluxe_brand_center_1_1_a_m_m_1_1_script_runner_1_1_program.html#af8b8129124833727adb81605472812f8" target="_top" xlink:title=" ">
<polygon fill="white" stroke="#666666" points="163,-32 0,-32 0,0 163,0 163,-32"/>
<text text-anchor="start" x="8" y="-18.5" font-family="Helvetica,sans-Serif" font-size="10.00">Deluxe.DeluxeBrandCenter.</text>
<text text-anchor="middle" x="81.5" y="-6.5" font-family="Helvetica,sans-Serif" font-size="10.00">AMM.ScriptRunner.Program.Main</text>
</a>
</g>
</g>
<!-- Node1&#45;&gt;Node3 -->
<g id="edge2_Node000001_Node000003" class="edge">
<title>Node1&#45;&gt;Node3</title>
<g id="a_edge2_Node000001_Node000003"><a xlink:title=" ">
<path fill="none" stroke="#63b8ff" d="M187.39,-28.89C179.33,-27.9 171.25,-26.91 163.34,-25.94"/>
<polygon fill="#63b8ff" stroke="#63b8ff" points="186.89,-32.36 197.24,-30.1 187.74,-25.41 186.89,-32.36"/>
</a>
</g>
</g>
</g>
</svg>
