<?xml version="1.0" encoding="UTF-8" standalone="no"?>
<!DOCTYPE svg PUBLIC "-//W3C//DTD SVG 1.1//EN"
 "http://www.w3.org/Graphics/SVG/1.1/DTD/svg11.dtd">
<!-- Generated by graphviz version 12.1.1 (20240910.0053)
 -->
<!-- Title: Deluxe.DeluxeBrandCenter.AMM.API.Program.Main Pages: 1 -->
<!--zoomable 390 -->

<svg id="main" version="1.1" xmlns="http://www.w3.org/2000/svg" xmlns:xlink="http://www.w3.org/1999/xlink" xml:space="preserve" onload="init(evt)">

<style type="text/css"><![CDATA[
.node, .edge {opacity: 0.7;}
.node.selected, .edge.selected {opacity: 1;}
.edge:hover path { stroke: red; }
.edge:hover polygon { stroke: red; fill: red; }
]]></style>

<defs>
  <circle id="rim" cx="0" cy="0" r="7"/>
  <circle id="rim2" cx="0" cy="0" r="3.5"/>
  <g id="zoomPlus">
    <use xlink:href="#rim" fill="#404040"><set attributeName="fill" to="#808080" begin="zoomplus.mouseover" end="zoomplus.mouseout"/></use>
    <path d="M-4,0h8M0,-4v8" fill="none" stroke="white" stroke-width="1.5" pointer-events="none"/>
  </g>
  <g id="zoomMin">
    <use xlink:href="#rim" fill="#404040"><set attributeName="fill" to="#808080" begin="zoomminus.mouseover" end="zoomminus.mouseout"/></use>
    <path d="M-4,0h8" fill="none" stroke="white" stroke-width="1.5" pointer-events="none"/>
  </g>
  <g id="arrowUp" transform="translate(30 24)">
    <use xlink:href="#rim"/>
    <path pointer-events="none" fill="none" stroke="white" stroke-width="1.5" d="M0,-3.0v7 M-2.5,-0.5L0,-3.0L2.5,-0.5"/>
  </g>
  <g id="arrowRight" transform="rotate(90) translate(36 -43)">
    <use xlink:href="#rim"/>
    <path pointer-events="none" fill="none" stroke="white" stroke-width="1.5" d="M0,-3.0v7 M-2.5,-0.5L0,-3.0L2.5,-0.5"/>
  </g>
  <g id="arrowDown" transform="rotate(180) translate(-30 -48)">
    <use xlink:href="#rim"/>
    <path pointer-events="none" fill="none" stroke="white" stroke-width="1.5" d="M0,-3.0v7 M-2.5,-0.5L0,-3.0L2.5,-0.5"/>
  </g>
  <g id="arrowLeft" transform="rotate(270) translate(-36 17)">
    <use xlink:href="#rim"/>
    <path pointer-events="none" fill="none" stroke="white" stroke-width="1.5" d="M0,-3.0v7 M-2.5,-0.5L0,-3.0L2.5,-0.5"/>
  </g>
  <g id="resetDef">
    <use xlink:href="#rim2" fill="#404040"><set attributeName="fill" to="#808080" begin="reset.mouseover" end="reset.mouseout"/></use>
  </g>
</defs>
<script type="application/ecmascript">
var viewWidth = 611;
var viewHeight = 390;
var sectionId = 'dynsection-12';
</script>
<script type="application/ecmascript" xlink:href="../../svg.min.js"/>
<svg id="graph" class="graph">
<g id="viewport">
<title>Deluxe.DeluxeBrandCenter.AMM.API.Program.Main</title>
<!-- Node1 -->
<g id="Node000001" class="node">
<title>Node1</title>
<g id="a_Node000001"><a xlink:title=" ">
<polygon fill="#999999" stroke="#666666" points="138.25,-207 0,-207 0,-175 138.25,-175 138.25,-207"/>
<text text-anchor="start" x="8" y="-193.5" font-family="Helvetica,sans-Serif" font-size="10.00">Deluxe.DeluxeBrandCenter.</text>
<text text-anchor="middle" x="69.12" y="-181.5" font-family="Helvetica,sans-Serif" font-size="10.00">AMM.API.Program.Main</text>
</a>
</g>
</g>
<!-- Node2 -->
<g id="Node000002" class="node">
<title>Node2</title>
<g id="a_Node000002"><a xlink:href="../../d7/d46/class_deluxe_1_1_deluxe_brand_center_1_1_a_m_m_1_1_a_p_i_1_1_program.html#af3dca3a745d167dc647ae3556598e8af" target="_top" xlink:title=" ">
<polygon fill="white" stroke="#666666" points="355.62,-382 184.38,-382 184.38,-350 355.62,-350 355.62,-382"/>
<text text-anchor="start" x="192.38" y="-368.5" font-family="Helvetica,sans-Serif" font-size="10.00">Deluxe.DeluxeBrandCenter.</text>
<text text-anchor="middle" x="270" y="-356.5" font-family="Helvetica,sans-Serif" font-size="10.00">AMM.API.Program.BuildApplication</text>
</a>
</g>
</g>
<!-- Node1&#45;&gt;Node2 -->
<g id="edge1_Node000001_Node000002" class="edge">
<title>Node1&#45;&gt;Node2</title>
<g id="a_edge1_Node000001_Node000002"><a xlink:title=" ">
<path fill="none" stroke="#63b8ff" d="M76.83,-207.4C90.4,-238.47 124.14,-305.9 174.25,-341 176.03,-342.24 177.86,-343.43 179.74,-344.55"/>
<polygon fill="#63b8ff" stroke="#63b8ff" points="177.69,-347.42 188.17,-348.99 180.95,-341.23 177.69,-347.42"/>
</a>
</g>
</g>
<!-- Node3 -->
<g id="Node000003" class="node">
<title>Node3</title>
<g id="a_Node000003"><a xlink:href="../../d7/d46/class_deluxe_1_1_deluxe_brand_center_1_1_a_m_m_1_1_a_p_i_1_1_program.html#a166660724ee5754510b5da1fa2a3b900" target="_top" xlink:title=" ">
<polygon fill="white" stroke="#666666" points="360.5,-332 179.5,-332 179.5,-300 360.5,-300 360.5,-332"/>
<text text-anchor="start" x="187.5" y="-318.5" font-family="Helvetica,sans-Serif" font-size="10.00">Deluxe.DeluxeBrandCenter.</text>
<text text-anchor="middle" x="270" y="-306.5" font-family="Helvetica,sans-Serif" font-size="10.00">AMM.API.Program.BuildConfiguration</text>
</a>
</g>
</g>
<!-- Node1&#45;&gt;Node3 -->
<g id="edge2_Node000001_Node000003" class="edge">
<title>Node1&#45;&gt;Node3</title>
<g id="a_edge2_Node000001_Node000003"><a xlink:title=" ">
<path fill="none" stroke="#63b8ff" d="M82.7,-207.49C100.6,-229.79 135.57,-269.28 174.25,-291 176.78,-292.42 179.4,-293.76 182.07,-295.03"/>
<polygon fill="#63b8ff" stroke="#63b8ff" points="180.69,-298.25 191.26,-298.97 183.44,-291.81 180.69,-298.25"/>
</a>
</g>
</g>
<!-- Node5 -->
<g id="Node000005" class="node">
<title>Node5</title>
<g id="a_Node000005"><a xlink:href="../../d7/d46/class_deluxe_1_1_deluxe_brand_center_1_1_a_m_m_1_1_a_p_i_1_1_program.html#a771038ec2cd825f6b5a9cc57e46acbda" target="_top" xlink:title=" ">
<polygon fill="white" stroke="#666666" points="365.75,-282 174.25,-282 174.25,-250 365.75,-250 365.75,-282"/>
<text text-anchor="start" x="182.25" y="-268.5" font-family="Helvetica,sans-Serif" font-size="10.00">Deluxe.DeluxeBrandCenter.</text>
<text text-anchor="middle" x="270" y="-256.5" font-family="Helvetica,sans-Serif" font-size="10.00">AMM.API.Program.ConfigureApplication</text>
</a>
</g>
</g>
<!-- Node1&#45;&gt;Node5 -->
<g id="edge4_Node000001_Node000005" class="edge">
<title>Node1&#45;&gt;Node5</title>
<g id="a_edge4_Node000001_Node000005"><a xlink:title=" ">
<path fill="none" stroke="#63b8ff" d="M100.44,-207.45C120.87,-218.05 148.66,-231.58 174.25,-241 179.23,-242.83 184.4,-244.59 189.64,-246.26"/>
<polygon fill="#63b8ff" stroke="#63b8ff" points="188.43,-249.55 199.01,-249.13 190.47,-242.86 188.43,-249.55"/>
</a>
</g>
</g>
<!-- Node6 -->
<g id="Node000006" class="node">
<title>Node6</title>
<g id="a_Node000006"><a xlink:href="../../d7/d46/class_deluxe_1_1_deluxe_brand_center_1_1_a_m_m_1_1_a_p_i_1_1_program.html#ac10c1b0112674ad6482c83a0e9ca5bb7" target="_top" xlink:title=" ">
<polygon fill="white" stroke="#666666" points="352.25,-232 187.75,-232 187.75,-200 352.25,-200 352.25,-232"/>
<text text-anchor="start" x="195.75" y="-218.5" font-family="Helvetica,sans-Serif" font-size="10.00">Deluxe.DeluxeBrandCenter.</text>
<text text-anchor="middle" x="270" y="-206.5" font-family="Helvetica,sans-Serif" font-size="10.00">AMM.API.Program.ConfigureHost</text>
</a>
</g>
</g>
<!-- Node1&#45;&gt;Node6 -->
<g id="edge5_Node000001_Node000006" class="edge">
<title>Node1&#45;&gt;Node6</title>
<g id="a_edge5_Node000001_Node000006"><a xlink:title=" ">
<path fill="none" stroke="#63b8ff" d="M138.57,-199.6C150.73,-201.13 163.59,-202.75 176.29,-204.35"/>
<polygon fill="#63b8ff" stroke="#63b8ff" points="175.54,-207.78 185.9,-205.55 176.41,-200.83 175.54,-207.78"/>
</a>
</g>
</g>
<!-- Node7 -->
<g id="Node000007" class="node">
<title>Node7</title>
<g id="a_Node000007"><a xlink:href="../../d7/d46/class_deluxe_1_1_deluxe_brand_center_1_1_a_m_m_1_1_a_p_i_1_1_program.html#ae0ea112dd01933aee8dfd99aa86703df" target="_top" xlink:title=" ">
<polygon fill="white" stroke="#666666" points="358.62,-182 181.38,-182 181.38,-150 358.62,-150 358.62,-182"/>
<text text-anchor="start" x="189.38" y="-168.5" font-family="Helvetica,sans-Serif" font-size="10.00">Deluxe.DeluxeBrandCenter.</text>
<text text-anchor="middle" x="270" y="-156.5" font-family="Helvetica,sans-Serif" font-size="10.00">AMM.API.Program.ConfigureLogging</text>
</a>
</g>
</g>
<!-- Node1&#45;&gt;Node7 -->
<g id="edge6_Node000001_Node000007" class="edge">
<title>Node1&#45;&gt;Node7</title>
<g id="a_edge6_Node000001_Node000007"><a xlink:title=" ">
<path fill="none" stroke="#63b8ff" d="M138.57,-182.4C148.63,-181.13 159.17,-179.81 169.71,-178.48"/>
<polygon fill="#63b8ff" stroke="#63b8ff" points="170.13,-181.96 179.61,-177.24 169.25,-175.01 170.13,-181.96"/>
</a>
</g>
</g>
<!-- Node8 -->
<g id="Node000008" class="node">
<title>Node8</title>
<g id="a_Node000008"><a xlink:href="../../d7/d46/class_deluxe_1_1_deluxe_brand_center_1_1_a_m_m_1_1_a_p_i_1_1_program.html#a28f3fcc5623aa9a9c456c190c7e29b7f" target="_top" xlink:title=" ">
<polygon fill="white" stroke="#666666" points="360.88,-132 179.12,-132 179.12,-100 360.88,-100 360.88,-132"/>
<text text-anchor="start" x="187.12" y="-118.5" font-family="Helvetica,sans-Serif" font-size="10.00">Deluxe.DeluxeBrandCenter.</text>
<text text-anchor="middle" x="270" y="-106.5" font-family="Helvetica,sans-Serif" font-size="10.00">AMM.API.Program.ConfigureServices</text>
</a>
</g>
</g>
<!-- Node1&#45;&gt;Node8 -->
<g id="edge7_Node000001_Node000008" class="edge">
<title>Node1&#45;&gt;Node8</title>
<g id="a_edge7_Node000001_Node000008"><a xlink:title=" ">
<path fill="none" stroke="#63b8ff" d="M100.44,-174.55C120.87,-163.95 148.66,-150.42 174.25,-141 179.23,-139.17 184.4,-137.41 189.64,-135.74"/>
<polygon fill="#63b8ff" stroke="#63b8ff" points="190.47,-139.14 199.01,-132.87 188.43,-132.45 190.47,-139.14"/>
</a>
</g>
</g>
<!-- Node11 -->
<g id="Node000011" class="node">
<title>Node11</title>
<g id="a_Node000011"><a xlink:href="../../d7/d46/class_deluxe_1_1_deluxe_brand_center_1_1_a_m_m_1_1_a_p_i_1_1_program.html#a539dcba17a562c639f0e81be04e1028c" target="_top" xlink:title=" ">
<polygon fill="white" stroke="#666666" points="362,-82 178,-82 178,-50 362,-50 362,-82"/>
<text text-anchor="start" x="186" y="-68.5" font-family="Helvetica,sans-Serif" font-size="10.00">Deluxe.DeluxeBrandCenter.</text>
<text text-anchor="middle" x="270" y="-56.5" font-family="Helvetica,sans-Serif" font-size="10.00">AMM.API.Program.ConfigureWebHost</text>
</a>
</g>
</g>
<!-- Node1&#45;&gt;Node11 -->
<g id="edge10_Node000001_Node000011" class="edge">
<title>Node1&#45;&gt;Node11</title>
<g id="a_edge10_Node000001_Node000011"><a xlink:title=" ">
<path fill="none" stroke="#63b8ff" d="M82.7,-174.51C100.6,-152.21 135.57,-112.72 174.25,-91 176.78,-89.58 179.4,-88.24 182.07,-86.97"/>
<polygon fill="#63b8ff" stroke="#63b8ff" points="183.44,-90.19 191.26,-83.03 180.69,-83.75 183.44,-90.19"/>
</a>
</g>
</g>
<!-- Node12 -->
<g id="Node000012" class="node">
<title>Node12</title>
<g id="a_Node000012"><a xlink:href="../../d7/d46/class_deluxe_1_1_deluxe_brand_center_1_1_a_m_m_1_1_a_p_i_1_1_program.html#a43a63d9f244c6d3f03ff46a3aafdb2cf" target="_top" xlink:title=" ">
<polygon fill="white" stroke="#666666" points="357.88,-32 182.12,-32 182.12,0 357.88,0 357.88,-32"/>
<text text-anchor="start" x="190.12" y="-18.5" font-family="Helvetica,sans-Serif" font-size="10.00">Deluxe.DeluxeBrandCenter.</text>
<text text-anchor="middle" x="270" y="-6.5" font-family="Helvetica,sans-Serif" font-size="10.00">AMM.API.Program.MigrateDatabase</text>
</a>
</g>
</g>
<!-- Node1&#45;&gt;Node12 -->
<g id="edge11_Node000001_Node000012" class="edge">
<title>Node1&#45;&gt;Node12</title>
<g id="a_edge11_Node000001_Node000012"><a xlink:title=" ">
<path fill="none" stroke="#63b8ff" d="M76.83,-174.6C90.4,-143.53 124.14,-76.1 174.25,-41 176.03,-39.76 177.86,-38.57 179.74,-37.45"/>
<polygon fill="#63b8ff" stroke="#63b8ff" points="180.95,-40.77 188.17,-33.01 177.69,-34.58 180.95,-40.77"/>
</a>
</g>
</g>
<!-- Node4 -->
<g id="Node000004" class="node">
<title>Node4</title>
<g id="a_Node000004"><a xlink:href="../../d7/d46/class_deluxe_1_1_deluxe_brand_center_1_1_a_m_m_1_1_a_p_i_1_1_program.html#a6a473853f8f7034d28639a5951d78ece" target="_top" xlink:title=" ">
<polygon fill="white" stroke="#666666" points="603,-338 401.75,-338 401.75,-294 603,-294 603,-338"/>
<text text-anchor="start" x="409.75" y="-324.5" font-family="Helvetica,sans-Serif" font-size="10.00">Deluxe.DeluxeBrandCenter.</text>
<text text-anchor="start" x="409.75" y="-312.5" font-family="Helvetica,sans-Serif" font-size="10.00">AMM.API.Program.ConfigureConfiguration</text>
<text text-anchor="middle" x="502.38" y="-300.5" font-family="Helvetica,sans-Serif" font-size="10.00">Builder</text>
</a>
</g>
</g>
<!-- Node3&#45;&gt;Node4 -->
<g id="edge3_Node000003_Node000004" class="edge">
<title>Node3&#45;&gt;Node4</title>
<g id="a_edge3_Node000003_Node000004"><a xlink:title=" ">
<path fill="none" stroke="#63b8ff" d="M360.73,-316C370.46,-316 380.44,-316 390.39,-316"/>
<polygon fill="#63b8ff" stroke="#63b8ff" points="390.07,-319.5 400.07,-316 390.07,-312.5 390.07,-319.5"/>
</a>
</g>
</g>
<!-- Node9 -->
<g id="Node000009" class="node">
<title>Node9</title>
<g id="a_Node000009"><a xlink:href="../../d7/d46/class_deluxe_1_1_deluxe_brand_center_1_1_a_m_m_1_1_a_p_i_1_1_program.html#a6b40aaecabd0f974a2b363cbd250b7e3" target="_top" xlink:title=" ">
<polygon fill="white" stroke="#666666" points="584.62,-160 420.12,-160 420.12,-128 584.62,-128 584.62,-160"/>
<text text-anchor="start" x="428.12" y="-146.5" font-family="Helvetica,sans-Serif" font-size="10.00">Deluxe.DeluxeBrandCenter.</text>
<text text-anchor="middle" x="502.38" y="-134.5" font-family="Helvetica,sans-Serif" font-size="10.00">AMM.API.Program.ConfigureJson</text>
</a>
</g>
</g>
<!-- Node8&#45;&gt;Node9 -->
<g id="edge8_Node000008_Node000009" class="edge">
<title>Node8&#45;&gt;Node9</title>
<g id="a_edge8_Node000008_Node000009"><a xlink:title=" ">
<path fill="none" stroke="#63b8ff" d="M361.06,-126.95C376.6,-128.83 392.77,-130.8 408.39,-132.7"/>
<polygon fill="#63b8ff" stroke="#63b8ff" points="407.79,-136.15 418.14,-133.88 408.63,-129.2 407.79,-136.15"/>
</a>
</g>
</g>
<!-- Node10 -->
<g id="Node000010" class="node">
<title>Node10</title>
<g id="a_Node000010"><a xlink:href="../../dd/d7d/interface_deluxe_1_1_deluxe_brand_center_1_1_a_m_m_1_1_domain_1_1_services_1_1_i_session_service.html#ae94ac3c976ea7efacd75965d046f4bc8" target="_top" xlink:title=" ">
<polygon fill="white" stroke="#666666" points="599.62,-110 405.12,-110 405.12,-66 599.62,-66 599.62,-110"/>
<text text-anchor="start" x="413.12" y="-96.5" font-family="Helvetica,sans-Serif" font-size="10.00">Deluxe.DeluxeBrandCenter.</text>
<text text-anchor="start" x="413.12" y="-84.5" font-family="Helvetica,sans-Serif" font-size="10.00">AMM.Domain.Services.ISessionService.</text>
<text text-anchor="middle" x="502.38" y="-72.5" font-family="Helvetica,sans-Serif" font-size="10.00">SetUserId</text>
</a>
</g>
</g>
<!-- Node8&#45;&gt;Node10 -->
<g id="edge9_Node000008_Node000010" class="edge">
<title>Node8&#45;&gt;Node10</title>
<g id="a_edge9_Node000008_Node000010"><a xlink:title=" ">
<path fill="none" stroke="#63b8ff" d="M361.06,-105.05C371.74,-103.76 382.72,-102.42 393.61,-101.1"/>
<polygon fill="#63b8ff" stroke="#63b8ff" points="393.9,-104.59 403.41,-99.91 393.06,-97.64 393.9,-104.59"/>
</a>
</g>
</g>
</g>
</svg>

<g id="navigator" transform="translate(0 0)" fill="#404254">
  <rect fill="#f2f5e9" fill-opacity="0.5" stroke="#606060" stroke-width=".5" x="0" y="0" width="60" height="60"/>
  <use id="zoomplus" xlink:href="#zoomPlus" x="17" y="9" onmousedown="handleZoom(evt,'in')"/>
  <use id="zoomminus" xlink:href="#zoomMin" x="42" y="9" onmousedown="handleZoom(evt,'out')"/>
  <use id="reset" xlink:href="#resetDef" x="30" y="36" onmousedown="handleReset()"/>
   <use id="arrowup" xlink:href="#arrowUp" x="0" y="0" onmousedown="handlePan(0,-1)"/>
  <use id="arrowright" xlink:href="#arrowRight" x="0" y="0" onmousedown="handlePan(1,0)"/>
  <use id="arrowdown" xlink:href="#arrowDown" x="0" y="0" onmousedown="handlePan(0,1)"/>
  <use id="arrowleft" xlink:href="#arrowLeft" x="0" y="0" onmousedown="handlePan(-1,0)"/>
</g>
<svg viewBox="0 0 15 15" width="100%" height="30px" preserveAspectRatio="xMaxYMin meet">
 <g id="arrow_out" transform="scale(0.3 0.3)">
  <a xlink:href="class_deluxe_1_1_deluxe_brand_center_1_1_a_m_m_1_1_a_p_i_1_1_program_a532919596f0e222c40869227ca3f649c_cgraph_org.svg" target="_base">
   <rect id="button" ry="5" rx="5" y="6" x="6" height="38" width="38"
        fill="#f2f5e9" fill-opacity="0.5" stroke="#606060" stroke-width="1.0"/>
   <path id="arrow"
     d="M 11.500037,31.436501 C 11.940474,20.09759 22.043105,11.32322 32.158766,21.979434 L 37.068811,17.246167 C 37.068811,17.246167 37.088388,32 37.088388,32 L 22.160133,31.978069 C 22.160133,31.978069 26.997745,27.140456 26.997745,27.140456 C 18.528582,18.264221 13.291696,25.230495 11.500037,31.436501 z"
     style="fill:#404040;"/>
  </a>
 </g>
</svg>

<style type='text/css'>
<![CDATA[
[data-mouse-over-selected='false'] { opacity: 0.7; }
[data-mouse-over-selected='true']  { opacity: 1.0; }
]]>
</style>
<script type="application/ecmascript"><![CDATA[
document.addEventListener('DOMContentLoaded', (event) => {
  highlightEdges();
  highlightAdjacentNodes();
});
]]></script>
</svg>
