<?xml version="1.0" encoding="UTF-8" standalone="no"?>
<!DOCTYPE svg PUBLIC "-//W3C//DTD SVG 1.1//EN"
 "http://www.w3.org/Graphics/SVG/1.1/DTD/svg11.dtd">
<!-- Generated by graphviz version 12.1.1 (20240910.0053)
 -->
<!-- Title: Deluxe.DeluxeBrandCenter.AMM.API.Program.ConfigureHost Pages: 1 -->
<svg width="372pt" height="90pt"
 viewBox="0.00 0.00 371.50 90.00" xmlns="http://www.w3.org/2000/svg" xmlns:xlink="http://www.w3.org/1999/xlink">
<g id="graph0" class="graph" transform="scale(1 1) rotate(0) translate(4 86)">
<title>Deluxe.DeluxeBrandCenter.AMM.API.Program.ConfigureHost</title>
<!-- Node1 -->
<g id="Node000001" class="node">
<title>Node1</title>
<g id="a_Node000001"><a xlink:title=" ">
<polygon fill="#999999" stroke="#666666" points="363.5,-57 199,-57 199,-25 363.5,-25 363.5,-57"/>
<text text-anchor="start" x="207" y="-43.5" font-family="Helvetica,sans-Serif" font-size="10.00">Deluxe.DeluxeBrandCenter.</text>
<text text-anchor="middle" x="281.25" y="-31.5" font-family="Helvetica,sans-Serif" font-size="10.00">AMM.API.Program.ConfigureHost</text>
</a>
</g>
</g>
<!-- Node2 -->
<g id="Node000002" class="node">
<title>Node2</title>
<g id="a_Node000002"><a xlink:href="../../d7/d46/class_deluxe_1_1_deluxe_brand_center_1_1_a_m_m_1_1_a_p_i_1_1_program.html#a532919596f0e222c40869227ca3f649c" target="_top" xlink:title=" ">
<polygon fill="white" stroke="#666666" points="150.62,-82 12.38,-82 12.38,-50 150.62,-50 150.62,-82"/>
<text text-anchor="start" x="20.38" y="-68.5" font-family="Helvetica,sans-Serif" font-size="10.00">Deluxe.DeluxeBrandCenter.</text>
<text text-anchor="middle" x="81.5" y="-56.5" font-family="Helvetica,sans-Serif" font-size="10.00">AMM.API.Program.Main</text>
</a>
</g>
</g>
<!-- Node1&#45;&gt;Node2 -->
<g id="edge1_Node000001_Node000002" class="edge">
<title>Node1&#45;&gt;Node2</title>
<g id="a_edge1_Node000001_Node000002"><a xlink:title=" ">
<path fill="none" stroke="#63b8ff" d="M187.45,-52.73C175.17,-54.29 162.75,-55.85 150.98,-57.34"/>
<polygon fill="#63b8ff" stroke="#63b8ff" points="187.69,-56.23 197.17,-51.5 186.81,-49.28 187.69,-56.23"/>
</a>
</g>
</g>
<!-- Node3 -->
<g id="Node000003" class="node">
<title>Node3</title>
<g id="a_Node000003"><a xlink:href="../../d5/d31/class_deluxe_1_1_deluxe_brand_center_1_1_a_m_m_1_1_script_runner_1_1_program.html#af8b8129124833727adb81605472812f8" target="_top" xlink:title=" ">
<polygon fill="white" stroke="#666666" points="163,-32 0,-32 0,0 163,0 163,-32"/>
<text text-anchor="start" x="8" y="-18.5" font-family="Helvetica,sans-Serif" font-size="10.00">Deluxe.DeluxeBrandCenter.</text>
<text text-anchor="middle" x="81.5" y="-6.5" font-family="Helvetica,sans-Serif" font-size="10.00">AMM.ScriptRunner.Program.Main</text>
</a>
</g>
</g>
<!-- Node1&#45;&gt;Node3 -->
<g id="edge2_Node000001_Node000003" class="edge">
<title>Node1&#45;&gt;Node3</title>
<g id="a_edge2_Node000001_Node000003"><a xlink:title=" ">
<path fill="none" stroke="#63b8ff" d="M187.35,-29.26C179.3,-28.24 171.19,-27.21 163.25,-26.21"/>
<polygon fill="#63b8ff" stroke="#63b8ff" points="186.81,-32.72 197.17,-30.5 187.69,-25.77 186.81,-32.72"/>
</a>
</g>
</g>
</g>
</svg>
