<?xml version="1.0" encoding="UTF-8" standalone="no"?>
<!DOCTYPE svg PUBLIC "-//W3C//DTD SVG 1.1//EN"
 "http://www.w3.org/Graphics/SVG/1.1/DTD/svg11.dtd">
<!-- Generated by graphviz version 12.1.1 (20240910.0053)
 -->
<!-- Title: Deluxe.DeluxeBrandCenter.AMM.Infrastructure.AWS.S3.AmazonS3Service.DownloadStringFromUrl Pages: 1 -->
<svg width="861pt" height="300pt"
 viewBox="0.00 0.00 861.00 300.00" xmlns="http://www.w3.org/2000/svg" xmlns:xlink="http://www.w3.org/1999/xlink">
<g id="graph0" class="graph" transform="scale(1 1) rotate(0) translate(4 296)">
<title>Deluxe.DeluxeBrandCenter.AMM.Infrastructure.AWS.S3.AmazonS3Service.DownloadStringFromUrl</title>
<!-- Node1 -->
<g id="Node000001" class="node">
<title>Node1</title>
<g id="a_Node000001"><a xlink:title=" ">
<polygon fill="#999999" stroke="#666666" points="853,-168 673.5,-168 673.5,-124 853,-124 853,-168"/>
<text text-anchor="start" x="681.5" y="-154.5" font-family="Helvetica,sans-Serif" font-size="10.00">Deluxe.DeluxeBrandCenter.</text>
<text text-anchor="start" x="681.5" y="-142.5" font-family="Helvetica,sans-Serif" font-size="10.00">AMM.Infrastructure.AWS.S3.Amazon</text>
<text text-anchor="middle" x="763.25" y="-130.5" font-family="Helvetica,sans-Serif" font-size="10.00">S3Service.DownloadStringFromUrl</text>
</a>
</g>
</g>
<!-- Node2 -->
<g id="Node000002" class="node">
<title>Node2</title>
<g id="a_Node000002"><a xlink:href="../../d0/d80/class_deluxe_1_1_deluxe_brand_center_1_1_a_m_m_1_1_infrastructure_1_1_a_w_s_1_1_s3_1_1_amazon_s3_service.html#ab36f8d1d6957cb6863cab65363e9d8c2" target="_top" xlink:title=" ">
<polygon fill="white" stroke="#666666" points="637.5,-292 446,-292 446,-248 637.5,-248 637.5,-292"/>
<text text-anchor="start" x="454" y="-278.5" font-family="Helvetica,sans-Serif" font-size="10.00">Deluxe.DeluxeBrandCenter.</text>
<text text-anchor="start" x="454" y="-266.5" font-family="Helvetica,sans-Serif" font-size="10.00">AMM.Infrastructure.AWS.S3.Amazon</text>
<text text-anchor="middle" x="541.75" y="-254.5" font-family="Helvetica,sans-Serif" font-size="10.00">S3Service.DownloadCampaignTemplate</text>
</a>
</g>
</g>
<!-- Node1&#45;&gt;Node2 -->
<g id="edge1_Node000001_Node000002" class="edge">
<title>Node1&#45;&gt;Node2</title>
<g id="a_edge1_Node000001_Node000002"><a xlink:title=" ">
<path fill="none" stroke="#63b8ff" d="M728.9,-175.6C704.85,-195.7 670.89,-221.69 637.5,-239 631.51,-242.11 625.14,-244.99 618.66,-247.64"/>
<polygon fill="#63b8ff" stroke="#63b8ff" points="731.09,-178.33 736.45,-169.19 726.56,-172.99 731.09,-178.33"/>
</a>
</g>
</g>
<!-- Node3 -->
<g id="Node000003" class="node">
<title>Node3</title>
<g id="a_Node000003"><a xlink:href="../../d0/d80/class_deluxe_1_1_deluxe_brand_center_1_1_a_m_m_1_1_infrastructure_1_1_a_w_s_1_1_s3_1_1_amazon_s3_service.html#a3bdbcbdf8ad1737344057d7ff03135d7" target="_top" xlink:title=" ">
<polygon fill="white" stroke="#666666" points="631.5,-230 452,-230 452,-186 631.5,-186 631.5,-230"/>
<text text-anchor="start" x="460" y="-216.5" font-family="Helvetica,sans-Serif" font-size="10.00">Deluxe.DeluxeBrandCenter.</text>
<text text-anchor="start" x="460" y="-204.5" font-family="Helvetica,sans-Serif" font-size="10.00">AMM.Infrastructure.AWS.S3.Amazon</text>
<text text-anchor="middle" x="541.75" y="-192.5" font-family="Helvetica,sans-Serif" font-size="10.00">S3Service.DownloadFromContent</text>
</a>
</g>
</g>
<!-- Node1&#45;&gt;Node3 -->
<g id="edge2_Node000001_Node000003" class="edge">
<title>Node1&#45;&gt;Node3</title>
<g id="a_edge2_Node000001_Node000003"><a xlink:title=" ">
<path fill="none" stroke="#63b8ff" d="M671.99,-171.49C655.55,-176.14 638.51,-180.95 622.4,-185.5"/>
<polygon fill="#63b8ff" stroke="#63b8ff" points="672.57,-174.97 681.24,-168.88 670.66,-168.23 672.57,-174.97"/>
</a>
</g>
</g>
<!-- Node8 -->
<g id="Node000008" class="node">
<title>Node8</title>
<g id="a_Node000008"><a xlink:href="../../d0/d80/class_deluxe_1_1_deluxe_brand_center_1_1_a_m_m_1_1_infrastructure_1_1_a_w_s_1_1_s3_1_1_amazon_s3_service.html#a7bffd7a0849c284e906e7fdb3389ab48" target="_top" xlink:title=" ">
<polygon fill="white" stroke="#666666" points="631.5,-168 452,-168 452,-124 631.5,-124 631.5,-168"/>
<text text-anchor="start" x="460" y="-154.5" font-family="Helvetica,sans-Serif" font-size="10.00">Deluxe.DeluxeBrandCenter.</text>
<text text-anchor="start" x="460" y="-142.5" font-family="Helvetica,sans-Serif" font-size="10.00">AMM.Infrastructure.AWS.S3.Amazon</text>
<text text-anchor="middle" x="541.75" y="-130.5" font-family="Helvetica,sans-Serif" font-size="10.00">S3Service.DownloadRssFeed</text>
</a>
</g>
</g>
<!-- Node1&#45;&gt;Node8 -->
<g id="edge7_Node000001_Node000008" class="edge">
<title>Node1&#45;&gt;Node8</title>
<g id="a_edge7_Node000001_Node000008"><a xlink:title=" ">
<path fill="none" stroke="#63b8ff" d="M661.99,-146C651.94,-146 641.77,-146 631.84,-146"/>
<polygon fill="#63b8ff" stroke="#63b8ff" points="661.77,-149.5 671.77,-146 661.77,-142.5 661.77,-149.5"/>
</a>
</g>
</g>
<!-- Node9 -->
<g id="Node000009" class="node">
<title>Node9</title>
<g id="a_Node000009"><a xlink:href="../../d0/d80/class_deluxe_1_1_deluxe_brand_center_1_1_a_m_m_1_1_infrastructure_1_1_a_w_s_1_1_s3_1_1_amazon_s3_service.html#acde7f15d01cfda39f39c3b82cc32c404" target="_top" xlink:title=" ">
<polygon fill="white" stroke="#666666" points="631.5,-106 452,-106 452,-62 631.5,-62 631.5,-106"/>
<text text-anchor="start" x="460" y="-92.5" font-family="Helvetica,sans-Serif" font-size="10.00">Deluxe.DeluxeBrandCenter.</text>
<text text-anchor="start" x="460" y="-80.5" font-family="Helvetica,sans-Serif" font-size="10.00">AMM.Infrastructure.AWS.S3.Amazon</text>
<text text-anchor="middle" x="541.75" y="-68.5" font-family="Helvetica,sans-Serif" font-size="10.00">S3Service.DownloadString</text>
</a>
</g>
</g>
<!-- Node1&#45;&gt;Node9 -->
<g id="edge8_Node000001_Node000009" class="edge">
<title>Node1&#45;&gt;Node9</title>
<g id="a_edge8_Node000001_Node000009"><a xlink:title=" ">
<path fill="none" stroke="#63b8ff" d="M671.99,-120.51C655.55,-115.86 638.51,-111.05 622.4,-106.5"/>
<polygon fill="#63b8ff" stroke="#63b8ff" points="670.66,-123.77 681.24,-123.12 672.57,-117.03 670.66,-123.77"/>
</a>
</g>
</g>
<!-- Node10 -->
<g id="Node000010" class="node">
<title>Node10</title>
<g id="a_Node000010"><a xlink:href="../../d0/d80/class_deluxe_1_1_deluxe_brand_center_1_1_a_m_m_1_1_infrastructure_1_1_a_w_s_1_1_s3_1_1_amazon_s3_service.html#a2ba8751acd4c3759525915972ce3ad1d" target="_top" xlink:title=" ">
<polygon fill="white" stroke="#666666" points="631.5,-44 452,-44 452,0 631.5,0 631.5,-44"/>
<text text-anchor="start" x="460" y="-30.5" font-family="Helvetica,sans-Serif" font-size="10.00">Deluxe.DeluxeBrandCenter.</text>
<text text-anchor="start" x="460" y="-18.5" font-family="Helvetica,sans-Serif" font-size="10.00">AMM.Infrastructure.AWS.S3.Amazon</text>
<text text-anchor="middle" x="541.75" y="-6.5" font-family="Helvetica,sans-Serif" font-size="10.00">S3Service.DownloadStringHTML</text>
</a>
</g>
</g>
<!-- Node1&#45;&gt;Node10 -->
<g id="edge9_Node000001_Node000010" class="edge">
<title>Node1&#45;&gt;Node10</title>
<g id="a_edge9_Node000001_Node000010"><a xlink:title=" ">
<path fill="none" stroke="#63b8ff" d="M728.9,-116.4C704.85,-96.3 670.89,-70.31 637.5,-53 631.51,-49.89 625.14,-47.01 618.66,-44.36"/>
<polygon fill="#63b8ff" stroke="#63b8ff" points="726.56,-119.01 736.45,-122.81 731.09,-113.67 726.56,-119.01"/>
</a>
</g>
</g>
<!-- Node4 -->
<g id="Node000004" class="node">
<title>Node4</title>
<g id="a_Node000004"><a xlink:href="../../d0/d80/class_deluxe_1_1_deluxe_brand_center_1_1_a_m_m_1_1_infrastructure_1_1_a_w_s_1_1_s3_1_1_amazon_s3_service.html#aa1715df107d2c604ba78e80564d67873" target="_top" xlink:title=" ">
<polygon fill="white" stroke="#666666" points="410,-230 218.5,-230 218.5,-186 410,-186 410,-230"/>
<text text-anchor="start" x="226.5" y="-216.5" font-family="Helvetica,sans-Serif" font-size="10.00">Deluxe.DeluxeBrandCenter.</text>
<text text-anchor="start" x="226.5" y="-204.5" font-family="Helvetica,sans-Serif" font-size="10.00">AMM.Infrastructure.AWS.S3.Amazon</text>
<text text-anchor="middle" x="314.25" y="-192.5" font-family="Helvetica,sans-Serif" font-size="10.00">S3Service.DownloadHTMLFromContent</text>
</a>
</g>
</g>
<!-- Node3&#45;&gt;Node4 -->
<g id="edge3_Node000003_Node000004" class="edge">
<title>Node3&#45;&gt;Node4</title>
<g id="a_edge3_Node000003_Node000004"><a xlink:title=" ">
<path fill="none" stroke="#63b8ff" d="M440.43,-208C430.44,-208 420.33,-208 410.4,-208"/>
<polygon fill="#63b8ff" stroke="#63b8ff" points="440.11,-211.5 450.11,-208 440.11,-204.5 440.11,-211.5"/>
</a>
</g>
</g>
<!-- Node5 -->
<g id="Node000005" class="node">
<title>Node5</title>
<g id="a_Node000005"><a xlink:href="../../de/d5c/class_deluxe_1_1_deluxe_brand_center_1_1_a_m_m_1_1_a_p_i_1_1_services_1_1_template_service.html#a33019745738ce300275bb203bbe6e1b1" target="_top" xlink:title=" ">
<polygon fill="white" stroke="#666666" points="180.62,-292 1.88,-292 1.88,-248 180.62,-248 180.62,-292"/>
<text text-anchor="start" x="9.88" y="-278.5" font-family="Helvetica,sans-Serif" font-size="10.00">Deluxe.DeluxeBrandCenter.</text>
<text text-anchor="start" x="9.88" y="-266.5" font-family="Helvetica,sans-Serif" font-size="10.00">AMM.API.Services.TemplateService.</text>
<text text-anchor="middle" x="91.25" y="-254.5" font-family="Helvetica,sans-Serif" font-size="10.00">GetDisclosureTextTemplate</text>
</a>
</g>
</g>
<!-- Node4&#45;&gt;Node5 -->
<g id="edge4_Node000004_Node000005" class="edge">
<title>Node4&#45;&gt;Node5</title>
<g id="a_edge4_Node000004_Node000005"><a xlink:title=" ">
<path fill="none" stroke="#63b8ff" d="M222.38,-233.49C205.82,-238.14 188.66,-242.95 172.45,-247.5"/>
<polygon fill="#63b8ff" stroke="#63b8ff" points="223.01,-236.95 231.69,-230.88 221.12,-230.21 223.01,-236.95"/>
</a>
</g>
</g>
<!-- Node6 -->
<g id="Node000006" class="node">
<title>Node6</title>
<g id="a_Node000006"><a xlink:href="../../de/d5c/class_deluxe_1_1_deluxe_brand_center_1_1_a_m_m_1_1_a_p_i_1_1_services_1_1_template_service.html#a076df808207d807cf246fbfdfd2a19d7" target="_top" xlink:title=" ">
<polygon fill="white" stroke="#666666" points="180.62,-230 1.88,-230 1.88,-186 180.62,-186 180.62,-230"/>
<text text-anchor="start" x="9.88" y="-216.5" font-family="Helvetica,sans-Serif" font-size="10.00">Deluxe.DeluxeBrandCenter.</text>
<text text-anchor="start" x="9.88" y="-204.5" font-family="Helvetica,sans-Serif" font-size="10.00">AMM.API.Services.TemplateService.</text>
<text text-anchor="middle" x="91.25" y="-192.5" font-family="Helvetica,sans-Serif" font-size="10.00">GetInsideMessageTemplate</text>
</a>
</g>
</g>
<!-- Node4&#45;&gt;Node6 -->
<g id="edge5_Node000004_Node000006" class="edge">
<title>Node4&#45;&gt;Node6</title>
<g id="a_edge5_Node000004_Node000006"><a xlink:title=" ">
<path fill="none" stroke="#63b8ff" d="M206.85,-208C198.16,-208 189.43,-208 180.89,-208"/>
<polygon fill="#63b8ff" stroke="#63b8ff" points="206.73,-211.5 216.73,-208 206.73,-204.5 206.73,-211.5"/>
</a>
</g>
</g>
<!-- Node7 -->
<g id="Node000007" class="node">
<title>Node7</title>
<g id="a_Node000007"><a xlink:href="../../de/d5c/class_deluxe_1_1_deluxe_brand_center_1_1_a_m_m_1_1_a_p_i_1_1_services_1_1_template_service.html#ae005d78b77919b82d0c844bb66c3485e" target="_top" xlink:title=" ">
<polygon fill="white" stroke="#666666" points="180.62,-168 1.88,-168 1.88,-124 180.62,-124 180.62,-168"/>
<text text-anchor="start" x="9.88" y="-154.5" font-family="Helvetica,sans-Serif" font-size="10.00">Deluxe.DeluxeBrandCenter.</text>
<text text-anchor="start" x="9.88" y="-142.5" font-family="Helvetica,sans-Serif" font-size="10.00">AMM.API.Services.TemplateService.</text>
<text text-anchor="middle" x="91.25" y="-130.5" font-family="Helvetica,sans-Serif" font-size="10.00">GetSignatureBlock</text>
</a>
</g>
</g>
<!-- Node4&#45;&gt;Node7 -->
<g id="edge6_Node000004_Node000007" class="edge">
<title>Node4&#45;&gt;Node7</title>
<g id="a_edge6_Node000004_Node000007"><a xlink:title=" ">
<path fill="none" stroke="#63b8ff" d="M222.38,-182.51C205.82,-177.86 188.66,-173.05 172.45,-168.5"/>
<polygon fill="#63b8ff" stroke="#63b8ff" points="221.12,-185.79 231.69,-185.12 223.01,-179.05 221.12,-185.79"/>
</a>
</g>
</g>
<!-- Node11 -->
<g id="Node000011" class="node">
<title>Node11</title>
<g id="a_Node000011"><a xlink:href="../../d0/d80/class_deluxe_1_1_deluxe_brand_center_1_1_a_m_m_1_1_infrastructure_1_1_a_w_s_1_1_s3_1_1_amazon_s3_service.html#ad58e540499f23fa2ea1cc8b28a0ac974" target="_top" xlink:title=" ">
<polygon fill="white" stroke="#666666" points="404,-44 224.5,-44 224.5,0 404,0 404,-44"/>
<text text-anchor="start" x="232.5" y="-30.5" font-family="Helvetica,sans-Serif" font-size="10.00">Deluxe.DeluxeBrandCenter.</text>
<text text-anchor="start" x="232.5" y="-18.5" font-family="Helvetica,sans-Serif" font-size="10.00">AMM.Infrastructure.AWS.S3.Amazon</text>
<text text-anchor="middle" x="314.25" y="-6.5" font-family="Helvetica,sans-Serif" font-size="10.00">S3Service.DownloadHtmlContent</text>
</a>
</g>
</g>
<!-- Node10&#45;&gt;Node11 -->
<g id="edge10_Node000010_Node000011" class="edge">
<title>Node10&#45;&gt;Node11</title>
<g id="a_edge10_Node000010_Node000011"><a xlink:title=" ">
<path fill="none" stroke="#63b8ff" d="M440.26,-22C428.34,-22 416.22,-22 404.46,-22"/>
<polygon fill="#63b8ff" stroke="#63b8ff" points="440.11,-25.5 450.11,-22 440.11,-18.5 440.11,-25.5"/>
</a>
</g>
</g>
<!-- Node12 -->
<g id="Node000012" class="node">
<title>Node12</title>
<g id="a_Node000012"><a xlink:href="../../d0/d80/class_deluxe_1_1_deluxe_brand_center_1_1_a_m_m_1_1_infrastructure_1_1_a_w_s_1_1_s3_1_1_amazon_s3_service.html#aced5e862e217bb0e181c968aa561e549" target="_top" xlink:title=" ">
<polygon fill="white" stroke="#666666" points="182.5,-44 0,-44 0,0 182.5,0 182.5,-44"/>
<text text-anchor="start" x="8" y="-30.5" font-family="Helvetica,sans-Serif" font-size="10.00">Deluxe.DeluxeBrandCenter.</text>
<text text-anchor="start" x="8" y="-18.5" font-family="Helvetica,sans-Serif" font-size="10.00">AMM.Infrastructure.AWS.S3.Amazon</text>
<text text-anchor="middle" x="91.25" y="-6.5" font-family="Helvetica,sans-Serif" font-size="10.00">S3Service.DownloadPreviewTemplate</text>
</a>
</g>
</g>
<!-- Node11&#45;&gt;Node12 -->
<g id="edge11_Node000011_Node000012" class="edge">
<title>Node11&#45;&gt;Node12</title>
<g id="a_edge11_Node000011_Node000012"><a xlink:title=" ">
<path fill="none" stroke="#63b8ff" d="M213.01,-22C202.95,-22 192.76,-22 182.8,-22"/>
<polygon fill="#63b8ff" stroke="#63b8ff" points="212.8,-25.5 222.8,-22 212.8,-18.5 212.8,-25.5"/>
</a>
</g>
</g>
</g>
</svg>
