<?xml version="1.0" encoding="UTF-8" standalone="no"?>
<!DOCTYPE svg PUBLIC "-//W3C//DTD SVG 1.1//EN"
 "http://www.w3.org/Graphics/SVG/1.1/DTD/svg11.dtd">
<!-- Generated by graphviz version 12.1.1 (20240910.0053)
 -->
<!-- Title: Deluxe.DeluxeBrandCenter.AMM.Infrastructure.Mindfire.AccountServiceMF Pages: 1 -->
<svg width="746pt" height="144pt"
 viewBox="0.00 0.00 746.00 144.00" xmlns="http://www.w3.org/2000/svg" xmlns:xlink="http://www.w3.org/1999/xlink">
<g id="graph0" class="graph" transform="scale(1 1) rotate(0) translate(4 140)">
<title>Deluxe.DeluxeBrandCenter.AMM.Infrastructure.Mindfire.AccountServiceMF</title>
<!-- Node1 -->
<g id="Node000001" class="node">
<title>Node1</title>
<g id="a_Node000001"><a xlink:title=" ">
<polygon fill="#999999" stroke="#666666" points="738,-94 561.5,-94 561.5,-50 738,-50 738,-94"/>
<text text-anchor="start" x="569.5" y="-80.5" font-family="Helvetica,sans-Serif" font-size="10.00">Deluxe.DeluxeBrandCenter.</text>
<text text-anchor="start" x="569.5" y="-68.5" font-family="Helvetica,sans-Serif" font-size="10.00">AMM.Infrastructure.Mindfire.Account</text>
<text text-anchor="middle" x="649.75" y="-56.5" font-family="Helvetica,sans-Serif" font-size="10.00">ServiceMF</text>
</a>
</g>
</g>
<!-- Node2 -->
<g id="Node000002" class="node">
<title>Node2</title>
<g id="a_Node000002"><a xlink:href="../../d7/d00/class_deluxe_1_1_deluxe_brand_center_1_1_a_m_m_1_1_infrastructure_1_1_mindfire_1_1_base_mindfire_service.html" target="_top" xlink:title=" ">
<polygon fill="white" stroke="#666666" points="437.75,-120 331.75,-120 331.75,-100 437.75,-100 437.75,-120"/>
<text text-anchor="middle" x="384.75" y="-106.5" font-family="Helvetica,sans-Serif" font-size="10.00">BaseMindfireService</text>
</a>
</g>
</g>
<!-- Node2&#45;&gt;Node1 -->
<g id="edge1_Node000001_Node000002" class="edge">
<title>Node2&#45;&gt;Node1</title>
<g id="a_edge1_Node000001_Node000002"><a xlink:title=" ">
<path fill="none" stroke="#63b8ff" d="M449.08,-100.85C482.67,-96 524.45,-89.96 561.1,-84.66"/>
<polygon fill="#63b8ff" stroke="#63b8ff" points="448.92,-97.34 439.52,-102.23 449.92,-104.26 448.92,-97.34"/>
</a>
</g>
</g>
<!-- Node3 -->
<g id="Node000003" class="node">
<title>Node3</title>
<g id="a_Node000003"><a xlink:href="../../de/d4f/interface_deluxe_1_1_deluxe_brand_center_1_1_a_m_m_1_1_infrastructure_1_1_mindfire_1_1_i_base_mindfire_service.html" target="_top" xlink:title=" ">
<polygon fill="white" stroke="#666666" points="150.25,-72 41.25,-72 41.25,-52 150.25,-52 150.25,-72"/>
<text text-anchor="middle" x="95.75" y="-58.5" font-family="Helvetica,sans-Serif" font-size="10.00">IBaseMindfireService</text>
</a>
</g>
</g>
<!-- Node3&#45;&gt;Node2 -->
<g id="edge2_Node000002_Node000003" class="edge">
<title>Node3&#45;&gt;Node2</title>
<g id="a_edge2_Node000002_Node000003"><a xlink:title=" ">
<path fill="none" stroke="#63b8ff" d="M162.02,-72.92C213.33,-81.5 283.84,-93.29 331.46,-101.25"/>
<polygon fill="#63b8ff" stroke="#63b8ff" points="162.67,-69.48 152.23,-71.28 161.51,-76.38 162.67,-69.48"/>
</a>
</g>
</g>
<!-- Node5 -->
<g id="Node000005" class="node">
<title>Node5</title>
<g id="a_Node000005"><a xlink:href="../../d2/df2/interface_deluxe_1_1_deluxe_brand_center_1_1_a_m_m_1_1_infrastructure_1_1_mindfire_1_1_i_account_service_m_f.html" target="_top" xlink:title=" ">
<polygon fill="white" stroke="#666666" points="435.88,-82 333.62,-82 333.62,-62 435.88,-62 435.88,-82"/>
<text text-anchor="middle" x="384.75" y="-68.5" font-family="Helvetica,sans-Serif" font-size="10.00">IAccountServiceMF</text>
</a>
</g>
</g>
<!-- Node3&#45;&gt;Node5 -->
<g id="edge5_Node000005_Node000003" class="edge">
<title>Node3&#45;&gt;Node5</title>
<g id="a_edge5_Node000005_Node000003"><a xlink:title=" ">
<path fill="none" stroke="#63b8ff" d="M162.17,-64.28C214.15,-66.09 285.79,-68.59 333.38,-70.24"/>
<polygon fill="#63b8ff" stroke="#63b8ff" points="162.36,-60.78 152.25,-63.93 162.12,-67.78 162.36,-60.78"/>
</a>
</g>
</g>
<!-- Node6 -->
<g id="Node000006" class="node">
<title>Node6</title>
<g id="a_Node000006"><a xlink:href="../../d0/d33/interface_deluxe_1_1_deluxe_brand_center_1_1_a_m_m_1_1_infrastructure_1_1_mindfire_1_1_i_user_service_m_f.html" target="_top" xlink:title=" ">
<polygon fill="white" stroke="#666666" points="467,-44 302.5,-44 302.5,0 467,0 467,-44"/>
<text text-anchor="start" x="310.5" y="-30.5" font-family="Helvetica,sans-Serif" font-size="10.00">Deluxe.DeluxeBrandCenter.</text>
<text text-anchor="start" x="310.5" y="-18.5" font-family="Helvetica,sans-Serif" font-size="10.00">AMM.Infrastructure.Mindfire.IUser</text>
<text text-anchor="middle" x="384.75" y="-6.5" font-family="Helvetica,sans-Serif" font-size="10.00">ServiceMF</text>
</a>
</g>
</g>
<!-- Node3&#45;&gt;Node6 -->
<g id="edge7_Node000006_Node000003" class="edge">
<title>Node3&#45;&gt;Node6</title>
<g id="a_edge7_Node000006_Node000003"><a xlink:title=" ">
<path fill="none" stroke="#63b8ff" d="M162.09,-52.89C203.61,-47.11 257.69,-39.57 302.04,-33.39"/>
<polygon fill="#63b8ff" stroke="#63b8ff" points="161.65,-49.42 152.23,-54.27 162.62,-56.35 161.65,-49.42"/>
</a>
</g>
</g>
<!-- Node4 -->
<g id="Node000004" class="node">
<title>Node4</title>
<g id="a_Node000004"><a xlink:href="../../dd/d7d/interface_deluxe_1_1_deluxe_brand_center_1_1_a_m_m_1_1_domain_1_1_services_1_1_i_session_service.html" target="_top" xlink:title=" ">
<polygon fill="white" stroke="#666666" points="191.5,-136 0,-136 0,-104 191.5,-104 191.5,-136"/>
<text text-anchor="start" x="8" y="-122.5" font-family="Helvetica,sans-Serif" font-size="10.00">Deluxe.DeluxeBrandCenter.</text>
<text text-anchor="middle" x="95.75" y="-110.5" font-family="Helvetica,sans-Serif" font-size="10.00">AMM.Domain.Services.ISessionService</text>
</a>
</g>
</g>
<!-- Node4&#45;&gt;Node2 -->
<g id="edge3_Node000002_Node000004" class="edge">
<title>Node4&#45;&gt;Node2</title>
<g id="a_edge3_Node000002_Node000004"><a xlink:title=" ">
<path fill="none" stroke="#9a32cd" stroke-dasharray="5,2" d="M203.23,-116.29C247,-114.76 295.71,-113.07 331.49,-111.82"/>
<polygon fill="#9a32cd" stroke="#9a32cd" points="203.3,-112.79 193.43,-116.63 203.55,-119.78 203.3,-112.79"/>
</a>
</g>
<text text-anchor="middle" x="247" y="-118.4" font-family="Helvetica,sans-Serif" font-size="10.00" fill="grey"> _sessionService</text>
</g>
<!-- Node5&#45;&gt;Node1 -->
<g id="edge4_Node000001_Node000005" class="edge">
<title>Node5&#45;&gt;Node1</title>
<g id="a_edge4_Node000001_Node000005"><a xlink:title=" ">
<path fill="none" stroke="#63b8ff" d="M447.29,-72C481.21,-72 523.89,-72 561.23,-72"/>
<polygon fill="#63b8ff" stroke="#63b8ff" points="447.66,-68.5 437.66,-72 447.66,-75.5 447.66,-68.5"/>
</a>
</g>
</g>
<!-- Node6&#45;&gt;Node1 -->
<g id="edge6_Node000001_Node000006" class="edge">
<title>Node6&#45;&gt;Node1</title>
<g id="a_edge6_Node000001_Node000006"><a xlink:title=" ">
<path fill="none" stroke="#9a32cd" stroke-dasharray="5,2" d="M478.18,-39.57C505.2,-44.71 534.64,-50.31 561.33,-55.38"/>
<polygon fill="#9a32cd" stroke="#9a32cd" points="479.13,-36.19 468.65,-37.76 477.82,-43.07 479.13,-36.19"/>
</a>
</g>
<text text-anchor="middle" x="514.25" y="-53.98" font-family="Helvetica,sans-Serif" font-size="10.00" fill="grey"> _userservice</text>
</g>
</g>
</svg>
