<?xml version="1.0" encoding="UTF-8" standalone="no"?>
<!DOCTYPE svg PUBLIC "-//W3C//DTD SVG 1.1//EN"
 "http://www.w3.org/Graphics/SVG/1.1/DTD/svg11.dtd">
<!-- Generated by graphviz version 12.1.1 (20240910.0053)
 -->
<!-- Title: Deluxe.DeluxeBrandCenter.AMM.ScriptRunner.Models.CsvLogger.Log Pages: 1 -->
<svg width="926pt" height="52pt"
 viewBox="0.00 0.00 926.25 52.00" xmlns="http://www.w3.org/2000/svg" xmlns:xlink="http://www.w3.org/1999/xlink">
<g id="graph0" class="graph" transform="scale(1 1) rotate(0) translate(4 48)">
<title>Deluxe.DeluxeBrandCenter.AMM.ScriptRunner.Models.CsvLogger.Log</title>
<!-- Node1 -->
<g id="Node000001" class="node">
<title>Node1</title>
<g id="a_Node000001"><a xlink:title="Adds log object to cache. If cache is full, it will be appended to file and cleared.">
<polygon fill="#999999" stroke="#666666" points="202.75,-38 0,-38 0,-6 202.75,-6 202.75,-38"/>
<text text-anchor="start" x="8" y="-24.5" font-family="Helvetica,sans-Serif" font-size="10.00">Deluxe.DeluxeBrandCenter.</text>
<text text-anchor="middle" x="101.38" y="-12.5" font-family="Helvetica,sans-Serif" font-size="10.00">AMM.ScriptRunner.Models.CsvLogger.Log</text>
</a>
</g>
</g>
<!-- Node2 -->
<g id="Node000002" class="node">
<title>Node2</title>
<g id="a_Node000002"><a xlink:href="../../d7/db5/class_deluxe_1_1_deluxe_brand_center_1_1_a_m_m_1_1_script_runner_1_1_models_1_1_csv_logger.html#a97659b1daa3b86a4388fc3eb0c9d0c84" target="_top" xlink:title=" ">
<polygon fill="white" stroke="#666666" points="449.75,-38 238.75,-38 238.75,-6 449.75,-6 449.75,-38"/>
<text text-anchor="start" x="246.75" y="-24.5" font-family="Helvetica,sans-Serif" font-size="10.00">Deluxe.DeluxeBrandCenter.</text>
<text text-anchor="middle" x="344.25" y="-12.5" font-family="Helvetica,sans-Serif" font-size="10.00">AMM.ScriptRunner.Models.CsvLogger.Flush</text>
</a>
</g>
</g>
<!-- Node1&#45;&gt;Node2 -->
<g id="edge1_Node000001_Node000002" class="edge">
<title>Node1&#45;&gt;Node2</title>
<g id="a_edge1_Node000001_Node000002"><a xlink:title=" ">
<path fill="none" stroke="#63b8ff" d="M203.13,-22C211.11,-22 219.2,-22 227.26,-22"/>
<polygon fill="#63b8ff" stroke="#63b8ff" points="227.12,-25.5 237.12,-22 227.12,-18.5 227.12,-25.5"/>
</a>
</g>
</g>
<!-- Node3 -->
<g id="Node000003" class="node">
<title>Node3</title>
<g id="a_Node000003"><a xlink:href="../../d7/db5/class_deluxe_1_1_deluxe_brand_center_1_1_a_m_m_1_1_script_runner_1_1_models_1_1_csv_logger.html#a1ec48479b051f2785dd41a83b3803711" target="_top" xlink:title=" ">
<polygon fill="white" stroke="#666666" points="695.25,-38 485.75,-38 485.75,-6 695.25,-6 695.25,-38"/>
<text text-anchor="start" x="493.75" y="-24.5" font-family="Helvetica,sans-Serif" font-size="10.00">Deluxe.DeluxeBrandCenter.</text>
<text text-anchor="middle" x="590.5" y="-12.5" font-family="Helvetica,sans-Serif" font-size="10.00">AMM.ScriptRunner.Models.CsvLogger.Save</text>
</a>
</g>
</g>
<!-- Node2&#45;&gt;Node3 -->
<g id="edge2_Node000002_Node000003" class="edge">
<title>Node2&#45;&gt;Node3</title>
<g id="a_edge2_Node000002_Node000003"><a xlink:title=" ">
<path fill="none" stroke="#63b8ff" d="M449.9,-22C457.91,-22 466.02,-22 474.09,-22"/>
<polygon fill="#63b8ff" stroke="#63b8ff" points="473.95,-25.5 483.95,-22 473.95,-18.5 473.95,-25.5"/>
</a>
</g>
</g>
<!-- Node4 -->
<g id="Node000004" class="node">
<title>Node4</title>
<g id="a_Node000004"><a xlink:href="../../d7/db5/class_deluxe_1_1_deluxe_brand_center_1_1_a_m_m_1_1_script_runner_1_1_models_1_1_csv_logger.html#a042bd0101be154aa1275bc2d93a84de1" target="_top" xlink:title=" ">
<polygon fill="white" stroke="#666666" points="918.25,-44 731.25,-44 731.25,0 918.25,0 918.25,-44"/>
<text text-anchor="start" x="739.25" y="-30.5" font-family="Helvetica,sans-Serif" font-size="10.00">Deluxe.DeluxeBrandCenter.</text>
<text text-anchor="start" x="739.25" y="-18.5" font-family="Helvetica,sans-Serif" font-size="10.00">AMM.ScriptRunner.Models.CsvLogger.</text>
<text text-anchor="middle" x="824.75" y="-6.5" font-family="Helvetica,sans-Serif" font-size="10.00">SaveProcessed</text>
</a>
</g>
</g>
<!-- Node3&#45;&gt;Node4 -->
<g id="edge3_Node000003_Node000004" class="edge">
<title>Node3&#45;&gt;Node4</title>
<g id="a_edge3_Node000003_Node000004"><a xlink:title=" ">
<path fill="none" stroke="#63b8ff" d="M695.74,-22C703.6,-22 711.53,-22 719.39,-22"/>
<polygon fill="#63b8ff" stroke="#63b8ff" points="719.32,-25.5 729.32,-22 719.32,-18.5 719.32,-25.5"/>
</a>
</g>
</g>
</g>
</svg>
