<?xml version="1.0" encoding="UTF-8" standalone="no"?>
<!DOCTYPE svg PUBLIC "-//W3C//DTD SVG 1.1//EN"
 "http://www.w3.org/Graphics/SVG/1.1/DTD/svg11.dtd">
<!-- Generated by graphviz version 12.1.1 (20240910.0053)
 -->
<!-- Title: Deluxe.DeluxeBrandCenter.AMM.ScriptRunner.Models.CsvLogger.Flush Pages: 1 -->
<svg width="688pt" height="52pt"
 viewBox="0.00 0.00 687.50 52.00" xmlns="http://www.w3.org/2000/svg" xmlns:xlink="http://www.w3.org/1999/xlink">
<g id="graph0" class="graph" transform="scale(1 1) rotate(0) translate(4 48)">
<title>Deluxe.DeluxeBrandCenter.AMM.ScriptRunner.Models.CsvLogger.Flush</title>
<!-- Node1 -->
<g id="Node000001" class="node">
<title>Node1</title>
<g id="a_Node000001"><a xlink:title=" ">
<polygon fill="#999999" stroke="#666666" points="211,-38 0,-38 0,-6 211,-6 211,-38"/>
<text text-anchor="start" x="8" y="-24.5" font-family="Helvetica,sans-Serif" font-size="10.00">Deluxe.DeluxeBrandCenter.</text>
<text text-anchor="middle" x="105.5" y="-12.5" font-family="Helvetica,sans-Serif" font-size="10.00">AMM.ScriptRunner.Models.CsvLogger.Flush</text>
</a>
</g>
</g>
<!-- Node2 -->
<g id="Node000002" class="node">
<title>Node2</title>
<g id="a_Node000002"><a xlink:href="../../d7/db5/class_deluxe_1_1_deluxe_brand_center_1_1_a_m_m_1_1_script_runner_1_1_models_1_1_csv_logger.html#a1ec48479b051f2785dd41a83b3803711" target="_top" xlink:title=" ">
<polygon fill="white" stroke="#666666" points="456.5,-38 247,-38 247,-6 456.5,-6 456.5,-38"/>
<text text-anchor="start" x="255" y="-24.5" font-family="Helvetica,sans-Serif" font-size="10.00">Deluxe.DeluxeBrandCenter.</text>
<text text-anchor="middle" x="351.75" y="-12.5" font-family="Helvetica,sans-Serif" font-size="10.00">AMM.ScriptRunner.Models.CsvLogger.Save</text>
</a>
</g>
</g>
<!-- Node1&#45;&gt;Node2 -->
<g id="edge1_Node000001_Node000002" class="edge">
<title>Node1&#45;&gt;Node2</title>
<g id="a_edge1_Node000001_Node000002"><a xlink:title=" ">
<path fill="none" stroke="#63b8ff" d="M211.15,-22C219.16,-22 227.27,-22 235.34,-22"/>
<polygon fill="#63b8ff" stroke="#63b8ff" points="235.2,-25.5 245.2,-22 235.2,-18.5 235.2,-25.5"/>
</a>
</g>
</g>
<!-- Node3 -->
<g id="Node000003" class="node">
<title>Node3</title>
<g id="a_Node000003"><a xlink:href="../../d7/db5/class_deluxe_1_1_deluxe_brand_center_1_1_a_m_m_1_1_script_runner_1_1_models_1_1_csv_logger.html#a042bd0101be154aa1275bc2d93a84de1" target="_top" xlink:title=" ">
<polygon fill="white" stroke="#666666" points="679.5,-44 492.5,-44 492.5,0 679.5,0 679.5,-44"/>
<text text-anchor="start" x="500.5" y="-30.5" font-family="Helvetica,sans-Serif" font-size="10.00">Deluxe.DeluxeBrandCenter.</text>
<text text-anchor="start" x="500.5" y="-18.5" font-family="Helvetica,sans-Serif" font-size="10.00">AMM.ScriptRunner.Models.CsvLogger.</text>
<text text-anchor="middle" x="586" y="-6.5" font-family="Helvetica,sans-Serif" font-size="10.00">SaveProcessed</text>
</a>
</g>
</g>
<!-- Node2&#45;&gt;Node3 -->
<g id="edge2_Node000002_Node000003" class="edge">
<title>Node2&#45;&gt;Node3</title>
<g id="a_edge2_Node000002_Node000003"><a xlink:title=" ">
<path fill="none" stroke="#63b8ff" d="M456.99,-22C464.85,-22 472.78,-22 480.64,-22"/>
<polygon fill="#63b8ff" stroke="#63b8ff" points="480.57,-25.5 490.57,-22 480.57,-18.5 480.57,-25.5"/>
</a>
</g>
</g>
</g>
</svg>
