<?xml version="1.0" encoding="UTF-8" standalone="no"?>
<!DOCTYPE svg PUBLIC "-//W3C//DTD SVG 1.1//EN"
 "http://www.w3.org/Graphics/SVG/1.1/DTD/svg11.dtd">
<!-- Generated by graphviz version 12.1.1 (20240910.0053)
 -->
<!-- Title: Deluxe.DeluxeBrandCenter.AMM.ScriptRunner.Models.CsvLogger.CsvLogger Pages: 1 -->
<svg width="641pt" height="70pt"
 viewBox="0.00 0.00 641.00 70.00" xmlns="http://www.w3.org/2000/svg" xmlns:xlink="http://www.w3.org/1999/xlink">
<g id="graph0" class="graph" transform="scale(1 1) rotate(0) translate(4 66)">
<title>Deluxe.DeluxeBrandCenter.AMM.ScriptRunner.Models.CsvLogger.CsvLogger</title>
<!-- Node1 -->
<g id="Node000001" class="node">
<title>Node1</title>
<g id="a_Node000001"><a xlink:title="script logger constructor">
<polygon fill="#999999" stroke="#666666" points="187,-44 0,-44 0,0 187,0 187,-44"/>
<text text-anchor="start" x="8" y="-30.5" font-family="Helvetica,sans-Serif" font-size="10.00">Deluxe.DeluxeBrandCenter.</text>
<text text-anchor="start" x="8" y="-18.5" font-family="Helvetica,sans-Serif" font-size="10.00">AMM.ScriptRunner.Models.CsvLogger.</text>
<text text-anchor="middle" x="93.5" y="-6.5" font-family="Helvetica,sans-Serif" font-size="10.00">CsvLogger</text>
</a>
</g>
</g>
<!-- Node2 -->
<g id="Node000002" class="node">
<title>Node2</title>
<g id="a_Node000002"><a xlink:href="../../d7/db5/class_deluxe_1_1_deluxe_brand_center_1_1_a_m_m_1_1_script_runner_1_1_models_1_1_csv_logger.html#aad46b1b3d202949c1390b7e6b1a3828d" target="_top" xlink:title=" ">
<polygon fill="white" stroke="#666666" points="410,-44 223,-44 223,0 410,0 410,-44"/>
<text text-anchor="start" x="231" y="-30.5" font-family="Helvetica,sans-Serif" font-size="10.00">Deluxe.DeluxeBrandCenter.</text>
<text text-anchor="start" x="231" y="-18.5" font-family="Helvetica,sans-Serif" font-size="10.00">AMM.ScriptRunner.Models.CsvLogger.</text>
<text text-anchor="middle" x="316.5" y="-6.5" font-family="Helvetica,sans-Serif" font-size="10.00">LoadProcessed</text>
</a>
</g>
</g>
<!-- Node1&#45;&gt;Node2 -->
<g id="edge1_Node000001_Node000002" class="edge">
<title>Node1&#45;&gt;Node2</title>
<g id="a_edge1_Node000001_Node000002"><a xlink:title=" ">
<path fill="none" stroke="#63b8ff" d="M187.26,-22C195.21,-22 203.29,-22 211.32,-22"/>
<polygon fill="#63b8ff" stroke="#63b8ff" points="211.11,-25.5 221.11,-22 211.11,-18.5 211.11,-25.5"/>
</a>
</g>
</g>
<!-- Node3 -->
<g id="Node000003" class="node">
<title>Node3</title>
<g id="a_Node000003"><a xlink:href="../../d7/db5/class_deluxe_1_1_deluxe_brand_center_1_1_a_m_m_1_1_script_runner_1_1_models_1_1_csv_logger.html#a0d42afe820a282c391378bccb8dee159" target="_top" xlink:title=" ">
<polygon fill="white" stroke="#666666" points="633,-44 446,-44 446,0 633,0 633,-44"/>
<text text-anchor="start" x="454" y="-30.5" font-family="Helvetica,sans-Serif" font-size="10.00">Deluxe.DeluxeBrandCenter.</text>
<text text-anchor="start" x="454" y="-18.5" font-family="Helvetica,sans-Serif" font-size="10.00">AMM.ScriptRunner.Models.CsvLogger.</text>
<text text-anchor="middle" x="539.5" y="-6.5" font-family="Helvetica,sans-Serif" font-size="10.00">ProcessedRecord</text>
</a>
</g>
</g>
<!-- Node2&#45;&gt;Node3 -->
<g id="edge2_Node000002_Node000003" class="edge">
<title>Node2&#45;&gt;Node3</title>
<g id="a_edge2_Node000002_Node000003"><a xlink:title=" ">
<path fill="none" stroke="#63b8ff" d="M410.26,-22C418.21,-22 426.29,-22 434.32,-22"/>
<polygon fill="#63b8ff" stroke="#63b8ff" points="434.11,-25.5 444.11,-22 434.11,-18.5 434.11,-25.5"/>
</a>
</g>
</g>
<!-- Node3&#45;&gt;Node3 -->
<g id="edge3_Node000003_Node000003" class="edge">
<title>Node3&#45;&gt;Node3</title>
<g id="a_edge3_Node000003_Node000003"><a xlink:title=" ">
<path fill="none" stroke="#63b8ff" d="M498.19,-44.21C494.81,-53.8 508.58,-62 539.5,-62 557.86,-62 570.17,-59.11 576.44,-54.75"/>
<polygon fill="#63b8ff" stroke="#63b8ff" points="579.63,-56.19 580.23,-45.61 573.17,-53.51 579.63,-56.19"/>
</a>
</g>
</g>
</g>
</svg>
