<?xml version="1.0" encoding="UTF-8" standalone="no"?>
<!DOCTYPE svg PUBLIC "-//W3C//DTD SVG 1.1//EN"
 "http://www.w3.org/Graphics/SVG/1.1/DTD/svg11.dtd">
<!-- Generated by graphviz version 12.1.1 (20240910.0053)
 -->
<!-- Title: Deluxe.DeluxeBrandCenter.AMM.ScriptRunner.Models.CsvLogger.Finish Pages: 1 -->
<svg width="911pt" height="52pt"
 viewBox="0.00 0.00 910.50 52.00" xmlns="http://www.w3.org/2000/svg" xmlns:xlink="http://www.w3.org/1999/xlink">
<g id="graph0" class="graph" transform="scale(1 1) rotate(0) translate(4 48)">
<title>Deluxe.DeluxeBrandCenter.AMM.ScriptRunner.Models.CsvLogger.Finish</title>
<!-- Node1 -->
<g id="Node000001" class="node">
<title>Node1</title>
<g id="a_Node000001"><a xlink:title="Finish logging. Flushes remaining log cache to file.">
<polygon fill="#999999" stroke="#666666" points="187,-44 0,-44 0,0 187,0 187,-44"/>
<text text-anchor="start" x="8" y="-30.5" font-family="Helvetica,sans-Serif" font-size="10.00">Deluxe.DeluxeBrandCenter.</text>
<text text-anchor="start" x="8" y="-18.5" font-family="Helvetica,sans-Serif" font-size="10.00">AMM.ScriptRunner.Models.CsvLogger.</text>
<text text-anchor="middle" x="93.5" y="-6.5" font-family="Helvetica,sans-Serif" font-size="10.00">Finish</text>
</a>
</g>
</g>
<!-- Node2 -->
<g id="Node000002" class="node">
<title>Node2</title>
<g id="a_Node000002"><a xlink:href="../../d7/db5/class_deluxe_1_1_deluxe_brand_center_1_1_a_m_m_1_1_script_runner_1_1_models_1_1_csv_logger.html#a97659b1daa3b86a4388fc3eb0c9d0c84" target="_top" xlink:title=" ">
<polygon fill="white" stroke="#666666" points="434,-38 223,-38 223,-6 434,-6 434,-38"/>
<text text-anchor="start" x="231" y="-24.5" font-family="Helvetica,sans-Serif" font-size="10.00">Deluxe.DeluxeBrandCenter.</text>
<text text-anchor="middle" x="328.5" y="-12.5" font-family="Helvetica,sans-Serif" font-size="10.00">AMM.ScriptRunner.Models.CsvLogger.Flush</text>
</a>
</g>
</g>
<!-- Node1&#45;&gt;Node2 -->
<g id="edge1_Node000001_Node000002" class="edge">
<title>Node1&#45;&gt;Node2</title>
<g id="a_edge1_Node000001_Node000002"><a xlink:title=" ">
<path fill="none" stroke="#63b8ff" d="M187.26,-22C195.19,-22 203.28,-22 211.37,-22"/>
<polygon fill="#63b8ff" stroke="#63b8ff" points="211.27,-25.5 221.27,-22 211.27,-18.5 211.27,-25.5"/>
</a>
</g>
</g>
<!-- Node3 -->
<g id="Node000003" class="node">
<title>Node3</title>
<g id="a_Node000003"><a xlink:href="../../d7/db5/class_deluxe_1_1_deluxe_brand_center_1_1_a_m_m_1_1_script_runner_1_1_models_1_1_csv_logger.html#a1ec48479b051f2785dd41a83b3803711" target="_top" xlink:title=" ">
<polygon fill="white" stroke="#666666" points="679.5,-38 470,-38 470,-6 679.5,-6 679.5,-38"/>
<text text-anchor="start" x="478" y="-24.5" font-family="Helvetica,sans-Serif" font-size="10.00">Deluxe.DeluxeBrandCenter.</text>
<text text-anchor="middle" x="574.75" y="-12.5" font-family="Helvetica,sans-Serif" font-size="10.00">AMM.ScriptRunner.Models.CsvLogger.Save</text>
</a>
</g>
</g>
<!-- Node2&#45;&gt;Node3 -->
<g id="edge2_Node000002_Node000003" class="edge">
<title>Node2&#45;&gt;Node3</title>
<g id="a_edge2_Node000002_Node000003"><a xlink:title=" ">
<path fill="none" stroke="#63b8ff" d="M434.15,-22C442.16,-22 450.27,-22 458.34,-22"/>
<polygon fill="#63b8ff" stroke="#63b8ff" points="458.2,-25.5 468.2,-22 458.2,-18.5 458.2,-25.5"/>
</a>
</g>
</g>
<!-- Node4 -->
<g id="Node000004" class="node">
<title>Node4</title>
<g id="a_Node000004"><a xlink:href="../../d7/db5/class_deluxe_1_1_deluxe_brand_center_1_1_a_m_m_1_1_script_runner_1_1_models_1_1_csv_logger.html#a042bd0101be154aa1275bc2d93a84de1" target="_top" xlink:title=" ">
<polygon fill="white" stroke="#666666" points="902.5,-44 715.5,-44 715.5,0 902.5,0 902.5,-44"/>
<text text-anchor="start" x="723.5" y="-30.5" font-family="Helvetica,sans-Serif" font-size="10.00">Deluxe.DeluxeBrandCenter.</text>
<text text-anchor="start" x="723.5" y="-18.5" font-family="Helvetica,sans-Serif" font-size="10.00">AMM.ScriptRunner.Models.CsvLogger.</text>
<text text-anchor="middle" x="809" y="-6.5" font-family="Helvetica,sans-Serif" font-size="10.00">SaveProcessed</text>
</a>
</g>
</g>
<!-- Node3&#45;&gt;Node4 -->
<g id="edge3_Node000003_Node000004" class="edge">
<title>Node3&#45;&gt;Node4</title>
<g id="a_edge3_Node000003_Node000004"><a xlink:title=" ">
<path fill="none" stroke="#63b8ff" d="M679.99,-22C687.85,-22 695.78,-22 703.64,-22"/>
<polygon fill="#63b8ff" stroke="#63b8ff" points="703.57,-25.5 713.57,-22 703.57,-18.5 703.57,-25.5"/>
</a>
</g>
</g>
</g>
</svg>
