<?xml version="1.0" encoding="UTF-8" standalone="no"?>
<!DOCTYPE svg PUBLIC "-//W3C//DTD SVG 1.1//EN"
 "http://www.w3.org/Graphics/SVG/1.1/DTD/svg11.dtd">
<!-- Generated by graphviz version 12.1.1 (20240910.0053)
 -->
<!-- Title: Deluxe.DeluxeBrandCenter.AMM.Domain.ITable&lt; T &gt; Pages: 1 -->
<svg width="384pt" height="152pt"
 viewBox="0.00 0.00 384.25 152.00" xmlns="http://www.w3.org/2000/svg" xmlns:xlink="http://www.w3.org/1999/xlink">
<g id="graph0" class="graph" transform="scale(1 1) rotate(0) translate(4 148)">
<title>Deluxe.DeluxeBrandCenter.AMM.Domain.ITable&lt; T &gt;</title>
<!-- Node1 -->
<g id="Node000001" class="node">
<title>Node1</title>
<g id="a_Node000001"><a xlink:title="Interface implements ITableReader, ITableWriter, ITableEditor.">
<polygon fill="#999999" stroke="#666666" points="229.62,-32 91.38,-32 91.38,0 229.62,0 229.62,-32"/>
<text text-anchor="start" x="99.38" y="-18.5" font-family="Helvetica,sans-Serif" font-size="10.00">Deluxe.DeluxeBrandCenter.</text>
<text text-anchor="middle" x="160.5" y="-6.5" font-family="Helvetica,sans-Serif" font-size="10.00">AMM.Domain.ITable&lt; T &gt;</text>
</a>
</g>
</g>
<!-- Node2 -->
<g id="Node000002" class="node">
<title>Node2</title>
<g id="a_Node000002"><a xlink:href="../../d3/dd6/interface_deluxe_1_1_deluxe_brand_center_1_1_a_m_m_1_1_domain_1_1_i_table_reader.html" target="_top" xlink:title=" ">
<polygon fill="white" stroke="#666666" points="97,-88 0,-88 0,-68 97,-68 97,-88"/>
<text text-anchor="middle" x="48.5" y="-74.5" font-family="Helvetica,sans-Serif" font-size="10.00">ITableReader&lt; T &gt;</text>
</a>
</g>
</g>
<!-- Node2&#45;&gt;Node1 -->
<g id="edge1_Node000001_Node000002" class="edge">
<title>Node2&#45;&gt;Node1</title>
<g id="a_edge1_Node000001_Node000002"><a xlink:title=" ">
<path fill="none" stroke="#63b8ff" d="M75.86,-62.34C92.83,-53.25 114.59,-41.59 131.8,-32.37"/>
<polygon fill="#63b8ff" stroke="#63b8ff" points="74.5,-59.1 67.33,-66.91 77.8,-65.27 74.5,-59.1"/>
</a>
</g>
</g>
<!-- Node3 -->
<g id="Node000003" class="node">
<title>Node3</title>
<g id="a_Node000003"><a xlink:href="../../df/d98/interface_deluxe_1_1_deluxe_brand_center_1_1_a_m_m_1_1_domain_1_1_i_table_writer.html" target="_top" xlink:title="Interface for writing that has SetValue.">
<polygon fill="white" stroke="#666666" points="206,-88 115,-88 115,-68 206,-68 206,-88"/>
<text text-anchor="middle" x="160.5" y="-74.5" font-family="Helvetica,sans-Serif" font-size="10.00">ITableWriter&lt; T &gt;</text>
</a>
</g>
</g>
<!-- Node3&#45;&gt;Node1 -->
<g id="edge2_Node000001_Node000003" class="edge">
<title>Node3&#45;&gt;Node1</title>
<g id="a_edge2_Node000001_Node000003"><a xlink:title=" ">
<path fill="none" stroke="#63b8ff" d="M160.5,-56.31C160.5,-48.37 160.5,-39.46 160.5,-32.14"/>
<polygon fill="#63b8ff" stroke="#63b8ff" points="157,-56.11 160.5,-66.11 164,-56.11 157,-56.11"/>
</a>
</g>
</g>
<!-- Node4 -->
<g id="Node000004" class="node">
<title>Node4</title>
<g id="a_Node000004"><a xlink:href="../../de/d9e/interface_deluxe_1_1_deluxe_brand_center_1_1_a_m_m_1_1_domain_1_1_i_table_editor.html" target="_top" xlink:title="Interface implements IRowEditor and IColumnEditor.">
<polygon fill="white" stroke="#666666" points="315,-88 224,-88 224,-68 315,-68 315,-88"/>
<text text-anchor="middle" x="269.5" y="-74.5" font-family="Helvetica,sans-Serif" font-size="10.00">ITableEditor&lt; T &gt;</text>
</a>
</g>
</g>
<!-- Node4&#45;&gt;Node1 -->
<g id="edge3_Node000001_Node000004" class="edge">
<title>Node4&#45;&gt;Node1</title>
<g id="a_edge3_Node000001_Node000004"><a xlink:title=" ">
<path fill="none" stroke="#63b8ff" d="M242.4,-62.08C225.96,-53.03 205.02,-41.51 188.43,-32.37"/>
<polygon fill="#63b8ff" stroke="#63b8ff" points="240.69,-65.14 251.14,-66.9 244.07,-59.01 240.69,-65.14"/>
</a>
</g>
</g>
<!-- Node5 -->
<g id="Node000005" class="node">
<title>Node5</title>
<g id="a_Node000005"><a xlink:href="../../d0/d81/interface_deluxe_1_1_deluxe_brand_center_1_1_a_m_m_1_1_domain_1_1_i_row_editor.html" target="_top" xlink:title="Interface for row editing that has Delete row, append row and insert row.">
<polygon fill="white" stroke="#666666" points="256.5,-144 168.5,-144 168.5,-124 256.5,-124 256.5,-144"/>
<text text-anchor="middle" x="212.5" y="-130.5" font-family="Helvetica,sans-Serif" font-size="10.00">IRowEditor&lt; T &gt;</text>
</a>
</g>
</g>
<!-- Node5&#45;&gt;Node4 -->
<g id="edge4_Node000004_Node000005" class="edge">
<title>Node5&#45;&gt;Node4</title>
<g id="a_edge4_Node000004_Node000005"><a xlink:title=" ">
<path fill="none" stroke="#63b8ff" d="M230.61,-115.85C240.24,-106.72 251.71,-95.86 259.69,-88.3"/>
<polygon fill="#63b8ff" stroke="#63b8ff" points="228.38,-113.13 223.53,-122.55 233.19,-118.22 228.38,-113.13"/>
</a>
</g>
</g>
<!-- Node6 -->
<g id="Node000006" class="node">
<title>Node6</title>
<g id="a_Node000006"><a xlink:href="../../d7/d95/interface_deluxe_1_1_deluxe_brand_center_1_1_a_m_m_1_1_domain_1_1_i_column_editor.html" target="_top" xlink:title="Interface for column editing (delete column, append column and insert column)">
<polygon fill="white" stroke="#666666" points="376.25,-144 274.75,-144 274.75,-124 376.25,-124 376.25,-144"/>
<text text-anchor="middle" x="325.5" y="-130.5" font-family="Helvetica,sans-Serif" font-size="10.00">IColumnEditor&lt; T &gt;</text>
</a>
</g>
</g>
<!-- Node6&#45;&gt;Node4 -->
<g id="edge5_Node000004_Node000006" class="edge">
<title>Node6&#45;&gt;Node4</title>
<g id="a_edge5_Node000004_Node000006"><a xlink:title=" ">
<path fill="none" stroke="#63b8ff" d="M307.71,-115.85C298.25,-106.72 286.98,-95.86 279.14,-88.3"/>
<polygon fill="#63b8ff" stroke="#63b8ff" points="305.03,-118.12 314.66,-122.54 309.89,-113.08 305.03,-118.12"/>
</a>
</g>
</g>
</g>
</svg>
