<?xml version="1.0" encoding="UTF-8" standalone="no"?>
<!DOCTYPE svg PUBLIC "-//W3C//DTD SVG 1.1//EN"
 "http://www.w3.org/Graphics/SVG/1.1/DTD/svg11.dtd">
<!-- Generated by graphviz version 12.1.1 (20240910.0053)
 -->
<!-- Title: Deluxe.DeluxeBrandCenter.AMM.ScriptRunner.Services.Scripts.SyncCampaignWithPersona Pages: 1 -->
<!--zoomable 334 -->

<svg id="main" version="1.1" xmlns="http://www.w3.org/2000/svg" xmlns:xlink="http://www.w3.org/1999/xlink" xml:space="preserve" onload="init(evt)">

<style type="text/css"><![CDATA[
.node, .edge {opacity: 0.7;}
.node.selected, .edge.selected {opacity: 1;}
.edge:hover path { stroke: red; }
.edge:hover polygon { stroke: red; fill: red; }
]]></style>

<defs>
  <circle id="rim" cx="0" cy="0" r="7"/>
  <circle id="rim2" cx="0" cy="0" r="3.5"/>
  <g id="zoomPlus">
    <use xlink:href="#rim" fill="#404040"><set attributeName="fill" to="#808080" begin="zoomplus.mouseover" end="zoomplus.mouseout"/></use>
    <path d="M-4,0h8M0,-4v8" fill="none" stroke="white" stroke-width="1.5" pointer-events="none"/>
  </g>
  <g id="zoomMin">
    <use xlink:href="#rim" fill="#404040"><set attributeName="fill" to="#808080" begin="zoomminus.mouseover" end="zoomminus.mouseout"/></use>
    <path d="M-4,0h8" fill="none" stroke="white" stroke-width="1.5" pointer-events="none"/>
  </g>
  <g id="arrowUp" transform="translate(30 24)">
    <use xlink:href="#rim"/>
    <path pointer-events="none" fill="none" stroke="white" stroke-width="1.5" d="M0,-3.0v7 M-2.5,-0.5L0,-3.0L2.5,-0.5"/>
  </g>
  <g id="arrowRight" transform="rotate(90) translate(36 -43)">
    <use xlink:href="#rim"/>
    <path pointer-events="none" fill="none" stroke="white" stroke-width="1.5" d="M0,-3.0v7 M-2.5,-0.5L0,-3.0L2.5,-0.5"/>
  </g>
  <g id="arrowDown" transform="rotate(180) translate(-30 -48)">
    <use xlink:href="#rim"/>
    <path pointer-events="none" fill="none" stroke="white" stroke-width="1.5" d="M0,-3.0v7 M-2.5,-0.5L0,-3.0L2.5,-0.5"/>
  </g>
  <g id="arrowLeft" transform="rotate(270) translate(-36 17)">
    <use xlink:href="#rim"/>
    <path pointer-events="none" fill="none" stroke="white" stroke-width="1.5" d="M0,-3.0v7 M-2.5,-0.5L0,-3.0L2.5,-0.5"/>
  </g>
  <g id="resetDef">
    <use xlink:href="#rim2" fill="#404040"><set attributeName="fill" to="#808080" begin="reset.mouseover" end="reset.mouseout"/></use>
  </g>
</defs>
<script type="application/ecmascript">
var viewWidth = 1253;
var viewHeight = 334;
var sectionId = 'dynsection-1';
</script>
<script type="application/ecmascript" xlink:href="../../svg.min.js"/>
<svg id="graph" class="graph">
<g id="viewport">
<title>Deluxe.DeluxeBrandCenter.AMM.ScriptRunner.Services.Scripts.SyncCampaignWithPersona</title>
<!-- Node1 -->
<g id="Node000001" class="node">
<title>Node1</title>
<g id="a_Node000001"><a xlink:title=" ">
<polygon fill="#999999" stroke="#666666" points="1244.5,-178 1067.25,-178 1067.25,-134 1244.5,-134 1244.5,-178"/>
<text text-anchor="start" x="1075.25" y="-164.5" font-family="Helvetica,sans-Serif" font-size="10.00">Deluxe.DeluxeBrandCenter.</text>
<text text-anchor="start" x="1075.25" y="-152.5" font-family="Helvetica,sans-Serif" font-size="10.00">AMM.ScriptRunner.Services.Scripts.</text>
<text text-anchor="middle" x="1155.88" y="-140.5" font-family="Helvetica,sans-Serif" font-size="10.00">SyncCampaignWithPersona</text>
</a>
</g>
</g>
<!-- Node2 -->
<g id="Node000002" class="node">
<title>Node2</title>
<g id="a_Node000002"><a xlink:href="../../d9/d9b/class_deluxe_1_1_deluxe_brand_center_1_1_a_m_m_1_1_script_runner_1_1_services_1_1_script.html" target="_top" xlink:title=" ">
<polygon fill="white" stroke="#666666" points="923.62,-318 726.12,-318 726.12,-286 923.62,-286 923.62,-318"/>
<text text-anchor="start" x="734.12" y="-304.5" font-family="Helvetica,sans-Serif" font-size="10.00">Script&lt; CsvLogPersonaScript</text>
<text text-anchor="middle" x="824.88" y="-292.5" font-family="Helvetica,sans-Serif" font-size="10.00">Entry, SyncCampaignWithPersonaData &gt;</text>
</a>
</g>
</g>
<!-- Node2&#45;&gt;Node1 -->
<g id="edge1_Node000001_Node000002" class="edge">
<title>Node2&#45;&gt;Node1</title>
<g id="a_edge1_Node000001_Node000002"><a xlink:title=" ">
<path fill="none" stroke="#63b8ff" d="M907.65,-282.55C914.22,-280.76 920.73,-278.9 927,-277 982.27,-260.27 998.24,-260.06 1049.25,-233 1078.32,-217.58 1108.34,-194.93 1128.92,-178.18"/>
<polygon fill="#63b8ff" stroke="#63b8ff" points="906.8,-279.16 898.04,-285.12 908.61,-285.92 906.8,-279.16"/>
</a>
</g>
</g>
<!-- Node3 -->
<g id="Node000003" class="node">
<title>Node3</title>
<g id="a_Node000003"><a xlink:href="../../d9/d9b/class_deluxe_1_1_deluxe_brand_center_1_1_a_m_m_1_1_script_runner_1_1_services_1_1_script.html" target="_top" xlink:title=" ">
<polygon fill="white" stroke="#666666" points="530.75,-324 361.75,-324 361.75,-280 530.75,-280 530.75,-324"/>
<text text-anchor="start" x="369.75" y="-310.5" font-family="Helvetica,sans-Serif" font-size="10.00">Deluxe.DeluxeBrandCenter.</text>
<text text-anchor="start" x="369.75" y="-298.5" font-family="Helvetica,sans-Serif" font-size="10.00">AMM.ScriptRunner.Services.Script</text>
<text text-anchor="middle" x="446.25" y="-286.5" font-family="Helvetica,sans-Serif" font-size="10.00">&lt; CsvLogEntryType, DataType &gt;</text>
</a>
</g>
</g>
<!-- Node3&#45;&gt;Node2 -->
<g id="edge2_Node000002_Node000003" class="edge">
<title>Node3&#45;&gt;Node2</title>
<g id="a_edge2_Node000002_Node000003"><a xlink:title=" ">
<path fill="none" stroke="orange" stroke-dasharray="5,2" d="M542.21,-302C598.32,-302 669.23,-302 725.86,-302"/>
<polygon fill="orange" stroke="orange" points="542.35,-298.5 532.35,-302 542.35,-305.5 542.35,-298.5"/>
</a>
</g>
<text text-anchor="start" x="548.75" y="-316.5" font-family="Helvetica,sans-Serif" font-size="10.00" fill="grey"> &lt; CsvLogPersonaScriptEntry,</text>
<text text-anchor="middle" x="626.75" y="-304.5" font-family="Helvetica,sans-Serif" font-size="10.00" fill="grey"> SyncCampaignWithPersonaData &gt;</text>
</g>
<!-- Node4 -->
<g id="Node000004" class="node">
<title>Node4</title>
<g id="a_Node000004"><a xlink:href="../../df/dfe/interface_deluxe_1_1_deluxe_brand_center_1_1_a_m_m_1_1_script_runner_1_1_services_1_1_i_script.html" target="_top" xlink:title=" ">
<polygon fill="white" stroke="#666666" points="128.88,-312 24.38,-312 24.38,-292 128.88,-292 128.88,-312"/>
<text text-anchor="middle" x="76.62" y="-298.5" font-family="Helvetica,sans-Serif" font-size="10.00">IScript&lt; DataType &gt;</text>
</a>
</g>
</g>
<!-- Node4&#45;&gt;Node3 -->
<g id="edge3_Node000003_Node000004" class="edge">
<title>Node4&#45;&gt;Node3</title>
<g id="a_edge3_Node000003_Node000004"><a xlink:title=" ">
<path fill="none" stroke="#63b8ff" d="M140.5,-302C201.48,-302 294.37,-302 361.57,-302"/>
<polygon fill="#63b8ff" stroke="#63b8ff" points="140.64,-298.5 130.64,-302 140.64,-305.5 140.64,-298.5"/>
</a>
</g>
</g>
<!-- Node5 -->
<g id="Node000005" class="node">
<title>Node5</title>
<g id="a_Node000005"><a xlink:href="../../d3/d96/interface_deluxe_1_1_deluxe_brand_center_1_1_a_m_m_1_1_infrastructure_1_1_databases_1_1_i_application_db_context.html" target="_top" xlink:title=" ">
<polygon fill="white" stroke="#666666" points="927,-268 722.75,-268 722.75,-224 927,-224 927,-268"/>
<text text-anchor="start" x="730.75" y="-254.5" font-family="Helvetica,sans-Serif" font-size="10.00">Deluxe.DeluxeBrandCenter.</text>
<text text-anchor="start" x="730.75" y="-242.5" font-family="Helvetica,sans-Serif" font-size="10.00">AMM.Infrastructure.Databases.IApplication</text>
<text text-anchor="middle" x="824.88" y="-230.5" font-family="Helvetica,sans-Serif" font-size="10.00">DbContext</text>
</a>
</g>
</g>
<!-- Node5&#45;&gt;Node1 -->
<g id="edge4_Node000001_Node000005" class="edge">
<title>Node5&#45;&gt;Node1</title>
<g id="a_edge4_Node000001_Node000005"><a xlink:title=" ">
<path fill="none" stroke="#9a32cd" stroke-dasharray="5,2" d="M929.58,-220.75C967.36,-211.23 1010.35,-200.03 1049.25,-189 1060.8,-185.72 1073.01,-182.08 1084.86,-178.44"/>
<polygon fill="#9a32cd" stroke="#9a32cd" points="928.86,-217.32 920.01,-223.15 930.57,-224.11 928.86,-217.32"/>
</a>
</g>
<text text-anchor="middle" x="997.12" y="-219.21" font-family="Helvetica,sans-Serif" font-size="10.00" fill="grey"> _dbContext</text>
</g>
<!-- Node6 -->
<g id="Node000006" class="node">
<title>Node6</title>
<g id="a_Node000006"><a xlink:href="../../db/d7e/class_deluxe_1_1_deluxe_brand_center_1_1_a_m_m_1_1_infrastructure_1_1_databases_1_1_client_db_context.html" target="_top" xlink:title=" ">
<polygon fill="white" stroke="#666666" points="914.25,-206 735.5,-206 735.5,-162 914.25,-162 914.25,-206"/>
<text text-anchor="start" x="743.5" y="-192.5" font-family="Helvetica,sans-Serif" font-size="10.00">Deluxe.DeluxeBrandCenter.</text>
<text text-anchor="start" x="743.5" y="-180.5" font-family="Helvetica,sans-Serif" font-size="10.00">AMM.Infrastructure.Databases.Client</text>
<text text-anchor="middle" x="824.88" y="-168.5" font-family="Helvetica,sans-Serif" font-size="10.00">DbContext</text>
</a>
</g>
</g>
<!-- Node6&#45;&gt;Node1 -->
<g id="edge5_Node000001_Node000006" class="edge">
<title>Node6&#45;&gt;Node1</title>
<g id="a_edge5_Node000001_Node000006"><a xlink:title=" ">
<path fill="none" stroke="#9a32cd" stroke-dasharray="5,2" d="M925.74,-175.5C970.77,-171.67 1023.47,-167.18 1066.97,-163.48"/>
<polygon fill="#9a32cd" stroke="#9a32cd" points="925.65,-172 915.98,-176.33 926.24,-178.97 925.65,-172"/>
</a>
</g>
<text text-anchor="middle" x="997.12" y="-175.83" font-family="Helvetica,sans-Serif" font-size="10.00" fill="grey"> _clientDbContext</text>
</g>
<!-- Node7 -->
<g id="Node000007" class="node">
<title>Node7</title>
<g id="a_Node000007"><a xlink:title=" ">
<polygon fill="white" stroke="#666666" points="477.88,-194 414.62,-194 414.62,-174 477.88,-174 477.88,-194"/>
<text text-anchor="middle" x="446.25" y="-180.5" font-family="Helvetica,sans-Serif" font-size="10.00">DbContext</text>
</a>
</g>
</g>
<!-- Node7&#45;&gt;Node6 -->
<g id="edge6_Node000006_Node000007" class="edge">
<title>Node7&#45;&gt;Node6</title>
<g id="a_edge6_Node000006_Node000007"><a xlink:title=" ">
<path fill="none" stroke="#63b8ff" d="M489.57,-184C548.74,-184 657.63,-184 735.05,-184"/>
<polygon fill="#63b8ff" stroke="#63b8ff" points="489.58,-180.5 479.58,-184 489.58,-187.5 489.58,-180.5"/>
</a>
</g>
</g>
<!-- Node8 -->
<g id="Node000008" class="node">
<title>Node8</title>
<g id="a_Node000008"><a xlink:href="../../dd/d7d/interface_deluxe_1_1_deluxe_brand_center_1_1_a_m_m_1_1_domain_1_1_services_1_1_i_session_service.html" target="_top" xlink:title=" ">
<polygon fill="white" stroke="#666666" points="920.62,-144 729.12,-144 729.12,-112 920.62,-112 920.62,-144"/>
<text text-anchor="start" x="737.12" y="-130.5" font-family="Helvetica,sans-Serif" font-size="10.00">Deluxe.DeluxeBrandCenter.</text>
<text text-anchor="middle" x="824.88" y="-118.5" font-family="Helvetica,sans-Serif" font-size="10.00">AMM.Domain.Services.ISessionService</text>
</a>
</g>
</g>
<!-- Node8&#45;&gt;Node1 -->
<g id="edge7_Node000001_Node000008" class="edge">
<title>Node8&#45;&gt;Node1</title>
<g id="a_edge7_Node000001_Node000008"><a xlink:title=" ">
<path fill="none" stroke="#9a32cd" stroke-dasharray="5,2" d="M932.25,-137.05C975.78,-140.76 1025.55,-144.99 1066.97,-148.52"/>
<polygon fill="#9a32cd" stroke="#9a32cd" points="932.8,-133.59 922.54,-136.23 932.21,-140.56 932.8,-133.59"/>
</a>
</g>
<text text-anchor="middle" x="997.12" y="-149.44" font-family="Helvetica,sans-Serif" font-size="10.00" fill="grey"> _sessionService</text>
</g>
<!-- Node9 -->
<g id="Node000009" class="node">
<title>Node9</title>
<g id="a_Node000009"><a xlink:href="../../d2/dd7/interface_deluxe_1_1_deluxe_brand_center_1_1_a_m_m_1_1_a_p_i_1_1_services_1_1_i_mindfire_service.html" target="_top" xlink:title=" ">
<polygon fill="white" stroke="#666666" points="911.62,-94 738.12,-94 738.12,-62 911.62,-62 911.62,-94"/>
<text text-anchor="start" x="746.12" y="-80.5" font-family="Helvetica,sans-Serif" font-size="10.00">Deluxe.DeluxeBrandCenter.</text>
<text text-anchor="middle" x="824.88" y="-68.5" font-family="Helvetica,sans-Serif" font-size="10.00">AMM.API.Services.IMindfireService</text>
</a>
</g>
</g>
<!-- Node9&#45;&gt;Node1 -->
<g id="edge8_Node000001_Node000009" class="edge">
<title>Node9&#45;&gt;Node1</title>
<g id="a_edge8_Node000001_Node000009"><a xlink:title=" ">
<path fill="none" stroke="#9a32cd" stroke-dasharray="5,2" d="M923.19,-95.32C962.54,-102.92 1008.27,-112.5 1049.25,-123 1061.44,-126.12 1074.31,-129.81 1086.71,-133.56"/>
<polygon fill="#9a32cd" stroke="#9a32cd" points="923.97,-91.91 913.49,-93.47 922.65,-98.78 923.97,-91.91"/>
</a>
</g>
<text text-anchor="middle" x="997.12" y="-125.5" font-family="Helvetica,sans-Serif" font-size="10.00" fill="grey"> _mindfireService</text>
</g>
<!-- Node10 -->
<g id="Node000010" class="node">
<title>Node10</title>
<g id="a_Node000010"><a xlink:href="../../d9/daf/interface_deluxe_1_1_deluxe_brand_center_1_1_a_m_m_1_1_a_p_i_1_1_services_1_1_i_user_campaign_service.html" target="_top" xlink:title=" ">
<polygon fill="white" stroke="#666666" points="910.5,-44 739.25,-44 739.25,0 910.5,0 910.5,-44"/>
<text text-anchor="start" x="747.25" y="-30.5" font-family="Helvetica,sans-Serif" font-size="10.00">Deluxe.DeluxeBrandCenter.</text>
<text text-anchor="start" x="747.25" y="-18.5" font-family="Helvetica,sans-Serif" font-size="10.00">AMM.API.Services.IUserCampaign</text>
<text text-anchor="middle" x="824.88" y="-6.5" font-family="Helvetica,sans-Serif" font-size="10.00">Service</text>
</a>
</g>
</g>
<!-- Node10&#45;&gt;Node1 -->
<g id="edge9_Node000001_Node000010" class="edge">
<title>Node10&#45;&gt;Node1</title>
<g id="a_edge9_Node000001_Node000010"><a xlink:title=" ">
<path fill="none" stroke="#9a32cd" stroke-dasharray="5,2" d="M921.87,-41.33C962.27,-51.31 1009.12,-65.38 1049.25,-84 1077.84,-97.27 1107.21,-117.97 1127.7,-133.78"/>
<polygon fill="#9a32cd" stroke="#9a32cd" points="922.94,-37.99 912.4,-39.04 921.3,-44.79 922.94,-37.99"/>
</a>
</g>
<text text-anchor="middle" x="997.12" y="-86.5" font-family="Helvetica,sans-Serif" font-size="10.00" fill="grey"> _userCampaignService</text>
</g>
<!-- Node11 -->
<g id="Node000011" class="node">
<title>Node11</title>
<g id="a_Node000011"><a xlink:href="../../d3/ddb/interface_deluxe_1_1_deluxe_brand_center_1_1_a_m_m_1_1_a_p_i_1_1_services_1_1_i_d_b_service.html" target="_top" xlink:title=" ">
<polygon fill="white" stroke="#666666" points="518,-38 374.5,-38 374.5,-6 518,-6 518,-38"/>
<text text-anchor="start" x="382.5" y="-24.5" font-family="Helvetica,sans-Serif" font-size="10.00">IDBService&lt; UserCampaign,</text>
<text text-anchor="middle" x="446.25" y="-12.5" font-family="Helvetica,sans-Serif" font-size="10.00"> UserCampaignVM &gt;</text>
</a>
</g>
</g>
<!-- Node11&#45;&gt;Node10 -->
<g id="edge10_Node000010_Node000011" class="edge">
<title>Node11&#45;&gt;Node10</title>
<g id="a_edge10_Node000010_Node000011"><a xlink:title=" ">
<path fill="none" stroke="#63b8ff" d="M529.39,-22C591.38,-22 676.16,-22 738.85,-22"/>
<polygon fill="#63b8ff" stroke="#63b8ff" points="529.6,-18.5 519.6,-22 529.6,-25.5 529.6,-18.5"/>
</a>
</g>
</g>
<!-- Node12 -->
<g id="Node000012" class="node">
<title>Node12</title>
<g id="a_Node000012"><a xlink:href="../../d3/ddb/interface_deluxe_1_1_deluxe_brand_center_1_1_a_m_m_1_1_a_p_i_1_1_services_1_1_i_d_b_service.html" target="_top" xlink:title=" ">
<polygon fill="white" stroke="#666666" points="153.25,-44 0,-44 0,0 153.25,0 153.25,-44"/>
<text text-anchor="start" x="8" y="-30.5" font-family="Helvetica,sans-Serif" font-size="10.00">Deluxe.DeluxeBrandCenter.</text>
<text text-anchor="start" x="8" y="-18.5" font-family="Helvetica,sans-Serif" font-size="10.00">AMM.API.Services.IDBService</text>
<text text-anchor="middle" x="76.62" y="-6.5" font-family="Helvetica,sans-Serif" font-size="10.00">&lt; TModel, TModelVM &gt;</text>
</a>
</g>
</g>
<!-- Node12&#45;&gt;Node11 -->
<g id="edge11_Node000011_Node000012" class="edge">
<title>Node12&#45;&gt;Node11</title>
<g id="a_edge11_Node000011_Node000012"><a xlink:title=" ">
<path fill="none" stroke="orange" stroke-dasharray="5,2" d="M164.63,-22C228.6,-22 314.46,-22 374.3,-22"/>
<polygon fill="orange" stroke="orange" points="164.86,-18.5 154.86,-22 164.86,-25.5 164.86,-18.5"/>
</a>
</g>
<text text-anchor="middle" x="257.5" y="-24.5" font-family="Helvetica,sans-Serif" font-size="10.00" fill="grey"> &lt; UserCampaign, UserCampaignVM &gt;</text>
</g>
</g>
</svg>

<g id="navigator" transform="translate(0 0)" fill="#404254">
  <rect fill="#f2f5e9" fill-opacity="0.5" stroke="#606060" stroke-width=".5" x="0" y="0" width="60" height="60"/>
  <use id="zoomplus" xlink:href="#zoomPlus" x="17" y="9" onmousedown="handleZoom(evt,'in')"/>
  <use id="zoomminus" xlink:href="#zoomMin" x="42" y="9" onmousedown="handleZoom(evt,'out')"/>
  <use id="reset" xlink:href="#resetDef" x="30" y="36" onmousedown="handleReset()"/>
   <use id="arrowup" xlink:href="#arrowUp" x="0" y="0" onmousedown="handlePan(0,-1)"/>
  <use id="arrowright" xlink:href="#arrowRight" x="0" y="0" onmousedown="handlePan(1,0)"/>
  <use id="arrowdown" xlink:href="#arrowDown" x="0" y="0" onmousedown="handlePan(0,1)"/>
  <use id="arrowleft" xlink:href="#arrowLeft" x="0" y="0" onmousedown="handlePan(-1,0)"/>
</g>
<svg viewBox="0 0 15 15" width="100%" height="30px" preserveAspectRatio="xMaxYMin meet">
 <g id="arrow_out" transform="scale(0.3 0.3)">
  <a xlink:href="class_deluxe_1_1_deluxe_brand_center_1_1_a_m_m_1_1_script_runner_1_1_services_1_1_scripts_1_1_sybe610d1fd5e0f5318af67220b85cf7aa_org.svg" target="_base">
   <rect id="button" ry="5" rx="5" y="6" x="6" height="38" width="38"
        fill="#f2f5e9" fill-opacity="0.5" stroke="#606060" stroke-width="1.0"/>
   <path id="arrow"
     d="M 11.500037,31.436501 C 11.940474,20.09759 22.043105,11.32322 32.158766,21.979434 L 37.068811,17.246167 C 37.068811,17.246167 37.088388,32 37.088388,32 L 22.160133,31.978069 C 22.160133,31.978069 26.997745,27.140456 26.997745,27.140456 C 18.528582,18.264221 13.291696,25.230495 11.500037,31.436501 z"
     style="fill:#404040;"/>
  </a>
 </g>
</svg>

<style type='text/css'>
<![CDATA[
[data-mouse-over-selected='false'] { opacity: 0.7; }
[data-mouse-over-selected='true']  { opacity: 1.0; }
]]>
</style>
<script type="application/ecmascript"><![CDATA[
document.addEventListener('DOMContentLoaded', (event) => {
  highlightEdges();
  highlightAdjacentNodes();
});
]]></script>
</svg>
