<?xml version="1.0" encoding="UTF-8" standalone="no"?>
<!DOCTYPE svg PUBLIC "-//W3C//DTD SVG 1.1//EN"
 "http://www.w3.org/Graphics/SVG/1.1/DTD/svg11.dtd">
<!-- Generated by graphviz version 12.1.1 (20240910.0053)
 -->
<!-- Title: Deluxe.DeluxeBrandCenter.AMM.API.Services.CampaignElementService Pages: 1 -->
<!--zoomable 152 -->

<svg id="main" version="1.1" xmlns="http://www.w3.org/2000/svg" xmlns:xlink="http://www.w3.org/1999/xlink" xml:space="preserve" onload="init(evt)">

<style type="text/css"><![CDATA[
.node, .edge {opacity: 0.7;}
.node.selected, .edge.selected {opacity: 1;}
.edge:hover path { stroke: red; }
.edge:hover polygon { stroke: red; fill: red; }
]]></style>

<defs>
  <circle id="rim" cx="0" cy="0" r="7"/>
  <circle id="rim2" cx="0" cy="0" r="3.5"/>
  <g id="zoomPlus">
    <use xlink:href="#rim" fill="#404040"><set attributeName="fill" to="#808080" begin="zoomplus.mouseover" end="zoomplus.mouseout"/></use>
    <path d="M-4,0h8M0,-4v8" fill="none" stroke="white" stroke-width="1.5" pointer-events="none"/>
  </g>
  <g id="zoomMin">
    <use xlink:href="#rim" fill="#404040"><set attributeName="fill" to="#808080" begin="zoomminus.mouseover" end="zoomminus.mouseout"/></use>
    <path d="M-4,0h8" fill="none" stroke="white" stroke-width="1.5" pointer-events="none"/>
  </g>
  <g id="arrowUp" transform="translate(30 24)">
    <use xlink:href="#rim"/>
    <path pointer-events="none" fill="none" stroke="white" stroke-width="1.5" d="M0,-3.0v7 M-2.5,-0.5L0,-3.0L2.5,-0.5"/>
  </g>
  <g id="arrowRight" transform="rotate(90) translate(36 -43)">
    <use xlink:href="#rim"/>
    <path pointer-events="none" fill="none" stroke="white" stroke-width="1.5" d="M0,-3.0v7 M-2.5,-0.5L0,-3.0L2.5,-0.5"/>
  </g>
  <g id="arrowDown" transform="rotate(180) translate(-30 -48)">
    <use xlink:href="#rim"/>
    <path pointer-events="none" fill="none" stroke="white" stroke-width="1.5" d="M0,-3.0v7 M-2.5,-0.5L0,-3.0L2.5,-0.5"/>
  </g>
  <g id="arrowLeft" transform="rotate(270) translate(-36 17)">
    <use xlink:href="#rim"/>
    <path pointer-events="none" fill="none" stroke="white" stroke-width="1.5" d="M0,-3.0v7 M-2.5,-0.5L0,-3.0L2.5,-0.5"/>
  </g>
  <g id="resetDef">
    <use xlink:href="#rim2" fill="#404040"><set attributeName="fill" to="#808080" begin="reset.mouseover" end="reset.mouseout"/></use>
  </g>
</defs>
<script type="application/ecmascript">
var viewWidth = 1187;
var viewHeight = 152;
var sectionId = 'dynsection-0';
</script>
<script type="application/ecmascript" xlink:href="../../svg.min.js"/>
<svg id="graph" class="graph">
<g id="viewport">
<title>Deluxe.DeluxeBrandCenter.AMM.API.Services.CampaignElementService</title>
<!-- Node1 -->
<g id="Node000001" class="node">
<title>Node1</title>
<g id="a_Node000001"><a xlink:title=" ">
<polygon fill="#999999" stroke="#666666" points="1179.25,-77 996,-77 996,-33 1179.25,-33 1179.25,-77"/>
<text text-anchor="start" x="1004" y="-63.5" font-family="Helvetica,sans-Serif" font-size="10.00">Deluxe.DeluxeBrandCenter.</text>
<text text-anchor="start" x="1004" y="-51.5" font-family="Helvetica,sans-Serif" font-size="10.00">AMM.API.Services.CampaignElement</text>
<text text-anchor="middle" x="1087.62" y="-39.5" font-family="Helvetica,sans-Serif" font-size="10.00">Service</text>
</a>
</g>
</g>
<!-- Node2 -->
<g id="Node000002" class="node">
<title>Node2</title>
<g id="a_Node000002"><a xlink:href="../../dd/dd8/class_deluxe_1_1_deluxe_brand_center_1_1_a_m_m_1_1_a_p_i_1_1_services_1_1_named_db_service.html" target="_top" xlink:title=" ">
<polygon fill="white" stroke="#666666" points="959,-92 796.75,-92 796.75,-60 959,-60 959,-92"/>
<text text-anchor="start" x="804.75" y="-78.5" font-family="Helvetica,sans-Serif" font-size="10.00">NamedDbService&lt; Campaign</text>
<text text-anchor="middle" x="877.88" y="-66.5" font-family="Helvetica,sans-Serif" font-size="10.00">Element, CampaignElementVM &gt;</text>
</a>
</g>
</g>
<!-- Node2&#45;&gt;Node1 -->
<g id="edge1_Node000001_Node000002" class="edge">
<title>Node2&#45;&gt;Node1</title>
<g id="a_edge1_Node000001_Node000002"><a xlink:title=" ">
<path fill="none" stroke="#63b8ff" d="M970.72,-66.72C979.01,-65.88 987.41,-65.03 995.7,-64.19"/>
<polygon fill="#63b8ff" stroke="#63b8ff" points="970.6,-63.21 961,-67.7 971.3,-70.18 970.6,-63.21"/>
</a>
</g>
</g>
<!-- Node3 -->
<g id="Node000003" class="node">
<title>Node3</title>
<g id="a_Node000003"><a xlink:href="../../dd/dd8/class_deluxe_1_1_deluxe_brand_center_1_1_a_m_m_1_1_a_p_i_1_1_services_1_1_named_db_service.html" target="_top" xlink:title=" ">
<polygon fill="white" stroke="#666666" points="653.5,-100 473.25,-100 473.25,-56 653.5,-56 653.5,-100"/>
<text text-anchor="start" x="481.25" y="-86.5" font-family="Helvetica,sans-Serif" font-size="10.00">Deluxe.DeluxeBrandCenter.</text>
<text text-anchor="start" x="481.25" y="-74.5" font-family="Helvetica,sans-Serif" font-size="10.00">AMM.API.Services.NamedDbService</text>
<text text-anchor="middle" x="563.38" y="-62.5" font-family="Helvetica,sans-Serif" font-size="10.00">&lt; TModel, TModelVM &gt;</text>
</a>
</g>
</g>
<!-- Node3&#45;&gt;Node2 -->
<g id="edge2_Node000002_Node000003" class="edge">
<title>Node3&#45;&gt;Node2</title>
<g id="a_edge2_Node000002_Node000003"><a xlink:title=" ">
<path fill="none" stroke="orange" stroke-dasharray="5,2" d="M665.42,-77.35C707.82,-77.08 756.45,-76.77 796.38,-76.52"/>
<polygon fill="orange" stroke="orange" points="665.42,-73.85 655.44,-77.42 665.46,-80.85 665.42,-73.85"/>
</a>
</g>
<text text-anchor="start" x="671.5" y="-91.8" font-family="Helvetica,sans-Serif" font-size="10.00" fill="grey"> &lt; CampaignElement,</text>
<text text-anchor="middle" x="725.12" y="-79.8" font-family="Helvetica,sans-Serif" font-size="10.00" fill="grey"> CampaignElementVM &gt;</text>
</g>
<!-- Node4 -->
<g id="Node000004" class="node">
<title>Node4</title>
<g id="a_Node000004"><a xlink:href="../../d6/d4e/class_deluxe_1_1_deluxe_brand_center_1_1_a_m_m_1_1_a_p_i_1_1_services_1_1_d_b_service.html" target="_top" xlink:title=" ">
<polygon fill="white" stroke="#666666" points="291.75,-144 185,-144 185,-112 291.75,-112 291.75,-144"/>
<text text-anchor="start" x="193" y="-130.5" font-family="Helvetica,sans-Serif" font-size="10.00">DBService&lt; TModel,</text>
<text text-anchor="middle" x="238.38" y="-118.5" font-family="Helvetica,sans-Serif" font-size="10.00"> TModelVM &gt;</text>
</a>
</g>
</g>
<!-- Node4&#45;&gt;Node3 -->
<g id="edge3_Node000003_Node000004" class="edge">
<title>Node4&#45;&gt;Node3</title>
<g id="a_edge3_Node000003_Node000004"><a xlink:title=" ">
<path fill="none" stroke="#63b8ff" d="M303.27,-118.11C351.75,-110.6 419.01,-100.19 472.85,-91.86"/>
<polygon fill="#63b8ff" stroke="#63b8ff" points="302.83,-114.64 293.49,-119.62 303.9,-121.55 302.83,-114.64"/>
</a>
</g>
</g>
<!-- Node5 -->
<g id="Node000005" class="node">
<title>Node5</title>
<g id="a_Node000005"><a xlink:href="../../d3/ddb/interface_deluxe_1_1_deluxe_brand_center_1_1_a_m_m_1_1_a_p_i_1_1_services_1_1_i_d_b_service.html" target="_top" xlink:title=" ">
<polygon fill="white" stroke="#666666" points="109.75,-94 0,-94 0,-62 109.75,-62 109.75,-94"/>
<text text-anchor="start" x="8" y="-80.5" font-family="Helvetica,sans-Serif" font-size="10.00">IDBService&lt; TModel,</text>
<text text-anchor="middle" x="54.88" y="-68.5" font-family="Helvetica,sans-Serif" font-size="10.00"> TModelVM &gt;</text>
</a>
</g>
</g>
<!-- Node5&#45;&gt;Node4 -->
<g id="edge4_Node000004_Node000005" class="edge">
<title>Node5&#45;&gt;Node4</title>
<g id="a_edge4_Node000004_Node000005"><a xlink:title=" ">
<path fill="none" stroke="#63b8ff" d="M120.88,-95.91C141.77,-101.66 164.65,-107.97 184.56,-113.45"/>
<polygon fill="#63b8ff" stroke="#63b8ff" points="121.87,-92.55 111.3,-93.27 120.01,-99.3 121.87,-92.55"/>
</a>
</g>
</g>
<!-- Node6 -->
<g id="Node000006" class="node">
<title>Node6</title>
<g id="a_Node000006"><a xlink:href="../../d3/dac/interface_deluxe_1_1_deluxe_brand_center_1_1_a_m_m_1_1_a_p_i_1_1_services_1_1_i_named_db_service.html" target="_top" xlink:title=" ">
<polygon fill="white" stroke="#666666" points="308.25,-94 168.5,-94 168.5,-62 308.25,-62 308.25,-94"/>
<text text-anchor="start" x="176.5" y="-80.5" font-family="Helvetica,sans-Serif" font-size="10.00">INamedDbService&lt; TModel,</text>
<text text-anchor="middle" x="238.38" y="-68.5" font-family="Helvetica,sans-Serif" font-size="10.00"> TModelVM &gt;</text>
</a>
</g>
</g>
<!-- Node5&#45;&gt;Node6 -->
<g id="edge6_Node000006_Node000005" class="edge">
<title>Node5&#45;&gt;Node6</title>
<g id="a_edge6_Node000006_Node000005"><a xlink:title=" ">
<path fill="none" stroke="#63b8ff" d="M121.25,-78C136.47,-78 152.73,-78 168.12,-78"/>
<polygon fill="#63b8ff" stroke="#63b8ff" points="121.35,-74.5 111.35,-78 121.35,-81.5 121.35,-74.5"/>
</a>
</g>
</g>
<!-- Node9 -->
<g id="Node000009" class="node">
<title>Node9</title>
<g id="a_Node000009"><a xlink:href="../../d3/dac/interface_deluxe_1_1_deluxe_brand_center_1_1_a_m_m_1_1_a_p_i_1_1_services_1_1_i_named_db_service.html" target="_top" xlink:title=" ">
<polygon fill="white" stroke="#666666" points="330,-44 146.75,-44 146.75,0 330,0 330,-44"/>
<text text-anchor="start" x="154.75" y="-30.5" font-family="Helvetica,sans-Serif" font-size="10.00">Deluxe.DeluxeBrandCenter.</text>
<text text-anchor="start" x="154.75" y="-18.5" font-family="Helvetica,sans-Serif" font-size="10.00">AMM.API.Services.INamedDbService</text>
<text text-anchor="middle" x="238.38" y="-6.5" font-family="Helvetica,sans-Serif" font-size="10.00">&lt; TModel, TModelVM &gt;</text>
</a>
</g>
</g>
<!-- Node5&#45;&gt;Node9 -->
<g id="edge10_Node000009_Node000005" class="edge">
<title>Node5&#45;&gt;Node9</title>
<g id="a_edge10_Node000009_Node000005"><a xlink:title=" ">
<path fill="none" stroke="#63b8ff" d="M120.17,-58.16C134.61,-53.71 150.03,-48.95 164.78,-44.4"/>
<polygon fill="#63b8ff" stroke="#63b8ff" points="119.32,-54.76 110.8,-61.05 121.38,-61.45 119.32,-54.76"/>
</a>
</g>
</g>
<!-- Node6&#45;&gt;Node3 -->
<g id="edge5_Node000003_Node000006" class="edge">
<title>Node6&#45;&gt;Node3</title>
<g id="a_edge5_Node000003_Node000006"><a xlink:title=" ">
<path fill="none" stroke="#63b8ff" d="M319.91,-78C366.41,-78 424.99,-78 472.92,-78"/>
<polygon fill="#63b8ff" stroke="#63b8ff" points="320.18,-74.5 310.18,-78 320.18,-81.5 320.18,-74.5"/>
</a>
</g>
</g>
<!-- Node7 -->
<g id="Node000007" class="node">
<title>Node7</title>
<g id="a_Node000007"><a xlink:href="../../d2/d03/interface_deluxe_1_1_deluxe_brand_center_1_1_a_m_m_1_1_a_p_i_1_1_services_1_1_i_campaign_element_service.html" target="_top" xlink:title=" ">
<polygon fill="white" stroke="#666666" points="944,-41 811.75,-41 811.75,-21 944,-21 944,-41"/>
<text text-anchor="middle" x="877.88" y="-27.5" font-family="Helvetica,sans-Serif" font-size="10.00">ICampaignElementService</text>
</a>
</g>
</g>
<!-- Node7&#45;&gt;Node1 -->
<g id="edge7_Node000001_Node000007" class="edge">
<title>Node7&#45;&gt;Node1</title>
<g id="a_edge7_Node000001_Node000007"><a xlink:title=" ">
<path fill="none" stroke="#63b8ff" d="M955.6,-39.86C968.64,-41.37 982.3,-42.95 995.66,-44.49"/>
<polygon fill="#63b8ff" stroke="#63b8ff" points="956.16,-36.41 945.83,-38.73 955.36,-43.36 956.16,-36.41"/>
</a>
</g>
</g>
<!-- Node8 -->
<g id="Node000008" class="node">
<title>Node8</title>
<g id="a_Node000008"><a xlink:href="../../d3/dac/interface_deluxe_1_1_deluxe_brand_center_1_1_a_m_m_1_1_a_p_i_1_1_services_1_1_i_named_db_service.html" target="_top" xlink:title=" ">
<polygon fill="white" stroke="#666666" points="644.5,-38 482.25,-38 482.25,-6 644.5,-6 644.5,-38"/>
<text text-anchor="start" x="490.25" y="-24.5" font-family="Helvetica,sans-Serif" font-size="10.00">INamedDbService&lt; Campaign</text>
<text text-anchor="middle" x="563.38" y="-12.5" font-family="Helvetica,sans-Serif" font-size="10.00">Element, CampaignElementVM &gt;</text>
</a>
</g>
</g>
<!-- Node8&#45;&gt;Node7 -->
<g id="edge8_Node000007_Node000008" class="edge">
<title>Node8&#45;&gt;Node7</title>
<g id="a_edge8_Node000007_Node000008"><a xlink:title=" ">
<path fill="none" stroke="#63b8ff" d="M656.28,-24.65C706.07,-26.08 766.41,-27.82 811.39,-29.11"/>
<polygon fill="#63b8ff" stroke="#63b8ff" points="656.46,-21.15 646.36,-24.36 656.26,-28.15 656.46,-21.15"/>
</a>
</g>
</g>
<!-- Node9&#45;&gt;Node8 -->
<g id="edge9_Node000008_Node000009" class="edge">
<title>Node9&#45;&gt;Node8</title>
<g id="a_edge9_Node000008_Node000009"><a xlink:title=" ">
<path fill="none" stroke="orange" stroke-dasharray="5,2" d="M341.56,-22C386.86,-22 439.39,-22 481.85,-22"/>
<polygon fill="orange" stroke="orange" points="341.72,-18.5 331.72,-22 341.72,-25.5 341.72,-18.5"/>
</a>
</g>
<text text-anchor="start" x="348" y="-36.5" font-family="Helvetica,sans-Serif" font-size="10.00" fill="grey"> &lt; CampaignElement,</text>
<text text-anchor="middle" x="401.62" y="-24.5" font-family="Helvetica,sans-Serif" font-size="10.00" fill="grey"> CampaignElementVM &gt;</text>
</g>
</g>
</svg>

<g id="navigator" transform="translate(0 0)" fill="#404254">
  <rect fill="#f2f5e9" fill-opacity="0.5" stroke="#606060" stroke-width=".5" x="0" y="0" width="60" height="60"/>
  <use id="zoomplus" xlink:href="#zoomPlus" x="17" y="9" onmousedown="handleZoom(evt,'in')"/>
  <use id="zoomminus" xlink:href="#zoomMin" x="42" y="9" onmousedown="handleZoom(evt,'out')"/>
  <use id="reset" xlink:href="#resetDef" x="30" y="36" onmousedown="handleReset()"/>
   <use id="arrowup" xlink:href="#arrowUp" x="0" y="0" onmousedown="handlePan(0,-1)"/>
  <use id="arrowright" xlink:href="#arrowRight" x="0" y="0" onmousedown="handlePan(1,0)"/>
  <use id="arrowdown" xlink:href="#arrowDown" x="0" y="0" onmousedown="handlePan(0,1)"/>
  <use id="arrowleft" xlink:href="#arrowLeft" x="0" y="0" onmousedown="handlePan(-1,0)"/>
</g>
<svg viewBox="0 0 15 15" width="100%" height="30px" preserveAspectRatio="xMaxYMin meet">
 <g id="arrow_out" transform="scale(0.3 0.3)">
  <a xlink:href="class_deluxe_1_1_deluxe_brand_center_1_1_a_m_m_1_1_a_p_i_1_1_services_1_1_campaign_element_service__inherit__graph_org.svg" target="_base">
   <rect id="button" ry="5" rx="5" y="6" x="6" height="38" width="38"
        fill="#f2f5e9" fill-opacity="0.5" stroke="#606060" stroke-width="1.0"/>
   <path id="arrow"
     d="M 11.500037,31.436501 C 11.940474,20.09759 22.043105,11.32322 32.158766,21.979434 L 37.068811,17.246167 C 37.068811,17.246167 37.088388,32 37.088388,32 L 22.160133,31.978069 C 22.160133,31.978069 26.997745,27.140456 26.997745,27.140456 C 18.528582,18.264221 13.291696,25.230495 11.500037,31.436501 z"
     style="fill:#404040;"/>
  </a>
 </g>
</svg>

<style type='text/css'>
<![CDATA[
[data-mouse-over-selected='false'] { opacity: 0.7; }
[data-mouse-over-selected='true']  { opacity: 1.0; }
]]>
</style>
<script type="application/ecmascript"><![CDATA[
document.addEventListener('DOMContentLoaded', (event) => {
  highlightEdges();
  highlightAdjacentNodes();
});
]]></script>
</svg>
