<?xml version="1.0" encoding="UTF-8" standalone="no"?>
<!DOCTYPE svg PUBLIC "-//W3C//DTD SVG 1.1//EN"
 "http://www.w3.org/Graphics/SVG/1.1/DTD/svg11.dtd">
<!-- Generated by graphviz version 12.1.1 (20240910.0053)
 -->
<!-- Title: Deluxe.DeluxeBrandCenter.AMM.API.Services.ContactManagerService Pages: 1 -->
<svg width="942pt" height="108pt"
 viewBox="0.00 0.00 941.50 108.00" xmlns="http://www.w3.org/2000/svg" xmlns:xlink="http://www.w3.org/1999/xlink">
<g id="graph0" class="graph" transform="scale(1 1) rotate(0) translate(4 104)">
<title>Deluxe.DeluxeBrandCenter.AMM.API.Services.ContactManagerService</title>
<!-- Node1 -->
<g id="Node000001" class="node">
<title>Node1</title>
<g id="a_Node000001"><a xlink:title=" ">
<polygon fill="#999999" stroke="#666666" points="933.5,-74 758.5,-74 758.5,-30 933.5,-30 933.5,-74"/>
<text text-anchor="start" x="766.5" y="-60.5" font-family="Helvetica,sans-Serif" font-size="10.00">Deluxe.DeluxeBrandCenter.</text>
<text text-anchor="start" x="766.5" y="-48.5" font-family="Helvetica,sans-Serif" font-size="10.00">AMM.API.Services.ContactManager</text>
<text text-anchor="middle" x="846" y="-36.5" font-family="Helvetica,sans-Serif" font-size="10.00">Service</text>
</a>
</g>
</g>
<!-- Node2 -->
<g id="Node000002" class="node">
<title>Node2</title>
<g id="a_Node000002"><a xlink:href="../../d6/d4e/class_deluxe_1_1_deluxe_brand_center_1_1_a_m_m_1_1_a_p_i_1_1_services_1_1_d_b_service.html" target="_top" xlink:title=" ">
<polygon fill="white" stroke="#666666" points="714.38,-92 604.62,-92 604.62,-60 714.38,-60 714.38,-92"/>
<text text-anchor="start" x="612.62" y="-78.5" font-family="Helvetica,sans-Serif" font-size="10.00">DBService&lt; Contact,</text>
<text text-anchor="middle" x="659.5" y="-66.5" font-family="Helvetica,sans-Serif" font-size="10.00"> ContactVM &gt;</text>
</a>
</g>
</g>
<!-- Node2&#45;&gt;Node1 -->
<g id="edge1_Node000001_Node000002" class="edge">
<title>Node2&#45;&gt;Node1</title>
<g id="a_edge1_Node000001_Node000002"><a xlink:title=" ">
<path fill="none" stroke="#63b8ff" d="M725.95,-67.49C736.39,-66.13 747.32,-64.71 758.15,-63.3"/>
<polygon fill="#63b8ff" stroke="#63b8ff" points="725.82,-63.97 716.36,-68.73 726.73,-70.91 725.82,-63.97"/>
</a>
</g>
</g>
<!-- Node3 -->
<g id="Node000003" class="node">
<title>Node3</title>
<g id="a_Node000003"><a xlink:href="../../d6/d4e/class_deluxe_1_1_deluxe_brand_center_1_1_a_m_m_1_1_a_p_i_1_1_services_1_1_d_b_service.html" target="_top" xlink:title=" ">
<polygon fill="white" stroke="#666666" points="450.5,-100 300.25,-100 300.25,-56 450.5,-56 450.5,-100"/>
<text text-anchor="start" x="308.25" y="-86.5" font-family="Helvetica,sans-Serif" font-size="10.00">Deluxe.DeluxeBrandCenter.</text>
<text text-anchor="start" x="308.25" y="-74.5" font-family="Helvetica,sans-Serif" font-size="10.00">AMM.API.Services.DBService</text>
<text text-anchor="middle" x="375.38" y="-62.5" font-family="Helvetica,sans-Serif" font-size="10.00">&lt; TModel, TModelVM &gt;</text>
</a>
</g>
</g>
<!-- Node3&#45;&gt;Node2 -->
<g id="edge2_Node000002_Node000003" class="edge">
<title>Node3&#45;&gt;Node2</title>
<g id="a_edge2_Node000002_Node000003"><a xlink:title=" ">
<path fill="none" stroke="orange" stroke-dasharray="5,2" d="M462.09,-77.39C508.31,-77.06 563.94,-76.67 604.18,-76.39"/>
<polygon fill="orange" stroke="orange" points="462.36,-73.89 452.38,-77.46 462.41,-80.89 462.36,-73.89"/>
</a>
</g>
<text text-anchor="middle" x="524" y="-79.8" font-family="Helvetica,sans-Serif" font-size="10.00" fill="grey"> &lt; Contact, ContactVM &gt;</text>
</g>
<!-- Node4 -->
<g id="Node000004" class="node">
<title>Node4</title>
<g id="a_Node000004"><a xlink:href="../../d3/ddb/interface_deluxe_1_1_deluxe_brand_center_1_1_a_m_m_1_1_a_p_i_1_1_services_1_1_i_d_b_service.html" target="_top" xlink:title=" ">
<polygon fill="white" stroke="#666666" points="131.5,-94 21.75,-94 21.75,-62 131.5,-62 131.5,-94"/>
<text text-anchor="start" x="29.75" y="-80.5" font-family="Helvetica,sans-Serif" font-size="10.00">IDBService&lt; TModel,</text>
<text text-anchor="middle" x="76.62" y="-68.5" font-family="Helvetica,sans-Serif" font-size="10.00"> TModelVM &gt;</text>
</a>
</g>
</g>
<!-- Node4&#45;&gt;Node3 -->
<g id="edge3_Node000003_Node000004" class="edge">
<title>Node4&#45;&gt;Node3</title>
<g id="a_edge3_Node000003_Node000004"><a xlink:title=" ">
<path fill="none" stroke="#63b8ff" d="M143.14,-78C189.5,-78 251.77,-78 300,-78"/>
<polygon fill="#63b8ff" stroke="#63b8ff" points="143.22,-74.5 133.22,-78 143.22,-81.5 143.22,-74.5"/>
</a>
</g>
</g>
<!-- Node5 -->
<g id="Node000005" class="node">
<title>Node5</title>
<g id="a_Node000005"><a xlink:href="../../d8/d4e/interface_deluxe_1_1_deluxe_brand_center_1_1_a_m_m_1_1_a_p_i_1_1_services_1_1_i_contact_manager_service.html" target="_top" xlink:title=" ">
<polygon fill="white" stroke="#666666" points="721.5,-41 597.5,-41 597.5,-21 721.5,-21 721.5,-41"/>
<text text-anchor="middle" x="659.5" y="-27.5" font-family="Helvetica,sans-Serif" font-size="10.00">IContactManagerService</text>
</a>
</g>
</g>
<!-- Node5&#45;&gt;Node1 -->
<g id="edge4_Node000001_Node000005" class="edge">
<title>Node5&#45;&gt;Node1</title>
<g id="a_edge4_Node000001_Node000005"><a xlink:title=" ">
<path fill="none" stroke="#63b8ff" d="M733.32,-39.29C741.49,-40.22 749.87,-41.17 758.19,-42.12"/>
<polygon fill="#63b8ff" stroke="#63b8ff" points="733.77,-35.82 723.44,-38.16 732.98,-42.77 733.77,-35.82"/>
</a>
</g>
</g>
<!-- Node6 -->
<g id="Node000006" class="node">
<title>Node6</title>
<g id="a_Node000006"><a xlink:href="../../d3/ddb/interface_deluxe_1_1_deluxe_brand_center_1_1_a_m_m_1_1_a_p_i_1_1_services_1_1_i_d_b_service.html" target="_top" xlink:title=" ">
<polygon fill="white" stroke="#666666" points="431.75,-38 319,-38 319,-6 431.75,-6 431.75,-38"/>
<text text-anchor="start" x="327" y="-24.5" font-family="Helvetica,sans-Serif" font-size="10.00">IDBService&lt; Contact,</text>
<text text-anchor="middle" x="375.38" y="-12.5" font-family="Helvetica,sans-Serif" font-size="10.00"> ContactVM &gt;</text>
</a>
</g>
</g>
<!-- Node6&#45;&gt;Node5 -->
<g id="edge5_Node000005_Node000006" class="edge">
<title>Node6&#45;&gt;Node5</title>
<g id="a_edge5_Node000005_Node000006"><a xlink:title=" ">
<path fill="none" stroke="#63b8ff" d="M443.61,-24.14C490.19,-25.63 551.72,-27.59 597,-29.04"/>
<polygon fill="#63b8ff" stroke="#63b8ff" points="443.73,-20.65 433.63,-23.83 443.51,-27.64 443.73,-20.65"/>
</a>
</g>
</g>
<!-- Node7 -->
<g id="Node000007" class="node">
<title>Node7</title>
<g id="a_Node000007"><a xlink:href="../../d3/ddb/interface_deluxe_1_1_deluxe_brand_center_1_1_a_m_m_1_1_a_p_i_1_1_services_1_1_i_d_b_service.html" target="_top" xlink:title=" ">
<polygon fill="white" stroke="#666666" points="153.25,-44 0,-44 0,0 153.25,0 153.25,-44"/>
<text text-anchor="start" x="8" y="-30.5" font-family="Helvetica,sans-Serif" font-size="10.00">Deluxe.DeluxeBrandCenter.</text>
<text text-anchor="start" x="8" y="-18.5" font-family="Helvetica,sans-Serif" font-size="10.00">AMM.API.Services.IDBService</text>
<text text-anchor="middle" x="76.62" y="-6.5" font-family="Helvetica,sans-Serif" font-size="10.00">&lt; TModel, TModelVM &gt;</text>
</a>
</g>
</g>
<!-- Node7&#45;&gt;Node6 -->
<g id="edge6_Node000006_Node000007" class="edge">
<title>Node7&#45;&gt;Node6</title>
<g id="a_edge6_Node000006_Node000007"><a xlink:title=" ">
<path fill="none" stroke="orange" stroke-dasharray="5,2" d="M165.06,-22C214.74,-22 275.47,-22 318.69,-22"/>
<polygon fill="orange" stroke="orange" points="165.17,-18.5 155.17,-22 165.17,-25.5 165.17,-18.5"/>
</a>
</g>
<text text-anchor="middle" x="226.75" y="-24.5" font-family="Helvetica,sans-Serif" font-size="10.00" fill="grey"> &lt; Contact, ContactVM &gt;</text>
</g>
</g>
</svg>
