<?xml version="1.0" encoding="UTF-8" standalone="no"?>
<!DOCTYPE svg PUBLIC "-//W3C//DTD SVG 1.1//EN"
 "http://www.w3.org/Graphics/SVG/1.1/DTD/svg11.dtd">
<!-- Generated by graphviz version 12.1.1 (20240910.0053)
 -->
<!-- Title: Deluxe.DeluxeBrandCenter.AMM.Domain.Utility.JsonHelper.Parse Pages: 1 -->
<svg width="912pt" height="650pt"
 viewBox="0.00 0.00 912.00 650.00" xmlns="http://www.w3.org/2000/svg" xmlns:xlink="http://www.w3.org/1999/xlink">
<g id="graph0" class="graph" transform="scale(1 1) rotate(0) translate(4 646)">
<title>Deluxe.DeluxeBrandCenter.AMM.Domain.Utility.JsonHelper.Parse</title>
<!-- Node1 -->
<g id="Node000001" class="node">
<title>Node1</title>
<g id="a_Node000001"><a xlink:title=" ">
<polygon fill="#999999" stroke="#666666" points="904,-325 719.25,-325 719.25,-293 904,-293 904,-325"/>
<text text-anchor="start" x="727.25" y="-311.5" font-family="Helvetica,sans-Serif" font-size="10.00">Deluxe.DeluxeBrandCenter.</text>
<text text-anchor="middle" x="811.62" y="-299.5" font-family="Helvetica,sans-Serif" font-size="10.00">AMM.Domain.Utility.JsonHelper.Parse</text>
</a>
</g>
</g>
<!-- Node2 -->
<g id="Node000002" class="node">
<title>Node2</title>
<g id="a_Node000002"><a xlink:href="../../d5/df4/class_deluxe_1_1_deluxe_brand_center_1_1_a_m_m_1_1_domain_1_1_mapper_1_1_auto_mapper_default_configuration.html#ac4971444c6dd03f773df832c9f8ff765" target="_top" xlink:title=" ">
<polygon fill="white" stroke="#666666" points="678.75,-642 460.25,-642 460.25,-598 678.75,-598 678.75,-642"/>
<text text-anchor="start" x="468.25" y="-628.5" font-family="Helvetica,sans-Serif" font-size="10.00">Deluxe.DeluxeBrandCenter.</text>
<text text-anchor="start" x="468.25" y="-616.5" font-family="Helvetica,sans-Serif" font-size="10.00">AMM.Domain.Mapper.AutoMapperDefault</text>
<text text-anchor="middle" x="569.5" y="-604.5" font-family="Helvetica,sans-Serif" font-size="10.00">Configuration.AutoMapperDefaultConfiguration</text>
</a>
</g>
</g>
<!-- Node1&#45;&gt;Node2 -->
<g id="edge1_Node000001_Node000002" class="edge">
<title>Node1&#45;&gt;Node2</title>
<g id="a_edge1_Node000001_Node000002"><a xlink:title=" ">
<path fill="none" stroke="#63b8ff" d="M806.06,-336.65C795.29,-392.89 762.94,-521.04 683.25,-589 679.54,-592.16 675.54,-595 671.33,-597.56"/>
<polygon fill="#63b8ff" stroke="#63b8ff" points="809.47,-337.43 807.82,-326.97 802.58,-336.18 809.47,-337.43"/>
</a>
</g>
</g>
<!-- Node3 -->
<g id="Node000003" class="node">
<title>Node3</title>
<g id="a_Node000003"><a xlink:href="../../d8/d0b/class_deluxe_1_1_deluxe_brand_center_1_1_a_m_m_1_1_a_p_i_1_1_services_1_1_user_campaign_service.html#aded739d67eedc332d45dbba0d8a95f0a" target="_top" xlink:title=" ">
<polygon fill="white" stroke="#666666" points="671.62,-580 467.38,-580 467.38,-536 671.62,-536 671.62,-580"/>
<text text-anchor="start" x="475.38" y="-566.5" font-family="Helvetica,sans-Serif" font-size="10.00">Deluxe.DeluxeBrandCenter.</text>
<text text-anchor="start" x="475.38" y="-554.5" font-family="Helvetica,sans-Serif" font-size="10.00">AMM.API.Services.UserCampaignService.</text>
<text text-anchor="middle" x="569.5" y="-542.5" font-family="Helvetica,sans-Serif" font-size="10.00">CampaignDetails</text>
</a>
</g>
</g>
<!-- Node1&#45;&gt;Node3 -->
<g id="edge2_Node000001_Node000003" class="edge">
<title>Node1&#45;&gt;Node3</title>
<g id="a_edge2_Node000001_Node000003"><a xlink:title=" ">
<path fill="none" stroke="#63b8ff" d="M802.4,-335.96C786.87,-382.23 748.78,-476.65 683.25,-527 679.15,-530.15 674.74,-532.99 670.13,-535.53"/>
<polygon fill="#63b8ff" stroke="#63b8ff" points="805.64,-337.32 805.4,-326.73 798.98,-335.16 805.64,-337.32"/>
</a>
</g>
</g>
<!-- Node4 -->
<g id="Node000004" class="node">
<title>Node4</title>
<g id="a_Node000004"><a xlink:href="../../d8/d98/class_deluxe_1_1_deluxe_brand_center_1_1_a_m_m_1_1_domain_1_1_mapper_1_1_auto_mapper_default_con54e1ad599b3985ddd0371934d4aa6d49.html#ac58a0cce97a536cf661f1ef88e1ea198" target="_top" xlink:title=" ">
<polygon fill="white" stroke="#666666" points="683.25,-518 455.75,-518 455.75,-474 683.25,-474 683.25,-518"/>
<text text-anchor="start" x="463.75" y="-504.5" font-family="Helvetica,sans-Serif" font-size="10.00">Deluxe.DeluxeBrandCenter.</text>
<text text-anchor="start" x="463.75" y="-492.5" font-family="Helvetica,sans-Serif" font-size="10.00">AMM.Domain.Mapper.AutoMapperDefault</text>
<text text-anchor="middle" x="569.5" y="-480.5" font-family="Helvetica,sans-Serif" font-size="10.00">Configuration.JsonObjectTypeConverter.Convert</text>
</a>
</g>
</g>
<!-- Node1&#45;&gt;Node4 -->
<g id="edge3_Node000001_Node000004" class="edge">
<title>Node1&#45;&gt;Node4</title>
<g id="a_edge3_Node000001_Node000004"><a xlink:title=" ">
<path fill="none" stroke="#63b8ff" d="M795.39,-334.82C774.3,-368.38 733.11,-426.65 683.25,-460 675.48,-465.2 666.91,-469.69 658.07,-473.55"/>
<polygon fill="#63b8ff" stroke="#63b8ff" points="798.22,-336.89 800.48,-326.54 792.26,-333.22 798.22,-336.89"/>
</a>
</g>
</g>
<!-- Node5 -->
<g id="Node000005" class="node">
<title>Node5</title>
<g id="a_Node000005"><a xlink:href="../../d6/d65/class_deluxe_1_1_deluxe_brand_center_1_1_a_m_m_1_1_a_p_i_1_1_services_1_1_campaign_builder_service.html#a6e63e2daab618e3cf2f64b67ae19b1fd" target="_top" xlink:title=" ">
<polygon fill="white" stroke="#666666" points="658.12,-418 480.88,-418 480.88,-374 658.12,-374 658.12,-418"/>
<text text-anchor="start" x="488.88" y="-404.5" font-family="Helvetica,sans-Serif" font-size="10.00">Deluxe.DeluxeBrandCenter.</text>
<text text-anchor="start" x="488.88" y="-392.5" font-family="Helvetica,sans-Serif" font-size="10.00">AMM.API.Services.CampaignBuilder</text>
<text text-anchor="middle" x="569.5" y="-380.5" font-family="Helvetica,sans-Serif" font-size="10.00">Service.FormatContactLists</text>
</a>
</g>
</g>
<!-- Node1&#45;&gt;Node5 -->
<g id="edge4_Node000001_Node000005" class="edge">
<title>Node1&#45;&gt;Node5</title>
<g id="a_edge4_Node000001_Node000005"><a xlink:title=" ">
<path fill="none" stroke="#63b8ff" d="M766.54,-330.28C742.31,-341.49 711.51,-354.96 683.25,-365 674.83,-367.99 665.98,-370.87 657.09,-373.58"/>
<polygon fill="#63b8ff" stroke="#63b8ff" points="767.89,-333.51 775.47,-326.11 764.93,-327.17 767.89,-333.51"/>
</a>
</g>
</g>
<!-- Node6 -->
<g id="Node000006" class="node">
<title>Node6</title>
<g id="a_Node000006"><a xlink:href="../../d6/d65/class_deluxe_1_1_deluxe_brand_center_1_1_a_m_m_1_1_a_p_i_1_1_services_1_1_campaign_builder_service.html#a947f982ab93bc77b7199c9aa69ae3628" target="_top" xlink:title=" ">
<polygon fill="white" stroke="#666666" points="406.25,-443 229,-443 229,-399 406.25,-399 406.25,-443"/>
<text text-anchor="start" x="237" y="-429.5" font-family="Helvetica,sans-Serif" font-size="10.00">Deluxe.DeluxeBrandCenter.</text>
<text text-anchor="start" x="237" y="-417.5" font-family="Helvetica,sans-Serif" font-size="10.00">AMM.API.Services.CampaignBuilder</text>
<text text-anchor="middle" x="317.62" y="-405.5" font-family="Helvetica,sans-Serif" font-size="10.00">Service.LaunchCampaign</text>
</a>
</g>
</g>
<!-- Node1&#45;&gt;Node6 -->
<g id="edge7_Node000001_Node000006" class="edge">
<title>Node1&#45;&gt;Node6</title>
<g id="a_edge7_Node000001_Node000006"><a xlink:title=" ">
<path fill="none" stroke="#63b8ff" d="M792.89,-334.23C770.95,-362.99 730.65,-408.42 683.25,-427 593.95,-462.01 482.64,-453.48 406.65,-440.68"/>
<polygon fill="#63b8ff" stroke="#63b8ff" points="795.55,-336.51 798.7,-326.39 789.93,-332.34 795.55,-336.51"/>
</a>
</g>
</g>
<!-- Node7 -->
<g id="Node000007" class="node">
<title>Node7</title>
<g id="a_Node000007"><a xlink:href="../../de/d5c/class_deluxe_1_1_deluxe_brand_center_1_1_a_m_m_1_1_a_p_i_1_1_services_1_1_template_service.html#a3d900693d863153760355eb9978db705" target="_top" xlink:title=" ">
<polygon fill="white" stroke="#666666" points="658.88,-356 480.12,-356 480.12,-312 658.88,-312 658.88,-356"/>
<text text-anchor="start" x="488.12" y="-342.5" font-family="Helvetica,sans-Serif" font-size="10.00">Deluxe.DeluxeBrandCenter.</text>
<text text-anchor="start" x="488.12" y="-330.5" font-family="Helvetica,sans-Serif" font-size="10.00">AMM.API.Services.TemplateService.</text>
<text text-anchor="middle" x="569.5" y="-318.5" font-family="Helvetica,sans-Serif" font-size="10.00">GetSingleByTemplateId</text>
</a>
</g>
</g>
<!-- Node1&#45;&gt;Node7 -->
<g id="edge6_Node000001_Node000007" class="edge">
<title>Node1&#45;&gt;Node7</title>
<g id="a_edge6_Node000001_Node000007"><a xlink:title=" ">
<path fill="none" stroke="#63b8ff" d="M707.7,-319.72C691.52,-321.4 674.91,-323.13 659.09,-324.78"/>
<polygon fill="#63b8ff" stroke="#63b8ff" points="707.73,-323.23 717.31,-318.72 707,-316.27 707.73,-323.23"/>
</a>
</g>
</g>
<!-- Node8 -->
<g id="Node000008" class="node">
<title>Node8</title>
<g id="a_Node000008"><a xlink:href="../../d6/d65/class_deluxe_1_1_deluxe_brand_center_1_1_a_m_m_1_1_a_p_i_1_1_services_1_1_campaign_builder_service.html#ad283235567b856b4e70d91da2bbeca0e" target="_top" xlink:title=" ">
<polygon fill="white" stroke="#666666" points="407.38,-268 227.88,-268 227.88,-224 407.38,-224 407.38,-268"/>
<text text-anchor="start" x="235.88" y="-254.5" font-family="Helvetica,sans-Serif" font-size="10.00">Deluxe.DeluxeBrandCenter.</text>
<text text-anchor="start" x="235.88" y="-242.5" font-family="Helvetica,sans-Serif" font-size="10.00">AMM.API.Services.CampaignBuilder</text>
<text text-anchor="middle" x="317.62" y="-230.5" font-family="Helvetica,sans-Serif" font-size="10.00">Service.MapXMLtoCampaignElement</text>
</a>
</g>
</g>
<!-- Node1&#45;&gt;Node8 -->
<g id="edge8_Node000001_Node000008" class="edge">
<title>Node1&#45;&gt;Node8</title>
<g id="a_edge8_Node000001_Node000008"><a xlink:title=" ">
<path fill="none" stroke="#63b8ff" d="M707.89,-296.66C637,-288.04 540.62,-276.14 455.75,-265 440.26,-262.97 423.8,-260.74 407.85,-258.55"/>
<polygon fill="#63b8ff" stroke="#63b8ff" points="707.19,-300.1 717.54,-297.83 708.03,-293.15 707.19,-300.1"/>
</a>
</g>
</g>
<!-- Node11 -->
<g id="Node000011" class="node">
<title>Node11</title>
<g id="a_Node000011"><a xlink:href="../../d6/d65/class_deluxe_1_1_deluxe_brand_center_1_1_a_m_m_1_1_a_p_i_1_1_services_1_1_campaign_builder_service.html#a74ba8e98a9d32f4a88b206365c879163" target="_top" xlink:title=" ">
<polygon fill="white" stroke="#666666" points="658.12,-256 480.88,-256 480.88,-212 658.12,-212 658.12,-256"/>
<text text-anchor="start" x="488.88" y="-242.5" font-family="Helvetica,sans-Serif" font-size="10.00">Deluxe.DeluxeBrandCenter.</text>
<text text-anchor="start" x="488.88" y="-230.5" font-family="Helvetica,sans-Serif" font-size="10.00">AMM.API.Services.CampaignBuilder</text>
<text text-anchor="middle" x="569.5" y="-218.5" font-family="Helvetica,sans-Serif" font-size="10.00">Service.MapXMLToSchedule</text>
</a>
</g>
</g>
<!-- Node1&#45;&gt;Node11 -->
<g id="edge11_Node000001_Node000011" class="edge">
<title>Node1&#45;&gt;Node11</title>
<g id="a_edge11_Node000001_Node000011"><a xlink:title=" ">
<path fill="none" stroke="#63b8ff" d="M747.27,-289.21C714.99,-279.13 675.6,-266.83 642.2,-256.4"/>
<polygon fill="#63b8ff" stroke="#63b8ff" points="745.9,-292.45 756.48,-292.09 747.98,-285.77 745.9,-292.45"/>
</a>
</g>
</g>
<!-- Node12 -->
<g id="Node000012" class="node">
<title>Node12</title>
<g id="a_Node000012"><a xlink:href="../../d5/d5f/class_deluxe_1_1_deluxe_brand_center_1_1_a_m_m_1_1_domain_1_1_utility_1_1_json_helper.html#a496c80a7b8b6ed0be0a938310193be0e" target="_top" xlink:title=" ">
<polygon fill="white" stroke="#666666" points="661.88,-156 477.12,-156 477.12,-124 661.88,-124 661.88,-156"/>
<text text-anchor="start" x="485.12" y="-142.5" font-family="Helvetica,sans-Serif" font-size="10.00">Deluxe.DeluxeBrandCenter.</text>
<text text-anchor="middle" x="569.5" y="-130.5" font-family="Helvetica,sans-Serif" font-size="10.00">AMM.Domain.Utility.JsonHelper.Parse</text>
</a>
</g>
</g>
<!-- Node1&#45;&gt;Node12 -->
<g id="edge13_Node000001_Node000012" class="edge">
<title>Node1&#45;&gt;Node12</title>
<g id="a_edge13_Node000001_Node000012"><a xlink:title=" ">
<path fill="none" stroke="#63b8ff" d="M794.17,-283.53C772.52,-252.1 731.5,-199.22 683.25,-170 674.24,-164.54 664.24,-160.07 654.02,-156.4"/>
<polygon fill="#63b8ff" stroke="#63b8ff" points="791.16,-285.34 799.66,-291.68 796.97,-281.43 791.16,-285.34"/>
</a>
</g>
</g>
<!-- Node13 -->
<g id="Node000013" class="node">
<title>Node13</title>
<g id="a_Node000013"><a xlink:href="../../d6/d65/class_deluxe_1_1_deluxe_brand_center_1_1_a_m_m_1_1_a_p_i_1_1_services_1_1_campaign_builder_service.html#ab467537fb4f9a8ae0c85d2f0bc74e2e9" target="_top" xlink:title=" ">
<polygon fill="white" stroke="#666666" points="658.12,-106 480.88,-106 480.88,-62 658.12,-62 658.12,-106"/>
<text text-anchor="start" x="488.88" y="-92.5" font-family="Helvetica,sans-Serif" font-size="10.00">Deluxe.DeluxeBrandCenter.</text>
<text text-anchor="start" x="488.88" y="-80.5" font-family="Helvetica,sans-Serif" font-size="10.00">AMM.API.Services.CampaignBuilder</text>
<text text-anchor="middle" x="569.5" y="-68.5" font-family="Helvetica,sans-Serif" font-size="10.00">Service.SaveCampaign</text>
</a>
</g>
</g>
<!-- Node1&#45;&gt;Node13 -->
<g id="edge14_Node000001_Node000013" class="edge">
<title>Node1&#45;&gt;Node13</title>
<g id="a_edge14_Node000001_Node000013"><a xlink:title=" ">
<path fill="none" stroke="#63b8ff" d="M800.33,-282.03C782.82,-239.86 743.23,-158.65 683.25,-115 675.7,-109.51 667.22,-104.98 658.39,-101.26"/>
<polygon fill="#63b8ff" stroke="#63b8ff" points="797.03,-283.21 804.01,-291.18 803.52,-280.6 797.03,-283.21"/>
</a>
</g>
</g>
<!-- Node14 -->
<g id="Node000014" class="node">
<title>Node14</title>
<g id="a_Node000014"><a xlink:href="../../d6/d65/class_deluxe_1_1_deluxe_brand_center_1_1_a_m_m_1_1_a_p_i_1_1_services_1_1_campaign_builder_service.html#a80e018243b86364b46a1d5f5c20689a9" target="_top" xlink:title=" ">
<polygon fill="white" stroke="#666666" points="406.25,-206 229,-206 229,-162 406.25,-162 406.25,-206"/>
<text text-anchor="start" x="237" y="-192.5" font-family="Helvetica,sans-Serif" font-size="10.00">Deluxe.DeluxeBrandCenter.</text>
<text text-anchor="start" x="237" y="-180.5" font-family="Helvetica,sans-Serif" font-size="10.00">AMM.API.Services.CampaignBuilder</text>
<text text-anchor="middle" x="317.62" y="-168.5" font-family="Helvetica,sans-Serif" font-size="10.00">Service.SetScheduleConfig</text>
</a>
</g>
</g>
<!-- Node1&#45;&gt;Node14 -->
<g id="edge15_Node000001_Node000014" class="edge">
<title>Node1&#45;&gt;Node14</title>
<g id="a_edge15_Node000001_Node000014"><a xlink:title=" ">
<path fill="none" stroke="#63b8ff" d="M789.99,-284.29C766.96,-258.72 727.11,-220.16 683.25,-203 593.82,-168 482.54,-167.77 406.59,-173.42"/>
<polygon fill="#63b8ff" stroke="#63b8ff" points="787.19,-286.4 796.42,-291.6 792.45,-281.78 787.19,-286.4"/>
</a>
</g>
</g>
<!-- Node15 -->
<g id="Node000015" class="node">
<title>Node15</title>
<g id="a_Node000015"><a xlink:href="../../d8/d0b/class_deluxe_1_1_deluxe_brand_center_1_1_a_m_m_1_1_a_p_i_1_1_services_1_1_user_campaign_service.html#a1d654c3b7ffdfc7bfbc0e3dc6e0ea4ba" target="_top" xlink:title=" ">
<polygon fill="white" stroke="#666666" points="671.62,-44 467.38,-44 467.38,0 671.62,0 671.62,-44"/>
<text text-anchor="start" x="475.38" y="-30.5" font-family="Helvetica,sans-Serif" font-size="10.00">Deluxe.DeluxeBrandCenter.</text>
<text text-anchor="start" x="475.38" y="-18.5" font-family="Helvetica,sans-Serif" font-size="10.00">AMM.API.Services.UserCampaignService.</text>
<text text-anchor="middle" x="569.5" y="-6.5" font-family="Helvetica,sans-Serif" font-size="10.00">UpdateLaunchedCampaign</text>
</a>
</g>
</g>
<!-- Node1&#45;&gt;Node15 -->
<g id="edge18_Node000001_Node000015" class="edge">
<title>Node1&#45;&gt;Node15</title>
<g id="a_edge18_Node000001_Node000015"><a xlink:title=" ">
<path fill="none" stroke="#63b8ff" d="M804.8,-281.54C792.21,-228.99 757.39,-114.03 683.25,-53 679.41,-49.84 675.27,-47 670.93,-44.45"/>
<polygon fill="#63b8ff" stroke="#63b8ff" points="801.36,-282.19 807.01,-291.15 808.18,-280.62 801.36,-282.19"/>
</a>
</g>
</g>
<!-- Node5&#45;&gt;Node6 -->
<g id="edge5_Node000005_Node000006" class="edge">
<title>Node5&#45;&gt;Node6</title>
<g id="a_edge5_Node000005_Node000006"><a xlink:title=" ">
<path fill="none" stroke="#63b8ff" d="M469.01,-405.95C448.29,-408.03 426.6,-410.2 406.35,-412.22"/>
<polygon fill="#63b8ff" stroke="#63b8ff" points="469.3,-409.44 478.9,-404.96 468.6,-402.48 469.3,-409.44"/>
</a>
</g>
</g>
<!-- Node9 -->
<g id="Node000009" class="node">
<title>Node9</title>
<g id="a_Node000009"><a xlink:href="../../d6/d65/class_deluxe_1_1_deluxe_brand_center_1_1_a_m_m_1_1_a_p_i_1_1_services_1_1_campaign_builder_service.html#a57435ae2fe593aa7ce835a599a8cb799" target="_top" xlink:title=" ">
<polygon fill="white" stroke="#666666" points="178.38,-268 1.12,-268 1.12,-224 178.38,-224 178.38,-268"/>
<text text-anchor="start" x="9.12" y="-254.5" font-family="Helvetica,sans-Serif" font-size="10.00">Deluxe.DeluxeBrandCenter.</text>
<text text-anchor="start" x="9.12" y="-242.5" font-family="Helvetica,sans-Serif" font-size="10.00">AMM.API.Services.CampaignBuilder</text>
<text text-anchor="middle" x="89.75" y="-230.5" font-family="Helvetica,sans-Serif" font-size="10.00">Service.GetCampaign</text>
</a>
</g>
</g>
<!-- Node8&#45;&gt;Node9 -->
<g id="edge9_Node000008_Node000009" class="edge">
<title>Node8&#45;&gt;Node9</title>
<g id="a_edge9_Node000008_Node000009"><a xlink:title=" ">
<path fill="none" stroke="#63b8ff" d="M216.21,-246C203.64,-246 190.86,-246 178.51,-246"/>
<polygon fill="#63b8ff" stroke="#63b8ff" points="216.16,-249.5 226.16,-246 216.16,-242.5 216.16,-249.5"/>
</a>
</g>
</g>
<!-- Node10 -->
<g id="Node000010" class="node">
<title>Node10</title>
<g id="a_Node000010"><a xlink:href="../../d6/d65/class_deluxe_1_1_deluxe_brand_center_1_1_a_m_m_1_1_a_p_i_1_1_services_1_1_campaign_builder_service.html#a04a2bdc2d02130bbd00f6b00406563d4" target="_top" xlink:title=" ">
<polygon fill="white" stroke="#666666" points="179.5,-206 0,-206 0,-162 179.5,-162 179.5,-206"/>
<text text-anchor="start" x="8" y="-192.5" font-family="Helvetica,sans-Serif" font-size="10.00">Deluxe.DeluxeBrandCenter.</text>
<text text-anchor="start" x="8" y="-180.5" font-family="Helvetica,sans-Serif" font-size="10.00">AMM.API.Services.CampaignBuilder</text>
<text text-anchor="middle" x="89.75" y="-168.5" font-family="Helvetica,sans-Serif" font-size="10.00">Service.UpdateNameAndContentUrls</text>
</a>
</g>
</g>
<!-- Node8&#45;&gt;Node10 -->
<g id="edge10_Node000008_Node000010" class="edge">
<title>Node8&#45;&gt;Node10</title>
<g id="a_edge10_Node000008_Node000010"><a xlink:title=" ">
<path fill="none" stroke="#63b8ff" d="M223.75,-220.51C206.83,-215.86 189.29,-211.05 172.72,-206.5"/>
<polygon fill="#63b8ff" stroke="#63b8ff" points="222.73,-223.86 233.3,-223.13 224.58,-217.11 222.73,-223.86"/>
</a>
</g>
</g>
<!-- Node11&#45;&gt;Node8 -->
<g id="edge12_Node000011_Node000008" class="edge">
<title>Node11&#45;&gt;Node8</title>
<g id="a_edge12_Node000011_Node000008"><a xlink:title=" ">
<path fill="none" stroke="#63b8ff" d="M468.93,-238.78C448.67,-239.75 427.48,-240.77 407.61,-241.73"/>
<polygon fill="#63b8ff" stroke="#63b8ff" points="469.07,-242.28 478.89,-238.3 468.74,-235.29 469.07,-242.28"/>
</a>
</g>
</g>
<!-- Node14&#45;&gt;Node9 -->
<g id="edge16_Node000014_Node000009" class="edge">
<title>Node14&#45;&gt;Node9</title>
<g id="a_edge16_Node000014_Node000009"><a xlink:title=" ">
<path fill="none" stroke="#63b8ff" d="M223.75,-209.49C206.83,-214.14 189.29,-218.95 172.72,-223.5"/>
<polygon fill="#63b8ff" stroke="#63b8ff" points="224.58,-212.89 233.3,-206.87 222.73,-206.14 224.58,-212.89"/>
</a>
</g>
</g>
<!-- Node14&#45;&gt;Node10 -->
<g id="edge17_Node000014_Node000010" class="edge">
<title>Node14&#45;&gt;Node10</title>
<g id="a_edge17_Node000014_Node000010"><a xlink:title=" ">
<path fill="none" stroke="#63b8ff" d="M217.32,-184C204.89,-184 192.24,-184 179.97,-184"/>
<polygon fill="#63b8ff" stroke="#63b8ff" points="217.14,-187.5 227.14,-184 217.14,-180.5 217.14,-187.5"/>
</a>
</g>
</g>
<!-- Node16 -->
<g id="Node000016" class="node">
<title>Node16</title>
<g id="a_Node000016"><a xlink:href="../../d8/d0b/class_deluxe_1_1_deluxe_brand_center_1_1_a_m_m_1_1_a_p_i_1_1_services_1_1_user_campaign_service.html#acae0839d509d83c19c2c036632eac839" target="_top" xlink:title=" ">
<polygon fill="white" stroke="#666666" points="419.75,-44 215.5,-44 215.5,0 419.75,0 419.75,-44"/>
<text text-anchor="start" x="223.5" y="-30.5" font-family="Helvetica,sans-Serif" font-size="10.00">Deluxe.DeluxeBrandCenter.</text>
<text text-anchor="start" x="223.5" y="-18.5" font-family="Helvetica,sans-Serif" font-size="10.00">AMM.API.Services.UserCampaignService.</text>
<text text-anchor="middle" x="317.62" y="-6.5" font-family="Helvetica,sans-Serif" font-size="10.00">SyncPersonaDataWithMF</text>
</a>
</g>
</g>
<!-- Node15&#45;&gt;Node16 -->
<g id="edge19_Node000015_Node000016" class="edge">
<title>Node15&#45;&gt;Node16</title>
<g id="a_edge19_Node000015_Node000016"><a xlink:title=" ">
<path fill="none" stroke="#63b8ff" d="M455.85,-22C443.92,-22 431.83,-22 420.04,-22"/>
<polygon fill="#63b8ff" stroke="#63b8ff" points="455.71,-25.5 465.71,-22 455.71,-18.5 455.71,-25.5"/>
</a>
</g>
</g>
</g>
</svg>
