<?xml version="1.0" encoding="UTF-8" standalone="no"?>
<!DOCTYPE svg PUBLIC "-//W3C//DTD SVG 1.1//EN"
 "http://www.w3.org/Graphics/SVG/1.1/DTD/svg11.dtd">
<!-- Generated by graphviz version 12.1.1 (20240910.0053)
 -->
<!-- Title: Deluxe.DeluxeBrandCenter.AMM.API.Services.SignatureBlockService Pages: 1 -->
<svg width="981pt" height="109pt"
 viewBox="0.00 0.00 981.25 109.35" xmlns="http://www.w3.org/2000/svg" xmlns:xlink="http://www.w3.org/1999/xlink">
<g id="graph0" class="graph" transform="scale(1 1) rotate(0) translate(4 105.35)">
<title>Deluxe.DeluxeBrandCenter.AMM.API.Services.SignatureBlockService</title>
<!-- Node1 -->
<g id="Node000001" class="node">
<title>Node1</title>
<g id="a_Node000001"><a xlink:title=" ">
<polygon fill="#999999" stroke="#666666" points="973.25,-74 804.25,-74 804.25,-30 973.25,-30 973.25,-74"/>
<text text-anchor="start" x="812.25" y="-60.5" font-family="Helvetica,sans-Serif" font-size="10.00">Deluxe.DeluxeBrandCenter.</text>
<text text-anchor="start" x="812.25" y="-48.5" font-family="Helvetica,sans-Serif" font-size="10.00">AMM.API.Services.SignatureBlock</text>
<text text-anchor="middle" x="888.75" y="-36.5" font-family="Helvetica,sans-Serif" font-size="10.00">Service</text>
</a>
</g>
</g>
<!-- Node2 -->
<g id="Node000002" class="node">
<title>Node2</title>
<g id="a_Node000002"><a xlink:href="../../d6/d4e/class_deluxe_1_1_deluxe_brand_center_1_1_a_m_m_1_1_a_p_i_1_1_services_1_1_d_b_service.html" target="_top" xlink:title=" ">
<polygon fill="white" stroke="#666666" points="767.25,-92 626,-92 626,-60 767.25,-60 767.25,-92"/>
<text text-anchor="start" x="634" y="-78.5" font-family="Helvetica,sans-Serif" font-size="10.00">DBService&lt; SignatureBlock,</text>
<text text-anchor="middle" x="696.62" y="-66.5" font-family="Helvetica,sans-Serif" font-size="10.00"> SignatureBlockVM &gt;</text>
</a>
</g>
</g>
<!-- Node2&#45;&gt;Node1 -->
<g id="edge1_Node000001_Node000002" class="edge">
<title>Node2&#45;&gt;Node1</title>
<g id="a_edge1_Node000001_Node000002"><a xlink:title=" ">
<path fill="none" stroke="#63b8ff" d="M778.87,-65.74C787.21,-64.69 795.69,-63.62 804.06,-62.56"/>
<polygon fill="#63b8ff" stroke="#63b8ff" points="778.6,-62.25 769.11,-66.98 779.47,-69.2 778.6,-62.25"/>
</a>
</g>
</g>
<!-- Node3 -->
<g id="Node000003" class="node">
<title>Node3</title>
<g id="a_Node000003"><a xlink:href="../../d6/d4e/class_deluxe_1_1_deluxe_brand_center_1_1_a_m_m_1_1_a_p_i_1_1_services_1_1_d_b_service.html" target="_top" xlink:title=" ">
<polygon fill="white" stroke="#666666" points="464.75,-100 314.5,-100 314.5,-56 464.75,-56 464.75,-100"/>
<text text-anchor="start" x="322.5" y="-86.5" font-family="Helvetica,sans-Serif" font-size="10.00">Deluxe.DeluxeBrandCenter.</text>
<text text-anchor="start" x="322.5" y="-74.5" font-family="Helvetica,sans-Serif" font-size="10.00">AMM.API.Services.DBService</text>
<text text-anchor="middle" x="389.62" y="-62.5" font-family="Helvetica,sans-Serif" font-size="10.00">&lt; TModel, TModelVM &gt;</text>
</a>
</g>
</g>
<!-- Node3&#45;&gt;Node2 -->
<g id="edge2_Node000002_Node000003" class="edge">
<title>Node3&#45;&gt;Node2</title>
<g id="a_edge2_Node000002_Node000003"><a xlink:title=" ">
<path fill="none" stroke="orange" stroke-dasharray="5,2" d="M476.66,-77.44C523.77,-77.13 581.4,-76.75 625.71,-76.46"/>
<polygon fill="orange" stroke="orange" points="476.73,-73.94 466.75,-77.5 476.77,-80.94 476.73,-73.94"/>
</a>
</g>
<text text-anchor="start" x="482.75" y="-91.85" font-family="Helvetica,sans-Serif" font-size="10.00" fill="grey"> &lt; SignatureBlock, Signature</text>
<text text-anchor="middle" x="545.38" y="-79.85" font-family="Helvetica,sans-Serif" font-size="10.00" fill="grey">BlockVM &gt;</text>
</g>
<!-- Node4 -->
<g id="Node000004" class="node">
<title>Node4</title>
<g id="a_Node000004"><a xlink:href="../../d3/ddb/interface_deluxe_1_1_deluxe_brand_center_1_1_a_m_m_1_1_a_p_i_1_1_services_1_1_i_d_b_service.html" target="_top" xlink:title=" ">
<polygon fill="white" stroke="#666666" points="131.5,-94 21.75,-94 21.75,-62 131.5,-62 131.5,-94"/>
<text text-anchor="start" x="29.75" y="-80.5" font-family="Helvetica,sans-Serif" font-size="10.00">IDBService&lt; TModel,</text>
<text text-anchor="middle" x="76.62" y="-68.5" font-family="Helvetica,sans-Serif" font-size="10.00"> TModelVM &gt;</text>
</a>
</g>
</g>
<!-- Node4&#45;&gt;Node3 -->
<g id="edge3_Node000003_Node000004" class="edge">
<title>Node4&#45;&gt;Node3</title>
<g id="a_edge3_Node000003_Node000004"><a xlink:title=" ">
<path fill="none" stroke="#63b8ff" d="M143.12,-78C193.1,-78 262.02,-78 314.11,-78"/>
<polygon fill="#63b8ff" stroke="#63b8ff" points="143.31,-74.5 133.31,-78 143.31,-81.5 143.31,-74.5"/>
</a>
</g>
</g>
<!-- Node5 -->
<g id="Node000005" class="node">
<title>Node5</title>
<g id="a_Node000005"><a xlink:href="../../dd/d36/interface_deluxe_1_1_deluxe_brand_center_1_1_a_m_m_1_1_a_p_i_1_1_services_1_1_i_signature_block_service.html" target="_top" xlink:title=" ">
<polygon fill="white" stroke="#666666" points="755.62,-41 637.62,-41 637.62,-21 755.62,-21 755.62,-41"/>
<text text-anchor="middle" x="696.62" y="-27.5" font-family="Helvetica,sans-Serif" font-size="10.00">ISignatureBlockService</text>
</a>
</g>
</g>
<!-- Node5&#45;&gt;Node1 -->
<g id="edge4_Node000001_Node000005" class="edge">
<title>Node5&#45;&gt;Node1</title>
<g id="a_edge4_Node000001_Node000005"><a xlink:title=" ">
<path fill="none" stroke="#63b8ff" d="M767.22,-38.69C779.17,-40.01 791.71,-41.39 803.98,-42.75"/>
<polygon fill="#63b8ff" stroke="#63b8ff" points="767.79,-35.23 757.47,-37.61 767.02,-42.19 767.79,-35.23"/>
</a>
</g>
</g>
<!-- Node6 -->
<g id="Node000006" class="node">
<title>Node6</title>
<g id="a_Node000006"><a xlink:href="../../d3/ddb/interface_deluxe_1_1_deluxe_brand_center_1_1_a_m_m_1_1_a_p_i_1_1_services_1_1_i_d_b_service.html" target="_top" xlink:title=" ">
<polygon fill="white" stroke="#666666" points="461.75,-38 317.5,-38 317.5,-6 461.75,-6 461.75,-38"/>
<text text-anchor="start" x="325.5" y="-24.5" font-family="Helvetica,sans-Serif" font-size="10.00">IDBService&lt; SignatureBlock,</text>
<text text-anchor="middle" x="389.62" y="-12.5" font-family="Helvetica,sans-Serif" font-size="10.00"> SignatureBlockVM &gt;</text>
</a>
</g>
</g>
<!-- Node6&#45;&gt;Node5 -->
<g id="edge5_Node000005_Node000006" class="edge">
<title>Node6&#45;&gt;Node5</title>
<g id="a_edge5_Node000005_Node000006"><a xlink:title=" ">
<path fill="none" stroke="#63b8ff" d="M473.32,-24.44C525.22,-25.97 590.87,-27.91 637.34,-29.28"/>
<polygon fill="#63b8ff" stroke="#63b8ff" points="473.75,-20.95 463.65,-24.15 473.54,-27.95 473.75,-20.95"/>
</a>
</g>
</g>
<!-- Node7 -->
<g id="Node000007" class="node">
<title>Node7</title>
<g id="a_Node000007"><a xlink:href="../../d3/ddb/interface_deluxe_1_1_deluxe_brand_center_1_1_a_m_m_1_1_a_p_i_1_1_services_1_1_i_d_b_service.html" target="_top" xlink:title=" ">
<polygon fill="white" stroke="#666666" points="153.25,-44 0,-44 0,0 153.25,0 153.25,-44"/>
<text text-anchor="start" x="8" y="-30.5" font-family="Helvetica,sans-Serif" font-size="10.00">Deluxe.DeluxeBrandCenter.</text>
<text text-anchor="start" x="8" y="-18.5" font-family="Helvetica,sans-Serif" font-size="10.00">AMM.API.Services.IDBService</text>
<text text-anchor="middle" x="76.62" y="-6.5" font-family="Helvetica,sans-Serif" font-size="10.00">&lt; TModel, TModelVM &gt;</text>
</a>
</g>
</g>
<!-- Node7&#45;&gt;Node6 -->
<g id="edge6_Node000006_Node000007" class="edge">
<title>Node7&#45;&gt;Node6</title>
<g id="a_edge6_Node000006_Node000007"><a xlink:title=" ">
<path fill="none" stroke="orange" stroke-dasharray="5,2" d="M165.03,-22C213.03,-22 271.82,-22 317.07,-22"/>
<polygon fill="orange" stroke="orange" points="165.22,-18.5 155.22,-22 165.22,-25.5 165.22,-18.5"/>
</a>
</g>
<text text-anchor="start" x="171.25" y="-36.5" font-family="Helvetica,sans-Serif" font-size="10.00" fill="grey"> &lt; SignatureBlock, Signature</text>
<text text-anchor="middle" x="233.88" y="-24.5" font-family="Helvetica,sans-Serif" font-size="10.00" fill="grey">BlockVM &gt;</text>
</g>
</g>
</svg>
