<?xml version="1.0" encoding="UTF-8" standalone="no"?>
<!DOCTYPE svg PUBLIC "-//W3C//DTD SVG 1.1//EN"
 "http://www.w3.org/Graphics/SVG/1.1/DTD/svg11.dtd">
<!-- Generated by graphviz version 12.1.1 (20240910.0053)
 -->
<!-- Title: Deluxe.DeluxeBrandCenter.AMM.Infrastructure.Social.LinkedinService.GetSocailAccountInfo Pages: 1 -->
<svg width="889pt" height="176pt"
 viewBox="0.00 0.00 888.75 176.00" xmlns="http://www.w3.org/2000/svg" xmlns:xlink="http://www.w3.org/1999/xlink">
<g id="graph0" class="graph" transform="scale(1 1) rotate(0) translate(4 172)">
<title>Deluxe.DeluxeBrandCenter.AMM.Infrastructure.Social.LinkedinService.GetSocailAccountInfo</title>
<!-- Node1 -->
<g id="Node000001" class="node">
<title>Node1</title>
<g id="a_Node000001"><a xlink:title=" ">
<polygon fill="#999999" stroke="#666666" points="169,-106 0,-106 0,-62 169,-62 169,-106"/>
<text text-anchor="start" x="8" y="-92.5" font-family="Helvetica,sans-Serif" font-size="10.00">Deluxe.DeluxeBrandCenter.</text>
<text text-anchor="start" x="8" y="-80.5" font-family="Helvetica,sans-Serif" font-size="10.00">AMM.Infrastructure.Social.Linkedin</text>
<text text-anchor="middle" x="84.5" y="-68.5" font-family="Helvetica,sans-Serif" font-size="10.00">Service.GetSocailAccountInfo</text>
</a>
</g>
</g>
<!-- Node2 -->
<g id="Node000002" class="node">
<title>Node2</title>
<g id="a_Node000002"><a xlink:href="../../d1/d32/class_deluxe_1_1_deluxe_brand_center_1_1_a_m_m_1_1_infrastructure_1_1_social_1_1_linkedin_service.html#a1574ea5543c52dfc59e2d10119007b2e" target="_top" xlink:title=" ">
<polygon fill="white" stroke="#666666" points="390.12,-168 221.12,-168 221.12,-124 390.12,-124 390.12,-168"/>
<text text-anchor="start" x="229.12" y="-154.5" font-family="Helvetica,sans-Serif" font-size="10.00">Deluxe.DeluxeBrandCenter.</text>
<text text-anchor="start" x="229.12" y="-142.5" font-family="Helvetica,sans-Serif" font-size="10.00">AMM.Infrastructure.Social.Linkedin</text>
<text text-anchor="middle" x="305.62" y="-130.5" font-family="Helvetica,sans-Serif" font-size="10.00">Service.GetAccessToken</text>
</a>
</g>
</g>
<!-- Node1&#45;&gt;Node2 -->
<g id="edge1_Node000001_Node000002" class="edge">
<title>Node1&#45;&gt;Node2</title>
<g id="a_edge1_Node000001_Node000002"><a xlink:title=" ">
<path fill="none" stroke="#63b8ff" d="M164.92,-106.47C180.99,-111.02 198.01,-115.83 214.42,-120.48"/>
<polygon fill="#63b8ff" stroke="#63b8ff" points="213.08,-123.73 223.65,-123.09 214.98,-117 213.08,-123.73"/>
</a>
</g>
</g>
<!-- Node4 -->
<g id="Node000004" class="node">
<title>Node4</title>
<g id="a_Node000004"><a xlink:href="../../d1/d32/class_deluxe_1_1_deluxe_brand_center_1_1_a_m_m_1_1_infrastructure_1_1_social_1_1_linkedin_service.html#a28987b5c2d566dd6ca1d5f354dac19e0" target="_top" xlink:title=" ">
<polygon fill="white" stroke="#666666" points="390.12,-106 221.12,-106 221.12,-62 390.12,-62 390.12,-106"/>
<text text-anchor="start" x="229.12" y="-92.5" font-family="Helvetica,sans-Serif" font-size="10.00">Deluxe.DeluxeBrandCenter.</text>
<text text-anchor="start" x="229.12" y="-80.5" font-family="Helvetica,sans-Serif" font-size="10.00">AMM.Infrastructure.Social.Linkedin</text>
<text text-anchor="middle" x="305.62" y="-68.5" font-family="Helvetica,sans-Serif" font-size="10.00">Service.GetProfile</text>
</a>
</g>
</g>
<!-- Node1&#45;&gt;Node4 -->
<g id="edge3_Node000001_Node000004" class="edge">
<title>Node1&#45;&gt;Node4</title>
<g id="a_edge3_Node000001_Node000004"><a xlink:title=" ">
<path fill="none" stroke="#63b8ff" d="M169.28,-84C182.49,-84 196.24,-84 209.69,-84"/>
<polygon fill="#63b8ff" stroke="#63b8ff" points="209.38,-87.5 219.38,-84 209.38,-80.5 209.38,-87.5"/>
</a>
</g>
</g>
<!-- Node5 -->
<g id="Node000005" class="node">
<title>Node5</title>
<g id="a_Node000005"><a xlink:href="../../d6/db1/class_deluxe_1_1_deluxe_brand_center_1_1_a_m_m_1_1_infrastructure_1_1_databases_1_1_application_db_context.html#a92bd6d01c18ab350b60414ec6991a32d" target="_top" xlink:title=" ">
<polygon fill="white" stroke="#666666" points="406.25,-44 205,-44 205,0 406.25,0 406.25,-44"/>
<text text-anchor="start" x="213" y="-30.5" font-family="Helvetica,sans-Serif" font-size="10.00">Deluxe.DeluxeBrandCenter.</text>
<text text-anchor="start" x="213" y="-18.5" font-family="Helvetica,sans-Serif" font-size="10.00">AMM.Infrastructure.Databases.Application</text>
<text text-anchor="middle" x="305.62" y="-6.5" font-family="Helvetica,sans-Serif" font-size="10.00">DbContext.SaveChangesAsync</text>
</a>
</g>
</g>
<!-- Node1&#45;&gt;Node5 -->
<g id="edge4_Node000001_Node000005" class="edge">
<title>Node1&#45;&gt;Node5</title>
<g id="a_edge4_Node000001_Node000005"><a xlink:title=" ">
<path fill="none" stroke="#63b8ff" d="M164.92,-61.53C180.99,-56.98 198.01,-52.17 214.42,-47.52"/>
<polygon fill="#63b8ff" stroke="#63b8ff" points="214.98,-51 223.65,-44.91 213.08,-44.27 214.98,-51"/>
</a>
</g>
</g>
<!-- Node3 -->
<g id="Node000003" class="node">
<title>Node3</title>
<g id="a_Node000003"><a xlink:href="../../d1/d32/class_deluxe_1_1_deluxe_brand_center_1_1_a_m_m_1_1_infrastructure_1_1_social_1_1_linkedin_service.html#a6d197422d2a4279f7967974b6c66370e" target="_top" xlink:title=" ">
<polygon fill="white" stroke="#666666" points="627.38,-168 458.38,-168 458.38,-124 627.38,-124 627.38,-168"/>
<text text-anchor="start" x="466.38" y="-154.5" font-family="Helvetica,sans-Serif" font-size="10.00">Deluxe.DeluxeBrandCenter.</text>
<text text-anchor="start" x="466.38" y="-142.5" font-family="Helvetica,sans-Serif" font-size="10.00">AMM.Infrastructure.Social.Linkedin</text>
<text text-anchor="middle" x="542.88" y="-130.5" font-family="Helvetica,sans-Serif" font-size="10.00">Service.GetSettings</text>
</a>
</g>
</g>
<!-- Node2&#45;&gt;Node3 -->
<g id="edge2_Node000002_Node000003" class="edge">
<title>Node2&#45;&gt;Node3</title>
<g id="a_edge2_Node000002_Node000003"><a xlink:title=" ">
<path fill="none" stroke="#63b8ff" d="M390.56,-146C408.7,-146 428.01,-146 446.55,-146"/>
<polygon fill="#63b8ff" stroke="#63b8ff" points="446.46,-149.5 456.46,-146 446.46,-142.5 446.46,-149.5"/>
</a>
</g>
</g>
<!-- Node6 -->
<g id="Node000006" class="node">
<title>Node6</title>
<g id="a_Node000006"><a xlink:href="../../d6/db1/class_deluxe_1_1_deluxe_brand_center_1_1_a_m_m_1_1_infrastructure_1_1_databases_1_1_application_db_context.html#aea43a5ab4bb779ccf8678ef7aac5be0c" target="_top" xlink:title=" ">
<polygon fill="white" stroke="#666666" points="643.5,-44 442.25,-44 442.25,0 643.5,0 643.5,-44"/>
<text text-anchor="start" x="450.25" y="-30.5" font-family="Helvetica,sans-Serif" font-size="10.00">Deluxe.DeluxeBrandCenter.</text>
<text text-anchor="start" x="450.25" y="-18.5" font-family="Helvetica,sans-Serif" font-size="10.00">AMM.Infrastructure.Databases.Application</text>
<text text-anchor="middle" x="542.88" y="-6.5" font-family="Helvetica,sans-Serif" font-size="10.00">DbContext.OnBeforeSaveChanges</text>
</a>
</g>
</g>
<!-- Node5&#45;&gt;Node6 -->
<g id="edge5_Node000005_Node000006" class="edge">
<title>Node5&#45;&gt;Node6</title>
<g id="a_edge5_Node000005_Node000006"><a xlink:title=" ">
<path fill="none" stroke="#63b8ff" d="M406.73,-22C414.55,-22 422.47,-22 430.35,-22"/>
<polygon fill="#63b8ff" stroke="#63b8ff" points="430.34,-25.5 440.34,-22 430.34,-18.5 430.34,-25.5"/>
</a>
</g>
</g>
<!-- Node7 -->
<g id="Node000007" class="node">
<title>Node7</title>
<g id="a_Node000007"><a xlink:href="../../d6/db1/class_deluxe_1_1_deluxe_brand_center_1_1_a_m_m_1_1_infrastructure_1_1_databases_1_1_application_db_context.html#a5a50b059decefb01e96a92bc29bcd3e6" target="_top" xlink:title=" ">
<polygon fill="white" stroke="#666666" points="880.75,-44 679.5,-44 679.5,0 880.75,0 880.75,-44"/>
<text text-anchor="start" x="687.5" y="-30.5" font-family="Helvetica,sans-Serif" font-size="10.00">Deluxe.DeluxeBrandCenter.</text>
<text text-anchor="start" x="687.5" y="-18.5" font-family="Helvetica,sans-Serif" font-size="10.00">AMM.Infrastructure.Databases.Application</text>
<text text-anchor="middle" x="780.12" y="-6.5" font-family="Helvetica,sans-Serif" font-size="10.00">DbContext.AddTimestampsToEntities</text>
</a>
</g>
</g>
<!-- Node6&#45;&gt;Node7 -->
<g id="edge6_Node000006_Node000007" class="edge">
<title>Node6&#45;&gt;Node7</title>
<g id="a_edge6_Node000006_Node000007"><a xlink:title=" ">
<path fill="none" stroke="#63b8ff" d="M643.98,-22C651.8,-22 659.72,-22 667.6,-22"/>
<polygon fill="#63b8ff" stroke="#63b8ff" points="667.59,-25.5 677.59,-22 667.59,-18.5 667.59,-25.5"/>
</a>
</g>
</g>
</g>
</svg>
