<?xml version="1.0" encoding="UTF-8" standalone="no"?>
<!DOCTYPE svg PUBLIC "-//W3C//DTD SVG 1.1//EN"
 "http://www.w3.org/Graphics/SVG/1.1/DTD/svg11.dtd">
<!-- Generated by graphviz version 12.1.1 (20240910.0053)
 -->
<!-- Title: Deluxe.DeluxeBrandCenter.AMM.Infrastructure.Social.LinkedinService.GetSettings Pages: 1 -->
<svg width="608pt" height="238pt"
 viewBox="0.00 0.00 608.00 238.00" xmlns="http://www.w3.org/2000/svg" xmlns:xlink="http://www.w3.org/1999/xlink">
<g id="graph0" class="graph" transform="scale(1 1) rotate(0) translate(4 234)">
<title>Deluxe.DeluxeBrandCenter.AMM.Infrastructure.Social.LinkedinService.GetSettings</title>
<!-- Node1 -->
<g id="Node000001" class="node">
<title>Node1</title>
<g id="a_Node000001"><a xlink:title=" ">
<polygon fill="#999999" stroke="#666666" points="600,-137 431,-137 431,-93 600,-93 600,-137"/>
<text text-anchor="start" x="439" y="-123.5" font-family="Helvetica,sans-Serif" font-size="10.00">Deluxe.DeluxeBrandCenter.</text>
<text text-anchor="start" x="439" y="-111.5" font-family="Helvetica,sans-Serif" font-size="10.00">AMM.Infrastructure.Social.Linkedin</text>
<text text-anchor="middle" x="515.5" y="-99.5" font-family="Helvetica,sans-Serif" font-size="10.00">Service.GetSettings</text>
</a>
</g>
</g>
<!-- Node2 -->
<g id="Node000002" class="node">
<title>Node2</title>
<g id="a_Node000002"><a xlink:href="../../d1/d32/class_deluxe_1_1_deluxe_brand_center_1_1_a_m_m_1_1_infrastructure_1_1_social_1_1_linkedin_service.html#a9db8fdfb1666fad3de49a2baac8e1ccc" target="_top" xlink:title=" ">
<polygon fill="white" stroke="#666666" points="395,-230 205,-230 205,-186 395,-186 395,-230"/>
<text text-anchor="start" x="213" y="-216.5" font-family="Helvetica,sans-Serif" font-size="10.00">Deluxe.DeluxeBrandCenter.</text>
<text text-anchor="start" x="213" y="-204.5" font-family="Helvetica,sans-Serif" font-size="10.00">AMM.Infrastructure.Social.Linkedin</text>
<text text-anchor="middle" x="300" y="-192.5" font-family="Helvetica,sans-Serif" font-size="10.00">Service.CheckTokensStatusForWarning</text>
</a>
</g>
</g>
<!-- Node1&#45;&gt;Node2 -->
<g id="edge1_Node000001_Node000002" class="edge">
<title>Node1&#45;&gt;Node2</title>
<g id="a_edge1_Node000001_Node000002"><a xlink:title=" ">
<path fill="none" stroke="#63b8ff" d="M465.1,-142.89C443.89,-154.27 418.6,-167.06 395,-177 387.95,-179.97 380.51,-182.84 373.04,-185.56"/>
<polygon fill="#63b8ff" stroke="#63b8ff" points="466.71,-146 473.83,-138.16 463.37,-139.85 466.71,-146"/>
</a>
</g>
</g>
<!-- Node3 -->
<g id="Node000003" class="node">
<title>Node3</title>
<g id="a_Node000003"><a xlink:href="../../d1/d32/class_deluxe_1_1_deluxe_brand_center_1_1_a_m_m_1_1_infrastructure_1_1_social_1_1_linkedin_service.html#a283817d34d1e2500fe9a014612102b28" target="_top" xlink:title=" ">
<polygon fill="white" stroke="#666666" points="384.5,-168 215.5,-168 215.5,-124 384.5,-124 384.5,-168"/>
<text text-anchor="start" x="223.5" y="-154.5" font-family="Helvetica,sans-Serif" font-size="10.00">Deluxe.DeluxeBrandCenter.</text>
<text text-anchor="start" x="223.5" y="-142.5" font-family="Helvetica,sans-Serif" font-size="10.00">AMM.Infrastructure.Social.Linkedin</text>
<text text-anchor="middle" x="300" y="-130.5" font-family="Helvetica,sans-Serif" font-size="10.00">Service.GenerateShareRequest</text>
</a>
</g>
</g>
<!-- Node1&#45;&gt;Node3 -->
<g id="edge2_Node000001_Node000003" class="edge">
<title>Node1&#45;&gt;Node3</title>
<g id="a_edge2_Node000001_Node000003"><a xlink:title=" ">
<path fill="none" stroke="#63b8ff" d="M419.69,-128.77C408.09,-130.45 396.3,-132.16 384.88,-133.82"/>
<polygon fill="#63b8ff" stroke="#63b8ff" points="419.84,-132.28 429.23,-127.38 418.83,-125.35 419.84,-132.28"/>
</a>
</g>
</g>
<!-- Node5 -->
<g id="Node000005" class="node">
<title>Node5</title>
<g id="a_Node000005"><a xlink:href="../../d1/d32/class_deluxe_1_1_deluxe_brand_center_1_1_a_m_m_1_1_infrastructure_1_1_social_1_1_linkedin_service.html#a1574ea5543c52dfc59e2d10119007b2e" target="_top" xlink:title=" ">
<polygon fill="white" stroke="#666666" points="384.5,-106 215.5,-106 215.5,-62 384.5,-62 384.5,-106"/>
<text text-anchor="start" x="223.5" y="-92.5" font-family="Helvetica,sans-Serif" font-size="10.00">Deluxe.DeluxeBrandCenter.</text>
<text text-anchor="start" x="223.5" y="-80.5" font-family="Helvetica,sans-Serif" font-size="10.00">AMM.Infrastructure.Social.Linkedin</text>
<text text-anchor="middle" x="300" y="-68.5" font-family="Helvetica,sans-Serif" font-size="10.00">Service.GetAccessToken</text>
</a>
</g>
</g>
<!-- Node1&#45;&gt;Node5 -->
<g id="edge4_Node000001_Node000005" class="edge">
<title>Node1&#45;&gt;Node5</title>
<g id="a_edge4_Node000001_Node000005"><a xlink:title=" ">
<path fill="none" stroke="#63b8ff" d="M419.69,-101.23C408.09,-99.55 396.3,-97.84 384.88,-96.18"/>
<polygon fill="#63b8ff" stroke="#63b8ff" points="418.83,-104.65 429.23,-102.62 419.84,-97.72 418.83,-104.65"/>
</a>
</g>
</g>
<!-- Node7 -->
<g id="Node000007" class="node">
<title>Node7</title>
<g id="a_Node000007"><a xlink:href="../../d1/d32/class_deluxe_1_1_deluxe_brand_center_1_1_a_m_m_1_1_infrastructure_1_1_social_1_1_linkedin_service.html#a8228858079a3cb94ee14e5370a16ca5e" target="_top" xlink:title=" ">
<polygon fill="white" stroke="#666666" points="384.5,-44 215.5,-44 215.5,0 384.5,0 384.5,-44"/>
<text text-anchor="start" x="223.5" y="-30.5" font-family="Helvetica,sans-Serif" font-size="10.00">Deluxe.DeluxeBrandCenter.</text>
<text text-anchor="start" x="223.5" y="-18.5" font-family="Helvetica,sans-Serif" font-size="10.00">AMM.Infrastructure.Social.Linkedin</text>
<text text-anchor="middle" x="300" y="-6.5" font-family="Helvetica,sans-Serif" font-size="10.00">Service.LoginRedirect</text>
</a>
</g>
</g>
<!-- Node1&#45;&gt;Node7 -->
<g id="edge6_Node000001_Node000007" class="edge">
<title>Node1&#45;&gt;Node7</title>
<g id="a_edge6_Node000001_Node000007"><a xlink:title=" ">
<path fill="none" stroke="#63b8ff" d="M465.1,-87.11C443.89,-75.73 418.6,-62.94 395,-53 387.95,-50.03 380.51,-47.16 373.04,-44.44"/>
<polygon fill="#63b8ff" stroke="#63b8ff" points="463.37,-90.15 473.83,-91.84 466.71,-84 463.37,-90.15"/>
</a>
</g>
</g>
<!-- Node4 -->
<g id="Node000004" class="node">
<title>Node4</title>
<g id="a_Node000004"><a xlink:href="../../d1/d32/class_deluxe_1_1_deluxe_brand_center_1_1_a_m_m_1_1_infrastructure_1_1_social_1_1_linkedin_service.html#a42aa70b3cb83f47b88b7232d98a5679a" target="_top" xlink:title=" ">
<polygon fill="white" stroke="#666666" points="169,-168 0,-168 0,-124 169,-124 169,-168"/>
<text text-anchor="start" x="8" y="-154.5" font-family="Helvetica,sans-Serif" font-size="10.00">Deluxe.DeluxeBrandCenter.</text>
<text text-anchor="start" x="8" y="-142.5" font-family="Helvetica,sans-Serif" font-size="10.00">AMM.Infrastructure.Social.Linkedin</text>
<text text-anchor="middle" x="84.5" y="-130.5" font-family="Helvetica,sans-Serif" font-size="10.00">Service.SharePost</text>
</a>
</g>
</g>
<!-- Node3&#45;&gt;Node4 -->
<g id="edge3_Node000003_Node000004" class="edge">
<title>Node3&#45;&gt;Node4</title>
<g id="a_edge3_Node000003_Node000004"><a xlink:title=" ">
<path fill="none" stroke="#63b8ff" d="M203.83,-146C192.35,-146 180.68,-146 169.38,-146"/>
<polygon fill="#63b8ff" stroke="#63b8ff" points="203.72,-149.5 213.72,-146 203.72,-142.5 203.72,-149.5"/>
</a>
</g>
</g>
<!-- Node6 -->
<g id="Node000006" class="node">
<title>Node6</title>
<g id="a_Node000006"><a xlink:href="../../d1/d32/class_deluxe_1_1_deluxe_brand_center_1_1_a_m_m_1_1_infrastructure_1_1_social_1_1_linkedin_service.html#a1a83942db4bc072b45440664ca09b0b5" target="_top" xlink:title=" ">
<polygon fill="white" stroke="#666666" points="169,-106 0,-106 0,-62 169,-62 169,-106"/>
<text text-anchor="start" x="8" y="-92.5" font-family="Helvetica,sans-Serif" font-size="10.00">Deluxe.DeluxeBrandCenter.</text>
<text text-anchor="start" x="8" y="-80.5" font-family="Helvetica,sans-Serif" font-size="10.00">AMM.Infrastructure.Social.Linkedin</text>
<text text-anchor="middle" x="84.5" y="-68.5" font-family="Helvetica,sans-Serif" font-size="10.00">Service.GetSocailAccountInfo</text>
</a>
</g>
</g>
<!-- Node5&#45;&gt;Node6 -->
<g id="edge5_Node000005_Node000006" class="edge">
<title>Node5&#45;&gt;Node6</title>
<g id="a_edge5_Node000005_Node000006"><a xlink:title=" ">
<path fill="none" stroke="#63b8ff" d="M203.83,-84C192.35,-84 180.68,-84 169.38,-84"/>
<polygon fill="#63b8ff" stroke="#63b8ff" points="203.72,-87.5 213.72,-84 203.72,-80.5 203.72,-87.5"/>
</a>
</g>
</g>
</g>
</svg>
