<?xml version="1.0" encoding="UTF-8" standalone="no"?>
<!DOCTYPE svg PUBLIC "-//W3C//DTD SVG 1.1//EN"
 "http://www.w3.org/Graphics/SVG/1.1/DTD/svg11.dtd">
<!-- Generated by graphviz version 12.1.1 (20240910.0053)
 -->
<!-- Title: Deluxe.DeluxeBrandCenter.AMM.Infrastructure.Social.LinkedinService.CheckTokensStatusForWarning Pages: 1 -->
<!--zoomable 176 -->

<svg id="main" version="1.1" xmlns="http://www.w3.org/2000/svg" xmlns:xlink="http://www.w3.org/1999/xlink" xml:space="preserve" onload="init(evt)">

<style type="text/css"><![CDATA[
.node, .edge {opacity: 0.7;}
.node.selected, .edge.selected {opacity: 1;}
.edge:hover path { stroke: red; }
.edge:hover polygon { stroke: red; fill: red; }
]]></style>

<defs>
  <circle id="rim" cx="0" cy="0" r="7"/>
  <circle id="rim2" cx="0" cy="0" r="3.5"/>
  <g id="zoomPlus">
    <use xlink:href="#rim" fill="#404040"><set attributeName="fill" to="#808080" begin="zoomplus.mouseover" end="zoomplus.mouseout"/></use>
    <path d="M-4,0h8M0,-4v8" fill="none" stroke="white" stroke-width="1.5" pointer-events="none"/>
  </g>
  <g id="zoomMin">
    <use xlink:href="#rim" fill="#404040"><set attributeName="fill" to="#808080" begin="zoomminus.mouseover" end="zoomminus.mouseout"/></use>
    <path d="M-4,0h8" fill="none" stroke="white" stroke-width="1.5" pointer-events="none"/>
  </g>
  <g id="arrowUp" transform="translate(30 24)">
    <use xlink:href="#rim"/>
    <path pointer-events="none" fill="none" stroke="white" stroke-width="1.5" d="M0,-3.0v7 M-2.5,-0.5L0,-3.0L2.5,-0.5"/>
  </g>
  <g id="arrowRight" transform="rotate(90) translate(36 -43)">
    <use xlink:href="#rim"/>
    <path pointer-events="none" fill="none" stroke="white" stroke-width="1.5" d="M0,-3.0v7 M-2.5,-0.5L0,-3.0L2.5,-0.5"/>
  </g>
  <g id="arrowDown" transform="rotate(180) translate(-30 -48)">
    <use xlink:href="#rim"/>
    <path pointer-events="none" fill="none" stroke="white" stroke-width="1.5" d="M0,-3.0v7 M-2.5,-0.5L0,-3.0L2.5,-0.5"/>
  </g>
  <g id="arrowLeft" transform="rotate(270) translate(-36 17)">
    <use xlink:href="#rim"/>
    <path pointer-events="none" fill="none" stroke="white" stroke-width="1.5" d="M0,-3.0v7 M-2.5,-0.5L0,-3.0L2.5,-0.5"/>
  </g>
  <g id="resetDef">
    <use xlink:href="#rim2" fill="#404040"><set attributeName="fill" to="#808080" begin="reset.mouseover" end="reset.mouseout"/></use>
  </g>
</defs>
<script type="application/ecmascript">
var viewWidth = 613;
var viewHeight = 176;
var sectionId = 'dynsection-3';
</script>
<script type="application/ecmascript" xlink:href="../../svg.min.js"/>
<svg id="graph" class="graph">
<g id="viewport">
<title>Deluxe.DeluxeBrandCenter.AMM.Infrastructure.Social.LinkedinService.CheckTokensStatusForWarning</title>
<!-- Node1 -->
<g id="Node000001" class="node">
<title>Node1</title>
<g id="a_Node000001"><a xlink:title=" ">
<polygon fill="#999999" stroke="#666666" points="190,-106 0,-106 0,-62 190,-62 190,-106"/>
<text text-anchor="start" x="8" y="-92.5" font-family="Helvetica,sans-Serif" font-size="10.00">Deluxe.DeluxeBrandCenter.</text>
<text text-anchor="start" x="8" y="-80.5" font-family="Helvetica,sans-Serif" font-size="10.00">AMM.Infrastructure.Social.Linkedin</text>
<text text-anchor="middle" x="95" y="-68.5" font-family="Helvetica,sans-Serif" font-size="10.00">Service.CheckTokensStatusForWarning</text>
</a>
</g>
</g>
<!-- Node2 -->
<g id="Node000002" class="node">
<title>Node2</title>
<g id="a_Node000002"><a xlink:href="../../d1/d32/class_deluxe_1_1_deluxe_brand_center_1_1_a_m_m_1_1_infrastructure_1_1_social_1_1_linkedin_service.html#a8c5d7c582b626fb93b80b1778f0ddcc5" target="_top" xlink:title=" ">
<polygon fill="white" stroke="#666666" points="395,-168 226,-168 226,-124 395,-124 395,-168"/>
<text text-anchor="start" x="234" y="-154.5" font-family="Helvetica,sans-Serif" font-size="10.00">Deluxe.DeluxeBrandCenter.</text>
<text text-anchor="start" x="234" y="-142.5" font-family="Helvetica,sans-Serif" font-size="10.00">AMM.Infrastructure.Social.Linkedin</text>
<text text-anchor="middle" x="310.5" y="-130.5" font-family="Helvetica,sans-Serif" font-size="10.00">Service.DeterminingWarnings</text>
</a>
</g>
</g>
<!-- Node1&#45;&gt;Node2 -->
<g id="edge1_Node000001_Node000002" class="edge">
<title>Node1&#45;&gt;Node2</title>
<g id="a_edge1_Node000001_Node000002"><a xlink:title=" ">
<path fill="none" stroke="#63b8ff" d="M173.38,-106.47C188.89,-110.98 205.31,-115.74 221.16,-120.35"/>
<polygon fill="#63b8ff" stroke="#63b8ff" points="219.99,-123.65 230.57,-123.08 221.94,-116.93 219.99,-123.65"/>
</a>
</g>
</g>
<!-- Node4 -->
<g id="Node000004" class="node">
<title>Node4</title>
<g id="a_Node000004"><a xlink:href="../../d1/d32/class_deluxe_1_1_deluxe_brand_center_1_1_a_m_m_1_1_infrastructure_1_1_social_1_1_linkedin_service.html#a6d197422d2a4279f7967974b6c66370e" target="_top" xlink:title=" ">
<polygon fill="white" stroke="#666666" points="395,-106 226,-106 226,-62 395,-62 395,-106"/>
<text text-anchor="start" x="234" y="-92.5" font-family="Helvetica,sans-Serif" font-size="10.00">Deluxe.DeluxeBrandCenter.</text>
<text text-anchor="start" x="234" y="-80.5" font-family="Helvetica,sans-Serif" font-size="10.00">AMM.Infrastructure.Social.Linkedin</text>
<text text-anchor="middle" x="310.5" y="-68.5" font-family="Helvetica,sans-Serif" font-size="10.00">Service.GetSettings</text>
</a>
</g>
</g>
<!-- Node1&#45;&gt;Node4 -->
<g id="edge3_Node000001_Node000004" class="edge">
<title>Node1&#45;&gt;Node4</title>
<g id="a_edge3_Node000001_Node000004"><a xlink:title=" ">
<path fill="none" stroke="#63b8ff" d="M190.27,-84C198.31,-84 206.46,-84 214.51,-84"/>
<polygon fill="#63b8ff" stroke="#63b8ff" points="214.3,-87.5 224.3,-84 214.3,-80.5 214.3,-87.5"/>
</a>
</g>
</g>
<!-- Node5 -->
<g id="Node000005" class="node">
<title>Node5</title>
<g id="a_Node000005"><a xlink:href="../../d1/d32/class_deluxe_1_1_deluxe_brand_center_1_1_a_m_m_1_1_infrastructure_1_1_social_1_1_linkedin_service.html#aac3704b39135c8b4601c825d38b7df6c" target="_top" xlink:title=" ">
<polygon fill="white" stroke="#666666" points="395,-44 226,-44 226,0 395,0 395,-44"/>
<text text-anchor="start" x="234" y="-30.5" font-family="Helvetica,sans-Serif" font-size="10.00">Deluxe.DeluxeBrandCenter.</text>
<text text-anchor="start" x="234" y="-18.5" font-family="Helvetica,sans-Serif" font-size="10.00">AMM.Infrastructure.Social.Linkedin</text>
<text text-anchor="middle" x="310.5" y="-6.5" font-family="Helvetica,sans-Serif" font-size="10.00">Service.TokenStatus</text>
</a>
</g>
</g>
<!-- Node1&#45;&gt;Node5 -->
<g id="edge4_Node000001_Node000005" class="edge">
<title>Node1&#45;&gt;Node5</title>
<g id="a_edge4_Node000001_Node000005"><a xlink:title=" ">
<path fill="none" stroke="#63b8ff" d="M173.38,-61.53C188.89,-57.02 205.31,-52.26 221.16,-47.65"/>
<polygon fill="#63b8ff" stroke="#63b8ff" points="221.94,-51.07 230.57,-44.92 219.99,-44.35 221.94,-51.07"/>
</a>
</g>
</g>
<!-- Node3 -->
<g id="Node000003" class="node">
<title>Node3</title>
<g id="a_Node000003"><a xlink:href="../../df/df1/class_deluxe_1_1_deluxe_brand_center_1_1_a_m_m_1_1_domain_1_1_utility_1_1_util_1_1_date_time_utils.html#a92d03accf87990e36a7b81b814ce366e" target="_top" xlink:title=" ">
<polygon fill="white" stroke="#666666" points="605.25,-168 431,-168 431,-124 605.25,-124 605.25,-168"/>
<text text-anchor="start" x="439" y="-154.5" font-family="Helvetica,sans-Serif" font-size="10.00">Deluxe.DeluxeBrandCenter.</text>
<text text-anchor="start" x="439" y="-142.5" font-family="Helvetica,sans-Serif" font-size="10.00">AMM.Domain.Utility.Util.DateTime</text>
<text text-anchor="middle" x="518.12" y="-130.5" font-family="Helvetica,sans-Serif" font-size="10.00">Utils.ConvertUnixTimestampToDate</text>
</a>
</g>
</g>
<!-- Node2&#45;&gt;Node3 -->
<g id="edge2_Node000002_Node000003" class="edge">
<title>Node2&#45;&gt;Node3</title>
<g id="a_edge2_Node000002_Node000003"><a xlink:title=" ">
<path fill="none" stroke="#63b8ff" d="M395.43,-146C403.36,-146 411.44,-146 419.48,-146"/>
<polygon fill="#63b8ff" stroke="#63b8ff" points="419.28,-149.5 429.28,-146 419.28,-142.5 419.28,-149.5"/>
</a>
</g>
</g>
</g>
</svg>

<g id="navigator" transform="translate(0 0)" fill="#404254">
  <rect fill="#f2f5e9" fill-opacity="0.5" stroke="#606060" stroke-width=".5" x="0" y="0" width="60" height="60"/>
  <use id="zoomplus" xlink:href="#zoomPlus" x="17" y="9" onmousedown="handleZoom(evt,'in')"/>
  <use id="zoomminus" xlink:href="#zoomMin" x="42" y="9" onmousedown="handleZoom(evt,'out')"/>
  <use id="reset" xlink:href="#resetDef" x="30" y="36" onmousedown="handleReset()"/>
   <use id="arrowup" xlink:href="#arrowUp" x="0" y="0" onmousedown="handlePan(0,-1)"/>
  <use id="arrowright" xlink:href="#arrowRight" x="0" y="0" onmousedown="handlePan(1,0)"/>
  <use id="arrowdown" xlink:href="#arrowDown" x="0" y="0" onmousedown="handlePan(0,1)"/>
  <use id="arrowleft" xlink:href="#arrowLeft" x="0" y="0" onmousedown="handlePan(-1,0)"/>
</g>
<svg viewBox="0 0 15 15" width="100%" height="30px" preserveAspectRatio="xMaxYMin meet">
 <g id="arrow_out" transform="scale(0.3 0.3)">
  <a xlink:href="class_deluxe_1_1_deluxe_brand_center_1_1_a_m_m_1_1_infrastructure_1_1_social_1_1_linkedin_service_a9db8fdfb1666fad3de49a2baac8e1ccc_cgraph_org.svg" target="_base">
   <rect id="button" ry="5" rx="5" y="6" x="6" height="38" width="38"
        fill="#f2f5e9" fill-opacity="0.5" stroke="#606060" stroke-width="1.0"/>
   <path id="arrow"
     d="M 11.500037,31.436501 C 11.940474,20.09759 22.043105,11.32322 32.158766,21.979434 L 37.068811,17.246167 C 37.068811,17.246167 37.088388,32 37.088388,32 L 22.160133,31.978069 C 22.160133,31.978069 26.997745,27.140456 26.997745,27.140456 C 18.528582,18.264221 13.291696,25.230495 11.500037,31.436501 z"
     style="fill:#404040;"/>
  </a>
 </g>
</svg>

<style type='text/css'>
<![CDATA[
[data-mouse-over-selected='false'] { opacity: 0.7; }
[data-mouse-over-selected='true']  { opacity: 1.0; }
]]>
</style>
<script type="application/ecmascript"><![CDATA[
document.addEventListener('DOMContentLoaded', (event) => {
  highlightEdges();
  highlightAdjacentNodes();
});
]]></script>
</svg>
