<?xml version="1.0" encoding="UTF-8" standalone="no"?>
<!DOCTYPE svg PUBLIC "-//W3C//DTD SVG 1.1//EN"
 "http://www.w3.org/Graphics/SVG/1.1/DTD/svg11.dtd">
<!-- Generated by graphviz version 12.1.1 (20240910.0053)
 -->
<!-- Title: Deluxe.DeluxeBrandCenter.AMM.Infrastructure.Social.LinkedinService.GenerateShareRequest Pages: 1 -->
<svg width="1027pt" height="238pt"
 viewBox="0.00 0.00 1027.00 238.00" xmlns="http://www.w3.org/2000/svg" xmlns:xlink="http://www.w3.org/1999/xlink">
<g id="graph0" class="graph" transform="scale(1 1) rotate(0) translate(4 234)">
<title>Deluxe.DeluxeBrandCenter.AMM.Infrastructure.Social.LinkedinService.GenerateShareRequest</title>
<!-- Node1 -->
<g id="Node000001" class="node">
<title>Node1</title>
<g id="a_Node000001"><a xlink:title=" ">
<polygon fill="#999999" stroke="#666666" points="169,-106 0,-106 0,-62 169,-62 169,-106"/>
<text text-anchor="start" x="8" y="-92.5" font-family="Helvetica,sans-Serif" font-size="10.00">Deluxe.DeluxeBrandCenter.</text>
<text text-anchor="start" x="8" y="-80.5" font-family="Helvetica,sans-Serif" font-size="10.00">AMM.Infrastructure.Social.Linkedin</text>
<text text-anchor="middle" x="84.5" y="-68.5" font-family="Helvetica,sans-Serif" font-size="10.00">Service.GenerateShareRequest</text>
</a>
</g>
</g>
<!-- Node2 -->
<g id="Node000002" class="node">
<title>Node2</title>
<g id="a_Node000002"><a xlink:href="../../d1/d32/class_deluxe_1_1_deluxe_brand_center_1_1_a_m_m_1_1_infrastructure_1_1_social_1_1_linkedin_service.html#a02ab8e969c83c386d660c2c2e6ff165c" target="_top" xlink:title=" ">
<polygon fill="white" stroke="#666666" points="374,-168 205,-168 205,-124 374,-124 374,-168"/>
<text text-anchor="start" x="213" y="-154.5" font-family="Helvetica,sans-Serif" font-size="10.00">Deluxe.DeluxeBrandCenter.</text>
<text text-anchor="start" x="213" y="-142.5" font-family="Helvetica,sans-Serif" font-size="10.00">AMM.Infrastructure.Social.Linkedin</text>
<text text-anchor="middle" x="289.5" y="-130.5" font-family="Helvetica,sans-Serif" font-size="10.00">Service.GenerateShareMedia</text>
</a>
</g>
</g>
<!-- Node1&#45;&gt;Node2 -->
<g id="edge1_Node000001_Node000002" class="edge">
<title>Node1&#45;&gt;Node2</title>
<g id="a_edge1_Node000001_Node000002"><a xlink:title=" ">
<path fill="none" stroke="#63b8ff" d="M159.07,-106.47C173.68,-110.93 189.13,-115.65 204.07,-120.21"/>
<polygon fill="#63b8ff" stroke="#63b8ff" points="202.8,-123.49 213.39,-123.06 204.85,-116.79 202.8,-123.49"/>
</a>
</g>
</g>
<!-- Node14 -->
<g id="Node000014" class="node">
<title>Node14</title>
<g id="a_Node000014"><a xlink:href="../../d1/d32/class_deluxe_1_1_deluxe_brand_center_1_1_a_m_m_1_1_infrastructure_1_1_social_1_1_linkedin_service.html#a28987b5c2d566dd6ca1d5f354dac19e0" target="_top" xlink:title=" ">
<polygon fill="white" stroke="#666666" points="374,-106 205,-106 205,-62 374,-62 374,-106"/>
<text text-anchor="start" x="213" y="-92.5" font-family="Helvetica,sans-Serif" font-size="10.00">Deluxe.DeluxeBrandCenter.</text>
<text text-anchor="start" x="213" y="-80.5" font-family="Helvetica,sans-Serif" font-size="10.00">AMM.Infrastructure.Social.Linkedin</text>
<text text-anchor="middle" x="289.5" y="-68.5" font-family="Helvetica,sans-Serif" font-size="10.00">Service.GetProfile</text>
</a>
</g>
</g>
<!-- Node1&#45;&gt;Node14 -->
<g id="edge13_Node000001_Node000014" class="edge">
<title>Node1&#45;&gt;Node14</title>
<g id="a_edge13_Node000001_Node000014"><a xlink:title=" ">
<path fill="none" stroke="#63b8ff" d="M169.24,-84C177.18,-84 185.28,-84 193.32,-84"/>
<polygon fill="#63b8ff" stroke="#63b8ff" points="193.11,-87.5 203.11,-84 193.11,-80.5 193.11,-87.5"/>
</a>
</g>
</g>
<!-- Node15 -->
<g id="Node000015" class="node">
<title>Node15</title>
<g id="a_Node000015"><a xlink:href="../../d1/d32/class_deluxe_1_1_deluxe_brand_center_1_1_a_m_m_1_1_infrastructure_1_1_social_1_1_linkedin_service.html#a6d197422d2a4279f7967974b6c66370e" target="_top" xlink:title=" ">
<polygon fill="white" stroke="#666666" points="374,-44 205,-44 205,0 374,0 374,-44"/>
<text text-anchor="start" x="213" y="-30.5" font-family="Helvetica,sans-Serif" font-size="10.00">Deluxe.DeluxeBrandCenter.</text>
<text text-anchor="start" x="213" y="-18.5" font-family="Helvetica,sans-Serif" font-size="10.00">AMM.Infrastructure.Social.Linkedin</text>
<text text-anchor="middle" x="289.5" y="-6.5" font-family="Helvetica,sans-Serif" font-size="10.00">Service.GetSettings</text>
</a>
</g>
</g>
<!-- Node1&#45;&gt;Node15 -->
<g id="edge14_Node000001_Node000015" class="edge">
<title>Node1&#45;&gt;Node15</title>
<g id="a_edge14_Node000001_Node000015"><a xlink:title=" ">
<path fill="none" stroke="#63b8ff" d="M159.07,-61.53C173.68,-57.07 189.13,-52.35 204.07,-47.79"/>
<polygon fill="#63b8ff" stroke="#63b8ff" points="204.85,-51.21 213.39,-44.94 202.8,-44.51 204.85,-51.21"/>
</a>
</g>
</g>
<!-- Node3 -->
<g id="Node000003" class="node">
<title>Node3</title>
<g id="a_Node000003"><a xlink:href="../../d1/d32/class_deluxe_1_1_deluxe_brand_center_1_1_a_m_m_1_1_infrastructure_1_1_social_1_1_linkedin_service.html#a681a7210fdba6efebd4cd39e5b010064" target="_top" xlink:title=" ">
<polygon fill="white" stroke="#666666" points="583.88,-230 411.88,-230 411.88,-186 583.88,-186 583.88,-230"/>
<text text-anchor="start" x="419.88" y="-216.5" font-family="Helvetica,sans-Serif" font-size="10.00">Deluxe.DeluxeBrandCenter.</text>
<text text-anchor="start" x="419.88" y="-204.5" font-family="Helvetica,sans-Serif" font-size="10.00">AMM.Infrastructure.Social.Linkedin</text>
<text text-anchor="middle" x="497.88" y="-192.5" font-family="Helvetica,sans-Serif" font-size="10.00">Service.CheckShareMediaCategory</text>
</a>
</g>
</g>
<!-- Node2&#45;&gt;Node3 -->
<g id="edge2_Node000002_Node000003" class="edge">
<title>Node2&#45;&gt;Node3</title>
<g id="a_edge2_Node000002_Node000003"><a xlink:title=" ">
<path fill="none" stroke="#63b8ff" d="M365.3,-168.47C380.15,-172.93 395.85,-177.65 411.04,-182.21"/>
<polygon fill="#63b8ff" stroke="#63b8ff" points="409.95,-185.54 420.54,-185.07 411.97,-178.84 409.95,-185.54"/>
</a>
</g>
</g>
<!-- Node4 -->
<g id="Node000004" class="node">
<title>Node4</title>
<g id="a_Node000004"><a xlink:href="../../d1/d32/class_deluxe_1_1_deluxe_brand_center_1_1_a_m_m_1_1_infrastructure_1_1_social_1_1_linkedin_service.html#aef7cef03333bd286ec79ebb6754949ec" target="_top" xlink:title=" ">
<polygon fill="white" stroke="#666666" points="585.75,-168 410,-168 410,-124 585.75,-124 585.75,-168"/>
<text text-anchor="start" x="418" y="-154.5" font-family="Helvetica,sans-Serif" font-size="10.00">Deluxe.DeluxeBrandCenter.</text>
<text text-anchor="start" x="418" y="-142.5" font-family="Helvetica,sans-Serif" font-size="10.00">AMM.Infrastructure.Social.Linkedin</text>
<text text-anchor="middle" x="497.88" y="-130.5" font-family="Helvetica,sans-Serif" font-size="10.00">Service.GenerateShareMediaIMAGE</text>
</a>
</g>
</g>
<!-- Node2&#45;&gt;Node4 -->
<g id="edge3_Node000002_Node000004" class="edge">
<title>Node2&#45;&gt;Node4</title>
<g id="a_edge3_Node000002_Node000004"><a xlink:title=" ">
<path fill="none" stroke="#63b8ff" d="M374.44,-146C382.33,-146 390.37,-146 398.38,-146"/>
<polygon fill="#63b8ff" stroke="#63b8ff" points="398.14,-149.5 408.14,-146 398.14,-142.5 398.14,-149.5"/>
</a>
</g>
</g>
<!-- Node9 -->
<g id="Node000009" class="node">
<title>Node9</title>
<g id="a_Node000009"><a xlink:href="../../d1/d32/class_deluxe_1_1_deluxe_brand_center_1_1_a_m_m_1_1_infrastructure_1_1_social_1_1_linkedin_service.html#a817ff3a7be3404e76a29a74ffa958491" target="_top" xlink:title=" ">
<polygon fill="white" stroke="#666666" points="582.38,-106 413.38,-106 413.38,-62 582.38,-62 582.38,-106"/>
<text text-anchor="start" x="421.38" y="-92.5" font-family="Helvetica,sans-Serif" font-size="10.00">Deluxe.DeluxeBrandCenter.</text>
<text text-anchor="start" x="421.38" y="-80.5" font-family="Helvetica,sans-Serif" font-size="10.00">AMM.Infrastructure.Social.Linkedin</text>
<text text-anchor="middle" x="497.88" y="-68.5" font-family="Helvetica,sans-Serif" font-size="10.00">Service.GenerateShareMediaVideo</text>
</a>
</g>
</g>
<!-- Node2&#45;&gt;Node9 -->
<g id="edge8_Node000002_Node000009" class="edge">
<title>Node2&#45;&gt;Node9</title>
<g id="a_edge8_Node000002_Node000009"><a xlink:title=" ">
<path fill="none" stroke="#63b8ff" d="M365.3,-123.53C380.15,-119.07 395.85,-114.35 411.04,-109.79"/>
<polygon fill="#63b8ff" stroke="#63b8ff" points="411.97,-113.16 420.54,-106.93 409.95,-106.46 411.97,-113.16"/>
</a>
</g>
</g>
<!-- Node5 -->
<g id="Node000005" class="node">
<title>Node5</title>
<g id="a_Node000005"><a xlink:href="../../d1/d32/class_deluxe_1_1_deluxe_brand_center_1_1_a_m_m_1_1_infrastructure_1_1_social_1_1_linkedin_service.html#af40d2fd6f6f7079b39639b1f2440eb33" target="_top" xlink:title=" ">
<polygon fill="white" stroke="#666666" points="790.75,-230 621.75,-230 621.75,-186 790.75,-186 790.75,-230"/>
<text text-anchor="start" x="629.75" y="-216.5" font-family="Helvetica,sans-Serif" font-size="10.00">Deluxe.DeluxeBrandCenter.</text>
<text text-anchor="start" x="629.75" y="-204.5" font-family="Helvetica,sans-Serif" font-size="10.00">AMM.Infrastructure.Social.Linkedin</text>
<text text-anchor="middle" x="706.25" y="-192.5" font-family="Helvetica,sans-Serif" font-size="10.00">Service.RegisterImage</text>
</a>
</g>
</g>
<!-- Node4&#45;&gt;Node5 -->
<g id="edge4_Node000004_Node000005" class="edge">
<title>Node4&#45;&gt;Node5</title>
<g id="a_edge4_Node000004_Node000005"><a xlink:title=" ">
<path fill="none" stroke="#63b8ff" d="M573.67,-168.47C588.52,-172.93 604.23,-177.65 619.41,-182.21"/>
<polygon fill="#63b8ff" stroke="#63b8ff" points="618.33,-185.54 628.91,-185.07 620.34,-178.84 618.33,-185.54"/>
</a>
</g>
</g>
<!-- Node7 -->
<g id="Node000007" class="node">
<title>Node7</title>
<g id="a_Node000007"><a xlink:href="../../d1/d32/class_deluxe_1_1_deluxe_brand_center_1_1_a_m_m_1_1_infrastructure_1_1_social_1_1_linkedin_service.html#a0b0fcc91e190b728d561c59444048bc1" target="_top" xlink:title=" ">
<polygon fill="white" stroke="#666666" points="790.75,-168 621.75,-168 621.75,-124 790.75,-124 790.75,-168"/>
<text text-anchor="start" x="629.75" y="-154.5" font-family="Helvetica,sans-Serif" font-size="10.00">Deluxe.DeluxeBrandCenter.</text>
<text text-anchor="start" x="629.75" y="-142.5" font-family="Helvetica,sans-Serif" font-size="10.00">AMM.Infrastructure.Social.Linkedin</text>
<text text-anchor="middle" x="706.25" y="-130.5" font-family="Helvetica,sans-Serif" font-size="10.00">Service.UploadImage</text>
</a>
</g>
</g>
<!-- Node4&#45;&gt;Node7 -->
<g id="edge6_Node000004_Node000007" class="edge">
<title>Node4&#45;&gt;Node7</title>
<g id="a_edge6_Node000004_Node000007"><a xlink:title=" ">
<path fill="none" stroke="#63b8ff" d="M586.1,-146C593.93,-146 601.89,-146 609.79,-146"/>
<polygon fill="#63b8ff" stroke="#63b8ff" points="609.79,-149.5 619.79,-146 609.79,-142.5 609.79,-149.5"/>
</a>
</g>
</g>
<!-- Node6 -->
<g id="Node000006" class="node">
<title>Node6</title>
<g id="a_Node000006"><a xlink:href="../../d1/d32/class_deluxe_1_1_deluxe_brand_center_1_1_a_m_m_1_1_infrastructure_1_1_social_1_1_linkedin_service.html#a990b6c5ce712dfa0ec02f25cc1af07f8" target="_top" xlink:title=" ">
<polygon fill="white" stroke="#666666" points="1019,-230 826.75,-230 826.75,-186 1019,-186 1019,-230"/>
<text text-anchor="start" x="834.75" y="-216.5" font-family="Helvetica,sans-Serif" font-size="10.00">Deluxe.DeluxeBrandCenter.</text>
<text text-anchor="start" x="834.75" y="-204.5" font-family="Helvetica,sans-Serif" font-size="10.00">AMM.Infrastructure.Social.Linkedin</text>
<text text-anchor="middle" x="922.88" y="-192.5" font-family="Helvetica,sans-Serif" font-size="10.00">Service.GenerateRegisterImageRequest</text>
</a>
</g>
</g>
<!-- Node5&#45;&gt;Node6 -->
<g id="edge5_Node000005_Node000006" class="edge">
<title>Node5&#45;&gt;Node6</title>
<g id="a_edge5_Node000005_Node000006"><a xlink:title=" ">
<path fill="none" stroke="#63b8ff" d="M791.15,-208C798.98,-208 806.99,-208 814.99,-208"/>
<polygon fill="#63b8ff" stroke="#63b8ff" points="814.77,-211.5 824.77,-208 814.77,-204.5 814.77,-211.5"/>
</a>
</g>
</g>
<!-- Node8 -->
<g id="Node000008" class="node">
<title>Node8</title>
<g id="a_Node000008"><a xlink:href="../../d1/d32/class_deluxe_1_1_deluxe_brand_center_1_1_a_m_m_1_1_infrastructure_1_1_social_1_1_linkedin_service.html#aacff4649d26ef2d36b74b6c0f982b889" target="_top" xlink:title=" ">
<polygon fill="white" stroke="#666666" points="1007.38,-168 838.38,-168 838.38,-124 1007.38,-124 1007.38,-168"/>
<text text-anchor="start" x="846.38" y="-154.5" font-family="Helvetica,sans-Serif" font-size="10.00">Deluxe.DeluxeBrandCenter.</text>
<text text-anchor="start" x="846.38" y="-142.5" font-family="Helvetica,sans-Serif" font-size="10.00">AMM.Infrastructure.Social.Linkedin</text>
<text text-anchor="middle" x="922.88" y="-130.5" font-family="Helvetica,sans-Serif" font-size="10.00">Service.DownloadImage</text>
</a>
</g>
</g>
<!-- Node7&#45;&gt;Node8 -->
<g id="edge7_Node000007_Node000008" class="edge">
<title>Node7&#45;&gt;Node8</title>
<g id="a_edge7_Node000007_Node000008"><a xlink:title=" ">
<path fill="none" stroke="#63b8ff" d="M791.15,-146C802.82,-146 814.88,-146 826.74,-146"/>
<polygon fill="#63b8ff" stroke="#63b8ff" points="826.52,-149.5 836.52,-146 826.52,-142.5 826.52,-149.5"/>
</a>
</g>
</g>
<!-- Node10 -->
<g id="Node000010" class="node">
<title>Node10</title>
<g id="a_Node000010"><a xlink:href="../../d1/d32/class_deluxe_1_1_deluxe_brand_center_1_1_a_m_m_1_1_infrastructure_1_1_social_1_1_linkedin_service.html#a5d7be3a55761f1bc8895dec7839130ba" target="_top" xlink:title=" ">
<polygon fill="white" stroke="#666666" points="790.75,-106 621.75,-106 621.75,-62 790.75,-62 790.75,-106"/>
<text text-anchor="start" x="629.75" y="-92.5" font-family="Helvetica,sans-Serif" font-size="10.00">Deluxe.DeluxeBrandCenter.</text>
<text text-anchor="start" x="629.75" y="-80.5" font-family="Helvetica,sans-Serif" font-size="10.00">AMM.Infrastructure.Social.Linkedin</text>
<text text-anchor="middle" x="706.25" y="-68.5" font-family="Helvetica,sans-Serif" font-size="10.00">Service.RegisterVideo</text>
</a>
</g>
</g>
<!-- Node9&#45;&gt;Node10 -->
<g id="edge9_Node000009_Node000010" class="edge">
<title>Node9&#45;&gt;Node10</title>
<g id="a_edge9_Node000009_Node000010"><a xlink:title=" ">
<path fill="none" stroke="#63b8ff" d="M582.82,-84C591.76,-84 600.91,-84 609.97,-84"/>
<polygon fill="#63b8ff" stroke="#63b8ff" points="609.87,-87.5 619.87,-84 609.87,-80.5 609.87,-87.5"/>
</a>
</g>
</g>
<!-- Node12 -->
<g id="Node000012" class="node">
<title>Node12</title>
<g id="a_Node000012"><a xlink:href="../../d1/d32/class_deluxe_1_1_deluxe_brand_center_1_1_a_m_m_1_1_infrastructure_1_1_social_1_1_linkedin_service.html#a4a824857004e9cdd7c21f35f0392af06" target="_top" xlink:title=" ">
<polygon fill="white" stroke="#666666" points="790.75,-44 621.75,-44 621.75,0 790.75,0 790.75,-44"/>
<text text-anchor="start" x="629.75" y="-30.5" font-family="Helvetica,sans-Serif" font-size="10.00">Deluxe.DeluxeBrandCenter.</text>
<text text-anchor="start" x="629.75" y="-18.5" font-family="Helvetica,sans-Serif" font-size="10.00">AMM.Infrastructure.Social.Linkedin</text>
<text text-anchor="middle" x="706.25" y="-6.5" font-family="Helvetica,sans-Serif" font-size="10.00">Service.UploadVideo</text>
</a>
</g>
</g>
<!-- Node9&#45;&gt;Node12 -->
<g id="edge11_Node000009_Node000012" class="edge">
<title>Node9&#45;&gt;Node12</title>
<g id="a_edge11_Node000009_Node000012"><a xlink:title=" ">
<path fill="none" stroke="#63b8ff" d="M573.67,-61.53C588.52,-57.07 604.23,-52.35 619.41,-47.79"/>
<polygon fill="#63b8ff" stroke="#63b8ff" points="620.34,-51.16 628.91,-44.93 618.33,-44.46 620.34,-51.16"/>
</a>
</g>
</g>
<!-- Node11 -->
<g id="Node000011" class="node">
<title>Node11</title>
<g id="a_Node000011"><a xlink:href="../../d1/d32/class_deluxe_1_1_deluxe_brand_center_1_1_a_m_m_1_1_infrastructure_1_1_social_1_1_linkedin_service.html#a202ccc4b8b6c2d01415d92c33cd928be" target="_top" xlink:title=" ">
<polygon fill="white" stroke="#666666" points="1017.88,-106 827.88,-106 827.88,-62 1017.88,-62 1017.88,-106"/>
<text text-anchor="start" x="835.88" y="-92.5" font-family="Helvetica,sans-Serif" font-size="10.00">Deluxe.DeluxeBrandCenter.</text>
<text text-anchor="start" x="835.88" y="-80.5" font-family="Helvetica,sans-Serif" font-size="10.00">AMM.Infrastructure.Social.Linkedin</text>
<text text-anchor="middle" x="922.88" y="-68.5" font-family="Helvetica,sans-Serif" font-size="10.00">Service.GenerateRegisterVideoRequest</text>
</a>
</g>
</g>
<!-- Node10&#45;&gt;Node11 -->
<g id="edge10_Node000010_Node000011" class="edge">
<title>Node10&#45;&gt;Node11</title>
<g id="a_edge10_Node000010_Node000011"><a xlink:title=" ">
<path fill="none" stroke="#63b8ff" d="M791.15,-84C799.4,-84 807.83,-84 816.26,-84"/>
<polygon fill="#63b8ff" stroke="#63b8ff" points="816.21,-87.5 826.21,-84 816.21,-80.5 816.21,-87.5"/>
</a>
</g>
</g>
<!-- Node13 -->
<g id="Node000013" class="node">
<title>Node13</title>
<g id="a_Node000013"><a xlink:href="../../d1/d32/class_deluxe_1_1_deluxe_brand_center_1_1_a_m_m_1_1_infrastructure_1_1_social_1_1_linkedin_service.html#ae27de55c05ad039ea2815e89cde64e87" target="_top" xlink:title=" ">
<polygon fill="white" stroke="#666666" points="1007.38,-44 838.38,-44 838.38,0 1007.38,0 1007.38,-44"/>
<text text-anchor="start" x="846.38" y="-30.5" font-family="Helvetica,sans-Serif" font-size="10.00">Deluxe.DeluxeBrandCenter.</text>
<text text-anchor="start" x="846.38" y="-18.5" font-family="Helvetica,sans-Serif" font-size="10.00">AMM.Infrastructure.Social.Linkedin</text>
<text text-anchor="middle" x="922.88" y="-6.5" font-family="Helvetica,sans-Serif" font-size="10.00">Service.DownloadVideo</text>
</a>
</g>
</g>
<!-- Node12&#45;&gt;Node13 -->
<g id="edge12_Node000012_Node000013" class="edge">
<title>Node12&#45;&gt;Node13</title>
<g id="a_edge12_Node000012_Node000013"><a xlink:title=" ">
<path fill="none" stroke="#63b8ff" d="M791.15,-22C802.82,-22 814.88,-22 826.74,-22"/>
<polygon fill="#63b8ff" stroke="#63b8ff" points="826.52,-25.5 836.52,-22 826.52,-18.5 826.52,-25.5"/>
</a>
</g>
</g>
</g>
</svg>
