<?xml version="1.0" encoding="UTF-8" standalone="no"?>
<!DOCTYPE svg PUBLIC "-//W3C//DTD SVG 1.1//EN"
 "http://www.w3.org/Graphics/SVG/1.1/DTD/svg11.dtd">
<!-- Generated by graphviz version 12.1.1 (20240910.0053)
 -->
<!-- Title: Deluxe.DeluxeBrandCenter.AMM.Infrastructure.Social.LinkedinService.SharePost Pages: 1 -->
<!--zoomable 238 -->

<svg id="main" version="1.1" xmlns="http://www.w3.org/2000/svg" xmlns:xlink="http://www.w3.org/1999/xlink" xml:space="preserve" onload="init(evt)">

<style type="text/css"><![CDATA[
.node, .edge {opacity: 0.7;}
.node.selected, .edge.selected {opacity: 1;}
.edge:hover path { stroke: red; }
.edge:hover polygon { stroke: red; fill: red; }
]]></style>

<defs>
  <circle id="rim" cx="0" cy="0" r="7"/>
  <circle id="rim2" cx="0" cy="0" r="3.5"/>
  <g id="zoomPlus">
    <use xlink:href="#rim" fill="#404040"><set attributeName="fill" to="#808080" begin="zoomplus.mouseover" end="zoomplus.mouseout"/></use>
    <path d="M-4,0h8M0,-4v8" fill="none" stroke="white" stroke-width="1.5" pointer-events="none"/>
  </g>
  <g id="zoomMin">
    <use xlink:href="#rim" fill="#404040"><set attributeName="fill" to="#808080" begin="zoomminus.mouseover" end="zoomminus.mouseout"/></use>
    <path d="M-4,0h8" fill="none" stroke="white" stroke-width="1.5" pointer-events="none"/>
  </g>
  <g id="arrowUp" transform="translate(30 24)">
    <use xlink:href="#rim"/>
    <path pointer-events="none" fill="none" stroke="white" stroke-width="1.5" d="M0,-3.0v7 M-2.5,-0.5L0,-3.0L2.5,-0.5"/>
  </g>
  <g id="arrowRight" transform="rotate(90) translate(36 -43)">
    <use xlink:href="#rim"/>
    <path pointer-events="none" fill="none" stroke="white" stroke-width="1.5" d="M0,-3.0v7 M-2.5,-0.5L0,-3.0L2.5,-0.5"/>
  </g>
  <g id="arrowDown" transform="rotate(180) translate(-30 -48)">
    <use xlink:href="#rim"/>
    <path pointer-events="none" fill="none" stroke="white" stroke-width="1.5" d="M0,-3.0v7 M-2.5,-0.5L0,-3.0L2.5,-0.5"/>
  </g>
  <g id="arrowLeft" transform="rotate(270) translate(-36 17)">
    <use xlink:href="#rim"/>
    <path pointer-events="none" fill="none" stroke="white" stroke-width="1.5" d="M0,-3.0v7 M-2.5,-0.5L0,-3.0L2.5,-0.5"/>
  </g>
  <g id="resetDef">
    <use xlink:href="#rim2" fill="#404040"><set attributeName="fill" to="#808080" begin="reset.mouseover" end="reset.mouseout"/></use>
  </g>
</defs>
<script type="application/ecmascript">
var viewWidth = 1232;
var viewHeight = 238;
var sectionId = 'dynsection-32';
</script>
<script type="application/ecmascript" xlink:href="../../svg.min.js"/>
<svg id="graph" class="graph">
<g id="viewport">
<title>Deluxe.DeluxeBrandCenter.AMM.Infrastructure.Social.LinkedinService.SharePost</title>
<!-- Node1 -->
<g id="Node000001" class="node">
<title>Node1</title>
<g id="a_Node000001"><a xlink:title=" ">
<polygon fill="#999999" stroke="#666666" points="169,-106 0,-106 0,-62 169,-62 169,-106"/>
<text text-anchor="start" x="8" y="-92.5" font-family="Helvetica,sans-Serif" font-size="10.00">Deluxe.DeluxeBrandCenter.</text>
<text text-anchor="start" x="8" y="-80.5" font-family="Helvetica,sans-Serif" font-size="10.00">AMM.Infrastructure.Social.Linkedin</text>
<text text-anchor="middle" x="84.5" y="-68.5" font-family="Helvetica,sans-Serif" font-size="10.00">Service.SharePost</text>
</a>
</g>
</g>
<!-- Node2 -->
<g id="Node000002" class="node">
<title>Node2</title>
<g id="a_Node000002"><a xlink:href="../../d1/d32/class_deluxe_1_1_deluxe_brand_center_1_1_a_m_m_1_1_infrastructure_1_1_social_1_1_linkedin_service.html#a283817d34d1e2500fe9a014612102b28" target="_top" xlink:title=" ">
<polygon fill="white" stroke="#666666" points="374,-106 205,-106 205,-62 374,-62 374,-106"/>
<text text-anchor="start" x="213" y="-92.5" font-family="Helvetica,sans-Serif" font-size="10.00">Deluxe.DeluxeBrandCenter.</text>
<text text-anchor="start" x="213" y="-80.5" font-family="Helvetica,sans-Serif" font-size="10.00">AMM.Infrastructure.Social.Linkedin</text>
<text text-anchor="middle" x="289.5" y="-68.5" font-family="Helvetica,sans-Serif" font-size="10.00">Service.GenerateShareRequest</text>
</a>
</g>
</g>
<!-- Node1&#45;&gt;Node2 -->
<g id="edge1_Node000001_Node000002" class="edge">
<title>Node1&#45;&gt;Node2</title>
<g id="a_edge1_Node000001_Node000002"><a xlink:title=" ">
<path fill="none" stroke="#63b8ff" d="M169.24,-84C177.18,-84 185.28,-84 193.32,-84"/>
<polygon fill="#63b8ff" stroke="#63b8ff" points="193.11,-87.5 203.11,-84 193.11,-80.5 193.11,-87.5"/>
</a>
</g>
</g>
<!-- Node3 -->
<g id="Node000003" class="node">
<title>Node3</title>
<g id="a_Node000003"><a xlink:href="../../d1/d32/class_deluxe_1_1_deluxe_brand_center_1_1_a_m_m_1_1_infrastructure_1_1_social_1_1_linkedin_service.html#a02ab8e969c83c386d660c2c2e6ff165c" target="_top" xlink:title=" ">
<polygon fill="white" stroke="#666666" points="579,-168 410,-168 410,-124 579,-124 579,-168"/>
<text text-anchor="start" x="418" y="-154.5" font-family="Helvetica,sans-Serif" font-size="10.00">Deluxe.DeluxeBrandCenter.</text>
<text text-anchor="start" x="418" y="-142.5" font-family="Helvetica,sans-Serif" font-size="10.00">AMM.Infrastructure.Social.Linkedin</text>
<text text-anchor="middle" x="494.5" y="-130.5" font-family="Helvetica,sans-Serif" font-size="10.00">Service.GenerateShareMedia</text>
</a>
</g>
</g>
<!-- Node2&#45;&gt;Node3 -->
<g id="edge2_Node000002_Node000003" class="edge">
<title>Node2&#45;&gt;Node3</title>
<g id="a_edge2_Node000002_Node000003"><a xlink:title=" ">
<path fill="none" stroke="#63b8ff" d="M364.07,-106.47C378.68,-110.93 394.13,-115.65 409.07,-120.21"/>
<polygon fill="#63b8ff" stroke="#63b8ff" points="407.8,-123.49 418.39,-123.06 409.85,-116.79 407.8,-123.49"/>
</a>
</g>
</g>
<!-- Node15 -->
<g id="Node000015" class="node">
<title>Node15</title>
<g id="a_Node000015"><a xlink:href="../../d1/d32/class_deluxe_1_1_deluxe_brand_center_1_1_a_m_m_1_1_infrastructure_1_1_social_1_1_linkedin_service.html#a28987b5c2d566dd6ca1d5f354dac19e0" target="_top" xlink:title=" ">
<polygon fill="white" stroke="#666666" points="579,-106 410,-106 410,-62 579,-62 579,-106"/>
<text text-anchor="start" x="418" y="-92.5" font-family="Helvetica,sans-Serif" font-size="10.00">Deluxe.DeluxeBrandCenter.</text>
<text text-anchor="start" x="418" y="-80.5" font-family="Helvetica,sans-Serif" font-size="10.00">AMM.Infrastructure.Social.Linkedin</text>
<text text-anchor="middle" x="494.5" y="-68.5" font-family="Helvetica,sans-Serif" font-size="10.00">Service.GetProfile</text>
</a>
</g>
</g>
<!-- Node2&#45;&gt;Node15 -->
<g id="edge14_Node000002_Node000015" class="edge">
<title>Node2&#45;&gt;Node15</title>
<g id="a_edge14_Node000002_Node000015"><a xlink:title=" ">
<path fill="none" stroke="#63b8ff" d="M374.24,-84C382.18,-84 390.28,-84 398.32,-84"/>
<polygon fill="#63b8ff" stroke="#63b8ff" points="398.11,-87.5 408.11,-84 398.11,-80.5 398.11,-87.5"/>
</a>
</g>
</g>
<!-- Node16 -->
<g id="Node000016" class="node">
<title>Node16</title>
<g id="a_Node000016"><a xlink:href="../../d1/d32/class_deluxe_1_1_deluxe_brand_center_1_1_a_m_m_1_1_infrastructure_1_1_social_1_1_linkedin_service.html#a6d197422d2a4279f7967974b6c66370e" target="_top" xlink:title=" ">
<polygon fill="white" stroke="#666666" points="579,-44 410,-44 410,0 579,0 579,-44"/>
<text text-anchor="start" x="418" y="-30.5" font-family="Helvetica,sans-Serif" font-size="10.00">Deluxe.DeluxeBrandCenter.</text>
<text text-anchor="start" x="418" y="-18.5" font-family="Helvetica,sans-Serif" font-size="10.00">AMM.Infrastructure.Social.Linkedin</text>
<text text-anchor="middle" x="494.5" y="-6.5" font-family="Helvetica,sans-Serif" font-size="10.00">Service.GetSettings</text>
</a>
</g>
</g>
<!-- Node2&#45;&gt;Node16 -->
<g id="edge15_Node000002_Node000016" class="edge">
<title>Node2&#45;&gt;Node16</title>
<g id="a_edge15_Node000002_Node000016"><a xlink:title=" ">
<path fill="none" stroke="#63b8ff" d="M364.07,-61.53C378.68,-57.07 394.13,-52.35 409.07,-47.79"/>
<polygon fill="#63b8ff" stroke="#63b8ff" points="409.85,-51.21 418.39,-44.94 407.8,-44.51 409.85,-51.21"/>
</a>
</g>
</g>
<!-- Node4 -->
<g id="Node000004" class="node">
<title>Node4</title>
<g id="a_Node000004"><a xlink:href="../../d1/d32/class_deluxe_1_1_deluxe_brand_center_1_1_a_m_m_1_1_infrastructure_1_1_social_1_1_linkedin_service.html#a681a7210fdba6efebd4cd39e5b010064" target="_top" xlink:title=" ">
<polygon fill="white" stroke="#666666" points="788.88,-230 616.88,-230 616.88,-186 788.88,-186 788.88,-230"/>
<text text-anchor="start" x="624.88" y="-216.5" font-family="Helvetica,sans-Serif" font-size="10.00">Deluxe.DeluxeBrandCenter.</text>
<text text-anchor="start" x="624.88" y="-204.5" font-family="Helvetica,sans-Serif" font-size="10.00">AMM.Infrastructure.Social.Linkedin</text>
<text text-anchor="middle" x="702.88" y="-192.5" font-family="Helvetica,sans-Serif" font-size="10.00">Service.CheckShareMediaCategory</text>
</a>
</g>
</g>
<!-- Node3&#45;&gt;Node4 -->
<g id="edge3_Node000003_Node000004" class="edge">
<title>Node3&#45;&gt;Node4</title>
<g id="a_edge3_Node000003_Node000004"><a xlink:title=" ">
<path fill="none" stroke="#63b8ff" d="M570.3,-168.47C585.15,-172.93 600.85,-177.65 616.04,-182.21"/>
<polygon fill="#63b8ff" stroke="#63b8ff" points="614.95,-185.54 625.54,-185.07 616.97,-178.84 614.95,-185.54"/>
</a>
</g>
</g>
<!-- Node5 -->
<g id="Node000005" class="node">
<title>Node5</title>
<g id="a_Node000005"><a xlink:href="../../d1/d32/class_deluxe_1_1_deluxe_brand_center_1_1_a_m_m_1_1_infrastructure_1_1_social_1_1_linkedin_service.html#aef7cef03333bd286ec79ebb6754949ec" target="_top" xlink:title=" ">
<polygon fill="white" stroke="#666666" points="790.75,-168 615,-168 615,-124 790.75,-124 790.75,-168"/>
<text text-anchor="start" x="623" y="-154.5" font-family="Helvetica,sans-Serif" font-size="10.00">Deluxe.DeluxeBrandCenter.</text>
<text text-anchor="start" x="623" y="-142.5" font-family="Helvetica,sans-Serif" font-size="10.00">AMM.Infrastructure.Social.Linkedin</text>
<text text-anchor="middle" x="702.88" y="-130.5" font-family="Helvetica,sans-Serif" font-size="10.00">Service.GenerateShareMediaIMAGE</text>
</a>
</g>
</g>
<!-- Node3&#45;&gt;Node5 -->
<g id="edge4_Node000003_Node000005" class="edge">
<title>Node3&#45;&gt;Node5</title>
<g id="a_edge4_Node000003_Node000005"><a xlink:title=" ">
<path fill="none" stroke="#63b8ff" d="M579.44,-146C587.33,-146 595.37,-146 603.38,-146"/>
<polygon fill="#63b8ff" stroke="#63b8ff" points="603.14,-149.5 613.14,-146 603.14,-142.5 603.14,-149.5"/>
</a>
</g>
</g>
<!-- Node10 -->
<g id="Node000010" class="node">
<title>Node10</title>
<g id="a_Node000010"><a xlink:href="../../d1/d32/class_deluxe_1_1_deluxe_brand_center_1_1_a_m_m_1_1_infrastructure_1_1_social_1_1_linkedin_service.html#a817ff3a7be3404e76a29a74ffa958491" target="_top" xlink:title=" ">
<polygon fill="white" stroke="#666666" points="787.38,-106 618.38,-106 618.38,-62 787.38,-62 787.38,-106"/>
<text text-anchor="start" x="626.38" y="-92.5" font-family="Helvetica,sans-Serif" font-size="10.00">Deluxe.DeluxeBrandCenter.</text>
<text text-anchor="start" x="626.38" y="-80.5" font-family="Helvetica,sans-Serif" font-size="10.00">AMM.Infrastructure.Social.Linkedin</text>
<text text-anchor="middle" x="702.88" y="-68.5" font-family="Helvetica,sans-Serif" font-size="10.00">Service.GenerateShareMediaVideo</text>
</a>
</g>
</g>
<!-- Node3&#45;&gt;Node10 -->
<g id="edge9_Node000003_Node000010" class="edge">
<title>Node3&#45;&gt;Node10</title>
<g id="a_edge9_Node000003_Node000010"><a xlink:title=" ">
<path fill="none" stroke="#63b8ff" d="M570.3,-123.53C585.15,-119.07 600.85,-114.35 616.04,-109.79"/>
<polygon fill="#63b8ff" stroke="#63b8ff" points="616.97,-113.16 625.54,-106.93 614.95,-106.46 616.97,-113.16"/>
</a>
</g>
</g>
<!-- Node6 -->
<g id="Node000006" class="node">
<title>Node6</title>
<g id="a_Node000006"><a xlink:href="../../d1/d32/class_deluxe_1_1_deluxe_brand_center_1_1_a_m_m_1_1_infrastructure_1_1_social_1_1_linkedin_service.html#af40d2fd6f6f7079b39639b1f2440eb33" target="_top" xlink:title=" ">
<polygon fill="white" stroke="#666666" points="995.75,-230 826.75,-230 826.75,-186 995.75,-186 995.75,-230"/>
<text text-anchor="start" x="834.75" y="-216.5" font-family="Helvetica,sans-Serif" font-size="10.00">Deluxe.DeluxeBrandCenter.</text>
<text text-anchor="start" x="834.75" y="-204.5" font-family="Helvetica,sans-Serif" font-size="10.00">AMM.Infrastructure.Social.Linkedin</text>
<text text-anchor="middle" x="911.25" y="-192.5" font-family="Helvetica,sans-Serif" font-size="10.00">Service.RegisterImage</text>
</a>
</g>
</g>
<!-- Node5&#45;&gt;Node6 -->
<g id="edge5_Node000005_Node000006" class="edge">
<title>Node5&#45;&gt;Node6</title>
<g id="a_edge5_Node000005_Node000006"><a xlink:title=" ">
<path fill="none" stroke="#63b8ff" d="M778.67,-168.47C793.52,-172.93 809.23,-177.65 824.41,-182.21"/>
<polygon fill="#63b8ff" stroke="#63b8ff" points="823.33,-185.54 833.91,-185.07 825.34,-178.84 823.33,-185.54"/>
</a>
</g>
</g>
<!-- Node8 -->
<g id="Node000008" class="node">
<title>Node8</title>
<g id="a_Node000008"><a xlink:href="../../d1/d32/class_deluxe_1_1_deluxe_brand_center_1_1_a_m_m_1_1_infrastructure_1_1_social_1_1_linkedin_service.html#a0b0fcc91e190b728d561c59444048bc1" target="_top" xlink:title=" ">
<polygon fill="white" stroke="#666666" points="995.75,-168 826.75,-168 826.75,-124 995.75,-124 995.75,-168"/>
<text text-anchor="start" x="834.75" y="-154.5" font-family="Helvetica,sans-Serif" font-size="10.00">Deluxe.DeluxeBrandCenter.</text>
<text text-anchor="start" x="834.75" y="-142.5" font-family="Helvetica,sans-Serif" font-size="10.00">AMM.Infrastructure.Social.Linkedin</text>
<text text-anchor="middle" x="911.25" y="-130.5" font-family="Helvetica,sans-Serif" font-size="10.00">Service.UploadImage</text>
</a>
</g>
</g>
<!-- Node5&#45;&gt;Node8 -->
<g id="edge7_Node000005_Node000008" class="edge">
<title>Node5&#45;&gt;Node8</title>
<g id="a_edge7_Node000005_Node000008"><a xlink:title=" ">
<path fill="none" stroke="#63b8ff" d="M791.1,-146C798.93,-146 806.89,-146 814.79,-146"/>
<polygon fill="#63b8ff" stroke="#63b8ff" points="814.79,-149.5 824.79,-146 814.79,-142.5 814.79,-149.5"/>
</a>
</g>
</g>
<!-- Node7 -->
<g id="Node000007" class="node">
<title>Node7</title>
<g id="a_Node000007"><a xlink:href="../../d1/d32/class_deluxe_1_1_deluxe_brand_center_1_1_a_m_m_1_1_infrastructure_1_1_social_1_1_linkedin_service.html#a990b6c5ce712dfa0ec02f25cc1af07f8" target="_top" xlink:title=" ">
<polygon fill="white" stroke="#666666" points="1224,-230 1031.75,-230 1031.75,-186 1224,-186 1224,-230"/>
<text text-anchor="start" x="1039.75" y="-216.5" font-family="Helvetica,sans-Serif" font-size="10.00">Deluxe.DeluxeBrandCenter.</text>
<text text-anchor="start" x="1039.75" y="-204.5" font-family="Helvetica,sans-Serif" font-size="10.00">AMM.Infrastructure.Social.Linkedin</text>
<text text-anchor="middle" x="1127.88" y="-192.5" font-family="Helvetica,sans-Serif" font-size="10.00">Service.GenerateRegisterImageRequest</text>
</a>
</g>
</g>
<!-- Node6&#45;&gt;Node7 -->
<g id="edge6_Node000006_Node000007" class="edge">
<title>Node6&#45;&gt;Node7</title>
<g id="a_edge6_Node000006_Node000007"><a xlink:title=" ">
<path fill="none" stroke="#63b8ff" d="M996.15,-208C1003.98,-208 1011.99,-208 1019.99,-208"/>
<polygon fill="#63b8ff" stroke="#63b8ff" points="1019.77,-211.5 1029.77,-208 1019.77,-204.5 1019.77,-211.5"/>
</a>
</g>
</g>
<!-- Node9 -->
<g id="Node000009" class="node">
<title>Node9</title>
<g id="a_Node000009"><a xlink:href="../../d1/d32/class_deluxe_1_1_deluxe_brand_center_1_1_a_m_m_1_1_infrastructure_1_1_social_1_1_linkedin_service.html#aacff4649d26ef2d36b74b6c0f982b889" target="_top" xlink:title=" ">
<polygon fill="white" stroke="#666666" points="1212.38,-168 1043.38,-168 1043.38,-124 1212.38,-124 1212.38,-168"/>
<text text-anchor="start" x="1051.38" y="-154.5" font-family="Helvetica,sans-Serif" font-size="10.00">Deluxe.DeluxeBrandCenter.</text>
<text text-anchor="start" x="1051.38" y="-142.5" font-family="Helvetica,sans-Serif" font-size="10.00">AMM.Infrastructure.Social.Linkedin</text>
<text text-anchor="middle" x="1127.88" y="-130.5" font-family="Helvetica,sans-Serif" font-size="10.00">Service.DownloadImage</text>
</a>
</g>
</g>
<!-- Node8&#45;&gt;Node9 -->
<g id="edge8_Node000008_Node000009" class="edge">
<title>Node8&#45;&gt;Node9</title>
<g id="a_edge8_Node000008_Node000009"><a xlink:title=" ">
<path fill="none" stroke="#63b8ff" d="M996.15,-146C1007.82,-146 1019.88,-146 1031.74,-146"/>
<polygon fill="#63b8ff" stroke="#63b8ff" points="1031.52,-149.5 1041.52,-146 1031.52,-142.5 1031.52,-149.5"/>
</a>
</g>
</g>
<!-- Node11 -->
<g id="Node000011" class="node">
<title>Node11</title>
<g id="a_Node000011"><a xlink:href="../../d1/d32/class_deluxe_1_1_deluxe_brand_center_1_1_a_m_m_1_1_infrastructure_1_1_social_1_1_linkedin_service.html#a5d7be3a55761f1bc8895dec7839130ba" target="_top" xlink:title=" ">
<polygon fill="white" stroke="#666666" points="995.75,-106 826.75,-106 826.75,-62 995.75,-62 995.75,-106"/>
<text text-anchor="start" x="834.75" y="-92.5" font-family="Helvetica,sans-Serif" font-size="10.00">Deluxe.DeluxeBrandCenter.</text>
<text text-anchor="start" x="834.75" y="-80.5" font-family="Helvetica,sans-Serif" font-size="10.00">AMM.Infrastructure.Social.Linkedin</text>
<text text-anchor="middle" x="911.25" y="-68.5" font-family="Helvetica,sans-Serif" font-size="10.00">Service.RegisterVideo</text>
</a>
</g>
</g>
<!-- Node10&#45;&gt;Node11 -->
<g id="edge10_Node000010_Node000011" class="edge">
<title>Node10&#45;&gt;Node11</title>
<g id="a_edge10_Node000010_Node000011"><a xlink:title=" ">
<path fill="none" stroke="#63b8ff" d="M787.82,-84C796.76,-84 805.91,-84 814.97,-84"/>
<polygon fill="#63b8ff" stroke="#63b8ff" points="814.87,-87.5 824.87,-84 814.87,-80.5 814.87,-87.5"/>
</a>
</g>
</g>
<!-- Node13 -->
<g id="Node000013" class="node">
<title>Node13</title>
<g id="a_Node000013"><a xlink:href="../../d1/d32/class_deluxe_1_1_deluxe_brand_center_1_1_a_m_m_1_1_infrastructure_1_1_social_1_1_linkedin_service.html#a4a824857004e9cdd7c21f35f0392af06" target="_top" xlink:title=" ">
<polygon fill="white" stroke="#666666" points="995.75,-44 826.75,-44 826.75,0 995.75,0 995.75,-44"/>
<text text-anchor="start" x="834.75" y="-30.5" font-family="Helvetica,sans-Serif" font-size="10.00">Deluxe.DeluxeBrandCenter.</text>
<text text-anchor="start" x="834.75" y="-18.5" font-family="Helvetica,sans-Serif" font-size="10.00">AMM.Infrastructure.Social.Linkedin</text>
<text text-anchor="middle" x="911.25" y="-6.5" font-family="Helvetica,sans-Serif" font-size="10.00">Service.UploadVideo</text>
</a>
</g>
</g>
<!-- Node10&#45;&gt;Node13 -->
<g id="edge12_Node000010_Node000013" class="edge">
<title>Node10&#45;&gt;Node13</title>
<g id="a_edge12_Node000010_Node000013"><a xlink:title=" ">
<path fill="none" stroke="#63b8ff" d="M778.67,-61.53C793.52,-57.07 809.23,-52.35 824.41,-47.79"/>
<polygon fill="#63b8ff" stroke="#63b8ff" points="825.34,-51.16 833.91,-44.93 823.33,-44.46 825.34,-51.16"/>
</a>
</g>
</g>
<!-- Node12 -->
<g id="Node000012" class="node">
<title>Node12</title>
<g id="a_Node000012"><a xlink:href="../../d1/d32/class_deluxe_1_1_deluxe_brand_center_1_1_a_m_m_1_1_infrastructure_1_1_social_1_1_linkedin_service.html#a202ccc4b8b6c2d01415d92c33cd928be" target="_top" xlink:title=" ">
<polygon fill="white" stroke="#666666" points="1222.88,-106 1032.88,-106 1032.88,-62 1222.88,-62 1222.88,-106"/>
<text text-anchor="start" x="1040.88" y="-92.5" font-family="Helvetica,sans-Serif" font-size="10.00">Deluxe.DeluxeBrandCenter.</text>
<text text-anchor="start" x="1040.88" y="-80.5" font-family="Helvetica,sans-Serif" font-size="10.00">AMM.Infrastructure.Social.Linkedin</text>
<text text-anchor="middle" x="1127.88" y="-68.5" font-family="Helvetica,sans-Serif" font-size="10.00">Service.GenerateRegisterVideoRequest</text>
</a>
</g>
</g>
<!-- Node11&#45;&gt;Node12 -->
<g id="edge11_Node000011_Node000012" class="edge">
<title>Node11&#45;&gt;Node12</title>
<g id="a_edge11_Node000011_Node000012"><a xlink:title=" ">
<path fill="none" stroke="#63b8ff" d="M996.15,-84C1004.4,-84 1012.83,-84 1021.26,-84"/>
<polygon fill="#63b8ff" stroke="#63b8ff" points="1021.21,-87.5 1031.21,-84 1021.21,-80.5 1021.21,-87.5"/>
</a>
</g>
</g>
<!-- Node14 -->
<g id="Node000014" class="node">
<title>Node14</title>
<g id="a_Node000014"><a xlink:href="../../d1/d32/class_deluxe_1_1_deluxe_brand_center_1_1_a_m_m_1_1_infrastructure_1_1_social_1_1_linkedin_service.html#ae27de55c05ad039ea2815e89cde64e87" target="_top" xlink:title=" ">
<polygon fill="white" stroke="#666666" points="1212.38,-44 1043.38,-44 1043.38,0 1212.38,0 1212.38,-44"/>
<text text-anchor="start" x="1051.38" y="-30.5" font-family="Helvetica,sans-Serif" font-size="10.00">Deluxe.DeluxeBrandCenter.</text>
<text text-anchor="start" x="1051.38" y="-18.5" font-family="Helvetica,sans-Serif" font-size="10.00">AMM.Infrastructure.Social.Linkedin</text>
<text text-anchor="middle" x="1127.88" y="-6.5" font-family="Helvetica,sans-Serif" font-size="10.00">Service.DownloadVideo</text>
</a>
</g>
</g>
<!-- Node13&#45;&gt;Node14 -->
<g id="edge13_Node000013_Node000014" class="edge">
<title>Node13&#45;&gt;Node14</title>
<g id="a_edge13_Node000013_Node000014"><a xlink:title=" ">
<path fill="none" stroke="#63b8ff" d="M996.15,-22C1007.82,-22 1019.88,-22 1031.74,-22"/>
<polygon fill="#63b8ff" stroke="#63b8ff" points="1031.52,-25.5 1041.52,-22 1031.52,-18.5 1031.52,-25.5"/>
</a>
</g>
</g>
</g>
</svg>

<g id="navigator" transform="translate(0 0)" fill="#404254">
  <rect fill="#f2f5e9" fill-opacity="0.5" stroke="#606060" stroke-width=".5" x="0" y="0" width="60" height="60"/>
  <use id="zoomplus" xlink:href="#zoomPlus" x="17" y="9" onmousedown="handleZoom(evt,'in')"/>
  <use id="zoomminus" xlink:href="#zoomMin" x="42" y="9" onmousedown="handleZoom(evt,'out')"/>
  <use id="reset" xlink:href="#resetDef" x="30" y="36" onmousedown="handleReset()"/>
   <use id="arrowup" xlink:href="#arrowUp" x="0" y="0" onmousedown="handlePan(0,-1)"/>
  <use id="arrowright" xlink:href="#arrowRight" x="0" y="0" onmousedown="handlePan(1,0)"/>
  <use id="arrowdown" xlink:href="#arrowDown" x="0" y="0" onmousedown="handlePan(0,1)"/>
  <use id="arrowleft" xlink:href="#arrowLeft" x="0" y="0" onmousedown="handlePan(-1,0)"/>
</g>
<svg viewBox="0 0 15 15" width="100%" height="30px" preserveAspectRatio="xMaxYMin meet">
 <g id="arrow_out" transform="scale(0.3 0.3)">
  <a xlink:href="class_deluxe_1_1_deluxe_brand_center_1_1_a_m_m_1_1_infrastructure_1_1_social_1_1_linkedin_service_a42aa70b3cb83f47b88b7232d98a5679a_cgraph_org.svg" target="_base">
   <rect id="button" ry="5" rx="5" y="6" x="6" height="38" width="38"
        fill="#f2f5e9" fill-opacity="0.5" stroke="#606060" stroke-width="1.0"/>
   <path id="arrow"
     d="M 11.500037,31.436501 C 11.940474,20.09759 22.043105,11.32322 32.158766,21.979434 L 37.068811,17.246167 C 37.068811,17.246167 37.088388,32 37.088388,32 L 22.160133,31.978069 C 22.160133,31.978069 26.997745,27.140456 26.997745,27.140456 C 18.528582,18.264221 13.291696,25.230495 11.500037,31.436501 z"
     style="fill:#404040;"/>
  </a>
 </g>
</svg>

<style type='text/css'>
<![CDATA[
[data-mouse-over-selected='false'] { opacity: 0.7; }
[data-mouse-over-selected='true']  { opacity: 1.0; }
]]>
</style>
<script type="application/ecmascript"><![CDATA[
document.addEventListener('DOMContentLoaded', (event) => {
  highlightEdges();
  highlightAdjacentNodes();
});
]]></script>
</svg>
