<?xml version="1.0" encoding="UTF-8" standalone="no"?>
<!DOCTYPE svg PUBLIC "-//W3C//DTD SVG 1.1//EN"
 "http://www.w3.org/Graphics/SVG/1.1/DTD/svg11.dtd">
<!-- Generated by graphviz version 12.1.1 (20240910.0053)
 -->
<!-- Title: Deluxe.DeluxeBrandCenter.AMM.API.Controllers.RootController&lt; TService &gt; Pages: 1 -->
<!--zoomable 548 -->

<svg id="main" version="1.1" xmlns="http://www.w3.org/2000/svg" xmlns:xlink="http://www.w3.org/1999/xlink" xml:space="preserve" onload="init(evt)">

<style type="text/css"><![CDATA[
.node, .edge {opacity: 0.7;}
.node.selected, .edge.selected {opacity: 1;}
.edge:hover path { stroke: red; }
.edge:hover polygon { stroke: red; fill: red; }
]]></style>

<defs>
  <circle id="rim" cx="0" cy="0" r="7"/>
  <circle id="rim2" cx="0" cy="0" r="3.5"/>
  <g id="zoomPlus">
    <use xlink:href="#rim" fill="#404040"><set attributeName="fill" to="#808080" begin="zoomplus.mouseover" end="zoomplus.mouseout"/></use>
    <path d="M-4,0h8M0,-4v8" fill="none" stroke="white" stroke-width="1.5" pointer-events="none"/>
  </g>
  <g id="zoomMin">
    <use xlink:href="#rim" fill="#404040"><set attributeName="fill" to="#808080" begin="zoomminus.mouseover" end="zoomminus.mouseout"/></use>
    <path d="M-4,0h8" fill="none" stroke="white" stroke-width="1.5" pointer-events="none"/>
  </g>
  <g id="arrowUp" transform="translate(30 24)">
    <use xlink:href="#rim"/>
    <path pointer-events="none" fill="none" stroke="white" stroke-width="1.5" d="M0,-3.0v7 M-2.5,-0.5L0,-3.0L2.5,-0.5"/>
  </g>
  <g id="arrowRight" transform="rotate(90) translate(36 -43)">
    <use xlink:href="#rim"/>
    <path pointer-events="none" fill="none" stroke="white" stroke-width="1.5" d="M0,-3.0v7 M-2.5,-0.5L0,-3.0L2.5,-0.5"/>
  </g>
  <g id="arrowDown" transform="rotate(180) translate(-30 -48)">
    <use xlink:href="#rim"/>
    <path pointer-events="none" fill="none" stroke="white" stroke-width="1.5" d="M0,-3.0v7 M-2.5,-0.5L0,-3.0L2.5,-0.5"/>
  </g>
  <g id="arrowLeft" transform="rotate(270) translate(-36 17)">
    <use xlink:href="#rim"/>
    <path pointer-events="none" fill="none" stroke="white" stroke-width="1.5" d="M0,-3.0v7 M-2.5,-0.5L0,-3.0L2.5,-0.5"/>
  </g>
  <g id="resetDef">
    <use xlink:href="#rim2" fill="#404040"><set attributeName="fill" to="#808080" begin="reset.mouseover" end="reset.mouseout"/></use>
  </g>
</defs>
<script type="application/ecmascript">
var viewWidth = 878;
var viewHeight = 548;
var sectionId = 'dynsection-0';
</script>
<script type="application/ecmascript" xlink:href="../../svg.min.js"/>
<svg id="graph" class="graph">
<g id="viewport">
<title>Deluxe.DeluxeBrandCenter.AMM.API.Controllers.RootController&lt; TService &gt;</title>
<!-- Node1 -->
<g id="Node000001" class="node">
<title>Node1</title>
<g id="a_Node000001"><a xlink:title="Root Controller.">
<polygon fill="#999999" stroke="#666666" points="292.5,-292 117.5,-292 117.5,-248 292.5,-248 292.5,-292"/>
<text text-anchor="start" x="125.5" y="-278.5" font-family="Helvetica,sans-Serif" font-size="10.00">Deluxe.DeluxeBrandCenter.</text>
<text text-anchor="start" x="125.5" y="-266.5" font-family="Helvetica,sans-Serif" font-size="10.00">AMM.API.Controllers.RootController</text>
<text text-anchor="middle" x="205" y="-254.5" font-family="Helvetica,sans-Serif" font-size="10.00">&lt; TService &gt;</text>
</a>
</g>
</g>
<!-- Node3 -->
<g id="Node000003" class="node">
<title>Node3</title>
<g id="a_Node000003"><a xlink:href="../../de/d9b/class_deluxe_1_1_deluxe_brand_center_1_1_a_m_m_1_1_a_p_i_1_1_controllers_1_1_root_controller.html" target="_top" xlink:title=" ">
<polygon fill="white" stroke="#666666" points="634.75,-540 459.75,-540 459.75,-496 634.75,-496 634.75,-540"/>
<text text-anchor="start" x="467.75" y="-526.5" font-family="Helvetica,sans-Serif" font-size="10.00">Deluxe.DeluxeBrandCenter.</text>
<text text-anchor="start" x="467.75" y="-514.5" font-family="Helvetica,sans-Serif" font-size="10.00">AMM.API.Controllers.RootController</text>
<text text-anchor="middle" x="547.25" y="-502.5" font-family="Helvetica,sans-Serif" font-size="10.00">&lt; IBIService &gt;</text>
</a>
</g>
</g>
<!-- Node1&#45;&gt;Node3 -->
<g id="edge2_Node000001_Node000003" class="edge">
<title>Node1&#45;&gt;Node3</title>
<g id="a_edge2_Node000001_Node000003"><a xlink:title=" ">
<path fill="none" stroke="orange" stroke-dasharray="5,2" d="M216.13,-303.16C230.45,-344.44 260.59,-414.22 310.5,-453 353.08,-486.08 411.43,-502.34 459.43,-510.32"/>
<polygon fill="orange" stroke="orange" points="219.48,-302.14 212.99,-293.76 212.84,-304.36 219.48,-302.14"/>
</a>
</g>
<text text-anchor="middle" x="376.12" y="-508.53" font-family="Helvetica,sans-Serif" font-size="10.00" fill="grey"> &lt; IBIService &gt;</text>
</g>
<!-- Node5 -->
<g id="Node000005" class="node">
<title>Node5</title>
<g id="a_Node000005"><a xlink:href="../../de/d9b/class_deluxe_1_1_deluxe_brand_center_1_1_a_m_m_1_1_a_p_i_1_1_controllers_1_1_root_controller.html" target="_top" xlink:title=" ">
<polygon fill="white" stroke="#666666" points="634.75,-478 459.75,-478 459.75,-434 634.75,-434 634.75,-478"/>
<text text-anchor="start" x="467.75" y="-464.5" font-family="Helvetica,sans-Serif" font-size="10.00">Deluxe.DeluxeBrandCenter.</text>
<text text-anchor="start" x="467.75" y="-452.5" font-family="Helvetica,sans-Serif" font-size="10.00">AMM.API.Controllers.RootController</text>
<text text-anchor="middle" x="547.25" y="-440.5" font-family="Helvetica,sans-Serif" font-size="10.00">&lt; ICampaignBuilderService &gt;</text>
</a>
</g>
</g>
<!-- Node1&#45;&gt;Node5 -->
<g id="edge4_Node000001_Node000005" class="edge">
<title>Node1&#45;&gt;Node5</title>
<g id="a_edge4_Node000001_Node000005"><a xlink:title=" ">
<path fill="none" stroke="orange" stroke-dasharray="5,2" d="M227.11,-301.45C246.08,-327.39 276.16,-363.33 310.5,-385 355.6,-413.45 412.73,-431.04 459.45,-441.59"/>
<polygon fill="orange" stroke="orange" points="230.18,-299.72 221.52,-293.62 224.49,-303.79 230.18,-299.72"/>
</a>
</g>
<text text-anchor="middle" x="376.12" y="-439.3" font-family="Helvetica,sans-Serif" font-size="10.00" fill="grey"> &lt; ICampaignBuilderService &gt;</text>
</g>
<!-- Node7 -->
<g id="Node000007" class="node">
<title>Node7</title>
<g id="a_Node000007"><a xlink:href="../../de/d9b/class_deluxe_1_1_deluxe_brand_center_1_1_a_m_m_1_1_a_p_i_1_1_controllers_1_1_root_controller.html" target="_top" xlink:title=" ">
<polygon fill="white" stroke="#666666" points="634.75,-416 459.75,-416 459.75,-372 634.75,-372 634.75,-416"/>
<text text-anchor="start" x="467.75" y="-402.5" font-family="Helvetica,sans-Serif" font-size="10.00">Deluxe.DeluxeBrandCenter.</text>
<text text-anchor="start" x="467.75" y="-390.5" font-family="Helvetica,sans-Serif" font-size="10.00">AMM.API.Controllers.RootController</text>
<text text-anchor="middle" x="547.25" y="-378.5" font-family="Helvetica,sans-Serif" font-size="10.00">&lt; ICampaignService &gt;</text>
</a>
</g>
</g>
<!-- Node1&#45;&gt;Node7 -->
<g id="edge6_Node000001_Node000007" class="edge">
<title>Node1&#45;&gt;Node7</title>
<g id="a_edge6_Node000001_Node000007"><a xlink:title=" ">
<path fill="none" stroke="orange" stroke-dasharray="5,2" d="M251.16,-298.1C269.15,-308.48 290.35,-319.72 310.5,-328 358.46,-347.71 414.25,-363.62 459.52,-374.88"/>
<polygon fill="orange" stroke="orange" points="252.94,-295.08 242.55,-293.04 249.4,-301.12 252.94,-295.08"/>
</a>
</g>
<text text-anchor="middle" x="376.12" y="-371.6" font-family="Helvetica,sans-Serif" font-size="10.00" fill="grey"> &lt; ICampaignService &gt;</text>
</g>
<!-- Node9 -->
<g id="Node000009" class="node">
<title>Node9</title>
<g id="a_Node000009"><a xlink:href="../../de/d9b/class_deluxe_1_1_deluxe_brand_center_1_1_a_m_m_1_1_a_p_i_1_1_controllers_1_1_root_controller.html" target="_top" xlink:title=" ">
<polygon fill="white" stroke="#666666" points="634.75,-354 459.75,-354 459.75,-310 634.75,-310 634.75,-354"/>
<text text-anchor="start" x="467.75" y="-340.5" font-family="Helvetica,sans-Serif" font-size="10.00">Deluxe.DeluxeBrandCenter.</text>
<text text-anchor="start" x="467.75" y="-328.5" font-family="Helvetica,sans-Serif" font-size="10.00">AMM.API.Controllers.RootController</text>
<text text-anchor="middle" x="547.25" y="-316.5" font-family="Helvetica,sans-Serif" font-size="10.00">&lt; IContactManagerService &gt;</text>
</a>
</g>
</g>
<!-- Node1&#45;&gt;Node9 -->
<g id="edge8_Node000001_Node000009" class="edge">
<title>Node1&#45;&gt;Node9</title>
<g id="a_edge8_Node000001_Node000009"><a xlink:title=" ">
<path fill="none" stroke="orange" stroke-dasharray="5,2" d="M304.02,-287.86C353.07,-296.8 411.95,-307.53 459.37,-316.17"/>
<polygon fill="orange" stroke="orange" points="304.69,-284.43 294.23,-286.08 303.44,-291.31 304.69,-284.43"/>
</a>
</g>
<text text-anchor="middle" x="376.12" y="-314.45" font-family="Helvetica,sans-Serif" font-size="10.00" fill="grey"> &lt; IContactManagerService &gt;</text>
</g>
<!-- Node11 -->
<g id="Node000011" class="node">
<title>Node11</title>
<g id="a_Node000011"><a xlink:href="../../de/d9b/class_deluxe_1_1_deluxe_brand_center_1_1_a_m_m_1_1_a_p_i_1_1_controllers_1_1_root_controller.html" target="_top" xlink:title=" ">
<polygon fill="white" stroke="#666666" points="634.75,-292 459.75,-292 459.75,-248 634.75,-248 634.75,-292"/>
<text text-anchor="start" x="467.75" y="-278.5" font-family="Helvetica,sans-Serif" font-size="10.00">Deluxe.DeluxeBrandCenter.</text>
<text text-anchor="start" x="467.75" y="-266.5" font-family="Helvetica,sans-Serif" font-size="10.00">AMM.API.Controllers.RootController</text>
<text text-anchor="middle" x="547.25" y="-254.5" font-family="Helvetica,sans-Serif" font-size="10.00">&lt; IEmailDomainService &gt;</text>
</a>
</g>
</g>
<!-- Node1&#45;&gt;Node11 -->
<g id="edge10_Node000001_Node000011" class="edge">
<title>Node1&#45;&gt;Node11</title>
<g id="a_edge10_Node000001_Node000011"><a xlink:title=" ">
<path fill="none" stroke="orange" stroke-dasharray="5,2" d="M304.02,-270C353.07,-270 411.95,-270 459.37,-270"/>
<polygon fill="orange" stroke="orange" points="304.25,-266.5 294.25,-270 304.25,-273.5 304.25,-266.5"/>
</a>
</g>
<text text-anchor="middle" x="376.12" y="-272.5" font-family="Helvetica,sans-Serif" font-size="10.00" fill="grey"> &lt; IEmailDomainService &gt;</text>
</g>
<!-- Node13 -->
<g id="Node000013" class="node">
<title>Node13</title>
<g id="a_Node000013"><a xlink:href="../../de/d9b/class_deluxe_1_1_deluxe_brand_center_1_1_a_m_m_1_1_a_p_i_1_1_controllers_1_1_root_controller.html" target="_top" xlink:title=" ">
<polygon fill="white" stroke="#666666" points="634.75,-230 459.75,-230 459.75,-186 634.75,-186 634.75,-230"/>
<text text-anchor="start" x="467.75" y="-216.5" font-family="Helvetica,sans-Serif" font-size="10.00">Deluxe.DeluxeBrandCenter.</text>
<text text-anchor="start" x="467.75" y="-204.5" font-family="Helvetica,sans-Serif" font-size="10.00">AMM.API.Controllers.RootController</text>
<text text-anchor="middle" x="547.25" y="-192.5" font-family="Helvetica,sans-Serif" font-size="10.00">&lt; ISettingsService &gt;</text>
</a>
</g>
</g>
<!-- Node1&#45;&gt;Node13 -->
<g id="edge12_Node000001_Node000013" class="edge">
<title>Node1&#45;&gt;Node13</title>
<g id="a_edge12_Node000001_Node000013"><a xlink:title=" ">
<path fill="none" stroke="orange" stroke-dasharray="5,2" d="M304.02,-252.14C353.07,-243.2 411.95,-232.47 459.37,-223.83"/>
<polygon fill="orange" stroke="orange" points="303.44,-248.69 294.23,-253.92 304.69,-255.57 303.44,-248.69"/>
</a>
</g>
<text text-anchor="middle" x="376.12" y="-252.45" font-family="Helvetica,sans-Serif" font-size="10.00" fill="grey"> &lt; ISettingsService &gt;</text>
</g>
<!-- Node15 -->
<g id="Node000015" class="node">
<title>Node15</title>
<g id="a_Node000015"><a xlink:href="../../de/d9b/class_deluxe_1_1_deluxe_brand_center_1_1_a_m_m_1_1_a_p_i_1_1_controllers_1_1_root_controller.html" target="_top" xlink:title=" ">
<polygon fill="white" stroke="#666666" points="634.75,-168 459.75,-168 459.75,-124 634.75,-124 634.75,-168"/>
<text text-anchor="start" x="467.75" y="-154.5" font-family="Helvetica,sans-Serif" font-size="10.00">Deluxe.DeluxeBrandCenter.</text>
<text text-anchor="start" x="467.75" y="-142.5" font-family="Helvetica,sans-Serif" font-size="10.00">AMM.API.Controllers.RootController</text>
<text text-anchor="middle" x="547.25" y="-130.5" font-family="Helvetica,sans-Serif" font-size="10.00">&lt; ISignatureBlockService &gt;</text>
</a>
</g>
</g>
<!-- Node1&#45;&gt;Node15 -->
<g id="edge14_Node000001_Node000015" class="edge">
<title>Node1&#45;&gt;Node15</title>
<g id="a_edge14_Node000001_Node000015"><a xlink:title=" ">
<path fill="none" stroke="orange" stroke-dasharray="5,2" d="M251.16,-241.9C269.15,-231.52 290.35,-220.28 310.5,-212 358.46,-192.29 414.25,-176.38 459.52,-165.12"/>
<polygon fill="orange" stroke="orange" points="249.4,-238.88 242.55,-246.96 252.94,-244.92 249.4,-238.88"/>
</a>
</g>
<text text-anchor="middle" x="376.12" y="-214.5" font-family="Helvetica,sans-Serif" font-size="10.00" fill="grey"> &lt; ISignatureBlockService &gt;</text>
</g>
<!-- Node17 -->
<g id="Node000017" class="node">
<title>Node17</title>
<g id="a_Node000017"><a xlink:href="../../de/d9b/class_deluxe_1_1_deluxe_brand_center_1_1_a_m_m_1_1_a_p_i_1_1_controllers_1_1_root_controller.html" target="_top" xlink:title=" ">
<polygon fill="white" stroke="#666666" points="634.75,-106 459.75,-106 459.75,-62 634.75,-62 634.75,-106"/>
<text text-anchor="start" x="467.75" y="-92.5" font-family="Helvetica,sans-Serif" font-size="10.00">Deluxe.DeluxeBrandCenter.</text>
<text text-anchor="start" x="467.75" y="-80.5" font-family="Helvetica,sans-Serif" font-size="10.00">AMM.API.Controllers.RootController</text>
<text text-anchor="middle" x="547.25" y="-68.5" font-family="Helvetica,sans-Serif" font-size="10.00">&lt; ITemplateService &gt;</text>
</a>
</g>
</g>
<!-- Node1&#45;&gt;Node17 -->
<g id="edge16_Node000001_Node000017" class="edge">
<title>Node1&#45;&gt;Node17</title>
<g id="a_edge16_Node000001_Node000017"><a xlink:title=" ">
<path fill="none" stroke="orange" stroke-dasharray="5,2" d="M227.11,-238.55C246.08,-212.61 276.16,-176.67 310.5,-155 355.6,-126.55 412.73,-108.96 459.45,-98.41"/>
<polygon fill="orange" stroke="orange" points="224.49,-236.21 221.52,-246.38 230.18,-240.28 224.49,-236.21"/>
</a>
</g>
<text text-anchor="middle" x="376.12" y="-157.5" font-family="Helvetica,sans-Serif" font-size="10.00" fill="grey"> &lt; ITemplateService &gt;</text>
</g>
<!-- Node19 -->
<g id="Node000019" class="node">
<title>Node19</title>
<g id="a_Node000019"><a xlink:href="../../de/d9b/class_deluxe_1_1_deluxe_brand_center_1_1_a_m_m_1_1_a_p_i_1_1_controllers_1_1_root_controller.html" target="_top" xlink:title=" ">
<polygon fill="white" stroke="#666666" points="634.75,-44 459.75,-44 459.75,0 634.75,0 634.75,-44"/>
<text text-anchor="start" x="467.75" y="-30.5" font-family="Helvetica,sans-Serif" font-size="10.00">Deluxe.DeluxeBrandCenter.</text>
<text text-anchor="start" x="467.75" y="-18.5" font-family="Helvetica,sans-Serif" font-size="10.00">AMM.API.Controllers.RootController</text>
<text text-anchor="middle" x="547.25" y="-6.5" font-family="Helvetica,sans-Serif" font-size="10.00">&lt; IUserCampaignService &gt;</text>
</a>
</g>
</g>
<!-- Node1&#45;&gt;Node19 -->
<g id="edge18_Node000001_Node000019" class="edge">
<title>Node1&#45;&gt;Node19</title>
<g id="a_edge18_Node000001_Node000019"><a xlink:title=" ">
<path fill="none" stroke="orange" stroke-dasharray="5,2" d="M216.13,-236.84C230.45,-195.56 260.59,-125.78 310.5,-87 353.08,-53.92 411.43,-37.66 459.43,-29.68"/>
<polygon fill="orange" stroke="orange" points="212.84,-235.64 212.99,-246.24 219.48,-237.86 212.84,-235.64"/>
</a>
</g>
<text text-anchor="middle" x="376.12" y="-89.5" font-family="Helvetica,sans-Serif" font-size="10.00" fill="grey"> &lt; IUserCampaignService &gt;</text>
</g>
<!-- Node2 -->
<g id="Node000002" class="node">
<title>Node2</title>
<g id="a_Node000002"><a xlink:title=" ">
<polygon fill="white" stroke="#666666" points="80.5,-280 0,-280 0,-260 80.5,-260 80.5,-280"/>
<text text-anchor="middle" x="40.25" y="-266.5" font-family="Helvetica,sans-Serif" font-size="10.00">ControllerBase</text>
</a>
</g>
</g>
<!-- Node2&#45;&gt;Node1 -->
<g id="edge1_Node000001_Node000002" class="edge">
<title>Node2&#45;&gt;Node1</title>
<g id="a_edge1_Node000001_Node000002"><a xlink:title=" ">
<path fill="none" stroke="#63b8ff" d="M91.99,-270C99.99,-270 108.46,-270 117,-270"/>
<polygon fill="#63b8ff" stroke="#63b8ff" points="92.16,-266.5 82.16,-270 92.16,-273.5 92.16,-266.5"/>
</a>
</g>
</g>
<!-- Node4 -->
<g id="Node000004" class="node">
<title>Node4</title>
<g id="a_Node000004"><a xlink:href="../../dd/d70/class_deluxe_1_1_deluxe_brand_center_1_1_a_m_m_1_1_a_p_i_1_1_controllers_1_1_b_i_controller.html" target="_top" xlink:title=" ">
<polygon fill="white" stroke="#666666" points="852.75,-534 689,-534 689,-502 852.75,-502 852.75,-534"/>
<text text-anchor="start" x="697" y="-520.5" font-family="Helvetica,sans-Serif" font-size="10.00">Deluxe.DeluxeBrandCenter.</text>
<text text-anchor="middle" x="770.88" y="-508.5" font-family="Helvetica,sans-Serif" font-size="10.00">AMM.API.Controllers.BIController</text>
</a>
</g>
</g>
<!-- Node3&#45;&gt;Node4 -->
<g id="edge3_Node000003_Node000004" class="edge">
<title>Node3&#45;&gt;Node4</title>
<g id="a_edge3_Node000003_Node000004"><a xlink:title=" ">
<path fill="none" stroke="#63b8ff" d="M646.43,-518C660.52,-518 674.88,-518 688.59,-518"/>
<polygon fill="#63b8ff" stroke="#63b8ff" points="646.72,-514.5 636.72,-518 646.72,-521.5 646.72,-514.5"/>
</a>
</g>
</g>
<!-- Node6 -->
<g id="Node000006" class="node">
<title>Node6</title>
<g id="a_Node000006"><a xlink:href="../../d1/dc8/class_deluxe_1_1_deluxe_brand_center_1_1_a_m_m_1_1_a_p_i_1_1_controllers_1_1_campaign_builder_controller.html" target="_top" xlink:title="Campaign Builder Controller.">
<polygon fill="white" stroke="#666666" points="864,-478 677.75,-478 677.75,-434 864,-434 864,-478"/>
<text text-anchor="start" x="685.75" y="-464.5" font-family="Helvetica,sans-Serif" font-size="10.00">Deluxe.DeluxeBrandCenter.</text>
<text text-anchor="start" x="685.75" y="-452.5" font-family="Helvetica,sans-Serif" font-size="10.00">AMM.API.Controllers.CampaignBuilder</text>
<text text-anchor="middle" x="770.88" y="-440.5" font-family="Helvetica,sans-Serif" font-size="10.00">Controller</text>
</a>
</g>
</g>
<!-- Node5&#45;&gt;Node6 -->
<g id="edge5_Node000005_Node000006" class="edge">
<title>Node5&#45;&gt;Node6</title>
<g id="a_edge5_Node000005_Node000006"><a xlink:title=" ">
<path fill="none" stroke="#63b8ff" d="M646.64,-456C656.85,-456 667.19,-456 677.32,-456"/>
<polygon fill="#63b8ff" stroke="#63b8ff" points="646.72,-452.5 636.72,-456 646.72,-459.5 646.72,-452.5"/>
</a>
</g>
</g>
<!-- Node8 -->
<g id="Node000008" class="node">
<title>Node8</title>
<g id="a_Node000008"><a xlink:href="../../d2/d90/class_deluxe_1_1_deluxe_brand_center_1_1_a_m_m_1_1_a_p_i_1_1_controllers_1_1_campaign_controller.html" target="_top" xlink:title="Campaign Controller.">
<polygon fill="white" stroke="#666666" points="870,-410 671.75,-410 671.75,-378 870,-378 870,-410"/>
<text text-anchor="start" x="679.75" y="-396.5" font-family="Helvetica,sans-Serif" font-size="10.00">Deluxe.DeluxeBrandCenter.</text>
<text text-anchor="middle" x="770.88" y="-384.5" font-family="Helvetica,sans-Serif" font-size="10.00">AMM.API.Controllers.CampaignController</text>
</a>
</g>
</g>
<!-- Node7&#45;&gt;Node8 -->
<g id="edge7_Node000007_Node000008" class="edge">
<title>Node7&#45;&gt;Node8</title>
<g id="a_edge7_Node000007_Node000008"><a xlink:title=" ">
<path fill="none" stroke="#63b8ff" d="M646.44,-394C654.74,-394 663.13,-394 671.43,-394"/>
<polygon fill="#63b8ff" stroke="#63b8ff" points="646.72,-390.5 636.72,-394 646.72,-397.5 646.72,-390.5"/>
</a>
</g>
</g>
<!-- Node10 -->
<g id="Node000010" class="node">
<title>Node10</title>
<g id="a_Node000010"><a xlink:href="../../d1/d82/class_deluxe_1_1_deluxe_brand_center_1_1_a_m_m_1_1_a_p_i_1_1_controllers_1_1_contact_manager_controller.html" target="_top" xlink:title=" ">
<polygon fill="white" stroke="#666666" points="862.88,-354 678.88,-354 678.88,-310 862.88,-310 862.88,-354"/>
<text text-anchor="start" x="686.88" y="-340.5" font-family="Helvetica,sans-Serif" font-size="10.00">Deluxe.DeluxeBrandCenter.</text>
<text text-anchor="start" x="686.88" y="-328.5" font-family="Helvetica,sans-Serif" font-size="10.00">AMM.API.Controllers.ContactManager</text>
<text text-anchor="middle" x="770.88" y="-316.5" font-family="Helvetica,sans-Serif" font-size="10.00">Controller</text>
</a>
</g>
</g>
<!-- Node9&#45;&gt;Node10 -->
<g id="edge9_Node000009_Node000010" class="edge">
<title>Node9&#45;&gt;Node10</title>
<g id="a_edge9_Node000009_Node000010"><a xlink:title=" ">
<path fill="none" stroke="#63b8ff" d="M646.61,-332C657.19,-332 667.93,-332 678.42,-332"/>
<polygon fill="#63b8ff" stroke="#63b8ff" points="646.72,-328.5 636.72,-332 646.72,-335.5 646.72,-328.5"/>
</a>
</g>
</g>
<!-- Node12 -->
<g id="Node000012" class="node">
<title>Node12</title>
<g id="a_Node000012"><a xlink:href="../../d8/d2e/class_deluxe_1_1_deluxe_brand_center_1_1_a_m_m_1_1_a_p_i_1_1_controllers_1_1_email_domain_controller.html" target="_top" xlink:title="Email Domain Controller.">
<polygon fill="white" stroke="#666666" points="856.12,-292 685.62,-292 685.62,-248 856.12,-248 856.12,-292"/>
<text text-anchor="start" x="693.62" y="-278.5" font-family="Helvetica,sans-Serif" font-size="10.00">Deluxe.DeluxeBrandCenter.</text>
<text text-anchor="start" x="693.62" y="-266.5" font-family="Helvetica,sans-Serif" font-size="10.00">AMM.API.Controllers.EmailDomain</text>
<text text-anchor="middle" x="770.88" y="-254.5" font-family="Helvetica,sans-Serif" font-size="10.00">Controller</text>
</a>
</g>
</g>
<!-- Node11&#45;&gt;Node12 -->
<g id="edge11_Node000011_Node000012" class="edge">
<title>Node11&#45;&gt;Node12</title>
<g id="a_edge11_Node000011_Node000012"><a xlink:title=" ">
<path fill="none" stroke="#63b8ff" d="M646.51,-270C659.47,-270 672.65,-270 685.35,-270"/>
<polygon fill="#63b8ff" stroke="#63b8ff" points="646.72,-266.5 636.72,-270 646.72,-273.5 646.72,-266.5"/>
</a>
</g>
</g>
<!-- Node14 -->
<g id="Node000014" class="node">
<title>Node14</title>
<g id="a_Node000014"><a xlink:href="../../d7/d06/class_deluxe_1_1_deluxe_brand_center_1_1_a_m_m_1_1_a_p_i_1_1_controllers_1_1_settings_controller.html" target="_top" xlink:title="Settings Controller.">
<polygon fill="white" stroke="#666666" points="865.88,-224 675.88,-224 675.88,-192 865.88,-192 865.88,-224"/>
<text text-anchor="start" x="683.88" y="-210.5" font-family="Helvetica,sans-Serif" font-size="10.00">Deluxe.DeluxeBrandCenter.</text>
<text text-anchor="middle" x="770.88" y="-198.5" font-family="Helvetica,sans-Serif" font-size="10.00">AMM.API.Controllers.SettingsController</text>
</a>
</g>
</g>
<!-- Node13&#45;&gt;Node14 -->
<g id="edge13_Node000013_Node000014" class="edge">
<title>Node13&#45;&gt;Node14</title>
<g id="a_edge13_Node000013_Node000014"><a xlink:title=" ">
<path fill="none" stroke="#63b8ff" d="M646.45,-208C656.1,-208 665.88,-208 675.49,-208"/>
<polygon fill="#63b8ff" stroke="#63b8ff" points="646.72,-204.5 636.72,-208 646.72,-211.5 646.72,-204.5"/>
</a>
</g>
</g>
<!-- Node16 -->
<g id="Node000016" class="node">
<title>Node16</title>
<g id="a_Node000016"><a xlink:href="../../d0/d72/class_deluxe_1_1_deluxe_brand_center_1_1_a_m_m_1_1_a_p_i_1_1_controllers_1_1_signature_block_controller.html" target="_top" xlink:title=" ">
<polygon fill="white" stroke="#666666" points="859.88,-168 681.88,-168 681.88,-124 859.88,-124 859.88,-168"/>
<text text-anchor="start" x="689.88" y="-154.5" font-family="Helvetica,sans-Serif" font-size="10.00">Deluxe.DeluxeBrandCenter.</text>
<text text-anchor="start" x="689.88" y="-142.5" font-family="Helvetica,sans-Serif" font-size="10.00">AMM.API.Controllers.SignatureBlock</text>
<text text-anchor="middle" x="770.88" y="-130.5" font-family="Helvetica,sans-Serif" font-size="10.00">Controller</text>
</a>
</g>
</g>
<!-- Node15&#45;&gt;Node16 -->
<g id="edge15_Node000015_Node000016" class="edge">
<title>Node15&#45;&gt;Node16</title>
<g id="a_edge15_Node000015_Node000016"><a xlink:title=" ">
<path fill="none" stroke="#63b8ff" d="M646.4,-146C658.16,-146 670.11,-146 681.71,-146"/>
<polygon fill="#63b8ff" stroke="#63b8ff" points="646.72,-142.5 636.72,-146 646.72,-149.5 646.72,-142.5"/>
</a>
</g>
</g>
<!-- Node18 -->
<g id="Node000018" class="node">
<title>Node18</title>
<g id="a_Node000018"><a xlink:href="../../d5/d11/class_deluxe_1_1_deluxe_brand_center_1_1_a_m_m_1_1_a_p_i_1_1_controllers_1_1_template_controller.html" target="_top" xlink:title="Template Controller.">
<polygon fill="white" stroke="#666666" points="867.75,-100 674,-100 674,-68 867.75,-68 867.75,-100"/>
<text text-anchor="start" x="682" y="-86.5" font-family="Helvetica,sans-Serif" font-size="10.00">Deluxe.DeluxeBrandCenter.</text>
<text text-anchor="middle" x="770.88" y="-74.5" font-family="Helvetica,sans-Serif" font-size="10.00">AMM.API.Controllers.TemplateController</text>
</a>
</g>
</g>
<!-- Node17&#45;&gt;Node18 -->
<g id="edge17_Node000017_Node000018" class="edge">
<title>Node17&#45;&gt;Node18</title>
<g id="a_edge17_Node000017_Node000018"><a xlink:title=" ">
<path fill="none" stroke="#63b8ff" d="M646.53,-84C655.54,-84 664.66,-84 673.64,-84"/>
<polygon fill="#63b8ff" stroke="#63b8ff" points="646.72,-80.5 636.72,-84 646.72,-87.5 646.72,-80.5"/>
</a>
</g>
</g>
<!-- Node20 -->
<g id="Node000020" class="node">
<title>Node20</title>
<g id="a_Node000020"><a xlink:href="../../df/d54/class_deluxe_1_1_deluxe_brand_center_1_1_a_m_m_1_1_a_p_i_1_1_controllers_1_1_user_campaign_controller.html" target="_top" xlink:title="User Campaign Controller.">
<polygon fill="white" stroke="#666666" points="859.5,-44 682.25,-44 682.25,0 859.5,0 859.5,-44"/>
<text text-anchor="start" x="690.25" y="-30.5" font-family="Helvetica,sans-Serif" font-size="10.00">Deluxe.DeluxeBrandCenter.</text>
<text text-anchor="start" x="690.25" y="-18.5" font-family="Helvetica,sans-Serif" font-size="10.00">AMM.API.Controllers.UserCampaign</text>
<text text-anchor="middle" x="770.88" y="-6.5" font-family="Helvetica,sans-Serif" font-size="10.00">Controller</text>
</a>
</g>
</g>
<!-- Node19&#45;&gt;Node20 -->
<g id="edge19_Node000019_Node000020" class="edge">
<title>Node19&#45;&gt;Node20</title>
<g id="a_edge19_Node000019_Node000020"><a xlink:title=" ">
<path fill="none" stroke="#63b8ff" d="M646.49,-22C658.34,-22 670.39,-22 682.08,-22"/>
<polygon fill="#63b8ff" stroke="#63b8ff" points="646.72,-18.5 636.72,-22 646.72,-25.5 646.72,-18.5"/>
</a>
</g>
</g>
</g>
</svg>

<g id="navigator" transform="translate(0 0)" fill="#404254">
  <rect fill="#f2f5e9" fill-opacity="0.5" stroke="#606060" stroke-width=".5" x="0" y="0" width="60" height="60"/>
  <use id="zoomplus" xlink:href="#zoomPlus" x="17" y="9" onmousedown="handleZoom(evt,'in')"/>
  <use id="zoomminus" xlink:href="#zoomMin" x="42" y="9" onmousedown="handleZoom(evt,'out')"/>
  <use id="reset" xlink:href="#resetDef" x="30" y="36" onmousedown="handleReset()"/>
   <use id="arrowup" xlink:href="#arrowUp" x="0" y="0" onmousedown="handlePan(0,-1)"/>
  <use id="arrowright" xlink:href="#arrowRight" x="0" y="0" onmousedown="handlePan(1,0)"/>
  <use id="arrowdown" xlink:href="#arrowDown" x="0" y="0" onmousedown="handlePan(0,1)"/>
  <use id="arrowleft" xlink:href="#arrowLeft" x="0" y="0" onmousedown="handlePan(-1,0)"/>
</g>
<svg viewBox="0 0 15 15" width="100%" height="30px" preserveAspectRatio="xMaxYMin meet">
 <g id="arrow_out" transform="scale(0.3 0.3)">
  <a xlink:href="class_deluxe_1_1_deluxe_brand_center_1_1_a_m_m_1_1_a_p_i_1_1_controllers_1_1_root_controller__inherit__graph_org.svg" target="_base">
   <rect id="button" ry="5" rx="5" y="6" x="6" height="38" width="38"
        fill="#f2f5e9" fill-opacity="0.5" stroke="#606060" stroke-width="1.0"/>
   <path id="arrow"
     d="M 11.500037,31.436501 C 11.940474,20.09759 22.043105,11.32322 32.158766,21.979434 L 37.068811,17.246167 C 37.068811,17.246167 37.088388,32 37.088388,32 L 22.160133,31.978069 C 22.160133,31.978069 26.997745,27.140456 26.997745,27.140456 C 18.528582,18.264221 13.291696,25.230495 11.500037,31.436501 z"
     style="fill:#404040;"/>
  </a>
 </g>
</svg>

<style type='text/css'>
<![CDATA[
[data-mouse-over-selected='false'] { opacity: 0.7; }
[data-mouse-over-selected='true']  { opacity: 1.0; }
]]>
</style>
<script type="application/ecmascript"><![CDATA[
document.addEventListener('DOMContentLoaded', (event) => {
  highlightEdges();
  highlightAdjacentNodes();
});
]]></script>
</svg>
