<?xml version="1.0" encoding="UTF-8" standalone="no"?>
<!DOCTYPE svg PUBLIC "-//W3C//DTD SVG 1.1//EN"
 "http://www.w3.org/Graphics/SVG/1.1/DTD/svg11.dtd">
<!-- Generated by graphviz version 12.1.1 (20240910.0053)
 -->
<!-- Title: Deluxe.DeluxeBrandCenter.AMM.API.Services.CampaignBuilderService.UpdateContentUrls Pages: 1 -->
<svg width="601pt" height="512pt"
 viewBox="0.00 0.00 601.25 512.00" xmlns="http://www.w3.org/2000/svg" xmlns:xlink="http://www.w3.org/1999/xlink">
<g id="graph0" class="graph" transform="scale(1 1) rotate(0) translate(4 508)">
<title>Deluxe.DeluxeBrandCenter.AMM.API.Services.CampaignBuilderService.UpdateContentUrls</title>
<!-- Node1 -->
<g id="Node000001" class="node">
<title>Node1</title>
<g id="a_Node000001"><a xlink:title=" ">
<polygon fill="#999999" stroke="#666666" points="177.25,-256 0,-256 0,-212 177.25,-212 177.25,-256"/>
<text text-anchor="start" x="8" y="-242.5" font-family="Helvetica,sans-Serif" font-size="10.00">Deluxe.DeluxeBrandCenter.</text>
<text text-anchor="start" x="8" y="-230.5" font-family="Helvetica,sans-Serif" font-size="10.00">AMM.API.Services.CampaignBuilder</text>
<text text-anchor="middle" x="88.62" y="-218.5" font-family="Helvetica,sans-Serif" font-size="10.00">Service.UpdateContentUrls</text>
</a>
</g>
</g>
<!-- Node2 -->
<g id="Node000002" class="node">
<title>Node2</title>
<g id="a_Node000002"><a xlink:href="../../df/db6/interface_deluxe_1_1_deluxe_brand_center_1_1_a_m_m_1_1_infrastructure_1_1_a_w_s_1_1_s3_1_1_i_amazon_s3_service.html#a0ee6c8b70a78f81c4a32e432d0ebc982" target="_top" xlink:title=" ">
<polygon fill="white" stroke="#666666" points="396.12,-504 213.62,-504 213.62,-460 396.12,-460 396.12,-504"/>
<text text-anchor="start" x="221.62" y="-490.5" font-family="Helvetica,sans-Serif" font-size="10.00">Deluxe.DeluxeBrandCenter.</text>
<text text-anchor="start" x="221.62" y="-478.5" font-family="Helvetica,sans-Serif" font-size="10.00">AMM.Infrastructure.AWS.S3.IAmazon</text>
<text text-anchor="middle" x="304.88" y="-466.5" font-family="Helvetica,sans-Serif" font-size="10.00">S3Service.DownloadHtmlContent</text>
</a>
</g>
</g>
<!-- Node1&#45;&gt;Node2 -->
<g id="edge1_Node000001_Node000002" class="edge">
<title>Node1&#45;&gt;Node2</title>
<g id="a_edge1_Node000001_Node000002"><a xlink:title=" ">
<path fill="none" stroke="#63b8ff" d="M96.35,-256.25C110.67,-299.91 148.28,-397.24 213.25,-451 214.21,-451.8 215.19,-452.57 216.19,-453.33"/>
<polygon fill="#63b8ff" stroke="#63b8ff" points="214.15,-456.17 224.42,-458.78 218.02,-450.33 214.15,-456.17"/>
</a>
</g>
</g>
<!-- Node3 -->
<g id="Node000003" class="node">
<title>Node3</title>
<g id="a_Node000003"><a xlink:href="../../df/db6/interface_deluxe_1_1_deluxe_brand_center_1_1_a_m_m_1_1_infrastructure_1_1_a_w_s_1_1_s3_1_1_i_amazon_s3_service.html#a83dd3d3be30d946df425e6da19a21f31" target="_top" xlink:title=" ">
<polygon fill="white" stroke="#666666" points="396.12,-442 213.62,-442 213.62,-398 396.12,-398 396.12,-442"/>
<text text-anchor="start" x="221.62" y="-428.5" font-family="Helvetica,sans-Serif" font-size="10.00">Deluxe.DeluxeBrandCenter.</text>
<text text-anchor="start" x="221.62" y="-416.5" font-family="Helvetica,sans-Serif" font-size="10.00">AMM.Infrastructure.AWS.S3.IAmazon</text>
<text text-anchor="middle" x="304.88" y="-404.5" font-family="Helvetica,sans-Serif" font-size="10.00">S3Service.DownloadPreviewTemplate</text>
</a>
</g>
</g>
<!-- Node1&#45;&gt;Node3 -->
<g id="edge2_Node000001_Node000003" class="edge">
<title>Node1&#45;&gt;Node3</title>
<g id="a_edge2_Node000001_Node000003"><a xlink:title=" ">
<path fill="none" stroke="#63b8ff" d="M101.8,-256.32C121.15,-289.8 162.03,-352.93 213.25,-389 214.79,-390.09 216.38,-391.14 217.99,-392.15"/>
<polygon fill="#63b8ff" stroke="#63b8ff" points="215.85,-394.96 226.28,-396.86 219.31,-388.88 215.85,-394.96"/>
</a>
</g>
</g>
<!-- Node4 -->
<g id="Node000004" class="node">
<title>Node4</title>
<g id="a_Node000004"><a xlink:href="../../d6/d65/class_deluxe_1_1_deluxe_brand_center_1_1_a_m_m_1_1_a_p_i_1_1_services_1_1_campaign_builder_service.html#a1d857e00e0d227b56e2b93a3a375fe6c" target="_top" xlink:title=" ">
<polygon fill="white" stroke="#666666" points="393.5,-380 216.25,-380 216.25,-336 393.5,-336 393.5,-380"/>
<text text-anchor="start" x="224.25" y="-366.5" font-family="Helvetica,sans-Serif" font-size="10.00">Deluxe.DeluxeBrandCenter.</text>
<text text-anchor="start" x="224.25" y="-354.5" font-family="Helvetica,sans-Serif" font-size="10.00">AMM.API.Services.CampaignBuilder</text>
<text text-anchor="middle" x="304.88" y="-342.5" font-family="Helvetica,sans-Serif" font-size="10.00">Service.GenerateUrlByProfileId</text>
</a>
</g>
</g>
<!-- Node1&#45;&gt;Node4 -->
<g id="edge3_Node000001_Node000004" class="edge">
<title>Node1&#45;&gt;Node4</title>
<g id="a_edge3_Node000001_Node000004"><a xlink:title=" ">
<path fill="none" stroke="#63b8ff" d="M114.07,-256.11C137.94,-276.75 175.99,-307.26 213.25,-327 215.91,-328.41 218.65,-329.78 221.45,-331.1"/>
<polygon fill="#63b8ff" stroke="#63b8ff" points="219.81,-334.2 230.37,-335.07 222.65,-327.81 219.81,-334.2"/>
</a>
</g>
</g>
<!-- Node5 -->
<g id="Node000005" class="node">
<title>Node5</title>
<g id="a_Node000005"><a xlink:href="../../df/db6/interface_deluxe_1_1_deluxe_brand_center_1_1_a_m_m_1_1_infrastructure_1_1_a_w_s_1_1_s3_1_1_i_amazon_s3_service.html#afc3335f03278900df478e1324f61ea07" target="_top" xlink:title=" ">
<polygon fill="white" stroke="#666666" points="396.12,-318 213.62,-318 213.62,-274 396.12,-274 396.12,-318"/>
<text text-anchor="start" x="221.62" y="-304.5" font-family="Helvetica,sans-Serif" font-size="10.00">Deluxe.DeluxeBrandCenter.</text>
<text text-anchor="start" x="221.62" y="-292.5" font-family="Helvetica,sans-Serif" font-size="10.00">AMM.Infrastructure.AWS.S3.IAmazon</text>
<text text-anchor="middle" x="304.88" y="-280.5" font-family="Helvetica,sans-Serif" font-size="10.00">S3Service.GetS3RootUrl</text>
</a>
</g>
</g>
<!-- Node1&#45;&gt;Node5 -->
<g id="edge4_Node000001_Node000005" class="edge">
<title>Node1&#45;&gt;Node5</title>
<g id="a_edge4_Node000001_Node000005"><a xlink:title=" ">
<path fill="none" stroke="#63b8ff" d="M167.28,-256.47C182.85,-260.98 199.31,-265.74 215.22,-270.35"/>
<polygon fill="#63b8ff" stroke="#63b8ff" points="214.1,-273.66 224.67,-273.08 216.04,-266.94 214.1,-273.66"/>
</a>
</g>
</g>
<!-- Node6 -->
<g id="Node000006" class="node">
<title>Node6</title>
<g id="a_Node000006"><a xlink:href="../../d6/d65/class_deluxe_1_1_deluxe_brand_center_1_1_a_m_m_1_1_a_p_i_1_1_services_1_1_campaign_builder_service.html#adae5961ebe38792ec9c29dfd3b9f0260" target="_top" xlink:title=" ">
<polygon fill="white" stroke="#666666" points="394.25,-256 215.5,-256 215.5,-212 394.25,-212 394.25,-256"/>
<text text-anchor="start" x="223.5" y="-242.5" font-family="Helvetica,sans-Serif" font-size="10.00">Deluxe.DeluxeBrandCenter.</text>
<text text-anchor="start" x="223.5" y="-230.5" font-family="Helvetica,sans-Serif" font-size="10.00">AMM.API.Services.CampaignBuilder</text>
<text text-anchor="middle" x="304.88" y="-218.5" font-family="Helvetica,sans-Serif" font-size="10.00">Service.ParseHtmlForSelectedArticle</text>
</a>
</g>
</g>
<!-- Node1&#45;&gt;Node6 -->
<g id="edge5_Node000001_Node000006" class="edge">
<title>Node1&#45;&gt;Node6</title>
<g id="a_edge5_Node000001_Node000006"><a xlink:title=" ">
<path fill="none" stroke="#63b8ff" d="M177.7,-234C186.28,-234 195.04,-234 203.73,-234"/>
<polygon fill="#63b8ff" stroke="#63b8ff" points="203.59,-237.5 213.59,-234 203.59,-230.5 203.59,-237.5"/>
</a>
</g>
</g>
<!-- Node7 -->
<g id="Node000007" class="node">
<title>Node7</title>
<g id="a_Node000007"><a xlink:href="../../d5/da1/class_deluxe_1_1_deluxe_brand_center_1_1_a_m_m_1_1_domain_1_1_utility_1_1_util.html#af372b5defd8a37284b822c7b0b1a49f7" target="_top" xlink:title=" ">
<polygon fill="white" stroke="#666666" points="593.25,-231 432.5,-231 432.5,-187 593.25,-187 593.25,-231"/>
<text text-anchor="start" x="440.5" y="-217.5" font-family="Helvetica,sans-Serif" font-size="10.00">Deluxe.DeluxeBrandCenter.</text>
<text text-anchor="start" x="440.5" y="-205.5" font-family="Helvetica,sans-Serif" font-size="10.00">AMM.Domain.Utility.Util.Replace</text>
<text text-anchor="middle" x="512.88" y="-193.5" font-family="Helvetica,sans-Serif" font-size="10.00">StageFolder</text>
</a>
</g>
</g>
<!-- Node1&#45;&gt;Node7 -->
<g id="edge7_Node000001_Node000007" class="edge">
<title>Node1&#45;&gt;Node7</title>
<g id="a_edge7_Node000001_Node000007"><a xlink:title=" ">
<path fill="none" stroke="#63b8ff" d="M166.89,-211.54C182.13,-207.99 198.1,-204.87 213.25,-203 282.51,-194.45 361.48,-196.55 420.8,-200.46"/>
<polygon fill="#63b8ff" stroke="#63b8ff" points="420.29,-203.93 430.51,-201.13 420.78,-196.95 420.29,-203.93"/>
</a>
</g>
</g>
<!-- Node8 -->
<g id="Node000008" class="node">
<title>Node8</title>
<g id="a_Node000008"><a xlink:href="../../d6/d65/class_deluxe_1_1_deluxe_brand_center_1_1_a_m_m_1_1_a_p_i_1_1_services_1_1_campaign_builder_service.html#a46e49b30cb8ffc1b0dabd3948e632e9a" target="_top" xlink:title=" ">
<polygon fill="white" stroke="#666666" points="393.5,-156 216.25,-156 216.25,-112 393.5,-112 393.5,-156"/>
<text text-anchor="start" x="224.25" y="-142.5" font-family="Helvetica,sans-Serif" font-size="10.00">Deluxe.DeluxeBrandCenter.</text>
<text text-anchor="start" x="224.25" y="-130.5" font-family="Helvetica,sans-Serif" font-size="10.00">AMM.API.Services.CampaignBuilder</text>
<text text-anchor="middle" x="304.88" y="-118.5" font-family="Helvetica,sans-Serif" font-size="10.00">Service.SetMode</text>
</a>
</g>
</g>
<!-- Node1&#45;&gt;Node8 -->
<g id="edge8_Node000001_Node000008" class="edge">
<title>Node1&#45;&gt;Node8</title>
<g id="a_edge8_Node000001_Node000008"><a xlink:title=" ">
<path fill="none" stroke="#63b8ff" d="M130.33,-211.63C154.2,-198.84 185.1,-182.84 213.25,-170 220.08,-166.88 227.26,-163.77 234.47,-160.75"/>
<polygon fill="#63b8ff" stroke="#63b8ff" points="235.71,-164.02 243.62,-156.97 233.04,-157.55 235.71,-164.02"/>
</a>
</g>
</g>
<!-- Node9 -->
<g id="Node000009" class="node">
<title>Node9</title>
<g id="a_Node000009"><a xlink:href="../../d3/ddb/interface_deluxe_1_1_deluxe_brand_center_1_1_a_m_m_1_1_a_p_i_1_1_services_1_1_i_d_b_service.html#a65b574cf2a33323f24c4657b8b606f68" target="_top" xlink:title=" ">
<polygon fill="white" stroke="#666666" points="396.5,-94 213.25,-94 213.25,-62 396.5,-62 396.5,-94"/>
<text text-anchor="start" x="221.25" y="-80.5" font-family="Helvetica,sans-Serif" font-size="10.00">Deluxe.DeluxeBrandCenter.</text>
<text text-anchor="middle" x="304.88" y="-68.5" font-family="Helvetica,sans-Serif" font-size="10.00">AMM.API.Services.IDBService.Single</text>
</a>
</g>
</g>
<!-- Node1&#45;&gt;Node9 -->
<g id="edge9_Node000001_Node000009" class="edge">
<title>Node1&#45;&gt;Node9</title>
<g id="a_edge9_Node000001_Node000009"><a xlink:title=" ">
<path fill="none" stroke="#63b8ff" d="M104.66,-211.68C125.58,-182.36 166.23,-131.3 213.25,-103 215.55,-101.62 217.93,-100.31 220.37,-99.07"/>
<polygon fill="#63b8ff" stroke="#63b8ff" points="221.65,-102.33 229.3,-94.99 218.75,-95.96 221.65,-102.33"/>
</a>
</g>
</g>
<!-- Node10 -->
<g id="Node000010" class="node">
<title>Node10</title>
<g id="a_Node000010"><a xlink:href="../../df/db6/interface_deluxe_1_1_deluxe_brand_center_1_1_a_m_m_1_1_infrastructure_1_1_a_w_s_1_1_s3_1_1_i_amazon_s3_service.html#a1a5b0cb27a6ab8bb34922f57b0a86d2d" target="_top" xlink:title=" ">
<polygon fill="white" stroke="#666666" points="396.12,-44 213.62,-44 213.62,0 396.12,0 396.12,-44"/>
<text text-anchor="start" x="221.62" y="-30.5" font-family="Helvetica,sans-Serif" font-size="10.00">Deluxe.DeluxeBrandCenter.</text>
<text text-anchor="start" x="221.62" y="-18.5" font-family="Helvetica,sans-Serif" font-size="10.00">AMM.Infrastructure.AWS.S3.IAmazon</text>
<text text-anchor="middle" x="304.88" y="-6.5" font-family="Helvetica,sans-Serif" font-size="10.00">S3Service.UploadHtml</text>
</a>
</g>
</g>
<!-- Node1&#45;&gt;Node10 -->
<g id="edge10_Node000001_Node000010" class="edge">
<title>Node1&#45;&gt;Node10</title>
<g id="a_edge10_Node000001_Node000010"><a xlink:title=" ">
<path fill="none" stroke="#63b8ff" d="M99.11,-211.64C116.34,-173.63 156.32,-96.33 213.25,-53 214.57,-51.99 215.93,-51.02 217.32,-50.07"/>
<polygon fill="#63b8ff" stroke="#63b8ff" points="218.85,-53.24 225.58,-45.05 215.21,-47.26 218.85,-53.24"/>
</a>
</g>
</g>
<!-- Node6&#45;&gt;Node7 -->
<g id="edge6_Node000006_Node000007" class="edge">
<title>Node6&#45;&gt;Node7</title>
<g id="a_edge6_Node000006_Node000007"><a xlink:title=" ">
<path fill="none" stroke="#63b8ff" d="M394.73,-223.22C403.36,-222.17 412.13,-221.1 420.78,-220.05"/>
<polygon fill="#63b8ff" stroke="#63b8ff" points="421.06,-223.55 430.57,-218.87 420.22,-216.6 421.06,-223.55"/>
</a>
</g>
</g>
</g>
</svg>
