<?xml version="1.0" encoding="UTF-8" standalone="no"?>
<!DOCTYPE svg PUBLIC "-//W3C//DTD SVG 1.1//EN"
 "http://www.w3.org/Graphics/SVG/1.1/DTD/svg11.dtd">
<!-- Generated by graphviz version 12.1.1 (20240910.0053)
 -->
<!-- Title: Deluxe.DeluxeBrandCenter.AMM.API.Services.CampaignBuilderService.SetMessageBody Pages: 1 -->
<svg width="830pt" height="238pt"
 viewBox="0.00 0.00 829.50 238.00" xmlns="http://www.w3.org/2000/svg" xmlns:xlink="http://www.w3.org/1999/xlink">
<g id="graph0" class="graph" transform="scale(1 1) rotate(0) translate(4 234)">
<title>Deluxe.DeluxeBrandCenter.AMM.API.Services.CampaignBuilderService.SetMessageBody</title>
<!-- Node1 -->
<g id="Node000001" class="node">
<title>Node1</title>
<g id="a_Node000001"><a xlink:title=" ">
<polygon fill="#999999" stroke="#666666" points="821.5,-168 644.25,-168 644.25,-124 821.5,-124 821.5,-168"/>
<text text-anchor="start" x="652.25" y="-154.5" font-family="Helvetica,sans-Serif" font-size="10.00">Deluxe.DeluxeBrandCenter.</text>
<text text-anchor="start" x="652.25" y="-142.5" font-family="Helvetica,sans-Serif" font-size="10.00">AMM.API.Services.CampaignBuilder</text>
<text text-anchor="middle" x="732.88" y="-130.5" font-family="Helvetica,sans-Serif" font-size="10.00">Service.SetMessageBody</text>
</a>
</g>
</g>
<!-- Node2 -->
<g id="Node000002" class="node">
<title>Node2</title>
<g id="a_Node000002"><a xlink:href="../../d6/d65/class_deluxe_1_1_deluxe_brand_center_1_1_a_m_m_1_1_a_p_i_1_1_services_1_1_campaign_builder_service.html#a7aebfa9e7d0d3f4331ac1194517913cb" target="_top" xlink:title=" ">
<polygon fill="white" stroke="#666666" points="608.25,-196 431,-196 431,-152 608.25,-152 608.25,-196"/>
<text text-anchor="start" x="439" y="-182.5" font-family="Helvetica,sans-Serif" font-size="10.00">Deluxe.DeluxeBrandCenter.</text>
<text text-anchor="start" x="439" y="-170.5" font-family="Helvetica,sans-Serif" font-size="10.00">AMM.API.Services.CampaignBuilder</text>
<text text-anchor="middle" x="519.62" y="-158.5" font-family="Helvetica,sans-Serif" font-size="10.00">Service.MapXMLToSocialElement</text>
</a>
</g>
</g>
<!-- Node1&#45;&gt;Node2 -->
<g id="edge1_Node000001_Node000002" class="edge">
<title>Node1&#45;&gt;Node2</title>
<g id="a_edge1_Node000001_Node000002"><a xlink:title=" ">
<path fill="none" stroke="#63b8ff" d="M632.54,-159.17C624.53,-160.23 616.47,-161.3 608.54,-162.35"/>
<polygon fill="#63b8ff" stroke="#63b8ff" points="632.86,-162.65 642.32,-157.87 631.94,-155.72 632.86,-162.65"/>
</a>
</g>
</g>
<!-- Node6 -->
<g id="Node000006" class="node">
<title>Node6</title>
<g id="a_Node000006"><a xlink:href="../../d6/d65/class_deluxe_1_1_deluxe_brand_center_1_1_a_m_m_1_1_a_p_i_1_1_services_1_1_campaign_builder_service.html#a5cf68d2a0e9c29659835e8bb5032992c" target="_top" xlink:title=" ">
<polygon fill="white" stroke="#666666" points="393.88,-137 216.62,-137 216.62,-93 393.88,-93 393.88,-137"/>
<text text-anchor="start" x="224.62" y="-123.5" font-family="Helvetica,sans-Serif" font-size="10.00">Deluxe.DeluxeBrandCenter.</text>
<text text-anchor="start" x="224.62" y="-111.5" font-family="Helvetica,sans-Serif" font-size="10.00">AMM.API.Services.CampaignBuilder</text>
<text text-anchor="middle" x="305.25" y="-99.5" font-family="Helvetica,sans-Serif" font-size="10.00">Service.SetUserCampaignVM</text>
</a>
</g>
</g>
<!-- Node1&#45;&gt;Node6 -->
<g id="edge5_Node000001_Node000006" class="edge">
<title>Node1&#45;&gt;Node6</title>
<g id="a_edge5_Node000001_Node000006"><a xlink:title=" ">
<path fill="none" stroke="#63b8ff" d="M632.57,-138.77C560.35,-133.51 463.47,-126.45 394.07,-121.4"/>
<polygon fill="#63b8ff" stroke="#63b8ff" points="632.21,-142.25 642.43,-139.49 632.71,-135.27 632.21,-142.25"/>
</a>
</g>
</g>
<!-- Node3 -->
<g id="Node000003" class="node">
<title>Node3</title>
<g id="a_Node000003"><a xlink:href="../../d6/d65/class_deluxe_1_1_deluxe_brand_center_1_1_a_m_m_1_1_a_p_i_1_1_services_1_1_campaign_builder_service.html#ad283235567b856b4e70d91da2bbeca0e" target="_top" xlink:title=" ">
<polygon fill="white" stroke="#666666" points="395,-199 215.5,-199 215.5,-155 395,-155 395,-199"/>
<text text-anchor="start" x="223.5" y="-185.5" font-family="Helvetica,sans-Serif" font-size="10.00">Deluxe.DeluxeBrandCenter.</text>
<text text-anchor="start" x="223.5" y="-173.5" font-family="Helvetica,sans-Serif" font-size="10.00">AMM.API.Services.CampaignBuilder</text>
<text text-anchor="middle" x="305.25" y="-161.5" font-family="Helvetica,sans-Serif" font-size="10.00">Service.MapXMLtoCampaignElement</text>
</a>
</g>
</g>
<!-- Node2&#45;&gt;Node3 -->
<g id="edge2_Node000002_Node000003" class="edge">
<title>Node2&#45;&gt;Node3</title>
<g id="a_edge2_Node000002_Node000003"><a xlink:title=" ">
<path fill="none" stroke="#63b8ff" d="M419.45,-175.4C411.45,-175.51 403.39,-175.63 395.47,-175.74"/>
<polygon fill="#63b8ff" stroke="#63b8ff" points="419.25,-178.9 429.2,-175.26 419.15,-171.9 419.25,-178.9"/>
</a>
</g>
</g>
<!-- Node4 -->
<g id="Node000004" class="node">
<title>Node4</title>
<g id="a_Node000004"><a xlink:href="../../d6/d65/class_deluxe_1_1_deluxe_brand_center_1_1_a_m_m_1_1_a_p_i_1_1_services_1_1_campaign_builder_service.html#a57435ae2fe593aa7ce835a599a8cb799" target="_top" xlink:title=" ">
<polygon fill="white" stroke="#666666" points="178.38,-230 1.12,-230 1.12,-186 178.38,-186 178.38,-230"/>
<text text-anchor="start" x="9.12" y="-216.5" font-family="Helvetica,sans-Serif" font-size="10.00">Deluxe.DeluxeBrandCenter.</text>
<text text-anchor="start" x="9.12" y="-204.5" font-family="Helvetica,sans-Serif" font-size="10.00">AMM.API.Services.CampaignBuilder</text>
<text text-anchor="middle" x="89.75" y="-192.5" font-family="Helvetica,sans-Serif" font-size="10.00">Service.GetCampaign</text>
</a>
</g>
</g>
<!-- Node3&#45;&gt;Node4 -->
<g id="edge3_Node000003_Node000004" class="edge">
<title>Node3&#45;&gt;Node4</title>
<g id="a_edge3_Node000003_Node000004"><a xlink:title=" ">
<path fill="none" stroke="#63b8ff" d="M204.1,-191.54C195.57,-192.78 186.99,-194.03 178.57,-195.25"/>
<polygon fill="#63b8ff" stroke="#63b8ff" points="204.36,-195.04 213.75,-190.14 203.36,-188.11 204.36,-195.04"/>
</a>
</g>
</g>
<!-- Node5 -->
<g id="Node000005" class="node">
<title>Node5</title>
<g id="a_Node000005"><a xlink:href="../../d6/d65/class_deluxe_1_1_deluxe_brand_center_1_1_a_m_m_1_1_a_p_i_1_1_services_1_1_campaign_builder_service.html#a04a2bdc2d02130bbd00f6b00406563d4" target="_top" xlink:title=" ">
<polygon fill="white" stroke="#666666" points="179.5,-168 0,-168 0,-124 179.5,-124 179.5,-168"/>
<text text-anchor="start" x="8" y="-154.5" font-family="Helvetica,sans-Serif" font-size="10.00">Deluxe.DeluxeBrandCenter.</text>
<text text-anchor="start" x="8" y="-142.5" font-family="Helvetica,sans-Serif" font-size="10.00">AMM.API.Services.CampaignBuilder</text>
<text text-anchor="middle" x="89.75" y="-130.5" font-family="Helvetica,sans-Serif" font-size="10.00">Service.UpdateNameAndContentUrls</text>
</a>
</g>
</g>
<!-- Node3&#45;&gt;Node5 -->
<g id="edge4_Node000003_Node000005" class="edge">
<title>Node3&#45;&gt;Node5</title>
<g id="a_edge4_Node000003_Node000005"><a xlink:title=" ">
<path fill="none" stroke="#63b8ff" d="M203.97,-162.44C195.95,-161.27 187.88,-160.1 179.95,-158.95"/>
<polygon fill="#63b8ff" stroke="#63b8ff" points="203.36,-165.89 213.75,-163.86 204.36,-158.96 203.36,-165.89"/>
</a>
</g>
</g>
<!-- Node6&#45;&gt;Node4 -->
<g id="edge6_Node000006_Node000004" class="edge">
<title>Node6&#45;&gt;Node4</title>
<g id="a_edge6_Node000006_Node000004"><a xlink:title=" ">
<path fill="none" stroke="#63b8ff" d="M222.21,-142.34C219.92,-143.52 217.68,-144.74 215.5,-146 197.21,-156.56 197.79,-166.44 179.5,-177 174.13,-180.1 168.4,-182.96 162.53,-185.59"/>
<polygon fill="#63b8ff" stroke="#63b8ff" points="223.61,-145.55 231.11,-138.06 220.58,-139.24 223.61,-145.55"/>
</a>
</g>
</g>
<!-- Node6&#45;&gt;Node5 -->
<g id="edge9_Node000006_Node000005" class="edge">
<title>Node6&#45;&gt;Node5</title>
<g id="a_edge9_Node000006_Node000005"><a xlink:title=" ">
<path fill="none" stroke="#63b8ff" d="M204.9,-129.42C196.59,-130.63 188.23,-131.85 180,-133.04"/>
<polygon fill="#63b8ff" stroke="#63b8ff" points="205.29,-132.91 214.68,-128.01 204.28,-125.98 205.29,-132.91"/>
</a>
</g>
</g>
<!-- Node7 -->
<g id="Node000007" class="node">
<title>Node7</title>
<g id="a_Node000007"><a xlink:href="../../d6/d65/class_deluxe_1_1_deluxe_brand_center_1_1_a_m_m_1_1_a_p_i_1_1_services_1_1_campaign_builder_service.html#a3479067e8c8a3a312a9e39890ebb9a9c" target="_top" xlink:title=" ">
<polygon fill="white" stroke="#666666" points="178.38,-106 1.12,-106 1.12,-62 178.38,-62 178.38,-106"/>
<text text-anchor="start" x="9.12" y="-92.5" font-family="Helvetica,sans-Serif" font-size="10.00">Deluxe.DeluxeBrandCenter.</text>
<text text-anchor="start" x="9.12" y="-80.5" font-family="Helvetica,sans-Serif" font-size="10.00">AMM.API.Services.CampaignBuilder</text>
<text text-anchor="middle" x="89.75" y="-68.5" font-family="Helvetica,sans-Serif" font-size="10.00">Service.GetListForProfile</text>
</a>
</g>
</g>
<!-- Node6&#45;&gt;Node7 -->
<g id="edge7_Node000006_Node000007" class="edge">
<title>Node6&#45;&gt;Node7</title>
<g id="a_edge7_Node000006_Node000007"><a xlink:title=" ">
<path fill="none" stroke="#63b8ff" d="M205.06,-100.6C196.23,-99.32 187.34,-98.02 178.62,-96.76"/>
<polygon fill="#63b8ff" stroke="#63b8ff" points="204.28,-104.02 214.68,-101.99 205.29,-97.09 204.28,-104.02"/>
</a>
</g>
</g>
<!-- Node8 -->
<g id="Node000008" class="node">
<title>Node8</title>
<g id="a_Node000008"><a xlink:href="../../d6/d65/class_deluxe_1_1_deluxe_brand_center_1_1_a_m_m_1_1_a_p_i_1_1_services_1_1_campaign_builder_service.html#a947f982ab93bc77b7199c9aa69ae3628" target="_top" xlink:title=" ">
<polygon fill="white" stroke="#666666" points="178.38,-44 1.12,-44 1.12,0 178.38,0 178.38,-44"/>
<text text-anchor="start" x="9.12" y="-30.5" font-family="Helvetica,sans-Serif" font-size="10.00">Deluxe.DeluxeBrandCenter.</text>
<text text-anchor="start" x="9.12" y="-18.5" font-family="Helvetica,sans-Serif" font-size="10.00">AMM.API.Services.CampaignBuilder</text>
<text text-anchor="middle" x="89.75" y="-6.5" font-family="Helvetica,sans-Serif" font-size="10.00">Service.LaunchCampaign</text>
</a>
</g>
</g>
<!-- Node6&#45;&gt;Node8 -->
<g id="edge8_Node000006_Node000008" class="edge">
<title>Node6&#45;&gt;Node8</title>
<g id="a_edge8_Node000006_Node000008"><a xlink:title=" ">
<path fill="none" stroke="#63b8ff" d="M252.25,-87.33C230.12,-76.04 203.84,-63.25 179.5,-53 172.58,-50.09 165.28,-47.22 157.97,-44.47"/>
<polygon fill="#63b8ff" stroke="#63b8ff" points="250.58,-90.42 261.08,-91.88 253.79,-84.19 250.58,-90.42"/>
</a>
</g>
</g>
</g>
</svg>
