<?xml version="1.0" encoding="UTF-8" standalone="no"?>
<!DOCTYPE svg PUBLIC "-//W3C//DTD SVG 1.1//EN"
 "http://www.w3.org/Graphics/SVG/1.1/DTD/svg11.dtd">
<!-- Generated by graphviz version 12.1.1 (20240910.0053)
 -->
<!-- Title: Deluxe.DeluxeBrandCenter.AMM.API.Services.CampaignBuilderService.MapXMLToSocialElement Pages: 1 -->
<svg width="617pt" height="114pt"
 viewBox="0.00 0.00 617.00 114.00" xmlns="http://www.w3.org/2000/svg" xmlns:xlink="http://www.w3.org/1999/xlink">
<g id="graph0" class="graph" transform="scale(1 1) rotate(0) translate(4 110)">
<title>Deluxe.DeluxeBrandCenter.AMM.API.Services.CampaignBuilderService.MapXMLToSocialElement</title>
<!-- Node1 -->
<g id="Node000001" class="node">
<title>Node1</title>
<g id="a_Node000001"><a xlink:title=" ">
<polygon fill="#999999" stroke="#666666" points="177.25,-81 0,-81 0,-37 177.25,-37 177.25,-81"/>
<text text-anchor="start" x="8" y="-67.5" font-family="Helvetica,sans-Serif" font-size="10.00">Deluxe.DeluxeBrandCenter.</text>
<text text-anchor="start" x="8" y="-55.5" font-family="Helvetica,sans-Serif" font-size="10.00">AMM.API.Services.CampaignBuilder</text>
<text text-anchor="middle" x="88.62" y="-43.5" font-family="Helvetica,sans-Serif" font-size="10.00">Service.MapXMLToSocialElement</text>
</a>
</g>
</g>
<!-- Node2 -->
<g id="Node000002" class="node">
<title>Node2</title>
<g id="a_Node000002"><a xlink:href="../../d5/da1/class_deluxe_1_1_deluxe_brand_center_1_1_a_m_m_1_1_domain_1_1_utility_1_1_util.html#af372b5defd8a37284b822c7b0b1a49f7" target="_top" xlink:title=" ">
<polygon fill="white" stroke="#666666" points="598.12,-106 437.38,-106 437.38,-62 598.12,-62 598.12,-106"/>
<text text-anchor="start" x="445.38" y="-92.5" font-family="Helvetica,sans-Serif" font-size="10.00">Deluxe.DeluxeBrandCenter.</text>
<text text-anchor="start" x="445.38" y="-80.5" font-family="Helvetica,sans-Serif" font-size="10.00">AMM.Domain.Utility.Util.Replace</text>
<text text-anchor="middle" x="517.75" y="-68.5" font-family="Helvetica,sans-Serif" font-size="10.00">StageFolder</text>
</a>
</g>
</g>
<!-- Node1&#45;&gt;Node2 -->
<g id="edge1_Node000001_Node000002" class="edge">
<title>Node1&#45;&gt;Node2</title>
<g id="a_edge1_Node000001_Node000002"><a xlink:title=" ">
<path fill="none" stroke="#63b8ff" d="M177.61,-64.15C250.2,-68.4 352.81,-74.4 426.11,-78.7"/>
<polygon fill="#63b8ff" stroke="#63b8ff" points="425.47,-82.16 435.65,-79.25 425.88,-75.17 425.47,-82.16"/>
</a>
</g>
</g>
<!-- Node3 -->
<g id="Node000003" class="node">
<title>Node3</title>
<g id="a_Node000003"><a xlink:href="../../d6/d65/class_deluxe_1_1_deluxe_brand_center_1_1_a_m_m_1_1_a_p_i_1_1_services_1_1_campaign_builder_service.html#aa547f128337d386d430cdb3079f2d4c3" target="_top" xlink:title=" ">
<polygon fill="white" stroke="#666666" points="390.5,-56 213.25,-56 213.25,-12 390.5,-12 390.5,-56"/>
<text text-anchor="start" x="221.25" y="-42.5" font-family="Helvetica,sans-Serif" font-size="10.00">Deluxe.DeluxeBrandCenter.</text>
<text text-anchor="start" x="221.25" y="-30.5" font-family="Helvetica,sans-Serif" font-size="10.00">AMM.API.Services.CampaignBuilder</text>
<text text-anchor="middle" x="301.88" y="-18.5" font-family="Helvetica,sans-Serif" font-size="10.00">Service.SetMessageBody</text>
</a>
</g>
</g>
<!-- Node1&#45;&gt;Node3 -->
<g id="edge2_Node000001_Node000003" class="edge">
<title>Node1&#45;&gt;Node3</title>
<g id="a_edge2_Node000001_Node000003"><a xlink:title=" ">
<path fill="none" stroke="#63b8ff" d="M177.68,-48.58C185.61,-47.64 193.67,-46.69 201.68,-45.74"/>
<polygon fill="#63b8ff" stroke="#63b8ff" points="201.94,-49.23 211.46,-44.58 201.11,-42.28 201.94,-49.23"/>
</a>
</g>
</g>
<!-- Node3&#45;&gt;Node2 -->
<g id="edge4_Node000003_Node000002" class="edge">
<title>Node3&#45;&gt;Node2</title>
<g id="a_edge4_Node000003_Node000002"><a xlink:title=" ">
<path fill="none" stroke="#63b8ff" d="M390.79,-54.55C402.4,-57.27 414.33,-60.06 425.98,-62.78"/>
<polygon fill="#63b8ff" stroke="#63b8ff" points="425.06,-66.16 435.59,-65.03 426.65,-59.34 425.06,-66.16"/>
</a>
</g>
</g>
<!-- Node4 -->
<g id="Node000004" class="node">
<title>Node4</title>
<g id="a_Node000004"><a xlink:href="../../df/db6/interface_deluxe_1_1_deluxe_brand_center_1_1_a_m_m_1_1_infrastructure_1_1_a_w_s_1_1_s3_1_1_i_amazon_s3_service.html#ad8b9fc7f361abef30885bd62c0cca386" target="_top" xlink:title=" ">
<polygon fill="white" stroke="#666666" points="609,-44 426.5,-44 426.5,0 609,0 609,-44"/>
<text text-anchor="start" x="434.5" y="-30.5" font-family="Helvetica,sans-Serif" font-size="10.00">Deluxe.DeluxeBrandCenter.</text>
<text text-anchor="start" x="434.5" y="-18.5" font-family="Helvetica,sans-Serif" font-size="10.00">AMM.Infrastructure.AWS.S3.IAmazon</text>
<text text-anchor="middle" x="517.75" y="-6.5" font-family="Helvetica,sans-Serif" font-size="10.00">S3Service.DownloadString</text>
</a>
</g>
</g>
<!-- Node3&#45;&gt;Node4 -->
<g id="edge3_Node000003_Node000004" class="edge">
<title>Node3&#45;&gt;Node4</title>
<g id="a_edge3_Node000003_Node000004"><a xlink:title=" ">
<path fill="none" stroke="#63b8ff" d="M390.79,-29.07C398.7,-28.62 406.75,-28.17 414.77,-27.72"/>
<polygon fill="#63b8ff" stroke="#63b8ff" points="414.76,-31.23 424.55,-27.17 414.37,-24.24 414.76,-31.23"/>
</a>
</g>
</g>
</g>
</svg>
