<?xml version="1.0" encoding="UTF-8" standalone="no"?>
<!DOCTYPE svg PUBLIC "-//W3C//DTD SVG 1.1//EN"
 "http://www.w3.org/Graphics/SVG/1.1/DTD/svg11.dtd">
<!-- Generated by graphviz version 12.1.1 (20240910.0053)
 -->
<!-- Title: Deluxe.DeluxeBrandCenter.AMM.API.Services.CampaignBuilderService.MapUserCampaignToXML Pages: 1 -->
<svg width="1105pt" height="910pt"
 viewBox="0.00 0.00 1105.00 910.00" xmlns="http://www.w3.org/2000/svg" xmlns:xlink="http://www.w3.org/1999/xlink">
<g id="graph0" class="graph" transform="scale(1 1) rotate(0) translate(4 906)">
<title>Deluxe.DeluxeBrandCenter.AMM.API.Services.CampaignBuilderService.MapUserCampaignToXML</title>
<!-- Node1 -->
<g id="Node000001" class="node">
<title>Node1</title>
<g id="a_Node000001"><a xlink:title=" ">
<polygon fill="#999999" stroke="#666666" points="177.25,-280 0,-280 0,-236 177.25,-236 177.25,-280"/>
<text text-anchor="start" x="8" y="-266.5" font-family="Helvetica,sans-Serif" font-size="10.00">Deluxe.DeluxeBrandCenter.</text>
<text text-anchor="start" x="8" y="-254.5" font-family="Helvetica,sans-Serif" font-size="10.00">AMM.API.Services.CampaignBuilder</text>
<text text-anchor="middle" x="88.62" y="-242.5" font-family="Helvetica,sans-Serif" font-size="10.00">Service.MapUserCampaignToXML</text>
</a>
</g>
</g>
<!-- Node2 -->
<g id="Node000002" class="node">
<title>Node2</title>
<g id="a_Node000002"><a xlink:href="../../d6/d65/class_deluxe_1_1_deluxe_brand_center_1_1_a_m_m_1_1_a_p_i_1_1_services_1_1_campaign_builder_service.html#a00435debfde767c6070db823007d2077" target="_top" xlink:title=" ">
<polygon fill="white" stroke="#666666" points="393.5,-747 216.25,-747 216.25,-703 393.5,-703 393.5,-747"/>
<text text-anchor="start" x="224.25" y="-733.5" font-family="Helvetica,sans-Serif" font-size="10.00">Deluxe.DeluxeBrandCenter.</text>
<text text-anchor="start" x="224.25" y="-721.5" font-family="Helvetica,sans-Serif" font-size="10.00">AMM.API.Services.CampaignBuilder</text>
<text text-anchor="middle" x="304.88" y="-709.5" font-family="Helvetica,sans-Serif" font-size="10.00">Service.FillRuleGroup</text>
</a>
</g>
</g>
<!-- Node1&#45;&gt;Node2 -->
<g id="edge1_Node000001_Node000002" class="edge">
<title>Node1&#45;&gt;Node2</title>
<g id="a_edge1_Node000001_Node000002"><a xlink:title=" ">
<path fill="none" stroke="#63b8ff" d="M99.81,-280.21C134.46,-355.73 247.84,-602.86 288.88,-692.31"/>
<polygon fill="#63b8ff" stroke="#63b8ff" points="285.64,-693.65 292.99,-701.28 292,-690.73 285.64,-693.65"/>
</a>
</g>
</g>
<!-- Node8 -->
<g id="Node000008" class="node">
<title>Node8</title>
<g id="a_Node000008"><a xlink:href="../../d8/d2a/class_deluxe_1_1_deluxe_brand_center_1_1_a_m_m_1_1_domain_1_1_view_model_1_1_campaign_builder_1_1_comment.html#a4a056a46f74757164c6d2fc2c69a86f0" target="_top" xlink:title=" ">
<polygon fill="white" stroke="#666666" points="857.88,-330 650.62,-330 650.62,-286 857.88,-286 857.88,-330"/>
<text text-anchor="start" x="658.62" y="-316.5" font-family="Helvetica,sans-Serif" font-size="10.00">Deluxe.DeluxeBrandCenter.</text>
<text text-anchor="start" x="658.62" y="-304.5" font-family="Helvetica,sans-Serif" font-size="10.00">AMM.Domain.ViewModel.CampaignBuilder.</text>
<text text-anchor="middle" x="754.25" y="-292.5" font-family="Helvetica,sans-Serif" font-size="10.00">Comment.GetComment</text>
</a>
</g>
</g>
<!-- Node1&#45;&gt;Node8 -->
<g id="edge7_Node000001_Node000008" class="edge">
<title>Node1&#45;&gt;Node8</title>
<g id="a_edge7_Node000001_Node000008"><a xlink:title=" ">
<path fill="none" stroke="#63b8ff" d="M177.75,-256.28C282.31,-255.38 461.71,-257.4 614.25,-277 626.77,-278.61 639.82,-280.81 652.7,-283.3"/>
<polygon fill="#63b8ff" stroke="#63b8ff" points="651.97,-286.72 662.47,-285.26 653.35,-279.86 651.97,-286.72"/>
</a>
</g>
</g>
<!-- Node9 -->
<g id="Node000009" class="node">
<title>Node9</title>
<g id="a_Node000009"><a xlink:href="../../d6/d65/class_deluxe_1_1_deluxe_brand_center_1_1_a_m_m_1_1_a_p_i_1_1_services_1_1_campaign_builder_service.html#a9e215d58437e7593cd45bea7ec806076" target="_top" xlink:title=" ">
<polygon fill="white" stroke="#666666" points="395.75,-423 214,-423 214,-379 395.75,-379 395.75,-423"/>
<text text-anchor="start" x="222" y="-409.5" font-family="Helvetica,sans-Serif" font-size="10.00">Deluxe.DeluxeBrandCenter.</text>
<text text-anchor="start" x="222" y="-397.5" font-family="Helvetica,sans-Serif" font-size="10.00">AMM.API.Services.CampaignBuilder</text>
<text text-anchor="middle" x="304.88" y="-385.5" font-family="Helvetica,sans-Serif" font-size="10.00">Service.MapCampaignElementToXML</text>
</a>
</g>
</g>
<!-- Node1&#45;&gt;Node9 -->
<g id="edge8_Node000001_Node000009" class="edge">
<title>Node1&#45;&gt;Node9</title>
<g id="a_edge8_Node000001_Node000009"><a xlink:title=" ">
<path fill="none" stroke="#63b8ff" d="M123.1,-280.34C160.26,-305.14 220.32,-345.23 260.91,-372.33"/>
<polygon fill="#63b8ff" stroke="#63b8ff" points="258.76,-375.1 269.02,-377.74 262.65,-369.27 258.76,-375.1"/>
</a>
</g>
</g>
<!-- Node26 -->
<g id="Node000026" class="node">
<title>Node26</title>
<g id="a_Node000026"><a xlink:href="../../d6/d65/class_deluxe_1_1_deluxe_brand_center_1_1_a_m_m_1_1_a_p_i_1_1_services_1_1_campaign_builder_service.html#ae755929ed6203a0082c1084f0b72e501" target="_top" xlink:title=" ">
<polygon fill="white" stroke="#666666" points="393.5,-230 216.25,-230 216.25,-186 393.5,-186 393.5,-230"/>
<text text-anchor="start" x="224.25" y="-216.5" font-family="Helvetica,sans-Serif" font-size="10.00">Deluxe.DeluxeBrandCenter.</text>
<text text-anchor="start" x="224.25" y="-204.5" font-family="Helvetica,sans-Serif" font-size="10.00">AMM.API.Services.CampaignBuilder</text>
<text text-anchor="middle" x="304.88" y="-192.5" font-family="Helvetica,sans-Serif" font-size="10.00">Service.SetFilterForLaunch</text>
</a>
</g>
</g>
<!-- Node1&#45;&gt;Node26 -->
<g id="edge34_Node000001_Node000026" class="edge">
<title>Node1&#45;&gt;Node26</title>
<g id="a_edge34_Node000001_Node000026"><a xlink:title=" ">
<path fill="none" stroke="#63b8ff" d="M177.7,-237.45C186.64,-235.36 195.77,-233.23 204.82,-231.12"/>
<polygon fill="#63b8ff" stroke="#63b8ff" points="205.38,-234.58 214.33,-228.9 203.79,-227.76 205.38,-234.58"/>
</a>
</g>
</g>
<!-- Node28 -->
<g id="Node000028" class="node">
<title>Node28</title>
<g id="a_Node000028"><a xlink:href="../../d3/ddb/interface_deluxe_1_1_deluxe_brand_center_1_1_a_m_m_1_1_a_p_i_1_1_services_1_1_i_d_b_service.html#a65b574cf2a33323f24c4657b8b606f68" target="_top" xlink:title=" ">
<polygon fill="white" stroke="#666666" points="396.5,-168 213.25,-168 213.25,-136 396.5,-136 396.5,-168"/>
<text text-anchor="start" x="221.25" y="-154.5" font-family="Helvetica,sans-Serif" font-size="10.00">Deluxe.DeluxeBrandCenter.</text>
<text text-anchor="middle" x="304.88" y="-142.5" font-family="Helvetica,sans-Serif" font-size="10.00">AMM.API.Services.IDBService.Single</text>
</a>
</g>
</g>
<!-- Node1&#45;&gt;Node28 -->
<g id="edge36_Node000001_Node000028" class="edge">
<title>Node1&#45;&gt;Node28</title>
<g id="a_edge36_Node000001_Node000028"><a xlink:title=" ">
<path fill="none" stroke="#63b8ff" d="M118.1,-235.63C142.25,-217.61 178.41,-192.75 213.25,-177 216.96,-175.32 220.81,-173.73 224.74,-172.23"/>
<polygon fill="#63b8ff" stroke="#63b8ff" points="225.61,-175.64 233.84,-168.97 223.25,-169.05 225.61,-175.64"/>
</a>
</g>
</g>
<!-- Node3 -->
<g id="Node000003" class="node">
<title>Node3</title>
<g id="a_Node000003"><a xlink:href="../../d9/daf/interface_deluxe_1_1_deluxe_brand_center_1_1_a_m_m_1_1_a_p_i_1_1_services_1_1_i_user_campaign_service.html#abf4213d8614008f9bff0206be36026c2" target="_top" xlink:title=" ">
<polygon fill="white" stroke="#666666" points="609.38,-840 437.38,-840 437.38,-796 609.38,-796 609.38,-840"/>
<text text-anchor="start" x="445.38" y="-826.5" font-family="Helvetica,sans-Serif" font-size="10.00">Deluxe.DeluxeBrandCenter.</text>
<text text-anchor="start" x="445.38" y="-814.5" font-family="Helvetica,sans-Serif" font-size="10.00">AMM.API.Services.IUserCampaign</text>
<text text-anchor="middle" x="523.38" y="-802.5" font-family="Helvetica,sans-Serif" font-size="10.00">Service.FillAdvisorContentVariables</text>
</a>
</g>
</g>
<!-- Node2&#45;&gt;Node3 -->
<g id="edge2_Node000002_Node000003" class="edge">
<title>Node2&#45;&gt;Node3</title>
<g id="a_edge2_Node000002_Node000003"><a xlink:title=" ">
<path fill="none" stroke="#63b8ff" d="M348.35,-747.43C372.65,-759.84 403.91,-775.12 432.5,-787 436.12,-788.5 439.83,-789.99 443.6,-791.46"/>
<polygon fill="#63b8ff" stroke="#63b8ff" points="442.31,-794.71 452.9,-794.99 444.79,-788.17 442.31,-794.71"/>
</a>
</g>
</g>
<!-- Node4 -->
<g id="Node000004" class="node">
<title>Node4</title>
<g id="a_Node000004"><a xlink:href="../../d3/ddb/interface_deluxe_1_1_deluxe_brand_center_1_1_a_m_m_1_1_a_p_i_1_1_services_1_1_i_d_b_service.html#a91f5506fa72eb65dbb71c189accac9ee" target="_top" xlink:title=" ">
<polygon fill="white" stroke="#666666" points="607.88,-778 438.88,-778 438.88,-734 607.88,-734 607.88,-778"/>
<text text-anchor="start" x="446.88" y="-764.5" font-family="Helvetica,sans-Serif" font-size="10.00">Deluxe.DeluxeBrandCenter.</text>
<text text-anchor="start" x="446.88" y="-752.5" font-family="Helvetica,sans-Serif" font-size="10.00">AMM.API.Services.IDBService.Fill</text>
<text text-anchor="middle" x="523.38" y="-740.5" font-family="Helvetica,sans-Serif" font-size="10.00">HtmlWithPersonalInfo</text>
</a>
</g>
</g>
<!-- Node2&#45;&gt;Node4 -->
<g id="edge3_Node000002_Node000004" class="edge">
<title>Node2&#45;&gt;Node4</title>
<g id="a_edge3_Node000002_Node000004"><a xlink:title=" ">
<path fill="none" stroke="#63b8ff" d="M393.93,-737.61C405,-739.19 416.35,-740.82 427.51,-742.42"/>
<polygon fill="#63b8ff" stroke="#63b8ff" points="426.7,-745.84 437.09,-743.79 427.69,-738.91 426.7,-745.84"/>
</a>
</g>
</g>
<!-- Node5 -->
<g id="Node000005" class="node">
<title>Node5</title>
<g id="a_Node000005"><a xlink:href="../../d5/da1/class_deluxe_1_1_deluxe_brand_center_1_1_a_m_m_1_1_domain_1_1_utility_1_1_util.html#af372b5defd8a37284b822c7b0b1a49f7" target="_top" xlink:title=" ">
<polygon fill="white" stroke="#666666" points="834.62,-454 673.88,-454 673.88,-410 834.62,-410 834.62,-454"/>
<text text-anchor="start" x="681.88" y="-440.5" font-family="Helvetica,sans-Serif" font-size="10.00">Deluxe.DeluxeBrandCenter.</text>
<text text-anchor="start" x="681.88" y="-428.5" font-family="Helvetica,sans-Serif" font-size="10.00">AMM.Domain.Utility.Util.Replace</text>
<text text-anchor="middle" x="754.25" y="-416.5" font-family="Helvetica,sans-Serif" font-size="10.00">StageFolder</text>
</a>
</g>
</g>
<!-- Node2&#45;&gt;Node5 -->
<g id="edge4_Node000002_Node000005" class="edge">
<title>Node2&#45;&gt;Node5</title>
<g id="a_edge4_Node000002_Node000005"><a xlink:title=" ">
<path fill="none" stroke="#63b8ff" d="M345.27,-702.54C369.73,-689.4 402.17,-673.41 432.5,-663 510.55,-636.2 553.71,-681.08 614.25,-625 656.35,-586 616.37,-547.32 650.25,-501 662.15,-484.74 679.12,-471.14 695.86,-460.43"/>
<polygon fill="#63b8ff" stroke="#63b8ff" points="697.64,-463.45 704.36,-455.25 694,-457.47 697.64,-463.45"/>
</a>
</g>
</g>
<!-- Node6 -->
<g id="Node000006" class="node">
<title>Node6</title>
<g id="a_Node000006"><a xlink:href="../../d9/daf/interface_deluxe_1_1_deluxe_brand_center_1_1_a_m_m_1_1_a_p_i_1_1_services_1_1_i_user_campaign_service.html#a28bd0931f2370022d866af7cb1a607d8" target="_top" xlink:title=" ">
<polygon fill="white" stroke="#666666" points="609,-716 437.75,-716 437.75,-672 609,-672 609,-716"/>
<text text-anchor="start" x="445.75" y="-702.5" font-family="Helvetica,sans-Serif" font-size="10.00">Deluxe.DeluxeBrandCenter.</text>
<text text-anchor="start" x="445.75" y="-690.5" font-family="Helvetica,sans-Serif" font-size="10.00">AMM.API.Services.IUserCampaign</text>
<text text-anchor="middle" x="523.38" y="-678.5" font-family="Helvetica,sans-Serif" font-size="10.00">Service.SetContentVariable</text>
</a>
</g>
</g>
<!-- Node2&#45;&gt;Node6 -->
<g id="edge5_Node000002_Node000006" class="edge">
<title>Node2&#45;&gt;Node6</title>
<g id="a_edge5_Node000002_Node000006"><a xlink:title=" ">
<path fill="none" stroke="#63b8ff" d="M393.93,-712.39C404.62,-710.86 415.58,-709.29 426.37,-707.75"/>
<polygon fill="#63b8ff" stroke="#63b8ff" points="426.65,-711.24 436.05,-706.36 425.65,-704.31 426.65,-711.24"/>
</a>
</g>
</g>
<!-- Node7 -->
<g id="Node000007" class="node">
<title>Node7</title>
<g id="a_Node000007"><a xlink:href="../../d6/d65/class_deluxe_1_1_deluxe_brand_center_1_1_a_m_m_1_1_a_p_i_1_1_services_1_1_campaign_builder_service.html#a007d656c76ebba11497fe29e6a8e1388" target="_top" xlink:title=" ">
<polygon fill="white" stroke="#666666" points="612,-902 434.75,-902 434.75,-858 612,-858 612,-902"/>
<text text-anchor="start" x="442.75" y="-888.5" font-family="Helvetica,sans-Serif" font-size="10.00">Deluxe.DeluxeBrandCenter.</text>
<text text-anchor="start" x="442.75" y="-876.5" font-family="Helvetica,sans-Serif" font-size="10.00">AMM.API.Services.CampaignBuilder</text>
<text text-anchor="middle" x="523.38" y="-864.5" font-family="Helvetica,sans-Serif" font-size="10.00">Service.SetStageFolder</text>
</a>
</g>
</g>
<!-- Node2&#45;&gt;Node7 -->
<g id="edge6_Node000002_Node000007" class="edge">
<title>Node2&#45;&gt;Node7</title>
<g id="a_edge6_Node000002_Node000007"><a xlink:title=" ">
<path fill="none" stroke="#63b8ff" d="M323.29,-747.3C345.8,-774.77 387.48,-821.18 432.5,-849 434.4,-850.17 436.34,-851.31 438.33,-852.4"/>
<polygon fill="#63b8ff" stroke="#63b8ff" points="436.68,-855.49 447.18,-856.9 439.85,-849.25 436.68,-855.49"/>
</a>
</g>
</g>
<!-- Node10 -->
<g id="Node000010" class="node">
<title>Node10</title>
<g id="a_Node000010"><a xlink:href="../../d6/d65/class_deluxe_1_1_deluxe_brand_center_1_1_a_m_m_1_1_a_p_i_1_1_services_1_1_campaign_builder_service.html#a7bf3dc8b7c5e0b7a52d4dbdedabc25c0" target="_top" xlink:title=" ">
<polygon fill="white" stroke="#666666" points="612,-330 434.75,-330 434.75,-286 612,-286 612,-330"/>
<text text-anchor="start" x="442.75" y="-316.5" font-family="Helvetica,sans-Serif" font-size="10.00">Deluxe.DeluxeBrandCenter.</text>
<text text-anchor="start" x="442.75" y="-304.5" font-family="Helvetica,sans-Serif" font-size="10.00">AMM.API.Services.CampaignBuilder</text>
<text text-anchor="middle" x="523.38" y="-292.5" font-family="Helvetica,sans-Serif" font-size="10.00">Service.MapBlogElementToXML</text>
</a>
</g>
</g>
<!-- Node9&#45;&gt;Node10 -->
<g id="edge9_Node000009_Node000010" class="edge">
<title>Node9&#45;&gt;Node10</title>
<g id="a_edge9_Node000009_Node000010"><a xlink:title=" ">
<path fill="none" stroke="#63b8ff" d="M348.35,-378.57C372.65,-366.16 403.91,-350.88 432.5,-339 436.12,-337.5 439.83,-336.01 443.6,-334.54"/>
<polygon fill="#63b8ff" stroke="#63b8ff" points="444.79,-337.83 452.9,-331.01 442.31,-331.29 444.79,-337.83"/>
</a>
</g>
</g>
<!-- Node11 -->
<g id="Node000011" class="node">
<title>Node11</title>
<g id="a_Node000011"><a xlink:href="../../d6/d65/class_deluxe_1_1_deluxe_brand_center_1_1_a_m_m_1_1_a_p_i_1_1_services_1_1_campaign_builder_service.html#aee6b3e4594126dfe2b63708b87147bb1" target="_top" xlink:title=" ">
<polygon fill="white" stroke="#666666" points="614.25,-392 432.5,-392 432.5,-348 614.25,-348 614.25,-392"/>
<text text-anchor="start" x="440.5" y="-378.5" font-family="Helvetica,sans-Serif" font-size="10.00">Deluxe.DeluxeBrandCenter.</text>
<text text-anchor="start" x="440.5" y="-366.5" font-family="Helvetica,sans-Serif" font-size="10.00">AMM.API.Services.CampaignBuilder</text>
<text text-anchor="middle" x="523.38" y="-354.5" font-family="Helvetica,sans-Serif" font-size="10.00">Service.MapDirectMailElementToXML</text>
</a>
</g>
</g>
<!-- Node9&#45;&gt;Node11 -->
<g id="edge10_Node000009_Node000011" class="edge">
<title>Node9&#45;&gt;Node11</title>
<g id="a_edge10_Node000009_Node000011"><a xlink:title=" ">
<path fill="none" stroke="#63b8ff" d="M396.12,-388.08C404.34,-386.9 412.7,-385.7 421,-384.52"/>
<polygon fill="#63b8ff" stroke="#63b8ff" points="421.37,-388 430.78,-383.12 420.38,-381.07 421.37,-388"/>
</a>
</g>
</g>
<!-- Node13 -->
<g id="Node000013" class="node">
<title>Node13</title>
<g id="a_Node000013"><a xlink:href="../../d6/d65/class_deluxe_1_1_deluxe_brand_center_1_1_a_m_m_1_1_a_p_i_1_1_services_1_1_campaign_builder_service.html#a586c0501817a5a833896810a9317d00c" target="_top" xlink:title=" ">
<polygon fill="white" stroke="#666666" points="612,-516 434.75,-516 434.75,-472 612,-472 612,-516"/>
<text text-anchor="start" x="442.75" y="-502.5" font-family="Helvetica,sans-Serif" font-size="10.00">Deluxe.DeluxeBrandCenter.</text>
<text text-anchor="start" x="442.75" y="-490.5" font-family="Helvetica,sans-Serif" font-size="10.00">AMM.API.Services.CampaignBuilder</text>
<text text-anchor="middle" x="523.38" y="-478.5" font-family="Helvetica,sans-Serif" font-size="10.00">Service.MapEmailElementToXML</text>
</a>
</g>
</g>
<!-- Node9&#45;&gt;Node13 -->
<g id="edge12_Node000009_Node000013" class="edge">
<title>Node9&#45;&gt;Node13</title>
<g id="a_edge12_Node000009_Node000013"><a xlink:title=" ">
<path fill="none" stroke="#63b8ff" d="M348.35,-423.43C372.65,-435.84 403.91,-451.12 432.5,-463 436.12,-464.5 439.83,-465.99 443.6,-467.46"/>
<polygon fill="#63b8ff" stroke="#63b8ff" points="442.31,-470.71 452.9,-470.99 444.79,-464.17 442.31,-470.71"/>
</a>
</g>
</g>
<!-- Node17 -->
<g id="Node000017" class="node">
<title>Node17</title>
<g id="a_Node000017"><a xlink:href="../../d6/d65/class_deluxe_1_1_deluxe_brand_center_1_1_a_m_m_1_1_a_p_i_1_1_services_1_1_campaign_builder_service.html#add42dd4418158ccde63613d83cc6b7f6" target="_top" xlink:title=" ">
<polygon fill="white" stroke="#666666" points="612,-454 434.75,-454 434.75,-410 612,-410 612,-454"/>
<text text-anchor="start" x="442.75" y="-440.5" font-family="Helvetica,sans-Serif" font-size="10.00">Deluxe.DeluxeBrandCenter.</text>
<text text-anchor="start" x="442.75" y="-428.5" font-family="Helvetica,sans-Serif" font-size="10.00">AMM.API.Services.CampaignBuilder</text>
<text text-anchor="middle" x="523.38" y="-416.5" font-family="Helvetica,sans-Serif" font-size="10.00">Service.MapMicrositeElementToXML</text>
</a>
</g>
</g>
<!-- Node9&#45;&gt;Node17 -->
<g id="edge18_Node000009_Node000017" class="edge">
<title>Node9&#45;&gt;Node17</title>
<g id="a_edge18_Node000009_Node000017"><a xlink:title=" ">
<path fill="none" stroke="#63b8ff" d="M396.12,-413.92C405.02,-415.2 414.07,-416.49 423.05,-417.78"/>
<polygon fill="#63b8ff" stroke="#63b8ff" points="422.46,-421.23 432.86,-419.18 423.46,-414.3 422.46,-421.23"/>
</a>
</g>
</g>
<!-- Node18 -->
<g id="Node000018" class="node">
<title>Node18</title>
<g id="a_Node000018"><a xlink:href="../../d6/d65/class_deluxe_1_1_deluxe_brand_center_1_1_a_m_m_1_1_a_p_i_1_1_services_1_1_campaign_builder_service.html#ae2f681b48d3a471996c14c03a41f153d" target="_top" xlink:title=" ">
<polygon fill="white" stroke="#666666" points="612,-616 434.75,-616 434.75,-572 612,-572 612,-616"/>
<text text-anchor="start" x="442.75" y="-602.5" font-family="Helvetica,sans-Serif" font-size="10.00">Deluxe.DeluxeBrandCenter.</text>
<text text-anchor="start" x="442.75" y="-590.5" font-family="Helvetica,sans-Serif" font-size="10.00">AMM.API.Services.CampaignBuilder</text>
<text text-anchor="middle" x="523.38" y="-578.5" font-family="Helvetica,sans-Serif" font-size="10.00">Service.MapMicrositeSchedules</text>
</a>
</g>
</g>
<!-- Node9&#45;&gt;Node18 -->
<g id="edge20_Node000009_Node000018" class="edge">
<title>Node9&#45;&gt;Node18</title>
<g id="a_edge20_Node000009_Node000018"><a xlink:title=" ">
<path fill="none" stroke="#63b8ff" d="M318.65,-423.28C338.87,-456.75 381.25,-520.12 432.5,-558 436.49,-560.95 440.74,-563.69 445.16,-566.24"/>
<polygon fill="#63b8ff" stroke="#63b8ff" points="443.24,-569.18 453.71,-570.81 446.54,-563.01 443.24,-569.18"/>
</a>
</g>
</g>
<!-- Node19 -->
<g id="Node000019" class="node">
<title>Node19</title>
<g id="a_Node000019"><a xlink:href="../../d6/d65/class_deluxe_1_1_deluxe_brand_center_1_1_a_m_m_1_1_a_p_i_1_1_services_1_1_campaign_builder_service.html#a1ee9d2087d39b6615bb021ac3f84f3f3" target="_top" xlink:title=" ">
<polygon fill="white" stroke="#666666" points="842.88,-616 665.62,-616 665.62,-572 842.88,-572 842.88,-616"/>
<text text-anchor="start" x="673.62" y="-602.5" font-family="Helvetica,sans-Serif" font-size="10.00">Deluxe.DeluxeBrandCenter.</text>
<text text-anchor="start" x="673.62" y="-590.5" font-family="Helvetica,sans-Serif" font-size="10.00">AMM.API.Services.CampaignBuilder</text>
<text text-anchor="middle" x="754.25" y="-578.5" font-family="Helvetica,sans-Serif" font-size="10.00">Service.MapScheduleToXML</text>
</a>
</g>
</g>
<!-- Node9&#45;&gt;Node19 -->
<g id="edge24_Node000009_Node000019" class="edge">
<title>Node9&#45;&gt;Node19</title>
<g id="a_edge24_Node000009_Node000019"><a xlink:title=" ">
<path fill="none" stroke="#63b8ff" d="M321.99,-423.25C343.75,-451.56 385.27,-499.78 432.5,-525 505.29,-563.88 533.59,-545.57 614.25,-563 627.18,-565.79 640.78,-568.77 654.21,-571.74"/>
<polygon fill="#63b8ff" stroke="#63b8ff" points="653.42,-575.15 663.94,-573.9 654.94,-568.32 653.42,-575.15"/>
</a>
</g>
</g>
<!-- Node20 -->
<g id="Node000020" class="node">
<title>Node20</title>
<g id="a_Node000020"><a xlink:href="../../d6/d65/class_deluxe_1_1_deluxe_brand_center_1_1_a_m_m_1_1_a_p_i_1_1_services_1_1_campaign_builder_service.html#af750674ed0f54f17fe4e2987ff7c0a63" target="_top" xlink:title=" ">
<polygon fill="white" stroke="#666666" points="612,-230 434.75,-230 434.75,-186 612,-186 612,-230"/>
<text text-anchor="start" x="442.75" y="-216.5" font-family="Helvetica,sans-Serif" font-size="10.00">Deluxe.DeluxeBrandCenter.</text>
<text text-anchor="start" x="442.75" y="-204.5" font-family="Helvetica,sans-Serif" font-size="10.00">AMM.API.Services.CampaignBuilder</text>
<text text-anchor="middle" x="523.38" y="-192.5" font-family="Helvetica,sans-Serif" font-size="10.00">Service.MapSocialElementToXML</text>
</a>
</g>
</g>
<!-- Node9&#45;&gt;Node20 -->
<g id="edge25_Node000009_Node000020" class="edge">
<title>Node9&#45;&gt;Node20</title>
<g id="a_edge25_Node000009_Node000020"><a xlink:title=" ">
<path fill="none" stroke="#63b8ff" d="M327.08,-378.67C351.63,-353.19 393.69,-310.68 432.5,-277 448.27,-263.31 466.42,-249.11 482.26,-237.17"/>
<polygon fill="#63b8ff" stroke="#63b8ff" points="484.16,-240.13 490.07,-231.34 479.97,-234.52 484.16,-240.13"/>
</a>
</g>
</g>
<!-- Node12 -->
<g id="Node000012" class="node">
<title>Node12</title>
<g id="a_Node000012"><a xlink:href="../../d9/daf/interface_deluxe_1_1_deluxe_brand_center_1_1_a_m_m_1_1_a_p_i_1_1_services_1_1_i_user_campaign_service.html#a6348293f8e92808fd02c4b807f6122e1" target="_top" xlink:title=" ">
<polygon fill="white" stroke="#666666" points="858.25,-392 650.25,-392 650.25,-348 858.25,-348 858.25,-392"/>
<text text-anchor="start" x="658.25" y="-378.5" font-family="Helvetica,sans-Serif" font-size="10.00">Deluxe.DeluxeBrandCenter.</text>
<text text-anchor="start" x="658.25" y="-366.5" font-family="Helvetica,sans-Serif" font-size="10.00">AMM.API.Services.IUserCampaign</text>
<text text-anchor="middle" x="754.25" y="-354.5" font-family="Helvetica,sans-Serif" font-size="10.00">Service.NormalizeDMVariablesAndColumns</text>
</a>
</g>
</g>
<!-- Node11&#45;&gt;Node12 -->
<g id="edge11_Node000011_Node000012" class="edge">
<title>Node11&#45;&gt;Node12</title>
<g id="a_edge11_Node000011_Node000012"><a xlink:title=" ">
<path fill="none" stroke="#63b8ff" d="M614.5,-370C622.41,-370 630.48,-370 638.55,-370"/>
<polygon fill="#63b8ff" stroke="#63b8ff" points="638.43,-373.5 648.43,-370 638.43,-366.5 638.43,-373.5"/>
</a>
</g>
</g>
<!-- Node13&#45;&gt;Node5 -->
<g id="edge16_Node000013_Node000005" class="edge">
<title>Node13&#45;&gt;Node5</title>
<g id="a_edge16_Node000013_Node000005"><a xlink:title=" ">
<path fill="none" stroke="#63b8ff" d="M607.33,-471.53C625.32,-466.66 644.43,-461.48 662.7,-456.53"/>
<polygon fill="#63b8ff" stroke="#63b8ff" points="663.44,-459.96 672.18,-453.96 661.61,-453.2 663.44,-459.96"/>
</a>
</g>
</g>
<!-- Node13&#45;&gt;Node8 -->
<g id="edge13_Node000013_Node000008" class="edge">
<title>Node13&#45;&gt;Node8</title>
<g id="a_edge13_Node000013_Node000008"><a xlink:title=" ">
<path fill="none" stroke="#63b8ff" d="M604.09,-471.71C607.75,-469.12 611.18,-466.23 614.25,-463 653.81,-421.43 609.87,-379.78 650.25,-339 650.74,-338.5 651.24,-338.01 651.75,-337.53"/>
<polygon fill="#63b8ff" stroke="#63b8ff" points="653.82,-340.36 659.39,-331.34 649.42,-334.92 653.82,-340.36"/>
</a>
</g>
</g>
<!-- Node14 -->
<g id="Node000014" class="node">
<title>Node14</title>
<g id="a_Node000014"><a xlink:href="../../d6/d65/class_deluxe_1_1_deluxe_brand_center_1_1_a_m_m_1_1_a_p_i_1_1_services_1_1_campaign_builder_service.html#ab0ce675d934f0f825b75314cbe119c15" target="_top" xlink:title=" ">
<polygon fill="white" stroke="#666666" points="842.88,-554 665.62,-554 665.62,-510 842.88,-510 842.88,-554"/>
<text text-anchor="start" x="673.62" y="-540.5" font-family="Helvetica,sans-Serif" font-size="10.00">Deluxe.DeluxeBrandCenter.</text>
<text text-anchor="start" x="673.62" y="-528.5" font-family="Helvetica,sans-Serif" font-size="10.00">AMM.API.Services.CampaignBuilder</text>
<text text-anchor="middle" x="754.25" y="-516.5" font-family="Helvetica,sans-Serif" font-size="10.00">Service.GetFromEmailAddress</text>
</a>
</g>
</g>
<!-- Node13&#45;&gt;Node14 -->
<g id="edge14_Node000013_Node000014" class="edge">
<title>Node13&#45;&gt;Node14</title>
<g id="a_edge14_Node000013_Node000014"><a xlink:title=" ">
<path fill="none" stroke="#63b8ff" d="M612.21,-508.58C625.94,-510.86 640.2,-513.23 654.16,-515.55"/>
<polygon fill="#63b8ff" stroke="#63b8ff" points="653.34,-518.96 663.78,-517.15 654.49,-512.05 653.34,-518.96"/>
</a>
</g>
</g>
<!-- Node16 -->
<g id="Node000016" class="node">
<title>Node16</title>
<g id="a_Node000016"><a xlink:href="../../db/dc5/interface_deluxe_1_1_deluxe_brand_center_1_1_a_m_m_1_1_a_p_i_1_1_services_1_1_i_persona_service.html#a04d89250da1b31cb913d3005ffb1f6f7" target="_top" xlink:title=" ">
<polygon fill="white" stroke="#666666" points="1084.62,-504 906.62,-504 906.62,-460 1084.62,-460 1084.62,-504"/>
<text text-anchor="start" x="914.62" y="-490.5" font-family="Helvetica,sans-Serif" font-size="10.00">Deluxe.DeluxeBrandCenter.</text>
<text text-anchor="start" x="914.62" y="-478.5" font-family="Helvetica,sans-Serif" font-size="10.00">AMM.API.Services.IPersonaService.</text>
<text text-anchor="middle" x="995.62" y="-466.5" font-family="Helvetica,sans-Serif" font-size="10.00">Single</text>
</a>
</g>
</g>
<!-- Node13&#45;&gt;Node16 -->
<g id="edge17_Node000013_Node000016" class="edge">
<title>Node13&#45;&gt;Node16</title>
<g id="a_edge17_Node000013_Node000016"><a xlink:title=" ">
<path fill="none" stroke="#63b8ff" d="M612.27,-491.76C692.59,-489.71 811.25,-486.68 895.03,-484.54"/>
<polygon fill="#63b8ff" stroke="#63b8ff" points="894.94,-488.05 904.85,-484.29 894.76,-481.05 894.94,-488.05"/>
</a>
</g>
</g>
<!-- Node15 -->
<g id="Node000015" class="node">
<title>Node15</title>
<g id="a_Node000015"><a xlink:href="../../d3/d8e/interface_deluxe_1_1_deluxe_brand_center_1_1_a_m_m_1_1_a_p_i_1_1_services_1_1_i_settings_service.html#ae7e408d07e4c31ff8cee83f391ceaa73" target="_top" xlink:title=" ">
<polygon fill="white" stroke="#666666" points="1084.62,-591 906.62,-591 906.62,-547 1084.62,-547 1084.62,-591"/>
<text text-anchor="start" x="914.62" y="-577.5" font-family="Helvetica,sans-Serif" font-size="10.00">Deluxe.DeluxeBrandCenter.</text>
<text text-anchor="start" x="914.62" y="-565.5" font-family="Helvetica,sans-Serif" font-size="10.00">AMM.API.Services.ISettingsService.</text>
<text text-anchor="middle" x="995.62" y="-553.5" font-family="Helvetica,sans-Serif" font-size="10.00">SingleByName</text>
</a>
</g>
</g>
<!-- Node14&#45;&gt;Node15 -->
<g id="edge15_Node000014_Node000015" class="edge">
<title>Node14&#45;&gt;Node15</title>
<g id="a_edge15_Node000014_Node000015"><a xlink:title=" ">
<path fill="none" stroke="#63b8ff" d="M843.36,-545.62C860.21,-548.22 877.94,-550.96 895.11,-553.62"/>
<polygon fill="#63b8ff" stroke="#63b8ff" points="894.38,-557.05 904.8,-555.12 895.45,-550.13 894.38,-557.05"/>
</a>
</g>
</g>
<!-- Node17&#45;&gt;Node5 -->
<g id="edge19_Node000017_Node000005" class="edge">
<title>Node17&#45;&gt;Node5</title>
<g id="a_edge19_Node000017_Node000005"><a xlink:title=" ">
<path fill="none" stroke="#63b8ff" d="M612.21,-432C628.6,-432 645.76,-432 662.24,-432"/>
<polygon fill="#63b8ff" stroke="#63b8ff" points="662.01,-435.5 672.01,-432 662.01,-428.5 662.01,-435.5"/>
</a>
</g>
</g>
<!-- Node18&#45;&gt;Node19 -->
<g id="edge21_Node000018_Node000019" class="edge">
<title>Node18&#45;&gt;Node19</title>
<g id="a_edge21_Node000018_Node000019"><a xlink:title=" ">
<path fill="none" stroke="#63b8ff" d="M612.21,-594C625.94,-594 640.2,-594 654.16,-594"/>
<polygon fill="#63b8ff" stroke="#63b8ff" points="653.76,-597.5 663.76,-594 653.76,-590.5 653.76,-597.5"/>
</a>
</g>
</g>
<!-- Node19&#45;&gt;Node15 -->
<g id="edge23_Node000019_Node000015" class="edge">
<title>Node19&#45;&gt;Node15</title>
<g id="a_edge23_Node000019_Node000015"><a xlink:title=" ">
<path fill="none" stroke="#63b8ff" d="M843.36,-584.8C860.21,-583.04 877.94,-581.19 895.11,-579.39"/>
<polygon fill="#63b8ff" stroke="#63b8ff" points="895.21,-582.9 904.79,-578.38 894.48,-575.94 895.21,-582.9"/>
</a>
</g>
</g>
<!-- Node19&#45;&gt;Node16 -->
<g id="edge22_Node000019_Node000016" class="edge">
<title>Node19&#45;&gt;Node16</title>
<g id="a_edge22_Node000019_Node000016"><a xlink:title=" ">
<path fill="none" stroke="#63b8ff" d="M838.21,-571.56C845.1,-568.94 851.86,-566.08 858.25,-563 875.79,-554.53 877.72,-548.31 894.25,-538 909.66,-528.38 926.81,-518.52 942.51,-509.81"/>
<polygon fill="#63b8ff" stroke="#63b8ff" points="944.19,-512.88 951.26,-504.99 940.81,-506.75 944.19,-512.88"/>
</a>
</g>
</g>
<!-- Node20&#45;&gt;Node5 -->
<g id="edge31_Node000020_Node000005" class="edge">
<title>Node20&#45;&gt;Node5</title>
<g id="a_edge31_Node000020_Node000005"><a xlink:title=" ">
<path fill="none" stroke="#63b8ff" d="M564.07,-230.43C581.72,-242.22 601.38,-258.16 614.25,-277 646.62,-324.39 609.87,-360.22 650.25,-401 654.29,-405.08 658.85,-408.63 663.75,-411.72"/>
<polygon fill="#63b8ff" stroke="#63b8ff" points="661.75,-414.61 672.19,-416.37 665.12,-408.48 661.75,-414.61"/>
</a>
</g>
</g>
<!-- Node20&#45;&gt;Node8 -->
<g id="edge29_Node000020_Node000008" class="edge">
<title>Node20&#45;&gt;Node8</title>
<g id="a_edge29_Node000020_Node000008"><a xlink:title=" ">
<path fill="none" stroke="#63b8ff" d="M586.85,-230.38C596.24,-234.49 605.65,-239.06 614.25,-244 631.83,-254.09 632.45,-262.31 650.25,-272 656.31,-275.3 662.73,-278.39 669.28,-281.26"/>
<polygon fill="#63b8ff" stroke="#63b8ff" points="667.69,-284.39 678.27,-285.01 670.39,-277.93 667.69,-284.39"/>
</a>
</g>
</g>
<!-- Node20&#45;&gt;Node16 -->
<g id="edge32_Node000020_Node000016" class="edge">
<title>Node20&#45;&gt;Node16</title>
<g id="a_edge32_Node000020_Node000016"><a xlink:title=" ">
<path fill="none" stroke="#63b8ff" d="M612.25,-230.36C624.97,-233.39 637.93,-236.36 650.25,-239 742.14,-258.69 779.76,-225.32 858.25,-277 922.24,-319.13 963.47,-402.74 982.45,-449.11"/>
<polygon fill="#63b8ff" stroke="#63b8ff" points="979.18,-450.37 986.13,-458.37 985.69,-447.78 979.18,-450.37"/>
</a>
</g>
</g>
<!-- Node21 -->
<g id="Node000021" class="node">
<title>Node21</title>
<g id="a_Node000021"><a xlink:href="../../df/db6/interface_deluxe_1_1_deluxe_brand_center_1_1_a_m_m_1_1_infrastructure_1_1_a_w_s_1_1_s3_1_1_i_amazon_s3_service.html#ad8b9fc7f361abef30885bd62c0cca386" target="_top" xlink:title=" ">
<polygon fill="white" stroke="#666666" points="845.5,-168 663,-168 663,-124 845.5,-124 845.5,-168"/>
<text text-anchor="start" x="671" y="-154.5" font-family="Helvetica,sans-Serif" font-size="10.00">Deluxe.DeluxeBrandCenter.</text>
<text text-anchor="start" x="671" y="-142.5" font-family="Helvetica,sans-Serif" font-size="10.00">AMM.Infrastructure.AWS.S3.IAmazon</text>
<text text-anchor="middle" x="754.25" y="-130.5" font-family="Helvetica,sans-Serif" font-size="10.00">S3Service.DownloadString</text>
</a>
</g>
</g>
<!-- Node20&#45;&gt;Node21 -->
<g id="edge26_Node000020_Node000021" class="edge">
<title>Node20&#45;&gt;Node21</title>
<g id="a_edge26_Node000020_Node000021"><a xlink:title=" ">
<path fill="none" stroke="#63b8ff" d="M607.33,-185.53C624.28,-180.94 642.23,-176.07 659.53,-171.39"/>
<polygon fill="#63b8ff" stroke="#63b8ff" points="660,-174.89 668.74,-168.89 658.17,-168.13 660,-174.89"/>
</a>
</g>
</g>
<!-- Node22 -->
<g id="Node000022" class="node">
<title>Node22</title>
<g id="a_Node000022"><a xlink:href="../../d4/df2/class_deluxe_1_1_deluxe_brand_center_1_1_a_m_m_1_1_domain_1_1_view_model_1_1_sharing_request.html#ab077ddead710cc2bf081ae560e4e3ee9" target="_top" xlink:title=" ">
<polygon fill="white" stroke="#666666" points="855.62,-44 652.88,-44 652.88,0 855.62,0 855.62,-44"/>
<text text-anchor="start" x="660.88" y="-30.5" font-family="Helvetica,sans-Serif" font-size="10.00">Deluxe.DeluxeBrandCenter.</text>
<text text-anchor="start" x="660.88" y="-18.5" font-family="Helvetica,sans-Serif" font-size="10.00">AMM.Domain.ViewModel.SharingRequest.</text>
<text text-anchor="middle" x="754.25" y="-6.5" font-family="Helvetica,sans-Serif" font-size="10.00">GenerateSharingRequest</text>
</a>
</g>
</g>
<!-- Node20&#45;&gt;Node22 -->
<g id="edge27_Node000020_Node000022" class="edge">
<title>Node20&#45;&gt;Node22</title>
<g id="a_edge27_Node000020_Node000022"><a xlink:title=" ">
<path fill="none" stroke="#63b8ff" d="M604.09,-185.71C607.75,-183.12 611.18,-180.23 614.25,-177 653.81,-135.43 609.87,-93.78 650.25,-53 650.74,-52.5 651.24,-52.01 651.75,-51.53"/>
<polygon fill="#63b8ff" stroke="#63b8ff" points="653.82,-54.36 659.39,-45.34 649.42,-48.92 653.82,-54.36"/>
</a>
</g>
</g>
<!-- Node24 -->
<g id="Node000024" class="node">
<title>Node24</title>
<g id="a_Node000024"><a xlink:href="../../df/db6/interface_deluxe_1_1_deluxe_brand_center_1_1_a_m_m_1_1_infrastructure_1_1_a_w_s_1_1_s3_1_1_i_amazon_s3_service.html#afc3335f03278900df478e1324f61ea07" target="_top" xlink:title=" ">
<polygon fill="white" stroke="#666666" points="845.5,-106 663,-106 663,-62 845.5,-62 845.5,-106"/>
<text text-anchor="start" x="671" y="-92.5" font-family="Helvetica,sans-Serif" font-size="10.00">Deluxe.DeluxeBrandCenter.</text>
<text text-anchor="start" x="671" y="-80.5" font-family="Helvetica,sans-Serif" font-size="10.00">AMM.Infrastructure.AWS.S3.IAmazon</text>
<text text-anchor="middle" x="754.25" y="-68.5" font-family="Helvetica,sans-Serif" font-size="10.00">S3Service.GetS3RootUrl</text>
</a>
</g>
</g>
<!-- Node20&#45;&gt;Node24 -->
<g id="edge30_Node000020_Node000024" class="edge">
<title>Node20&#45;&gt;Node24</title>
<g id="a_edge30_Node000020_Node000024"><a xlink:title=" ">
<path fill="none" stroke="#63b8ff" d="M601.9,-185.53C606.26,-182.98 610.43,-180.15 614.25,-177 638.86,-156.76 625.25,-134.75 650.25,-115 651.4,-114.09 652.58,-113.2 653.79,-112.34"/>
<polygon fill="#63b8ff" stroke="#63b8ff" points="655.57,-115.36 662.16,-107.06 651.84,-109.44 655.57,-115.36"/>
</a>
</g>
</g>
<!-- Node25 -->
<g id="Node000025" class="node">
<title>Node25</title>
<g id="a_Node000025"><a xlink:href="../../df/db6/interface_deluxe_1_1_deluxe_brand_center_1_1_a_m_m_1_1_infrastructure_1_1_a_w_s_1_1_s3_1_1_i_amazon_s3_service.html#a959eac40ddb2914db1fa1d64fdbcc511" target="_top" xlink:title=" ">
<polygon fill="white" stroke="#666666" points="845.5,-230 663,-230 663,-186 845.5,-186 845.5,-230"/>
<text text-anchor="start" x="671" y="-216.5" font-family="Helvetica,sans-Serif" font-size="10.00">Deluxe.DeluxeBrandCenter.</text>
<text text-anchor="start" x="671" y="-204.5" font-family="Helvetica,sans-Serif" font-size="10.00">AMM.Infrastructure.AWS.S3.IAmazon</text>
<text text-anchor="middle" x="754.25" y="-192.5" font-family="Helvetica,sans-Serif" font-size="10.00">S3Service.UploadText</text>
</a>
</g>
</g>
<!-- Node20&#45;&gt;Node25 -->
<g id="edge33_Node000020_Node000025" class="edge">
<title>Node20&#45;&gt;Node25</title>
<g id="a_edge33_Node000020_Node000025"><a xlink:title=" ">
<path fill="none" stroke="#63b8ff" d="M612.21,-208C624.98,-208 638.22,-208 651.25,-208"/>
<polygon fill="#63b8ff" stroke="#63b8ff" points="651.1,-211.5 661.1,-208 651.1,-204.5 651.1,-211.5"/>
</a>
</g>
</g>
<!-- Node23 -->
<g id="Node000023" class="node">
<title>Node23</title>
<g id="a_Node000023"><a xlink:href="../../d4/df2/class_deluxe_1_1_deluxe_brand_center_1_1_a_m_m_1_1_domain_1_1_view_model_1_1_sharing_request.html#ac72d5a6104e6e33b42a67ea339621fbc" target="_top" xlink:title=" ">
<polygon fill="white" stroke="#666666" points="1097,-44 894.25,-44 894.25,0 1097,0 1097,-44"/>
<text text-anchor="start" x="902.25" y="-30.5" font-family="Helvetica,sans-Serif" font-size="10.00">Deluxe.DeluxeBrandCenter.</text>
<text text-anchor="start" x="902.25" y="-18.5" font-family="Helvetica,sans-Serif" font-size="10.00">AMM.Domain.ViewModel.SharingRequest.</text>
<text text-anchor="middle" x="995.62" y="-6.5" font-family="Helvetica,sans-Serif" font-size="10.00">SharingRequest</text>
</a>
</g>
</g>
<!-- Node22&#45;&gt;Node23 -->
<g id="edge28_Node000022_Node000023" class="edge">
<title>Node22&#45;&gt;Node23</title>
<g id="a_edge28_Node000022_Node000023"><a xlink:title=" ">
<path fill="none" stroke="#63b8ff" d="M856.07,-22C864.78,-22 873.62,-22 882.41,-22"/>
<polygon fill="#63b8ff" stroke="#63b8ff" points="882.41,-25.5 892.41,-22 882.41,-18.5 882.41,-25.5"/>
</a>
</g>
</g>
<!-- Node27 -->
<g id="Node000027" class="node">
<title>Node27</title>
<g id="a_Node000027"><a xlink:href="../../d6/d65/class_deluxe_1_1_deluxe_brand_center_1_1_a_m_m_1_1_a_p_i_1_1_services_1_1_campaign_builder_service.html#a1c0e75d44a431c4a172d79c871a728db" target="_top" xlink:title=" ">
<polygon fill="white" stroke="#666666" points="612,-168 434.75,-168 434.75,-124 612,-124 612,-168"/>
<text text-anchor="start" x="442.75" y="-154.5" font-family="Helvetica,sans-Serif" font-size="10.00">Deluxe.DeluxeBrandCenter.</text>
<text text-anchor="start" x="442.75" y="-142.5" font-family="Helvetica,sans-Serif" font-size="10.00">AMM.API.Services.CampaignBuilder</text>
<text text-anchor="middle" x="523.38" y="-130.5" font-family="Helvetica,sans-Serif" font-size="10.00">Service.checkParentheses</text>
</a>
</g>
</g>
<!-- Node26&#45;&gt;Node27 -->
<g id="edge35_Node000026_Node000027" class="edge">
<title>Node26&#45;&gt;Node27</title>
<g id="a_edge35_Node000026_Node000027"><a xlink:title=" ">
<path fill="none" stroke="#63b8ff" d="M384.34,-185.53C400.07,-181.02 416.72,-176.26 432.79,-171.65"/>
<polygon fill="#63b8ff" stroke="#63b8ff" points="433.71,-175.03 442.36,-168.92 431.78,-168.3 433.71,-175.03"/>
</a>
</g>
</g>
</g>
</svg>
