<?xml version="1.0" encoding="UTF-8" standalone="no"?>
<!DOCTYPE svg PUBLIC "-//W3C//DTD SVG 1.1//EN"
 "http://www.w3.org/Graphics/SVG/1.1/DTD/svg11.dtd">
<!-- Generated by graphviz version 12.1.1 (20240910.0053)
 -->
<!-- Title: Deluxe.DeluxeBrandCenter.AMM.API.Services.CampaignBuilderService.MapEmailElementToXML Pages: 1 -->
<svg width="643pt" height="238pt"
 viewBox="0.00 0.00 642.50 238.00" xmlns="http://www.w3.org/2000/svg" xmlns:xlink="http://www.w3.org/1999/xlink">
<g id="graph0" class="graph" transform="scale(1 1) rotate(0) translate(4 234)">
<title>Deluxe.DeluxeBrandCenter.AMM.API.Services.CampaignBuilderService.MapEmailElementToXML</title>
<!-- Node1 -->
<g id="Node000001" class="node">
<title>Node1</title>
<g id="a_Node000001"><a xlink:title=" ">
<polygon fill="#999999" stroke="#666666" points="177.25,-137 0,-137 0,-93 177.25,-93 177.25,-137"/>
<text text-anchor="start" x="8" y="-123.5" font-family="Helvetica,sans-Serif" font-size="10.00">Deluxe.DeluxeBrandCenter.</text>
<text text-anchor="start" x="8" y="-111.5" font-family="Helvetica,sans-Serif" font-size="10.00">AMM.API.Services.CampaignBuilder</text>
<text text-anchor="middle" x="88.62" y="-99.5" font-family="Helvetica,sans-Serif" font-size="10.00">Service.MapEmailElementToXML</text>
</a>
</g>
</g>
<!-- Node2 -->
<g id="Node000002" class="node">
<title>Node2</title>
<g id="a_Node000002"><a xlink:href="../../d8/d2a/class_deluxe_1_1_deluxe_brand_center_1_1_a_m_m_1_1_domain_1_1_view_model_1_1_campaign_builder_1_1_comment.html#a4a056a46f74757164c6d2fc2c69a86f0" target="_top" xlink:title=" ">
<polygon fill="white" stroke="#666666" points="420.5,-230 213.25,-230 213.25,-186 420.5,-186 420.5,-230"/>
<text text-anchor="start" x="221.25" y="-216.5" font-family="Helvetica,sans-Serif" font-size="10.00">Deluxe.DeluxeBrandCenter.</text>
<text text-anchor="start" x="221.25" y="-204.5" font-family="Helvetica,sans-Serif" font-size="10.00">AMM.Domain.ViewModel.CampaignBuilder.</text>
<text text-anchor="middle" x="316.88" y="-192.5" font-family="Helvetica,sans-Serif" font-size="10.00">Comment.GetComment</text>
</a>
</g>
</g>
<!-- Node1&#45;&gt;Node2 -->
<g id="edge1_Node000001_Node000002" class="edge">
<title>Node1&#45;&gt;Node2</title>
<g id="a_edge1_Node000001_Node000002"><a xlink:title=" ">
<path fill="none" stroke="#63b8ff" d="M130.02,-137.47C153.79,-150.13 184.7,-165.63 213.25,-177 217.36,-178.64 221.6,-180.24 225.9,-181.8"/>
<polygon fill="#63b8ff" stroke="#63b8ff" points="224.66,-185.07 235.25,-185.07 226.97,-178.47 224.66,-185.07"/>
</a>
</g>
</g>
<!-- Node3 -->
<g id="Node000003" class="node">
<title>Node3</title>
<g id="a_Node000003"><a xlink:href="../../d6/d65/class_deluxe_1_1_deluxe_brand_center_1_1_a_m_m_1_1_a_p_i_1_1_services_1_1_campaign_builder_service.html#ab0ce675d934f0f825b75314cbe119c15" target="_top" xlink:title=" ">
<polygon fill="white" stroke="#666666" points="405.5,-168 228.25,-168 228.25,-124 405.5,-124 405.5,-168"/>
<text text-anchor="start" x="236.25" y="-154.5" font-family="Helvetica,sans-Serif" font-size="10.00">Deluxe.DeluxeBrandCenter.</text>
<text text-anchor="start" x="236.25" y="-142.5" font-family="Helvetica,sans-Serif" font-size="10.00">AMM.API.Services.CampaignBuilder</text>
<text text-anchor="middle" x="316.88" y="-130.5" font-family="Helvetica,sans-Serif" font-size="10.00">Service.GetFromEmailAddress</text>
</a>
</g>
</g>
<!-- Node1&#45;&gt;Node3 -->
<g id="edge2_Node000001_Node000003" class="edge">
<title>Node1&#45;&gt;Node3</title>
<g id="a_edge2_Node000001_Node000003"><a xlink:title=" ">
<path fill="none" stroke="#63b8ff" d="M177.75,-127.07C190.51,-128.82 203.72,-130.63 216.68,-132.41"/>
<polygon fill="#63b8ff" stroke="#63b8ff" points="216.11,-135.86 226.49,-133.75 217.06,-128.93 216.11,-135.86"/>
</a>
</g>
</g>
<!-- Node5 -->
<g id="Node000005" class="node">
<title>Node5</title>
<g id="a_Node000005"><a xlink:href="../../d5/da1/class_deluxe_1_1_deluxe_brand_center_1_1_a_m_m_1_1_domain_1_1_utility_1_1_util.html#af372b5defd8a37284b822c7b0b1a49f7" target="_top" xlink:title=" ">
<polygon fill="white" stroke="#666666" points="397.25,-106 236.5,-106 236.5,-62 397.25,-62 397.25,-106"/>
<text text-anchor="start" x="244.5" y="-92.5" font-family="Helvetica,sans-Serif" font-size="10.00">Deluxe.DeluxeBrandCenter.</text>
<text text-anchor="start" x="244.5" y="-80.5" font-family="Helvetica,sans-Serif" font-size="10.00">AMM.Domain.Utility.Util.Replace</text>
<text text-anchor="middle" x="316.88" y="-68.5" font-family="Helvetica,sans-Serif" font-size="10.00">StageFolder</text>
</a>
</g>
</g>
<!-- Node1&#45;&gt;Node5 -->
<g id="edge4_Node000001_Node000005" class="edge">
<title>Node1&#45;&gt;Node5</title>
<g id="a_edge4_Node000001_Node000005"><a xlink:title=" ">
<path fill="none" stroke="#63b8ff" d="M177.75,-102.93C193.22,-100.81 209.36,-98.59 224.91,-96.46"/>
<polygon fill="#63b8ff" stroke="#63b8ff" points="225.18,-99.96 234.61,-95.13 224.23,-93.02 225.18,-99.96"/>
</a>
</g>
</g>
<!-- Node6 -->
<g id="Node000006" class="node">
<title>Node6</title>
<g id="a_Node000006"><a xlink:href="../../db/dc5/interface_deluxe_1_1_deluxe_brand_center_1_1_a_m_m_1_1_a_p_i_1_1_services_1_1_i_persona_service.html#a04d89250da1b31cb913d3005ffb1f6f7" target="_top" xlink:title=" ">
<polygon fill="white" stroke="#666666" points="405.88,-44 227.88,-44 227.88,0 405.88,0 405.88,-44"/>
<text text-anchor="start" x="235.88" y="-30.5" font-family="Helvetica,sans-Serif" font-size="10.00">Deluxe.DeluxeBrandCenter.</text>
<text text-anchor="start" x="235.88" y="-18.5" font-family="Helvetica,sans-Serif" font-size="10.00">AMM.API.Services.IPersonaService.</text>
<text text-anchor="middle" x="316.88" y="-6.5" font-family="Helvetica,sans-Serif" font-size="10.00">Single</text>
</a>
</g>
</g>
<!-- Node1&#45;&gt;Node6 -->
<g id="edge5_Node000001_Node000006" class="edge">
<title>Node1&#45;&gt;Node6</title>
<g id="a_edge5_Node000001_Node000006"><a xlink:title=" ">
<path fill="none" stroke="#63b8ff" d="M130.02,-92.53C153.79,-79.87 184.7,-64.37 213.25,-53 217.36,-51.36 221.6,-49.76 225.9,-48.2"/>
<polygon fill="#63b8ff" stroke="#63b8ff" points="226.97,-51.53 235.25,-44.93 224.66,-44.93 226.97,-51.53"/>
</a>
</g>
</g>
<!-- Node4 -->
<g id="Node000004" class="node">
<title>Node4</title>
<g id="a_Node000004"><a xlink:href="../../d3/d8e/interface_deluxe_1_1_deluxe_brand_center_1_1_a_m_m_1_1_a_p_i_1_1_services_1_1_i_settings_service.html#ae7e408d07e4c31ff8cee83f391ceaa73" target="_top" xlink:title=" ">
<polygon fill="white" stroke="#666666" points="634.5,-168 456.5,-168 456.5,-124 634.5,-124 634.5,-168"/>
<text text-anchor="start" x="464.5" y="-154.5" font-family="Helvetica,sans-Serif" font-size="10.00">Deluxe.DeluxeBrandCenter.</text>
<text text-anchor="start" x="464.5" y="-142.5" font-family="Helvetica,sans-Serif" font-size="10.00">AMM.API.Services.ISettingsService.</text>
<text text-anchor="middle" x="545.5" y="-130.5" font-family="Helvetica,sans-Serif" font-size="10.00">SingleByName</text>
</a>
</g>
</g>
<!-- Node3&#45;&gt;Node4 -->
<g id="edge3_Node000003_Node000004" class="edge">
<title>Node3&#45;&gt;Node4</title>
<g id="a_edge3_Node000003_Node000004"><a xlink:title=" ">
<path fill="none" stroke="#63b8ff" d="M405.82,-146C418.62,-146 431.87,-146 444.88,-146"/>
<polygon fill="#63b8ff" stroke="#63b8ff" points="444.72,-149.5 454.72,-146 444.72,-142.5 444.72,-149.5"/>
</a>
</g>
</g>
</g>
</svg>
