<?xml version="1.0" encoding="UTF-8" standalone="no"?>
<!DOCTYPE svg PUBLIC "-//W3C//DTD SVG 1.1//EN"
 "http://www.w3.org/Graphics/SVG/1.1/DTD/svg11.dtd">
<!-- Generated by graphviz version 12.1.1 (20240910.0053)
 -->
<!-- Title: Deluxe.DeluxeBrandCenter.AMM.API.Services.CampaignBuilderService.MapCampaignElementToXML Pages: 1 -->
<svg width="890pt" height="686pt"
 viewBox="0.00 0.00 890.25 686.00" xmlns="http://www.w3.org/2000/svg" xmlns:xlink="http://www.w3.org/1999/xlink">
<g id="graph0" class="graph" transform="scale(1 1) rotate(0) translate(4 682)">
<title>Deluxe.DeluxeBrandCenter.AMM.API.Services.CampaignBuilderService.MapCampaignElementToXML</title>
<!-- Node1 -->
<g id="Node000001" class="node">
<title>Node1</title>
<g id="a_Node000001"><a xlink:title=" ">
<polygon fill="#999999" stroke="#666666" points="181.75,-504 0,-504 0,-460 181.75,-460 181.75,-504"/>
<text text-anchor="start" x="8" y="-490.5" font-family="Helvetica,sans-Serif" font-size="10.00">Deluxe.DeluxeBrandCenter.</text>
<text text-anchor="start" x="8" y="-478.5" font-family="Helvetica,sans-Serif" font-size="10.00">AMM.API.Services.CampaignBuilder</text>
<text text-anchor="middle" x="90.88" y="-466.5" font-family="Helvetica,sans-Serif" font-size="10.00">Service.MapCampaignElementToXML</text>
</a>
</g>
</g>
<!-- Node2 -->
<g id="Node000002" class="node">
<title>Node2</title>
<g id="a_Node000002"><a xlink:href="../../d6/d65/class_deluxe_1_1_deluxe_brand_center_1_1_a_m_m_1_1_a_p_i_1_1_services_1_1_campaign_builder_service.html#a7bf3dc8b7c5e0b7a52d4dbdedabc25c0" target="_top" xlink:title=" ">
<polygon fill="white" stroke="#666666" points="397.25,-678 220,-678 220,-634 397.25,-634 397.25,-678"/>
<text text-anchor="start" x="228" y="-664.5" font-family="Helvetica,sans-Serif" font-size="10.00">Deluxe.DeluxeBrandCenter.</text>
<text text-anchor="start" x="228" y="-652.5" font-family="Helvetica,sans-Serif" font-size="10.00">AMM.API.Services.CampaignBuilder</text>
<text text-anchor="middle" x="308.62" y="-640.5" font-family="Helvetica,sans-Serif" font-size="10.00">Service.MapBlogElementToXML</text>
</a>
</g>
</g>
<!-- Node1&#45;&gt;Node2 -->
<g id="edge1_Node000001_Node000002" class="edge">
<title>Node1&#45;&gt;Node2</title>
<g id="a_edge1_Node000001_Node000002"><a xlink:title=" ">
<path fill="none" stroke="#63b8ff" d="M106.02,-504.34C126.86,-535.57 168.71,-592.13 217.75,-625 219.35,-626.07 221,-627.11 222.67,-628.12"/>
<polygon fill="#63b8ff" stroke="#63b8ff" points="220.82,-631.1 231.27,-632.82 224.17,-624.95 220.82,-631.1"/>
</a>
</g>
</g>
<!-- Node3 -->
<g id="Node000003" class="node">
<title>Node3</title>
<g id="a_Node000003"><a xlink:href="../../d6/d65/class_deluxe_1_1_deluxe_brand_center_1_1_a_m_m_1_1_a_p_i_1_1_services_1_1_campaign_builder_service.html#aee6b3e4594126dfe2b63708b87147bb1" target="_top" xlink:title=" ">
<polygon fill="white" stroke="#666666" points="399.5,-616 217.75,-616 217.75,-572 399.5,-572 399.5,-616"/>
<text text-anchor="start" x="225.75" y="-602.5" font-family="Helvetica,sans-Serif" font-size="10.00">Deluxe.DeluxeBrandCenter.</text>
<text text-anchor="start" x="225.75" y="-590.5" font-family="Helvetica,sans-Serif" font-size="10.00">AMM.API.Services.CampaignBuilder</text>
<text text-anchor="middle" x="308.62" y="-578.5" font-family="Helvetica,sans-Serif" font-size="10.00">Service.MapDirectMailElementToXML</text>
</a>
</g>
</g>
<!-- Node1&#45;&gt;Node3 -->
<g id="edge2_Node000001_Node000003" class="edge">
<title>Node1&#45;&gt;Node3</title>
<g id="a_edge2_Node000001_Node000003"><a xlink:title=" ">
<path fill="none" stroke="#63b8ff" d="M122.21,-504.47C146.98,-522.08 183.38,-546.32 217.75,-563 220.67,-564.42 223.68,-565.8 226.74,-567.15"/>
<polygon fill="#63b8ff" stroke="#63b8ff" points="225.32,-570.35 235.89,-570.99 228.02,-563.89 225.32,-570.35"/>
</a>
</g>
</g>
<!-- Node5 -->
<g id="Node000005" class="node">
<title>Node5</title>
<g id="a_Node000005"><a xlink:href="../../d6/d65/class_deluxe_1_1_deluxe_brand_center_1_1_a_m_m_1_1_a_p_i_1_1_services_1_1_campaign_builder_service.html#a586c0501817a5a833896810a9317d00c" target="_top" xlink:title=" ">
<polygon fill="white" stroke="#666666" points="397.25,-454 220,-454 220,-410 397.25,-410 397.25,-454"/>
<text text-anchor="start" x="228" y="-440.5" font-family="Helvetica,sans-Serif" font-size="10.00">Deluxe.DeluxeBrandCenter.</text>
<text text-anchor="start" x="228" y="-428.5" font-family="Helvetica,sans-Serif" font-size="10.00">AMM.API.Services.CampaignBuilder</text>
<text text-anchor="middle" x="308.62" y="-416.5" font-family="Helvetica,sans-Serif" font-size="10.00">Service.MapEmailElementToXML</text>
</a>
</g>
</g>
<!-- Node1&#45;&gt;Node5 -->
<g id="edge4_Node000001_Node000005" class="edge">
<title>Node1&#45;&gt;Node5</title>
<g id="a_edge4_Node000001_Node000005"><a xlink:title=" ">
<path fill="none" stroke="#63b8ff" d="M182.12,-461.09C190.89,-459.05 199.82,-456.98 208.67,-454.93"/>
<polygon fill="#63b8ff" stroke="#63b8ff" points="209.39,-458.36 218.34,-452.69 207.81,-451.54 209.39,-458.36"/>
</a>
</g>
</g>
<!-- Node11 -->
<g id="Node000011" class="node">
<title>Node11</title>
<g id="a_Node000011"><a xlink:href="../../d6/d65/class_deluxe_1_1_deluxe_brand_center_1_1_a_m_m_1_1_a_p_i_1_1_services_1_1_campaign_builder_service.html#add42dd4418158ccde63613d83cc6b7f6" target="_top" xlink:title=" ">
<polygon fill="white" stroke="#666666" points="397.25,-392 220,-392 220,-348 397.25,-348 397.25,-392"/>
<text text-anchor="start" x="228" y="-378.5" font-family="Helvetica,sans-Serif" font-size="10.00">Deluxe.DeluxeBrandCenter.</text>
<text text-anchor="start" x="228" y="-366.5" font-family="Helvetica,sans-Serif" font-size="10.00">AMM.API.Services.CampaignBuilder</text>
<text text-anchor="middle" x="308.62" y="-354.5" font-family="Helvetica,sans-Serif" font-size="10.00">Service.MapMicrositeElementToXML</text>
</a>
</g>
</g>
<!-- Node1&#45;&gt;Node11 -->
<g id="edge10_Node000001_Node000011" class="edge">
<title>Node1&#45;&gt;Node11</title>
<g id="a_edge10_Node000001_Node000011"><a xlink:title=" ">
<path fill="none" stroke="#63b8ff" d="M122.21,-459.53C146.98,-441.92 183.38,-417.68 217.75,-401 220.67,-399.58 223.68,-398.2 226.74,-396.85"/>
<polygon fill="#63b8ff" stroke="#63b8ff" points="228.02,-400.11 235.89,-393.01 225.32,-393.65 228.02,-400.11"/>
</a>
</g>
</g>
<!-- Node12 -->
<g id="Node000012" class="node">
<title>Node12</title>
<g id="a_Node000012"><a xlink:href="../../d6/d65/class_deluxe_1_1_deluxe_brand_center_1_1_a_m_m_1_1_a_p_i_1_1_services_1_1_campaign_builder_service.html#ae2f681b48d3a471996c14c03a41f153d" target="_top" xlink:title=" ">
<polygon fill="white" stroke="#666666" points="397.25,-554 220,-554 220,-510 397.25,-510 397.25,-554"/>
<text text-anchor="start" x="228" y="-540.5" font-family="Helvetica,sans-Serif" font-size="10.00">Deluxe.DeluxeBrandCenter.</text>
<text text-anchor="start" x="228" y="-528.5" font-family="Helvetica,sans-Serif" font-size="10.00">AMM.API.Services.CampaignBuilder</text>
<text text-anchor="middle" x="308.62" y="-516.5" font-family="Helvetica,sans-Serif" font-size="10.00">Service.MapMicrositeSchedules</text>
</a>
</g>
</g>
<!-- Node1&#45;&gt;Node12 -->
<g id="edge12_Node000001_Node000012" class="edge">
<title>Node1&#45;&gt;Node12</title>
<g id="a_edge12_Node000001_Node000012"><a xlink:title=" ">
<path fill="none" stroke="#63b8ff" d="M182.12,-502.91C190.89,-504.95 199.82,-507.02 208.67,-509.07"/>
<polygon fill="#63b8ff" stroke="#63b8ff" points="207.81,-512.46 218.34,-511.31 209.39,-505.64 207.81,-512.46"/>
</a>
</g>
</g>
<!-- Node13 -->
<g id="Node000013" class="node">
<title>Node13</title>
<g id="a_Node000013"><a xlink:href="../../d6/d65/class_deluxe_1_1_deluxe_brand_center_1_1_a_m_m_1_1_a_p_i_1_1_services_1_1_campaign_builder_service.html#a1ee9d2087d39b6615bb021ac3f84f3f3" target="_top" xlink:title=" ">
<polygon fill="white" stroke="#666666" points="628.12,-554 450.88,-554 450.88,-510 628.12,-510 628.12,-554"/>
<text text-anchor="start" x="458.88" y="-540.5" font-family="Helvetica,sans-Serif" font-size="10.00">Deluxe.DeluxeBrandCenter.</text>
<text text-anchor="start" x="458.88" y="-528.5" font-family="Helvetica,sans-Serif" font-size="10.00">AMM.API.Services.CampaignBuilder</text>
<text text-anchor="middle" x="539.5" y="-516.5" font-family="Helvetica,sans-Serif" font-size="10.00">Service.MapScheduleToXML</text>
</a>
</g>
</g>
<!-- Node1&#45;&gt;Node13 -->
<g id="edge16_Node000001_Node000013" class="edge">
<title>Node1&#45;&gt;Node13</title>
<g id="a_edge16_Node000001_Node000013"><a xlink:title=" ">
<path fill="none" stroke="#63b8ff" d="M182.1,-483.83C243.62,-485.99 326.78,-490.71 399.5,-501 412.51,-502.84 426.1,-505.25 439.48,-507.92"/>
<polygon fill="#63b8ff" stroke="#63b8ff" points="438.66,-511.32 449.16,-509.91 440.07,-504.47 438.66,-511.32"/>
</a>
</g>
</g>
<!-- Node14 -->
<g id="Node000014" class="node">
<title>Node14</title>
<g id="a_Node000014"><a xlink:href="../../d6/d65/class_deluxe_1_1_deluxe_brand_center_1_1_a_m_m_1_1_a_p_i_1_1_services_1_1_campaign_builder_service.html#af750674ed0f54f17fe4e2987ff7c0a63" target="_top" xlink:title=" ">
<polygon fill="white" stroke="#666666" points="397.25,-255 220,-255 220,-211 397.25,-211 397.25,-255"/>
<text text-anchor="start" x="228" y="-241.5" font-family="Helvetica,sans-Serif" font-size="10.00">Deluxe.DeluxeBrandCenter.</text>
<text text-anchor="start" x="228" y="-229.5" font-family="Helvetica,sans-Serif" font-size="10.00">AMM.API.Services.CampaignBuilder</text>
<text text-anchor="middle" x="308.62" y="-217.5" font-family="Helvetica,sans-Serif" font-size="10.00">Service.MapSocialElementToXML</text>
</a>
</g>
</g>
<!-- Node1&#45;&gt;Node14 -->
<g id="edge17_Node000001_Node000014" class="edge">
<title>Node1&#45;&gt;Node14</title>
<g id="a_edge17_Node000001_Node000014"><a xlink:title=" ">
<path fill="none" stroke="#63b8ff" d="M111.02,-459.9C149.55,-415.44 236.52,-315.07 280.73,-264.04"/>
<polygon fill="#63b8ff" stroke="#63b8ff" points="283.32,-266.4 287.22,-256.55 278.03,-261.82 283.32,-266.4"/>
</a>
</g>
</g>
<!-- Node4 -->
<g id="Node000004" class="node">
<title>Node4</title>
<g id="a_Node000004"><a xlink:href="../../d9/daf/interface_deluxe_1_1_deluxe_brand_center_1_1_a_m_m_1_1_a_p_i_1_1_services_1_1_i_user_campaign_service.html#a6348293f8e92808fd02c4b807f6122e1" target="_top" xlink:title=" ">
<polygon fill="white" stroke="#666666" points="643.5,-616 435.5,-616 435.5,-572 643.5,-572 643.5,-616"/>
<text text-anchor="start" x="443.5" y="-602.5" font-family="Helvetica,sans-Serif" font-size="10.00">Deluxe.DeluxeBrandCenter.</text>
<text text-anchor="start" x="443.5" y="-590.5" font-family="Helvetica,sans-Serif" font-size="10.00">AMM.API.Services.IUserCampaign</text>
<text text-anchor="middle" x="539.5" y="-578.5" font-family="Helvetica,sans-Serif" font-size="10.00">Service.NormalizeDMVariablesAndColumns</text>
</a>
</g>
</g>
<!-- Node3&#45;&gt;Node4 -->
<g id="edge3_Node000003_Node000004" class="edge">
<title>Node3&#45;&gt;Node4</title>
<g id="a_edge3_Node000003_Node000004"><a xlink:title=" ">
<path fill="none" stroke="#63b8ff" d="M399.75,-594C407.66,-594 415.73,-594 423.8,-594"/>
<polygon fill="#63b8ff" stroke="#63b8ff" points="423.68,-597.5 433.68,-594 423.68,-590.5 423.68,-597.5"/>
</a>
</g>
</g>
<!-- Node6 -->
<g id="Node000006" class="node">
<title>Node6</title>
<g id="a_Node000006"><a xlink:href="../../d8/d2a/class_deluxe_1_1_deluxe_brand_center_1_1_a_m_m_1_1_domain_1_1_view_model_1_1_campaign_builder_1_1_comment.html#a4a056a46f74757164c6d2fc2c69a86f0" target="_top" xlink:title=" ">
<polygon fill="white" stroke="#666666" points="643.12,-330 435.88,-330 435.88,-286 643.12,-286 643.12,-330"/>
<text text-anchor="start" x="443.88" y="-316.5" font-family="Helvetica,sans-Serif" font-size="10.00">Deluxe.DeluxeBrandCenter.</text>
<text text-anchor="start" x="443.88" y="-304.5" font-family="Helvetica,sans-Serif" font-size="10.00">AMM.Domain.ViewModel.CampaignBuilder.</text>
<text text-anchor="middle" x="539.5" y="-292.5" font-family="Helvetica,sans-Serif" font-size="10.00">Comment.GetComment</text>
</a>
</g>
</g>
<!-- Node5&#45;&gt;Node6 -->
<g id="edge5_Node000005_Node000006" class="edge">
<title>Node5&#45;&gt;Node6</title>
<g id="a_edge5_Node000005_Node000006"><a xlink:title=" ">
<path fill="none" stroke="#63b8ff" d="M387.15,-409.53C391.51,-406.98 395.68,-404.15 399.5,-401 424.11,-380.76 410.5,-358.75 435.5,-339 436.65,-338.09 437.83,-337.2 439.04,-336.34"/>
<polygon fill="#63b8ff" stroke="#63b8ff" points="440.82,-339.36 447.41,-331.06 437.09,-333.44 440.82,-339.36"/>
</a>
</g>
</g>
<!-- Node7 -->
<g id="Node000007" class="node">
<title>Node7</title>
<g id="a_Node000007"><a xlink:href="../../d6/d65/class_deluxe_1_1_deluxe_brand_center_1_1_a_m_m_1_1_a_p_i_1_1_services_1_1_campaign_builder_service.html#ab0ce675d934f0f825b75314cbe119c15" target="_top" xlink:title=" ">
<polygon fill="white" stroke="#666666" points="628.12,-492 450.88,-492 450.88,-448 628.12,-448 628.12,-492"/>
<text text-anchor="start" x="458.88" y="-478.5" font-family="Helvetica,sans-Serif" font-size="10.00">Deluxe.DeluxeBrandCenter.</text>
<text text-anchor="start" x="458.88" y="-466.5" font-family="Helvetica,sans-Serif" font-size="10.00">AMM.API.Services.CampaignBuilder</text>
<text text-anchor="middle" x="539.5" y="-454.5" font-family="Helvetica,sans-Serif" font-size="10.00">Service.GetFromEmailAddress</text>
</a>
</g>
</g>
<!-- Node5&#45;&gt;Node7 -->
<g id="edge6_Node000005_Node000007" class="edge">
<title>Node5&#45;&gt;Node7</title>
<g id="a_edge6_Node000005_Node000007"><a xlink:title=" ">
<path fill="none" stroke="#63b8ff" d="M397.46,-446.58C411.19,-448.86 425.45,-451.23 439.41,-453.55"/>
<polygon fill="#63b8ff" stroke="#63b8ff" points="438.59,-456.96 449.03,-455.15 439.74,-450.05 438.59,-456.96"/>
</a>
</g>
</g>
<!-- Node9 -->
<g id="Node000009" class="node">
<title>Node9</title>
<g id="a_Node000009"><a xlink:href="../../d5/da1/class_deluxe_1_1_deluxe_brand_center_1_1_a_m_m_1_1_domain_1_1_utility_1_1_util.html#af372b5defd8a37284b822c7b0b1a49f7" target="_top" xlink:title=" ">
<polygon fill="white" stroke="#666666" points="619.88,-392 459.12,-392 459.12,-348 619.88,-348 619.88,-392"/>
<text text-anchor="start" x="467.12" y="-378.5" font-family="Helvetica,sans-Serif" font-size="10.00">Deluxe.DeluxeBrandCenter.</text>
<text text-anchor="start" x="467.12" y="-366.5" font-family="Helvetica,sans-Serif" font-size="10.00">AMM.Domain.Utility.Util.Replace</text>
<text text-anchor="middle" x="539.5" y="-354.5" font-family="Helvetica,sans-Serif" font-size="10.00">StageFolder</text>
</a>
</g>
</g>
<!-- Node5&#45;&gt;Node9 -->
<g id="edge8_Node000005_Node000009" class="edge">
<title>Node5&#45;&gt;Node9</title>
<g id="a_edge8_Node000005_Node000009"><a xlink:title=" ">
<path fill="none" stroke="#63b8ff" d="M392.58,-409.53C410.57,-404.66 429.68,-399.48 447.95,-394.53"/>
<polygon fill="#63b8ff" stroke="#63b8ff" points="448.69,-397.96 457.43,-391.96 446.86,-391.2 448.69,-397.96"/>
</a>
</g>
</g>
<!-- Node10 -->
<g id="Node000010" class="node">
<title>Node10</title>
<g id="a_Node000010"><a xlink:href="../../db/dc5/interface_deluxe_1_1_deluxe_brand_center_1_1_a_m_m_1_1_a_p_i_1_1_services_1_1_i_persona_service.html#a04d89250da1b31cb913d3005ffb1f6f7" target="_top" xlink:title=" ">
<polygon fill="white" stroke="#666666" points="869.88,-442 691.88,-442 691.88,-398 869.88,-398 869.88,-442"/>
<text text-anchor="start" x="699.88" y="-428.5" font-family="Helvetica,sans-Serif" font-size="10.00">Deluxe.DeluxeBrandCenter.</text>
<text text-anchor="start" x="699.88" y="-416.5" font-family="Helvetica,sans-Serif" font-size="10.00">AMM.API.Services.IPersonaService.</text>
<text text-anchor="middle" x="780.88" y="-404.5" font-family="Helvetica,sans-Serif" font-size="10.00">Single</text>
</a>
</g>
</g>
<!-- Node5&#45;&gt;Node10 -->
<g id="edge9_Node000005_Node000010" class="edge">
<title>Node5&#45;&gt;Node10</title>
<g id="a_edge9_Node000005_Node000010"><a xlink:title=" ">
<path fill="none" stroke="#63b8ff" d="M397.52,-429.76C477.84,-427.71 596.5,-424.68 680.28,-422.54"/>
<polygon fill="#63b8ff" stroke="#63b8ff" points="680.19,-426.05 690.1,-422.29 680.01,-419.05 680.19,-426.05"/>
</a>
</g>
</g>
<!-- Node8 -->
<g id="Node000008" class="node">
<title>Node8</title>
<g id="a_Node000008"><a xlink:href="../../d3/d8e/interface_deluxe_1_1_deluxe_brand_center_1_1_a_m_m_1_1_a_p_i_1_1_services_1_1_i_settings_service.html#ae7e408d07e4c31ff8cee83f391ceaa73" target="_top" xlink:title=" ">
<polygon fill="white" stroke="#666666" points="869.88,-529 691.88,-529 691.88,-485 869.88,-485 869.88,-529"/>
<text text-anchor="start" x="699.88" y="-515.5" font-family="Helvetica,sans-Serif" font-size="10.00">Deluxe.DeluxeBrandCenter.</text>
<text text-anchor="start" x="699.88" y="-503.5" font-family="Helvetica,sans-Serif" font-size="10.00">AMM.API.Services.ISettingsService.</text>
<text text-anchor="middle" x="780.88" y="-491.5" font-family="Helvetica,sans-Serif" font-size="10.00">SingleByName</text>
</a>
</g>
</g>
<!-- Node7&#45;&gt;Node8 -->
<g id="edge7_Node000007_Node000008" class="edge">
<title>Node7&#45;&gt;Node8</title>
<g id="a_edge7_Node000007_Node000008"><a xlink:title=" ">
<path fill="none" stroke="#63b8ff" d="M628.61,-483.62C645.46,-486.22 663.19,-488.96 680.36,-491.62"/>
<polygon fill="#63b8ff" stroke="#63b8ff" points="679.63,-495.05 690.05,-493.12 680.7,-488.13 679.63,-495.05"/>
</a>
</g>
</g>
<!-- Node11&#45;&gt;Node9 -->
<g id="edge11_Node000011_Node000009" class="edge">
<title>Node11&#45;&gt;Node9</title>
<g id="a_edge11_Node000011_Node000009"><a xlink:title=" ">
<path fill="none" stroke="#63b8ff" d="M397.46,-370C413.85,-370 431.01,-370 447.49,-370"/>
<polygon fill="#63b8ff" stroke="#63b8ff" points="447.26,-373.5 457.26,-370 447.26,-366.5 447.26,-373.5"/>
</a>
</g>
</g>
<!-- Node12&#45;&gt;Node13 -->
<g id="edge13_Node000012_Node000013" class="edge">
<title>Node12&#45;&gt;Node13</title>
<g id="a_edge13_Node000012_Node000013"><a xlink:title=" ">
<path fill="none" stroke="#63b8ff" d="M397.46,-532C411.19,-532 425.45,-532 439.41,-532"/>
<polygon fill="#63b8ff" stroke="#63b8ff" points="439.01,-535.5 449.01,-532 439.01,-528.5 439.01,-535.5"/>
</a>
</g>
</g>
<!-- Node13&#45;&gt;Node8 -->
<g id="edge15_Node000013_Node000008" class="edge">
<title>Node13&#45;&gt;Node8</title>
<g id="a_edge15_Node000013_Node000008"><a xlink:title=" ">
<path fill="none" stroke="#63b8ff" d="M628.61,-522.8C645.46,-521.04 663.19,-519.19 680.36,-517.39"/>
<polygon fill="#63b8ff" stroke="#63b8ff" points="680.46,-520.9 690.04,-516.38 679.73,-513.94 680.46,-520.9"/>
</a>
</g>
</g>
<!-- Node13&#45;&gt;Node10 -->
<g id="edge14_Node000013_Node000010" class="edge">
<title>Node13&#45;&gt;Node10</title>
<g id="a_edge14_Node000013_Node000010"><a xlink:title=" ">
<path fill="none" stroke="#63b8ff" d="M623.46,-509.56C630.35,-506.94 637.11,-504.08 643.5,-501 661.04,-492.53 662.97,-486.31 679.5,-476 694.91,-466.38 712.06,-456.52 727.76,-447.81"/>
<polygon fill="#63b8ff" stroke="#63b8ff" points="729.44,-450.88 736.51,-442.99 726.06,-444.75 729.44,-450.88"/>
</a>
</g>
</g>
<!-- Node14&#45;&gt;Node6 -->
<g id="edge21_Node000014_Node000006" class="edge">
<title>Node14&#45;&gt;Node6</title>
<g id="a_edge21_Node000014_Node000006"><a xlink:title=" ">
<path fill="none" stroke="#63b8ff" d="M377.99,-255.4C403.57,-263.78 432.84,-273.38 459.33,-282.06"/>
<polygon fill="#63b8ff" stroke="#63b8ff" points="458.07,-285.33 468.66,-285.11 460.25,-278.67 458.07,-285.33"/>
</a>
</g>
</g>
<!-- Node14&#45;&gt;Node9 -->
<g id="edge23_Node000014_Node000009" class="edge">
<title>Node14&#45;&gt;Node9</title>
<g id="a_edge23_Node000014_Node000009"><a xlink:title=" ">
<path fill="none" stroke="#63b8ff" d="M330.32,-255.15C353.74,-279.01 394.04,-316.56 435.5,-339 439.61,-341.23 443.9,-343.31 448.3,-345.26"/>
<polygon fill="#63b8ff" stroke="#63b8ff" points="446.74,-348.41 457.32,-349 449.42,-341.94 446.74,-348.41"/>
</a>
</g>
</g>
<!-- Node14&#45;&gt;Node10 -->
<g id="edge24_Node000014_Node000010" class="edge">
<title>Node14&#45;&gt;Node10</title>
<g id="a_edge24_Node000014_Node000010"><a xlink:title=" ">
<path fill="none" stroke="#63b8ff" d="M397.67,-237.98C481.81,-243.92 601.8,-255.81 643.5,-277 693.89,-302.6 735.9,-354.47 759.45,-388.2"/>
<polygon fill="#63b8ff" stroke="#63b8ff" points="756.49,-390.07 765.02,-396.36 762.27,-386.13 756.49,-390.07"/>
</a>
</g>
</g>
<!-- Node15 -->
<g id="Node000015" class="node">
<title>Node15</title>
<g id="a_Node000015"><a xlink:href="../../df/db6/interface_deluxe_1_1_deluxe_brand_center_1_1_a_m_m_1_1_infrastructure_1_1_a_w_s_1_1_s3_1_1_i_amazon_s3_service.html#ad8b9fc7f361abef30885bd62c0cca386" target="_top" xlink:title=" ">
<polygon fill="white" stroke="#666666" points="630.75,-44 448.25,-44 448.25,0 630.75,0 630.75,-44"/>
<text text-anchor="start" x="456.25" y="-30.5" font-family="Helvetica,sans-Serif" font-size="10.00">Deluxe.DeluxeBrandCenter.</text>
<text text-anchor="start" x="456.25" y="-18.5" font-family="Helvetica,sans-Serif" font-size="10.00">AMM.Infrastructure.AWS.S3.IAmazon</text>
<text text-anchor="middle" x="539.5" y="-6.5" font-family="Helvetica,sans-Serif" font-size="10.00">S3Service.DownloadString</text>
</a>
</g>
</g>
<!-- Node14&#45;&gt;Node15 -->
<g id="edge18_Node000014_Node000015" class="edge">
<title>Node14&#45;&gt;Node15</title>
<g id="a_edge18_Node000014_Node000015"><a xlink:title=" ">
<path fill="none" stroke="#63b8ff" d="M319.26,-210.54C336.76,-172.4 377.42,-95.03 435.5,-53 436.87,-52.01 438.27,-51.05 439.71,-50.12"/>
<polygon fill="#63b8ff" stroke="#63b8ff" points="441.32,-53.22 448.21,-45.17 437.8,-47.17 441.32,-53.22"/>
</a>
</g>
</g>
<!-- Node16 -->
<g id="Node000016" class="node">
<title>Node16</title>
<g id="a_Node000016"><a xlink:href="../../d4/df2/class_deluxe_1_1_deluxe_brand_center_1_1_a_m_m_1_1_domain_1_1_view_model_1_1_sharing_request.html#ab077ddead710cc2bf081ae560e4e3ee9" target="_top" xlink:title=" ">
<polygon fill="white" stroke="#666666" points="640.88,-230 438.12,-230 438.12,-186 640.88,-186 640.88,-230"/>
<text text-anchor="start" x="446.12" y="-216.5" font-family="Helvetica,sans-Serif" font-size="10.00">Deluxe.DeluxeBrandCenter.</text>
<text text-anchor="start" x="446.12" y="-204.5" font-family="Helvetica,sans-Serif" font-size="10.00">AMM.Domain.ViewModel.SharingRequest.</text>
<text text-anchor="middle" x="539.5" y="-192.5" font-family="Helvetica,sans-Serif" font-size="10.00">GenerateSharingRequest</text>
</a>
</g>
</g>
<!-- Node14&#45;&gt;Node16 -->
<g id="edge19_Node000014_Node000016" class="edge">
<title>Node14&#45;&gt;Node16</title>
<g id="a_edge19_Node000014_Node000016"><a xlink:title=" ">
<path fill="none" stroke="#63b8ff" d="M397.46,-223.41C406.97,-222.37 416.75,-221.3 426.5,-220.23"/>
<polygon fill="#63b8ff" stroke="#63b8ff" points="426.85,-223.72 436.41,-219.15 426.09,-216.76 426.85,-223.72"/>
</a>
</g>
</g>
<!-- Node18 -->
<g id="Node000018" class="node">
<title>Node18</title>
<g id="a_Node000018"><a xlink:href="../../df/db6/interface_deluxe_1_1_deluxe_brand_center_1_1_a_m_m_1_1_infrastructure_1_1_a_w_s_1_1_s3_1_1_i_amazon_s3_service.html#afc3335f03278900df478e1324f61ea07" target="_top" xlink:title=" ">
<polygon fill="white" stroke="#666666" points="630.75,-168 448.25,-168 448.25,-124 630.75,-124 630.75,-168"/>
<text text-anchor="start" x="456.25" y="-154.5" font-family="Helvetica,sans-Serif" font-size="10.00">Deluxe.DeluxeBrandCenter.</text>
<text text-anchor="start" x="456.25" y="-142.5" font-family="Helvetica,sans-Serif" font-size="10.00">AMM.Infrastructure.AWS.S3.IAmazon</text>
<text text-anchor="middle" x="539.5" y="-130.5" font-family="Helvetica,sans-Serif" font-size="10.00">S3Service.GetS3RootUrl</text>
</a>
</g>
</g>
<!-- Node14&#45;&gt;Node18 -->
<g id="edge22_Node000014_Node000018" class="edge">
<title>Node14&#45;&gt;Node18</title>
<g id="a_edge22_Node000014_Node000018"><a xlink:title=" ">
<path fill="none" stroke="#63b8ff" d="M356.26,-210.56C379.74,-199.7 408.82,-186.91 435.5,-177 440.11,-175.29 444.85,-173.6 449.66,-171.96"/>
<polygon fill="#63b8ff" stroke="#63b8ff" points="450.45,-175.38 458.83,-168.89 448.23,-168.74 450.45,-175.38"/>
</a>
</g>
</g>
<!-- Node19 -->
<g id="Node000019" class="node">
<title>Node19</title>
<g id="a_Node000019"><a xlink:href="../../df/db6/interface_deluxe_1_1_deluxe_brand_center_1_1_a_m_m_1_1_infrastructure_1_1_a_w_s_1_1_s3_1_1_i_amazon_s3_service.html#a959eac40ddb2914db1fa1d64fdbcc511" target="_top" xlink:title=" ">
<polygon fill="white" stroke="#666666" points="630.75,-106 448.25,-106 448.25,-62 630.75,-62 630.75,-106"/>
<text text-anchor="start" x="456.25" y="-92.5" font-family="Helvetica,sans-Serif" font-size="10.00">Deluxe.DeluxeBrandCenter.</text>
<text text-anchor="start" x="456.25" y="-80.5" font-family="Helvetica,sans-Serif" font-size="10.00">AMM.Infrastructure.AWS.S3.IAmazon</text>
<text text-anchor="middle" x="539.5" y="-68.5" font-family="Helvetica,sans-Serif" font-size="10.00">S3Service.UploadText</text>
</a>
</g>
</g>
<!-- Node14&#45;&gt;Node19 -->
<g id="edge25_Node000014_Node000019" class="edge">
<title>Node14&#45;&gt;Node19</title>
<g id="a_edge25_Node000014_Node000019"><a xlink:title=" ">
<path fill="none" stroke="#63b8ff" d="M327.76,-210.6C350.35,-184.12 391.38,-140.42 435.5,-115 437.7,-113.73 439.96,-112.51 442.26,-111.33"/>
<polygon fill="#63b8ff" stroke="#63b8ff" points="443.68,-114.53 451.24,-107.11 440.71,-108.2 443.68,-114.53"/>
</a>
</g>
</g>
<!-- Node17 -->
<g id="Node000017" class="node">
<title>Node17</title>
<g id="a_Node000017"><a xlink:href="../../d4/df2/class_deluxe_1_1_deluxe_brand_center_1_1_a_m_m_1_1_domain_1_1_view_model_1_1_sharing_request.html#ac72d5a6104e6e33b42a67ea339621fbc" target="_top" xlink:title=" ">
<polygon fill="white" stroke="#666666" points="882.25,-230 679.5,-230 679.5,-186 882.25,-186 882.25,-230"/>
<text text-anchor="start" x="687.5" y="-216.5" font-family="Helvetica,sans-Serif" font-size="10.00">Deluxe.DeluxeBrandCenter.</text>
<text text-anchor="start" x="687.5" y="-204.5" font-family="Helvetica,sans-Serif" font-size="10.00">AMM.Domain.ViewModel.SharingRequest.</text>
<text text-anchor="middle" x="780.88" y="-192.5" font-family="Helvetica,sans-Serif" font-size="10.00">SharingRequest</text>
</a>
</g>
</g>
<!-- Node16&#45;&gt;Node17 -->
<g id="edge20_Node000016_Node000017" class="edge">
<title>Node16&#45;&gt;Node17</title>
<g id="a_edge20_Node000016_Node000017"><a xlink:title=" ">
<path fill="none" stroke="#63b8ff" d="M641.32,-208C650.03,-208 658.87,-208 667.66,-208"/>
<polygon fill="#63b8ff" stroke="#63b8ff" points="667.66,-211.5 677.66,-208 667.66,-204.5 667.66,-211.5"/>
</a>
</g>
</g>
</g>
</svg>
