<?xml version="1.0" encoding="UTF-8" standalone="no"?>
<!DOCTYPE svg PUBLIC "-//W3C//DTD SVG 1.1//EN"
 "http://www.w3.org/Graphics/SVG/1.1/DTD/svg11.dtd">
<!-- Generated by graphviz version 12.1.1 (20240910.0053)
 -->
<!-- Title: Deluxe.DeluxeBrandCenter.AMM.API.Services.CampaignBuilderService.MapXMLtoCampaignElement Pages: 1 -->
<svg width="887pt" height="501pt"
 viewBox="0.00 0.00 886.50 501.00" xmlns="http://www.w3.org/2000/svg" xmlns:xlink="http://www.w3.org/1999/xlink">
<g id="graph0" class="graph" transform="scale(1 1) rotate(0) translate(4 497)">
<title>Deluxe.DeluxeBrandCenter.AMM.API.Services.CampaignBuilderService.MapXMLtoCampaignElement</title>
<!-- Node1 -->
<g id="Node000001" class="node">
<title>Node1</title>
<g id="a_Node000001"><a xlink:title=" ">
<polygon fill="#999999" stroke="#666666" points="179.5,-268 0,-268 0,-224 179.5,-224 179.5,-268"/>
<text text-anchor="start" x="8" y="-254.5" font-family="Helvetica,sans-Serif" font-size="10.00">Deluxe.DeluxeBrandCenter.</text>
<text text-anchor="start" x="8" y="-242.5" font-family="Helvetica,sans-Serif" font-size="10.00">AMM.API.Services.CampaignBuilder</text>
<text text-anchor="middle" x="89.75" y="-230.5" font-family="Helvetica,sans-Serif" font-size="10.00">Service.MapXMLtoCampaignElement</text>
</a>
</g>
</g>
<!-- Node2 -->
<g id="Node000002" class="node">
<title>Node2</title>
<g id="a_Node000002"><a xlink:href="../../d8/d2a/class_deluxe_1_1_deluxe_brand_center_1_1_a_m_m_1_1_domain_1_1_view_model_1_1_campaign_builder_1_1_comment.html#a4a056a46f74757164c6d2fc2c69a86f0" target="_top" xlink:title=" ">
<polygon fill="white" stroke="#666666" points="639.75,-493 432.5,-493 432.5,-449 639.75,-449 639.75,-493"/>
<text text-anchor="start" x="440.5" y="-479.5" font-family="Helvetica,sans-Serif" font-size="10.00">Deluxe.DeluxeBrandCenter.</text>
<text text-anchor="start" x="440.5" y="-467.5" font-family="Helvetica,sans-Serif" font-size="10.00">AMM.Domain.ViewModel.CampaignBuilder.</text>
<text text-anchor="middle" x="536.12" y="-455.5" font-family="Helvetica,sans-Serif" font-size="10.00">Comment.GetComment</text>
</a>
</g>
</g>
<!-- Node1&#45;&gt;Node2 -->
<g id="edge1_Node000001_Node000002" class="edge">
<title>Node1&#45;&gt;Node2</title>
<g id="a_edge1_Node000001_Node000002"><a xlink:title=" ">
<path fill="none" stroke="#63b8ff" d="M101.33,-268.49C119.38,-304.22 159.67,-373.42 215.5,-408 276.85,-446 356.44,-461.77 420.85,-468.03"/>
<polygon fill="#63b8ff" stroke="#63b8ff" points="420.5,-471.51 430.77,-468.92 421.13,-464.54 420.5,-471.51"/>
</a>
</g>
</g>
<!-- Node3 -->
<g id="Node000003" class="node">
<title>Node3</title>
<g id="a_Node000003"><a xlink:href="../../d6/d65/class_deluxe_1_1_deluxe_brand_center_1_1_a_m_m_1_1_a_p_i_1_1_services_1_1_campaign_builder_service.html#aef2cc7351f42b5fafcd05beb0dfd738c" target="_top" xlink:title=" ">
<polygon fill="white" stroke="#666666" points="394.62,-299 217.38,-299 217.38,-255 394.62,-255 394.62,-299"/>
<text text-anchor="start" x="225.38" y="-285.5" font-family="Helvetica,sans-Serif" font-size="10.00">Deluxe.DeluxeBrandCenter.</text>
<text text-anchor="start" x="225.38" y="-273.5" font-family="Helvetica,sans-Serif" font-size="10.00">AMM.API.Services.CampaignBuilder</text>
<text text-anchor="middle" x="306" y="-261.5" font-family="Helvetica,sans-Serif" font-size="10.00">Service.MapXMLToBlogElement</text>
</a>
</g>
</g>
<!-- Node1&#45;&gt;Node3 -->
<g id="edge2_Node000001_Node000003" class="edge">
<title>Node1&#45;&gt;Node3</title>
<g id="a_edge2_Node000001_Node000003"><a xlink:title=" ">
<path fill="none" stroke="#63b8ff" d="M179.75,-258.88C188.3,-260.12 197.02,-261.38 205.66,-262.63"/>
<polygon fill="#63b8ff" stroke="#63b8ff" points="205.07,-266.08 215.47,-264.05 206.07,-259.15 205.07,-266.08"/>
</a>
</g>
</g>
<!-- Node4 -->
<g id="Node000004" class="node">
<title>Node4</title>
<g id="a_Node000004"><a xlink:href="../../d6/d65/class_deluxe_1_1_deluxe_brand_center_1_1_a_m_m_1_1_a_p_i_1_1_services_1_1_campaign_builder_service.html#a266bed18cfff1ca8655d571f811db2e5" target="_top" xlink:title=" ">
<polygon fill="white" stroke="#666666" points="396.5,-237 215.5,-237 215.5,-193 396.5,-193 396.5,-237"/>
<text text-anchor="start" x="223.5" y="-223.5" font-family="Helvetica,sans-Serif" font-size="10.00">Deluxe.DeluxeBrandCenter.</text>
<text text-anchor="start" x="223.5" y="-211.5" font-family="Helvetica,sans-Serif" font-size="10.00">AMM.API.Services.CampaignBuilder</text>
<text text-anchor="middle" x="306" y="-199.5" font-family="Helvetica,sans-Serif" font-size="10.00">Service.MapXMLToDirectMailElement</text>
</a>
</g>
</g>
<!-- Node1&#45;&gt;Node4 -->
<g id="edge3_Node000001_Node000004" class="edge">
<title>Node1&#45;&gt;Node4</title>
<g id="a_edge3_Node000001_Node000004"><a xlink:title=" ">
<path fill="none" stroke="#63b8ff" d="M179.75,-233.12C187.72,-231.97 195.83,-230.8 203.89,-229.63"/>
<polygon fill="#63b8ff" stroke="#63b8ff" points="204.35,-233.1 213.74,-228.2 203.35,-226.17 204.35,-233.1"/>
</a>
</g>
</g>
<!-- Node7 -->
<g id="Node000007" class="node">
<title>Node7</title>
<g id="a_Node000007"><a xlink:href="../../d6/d65/class_deluxe_1_1_deluxe_brand_center_1_1_a_m_m_1_1_a_p_i_1_1_services_1_1_campaign_builder_service.html#af629a897fd36af8802d6d7406ffcc7eb" target="_top" xlink:title=" ">
<polygon fill="white" stroke="#666666" points="394.62,-175 217.38,-175 217.38,-131 394.62,-131 394.62,-175"/>
<text text-anchor="start" x="225.38" y="-161.5" font-family="Helvetica,sans-Serif" font-size="10.00">Deluxe.DeluxeBrandCenter.</text>
<text text-anchor="start" x="225.38" y="-149.5" font-family="Helvetica,sans-Serif" font-size="10.00">AMM.API.Services.CampaignBuilder</text>
<text text-anchor="middle" x="306" y="-137.5" font-family="Helvetica,sans-Serif" font-size="10.00">Service.MapXMLToEmailElement</text>
</a>
</g>
</g>
<!-- Node1&#45;&gt;Node7 -->
<g id="edge6_Node000001_Node000007" class="edge">
<title>Node1&#45;&gt;Node7</title>
<g id="a_edge6_Node000001_Node000007"><a xlink:title=" ">
<path fill="none" stroke="#63b8ff" d="M132.56,-223.54C156.5,-211.12 187.29,-195.84 215.5,-184 219.1,-182.49 222.79,-181 226.55,-179.52"/>
<polygon fill="#63b8ff" stroke="#63b8ff" points="227.71,-182.83 235.8,-175.99 225.21,-176.29 227.71,-182.83"/>
</a>
</g>
</g>
<!-- Node10 -->
<g id="Node000010" class="node">
<title>Node10</title>
<g id="a_Node000010"><a xlink:href="../../d6/d65/class_deluxe_1_1_deluxe_brand_center_1_1_a_m_m_1_1_a_p_i_1_1_services_1_1_campaign_builder_service.html#a42749927be71bf4f5537fe6c4b38e605" target="_top" xlink:title=" ">
<polygon fill="white" stroke="#666666" points="394.62,-44 217.38,-44 217.38,0 394.62,0 394.62,-44"/>
<text text-anchor="start" x="225.38" y="-30.5" font-family="Helvetica,sans-Serif" font-size="10.00">Deluxe.DeluxeBrandCenter.</text>
<text text-anchor="start" x="225.38" y="-18.5" font-family="Helvetica,sans-Serif" font-size="10.00">AMM.API.Services.CampaignBuilder</text>
<text text-anchor="middle" x="306" y="-6.5" font-family="Helvetica,sans-Serif" font-size="10.00">Service.MapXMLToMicrositeElement</text>
</a>
</g>
</g>
<!-- Node1&#45;&gt;Node10 -->
<g id="edge10_Node000001_Node000010" class="edge">
<title>Node1&#45;&gt;Node10</title>
<g id="a_edge10_Node000001_Node000010"><a xlink:title=" ">
<path fill="none" stroke="#63b8ff" d="M99.33,-223.77C115.82,-183.88 155.7,-99.91 215.5,-53 216.63,-52.12 217.78,-51.25 218.96,-50.42"/>
<polygon fill="#63b8ff" stroke="#63b8ff" points="220.54,-53.56 227.13,-45.26 216.81,-47.64 220.54,-53.56"/>
</a>
</g>
</g>
<!-- Node11 -->
<g id="Node000011" class="node">
<title>Node11</title>
<g id="a_Node000011"><a xlink:href="../../d6/d65/class_deluxe_1_1_deluxe_brand_center_1_1_a_m_m_1_1_a_p_i_1_1_services_1_1_campaign_builder_service.html#a74ba8e98a9d32f4a88b206365c879163" target="_top" xlink:title=" ">
<polygon fill="white" stroke="#666666" points="394.62,-399 217.38,-399 217.38,-355 394.62,-355 394.62,-399"/>
<text text-anchor="start" x="225.38" y="-385.5" font-family="Helvetica,sans-Serif" font-size="10.00">Deluxe.DeluxeBrandCenter.</text>
<text text-anchor="start" x="225.38" y="-373.5" font-family="Helvetica,sans-Serif" font-size="10.00">AMM.API.Services.CampaignBuilder</text>
<text text-anchor="middle" x="306" y="-361.5" font-family="Helvetica,sans-Serif" font-size="10.00">Service.MapXMLToSchedule</text>
</a>
</g>
</g>
<!-- Node1&#45;&gt;Node11 -->
<g id="edge11_Node000001_Node000011" class="edge">
<title>Node1&#45;&gt;Node11</title>
<g id="a_edge11_Node000001_Node000011"><a xlink:title=" ">
<path fill="none" stroke="#63b8ff" d="M115.62,-268.16C139.84,-288.94 178.34,-319.89 215.5,-341 221,-344.13 226.83,-347.12 232.77,-349.94"/>
<polygon fill="#63b8ff" stroke="#63b8ff" points="230.91,-352.93 241.46,-353.9 233.81,-346.56 230.91,-352.93"/>
</a>
</g>
</g>
<!-- Node15 -->
<g id="Node000015" class="node">
<title>Node15</title>
<g id="a_Node000015"><a xlink:href="../../d5/d5f/class_deluxe_1_1_deluxe_brand_center_1_1_a_m_m_1_1_domain_1_1_utility_1_1_json_helper.html#ab745292f943d4bb123831d596477056d" target="_top" xlink:title=" ">
<polygon fill="white" stroke="#666666" points="628.5,-307 443.75,-307 443.75,-275 628.5,-275 628.5,-307"/>
<text text-anchor="start" x="451.75" y="-293.5" font-family="Helvetica,sans-Serif" font-size="10.00">Deluxe.DeluxeBrandCenter.</text>
<text text-anchor="middle" x="536.12" y="-281.5" font-family="Helvetica,sans-Serif" font-size="10.00">AMM.Domain.Utility.JsonHelper.Parse</text>
</a>
</g>
</g>
<!-- Node1&#45;&gt;Node15 -->
<g id="edge23_Node000001_Node000015" class="edge">
<title>Node1&#45;&gt;Node15</title>
<g id="a_edge23_Node000001_Node000015"><a xlink:title=" ">
<path fill="none" stroke="#63b8ff" d="M124.86,-268.36C149.05,-282.82 182.89,-300.34 215.5,-308 291.44,-325.83 380.21,-318.99 444.9,-309.18"/>
<polygon fill="#63b8ff" stroke="#63b8ff" points="445.05,-312.7 454.38,-307.69 443.96,-305.79 445.05,-312.7"/>
</a>
</g>
</g>
<!-- Node17 -->
<g id="Node000017" class="node">
<title>Node17</title>
<g id="a_Node000017"><a xlink:href="../../d6/d65/class_deluxe_1_1_deluxe_brand_center_1_1_a_m_m_1_1_a_p_i_1_1_services_1_1_campaign_builder_service.html#a7aebfa9e7d0d3f4331ac1194517913cb" target="_top" xlink:title=" ">
<polygon fill="white" stroke="#666666" points="394.62,-106 217.38,-106 217.38,-62 394.62,-62 394.62,-106"/>
<text text-anchor="start" x="225.38" y="-92.5" font-family="Helvetica,sans-Serif" font-size="10.00">Deluxe.DeluxeBrandCenter.</text>
<text text-anchor="start" x="225.38" y="-80.5" font-family="Helvetica,sans-Serif" font-size="10.00">AMM.API.Services.CampaignBuilder</text>
<text text-anchor="middle" x="306" y="-68.5" font-family="Helvetica,sans-Serif" font-size="10.00">Service.MapXMLToSocialElement</text>
</a>
</g>
</g>
<!-- Node1&#45;&gt;Node17 -->
<g id="edge18_Node000001_Node000017" class="edge">
<title>Node1&#45;&gt;Node17</title>
<g id="a_edge18_Node000001_Node000017"><a xlink:title=" ">
<path fill="none" stroke="#63b8ff" d="M108.54,-223.7C131.06,-196.68 172.17,-151.14 215.5,-122 221.2,-118.17 227.35,-114.59 233.66,-111.29"/>
<polygon fill="#63b8ff" stroke="#63b8ff" points="234.91,-114.58 242.31,-107 231.8,-108.31 234.91,-114.58"/>
</a>
</g>
</g>
<!-- Node5 -->
<g id="Node000005" class="node">
<title>Node5</title>
<g id="a_Node000005"><a xlink:href="../../d6/d65/class_deluxe_1_1_deluxe_brand_center_1_1_a_m_m_1_1_a_p_i_1_1_services_1_1_campaign_builder_service.html#a1ad8120183764df0a34c58257d7a91b9" target="_top" xlink:title=" ">
<polygon fill="white" stroke="#666666" points="624.75,-240 447.5,-240 447.5,-196 624.75,-196 624.75,-240"/>
<text text-anchor="start" x="455.5" y="-226.5" font-family="Helvetica,sans-Serif" font-size="10.00">Deluxe.DeluxeBrandCenter.</text>
<text text-anchor="start" x="455.5" y="-214.5" font-family="Helvetica,sans-Serif" font-size="10.00">AMM.API.Services.CampaignBuilder</text>
<text text-anchor="middle" x="536.12" y="-202.5" font-family="Helvetica,sans-Serif" font-size="10.00">Service.AddEditorFields</text>
</a>
</g>
</g>
<!-- Node4&#45;&gt;Node5 -->
<g id="edge4_Node000004_Node000005" class="edge">
<title>Node4&#45;&gt;Node5</title>
<g id="a_edge4_Node000004_Node000005"><a xlink:title=" ">
<path fill="none" stroke="#63b8ff" d="M396.83,-216.18C409.66,-216.35 422.91,-216.52 435.91,-216.7"/>
<polygon fill="#63b8ff" stroke="#63b8ff" points="435.68,-220.19 445.73,-216.82 435.77,-213.19 435.68,-220.19"/>
</a>
</g>
</g>
<!-- Node6 -->
<g id="Node000006" class="node">
<title>Node6</title>
<g id="a_Node000006"><a xlink:href="../../d3/ddb/interface_deluxe_1_1_deluxe_brand_center_1_1_a_m_m_1_1_a_p_i_1_1_services_1_1_i_d_b_service.html#a65b574cf2a33323f24c4657b8b606f68" target="_top" xlink:title=" ">
<polygon fill="white" stroke="#666666" points="868.75,-234 685.5,-234 685.5,-202 868.75,-202 868.75,-234"/>
<text text-anchor="start" x="693.5" y="-220.5" font-family="Helvetica,sans-Serif" font-size="10.00">Deluxe.DeluxeBrandCenter.</text>
<text text-anchor="middle" x="777.12" y="-208.5" font-family="Helvetica,sans-Serif" font-size="10.00">AMM.API.Services.IDBService.Single</text>
</a>
</g>
</g>
<!-- Node5&#45;&gt;Node6 -->
<g id="edge5_Node000005_Node000006" class="edge">
<title>Node5&#45;&gt;Node6</title>
<g id="a_edge5_Node000005_Node000006"><a xlink:title=" ">
<path fill="none" stroke="#63b8ff" d="M625.1,-218C641,-218 657.7,-218 673.96,-218"/>
<polygon fill="#63b8ff" stroke="#63b8ff" points="673.62,-221.5 683.62,-218 673.62,-214.5 673.62,-221.5"/>
</a>
</g>
</g>
<!-- Node7&#45;&gt;Node5 -->
<g id="edge7_Node000007_Node000005" class="edge">
<title>Node7&#45;&gt;Node5</title>
<g id="a_edge7_Node000007_Node000005"><a xlink:title=" ">
<path fill="none" stroke="#63b8ff" d="M385.83,-175.46C405.06,-180.94 425.78,-186.84 445.47,-192.46"/>
<polygon fill="#63b8ff" stroke="#63b8ff" points="444.26,-195.75 454.84,-195.12 446.18,-189.02 444.26,-195.75"/>
</a>
</g>
</g>
<!-- Node8 -->
<g id="Node000008" class="node">
<title>Node8</title>
<g id="a_Node000008"><a xlink:href="../../df/db6/interface_deluxe_1_1_deluxe_brand_center_1_1_a_m_m_1_1_infrastructure_1_1_a_w_s_1_1_s3_1_1_i_amazon_s3_service.html#ad8b9fc7f361abef30885bd62c0cca386" target="_top" xlink:title=" ">
<polygon fill="white" stroke="#666666" points="868.38,-174 685.88,-174 685.88,-130 868.38,-130 868.38,-174"/>
<text text-anchor="start" x="693.88" y="-160.5" font-family="Helvetica,sans-Serif" font-size="10.00">Deluxe.DeluxeBrandCenter.</text>
<text text-anchor="start" x="693.88" y="-148.5" font-family="Helvetica,sans-Serif" font-size="10.00">AMM.Infrastructure.AWS.S3.IAmazon</text>
<text text-anchor="middle" x="777.12" y="-136.5" font-family="Helvetica,sans-Serif" font-size="10.00">S3Service.DownloadString</text>
</a>
</g>
</g>
<!-- Node7&#45;&gt;Node8 -->
<g id="edge8_Node000007_Node000008" class="edge">
<title>Node7&#45;&gt;Node8</title>
<g id="a_edge8_Node000007_Node000008"><a xlink:title=" ">
<path fill="none" stroke="#63b8ff" d="M394.96,-152.81C474.23,-152.64 590.78,-152.4 674.1,-152.22"/>
<polygon fill="#63b8ff" stroke="#63b8ff" points="673.87,-155.72 683.86,-152.2 673.85,-148.72 673.87,-155.72"/>
</a>
</g>
</g>
<!-- Node9 -->
<g id="Node000009" class="node">
<title>Node9</title>
<g id="a_Node000009"><a xlink:href="../../d5/da1/class_deluxe_1_1_deluxe_brand_center_1_1_a_m_m_1_1_domain_1_1_utility_1_1_util.html#af372b5defd8a37284b822c7b0b1a49f7" target="_top" xlink:title=" ">
<polygon fill="white" stroke="#666666" points="857.5,-102 696.75,-102 696.75,-58 857.5,-58 857.5,-102"/>
<text text-anchor="start" x="704.75" y="-88.5" font-family="Helvetica,sans-Serif" font-size="10.00">Deluxe.DeluxeBrandCenter.</text>
<text text-anchor="start" x="704.75" y="-76.5" font-family="Helvetica,sans-Serif" font-size="10.00">AMM.Domain.Utility.Util.Replace</text>
<text text-anchor="middle" x="777.12" y="-64.5" font-family="Helvetica,sans-Serif" font-size="10.00">StageFolder</text>
</a>
</g>
</g>
<!-- Node7&#45;&gt;Node9 -->
<g id="edge9_Node000007_Node000009" class="edge">
<title>Node7&#45;&gt;Node9</title>
<g id="a_edge9_Node000007_Node000009"><a xlink:title=" ">
<path fill="none" stroke="#63b8ff" d="M394.93,-144.28C462.21,-137.03 557.18,-125.56 639.75,-111 654.57,-108.39 670.2,-105.22 685.39,-101.93"/>
<polygon fill="#63b8ff" stroke="#63b8ff" points="685.86,-105.41 694.87,-99.84 684.35,-98.57 685.86,-105.41"/>
</a>
</g>
</g>
<!-- Node11&#45;&gt;Node2 -->
<g id="edge15_Node000011_Node000002" class="edge">
<title>Node11&#45;&gt;Node2</title>
<g id="a_edge15_Node000011_Node000002"><a xlink:title=" ">
<path fill="none" stroke="#63b8ff" d="M347.16,-399.38C371.4,-412.33 403.17,-428.31 432.5,-440 436.61,-441.64 440.85,-443.24 445.15,-444.8"/>
<polygon fill="#63b8ff" stroke="#63b8ff" points="443.91,-448.07 454.5,-448.08 446.22,-441.47 443.91,-448.07"/>
</a>
</g>
</g>
<!-- Node12 -->
<g id="Node000012" class="node">
<title>Node12</title>
<g id="a_Node000012"><a xlink:href="../../de/d83/class_deluxe_1_1_deluxe_brand_center_1_1_a_m_m_1_1_domain_1_1_data_model_1_1_user_campaigns_1_1_recurrence.html#a0b51e05a4e44f58745687e246757acbe" target="_top" xlink:title=" ">
<polygon fill="white" stroke="#666666" points="637.5,-369 434.75,-369 434.75,-325 637.5,-325 637.5,-369"/>
<text text-anchor="start" x="442.75" y="-355.5" font-family="Helvetica,sans-Serif" font-size="10.00">Deluxe.DeluxeBrandCenter.</text>
<text text-anchor="start" x="442.75" y="-343.5" font-family="Helvetica,sans-Serif" font-size="10.00">AMM.Domain.DataModel.UserCampaigns.</text>
<text text-anchor="middle" x="536.12" y="-331.5" font-family="Helvetica,sans-Serif" font-size="10.00">Recurrence.GenerateRecurrence</text>
</a>
</g>
</g>
<!-- Node11&#45;&gt;Node12 -->
<g id="edge12_Node000011_Node000012" class="edge">
<title>Node11&#45;&gt;Node12</title>
<g id="a_edge12_Node000011_Node000012"><a xlink:title=" ">
<path fill="none" stroke="#63b8ff" d="M394.87,-365.44C404.16,-364.22 413.7,-362.97 423.22,-361.72"/>
<polygon fill="#63b8ff" stroke="#63b8ff" points="423.41,-365.22 432.87,-360.45 422.49,-358.28 423.41,-365.22"/>
</a>
</g>
</g>
<!-- Node11&#45;&gt;Node15 -->
<g id="edge16_Node000011_Node000015" class="edge">
<title>Node11&#45;&gt;Node15</title>
<g id="a_edge16_Node000011_Node000015"><a xlink:title=" ">
<path fill="none" stroke="#63b8ff" d="M368.03,-354.6C377.72,-350.43 387.51,-345.85 396.5,-341 413.64,-331.75 414.74,-324 432.5,-316 436.28,-314.3 440.18,-312.71 444.17,-311.21"/>
<polygon fill="#63b8ff" stroke="#63b8ff" points="445.15,-314.58 453.45,-307.98 442.85,-307.97 445.15,-314.58"/>
</a>
</g>
</g>
<!-- Node16 -->
<g id="Node000016" class="node">
<title>Node16</title>
<g id="a_Node000016"><a xlink:href="../../d3/d8e/interface_deluxe_1_1_deluxe_brand_center_1_1_a_m_m_1_1_a_p_i_1_1_services_1_1_i_settings_service.html#ae7e408d07e4c31ff8cee83f391ceaa73" target="_top" xlink:title=" ">
<polygon fill="white" stroke="#666666" points="625.12,-431 447.12,-431 447.12,-387 625.12,-387 625.12,-431"/>
<text text-anchor="start" x="455.12" y="-417.5" font-family="Helvetica,sans-Serif" font-size="10.00">Deluxe.DeluxeBrandCenter.</text>
<text text-anchor="start" x="455.12" y="-405.5" font-family="Helvetica,sans-Serif" font-size="10.00">AMM.API.Services.ISettingsService.</text>
<text text-anchor="middle" x="536.12" y="-393.5" font-family="Helvetica,sans-Serif" font-size="10.00">SingleByName</text>
</a>
</g>
</g>
<!-- Node11&#45;&gt;Node16 -->
<g id="edge17_Node000011_Node000016" class="edge">
<title>Node11&#45;&gt;Node16</title>
<g id="a_edge17_Node000011_Node000016"><a xlink:title=" ">
<path fill="none" stroke="#63b8ff" d="M394.87,-389.33C408.21,-391.2 422.05,-393.14 435.61,-395.04"/>
<polygon fill="#63b8ff" stroke="#63b8ff" points="435.03,-398.49 445.42,-396.42 436.01,-391.56 435.03,-398.49"/>
</a>
</g>
</g>
<!-- Node13 -->
<g id="Node000013" class="node">
<title>Node13</title>
<g id="a_Node000013"><a xlink:href="../../de/d83/class_deluxe_1_1_deluxe_brand_center_1_1_a_m_m_1_1_domain_1_1_data_model_1_1_user_campaigns_1_1_recurrence.html#a3dc0d3fb258517eff2f019ffda985c31" target="_top" xlink:title=" ">
<polygon fill="white" stroke="#666666" points="878.5,-324 675.75,-324 675.75,-280 878.5,-280 878.5,-324"/>
<text text-anchor="start" x="683.75" y="-310.5" font-family="Helvetica,sans-Serif" font-size="10.00">Deluxe.DeluxeBrandCenter.</text>
<text text-anchor="start" x="683.75" y="-298.5" font-family="Helvetica,sans-Serif" font-size="10.00">AMM.Domain.DataModel.UserCampaigns.</text>
<text text-anchor="middle" x="777.12" y="-286.5" font-family="Helvetica,sans-Serif" font-size="10.00">Recurrence.Recurrence</text>
</a>
</g>
</g>
<!-- Node12&#45;&gt;Node13 -->
<g id="edge13_Node000012_Node000013" class="edge">
<title>Node12&#45;&gt;Node13</title>
<g id="a_edge13_Node000012_Node000013"><a xlink:title=" ">
<path fill="none" stroke="#63b8ff" d="M637.79,-328.05C646.58,-326.39 655.51,-324.71 664.38,-323.04"/>
<polygon fill="#63b8ff" stroke="#63b8ff" points="664.91,-326.5 674.09,-321.21 663.61,-319.62 664.91,-326.5"/>
</a>
</g>
</g>
<!-- Node14 -->
<g id="Node000014" class="node">
<title>Node14</title>
<g id="a_Node000014"><a xlink:href="../../d2/db4/class_deluxe_1_1_deluxe_brand_center_1_1_a_m_m_1_1_domain_1_1_utility_1_1_campaign_schedule_helper.html#a5daae7230b610f054319feebd724b4d2" target="_top" xlink:title=" ">
<polygon fill="white" stroke="#666666" points="872.88,-386 681.38,-386 681.38,-342 872.88,-342 872.88,-386"/>
<text text-anchor="start" x="689.38" y="-372.5" font-family="Helvetica,sans-Serif" font-size="10.00">Deluxe.DeluxeBrandCenter.</text>
<text text-anchor="start" x="689.38" y="-360.5" font-family="Helvetica,sans-Serif" font-size="10.00">AMM.Domain.Utility.CampaignSchedule</text>
<text text-anchor="middle" x="777.12" y="-348.5" font-family="Helvetica,sans-Serif" font-size="10.00">Helper.ReturnMonthNumber</text>
</a>
</g>
</g>
<!-- Node12&#45;&gt;Node14 -->
<g id="edge14_Node000012_Node000014" class="edge">
<title>Node12&#45;&gt;Node14</title>
<g id="a_edge14_Node000012_Node000014"><a xlink:title=" ">
<path fill="none" stroke="#63b8ff" d="M637.79,-354.16C648.28,-354.91 658.97,-355.67 669.53,-356.42"/>
<polygon fill="#63b8ff" stroke="#63b8ff" points="669.18,-359.9 679.4,-357.12 669.68,-352.92 669.18,-359.9"/>
</a>
</g>
</g>
<!-- Node17&#45;&gt;Node9 -->
<g id="edge19_Node000017_Node000009" class="edge">
<title>Node17&#45;&gt;Node9</title>
<g id="a_edge19_Node000017_Node000009"><a xlink:title=" ">
<path fill="none" stroke="#63b8ff" d="M374.68,-61.5C393.22,-56.34 413.45,-51.61 432.5,-49 523.76,-36.51 548.21,-38.73 639.75,-49 654.7,-50.68 670.4,-53.36 685.62,-56.46"/>
<polygon fill="#63b8ff" stroke="#63b8ff" points="684.6,-59.82 695.11,-58.47 686.05,-52.98 684.6,-59.82"/>
</a>
</g>
</g>
<!-- Node18 -->
<g id="Node000018" class="node">
<title>Node18</title>
<g id="a_Node000018"><a xlink:href="../../d6/d65/class_deluxe_1_1_deluxe_brand_center_1_1_a_m_m_1_1_a_p_i_1_1_services_1_1_campaign_builder_service.html#aa547f128337d386d430cdb3079f2d4c3" target="_top" xlink:title=" ">
<polygon fill="white" stroke="#666666" points="624.75,-102 447.5,-102 447.5,-58 624.75,-58 624.75,-102"/>
<text text-anchor="start" x="455.5" y="-88.5" font-family="Helvetica,sans-Serif" font-size="10.00">Deluxe.DeluxeBrandCenter.</text>
<text text-anchor="start" x="455.5" y="-76.5" font-family="Helvetica,sans-Serif" font-size="10.00">AMM.API.Services.CampaignBuilder</text>
<text text-anchor="middle" x="536.12" y="-64.5" font-family="Helvetica,sans-Serif" font-size="10.00">Service.SetMessageBody</text>
</a>
</g>
</g>
<!-- Node17&#45;&gt;Node18 -->
<g id="edge20_Node000017_Node000018" class="edge">
<title>Node17&#45;&gt;Node18</title>
<g id="a_edge20_Node000017_Node000018"><a xlink:title=" ">
<path fill="none" stroke="#63b8ff" d="M394.87,-82.46C408.31,-82.22 422.25,-81.98 435.91,-81.74"/>
<polygon fill="#63b8ff" stroke="#63b8ff" points="435.85,-85.24 445.78,-81.57 435.72,-78.24 435.85,-85.24"/>
</a>
</g>
</g>
<!-- Node18&#45;&gt;Node8 -->
<g id="edge21_Node000018_Node000008" class="edge">
<title>Node18&#45;&gt;Node8</title>
<g id="a_edge21_Node000018_Node000008"><a xlink:title=" ">
<path fill="none" stroke="#63b8ff" d="M611.76,-102.49C636.81,-110.03 664.93,-118.5 690.74,-126.28"/>
<polygon fill="#63b8ff" stroke="#63b8ff" points="689.61,-129.59 700.19,-129.13 691.63,-122.89 689.61,-129.59"/>
</a>
</g>
</g>
<!-- Node18&#45;&gt;Node9 -->
<g id="edge22_Node000018_Node000009" class="edge">
<title>Node18&#45;&gt;Node9</title>
<g id="a_edge22_Node000018_Node000009"><a xlink:title=" ">
<path fill="none" stroke="#63b8ff" d="M625.1,-80C644.68,-80 665.48,-80 685.18,-80"/>
<polygon fill="#63b8ff" stroke="#63b8ff" points="685.12,-83.5 695.12,-80 685.12,-76.5 685.12,-83.5"/>
</a>
</g>
</g>
</g>
</svg>
