<?xml version="1.0" encoding="UTF-8" standalone="no"?>
<!DOCTYPE svg PUBLIC "-//W3C//DTD SVG 1.1//EN"
 "http://www.w3.org/Graphics/SVG/1.1/DTD/svg11.dtd">
<!-- Generated by graphviz version 12.1.1 (20240910.0053)
 -->
<!-- Title: Deluxe.DeluxeBrandCenter.AMM.API.Services.CampaignBuilderService.MapSocialElementToXML Pages: 1 -->
<!--zoomable 424 -->

<svg id="main" version="1.1" xmlns="http://www.w3.org/2000/svg" xmlns:xlink="http://www.w3.org/1999/xlink" xml:space="preserve" onload="init(evt)">

<style type="text/css"><![CDATA[
.node, .edge {opacity: 0.7;}
.node.selected, .edge.selected {opacity: 1;}
.edge:hover path { stroke: red; }
.edge:hover polygon { stroke: red; fill: red; }
]]></style>

<defs>
  <circle id="rim" cx="0" cy="0" r="7"/>
  <circle id="rim2" cx="0" cy="0" r="3.5"/>
  <g id="zoomPlus">
    <use xlink:href="#rim" fill="#404040"><set attributeName="fill" to="#808080" begin="zoomplus.mouseover" end="zoomplus.mouseout"/></use>
    <path d="M-4,0h8M0,-4v8" fill="none" stroke="white" stroke-width="1.5" pointer-events="none"/>
  </g>
  <g id="zoomMin">
    <use xlink:href="#rim" fill="#404040"><set attributeName="fill" to="#808080" begin="zoomminus.mouseover" end="zoomminus.mouseout"/></use>
    <path d="M-4,0h8" fill="none" stroke="white" stroke-width="1.5" pointer-events="none"/>
  </g>
  <g id="arrowUp" transform="translate(30 24)">
    <use xlink:href="#rim"/>
    <path pointer-events="none" fill="none" stroke="white" stroke-width="1.5" d="M0,-3.0v7 M-2.5,-0.5L0,-3.0L2.5,-0.5"/>
  </g>
  <g id="arrowRight" transform="rotate(90) translate(36 -43)">
    <use xlink:href="#rim"/>
    <path pointer-events="none" fill="none" stroke="white" stroke-width="1.5" d="M0,-3.0v7 M-2.5,-0.5L0,-3.0L2.5,-0.5"/>
  </g>
  <g id="arrowDown" transform="rotate(180) translate(-30 -48)">
    <use xlink:href="#rim"/>
    <path pointer-events="none" fill="none" stroke="white" stroke-width="1.5" d="M0,-3.0v7 M-2.5,-0.5L0,-3.0L2.5,-0.5"/>
  </g>
  <g id="arrowLeft" transform="rotate(270) translate(-36 17)">
    <use xlink:href="#rim"/>
    <path pointer-events="none" fill="none" stroke="white" stroke-width="1.5" d="M0,-3.0v7 M-2.5,-0.5L0,-3.0L2.5,-0.5"/>
  </g>
  <g id="resetDef">
    <use xlink:href="#rim2" fill="#404040"><set attributeName="fill" to="#808080" begin="reset.mouseover" end="reset.mouseout"/></use>
  </g>
</defs>
<script type="application/ecmascript">
var viewWidth = 667;
var viewHeight = 424;
var sectionId = 'dynsection-41';
</script>
<script type="application/ecmascript" xlink:href="../../svg.min.js"/>
<svg id="graph" class="graph">
<g id="viewport">
<title>Deluxe.DeluxeBrandCenter.AMM.API.Services.CampaignBuilderService.MapSocialElementToXML</title>
<!-- Node1 -->
<g id="Node000001" class="node">
<title>Node1</title>
<g id="a_Node000001"><a xlink:title=" ">
<polygon fill="#999999" stroke="#666666" points="177.25,-230 0,-230 0,-186 177.25,-186 177.25,-230"/>
<text text-anchor="start" x="8" y="-216.5" font-family="Helvetica,sans-Serif" font-size="10.00">Deluxe.DeluxeBrandCenter.</text>
<text text-anchor="start" x="8" y="-204.5" font-family="Helvetica,sans-Serif" font-size="10.00">AMM.API.Services.CampaignBuilder</text>
<text text-anchor="middle" x="88.62" y="-192.5" font-family="Helvetica,sans-Serif" font-size="10.00">Service.MapSocialElementToXML</text>
</a>
</g>
</g>
<!-- Node2 -->
<g id="Node000002" class="node">
<title>Node2</title>
<g id="a_Node000002"><a xlink:href="../../df/db6/interface_deluxe_1_1_deluxe_brand_center_1_1_a_m_m_1_1_infrastructure_1_1_a_w_s_1_1_s3_1_1_i_amazon_s3_service.html#ad8b9fc7f361abef30885bd62c0cca386" target="_top" xlink:title=" ">
<polygon fill="white" stroke="#666666" points="408.12,-416 225.62,-416 225.62,-372 408.12,-372 408.12,-416"/>
<text text-anchor="start" x="233.62" y="-402.5" font-family="Helvetica,sans-Serif" font-size="10.00">Deluxe.DeluxeBrandCenter.</text>
<text text-anchor="start" x="233.62" y="-390.5" font-family="Helvetica,sans-Serif" font-size="10.00">AMM.Infrastructure.AWS.S3.IAmazon</text>
<text text-anchor="middle" x="316.88" y="-378.5" font-family="Helvetica,sans-Serif" font-size="10.00">S3Service.DownloadString</text>
</a>
</g>
</g>
<!-- Node1&#45;&gt;Node2 -->
<g id="edge1_Node000001_Node000002" class="edge">
<title>Node1&#45;&gt;Node2</title>
<g id="a_edge1_Node000001_Node000002"><a xlink:title=" ">
<path fill="none" stroke="#63b8ff" d="M101.48,-230.28C120.56,-264 161.24,-327.77 213.25,-363 214.87,-364.09 216.52,-365.15 218.21,-366.17"/>
<polygon fill="#63b8ff" stroke="#63b8ff" points="216.43,-369.19 226.88,-370.9 219.78,-363.04 216.43,-369.19"/>
</a>
</g>
</g>
<!-- Node3 -->
<g id="Node000003" class="node">
<title>Node3</title>
<g id="a_Node000003"><a xlink:href="../../d4/df2/class_deluxe_1_1_deluxe_brand_center_1_1_a_m_m_1_1_domain_1_1_view_model_1_1_sharing_request.html#ab077ddead710cc2bf081ae560e4e3ee9" target="_top" xlink:title=" ">
<polygon fill="white" stroke="#666666" points="418.25,-354 215.5,-354 215.5,-310 418.25,-310 418.25,-354"/>
<text text-anchor="start" x="223.5" y="-340.5" font-family="Helvetica,sans-Serif" font-size="10.00">Deluxe.DeluxeBrandCenter.</text>
<text text-anchor="start" x="223.5" y="-328.5" font-family="Helvetica,sans-Serif" font-size="10.00">AMM.Domain.ViewModel.SharingRequest.</text>
<text text-anchor="middle" x="316.88" y="-316.5" font-family="Helvetica,sans-Serif" font-size="10.00">GenerateSharingRequest</text>
</a>
</g>
</g>
<!-- Node1&#45;&gt;Node3 -->
<g id="edge2_Node000001_Node000003" class="edge">
<title>Node1&#45;&gt;Node3</title>
<g id="a_edge2_Node000001_Node000003"><a xlink:title=" ">
<path fill="none" stroke="#63b8ff" d="M113.92,-230.41C137.66,-251.28 175.64,-281.94 213.25,-301 216.13,-302.46 219.09,-303.86 222.11,-305.21"/>
<polygon fill="#63b8ff" stroke="#63b8ff" points="220.58,-308.37 231.15,-309.01 223.28,-301.91 220.58,-308.37"/>
</a>
</g>
</g>
<!-- Node5 -->
<g id="Node000005" class="node">
<title>Node5</title>
<g id="a_Node000005"><a xlink:href="../../d8/d2a/class_deluxe_1_1_deluxe_brand_center_1_1_a_m_m_1_1_domain_1_1_view_model_1_1_campaign_builder_1_1_comment.html#a4a056a46f74757164c6d2fc2c69a86f0" target="_top" xlink:title=" ">
<polygon fill="white" stroke="#666666" points="420.5,-292 213.25,-292 213.25,-248 420.5,-248 420.5,-292"/>
<text text-anchor="start" x="221.25" y="-278.5" font-family="Helvetica,sans-Serif" font-size="10.00">Deluxe.DeluxeBrandCenter.</text>
<text text-anchor="start" x="221.25" y="-266.5" font-family="Helvetica,sans-Serif" font-size="10.00">AMM.Domain.ViewModel.CampaignBuilder.</text>
<text text-anchor="middle" x="316.88" y="-254.5" font-family="Helvetica,sans-Serif" font-size="10.00">Comment.GetComment</text>
</a>
</g>
</g>
<!-- Node1&#45;&gt;Node5 -->
<g id="edge4_Node000001_Node000005" class="edge">
<title>Node1&#45;&gt;Node5</title>
<g id="a_edge4_Node000001_Node000005"><a xlink:title=" ">
<path fill="none" stroke="#63b8ff" d="M171.63,-230.47C188.22,-235.02 205.79,-239.83 222.74,-244.48"/>
<polygon fill="#63b8ff" stroke="#63b8ff" points="221.74,-247.83 232.31,-247.1 223.59,-241.08 221.74,-247.83"/>
</a>
</g>
</g>
<!-- Node6 -->
<g id="Node000006" class="node">
<title>Node6</title>
<g id="a_Node000006"><a xlink:href="../../df/db6/interface_deluxe_1_1_deluxe_brand_center_1_1_a_m_m_1_1_infrastructure_1_1_a_w_s_1_1_s3_1_1_i_amazon_s3_service.html#afc3335f03278900df478e1324f61ea07" target="_top" xlink:title=" ">
<polygon fill="white" stroke="#666666" points="408.12,-230 225.62,-230 225.62,-186 408.12,-186 408.12,-230"/>
<text text-anchor="start" x="233.62" y="-216.5" font-family="Helvetica,sans-Serif" font-size="10.00">Deluxe.DeluxeBrandCenter.</text>
<text text-anchor="start" x="233.62" y="-204.5" font-family="Helvetica,sans-Serif" font-size="10.00">AMM.Infrastructure.AWS.S3.IAmazon</text>
<text text-anchor="middle" x="316.88" y="-192.5" font-family="Helvetica,sans-Serif" font-size="10.00">S3Service.GetS3RootUrl</text>
</a>
</g>
</g>
<!-- Node1&#45;&gt;Node6 -->
<g id="edge5_Node000001_Node000006" class="edge">
<title>Node1&#45;&gt;Node6</title>
<g id="a_edge5_Node000001_Node000006"><a xlink:title=" ">
<path fill="none" stroke="#63b8ff" d="M177.75,-208C189.59,-208 201.83,-208 213.89,-208"/>
<polygon fill="#63b8ff" stroke="#63b8ff" points="213.87,-211.5 223.87,-208 213.87,-204.5 213.87,-211.5"/>
</a>
</g>
</g>
<!-- Node7 -->
<g id="Node000007" class="node">
<title>Node7</title>
<g id="a_Node000007"><a xlink:href="../../d5/da1/class_deluxe_1_1_deluxe_brand_center_1_1_a_m_m_1_1_domain_1_1_utility_1_1_util.html#af372b5defd8a37284b822c7b0b1a49f7" target="_top" xlink:title=" ">
<polygon fill="white" stroke="#666666" points="397.25,-168 236.5,-168 236.5,-124 397.25,-124 397.25,-168"/>
<text text-anchor="start" x="244.5" y="-154.5" font-family="Helvetica,sans-Serif" font-size="10.00">Deluxe.DeluxeBrandCenter.</text>
<text text-anchor="start" x="244.5" y="-142.5" font-family="Helvetica,sans-Serif" font-size="10.00">AMM.Domain.Utility.Util.Replace</text>
<text text-anchor="middle" x="316.88" y="-130.5" font-family="Helvetica,sans-Serif" font-size="10.00">StageFolder</text>
</a>
</g>
</g>
<!-- Node1&#45;&gt;Node7 -->
<g id="edge6_Node000001_Node000007" class="edge">
<title>Node1&#45;&gt;Node7</title>
<g id="a_edge6_Node000001_Node000007"><a xlink:title=" ">
<path fill="none" stroke="#63b8ff" d="M171.63,-185.53C189.01,-180.76 207.46,-175.71 225.15,-170.86"/>
<polygon fill="#63b8ff" stroke="#63b8ff" points="225.87,-174.29 234.58,-168.28 224.02,-167.54 225.87,-174.29"/>
</a>
</g>
</g>
<!-- Node8 -->
<g id="Node000008" class="node">
<title>Node8</title>
<g id="a_Node000008"><a xlink:href="../../db/dc5/interface_deluxe_1_1_deluxe_brand_center_1_1_a_m_m_1_1_a_p_i_1_1_services_1_1_i_persona_service.html#a04d89250da1b31cb913d3005ffb1f6f7" target="_top" xlink:title=" ">
<polygon fill="white" stroke="#666666" points="405.88,-106 227.88,-106 227.88,-62 405.88,-62 405.88,-106"/>
<text text-anchor="start" x="235.88" y="-92.5" font-family="Helvetica,sans-Serif" font-size="10.00">Deluxe.DeluxeBrandCenter.</text>
<text text-anchor="start" x="235.88" y="-80.5" font-family="Helvetica,sans-Serif" font-size="10.00">AMM.API.Services.IPersonaService.</text>
<text text-anchor="middle" x="316.88" y="-68.5" font-family="Helvetica,sans-Serif" font-size="10.00">Single</text>
</a>
</g>
</g>
<!-- Node1&#45;&gt;Node8 -->
<g id="edge7_Node000001_Node000008" class="edge">
<title>Node1&#45;&gt;Node8</title>
<g id="a_edge7_Node000001_Node000008"><a xlink:title=" ">
<path fill="none" stroke="#63b8ff" d="M113.92,-185.59C137.66,-164.72 175.64,-134.06 213.25,-115 216.13,-113.54 219.09,-112.14 222.11,-110.79"/>
<polygon fill="#63b8ff" stroke="#63b8ff" points="223.28,-114.09 231.15,-106.99 220.58,-107.63 223.28,-114.09"/>
</a>
</g>
</g>
<!-- Node9 -->
<g id="Node000009" class="node">
<title>Node9</title>
<g id="a_Node000009"><a xlink:href="../../df/db6/interface_deluxe_1_1_deluxe_brand_center_1_1_a_m_m_1_1_infrastructure_1_1_a_w_s_1_1_s3_1_1_i_amazon_s3_service.html#a959eac40ddb2914db1fa1d64fdbcc511" target="_top" xlink:title=" ">
<polygon fill="white" stroke="#666666" points="408.12,-44 225.62,-44 225.62,0 408.12,0 408.12,-44"/>
<text text-anchor="start" x="233.62" y="-30.5" font-family="Helvetica,sans-Serif" font-size="10.00">Deluxe.DeluxeBrandCenter.</text>
<text text-anchor="start" x="233.62" y="-18.5" font-family="Helvetica,sans-Serif" font-size="10.00">AMM.Infrastructure.AWS.S3.IAmazon</text>
<text text-anchor="middle" x="316.88" y="-6.5" font-family="Helvetica,sans-Serif" font-size="10.00">S3Service.UploadText</text>
</a>
</g>
</g>
<!-- Node1&#45;&gt;Node9 -->
<g id="edge8_Node000001_Node000009" class="edge">
<title>Node1&#45;&gt;Node9</title>
<g id="a_edge8_Node000001_Node000009"><a xlink:title=" ">
<path fill="none" stroke="#63b8ff" d="M101.48,-185.72C120.56,-152 161.24,-88.23 213.25,-53 214.87,-51.91 216.52,-50.85 218.21,-49.83"/>
<polygon fill="#63b8ff" stroke="#63b8ff" points="219.78,-52.96 226.88,-45.1 216.43,-46.81 219.78,-52.96"/>
</a>
</g>
</g>
<!-- Node4 -->
<g id="Node000004" class="node">
<title>Node4</title>
<g id="a_Node000004"><a xlink:href="../../d4/df2/class_deluxe_1_1_deluxe_brand_center_1_1_a_m_m_1_1_domain_1_1_view_model_1_1_sharing_request.html#ac72d5a6104e6e33b42a67ea339621fbc" target="_top" xlink:title=" ">
<polygon fill="white" stroke="#666666" points="659.25,-354 456.5,-354 456.5,-310 659.25,-310 659.25,-354"/>
<text text-anchor="start" x="464.5" y="-340.5" font-family="Helvetica,sans-Serif" font-size="10.00">Deluxe.DeluxeBrandCenter.</text>
<text text-anchor="start" x="464.5" y="-328.5" font-family="Helvetica,sans-Serif" font-size="10.00">AMM.Domain.ViewModel.SharingRequest.</text>
<text text-anchor="middle" x="557.88" y="-316.5" font-family="Helvetica,sans-Serif" font-size="10.00">SharingRequest</text>
</a>
</g>
</g>
<!-- Node3&#45;&gt;Node4 -->
<g id="edge3_Node000003_Node000004" class="edge">
<title>Node3&#45;&gt;Node4</title>
<g id="a_edge3_Node000003_Node000004"><a xlink:title=" ">
<path fill="none" stroke="#63b8ff" d="M418.54,-332C427.23,-332 436.06,-332 444.84,-332"/>
<polygon fill="#63b8ff" stroke="#63b8ff" points="444.81,-335.5 454.81,-332 444.81,-328.5 444.81,-335.5"/>
</a>
</g>
</g>
</g>
</svg>

<g id="navigator" transform="translate(0 0)" fill="#404254">
  <rect fill="#f2f5e9" fill-opacity="0.5" stroke="#606060" stroke-width=".5" x="0" y="0" width="60" height="60"/>
  <use id="zoomplus" xlink:href="#zoomPlus" x="17" y="9" onmousedown="handleZoom(evt,'in')"/>
  <use id="zoomminus" xlink:href="#zoomMin" x="42" y="9" onmousedown="handleZoom(evt,'out')"/>
  <use id="reset" xlink:href="#resetDef" x="30" y="36" onmousedown="handleReset()"/>
   <use id="arrowup" xlink:href="#arrowUp" x="0" y="0" onmousedown="handlePan(0,-1)"/>
  <use id="arrowright" xlink:href="#arrowRight" x="0" y="0" onmousedown="handlePan(1,0)"/>
  <use id="arrowdown" xlink:href="#arrowDown" x="0" y="0" onmousedown="handlePan(0,1)"/>
  <use id="arrowleft" xlink:href="#arrowLeft" x="0" y="0" onmousedown="handlePan(-1,0)"/>
</g>
<svg viewBox="0 0 15 15" width="100%" height="30px" preserveAspectRatio="xMaxYMin meet">
 <g id="arrow_out" transform="scale(0.3 0.3)">
  <a xlink:href="class_deluxe_1_1_deluxe_brand_center_1_1_a_m_m_1_1_a_p_i_1_1_services_1_1_campaign_builder_service_af750674ed0f54f17fe4e2987ff7c0a63_cgraph_org.svg" target="_base">
   <rect id="button" ry="5" rx="5" y="6" x="6" height="38" width="38"
        fill="#f2f5e9" fill-opacity="0.5" stroke="#606060" stroke-width="1.0"/>
   <path id="arrow"
     d="M 11.500037,31.436501 C 11.940474,20.09759 22.043105,11.32322 32.158766,21.979434 L 37.068811,17.246167 C 37.068811,17.246167 37.088388,32 37.088388,32 L 22.160133,31.978069 C 22.160133,31.978069 26.997745,27.140456 26.997745,27.140456 C 18.528582,18.264221 13.291696,25.230495 11.500037,31.436501 z"
     style="fill:#404040;"/>
  </a>
 </g>
</svg>

<style type='text/css'>
<![CDATA[
[data-mouse-over-selected='false'] { opacity: 0.7; }
[data-mouse-over-selected='true']  { opacity: 1.0; }
]]>
</style>
<script type="application/ecmascript"><![CDATA[
document.addEventListener('DOMContentLoaded', (event) => {
  highlightEdges();
  highlightAdjacentNodes();
});
]]></script>
</svg>
