<?xml version="1.0" encoding="UTF-8" standalone="no"?>
<!DOCTYPE svg PUBLIC "-//W3C//DTD SVG 1.1//EN"
 "http://www.w3.org/Graphics/SVG/1.1/DTD/svg11.dtd">
<!-- Generated by graphviz version 12.1.1 (20240910.0053)
 -->
<!-- Title: Deluxe.DeluxeBrandCenter.AMM.API.Services.CampaignBuilderService.LaunchAlreadyLaunchedCampaign Pages: 1 -->
<svg width="1344pt" height="910pt"
 viewBox="0.00 0.00 1343.75 910.00" xmlns="http://www.w3.org/2000/svg" xmlns:xlink="http://www.w3.org/1999/xlink">
<g id="graph0" class="graph" transform="scale(1 1) rotate(0) translate(4 906)">
<title>Deluxe.DeluxeBrandCenter.AMM.API.Services.CampaignBuilderService.LaunchAlreadyLaunchedCampaign</title>
<!-- Node1 -->
<g id="Node000001" class="node">
<title>Node1</title>
<g id="a_Node000001"><a xlink:title=" ">
<polygon fill="#999999" stroke="#666666" points="202.75,-249 0,-249 0,-205 202.75,-205 202.75,-249"/>
<text text-anchor="start" x="8" y="-235.5" font-family="Helvetica,sans-Serif" font-size="10.00">Deluxe.DeluxeBrandCenter.</text>
<text text-anchor="start" x="8" y="-223.5" font-family="Helvetica,sans-Serif" font-size="10.00">AMM.API.Services.CampaignBuilder</text>
<text text-anchor="middle" x="101.38" y="-211.5" font-family="Helvetica,sans-Serif" font-size="10.00">Service.LaunchAlreadyLaunchedCampaign</text>
</a>
</g>
</g>
<!-- Node2 -->
<g id="Node000002" class="node">
<title>Node2</title>
<g id="a_Node000002"><a xlink:href="../../d6/d65/class_deluxe_1_1_deluxe_brand_center_1_1_a_m_m_1_1_a_p_i_1_1_services_1_1_campaign_builder_service.html#a6703c8b60de403fb70c7b691d4d7c2a9" target="_top" xlink:title=" ">
<polygon fill="white" stroke="#666666" points="416,-280 238.75,-280 238.75,-236 416,-236 416,-280"/>
<text text-anchor="start" x="246.75" y="-266.5" font-family="Helvetica,sans-Serif" font-size="10.00">Deluxe.DeluxeBrandCenter.</text>
<text text-anchor="start" x="246.75" y="-254.5" font-family="Helvetica,sans-Serif" font-size="10.00">AMM.API.Services.CampaignBuilder</text>
<text text-anchor="middle" x="327.38" y="-242.5" font-family="Helvetica,sans-Serif" font-size="10.00">Service.MapUserCampaignToXML</text>
</a>
</g>
</g>
<!-- Node1&#45;&gt;Node2 -->
<g id="edge1_Node000001_Node000002" class="edge">
<title>Node1&#45;&gt;Node2</title>
<g id="a_edge1_Node000001_Node000002"><a xlink:title=" ">
<path fill="none" stroke="#63b8ff" d="M203.24,-240.96C211.21,-242.06 219.25,-243.18 227.21,-244.28"/>
<polygon fill="#63b8ff" stroke="#63b8ff" points="226.51,-247.71 236.89,-245.62 227.47,-240.78 226.51,-247.71"/>
</a>
</g>
</g>
<!-- Node30 -->
<g id="Node000030" class="node">
<title>Node30</title>
<g id="a_Node000030"><a xlink:href="../../d6/d65/class_deluxe_1_1_deluxe_brand_center_1_1_a_m_m_1_1_a_p_i_1_1_services_1_1_campaign_builder_service.html#a31df07ba10df99303c4d9f3ecca96405" target="_top" xlink:title=" ">
<polygon fill="white" stroke="#666666" points="416,-218 238.75,-218 238.75,-174 416,-174 416,-218"/>
<text text-anchor="start" x="246.75" y="-204.5" font-family="Helvetica,sans-Serif" font-size="10.00">Deluxe.DeluxeBrandCenter.</text>
<text text-anchor="start" x="246.75" y="-192.5" font-family="Helvetica,sans-Serif" font-size="10.00">AMM.API.Services.CampaignBuilder</text>
<text text-anchor="middle" x="327.38" y="-180.5" font-family="Helvetica,sans-Serif" font-size="10.00">Service.RevertChangesCheckIn</text>
</a>
</g>
</g>
<!-- Node1&#45;&gt;Node30 -->
<g id="edge38_Node000001_Node000030" class="edge">
<title>Node1&#45;&gt;Node30</title>
<g id="a_edge38_Node000001_Node000030"><a xlink:title=" ">
<path fill="none" stroke="#63b8ff" d="M203.24,-213.04C211.21,-211.94 219.25,-210.82 227.21,-209.72"/>
<polygon fill="#63b8ff" stroke="#63b8ff" points="227.47,-213.22 236.89,-208.38 226.51,-206.29 227.47,-213.22"/>
</a>
</g>
</g>
<!-- Node3 -->
<g id="Node000003" class="node">
<title>Node3</title>
<g id="a_Node000003"><a xlink:href="../../d6/d65/class_deluxe_1_1_deluxe_brand_center_1_1_a_m_m_1_1_a_p_i_1_1_services_1_1_campaign_builder_service.html#a00435debfde767c6070db823007d2077" target="_top" xlink:title=" ">
<polygon fill="white" stroke="#666666" points="632.25,-747 455,-747 455,-703 632.25,-703 632.25,-747"/>
<text text-anchor="start" x="463" y="-733.5" font-family="Helvetica,sans-Serif" font-size="10.00">Deluxe.DeluxeBrandCenter.</text>
<text text-anchor="start" x="463" y="-721.5" font-family="Helvetica,sans-Serif" font-size="10.00">AMM.API.Services.CampaignBuilder</text>
<text text-anchor="middle" x="543.62" y="-709.5" font-family="Helvetica,sans-Serif" font-size="10.00">Service.FillRuleGroup</text>
</a>
</g>
</g>
<!-- Node2&#45;&gt;Node3 -->
<g id="edge2_Node000002_Node000003" class="edge">
<title>Node2&#45;&gt;Node3</title>
<g id="a_edge2_Node000002_Node000003"><a xlink:title=" ">
<path fill="none" stroke="#63b8ff" d="M338.56,-280.21C373.21,-355.73 486.59,-602.86 527.63,-692.31"/>
<polygon fill="#63b8ff" stroke="#63b8ff" points="524.39,-693.65 531.74,-701.28 530.75,-690.73 524.39,-693.65"/>
</a>
</g>
</g>
<!-- Node9 -->
<g id="Node000009" class="node">
<title>Node9</title>
<g id="a_Node000009"><a xlink:href="../../d8/d2a/class_deluxe_1_1_deluxe_brand_center_1_1_a_m_m_1_1_domain_1_1_view_model_1_1_campaign_builder_1_1_comment.html#a4a056a46f74757164c6d2fc2c69a86f0" target="_top" xlink:title=" ">
<polygon fill="white" stroke="#666666" points="1096.62,-330 889.38,-330 889.38,-286 1096.62,-286 1096.62,-330"/>
<text text-anchor="start" x="897.38" y="-316.5" font-family="Helvetica,sans-Serif" font-size="10.00">Deluxe.DeluxeBrandCenter.</text>
<text text-anchor="start" x="897.38" y="-304.5" font-family="Helvetica,sans-Serif" font-size="10.00">AMM.Domain.ViewModel.CampaignBuilder.</text>
<text text-anchor="middle" x="993" y="-292.5" font-family="Helvetica,sans-Serif" font-size="10.00">Comment.GetComment</text>
</a>
</g>
</g>
<!-- Node2&#45;&gt;Node9 -->
<g id="edge8_Node000002_Node000009" class="edge">
<title>Node2&#45;&gt;Node9</title>
<g id="a_edge8_Node000002_Node000009"><a xlink:title=" ">
<path fill="none" stroke="#63b8ff" d="M416.5,-256.28C521.06,-255.38 700.46,-257.4 853,-277 865.52,-278.61 878.57,-280.81 891.45,-283.3"/>
<polygon fill="#63b8ff" stroke="#63b8ff" points="890.72,-286.72 901.22,-285.26 892.1,-279.86 890.72,-286.72"/>
</a>
</g>
</g>
<!-- Node10 -->
<g id="Node000010" class="node">
<title>Node10</title>
<g id="a_Node000010"><a xlink:href="../../d6/d65/class_deluxe_1_1_deluxe_brand_center_1_1_a_m_m_1_1_a_p_i_1_1_services_1_1_campaign_builder_service.html#a9e215d58437e7593cd45bea7ec806076" target="_top" xlink:title=" ">
<polygon fill="white" stroke="#666666" points="634.5,-423 452.75,-423 452.75,-379 634.5,-379 634.5,-423"/>
<text text-anchor="start" x="460.75" y="-409.5" font-family="Helvetica,sans-Serif" font-size="10.00">Deluxe.DeluxeBrandCenter.</text>
<text text-anchor="start" x="460.75" y="-397.5" font-family="Helvetica,sans-Serif" font-size="10.00">AMM.API.Services.CampaignBuilder</text>
<text text-anchor="middle" x="543.62" y="-385.5" font-family="Helvetica,sans-Serif" font-size="10.00">Service.MapCampaignElementToXML</text>
</a>
</g>
</g>
<!-- Node2&#45;&gt;Node10 -->
<g id="edge9_Node000002_Node000010" class="edge">
<title>Node2&#45;&gt;Node10</title>
<g id="a_edge9_Node000002_Node000010"><a xlink:title=" ">
<path fill="none" stroke="#63b8ff" d="M361.85,-280.34C399.01,-305.14 459.07,-345.23 499.66,-372.33"/>
<polygon fill="#63b8ff" stroke="#63b8ff" points="497.51,-375.1 507.77,-377.74 501.4,-369.27 497.51,-375.1"/>
</a>
</g>
</g>
<!-- Node27 -->
<g id="Node000027" class="node">
<title>Node27</title>
<g id="a_Node000027"><a xlink:href="../../d6/d65/class_deluxe_1_1_deluxe_brand_center_1_1_a_m_m_1_1_a_p_i_1_1_services_1_1_campaign_builder_service.html#ae755929ed6203a0082c1084f0b72e501" target="_top" xlink:title=" ">
<polygon fill="white" stroke="#666666" points="632.25,-230 455,-230 455,-186 632.25,-186 632.25,-230"/>
<text text-anchor="start" x="463" y="-216.5" font-family="Helvetica,sans-Serif" font-size="10.00">Deluxe.DeluxeBrandCenter.</text>
<text text-anchor="start" x="463" y="-204.5" font-family="Helvetica,sans-Serif" font-size="10.00">AMM.API.Services.CampaignBuilder</text>
<text text-anchor="middle" x="543.62" y="-192.5" font-family="Helvetica,sans-Serif" font-size="10.00">Service.SetFilterForLaunch</text>
</a>
</g>
</g>
<!-- Node2&#45;&gt;Node27 -->
<g id="edge35_Node000002_Node000027" class="edge">
<title>Node2&#45;&gt;Node27</title>
<g id="a_edge35_Node000002_Node000027"><a xlink:title=" ">
<path fill="none" stroke="#63b8ff" d="M416.45,-237.45C425.39,-235.36 434.52,-233.23 443.57,-231.12"/>
<polygon fill="#63b8ff" stroke="#63b8ff" points="444.13,-234.58 453.08,-228.9 442.54,-227.76 444.13,-234.58"/>
</a>
</g>
</g>
<!-- Node29 -->
<g id="Node000029" class="node">
<title>Node29</title>
<g id="a_Node000029"><a xlink:href="../../d3/ddb/interface_deluxe_1_1_deluxe_brand_center_1_1_a_m_m_1_1_a_p_i_1_1_services_1_1_i_d_b_service.html#a65b574cf2a33323f24c4657b8b606f68" target="_top" xlink:title=" ">
<polygon fill="white" stroke="#666666" points="635.25,-168 452,-168 452,-136 635.25,-136 635.25,-168"/>
<text text-anchor="start" x="460" y="-154.5" font-family="Helvetica,sans-Serif" font-size="10.00">Deluxe.DeluxeBrandCenter.</text>
<text text-anchor="middle" x="543.62" y="-142.5" font-family="Helvetica,sans-Serif" font-size="10.00">AMM.API.Services.IDBService.Single</text>
</a>
</g>
</g>
<!-- Node2&#45;&gt;Node29 -->
<g id="edge37_Node000002_Node000029" class="edge">
<title>Node2&#45;&gt;Node29</title>
<g id="a_edge37_Node000002_Node000029"><a xlink:title=" ">
<path fill="none" stroke="#63b8ff" d="M402.31,-235.68C407.12,-233.08 411.74,-230.19 416,-227 437.91,-210.57 429.52,-192.64 452,-177 453.61,-175.88 455.27,-174.81 456.97,-173.78"/>
<polygon fill="#63b8ff" stroke="#63b8ff" points="458.56,-176.9 465.76,-169.14 455.29,-170.72 458.56,-176.9"/>
</a>
</g>
</g>
<!-- Node4 -->
<g id="Node000004" class="node">
<title>Node4</title>
<g id="a_Node000004"><a xlink:href="../../d9/daf/interface_deluxe_1_1_deluxe_brand_center_1_1_a_m_m_1_1_a_p_i_1_1_services_1_1_i_user_campaign_service.html#abf4213d8614008f9bff0206be36026c2" target="_top" xlink:title=" ">
<polygon fill="white" stroke="#666666" points="848.12,-840 676.12,-840 676.12,-796 848.12,-796 848.12,-840"/>
<text text-anchor="start" x="684.12" y="-826.5" font-family="Helvetica,sans-Serif" font-size="10.00">Deluxe.DeluxeBrandCenter.</text>
<text text-anchor="start" x="684.12" y="-814.5" font-family="Helvetica,sans-Serif" font-size="10.00">AMM.API.Services.IUserCampaign</text>
<text text-anchor="middle" x="762.12" y="-802.5" font-family="Helvetica,sans-Serif" font-size="10.00">Service.FillAdvisorContentVariables</text>
</a>
</g>
</g>
<!-- Node3&#45;&gt;Node4 -->
<g id="edge3_Node000003_Node000004" class="edge">
<title>Node3&#45;&gt;Node4</title>
<g id="a_edge3_Node000003_Node000004"><a xlink:title=" ">
<path fill="none" stroke="#63b8ff" d="M587.1,-747.43C611.4,-759.84 642.66,-775.12 671.25,-787 674.87,-788.5 678.58,-789.99 682.35,-791.46"/>
<polygon fill="#63b8ff" stroke="#63b8ff" points="681.06,-794.71 691.65,-794.99 683.54,-788.17 681.06,-794.71"/>
</a>
</g>
</g>
<!-- Node5 -->
<g id="Node000005" class="node">
<title>Node5</title>
<g id="a_Node000005"><a xlink:href="../../d3/ddb/interface_deluxe_1_1_deluxe_brand_center_1_1_a_m_m_1_1_a_p_i_1_1_services_1_1_i_d_b_service.html#a91f5506fa72eb65dbb71c189accac9ee" target="_top" xlink:title=" ">
<polygon fill="white" stroke="#666666" points="846.62,-778 677.62,-778 677.62,-734 846.62,-734 846.62,-778"/>
<text text-anchor="start" x="685.62" y="-764.5" font-family="Helvetica,sans-Serif" font-size="10.00">Deluxe.DeluxeBrandCenter.</text>
<text text-anchor="start" x="685.62" y="-752.5" font-family="Helvetica,sans-Serif" font-size="10.00">AMM.API.Services.IDBService.Fill</text>
<text text-anchor="middle" x="762.12" y="-740.5" font-family="Helvetica,sans-Serif" font-size="10.00">HtmlWithPersonalInfo</text>
</a>
</g>
</g>
<!-- Node3&#45;&gt;Node5 -->
<g id="edge4_Node000003_Node000005" class="edge">
<title>Node3&#45;&gt;Node5</title>
<g id="a_edge4_Node000003_Node000005"><a xlink:title=" ">
<path fill="none" stroke="#63b8ff" d="M632.68,-737.61C643.75,-739.19 655.1,-740.82 666.26,-742.42"/>
<polygon fill="#63b8ff" stroke="#63b8ff" points="665.45,-745.84 675.84,-743.79 666.44,-738.91 665.45,-745.84"/>
</a>
</g>
</g>
<!-- Node6 -->
<g id="Node000006" class="node">
<title>Node6</title>
<g id="a_Node000006"><a xlink:href="../../d5/da1/class_deluxe_1_1_deluxe_brand_center_1_1_a_m_m_1_1_domain_1_1_utility_1_1_util.html#af372b5defd8a37284b822c7b0b1a49f7" target="_top" xlink:title=" ">
<polygon fill="white" stroke="#666666" points="1073.38,-454 912.62,-454 912.62,-410 1073.38,-410 1073.38,-454"/>
<text text-anchor="start" x="920.62" y="-440.5" font-family="Helvetica,sans-Serif" font-size="10.00">Deluxe.DeluxeBrandCenter.</text>
<text text-anchor="start" x="920.62" y="-428.5" font-family="Helvetica,sans-Serif" font-size="10.00">AMM.Domain.Utility.Util.Replace</text>
<text text-anchor="middle" x="993" y="-416.5" font-family="Helvetica,sans-Serif" font-size="10.00">StageFolder</text>
</a>
</g>
</g>
<!-- Node3&#45;&gt;Node6 -->
<g id="edge5_Node000003_Node000006" class="edge">
<title>Node3&#45;&gt;Node6</title>
<g id="a_edge5_Node000003_Node000006"><a xlink:title=" ">
<path fill="none" stroke="#63b8ff" d="M584.02,-702.54C608.48,-689.4 640.92,-673.41 671.25,-663 749.3,-636.2 792.46,-681.08 853,-625 895.1,-586 855.12,-547.32 889,-501 900.9,-484.74 917.87,-471.14 934.61,-460.43"/>
<polygon fill="#63b8ff" stroke="#63b8ff" points="936.39,-463.45 943.11,-455.25 932.75,-457.47 936.39,-463.45"/>
</a>
</g>
</g>
<!-- Node7 -->
<g id="Node000007" class="node">
<title>Node7</title>
<g id="a_Node000007"><a xlink:href="../../d9/daf/interface_deluxe_1_1_deluxe_brand_center_1_1_a_m_m_1_1_a_p_i_1_1_services_1_1_i_user_campaign_service.html#a28bd0931f2370022d866af7cb1a607d8" target="_top" xlink:title=" ">
<polygon fill="white" stroke="#666666" points="847.75,-716 676.5,-716 676.5,-672 847.75,-672 847.75,-716"/>
<text text-anchor="start" x="684.5" y="-702.5" font-family="Helvetica,sans-Serif" font-size="10.00">Deluxe.DeluxeBrandCenter.</text>
<text text-anchor="start" x="684.5" y="-690.5" font-family="Helvetica,sans-Serif" font-size="10.00">AMM.API.Services.IUserCampaign</text>
<text text-anchor="middle" x="762.12" y="-678.5" font-family="Helvetica,sans-Serif" font-size="10.00">Service.SetContentVariable</text>
</a>
</g>
</g>
<!-- Node3&#45;&gt;Node7 -->
<g id="edge6_Node000003_Node000007" class="edge">
<title>Node3&#45;&gt;Node7</title>
<g id="a_edge6_Node000003_Node000007"><a xlink:title=" ">
<path fill="none" stroke="#63b8ff" d="M632.68,-712.39C643.37,-710.86 654.33,-709.29 665.12,-707.75"/>
<polygon fill="#63b8ff" stroke="#63b8ff" points="665.4,-711.24 674.8,-706.36 664.4,-704.31 665.4,-711.24"/>
</a>
</g>
</g>
<!-- Node8 -->
<g id="Node000008" class="node">
<title>Node8</title>
<g id="a_Node000008"><a xlink:href="../../d6/d65/class_deluxe_1_1_deluxe_brand_center_1_1_a_m_m_1_1_a_p_i_1_1_services_1_1_campaign_builder_service.html#a007d656c76ebba11497fe29e6a8e1388" target="_top" xlink:title=" ">
<polygon fill="white" stroke="#666666" points="850.75,-902 673.5,-902 673.5,-858 850.75,-858 850.75,-902"/>
<text text-anchor="start" x="681.5" y="-888.5" font-family="Helvetica,sans-Serif" font-size="10.00">Deluxe.DeluxeBrandCenter.</text>
<text text-anchor="start" x="681.5" y="-876.5" font-family="Helvetica,sans-Serif" font-size="10.00">AMM.API.Services.CampaignBuilder</text>
<text text-anchor="middle" x="762.12" y="-864.5" font-family="Helvetica,sans-Serif" font-size="10.00">Service.SetStageFolder</text>
</a>
</g>
</g>
<!-- Node3&#45;&gt;Node8 -->
<g id="edge7_Node000003_Node000008" class="edge">
<title>Node3&#45;&gt;Node8</title>
<g id="a_edge7_Node000003_Node000008"><a xlink:title=" ">
<path fill="none" stroke="#63b8ff" d="M562.04,-747.3C584.55,-774.77 626.23,-821.18 671.25,-849 673.15,-850.17 675.09,-851.31 677.08,-852.4"/>
<polygon fill="#63b8ff" stroke="#63b8ff" points="675.43,-855.49 685.93,-856.9 678.6,-849.25 675.43,-855.49"/>
</a>
</g>
</g>
<!-- Node11 -->
<g id="Node000011" class="node">
<title>Node11</title>
<g id="a_Node000011"><a xlink:href="../../d6/d65/class_deluxe_1_1_deluxe_brand_center_1_1_a_m_m_1_1_a_p_i_1_1_services_1_1_campaign_builder_service.html#a7bf3dc8b7c5e0b7a52d4dbdedabc25c0" target="_top" xlink:title=" ">
<polygon fill="white" stroke="#666666" points="850.75,-330 673.5,-330 673.5,-286 850.75,-286 850.75,-330"/>
<text text-anchor="start" x="681.5" y="-316.5" font-family="Helvetica,sans-Serif" font-size="10.00">Deluxe.DeluxeBrandCenter.</text>
<text text-anchor="start" x="681.5" y="-304.5" font-family="Helvetica,sans-Serif" font-size="10.00">AMM.API.Services.CampaignBuilder</text>
<text text-anchor="middle" x="762.12" y="-292.5" font-family="Helvetica,sans-Serif" font-size="10.00">Service.MapBlogElementToXML</text>
</a>
</g>
</g>
<!-- Node10&#45;&gt;Node11 -->
<g id="edge10_Node000010_Node000011" class="edge">
<title>Node10&#45;&gt;Node11</title>
<g id="a_edge10_Node000010_Node000011"><a xlink:title=" ">
<path fill="none" stroke="#63b8ff" d="M587.1,-378.57C611.4,-366.16 642.66,-350.88 671.25,-339 674.87,-337.5 678.58,-336.01 682.35,-334.54"/>
<polygon fill="#63b8ff" stroke="#63b8ff" points="683.54,-337.83 691.65,-331.01 681.06,-331.29 683.54,-337.83"/>
</a>
</g>
</g>
<!-- Node12 -->
<g id="Node000012" class="node">
<title>Node12</title>
<g id="a_Node000012"><a xlink:href="../../d6/d65/class_deluxe_1_1_deluxe_brand_center_1_1_a_m_m_1_1_a_p_i_1_1_services_1_1_campaign_builder_service.html#aee6b3e4594126dfe2b63708b87147bb1" target="_top" xlink:title=" ">
<polygon fill="white" stroke="#666666" points="853,-392 671.25,-392 671.25,-348 853,-348 853,-392"/>
<text text-anchor="start" x="679.25" y="-378.5" font-family="Helvetica,sans-Serif" font-size="10.00">Deluxe.DeluxeBrandCenter.</text>
<text text-anchor="start" x="679.25" y="-366.5" font-family="Helvetica,sans-Serif" font-size="10.00">AMM.API.Services.CampaignBuilder</text>
<text text-anchor="middle" x="762.12" y="-354.5" font-family="Helvetica,sans-Serif" font-size="10.00">Service.MapDirectMailElementToXML</text>
</a>
</g>
</g>
<!-- Node10&#45;&gt;Node12 -->
<g id="edge11_Node000010_Node000012" class="edge">
<title>Node10&#45;&gt;Node12</title>
<g id="a_edge11_Node000010_Node000012"><a xlink:title=" ">
<path fill="none" stroke="#63b8ff" d="M634.87,-388.08C643.09,-386.9 651.45,-385.7 659.75,-384.52"/>
<polygon fill="#63b8ff" stroke="#63b8ff" points="660.12,-388 669.53,-383.12 659.13,-381.07 660.12,-388"/>
</a>
</g>
</g>
<!-- Node14 -->
<g id="Node000014" class="node">
<title>Node14</title>
<g id="a_Node000014"><a xlink:href="../../d6/d65/class_deluxe_1_1_deluxe_brand_center_1_1_a_m_m_1_1_a_p_i_1_1_services_1_1_campaign_builder_service.html#a586c0501817a5a833896810a9317d00c" target="_top" xlink:title=" ">
<polygon fill="white" stroke="#666666" points="850.75,-516 673.5,-516 673.5,-472 850.75,-472 850.75,-516"/>
<text text-anchor="start" x="681.5" y="-502.5" font-family="Helvetica,sans-Serif" font-size="10.00">Deluxe.DeluxeBrandCenter.</text>
<text text-anchor="start" x="681.5" y="-490.5" font-family="Helvetica,sans-Serif" font-size="10.00">AMM.API.Services.CampaignBuilder</text>
<text text-anchor="middle" x="762.12" y="-478.5" font-family="Helvetica,sans-Serif" font-size="10.00">Service.MapEmailElementToXML</text>
</a>
</g>
</g>
<!-- Node10&#45;&gt;Node14 -->
<g id="edge13_Node000010_Node000014" class="edge">
<title>Node10&#45;&gt;Node14</title>
<g id="a_edge13_Node000010_Node000014"><a xlink:title=" ">
<path fill="none" stroke="#63b8ff" d="M587.1,-423.43C611.4,-435.84 642.66,-451.12 671.25,-463 674.87,-464.5 678.58,-465.99 682.35,-467.46"/>
<polygon fill="#63b8ff" stroke="#63b8ff" points="681.06,-470.71 691.65,-470.99 683.54,-464.17 681.06,-470.71"/>
</a>
</g>
</g>
<!-- Node18 -->
<g id="Node000018" class="node">
<title>Node18</title>
<g id="a_Node000018"><a xlink:href="../../d6/d65/class_deluxe_1_1_deluxe_brand_center_1_1_a_m_m_1_1_a_p_i_1_1_services_1_1_campaign_builder_service.html#add42dd4418158ccde63613d83cc6b7f6" target="_top" xlink:title=" ">
<polygon fill="white" stroke="#666666" points="850.75,-454 673.5,-454 673.5,-410 850.75,-410 850.75,-454"/>
<text text-anchor="start" x="681.5" y="-440.5" font-family="Helvetica,sans-Serif" font-size="10.00">Deluxe.DeluxeBrandCenter.</text>
<text text-anchor="start" x="681.5" y="-428.5" font-family="Helvetica,sans-Serif" font-size="10.00">AMM.API.Services.CampaignBuilder</text>
<text text-anchor="middle" x="762.12" y="-416.5" font-family="Helvetica,sans-Serif" font-size="10.00">Service.MapMicrositeElementToXML</text>
</a>
</g>
</g>
<!-- Node10&#45;&gt;Node18 -->
<g id="edge19_Node000010_Node000018" class="edge">
<title>Node10&#45;&gt;Node18</title>
<g id="a_edge19_Node000010_Node000018"><a xlink:title=" ">
<path fill="none" stroke="#63b8ff" d="M634.87,-413.92C643.77,-415.2 652.82,-416.49 661.8,-417.78"/>
<polygon fill="#63b8ff" stroke="#63b8ff" points="661.21,-421.23 671.61,-419.18 662.21,-414.3 661.21,-421.23"/>
</a>
</g>
</g>
<!-- Node19 -->
<g id="Node000019" class="node">
<title>Node19</title>
<g id="a_Node000019"><a xlink:href="../../d6/d65/class_deluxe_1_1_deluxe_brand_center_1_1_a_m_m_1_1_a_p_i_1_1_services_1_1_campaign_builder_service.html#ae2f681b48d3a471996c14c03a41f153d" target="_top" xlink:title=" ">
<polygon fill="white" stroke="#666666" points="850.75,-616 673.5,-616 673.5,-572 850.75,-572 850.75,-616"/>
<text text-anchor="start" x="681.5" y="-602.5" font-family="Helvetica,sans-Serif" font-size="10.00">Deluxe.DeluxeBrandCenter.</text>
<text text-anchor="start" x="681.5" y="-590.5" font-family="Helvetica,sans-Serif" font-size="10.00">AMM.API.Services.CampaignBuilder</text>
<text text-anchor="middle" x="762.12" y="-578.5" font-family="Helvetica,sans-Serif" font-size="10.00">Service.MapMicrositeSchedules</text>
</a>
</g>
</g>
<!-- Node10&#45;&gt;Node19 -->
<g id="edge21_Node000010_Node000019" class="edge">
<title>Node10&#45;&gt;Node19</title>
<g id="a_edge21_Node000010_Node000019"><a xlink:title=" ">
<path fill="none" stroke="#63b8ff" d="M557.4,-423.28C577.62,-456.75 620,-520.12 671.25,-558 675.24,-560.95 679.49,-563.69 683.91,-566.24"/>
<polygon fill="#63b8ff" stroke="#63b8ff" points="681.99,-569.18 692.46,-570.81 685.29,-563.01 681.99,-569.18"/>
</a>
</g>
</g>
<!-- Node20 -->
<g id="Node000020" class="node">
<title>Node20</title>
<g id="a_Node000020"><a xlink:href="../../d6/d65/class_deluxe_1_1_deluxe_brand_center_1_1_a_m_m_1_1_a_p_i_1_1_services_1_1_campaign_builder_service.html#a1ee9d2087d39b6615bb021ac3f84f3f3" target="_top" xlink:title=" ">
<polygon fill="white" stroke="#666666" points="1081.62,-616 904.38,-616 904.38,-572 1081.62,-572 1081.62,-616"/>
<text text-anchor="start" x="912.38" y="-602.5" font-family="Helvetica,sans-Serif" font-size="10.00">Deluxe.DeluxeBrandCenter.</text>
<text text-anchor="start" x="912.38" y="-590.5" font-family="Helvetica,sans-Serif" font-size="10.00">AMM.API.Services.CampaignBuilder</text>
<text text-anchor="middle" x="993" y="-578.5" font-family="Helvetica,sans-Serif" font-size="10.00">Service.MapScheduleToXML</text>
</a>
</g>
</g>
<!-- Node10&#45;&gt;Node20 -->
<g id="edge25_Node000010_Node000020" class="edge">
<title>Node10&#45;&gt;Node20</title>
<g id="a_edge25_Node000010_Node000020"><a xlink:title=" ">
<path fill="none" stroke="#63b8ff" d="M560.74,-423.25C582.5,-451.56 624.02,-499.78 671.25,-525 744.04,-563.88 772.34,-545.57 853,-563 865.93,-565.79 879.53,-568.77 892.96,-571.74"/>
<polygon fill="#63b8ff" stroke="#63b8ff" points="892.17,-575.15 902.69,-573.9 893.69,-568.32 892.17,-575.15"/>
</a>
</g>
</g>
<!-- Node21 -->
<g id="Node000021" class="node">
<title>Node21</title>
<g id="a_Node000021"><a xlink:href="../../d6/d65/class_deluxe_1_1_deluxe_brand_center_1_1_a_m_m_1_1_a_p_i_1_1_services_1_1_campaign_builder_service.html#af750674ed0f54f17fe4e2987ff7c0a63" target="_top" xlink:title=" ">
<polygon fill="white" stroke="#666666" points="850.75,-230 673.5,-230 673.5,-186 850.75,-186 850.75,-230"/>
<text text-anchor="start" x="681.5" y="-216.5" font-family="Helvetica,sans-Serif" font-size="10.00">Deluxe.DeluxeBrandCenter.</text>
<text text-anchor="start" x="681.5" y="-204.5" font-family="Helvetica,sans-Serif" font-size="10.00">AMM.API.Services.CampaignBuilder</text>
<text text-anchor="middle" x="762.12" y="-192.5" font-family="Helvetica,sans-Serif" font-size="10.00">Service.MapSocialElementToXML</text>
</a>
</g>
</g>
<!-- Node10&#45;&gt;Node21 -->
<g id="edge26_Node000010_Node000021" class="edge">
<title>Node10&#45;&gt;Node21</title>
<g id="a_edge26_Node000010_Node000021"><a xlink:title=" ">
<path fill="none" stroke="#63b8ff" d="M565.83,-378.67C590.38,-353.19 632.44,-310.68 671.25,-277 687.02,-263.31 705.17,-249.11 721.01,-237.17"/>
<polygon fill="#63b8ff" stroke="#63b8ff" points="722.91,-240.13 728.82,-231.34 718.72,-234.52 722.91,-240.13"/>
</a>
</g>
</g>
<!-- Node13 -->
<g id="Node000013" class="node">
<title>Node13</title>
<g id="a_Node000013"><a xlink:href="../../d9/daf/interface_deluxe_1_1_deluxe_brand_center_1_1_a_m_m_1_1_a_p_i_1_1_services_1_1_i_user_campaign_service.html#a6348293f8e92808fd02c4b807f6122e1" target="_top" xlink:title=" ">
<polygon fill="white" stroke="#666666" points="1097,-392 889,-392 889,-348 1097,-348 1097,-392"/>
<text text-anchor="start" x="897" y="-378.5" font-family="Helvetica,sans-Serif" font-size="10.00">Deluxe.DeluxeBrandCenter.</text>
<text text-anchor="start" x="897" y="-366.5" font-family="Helvetica,sans-Serif" font-size="10.00">AMM.API.Services.IUserCampaign</text>
<text text-anchor="middle" x="993" y="-354.5" font-family="Helvetica,sans-Serif" font-size="10.00">Service.NormalizeDMVariablesAndColumns</text>
</a>
</g>
</g>
<!-- Node12&#45;&gt;Node13 -->
<g id="edge12_Node000012_Node000013" class="edge">
<title>Node12&#45;&gt;Node13</title>
<g id="a_edge12_Node000012_Node000013"><a xlink:title=" ">
<path fill="none" stroke="#63b8ff" d="M853.25,-370C861.16,-370 869.23,-370 877.3,-370"/>
<polygon fill="#63b8ff" stroke="#63b8ff" points="877.18,-373.5 887.18,-370 877.18,-366.5 877.18,-373.5"/>
</a>
</g>
</g>
<!-- Node14&#45;&gt;Node6 -->
<g id="edge17_Node000014_Node000006" class="edge">
<title>Node14&#45;&gt;Node6</title>
<g id="a_edge17_Node000014_Node000006"><a xlink:title=" ">
<path fill="none" stroke="#63b8ff" d="M846.08,-471.53C864.07,-466.66 883.18,-461.48 901.45,-456.53"/>
<polygon fill="#63b8ff" stroke="#63b8ff" points="902.19,-459.96 910.93,-453.96 900.36,-453.2 902.19,-459.96"/>
</a>
</g>
</g>
<!-- Node14&#45;&gt;Node9 -->
<g id="edge14_Node000014_Node000009" class="edge">
<title>Node14&#45;&gt;Node9</title>
<g id="a_edge14_Node000014_Node000009"><a xlink:title=" ">
<path fill="none" stroke="#63b8ff" d="M842.84,-471.71C846.5,-469.12 849.93,-466.23 853,-463 892.56,-421.43 848.62,-379.78 889,-339 889.49,-338.5 889.99,-338.01 890.5,-337.53"/>
<polygon fill="#63b8ff" stroke="#63b8ff" points="892.57,-340.36 898.14,-331.34 888.17,-334.92 892.57,-340.36"/>
</a>
</g>
</g>
<!-- Node15 -->
<g id="Node000015" class="node">
<title>Node15</title>
<g id="a_Node000015"><a xlink:href="../../d6/d65/class_deluxe_1_1_deluxe_brand_center_1_1_a_m_m_1_1_a_p_i_1_1_services_1_1_campaign_builder_service.html#ab0ce675d934f0f825b75314cbe119c15" target="_top" xlink:title=" ">
<polygon fill="white" stroke="#666666" points="1081.62,-554 904.38,-554 904.38,-510 1081.62,-510 1081.62,-554"/>
<text text-anchor="start" x="912.38" y="-540.5" font-family="Helvetica,sans-Serif" font-size="10.00">Deluxe.DeluxeBrandCenter.</text>
<text text-anchor="start" x="912.38" y="-528.5" font-family="Helvetica,sans-Serif" font-size="10.00">AMM.API.Services.CampaignBuilder</text>
<text text-anchor="middle" x="993" y="-516.5" font-family="Helvetica,sans-Serif" font-size="10.00">Service.GetFromEmailAddress</text>
</a>
</g>
</g>
<!-- Node14&#45;&gt;Node15 -->
<g id="edge15_Node000014_Node000015" class="edge">
<title>Node14&#45;&gt;Node15</title>
<g id="a_edge15_Node000014_Node000015"><a xlink:title=" ">
<path fill="none" stroke="#63b8ff" d="M850.96,-508.58C864.69,-510.86 878.95,-513.23 892.91,-515.55"/>
<polygon fill="#63b8ff" stroke="#63b8ff" points="892.09,-518.96 902.53,-517.15 893.24,-512.05 892.09,-518.96"/>
</a>
</g>
</g>
<!-- Node17 -->
<g id="Node000017" class="node">
<title>Node17</title>
<g id="a_Node000017"><a xlink:href="../../db/dc5/interface_deluxe_1_1_deluxe_brand_center_1_1_a_m_m_1_1_a_p_i_1_1_services_1_1_i_persona_service.html#a04d89250da1b31cb913d3005ffb1f6f7" target="_top" xlink:title=" ">
<polygon fill="white" stroke="#666666" points="1323.38,-504 1145.38,-504 1145.38,-460 1323.38,-460 1323.38,-504"/>
<text text-anchor="start" x="1153.38" y="-490.5" font-family="Helvetica,sans-Serif" font-size="10.00">Deluxe.DeluxeBrandCenter.</text>
<text text-anchor="start" x="1153.38" y="-478.5" font-family="Helvetica,sans-Serif" font-size="10.00">AMM.API.Services.IPersonaService.</text>
<text text-anchor="middle" x="1234.38" y="-466.5" font-family="Helvetica,sans-Serif" font-size="10.00">Single</text>
</a>
</g>
</g>
<!-- Node14&#45;&gt;Node17 -->
<g id="edge18_Node000014_Node000017" class="edge">
<title>Node14&#45;&gt;Node17</title>
<g id="a_edge18_Node000014_Node000017"><a xlink:title=" ">
<path fill="none" stroke="#63b8ff" d="M851.02,-491.76C931.34,-489.71 1050,-486.68 1133.78,-484.54"/>
<polygon fill="#63b8ff" stroke="#63b8ff" points="1133.69,-488.05 1143.6,-484.29 1133.51,-481.05 1133.69,-488.05"/>
</a>
</g>
</g>
<!-- Node16 -->
<g id="Node000016" class="node">
<title>Node16</title>
<g id="a_Node000016"><a xlink:href="../../d3/d8e/interface_deluxe_1_1_deluxe_brand_center_1_1_a_m_m_1_1_a_p_i_1_1_services_1_1_i_settings_service.html#ae7e408d07e4c31ff8cee83f391ceaa73" target="_top" xlink:title=" ">
<polygon fill="white" stroke="#666666" points="1323.38,-591 1145.38,-591 1145.38,-547 1323.38,-547 1323.38,-591"/>
<text text-anchor="start" x="1153.38" y="-577.5" font-family="Helvetica,sans-Serif" font-size="10.00">Deluxe.DeluxeBrandCenter.</text>
<text text-anchor="start" x="1153.38" y="-565.5" font-family="Helvetica,sans-Serif" font-size="10.00">AMM.API.Services.ISettingsService.</text>
<text text-anchor="middle" x="1234.38" y="-553.5" font-family="Helvetica,sans-Serif" font-size="10.00">SingleByName</text>
</a>
</g>
</g>
<!-- Node15&#45;&gt;Node16 -->
<g id="edge16_Node000015_Node000016" class="edge">
<title>Node15&#45;&gt;Node16</title>
<g id="a_edge16_Node000015_Node000016"><a xlink:title=" ">
<path fill="none" stroke="#63b8ff" d="M1082.11,-545.62C1098.96,-548.22 1116.69,-550.96 1133.86,-553.62"/>
<polygon fill="#63b8ff" stroke="#63b8ff" points="1133.13,-557.05 1143.55,-555.12 1134.2,-550.13 1133.13,-557.05"/>
</a>
</g>
</g>
<!-- Node18&#45;&gt;Node6 -->
<g id="edge20_Node000018_Node000006" class="edge">
<title>Node18&#45;&gt;Node6</title>
<g id="a_edge20_Node000018_Node000006"><a xlink:title=" ">
<path fill="none" stroke="#63b8ff" d="M850.96,-432C867.35,-432 884.51,-432 900.99,-432"/>
<polygon fill="#63b8ff" stroke="#63b8ff" points="900.76,-435.5 910.76,-432 900.76,-428.5 900.76,-435.5"/>
</a>
</g>
</g>
<!-- Node19&#45;&gt;Node20 -->
<g id="edge22_Node000019_Node000020" class="edge">
<title>Node19&#45;&gt;Node20</title>
<g id="a_edge22_Node000019_Node000020"><a xlink:title=" ">
<path fill="none" stroke="#63b8ff" d="M850.96,-594C864.69,-594 878.95,-594 892.91,-594"/>
<polygon fill="#63b8ff" stroke="#63b8ff" points="892.51,-597.5 902.51,-594 892.51,-590.5 892.51,-597.5"/>
</a>
</g>
</g>
<!-- Node20&#45;&gt;Node16 -->
<g id="edge24_Node000020_Node000016" class="edge">
<title>Node20&#45;&gt;Node16</title>
<g id="a_edge24_Node000020_Node000016"><a xlink:title=" ">
<path fill="none" stroke="#63b8ff" d="M1082.11,-584.8C1098.96,-583.04 1116.69,-581.19 1133.86,-579.39"/>
<polygon fill="#63b8ff" stroke="#63b8ff" points="1133.96,-582.9 1143.54,-578.38 1133.23,-575.94 1133.96,-582.9"/>
</a>
</g>
</g>
<!-- Node20&#45;&gt;Node17 -->
<g id="edge23_Node000020_Node000017" class="edge">
<title>Node20&#45;&gt;Node17</title>
<g id="a_edge23_Node000020_Node000017"><a xlink:title=" ">
<path fill="none" stroke="#63b8ff" d="M1076.96,-571.56C1083.85,-568.94 1090.61,-566.08 1097,-563 1114.54,-554.53 1116.47,-548.31 1133,-538 1148.41,-528.38 1165.56,-518.52 1181.26,-509.81"/>
<polygon fill="#63b8ff" stroke="#63b8ff" points="1182.94,-512.88 1190.01,-504.99 1179.56,-506.75 1182.94,-512.88"/>
</a>
</g>
</g>
<!-- Node21&#45;&gt;Node6 -->
<g id="edge32_Node000021_Node000006" class="edge">
<title>Node21&#45;&gt;Node6</title>
<g id="a_edge32_Node000021_Node000006"><a xlink:title=" ">
<path fill="none" stroke="#63b8ff" d="M802.82,-230.43C820.47,-242.22 840.13,-258.16 853,-277 885.37,-324.39 848.62,-360.22 889,-401 893.04,-405.08 897.6,-408.63 902.5,-411.72"/>
<polygon fill="#63b8ff" stroke="#63b8ff" points="900.5,-414.61 910.94,-416.37 903.87,-408.48 900.5,-414.61"/>
</a>
</g>
</g>
<!-- Node21&#45;&gt;Node9 -->
<g id="edge30_Node000021_Node000009" class="edge">
<title>Node21&#45;&gt;Node9</title>
<g id="a_edge30_Node000021_Node000009"><a xlink:title=" ">
<path fill="none" stroke="#63b8ff" d="M825.6,-230.38C834.99,-234.49 844.4,-239.06 853,-244 870.58,-254.09 871.2,-262.31 889,-272 895.06,-275.3 901.48,-278.39 908.03,-281.26"/>
<polygon fill="#63b8ff" stroke="#63b8ff" points="906.44,-284.39 917.02,-285.01 909.14,-277.93 906.44,-284.39"/>
</a>
</g>
</g>
<!-- Node21&#45;&gt;Node17 -->
<g id="edge33_Node000021_Node000017" class="edge">
<title>Node21&#45;&gt;Node17</title>
<g id="a_edge33_Node000021_Node000017"><a xlink:title=" ">
<path fill="none" stroke="#63b8ff" d="M851,-230.36C863.72,-233.39 876.68,-236.36 889,-239 980.89,-258.69 1018.51,-225.32 1097,-277 1160.99,-319.13 1202.22,-402.74 1221.2,-449.11"/>
<polygon fill="#63b8ff" stroke="#63b8ff" points="1217.93,-450.37 1224.88,-458.37 1224.44,-447.78 1217.93,-450.37"/>
</a>
</g>
</g>
<!-- Node22 -->
<g id="Node000022" class="node">
<title>Node22</title>
<g id="a_Node000022"><a xlink:href="../../df/db6/interface_deluxe_1_1_deluxe_brand_center_1_1_a_m_m_1_1_infrastructure_1_1_a_w_s_1_1_s3_1_1_i_amazon_s3_service.html#ad8b9fc7f361abef30885bd62c0cca386" target="_top" xlink:title=" ">
<polygon fill="white" stroke="#666666" points="1084.25,-168 901.75,-168 901.75,-124 1084.25,-124 1084.25,-168"/>
<text text-anchor="start" x="909.75" y="-154.5" font-family="Helvetica,sans-Serif" font-size="10.00">Deluxe.DeluxeBrandCenter.</text>
<text text-anchor="start" x="909.75" y="-142.5" font-family="Helvetica,sans-Serif" font-size="10.00">AMM.Infrastructure.AWS.S3.IAmazon</text>
<text text-anchor="middle" x="993" y="-130.5" font-family="Helvetica,sans-Serif" font-size="10.00">S3Service.DownloadString</text>
</a>
</g>
</g>
<!-- Node21&#45;&gt;Node22 -->
<g id="edge27_Node000021_Node000022" class="edge">
<title>Node21&#45;&gt;Node22</title>
<g id="a_edge27_Node000021_Node000022"><a xlink:title=" ">
<path fill="none" stroke="#63b8ff" d="M846.08,-185.53C863.03,-180.94 880.98,-176.07 898.28,-171.39"/>
<polygon fill="#63b8ff" stroke="#63b8ff" points="898.75,-174.89 907.49,-168.89 896.92,-168.13 898.75,-174.89"/>
</a>
</g>
</g>
<!-- Node23 -->
<g id="Node000023" class="node">
<title>Node23</title>
<g id="a_Node000023"><a xlink:href="../../d4/df2/class_deluxe_1_1_deluxe_brand_center_1_1_a_m_m_1_1_domain_1_1_view_model_1_1_sharing_request.html#ab077ddead710cc2bf081ae560e4e3ee9" target="_top" xlink:title=" ">
<polygon fill="white" stroke="#666666" points="1094.38,-44 891.62,-44 891.62,0 1094.38,0 1094.38,-44"/>
<text text-anchor="start" x="899.62" y="-30.5" font-family="Helvetica,sans-Serif" font-size="10.00">Deluxe.DeluxeBrandCenter.</text>
<text text-anchor="start" x="899.62" y="-18.5" font-family="Helvetica,sans-Serif" font-size="10.00">AMM.Domain.ViewModel.SharingRequest.</text>
<text text-anchor="middle" x="993" y="-6.5" font-family="Helvetica,sans-Serif" font-size="10.00">GenerateSharingRequest</text>
</a>
</g>
</g>
<!-- Node21&#45;&gt;Node23 -->
<g id="edge28_Node000021_Node000023" class="edge">
<title>Node21&#45;&gt;Node23</title>
<g id="a_edge28_Node000021_Node000023"><a xlink:title=" ">
<path fill="none" stroke="#63b8ff" d="M842.84,-185.71C846.5,-183.12 849.93,-180.23 853,-177 892.56,-135.43 848.62,-93.78 889,-53 889.49,-52.5 889.99,-52.01 890.5,-51.53"/>
<polygon fill="#63b8ff" stroke="#63b8ff" points="892.57,-54.36 898.14,-45.34 888.17,-48.92 892.57,-54.36"/>
</a>
</g>
</g>
<!-- Node25 -->
<g id="Node000025" class="node">
<title>Node25</title>
<g id="a_Node000025"><a xlink:href="../../df/db6/interface_deluxe_1_1_deluxe_brand_center_1_1_a_m_m_1_1_infrastructure_1_1_a_w_s_1_1_s3_1_1_i_amazon_s3_service.html#afc3335f03278900df478e1324f61ea07" target="_top" xlink:title=" ">
<polygon fill="white" stroke="#666666" points="1084.25,-106 901.75,-106 901.75,-62 1084.25,-62 1084.25,-106"/>
<text text-anchor="start" x="909.75" y="-92.5" font-family="Helvetica,sans-Serif" font-size="10.00">Deluxe.DeluxeBrandCenter.</text>
<text text-anchor="start" x="909.75" y="-80.5" font-family="Helvetica,sans-Serif" font-size="10.00">AMM.Infrastructure.AWS.S3.IAmazon</text>
<text text-anchor="middle" x="993" y="-68.5" font-family="Helvetica,sans-Serif" font-size="10.00">S3Service.GetS3RootUrl</text>
</a>
</g>
</g>
<!-- Node21&#45;&gt;Node25 -->
<g id="edge31_Node000021_Node000025" class="edge">
<title>Node21&#45;&gt;Node25</title>
<g id="a_edge31_Node000021_Node000025"><a xlink:title=" ">
<path fill="none" stroke="#63b8ff" d="M840.65,-185.53C845.01,-182.98 849.18,-180.15 853,-177 877.61,-156.76 864,-134.75 889,-115 890.15,-114.09 891.33,-113.2 892.54,-112.34"/>
<polygon fill="#63b8ff" stroke="#63b8ff" points="894.32,-115.36 900.91,-107.06 890.59,-109.44 894.32,-115.36"/>
</a>
</g>
</g>
<!-- Node26 -->
<g id="Node000026" class="node">
<title>Node26</title>
<g id="a_Node000026"><a xlink:href="../../df/db6/interface_deluxe_1_1_deluxe_brand_center_1_1_a_m_m_1_1_infrastructure_1_1_a_w_s_1_1_s3_1_1_i_amazon_s3_service.html#a959eac40ddb2914db1fa1d64fdbcc511" target="_top" xlink:title=" ">
<polygon fill="white" stroke="#666666" points="1084.25,-230 901.75,-230 901.75,-186 1084.25,-186 1084.25,-230"/>
<text text-anchor="start" x="909.75" y="-216.5" font-family="Helvetica,sans-Serif" font-size="10.00">Deluxe.DeluxeBrandCenter.</text>
<text text-anchor="start" x="909.75" y="-204.5" font-family="Helvetica,sans-Serif" font-size="10.00">AMM.Infrastructure.AWS.S3.IAmazon</text>
<text text-anchor="middle" x="993" y="-192.5" font-family="Helvetica,sans-Serif" font-size="10.00">S3Service.UploadText</text>
</a>
</g>
</g>
<!-- Node21&#45;&gt;Node26 -->
<g id="edge34_Node000021_Node000026" class="edge">
<title>Node21&#45;&gt;Node26</title>
<g id="a_edge34_Node000021_Node000026"><a xlink:title=" ">
<path fill="none" stroke="#63b8ff" d="M850.96,-208C863.73,-208 876.97,-208 890,-208"/>
<polygon fill="#63b8ff" stroke="#63b8ff" points="889.85,-211.5 899.85,-208 889.85,-204.5 889.85,-211.5"/>
</a>
</g>
</g>
<!-- Node24 -->
<g id="Node000024" class="node">
<title>Node24</title>
<g id="a_Node000024"><a xlink:href="../../d4/df2/class_deluxe_1_1_deluxe_brand_center_1_1_a_m_m_1_1_domain_1_1_view_model_1_1_sharing_request.html#ac72d5a6104e6e33b42a67ea339621fbc" target="_top" xlink:title=" ">
<polygon fill="white" stroke="#666666" points="1335.75,-44 1133,-44 1133,0 1335.75,0 1335.75,-44"/>
<text text-anchor="start" x="1141" y="-30.5" font-family="Helvetica,sans-Serif" font-size="10.00">Deluxe.DeluxeBrandCenter.</text>
<text text-anchor="start" x="1141" y="-18.5" font-family="Helvetica,sans-Serif" font-size="10.00">AMM.Domain.ViewModel.SharingRequest.</text>
<text text-anchor="middle" x="1234.38" y="-6.5" font-family="Helvetica,sans-Serif" font-size="10.00">SharingRequest</text>
</a>
</g>
</g>
<!-- Node23&#45;&gt;Node24 -->
<g id="edge29_Node000023_Node000024" class="edge">
<title>Node23&#45;&gt;Node24</title>
<g id="a_edge29_Node000023_Node000024"><a xlink:title=" ">
<path fill="none" stroke="#63b8ff" d="M1094.82,-22C1103.53,-22 1112.37,-22 1121.16,-22"/>
<polygon fill="#63b8ff" stroke="#63b8ff" points="1121.16,-25.5 1131.16,-22 1121.16,-18.5 1121.16,-25.5"/>
</a>
</g>
</g>
<!-- Node28 -->
<g id="Node000028" class="node">
<title>Node28</title>
<g id="a_Node000028"><a xlink:href="../../d6/d65/class_deluxe_1_1_deluxe_brand_center_1_1_a_m_m_1_1_a_p_i_1_1_services_1_1_campaign_builder_service.html#a1c0e75d44a431c4a172d79c871a728db" target="_top" xlink:title=" ">
<polygon fill="white" stroke="#666666" points="850.75,-168 673.5,-168 673.5,-124 850.75,-124 850.75,-168"/>
<text text-anchor="start" x="681.5" y="-154.5" font-family="Helvetica,sans-Serif" font-size="10.00">Deluxe.DeluxeBrandCenter.</text>
<text text-anchor="start" x="681.5" y="-142.5" font-family="Helvetica,sans-Serif" font-size="10.00">AMM.API.Services.CampaignBuilder</text>
<text text-anchor="middle" x="762.12" y="-130.5" font-family="Helvetica,sans-Serif" font-size="10.00">Service.checkParentheses</text>
</a>
</g>
</g>
<!-- Node27&#45;&gt;Node28 -->
<g id="edge36_Node000027_Node000028" class="edge">
<title>Node27&#45;&gt;Node28</title>
<g id="a_edge36_Node000027_Node000028"><a xlink:title=" ">
<path fill="none" stroke="#63b8ff" d="M623.09,-185.53C638.82,-181.02 655.47,-176.26 671.54,-171.65"/>
<polygon fill="#63b8ff" stroke="#63b8ff" points="672.46,-175.03 681.11,-168.92 670.53,-168.3 672.46,-175.03"/>
</a>
</g>
</g>
</g>
</svg>
