<?xml version="1.0" encoding="UTF-8" standalone="no"?>
<!DOCTYPE svg PUBLIC "-//W3C//DTD SVG 1.1//EN"
 "http://www.w3.org/Graphics/SVG/1.1/DTD/svg11.dtd">
<!-- Generated by graphviz version 12.1.1 (20240910.0053)
 -->
<!-- Title: Deluxe.DeluxeBrandCenter.AMM.API.Services.CampaignBuilderService.checkParentheses Pages: 1 -->
<svg width="1064pt" height="77pt"
 viewBox="0.00 0.00 1063.75 77.00" xmlns="http://www.w3.org/2000/svg" xmlns:xlink="http://www.w3.org/1999/xlink">
<g id="graph0" class="graph" transform="scale(1 1) rotate(0) translate(4 73)">
<title>Deluxe.DeluxeBrandCenter.AMM.API.Services.CampaignBuilderService.checkParentheses</title>
<!-- Node1 -->
<g id="Node000001" class="node">
<title>Node1</title>
<g id="a_Node000001"><a xlink:title=" ">
<polygon fill="#999999" stroke="#666666" points="1055.75,-44 878.5,-44 878.5,0 1055.75,0 1055.75,-44"/>
<text text-anchor="start" x="886.5" y="-30.5" font-family="Helvetica,sans-Serif" font-size="10.00">Deluxe.DeluxeBrandCenter.</text>
<text text-anchor="start" x="886.5" y="-18.5" font-family="Helvetica,sans-Serif" font-size="10.00">AMM.API.Services.CampaignBuilder</text>
<text text-anchor="middle" x="967.12" y="-6.5" font-family="Helvetica,sans-Serif" font-size="10.00">Service.checkParentheses</text>
</a>
</g>
</g>
<!-- Node2 -->
<g id="Node000002" class="node">
<title>Node2</title>
<g id="a_Node000002"><a xlink:href="../../d6/d65/class_deluxe_1_1_deluxe_brand_center_1_1_a_m_m_1_1_a_p_i_1_1_services_1_1_campaign_builder_service.html#ae755929ed6203a0082c1084f0b72e501" target="_top" xlink:title=" ">
<polygon fill="white" stroke="#666666" points="842.5,-44 665.25,-44 665.25,0 842.5,0 842.5,-44"/>
<text text-anchor="start" x="673.25" y="-30.5" font-family="Helvetica,sans-Serif" font-size="10.00">Deluxe.DeluxeBrandCenter.</text>
<text text-anchor="start" x="673.25" y="-18.5" font-family="Helvetica,sans-Serif" font-size="10.00">AMM.API.Services.CampaignBuilder</text>
<text text-anchor="middle" x="753.88" y="-6.5" font-family="Helvetica,sans-Serif" font-size="10.00">Service.SetFilterForLaunch</text>
</a>
</g>
</g>
<!-- Node1&#45;&gt;Node2 -->
<g id="edge1_Node000001_Node000002" class="edge">
<title>Node1&#45;&gt;Node2</title>
<g id="a_edge1_Node000001_Node000002"><a xlink:title=" ">
<path fill="none" stroke="#63b8ff" d="M866.79,-22C858.78,-22 850.72,-22 842.79,-22"/>
<polygon fill="#63b8ff" stroke="#63b8ff" points="866.55,-25.5 876.55,-22 866.55,-18.5 866.55,-25.5"/>
</a>
</g>
</g>
<!-- Node3 -->
<g id="Node000003" class="node">
<title>Node3</title>
<g id="a_Node000003"><a xlink:href="../../d6/d65/class_deluxe_1_1_deluxe_brand_center_1_1_a_m_m_1_1_a_p_i_1_1_services_1_1_campaign_builder_service.html#a6703c8b60de403fb70c7b691d4d7c2a9" target="_top" xlink:title=" ">
<polygon fill="white" stroke="#666666" points="629.25,-44 452,-44 452,0 629.25,0 629.25,-44"/>
<text text-anchor="start" x="460" y="-30.5" font-family="Helvetica,sans-Serif" font-size="10.00">Deluxe.DeluxeBrandCenter.</text>
<text text-anchor="start" x="460" y="-18.5" font-family="Helvetica,sans-Serif" font-size="10.00">AMM.API.Services.CampaignBuilder</text>
<text text-anchor="middle" x="540.62" y="-6.5" font-family="Helvetica,sans-Serif" font-size="10.00">Service.MapUserCampaignToXML</text>
</a>
</g>
</g>
<!-- Node2&#45;&gt;Node3 -->
<g id="edge2_Node000002_Node000003" class="edge">
<title>Node2&#45;&gt;Node3</title>
<g id="a_edge2_Node000002_Node000003"><a xlink:title=" ">
<path fill="none" stroke="#63b8ff" d="M653.54,-22C645.53,-22 637.47,-22 629.54,-22"/>
<polygon fill="#63b8ff" stroke="#63b8ff" points="653.3,-25.5 663.3,-22 653.3,-18.5 653.3,-25.5"/>
</a>
</g>
</g>
<!-- Node4 -->
<g id="Node000004" class="node">
<title>Node4</title>
<g id="a_Node000004"><a xlink:href="../../d6/d65/class_deluxe_1_1_deluxe_brand_center_1_1_a_m_m_1_1_a_p_i_1_1_services_1_1_campaign_builder_service.html#ab302b4e7e24055c5859436dea04b8f65" target="_top" xlink:title=" ">
<polygon fill="white" stroke="#666666" points="416,-69 213.25,-69 213.25,-25 416,-25 416,-69"/>
<text text-anchor="start" x="221.25" y="-55.5" font-family="Helvetica,sans-Serif" font-size="10.00">Deluxe.DeluxeBrandCenter.</text>
<text text-anchor="start" x="221.25" y="-43.5" font-family="Helvetica,sans-Serif" font-size="10.00">AMM.API.Services.CampaignBuilder</text>
<text text-anchor="middle" x="314.62" y="-31.5" font-family="Helvetica,sans-Serif" font-size="10.00">Service.LaunchAlreadyLaunchedCampaign</text>
</a>
</g>
</g>
<!-- Node3&#45;&gt;Node4 -->
<g id="edge3_Node000003_Node000004" class="edge">
<title>Node3&#45;&gt;Node4</title>
<g id="a_edge3_Node000003_Node000004"><a xlink:title=" ">
<path fill="none" stroke="#63b8ff" d="M440.45,-33.07C432.42,-33.97 424.29,-34.87 416.25,-35.77"/>
<polygon fill="#63b8ff" stroke="#63b8ff" points="440.68,-36.56 450.23,-31.98 439.91,-29.61 440.68,-36.56"/>
</a>
</g>
</g>
<!-- Node5 -->
<g id="Node000005" class="node">
<title>Node5</title>
<g id="a_Node000005"><a xlink:href="../../d6/d65/class_deluxe_1_1_deluxe_brand_center_1_1_a_m_m_1_1_a_p_i_1_1_services_1_1_campaign_builder_service.html#a947f982ab93bc77b7199c9aa69ae3628" target="_top" xlink:title=" ">
<polygon fill="white" stroke="#666666" points="177.25,-44 0,-44 0,0 177.25,0 177.25,-44"/>
<text text-anchor="start" x="8" y="-30.5" font-family="Helvetica,sans-Serif" font-size="10.00">Deluxe.DeluxeBrandCenter.</text>
<text text-anchor="start" x="8" y="-18.5" font-family="Helvetica,sans-Serif" font-size="10.00">AMM.API.Services.CampaignBuilder</text>
<text text-anchor="middle" x="88.62" y="-6.5" font-family="Helvetica,sans-Serif" font-size="10.00">Service.LaunchCampaign</text>
</a>
</g>
</g>
<!-- Node3&#45;&gt;Node5 -->
<g id="edge5_Node000003_Node000005" class="edge">
<title>Node3&#45;&gt;Node5</title>
<g id="a_edge5_Node000003_Node000005"><a xlink:title=" ">
<path fill="none" stroke="#63b8ff" d="M440.02,-16.75C431.9,-16.45 423.81,-16.19 416,-16 325.92,-13.82 303.33,-13.82 213.25,-16 201.76,-16.28 189.67,-16.7 177.74,-17.2"/>
<polygon fill="#63b8ff" stroke="#63b8ff" points="439.87,-20.24 450,-17.14 440.15,-13.25 439.87,-20.24"/>
</a>
</g>
</g>
<!-- Node4&#45;&gt;Node5 -->
<g id="edge4_Node000004_Node000005" class="edge">
<title>Node4&#45;&gt;Node5</title>
<g id="a_edge4_Node000004_Node000005"><a xlink:title=" ">
<path fill="none" stroke="#63b8ff" d="M201.46,-34.48C193.45,-33.59 185.45,-32.69 177.61,-31.82"/>
<polygon fill="#63b8ff" stroke="#63b8ff" points="200.93,-37.94 211.26,-35.58 201.71,-30.99 200.93,-37.94"/>
</a>
</g>
</g>
</g>
</svg>
