<?xml version="1.0" encoding="UTF-8" standalone="no"?>
<!DOCTYPE svg PUBLIC "-//W3C//DTD SVG 1.1//EN"
 "http://www.w3.org/Graphics/SVG/1.1/DTD/svg11.dtd">
<!-- Generated by graphviz version 12.1.1 (20240910.0053)
 -->
<!-- Title: Deluxe.DeluxeBrandCenter.AMM.API.Services.CampaignBuilderService.GetCampaign Pages: 1 -->
<!--zoomable 952 -->

<svg id="main" version="1.1" xmlns="http://www.w3.org/2000/svg" xmlns:xlink="http://www.w3.org/1999/xlink" xml:space="preserve" onload="init(evt)">

<style type="text/css"><![CDATA[
.node, .edge {opacity: 0.7;}
.node.selected, .edge.selected {opacity: 1;}
.edge:hover path { stroke: red; }
.edge:hover polygon { stroke: red; fill: red; }
]]></style>

<defs>
  <circle id="rim" cx="0" cy="0" r="7"/>
  <circle id="rim2" cx="0" cy="0" r="3.5"/>
  <g id="zoomPlus">
    <use xlink:href="#rim" fill="#404040"><set attributeName="fill" to="#808080" begin="zoomplus.mouseover" end="zoomplus.mouseout"/></use>
    <path d="M-4,0h8M0,-4v8" fill="none" stroke="white" stroke-width="1.5" pointer-events="none"/>
  </g>
  <g id="zoomMin">
    <use xlink:href="#rim" fill="#404040"><set attributeName="fill" to="#808080" begin="zoomminus.mouseover" end="zoomminus.mouseout"/></use>
    <path d="M-4,0h8" fill="none" stroke="white" stroke-width="1.5" pointer-events="none"/>
  </g>
  <g id="arrowUp" transform="translate(30 24)">
    <use xlink:href="#rim"/>
    <path pointer-events="none" fill="none" stroke="white" stroke-width="1.5" d="M0,-3.0v7 M-2.5,-0.5L0,-3.0L2.5,-0.5"/>
  </g>
  <g id="arrowRight" transform="rotate(90) translate(36 -43)">
    <use xlink:href="#rim"/>
    <path pointer-events="none" fill="none" stroke="white" stroke-width="1.5" d="M0,-3.0v7 M-2.5,-0.5L0,-3.0L2.5,-0.5"/>
  </g>
  <g id="arrowDown" transform="rotate(180) translate(-30 -48)">
    <use xlink:href="#rim"/>
    <path pointer-events="none" fill="none" stroke="white" stroke-width="1.5" d="M0,-3.0v7 M-2.5,-0.5L0,-3.0L2.5,-0.5"/>
  </g>
  <g id="arrowLeft" transform="rotate(270) translate(-36 17)">
    <use xlink:href="#rim"/>
    <path pointer-events="none" fill="none" stroke="white" stroke-width="1.5" d="M0,-3.0v7 M-2.5,-0.5L0,-3.0L2.5,-0.5"/>
  </g>
  <g id="resetDef">
    <use xlink:href="#rim2" fill="#404040"><set attributeName="fill" to="#808080" begin="reset.mouseover" end="reset.mouseout"/></use>
  </g>
</defs>
<script type="application/ecmascript">
var viewWidth = 1110;
var viewHeight = 952;
var sectionId = 'dynsection-14';
</script>
<script type="application/ecmascript" xlink:href="../../svg.min.js"/>
<svg id="graph" class="graph">
<g id="viewport">
<title>Deluxe.DeluxeBrandCenter.AMM.API.Services.CampaignBuilderService.GetCampaign</title>
<!-- Node1 -->
<g id="Node000001" class="node">
<title>Node1</title>
<g id="a_Node000001"><a xlink:title=" ">
<polygon fill="#999999" stroke="#666666" points="177.25,-635 0,-635 0,-591 177.25,-591 177.25,-635"/>
<text text-anchor="start" x="8" y="-621.5" font-family="Helvetica,sans-Serif" font-size="10.00">Deluxe.DeluxeBrandCenter.</text>
<text text-anchor="start" x="8" y="-609.5" font-family="Helvetica,sans-Serif" font-size="10.00">AMM.API.Services.CampaignBuilder</text>
<text text-anchor="middle" x="88.62" y="-597.5" font-family="Helvetica,sans-Serif" font-size="10.00">Service.GetCampaign</text>
</a>
</g>
</g>
<!-- Node2 -->
<g id="Node000002" class="node">
<title>Node2</title>
<g id="a_Node000002"><a xlink:href="../../d6/d65/class_deluxe_1_1_deluxe_brand_center_1_1_a_m_m_1_1_a_p_i_1_1_services_1_1_campaign_builder_service.html#a54bfcdb60d66822229cfe3ccfb21070a" target="_top" xlink:title=" ">
<polygon fill="white" stroke="#666666" points="391.62,-944 214.38,-944 214.38,-900 391.62,-900 391.62,-944"/>
<text text-anchor="start" x="222.38" y="-930.5" font-family="Helvetica,sans-Serif" font-size="10.00">Deluxe.DeluxeBrandCenter.</text>
<text text-anchor="start" x="222.38" y="-918.5" font-family="Helvetica,sans-Serif" font-size="10.00">AMM.API.Services.CampaignBuilder</text>
<text text-anchor="middle" x="303" y="-906.5" font-family="Helvetica,sans-Serif" font-size="10.00">Service.CheckSocialAccounts</text>
</a>
</g>
</g>
<!-- Node1&#45;&gt;Node2 -->
<g id="edge1_Node000001_Node000002" class="edge">
<title>Node1&#45;&gt;Node2</title>
<g id="a_edge1_Node000001_Node000002"><a xlink:title=" ">
<path fill="none" stroke="#63b8ff" d="M93.85,-635.35C104.64,-686.57 137.84,-813.54 213.25,-886 215.95,-888.59 218.86,-891.01 221.92,-893.25"/>
<polygon fill="#63b8ff" stroke="#63b8ff" points="219.95,-896.15 230.24,-898.68 223.78,-890.29 219.95,-896.15"/>
</a>
</g>
</g>
<!-- Node4 -->
<g id="Node000004" class="node">
<title>Node4</title>
<g id="a_Node000004"><a xlink:href="../../df/db6/interface_deluxe_1_1_deluxe_brand_center_1_1_a_m_m_1_1_infrastructure_1_1_a_w_s_1_1_s3_1_1_i_amazon_s3_service.html#a63d81bc5c5327a88e5644fe287360bfb" target="_top" xlink:title=" ">
<polygon fill="white" stroke="#666666" points="620.25,-873 428.75,-873 428.75,-829 620.25,-829 620.25,-873"/>
<text text-anchor="start" x="436.75" y="-859.5" font-family="Helvetica,sans-Serif" font-size="10.00">Deluxe.DeluxeBrandCenter.</text>
<text text-anchor="start" x="436.75" y="-847.5" font-family="Helvetica,sans-Serif" font-size="10.00">AMM.Infrastructure.AWS.S3.IAmazon</text>
<text text-anchor="middle" x="524.5" y="-835.5" font-family="Helvetica,sans-Serif" font-size="10.00">S3Service.DownloadCampaignTemplate</text>
</a>
</g>
</g>
<!-- Node1&#45;&gt;Node4 -->
<g id="edge3_Node000001_Node000004" class="edge">
<title>Node1&#45;&gt;Node4</title>
<g id="a_edge3_Node000001_Node000004"><a xlink:title=" ">
<path fill="none" stroke="#63b8ff" d="M93.29,-635.42C102.78,-685.16 133.22,-804.2 213.25,-853 278.35,-892.7 366.32,-887.88 431.96,-875.64"/>
<polygon fill="#63b8ff" stroke="#63b8ff" points="432.5,-879.1 441.64,-873.74 431.15,-872.23 432.5,-879.1"/>
</a>
</g>
</g>
<!-- Node5 -->
<g id="Node000005" class="node">
<title>Node5</title>
<g id="a_Node000005"><a xlink:href="../../d8/d2a/class_deluxe_1_1_deluxe_brand_center_1_1_a_m_m_1_1_domain_1_1_view_model_1_1_campaign_builder_1_1_comment.html#a4a056a46f74757164c6d2fc2c69a86f0" target="_top" xlink:title=" ">
<polygon fill="white" stroke="#666666" points="863.5,-741 656.25,-741 656.25,-697 863.5,-697 863.5,-741"/>
<text text-anchor="start" x="664.25" y="-727.5" font-family="Helvetica,sans-Serif" font-size="10.00">Deluxe.DeluxeBrandCenter.</text>
<text text-anchor="start" x="664.25" y="-715.5" font-family="Helvetica,sans-Serif" font-size="10.00">AMM.Domain.ViewModel.CampaignBuilder.</text>
<text text-anchor="middle" x="759.88" y="-703.5" font-family="Helvetica,sans-Serif" font-size="10.00">Comment.GetComment</text>
</a>
</g>
</g>
<!-- Node1&#45;&gt;Node5 -->
<g id="edge4_Node000001_Node000005" class="edge">
<title>Node1&#45;&gt;Node5</title>
<g id="a_edge4_Node000001_Node000005"><a xlink:title=" ">
<path fill="none" stroke="#63b8ff" d="M128.69,-635.37C190.16,-669.13 314.25,-731.52 428.75,-754 512.27,-770.4 535.79,-764.5 620.25,-754 637.69,-751.83 656.09,-748.19 673.58,-744.05"/>
<polygon fill="#63b8ff" stroke="#63b8ff" points="673.99,-747.55 682.87,-741.77 672.32,-740.75 673.99,-747.55"/>
</a>
</g>
</g>
<!-- Node6 -->
<g id="Node000006" class="node">
<title>Node6</title>
<g id="a_Node000006"><a xlink:href="../../db/dc5/interface_deluxe_1_1_deluxe_brand_center_1_1_a_m_m_1_1_a_p_i_1_1_services_1_1_i_persona_service.html#a1789a265d6ea87e532cb5adfbef1220e" target="_top" xlink:title=" ">
<polygon fill="white" stroke="#666666" points="392,-106 214,-106 214,-62 392,-62 392,-106"/>
<text text-anchor="start" x="222" y="-92.5" font-family="Helvetica,sans-Serif" font-size="10.00">Deluxe.DeluxeBrandCenter.</text>
<text text-anchor="start" x="222" y="-80.5" font-family="Helvetica,sans-Serif" font-size="10.00">AMM.API.Services.IPersonaService.</text>
<text text-anchor="middle" x="303" y="-68.5" font-family="Helvetica,sans-Serif" font-size="10.00">GetDefaultPersonaForProfile</text>
</a>
</g>
</g>
<!-- Node1&#45;&gt;Node6 -->
<g id="edge5_Node000001_Node000006" class="edge">
<title>Node1&#45;&gt;Node6</title>
<g id="a_edge5_Node000001_Node000006"><a xlink:title=" ">
<path fill="none" stroke="#63b8ff" d="M92.53,-590.55C104.14,-503.99 149.64,-193.17 213.25,-120 215.4,-117.53 217.74,-115.23 220.23,-113.08"/>
<polygon fill="#63b8ff" stroke="#63b8ff" points="222.1,-116.05 228.02,-107.27 217.92,-110.44 222.1,-116.05"/>
</a>
</g>
</g>
<!-- Node7 -->
<g id="Node000007" class="node">
<title>Node7</title>
<g id="a_Node000007"><a xlink:href="../../dd/d36/interface_deluxe_1_1_deluxe_brand_center_1_1_a_m_m_1_1_a_p_i_1_1_services_1_1_i_signature_block_service.html#a7901b56f86346d084e06b483e303f9a1" target="_top" xlink:title=" ">
<polygon fill="white" stroke="#666666" points="389,-44 217,-44 217,0 389,0 389,-44"/>
<text text-anchor="start" x="225" y="-30.5" font-family="Helvetica,sans-Serif" font-size="10.00">Deluxe.DeluxeBrandCenter.</text>
<text text-anchor="start" x="225" y="-18.5" font-family="Helvetica,sans-Serif" font-size="10.00">AMM.API.Services.ISignatureBlock</text>
<text text-anchor="middle" x="303" y="-6.5" font-family="Helvetica,sans-Serif" font-size="10.00">Service.getDefaultSignatureBlock</text>
</a>
</g>
</g>
<!-- Node1&#45;&gt;Node7 -->
<g id="edge6_Node000001_Node000007" class="edge">
<title>Node1&#45;&gt;Node7</title>
<g id="a_edge6_Node000001_Node000007"><a xlink:title=" ">
<path fill="none" stroke="#63b8ff" d="M91.67,-590.68C100.71,-496.89 139.8,-135.74 213.25,-53 213.6,-52.6 213.96,-52.21 214.32,-51.83"/>
<polygon fill="#63b8ff" stroke="#63b8ff" points="216.36,-54.69 221.5,-45.43 211.71,-49.47 216.36,-54.69"/>
</a>
</g>
</g>
<!-- Node8 -->
<g id="Node000008" class="node">
<title>Node8</title>
<g id="a_Node000008"><a xlink:href="../../d6/d65/class_deluxe_1_1_deluxe_brand_center_1_1_a_m_m_1_1_a_p_i_1_1_services_1_1_campaign_builder_service.html#aab4c59d3d8611a7908b1e1238d9c2f01" target="_top" xlink:title=" ">
<polygon fill="white" stroke="#666666" points="391.62,-844 214.38,-844 214.38,-800 391.62,-800 391.62,-844"/>
<text text-anchor="start" x="222.38" y="-830.5" font-family="Helvetica,sans-Serif" font-size="10.00">Deluxe.DeluxeBrandCenter.</text>
<text text-anchor="start" x="222.38" y="-818.5" font-family="Helvetica,sans-Serif" font-size="10.00">AMM.API.Services.CampaignBuilder</text>
<text text-anchor="middle" x="303" y="-806.5" font-family="Helvetica,sans-Serif" font-size="10.00">Service.HasIndivGroupTemplates</text>
</a>
</g>
</g>
<!-- Node1&#45;&gt;Node8 -->
<g id="edge7_Node000001_Node000008" class="edge">
<title>Node1&#45;&gt;Node8</title>
<g id="a_edge7_Node000001_Node000008"><a xlink:title=" ">
<path fill="none" stroke="#63b8ff" d="M100.36,-635.49C118.73,-671.81 159.48,-743.59 213.25,-786 216.92,-788.9 220.86,-791.59 224.96,-794.09"/>
<polygon fill="#63b8ff" stroke="#63b8ff" points="223.01,-797.01 233.44,-798.85 226.43,-790.91 223.01,-797.01"/>
</a>
</g>
</g>
<!-- Node9 -->
<g id="Node000009" class="node">
<title>Node9</title>
<g id="a_Node000009"><a xlink:href="../../d6/d65/class_deluxe_1_1_deluxe_brand_center_1_1_a_m_m_1_1_a_p_i_1_1_services_1_1_campaign_builder_service.html#ad283235567b856b4e70d91da2bbeca0e" target="_top" xlink:title=" ">
<polygon fill="white" stroke="#666666" points="392.75,-554 213.25,-554 213.25,-510 392.75,-510 392.75,-554"/>
<text text-anchor="start" x="221.25" y="-540.5" font-family="Helvetica,sans-Serif" font-size="10.00">Deluxe.DeluxeBrandCenter.</text>
<text text-anchor="start" x="221.25" y="-528.5" font-family="Helvetica,sans-Serif" font-size="10.00">AMM.API.Services.CampaignBuilder</text>
<text text-anchor="middle" x="303" y="-516.5" font-family="Helvetica,sans-Serif" font-size="10.00">Service.MapXMLtoCampaignElement</text>
</a>
</g>
</g>
<!-- Node1&#45;&gt;Node9 -->
<g id="edge9_Node000001_Node000009" class="edge">
<title>Node1&#45;&gt;Node9</title>
<g id="a_edge9_Node000001_Node000009"><a xlink:title=" ">
<path fill="none" stroke="#63b8ff" d="M148.5,-590.54C174.51,-580.62 205.28,-568.89 232.41,-558.54"/>
<polygon fill="#63b8ff" stroke="#63b8ff" points="233.5,-561.87 241.6,-555.04 231,-555.33 233.5,-561.87"/>
</a>
</g>
</g>
<!-- Node23 -->
<g id="Node000023" class="node">
<title>Node23</title>
<g id="a_Node000023"><a xlink:href="../../d3/d8e/interface_deluxe_1_1_deluxe_brand_center_1_1_a_m_m_1_1_a_p_i_1_1_services_1_1_i_settings_service.html#ae7e408d07e4c31ff8cee83f391ceaa73" target="_top" xlink:title=" ">
<polygon fill="white" stroke="#666666" points="848.88,-483 670.88,-483 670.88,-439 848.88,-439 848.88,-483"/>
<text text-anchor="start" x="678.88" y="-469.5" font-family="Helvetica,sans-Serif" font-size="10.00">Deluxe.DeluxeBrandCenter.</text>
<text text-anchor="start" x="678.88" y="-457.5" font-family="Helvetica,sans-Serif" font-size="10.00">AMM.API.Services.ISettingsService.</text>
<text text-anchor="middle" x="759.88" y="-445.5" font-family="Helvetica,sans-Serif" font-size="10.00">SingleByName</text>
</a>
</g>
</g>
<!-- Node1&#45;&gt;Node23 -->
<g id="edge39_Node000001_Node000023" class="edge">
<title>Node1&#45;&gt;Node23</title>
<g id="a_edge39_Node000001_Node000023"><a xlink:title=" ">
<path fill="none" stroke="#63b8ff" d="M91.9,-590.63C99.06,-530.85 126.09,-365.09 213.25,-265 284.13,-183.6 323.89,-178.62 428.75,-153 511.43,-132.8 556.31,-96.83 620.25,-153 713.52,-234.93 575.96,-335.32 656.25,-430 657.91,-431.96 659.69,-433.8 661.58,-435.53"/>
<polygon fill="#63b8ff" stroke="#63b8ff" points="659.19,-438.1 669.24,-441.46 663.47,-432.57 659.19,-438.1"/>
</a>
</g>
</g>
<!-- Node26 -->
<g id="Node000026" class="node">
<title>Node26</title>
<g id="a_Node000026"><a xlink:href="../../d6/d65/class_deluxe_1_1_deluxe_brand_center_1_1_a_m_m_1_1_a_p_i_1_1_services_1_1_campaign_builder_service.html#a80e018243b86364b46a1d5f5c20689a9" target="_top" xlink:title=" ">
<polygon fill="white" stroke="#666666" points="613.12,-716 435.88,-716 435.88,-672 613.12,-672 613.12,-716"/>
<text text-anchor="start" x="443.88" y="-702.5" font-family="Helvetica,sans-Serif" font-size="10.00">Deluxe.DeluxeBrandCenter.</text>
<text text-anchor="start" x="443.88" y="-690.5" font-family="Helvetica,sans-Serif" font-size="10.00">AMM.API.Services.CampaignBuilder</text>
<text text-anchor="middle" x="524.5" y="-678.5" font-family="Helvetica,sans-Serif" font-size="10.00">Service.SetScheduleConfig</text>
</a>
</g>
</g>
<!-- Node1&#45;&gt;Node26 -->
<g id="edge33_Node000001_Node000026" class="edge">
<title>Node1&#45;&gt;Node26</title>
<g id="a_edge33_Node000001_Node000026"><a xlink:title=" ">
<path fill="none" stroke="#63b8ff" d="M177.69,-629.44C249.19,-642.79 350,-661.61 424.33,-675.49"/>
<polygon fill="#63b8ff" stroke="#63b8ff" points="423.6,-678.91 434.08,-677.31 424.89,-672.03 423.6,-678.91"/>
</a>
</g>
</g>
<!-- Node27 -->
<g id="Node000027" class="node">
<title>Node27</title>
<g id="a_Node000027"><a xlink:href="../../d6/d65/class_deluxe_1_1_deluxe_brand_center_1_1_a_m_m_1_1_a_p_i_1_1_services_1_1_campaign_builder_service.html#a5cf68d2a0e9c29659835e8bb5032992c" target="_top" xlink:title=" ">
<polygon fill="white" stroke="#666666" points="391.62,-318 214.38,-318 214.38,-274 391.62,-274 391.62,-318"/>
<text text-anchor="start" x="222.38" y="-304.5" font-family="Helvetica,sans-Serif" font-size="10.00">Deluxe.DeluxeBrandCenter.</text>
<text text-anchor="start" x="222.38" y="-292.5" font-family="Helvetica,sans-Serif" font-size="10.00">AMM.API.Services.CampaignBuilder</text>
<text text-anchor="middle" x="303" y="-280.5" font-family="Helvetica,sans-Serif" font-size="10.00">Service.SetUserCampaignVM</text>
</a>
</g>
</g>
<!-- Node1&#45;&gt;Node27 -->
<g id="edge36_Node000001_Node000027" class="edge">
<title>Node1&#45;&gt;Node27</title>
<g id="a_edge36_Node000001_Node000027"><a xlink:title=" ">
<path fill="none" stroke="#63b8ff" d="M104.56,-590.71C141.65,-535.35 238.05,-391.45 280.92,-327.47"/>
<polygon fill="#63b8ff" stroke="#63b8ff" points="283.58,-329.78 286.24,-319.52 277.77,-325.88 283.58,-329.78"/>
</a>
</g>
</g>
<!-- Node3 -->
<g id="Node000003" class="node">
<title>Node3</title>
<g id="a_Node000003"><a xlink:href="../../db/dc5/interface_deluxe_1_1_deluxe_brand_center_1_1_a_m_m_1_1_a_p_i_1_1_services_1_1_i_persona_service.html#a3634fb520298224cdefb756a88ac63e2" target="_top" xlink:title=" ">
<polygon fill="white" stroke="#666666" points="613.5,-944 435.5,-944 435.5,-900 613.5,-900 613.5,-944"/>
<text text-anchor="start" x="443.5" y="-930.5" font-family="Helvetica,sans-Serif" font-size="10.00">Deluxe.DeluxeBrandCenter.</text>
<text text-anchor="start" x="443.5" y="-918.5" font-family="Helvetica,sans-Serif" font-size="10.00">AMM.API.Services.IPersonaService.</text>
<text text-anchor="middle" x="524.5" y="-906.5" font-family="Helvetica,sans-Serif" font-size="10.00">GetPersonasForProfile</text>
</a>
</g>
</g>
<!-- Node2&#45;&gt;Node3 -->
<g id="edge2_Node000002_Node000003" class="edge">
<title>Node2&#45;&gt;Node3</title>
<g id="a_edge2_Node000002_Node000003"><a xlink:title=" ">
<path fill="none" stroke="#63b8ff" d="M392.01,-922C402.44,-922 413.13,-922 423.7,-922"/>
<polygon fill="#63b8ff" stroke="#63b8ff" points="423.59,-925.5 433.59,-922 423.59,-918.5 423.59,-925.5"/>
</a>
</g>
</g>
<!-- Node8&#45;&gt;Node4 -->
<g id="edge8_Node000008_Node000004" class="edge">
<title>Node8&#45;&gt;Node4</title>
<g id="a_edge8_Node000008_Node000004"><a xlink:title=" ">
<path fill="none" stroke="#63b8ff" d="M392.01,-833.63C400.21,-834.71 408.58,-835.82 416.93,-836.92"/>
<polygon fill="#63b8ff" stroke="#63b8ff" points="416.4,-840.38 426.77,-838.22 417.32,-833.44 416.4,-840.38"/>
</a>
</g>
</g>
<!-- Node9&#45;&gt;Node5 -->
<g id="edge10_Node000009_Node000005" class="edge">
<title>Node9&#45;&gt;Node5</title>
<g id="a_edge10_Node000009_Node000005"><a xlink:title=" ">
<path fill="none" stroke="#63b8ff" d="M310.55,-554.29C324.37,-596.71 360.94,-688.09 428.75,-725 501.87,-764.8 598.27,-757.51 668.01,-743.75"/>
<polygon fill="#63b8ff" stroke="#63b8ff" points="668.4,-747.25 677.48,-741.8 666.98,-740.39 668.4,-747.25"/>
</a>
</g>
</g>
<!-- Node10 -->
<g id="Node000010" class="node">
<title>Node10</title>
<g id="a_Node000010"><a xlink:href="../../d6/d65/class_deluxe_1_1_deluxe_brand_center_1_1_a_m_m_1_1_a_p_i_1_1_services_1_1_campaign_builder_service.html#aef2cc7351f42b5fafcd05beb0dfd738c" target="_top" xlink:title=" ">
<polygon fill="white" stroke="#666666" points="613.12,-654 435.88,-654 435.88,-610 613.12,-610 613.12,-654"/>
<text text-anchor="start" x="443.88" y="-640.5" font-family="Helvetica,sans-Serif" font-size="10.00">Deluxe.DeluxeBrandCenter.</text>
<text text-anchor="start" x="443.88" y="-628.5" font-family="Helvetica,sans-Serif" font-size="10.00">AMM.API.Services.CampaignBuilder</text>
<text text-anchor="middle" x="524.5" y="-616.5" font-family="Helvetica,sans-Serif" font-size="10.00">Service.MapXMLToBlogElement</text>
</a>
</g>
</g>
<!-- Node9&#45;&gt;Node10 -->
<g id="edge11_Node000009_Node000010" class="edge">
<title>Node9&#45;&gt;Node10</title>
<g id="a_edge11_Node000009_Node000010"><a xlink:title=" ">
<path fill="none" stroke="#63b8ff" d="M344.74,-554.35C368.85,-567.21 400.17,-583.29 428.75,-596 435.85,-599.16 443.33,-602.3 450.83,-605.34"/>
<polygon fill="#63b8ff" stroke="#63b8ff" points="449.43,-608.55 460.02,-608.99 452.02,-602.04 449.43,-608.55"/>
</a>
</g>
</g>
<!-- Node11 -->
<g id="Node000011" class="node">
<title>Node11</title>
<g id="a_Node000011"><a xlink:href="../../d6/d65/class_deluxe_1_1_deluxe_brand_center_1_1_a_m_m_1_1_a_p_i_1_1_services_1_1_campaign_builder_service.html#a266bed18cfff1ca8655d571f811db2e5" target="_top" xlink:title=" ">
<polygon fill="white" stroke="#666666" points="615,-430 434,-430 434,-386 615,-386 615,-430"/>
<text text-anchor="start" x="442" y="-416.5" font-family="Helvetica,sans-Serif" font-size="10.00">Deluxe.DeluxeBrandCenter.</text>
<text text-anchor="start" x="442" y="-404.5" font-family="Helvetica,sans-Serif" font-size="10.00">AMM.API.Services.CampaignBuilder</text>
<text text-anchor="middle" x="524.5" y="-392.5" font-family="Helvetica,sans-Serif" font-size="10.00">Service.MapXMLToDirectMailElement</text>
</a>
</g>
</g>
<!-- Node9&#45;&gt;Node11 -->
<g id="edge12_Node000009_Node000011" class="edge">
<title>Node9&#45;&gt;Node11</title>
<g id="a_edge12_Node000009_Node000011"><a xlink:title=" ">
<path fill="none" stroke="#63b8ff" d="M328.65,-509.79C352.71,-489.08 391.1,-458.52 428.75,-439 431.47,-437.59 434.26,-436.23 437.1,-434.92"/>
<polygon fill="#63b8ff" stroke="#63b8ff" points="438.43,-438.16 446.21,-430.97 435.64,-431.74 438.43,-438.16"/>
</a>
</g>
</g>
<!-- Node14 -->
<g id="Node000014" class="node">
<title>Node14</title>
<g id="a_Node000014"><a xlink:href="../../d6/d65/class_deluxe_1_1_deluxe_brand_center_1_1_a_m_m_1_1_a_p_i_1_1_services_1_1_campaign_builder_service.html#af629a897fd36af8802d6d7406ffcc7eb" target="_top" xlink:title=" ">
<polygon fill="white" stroke="#666666" points="613.12,-368 435.88,-368 435.88,-324 613.12,-324 613.12,-368"/>
<text text-anchor="start" x="443.88" y="-354.5" font-family="Helvetica,sans-Serif" font-size="10.00">Deluxe.DeluxeBrandCenter.</text>
<text text-anchor="start" x="443.88" y="-342.5" font-family="Helvetica,sans-Serif" font-size="10.00">AMM.API.Services.CampaignBuilder</text>
<text text-anchor="middle" x="524.5" y="-330.5" font-family="Helvetica,sans-Serif" font-size="10.00">Service.MapXMLToEmailElement</text>
</a>
</g>
</g>
<!-- Node9&#45;&gt;Node14 -->
<g id="edge15_Node000009_Node000014" class="edge">
<title>Node9&#45;&gt;Node14</title>
<g id="a_edge15_Node000009_Node000014"><a xlink:title=" ">
<path fill="none" stroke="#63b8ff" d="M316.28,-509.59C335.8,-476 377.03,-412.74 428.75,-377 430.32,-375.92 431.92,-374.87 433.56,-373.86"/>
<polygon fill="#63b8ff" stroke="#63b8ff" points="434.94,-377.1 441.97,-369.17 431.53,-370.99 434.94,-377.1"/>
</a>
</g>
</g>
<!-- Node17 -->
<g id="Node000017" class="node">
<title>Node17</title>
<g id="a_Node000017"><a xlink:href="../../d6/d65/class_deluxe_1_1_deluxe_brand_center_1_1_a_m_m_1_1_a_p_i_1_1_services_1_1_campaign_builder_service.html#a42749927be71bf4f5537fe6c4b38e605" target="_top" xlink:title=" ">
<polygon fill="white" stroke="#666666" points="613.12,-554 435.88,-554 435.88,-510 613.12,-510 613.12,-554"/>
<text text-anchor="start" x="443.88" y="-540.5" font-family="Helvetica,sans-Serif" font-size="10.00">Deluxe.DeluxeBrandCenter.</text>
<text text-anchor="start" x="443.88" y="-528.5" font-family="Helvetica,sans-Serif" font-size="10.00">AMM.API.Services.CampaignBuilder</text>
<text text-anchor="middle" x="524.5" y="-516.5" font-family="Helvetica,sans-Serif" font-size="10.00">Service.MapXMLToMicrositeElement</text>
</a>
</g>
</g>
<!-- Node9&#45;&gt;Node17 -->
<g id="edge19_Node000009_Node000017" class="edge">
<title>Node9&#45;&gt;Node17</title>
<g id="a_edge19_Node000009_Node000017"><a xlink:title=" ">
<path fill="none" stroke="#63b8ff" d="M392.96,-532C403.26,-532 413.81,-532 424.24,-532"/>
<polygon fill="#63b8ff" stroke="#63b8ff" points="423.97,-535.5 433.97,-532 423.97,-528.5 423.97,-535.5"/>
</a>
</g>
</g>
<!-- Node18 -->
<g id="Node000018" class="node">
<title>Node18</title>
<g id="a_Node000018"><a xlink:href="../../d6/d65/class_deluxe_1_1_deluxe_brand_center_1_1_a_m_m_1_1_a_p_i_1_1_services_1_1_campaign_builder_service.html#a74ba8e98a9d32f4a88b206365c879163" target="_top" xlink:title=" ">
<polygon fill="white" stroke="#666666" points="613.12,-492 435.88,-492 435.88,-448 613.12,-448 613.12,-492"/>
<text text-anchor="start" x="443.88" y="-478.5" font-family="Helvetica,sans-Serif" font-size="10.00">Deluxe.DeluxeBrandCenter.</text>
<text text-anchor="start" x="443.88" y="-466.5" font-family="Helvetica,sans-Serif" font-size="10.00">AMM.API.Services.CampaignBuilder</text>
<text text-anchor="middle" x="524.5" y="-454.5" font-family="Helvetica,sans-Serif" font-size="10.00">Service.MapXMLToSchedule</text>
</a>
</g>
</g>
<!-- Node9&#45;&gt;Node18 -->
<g id="edge20_Node000009_Node000018" class="edge">
<title>Node9&#45;&gt;Node18</title>
<g id="a_edge20_Node000009_Node000018"><a xlink:title=" ">
<path fill="none" stroke="#63b8ff" d="M383.55,-509.53C399.66,-504.98 416.7,-500.17 433.14,-495.52"/>
<polygon fill="#63b8ff" stroke="#63b8ff" points="433.72,-499 442.39,-492.91 431.82,-492.26 433.72,-499"/>
</a>
</g>
</g>
<!-- Node22 -->
<g id="Node000022" class="node">
<title>Node22</title>
<g id="a_Node000022"><a xlink:href="../../d5/d5f/class_deluxe_1_1_deluxe_brand_center_1_1_a_m_m_1_1_domain_1_1_utility_1_1_json_helper.html#ab745292f943d4bb123831d596477056d" target="_top" xlink:title=" ">
<polygon fill="white" stroke="#666666" points="852.25,-598 667.5,-598 667.5,-566 852.25,-566 852.25,-598"/>
<text text-anchor="start" x="675.5" y="-584.5" font-family="Helvetica,sans-Serif" font-size="10.00">Deluxe.DeluxeBrandCenter.</text>
<text text-anchor="middle" x="759.88" y="-572.5" font-family="Helvetica,sans-Serif" font-size="10.00">AMM.Domain.Utility.JsonHelper.Parse</text>
</a>
</g>
</g>
<!-- Node9&#45;&gt;Node22 -->
<g id="edge32_Node000009_Node000022" class="edge">
<title>Node9&#45;&gt;Node22</title>
<g id="a_edge32_Node000009_Node000022"><a xlink:title=" ">
<path fill="none" stroke="#63b8ff" d="M385.09,-554.46C399.54,-557.8 414.52,-560.84 428.75,-563 504.4,-574.47 590.77,-579.15 656.19,-581"/>
<polygon fill="#63b8ff" stroke="#63b8ff" points="655.72,-584.49 665.81,-581.25 655.9,-577.49 655.72,-584.49"/>
</a>
</g>
</g>
<!-- Node24 -->
<g id="Node000024" class="node">
<title>Node24</title>
<g id="a_Node000024"><a xlink:href="../../d6/d65/class_deluxe_1_1_deluxe_brand_center_1_1_a_m_m_1_1_a_p_i_1_1_services_1_1_campaign_builder_service.html#a7aebfa9e7d0d3f4331ac1194517913cb" target="_top" xlink:title=" ">
<polygon fill="white" stroke="#666666" points="613.12,-268 435.88,-268 435.88,-224 613.12,-224 613.12,-268"/>
<text text-anchor="start" x="443.88" y="-254.5" font-family="Helvetica,sans-Serif" font-size="10.00">Deluxe.DeluxeBrandCenter.</text>
<text text-anchor="start" x="443.88" y="-242.5" font-family="Helvetica,sans-Serif" font-size="10.00">AMM.API.Services.CampaignBuilder</text>
<text text-anchor="middle" x="524.5" y="-230.5" font-family="Helvetica,sans-Serif" font-size="10.00">Service.MapXMLToSocialElement</text>
</a>
</g>
</g>
<!-- Node9&#45;&gt;Node24 -->
<g id="edge27_Node000009_Node000024" class="edge">
<title>Node9&#45;&gt;Node24</title>
<g id="a_edge27_Node000009_Node000024"><a xlink:title=" ">
<path fill="none" stroke="#63b8ff" d="M313.04,-509.73C330.71,-468.11 373.01,-377.09 428.75,-315 442.39,-299.81 459.88,-285.93 476.12,-274.67"/>
<polygon fill="#63b8ff" stroke="#63b8ff" points="477.91,-277.68 484.25,-269.19 474,-271.88 477.91,-277.68"/>
</a>
</g>
</g>
<!-- Node12 -->
<g id="Node000012" class="node">
<title>Node12</title>
<g id="a_Node000012"><a xlink:href="../../d6/d65/class_deluxe_1_1_deluxe_brand_center_1_1_a_m_m_1_1_a_p_i_1_1_services_1_1_campaign_builder_service.html#a1ad8120183764df0a34c58257d7a91b9" target="_top" xlink:title=" ">
<polygon fill="white" stroke="#666666" points="848.5,-421 671.25,-421 671.25,-377 848.5,-377 848.5,-421"/>
<text text-anchor="start" x="679.25" y="-407.5" font-family="Helvetica,sans-Serif" font-size="10.00">Deluxe.DeluxeBrandCenter.</text>
<text text-anchor="start" x="679.25" y="-395.5" font-family="Helvetica,sans-Serif" font-size="10.00">AMM.API.Services.CampaignBuilder</text>
<text text-anchor="middle" x="759.88" y="-383.5" font-family="Helvetica,sans-Serif" font-size="10.00">Service.AddEditorFields</text>
</a>
</g>
</g>
<!-- Node11&#45;&gt;Node12 -->
<g id="edge13_Node000011_Node000012" class="edge">
<title>Node11&#45;&gt;Node12</title>
<g id="a_edge13_Node000011_Node000012"><a xlink:title=" ">
<path fill="none" stroke="#63b8ff" d="M615.4,-404.53C629.92,-403.97 645.04,-403.39 659.77,-402.82"/>
<polygon fill="#63b8ff" stroke="#63b8ff" points="659.58,-406.33 669.44,-402.45 659.31,-399.34 659.58,-406.33"/>
</a>
</g>
</g>
<!-- Node13 -->
<g id="Node000013" class="node">
<title>Node13</title>
<g id="a_Node000013"><a xlink:href="../../d3/ddb/interface_deluxe_1_1_deluxe_brand_center_1_1_a_m_m_1_1_a_p_i_1_1_services_1_1_i_d_b_service.html#a65b574cf2a33323f24c4657b8b606f68" target="_top" xlink:title=" ">
<polygon fill="white" stroke="#666666" points="1092.5,-415 909.25,-415 909.25,-383 1092.5,-383 1092.5,-415"/>
<text text-anchor="start" x="917.25" y="-401.5" font-family="Helvetica,sans-Serif" font-size="10.00">Deluxe.DeluxeBrandCenter.</text>
<text text-anchor="middle" x="1000.88" y="-389.5" font-family="Helvetica,sans-Serif" font-size="10.00">AMM.API.Services.IDBService.Single</text>
</a>
</g>
</g>
<!-- Node12&#45;&gt;Node13 -->
<g id="edge14_Node000012_Node000013" class="edge">
<title>Node12&#45;&gt;Node13</title>
<g id="a_edge14_Node000012_Node000013"><a xlink:title=" ">
<path fill="none" stroke="#63b8ff" d="M848.85,-399C864.75,-399 881.45,-399 897.71,-399"/>
<polygon fill="#63b8ff" stroke="#63b8ff" points="897.37,-402.5 907.37,-399 897.37,-395.5 897.37,-402.5"/>
</a>
</g>
</g>
<!-- Node14&#45;&gt;Node12 -->
<g id="edge16_Node000014_Node000012" class="edge">
<title>Node14&#45;&gt;Node12</title>
<g id="a_edge16_Node000014_Node000012"><a xlink:title=" ">
<path fill="none" stroke="#63b8ff" d="M613.4,-365.96C628.58,-369.41 644.45,-373.01 659.9,-376.52"/>
<polygon fill="#63b8ff" stroke="#63b8ff" points="659.05,-379.92 669.58,-378.72 660.61,-373.09 659.05,-379.92"/>
</a>
</g>
</g>
<!-- Node15 -->
<g id="Node000015" class="node">
<title>Node15</title>
<g id="a_Node000015"><a xlink:href="../../df/db6/interface_deluxe_1_1_deluxe_brand_center_1_1_a_m_m_1_1_infrastructure_1_1_a_w_s_1_1_s3_1_1_i_amazon_s3_service.html#ad8b9fc7f361abef30885bd62c0cca386" target="_top" xlink:title=" ">
<polygon fill="white" stroke="#666666" points="1092.12,-355 909.62,-355 909.62,-311 1092.12,-311 1092.12,-355"/>
<text text-anchor="start" x="917.62" y="-341.5" font-family="Helvetica,sans-Serif" font-size="10.00">Deluxe.DeluxeBrandCenter.</text>
<text text-anchor="start" x="917.62" y="-329.5" font-family="Helvetica,sans-Serif" font-size="10.00">AMM.Infrastructure.AWS.S3.IAmazon</text>
<text text-anchor="middle" x="1000.88" y="-317.5" font-family="Helvetica,sans-Serif" font-size="10.00">S3Service.DownloadString</text>
</a>
</g>
</g>
<!-- Node14&#45;&gt;Node15 -->
<g id="edge17_Node000014_Node000015" class="edge">
<title>Node14&#45;&gt;Node15</title>
<g id="a_edge17_Node000014_Node000015"><a xlink:title=" ">
<path fill="none" stroke="#63b8ff" d="M613.61,-343.59C694.18,-341.38 813.33,-338.11 897.96,-335.79"/>
<polygon fill="#63b8ff" stroke="#63b8ff" points="898,-339.29 907.9,-335.52 897.8,-332.3 898,-339.29"/>
</a>
</g>
</g>
<!-- Node16 -->
<g id="Node000016" class="node">
<title>Node16</title>
<g id="a_Node000016"><a xlink:href="../../d5/da1/class_deluxe_1_1_deluxe_brand_center_1_1_a_m_m_1_1_domain_1_1_utility_1_1_util.html#af372b5defd8a37284b822c7b0b1a49f7" target="_top" xlink:title=" ">
<polygon fill="white" stroke="#666666" points="1081.25,-283 920.5,-283 920.5,-239 1081.25,-239 1081.25,-283"/>
<text text-anchor="start" x="928.5" y="-269.5" font-family="Helvetica,sans-Serif" font-size="10.00">Deluxe.DeluxeBrandCenter.</text>
<text text-anchor="start" x="928.5" y="-257.5" font-family="Helvetica,sans-Serif" font-size="10.00">AMM.Domain.Utility.Util.Replace</text>
<text text-anchor="middle" x="1000.88" y="-245.5" font-family="Helvetica,sans-Serif" font-size="10.00">StageFolder</text>
</a>
</g>
</g>
<!-- Node14&#45;&gt;Node16 -->
<g id="edge18_Node000014_Node000016" class="edge">
<title>Node14&#45;&gt;Node16</title>
<g id="a_edge18_Node000014_Node000016"><a xlink:title=" ">
<path fill="none" stroke="#63b8ff" d="M613.32,-333.57C681.7,-323.51 778.9,-308.36 863.5,-292 878.27,-289.14 893.88,-285.86 909.06,-282.51"/>
<polygon fill="#63b8ff" stroke="#63b8ff" points="909.54,-285.99 918.54,-280.4 908.02,-279.16 909.54,-285.99"/>
</a>
</g>
</g>
<!-- Node18&#45;&gt;Node5 -->
<g id="edge24_Node000018_Node000005" class="edge">
<title>Node18&#45;&gt;Node5</title>
<g id="a_edge24_Node000018_Node000005"><a xlink:title=" ">
<path fill="none" stroke="#63b8ff" d="M609.77,-492.44C613.52,-494.99 617.05,-497.84 620.25,-501 655.63,-535.98 630.9,-564.19 656.25,-607 674.72,-638.19 702.94,-668.17 725.11,-689.25"/>
<polygon fill="#63b8ff" stroke="#63b8ff" points="722.48,-691.58 732.18,-695.85 727.25,-686.47 722.48,-691.58"/>
</a>
</g>
</g>
<!-- Node19 -->
<g id="Node000019" class="node">
<title>Node19</title>
<g id="a_Node000019"><a xlink:href="../../de/d83/class_deluxe_1_1_deluxe_brand_center_1_1_a_m_m_1_1_domain_1_1_data_model_1_1_user_campaigns_1_1_recurrence.html#a0b51e05a4e44f58745687e246757acbe" target="_top" xlink:title=" ">
<polygon fill="white" stroke="#666666" points="861.25,-545 658.5,-545 658.5,-501 861.25,-501 861.25,-545"/>
<text text-anchor="start" x="666.5" y="-531.5" font-family="Helvetica,sans-Serif" font-size="10.00">Deluxe.DeluxeBrandCenter.</text>
<text text-anchor="start" x="666.5" y="-519.5" font-family="Helvetica,sans-Serif" font-size="10.00">AMM.Domain.DataModel.UserCampaigns.</text>
<text text-anchor="middle" x="759.88" y="-507.5" font-family="Helvetica,sans-Serif" font-size="10.00">Recurrence.GenerateRecurrence</text>
</a>
</g>
</g>
<!-- Node18&#45;&gt;Node19 -->
<g id="edge21_Node000018_Node000019" class="edge">
<title>Node18&#45;&gt;Node19</title>
<g id="a_edge21_Node000018_Node000019"><a xlink:title=" ">
<path fill="none" stroke="#63b8ff" d="M613.4,-489.96C625.07,-492.61 637.15,-495.36 649.14,-498.08"/>
<polygon fill="#63b8ff" stroke="#63b8ff" points="648.1,-501.43 658.63,-500.23 649.65,-494.61 648.1,-501.43"/>
</a>
</g>
</g>
<!-- Node18&#45;&gt;Node22 -->
<g id="edge25_Node000018_Node000022" class="edge">
<title>Node18&#45;&gt;Node22</title>
<g id="a_edge25_Node000018_Node000022"><a xlink:title=" ">
<path fill="none" stroke="#63b8ff" d="M606.48,-492.27C611.32,-494.87 615.96,-497.77 620.25,-501 643,-518.12 633.08,-537.45 656.25,-554 659.64,-556.42 663.24,-558.64 666.97,-560.66"/>
<polygon fill="#63b8ff" stroke="#63b8ff" points="665.24,-563.71 675.76,-564.92 668.29,-557.41 665.24,-563.71"/>
</a>
</g>
</g>
<!-- Node18&#45;&gt;Node23 -->
<g id="edge26_Node000018_Node000023" class="edge">
<title>Node18&#45;&gt;Node23</title>
<g id="a_edge26_Node000018_Node000023"><a xlink:title=" ">
<path fill="none" stroke="#63b8ff" d="M613.4,-466.61C628.47,-466.03 644.23,-465.42 659.58,-464.83"/>
<polygon fill="#63b8ff" stroke="#63b8ff" points="659.3,-468.34 669.16,-464.46 659.03,-461.35 659.3,-468.34"/>
</a>
</g>
</g>
<!-- Node20 -->
<g id="Node000020" class="node">
<title>Node20</title>
<g id="a_Node000020"><a xlink:href="../../de/d83/class_deluxe_1_1_deluxe_brand_center_1_1_a_m_m_1_1_domain_1_1_data_model_1_1_user_campaigns_1_1_recurrence.html#a3dc0d3fb258517eff2f019ffda985c31" target="_top" xlink:title=" ">
<polygon fill="white" stroke="#666666" points="1102.25,-514 899.5,-514 899.5,-470 1102.25,-470 1102.25,-514"/>
<text text-anchor="start" x="907.5" y="-500.5" font-family="Helvetica,sans-Serif" font-size="10.00">Deluxe.DeluxeBrandCenter.</text>
<text text-anchor="start" x="907.5" y="-488.5" font-family="Helvetica,sans-Serif" font-size="10.00">AMM.Domain.DataModel.UserCampaigns.</text>
<text text-anchor="middle" x="1000.88" y="-476.5" font-family="Helvetica,sans-Serif" font-size="10.00">Recurrence.Recurrence</text>
</a>
</g>
</g>
<!-- Node19&#45;&gt;Node20 -->
<g id="edge22_Node000019_Node000020" class="edge">
<title>Node19&#45;&gt;Node20</title>
<g id="a_edge22_Node000019_Node000020"><a xlink:title=" ">
<path fill="none" stroke="#63b8ff" d="M861.54,-509.94C870.33,-508.8 879.26,-507.64 888.13,-506.49"/>
<polygon fill="#63b8ff" stroke="#63b8ff" points="888.36,-509.99 897.83,-505.24 887.46,-503.05 888.36,-509.99"/>
</a>
</g>
</g>
<!-- Node21 -->
<g id="Node000021" class="node">
<title>Node21</title>
<g id="a_Node000021"><a xlink:href="../../d2/db4/class_deluxe_1_1_deluxe_brand_center_1_1_a_m_m_1_1_domain_1_1_utility_1_1_campaign_schedule_helper.html#a5daae7230b610f054319feebd724b4d2" target="_top" xlink:title=" ">
<polygon fill="white" stroke="#666666" points="1096.62,-576 905.12,-576 905.12,-532 1096.62,-532 1096.62,-576"/>
<text text-anchor="start" x="913.12" y="-562.5" font-family="Helvetica,sans-Serif" font-size="10.00">Deluxe.DeluxeBrandCenter.</text>
<text text-anchor="start" x="913.12" y="-550.5" font-family="Helvetica,sans-Serif" font-size="10.00">AMM.Domain.Utility.CampaignSchedule</text>
<text text-anchor="middle" x="1000.88" y="-538.5" font-family="Helvetica,sans-Serif" font-size="10.00">Helper.ReturnMonthNumber</text>
</a>
</g>
</g>
<!-- Node19&#45;&gt;Node21 -->
<g id="edge23_Node000019_Node000021" class="edge">
<title>Node19&#45;&gt;Node21</title>
<g id="a_edge23_Node000019_Node000021"><a xlink:title=" ">
<path fill="none" stroke="#63b8ff" d="M861.54,-536.06C872.03,-537.42 882.72,-538.8 893.28,-540.17"/>
<polygon fill="#63b8ff" stroke="#63b8ff" points="892.8,-543.64 903.16,-541.46 893.7,-536.7 892.8,-543.64"/>
</a>
</g>
</g>
<!-- Node24&#45;&gt;Node16 -->
<g id="edge28_Node000024_Node000016" class="edge">
<title>Node24&#45;&gt;Node16</title>
<g id="a_edge28_Node000024_Node000016"><a xlink:title=" ">
<path fill="none" stroke="#63b8ff" d="M613.28,-233.77C627.61,-232.2 642.33,-230.85 656.25,-230 748.19,-224.4 771.96,-219.73 863.5,-230 878.45,-231.68 894.15,-234.36 909.37,-237.46"/>
<polygon fill="#63b8ff" stroke="#63b8ff" points="908.35,-240.82 918.86,-239.47 909.8,-233.98 908.35,-240.82"/>
</a>
</g>
</g>
<!-- Node25 -->
<g id="Node000025" class="node">
<title>Node25</title>
<g id="a_Node000025"><a xlink:href="../../d6/d65/class_deluxe_1_1_deluxe_brand_center_1_1_a_m_m_1_1_a_p_i_1_1_services_1_1_campaign_builder_service.html#aa547f128337d386d430cdb3079f2d4c3" target="_top" xlink:title=" ">
<polygon fill="white" stroke="#666666" points="848.5,-283 671.25,-283 671.25,-239 848.5,-239 848.5,-283"/>
<text text-anchor="start" x="679.25" y="-269.5" font-family="Helvetica,sans-Serif" font-size="10.00">Deluxe.DeluxeBrandCenter.</text>
<text text-anchor="start" x="679.25" y="-257.5" font-family="Helvetica,sans-Serif" font-size="10.00">AMM.API.Services.CampaignBuilder</text>
<text text-anchor="middle" x="759.88" y="-245.5" font-family="Helvetica,sans-Serif" font-size="10.00">Service.SetMessageBody</text>
</a>
</g>
</g>
<!-- Node24&#45;&gt;Node25 -->
<g id="edge29_Node000024_Node000025" class="edge">
<title>Node24&#45;&gt;Node25</title>
<g id="a_edge29_Node000024_Node000025"><a xlink:title=" ">
<path fill="none" stroke="#63b8ff" d="M613.4,-251.65C628.58,-252.63 644.45,-253.65 659.9,-254.64"/>
<polygon fill="#63b8ff" stroke="#63b8ff" points="659.34,-258.11 669.55,-255.26 659.79,-251.12 659.34,-258.11"/>
</a>
</g>
</g>
<!-- Node25&#45;&gt;Node15 -->
<g id="edge30_Node000025_Node000015" class="edge">
<title>Node25&#45;&gt;Node15</title>
<g id="a_edge30_Node000025_Node000015"><a xlink:title=" ">
<path fill="none" stroke="#63b8ff" d="M835.51,-283.49C860.56,-291.03 888.68,-299.5 914.49,-307.28"/>
<polygon fill="#63b8ff" stroke="#63b8ff" points="913.36,-310.59 923.94,-310.13 915.38,-303.89 913.36,-310.59"/>
</a>
</g>
</g>
<!-- Node25&#45;&gt;Node16 -->
<g id="edge31_Node000025_Node000016" class="edge">
<title>Node25&#45;&gt;Node16</title>
<g id="a_edge31_Node000025_Node000016"><a xlink:title=" ">
<path fill="none" stroke="#63b8ff" d="M848.85,-261C868.43,-261 889.23,-261 908.93,-261"/>
<polygon fill="#63b8ff" stroke="#63b8ff" points="908.87,-264.5 918.87,-261 908.87,-257.5 908.87,-264.5"/>
</a>
</g>
</g>
<!-- Node26&#45;&gt;Node5 -->
<g id="edge34_Node000026_Node000005" class="edge">
<title>Node26&#45;&gt;Node5</title>
<g id="a_edge34_Node000026_Node000005"><a xlink:title=" ">
<path fill="none" stroke="#63b8ff" d="M613.4,-703.42C623.55,-704.5 634.01,-705.62 644.45,-706.74"/>
<polygon fill="#63b8ff" stroke="#63b8ff" points="643.93,-710.21 654.25,-707.79 644.68,-703.25 643.93,-710.21"/>
</a>
</g>
</g>
<!-- Node26&#45;&gt;Node22 -->
<g id="edge35_Node000026_Node000022" class="edge">
<title>Node26&#45;&gt;Node22</title>
<g id="a_edge35_Node000026_Node000022"><a xlink:title=" ">
<path fill="none" stroke="#63b8ff" d="M599.28,-671.57C606.45,-668.89 613.54,-666.02 620.25,-663 657.61,-646.2 697.76,-622 725.18,-604.43"/>
<polygon fill="#63b8ff" stroke="#63b8ff" points="726.92,-607.47 733.41,-599.1 723.11,-601.6 726.92,-607.47"/>
</a>
</g>
</g>
<!-- Node27&#45;&gt;Node25 -->
<g id="edge38_Node000027_Node000025" class="edge">
<title>Node27&#45;&gt;Node25</title>
<g id="a_edge38_Node000027_Node000025"><a xlink:title=" ">
<path fill="none" stroke="#63b8ff" d="M392.02,-292.01C455.53,-288.81 543.27,-283.75 620.25,-277 633.07,-275.88 646.54,-274.53 659.84,-273.1"/>
<polygon fill="#63b8ff" stroke="#63b8ff" points="659.88,-276.62 669.44,-272.05 659.12,-269.66 659.88,-276.62"/>
</a>
</g>
</g>
<!-- Node28 -->
<g id="Node000028" class="node">
<title>Node28</title>
<g id="a_Node000028"><a xlink:href="../../d0/ddb/interface_deluxe_1_1_deluxe_brand_center_1_1_a_m_m_1_1_a_p_i_1_1_services_1_1_i_template_service.html#ac7863abd76202cb634b5fc69db283ba4" target="_top" xlink:title=" ">
<polygon fill="white" stroke="#666666" points="615.38,-206 433.62,-206 433.62,-162 615.38,-162 615.38,-206"/>
<text text-anchor="start" x="441.62" y="-192.5" font-family="Helvetica,sans-Serif" font-size="10.00">Deluxe.DeluxeBrandCenter.</text>
<text text-anchor="start" x="441.62" y="-180.5" font-family="Helvetica,sans-Serif" font-size="10.00">AMM.API.Services.ITemplateService.</text>
<text text-anchor="middle" x="524.5" y="-168.5" font-family="Helvetica,sans-Serif" font-size="10.00">GetSingleByTemplateId</text>
</a>
</g>
</g>
<!-- Node27&#45;&gt;Node28 -->
<g id="edge37_Node000027_Node000028" class="edge">
<title>Node27&#45;&gt;Node28</title>
<g id="a_edge37_Node000027_Node000028"><a xlink:title=" ">
<path fill="none" stroke="#63b8ff" d="M333.71,-273.54C358.21,-255.82 394.39,-231.43 428.75,-215 431.81,-213.54 434.96,-212.11 438.17,-210.74"/>
<polygon fill="#63b8ff" stroke="#63b8ff" points="439.22,-214.09 447.16,-207.06 436.58,-207.61 439.22,-214.09"/>
</a>
</g>
</g>
</g>
</svg>

<g id="navigator" transform="translate(0 0)" fill="#404254">
  <rect fill="#f2f5e9" fill-opacity="0.5" stroke="#606060" stroke-width=".5" x="0" y="0" width="60" height="60"/>
  <use id="zoomplus" xlink:href="#zoomPlus" x="17" y="9" onmousedown="handleZoom(evt,'in')"/>
  <use id="zoomminus" xlink:href="#zoomMin" x="42" y="9" onmousedown="handleZoom(evt,'out')"/>
  <use id="reset" xlink:href="#resetDef" x="30" y="36" onmousedown="handleReset()"/>
   <use id="arrowup" xlink:href="#arrowUp" x="0" y="0" onmousedown="handlePan(0,-1)"/>
  <use id="arrowright" xlink:href="#arrowRight" x="0" y="0" onmousedown="handlePan(1,0)"/>
  <use id="arrowdown" xlink:href="#arrowDown" x="0" y="0" onmousedown="handlePan(0,1)"/>
  <use id="arrowleft" xlink:href="#arrowLeft" x="0" y="0" onmousedown="handlePan(-1,0)"/>
</g>
<svg viewBox="0 0 15 15" width="100%" height="30px" preserveAspectRatio="xMaxYMin meet">
 <g id="arrow_out" transform="scale(0.3 0.3)">
  <a xlink:href="class_deluxe_1_1_deluxe_brand_center_1_1_a_m_m_1_1_a_p_i_1_1_services_1_1_campaign_builder_service_a57435ae2fe593aa7ce835a599a8cb799_cgraph_org.svg" target="_base">
   <rect id="button" ry="5" rx="5" y="6" x="6" height="38" width="38"
        fill="#f2f5e9" fill-opacity="0.5" stroke="#606060" stroke-width="1.0"/>
   <path id="arrow"
     d="M 11.500037,31.436501 C 11.940474,20.09759 22.043105,11.32322 32.158766,21.979434 L 37.068811,17.246167 C 37.068811,17.246167 37.088388,32 37.088388,32 L 22.160133,31.978069 C 22.160133,31.978069 26.997745,27.140456 26.997745,27.140456 C 18.528582,18.264221 13.291696,25.230495 11.500037,31.436501 z"
     style="fill:#404040;"/>
  </a>
 </g>
</svg>

<style type='text/css'>
<![CDATA[
[data-mouse-over-selected='false'] { opacity: 0.7; }
[data-mouse-over-selected='true']  { opacity: 1.0; }
]]>
</style>
<script type="application/ecmascript"><![CDATA[
document.addEventListener('DOMContentLoaded', (event) => {
  highlightEdges();
  highlightAdjacentNodes();
});
]]></script>
</svg>
