<?xml version="1.0" encoding="UTF-8" standalone="no"?>
<!DOCTYPE svg PUBLIC "-//W3C//DTD SVG 1.1//EN"
 "http://www.w3.org/Graphics/SVG/1.1/DTD/svg11.dtd">
<!-- Generated by graphviz version 12.1.1 (20240910.0053)
 -->
<!-- Title: Deluxe.DeluxeBrandCenter.AMM.API.Services.CampaignBuilderService.SaveCampaign Pages: 1 -->
<svg width="839pt" height="331pt"
 viewBox="0.00 0.00 838.50 331.00" xmlns="http://www.w3.org/2000/svg" xmlns:xlink="http://www.w3.org/1999/xlink">
<g id="graph0" class="graph" transform="scale(1 1) rotate(0) translate(4 327)">
<title>Deluxe.DeluxeBrandCenter.AMM.API.Services.CampaignBuilderService.SaveCampaign</title>
<!-- Node1 -->
<g id="Node000001" class="node">
<title>Node1</title>
<g id="a_Node000001"><a xlink:title=" ">
<polygon fill="#999999" stroke="#666666" points="177.25,-227 0,-227 0,-183 177.25,-183 177.25,-227"/>
<text text-anchor="start" x="8" y="-213.5" font-family="Helvetica,sans-Serif" font-size="10.00">Deluxe.DeluxeBrandCenter.</text>
<text text-anchor="start" x="8" y="-201.5" font-family="Helvetica,sans-Serif" font-size="10.00">AMM.API.Services.CampaignBuilder</text>
<text text-anchor="middle" x="88.62" y="-189.5" font-family="Helvetica,sans-Serif" font-size="10.00">Service.SaveCampaign</text>
</a>
</g>
</g>
<!-- Node2 -->
<g id="Node000002" class="node">
<title>Node2</title>
<g id="a_Node000002"><a xlink:href="../../d5/d5f/class_deluxe_1_1_deluxe_brand_center_1_1_a_m_m_1_1_domain_1_1_utility_1_1_json_helper.html#ab745292f943d4bb123831d596477056d" target="_top" xlink:title=" ">
<polygon fill="white" stroke="#666666" points="398,-249 213.25,-249 213.25,-217 398,-217 398,-249"/>
<text text-anchor="start" x="221.25" y="-235.5" font-family="Helvetica,sans-Serif" font-size="10.00">Deluxe.DeluxeBrandCenter.</text>
<text text-anchor="middle" x="305.62" y="-223.5" font-family="Helvetica,sans-Serif" font-size="10.00">AMM.Domain.Utility.JsonHelper.Parse</text>
</a>
</g>
</g>
<!-- Node1&#45;&gt;Node2 -->
<g id="edge1_Node000001_Node000002" class="edge">
<title>Node1&#45;&gt;Node2</title>
<g id="a_edge1_Node000001_Node000002"><a xlink:title=" ">
<path fill="none" stroke="#63b8ff" d="M177.69,-216.47C185.58,-217.5 193.6,-218.54 201.6,-219.58"/>
<polygon fill="#63b8ff" stroke="#63b8ff" points="200.99,-223.03 211.36,-220.85 201.89,-216.09 200.99,-223.03"/>
</a>
</g>
</g>
<!-- Node3 -->
<g id="Node000003" class="node">
<title>Node3</title>
<g id="a_Node000003"><a xlink:href="../../d6/d65/class_deluxe_1_1_deluxe_brand_center_1_1_a_m_m_1_1_a_p_i_1_1_services_1_1_campaign_builder_service.html#a494f644e3b419bf8652100d7ece78f2e" target="_top" xlink:title=" ">
<polygon fill="white" stroke="#666666" points="394.25,-199 217,-199 217,-155 394.25,-155 394.25,-199"/>
<text text-anchor="start" x="225" y="-185.5" font-family="Helvetica,sans-Serif" font-size="10.00">Deluxe.DeluxeBrandCenter.</text>
<text text-anchor="start" x="225" y="-173.5" font-family="Helvetica,sans-Serif" font-size="10.00">AMM.API.Services.CampaignBuilder</text>
<text text-anchor="middle" x="305.62" y="-161.5" font-family="Helvetica,sans-Serif" font-size="10.00">Service.UpdateUserCampaign</text>
</a>
</g>
</g>
<!-- Node1&#45;&gt;Node3 -->
<g id="edge2_Node000001_Node000003" class="edge">
<title>Node1&#45;&gt;Node3</title>
<g id="a_edge2_Node000001_Node000003"><a xlink:title=" ">
<path fill="none" stroke="#63b8ff" d="M177.69,-193.53C186.85,-192.34 196.19,-191.12 205.45,-189.92"/>
<polygon fill="#63b8ff" stroke="#63b8ff" points="205.73,-193.41 215.19,-188.65 204.82,-186.47 205.73,-193.41"/>
</a>
</g>
</g>
<!-- Node4 -->
<g id="Node000004" class="node">
<title>Node4</title>
<g id="a_Node000004"><a xlink:href="../../d8/d4e/interface_deluxe_1_1_deluxe_brand_center_1_1_a_m_m_1_1_a_p_i_1_1_services_1_1_i_contact_manager_service.html#a3fbfc9ff3488d9657930005b29a93844" target="_top" xlink:title=" ">
<polygon fill="white" stroke="#666666" points="612,-323 434,-323 434,-279 612,-279 612,-323"/>
<text text-anchor="start" x="442" y="-309.5" font-family="Helvetica,sans-Serif" font-size="10.00">Deluxe.DeluxeBrandCenter.</text>
<text text-anchor="start" x="442" y="-297.5" font-family="Helvetica,sans-Serif" font-size="10.00">AMM.API.Services.IContactManager</text>
<text text-anchor="middle" x="523" y="-285.5" font-family="Helvetica,sans-Serif" font-size="10.00">Service.GetContactGroupDB</text>
</a>
</g>
</g>
<!-- Node3&#45;&gt;Node4 -->
<g id="edge3_Node000003_Node000004" class="edge">
<title>Node3&#45;&gt;Node4</title>
<g id="a_edge3_Node000003_Node000004"><a xlink:title=" ">
<path fill="none" stroke="#63b8ff" d="M385.44,-199.38C389.88,-201.95 394.11,-204.82 398,-208 422.66,-228.18 409.46,-249.68 434,-270 434.97,-270.8 435.96,-271.58 436.96,-272.34"/>
<polygon fill="#63b8ff" stroke="#63b8ff" points="434.99,-275.23 445.26,-277.84 438.86,-269.4 434.99,-275.23"/>
</a>
</g>
</g>
<!-- Node5 -->
<g id="Node000005" class="node">
<title>Node5</title>
<g id="a_Node000005"><a xlink:href="../../d6/d65/class_deluxe_1_1_deluxe_brand_center_1_1_a_m_m_1_1_a_p_i_1_1_services_1_1_campaign_builder_service.html#a46e49b30cb8ffc1b0dabd3948e632e9a" target="_top" xlink:title=" ">
<polygon fill="white" stroke="#666666" points="611.62,-261 434.38,-261 434.38,-217 611.62,-217 611.62,-261"/>
<text text-anchor="start" x="442.38" y="-247.5" font-family="Helvetica,sans-Serif" font-size="10.00">Deluxe.DeluxeBrandCenter.</text>
<text text-anchor="start" x="442.38" y="-235.5" font-family="Helvetica,sans-Serif" font-size="10.00">AMM.API.Services.CampaignBuilder</text>
<text text-anchor="middle" x="523" y="-223.5" font-family="Helvetica,sans-Serif" font-size="10.00">Service.SetMode</text>
</a>
</g>
</g>
<!-- Node3&#45;&gt;Node5 -->
<g id="edge4_Node000003_Node000005" class="edge">
<title>Node3&#45;&gt;Node5</title>
<g id="a_edge4_Node000003_Node000005"><a xlink:title=" ">
<path fill="none" stroke="#63b8ff" d="M384.68,-199.47C400.33,-203.98 416.89,-208.74 432.88,-213.35"/>
<polygon fill="#63b8ff" stroke="#63b8ff" points="431.81,-216.68 442.39,-216.08 433.75,-209.95 431.81,-216.68"/>
</a>
</g>
</g>
<!-- Node6 -->
<g id="Node000006" class="node">
<title>Node6</title>
<g id="a_Node000006"><a xlink:href="../../db/dc5/interface_deluxe_1_1_deluxe_brand_center_1_1_a_m_m_1_1_a_p_i_1_1_services_1_1_i_persona_service.html#a04d89250da1b31cb913d3005ffb1f6f7" target="_top" xlink:title=" ">
<polygon fill="white" stroke="#666666" points="612,-199 434,-199 434,-155 612,-155 612,-199"/>
<text text-anchor="start" x="442" y="-185.5" font-family="Helvetica,sans-Serif" font-size="10.00">Deluxe.DeluxeBrandCenter.</text>
<text text-anchor="start" x="442" y="-173.5" font-family="Helvetica,sans-Serif" font-size="10.00">AMM.API.Services.IPersonaService.</text>
<text text-anchor="middle" x="523" y="-161.5" font-family="Helvetica,sans-Serif" font-size="10.00">Single</text>
</a>
</g>
</g>
<!-- Node3&#45;&gt;Node6 -->
<g id="edge5_Node000003_Node000006" class="edge">
<title>Node3&#45;&gt;Node6</title>
<g id="a_edge5_Node000003_Node000006"><a xlink:title=" ">
<path fill="none" stroke="#63b8ff" d="M394.54,-177C403.72,-177 413.09,-177 422.39,-177"/>
<polygon fill="#63b8ff" stroke="#63b8ff" points="422.16,-180.5 432.16,-177 422.16,-173.5 422.16,-180.5"/>
</a>
</g>
</g>
<!-- Node7 -->
<g id="Node000007" class="node">
<title>Node7</title>
<g id="a_Node000007"><a xlink:href="../../d3/d8e/interface_deluxe_1_1_deluxe_brand_center_1_1_a_m_m_1_1_a_p_i_1_1_services_1_1_i_settings_service.html#ae7e408d07e4c31ff8cee83f391ceaa73" target="_top" xlink:title=" ">
<polygon fill="white" stroke="#666666" points="612,-137 434,-137 434,-93 612,-93 612,-137"/>
<text text-anchor="start" x="442" y="-123.5" font-family="Helvetica,sans-Serif" font-size="10.00">Deluxe.DeluxeBrandCenter.</text>
<text text-anchor="start" x="442" y="-111.5" font-family="Helvetica,sans-Serif" font-size="10.00">AMM.API.Services.ISettingsService.</text>
<text text-anchor="middle" x="523" y="-99.5" font-family="Helvetica,sans-Serif" font-size="10.00">SingleByName</text>
</a>
</g>
</g>
<!-- Node3&#45;&gt;Node7 -->
<g id="edge6_Node000003_Node000007" class="edge">
<title>Node3&#45;&gt;Node7</title>
<g id="a_edge6_Node000003_Node000007"><a xlink:title=" ">
<path fill="none" stroke="#63b8ff" d="M384.68,-154.53C400.33,-150.02 416.89,-145.26 432.88,-140.65"/>
<polygon fill="#63b8ff" stroke="#63b8ff" points="433.75,-144.05 442.39,-137.92 431.81,-137.32 433.75,-144.05"/>
</a>
</g>
</g>
<!-- Node8 -->
<g id="Node000008" class="node">
<title>Node8</title>
<g id="a_Node000008"><a xlink:href="../../d6/d65/class_deluxe_1_1_deluxe_brand_center_1_1_a_m_m_1_1_a_p_i_1_1_services_1_1_campaign_builder_service.html#af75af05b6bf79bd7819022b164a6c684" target="_top" xlink:title=" ">
<polygon fill="white" stroke="#666666" points="611.62,-75 434.38,-75 434.38,-31 611.62,-31 611.62,-75"/>
<text text-anchor="start" x="442.38" y="-61.5" font-family="Helvetica,sans-Serif" font-size="10.00">Deluxe.DeluxeBrandCenter.</text>
<text text-anchor="start" x="442.38" y="-49.5" font-family="Helvetica,sans-Serif" font-size="10.00">AMM.API.Services.CampaignBuilder</text>
<text text-anchor="middle" x="523" y="-37.5" font-family="Helvetica,sans-Serif" font-size="10.00">Service.UploadHtmlContent</text>
</a>
</g>
</g>
<!-- Node3&#45;&gt;Node8 -->
<g id="edge7_Node000003_Node000008" class="edge">
<title>Node3&#45;&gt;Node8</title>
<g id="a_edge7_Node000003_Node000008"><a xlink:title=" ">
<path fill="none" stroke="#63b8ff" d="M332.45,-154.62C357.17,-134.08 396.21,-103.9 434,-84 436.66,-82.6 439.4,-81.24 442.19,-79.92"/>
<polygon fill="#63b8ff" stroke="#63b8ff" points="443.4,-83.21 451.1,-75.94 440.54,-76.82 443.4,-83.21"/>
</a>
</g>
</g>
<!-- Node9 -->
<g id="Node000009" class="node">
<title>Node9</title>
<g id="a_Node000009"><a xlink:href="../../df/db6/interface_deluxe_1_1_deluxe_brand_center_1_1_a_m_m_1_1_infrastructure_1_1_a_w_s_1_1_s3_1_1_i_amazon_s3_service.html#afc3335f03278900df478e1324f61ea07" target="_top" xlink:title=" ">
<polygon fill="white" stroke="#666666" points="830.5,-106 648,-106 648,-62 830.5,-62 830.5,-106"/>
<text text-anchor="start" x="656" y="-92.5" font-family="Helvetica,sans-Serif" font-size="10.00">Deluxe.DeluxeBrandCenter.</text>
<text text-anchor="start" x="656" y="-80.5" font-family="Helvetica,sans-Serif" font-size="10.00">AMM.Infrastructure.AWS.S3.IAmazon</text>
<text text-anchor="middle" x="739.25" y="-68.5" font-family="Helvetica,sans-Serif" font-size="10.00">S3Service.GetS3RootUrl</text>
</a>
</g>
</g>
<!-- Node8&#45;&gt;Node9 -->
<g id="edge8_Node000008_Node000009" class="edge">
<title>Node8&#45;&gt;Node9</title>
<g id="a_edge8_Node000008_Node000009"><a xlink:title=" ">
<path fill="none" stroke="#63b8ff" d="M612.07,-65.74C620.16,-66.91 628.41,-68.11 636.61,-69.29"/>
<polygon fill="#63b8ff" stroke="#63b8ff" points="635.85,-72.72 646.25,-70.69 636.85,-65.79 635.85,-72.72"/>
</a>
</g>
</g>
<!-- Node10 -->
<g id="Node000010" class="node">
<title>Node10</title>
<g id="a_Node000010"><a xlink:href="../../df/db6/interface_deluxe_1_1_deluxe_brand_center_1_1_a_m_m_1_1_infrastructure_1_1_a_w_s_1_1_s3_1_1_i_amazon_s3_service.html#a1a5b0cb27a6ab8bb34922f57b0a86d2d" target="_top" xlink:title=" ">
<polygon fill="white" stroke="#666666" points="830.5,-44 648,-44 648,0 830.5,0 830.5,-44"/>
<text text-anchor="start" x="656" y="-30.5" font-family="Helvetica,sans-Serif" font-size="10.00">Deluxe.DeluxeBrandCenter.</text>
<text text-anchor="start" x="656" y="-18.5" font-family="Helvetica,sans-Serif" font-size="10.00">AMM.Infrastructure.AWS.S3.IAmazon</text>
<text text-anchor="middle" x="739.25" y="-6.5" font-family="Helvetica,sans-Serif" font-size="10.00">S3Service.UploadHtml</text>
</a>
</g>
</g>
<!-- Node8&#45;&gt;Node10 -->
<g id="edge9_Node000008_Node000010" class="edge">
<title>Node8&#45;&gt;Node10</title>
<g id="a_edge9_Node000008_Node000010"><a xlink:title=" ">
<path fill="none" stroke="#63b8ff" d="M612.07,-40.26C620.16,-39.09 628.41,-37.89 636.61,-36.71"/>
<polygon fill="#63b8ff" stroke="#63b8ff" points="636.85,-40.21 646.25,-35.31 635.85,-33.28 636.85,-40.21"/>
</a>
</g>
</g>
</g>
</svg>
