<?xml version="1.0" encoding="UTF-8" standalone="no"?>
<!DOCTYPE svg PUBLIC "-//W3C//DTD SVG 1.1//EN"
 "http://www.w3.org/Graphics/SVG/1.1/DTD/svg11.dtd">
<!-- Generated by graphviz version 12.1.1 (20240910.0053)
 -->
<!-- Title: Deluxe.DeluxeBrandCenter.AMM.API.Services.CampaignBuilderService.UpdateUserCampaign Pages: 1 -->
<svg width="618pt" height="331pt"
 viewBox="0.00 0.00 617.75 331.00" xmlns="http://www.w3.org/2000/svg" xmlns:xlink="http://www.w3.org/1999/xlink">
<g id="graph0" class="graph" transform="scale(1 1) rotate(0) translate(4 327)">
<title>Deluxe.DeluxeBrandCenter.AMM.API.Services.CampaignBuilderService.UpdateUserCampaign</title>
<!-- Node1 -->
<g id="Node000001" class="node">
<title>Node1</title>
<g id="a_Node000001"><a xlink:title=" ">
<polygon fill="#999999" stroke="#666666" points="177.25,-199 0,-199 0,-155 177.25,-155 177.25,-199"/>
<text text-anchor="start" x="8" y="-185.5" font-family="Helvetica,sans-Serif" font-size="10.00">Deluxe.DeluxeBrandCenter.</text>
<text text-anchor="start" x="8" y="-173.5" font-family="Helvetica,sans-Serif" font-size="10.00">AMM.API.Services.CampaignBuilder</text>
<text text-anchor="middle" x="88.62" y="-161.5" font-family="Helvetica,sans-Serif" font-size="10.00">Service.UpdateUserCampaign</text>
</a>
</g>
</g>
<!-- Node2 -->
<g id="Node000002" class="node">
<title>Node2</title>
<g id="a_Node000002"><a xlink:href="../../d8/d4e/interface_deluxe_1_1_deluxe_brand_center_1_1_a_m_m_1_1_a_p_i_1_1_services_1_1_i_contact_manager_service.html#a3fbfc9ff3488d9657930005b29a93844" target="_top" xlink:title=" ">
<polygon fill="white" stroke="#666666" points="391.25,-323 213.25,-323 213.25,-279 391.25,-279 391.25,-323"/>
<text text-anchor="start" x="221.25" y="-309.5" font-family="Helvetica,sans-Serif" font-size="10.00">Deluxe.DeluxeBrandCenter.</text>
<text text-anchor="start" x="221.25" y="-297.5" font-family="Helvetica,sans-Serif" font-size="10.00">AMM.API.Services.IContactManager</text>
<text text-anchor="middle" x="302.25" y="-285.5" font-family="Helvetica,sans-Serif" font-size="10.00">Service.GetContactGroupDB</text>
</a>
</g>
</g>
<!-- Node1&#45;&gt;Node2 -->
<g id="edge1_Node000001_Node000002" class="edge">
<title>Node1&#45;&gt;Node2</title>
<g id="a_edge1_Node000001_Node000002"><a xlink:title=" ">
<path fill="none" stroke="#63b8ff" d="M114.57,-199.43C138.49,-220.01 176.32,-250.21 213.25,-270 215.75,-271.34 218.32,-272.64 220.93,-273.9"/>
<polygon fill="#63b8ff" stroke="#63b8ff" points="219.29,-277 229.84,-277.94 222.18,-270.62 219.29,-277"/>
</a>
</g>
</g>
<!-- Node3 -->
<g id="Node000003" class="node">
<title>Node3</title>
<g id="a_Node000003"><a xlink:href="../../d6/d65/class_deluxe_1_1_deluxe_brand_center_1_1_a_m_m_1_1_a_p_i_1_1_services_1_1_campaign_builder_service.html#a46e49b30cb8ffc1b0dabd3948e632e9a" target="_top" xlink:title=" ">
<polygon fill="white" stroke="#666666" points="390.88,-261 213.62,-261 213.62,-217 390.88,-217 390.88,-261"/>
<text text-anchor="start" x="221.62" y="-247.5" font-family="Helvetica,sans-Serif" font-size="10.00">Deluxe.DeluxeBrandCenter.</text>
<text text-anchor="start" x="221.62" y="-235.5" font-family="Helvetica,sans-Serif" font-size="10.00">AMM.API.Services.CampaignBuilder</text>
<text text-anchor="middle" x="302.25" y="-223.5" font-family="Helvetica,sans-Serif" font-size="10.00">Service.SetMode</text>
</a>
</g>
</g>
<!-- Node1&#45;&gt;Node3 -->
<g id="edge2_Node000001_Node000003" class="edge">
<title>Node1&#45;&gt;Node3</title>
<g id="a_edge2_Node000001_Node000003"><a xlink:title=" ">
<path fill="none" stroke="#63b8ff" d="M166.33,-199.47C181.7,-203.98 197.97,-208.74 213.68,-213.35"/>
<polygon fill="#63b8ff" stroke="#63b8ff" points="212.42,-216.62 223,-216.08 214.39,-209.91 212.42,-216.62"/>
</a>
</g>
</g>
<!-- Node4 -->
<g id="Node000004" class="node">
<title>Node4</title>
<g id="a_Node000004"><a xlink:href="../../db/dc5/interface_deluxe_1_1_deluxe_brand_center_1_1_a_m_m_1_1_a_p_i_1_1_services_1_1_i_persona_service.html#a04d89250da1b31cb913d3005ffb1f6f7" target="_top" xlink:title=" ">
<polygon fill="white" stroke="#666666" points="391.25,-199 213.25,-199 213.25,-155 391.25,-155 391.25,-199"/>
<text text-anchor="start" x="221.25" y="-185.5" font-family="Helvetica,sans-Serif" font-size="10.00">Deluxe.DeluxeBrandCenter.</text>
<text text-anchor="start" x="221.25" y="-173.5" font-family="Helvetica,sans-Serif" font-size="10.00">AMM.API.Services.IPersonaService.</text>
<text text-anchor="middle" x="302.25" y="-161.5" font-family="Helvetica,sans-Serif" font-size="10.00">Single</text>
</a>
</g>
</g>
<!-- Node1&#45;&gt;Node4 -->
<g id="edge3_Node000001_Node000004" class="edge">
<title>Node1&#45;&gt;Node4</title>
<g id="a_edge3_Node000001_Node000004"><a xlink:title=" ">
<path fill="none" stroke="#63b8ff" d="M177.53,-177C185.48,-177 193.57,-177 201.62,-177"/>
<polygon fill="#63b8ff" stroke="#63b8ff" points="201.42,-180.5 211.42,-177 201.42,-173.5 201.42,-180.5"/>
</a>
</g>
</g>
<!-- Node5 -->
<g id="Node000005" class="node">
<title>Node5</title>
<g id="a_Node000005"><a xlink:href="../../d3/d8e/interface_deluxe_1_1_deluxe_brand_center_1_1_a_m_m_1_1_a_p_i_1_1_services_1_1_i_settings_service.html#ae7e408d07e4c31ff8cee83f391ceaa73" target="_top" xlink:title=" ">
<polygon fill="white" stroke="#666666" points="391.25,-137 213.25,-137 213.25,-93 391.25,-93 391.25,-137"/>
<text text-anchor="start" x="221.25" y="-123.5" font-family="Helvetica,sans-Serif" font-size="10.00">Deluxe.DeluxeBrandCenter.</text>
<text text-anchor="start" x="221.25" y="-111.5" font-family="Helvetica,sans-Serif" font-size="10.00">AMM.API.Services.ISettingsService.</text>
<text text-anchor="middle" x="302.25" y="-99.5" font-family="Helvetica,sans-Serif" font-size="10.00">SingleByName</text>
</a>
</g>
</g>
<!-- Node1&#45;&gt;Node5 -->
<g id="edge4_Node000001_Node000005" class="edge">
<title>Node1&#45;&gt;Node5</title>
<g id="a_edge4_Node000001_Node000005"><a xlink:title=" ">
<path fill="none" stroke="#63b8ff" d="M166.33,-154.53C181.7,-150.02 197.97,-145.26 213.68,-140.65"/>
<polygon fill="#63b8ff" stroke="#63b8ff" points="214.39,-144.09 223,-137.92 212.42,-137.38 214.39,-144.09"/>
</a>
</g>
</g>
<!-- Node6 -->
<g id="Node000006" class="node">
<title>Node6</title>
<g id="a_Node000006"><a xlink:href="../../d6/d65/class_deluxe_1_1_deluxe_brand_center_1_1_a_m_m_1_1_a_p_i_1_1_services_1_1_campaign_builder_service.html#af75af05b6bf79bd7819022b164a6c684" target="_top" xlink:title=" ">
<polygon fill="white" stroke="#666666" points="390.88,-75 213.62,-75 213.62,-31 390.88,-31 390.88,-75"/>
<text text-anchor="start" x="221.62" y="-61.5" font-family="Helvetica,sans-Serif" font-size="10.00">Deluxe.DeluxeBrandCenter.</text>
<text text-anchor="start" x="221.62" y="-49.5" font-family="Helvetica,sans-Serif" font-size="10.00">AMM.API.Services.CampaignBuilder</text>
<text text-anchor="middle" x="302.25" y="-37.5" font-family="Helvetica,sans-Serif" font-size="10.00">Service.UploadHtmlContent</text>
</a>
</g>
</g>
<!-- Node1&#45;&gt;Node6 -->
<g id="edge5_Node000001_Node000006" class="edge">
<title>Node1&#45;&gt;Node6</title>
<g id="a_edge5_Node000001_Node000006"><a xlink:title=" ">
<path fill="none" stroke="#63b8ff" d="M114.57,-154.57C138.49,-133.99 176.32,-103.79 213.25,-84 215.75,-82.66 218.32,-81.36 220.93,-80.1"/>
<polygon fill="#63b8ff" stroke="#63b8ff" points="222.18,-83.38 229.84,-76.06 219.29,-77 222.18,-83.38"/>
</a>
</g>
</g>
<!-- Node7 -->
<g id="Node000007" class="node">
<title>Node7</title>
<g id="a_Node000007"><a xlink:href="../../df/db6/interface_deluxe_1_1_deluxe_brand_center_1_1_a_m_m_1_1_infrastructure_1_1_a_w_s_1_1_s3_1_1_i_amazon_s3_service.html#afc3335f03278900df478e1324f61ea07" target="_top" xlink:title=" ">
<polygon fill="white" stroke="#666666" points="609.75,-106 427.25,-106 427.25,-62 609.75,-62 609.75,-106"/>
<text text-anchor="start" x="435.25" y="-92.5" font-family="Helvetica,sans-Serif" font-size="10.00">Deluxe.DeluxeBrandCenter.</text>
<text text-anchor="start" x="435.25" y="-80.5" font-family="Helvetica,sans-Serif" font-size="10.00">AMM.Infrastructure.AWS.S3.IAmazon</text>
<text text-anchor="middle" x="518.5" y="-68.5" font-family="Helvetica,sans-Serif" font-size="10.00">S3Service.GetS3RootUrl</text>
</a>
</g>
</g>
<!-- Node6&#45;&gt;Node7 -->
<g id="edge6_Node000006_Node000007" class="edge">
<title>Node6&#45;&gt;Node7</title>
<g id="a_edge6_Node000006_Node000007"><a xlink:title=" ">
<path fill="none" stroke="#63b8ff" d="M391.32,-65.74C399.41,-66.91 407.66,-68.11 415.86,-69.29"/>
<polygon fill="#63b8ff" stroke="#63b8ff" points="415.1,-72.72 425.5,-70.69 416.1,-65.79 415.1,-72.72"/>
</a>
</g>
</g>
<!-- Node8 -->
<g id="Node000008" class="node">
<title>Node8</title>
<g id="a_Node000008"><a xlink:href="../../df/db6/interface_deluxe_1_1_deluxe_brand_center_1_1_a_m_m_1_1_infrastructure_1_1_a_w_s_1_1_s3_1_1_i_amazon_s3_service.html#a1a5b0cb27a6ab8bb34922f57b0a86d2d" target="_top" xlink:title=" ">
<polygon fill="white" stroke="#666666" points="609.75,-44 427.25,-44 427.25,0 609.75,0 609.75,-44"/>
<text text-anchor="start" x="435.25" y="-30.5" font-family="Helvetica,sans-Serif" font-size="10.00">Deluxe.DeluxeBrandCenter.</text>
<text text-anchor="start" x="435.25" y="-18.5" font-family="Helvetica,sans-Serif" font-size="10.00">AMM.Infrastructure.AWS.S3.IAmazon</text>
<text text-anchor="middle" x="518.5" y="-6.5" font-family="Helvetica,sans-Serif" font-size="10.00">S3Service.UploadHtml</text>
</a>
</g>
</g>
<!-- Node6&#45;&gt;Node8 -->
<g id="edge7_Node000006_Node000008" class="edge">
<title>Node6&#45;&gt;Node8</title>
<g id="a_edge7_Node000006_Node000008"><a xlink:title=" ">
<path fill="none" stroke="#63b8ff" d="M391.32,-40.26C399.41,-39.09 407.66,-37.89 415.86,-36.71"/>
<polygon fill="#63b8ff" stroke="#63b8ff" points="416.1,-40.21 425.5,-35.31 415.1,-33.28 416.1,-40.21"/>
</a>
</g>
</g>
</g>
</svg>
