<?xml version="1.0" encoding="UTF-8" standalone="no"?>
<!DOCTYPE svg PUBLIC "-//W3C//DTD SVG 1.1//EN"
 "http://www.w3.org/Graphics/SVG/1.1/DTD/svg11.dtd">
<!-- Generated by graphviz version 12.1.1 (20240910.0053)
 -->
<!-- Title: Deluxe.DeluxeBrandCenter.AMM.API.Services.AccountService.RegisterProfile Pages: 1 -->
<svg width="644pt" height="238pt"
 viewBox="0.00 0.00 644.00 238.00" xmlns="http://www.w3.org/2000/svg" xmlns:xlink="http://www.w3.org/1999/xlink">
<g id="graph0" class="graph" transform="scale(1 1) rotate(0) translate(4 234)">
<title>Deluxe.DeluxeBrandCenter.AMM.API.Services.AccountService.RegisterProfile</title>
<!-- Node1 -->
<g id="Node000001" class="node">
<title>Node1</title>
<g id="a_Node000001"><a xlink:title=" ">
<polygon fill="#999999" stroke="#666666" points="175,-137 0,-137 0,-93 175,-93 175,-137"/>
<text text-anchor="start" x="8" y="-123.5" font-family="Helvetica,sans-Serif" font-size="10.00">Deluxe.DeluxeBrandCenter.</text>
<text text-anchor="start" x="8" y="-111.5" font-family="Helvetica,sans-Serif" font-size="10.00">AMM.API.Services.AccountService.</text>
<text text-anchor="middle" x="87.5" y="-99.5" font-family="Helvetica,sans-Serif" font-size="10.00">RegisterProfile</text>
</a>
</g>
</g>
<!-- Node2 -->
<g id="Node000002" class="node">
<title>Node2</title>
<g id="a_Node000002"><a xlink:href="../../da/d31/class_deluxe_1_1_deluxe_brand_center_1_1_a_m_m_1_1_domain_1_1_ext_service_model_1_1_mindfire_1_1_request_credentials.html#a9cedb033f2ce48e7edaf18068a78b4f5" target="_top" xlink:title=" ">
<polygon fill="white" stroke="#666666" points="405.12,-230 211.38,-230 211.38,-186 405.12,-186 405.12,-230"/>
<text text-anchor="start" x="219.38" y="-216.5" font-family="Helvetica,sans-Serif" font-size="10.00">Deluxe.DeluxeBrandCenter.</text>
<text text-anchor="start" x="219.38" y="-204.5" font-family="Helvetica,sans-Serif" font-size="10.00">AMM.Domain.ExtServiceModel.Mindfire.</text>
<text text-anchor="middle" x="308.25" y="-192.5" font-family="Helvetica,sans-Serif" font-size="10.00">RequestCredentials.NewInstance</text>
</a>
</g>
</g>
<!-- Node1&#45;&gt;Node2 -->
<g id="edge1_Node000001_Node000002" class="edge">
<title>Node1&#45;&gt;Node2</title>
<g id="a_edge1_Node000001_Node000002"><a xlink:title=" ">
<path fill="none" stroke="#63b8ff" d="M128.86,-137.45C152.4,-150.02 182.89,-165.44 211,-177 214.84,-178.58 218.79,-180.13 222.8,-181.64"/>
<polygon fill="#63b8ff" stroke="#63b8ff" points="221.49,-184.89 232.09,-185.05 223.9,-178.32 221.49,-184.89"/>
</a>
</g>
</g>
<!-- Node3 -->
<g id="Node000003" class="node">
<title>Node3</title>
<g id="a_Node000003"><a xlink:href="../../dc/db9/class_deluxe_1_1_deluxe_brand_center_1_1_a_m_m_1_1_a_p_i_1_1_services_1_1_account_service.html#a02f134321d39745f10b489bf7fcdfc30" target="_top" xlink:title=" ">
<polygon fill="white" stroke="#666666" points="395.75,-168 220.75,-168 220.75,-124 395.75,-124 395.75,-168"/>
<text text-anchor="start" x="228.75" y="-154.5" font-family="Helvetica,sans-Serif" font-size="10.00">Deluxe.DeluxeBrandCenter.</text>
<text text-anchor="start" x="228.75" y="-142.5" font-family="Helvetica,sans-Serif" font-size="10.00">AMM.API.Services.AccountService.</text>
<text text-anchor="middle" x="308.25" y="-130.5" font-family="Helvetica,sans-Serif" font-size="10.00">RegisterMFUser</text>
</a>
</g>
</g>
<!-- Node1&#45;&gt;Node3 -->
<g id="edge2_Node000001_Node000003" class="edge">
<title>Node1&#45;&gt;Node3</title>
<g id="a_edge2_Node000001_Node000003"><a xlink:title=" ">
<path fill="none" stroke="#63b8ff" d="M175.27,-127.3C186.45,-128.88 197.97,-130.51 209.31,-132.12"/>
<polygon fill="#63b8ff" stroke="#63b8ff" points="208.69,-135.57 219.09,-133.51 209.68,-128.64 208.69,-135.57"/>
</a>
</g>
</g>
<!-- Node5 -->
<g id="Node000005" class="node">
<title>Node5</title>
<g id="a_Node000005"><a xlink:href="../../dd/d7d/interface_deluxe_1_1_deluxe_brand_center_1_1_a_m_m_1_1_domain_1_1_services_1_1_i_session_service.html#a74b7c3e39306365972dba285fd95eddc" target="_top" xlink:title=" ">
<polygon fill="white" stroke="#666666" points="405.5,-106 211,-106 211,-62 405.5,-62 405.5,-106"/>
<text text-anchor="start" x="219" y="-92.5" font-family="Helvetica,sans-Serif" font-size="10.00">Deluxe.DeluxeBrandCenter.</text>
<text text-anchor="start" x="219" y="-80.5" font-family="Helvetica,sans-Serif" font-size="10.00">AMM.Domain.Services.ISessionService.</text>
<text text-anchor="middle" x="308.25" y="-68.5" font-family="Helvetica,sans-Serif" font-size="10.00">SessionGetMFDomain</text>
</a>
</g>
</g>
<!-- Node1&#45;&gt;Node5 -->
<g id="edge4_Node000001_Node000005" class="edge">
<title>Node1&#45;&gt;Node5</title>
<g id="a_edge4_Node000001_Node000005"><a xlink:title=" ">
<path fill="none" stroke="#63b8ff" d="M175.27,-102.7C183.31,-101.56 191.51,-100.4 199.71,-99.24"/>
<polygon fill="#63b8ff" stroke="#63b8ff" points="199.95,-102.74 209.36,-97.87 198.96,-95.81 199.95,-102.74"/>
</a>
</g>
</g>
<!-- Node6 -->
<g id="Node000006" class="node">
<title>Node6</title>
<g id="a_Node000006"><a xlink:href="../../d2/dd7/interface_deluxe_1_1_deluxe_brand_center_1_1_a_m_m_1_1_a_p_i_1_1_services_1_1_i_mindfire_service.html#a19e21a2222a8d5c03cd9a6ca06102400" target="_top" xlink:title=" ">
<polygon fill="white" stroke="#666666" points="396.5,-44 220,-44 220,0 396.5,0 396.5,-44"/>
<text text-anchor="start" x="228" y="-30.5" font-family="Helvetica,sans-Serif" font-size="10.00">Deluxe.DeluxeBrandCenter.</text>
<text text-anchor="start" x="228" y="-18.5" font-family="Helvetica,sans-Serif" font-size="10.00">AMM.API.Services.IMindfireService.</text>
<text text-anchor="middle" x="308.25" y="-6.5" font-family="Helvetica,sans-Serif" font-size="10.00">SetUserTicket</text>
</a>
</g>
</g>
<!-- Node1&#45;&gt;Node6 -->
<g id="edge5_Node000001_Node000006" class="edge">
<title>Node1&#45;&gt;Node6</title>
<g id="a_edge5_Node000001_Node000006"><a xlink:title=" ">
<path fill="none" stroke="#63b8ff" d="M128.86,-92.55C152.4,-79.98 182.89,-64.56 211,-53 214.84,-51.42 218.79,-49.87 222.8,-48.36"/>
<polygon fill="#63b8ff" stroke="#63b8ff" points="223.9,-51.68 232.09,-44.95 221.49,-45.11 223.9,-51.68"/>
</a>
</g>
</g>
<!-- Node4 -->
<g id="Node000004" class="node">
<title>Node4</title>
<g id="a_Node000004"><a xlink:href="../../dd/d7d/interface_deluxe_1_1_deluxe_brand_center_1_1_a_m_m_1_1_domain_1_1_services_1_1_i_session_service.html#a16cd71fc18c3e958b6941b30021b2ddb" target="_top" xlink:title=" ">
<polygon fill="white" stroke="#666666" points="636,-168 441.5,-168 441.5,-124 636,-124 636,-168"/>
<text text-anchor="start" x="449.5" y="-154.5" font-family="Helvetica,sans-Serif" font-size="10.00">Deluxe.DeluxeBrandCenter.</text>
<text text-anchor="start" x="449.5" y="-142.5" font-family="Helvetica,sans-Serif" font-size="10.00">AMM.Domain.Services.ISessionService.</text>
<text text-anchor="middle" x="538.75" y="-130.5" font-family="Helvetica,sans-Serif" font-size="10.00">SessionGetMFAccountNamePrefix</text>
</a>
</g>
</g>
<!-- Node3&#45;&gt;Node4 -->
<g id="edge3_Node000003_Node000004" class="edge">
<title>Node3&#45;&gt;Node4</title>
<g id="a_edge3_Node000003_Node000004"><a xlink:title=" ">
<path fill="none" stroke="#63b8ff" d="M395.96,-146C407.04,-146 418.49,-146 429.85,-146"/>
<polygon fill="#63b8ff" stroke="#63b8ff" points="429.65,-149.5 439.65,-146 429.65,-142.5 429.65,-149.5"/>
</a>
</g>
</g>
</g>
</svg>
