<?xml version="1.0" encoding="UTF-8" standalone="no"?>
<!DOCTYPE svg PUBLIC "-//W3C//DTD SVG 1.1//EN"
 "http://www.w3.org/Graphics/SVG/1.1/DTD/svg11.dtd">
<!-- Generated by graphviz version 12.1.1 (20240910.0053)
 -->
<!-- Title: Deluxe.DeluxeBrandCenter.AMM.API.Services.AccountService.registerApplicationUserWithUserId Pages: 1 -->
<svg width="881pt" height="114pt"
 viewBox="0.00 0.00 880.50 114.00" xmlns="http://www.w3.org/2000/svg" xmlns:xlink="http://www.w3.org/1999/xlink">
<g id="graph0" class="graph" transform="scale(1 1) rotate(0) translate(4 110)">
<title>Deluxe.DeluxeBrandCenter.AMM.API.Services.AccountService.registerApplicationUserWithUserId</title>
<!-- Node1 -->
<g id="Node000001" class="node">
<title>Node1</title>
<g id="a_Node000001"><a xlink:title=" ">
<polygon fill="#999999" stroke="#666666" points="872.5,-75 665.25,-75 665.25,-31 872.5,-31 872.5,-75"/>
<text text-anchor="start" x="673.25" y="-61.5" font-family="Helvetica,sans-Serif" font-size="10.00">Deluxe.DeluxeBrandCenter.</text>
<text text-anchor="start" x="673.25" y="-49.5" font-family="Helvetica,sans-Serif" font-size="10.00">AMM.API.Services.AccountService.register</text>
<text text-anchor="middle" x="768.88" y="-37.5" font-family="Helvetica,sans-Serif" font-size="10.00">ApplicationUserWithUserId</text>
</a>
</g>
</g>
<!-- Node2 -->
<g id="Node000002" class="node">
<title>Node2</title>
<g id="a_Node000002"><a xlink:href="../../dc/db9/class_deluxe_1_1_deluxe_brand_center_1_1_a_m_m_1_1_a_p_i_1_1_services_1_1_account_service.html#aab5e5f4f159724b2d4a8059499f33bad" target="_top" xlink:title=" ">
<polygon fill="white" stroke="#666666" points="629.25,-106 422,-106 422,-62 629.25,-62 629.25,-106"/>
<text text-anchor="start" x="430" y="-92.5" font-family="Helvetica,sans-Serif" font-size="10.00">Deluxe.DeluxeBrandCenter.</text>
<text text-anchor="start" x="430" y="-80.5" font-family="Helvetica,sans-Serif" font-size="10.00">AMM.API.Services.AccountService.register</text>
<text text-anchor="middle" x="525.62" y="-68.5" font-family="Helvetica,sans-Serif" font-size="10.00">UserAdminWithUserId</text>
</a>
</g>
</g>
<!-- Node1&#45;&gt;Node2 -->
<g id="edge1_Node000001_Node000002" class="edge">
<title>Node1&#45;&gt;Node2</title>
<g id="a_edge1_Node000001_Node000002"><a xlink:title=" ">
<path fill="none" stroke="#63b8ff" d="M653.61,-67.68C645.62,-68.71 637.6,-69.74 629.68,-70.76"/>
<polygon fill="#63b8ff" stroke="#63b8ff" points="653.89,-71.18 663.36,-66.43 653,-64.23 653.89,-71.18"/>
</a>
</g>
</g>
<!-- Node5 -->
<g id="Node000005" class="node">
<title>Node5</title>
<g id="a_Node000005"><a xlink:href="../../dc/db9/class_deluxe_1_1_deluxe_brand_center_1_1_a_m_m_1_1_a_p_i_1_1_services_1_1_account_service.html#a23c6273daa8f4761e7b257a9d0d510c0" target="_top" xlink:title=" ">
<polygon fill="white" stroke="#666666" points="629.25,-44 422,-44 422,0 629.25,0 629.25,-44"/>
<text text-anchor="start" x="430" y="-30.5" font-family="Helvetica,sans-Serif" font-size="10.00">Deluxe.DeluxeBrandCenter.</text>
<text text-anchor="start" x="430" y="-18.5" font-family="Helvetica,sans-Serif" font-size="10.00">AMM.API.Services.AccountService.register</text>
<text text-anchor="middle" x="525.62" y="-6.5" font-family="Helvetica,sans-Serif" font-size="10.00">UserAdvisorWithUserId</text>
</a>
</g>
</g>
<!-- Node1&#45;&gt;Node5 -->
<g id="edge4_Node000001_Node000005" class="edge">
<title>Node1&#45;&gt;Node5</title>
<g id="a_edge4_Node000001_Node000005"><a xlink:title=" ">
<path fill="none" stroke="#63b8ff" d="M653.61,-38.32C645.62,-37.29 637.6,-36.26 629.68,-35.24"/>
<polygon fill="#63b8ff" stroke="#63b8ff" points="653,-41.77 663.36,-39.57 653.89,-34.82 653,-41.77"/>
</a>
</g>
</g>
<!-- Node3 -->
<g id="Node000003" class="node">
<title>Node3</title>
<g id="a_Node000003"><a xlink:href="../../dc/db9/class_deluxe_1_1_deluxe_brand_center_1_1_a_m_m_1_1_a_p_i_1_1_services_1_1_account_service.html#ae47fd0f3f51489123d65b4d4c1778e9e" target="_top" xlink:title=" ">
<polygon fill="white" stroke="#666666" points="386,-75 211,-75 211,-31 386,-31 386,-75"/>
<text text-anchor="start" x="219" y="-61.5" font-family="Helvetica,sans-Serif" font-size="10.00">Deluxe.DeluxeBrandCenter.</text>
<text text-anchor="start" x="219" y="-49.5" font-family="Helvetica,sans-Serif" font-size="10.00">AMM.API.Services.AccountService.</text>
<text text-anchor="middle" x="298.5" y="-37.5" font-family="Helvetica,sans-Serif" font-size="10.00">RegisterAdvisor</text>
</a>
</g>
</g>
<!-- Node2&#45;&gt;Node3 -->
<g id="edge2_Node000002_Node000003" class="edge">
<title>Node2&#45;&gt;Node3</title>
<g id="a_edge2_Node000002_Node000003"><a xlink:title=" ">
<path fill="none" stroke="#63b8ff" d="M410.24,-68.25C402.19,-67.14 394.15,-66.03 386.29,-64.95"/>
<polygon fill="#63b8ff" stroke="#63b8ff" points="409.73,-71.71 420.12,-69.61 410.69,-64.78 409.73,-71.71"/>
</a>
</g>
</g>
<!-- Node4 -->
<g id="Node000004" class="node">
<title>Node4</title>
<g id="a_Node000004"><a xlink:href="../../dc/db9/class_deluxe_1_1_deluxe_brand_center_1_1_a_m_m_1_1_a_p_i_1_1_services_1_1_account_service.html#ae3584aa7350a66b28807932012ac7dd2" target="_top" xlink:title=" ">
<polygon fill="white" stroke="#666666" points="175,-75 0,-75 0,-31 175,-31 175,-75"/>
<text text-anchor="start" x="8" y="-61.5" font-family="Helvetica,sans-Serif" font-size="10.00">Deluxe.DeluxeBrandCenter.</text>
<text text-anchor="start" x="8" y="-49.5" font-family="Helvetica,sans-Serif" font-size="10.00">AMM.API.Services.AccountService.</text>
<text text-anchor="middle" x="87.5" y="-37.5" font-family="Helvetica,sans-Serif" font-size="10.00">SSOSignIn</text>
</a>
</g>
</g>
<!-- Node3&#45;&gt;Node4 -->
<g id="edge3_Node000003_Node000004" class="edge">
<title>Node3&#45;&gt;Node4</title>
<g id="a_edge3_Node000003_Node000004"><a xlink:title=" ">
<path fill="none" stroke="#63b8ff" d="M199.4,-53C191.38,-53 183.31,-53 175.39,-53"/>
<polygon fill="#63b8ff" stroke="#63b8ff" points="199.17,-56.5 209.17,-53 199.17,-49.5 199.17,-56.5"/>
</a>
</g>
</g>
<!-- Node5&#45;&gt;Node3 -->
<g id="edge5_Node000005_Node000003" class="edge">
<title>Node5&#45;&gt;Node3</title>
<g id="a_edge5_Node000005_Node000003"><a xlink:title=" ">
<path fill="none" stroke="#63b8ff" d="M410.24,-37.75C402.19,-38.86 394.15,-39.97 386.29,-41.05"/>
<polygon fill="#63b8ff" stroke="#63b8ff" points="410.69,-41.22 420.12,-36.39 409.73,-34.29 410.69,-41.22"/>
</a>
</g>
</g>
</g>
</svg>
