<?xml version="1.0" encoding="UTF-8" standalone="no"?>
<!DOCTYPE svg PUBLIC "-//W3C//DTD SVG 1.1//EN"
 "http://www.w3.org/Graphics/SVG/1.1/DTD/svg11.dtd">
<!-- Generated by graphviz version 12.1.1 (20240910.0053)
 -->
<!-- Title: Deluxe.DeluxeBrandCenter.AMM.API.Services.AccountService.SSOSignIn Pages: 1 -->
<!--zoomable 848 -->

<svg id="main" version="1.1" xmlns="http://www.w3.org/2000/svg" xmlns:xlink="http://www.w3.org/1999/xlink" xml:space="preserve" onload="init(evt)">

<style type="text/css"><![CDATA[
.node, .edge {opacity: 0.7;}
.node.selected, .edge.selected {opacity: 1;}
.edge:hover path { stroke: red; }
.edge:hover polygon { stroke: red; fill: red; }
]]></style>

<defs>
  <circle id="rim" cx="0" cy="0" r="7"/>
  <circle id="rim2" cx="0" cy="0" r="3.5"/>
  <g id="zoomPlus">
    <use xlink:href="#rim" fill="#404040"><set attributeName="fill" to="#808080" begin="zoomplus.mouseover" end="zoomplus.mouseout"/></use>
    <path d="M-4,0h8M0,-4v8" fill="none" stroke="white" stroke-width="1.5" pointer-events="none"/>
  </g>
  <g id="zoomMin">
    <use xlink:href="#rim" fill="#404040"><set attributeName="fill" to="#808080" begin="zoomminus.mouseover" end="zoomminus.mouseout"/></use>
    <path d="M-4,0h8" fill="none" stroke="white" stroke-width="1.5" pointer-events="none"/>
  </g>
  <g id="arrowUp" transform="translate(30 24)">
    <use xlink:href="#rim"/>
    <path pointer-events="none" fill="none" stroke="white" stroke-width="1.5" d="M0,-3.0v7 M-2.5,-0.5L0,-3.0L2.5,-0.5"/>
  </g>
  <g id="arrowRight" transform="rotate(90) translate(36 -43)">
    <use xlink:href="#rim"/>
    <path pointer-events="none" fill="none" stroke="white" stroke-width="1.5" d="M0,-3.0v7 M-2.5,-0.5L0,-3.0L2.5,-0.5"/>
  </g>
  <g id="arrowDown" transform="rotate(180) translate(-30 -48)">
    <use xlink:href="#rim"/>
    <path pointer-events="none" fill="none" stroke="white" stroke-width="1.5" d="M0,-3.0v7 M-2.5,-0.5L0,-3.0L2.5,-0.5"/>
  </g>
  <g id="arrowLeft" transform="rotate(270) translate(-36 17)">
    <use xlink:href="#rim"/>
    <path pointer-events="none" fill="none" stroke="white" stroke-width="1.5" d="M0,-3.0v7 M-2.5,-0.5L0,-3.0L2.5,-0.5"/>
  </g>
  <g id="resetDef">
    <use xlink:href="#rim2" fill="#404040"><set attributeName="fill" to="#808080" begin="reset.mouseover" end="reset.mouseout"/></use>
  </g>
</defs>
<script type="application/ecmascript">
var viewWidth = 1618;
var viewHeight = 848;
var sectionId = 'dynsection-18';
</script>
<script type="application/ecmascript" xlink:href="../../svg.min.js"/>
<svg id="graph" class="graph">
<g id="viewport">
<title>Deluxe.DeluxeBrandCenter.AMM.API.Services.AccountService.SSOSignIn</title>
<!-- Node1 -->
<g id="Node000001" class="node">
<title>Node1</title>
<g id="a_Node000001"><a xlink:title=" ">
<polygon fill="#999999" stroke="#666666" points="175,-380 0,-380 0,-336 175,-336 175,-380"/>
<text text-anchor="start" x="8" y="-366.5" font-family="Helvetica,sans-Serif" font-size="10.00">Deluxe.DeluxeBrandCenter.</text>
<text text-anchor="start" x="8" y="-354.5" font-family="Helvetica,sans-Serif" font-size="10.00">AMM.API.Services.AccountService.</text>
<text text-anchor="middle" x="87.5" y="-342.5" font-family="Helvetica,sans-Serif" font-size="10.00">SSOSignIn</text>
</a>
</g>
</g>
<!-- Node2 -->
<g id="Node000002" class="node">
<title>Node2</title>
<g id="a_Node000002"><a xlink:href="../../d0/d18/interface_deluxe_1_1_deluxe_brand_center_1_1_a_m_m_1_1_a_p_i_1_1_services_1_1_i_d_b_c_service.html#aeaae3246c190a63554745e6119721558" target="_top" xlink:title=" ">
<polygon fill="white" stroke="#666666" points="411.5,-642 211,-642 211,-610 411.5,-610 411.5,-642"/>
<text text-anchor="start" x="219" y="-628.5" font-family="Helvetica,sans-Serif" font-size="10.00">Deluxe.DeluxeBrandCenter.</text>
<text text-anchor="middle" x="311.25" y="-616.5" font-family="Helvetica,sans-Serif" font-size="10.00">AMM.API.Services.IDBCService.GetUser</text>
</a>
</g>
</g>
<!-- Node1&#45;&gt;Node2 -->
<g id="edge1_Node000001_Node000002" class="edge">
<title>Node1&#45;&gt;Node2</title>
<g id="a_edge1_Node000001_Node000002"><a xlink:title=" ">
<path fill="none" stroke="#63b8ff" d="M93.19,-380.4C104.47,-428.56 137.8,-542.37 211,-601 212.3,-602.04 213.64,-603.04 215.01,-604"/>
<polygon fill="#63b8ff" stroke="#63b8ff" points="212.84,-606.77 223.2,-608.96 216.46,-600.78 212.84,-606.77"/>
</a>
</g>
</g>
<!-- Node3 -->
<g id="Node000003" class="node">
<title>Node3</title>
<g id="a_Node000003"><a xlink:href="../../dc/db9/class_deluxe_1_1_deluxe_brand_center_1_1_a_m_m_1_1_a_p_i_1_1_services_1_1_account_service.html#ae47fd0f3f51489123d65b4d4c1778e9e" target="_top" xlink:title=" ">
<polygon fill="white" stroke="#666666" points="398.75,-592 223.75,-592 223.75,-548 398.75,-548 398.75,-592"/>
<text text-anchor="start" x="231.75" y="-578.5" font-family="Helvetica,sans-Serif" font-size="10.00">Deluxe.DeluxeBrandCenter.</text>
<text text-anchor="start" x="231.75" y="-566.5" font-family="Helvetica,sans-Serif" font-size="10.00">AMM.API.Services.AccountService.</text>
<text text-anchor="middle" x="311.25" y="-554.5" font-family="Helvetica,sans-Serif" font-size="10.00">RegisterAdvisor</text>
</a>
</g>
</g>
<!-- Node1&#45;&gt;Node3 -->
<g id="edge2_Node000001_Node000003" class="edge">
<title>Node1&#45;&gt;Node3</title>
<g id="a_edge2_Node000001_Node000003"><a xlink:title=" ">
<path fill="none" stroke="#63b8ff" d="M111.81,-380.29C151.82,-418.54 233.6,-496.72 278.68,-539.82"/>
<polygon fill="#63b8ff" stroke="#63b8ff" points="276.18,-542.27 285.82,-546.65 281.01,-537.21 276.18,-542.27"/>
</a>
</g>
</g>
<!-- Node15 -->
<g id="Node000015" class="node">
<title>Node15</title>
<g id="a_Node000015"><a xlink:href="../../d6/db1/class_deluxe_1_1_deluxe_brand_center_1_1_a_m_m_1_1_infrastructure_1_1_databases_1_1_application_db_context.html#a92bd6d01c18ab350b60414ec6991a32d" target="_top" xlink:title=" ">
<polygon fill="white" stroke="#666666" points="1135.25,-430 934,-430 934,-386 1135.25,-386 1135.25,-430"/>
<text text-anchor="start" x="942" y="-416.5" font-family="Helvetica,sans-Serif" font-size="10.00">Deluxe.DeluxeBrandCenter.</text>
<text text-anchor="start" x="942" y="-404.5" font-family="Helvetica,sans-Serif" font-size="10.00">AMM.Infrastructure.Databases.Application</text>
<text text-anchor="middle" x="1034.62" y="-392.5" font-family="Helvetica,sans-Serif" font-size="10.00">DbContext.SaveChangesAsync</text>
</a>
</g>
</g>
<!-- Node1&#45;&gt;Node15 -->
<g id="edge22_Node000001_Node000015" class="edge">
<title>Node1&#45;&gt;Node15</title>
<g id="a_edge22_Node000001_Node000015"><a xlink:title=" ">
<path fill="none" stroke="#63b8ff" d="M108.3,-335.59C158.42,-280.78 297.08,-140.81 447.5,-91 534.94,-62.05 568.17,-59.56 654.75,-91 815.28,-149.3 955.31,-308.71 1009.61,-376.65"/>
<polygon fill="#63b8ff" stroke="#63b8ff" points="1006.81,-378.75 1015.75,-384.43 1012.3,-374.41 1006.81,-378.75"/>
</a>
</g>
</g>
<!-- Node20 -->
<g id="Node000020" class="node">
<title>Node20</title>
<g id="a_Node000020"><a xlink:href="../../dd/d7d/interface_deluxe_1_1_deluxe_brand_center_1_1_a_m_m_1_1_domain_1_1_services_1_1_i_session_service.html#a197b2335b8b2ec6ee2584b61d4c28b04" target="_top" xlink:title=" ">
<polygon fill="white" stroke="#666666" points="648.38,-430 453.88,-430 453.88,-386 648.38,-386 648.38,-430"/>
<text text-anchor="start" x="461.88" y="-416.5" font-family="Helvetica,sans-Serif" font-size="10.00">Deluxe.DeluxeBrandCenter.</text>
<text text-anchor="start" x="461.88" y="-404.5" font-family="Helvetica,sans-Serif" font-size="10.00">AMM.Domain.Services.ISessionService.</text>
<text text-anchor="middle" x="551.12" y="-392.5" font-family="Helvetica,sans-Serif" font-size="10.00">SetSessionVariables</text>
</a>
</g>
</g>
<!-- Node1&#45;&gt;Node20 -->
<g id="edge23_Node000001_Node000020" class="edge">
<title>Node1&#45;&gt;Node20</title>
<g id="a_edge23_Node000001_Node000020"><a xlink:title=" ">
<path fill="none" stroke="#63b8ff" d="M175.33,-367.4C251.03,-375.6 361.15,-387.53 442.45,-396.34"/>
<polygon fill="#63b8ff" stroke="#63b8ff" points="441.9,-399.8 452.22,-397.4 442.65,-392.84 441.9,-399.8"/>
</a>
</g>
</g>
<!-- Node21 -->
<g id="Node000021" class="node">
<title>Node21</title>
<g id="a_Node000021"><a xlink:href="../../dc/db9/class_deluxe_1_1_deluxe_brand_center_1_1_a_m_m_1_1_a_p_i_1_1_services_1_1_account_service.html#a9280300b6414aabe58c40ef3dd7780c3" target="_top" xlink:title=" ">
<polygon fill="white" stroke="#666666" points="398.75,-330 223.75,-330 223.75,-286 398.75,-286 398.75,-330"/>
<text text-anchor="start" x="231.75" y="-316.5" font-family="Helvetica,sans-Serif" font-size="10.00">Deluxe.DeluxeBrandCenter.</text>
<text text-anchor="start" x="231.75" y="-304.5" font-family="Helvetica,sans-Serif" font-size="10.00">AMM.API.Services.AccountService.</text>
<text text-anchor="middle" x="311.25" y="-292.5" font-family="Helvetica,sans-Serif" font-size="10.00">SignIn</text>
</a>
</g>
</g>
<!-- Node1&#45;&gt;Node21 -->
<g id="edge24_Node000001_Node000021" class="edge">
<title>Node1&#45;&gt;Node21</title>
<g id="a_edge24_Node000001_Node000021"><a xlink:title=" ">
<path fill="none" stroke="#63b8ff" d="M175.19,-338.45C187.28,-335.73 199.77,-332.91 212.05,-330.14"/>
<polygon fill="#63b8ff" stroke="#63b8ff" points="212.8,-333.56 221.78,-327.95 211.26,-326.73 212.8,-333.56"/>
</a>
</g>
</g>
<!-- Node26 -->
<g id="Node000026" class="node">
<title>Node26</title>
<g id="a_Node000026"><a xlink:href="../../d0/dcc/interface_deluxe_1_1_deluxe_brand_center_1_1_a_m_m_1_1_a_p_i_1_1_services_1_1_i_client_d_b_service.html#a0697a51e787aa03195f285761e49ce9e" target="_top" xlink:title=" ">
<polygon fill="white" stroke="#666666" points="402.12,-44 220.38,-44 220.38,0 402.12,0 402.12,-44"/>
<text text-anchor="start" x="228.38" y="-30.5" font-family="Helvetica,sans-Serif" font-size="10.00">Deluxe.DeluxeBrandCenter.</text>
<text text-anchor="start" x="228.38" y="-18.5" font-family="Helvetica,sans-Serif" font-size="10.00">AMM.API.Services.IClientDBService.</text>
<text text-anchor="middle" x="311.25" y="-6.5" font-family="Helvetica,sans-Serif" font-size="10.00">Single</text>
</a>
</g>
</g>
<!-- Node1&#45;&gt;Node26 -->
<g id="edge31_Node000001_Node000026" class="edge">
<title>Node1&#45;&gt;Node26</title>
<g id="a_edge31_Node000001_Node000026"><a xlink:title=" ">
<path fill="none" stroke="#63b8ff" d="M91.37,-335.74C99.6,-280.81 128.25,-137.53 211,-58 213.86,-55.25 216.95,-52.71 220.21,-50.36"/>
<polygon fill="#63b8ff" stroke="#63b8ff" points="221.97,-53.38 228.5,-45.04 218.19,-47.49 221.97,-53.38"/>
</a>
</g>
</g>
<!-- Node4 -->
<g id="Node000004" class="node">
<title>Node4</title>
<g id="a_Node000004"><a xlink:href="../../d5/d2b/class_deluxe_1_1_deluxe_brand_center_1_1_a_m_m_1_1_domain_1_1_data_model_1_1_client_1_1_user.html#aed8826e2ed158191bf83cea2b1a76c4f" target="_top" xlink:title=" ">
<polygon fill="white" stroke="#666666" points="642,-840 460.25,-840 460.25,-796 642,-796 642,-840"/>
<text text-anchor="start" x="468.25" y="-826.5" font-family="Helvetica,sans-Serif" font-size="10.00">Deluxe.DeluxeBrandCenter.</text>
<text text-anchor="start" x="468.25" y="-814.5" font-family="Helvetica,sans-Serif" font-size="10.00">AMM.Domain.DataModel.Client.User.</text>
<text text-anchor="middle" x="551.12" y="-802.5" font-family="Helvetica,sans-Serif" font-size="10.00">AsProfile</text>
</a>
</g>
</g>
<!-- Node3&#45;&gt;Node4 -->
<g id="edge3_Node000003_Node000004" class="edge">
<title>Node3&#45;&gt;Node4</title>
<g id="a_edge3_Node000003_Node000004"><a xlink:title=" ">
<path fill="none" stroke="#63b8ff" d="M398.84,-590.08C403.49,-593.21 407.77,-596.83 411.5,-601 467.63,-663.77 391.08,-724.5 447.5,-787 448.67,-788.3 449.89,-789.54 451.16,-790.73"/>
<polygon fill="#63b8ff" stroke="#63b8ff" points="448.95,-793.45 458.96,-796.93 453.31,-787.97 448.95,-793.45"/>
</a>
</g>
</g>
<!-- Node5 -->
<g id="Node000005" class="node">
<title>Node5</title>
<g id="a_Node000005"><a xlink:href="../../d5/d2b/class_deluxe_1_1_deluxe_brand_center_1_1_a_m_m_1_1_domain_1_1_data_model_1_1_client_1_1_user.html#a7c2d40c975d81d6ab2a40ae009f4d7f4" target="_top" xlink:title=" ">
<polygon fill="white" stroke="#666666" points="642,-778 460.25,-778 460.25,-734 642,-734 642,-778"/>
<text text-anchor="start" x="468.25" y="-764.5" font-family="Helvetica,sans-Serif" font-size="10.00">Deluxe.DeluxeBrandCenter.</text>
<text text-anchor="start" x="468.25" y="-752.5" font-family="Helvetica,sans-Serif" font-size="10.00">AMM.Domain.DataModel.Client.User.</text>
<text text-anchor="middle" x="551.12" y="-740.5" font-family="Helvetica,sans-Serif" font-size="10.00">GetAgUserId</text>
</a>
</g>
</g>
<!-- Node3&#45;&gt;Node5 -->
<g id="edge4_Node000003_Node000005" class="edge">
<title>Node3&#45;&gt;Node5</title>
<g id="a_edge4_Node000003_Node000005"><a xlink:title=" ">
<path fill="none" stroke="#63b8ff" d="M398.87,-590.78C403.44,-593.75 407.71,-597.13 411.5,-601 451.67,-641.99 407.14,-684.2 447.5,-725 448.69,-726.2 449.92,-727.35 451.19,-728.46"/>
<polygon fill="#63b8ff" stroke="#63b8ff" points="448.8,-731.04 458.9,-734.25 453,-725.44 448.8,-731.04"/>
</a>
</g>
</g>
<!-- Node6 -->
<g id="Node000006" class="node">
<title>Node6</title>
<g id="a_Node000006"><a xlink:href="../../dc/db9/class_deluxe_1_1_deluxe_brand_center_1_1_a_m_m_1_1_a_p_i_1_1_services_1_1_account_service.html#a3fd50a754a74e48351249c2c86419651" target="_top" xlink:title=" ">
<polygon fill="white" stroke="#666666" points="638.62,-716 463.62,-716 463.62,-672 638.62,-672 638.62,-716"/>
<text text-anchor="start" x="471.62" y="-702.5" font-family="Helvetica,sans-Serif" font-size="10.00">Deluxe.DeluxeBrandCenter.</text>
<text text-anchor="start" x="471.62" y="-690.5" font-family="Helvetica,sans-Serif" font-size="10.00">AMM.API.Services.AccountService.</text>
<text text-anchor="middle" x="551.12" y="-678.5" font-family="Helvetica,sans-Serif" font-size="10.00">MapProfileToUser</text>
</a>
</g>
</g>
<!-- Node3&#45;&gt;Node6 -->
<g id="edge5_Node000003_Node000006" class="edge">
<title>Node3&#45;&gt;Node6</title>
<g id="a_edge5_Node000003_Node000006"><a xlink:title=" ">
<path fill="none" stroke="#63b8ff" d="M398.8,-592.46C403.28,-595.01 407.55,-597.85 411.5,-601 436.4,-620.88 422.51,-643.24 447.5,-663 449.46,-664.55 451.49,-666.02 453.59,-667.42"/>
<polygon fill="#63b8ff" stroke="#63b8ff" points="451.46,-670.22 461.84,-672.31 455.03,-664.2 451.46,-670.22"/>
</a>
</g>
</g>
<!-- Node7 -->
<g id="Node000007" class="node">
<title>Node7</title>
<g id="a_Node000007"><a xlink:href="../../dc/db9/class_deluxe_1_1_deluxe_brand_center_1_1_a_m_m_1_1_a_p_i_1_1_services_1_1_account_service.html#a0131ec5826403c03945c1cab1ec2153c" target="_top" xlink:title=" ">
<polygon fill="white" stroke="#666666" points="638.62,-654 463.62,-654 463.62,-610 638.62,-610 638.62,-654"/>
<text text-anchor="start" x="471.62" y="-640.5" font-family="Helvetica,sans-Serif" font-size="10.00">Deluxe.DeluxeBrandCenter.</text>
<text text-anchor="start" x="471.62" y="-628.5" font-family="Helvetica,sans-Serif" font-size="10.00">AMM.API.Services.AccountService.</text>
<text text-anchor="middle" x="551.12" y="-616.5" font-family="Helvetica,sans-Serif" font-size="10.00">RegisterProfile</text>
</a>
</g>
</g>
<!-- Node3&#45;&gt;Node7 -->
<g id="edge6_Node000003_Node000007" class="edge">
<title>Node3&#45;&gt;Node7</title>
<g id="a_edge6_Node000003_Node000007"><a xlink:title=" ">
<path fill="none" stroke="#63b8ff" d="M398.46,-592.47C416.08,-597.06 434.74,-601.93 452.71,-606.61"/>
<polygon fill="#63b8ff" stroke="#63b8ff" points="451.78,-609.98 462.34,-609.12 453.55,-603.21 451.78,-609.98"/>
</a>
</g>
</g>
<!-- Node13 -->
<g id="Node000013" class="node">
<title>Node13</title>
<g id="a_Node000013"><a xlink:href="../../dc/db9/class_deluxe_1_1_deluxe_brand_center_1_1_a_m_m_1_1_a_p_i_1_1_services_1_1_account_service.html#aab5e5f4f159724b2d4a8059499f33bad" target="_top" xlink:title=" ">
<polygon fill="white" stroke="#666666" points="654.75,-592 447.5,-592 447.5,-548 654.75,-548 654.75,-592"/>
<text text-anchor="start" x="455.5" y="-578.5" font-family="Helvetica,sans-Serif" font-size="10.00">Deluxe.DeluxeBrandCenter.</text>
<text text-anchor="start" x="455.5" y="-566.5" font-family="Helvetica,sans-Serif" font-size="10.00">AMM.API.Services.AccountService.register</text>
<text text-anchor="middle" x="551.12" y="-554.5" font-family="Helvetica,sans-Serif" font-size="10.00">UserAdminWithUserId</text>
</a>
</g>
</g>
<!-- Node3&#45;&gt;Node13 -->
<g id="edge12_Node000003_Node000013" class="edge">
<title>Node3&#45;&gt;Node13</title>
<g id="a_edge12_Node000003_Node000013"><a xlink:title=" ">
<path fill="none" stroke="#63b8ff" d="M399.14,-570C411.13,-570 423.59,-570 435.98,-570"/>
<polygon fill="#63b8ff" stroke="#63b8ff" points="435.81,-573.5 445.81,-570 435.81,-566.5 435.81,-573.5"/>
</a>
</g>
</g>
<!-- Node3&#45;&gt;Node15 -->
<g id="edge21_Node000003_Node000015" class="edge">
<title>Node3&#45;&gt;Node15</title>
<g id="a_edge21_Node000003_Node000015"><a xlink:title=" ">
<path fill="none" stroke="#63b8ff" d="M336.56,-547.76C362.13,-525.77 404.56,-493.15 447.5,-477 490.81,-460.71 764.91,-433.05 922.48,-418.18"/>
<polygon fill="#63b8ff" stroke="#63b8ff" points="922.48,-421.69 932.11,-417.27 921.82,-414.72 922.48,-421.69"/>
</a>
</g>
</g>
<!-- Node19 -->
<g id="Node000019" class="node">
<title>Node19</title>
<g id="a_Node000019"><a xlink:href="../../dc/db9/class_deluxe_1_1_deluxe_brand_center_1_1_a_m_m_1_1_a_p_i_1_1_services_1_1_account_service.html#a23c6273daa8f4761e7b257a9d0d510c0" target="_top" xlink:title=" ">
<polygon fill="white" stroke="#666666" points="654.75,-530 447.5,-530 447.5,-486 654.75,-486 654.75,-530"/>
<text text-anchor="start" x="455.5" y="-516.5" font-family="Helvetica,sans-Serif" font-size="10.00">Deluxe.DeluxeBrandCenter.</text>
<text text-anchor="start" x="455.5" y="-504.5" font-family="Helvetica,sans-Serif" font-size="10.00">AMM.API.Services.AccountService.register</text>
<text text-anchor="middle" x="551.12" y="-492.5" font-family="Helvetica,sans-Serif" font-size="10.00">UserAdvisorWithUserId</text>
</a>
</g>
</g>
<!-- Node3&#45;&gt;Node19 -->
<g id="edge18_Node000003_Node000019" class="edge">
<title>Node3&#45;&gt;Node19</title>
<g id="a_edge18_Node000003_Node000019"><a xlink:title=" ">
<path fill="none" stroke="#63b8ff" d="M398.46,-547.53C416.08,-542.94 434.74,-538.07 452.71,-533.39"/>
<polygon fill="#63b8ff" stroke="#63b8ff" points="453.55,-536.79 462.34,-530.88 451.78,-530.02 453.55,-536.79"/>
</a>
</g>
</g>
<!-- Node8 -->
<g id="Node000008" class="node">
<title>Node8</title>
<g id="a_Node000008"><a xlink:href="../../da/d31/class_deluxe_1_1_deluxe_brand_center_1_1_a_m_m_1_1_domain_1_1_ext_service_model_1_1_mindfire_1_1_request_credentials.html#a9cedb033f2ce48e7edaf18068a78b4f5" target="_top" xlink:title=" ">
<polygon fill="white" stroke="#666666" points="891.25,-654 697.5,-654 697.5,-610 891.25,-610 891.25,-654"/>
<text text-anchor="start" x="705.5" y="-640.5" font-family="Helvetica,sans-Serif" font-size="10.00">Deluxe.DeluxeBrandCenter.</text>
<text text-anchor="start" x="705.5" y="-628.5" font-family="Helvetica,sans-Serif" font-size="10.00">AMM.Domain.ExtServiceModel.Mindfire.</text>
<text text-anchor="middle" x="794.38" y="-616.5" font-family="Helvetica,sans-Serif" font-size="10.00">RequestCredentials.NewInstance</text>
</a>
</g>
</g>
<!-- Node7&#45;&gt;Node8 -->
<g id="edge7_Node000007_Node000008" class="edge">
<title>Node7&#45;&gt;Node8</title>
<g id="a_edge7_Node000007_Node000008"><a xlink:title=" ">
<path fill="none" stroke="#63b8ff" d="M638.88,-632C654.1,-632 670.1,-632 685.8,-632"/>
<polygon fill="#63b8ff" stroke="#63b8ff" points="685.65,-635.5 695.65,-632 685.65,-628.5 685.65,-635.5"/>
</a>
</g>
</g>
<!-- Node9 -->
<g id="Node000009" class="node">
<title>Node9</title>
<g id="a_Node000009"><a xlink:href="../../dc/db9/class_deluxe_1_1_deluxe_brand_center_1_1_a_m_m_1_1_a_p_i_1_1_services_1_1_account_service.html#a02f134321d39745f10b489bf7fcdfc30" target="_top" xlink:title=" ">
<polygon fill="white" stroke="#666666" points="881.88,-840 706.88,-840 706.88,-796 881.88,-796 881.88,-840"/>
<text text-anchor="start" x="714.88" y="-826.5" font-family="Helvetica,sans-Serif" font-size="10.00">Deluxe.DeluxeBrandCenter.</text>
<text text-anchor="start" x="714.88" y="-814.5" font-family="Helvetica,sans-Serif" font-size="10.00">AMM.API.Services.AccountService.</text>
<text text-anchor="middle" x="794.38" y="-802.5" font-family="Helvetica,sans-Serif" font-size="10.00">RegisterMFUser</text>
</a>
</g>
</g>
<!-- Node7&#45;&gt;Node9 -->
<g id="edge8_Node000007_Node000009" class="edge">
<title>Node7&#45;&gt;Node9</title>
<g id="a_edge8_Node000007_Node000009"><a xlink:title=" ">
<path fill="none" stroke="#63b8ff" d="M638.79,-650.78C644.62,-654.2 650.04,-658.24 654.75,-663 695.11,-703.8 650.39,-746.2 690.75,-787 692.81,-789.08 695.01,-791.03 697.31,-792.84"/>
<polygon fill="#63b8ff" stroke="#63b8ff" points="695.22,-795.65 705.46,-798.37 699.15,-789.86 695.22,-795.65"/>
</a>
</g>
</g>
<!-- Node11 -->
<g id="Node000011" class="node">
<title>Node11</title>
<g id="a_Node000011"><a xlink:href="../../dd/d7d/interface_deluxe_1_1_deluxe_brand_center_1_1_a_m_m_1_1_domain_1_1_services_1_1_i_session_service.html#a74b7c3e39306365972dba285fd95eddc" target="_top" xlink:title=" ">
<polygon fill="white" stroke="#666666" points="891.62,-778 697.12,-778 697.12,-734 891.62,-734 891.62,-778"/>
<text text-anchor="start" x="705.12" y="-764.5" font-family="Helvetica,sans-Serif" font-size="10.00">Deluxe.DeluxeBrandCenter.</text>
<text text-anchor="start" x="705.12" y="-752.5" font-family="Helvetica,sans-Serif" font-size="10.00">AMM.Domain.Services.ISessionService.</text>
<text text-anchor="middle" x="794.38" y="-740.5" font-family="Helvetica,sans-Serif" font-size="10.00">SessionGetMFDomain</text>
</a>
</g>
</g>
<!-- Node7&#45;&gt;Node11 -->
<g id="edge10_Node000007_Node000011" class="edge">
<title>Node7&#45;&gt;Node11</title>
<g id="a_edge10_Node000007_Node000011"><a xlink:title=" ">
<path fill="none" stroke="#63b8ff" d="M639.11,-652.92C644.65,-655.85 649.93,-659.19 654.75,-663 679.74,-682.76 665.76,-705.24 690.75,-725 691.9,-725.91 693.08,-726.79 694.28,-727.65"/>
<polygon fill="#63b8ff" stroke="#63b8ff" points="692.29,-730.53 702.61,-732.91 696.03,-724.61 692.29,-730.53"/>
</a>
</g>
</g>
<!-- Node12 -->
<g id="Node000012" class="node">
<title>Node12</title>
<g id="a_Node000012"><a xlink:href="../../d2/dd7/interface_deluxe_1_1_deluxe_brand_center_1_1_a_m_m_1_1_a_p_i_1_1_services_1_1_i_mindfire_service.html#a19e21a2222a8d5c03cd9a6ca06102400" target="_top" xlink:title=" ">
<polygon fill="white" stroke="#666666" points="882.62,-716 706.12,-716 706.12,-672 882.62,-672 882.62,-716"/>
<text text-anchor="start" x="714.12" y="-702.5" font-family="Helvetica,sans-Serif" font-size="10.00">Deluxe.DeluxeBrandCenter.</text>
<text text-anchor="start" x="714.12" y="-690.5" font-family="Helvetica,sans-Serif" font-size="10.00">AMM.API.Services.IMindfireService.</text>
<text text-anchor="middle" x="794.38" y="-678.5" font-family="Helvetica,sans-Serif" font-size="10.00">SetUserTicket</text>
</a>
</g>
</g>
<!-- Node7&#45;&gt;Node12 -->
<g id="edge11_Node000007_Node000012" class="edge">
<title>Node7&#45;&gt;Node12</title>
<g id="a_edge11_Node000007_Node000012"><a xlink:title=" ">
<path fill="none" stroke="#63b8ff" d="M638.88,-654.3C657.17,-659 676.6,-663.99 695.28,-668.79"/>
<polygon fill="#63b8ff" stroke="#63b8ff" points="694.15,-672.11 704.71,-671.21 695.89,-665.33 694.15,-672.11"/>
</a>
</g>
</g>
<!-- Node10 -->
<g id="Node000010" class="node">
<title>Node10</title>
<g id="a_Node000010"><a xlink:href="../../dd/d7d/interface_deluxe_1_1_deluxe_brand_center_1_1_a_m_m_1_1_domain_1_1_services_1_1_i_session_service.html#a16cd71fc18c3e958b6941b30021b2ddb" target="_top" xlink:title=" ">
<polygon fill="white" stroke="#666666" points="1131.88,-840 937.38,-840 937.38,-796 1131.88,-796 1131.88,-840"/>
<text text-anchor="start" x="945.38" y="-826.5" font-family="Helvetica,sans-Serif" font-size="10.00">Deluxe.DeluxeBrandCenter.</text>
<text text-anchor="start" x="945.38" y="-814.5" font-family="Helvetica,sans-Serif" font-size="10.00">AMM.Domain.Services.ISessionService.</text>
<text text-anchor="middle" x="1034.62" y="-802.5" font-family="Helvetica,sans-Serif" font-size="10.00">SessionGetMFAccountNamePrefix</text>
</a>
</g>
</g>
<!-- Node9&#45;&gt;Node10 -->
<g id="edge9_Node000009_Node000010" class="edge">
<title>Node9&#45;&gt;Node10</title>
<g id="a_edge9_Node000009_Node000010"><a xlink:title=" ">
<path fill="none" stroke="#63b8ff" d="M882.06,-818C896.27,-818 911.14,-818 925.79,-818"/>
<polygon fill="#63b8ff" stroke="#63b8ff" points="925.41,-821.5 935.41,-818 925.41,-814.5 925.41,-821.5"/>
</a>
</g>
</g>
<!-- Node14 -->
<g id="Node000014" class="node">
<title>Node14</title>
<g id="a_Node000014"><a xlink:href="../../dc/db9/class_deluxe_1_1_deluxe_brand_center_1_1_a_m_m_1_1_a_p_i_1_1_services_1_1_account_service.html#a3eeabb0ad01853e571664879ebdf71c4" target="_top" xlink:title=" ">
<polygon fill="white" stroke="#666666" points="898,-530 690.75,-530 690.75,-486 898,-486 898,-530"/>
<text text-anchor="start" x="698.75" y="-516.5" font-family="Helvetica,sans-Serif" font-size="10.00">Deluxe.DeluxeBrandCenter.</text>
<text text-anchor="start" x="698.75" y="-504.5" font-family="Helvetica,sans-Serif" font-size="10.00">AMM.API.Services.AccountService.register</text>
<text text-anchor="middle" x="794.38" y="-492.5" font-family="Helvetica,sans-Serif" font-size="10.00">ApplicationUserWithUserId</text>
</a>
</g>
</g>
<!-- Node13&#45;&gt;Node14 -->
<g id="edge13_Node000013_Node000014" class="edge">
<title>Node13&#45;&gt;Node14</title>
<g id="a_edge13_Node000013_Node000014"><a xlink:title=" ">
<path fill="none" stroke="#63b8ff" d="M639.56,-547.53C657.51,-542.92 676.53,-538.03 694.84,-533.32"/>
<polygon fill="#63b8ff" stroke="#63b8ff" points="695.55,-536.75 704.36,-530.88 693.81,-529.97 695.55,-536.75"/>
</a>
</g>
</g>
<!-- Node18 -->
<g id="Node000018" class="node">
<title>Node18</title>
<g id="a_Node000018"><a xlink:href="../../dd/d7d/interface_deluxe_1_1_deluxe_brand_center_1_1_a_m_m_1_1_domain_1_1_services_1_1_i_session_service.html#a31fd07938dc12b3d600f3bd500d3aacd" target="_top" xlink:title=" ">
<polygon fill="white" stroke="#666666" points="891.62,-592 697.12,-592 697.12,-548 891.62,-548 891.62,-592"/>
<text text-anchor="start" x="705.12" y="-578.5" font-family="Helvetica,sans-Serif" font-size="10.00">Deluxe.DeluxeBrandCenter.</text>
<text text-anchor="start" x="705.12" y="-566.5" font-family="Helvetica,sans-Serif" font-size="10.00">AMM.Domain.Services.ISessionService.</text>
<text text-anchor="middle" x="794.38" y="-554.5" font-family="Helvetica,sans-Serif" font-size="10.00">SessionGetClientId</text>
</a>
</g>
</g>
<!-- Node13&#45;&gt;Node18 -->
<g id="edge17_Node000013_Node000018" class="edge">
<title>Node13&#45;&gt;Node18</title>
<g id="a_edge17_Node000013_Node000018"><a xlink:title=" ">
<path fill="none" stroke="#63b8ff" d="M655.14,-570C665.19,-570 675.4,-570 685.5,-570"/>
<polygon fill="#63b8ff" stroke="#63b8ff" points="685.32,-573.5 695.32,-570 685.32,-566.5 685.32,-573.5"/>
</a>
</g>
</g>
<!-- Node14&#45;&gt;Node15 -->
<g id="edge14_Node000014_Node000015" class="edge">
<title>Node14&#45;&gt;Node15</title>
<g id="a_edge14_Node000014_Node000015"><a xlink:title=" ">
<path fill="none" stroke="#63b8ff" d="M862.55,-485.56C874.44,-481.27 886.64,-476.66 898,-472 925.09,-460.89 954.54,-447.2 979.06,-435.33"/>
<polygon fill="#63b8ff" stroke="#63b8ff" points="980.43,-438.56 987.88,-431.03 977.36,-432.26 980.43,-438.56"/>
</a>
</g>
</g>
<!-- Node16 -->
<g id="Node000016" class="node">
<title>Node16</title>
<g id="a_Node000016"><a xlink:href="../../d6/db1/class_deluxe_1_1_deluxe_brand_center_1_1_a_m_m_1_1_infrastructure_1_1_databases_1_1_application_db_context.html#aea43a5ab4bb779ccf8678ef7aac5be0c" target="_top" xlink:title=" ">
<polygon fill="white" stroke="#666666" points="1372.5,-430 1171.25,-430 1171.25,-386 1372.5,-386 1372.5,-430"/>
<text text-anchor="start" x="1179.25" y="-416.5" font-family="Helvetica,sans-Serif" font-size="10.00">Deluxe.DeluxeBrandCenter.</text>
<text text-anchor="start" x="1179.25" y="-404.5" font-family="Helvetica,sans-Serif" font-size="10.00">AMM.Infrastructure.Databases.Application</text>
<text text-anchor="middle" x="1271.88" y="-392.5" font-family="Helvetica,sans-Serif" font-size="10.00">DbContext.OnBeforeSaveChanges</text>
</a>
</g>
</g>
<!-- Node15&#45;&gt;Node16 -->
<g id="edge15_Node000015_Node000016" class="edge">
<title>Node15&#45;&gt;Node16</title>
<g id="a_edge15_Node000015_Node000016"><a xlink:title=" ">
<path fill="none" stroke="#63b8ff" d="M1135.73,-408C1143.55,-408 1151.47,-408 1159.35,-408"/>
<polygon fill="#63b8ff" stroke="#63b8ff" points="1159.34,-411.5 1169.34,-408 1159.34,-404.5 1159.34,-411.5"/>
</a>
</g>
</g>
<!-- Node17 -->
<g id="Node000017" class="node">
<title>Node17</title>
<g id="a_Node000017"><a xlink:href="../../d6/db1/class_deluxe_1_1_deluxe_brand_center_1_1_a_m_m_1_1_infrastructure_1_1_databases_1_1_application_db_context.html#a5a50b059decefb01e96a92bc29bcd3e6" target="_top" xlink:title=" ">
<polygon fill="white" stroke="#666666" points="1609.75,-430 1408.5,-430 1408.5,-386 1609.75,-386 1609.75,-430"/>
<text text-anchor="start" x="1416.5" y="-416.5" font-family="Helvetica,sans-Serif" font-size="10.00">Deluxe.DeluxeBrandCenter.</text>
<text text-anchor="start" x="1416.5" y="-404.5" font-family="Helvetica,sans-Serif" font-size="10.00">AMM.Infrastructure.Databases.Application</text>
<text text-anchor="middle" x="1509.12" y="-392.5" font-family="Helvetica,sans-Serif" font-size="10.00">DbContext.AddTimestampsToEntities</text>
</a>
</g>
</g>
<!-- Node16&#45;&gt;Node17 -->
<g id="edge16_Node000016_Node000017" class="edge">
<title>Node16&#45;&gt;Node17</title>
<g id="a_edge16_Node000016_Node000017"><a xlink:title=" ">
<path fill="none" stroke="#63b8ff" d="M1372.98,-408C1380.8,-408 1388.72,-408 1396.6,-408"/>
<polygon fill="#63b8ff" stroke="#63b8ff" points="1396.59,-411.5 1406.59,-408 1396.59,-404.5 1396.59,-411.5"/>
</a>
</g>
</g>
<!-- Node19&#45;&gt;Node14 -->
<g id="edge19_Node000019_Node000014" class="edge">
<title>Node19&#45;&gt;Node14</title>
<g id="a_edge19_Node000019_Node000014"><a xlink:title=" ">
<path fill="none" stroke="#63b8ff" d="M655.14,-508C663.06,-508 671.08,-508 679.07,-508"/>
<polygon fill="#63b8ff" stroke="#63b8ff" points="678.81,-511.5 688.81,-508 678.81,-504.5 678.81,-511.5"/>
</a>
</g>
</g>
<!-- Node19&#45;&gt;Node18 -->
<g id="edge20_Node000019_Node000018" class="edge">
<title>Node19&#45;&gt;Node18</title>
<g id="a_edge20_Node000019_Node000018"><a xlink:title=" ">
<path fill="none" stroke="#63b8ff" d="M639.56,-530.47C657.51,-535.08 676.53,-539.97 694.84,-544.68"/>
<polygon fill="#63b8ff" stroke="#63b8ff" points="693.81,-548.03 704.36,-547.12 695.55,-541.25 693.81,-548.03"/>
</a>
</g>
</g>
<!-- Node21&#45;&gt;Node15 -->
<g id="edge27_Node000021_Node000015" class="edge">
<title>Node21&#45;&gt;Node15</title>
<g id="a_edge27_Node000021_Node000015"><a xlink:title=" ">
<path fill="none" stroke="#63b8ff" d="M398.91,-329.32C415,-332.87 431.71,-336.27 447.5,-339 611.82,-367.42 804.1,-387.59 922.38,-398.52"/>
<polygon fill="#63b8ff" stroke="#63b8ff" points="921.81,-401.98 932.08,-399.41 922.45,-395.01 921.81,-401.98"/>
</a>
</g>
</g>
<!-- Node21&#45;&gt;Node20 -->
<g id="edge29_Node000021_Node000020" class="edge">
<title>Node21&#45;&gt;Node20</title>
<g id="a_edge29_Node000021_Node000020"><a xlink:title=" ">
<path fill="none" stroke="#63b8ff" d="M356.5,-330.38C382.67,-343.24 416.62,-359.32 447.5,-372 455.48,-375.28 463.89,-378.53 472.3,-381.67"/>
<polygon fill="#63b8ff" stroke="#63b8ff" points="470.93,-384.89 481.53,-385.05 473.34,-378.32 470.93,-384.89"/>
</a>
</g>
</g>
<!-- Node22 -->
<g id="Node000022" class="node">
<title>Node22</title>
<g id="a_Node000022"><a xlink:href="../../dd/d7d/interface_deluxe_1_1_deluxe_brand_center_1_1_a_m_m_1_1_domain_1_1_services_1_1_i_session_service.html#aeb417f6f04391615f5e4d05a0cd93a79" target="_top" xlink:title=" ">
<polygon fill="white" stroke="#666666" points="648.38,-144 453.88,-144 453.88,-100 648.38,-100 648.38,-144"/>
<text text-anchor="start" x="461.88" y="-130.5" font-family="Helvetica,sans-Serif" font-size="10.00">Deluxe.DeluxeBrandCenter.</text>
<text text-anchor="start" x="461.88" y="-118.5" font-family="Helvetica,sans-Serif" font-size="10.00">AMM.Domain.Services.ISessionService.</text>
<text text-anchor="middle" x="551.12" y="-106.5" font-family="Helvetica,sans-Serif" font-size="10.00">ClearSessionVariables</text>
</a>
</g>
</g>
<!-- Node21&#45;&gt;Node22 -->
<g id="edge25_Node000021_Node000022" class="edge">
<title>Node21&#45;&gt;Node22</title>
<g id="a_edge25_Node000021_Node000022"><a xlink:title=" ">
<path fill="none" stroke="#63b8ff" d="M325.75,-285.75C347.32,-252.07 392.74,-188.36 447.5,-153 449.32,-151.83 451.18,-150.7 453.08,-149.61"/>
<polygon fill="#63b8ff" stroke="#63b8ff" points="454.29,-152.92 461.54,-145.19 451.06,-146.72 454.29,-152.92"/>
</a>
</g>
</g>
<!-- Node23 -->
<g id="Node000023" class="node">
<title>Node23</title>
<g id="a_Node000023"><a xlink:href="../../d0/d36/interface_deluxe_1_1_deluxe_brand_center_1_1_a_m_m_1_1_a_p_i_1_1_services_1_1_i_client_service.html#afc85d8ee40ada4f85ecc4ecfa8589902" target="_top" xlink:title=" ">
<polygon fill="white" stroke="#666666" points="634.88,-330 467.38,-330 467.38,-286 634.88,-286 634.88,-330"/>
<text text-anchor="start" x="475.38" y="-316.5" font-family="Helvetica,sans-Serif" font-size="10.00">Deluxe.DeluxeBrandCenter.</text>
<text text-anchor="start" x="475.38" y="-304.5" font-family="Helvetica,sans-Serif" font-size="10.00">AMM.API.Services.IClientService.</text>
<text text-anchor="middle" x="551.12" y="-292.5" font-family="Helvetica,sans-Serif" font-size="10.00">GetClientByName</text>
</a>
</g>
</g>
<!-- Node21&#45;&gt;Node23 -->
<g id="edge26_Node000021_Node000023" class="edge">
<title>Node21&#45;&gt;Node23</title>
<g id="a_edge26_Node000021_Node000023"><a xlink:title=" ">
<path fill="none" stroke="#63b8ff" d="M399.14,-308C417.49,-308 436.95,-308 455.57,-308"/>
<polygon fill="#63b8ff" stroke="#63b8ff" points="455.53,-311.5 465.53,-308 455.53,-304.5 455.53,-311.5"/>
</a>
</g>
</g>
<!-- Node24 -->
<g id="Node000024" class="node">
<title>Node24</title>
<g id="a_Node000024"><a xlink:href="../../dd/d7d/interface_deluxe_1_1_deluxe_brand_center_1_1_a_m_m_1_1_domain_1_1_services_1_1_i_session_service.html#ae0baafb66bffad319eddc9ab32f16dff" target="_top" xlink:title=" ">
<polygon fill="white" stroke="#666666" points="648.38,-268 453.88,-268 453.88,-224 648.38,-224 648.38,-268"/>
<text text-anchor="start" x="461.88" y="-254.5" font-family="Helvetica,sans-Serif" font-size="10.00">Deluxe.DeluxeBrandCenter.</text>
<text text-anchor="start" x="461.88" y="-242.5" font-family="Helvetica,sans-Serif" font-size="10.00">AMM.Domain.Services.ISessionService.</text>
<text text-anchor="middle" x="551.12" y="-230.5" font-family="Helvetica,sans-Serif" font-size="10.00">SessionGetS3Bucket</text>
</a>
</g>
</g>
<!-- Node21&#45;&gt;Node24 -->
<g id="edge28_Node000021_Node000024" class="edge">
<title>Node21&#45;&gt;Node24</title>
<g id="a_edge28_Node000021_Node000024"><a xlink:title=" ">
<path fill="none" stroke="#63b8ff" d="M398.46,-285.53C416.08,-280.94 434.74,-276.07 452.71,-271.39"/>
<polygon fill="#63b8ff" stroke="#63b8ff" points="453.55,-274.79 462.34,-268.88 451.78,-268.02 453.55,-274.79"/>
</a>
</g>
</g>
<!-- Node25 -->
<g id="Node000025" class="node">
<title>Node25</title>
<g id="a_Node000025"><a xlink:href="../../d2/dd7/interface_deluxe_1_1_deluxe_brand_center_1_1_a_m_m_1_1_a_p_i_1_1_services_1_1_i_mindfire_service.html#a8b978f2c5a82873291d515de0b12310c" target="_top" xlink:title=" ">
<polygon fill="white" stroke="#666666" points="639.38,-206 462.88,-206 462.88,-162 639.38,-162 639.38,-206"/>
<text text-anchor="start" x="470.88" y="-192.5" font-family="Helvetica,sans-Serif" font-size="10.00">Deluxe.DeluxeBrandCenter.</text>
<text text-anchor="start" x="470.88" y="-180.5" font-family="Helvetica,sans-Serif" font-size="10.00">AMM.API.Services.IMindfireService.</text>
<text text-anchor="middle" x="551.12" y="-168.5" font-family="Helvetica,sans-Serif" font-size="10.00">SetUserCredentials</text>
</a>
</g>
</g>
<!-- Node21&#45;&gt;Node25 -->
<g id="edge30_Node000021_Node000025" class="edge">
<title>Node21&#45;&gt;Node25</title>
<g id="a_edge30_Node000021_Node000025"><a xlink:title=" ">
<path fill="none" stroke="#63b8ff" d="M339.19,-285.72C365.44,-264.96 407.17,-234.37 447.5,-215 450.59,-213.52 453.76,-212.09 456.99,-210.71"/>
<polygon fill="#63b8ff" stroke="#63b8ff" points="458.11,-214.03 466.08,-207.06 455.49,-207.54 458.11,-214.03"/>
</a>
</g>
</g>
</g>
</svg>

<g id="navigator" transform="translate(0 0)" fill="#404254">
  <rect fill="#f2f5e9" fill-opacity="0.5" stroke="#606060" stroke-width=".5" x="0" y="0" width="60" height="60"/>
  <use id="zoomplus" xlink:href="#zoomPlus" x="17" y="9" onmousedown="handleZoom(evt,'in')"/>
  <use id="zoomminus" xlink:href="#zoomMin" x="42" y="9" onmousedown="handleZoom(evt,'out')"/>
  <use id="reset" xlink:href="#resetDef" x="30" y="36" onmousedown="handleReset()"/>
   <use id="arrowup" xlink:href="#arrowUp" x="0" y="0" onmousedown="handlePan(0,-1)"/>
  <use id="arrowright" xlink:href="#arrowRight" x="0" y="0" onmousedown="handlePan(1,0)"/>
  <use id="arrowdown" xlink:href="#arrowDown" x="0" y="0" onmousedown="handlePan(0,1)"/>
  <use id="arrowleft" xlink:href="#arrowLeft" x="0" y="0" onmousedown="handlePan(-1,0)"/>
</g>
<svg viewBox="0 0 15 15" width="100%" height="30px" preserveAspectRatio="xMaxYMin meet">
 <g id="arrow_out" transform="scale(0.3 0.3)">
  <a xlink:href="class_deluxe_1_1_deluxe_brand_center_1_1_a_m_m_1_1_a_p_i_1_1_services_1_1_account_service_ae3584aa7350a66b28807932012ac7dd2_cgraph_org.svg" target="_base">
   <rect id="button" ry="5" rx="5" y="6" x="6" height="38" width="38"
        fill="#f2f5e9" fill-opacity="0.5" stroke="#606060" stroke-width="1.0"/>
   <path id="arrow"
     d="M 11.500037,31.436501 C 11.940474,20.09759 22.043105,11.32322 32.158766,21.979434 L 37.068811,17.246167 C 37.068811,17.246167 37.088388,32 37.088388,32 L 22.160133,31.978069 C 22.160133,31.978069 26.997745,27.140456 26.997745,27.140456 C 18.528582,18.264221 13.291696,25.230495 11.500037,31.436501 z"
     style="fill:#404040;"/>
  </a>
 </g>
</svg>

<style type='text/css'>
<![CDATA[
[data-mouse-over-selected='false'] { opacity: 0.7; }
[data-mouse-over-selected='true']  { opacity: 1.0; }
]]>
</style>
<script type="application/ecmascript"><![CDATA[
document.addEventListener('DOMContentLoaded', (event) => {
  highlightEdges();
  highlightAdjacentNodes();
});
]]></script>
</svg>
