<?xml version="1.0" encoding="UTF-8" standalone="no"?>
<!DOCTYPE svg PUBLIC "-//W3C//DTD SVG 1.1//EN"
 "http://www.w3.org/Graphics/SVG/1.1/DTD/svg11.dtd">
<!-- Generated by graphviz version 12.1.1 (20240910.0053)
 -->
<!-- Title: Deluxe.DeluxeBrandCenter.AMM.API.Services.AccountService.RegisterAdvisor Pages: 1 -->
<!--zoomable 420 -->

<svg id="main" version="1.1" xmlns="http://www.w3.org/2000/svg" xmlns:xlink="http://www.w3.org/1999/xlink" xml:space="preserve" onload="init(evt)">

<style type="text/css"><![CDATA[
.node, .edge {opacity: 0.7;}
.node.selected, .edge.selected {opacity: 1;}
.edge:hover path { stroke: red; }
.edge:hover polygon { stroke: red; fill: red; }
]]></style>

<defs>
  <circle id="rim" cx="0" cy="0" r="7"/>
  <circle id="rim2" cx="0" cy="0" r="3.5"/>
  <g id="zoomPlus">
    <use xlink:href="#rim" fill="#404040"><set attributeName="fill" to="#808080" begin="zoomplus.mouseover" end="zoomplus.mouseout"/></use>
    <path d="M-4,0h8M0,-4v8" fill="none" stroke="white" stroke-width="1.5" pointer-events="none"/>
  </g>
  <g id="zoomMin">
    <use xlink:href="#rim" fill="#404040"><set attributeName="fill" to="#808080" begin="zoomminus.mouseover" end="zoomminus.mouseout"/></use>
    <path d="M-4,0h8" fill="none" stroke="white" stroke-width="1.5" pointer-events="none"/>
  </g>
  <g id="arrowUp" transform="translate(30 24)">
    <use xlink:href="#rim"/>
    <path pointer-events="none" fill="none" stroke="white" stroke-width="1.5" d="M0,-3.0v7 M-2.5,-0.5L0,-3.0L2.5,-0.5"/>
  </g>
  <g id="arrowRight" transform="rotate(90) translate(36 -43)">
    <use xlink:href="#rim"/>
    <path pointer-events="none" fill="none" stroke="white" stroke-width="1.5" d="M0,-3.0v7 M-2.5,-0.5L0,-3.0L2.5,-0.5"/>
  </g>
  <g id="arrowDown" transform="rotate(180) translate(-30 -48)">
    <use xlink:href="#rim"/>
    <path pointer-events="none" fill="none" stroke="white" stroke-width="1.5" d="M0,-3.0v7 M-2.5,-0.5L0,-3.0L2.5,-0.5"/>
  </g>
  <g id="arrowLeft" transform="rotate(270) translate(-36 17)">
    <use xlink:href="#rim"/>
    <path pointer-events="none" fill="none" stroke="white" stroke-width="1.5" d="M0,-3.0v7 M-2.5,-0.5L0,-3.0L2.5,-0.5"/>
  </g>
  <g id="resetDef">
    <use xlink:href="#rim2" fill="#404040"><set attributeName="fill" to="#808080" begin="reset.mouseover" end="reset.mouseout"/></use>
  </g>
</defs>
<script type="application/ecmascript">
var viewWidth = 1381;
var viewHeight = 420;
var sectionId = 'dynsection-4';
</script>
<script type="application/ecmascript" xlink:href="../../svg.min.js"/>
<svg id="graph" class="graph">
<g id="viewport">
<title>Deluxe.DeluxeBrandCenter.AMM.API.Services.AccountService.RegisterAdvisor</title>
<!-- Node1 -->
<g id="Node000001" class="node">
<title>Node1</title>
<g id="a_Node000001"><a xlink:title=" ">
<polygon fill="#999999" stroke="#666666" points="175,-226.2 0,-226.2 0,-182.2 175,-182.2 175,-226.2"/>
<text text-anchor="start" x="8" y="-212.7" font-family="Helvetica,sans-Serif" font-size="10.00">Deluxe.DeluxeBrandCenter.</text>
<text text-anchor="start" x="8" y="-200.7" font-family="Helvetica,sans-Serif" font-size="10.00">AMM.API.Services.AccountService.</text>
<text text-anchor="middle" x="87.5" y="-188.7" font-family="Helvetica,sans-Serif" font-size="10.00">RegisterAdvisor</text>
</a>
</g>
</g>
<!-- Node2 -->
<g id="Node000002" class="node">
<title>Node2</title>
<g id="a_Node000002"><a xlink:href="../../d5/d2b/class_deluxe_1_1_deluxe_brand_center_1_1_a_m_m_1_1_domain_1_1_data_model_1_1_client_1_1_user.html#aed8826e2ed158191bf83cea2b1a76c4f" target="_top" xlink:title=" ">
<polygon fill="white" stroke="#666666" points="405.5,-412.2 223.75,-412.2 223.75,-368.2 405.5,-368.2 405.5,-412.2"/>
<text text-anchor="start" x="231.75" y="-398.7" font-family="Helvetica,sans-Serif" font-size="10.00">Deluxe.DeluxeBrandCenter.</text>
<text text-anchor="start" x="231.75" y="-386.7" font-family="Helvetica,sans-Serif" font-size="10.00">AMM.Domain.DataModel.Client.User.</text>
<text text-anchor="middle" x="314.62" y="-374.7" font-family="Helvetica,sans-Serif" font-size="10.00">AsProfile</text>
</a>
</g>
</g>
<!-- Node1&#45;&gt;Node2 -->
<g id="edge1_Node000001_Node000002" class="edge">
<title>Node1&#45;&gt;Node2</title>
<g id="a_edge1_Node000001_Node000002"><a xlink:title=" ">
<path fill="none" stroke="#63b8ff" d="M100.2,-226.48C119.03,-260.2 159.26,-323.98 211,-359.2 212.59,-360.28 214.21,-361.32 215.87,-362.33"/>
<polygon fill="#63b8ff" stroke="#63b8ff" points="213.91,-365.25 224.36,-367 217.28,-359.11 213.91,-365.25"/>
</a>
</g>
</g>
<!-- Node3 -->
<g id="Node000003" class="node">
<title>Node3</title>
<g id="a_Node000003"><a xlink:href="../../d5/d2b/class_deluxe_1_1_deluxe_brand_center_1_1_a_m_m_1_1_domain_1_1_data_model_1_1_client_1_1_user.html#a7c2d40c975d81d6ab2a40ae009f4d7f4" target="_top" xlink:title=" ">
<polygon fill="white" stroke="#666666" points="405.5,-350.2 223.75,-350.2 223.75,-306.2 405.5,-306.2 405.5,-350.2"/>
<text text-anchor="start" x="231.75" y="-336.7" font-family="Helvetica,sans-Serif" font-size="10.00">Deluxe.DeluxeBrandCenter.</text>
<text text-anchor="start" x="231.75" y="-324.7" font-family="Helvetica,sans-Serif" font-size="10.00">AMM.Domain.DataModel.Client.User.</text>
<text text-anchor="middle" x="314.62" y="-312.7" font-family="Helvetica,sans-Serif" font-size="10.00">GetAgUserId</text>
</a>
</g>
</g>
<!-- Node1&#45;&gt;Node3 -->
<g id="edge2_Node000001_Node000003" class="edge">
<title>Node1&#45;&gt;Node3</title>
<g id="a_edge2_Node000001_Node000003"><a xlink:title=" ">
<path fill="none" stroke="#63b8ff" d="M112.53,-226.63C136.04,-247.5 173.65,-278.16 211,-297.2 213.74,-298.6 216.56,-299.95 219.43,-301.24"/>
<polygon fill="#63b8ff" stroke="#63b8ff" points="218.05,-304.46 228.62,-305.13 220.77,-298.01 218.05,-304.46"/>
</a>
</g>
</g>
<!-- Node4 -->
<g id="Node000004" class="node">
<title>Node4</title>
<g id="a_Node000004"><a xlink:href="../../dc/db9/class_deluxe_1_1_deluxe_brand_center_1_1_a_m_m_1_1_a_p_i_1_1_services_1_1_account_service.html#a3fd50a754a74e48351249c2c86419651" target="_top" xlink:title=" ">
<polygon fill="white" stroke="#666666" points="402.12,-288.2 227.12,-288.2 227.12,-244.2 402.12,-244.2 402.12,-288.2"/>
<text text-anchor="start" x="235.12" y="-274.7" font-family="Helvetica,sans-Serif" font-size="10.00">Deluxe.DeluxeBrandCenter.</text>
<text text-anchor="start" x="235.12" y="-262.7" font-family="Helvetica,sans-Serif" font-size="10.00">AMM.API.Services.AccountService.</text>
<text text-anchor="middle" x="314.62" y="-250.7" font-family="Helvetica,sans-Serif" font-size="10.00">MapProfileToUser</text>
</a>
</g>
</g>
<!-- Node1&#45;&gt;Node4 -->
<g id="edge3_Node000001_Node000004" class="edge">
<title>Node1&#45;&gt;Node4</title>
<g id="a_edge3_Node000001_Node000004"><a xlink:title=" ">
<path fill="none" stroke="#63b8ff" d="M170.09,-226.67C186.61,-231.22 204.09,-236.03 220.95,-240.68"/>
<polygon fill="#63b8ff" stroke="#63b8ff" points="219.9,-244.02 230.47,-243.3 221.76,-237.27 219.9,-244.02"/>
</a>
</g>
</g>
<!-- Node5 -->
<g id="Node000005" class="node">
<title>Node5</title>
<g id="a_Node000005"><a xlink:href="../../dc/db9/class_deluxe_1_1_deluxe_brand_center_1_1_a_m_m_1_1_a_p_i_1_1_services_1_1_account_service.html#a0131ec5826403c03945c1cab1ec2153c" target="_top" xlink:title=" ">
<polygon fill="white" stroke="#666666" points="402.12,-226.2 227.12,-226.2 227.12,-182.2 402.12,-182.2 402.12,-226.2"/>
<text text-anchor="start" x="235.12" y="-212.7" font-family="Helvetica,sans-Serif" font-size="10.00">Deluxe.DeluxeBrandCenter.</text>
<text text-anchor="start" x="235.12" y="-200.7" font-family="Helvetica,sans-Serif" font-size="10.00">AMM.API.Services.AccountService.</text>
<text text-anchor="middle" x="314.62" y="-188.7" font-family="Helvetica,sans-Serif" font-size="10.00">RegisterProfile</text>
</a>
</g>
</g>
<!-- Node1&#45;&gt;Node5 -->
<g id="edge4_Node000001_Node000005" class="edge">
<title>Node1&#45;&gt;Node5</title>
<g id="a_edge4_Node000001_Node000005"><a xlink:title=" ">
<path fill="none" stroke="#63b8ff" d="M175.22,-204.2C188.47,-204.2 202.24,-204.2 215.72,-204.2"/>
<polygon fill="#63b8ff" stroke="#63b8ff" points="215.44,-207.7 225.44,-204.2 215.44,-200.7 215.44,-207.7"/>
</a>
</g>
</g>
<!-- Node11 -->
<g id="Node000011" class="node">
<title>Node11</title>
<g id="a_Node000011"><a xlink:href="../../dc/db9/class_deluxe_1_1_deluxe_brand_center_1_1_a_m_m_1_1_a_p_i_1_1_services_1_1_account_service.html#aab5e5f4f159724b2d4a8059499f33bad" target="_top" xlink:title=" ">
<polygon fill="white" stroke="#666666" points="418.25,-102.2 211,-102.2 211,-58.2 418.25,-58.2 418.25,-102.2"/>
<text text-anchor="start" x="219" y="-88.7" font-family="Helvetica,sans-Serif" font-size="10.00">Deluxe.DeluxeBrandCenter.</text>
<text text-anchor="start" x="219" y="-76.7" font-family="Helvetica,sans-Serif" font-size="10.00">AMM.API.Services.AccountService.register</text>
<text text-anchor="middle" x="314.62" y="-64.7" font-family="Helvetica,sans-Serif" font-size="10.00">UserAdminWithUserId</text>
</a>
</g>
</g>
<!-- Node1&#45;&gt;Node11 -->
<g id="edge10_Node000001_Node000011" class="edge">
<title>Node1&#45;&gt;Node11</title>
<g id="a_edge10_Node000001_Node000011"><a xlink:title=" ">
<path fill="none" stroke="#63b8ff" d="M112.53,-181.77C136.04,-160.9 173.65,-130.24 211,-111.2 213.74,-109.8 216.56,-108.46 219.43,-107.16"/>
<polygon fill="#63b8ff" stroke="#63b8ff" points="220.77,-110.39 228.62,-103.28 218.05,-103.95 220.77,-110.39"/>
</a>
</g>
</g>
<!-- Node13 -->
<g id="Node000013" class="node">
<title>Node13</title>
<g id="a_Node000013"><a xlink:href="../../d6/db1/class_deluxe_1_1_deluxe_brand_center_1_1_a_m_m_1_1_infrastructure_1_1_databases_1_1_application_db_context.html#a92bd6d01c18ab350b60414ec6991a32d" target="_top" xlink:title=" ">
<polygon fill="white" stroke="#666666" points="898.75,-77.2 697.5,-77.2 697.5,-33.2 898.75,-33.2 898.75,-77.2"/>
<text text-anchor="start" x="705.5" y="-63.7" font-family="Helvetica,sans-Serif" font-size="10.00">Deluxe.DeluxeBrandCenter.</text>
<text text-anchor="start" x="705.5" y="-51.7" font-family="Helvetica,sans-Serif" font-size="10.00">AMM.Infrastructure.Databases.Application</text>
<text text-anchor="middle" x="798.12" y="-39.7" font-family="Helvetica,sans-Serif" font-size="10.00">DbContext.SaveChangesAsync</text>
</a>
</g>
</g>
<!-- Node1&#45;&gt;Node13 -->
<g id="edge19_Node000001_Node000013" class="edge">
<title>Node1&#45;&gt;Node13</title>
<g id="a_edge19_Node000001_Node000013"><a xlink:title=" ">
<path fill="none" stroke="#63b8ff" d="M98.23,-181.72C115.14,-145.86 153.74,-76.93 211,-49.2 370.65,28.11 584.62,-2.64 704.93,-30.14"/>
<polygon fill="#63b8ff" stroke="#63b8ff" points="703.91,-33.5 714.45,-32.36 705.5,-26.68 703.91,-33.5"/>
</a>
</g>
</g>
<!-- Node17 -->
<g id="Node000017" class="node">
<title>Node17</title>
<g id="a_Node000017"><a xlink:href="../../dc/db9/class_deluxe_1_1_deluxe_brand_center_1_1_a_m_m_1_1_a_p_i_1_1_services_1_1_account_service.html#a23c6273daa8f4761e7b257a9d0d510c0" target="_top" xlink:title=" ">
<polygon fill="white" stroke="#666666" points="418.25,-164.2 211,-164.2 211,-120.2 418.25,-120.2 418.25,-164.2"/>
<text text-anchor="start" x="219" y="-150.7" font-family="Helvetica,sans-Serif" font-size="10.00">Deluxe.DeluxeBrandCenter.</text>
<text text-anchor="start" x="219" y="-138.7" font-family="Helvetica,sans-Serif" font-size="10.00">AMM.API.Services.AccountService.register</text>
<text text-anchor="middle" x="314.62" y="-126.7" font-family="Helvetica,sans-Serif" font-size="10.00">UserAdvisorWithUserId</text>
</a>
</g>
</g>
<!-- Node1&#45;&gt;Node17 -->
<g id="edge16_Node000001_Node000017" class="edge">
<title>Node1&#45;&gt;Node17</title>
<g id="a_edge16_Node000001_Node000017"><a xlink:title=" ">
<path fill="none" stroke="#63b8ff" d="M170.09,-181.73C186.61,-177.18 204.09,-172.37 220.95,-167.72"/>
<polygon fill="#63b8ff" stroke="#63b8ff" points="221.76,-171.13 230.47,-165.1 219.9,-164.38 221.76,-171.13"/>
</a>
</g>
</g>
<!-- Node6 -->
<g id="Node000006" class="node">
<title>Node6</title>
<g id="a_Node000006"><a xlink:href="../../da/d31/class_deluxe_1_1_deluxe_brand_center_1_1_a_m_m_1_1_domain_1_1_ext_service_model_1_1_mindfire_1_1_request_credentials.html#a9cedb033f2ce48e7edaf18068a78b4f5" target="_top" xlink:title=" ">
<polygon fill="white" stroke="#666666" points="654.75,-350.2 461,-350.2 461,-306.2 654.75,-306.2 654.75,-350.2"/>
<text text-anchor="start" x="469" y="-336.7" font-family="Helvetica,sans-Serif" font-size="10.00">Deluxe.DeluxeBrandCenter.</text>
<text text-anchor="start" x="469" y="-324.7" font-family="Helvetica,sans-Serif" font-size="10.00">AMM.Domain.ExtServiceModel.Mindfire.</text>
<text text-anchor="middle" x="557.88" y="-312.7" font-family="Helvetica,sans-Serif" font-size="10.00">RequestCredentials.NewInstance</text>
</a>
</g>
</g>
<!-- Node5&#45;&gt;Node6 -->
<g id="edge5_Node000005_Node000006" class="edge">
<title>Node5&#45;&gt;Node6</title>
<g id="a_edge5_Node000005_Node000006"><a xlink:title=" ">
<path fill="none" stroke="#63b8ff" d="M402.61,-225.12C408.15,-228.05 413.43,-231.39 418.25,-235.2 443.24,-254.96 429.26,-277.44 454.25,-297.2 455.4,-298.11 456.58,-298.99 457.78,-299.85"/>
<polygon fill="#63b8ff" stroke="#63b8ff" points="455.79,-302.73 466.11,-305.12 459.53,-296.82 455.79,-302.73"/>
</a>
</g>
</g>
<!-- Node7 -->
<g id="Node000007" class="node">
<title>Node7</title>
<g id="a_Node000007"><a xlink:href="../../dc/db9/class_deluxe_1_1_deluxe_brand_center_1_1_a_m_m_1_1_a_p_i_1_1_services_1_1_account_service.html#a02f134321d39745f10b489bf7fcdfc30" target="_top" xlink:title=" ">
<polygon fill="white" stroke="#666666" points="645.38,-288.2 470.38,-288.2 470.38,-244.2 645.38,-244.2 645.38,-288.2"/>
<text text-anchor="start" x="478.38" y="-274.7" font-family="Helvetica,sans-Serif" font-size="10.00">Deluxe.DeluxeBrandCenter.</text>
<text text-anchor="start" x="478.38" y="-262.7" font-family="Helvetica,sans-Serif" font-size="10.00">AMM.API.Services.AccountService.</text>
<text text-anchor="middle" x="557.88" y="-250.7" font-family="Helvetica,sans-Serif" font-size="10.00">RegisterMFUser</text>
</a>
</g>
</g>
<!-- Node5&#45;&gt;Node7 -->
<g id="edge6_Node000005_Node000007" class="edge">
<title>Node5&#45;&gt;Node7</title>
<g id="a_edge6_Node000005_Node000007"><a xlink:title=" ">
<path fill="none" stroke="#63b8ff" d="M402.38,-226.5C420.79,-231.23 440.34,-236.25 459.12,-241.08"/>
<polygon fill="#63b8ff" stroke="#63b8ff" points="458.06,-244.42 468.61,-243.52 459.8,-237.64 458.06,-244.42"/>
</a>
</g>
</g>
<!-- Node9 -->
<g id="Node000009" class="node">
<title>Node9</title>
<g id="a_Node000009"><a xlink:href="../../dd/d7d/interface_deluxe_1_1_deluxe_brand_center_1_1_a_m_m_1_1_domain_1_1_services_1_1_i_session_service.html#a74b7c3e39306365972dba285fd95eddc" target="_top" xlink:title=" ">
<polygon fill="white" stroke="#666666" points="655.12,-226.2 460.62,-226.2 460.62,-182.2 655.12,-182.2 655.12,-226.2"/>
<text text-anchor="start" x="468.62" y="-212.7" font-family="Helvetica,sans-Serif" font-size="10.00">Deluxe.DeluxeBrandCenter.</text>
<text text-anchor="start" x="468.62" y="-200.7" font-family="Helvetica,sans-Serif" font-size="10.00">AMM.Domain.Services.ISessionService.</text>
<text text-anchor="middle" x="557.88" y="-188.7" font-family="Helvetica,sans-Serif" font-size="10.00">SessionGetMFDomain</text>
</a>
</g>
</g>
<!-- Node5&#45;&gt;Node9 -->
<g id="edge8_Node000005_Node000009" class="edge">
<title>Node5&#45;&gt;Node9</title>
<g id="a_edge8_Node000005_Node000009"><a xlink:title=" ">
<path fill="none" stroke="#63b8ff" d="M402.38,-204.2C417.49,-204.2 433.37,-204.2 448.97,-204.2"/>
<polygon fill="#63b8ff" stroke="#63b8ff" points="448.74,-207.7 458.74,-204.2 448.74,-200.7 448.74,-207.7"/>
</a>
</g>
</g>
<!-- Node10 -->
<g id="Node000010" class="node">
<title>Node10</title>
<g id="a_Node000010"><a xlink:href="../../d2/dd7/interface_deluxe_1_1_deluxe_brand_center_1_1_a_m_m_1_1_a_p_i_1_1_services_1_1_i_mindfire_service.html#a19e21a2222a8d5c03cd9a6ca06102400" target="_top" xlink:title=" ">
<polygon fill="white" stroke="#666666" points="646.12,-412.2 469.62,-412.2 469.62,-368.2 646.12,-368.2 646.12,-412.2"/>
<text text-anchor="start" x="477.62" y="-398.7" font-family="Helvetica,sans-Serif" font-size="10.00">Deluxe.DeluxeBrandCenter.</text>
<text text-anchor="start" x="477.62" y="-386.7" font-family="Helvetica,sans-Serif" font-size="10.00">AMM.API.Services.IMindfireService.</text>
<text text-anchor="middle" x="557.88" y="-374.7" font-family="Helvetica,sans-Serif" font-size="10.00">SetUserTicket</text>
</a>
</g>
</g>
<!-- Node5&#45;&gt;Node10 -->
<g id="edge9_Node000005_Node000010" class="edge">
<title>Node5&#45;&gt;Node10</title>
<g id="a_edge9_Node000005_Node000010"><a xlink:title=" ">
<path fill="none" stroke="#63b8ff" d="M402.29,-222.98C408.12,-226.4 413.54,-230.44 418.25,-235.2 458.61,-276 413.89,-318.4 454.25,-359.2 456.06,-361.03 457.97,-362.75 459.97,-364.37"/>
<polygon fill="#63b8ff" stroke="#63b8ff" points="457.8,-367.12 468,-369.98 461.81,-361.38 457.8,-367.12"/>
</a>
</g>
</g>
<!-- Node8 -->
<g id="Node000008" class="node">
<title>Node8</title>
<g id="a_Node000008"><a xlink:href="../../dd/d7d/interface_deluxe_1_1_deluxe_brand_center_1_1_a_m_m_1_1_domain_1_1_services_1_1_i_session_service.html#a16cd71fc18c3e958b6941b30021b2ddb" target="_top" xlink:title=" ">
<polygon fill="white" stroke="#666666" points="895.38,-288.2 700.88,-288.2 700.88,-244.2 895.38,-244.2 895.38,-288.2"/>
<text text-anchor="start" x="708.88" y="-274.7" font-family="Helvetica,sans-Serif" font-size="10.00">Deluxe.DeluxeBrandCenter.</text>
<text text-anchor="start" x="708.88" y="-262.7" font-family="Helvetica,sans-Serif" font-size="10.00">AMM.Domain.Services.ISessionService.</text>
<text text-anchor="middle" x="798.12" y="-250.7" font-family="Helvetica,sans-Serif" font-size="10.00">SessionGetMFAccountNamePrefix</text>
</a>
</g>
</g>
<!-- Node7&#45;&gt;Node8 -->
<g id="edge7_Node000007_Node000008" class="edge">
<title>Node7&#45;&gt;Node8</title>
<g id="a_edge7_Node000007_Node000008"><a xlink:title=" ">
<path fill="none" stroke="#63b8ff" d="M645.56,-266.2C659.77,-266.2 674.64,-266.2 689.29,-266.2"/>
<polygon fill="#63b8ff" stroke="#63b8ff" points="688.91,-269.7 698.91,-266.2 688.91,-262.7 688.91,-269.7"/>
</a>
</g>
</g>
<!-- Node12 -->
<g id="Node000012" class="node">
<title>Node12</title>
<g id="a_Node000012"><a xlink:href="../../dc/db9/class_deluxe_1_1_deluxe_brand_center_1_1_a_m_m_1_1_a_p_i_1_1_services_1_1_account_service.html#a3eeabb0ad01853e571664879ebdf71c4" target="_top" xlink:title=" ">
<polygon fill="white" stroke="#666666" points="661.5,-102.2 454.25,-102.2 454.25,-58.2 661.5,-58.2 661.5,-102.2"/>
<text text-anchor="start" x="462.25" y="-88.7" font-family="Helvetica,sans-Serif" font-size="10.00">Deluxe.DeluxeBrandCenter.</text>
<text text-anchor="start" x="462.25" y="-76.7" font-family="Helvetica,sans-Serif" font-size="10.00">AMM.API.Services.AccountService.register</text>
<text text-anchor="middle" x="557.88" y="-64.7" font-family="Helvetica,sans-Serif" font-size="10.00">ApplicationUserWithUserId</text>
</a>
</g>
</g>
<!-- Node11&#45;&gt;Node12 -->
<g id="edge11_Node000011_Node000012" class="edge">
<title>Node11&#45;&gt;Node12</title>
<g id="a_edge11_Node000011_Node000012"><a xlink:title=" ">
<path fill="none" stroke="#63b8ff" d="M418.64,-80.2C426.56,-80.2 434.58,-80.2 442.57,-80.2"/>
<polygon fill="#63b8ff" stroke="#63b8ff" points="442.31,-83.7 452.31,-80.2 442.31,-76.7 442.31,-83.7"/>
</a>
</g>
</g>
<!-- Node16 -->
<g id="Node000016" class="node">
<title>Node16</title>
<g id="a_Node000016"><a xlink:href="../../dd/d7d/interface_deluxe_1_1_deluxe_brand_center_1_1_a_m_m_1_1_domain_1_1_services_1_1_i_session_service.html#a31fd07938dc12b3d600f3bd500d3aacd" target="_top" xlink:title=" ">
<polygon fill="white" stroke="#666666" points="655.12,-164.2 460.62,-164.2 460.62,-120.2 655.12,-120.2 655.12,-164.2"/>
<text text-anchor="start" x="468.62" y="-150.7" font-family="Helvetica,sans-Serif" font-size="10.00">Deluxe.DeluxeBrandCenter.</text>
<text text-anchor="start" x="468.62" y="-138.7" font-family="Helvetica,sans-Serif" font-size="10.00">AMM.Domain.Services.ISessionService.</text>
<text text-anchor="middle" x="557.88" y="-126.7" font-family="Helvetica,sans-Serif" font-size="10.00">SessionGetClientId</text>
</a>
</g>
</g>
<!-- Node11&#45;&gt;Node16 -->
<g id="edge15_Node000011_Node000016" class="edge">
<title>Node11&#45;&gt;Node16</title>
<g id="a_edge15_Node000011_Node000016"><a xlink:title=" ">
<path fill="none" stroke="#63b8ff" d="M403.06,-102.67C421.01,-107.29 440.03,-112.17 458.34,-116.88"/>
<polygon fill="#63b8ff" stroke="#63b8ff" points="457.31,-120.23 467.86,-119.33 459.05,-113.45 457.31,-120.23"/>
</a>
</g>
</g>
<!-- Node12&#45;&gt;Node13 -->
<g id="edge12_Node000012_Node000013" class="edge">
<title>Node12&#45;&gt;Node13</title>
<g id="a_edge12_Node000012_Node000013"><a xlink:title=" ">
<path fill="none" stroke="#63b8ff" d="M661.99,-69.38C669.94,-68.55 677.99,-67.7 685.98,-66.86"/>
<polygon fill="#63b8ff" stroke="#63b8ff" points="686.16,-70.36 695.74,-65.84 685.43,-63.4 686.16,-70.36"/>
</a>
</g>
</g>
<!-- Node14 -->
<g id="Node000014" class="node">
<title>Node14</title>
<g id="a_Node000014"><a xlink:href="../../d6/db1/class_deluxe_1_1_deluxe_brand_center_1_1_a_m_m_1_1_infrastructure_1_1_databases_1_1_application_db_context.html#aea43a5ab4bb779ccf8678ef7aac5be0c" target="_top" xlink:title=" ">
<polygon fill="white" stroke="#666666" points="1136,-77.2 934.75,-77.2 934.75,-33.2 1136,-33.2 1136,-77.2"/>
<text text-anchor="start" x="942.75" y="-63.7" font-family="Helvetica,sans-Serif" font-size="10.00">Deluxe.DeluxeBrandCenter.</text>
<text text-anchor="start" x="942.75" y="-51.7" font-family="Helvetica,sans-Serif" font-size="10.00">AMM.Infrastructure.Databases.Application</text>
<text text-anchor="middle" x="1035.38" y="-39.7" font-family="Helvetica,sans-Serif" font-size="10.00">DbContext.OnBeforeSaveChanges</text>
</a>
</g>
</g>
<!-- Node13&#45;&gt;Node14 -->
<g id="edge13_Node000013_Node000014" class="edge">
<title>Node13&#45;&gt;Node14</title>
<g id="a_edge13_Node000013_Node000014"><a xlink:title=" ">
<path fill="none" stroke="#63b8ff" d="M899.23,-55.2C907.05,-55.2 914.97,-55.2 922.85,-55.2"/>
<polygon fill="#63b8ff" stroke="#63b8ff" points="922.84,-58.7 932.84,-55.2 922.84,-51.7 922.84,-58.7"/>
</a>
</g>
</g>
<!-- Node15 -->
<g id="Node000015" class="node">
<title>Node15</title>
<g id="a_Node000015"><a xlink:href="../../d6/db1/class_deluxe_1_1_deluxe_brand_center_1_1_a_m_m_1_1_infrastructure_1_1_databases_1_1_application_db_context.html#a5a50b059decefb01e96a92bc29bcd3e6" target="_top" xlink:title=" ">
<polygon fill="white" stroke="#666666" points="1373.25,-77.2 1172,-77.2 1172,-33.2 1373.25,-33.2 1373.25,-77.2"/>
<text text-anchor="start" x="1180" y="-63.7" font-family="Helvetica,sans-Serif" font-size="10.00">Deluxe.DeluxeBrandCenter.</text>
<text text-anchor="start" x="1180" y="-51.7" font-family="Helvetica,sans-Serif" font-size="10.00">AMM.Infrastructure.Databases.Application</text>
<text text-anchor="middle" x="1272.62" y="-39.7" font-family="Helvetica,sans-Serif" font-size="10.00">DbContext.AddTimestampsToEntities</text>
</a>
</g>
</g>
<!-- Node14&#45;&gt;Node15 -->
<g id="edge14_Node000014_Node000015" class="edge">
<title>Node14&#45;&gt;Node15</title>
<g id="a_edge14_Node000014_Node000015"><a xlink:title=" ">
<path fill="none" stroke="#63b8ff" d="M1136.48,-55.2C1144.3,-55.2 1152.22,-55.2 1160.1,-55.2"/>
<polygon fill="#63b8ff" stroke="#63b8ff" points="1160.09,-58.7 1170.09,-55.2 1160.09,-51.7 1160.09,-58.7"/>
</a>
</g>
</g>
<!-- Node17&#45;&gt;Node12 -->
<g id="edge17_Node000017_Node000012" class="edge">
<title>Node17&#45;&gt;Node12</title>
<g id="a_edge17_Node000017_Node000012"><a xlink:title=" ">
<path fill="none" stroke="#63b8ff" d="M403.06,-119.73C421.01,-115.12 440.03,-110.23 458.34,-105.52"/>
<polygon fill="#63b8ff" stroke="#63b8ff" points="459.05,-108.96 467.86,-103.08 457.31,-102.18 459.05,-108.96"/>
</a>
</g>
</g>
<!-- Node17&#45;&gt;Node16 -->
<g id="edge18_Node000017_Node000016" class="edge">
<title>Node17&#45;&gt;Node16</title>
<g id="a_edge18_Node000017_Node000016"><a xlink:title=" ">
<path fill="none" stroke="#63b8ff" d="M418.64,-142.2C428.69,-142.2 438.9,-142.2 449,-142.2"/>
<polygon fill="#63b8ff" stroke="#63b8ff" points="448.82,-145.7 458.82,-142.2 448.82,-138.7 448.82,-145.7"/>
</a>
</g>
</g>
</g>
</svg>

<g id="navigator" transform="translate(0 0)" fill="#404254">
  <rect fill="#f2f5e9" fill-opacity="0.5" stroke="#606060" stroke-width=".5" x="0" y="0" width="60" height="60"/>
  <use id="zoomplus" xlink:href="#zoomPlus" x="17" y="9" onmousedown="handleZoom(evt,'in')"/>
  <use id="zoomminus" xlink:href="#zoomMin" x="42" y="9" onmousedown="handleZoom(evt,'out')"/>
  <use id="reset" xlink:href="#resetDef" x="30" y="36" onmousedown="handleReset()"/>
   <use id="arrowup" xlink:href="#arrowUp" x="0" y="0" onmousedown="handlePan(0,-1)"/>
  <use id="arrowright" xlink:href="#arrowRight" x="0" y="0" onmousedown="handlePan(1,0)"/>
  <use id="arrowdown" xlink:href="#arrowDown" x="0" y="0" onmousedown="handlePan(0,1)"/>
  <use id="arrowleft" xlink:href="#arrowLeft" x="0" y="0" onmousedown="handlePan(-1,0)"/>
</g>
<svg viewBox="0 0 15 15" width="100%" height="30px" preserveAspectRatio="xMaxYMin meet">
 <g id="arrow_out" transform="scale(0.3 0.3)">
  <a xlink:href="class_deluxe_1_1_deluxe_brand_center_1_1_a_m_m_1_1_a_p_i_1_1_services_1_1_account_service_ae47fd0f3f51489123d65b4d4c1778e9e_cgraph_org.svg" target="_base">
   <rect id="button" ry="5" rx="5" y="6" x="6" height="38" width="38"
        fill="#f2f5e9" fill-opacity="0.5" stroke="#606060" stroke-width="1.0"/>
   <path id="arrow"
     d="M 11.500037,31.436501 C 11.940474,20.09759 22.043105,11.32322 32.158766,21.979434 L 37.068811,17.246167 C 37.068811,17.246167 37.088388,32 37.088388,32 L 22.160133,31.978069 C 22.160133,31.978069 26.997745,27.140456 26.997745,27.140456 C 18.528582,18.264221 13.291696,25.230495 11.500037,31.436501 z"
     style="fill:#404040;"/>
  </a>
 </g>
</svg>

<style type='text/css'>
<![CDATA[
[data-mouse-over-selected='false'] { opacity: 0.7; }
[data-mouse-over-selected='true']  { opacity: 1.0; }
]]>
</style>
<script type="application/ecmascript"><![CDATA[
document.addEventListener('DOMContentLoaded', (event) => {
  highlightEdges();
  highlightAdjacentNodes();
});
]]></script>
</svg>
