<?xml version="1.0" encoding="UTF-8" standalone="no"?>
<!DOCTYPE svg PUBLIC "-//W3C//DTD SVG 1.1//EN"
 "http://www.w3.org/Graphics/SVG/1.1/DTD/svg11.dtd">
<!-- Generated by graphviz version 12.1.1 (20240910.0053)
 -->
<!-- Title: Deluxe.DeluxeBrandCenter.AMM.Domain.DataModel.SignatureBlock Pages: 1 -->
<svg width="282pt" height="264pt"
 viewBox="0.00 0.00 281.75 264.00" xmlns="http://www.w3.org/2000/svg" xmlns:xlink="http://www.w3.org/1999/xlink">
<g id="graph0" class="graph" transform="scale(1 1) rotate(0) translate(4 260)">
<title>Deluxe.DeluxeBrandCenter.AMM.Domain.DataModel.SignatureBlock</title>
<!-- Node1 -->
<g id="Node000001" class="node">
<title>Node1</title>
<g id="a_Node000001"><a xlink:title=" ">
<polygon fill="#999999" stroke="#666666" points="195.25,-32 0,-32 0,0 195.25,0 195.25,-32"/>
<text text-anchor="start" x="8" y="-18.5" font-family="Helvetica,sans-Serif" font-size="10.00">Deluxe.DeluxeBrandCenter.</text>
<text text-anchor="middle" x="97.62" y="-6.5" font-family="Helvetica,sans-Serif" font-size="10.00">AMM.Domain.DataModel.SignatureBlock</text>
</a>
</g>
</g>
<!-- Node2 -->
<g id="Node000002" class="node">
<title>Node2</title>
<g id="a_Node000002"><a xlink:href="../../d4/d1a/class_deluxe_1_1_deluxe_brand_center_1_1_a_m_m_1_1_domain_1_1_data_model_1_1_base_entity_named.html" target="_top" xlink:title=" ">
<polygon fill="white" stroke="#666666" points="221.38,-88 125.88,-88 125.88,-68 221.38,-68 221.38,-88"/>
<text text-anchor="middle" x="173.62" y="-74.5" font-family="Helvetica,sans-Serif" font-size="10.00">BaseEntityNamed</text>
</a>
</g>
</g>
<!-- Node2&#45;&gt;Node1 -->
<g id="edge1_Node000001_Node000002" class="edge">
<title>Node2&#45;&gt;Node1</title>
<g id="a_edge1_Node000001_Node000002"><a xlink:title=" ">
<path fill="none" stroke="#63b8ff" d="M152.74,-60.51C141.61,-51.72 128.01,-40.98 117.1,-32.37"/>
<polygon fill="#63b8ff" stroke="#63b8ff" points="150.54,-63.24 160.56,-66.69 154.88,-57.74 150.54,-63.24"/>
</a>
</g>
</g>
<!-- Node3 -->
<g id="Node000003" class="node">
<title>Node3</title>
<g id="a_Node000003"><a xlink:href="../../d7/d1c/class_deluxe_1_1_deluxe_brand_center_1_1_a_m_m_1_1_domain_1_1_data_model_1_1_base_entity.html" target="_top" xlink:title=" ">
<polygon fill="white" stroke="#666666" points="266.62,-144 202.62,-144 202.62,-124 266.62,-124 266.62,-144"/>
<text text-anchor="middle" x="234.62" y="-130.5" font-family="Helvetica,sans-Serif" font-size="10.00">BaseEntity</text>
</a>
</g>
</g>
<!-- Node3&#45;&gt;Node2 -->
<g id="edge2_Node000002_Node000003" class="edge">
<title>Node3&#45;&gt;Node2</title>
<g id="a_edge2_Node000002_Node000003"><a xlink:title=" ">
<path fill="none" stroke="#63b8ff" d="M215.56,-116.13C205.19,-106.94 192.75,-95.93 184.13,-88.3"/>
<polygon fill="#63b8ff" stroke="#63b8ff" points="213.06,-118.58 222.87,-122.59 217.7,-113.34 213.06,-118.58"/>
</a>
</g>
</g>
<!-- Node4 -->
<g id="Node000004" class="node">
<title>Node4</title>
<g id="a_Node000004"><a xlink:href="../../d6/df6/class_deluxe_1_1_deluxe_brand_center_1_1_a_m_m_1_1_domain_1_1_data_model_1_1_modified_entity.html" target="_top" xlink:title=" ">
<polygon fill="white" stroke="#666666" points="273.75,-200 195.5,-200 195.5,-180 273.75,-180 273.75,-200"/>
<text text-anchor="middle" x="234.62" y="-186.5" font-family="Helvetica,sans-Serif" font-size="10.00">ModifiedEntity</text>
</a>
</g>
</g>
<!-- Node4&#45;&gt;Node3 -->
<g id="edge3_Node000003_Node000004" class="edge">
<title>Node4&#45;&gt;Node3</title>
<g id="a_edge3_Node000003_Node000004"><a xlink:title=" ">
<path fill="none" stroke="#63b8ff" d="M234.62,-168.13C234.62,-159.9 234.62,-150.85 234.62,-144.3"/>
<polygon fill="#63b8ff" stroke="#63b8ff" points="231.13,-168.08 234.63,-178.08 238.13,-168.08 231.13,-168.08"/>
</a>
</g>
</g>
<!-- Node5 -->
<g id="Node000005" class="node">
<title>Node5</title>
<g id="a_Node000005"><a xlink:href="../../d6/dad/interface_deluxe_1_1_deluxe_brand_center_1_1_a_m_m_1_1_domain_1_1_data_model_1_1_interface_1_1_i_modified.html" target="_top" xlink:title=" ">
<polygon fill="white" stroke="#666666" points="216.5,-256 160.75,-256 160.75,-236 216.5,-236 216.5,-256"/>
<text text-anchor="middle" x="188.62" y="-242.5" font-family="Helvetica,sans-Serif" font-size="10.00">IModified</text>
</a>
</g>
</g>
<!-- Node5&#45;&gt;Node4 -->
<g id="edge4_Node000004_Node000005" class="edge">
<title>Node5&#45;&gt;Node4</title>
<g id="a_edge4_Node000004_Node000005"><a xlink:title=" ">
<path fill="none" stroke="#63b8ff" d="M203.96,-227C211.58,-218.06 220.46,-207.62 226.7,-200.3"/>
<polygon fill="#63b8ff" stroke="#63b8ff" points="201.44,-224.56 197.62,-234.44 206.77,-229.1 201.44,-224.56"/>
</a>
</g>
</g>
<!-- Node6 -->
<g id="Node000006" class="node">
<title>Node6</title>
<g id="a_Node000006"><a xlink:href="../../d5/d26/interface_deluxe_1_1_deluxe_brand_center_1_1_a_m_m_1_1_domain_1_1_data_model_1_1_interface_1_1_i_base_entity.html" target="_top" xlink:title=" ">
<polygon fill="white" stroke="#666666" points="177.12,-200 110.12,-200 110.12,-180 177.12,-180 177.12,-200"/>
<text text-anchor="middle" x="143.62" y="-186.5" font-family="Helvetica,sans-Serif" font-size="10.00">IBaseEntity</text>
</a>
</g>
</g>
<!-- Node5&#45;&gt;Node6 -->
<g id="edge6_Node000006_Node000005" class="edge">
<title>Node5&#45;&gt;Node6</title>
<g id="a_edge6_Node000006_Node000005"><a xlink:title=" ">
<path fill="none" stroke="#63b8ff" d="M173.63,-227C166.17,-218.06 157.48,-207.62 151.37,-200.3"/>
<polygon fill="#63b8ff" stroke="#63b8ff" points="170.73,-228.99 179.82,-234.43 176.1,-224.51 170.73,-228.99"/>
</a>
</g>
</g>
<!-- Node6&#45;&gt;Node1 -->
<g id="edge11_Node000001_Node000006" class="edge">
<title>Node6&#45;&gt;Node1</title>
<g id="a_edge11_Node000001_Node000006"><a xlink:title=" ">
<path fill="none" stroke="#63b8ff" d="M98.68,-181.37C76.95,-175.18 52.78,-164.02 39.62,-144 15,-106.52 56.26,-56.89 81.03,-32.24"/>
<polygon fill="#63b8ff" stroke="#63b8ff" points="97.73,-184.74 108.29,-183.81 99.45,-177.96 97.73,-184.74"/>
</a>
</g>
</g>
<!-- Node6&#45;&gt;Node2 -->
<g id="edge9_Node000002_Node000006" class="edge">
<title>Node6&#45;&gt;Node2</title>
<g id="a_edge9_Node000002_Node000006"><a xlink:title=" ">
<path fill="none" stroke="#63b8ff" d="M149.18,-168.64C155.7,-144.72 166.25,-106.03 171.07,-88.35"/>
<polygon fill="#63b8ff" stroke="#63b8ff" points="145.84,-167.59 146.58,-178.16 152.59,-169.43 145.84,-167.59"/>
</a>
</g>
</g>
<!-- Node6&#45;&gt;Node3 -->
<g id="edge5_Node000003_Node000006" class="edge">
<title>Node6&#45;&gt;Node3</title>
<g id="a_edge5_Node000003_Node000006"><a xlink:title=" ">
<path fill="none" stroke="#63b8ff" d="M169.22,-173.81C185.09,-164.39 204.99,-152.58 218.65,-144.48"/>
<polygon fill="#63b8ff" stroke="#63b8ff" points="167.59,-170.71 160.78,-178.82 171.16,-176.73 167.59,-170.71"/>
</a>
</g>
</g>
<!-- Node7 -->
<g id="Node000007" class="node">
<title>Node7</title>
<g id="a_Node000007"><a xlink:href="../../d9/dec/interface_deluxe_1_1_deluxe_brand_center_1_1_a_m_m_1_1_domain_1_1_data_model_1_1_interface_1_1_i_base_entity_named.html" target="_top" xlink:title=" ">
<polygon fill="white" stroke="#666666" points="146.88,-144 48.37,-144 48.37,-124 146.88,-124 146.88,-144"/>
<text text-anchor="middle" x="97.62" y="-130.5" font-family="Helvetica,sans-Serif" font-size="10.00">IBaseEntityNamed</text>
</a>
</g>
</g>
<!-- Node6&#45;&gt;Node7 -->
<g id="edge8_Node000007_Node000006" class="edge">
<title>Node6&#45;&gt;Node7</title>
<g id="a_edge8_Node000007_Node000006"><a xlink:title=" ">
<path fill="none" stroke="#63b8ff" d="M128.29,-171C120.67,-162.06 111.79,-151.62 105.55,-144.3"/>
<polygon fill="#63b8ff" stroke="#63b8ff" points="125.48,-173.1 134.63,-178.44 130.81,-168.56 125.48,-173.1"/>
</a>
</g>
</g>
<!-- Node7&#45;&gt;Node1 -->
<g id="edge10_Node000001_Node000007" class="edge">
<title>Node7&#45;&gt;Node1</title>
<g id="a_edge10_Node000001_Node000007"><a xlink:title=" ">
<path fill="none" stroke="#63b8ff" d="M97.62,-112.04C97.62,-89.1 97.62,-52.88 97.62,-32.41"/>
<polygon fill="#63b8ff" stroke="#63b8ff" points="94.13,-111.99 97.63,-121.99 101.13,-111.99 94.13,-111.99"/>
</a>
</g>
</g>
<!-- Node7&#45;&gt;Node2 -->
<g id="edge7_Node000002_Node000007" class="edge">
<title>Node7&#45;&gt;Node2</title>
<g id="a_edge7_Node000002_Node000007"><a xlink:title=" ">
<path fill="none" stroke="#63b8ff" d="M120.15,-117C133.2,-107.72 149.2,-96.35 160.28,-88.48"/>
<polygon fill="#63b8ff" stroke="#63b8ff" points="118.22,-114.07 112.1,-122.72 122.28,-119.78 118.22,-114.07"/>
</a>
</g>
</g>
</g>
</svg>
