<?xml version="1.0" encoding="UTF-8" standalone="no"?>
<!DOCTYPE svg PUBLIC "-//W3C//DTD SVG 1.1//EN"
 "http://www.w3.org/Graphics/SVG/1.1/DTD/svg11.dtd">
<!-- Generated by graphviz version 12.1.1 (20240910.0053)
 -->
<!-- Title: Deluxe.DeluxeBrandCenter.AMM.Infrastructure.Social.SocialNetworkService.CheckRefreshTokenForWarning Pages: 1 -->
<svg width="462pt" height="300pt"
 viewBox="0.00 0.00 461.50 300.00" xmlns="http://www.w3.org/2000/svg" xmlns:xlink="http://www.w3.org/1999/xlink">
<g id="graph0" class="graph" transform="scale(1 1) rotate(0) translate(4 296)">
<title>Deluxe.DeluxeBrandCenter.AMM.Infrastructure.Social.SocialNetworkService.CheckRefreshTokenForWarning</title>
<!-- Node1 -->
<g id="Node000001" class="node">
<title>Node1</title>
<g id="a_Node000001"><a xlink:title=" ">
<polygon fill="#999999" stroke="#666666" points="227.5,-168 0,-168 0,-124 227.5,-124 227.5,-168"/>
<text text-anchor="start" x="8" y="-154.5" font-family="Helvetica,sans-Serif" font-size="10.00">Deluxe.DeluxeBrandCenter.</text>
<text text-anchor="start" x="8" y="-142.5" font-family="Helvetica,sans-Serif" font-size="10.00">AMM.Infrastructure.Social.Social</text>
<text text-anchor="middle" x="113.75" y="-130.5" font-family="Helvetica,sans-Serif" font-size="10.00">NetworkService.CheckRefreshTokenForWarning</text>
</a>
</g>
</g>
<!-- Node2 -->
<g id="Node000002" class="node">
<title>Node2</title>
<g id="a_Node000002"><a xlink:href="../../d0/db3/interface_deluxe_1_1_deluxe_brand_center_1_1_a_m_m_1_1_infrastructure_1_1_social_1_1_i_linkedin_service.html#a54b3fd05461ea8a442a2c9f9115dc05c" target="_top" xlink:title=" ">
<polygon fill="white" stroke="#666666" points="453.5,-292 263.5,-292 263.5,-248 453.5,-248 453.5,-292"/>
<text text-anchor="start" x="271.5" y="-278.5" font-family="Helvetica,sans-Serif" font-size="10.00">Deluxe.DeluxeBrandCenter.</text>
<text text-anchor="start" x="271.5" y="-266.5" font-family="Helvetica,sans-Serif" font-size="10.00">AMM.Infrastructure.Social.ILinkedin</text>
<text text-anchor="middle" x="358.5" y="-254.5" font-family="Helvetica,sans-Serif" font-size="10.00">Service.CheckTokensStatusForWarning</text>
</a>
</g>
</g>
<!-- Node1&#45;&gt;Node2 -->
<g id="edge1_Node000001_Node000002" class="edge">
<title>Node1&#45;&gt;Node2</title>
<g id="a_edge1_Node000001_Node000002"><a xlink:title=" ">
<path fill="none" stroke="#63b8ff" d="M145.7,-168.45C174.95,-188.89 220.62,-218.89 263.5,-239 266.63,-240.47 269.84,-241.89 273.11,-243.28"/>
<polygon fill="#63b8ff" stroke="#63b8ff" points="271.72,-246.49 282.3,-246.99 274.34,-240 271.72,-246.49"/>
</a>
</g>
</g>
<!-- Node3 -->
<g id="Node000003" class="node">
<title>Node3</title>
<g id="a_Node000003"><a xlink:href="../../d3/d78/interface_deluxe_1_1_deluxe_brand_center_1_1_a_m_m_1_1_infrastructure_1_1_p_m_s_1_1_i_persona_microservice.html#aaac0d5c632bb08eec28d1a628d6ea5e2" target="_top" xlink:title=" ">
<polygon fill="white" stroke="#666666" points="441.88,-230 275.12,-230 275.12,-186 441.88,-186 441.88,-230"/>
<text text-anchor="start" x="283.12" y="-216.5" font-family="Helvetica,sans-Serif" font-size="10.00">Deluxe.DeluxeBrandCenter.</text>
<text text-anchor="start" x="283.12" y="-204.5" font-family="Helvetica,sans-Serif" font-size="10.00">AMM.Infrastructure.PMS.IPersona</text>
<text text-anchor="middle" x="358.5" y="-192.5" font-family="Helvetica,sans-Serif" font-size="10.00">Microservice.GetFilteredPersonas</text>
</a>
</g>
</g>
<!-- Node1&#45;&gt;Node3 -->
<g id="edge2_Node000001_Node000003" class="edge">
<title>Node1&#45;&gt;Node3</title>
<g id="a_edge2_Node000001_Node000003"><a xlink:title=" ">
<path fill="none" stroke="#63b8ff" d="M202.73,-168.47C222.54,-173.53 243.63,-178.92 263.66,-184.03"/>
<polygon fill="#63b8ff" stroke="#63b8ff" points="262.65,-187.39 273.21,-186.47 264.38,-180.6 262.65,-187.39"/>
</a>
</g>
</g>
<!-- Node4 -->
<g id="Node000004" class="node">
<title>Node4</title>
<g id="a_Node000004"><a xlink:href="../../d7/d5a/class_deluxe_1_1_deluxe_brand_center_1_1_a_m_m_1_1_infrastructure_1_1_social_1_1_social_network_service.html#a3f70abef72d83fe91c7ca28ef5f547c7" target="_top" xlink:title=" ">
<polygon fill="white" stroke="#666666" points="438.5,-168 278.5,-168 278.5,-124 438.5,-124 438.5,-168"/>
<text text-anchor="start" x="286.5" y="-154.5" font-family="Helvetica,sans-Serif" font-size="10.00">Deluxe.DeluxeBrandCenter.</text>
<text text-anchor="start" x="286.5" y="-142.5" font-family="Helvetica,sans-Serif" font-size="10.00">AMM.Infrastructure.Social.Social</text>
<text text-anchor="middle" x="358.5" y="-130.5" font-family="Helvetica,sans-Serif" font-size="10.00">NetworkService.GetSettings</text>
</a>
</g>
</g>
<!-- Node1&#45;&gt;Node4 -->
<g id="edge3_Node000001_Node000004" class="edge">
<title>Node1&#45;&gt;Node4</title>
<g id="a_edge3_Node000001_Node000004"><a xlink:title=" ">
<path fill="none" stroke="#63b8ff" d="M227.95,-146C240.92,-146 254.01,-146 266.63,-146"/>
<polygon fill="#63b8ff" stroke="#63b8ff" points="266.55,-149.5 276.55,-146 266.55,-142.5 266.55,-149.5"/>
</a>
</g>
</g>
<!-- Node5 -->
<g id="Node000005" class="node">
<title>Node5</title>
<g id="a_Node000005"><a xlink:href="../../d7/d5a/class_deluxe_1_1_deluxe_brand_center_1_1_a_m_m_1_1_infrastructure_1_1_social_1_1_social_network_service.html#a7dc642e27e2b56d23c95c6b9785d2f92" target="_top" xlink:title=" ">
<polygon fill="white" stroke="#666666" points="438.5,-106 278.5,-106 278.5,-62 438.5,-62 438.5,-106"/>
<text text-anchor="start" x="286.5" y="-92.5" font-family="Helvetica,sans-Serif" font-size="10.00">Deluxe.DeluxeBrandCenter.</text>
<text text-anchor="start" x="286.5" y="-80.5" font-family="Helvetica,sans-Serif" font-size="10.00">AMM.Infrastructure.Social.Social</text>
<text text-anchor="middle" x="358.5" y="-68.5" font-family="Helvetica,sans-Serif" font-size="10.00">NetworkService.PreparingEmail</text>
</a>
</g>
</g>
<!-- Node1&#45;&gt;Node5 -->
<g id="edge4_Node000001_Node000005" class="edge">
<title>Node1&#45;&gt;Node5</title>
<g id="a_edge4_Node000001_Node000005"><a xlink:title=" ">
<path fill="none" stroke="#63b8ff" d="M202.73,-123.53C223.76,-118.16 246.24,-112.42 267.36,-107.02"/>
<polygon fill="#63b8ff" stroke="#63b8ff" points="267.98,-110.48 276.81,-104.61 266.25,-103.69 267.98,-110.48"/>
</a>
</g>
</g>
<!-- Node6 -->
<g id="Node000006" class="node">
<title>Node6</title>
<g id="a_Node000006"><a xlink:href="../../da/dd6/interface_deluxe_1_1_deluxe_brand_center_1_1_a_m_m_1_1_domain_1_1_ext_service_model_1_1_i_send_email_service.html#aab8d80dedde4887e035ba39f80308806" target="_top" xlink:title=" ">
<polygon fill="white" stroke="#666666" points="449.38,-44 267.62,-44 267.62,0 449.38,0 449.38,-44"/>
<text text-anchor="start" x="275.62" y="-30.5" font-family="Helvetica,sans-Serif" font-size="10.00">Deluxe.DeluxeBrandCenter.</text>
<text text-anchor="start" x="275.62" y="-18.5" font-family="Helvetica,sans-Serif" font-size="10.00">AMM.Domain.ExtServiceModel.ISend</text>
<text text-anchor="middle" x="358.5" y="-6.5" font-family="Helvetica,sans-Serif" font-size="10.00">EmailService.SendEmail</text>
</a>
</g>
</g>
<!-- Node1&#45;&gt;Node6 -->
<g id="edge5_Node000001_Node000006" class="edge">
<title>Node1&#45;&gt;Node6</title>
<g id="a_edge5_Node000001_Node000006"><a xlink:title=" ">
<path fill="none" stroke="#63b8ff" d="M145.7,-123.55C174.95,-103.11 220.62,-73.11 263.5,-53 266.63,-51.53 269.84,-50.11 273.11,-48.72"/>
<polygon fill="#63b8ff" stroke="#63b8ff" points="274.34,-52 282.3,-45.01 271.72,-45.51 274.34,-52"/>
</a>
</g>
</g>
</g>
</svg>
