<?xml version="1.0" encoding="UTF-8" standalone="no"?>
<!DOCTYPE svg PUBLIC "-//W3C//DTD SVG 1.1//EN"
 "http://www.w3.org/Graphics/SVG/1.1/DTD/svg11.dtd">
<!-- Generated by graphviz version 12.1.1 (20240910.0053)
 -->
<!-- Title: Deluxe.DeluxeBrandCenter.AMM.Infrastructure.Social.SocialNetworkService.Sharing Pages: 1 -->
<!--zoomable 393 -->

<svg id="main" version="1.1" xmlns="http://www.w3.org/2000/svg" xmlns:xlink="http://www.w3.org/1999/xlink" xml:space="preserve" onload="init(evt)">

<style type="text/css"><![CDATA[
.node, .edge {opacity: 0.7;}
.node.selected, .edge.selected {opacity: 1;}
.edge:hover path { stroke: red; }
.edge:hover polygon { stroke: red; fill: red; }
]]></style>

<defs>
  <circle id="rim" cx="0" cy="0" r="7"/>
  <circle id="rim2" cx="0" cy="0" r="3.5"/>
  <g id="zoomPlus">
    <use xlink:href="#rim" fill="#404040"><set attributeName="fill" to="#808080" begin="zoomplus.mouseover" end="zoomplus.mouseout"/></use>
    <path d="M-4,0h8M0,-4v8" fill="none" stroke="white" stroke-width="1.5" pointer-events="none"/>
  </g>
  <g id="zoomMin">
    <use xlink:href="#rim" fill="#404040"><set attributeName="fill" to="#808080" begin="zoomminus.mouseover" end="zoomminus.mouseout"/></use>
    <path d="M-4,0h8" fill="none" stroke="white" stroke-width="1.5" pointer-events="none"/>
  </g>
  <g id="arrowUp" transform="translate(30 24)">
    <use xlink:href="#rim"/>
    <path pointer-events="none" fill="none" stroke="white" stroke-width="1.5" d="M0,-3.0v7 M-2.5,-0.5L0,-3.0L2.5,-0.5"/>
  </g>
  <g id="arrowRight" transform="rotate(90) translate(36 -43)">
    <use xlink:href="#rim"/>
    <path pointer-events="none" fill="none" stroke="white" stroke-width="1.5" d="M0,-3.0v7 M-2.5,-0.5L0,-3.0L2.5,-0.5"/>
  </g>
  <g id="arrowDown" transform="rotate(180) translate(-30 -48)">
    <use xlink:href="#rim"/>
    <path pointer-events="none" fill="none" stroke="white" stroke-width="1.5" d="M0,-3.0v7 M-2.5,-0.5L0,-3.0L2.5,-0.5"/>
  </g>
  <g id="arrowLeft" transform="rotate(270) translate(-36 17)">
    <use xlink:href="#rim"/>
    <path pointer-events="none" fill="none" stroke="white" stroke-width="1.5" d="M0,-3.0v7 M-2.5,-0.5L0,-3.0L2.5,-0.5"/>
  </g>
  <g id="resetDef">
    <use xlink:href="#rim2" fill="#404040"><set attributeName="fill" to="#808080" begin="reset.mouseover" end="reset.mouseout"/></use>
  </g>
</defs>
<script type="application/ecmascript">
var viewWidth = 906;
var viewHeight = 393;
var sectionId = 'dynsection-9';
</script>
<script type="application/ecmascript" xlink:href="../../svg.min.js"/>
<svg id="graph" class="graph">
<g id="viewport">
<title>Deluxe.DeluxeBrandCenter.AMM.Infrastructure.Social.SocialNetworkService.Sharing</title>
<!-- Node1 -->
<g id="Node000001" class="node">
<title>Node1</title>
<g id="a_Node000001"><a xlink:title="Does actual posting on given social network.">
<polygon fill="#999999" stroke="#666666" points="160,-168 0,-168 0,-124 160,-124 160,-168"/>
<text text-anchor="start" x="8" y="-154.5" font-family="Helvetica,sans-Serif" font-size="10.00">Deluxe.DeluxeBrandCenter.</text>
<text text-anchor="start" x="8" y="-142.5" font-family="Helvetica,sans-Serif" font-size="10.00">AMM.Infrastructure.Social.Social</text>
<text text-anchor="middle" x="80" y="-130.5" font-family="Helvetica,sans-Serif" font-size="10.00">NetworkService.Sharing</text>
</a>
</g>
</g>
<!-- Node2 -->
<g id="Node000002" class="node">
<title>Node2</title>
<g id="a_Node000002"><a xlink:href="../../d7/d5a/class_deluxe_1_1_deluxe_brand_center_1_1_a_m_m_1_1_infrastructure_1_1_social_1_1_social_network_service.html#a21d19fd55a860c6e36a4ad1ccb2220fa" target="_top" xlink:title=" ">
<polygon fill="white" stroke="#666666" points="418.62,-292 200.88,-292 200.88,-248 418.62,-248 418.62,-292"/>
<text text-anchor="start" x="208.88" y="-278.5" font-family="Helvetica,sans-Serif" font-size="10.00">Deluxe.DeluxeBrandCenter.</text>
<text text-anchor="start" x="208.88" y="-266.5" font-family="Helvetica,sans-Serif" font-size="10.00">AMM.Infrastructure.Social.Social</text>
<text text-anchor="middle" x="309.75" y="-254.5" font-family="Helvetica,sans-Serif" font-size="10.00">NetworkService.CheckAndDownloadMessage</text>
</a>
</g>
</g>
<!-- Node1&#45;&gt;Node2 -->
<g id="edge1_Node000001_Node000002" class="edge">
<title>Node1&#45;&gt;Node2</title>
<g id="a_edge1_Node000001_Node000002"><a xlink:title=" ">
<path fill="none" stroke="#63b8ff" d="M102.79,-168.31C124.56,-189.39 159.91,-220.48 196,-239 198.88,-240.48 201.84,-241.89 204.85,-243.24"/>
<polygon fill="#63b8ff" stroke="#63b8ff" points="203.32,-246.4 213.9,-247.02 206.02,-239.94 203.32,-246.4"/>
</a>
</g>
</g>
<!-- Node3 -->
<g id="Node000003" class="node">
<title>Node3</title>
<g id="a_Node000003"><a xlink:href="../../d7/d5a/class_deluxe_1_1_deluxe_brand_center_1_1_a_m_m_1_1_infrastructure_1_1_social_1_1_social_network_service.html#aa23b4c703793c51a18bc358208abe58c" target="_top" xlink:title=" ">
<polygon fill="white" stroke="#666666" points="423.5,-230 196,-230 196,-186 423.5,-186 423.5,-230"/>
<text text-anchor="start" x="204" y="-216.5" font-family="Helvetica,sans-Serif" font-size="10.00">Deluxe.DeluxeBrandCenter.</text>
<text text-anchor="start" x="204" y="-204.5" font-family="Helvetica,sans-Serif" font-size="10.00">AMM.Infrastructure.Social.Social</text>
<text text-anchor="middle" x="309.75" y="-192.5" font-family="Helvetica,sans-Serif" font-size="10.00">NetworkService.CheckRefreshTokenForWarning</text>
</a>
</g>
</g>
<!-- Node1&#45;&gt;Node3 -->
<g id="edge2_Node000001_Node000003" class="edge">
<title>Node1&#45;&gt;Node3</title>
<g id="a_edge2_Node000001_Node000003"><a xlink:title=" ">
<path fill="none" stroke="#63b8ff" d="M160.34,-167.6C178.07,-172.42 197.03,-177.59 215.27,-182.55"/>
<polygon fill="#63b8ff" stroke="#63b8ff" points="214.19,-185.89 224.76,-185.14 216.03,-179.13 214.19,-185.89"/>
</a>
</g>
</g>
<!-- Node9 -->
<g id="Node000009" class="node">
<title>Node9</title>
<g id="a_Node000009"><a xlink:href="../../dd/d77/interface_deluxe_1_1_deluxe_brand_center_1_1_a_m_m_1_1_infrastructure_1_1_social_1_1_i_twitter_service.html#a836a366cb71765326636b915e82aa33f" target="_top" xlink:title=" ">
<polygon fill="white" stroke="#666666" points="392.38,-168 227.12,-168 227.12,-124 392.38,-124 392.38,-168"/>
<text text-anchor="start" x="235.12" y="-154.5" font-family="Helvetica,sans-Serif" font-size="10.00">Deluxe.DeluxeBrandCenter.</text>
<text text-anchor="start" x="235.12" y="-142.5" font-family="Helvetica,sans-Serif" font-size="10.00">AMM.Infrastructure.Social.ITwitter</text>
<text text-anchor="middle" x="309.75" y="-130.5" font-family="Helvetica,sans-Serif" font-size="10.00">Service.PublishTweet</text>
</a>
</g>
</g>
<!-- Node1&#45;&gt;Node9 -->
<g id="edge8_Node000001_Node000009" class="edge">
<title>Node1&#45;&gt;Node9</title>
<g id="a_edge8_Node000001_Node000009"><a xlink:title=" ">
<path fill="none" stroke="#63b8ff" d="M160.34,-146C178.2,-146 197.31,-146 215.67,-146"/>
<polygon fill="#63b8ff" stroke="#63b8ff" points="215.48,-149.5 225.48,-146 215.48,-142.5 215.48,-149.5"/>
</a>
</g>
</g>
<!-- Node10 -->
<g id="Node000010" class="node">
<title>Node10</title>
<g id="a_Node000010"><a xlink:href="../../d6/db1/class_deluxe_1_1_deluxe_brand_center_1_1_a_m_m_1_1_infrastructure_1_1_databases_1_1_application_db_context.html#a92bd6d01c18ab350b60414ec6991a32d" target="_top" xlink:title=" ">
<polygon fill="white" stroke="#666666" points="410.38,-106 209.12,-106 209.12,-62 410.38,-62 410.38,-106"/>
<text text-anchor="start" x="217.12" y="-92.5" font-family="Helvetica,sans-Serif" font-size="10.00">Deluxe.DeluxeBrandCenter.</text>
<text text-anchor="start" x="217.12" y="-80.5" font-family="Helvetica,sans-Serif" font-size="10.00">AMM.Infrastructure.Databases.Application</text>
<text text-anchor="middle" x="309.75" y="-68.5" font-family="Helvetica,sans-Serif" font-size="10.00">DbContext.SaveChangesAsync</text>
</a>
</g>
</g>
<!-- Node1&#45;&gt;Node10 -->
<g id="edge9_Node000001_Node000010" class="edge">
<title>Node1&#45;&gt;Node10</title>
<g id="a_edge9_Node000001_Node000010"><a xlink:title=" ">
<path fill="none" stroke="#63b8ff" d="M160.34,-124.4C178.07,-119.58 197.03,-114.41 215.27,-109.45"/>
<polygon fill="#63b8ff" stroke="#63b8ff" points="216.03,-112.87 224.76,-106.86 214.19,-106.11 216.03,-112.87"/>
</a>
</g>
</g>
<!-- Node13 -->
<g id="Node000013" class="node">
<title>Node13</title>
<g id="a_Node000013"><a xlink:href="../../d0/db3/interface_deluxe_1_1_deluxe_brand_center_1_1_a_m_m_1_1_infrastructure_1_1_social_1_1_i_linkedin_service.html#a2dbc8bbcb8769107e47523df03299338" target="_top" xlink:title=" ">
<polygon fill="white" stroke="#666666" points="395.75,-44 223.75,-44 223.75,0 395.75,0 395.75,-44"/>
<text text-anchor="start" x="231.75" y="-30.5" font-family="Helvetica,sans-Serif" font-size="10.00">Deluxe.DeluxeBrandCenter.</text>
<text text-anchor="start" x="231.75" y="-18.5" font-family="Helvetica,sans-Serif" font-size="10.00">AMM.Infrastructure.Social.ILinkedin</text>
<text text-anchor="middle" x="309.75" y="-6.5" font-family="Helvetica,sans-Serif" font-size="10.00">Service.SharePost</text>
</a>
</g>
</g>
<!-- Node1&#45;&gt;Node13 -->
<g id="edge12_Node000001_Node000013" class="edge">
<title>Node1&#45;&gt;Node13</title>
<g id="a_edge12_Node000001_Node000013"><a xlink:title=" ">
<path fill="none" stroke="#63b8ff" d="M102.79,-123.69C124.56,-102.61 159.91,-71.52 196,-53 201.36,-50.25 207,-47.72 212.77,-45.39"/>
<polygon fill="#63b8ff" stroke="#63b8ff" points="213.74,-48.77 221.86,-41.97 211.27,-42.22 213.74,-48.77"/>
</a>
</g>
</g>
<!-- Node4 -->
<g id="Node000004" class="node">
<title>Node4</title>
<g id="a_Node000004"><a xlink:href="../../d0/db3/interface_deluxe_1_1_deluxe_brand_center_1_1_a_m_m_1_1_infrastructure_1_1_social_1_1_i_linkedin_service.html#a54b3fd05461ea8a442a2c9f9115dc05c" target="_top" xlink:title=" ">
<polygon fill="white" stroke="#666666" points="655.12,-385 465.12,-385 465.12,-341 655.12,-341 655.12,-385"/>
<text text-anchor="start" x="473.12" y="-371.5" font-family="Helvetica,sans-Serif" font-size="10.00">Deluxe.DeluxeBrandCenter.</text>
<text text-anchor="start" x="473.12" y="-359.5" font-family="Helvetica,sans-Serif" font-size="10.00">AMM.Infrastructure.Social.ILinkedin</text>
<text text-anchor="middle" x="560.12" y="-347.5" font-family="Helvetica,sans-Serif" font-size="10.00">Service.CheckTokensStatusForWarning</text>
</a>
</g>
</g>
<!-- Node3&#45;&gt;Node4 -->
<g id="edge3_Node000003_Node000004" class="edge">
<title>Node3&#45;&gt;Node4</title>
<g id="a_edge3_Node000003_Node000004"><a xlink:title=" ">
<path fill="none" stroke="#63b8ff" d="M412.07,-230.35C416.12,-232.93 419.96,-235.8 423.5,-239 456.38,-268.72 427.12,-301.74 459.5,-332 460.25,-332.7 461.02,-333.39 461.8,-334.06"/>
<polygon fill="#63b8ff" stroke="#63b8ff" points="459.38,-336.62 469.49,-339.78 463.56,-331 459.38,-336.62"/>
</a>
</g>
</g>
<!-- Node5 -->
<g id="Node000005" class="node">
<title>Node5</title>
<g id="a_Node000005"><a xlink:href="../../d3/d78/interface_deluxe_1_1_deluxe_brand_center_1_1_a_m_m_1_1_infrastructure_1_1_p_m_s_1_1_i_persona_microservice.html#aaac0d5c632bb08eec28d1a628d6ea5e2" target="_top" xlink:title=" ">
<polygon fill="white" stroke="#666666" points="643.5,-323 476.75,-323 476.75,-279 643.5,-279 643.5,-323"/>
<text text-anchor="start" x="484.75" y="-309.5" font-family="Helvetica,sans-Serif" font-size="10.00">Deluxe.DeluxeBrandCenter.</text>
<text text-anchor="start" x="484.75" y="-297.5" font-family="Helvetica,sans-Serif" font-size="10.00">AMM.Infrastructure.PMS.IPersona</text>
<text text-anchor="middle" x="560.12" y="-285.5" font-family="Helvetica,sans-Serif" font-size="10.00">Microservice.GetFilteredPersonas</text>
</a>
</g>
</g>
<!-- Node3&#45;&gt;Node5 -->
<g id="edge4_Node000003_Node000005" class="edge">
<title>Node3&#45;&gt;Node5</title>
<g id="a_edge4_Node000003_Node000005"><a xlink:title=" ">
<path fill="none" stroke="#63b8ff" d="M404.9,-230.42C411.33,-233 417.59,-235.85 423.5,-239 442.13,-248.93 441.03,-259.76 459.5,-270 461.87,-271.32 464.31,-272.58 466.79,-273.8"/>
<polygon fill="#63b8ff" stroke="#63b8ff" points="465.3,-276.97 475.86,-277.94 468.21,-270.6 465.3,-276.97"/>
</a>
</g>
</g>
<!-- Node6 -->
<g id="Node000006" class="node">
<title>Node6</title>
<g id="a_Node000006"><a xlink:href="../../d7/d5a/class_deluxe_1_1_deluxe_brand_center_1_1_a_m_m_1_1_infrastructure_1_1_social_1_1_social_network_service.html#a3f70abef72d83fe91c7ca28ef5f547c7" target="_top" xlink:title=" ">
<polygon fill="white" stroke="#666666" points="640.12,-261 480.12,-261 480.12,-217 640.12,-217 640.12,-261"/>
<text text-anchor="start" x="488.12" y="-247.5" font-family="Helvetica,sans-Serif" font-size="10.00">Deluxe.DeluxeBrandCenter.</text>
<text text-anchor="start" x="488.12" y="-235.5" font-family="Helvetica,sans-Serif" font-size="10.00">AMM.Infrastructure.Social.Social</text>
<text text-anchor="middle" x="560.12" y="-223.5" font-family="Helvetica,sans-Serif" font-size="10.00">NetworkService.GetSettings</text>
</a>
</g>
</g>
<!-- Node3&#45;&gt;Node6 -->
<g id="edge5_Node000003_Node000006" class="edge">
<title>Node3&#45;&gt;Node6</title>
<g id="a_edge5_Node000003_Node000006"><a xlink:title=" ">
<path fill="none" stroke="#63b8ff" d="M423.67,-222.09C438.79,-223.98 454.12,-225.89 468.78,-227.72"/>
<polygon fill="#63b8ff" stroke="#63b8ff" points="467.98,-231.15 478.34,-228.92 468.85,-224.21 467.98,-231.15"/>
</a>
</g>
</g>
<!-- Node7 -->
<g id="Node000007" class="node">
<title>Node7</title>
<g id="a_Node000007"><a xlink:href="../../d7/d5a/class_deluxe_1_1_deluxe_brand_center_1_1_a_m_m_1_1_infrastructure_1_1_social_1_1_social_network_service.html#a7dc642e27e2b56d23c95c6b9785d2f92" target="_top" xlink:title=" ">
<polygon fill="white" stroke="#666666" points="640.12,-199 480.12,-199 480.12,-155 640.12,-155 640.12,-199"/>
<text text-anchor="start" x="488.12" y="-185.5" font-family="Helvetica,sans-Serif" font-size="10.00">Deluxe.DeluxeBrandCenter.</text>
<text text-anchor="start" x="488.12" y="-173.5" font-family="Helvetica,sans-Serif" font-size="10.00">AMM.Infrastructure.Social.Social</text>
<text text-anchor="middle" x="560.12" y="-161.5" font-family="Helvetica,sans-Serif" font-size="10.00">NetworkService.PreparingEmail</text>
</a>
</g>
</g>
<!-- Node3&#45;&gt;Node7 -->
<g id="edge6_Node000003_Node000007" class="edge">
<title>Node3&#45;&gt;Node7</title>
<g id="a_edge6_Node000003_Node000007"><a xlink:title=" ">
<path fill="none" stroke="#63b8ff" d="M423.67,-193.91C438.79,-192.02 454.12,-190.11 468.78,-188.28"/>
<polygon fill="#63b8ff" stroke="#63b8ff" points="468.85,-191.79 478.34,-187.08 467.98,-184.85 468.85,-191.79"/>
</a>
</g>
</g>
<!-- Node8 -->
<g id="Node000008" class="node">
<title>Node8</title>
<g id="a_Node000008"><a xlink:href="../../da/dd6/interface_deluxe_1_1_deluxe_brand_center_1_1_a_m_m_1_1_domain_1_1_ext_service_model_1_1_i_send_email_service.html#aab8d80dedde4887e035ba39f80308806" target="_top" xlink:title=" ">
<polygon fill="white" stroke="#666666" points="651,-137 469.25,-137 469.25,-93 651,-93 651,-137"/>
<text text-anchor="start" x="477.25" y="-123.5" font-family="Helvetica,sans-Serif" font-size="10.00">Deluxe.DeluxeBrandCenter.</text>
<text text-anchor="start" x="477.25" y="-111.5" font-family="Helvetica,sans-Serif" font-size="10.00">AMM.Domain.ExtServiceModel.ISend</text>
<text text-anchor="middle" x="560.12" y="-99.5" font-family="Helvetica,sans-Serif" font-size="10.00">EmailService.SendEmail</text>
</a>
</g>
</g>
<!-- Node3&#45;&gt;Node8 -->
<g id="edge7_Node000003_Node000008" class="edge">
<title>Node3&#45;&gt;Node8</title>
<g id="a_edge7_Node000003_Node000008"><a xlink:title=" ">
<path fill="none" stroke="#63b8ff" d="M404.9,-185.58C411.33,-183 417.59,-180.15 423.5,-177 442.13,-167.07 441.03,-156.24 459.5,-146 461.87,-144.68 464.31,-143.42 466.79,-142.2"/>
<polygon fill="#63b8ff" stroke="#63b8ff" points="468.21,-145.4 475.86,-138.06 465.3,-139.03 468.21,-145.4"/>
</a>
</g>
</g>
<!-- Node11 -->
<g id="Node000011" class="node">
<title>Node11</title>
<g id="a_Node000011"><a xlink:href="../../d6/db1/class_deluxe_1_1_deluxe_brand_center_1_1_a_m_m_1_1_infrastructure_1_1_databases_1_1_application_db_context.html#aea43a5ab4bb779ccf8678ef7aac5be0c" target="_top" xlink:title=" ">
<polygon fill="white" stroke="#666666" points="660.75,-75 459.5,-75 459.5,-31 660.75,-31 660.75,-75"/>
<text text-anchor="start" x="467.5" y="-61.5" font-family="Helvetica,sans-Serif" font-size="10.00">Deluxe.DeluxeBrandCenter.</text>
<text text-anchor="start" x="467.5" y="-49.5" font-family="Helvetica,sans-Serif" font-size="10.00">AMM.Infrastructure.Databases.Application</text>
<text text-anchor="middle" x="560.12" y="-37.5" font-family="Helvetica,sans-Serif" font-size="10.00">DbContext.OnBeforeSaveChanges</text>
</a>
</g>
</g>
<!-- Node10&#45;&gt;Node11 -->
<g id="edge10_Node000010_Node000011" class="edge">
<title>Node10&#45;&gt;Node11</title>
<g id="a_edge10_Node000010_Node000011"><a xlink:title=" ">
<path fill="none" stroke="#63b8ff" d="M410.7,-71.53C422.98,-69.99 435.59,-68.42 448.03,-66.87"/>
<polygon fill="#63b8ff" stroke="#63b8ff" points="448.39,-70.35 457.88,-65.64 447.52,-63.4 448.39,-70.35"/>
</a>
</g>
</g>
<!-- Node12 -->
<g id="Node000012" class="node">
<title>Node12</title>
<g id="a_Node000012"><a xlink:href="../../d6/db1/class_deluxe_1_1_deluxe_brand_center_1_1_a_m_m_1_1_infrastructure_1_1_databases_1_1_application_db_context.html#a5a50b059decefb01e96a92bc29bcd3e6" target="_top" xlink:title=" ">
<polygon fill="white" stroke="#666666" points="898,-75 696.75,-75 696.75,-31 898,-31 898,-75"/>
<text text-anchor="start" x="704.75" y="-61.5" font-family="Helvetica,sans-Serif" font-size="10.00">Deluxe.DeluxeBrandCenter.</text>
<text text-anchor="start" x="704.75" y="-49.5" font-family="Helvetica,sans-Serif" font-size="10.00">AMM.Infrastructure.Databases.Application</text>
<text text-anchor="middle" x="797.38" y="-37.5" font-family="Helvetica,sans-Serif" font-size="10.00">DbContext.AddTimestampsToEntities</text>
</a>
</g>
</g>
<!-- Node11&#45;&gt;Node12 -->
<g id="edge11_Node000011_Node000012" class="edge">
<title>Node11&#45;&gt;Node12</title>
<g id="a_edge11_Node000011_Node000012"><a xlink:title=" ">
<path fill="none" stroke="#63b8ff" d="M661.23,-53C669.05,-53 676.97,-53 684.85,-53"/>
<polygon fill="#63b8ff" stroke="#63b8ff" points="684.84,-56.5 694.84,-53 684.84,-49.5 684.84,-56.5"/>
</a>
</g>
</g>
</g>
</svg>

<g id="navigator" transform="translate(0 0)" fill="#404254">
  <rect fill="#f2f5e9" fill-opacity="0.5" stroke="#606060" stroke-width=".5" x="0" y="0" width="60" height="60"/>
  <use id="zoomplus" xlink:href="#zoomPlus" x="17" y="9" onmousedown="handleZoom(evt,'in')"/>
  <use id="zoomminus" xlink:href="#zoomMin" x="42" y="9" onmousedown="handleZoom(evt,'out')"/>
  <use id="reset" xlink:href="#resetDef" x="30" y="36" onmousedown="handleReset()"/>
   <use id="arrowup" xlink:href="#arrowUp" x="0" y="0" onmousedown="handlePan(0,-1)"/>
  <use id="arrowright" xlink:href="#arrowRight" x="0" y="0" onmousedown="handlePan(1,0)"/>
  <use id="arrowdown" xlink:href="#arrowDown" x="0" y="0" onmousedown="handlePan(0,1)"/>
  <use id="arrowleft" xlink:href="#arrowLeft" x="0" y="0" onmousedown="handlePan(-1,0)"/>
</g>
<svg viewBox="0 0 15 15" width="100%" height="30px" preserveAspectRatio="xMaxYMin meet">
 <g id="arrow_out" transform="scale(0.3 0.3)">
  <a xlink:href="class_deluxe_1_1_deluxe_brand_center_1_1_a_m_m_1_1_infrastructure_1_1_social_1_1_social_network_service_a7d33f1a39aa5117dcaa3ad9cfe38cc0b_cgraph_org.svg" target="_base">
   <rect id="button" ry="5" rx="5" y="6" x="6" height="38" width="38"
        fill="#f2f5e9" fill-opacity="0.5" stroke="#606060" stroke-width="1.0"/>
   <path id="arrow"
     d="M 11.500037,31.436501 C 11.940474,20.09759 22.043105,11.32322 32.158766,21.979434 L 37.068811,17.246167 C 37.068811,17.246167 37.088388,32 37.088388,32 L 22.160133,31.978069 C 22.160133,31.978069 26.997745,27.140456 26.997745,27.140456 C 18.528582,18.264221 13.291696,25.230495 11.500037,31.436501 z"
     style="fill:#404040;"/>
  </a>
 </g>
</svg>

<style type='text/css'>
<![CDATA[
[data-mouse-over-selected='false'] { opacity: 0.7; }
[data-mouse-over-selected='true']  { opacity: 1.0; }
]]>
</style>
<script type="application/ecmascript"><![CDATA[
document.addEventListener('DOMContentLoaded', (event) => {
  highlightEdges();
  highlightAdjacentNodes();
});
]]></script>
</svg>
