<?xml version="1.0" encoding="UTF-8" standalone="no"?>
<!DOCTYPE svg PUBLIC "-//W3C//DTD SVG 1.1//EN"
 "http://www.w3.org/Graphics/SVG/1.1/DTD/svg11.dtd">
<!-- Generated by graphviz version 12.1.1 (20240910.0053)
 -->
<!-- Title: Deluxe.DeluxeBrandCenter.AMM.Infrastructure.Social.SocialNetworkService.UnlinkFromSocial Pages: 1 -->
<svg width="382pt" height="238pt"
 viewBox="0.00 0.00 382.00 238.00" xmlns="http://www.w3.org/2000/svg" xmlns:xlink="http://www.w3.org/1999/xlink">
<g id="graph0" class="graph" transform="scale(1 1) rotate(0) translate(4 234)">
<title>Deluxe.DeluxeBrandCenter.AMM.Infrastructure.Social.SocialNetworkService.UnlinkFromSocial</title>
<!-- Node1 -->
<g id="Node000001" class="node">
<title>Node1</title>
<g id="a_Node000001"><a xlink:title=" ">
<polygon fill="#999999" stroke="#666666" points="166,-137 0,-137 0,-93 166,-93 166,-137"/>
<text text-anchor="start" x="8" y="-123.5" font-family="Helvetica,sans-Serif" font-size="10.00">Deluxe.DeluxeBrandCenter.</text>
<text text-anchor="start" x="8" y="-111.5" font-family="Helvetica,sans-Serif" font-size="10.00">AMM.Infrastructure.Social.Social</text>
<text text-anchor="middle" x="83" y="-99.5" font-family="Helvetica,sans-Serif" font-size="10.00">NetworkService.UnlinkFromSocial</text>
</a>
</g>
</g>
<!-- Node2 -->
<g id="Node000002" class="node">
<title>Node2</title>
<g id="a_Node000002"><a xlink:href="../../d0/db3/interface_deluxe_1_1_deluxe_brand_center_1_1_a_m_m_1_1_infrastructure_1_1_social_1_1_i_linkedin_service.html#a7caec81cecbf500e1068151cdaa9691e" target="_top" xlink:title=" ">
<polygon fill="white" stroke="#666666" points="374,-230 202,-230 202,-186 374,-186 374,-230"/>
<text text-anchor="start" x="210" y="-216.5" font-family="Helvetica,sans-Serif" font-size="10.00">Deluxe.DeluxeBrandCenter.</text>
<text text-anchor="start" x="210" y="-204.5" font-family="Helvetica,sans-Serif" font-size="10.00">AMM.Infrastructure.Social.ILinkedin</text>
<text text-anchor="middle" x="288" y="-192.5" font-family="Helvetica,sans-Serif" font-size="10.00">Service.DoesExist</text>
</a>
</g>
</g>
<!-- Node1&#45;&gt;Node2 -->
<g id="edge1_Node000001_Node000002" class="edge">
<title>Node1&#45;&gt;Node2</title>
<g id="a_edge1_Node000001_Node000002"><a xlink:title=" ">
<path fill="none" stroke="#63b8ff" d="M123.49,-137.45C146.1,-149.87 175.23,-165.15 202,-177 205.3,-178.46 208.7,-179.91 212.14,-181.34"/>
<polygon fill="#63b8ff" stroke="#63b8ff" points="210.6,-184.49 221.18,-184.98 213.21,-178 210.6,-184.49"/>
</a>
</g>
</g>
<!-- Node3 -->
<g id="Node000003" class="node">
<title>Node3</title>
<g id="a_Node000003"><a xlink:href="../../dd/d77/interface_deluxe_1_1_deluxe_brand_center_1_1_a_m_m_1_1_infrastructure_1_1_social_1_1_i_twitter_service.html#ad6ca3cd8d734063756c0944804040d6e" target="_top" xlink:title=" ">
<polygon fill="white" stroke="#666666" points="370.62,-168 205.38,-168 205.38,-124 370.62,-124 370.62,-168"/>
<text text-anchor="start" x="213.38" y="-154.5" font-family="Helvetica,sans-Serif" font-size="10.00">Deluxe.DeluxeBrandCenter.</text>
<text text-anchor="start" x="213.38" y="-142.5" font-family="Helvetica,sans-Serif" font-size="10.00">AMM.Infrastructure.Social.ITwitter</text>
<text text-anchor="middle" x="288" y="-130.5" font-family="Helvetica,sans-Serif" font-size="10.00">Service.DoesExist</text>
</a>
</g>
</g>
<!-- Node1&#45;&gt;Node3 -->
<g id="edge2_Node000001_Node000003" class="edge">
<title>Node1&#45;&gt;Node3</title>
<g id="a_edge2_Node000001_Node000003"><a xlink:title=" ">
<path fill="none" stroke="#63b8ff" d="M166.28,-127.56C175.34,-128.95 184.61,-130.36 193.8,-131.77"/>
<polygon fill="#63b8ff" stroke="#63b8ff" points="193.03,-135.19 203.44,-133.24 194.08,-128.27 193.03,-135.19"/>
</a>
</g>
</g>
<!-- Node4 -->
<g id="Node000004" class="node">
<title>Node4</title>
<g id="a_Node000004"><a xlink:href="../../d0/db3/interface_deluxe_1_1_deluxe_brand_center_1_1_a_m_m_1_1_infrastructure_1_1_social_1_1_i_linkedin_service.html#ae4af9538559dc88324ca7cf71aab7fba" target="_top" xlink:title=" ">
<polygon fill="white" stroke="#666666" points="374,-106 202,-106 202,-62 374,-62 374,-106"/>
<text text-anchor="start" x="210" y="-92.5" font-family="Helvetica,sans-Serif" font-size="10.00">Deluxe.DeluxeBrandCenter.</text>
<text text-anchor="start" x="210" y="-80.5" font-family="Helvetica,sans-Serif" font-size="10.00">AMM.Infrastructure.Social.ILinkedin</text>
<text text-anchor="middle" x="288" y="-68.5" font-family="Helvetica,sans-Serif" font-size="10.00">Service.Remove</text>
</a>
</g>
</g>
<!-- Node1&#45;&gt;Node4 -->
<g id="edge3_Node000001_Node000004" class="edge">
<title>Node1&#45;&gt;Node4</title>
<g id="a_edge3_Node000001_Node000004"><a xlink:title=" ">
<path fill="none" stroke="#63b8ff" d="M166.28,-102.44C174.19,-101.23 182.27,-99.99 190.31,-98.76"/>
<polygon fill="#63b8ff" stroke="#63b8ff" points="190.78,-102.23 200.14,-97.26 189.72,-95.31 190.78,-102.23"/>
</a>
</g>
</g>
<!-- Node5 -->
<g id="Node000005" class="node">
<title>Node5</title>
<g id="a_Node000005"><a xlink:href="../../dd/d77/interface_deluxe_1_1_deluxe_brand_center_1_1_a_m_m_1_1_infrastructure_1_1_social_1_1_i_twitter_service.html#ab9abd9e79cf79feee9d1a3b140e5efff" target="_top" xlink:title=" ">
<polygon fill="white" stroke="#666666" points="370.62,-44 205.38,-44 205.38,0 370.62,0 370.62,-44"/>
<text text-anchor="start" x="213.38" y="-30.5" font-family="Helvetica,sans-Serif" font-size="10.00">Deluxe.DeluxeBrandCenter.</text>
<text text-anchor="start" x="213.38" y="-18.5" font-family="Helvetica,sans-Serif" font-size="10.00">AMM.Infrastructure.Social.ITwitter</text>
<text text-anchor="middle" x="288" y="-6.5" font-family="Helvetica,sans-Serif" font-size="10.00">Service.Remove</text>
</a>
</g>
</g>
<!-- Node1&#45;&gt;Node5 -->
<g id="edge4_Node000001_Node000005" class="edge">
<title>Node1&#45;&gt;Node5</title>
<g id="a_edge4_Node000001_Node000005"><a xlink:title=" ">
<path fill="none" stroke="#63b8ff" d="M123.49,-92.55C146.1,-80.13 175.23,-64.85 202,-53 205.3,-51.54 208.7,-50.09 212.14,-48.66"/>
<polygon fill="#63b8ff" stroke="#63b8ff" points="213.21,-52 221.18,-45.02 210.6,-45.51 213.21,-52"/>
</a>
</g>
</g>
</g>
</svg>
