<?xml version="1.0" encoding="UTF-8" standalone="no"?>
<!DOCTYPE svg PUBLIC "-//W3C//DTD SVG 1.1//EN"
 "http://www.w3.org/Graphics/SVG/1.1/DTD/svg11.dtd">
<!-- Generated by graphviz version 12.1.1 (20240910.0053)
 -->
<!-- Title: Deluxe.DeluxeBrandCenter.AMM.Infrastructure.Social.SocialNetworkService.CheckSocialForUser Pages: 1 -->
<!--zoomable 610 -->

<svg id="main" version="1.1" xmlns="http://www.w3.org/2000/svg" xmlns:xlink="http://www.w3.org/1999/xlink" xml:space="preserve" onload="init(evt)">

<style type="text/css"><![CDATA[
.node, .edge {opacity: 0.7;}
.node.selected, .edge.selected {opacity: 1;}
.edge:hover path { stroke: red; }
.edge:hover polygon { stroke: red; fill: red; }
]]></style>

<defs>
  <circle id="rim" cx="0" cy="0" r="7"/>
  <circle id="rim2" cx="0" cy="0" r="3.5"/>
  <g id="zoomPlus">
    <use xlink:href="#rim" fill="#404040"><set attributeName="fill" to="#808080" begin="zoomplus.mouseover" end="zoomplus.mouseout"/></use>
    <path d="M-4,0h8M0,-4v8" fill="none" stroke="white" stroke-width="1.5" pointer-events="none"/>
  </g>
  <g id="zoomMin">
    <use xlink:href="#rim" fill="#404040"><set attributeName="fill" to="#808080" begin="zoomminus.mouseover" end="zoomminus.mouseout"/></use>
    <path d="M-4,0h8" fill="none" stroke="white" stroke-width="1.5" pointer-events="none"/>
  </g>
  <g id="arrowUp" transform="translate(30 24)">
    <use xlink:href="#rim"/>
    <path pointer-events="none" fill="none" stroke="white" stroke-width="1.5" d="M0,-3.0v7 M-2.5,-0.5L0,-3.0L2.5,-0.5"/>
  </g>
  <g id="arrowRight" transform="rotate(90) translate(36 -43)">
    <use xlink:href="#rim"/>
    <path pointer-events="none" fill="none" stroke="white" stroke-width="1.5" d="M0,-3.0v7 M-2.5,-0.5L0,-3.0L2.5,-0.5"/>
  </g>
  <g id="arrowDown" transform="rotate(180) translate(-30 -48)">
    <use xlink:href="#rim"/>
    <path pointer-events="none" fill="none" stroke="white" stroke-width="1.5" d="M0,-3.0v7 M-2.5,-0.5L0,-3.0L2.5,-0.5"/>
  </g>
  <g id="arrowLeft" transform="rotate(270) translate(-36 17)">
    <use xlink:href="#rim"/>
    <path pointer-events="none" fill="none" stroke="white" stroke-width="1.5" d="M0,-3.0v7 M-2.5,-0.5L0,-3.0L2.5,-0.5"/>
  </g>
  <g id="resetDef">
    <use xlink:href="#rim2" fill="#404040"><set attributeName="fill" to="#808080" begin="reset.mouseover" end="reset.mouseout"/></use>
  </g>
</defs>
<script type="application/ecmascript">
var viewWidth = 414;
var viewHeight = 610;
var sectionId = 'dynsection-5';
</script>
<script type="application/ecmascript" xlink:href="../../svg.min.js"/>
<svg id="graph" class="graph">
<g id="viewport">
<title>Deluxe.DeluxeBrandCenter.AMM.Infrastructure.Social.SocialNetworkService.CheckSocialForUser</title>
<!-- Node1 -->
<g id="Node000001" class="node">
<title>Node1</title>
<g id="a_Node000001"><a xlink:title=" ">
<polygon fill="#999999" stroke="#666666" points="179.5,-323 0,-323 0,-279 179.5,-279 179.5,-323"/>
<text text-anchor="start" x="8" y="-309.5" font-family="Helvetica,sans-Serif" font-size="10.00">Deluxe.DeluxeBrandCenter.</text>
<text text-anchor="start" x="8" y="-297.5" font-family="Helvetica,sans-Serif" font-size="10.00">AMM.Infrastructure.Social.Social</text>
<text text-anchor="middle" x="89.75" y="-285.5" font-family="Helvetica,sans-Serif" font-size="10.00">NetworkService.CheckSocialForUser</text>
</a>
</g>
</g>
<!-- Node2 -->
<g id="Node000002" class="node">
<title>Node2</title>
<g id="a_Node000002"><a xlink:href="../../d0/db3/interface_deluxe_1_1_deluxe_brand_center_1_1_a_m_m_1_1_infrastructure_1_1_social_1_1_i_linkedin_service.html#a54b3fd05461ea8a442a2c9f9115dc05c" target="_top" xlink:title=" ">
<polygon fill="white" stroke="#666666" points="405.5,-602 215.5,-602 215.5,-558 405.5,-558 405.5,-602"/>
<text text-anchor="start" x="223.5" y="-588.5" font-family="Helvetica,sans-Serif" font-size="10.00">Deluxe.DeluxeBrandCenter.</text>
<text text-anchor="start" x="223.5" y="-576.5" font-family="Helvetica,sans-Serif" font-size="10.00">AMM.Infrastructure.Social.ILinkedin</text>
<text text-anchor="middle" x="310.5" y="-564.5" font-family="Helvetica,sans-Serif" font-size="10.00">Service.CheckTokensStatusForWarning</text>
</a>
</g>
</g>
<!-- Node1&#45;&gt;Node2 -->
<g id="edge1_Node000001_Node000002" class="edge">
<title>Node1&#45;&gt;Node2</title>
<g id="a_edge1_Node000001_Node000002"><a xlink:title=" ">
<path fill="none" stroke="#63b8ff" d="M95.84,-323.46C107.95,-371.83 143.05,-486.52 215.5,-549 216.3,-549.69 217.11,-550.36 217.94,-551.02"/>
<polygon fill="#63b8ff" stroke="#63b8ff" points="215.84,-553.82 226.05,-556.65 219.83,-548.07 215.84,-553.82"/>
</a>
</g>
</g>
<!-- Node3 -->
<g id="Node000003" class="node">
<title>Node3</title>
<g id="a_Node000003"><a xlink:href="../../d0/db3/interface_deluxe_1_1_deluxe_brand_center_1_1_a_m_m_1_1_infrastructure_1_1_social_1_1_i_linkedin_service.html#a7caec81cecbf500e1068151cdaa9691e" target="_top" xlink:title=" ">
<polygon fill="white" stroke="#666666" points="396.5,-540 224.5,-540 224.5,-496 396.5,-496 396.5,-540"/>
<text text-anchor="start" x="232.5" y="-526.5" font-family="Helvetica,sans-Serif" font-size="10.00">Deluxe.DeluxeBrandCenter.</text>
<text text-anchor="start" x="232.5" y="-514.5" font-family="Helvetica,sans-Serif" font-size="10.00">AMM.Infrastructure.Social.ILinkedin</text>
<text text-anchor="middle" x="310.5" y="-502.5" font-family="Helvetica,sans-Serif" font-size="10.00">Service.DoesExist</text>
</a>
</g>
</g>
<!-- Node1&#45;&gt;Node3 -->
<g id="edge2_Node000001_Node000003" class="edge">
<title>Node1&#45;&gt;Node3</title>
<g id="a_edge2_Node000001_Node000003"><a xlink:title=" ">
<path fill="none" stroke="#63b8ff" d="M99.88,-323.42C116.87,-362.36 156.97,-442.57 215.5,-487 216.83,-488.01 218.19,-488.98 219.58,-489.93"/>
<polygon fill="#63b8ff" stroke="#63b8ff" points="217.47,-492.74 227.84,-494.93 221.1,-486.76 217.47,-492.74"/>
</a>
</g>
</g>
<!-- Node4 -->
<g id="Node000004" class="node">
<title>Node4</title>
<g id="a_Node000004"><a xlink:href="../../dd/d77/interface_deluxe_1_1_deluxe_brand_center_1_1_a_m_m_1_1_infrastructure_1_1_social_1_1_i_twitter_service.html#ad6ca3cd8d734063756c0944804040d6e" target="_top" xlink:title=" ">
<polygon fill="white" stroke="#666666" points="393.12,-478 227.88,-478 227.88,-434 393.12,-434 393.12,-478"/>
<text text-anchor="start" x="235.88" y="-464.5" font-family="Helvetica,sans-Serif" font-size="10.00">Deluxe.DeluxeBrandCenter.</text>
<text text-anchor="start" x="235.88" y="-452.5" font-family="Helvetica,sans-Serif" font-size="10.00">AMM.Infrastructure.Social.ITwitter</text>
<text text-anchor="middle" x="310.5" y="-440.5" font-family="Helvetica,sans-Serif" font-size="10.00">Service.DoesExist</text>
</a>
</g>
</g>
<!-- Node1&#45;&gt;Node4 -->
<g id="edge3_Node000001_Node000004" class="edge">
<title>Node1&#45;&gt;Node4</title>
<g id="a_edge3_Node000001_Node000004"><a xlink:title=" ">
<path fill="none" stroke="#63b8ff" d="M107.77,-323.42C129.81,-350.99 170.74,-397.53 215.5,-425 217.5,-426.23 219.56,-427.42 221.66,-428.56"/>
<polygon fill="#63b8ff" stroke="#63b8ff" points="219.89,-431.59 230.4,-432.94 223.02,-425.33 219.89,-431.59"/>
</a>
</g>
</g>
<!-- Node5 -->
<g id="Node000005" class="node">
<title>Node5</title>
<g id="a_Node000005"><a xlink:href="../../d0/db3/interface_deluxe_1_1_deluxe_brand_center_1_1_a_m_m_1_1_infrastructure_1_1_social_1_1_i_linkedin_service.html#a2f8c3bb06a16635c7d7c3f891d0075c5" target="_top" xlink:title=" ">
<polygon fill="white" stroke="#666666" points="396.5,-416 224.5,-416 224.5,-372 396.5,-372 396.5,-416"/>
<text text-anchor="start" x="232.5" y="-402.5" font-family="Helvetica,sans-Serif" font-size="10.00">Deluxe.DeluxeBrandCenter.</text>
<text text-anchor="start" x="232.5" y="-390.5" font-family="Helvetica,sans-Serif" font-size="10.00">AMM.Infrastructure.Social.ILinkedin</text>
<text text-anchor="middle" x="310.5" y="-378.5" font-family="Helvetica,sans-Serif" font-size="10.00">Service.GetBySocialToken</text>
</a>
</g>
</g>
<!-- Node1&#45;&gt;Node5 -->
<g id="edge4_Node000001_Node000005" class="edge">
<title>Node1&#45;&gt;Node5</title>
<g id="a_edge4_Node000001_Node000005"><a xlink:title=" ">
<path fill="none" stroke="#63b8ff" d="M132.21,-323.47C156.17,-335.98 187.09,-351.33 215.5,-363 219.3,-364.56 223.21,-366.1 227.18,-367.61"/>
<polygon fill="#63b8ff" stroke="#63b8ff" points="225.76,-370.82 236.35,-371 228.18,-364.25 225.76,-370.82"/>
</a>
</g>
</g>
<!-- Node6 -->
<g id="Node000006" class="node">
<title>Node6</title>
<g id="a_Node000006"><a xlink:href="../../dd/d77/interface_deluxe_1_1_deluxe_brand_center_1_1_a_m_m_1_1_infrastructure_1_1_social_1_1_i_twitter_service.html#a8df126d8c96d57af060e7b0f7dec959f" target="_top" xlink:title=" ">
<polygon fill="white" stroke="#666666" points="393.12,-354 227.88,-354 227.88,-310 393.12,-310 393.12,-354"/>
<text text-anchor="start" x="235.88" y="-340.5" font-family="Helvetica,sans-Serif" font-size="10.00">Deluxe.DeluxeBrandCenter.</text>
<text text-anchor="start" x="235.88" y="-328.5" font-family="Helvetica,sans-Serif" font-size="10.00">AMM.Infrastructure.Social.ITwitter</text>
<text text-anchor="middle" x="310.5" y="-316.5" font-family="Helvetica,sans-Serif" font-size="10.00">Service.GetBySocialToken</text>
</a>
</g>
</g>
<!-- Node1&#45;&gt;Node6 -->
<g id="edge5_Node000001_Node000006" class="edge">
<title>Node1&#45;&gt;Node6</title>
<g id="a_edge5_Node000001_Node000006"><a xlink:title=" ">
<path fill="none" stroke="#63b8ff" d="M179.72,-313.61C191.86,-315.33 204.34,-317.1 216.55,-318.83"/>
<polygon fill="#63b8ff" stroke="#63b8ff" points="215.77,-322.25 226.16,-320.19 216.75,-315.32 215.77,-322.25"/>
</a>
</g>
</g>
<!-- Node7 -->
<g id="Node000007" class="node">
<title>Node7</title>
<g id="a_Node000007"><a xlink:href="../../d0/db3/interface_deluxe_1_1_deluxe_brand_center_1_1_a_m_m_1_1_infrastructure_1_1_social_1_1_i_linkedin_service.html#a8310820b57232a27868e5fa2ddbac568" target="_top" xlink:title=" ">
<polygon fill="white" stroke="#666666" points="396.5,-292 224.5,-292 224.5,-248 396.5,-248 396.5,-292"/>
<text text-anchor="start" x="232.5" y="-278.5" font-family="Helvetica,sans-Serif" font-size="10.00">Deluxe.DeluxeBrandCenter.</text>
<text text-anchor="start" x="232.5" y="-266.5" font-family="Helvetica,sans-Serif" font-size="10.00">AMM.Infrastructure.Social.ILinkedin</text>
<text text-anchor="middle" x="310.5" y="-254.5" font-family="Helvetica,sans-Serif" font-size="10.00">Service.GetProfile</text>
</a>
</g>
</g>
<!-- Node1&#45;&gt;Node7 -->
<g id="edge6_Node000001_Node000007" class="edge">
<title>Node1&#45;&gt;Node7</title>
<g id="a_edge6_Node000001_Node000007"><a xlink:title=" ">
<path fill="none" stroke="#63b8ff" d="M179.72,-288.39C190.61,-286.85 201.78,-285.27 212.77,-283.71"/>
<polygon fill="#63b8ff" stroke="#63b8ff" points="213.23,-287.18 222.64,-282.31 212.25,-280.25 213.23,-287.18"/>
</a>
</g>
</g>
<!-- Node8 -->
<g id="Node000008" class="node">
<title>Node8</title>
<g id="a_Node000008"><a xlink:href="../../dd/d77/interface_deluxe_1_1_deluxe_brand_center_1_1_a_m_m_1_1_infrastructure_1_1_social_1_1_i_twitter_service.html#aafaf933036ee447f0f3100c6d05678c3" target="_top" xlink:title=" ">
<polygon fill="white" stroke="#666666" points="393.12,-230 227.88,-230 227.88,-186 393.12,-186 393.12,-230"/>
<text text-anchor="start" x="235.88" y="-216.5" font-family="Helvetica,sans-Serif" font-size="10.00">Deluxe.DeluxeBrandCenter.</text>
<text text-anchor="start" x="235.88" y="-204.5" font-family="Helvetica,sans-Serif" font-size="10.00">AMM.Infrastructure.Social.ITwitter</text>
<text text-anchor="middle" x="310.5" y="-192.5" font-family="Helvetica,sans-Serif" font-size="10.00">Service.GetProfile</text>
</a>
</g>
</g>
<!-- Node1&#45;&gt;Node8 -->
<g id="edge7_Node000001_Node000008" class="edge">
<title>Node1&#45;&gt;Node8</title>
<g id="a_edge7_Node000001_Node000008"><a xlink:title=" ">
<path fill="none" stroke="#63b8ff" d="M132.21,-278.53C156.17,-266.02 187.09,-250.67 215.5,-239 219.3,-237.44 223.21,-235.9 227.18,-234.39"/>
<polygon fill="#63b8ff" stroke="#63b8ff" points="228.18,-237.75 236.35,-231 225.76,-231.18 228.18,-237.75"/>
</a>
</g>
</g>
<!-- Node9 -->
<g id="Node000009" class="node">
<title>Node9</title>
<g id="a_Node000009"><a xlink:href="../../d0/db3/interface_deluxe_1_1_deluxe_brand_center_1_1_a_m_m_1_1_infrastructure_1_1_social_1_1_i_linkedin_service.html#ae4af9538559dc88324ca7cf71aab7fba" target="_top" xlink:title=" ">
<polygon fill="white" stroke="#666666" points="396.5,-168 224.5,-168 224.5,-124 396.5,-124 396.5,-168"/>
<text text-anchor="start" x="232.5" y="-154.5" font-family="Helvetica,sans-Serif" font-size="10.00">Deluxe.DeluxeBrandCenter.</text>
<text text-anchor="start" x="232.5" y="-142.5" font-family="Helvetica,sans-Serif" font-size="10.00">AMM.Infrastructure.Social.ILinkedin</text>
<text text-anchor="middle" x="310.5" y="-130.5" font-family="Helvetica,sans-Serif" font-size="10.00">Service.Remove</text>
</a>
</g>
</g>
<!-- Node1&#45;&gt;Node9 -->
<g id="edge8_Node000001_Node000009" class="edge">
<title>Node1&#45;&gt;Node9</title>
<g id="a_edge8_Node000001_Node000009"><a xlink:title=" ">
<path fill="none" stroke="#63b8ff" d="M107.77,-278.58C129.81,-251.01 170.74,-204.47 215.5,-177 217.5,-175.77 219.56,-174.58 221.66,-173.44"/>
<polygon fill="#63b8ff" stroke="#63b8ff" points="223.02,-176.67 230.4,-169.06 219.89,-170.41 223.02,-176.67"/>
</a>
</g>
</g>
<!-- Node10 -->
<g id="Node000010" class="node">
<title>Node10</title>
<g id="a_Node000010"><a xlink:href="../../dd/d77/interface_deluxe_1_1_deluxe_brand_center_1_1_a_m_m_1_1_infrastructure_1_1_social_1_1_i_twitter_service.html#ab9abd9e79cf79feee9d1a3b140e5efff" target="_top" xlink:title=" ">
<polygon fill="white" stroke="#666666" points="393.12,-106 227.88,-106 227.88,-62 393.12,-62 393.12,-106"/>
<text text-anchor="start" x="235.88" y="-92.5" font-family="Helvetica,sans-Serif" font-size="10.00">Deluxe.DeluxeBrandCenter.</text>
<text text-anchor="start" x="235.88" y="-80.5" font-family="Helvetica,sans-Serif" font-size="10.00">AMM.Infrastructure.Social.ITwitter</text>
<text text-anchor="middle" x="310.5" y="-68.5" font-family="Helvetica,sans-Serif" font-size="10.00">Service.Remove</text>
</a>
</g>
</g>
<!-- Node1&#45;&gt;Node10 -->
<g id="edge9_Node000001_Node000010" class="edge">
<title>Node1&#45;&gt;Node10</title>
<g id="a_edge9_Node000001_Node000010"><a xlink:title=" ">
<path fill="none" stroke="#63b8ff" d="M99.88,-278.58C116.87,-239.64 156.97,-159.43 215.5,-115 216.83,-113.99 218.19,-113.02 219.58,-112.07"/>
<polygon fill="#63b8ff" stroke="#63b8ff" points="221.1,-115.24 227.84,-107.07 217.47,-109.26 221.1,-115.24"/>
</a>
</g>
</g>
<!-- Node11 -->
<g id="Node000011" class="node">
<title>Node11</title>
<g id="a_Node000011"><a xlink:href="../../d7/d5a/class_deluxe_1_1_deluxe_brand_center_1_1_a_m_m_1_1_infrastructure_1_1_social_1_1_social_network_service.html#aa5e0fb3eccb19395a18758bfa3cb1fb7" target="_top" xlink:title=" ">
<polygon fill="white" stroke="#666666" points="392,-44 229,-44 229,0 392,0 392,-44"/>
<text text-anchor="start" x="237" y="-30.5" font-family="Helvetica,sans-Serif" font-size="10.00">Deluxe.DeluxeBrandCenter.</text>
<text text-anchor="start" x="237" y="-18.5" font-family="Helvetica,sans-Serif" font-size="10.00">AMM.Infrastructure.Social.Social</text>
<text text-anchor="middle" x="310.5" y="-6.5" font-family="Helvetica,sans-Serif" font-size="10.00">NetworkService.UnlinkedProvider</text>
</a>
</g>
</g>
<!-- Node1&#45;&gt;Node11 -->
<g id="edge10_Node000001_Node000011" class="edge">
<title>Node1&#45;&gt;Node11</title>
<g id="a_edge10_Node000001_Node000011"><a xlink:title=" ">
<path fill="none" stroke="#63b8ff" d="M95.84,-278.54C107.95,-230.17 143.05,-115.48 215.5,-53 216.76,-51.91 218.06,-50.86 219.39,-49.85"/>
<polygon fill="#63b8ff" stroke="#63b8ff" points="221.01,-52.98 227.39,-44.52 217.13,-47.16 221.01,-52.98"/>
</a>
</g>
</g>
</g>
</svg>

<g id="navigator" transform="translate(0 0)" fill="#404254">
  <rect fill="#f2f5e9" fill-opacity="0.5" stroke="#606060" stroke-width=".5" x="0" y="0" width="60" height="60"/>
  <use id="zoomplus" xlink:href="#zoomPlus" x="17" y="9" onmousedown="handleZoom(evt,'in')"/>
  <use id="zoomminus" xlink:href="#zoomMin" x="42" y="9" onmousedown="handleZoom(evt,'out')"/>
  <use id="reset" xlink:href="#resetDef" x="30" y="36" onmousedown="handleReset()"/>
   <use id="arrowup" xlink:href="#arrowUp" x="0" y="0" onmousedown="handlePan(0,-1)"/>
  <use id="arrowright" xlink:href="#arrowRight" x="0" y="0" onmousedown="handlePan(1,0)"/>
  <use id="arrowdown" xlink:href="#arrowDown" x="0" y="0" onmousedown="handlePan(0,1)"/>
  <use id="arrowleft" xlink:href="#arrowLeft" x="0" y="0" onmousedown="handlePan(-1,0)"/>
</g>
<svg viewBox="0 0 15 15" width="100%" height="30px" preserveAspectRatio="xMaxYMin meet">
 <g id="arrow_out" transform="scale(0.3 0.3)">
  <a xlink:href="class_deluxe_1_1_deluxe_brand_center_1_1_a_m_m_1_1_infrastructure_1_1_social_1_1_social_network_service_aeb2cfa96bc359336cb5ded0a69a22eba_cgraph_org.svg" target="_base">
   <rect id="button" ry="5" rx="5" y="6" x="6" height="38" width="38"
        fill="#f2f5e9" fill-opacity="0.5" stroke="#606060" stroke-width="1.0"/>
   <path id="arrow"
     d="M 11.500037,31.436501 C 11.940474,20.09759 22.043105,11.32322 32.158766,21.979434 L 37.068811,17.246167 C 37.068811,17.246167 37.088388,32 37.088388,32 L 22.160133,31.978069 C 22.160133,31.978069 26.997745,27.140456 26.997745,27.140456 C 18.528582,18.264221 13.291696,25.230495 11.500037,31.436501 z"
     style="fill:#404040;"/>
  </a>
 </g>
</svg>

<style type='text/css'>
<![CDATA[
[data-mouse-over-selected='false'] { opacity: 0.7; }
[data-mouse-over-selected='true']  { opacity: 1.0; }
]]>
</style>
<script type="application/ecmascript"><![CDATA[
document.addEventListener('DOMContentLoaded', (event) => {
  highlightEdges();
  highlightAdjacentNodes();
});
]]></script>
</svg>
