<?xml version="1.0" encoding="UTF-8" standalone="no"?>
<!DOCTYPE svg PUBLIC "-//W3C//DTD SVG 1.1//EN"
 "http://www.w3.org/Graphics/SVG/1.1/DTD/svg11.dtd">
<!-- Generated by graphviz version 12.1.1 (20240910.0053)
 -->
<!-- Title: Deluxe.DeluxeBrandCenter.AMM.Domain.Utility.HashHelper.GetHashCode Pages: 1 -->
<svg width="1027pt" height="207pt"
 viewBox="0.00 0.00 1027.00 207.00" xmlns="http://www.w3.org/2000/svg" xmlns:xlink="http://www.w3.org/1999/xlink">
<g id="graph0" class="graph" transform="scale(1 1) rotate(0) translate(4 203)">
<title>Deluxe.DeluxeBrandCenter.AMM.Domain.Utility.HashHelper.GetHashCode</title>
<!-- Node1 -->
<g id="Node000001" class="node">
<title>Node1</title>
<g id="a_Node000001"><a xlink:title=" ">
<polygon fill="#999999" stroke="#666666" points="1019,-137 857.5,-137 857.5,-93 1019,-93 1019,-137"/>
<text text-anchor="start" x="865.5" y="-123.5" font-family="Helvetica,sans-Serif" font-size="10.00">Deluxe.DeluxeBrandCenter.</text>
<text text-anchor="start" x="865.5" y="-111.5" font-family="Helvetica,sans-Serif" font-size="10.00">AMM.Domain.Utility.HashHelper.</text>
<text text-anchor="middle" x="938.25" y="-99.5" font-family="Helvetica,sans-Serif" font-size="10.00">GetHashCode</text>
</a>
</g>
</g>
<!-- Node2 -->
<g id="Node000002" class="node">
<title>Node2</title>
<g id="a_Node000002"><a xlink:href="../../d4/d06/class_deluxe_1_1_deluxe_brand_center_1_1_a_m_m_1_1_a_p_i_1_1_services_1_1_contact_manager_service.html#a3dc71e4629a2d7c6f113ecddd3867d51" target="_top" xlink:title=" ">
<polygon fill="white" stroke="#666666" points="814.75,-199 639.75,-199 639.75,-155 814.75,-155 814.75,-199"/>
<text text-anchor="start" x="647.75" y="-185.5" font-family="Helvetica,sans-Serif" font-size="10.00">Deluxe.DeluxeBrandCenter.</text>
<text text-anchor="start" x="647.75" y="-173.5" font-family="Helvetica,sans-Serif" font-size="10.00">AMM.API.Services.ContactManager</text>
<text text-anchor="middle" x="727.25" y="-161.5" font-family="Helvetica,sans-Serif" font-size="10.00">Service.CreateContactMF</text>
</a>
</g>
</g>
<!-- Node1&#45;&gt;Node2 -->
<g id="edge1_Node000001_Node000002" class="edge">
<title>Node1&#45;&gt;Node2</title>
<g id="a_edge1_Node000001_Node000002"><a xlink:title=" ">
<path fill="none" stroke="#63b8ff" d="M850.86,-140.63C835.35,-145.23 819.28,-150 804.09,-154.5"/>
<polygon fill="#63b8ff" stroke="#63b8ff" points="851.46,-144.1 860.05,-137.9 849.47,-137.39 851.46,-144.1"/>
</a>
</g>
</g>
<!-- Node3 -->
<g id="Node000003" class="node">
<title>Node3</title>
<g id="a_Node000003"><a xlink:href="../../d4/d06/class_deluxe_1_1_deluxe_brand_center_1_1_a_m_m_1_1_a_p_i_1_1_services_1_1_contact_manager_service.html#a133274531a3def5d94274b0079caf72f" target="_top" xlink:title=" ">
<polygon fill="white" stroke="#666666" points="814.75,-137 639.75,-137 639.75,-93 814.75,-93 814.75,-137"/>
<text text-anchor="start" x="647.75" y="-123.5" font-family="Helvetica,sans-Serif" font-size="10.00">Deluxe.DeluxeBrandCenter.</text>
<text text-anchor="start" x="647.75" y="-111.5" font-family="Helvetica,sans-Serif" font-size="10.00">AMM.API.Services.ContactManager</text>
<text text-anchor="middle" x="727.25" y="-99.5" font-family="Helvetica,sans-Serif" font-size="10.00">Service.GetContactInfoAsync</text>
</a>
</g>
</g>
<!-- Node1&#45;&gt;Node3 -->
<g id="edge2_Node000001_Node000003" class="edge">
<title>Node1&#45;&gt;Node3</title>
<g id="a_edge2_Node000001_Node000003"><a xlink:title=" ">
<path fill="none" stroke="#63b8ff" d="M845.69,-115C835.56,-115 825.26,-115 815.19,-115"/>
<polygon fill="#63b8ff" stroke="#63b8ff" points="845.53,-118.5 855.53,-115 845.53,-111.5 845.53,-118.5"/>
</a>
</g>
</g>
<!-- Node6 -->
<g id="Node000006" class="node">
<title>Node6</title>
<g id="a_Node000006"><a xlink:href="../../dd/d19/class_deluxe_1_1_deluxe_brand_center_1_1_a_m_m_1_1_domain_1_1_utility_1_1_contact_c_s_v_table.html#a8d2643b6e107ec22efd88700ee9bb99a" target="_top" xlink:title=" ">
<polygon fill="white" stroke="#666666" points="821.5,-75 633,-75 633,-31 821.5,-31 821.5,-75"/>
<text text-anchor="start" x="641" y="-61.5" font-family="Helvetica,sans-Serif" font-size="10.00">Deluxe.DeluxeBrandCenter.</text>
<text text-anchor="start" x="641" y="-49.5" font-family="Helvetica,sans-Serif" font-size="10.00">AMM.Domain.Utility.ContactCSVTable.</text>
<text text-anchor="middle" x="727.25" y="-37.5" font-family="Helvetica,sans-Serif" font-size="10.00">SetAccountId</text>
</a>
</g>
</g>
<!-- Node1&#45;&gt;Node6 -->
<g id="edge6_Node000001_Node000006" class="edge">
<title>Node1&#45;&gt;Node6</title>
<g id="a_edge6_Node000001_Node000006"><a xlink:title=" ">
<path fill="none" stroke="#63b8ff" d="M850.86,-89.37C835.35,-84.77 819.28,-80 804.09,-75.5"/>
<polygon fill="#63b8ff" stroke="#63b8ff" points="849.47,-92.61 860.05,-92.1 851.46,-85.9 849.47,-92.61"/>
</a>
</g>
</g>
<!-- Node4 -->
<g id="Node000004" class="node">
<title>Node4</title>
<g id="a_Node000004"><a xlink:href="../../d4/d06/class_deluxe_1_1_deluxe_brand_center_1_1_a_m_m_1_1_a_p_i_1_1_services_1_1_contact_manager_service.html#a783fc2f127a67a065676691c50834e1c" target="_top" xlink:title=" ">
<polygon fill="white" stroke="#666666" points="597,-181 422,-181 422,-137 597,-137 597,-181"/>
<text text-anchor="start" x="430" y="-167.5" font-family="Helvetica,sans-Serif" font-size="10.00">Deluxe.DeluxeBrandCenter.</text>
<text text-anchor="start" x="430" y="-155.5" font-family="Helvetica,sans-Serif" font-size="10.00">AMM.API.Services.ContactManager</text>
<text text-anchor="middle" x="509.5" y="-143.5" font-family="Helvetica,sans-Serif" font-size="10.00">Service.FillContactInfoErrors</text>
</a>
</g>
</g>
<!-- Node3&#45;&gt;Node4 -->
<g id="edge3_Node000003_Node000004" class="edge">
<title>Node3&#45;&gt;Node4</title>
<g id="a_edge3_Node000003_Node000004"><a xlink:title=" ">
<path fill="none" stroke="#63b8ff" d="M628.33,-134.97C618.05,-137.07 607.64,-139.19 597.49,-141.26"/>
<polygon fill="#63b8ff" stroke="#63b8ff" points="628.85,-138.44 637.95,-133.01 627.45,-131.58 628.85,-138.44"/>
</a>
</g>
</g>
<!-- Node5 -->
<g id="Node000005" class="node">
<title>Node5</title>
<g id="a_Node000005"><a xlink:href="../../d4/d06/class_deluxe_1_1_deluxe_brand_center_1_1_a_m_m_1_1_a_p_i_1_1_services_1_1_contact_manager_service.html#adacb7266d26f0bf44644d5acaee83192" target="_top" xlink:title=" ">
<polygon fill="white" stroke="#666666" points="386,-159 211,-159 211,-115 386,-115 386,-159"/>
<text text-anchor="start" x="219" y="-145.5" font-family="Helvetica,sans-Serif" font-size="10.00">Deluxe.DeluxeBrandCenter.</text>
<text text-anchor="start" x="219" y="-133.5" font-family="Helvetica,sans-Serif" font-size="10.00">AMM.API.Services.ContactManager</text>
<text text-anchor="middle" x="298.5" y="-121.5" font-family="Helvetica,sans-Serif" font-size="10.00">Service.GetRedtailTagGroup</text>
</a>
</g>
</g>
<!-- Node3&#45;&gt;Node5 -->
<g id="edge5_Node000003_Node000005" class="edge">
<title>Node3&#45;&gt;Node5</title>
<g id="a_edge5_Node000003_Node000005"><a xlink:title=" ">
<path fill="none" stroke="#63b8ff" d="M628.03,-118.43C568.42,-120.71 490.8,-124 422,-128 410.5,-128.67 398.41,-129.45 386.47,-130.28"/>
<polygon fill="#63b8ff" stroke="#63b8ff" points="627.96,-121.94 637.82,-118.06 627.69,-114.94 627.96,-121.94"/>
</a>
</g>
</g>
<!-- Node4&#45;&gt;Node5 -->
<g id="edge4_Node000004_Node000005" class="edge">
<title>Node4&#45;&gt;Node5</title>
<g id="a_edge4_Node000004_Node000005"><a xlink:title=" ">
<path fill="none" stroke="#63b8ff" d="M410.4,-148.67C402.38,-147.83 394.31,-146.98 386.39,-146.15"/>
<polygon fill="#63b8ff" stroke="#63b8ff" points="409.86,-152.14 420.18,-149.7 410.6,-145.17 409.86,-152.14"/>
</a>
</g>
</g>
<!-- Node7 -->
<g id="Node000007" class="node">
<title>Node7</title>
<g id="a_Node000007"><a xlink:href="../../d4/d06/class_deluxe_1_1_deluxe_brand_center_1_1_a_m_m_1_1_a_p_i_1_1_services_1_1_contact_manager_service.html#a6b3cb62fedd89a5b7c82e4c21859750f" target="_top" xlink:title=" ">
<polygon fill="white" stroke="#666666" points="597,-75 422,-75 422,-31 597,-31 597,-75"/>
<text text-anchor="start" x="430" y="-61.5" font-family="Helvetica,sans-Serif" font-size="10.00">Deluxe.DeluxeBrandCenter.</text>
<text text-anchor="start" x="430" y="-49.5" font-family="Helvetica,sans-Serif" font-size="10.00">AMM.API.Services.ContactManager</text>
<text text-anchor="middle" x="509.5" y="-37.5" font-family="Helvetica,sans-Serif" font-size="10.00">Service.FormatCSV</text>
</a>
</g>
</g>
<!-- Node6&#45;&gt;Node7 -->
<g id="edge7_Node000006_Node000007" class="edge">
<title>Node6&#45;&gt;Node7</title>
<g id="a_edge7_Node000006_Node000007"><a xlink:title=" ">
<path fill="none" stroke="#63b8ff" d="M621.25,-53C613.23,-53 605.19,-53 597.3,-53"/>
<polygon fill="#63b8ff" stroke="#63b8ff" points="621.05,-56.5 631.05,-53 621.05,-49.5 621.05,-56.5"/>
</a>
</g>
</g>
<!-- Node8 -->
<g id="Node000008" class="node">
<title>Node8</title>
<g id="a_Node000008"><a xlink:href="../../d4/d06/class_deluxe_1_1_deluxe_brand_center_1_1_a_m_m_1_1_a_p_i_1_1_services_1_1_contact_manager_service.html#aa1fe050e4d5227a691150b9849f7b1a3" target="_top" xlink:title=" ">
<polygon fill="white" stroke="#666666" points="386,-75 211,-75 211,-31 386,-31 386,-75"/>
<text text-anchor="start" x="219" y="-61.5" font-family="Helvetica,sans-Serif" font-size="10.00">Deluxe.DeluxeBrandCenter.</text>
<text text-anchor="start" x="219" y="-49.5" font-family="Helvetica,sans-Serif" font-size="10.00">AMM.API.Services.ContactManager</text>
<text text-anchor="middle" x="298.5" y="-37.5" font-family="Helvetica,sans-Serif" font-size="10.00">Service.UploadContacts</text>
</a>
</g>
</g>
<!-- Node7&#45;&gt;Node8 -->
<g id="edge8_Node000007_Node000008" class="edge">
<title>Node7&#45;&gt;Node8</title>
<g id="a_edge8_Node000007_Node000008"><a xlink:title=" ">
<path fill="none" stroke="#63b8ff" d="M410.4,-53C402.38,-53 394.31,-53 386.39,-53"/>
<polygon fill="#63b8ff" stroke="#63b8ff" points="410.17,-56.5 420.17,-53 410.17,-49.5 410.17,-56.5"/>
</a>
</g>
</g>
<!-- Node9 -->
<g id="Node000009" class="node">
<title>Node9</title>
<g id="a_Node000009"><a xlink:href="../../d4/d06/class_deluxe_1_1_deluxe_brand_center_1_1_a_m_m_1_1_a_p_i_1_1_services_1_1_contact_manager_service.html#a7f6af03e51f7bb3b4b003c2296015349" target="_top" xlink:title=" ">
<polygon fill="white" stroke="#666666" points="175,-106 0,-106 0,-62 175,-62 175,-106"/>
<text text-anchor="start" x="8" y="-92.5" font-family="Helvetica,sans-Serif" font-size="10.00">Deluxe.DeluxeBrandCenter.</text>
<text text-anchor="start" x="8" y="-80.5" font-family="Helvetica,sans-Serif" font-size="10.00">AMM.API.Services.ContactManager</text>
<text text-anchor="middle" x="87.5" y="-68.5" font-family="Helvetica,sans-Serif" font-size="10.00">Service.UploadRedTailContacts</text>
</a>
</g>
</g>
<!-- Node8&#45;&gt;Node9 -->
<g id="edge9_Node000008_Node000009" class="edge">
<title>Node8&#45;&gt;Node9</title>
<g id="a_edge9_Node000008_Node000009"><a xlink:title=" ">
<path fill="none" stroke="#63b8ff" d="M199.4,-67.55C191.38,-68.74 183.31,-69.94 175.39,-71.11"/>
<polygon fill="#63b8ff" stroke="#63b8ff" points="199.81,-71.03 209.18,-66.1 198.78,-64.1 199.81,-71.03"/>
</a>
</g>
</g>
<!-- Node10 -->
<g id="Node000010" class="node">
<title>Node10</title>
<g id="a_Node000010"><a xlink:href="../../d4/d06/class_deluxe_1_1_deluxe_brand_center_1_1_a_m_m_1_1_a_p_i_1_1_services_1_1_contact_manager_service.html#a9fed8bce1aa679c38c8e729ee735ca5f" target="_top" xlink:title=" ">
<polygon fill="white" stroke="#666666" points="175,-44 0,-44 0,0 175,0 175,-44"/>
<text text-anchor="start" x="8" y="-30.5" font-family="Helvetica,sans-Serif" font-size="10.00">Deluxe.DeluxeBrandCenter.</text>
<text text-anchor="start" x="8" y="-18.5" font-family="Helvetica,sans-Serif" font-size="10.00">AMM.API.Services.ContactManager</text>
<text text-anchor="middle" x="87.5" y="-6.5" font-family="Helvetica,sans-Serif" font-size="10.00">Service.UploadSaleForceContacts</text>
</a>
</g>
</g>
<!-- Node8&#45;&gt;Node10 -->
<g id="edge10_Node000008_Node000010" class="edge">
<title>Node8&#45;&gt;Node10</title>
<g id="a_edge10_Node000008_Node000010"><a xlink:title=" ">
<path fill="none" stroke="#63b8ff" d="M199.4,-38.45C191.38,-37.26 183.31,-36.06 175.39,-34.89"/>
<polygon fill="#63b8ff" stroke="#63b8ff" points="198.78,-41.9 209.18,-39.9 199.81,-34.97 198.78,-41.9"/>
</a>
</g>
</g>
</g>
</svg>
