<?xml version="1.0" encoding="UTF-8" standalone="no"?>
<!DOCTYPE svg PUBLIC "-//W3C//DTD SVG 1.1//EN"
 "http://www.w3.org/Graphics/SVG/1.1/DTD/svg11.dtd">
<!-- Generated by graphviz version 12.1.1 (20240910.0053)
 -->
<!-- Title: Deluxe.DeluxeBrandCenter.AMM.API.Services.NamedDbService&lt; TModel, TModelVM &gt; Pages: 1 -->
<svg width="1411pt" height="347pt"
 viewBox="0.00 0.00 1410.75 347.00" xmlns="http://www.w3.org/2000/svg" xmlns:xlink="http://www.w3.org/1999/xlink">
<g id="graph0" class="graph" transform="scale(1 1) rotate(0) translate(4 343)">
<title>Deluxe.DeluxeBrandCenter.AMM.API.Services.NamedDbService&lt; TModel, TModelVM &gt;</title>
<!-- Node1 -->
<g id="Node000001" class="node">
<title>Node1</title>
<g id="a_Node000001"><a xlink:title=" ">
<polygon fill="#999999" stroke="#666666" points="503.75,-168 323.5,-168 323.5,-124 503.75,-124 503.75,-168"/>
<text text-anchor="start" x="331.5" y="-154.5" font-family="Helvetica,sans-Serif" font-size="10.00">Deluxe.DeluxeBrandCenter.</text>
<text text-anchor="start" x="331.5" y="-142.5" font-family="Helvetica,sans-Serif" font-size="10.00">AMM.API.Services.NamedDbService</text>
<text text-anchor="middle" x="413.62" y="-130.5" font-family="Helvetica,sans-Serif" font-size="10.00">&lt; TModel, TModelVM &gt;</text>
</a>
</g>
</g>
<!-- Node5 -->
<g id="Node000005" class="node">
<title>Node5</title>
<g id="a_Node000005"><a xlink:href="../../dd/dd8/class_deluxe_1_1_deluxe_brand_center_1_1_a_m_m_1_1_a_p_i_1_1_services_1_1_named_db_service.html" target="_top" xlink:title=" ">
<polygon fill="white" stroke="#666666" points="911.25,-315 728.75,-315 728.75,-271 911.25,-271 911.25,-315"/>
<text text-anchor="start" x="736.75" y="-301.5" font-family="Helvetica,sans-Serif" font-size="10.00">Deluxe.DeluxeBrandCenter.</text>
<text text-anchor="start" x="736.75" y="-289.5" font-family="Helvetica,sans-Serif" font-size="10.00">AMM.API.Services.NamedDbService</text>
<text text-anchor="middle" x="820" y="-277.5" font-family="Helvetica,sans-Serif" font-size="10.00">&lt; AccountStatus, AccountStatusVM &gt;</text>
</a>
</g>
</g>
<!-- Node1&#45;&gt;Node5 -->
<g id="edge5_Node000001_Node000005" class="edge">
<title>Node1&#45;&gt;Node5</title>
<g id="a_edge5_Node000001_Node000005"><a xlink:title=" ">
<path fill="none" stroke="orange" stroke-dasharray="5,2" d="M454.17,-174.67C473.74,-187.82 498.18,-202.73 521.75,-213 588.5,-242.09 668.4,-262.87 728.54,-275.95"/>
<polygon fill="orange" stroke="orange" points="456.17,-171.8 445.94,-169.05 452.22,-177.58 456.17,-171.8"/>
</a>
</g>
<text text-anchor="start" x="549.5" y="-281.15" font-family="Helvetica,sans-Serif" font-size="10.00" fill="grey"> &lt; AccountStatus, Account</text>
<text text-anchor="middle" x="608" y="-269.15" font-family="Helvetica,sans-Serif" font-size="10.00" fill="grey">StatusVM &gt;</text>
</g>
<!-- Node7 -->
<g id="Node000007" class="node">
<title>Node7</title>
<g id="a_Node000007"><a xlink:href="../../dd/dd8/class_deluxe_1_1_deluxe_brand_center_1_1_a_m_m_1_1_a_p_i_1_1_services_1_1_named_db_service.html" target="_top" xlink:title=" ">
<polygon fill="white" stroke="#666666" points="912.75,-230 727.25,-230 727.25,-186 912.75,-186 912.75,-230"/>
<text text-anchor="start" x="735.25" y="-216.5" font-family="Helvetica,sans-Serif" font-size="10.00">Deluxe.DeluxeBrandCenter.</text>
<text text-anchor="start" x="735.25" y="-204.5" font-family="Helvetica,sans-Serif" font-size="10.00">AMM.API.Services.NamedDbService</text>
<text text-anchor="middle" x="820" y="-192.5" font-family="Helvetica,sans-Serif" font-size="10.00">&lt; UserCampaign, UserCampaignVM &gt;</text>
</a>
</g>
</g>
<!-- Node1&#45;&gt;Node7 -->
<g id="edge7_Node000001_Node000007" class="edge">
<title>Node1&#45;&gt;Node7</title>
<g id="a_edge7_Node000001_Node000007"><a xlink:title=" ">
<path fill="none" stroke="orange" stroke-dasharray="5,2" d="M506.75,-170.97C511.81,-172.06 516.83,-173.08 521.75,-174 589.91,-186.74 667.82,-195.44 726.77,-200.85"/>
<polygon fill="orange" stroke="orange" points="507.66,-167.58 497.13,-168.8 506.12,-174.41 507.66,-167.58"/>
</a>
</g>
<text text-anchor="middle" x="608" y="-199.81" font-family="Helvetica,sans-Serif" font-size="10.00" fill="grey"> &lt; UserCampaign, UserCampaignVM &gt;</text>
</g>
<!-- Node11 -->
<g id="Node000011" class="node">
<title>Node11</title>
<g id="a_Node000011"><a xlink:href="../../dd/dd8/class_deluxe_1_1_deluxe_brand_center_1_1_a_m_m_1_1_a_p_i_1_1_services_1_1_named_db_service.html" target="_top" xlink:title=" ">
<polygon fill="white" stroke="#666666" points="927.75,-168 712.25,-168 712.25,-124 927.75,-124 927.75,-168"/>
<text text-anchor="start" x="720.25" y="-154.5" font-family="Helvetica,sans-Serif" font-size="10.00">Deluxe.DeluxeBrandCenter.</text>
<text text-anchor="start" x="720.25" y="-142.5" font-family="Helvetica,sans-Serif" font-size="10.00">AMM.API.Services.NamedDbService</text>
<text text-anchor="middle" x="820" y="-130.5" font-family="Helvetica,sans-Serif" font-size="10.00">&lt; CampaignElement, CampaignElementVM &gt;</text>
</a>
</g>
</g>
<!-- Node1&#45;&gt;Node11 -->
<g id="edge11_Node000001_Node000011" class="edge">
<title>Node1&#45;&gt;Node11</title>
<g id="a_edge11_Node000001_Node000011"><a xlink:title=" ">
<path fill="none" stroke="orange" stroke-dasharray="5,2" d="M515.47,-146C575.24,-146 650.94,-146 711.8,-146"/>
<polygon fill="orange" stroke="orange" points="515.63,-142.5 505.63,-146 515.63,-149.5 515.63,-142.5"/>
</a>
</g>
<text text-anchor="start" x="554.38" y="-160.5" font-family="Helvetica,sans-Serif" font-size="10.00" fill="grey"> &lt; CampaignElement,</text>
<text text-anchor="middle" x="608" y="-148.5" font-family="Helvetica,sans-Serif" font-size="10.00" fill="grey"> CampaignElementVM &gt;</text>
</g>
<!-- Node13 -->
<g id="Node000013" class="node">
<title>Node13</title>
<g id="a_Node000013"><a xlink:href="../../dd/dd8/class_deluxe_1_1_deluxe_brand_center_1_1_a_m_m_1_1_a_p_i_1_1_services_1_1_named_db_service.html" target="_top" xlink:title=" ">
<polygon fill="white" stroke="#666666" points="910.12,-106 729.88,-106 729.88,-62 910.12,-62 910.12,-106"/>
<text text-anchor="start" x="737.88" y="-92.5" font-family="Helvetica,sans-Serif" font-size="10.00">Deluxe.DeluxeBrandCenter.</text>
<text text-anchor="start" x="737.88" y="-80.5" font-family="Helvetica,sans-Serif" font-size="10.00">AMM.API.Services.NamedDbService</text>
<text text-anchor="middle" x="820" y="-68.5" font-family="Helvetica,sans-Serif" font-size="10.00">&lt; Campaign, CampaignVM &gt;</text>
</a>
</g>
</g>
<!-- Node1&#45;&gt;Node13 -->
<g id="edge13_Node000001_Node000013" class="edge">
<title>Node1&#45;&gt;Node13</title>
<g id="a_edge13_Node000001_Node000013"><a xlink:title=" ">
<path fill="none" stroke="orange" stroke-dasharray="5,2" d="M515.32,-130.56C581.03,-120.49 666.04,-107.45 729.4,-97.74"/>
<polygon fill="orange" stroke="orange" points="514.97,-127.07 505.61,-132.05 516.03,-133.99 514.97,-127.07"/>
</a>
</g>
<text text-anchor="middle" x="608" y="-131.87" font-family="Helvetica,sans-Serif" font-size="10.00" fill="grey"> &lt; Campaign, CampaignVM &gt;</text>
</g>
<!-- Node15 -->
<g id="Node000015" class="node">
<title>Node15</title>
<g id="a_Node000015"><a xlink:href="../../dd/dd8/class_deluxe_1_1_deluxe_brand_center_1_1_a_m_m_1_1_a_p_i_1_1_services_1_1_named_db_service.html" target="_top" xlink:title=" ">
<polygon fill="white" stroke="#666666" points="910.12,-44 729.88,-44 729.88,0 910.12,0 910.12,-44"/>
<text text-anchor="start" x="737.88" y="-30.5" font-family="Helvetica,sans-Serif" font-size="10.00">Deluxe.DeluxeBrandCenter.</text>
<text text-anchor="start" x="737.88" y="-18.5" font-family="Helvetica,sans-Serif" font-size="10.00">AMM.API.Services.NamedDbService</text>
<text text-anchor="middle" x="820" y="-6.5" font-family="Helvetica,sans-Serif" font-size="10.00">&lt; Settings, SettingsVM &gt;</text>
</a>
</g>
</g>
<!-- Node1&#45;&gt;Node15 -->
<g id="edge15_Node000001_Node000015" class="edge">
<title>Node1&#45;&gt;Node15</title>
<g id="a_edge15_Node000001_Node000015"><a xlink:title=" ">
<path fill="none" stroke="orange" stroke-dasharray="5,2" d="M460.07,-117.77C478.64,-107.2 500.69,-95.87 521.75,-88 589.47,-62.71 669.66,-45.61 729.68,-35.16"/>
<polygon fill="orange" stroke="orange" points="458.33,-114.73 451.44,-122.77 461.85,-120.78 458.33,-114.73"/>
</a>
</g>
<text text-anchor="middle" x="608" y="-90.5" font-family="Helvetica,sans-Serif" font-size="10.00" fill="grey"> &lt; Settings, SettingsVM &gt;</text>
</g>
<!-- Node2 -->
<g id="Node000002" class="node">
<title>Node2</title>
<g id="a_Node000002"><a xlink:href="../../d6/d4e/class_deluxe_1_1_deluxe_brand_center_1_1_a_m_m_1_1_a_p_i_1_1_services_1_1_d_b_service.html" target="_top" xlink:title=" ">
<polygon fill="white" stroke="#666666" points="270,-185 163.25,-185 163.25,-153 270,-153 270,-185"/>
<text text-anchor="start" x="171.25" y="-171.5" font-family="Helvetica,sans-Serif" font-size="10.00">DBService&lt; TModel,</text>
<text text-anchor="middle" x="216.62" y="-159.5" font-family="Helvetica,sans-Serif" font-size="10.00"> TModelVM &gt;</text>
</a>
</g>
</g>
<!-- Node2&#45;&gt;Node1 -->
<g id="edge1_Node000001_Node000002" class="edge">
<title>Node2&#45;&gt;Node1</title>
<g id="a_edge1_Node000001_Node000002"><a xlink:title=" ">
<path fill="none" stroke="#63b8ff" d="M281.81,-161.43C295.11,-159.86 309.35,-158.18 323.37,-156.53"/>
<polygon fill="#63b8ff" stroke="#63b8ff" points="281.42,-157.95 271.9,-162.6 282.24,-164.9 281.42,-157.95"/>
</a>
</g>
</g>
<!-- Node3 -->
<g id="Node000003" class="node">
<title>Node3</title>
<g id="a_Node000003"><a xlink:href="../../d3/ddb/interface_deluxe_1_1_deluxe_brand_center_1_1_a_m_m_1_1_a_p_i_1_1_services_1_1_i_d_b_service.html" target="_top" xlink:title=" ">
<polygon fill="white" stroke="#666666" points="109.75,-159 0,-159 0,-127 109.75,-127 109.75,-159"/>
<text text-anchor="start" x="8" y="-145.5" font-family="Helvetica,sans-Serif" font-size="10.00">IDBService&lt; TModel,</text>
<text text-anchor="middle" x="54.88" y="-133.5" font-family="Helvetica,sans-Serif" font-size="10.00"> TModelVM &gt;</text>
</a>
</g>
</g>
<!-- Node3&#45;&gt;Node2 -->
<g id="edge2_Node000002_Node000003" class="edge">
<title>Node3&#45;&gt;Node2</title>
<g id="a_edge2_Node000002_Node000003"><a xlink:title=" ">
<path fill="none" stroke="#63b8ff" d="M120.99,-153.6C134.95,-155.87 149.53,-158.24 162.95,-160.43"/>
<polygon fill="#63b8ff" stroke="#63b8ff" points="121.89,-150.2 111.45,-152.05 120.76,-157.11 121.89,-150.2"/>
</a>
</g>
</g>
<!-- Node4 -->
<g id="Node000004" class="node">
<title>Node4</title>
<g id="a_Node000004"><a xlink:href="../../d3/dac/interface_deluxe_1_1_deluxe_brand_center_1_1_a_m_m_1_1_a_p_i_1_1_services_1_1_i_named_db_service.html" target="_top" xlink:title=" ">
<polygon fill="white" stroke="#666666" points="286.5,-135 146.75,-135 146.75,-103 286.5,-103 286.5,-135"/>
<text text-anchor="start" x="154.75" y="-121.5" font-family="Helvetica,sans-Serif" font-size="10.00">INamedDbService&lt; TModel,</text>
<text text-anchor="middle" x="216.62" y="-109.5" font-family="Helvetica,sans-Serif" font-size="10.00"> TModelVM &gt;</text>
</a>
</g>
</g>
<!-- Node3&#45;&gt;Node4 -->
<g id="edge4_Node000004_Node000003" class="edge">
<title>Node3&#45;&gt;Node4</title>
<g id="a_edge4_Node000004_Node000003"><a xlink:title=" ">
<path fill="none" stroke="#63b8ff" d="M121.11,-133.2C129.42,-131.95 137.94,-130.67 146.3,-129.41"/>
<polygon fill="#63b8ff" stroke="#63b8ff" points="120.82,-129.7 111.46,-134.65 121.86,-136.63 120.82,-129.7"/>
</a>
</g>
</g>
<!-- Node4&#45;&gt;Node1 -->
<g id="edge3_Node000001_Node000004" class="edge">
<title>Node4&#45;&gt;Node1</title>
<g id="a_edge3_Node000001_Node000004"><a xlink:title=" ">
<path fill="none" stroke="#63b8ff" d="M298.06,-130.14C306.31,-131.28 314.74,-132.45 323.09,-133.6"/>
<polygon fill="#63b8ff" stroke="#63b8ff" points="298.81,-126.71 288.42,-128.8 297.85,-133.64 298.81,-126.71"/>
</a>
</g>
</g>
<!-- Node6 -->
<g id="Node000006" class="node">
<title>Node6</title>
<g id="a_Node000006"><a xlink:href="../../d3/dbb/class_deluxe_1_1_deluxe_brand_center_1_1_a_m_m_1_1_a_p_i_1_1_services_1_1_account_status_service.html" target="_top" xlink:title=" ">
<polygon fill="white" stroke="#666666" points="1149.12,-339 981.62,-339 981.62,-295 1149.12,-295 1149.12,-339"/>
<text text-anchor="start" x="989.62" y="-325.5" font-family="Helvetica,sans-Serif" font-size="10.00">Deluxe.DeluxeBrandCenter.</text>
<text text-anchor="start" x="989.62" y="-313.5" font-family="Helvetica,sans-Serif" font-size="10.00">AMM.API.Services.AccountStatus</text>
<text text-anchor="middle" x="1065.38" y="-301.5" font-family="Helvetica,sans-Serif" font-size="10.00">Service</text>
</a>
</g>
</g>
<!-- Node5&#45;&gt;Node6 -->
<g id="edge6_Node000005_Node000006" class="edge">
<title>Node5&#45;&gt;Node6</title>
<g id="a_edge6_Node000005_Node000006"><a xlink:title=" ">
<path fill="none" stroke="#63b8ff" d="M922.98,-303.06C942.42,-304.97 962.55,-306.96 981.32,-308.81"/>
<polygon fill="#63b8ff" stroke="#63b8ff" points="923.43,-299.58 913.13,-302.09 922.74,-306.55 923.43,-299.58"/>
</a>
</g>
</g>
<!-- Node8 -->
<g id="Node000008" class="node">
<title>Node8</title>
<g id="a_Node000008"><a xlink:href="../../d6/d65/class_deluxe_1_1_deluxe_brand_center_1_1_a_m_m_1_1_a_p_i_1_1_services_1_1_campaign_builder_service.html" target="_top" xlink:title=" ">
<polygon fill="white" stroke="#666666" points="1154,-277 976.75,-277 976.75,-233 1154,-233 1154,-277"/>
<text text-anchor="start" x="984.75" y="-263.5" font-family="Helvetica,sans-Serif" font-size="10.00">Deluxe.DeluxeBrandCenter.</text>
<text text-anchor="start" x="984.75" y="-251.5" font-family="Helvetica,sans-Serif" font-size="10.00">AMM.API.Services.CampaignBuilder</text>
<text text-anchor="middle" x="1065.38" y="-239.5" font-family="Helvetica,sans-Serif" font-size="10.00">Service</text>
</a>
</g>
</g>
<!-- Node7&#45;&gt;Node8 -->
<g id="edge8_Node000007_Node000008" class="edge">
<title>Node7&#45;&gt;Node8</title>
<g id="a_edge8_Node000007_Node000008"><a xlink:title=" ">
<path fill="none" stroke="#63b8ff" d="M924.29,-227.95C941.58,-231.29 959.39,-234.73 976.26,-237.98"/>
<polygon fill="#63b8ff" stroke="#63b8ff" points="924.98,-224.52 914.5,-226.06 923.65,-231.39 924.98,-224.52"/>
</a>
</g>
</g>
<!-- Node10 -->
<g id="Node000010" class="node">
<title>Node10</title>
<g id="a_Node000010"><a xlink:href="../../d8/d0b/class_deluxe_1_1_deluxe_brand_center_1_1_a_m_m_1_1_a_p_i_1_1_services_1_1_user_campaign_service.html" target="_top" xlink:title=" ">
<polygon fill="white" stroke="#666666" points="1166,-215 964.75,-215 964.75,-183 1166,-183 1166,-215"/>
<text text-anchor="start" x="972.75" y="-201.5" font-family="Helvetica,sans-Serif" font-size="10.00">Deluxe.DeluxeBrandCenter.</text>
<text text-anchor="middle" x="1065.38" y="-189.5" font-family="Helvetica,sans-Serif" font-size="10.00">AMM.API.Services.UserCampaignService</text>
</a>
</g>
</g>
<!-- Node7&#45;&gt;Node10 -->
<g id="edge10_Node000007_Node000010" class="edge">
<title>Node7&#45;&gt;Node10</title>
<g id="a_edge10_Node000007_Node000010"><a xlink:title=" ">
<path fill="none" stroke="#63b8ff" d="M924.15,-204.19C937.52,-203.69 951.2,-203.19 964.51,-202.69"/>
<polygon fill="#63b8ff" stroke="#63b8ff" points="924.39,-200.67 914.52,-204.54 924.64,-207.67 924.39,-200.67"/>
</a>
</g>
</g>
<!-- Node9 -->
<g id="Node000009" class="node">
<title>Node9</title>
<g id="a_Node000009"><a xlink:href="../../d3/d00/class_deluxe_1_1_deluxe_brand_center_1_1_a_m_m_1_1_tests_1_1_mocks_1_1_mock_campaign_builder_service.html" target="_top" xlink:title=" ">
<polygon fill="white" stroke="#666666" points="1402.75,-277 1203,-277 1203,-233 1402.75,-233 1402.75,-277"/>
<text text-anchor="start" x="1211" y="-263.5" font-family="Helvetica,sans-Serif" font-size="10.00">Deluxe.DeluxeBrandCenter.</text>
<text text-anchor="start" x="1211" y="-251.5" font-family="Helvetica,sans-Serif" font-size="10.00">AMM.Tests.Mocks.MockCampaignBuilder</text>
<text text-anchor="middle" x="1302.88" y="-239.5" font-family="Helvetica,sans-Serif" font-size="10.00">Service</text>
</a>
</g>
</g>
<!-- Node8&#45;&gt;Node9 -->
<g id="edge9_Node000008_Node000009" class="edge">
<title>Node8&#45;&gt;Node9</title>
<g id="a_edge9_Node000008_Node000009"><a xlink:title=" ">
<path fill="none" stroke="#63b8ff" d="M1165.63,-255C1177.95,-255 1190.55,-255 1202.88,-255"/>
<polygon fill="#63b8ff" stroke="#63b8ff" points="1165.91,-251.5 1155.91,-255 1165.91,-258.5 1165.91,-251.5"/>
</a>
</g>
</g>
<!-- Node12 -->
<g id="Node000012" class="node">
<title>Node12</title>
<g id="a_Node000012"><a xlink:href="../../dd/d2b/class_deluxe_1_1_deluxe_brand_center_1_1_a_m_m_1_1_a_p_i_1_1_services_1_1_campaign_element_service.html" target="_top" xlink:title=" ">
<polygon fill="white" stroke="#666666" points="1157,-165 973.75,-165 973.75,-121 1157,-121 1157,-165"/>
<text text-anchor="start" x="981.75" y="-151.5" font-family="Helvetica,sans-Serif" font-size="10.00">Deluxe.DeluxeBrandCenter.</text>
<text text-anchor="start" x="981.75" y="-139.5" font-family="Helvetica,sans-Serif" font-size="10.00">AMM.API.Services.CampaignElement</text>
<text text-anchor="middle" x="1065.38" y="-127.5" font-family="Helvetica,sans-Serif" font-size="10.00">Service</text>
</a>
</g>
</g>
<!-- Node11&#45;&gt;Node12 -->
<g id="edge12_Node000011_Node000012" class="edge">
<title>Node11&#45;&gt;Node12</title>
<g id="a_edge12_Node000011_Node000012"><a xlink:title=" ">
<path fill="none" stroke="#63b8ff" d="M939.53,-144.54C950.98,-144.4 962.47,-144.26 973.59,-144.12"/>
<polygon fill="#63b8ff" stroke="#63b8ff" points="939.57,-141.04 929.62,-144.66 939.66,-148.04 939.57,-141.04"/>
</a>
</g>
</g>
<!-- Node14 -->
<g id="Node000014" class="node">
<title>Node14</title>
<g id="a_Node000014"><a xlink:href="../../d7/d3d/class_deluxe_1_1_deluxe_brand_center_1_1_a_m_m_1_1_a_p_i_1_1_services_1_1_campaign_service.html" target="_top" xlink:title=" ">
<polygon fill="white" stroke="#666666" points="1155.5,-100 975.25,-100 975.25,-68 1155.5,-68 1155.5,-100"/>
<text text-anchor="start" x="983.25" y="-86.5" font-family="Helvetica,sans-Serif" font-size="10.00">Deluxe.DeluxeBrandCenter.</text>
<text text-anchor="middle" x="1065.38" y="-74.5" font-family="Helvetica,sans-Serif" font-size="10.00">AMM.API.Services.CampaignService</text>
</a>
</g>
</g>
<!-- Node13&#45;&gt;Node14 -->
<g id="edge14_Node000013_Node000014" class="edge">
<title>Node13&#45;&gt;Node14</title>
<g id="a_edge14_Node000013_Node000014"><a xlink:title=" ">
<path fill="none" stroke="#63b8ff" d="M922.03,-84C939.59,-84 957.75,-84 974.98,-84"/>
<polygon fill="#63b8ff" stroke="#63b8ff" points="922.1,-80.5 912.1,-84 922.1,-87.5 922.1,-80.5"/>
</a>
</g>
</g>
<!-- Node16 -->
<g id="Node000016" class="node">
<title>Node16</title>
<g id="a_Node000016"><a xlink:href="../../d3/d4f/class_deluxe_1_1_deluxe_brand_center_1_1_a_m_m_1_1_a_p_i_1_1_services_1_1_settings_service.html" target="_top" xlink:title=" ">
<polygon fill="white" stroke="#666666" points="1151.38,-38 979.38,-38 979.38,-6 1151.38,-6 1151.38,-38"/>
<text text-anchor="start" x="987.38" y="-24.5" font-family="Helvetica,sans-Serif" font-size="10.00">Deluxe.DeluxeBrandCenter.</text>
<text text-anchor="middle" x="1065.38" y="-12.5" font-family="Helvetica,sans-Serif" font-size="10.00">AMM.API.Services.SettingsService</text>
</a>
</g>
</g>
<!-- Node15&#45;&gt;Node16 -->
<g id="edge16_Node000015_Node000016" class="edge">
<title>Node15&#45;&gt;Node16</title>
<g id="a_edge16_Node000015_Node000016"><a xlink:title=" ">
<path fill="none" stroke="#63b8ff" d="M921.97,-22C940.94,-22 960.59,-22 979.02,-22"/>
<polygon fill="#63b8ff" stroke="#63b8ff" points="922.1,-18.5 912.1,-22 922.1,-25.5 922.1,-18.5"/>
</a>
</g>
</g>
</g>
</svg>
