<?xml version="1.0" encoding="UTF-8" standalone="no"?>
<!DOCTYPE svg PUBLIC "-//W3C//DTD SVG 1.1//EN"
 "http://www.w3.org/Graphics/SVG/1.1/DTD/svg11.dtd">
<!-- Generated by graphviz version 12.1.1 (20240910.0053)
 -->
<!-- Title: Deluxe.DeluxeBrandCenter.AMM.Domain.Utility.Util.String.ClearSpecialCharacters Pages: 1 -->
<svg width="594pt" height="183pt"
 viewBox="0.00 0.00 593.75 183.00" xmlns="http://www.w3.org/2000/svg" xmlns:xlink="http://www.w3.org/1999/xlink">
<g id="graph0" class="graph" transform="scale(1 1) rotate(0) translate(4 179)">
<title>Deluxe.DeluxeBrandCenter.AMM.Domain.Utility.Util.String.ClearSpecialCharacters</title>
<!-- Node1 -->
<g id="Node000001" class="node">
<title>Node1</title>
<g id="a_Node000001"><a xlink:title="replace Cr, Lf, CrLf with space">
<polygon fill="#999999" stroke="#666666" points="585.75,-88 432.5,-88 432.5,-44 585.75,-44 585.75,-88"/>
<text text-anchor="start" x="440.5" y="-74.5" font-family="Helvetica,sans-Serif" font-size="10.00">Deluxe.DeluxeBrandCenter.</text>
<text text-anchor="start" x="440.5" y="-62.5" font-family="Helvetica,sans-Serif" font-size="10.00">AMM.Domain.Utility.Util.String.</text>
<text text-anchor="middle" x="509.12" y="-50.5" font-family="Helvetica,sans-Serif" font-size="10.00">ClearSpecialCharacters</text>
</a>
</g>
</g>
<!-- Node2 -->
<g id="Node000002" class="node">
<title>Node2</title>
<g id="a_Node000002"><a xlink:href="../../d5/d64/class_deluxe_1_1_deluxe_brand_center_1_1_a_m_m_1_1_infrastructure_1_1_mindfire_1_1_contact_service_m_f.html#ac18804fb921ab3fc3dd48f4e64211aea" target="_top" xlink:title=" ">
<polygon fill="white" stroke="#666666" points="391.25,-144 216.25,-144 216.25,-100 391.25,-100 391.25,-144"/>
<text text-anchor="start" x="224.25" y="-130.5" font-family="Helvetica,sans-Serif" font-size="10.00">Deluxe.DeluxeBrandCenter.</text>
<text text-anchor="start" x="224.25" y="-118.5" font-family="Helvetica,sans-Serif" font-size="10.00">AMM.Infrastructure.Mindfire.Contact</text>
<text text-anchor="middle" x="303.75" y="-106.5" font-family="Helvetica,sans-Serif" font-size="10.00">ServiceMF.Serialize</text>
</a>
</g>
</g>
<!-- Node1&#45;&gt;Node2 -->
<g id="edge1_Node000001_Node000002" class="edge">
<title>Node1&#45;&gt;Node2</title>
<g id="a_edge1_Node000001_Node000002"><a xlink:title=" ">
<path fill="none" stroke="#63b8ff" d="M421.08,-89.97C409.48,-93.16 397.62,-96.43 386.12,-99.59"/>
<polygon fill="#63b8ff" stroke="#63b8ff" points="421.94,-93.36 430.65,-87.33 420.08,-86.61 421.94,-93.36"/>
</a>
</g>
</g>
<!-- Node5 -->
<g id="Node000005" class="node">
<title>Node5</title>
<g id="a_Node000005"><a xlink:href="../../d0/d2a/class_deluxe_1_1_deluxe_brand_center_1_1_a_m_m_1_1_domain_1_1_utility_1_1_c_s_v_table.html#a61a669c0d64655a5ae12c288fd4a338a" target="_top" xlink:title=" ">
<polygon fill="white" stroke="#666666" points="396.5,-82 211,-82 211,-50 396.5,-50 396.5,-82"/>
<text text-anchor="start" x="219" y="-68.5" font-family="Helvetica,sans-Serif" font-size="10.00">Deluxe.DeluxeBrandCenter.</text>
<text text-anchor="middle" x="303.75" y="-56.5" font-family="Helvetica,sans-Serif" font-size="10.00">AMM.Domain.Utility.CSVTable.ToCSV</text>
</a>
</g>
</g>
<!-- Node1&#45;&gt;Node5 -->
<g id="edge4_Node000001_Node000005" class="edge">
<title>Node1&#45;&gt;Node5</title>
<g id="a_edge4_Node000001_Node000005"><a xlink:title=" ">
<path fill="none" stroke="#63b8ff" d="M420.65,-66C412.76,-66 404.75,-66 396.82,-66"/>
<polygon fill="#63b8ff" stroke="#63b8ff" points="420.59,-69.5 430.59,-66 420.59,-62.5 420.59,-69.5"/>
</a>
</g>
</g>
<!-- Node6 -->
<g id="Node000006" class="node">
<title>Node6</title>
<g id="a_Node000006"><a xlink:href="../../d0/d2a/class_deluxe_1_1_deluxe_brand_center_1_1_a_m_m_1_1_domain_1_1_utility_1_1_c_s_v_table.html#a408c2dd551810e7601699729a43554f1" target="_top" xlink:title="To csv.">
<polygon fill="white" stroke="#666666" points="396.5,-32 211,-32 211,0 396.5,0 396.5,-32"/>
<text text-anchor="start" x="219" y="-18.5" font-family="Helvetica,sans-Serif" font-size="10.00">Deluxe.DeluxeBrandCenter.</text>
<text text-anchor="middle" x="303.75" y="-6.5" font-family="Helvetica,sans-Serif" font-size="10.00">AMM.Domain.Utility.CSVTable.ToCSV</text>
</a>
</g>
</g>
<!-- Node1&#45;&gt;Node6 -->
<g id="edge5_Node000001_Node000006" class="edge">
<title>Node1&#45;&gt;Node6</title>
<g id="a_edge5_Node000001_Node000006"><a xlink:title=" ">
<path fill="none" stroke="#63b8ff" d="M421.29,-44.65C404.67,-40.57 387.52,-36.35 371.65,-32.45"/>
<polygon fill="#63b8ff" stroke="#63b8ff" points="420.09,-47.96 430.64,-46.95 421.76,-41.16 420.09,-47.96"/>
</a>
</g>
</g>
<!-- Node3 -->
<g id="Node000003" class="node">
<title>Node3</title>
<g id="a_Node000003"><a xlink:href="../../d5/d64/class_deluxe_1_1_deluxe_brand_center_1_1_a_m_m_1_1_infrastructure_1_1_mindfire_1_1_contact_service_m_f.html#af6669e069c41d8097dbd1e5cdc45632e" target="_top" xlink:title=" ">
<polygon fill="white" stroke="#666666" points="175,-175 0,-175 0,-131 175,-131 175,-175"/>
<text text-anchor="start" x="8" y="-161.5" font-family="Helvetica,sans-Serif" font-size="10.00">Deluxe.DeluxeBrandCenter.</text>
<text text-anchor="start" x="8" y="-149.5" font-family="Helvetica,sans-Serif" font-size="10.00">AMM.Infrastructure.Mindfire.Contact</text>
<text text-anchor="middle" x="87.5" y="-137.5" font-family="Helvetica,sans-Serif" font-size="10.00">ServiceMF.CreateContact</text>
</a>
</g>
</g>
<!-- Node2&#45;&gt;Node3 -->
<g id="edge2_Node000002_Node000003" class="edge">
<title>Node2&#45;&gt;Node3</title>
<g id="a_edge2_Node000002_Node000003"><a xlink:title=" ">
<path fill="none" stroke="#63b8ff" d="M204.58,-136.2C194.86,-137.61 185.05,-139.03 175.46,-140.42"/>
<polygon fill="#63b8ff" stroke="#63b8ff" points="205.02,-139.68 214.42,-134.78 204.02,-132.75 205.02,-139.68"/>
</a>
</g>
</g>
<!-- Node4 -->
<g id="Node000004" class="node">
<title>Node4</title>
<g id="a_Node000004"><a xlink:href="../../d5/d64/class_deluxe_1_1_deluxe_brand_center_1_1_a_m_m_1_1_infrastructure_1_1_mindfire_1_1_contact_service_m_f.html#aa5b91c0f0da7eb6c81f4a05ae8cd241f" target="_top" xlink:title=" ">
<polygon fill="white" stroke="#666666" points="175,-113 0,-113 0,-69 175,-69 175,-113"/>
<text text-anchor="start" x="8" y="-99.5" font-family="Helvetica,sans-Serif" font-size="10.00">Deluxe.DeluxeBrandCenter.</text>
<text text-anchor="start" x="8" y="-87.5" font-family="Helvetica,sans-Serif" font-size="10.00">AMM.Infrastructure.Mindfire.Contact</text>
<text text-anchor="middle" x="87.5" y="-75.5" font-family="Helvetica,sans-Serif" font-size="10.00">ServiceMF.UpdateContact</text>
</a>
</g>
</g>
<!-- Node2&#45;&gt;Node4 -->
<g id="edge3_Node000002_Node000004" class="edge">
<title>Node2&#45;&gt;Node4</title>
<g id="a_edge3_Node000002_Node000004"><a xlink:title=" ">
<path fill="none" stroke="#63b8ff" d="M204.58,-107.8C194.86,-106.39 185.05,-104.97 175.46,-103.58"/>
<polygon fill="#63b8ff" stroke="#63b8ff" points="204.02,-111.25 214.42,-109.22 205.02,-104.32 204.02,-111.25"/>
</a>
</g>
</g>
</g>
</svg>
