<?xml version="1.0" encoding="UTF-8" standalone="no"?>
<!DOCTYPE svg PUBLIC "-//W3C//DTD SVG 1.1//EN"
 "http://www.w3.org/Graphics/SVG/1.1/DTD/svg11.dtd">
<!-- Generated by graphviz version 12.1.1 (20240910.0053)
 -->
<!-- Title: Deluxe.DeluxeBrandCenter.AMM.Domain.Enums.StateHelper.GetName Pages: 1 -->
<svg width="437pt" height="176pt"
 viewBox="0.00 0.00 436.75 176.00" xmlns="http://www.w3.org/2000/svg" xmlns:xlink="http://www.w3.org/1999/xlink">
<g id="graph0" class="graph" transform="scale(1 1) rotate(0) translate(4 172)">
<title>Deluxe.DeluxeBrandCenter.AMM.Domain.Enums.StateHelper.GetName</title>
<!-- Node1 -->
<g id="Node000001" class="node">
<title>Node1</title>
<g id="a_Node000001"><a xlink:title=" ">
<polygon fill="#999999" stroke="#666666" points="428.75,-100 219.25,-100 219.25,-68 428.75,-68 428.75,-100"/>
<text text-anchor="start" x="227.25" y="-86.5" font-family="Helvetica,sans-Serif" font-size="10.00">Deluxe.DeluxeBrandCenter.</text>
<text text-anchor="middle" x="324" y="-74.5" font-family="Helvetica,sans-Serif" font-size="10.00">AMM.Domain.Enums.StateHelper.GetName</text>
</a>
</g>
</g>
<!-- Node2 -->
<g id="Node000002" class="node">
<title>Node2</title>
<g id="a_Node000002"><a xlink:href="../../d6/da7/class_deluxe_1_1_deluxe_brand_center_1_1_a_m_m_1_1_domain_1_1_enums_1_1_state_helper.html#a52a588426a6b0a77a6abc81e13ea17bb" target="_top" xlink:title=" ">
<polygon fill="white" stroke="#666666" points="183.25,-168 0,-168 0,-124 183.25,-124 183.25,-168"/>
<text text-anchor="start" x="8" y="-154.5" font-family="Helvetica,sans-Serif" font-size="10.00">Deluxe.DeluxeBrandCenter.</text>
<text text-anchor="start" x="8" y="-142.5" font-family="Helvetica,sans-Serif" font-size="10.00">AMM.Domain.Enums.StateHelper.Get</text>
<text text-anchor="middle" x="91.62" y="-130.5" font-family="Helvetica,sans-Serif" font-size="10.00">ByName</text>
</a>
</g>
</g>
<!-- Node1&#45;&gt;Node2 -->
<g id="edge1_Node000001_Node000002" class="edge">
<title>Node1&#45;&gt;Node2</title>
<g id="a_edge1_Node000001_Node000002"><a xlink:title=" ">
<path fill="none" stroke="#63b8ff" d="M250.85,-103.42C227.15,-109.79 200.63,-116.93 176.16,-123.52"/>
<polygon fill="#63b8ff" stroke="#63b8ff" points="251.66,-106.82 260.41,-100.85 249.84,-100.06 251.66,-106.82"/>
</a>
</g>
</g>
<!-- Node3 -->
<g id="Node000003" class="node">
<title>Node3</title>
<g id="a_Node000003"><a xlink:href="../../d6/da7/class_deluxe_1_1_deluxe_brand_center_1_1_a_m_m_1_1_domain_1_1_enums_1_1_state_helper.html#a789f59fdf0663dfdc3dd7eb4952721a1" target="_top" xlink:title=" ">
<polygon fill="white" stroke="#666666" points="183.25,-106 0,-106 0,-62 183.25,-62 183.25,-106"/>
<text text-anchor="start" x="8" y="-92.5" font-family="Helvetica,sans-Serif" font-size="10.00">Deluxe.DeluxeBrandCenter.</text>
<text text-anchor="start" x="8" y="-80.5" font-family="Helvetica,sans-Serif" font-size="10.00">AMM.Domain.Enums.StateHelper.Get</text>
<text text-anchor="middle" x="91.62" y="-68.5" font-family="Helvetica,sans-Serif" font-size="10.00">ForSelectList</text>
</a>
</g>
</g>
<!-- Node1&#45;&gt;Node3 -->
<g id="edge2_Node000001_Node000003" class="edge">
<title>Node1&#45;&gt;Node3</title>
<g id="a_edge2_Node000001_Node000003"><a xlink:title=" ">
<path fill="none" stroke="#63b8ff" d="M207.56,-84C199.5,-84 191.45,-84 183.55,-84"/>
<polygon fill="#63b8ff" stroke="#63b8ff" points="207.42,-87.5 217.42,-84 207.42,-80.5 207.42,-87.5"/>
</a>
</g>
</g>
<!-- Node4 -->
<g id="Node000004" class="node">
<title>Node4</title>
<g id="a_Node000004"><a xlink:href="../../d6/da7/class_deluxe_1_1_deluxe_brand_center_1_1_a_m_m_1_1_domain_1_1_enums_1_1_state_helper.html#a25af2ab5e3e6d6560ac07a1dc6d75da9" target="_top" xlink:title=" ">
<polygon fill="white" stroke="#666666" points="183.25,-44 0,-44 0,0 183.25,0 183.25,-44"/>
<text text-anchor="start" x="8" y="-30.5" font-family="Helvetica,sans-Serif" font-size="10.00">Deluxe.DeluxeBrandCenter.</text>
<text text-anchor="start" x="8" y="-18.5" font-family="Helvetica,sans-Serif" font-size="10.00">AMM.Domain.Enums.StateHelper.Get</text>
<text text-anchor="middle" x="91.62" y="-6.5" font-family="Helvetica,sans-Serif" font-size="10.00">NameByDisplayName</text>
</a>
</g>
</g>
<!-- Node1&#45;&gt;Node4 -->
<g id="edge3_Node000001_Node000004" class="edge">
<title>Node1&#45;&gt;Node4</title>
<g id="a_edge3_Node000001_Node000004"><a xlink:title=" ">
<path fill="none" stroke="#63b8ff" d="M250.85,-64.58C227.15,-58.21 200.63,-51.07 176.16,-44.48"/>
<polygon fill="#63b8ff" stroke="#63b8ff" points="249.84,-67.94 260.41,-67.15 251.66,-61.18 249.84,-67.94"/>
</a>
</g>
</g>
</g>
</svg>
