<?xml version="1.0" encoding="UTF-8" standalone="no"?>
<!DOCTYPE svg PUBLIC "-//W3C//DTD SVG 1.1//EN"
 "http://www.w3.org/Graphics/SVG/1.1/DTD/svg11.dtd">
<!-- Generated by graphviz version 12.1.1 (20240910.0053)
 -->
<!-- Title: Deluxe.DeluxeBrandCenter.AMM.Domain.DataModel.AccountStatus Pages: 1 -->
<svg width="248pt" height="264pt"
 viewBox="0.00 0.00 248.38 264.00" xmlns="http://www.w3.org/2000/svg" xmlns:xlink="http://www.w3.org/1999/xlink">

<svg id="main" version="1.1" xmlns="http://www.w3.org/2000/svg" xmlns:xlink="http://www.w3.org/1999/xlink" xml:space="preserve">

<style type="text/css"><![CDATA[
.node, .edge {opacity: 0.7;}
.node.selected, .edge.selected {opacity: 1;}
.edge:hover path { stroke: red; }
.edge:hover polygon { stroke: red; fill: red; }
]]></style>
<script type="application/ecmascript" xlink:href="../../svg.min.js"/>
<svg id="graph" class="graph">
<g id="graph0" class="graph" transform="scale(1 1) rotate(0) translate(4 260)">
<title>Deluxe.DeluxeBrandCenter.AMM.Domain.DataModel.AccountStatus</title>
<!-- Node1 -->
<g id="Node000001" class="node">
<title>Node1</title>
<g id="a_Node000001"><a xlink:title=" ">
<polygon fill="#999999" stroke="#666666" points="211,-32 17.25,-32 17.25,0 211,0 211,-32"/>
<text text-anchor="start" x="25.25" y="-18.5" font-family="Helvetica,sans-Serif" font-size="10.00">Deluxe.DeluxeBrandCenter.</text>
<text text-anchor="middle" x="114.12" y="-6.5" font-family="Helvetica,sans-Serif" font-size="10.00">AMM.Domain.DataModel.AccountStatus</text>
</a>
</g>
</g>
<!-- Node2 -->
<g id="Node000002" class="node">
<title>Node2</title>
<g id="a_Node000002"><a xlink:href="../../d4/d1a/class_deluxe_1_1_deluxe_brand_center_1_1_a_m_m_1_1_domain_1_1_data_model_1_1_base_entity_named.html" target="_top" xlink:title=" ">
<polygon fill="white" stroke="#666666" points="161.88,-88 66.38,-88 66.38,-68 161.88,-68 161.88,-88"/>
<text text-anchor="middle" x="114.12" y="-74.5" font-family="Helvetica,sans-Serif" font-size="10.00">BaseEntityNamed</text>
</a>
</g>
</g>
<!-- Node2&#45;&gt;Node1 -->
<g id="edge1_Node000001_Node000002" class="edge">
<title>Node2&#45;&gt;Node1</title>
<g id="a_edge1_Node000001_Node000002"><a xlink:title=" ">
<path fill="none" stroke="#63b8ff" d="M114.12,-56.31C114.12,-48.37 114.12,-39.46 114.12,-32.14"/>
<polygon fill="#63b8ff" stroke="#63b8ff" points="110.63,-56.11 114.13,-66.11 117.63,-56.11 110.63,-56.11"/>
</a>
</g>
</g>
<!-- Node3 -->
<g id="Node000003" class="node">
<title>Node3</title>
<g id="a_Node000003"><a xlink:href="../../d7/d1c/class_deluxe_1_1_deluxe_brand_center_1_1_a_m_m_1_1_domain_1_1_data_model_1_1_base_entity.html" target="_top" xlink:title=" ">
<polygon fill="white" stroke="#666666" points="86.12,-144 22.12,-144 22.12,-124 86.12,-124 86.12,-144"/>
<text text-anchor="middle" x="54.12" y="-130.5" font-family="Helvetica,sans-Serif" font-size="10.00">BaseEntity</text>
</a>
</g>
</g>
<!-- Node3&#45;&gt;Node2 -->
<g id="edge2_Node000002_Node000003" class="edge">
<title>Node3&#45;&gt;Node2</title>
<g id="a_edge2_Node000002_Node000003"><a xlink:title=" ">
<path fill="none" stroke="#63b8ff" d="M72.87,-116.13C83.08,-106.94 95.31,-95.93 103.79,-88.3"/>
<polygon fill="#63b8ff" stroke="#63b8ff" points="70.79,-113.29 65.7,-122.58 75.48,-118.49 70.79,-113.29"/>
</a>
</g>
</g>
<!-- Node4 -->
<g id="Node000004" class="node">
<title>Node4</title>
<g id="a_Node000004"><a xlink:href="../../d6/df6/class_deluxe_1_1_deluxe_brand_center_1_1_a_m_m_1_1_domain_1_1_data_model_1_1_modified_entity.html" target="_top" xlink:title=" ">
<polygon fill="white" stroke="#666666" points="78.25,-200 0,-200 0,-180 78.25,-180 78.25,-200"/>
<text text-anchor="middle" x="39.12" y="-186.5" font-family="Helvetica,sans-Serif" font-size="10.00">ModifiedEntity</text>
</a>
</g>
</g>
<!-- Node4&#45;&gt;Node3 -->
<g id="edge3_Node000003_Node000004" class="edge">
<title>Node4&#45;&gt;Node3</title>
<g id="a_edge3_Node000003_Node000004"><a xlink:title=" ">
<path fill="none" stroke="#63b8ff" d="M44.76,-168.71C47.09,-160.32 49.68,-151.01 51.54,-144.3"/>
<polygon fill="#63b8ff" stroke="#63b8ff" points="41.45,-167.56 42.14,-178.14 48.19,-169.44 41.45,-167.56"/>
</a>
</g>
</g>
<!-- Node5 -->
<g id="Node000005" class="node">
<title>Node5</title>
<g id="a_Node000005"><a xlink:href="../../d6/dad/interface_deluxe_1_1_deluxe_brand_center_1_1_a_m_m_1_1_domain_1_1_data_model_1_1_interface_1_1_i_modified.html" target="_top" xlink:title=" ">
<polygon fill="white" stroke="#666666" points="112,-256 56.25,-256 56.25,-236 112,-236 112,-256"/>
<text text-anchor="middle" x="84.12" y="-242.5" font-family="Helvetica,sans-Serif" font-size="10.00">IModified</text>
</a>
</g>
</g>
<!-- Node5&#45;&gt;Node4 -->
<g id="edge4_Node000004_Node000005" class="edge">
<title>Node5&#45;&gt;Node4</title>
<g id="a_edge4_Node000004_Node000005"><a xlink:title=" ">
<path fill="none" stroke="#63b8ff" d="M69.13,-227C61.67,-218.06 52.98,-207.62 46.87,-200.3"/>
<polygon fill="#63b8ff" stroke="#63b8ff" points="66.23,-228.99 75.32,-234.43 71.6,-224.51 66.23,-228.99"/>
</a>
</g>
</g>
<!-- Node6 -->
<g id="Node000006" class="node">
<title>Node6</title>
<g id="a_Node000006"><a xlink:href="../../d5/d26/interface_deluxe_1_1_deluxe_brand_center_1_1_a_m_m_1_1_domain_1_1_data_model_1_1_interface_1_1_i_base_entity.html" target="_top" xlink:title=" ">
<polygon fill="white" stroke="#666666" points="163.62,-200 96.62,-200 96.62,-180 163.62,-180 163.62,-200"/>
<text text-anchor="middle" x="130.12" y="-186.5" font-family="Helvetica,sans-Serif" font-size="10.00">IBaseEntity</text>
</a>
</g>
</g>
<!-- Node5&#45;&gt;Node6 -->
<g id="edge6_Node000006_Node000005" class="edge">
<title>Node5&#45;&gt;Node6</title>
<g id="a_edge6_Node000006_Node000005"><a xlink:title=" ">
<path fill="none" stroke="#63b8ff" d="M99.46,-227C107.08,-218.06 115.96,-207.62 122.2,-200.3"/>
<polygon fill="#63b8ff" stroke="#63b8ff" points="96.94,-224.56 93.12,-234.44 102.27,-229.1 96.94,-224.56"/>
</a>
</g>
</g>
<!-- Node6&#45;&gt;Node2 -->
<g id="edge9_Node000002_Node000006" class="edge">
<title>Node6&#45;&gt;Node2</title>
<g id="a_edge9_Node000002_Node000006"><a xlink:title=" ">
<path fill="none" stroke="#63b8ff" d="M127.12,-168.31C123.63,-144.36 118.05,-105.95 115.49,-88.35"/>
<polygon fill="#63b8ff" stroke="#63b8ff" points="123.64,-168.73 128.54,-178.12 130.57,-167.72 123.64,-168.73"/>
</a>
</g>
</g>
<!-- Node6&#45;&gt;Node3 -->
<g id="edge5_Node000003_Node000006" class="edge">
<title>Node6&#45;&gt;Node3</title>
<g id="a_edge5_Node000003_Node000006"><a xlink:title=" ">
<path fill="none" stroke="#63b8ff" d="M107.6,-173C94.55,-163.72 78.55,-152.35 67.47,-144.48"/>
<polygon fill="#63b8ff" stroke="#63b8ff" points="105.47,-175.78 115.65,-178.72 109.53,-170.07 105.47,-175.78"/>
</a>
</g>
</g>
<!-- Node7 -->
<g id="Node000007" class="node">
<title>Node7</title>
<g id="a_Node000007"><a xlink:href="../../d9/dec/interface_deluxe_1_1_deluxe_brand_center_1_1_a_m_m_1_1_domain_1_1_data_model_1_1_interface_1_1_i_base_entity_named.html" target="_top" xlink:title=" ">
<polygon fill="white" stroke="#666666" points="240.38,-144 141.88,-144 141.88,-124 240.38,-124 240.38,-144"/>
<text text-anchor="middle" x="191.12" y="-130.5" font-family="Helvetica,sans-Serif" font-size="10.00">IBaseEntityNamed</text>
</a>
</g>
</g>
<!-- Node6&#45;&gt;Node7 -->
<g id="edge8_Node000007_Node000006" class="edge">
<title>Node6&#45;&gt;Node7</title>
<g id="a_edge8_Node000007_Node000006"><a xlink:title=" ">
<path fill="none" stroke="#63b8ff" d="M149.19,-172.13C159.56,-162.94 172,-151.93 180.62,-144.3"/>
<polygon fill="#63b8ff" stroke="#63b8ff" points="147.05,-169.34 141.88,-178.59 151.69,-174.58 147.05,-169.34"/>
</a>
</g>
</g>
<!-- Node7&#45;&gt;Node2 -->
<g id="edge7_Node000002_Node000007" class="edge">
<title>Node7&#45;&gt;Node2</title>
<g id="a_edge7_Node000002_Node000007"><a xlink:title=" ">
<path fill="none" stroke="#63b8ff" d="M168.31,-117C155.08,-107.72 138.87,-96.35 127.64,-88.48"/>
<polygon fill="#63b8ff" stroke="#63b8ff" points="166.28,-119.85 176.47,-122.72 170.3,-114.12 166.28,-119.85"/>
</a>
</g>
</g>
</g>
</svg>
</svg>

<style type='text/css'>
<![CDATA[
[data-mouse-over-selected='false'] { opacity: 0.7; }
[data-mouse-over-selected='true']  { opacity: 1.0; }
]]>
</style>
<script type="application/ecmascript"><![CDATA[
document.addEventListener('DOMContentLoaded', (event) => {
  highlightEdges();
  highlightAdjacentNodes();
});
]]></script>
</svg>
