<?xml version="1.0" encoding="UTF-8" standalone="no"?>
<!DOCTYPE svg PUBLIC "-//W3C//DTD SVG 1.1//EN"
 "http://www.w3.org/Graphics/SVG/1.1/DTD/svg11.dtd">
<!-- Generated by graphviz version 12.1.1 (20240910.0053)
 -->
<!-- Title: Deluxe.DeluxeBrandCenter.AMM.API.Services.CampaignBuilderService Pages: 1 -->
<svg width="1638pt" height="732pt"
 viewBox="0.00 0.00 1638.25 732.00" xmlns="http://www.w3.org/2000/svg" xmlns:xlink="http://www.w3.org/1999/xlink">
<g id="graph0" class="graph" transform="scale(1 1) rotate(0) translate(4 728)">
<title>Deluxe.DeluxeBrandCenter.AMM.API.Services.CampaignBuilderService</title>
<!-- Node1 -->
<g id="Node000001" class="node">
<title>Node1</title>
<g id="a_Node000001"><a xlink:title=" ">
<polygon fill="#999999" stroke="#666666" points="1630.25,-392 1453,-392 1453,-348 1630.25,-348 1630.25,-392"/>
<text text-anchor="start" x="1461" y="-378.5" font-family="Helvetica,sans-Serif" font-size="10.00">Deluxe.DeluxeBrandCenter.</text>
<text text-anchor="start" x="1461" y="-366.5" font-family="Helvetica,sans-Serif" font-size="10.00">AMM.API.Services.CampaignBuilder</text>
<text text-anchor="middle" x="1541.62" y="-354.5" font-family="Helvetica,sans-Serif" font-size="10.00">Service</text>
</a>
</g>
</g>
<!-- Node2 -->
<g id="Node000002" class="node">
<title>Node2</title>
<g id="a_Node000002"><a xlink:href="../../dd/dd8/class_deluxe_1_1_deluxe_brand_center_1_1_a_m_m_1_1_a_p_i_1_1_services_1_1_named_db_service.html" target="_top" xlink:title=" ">
<polygon fill="white" stroke="#666666" points="1289.88,-692 1119.38,-692 1119.38,-660 1289.88,-660 1289.88,-692"/>
<text text-anchor="start" x="1127.38" y="-678.5" font-family="Helvetica,sans-Serif" font-size="10.00">NamedDbService&lt; UserCampaign,</text>
<text text-anchor="middle" x="1204.62" y="-666.5" font-family="Helvetica,sans-Serif" font-size="10.00"> UserCampaignVM &gt;</text>
</a>
</g>
</g>
<!-- Node2&#45;&gt;Node1 -->
<g id="edge1_Node000001_Node000002" class="edge">
<title>Node2&#45;&gt;Node1</title>
<g id="a_edge1_Node000001_Node000002"><a xlink:title=" ">
<path fill="none" stroke="#63b8ff" d="M1301.54,-676.95C1346.46,-672.72 1398.08,-660.56 1435,-630 1510.44,-567.56 1532.53,-442.89 1538.54,-392.2"/>
<polygon fill="#63b8ff" stroke="#63b8ff" points="1301.47,-673.44 1291.79,-677.74 1302.03,-680.42 1301.47,-673.44"/>
</a>
</g>
</g>
<!-- Node3 -->
<g id="Node000003" class="node">
<title>Node3</title>
<g id="a_Node000003"><a xlink:href="../../dd/dd8/class_deluxe_1_1_deluxe_brand_center_1_1_a_m_m_1_1_a_p_i_1_1_services_1_1_named_db_service.html" target="_top" xlink:title=" ">
<polygon fill="white" stroke="#666666" points="903,-668 722.75,-668 722.75,-624 903,-624 903,-668"/>
<text text-anchor="start" x="730.75" y="-654.5" font-family="Helvetica,sans-Serif" font-size="10.00">Deluxe.DeluxeBrandCenter.</text>
<text text-anchor="start" x="730.75" y="-642.5" font-family="Helvetica,sans-Serif" font-size="10.00">AMM.API.Services.NamedDbService</text>
<text text-anchor="middle" x="812.88" y="-630.5" font-family="Helvetica,sans-Serif" font-size="10.00">&lt; TModel, TModelVM &gt;</text>
</a>
</g>
</g>
<!-- Node3&#45;&gt;Node2 -->
<g id="edge2_Node000002_Node000003" class="edge">
<title>Node3&#45;&gt;Node2</title>
<g id="a_edge2_Node000002_Node000003"><a xlink:title=" ">
<path fill="none" stroke="orange" stroke-dasharray="5,2" d="M914.52,-653.75C977.92,-658.63 1058.86,-664.86 1118.97,-669.48"/>
<polygon fill="orange" stroke="orange" points="915.04,-650.28 904.8,-653 914.5,-657.26 915.04,-650.28"/>
</a>
</g>
<text text-anchor="middle" x="1007.25" y="-669.64" font-family="Helvetica,sans-Serif" font-size="10.00" fill="grey"> &lt; UserCampaign, UserCampaignVM &gt;</text>
</g>
<!-- Node4 -->
<g id="Node000004" class="node">
<title>Node4</title>
<g id="a_Node000004"><a xlink:href="../../d6/d4e/class_deluxe_1_1_deluxe_brand_center_1_1_a_m_m_1_1_a_p_i_1_1_services_1_1_d_b_service.html" target="_top" xlink:title=" ">
<polygon fill="white" stroke="#666666" points="476,-662 369.25,-662 369.25,-630 476,-630 476,-662"/>
<text text-anchor="start" x="377.25" y="-648.5" font-family="Helvetica,sans-Serif" font-size="10.00">DBService&lt; TModel,</text>
<text text-anchor="middle" x="422.62" y="-636.5" font-family="Helvetica,sans-Serif" font-size="10.00"> TModelVM &gt;</text>
</a>
</g>
</g>
<!-- Node4&#45;&gt;Node3 -->
<g id="edge3_Node000003_Node000004" class="edge">
<title>Node4&#45;&gt;Node3</title>
<g id="a_edge3_Node000003_Node000004"><a xlink:title=" ">
<path fill="none" stroke="#63b8ff" d="M487.52,-646C551.51,-646 650.53,-646 722.34,-646"/>
<polygon fill="#63b8ff" stroke="#63b8ff" points="487.9,-642.5 477.9,-646 487.9,-649.5 487.9,-642.5"/>
</a>
</g>
</g>
<!-- Node5 -->
<g id="Node000005" class="node">
<title>Node5</title>
<g id="a_Node000005"><a xlink:href="../../d3/ddb/interface_deluxe_1_1_deluxe_brand_center_1_1_a_m_m_1_1_a_p_i_1_1_services_1_1_i_d_b_service.html" target="_top" xlink:title=" ">
<polygon fill="white" stroke="#666666" points="150.62,-604 40.88,-604 40.88,-572 150.62,-572 150.62,-604"/>
<text text-anchor="start" x="48.88" y="-590.5" font-family="Helvetica,sans-Serif" font-size="10.00">IDBService&lt; TModel,</text>
<text text-anchor="middle" x="95.75" y="-578.5" font-family="Helvetica,sans-Serif" font-size="10.00"> TModelVM &gt;</text>
</a>
</g>
</g>
<!-- Node5&#45;&gt;Node4 -->
<g id="edge4_Node000004_Node000005" class="edge">
<title>Node5&#45;&gt;Node4</title>
<g id="a_edge4_Node000004_Node000005"><a xlink:title=" ">
<path fill="none" stroke="#63b8ff" d="M161.77,-599.61C222.59,-610.47 312.32,-626.49 368.83,-636.58"/>
<polygon fill="#63b8ff" stroke="#63b8ff" points="162.71,-596.22 152.25,-597.91 161.48,-603.11 162.71,-596.22"/>
</a>
</g>
</g>
<!-- Node8 -->
<g id="Node000008" class="node">
<title>Node8</title>
<g id="a_Node000008"><a xlink:href="../../d3/dac/interface_deluxe_1_1_deluxe_brand_center_1_1_a_m_m_1_1_a_p_i_1_1_services_1_1_i_named_db_service.html" target="_top" xlink:title=" ">
<polygon fill="white" stroke="#666666" points="492.5,-608 352.75,-608 352.75,-576 492.5,-576 492.5,-608"/>
<text text-anchor="start" x="360.75" y="-594.5" font-family="Helvetica,sans-Serif" font-size="10.00">INamedDbService&lt; TModel,</text>
<text text-anchor="middle" x="422.62" y="-582.5" font-family="Helvetica,sans-Serif" font-size="10.00"> TModelVM &gt;</text>
</a>
</g>
</g>
<!-- Node5&#45;&gt;Node8 -->
<g id="edge8_Node000008_Node000005" class="edge">
<title>Node5&#45;&gt;Node8</title>
<g id="a_edge8_Node000008_Node000005"><a xlink:title=" ">
<path fill="none" stroke="#63b8ff" d="M162.17,-588.81C217.39,-589.49 296.22,-590.46 352.47,-591.15"/>
<polygon fill="#63b8ff" stroke="#63b8ff" points="162.32,-585.31 152.27,-588.68 162.23,-592.31 162.32,-585.31"/>
</a>
</g>
</g>
<!-- Node11 -->
<g id="Node000011" class="node">
<title>Node11</title>
<g id="a_Node000011"><a xlink:href="../../d3/dac/interface_deluxe_1_1_deluxe_brand_center_1_1_a_m_m_1_1_a_p_i_1_1_services_1_1_i_named_db_service.html" target="_top" xlink:title=" ">
<polygon fill="white" stroke="#666666" points="514.25,-548 331,-548 331,-504 514.25,-504 514.25,-548"/>
<text text-anchor="start" x="339" y="-534.5" font-family="Helvetica,sans-Serif" font-size="10.00">Deluxe.DeluxeBrandCenter.</text>
<text text-anchor="start" x="339" y="-522.5" font-family="Helvetica,sans-Serif" font-size="10.00">AMM.API.Services.INamedDbService</text>
<text text-anchor="middle" x="422.62" y="-510.5" font-family="Helvetica,sans-Serif" font-size="10.00">&lt; TModel, TModelVM &gt;</text>
</a>
</g>
</g>
<!-- Node5&#45;&gt;Node11 -->
<g id="edge12_Node000011_Node000005" class="edge">
<title>Node5&#45;&gt;Node11</title>
<g id="a_edge12_Node000011_Node000005"><a xlink:title=" ">
<path fill="none" stroke="#63b8ff" d="M162.03,-575.54C210.41,-566.31 276.97,-553.61 330.58,-543.37"/>
<polygon fill="#63b8ff" stroke="#63b8ff" points="161.41,-572.1 152.25,-577.41 162.73,-578.97 161.41,-572.1"/>
</a>
</g>
</g>
<!-- Node6 -->
<g id="Node000006" class="node">
<title>Node6</title>
<g id="a_Node000006"><a xlink:href="../../da/d0c/interface_deluxe_1_1_deluxe_brand_center_1_1_a_m_m_1_1_infrastructure_1_1_social_1_1_i_social_network_service.html" target="_top" xlink:title=" ">
<polygon fill="white" stroke="#666666" points="177.25,-724 14.25,-724 14.25,-680 177.25,-680 177.25,-724"/>
<text text-anchor="start" x="22.25" y="-710.5" font-family="Helvetica,sans-Serif" font-size="10.00">Deluxe.DeluxeBrandCenter.</text>
<text text-anchor="start" x="22.25" y="-698.5" font-family="Helvetica,sans-Serif" font-size="10.00">AMM.Infrastructure.Social.ISocial</text>
<text text-anchor="middle" x="95.75" y="-686.5" font-family="Helvetica,sans-Serif" font-size="10.00">NetworkService</text>
</a>
</g>
</g>
<!-- Node6&#45;&gt;Node4 -->
<g id="edge5_Node000004_Node000006" class="edge">
<title>Node6&#45;&gt;Node4</title>
<g id="a_edge5_Node000004_Node000006"><a xlink:title=" ">
<path fill="none" stroke="#9a32cd" stroke-dasharray="5,2" d="M188.54,-686.18C246.78,-676.14 320.08,-663.5 368.77,-655.11"/>
<polygon fill="#9a32cd" stroke="#9a32cd" points="188.23,-682.68 178.97,-687.83 189.41,-689.58 188.23,-682.68"/>
</a>
</g>
<text text-anchor="middle" x="261.25" y="-684.79" font-family="Helvetica,sans-Serif" font-size="10.00" fill="grey"> _socialNetworkService</text>
</g>
<!-- Node7 -->
<g id="Node000007" class="node">
<title>Node7</title>
<g id="a_Node000007"><a xlink:href="../../dd/d7d/interface_deluxe_1_1_deluxe_brand_center_1_1_a_m_m_1_1_domain_1_1_services_1_1_i_session_service.html" target="_top" xlink:title=" ">
<polygon fill="white" stroke="#666666" points="191.5,-662 0,-662 0,-630 191.5,-630 191.5,-662"/>
<text text-anchor="start" x="8" y="-648.5" font-family="Helvetica,sans-Serif" font-size="10.00">Deluxe.DeluxeBrandCenter.</text>
<text text-anchor="middle" x="95.75" y="-636.5" font-family="Helvetica,sans-Serif" font-size="10.00">AMM.Domain.Services.ISessionService</text>
</a>
</g>
</g>
<!-- Node7&#45;&gt;Node4 -->
<g id="edge6_Node000004_Node000007" class="edge">
<title>Node7&#45;&gt;Node4</title>
<g id="a_edge6_Node000004_Node000007"><a xlink:title=" ">
<path fill="none" stroke="#9a32cd" stroke-dasharray="5,2" d="M202.94,-646C258.62,-646 324.35,-646 369.11,-646"/>
<polygon fill="#9a32cd" stroke="#9a32cd" points="203.1,-642.5 193.1,-646 203.1,-649.5 203.1,-642.5"/>
</a>
</g>
<text text-anchor="middle" x="261.25" y="-648.5" font-family="Helvetica,sans-Serif" font-size="10.00" fill="grey"> _sessionService</text>
</g>
<!-- Node8&#45;&gt;Node3 -->
<g id="edge7_Node000003_Node000008" class="edge">
<title>Node8&#45;&gt;Node3</title>
<g id="a_edge7_Node000003_Node000008"><a xlink:title=" ">
<path fill="none" stroke="#63b8ff" d="M503.77,-603.15C567.42,-612 656.38,-624.37 722.36,-633.55"/>
<polygon fill="#63b8ff" stroke="#63b8ff" points="504.47,-599.71 494.09,-601.8 503.51,-606.64 504.47,-599.71"/>
</a>
</g>
</g>
<!-- Node9 -->
<g id="Node000009" class="node">
<title>Node9</title>
<g id="a_Node000009"><a xlink:href="../../d6/d35/interface_deluxe_1_1_deluxe_brand_center_1_1_a_m_m_1_1_a_p_i_1_1_services_1_1_i_campaign_builder_service.html" target="_top" xlink:title=" ">
<polygon fill="white" stroke="#666666" points="1267.75,-480 1141.5,-480 1141.5,-460 1267.75,-460 1267.75,-480"/>
<text text-anchor="middle" x="1204.62" y="-466.5" font-family="Helvetica,sans-Serif" font-size="10.00">ICampaignBuilderService</text>
</a>
</g>
</g>
<!-- Node9&#45;&gt;Node1 -->
<g id="edge9_Node000001_Node000009" class="edge">
<title>Node9&#45;&gt;Node1</title>
<g id="a_edge9_Node000001_Node000009"><a xlink:title=" ">
<path fill="none" stroke="#63b8ff" d="M1267.56,-457.27C1277.65,-455.18 1287.99,-453.04 1297.75,-451 1358.78,-438.26 1376.08,-442.37 1435,-422 1457.6,-414.19 1481.61,-402.65 1501.01,-392.43"/>
<polygon fill="#63b8ff" stroke="#63b8ff" points="1266.89,-453.83 1257.8,-459.28 1268.3,-460.69 1266.89,-453.83"/>
</a>
</g>
</g>
<!-- Node10 -->
<g id="Node000010" class="node">
<title>Node10</title>
<g id="a_Node000010"><a xlink:href="../../d3/dac/interface_deluxe_1_1_deluxe_brand_center_1_1_a_m_m_1_1_a_p_i_1_1_services_1_1_i_named_db_service.html" target="_top" xlink:title=" ">
<polygon fill="white" stroke="#666666" points="899.62,-492 726.12,-492 726.12,-460 899.62,-460 899.62,-492"/>
<text text-anchor="start" x="734.12" y="-478.5" font-family="Helvetica,sans-Serif" font-size="10.00">INamedDbService&lt; UserCampaign,</text>
<text text-anchor="middle" x="812.88" y="-466.5" font-family="Helvetica,sans-Serif" font-size="10.00"> UserCampaignVM &gt;</text>
</a>
</g>
</g>
<!-- Node10&#45;&gt;Node9 -->
<g id="edge10_Node000009_Node000010" class="edge">
<title>Node10&#45;&gt;Node9</title>
<g id="a_edge10_Node000009_Node000010"><a xlink:title=" ">
<path fill="none" stroke="#63b8ff" d="M911.23,-474.5C983.22,-473.39 1079.13,-471.92 1141.13,-470.96"/>
<polygon fill="#63b8ff" stroke="#63b8ff" points="911.35,-471 901.4,-474.65 911.46,-478 911.35,-471"/>
</a>
</g>
</g>
<!-- Node11&#45;&gt;Node10 -->
<g id="edge11_Node000010_Node000011" class="edge">
<title>Node11&#45;&gt;Node10</title>
<g id="a_edge11_Node000010_Node000011"><a xlink:title=" ">
<path fill="none" stroke="orange" stroke-dasharray="5,2" d="M525.98,-510.85C528.09,-510.56 530.18,-510.28 532.25,-510 597.08,-501.29 670.49,-492.4 725.83,-485.89"/>
<polygon fill="orange" stroke="orange" points="525.5,-507.38 516.08,-512.22 526.46,-514.32 525.5,-507.38"/>
</a>
</g>
<text text-anchor="middle" x="618.5" y="-512.5" font-family="Helvetica,sans-Serif" font-size="10.00" fill="grey"> &lt; UserCampaign, UserCampaignVM &gt;</text>
</g>
<!-- Node17 -->
<g id="Node000017" class="node">
<title>Node17</title>
<g id="a_Node000017"><a xlink:href="../../d3/dac/interface_deluxe_1_1_deluxe_brand_center_1_1_a_m_m_1_1_a_p_i_1_1_services_1_1_i_named_db_service.html" target="_top" xlink:title=" ">
<polygon fill="white" stroke="#666666" points="889.12,-442 736.62,-442 736.62,-410 889.12,-410 889.12,-442"/>
<text text-anchor="start" x="744.62" y="-428.5" font-family="Helvetica,sans-Serif" font-size="10.00">INamedDbService&lt; Campaign,</text>
<text text-anchor="middle" x="812.88" y="-416.5" font-family="Helvetica,sans-Serif" font-size="10.00"> CampaignVM &gt;</text>
</a>
</g>
</g>
<!-- Node11&#45;&gt;Node17 -->
<g id="edge19_Node000017_Node000011" class="edge">
<title>Node11&#45;&gt;Node17</title>
<g id="a_edge19_Node000017_Node000011"><a xlink:title=" ">
<path fill="none" stroke="orange" stroke-dasharray="5,2" d="M472.79,-498.29C490.99,-489.04 512.11,-479.46 532.25,-473 599.52,-451.43 679.23,-439.28 736.31,-432.76"/>
<polygon fill="orange" stroke="orange" points="471.32,-495.11 464.06,-502.83 474.55,-501.32 471.32,-495.11"/>
</a>
</g>
<text text-anchor="middle" x="618.5" y="-475.5" font-family="Helvetica,sans-Serif" font-size="10.00" fill="grey"> &lt; Campaign, CampaignVM &gt;</text>
</g>
<!-- Node19 -->
<g id="Node000019" class="node">
<title>Node19</title>
<g id="a_Node000019"><a xlink:href="../../d3/dac/interface_deluxe_1_1_deluxe_brand_center_1_1_a_m_m_1_1_a_p_i_1_1_services_1_1_i_named_db_service.html" target="_top" xlink:title=" ">
<polygon fill="white" stroke="#666666" points="894,-599 731.75,-599 731.75,-567 894,-567 894,-599"/>
<text text-anchor="start" x="739.75" y="-585.5" font-family="Helvetica,sans-Serif" font-size="10.00">INamedDbService&lt; Campaign</text>
<text text-anchor="middle" x="812.88" y="-573.5" font-family="Helvetica,sans-Serif" font-size="10.00">Element, CampaignElementVM &gt;</text>
</a>
</g>
</g>
<!-- Node11&#45;&gt;Node19 -->
<g id="edge22_Node000019_Node000011" class="edge">
<title>Node11&#45;&gt;Node19</title>
<g id="a_edge22_Node000019_Node000011"><a xlink:title=" ">
<path fill="none" stroke="orange" stroke-dasharray="5,2" d="M525.99,-541.08C528.09,-541.39 530.18,-541.7 532.25,-542 599.36,-551.86 675.54,-563.03 731.42,-571.22"/>
<polygon fill="orange" stroke="orange" points="526.5,-537.62 516.1,-539.63 525.48,-544.54 526.5,-537.62"/>
</a>
</g>
<text text-anchor="start" x="564.88" y="-580.89" font-family="Helvetica,sans-Serif" font-size="10.00" fill="grey"> &lt; CampaignElement,</text>
<text text-anchor="middle" x="618.5" y="-568.89" font-family="Helvetica,sans-Serif" font-size="10.00" fill="grey"> CampaignElementVM &gt;</text>
</g>
<!-- Node30 -->
<g id="Node000030" class="node">
<title>Node30</title>
<g id="a_Node000030"><a xlink:href="../../d3/dac/interface_deluxe_1_1_deluxe_brand_center_1_1_a_m_m_1_1_a_p_i_1_1_services_1_1_i_named_db_service.html" target="_top" xlink:title=" ">
<polygon fill="white" stroke="#666666" points="885,-542 740.75,-542 740.75,-510 885,-510 885,-542"/>
<text text-anchor="start" x="748.75" y="-528.5" font-family="Helvetica,sans-Serif" font-size="10.00">INamedDbService&lt; Settings,</text>
<text text-anchor="middle" x="812.88" y="-516.5" font-family="Helvetica,sans-Serif" font-size="10.00"> SettingsVM &gt;</text>
</a>
</g>
</g>
<!-- Node11&#45;&gt;Node30 -->
<g id="edge37_Node000030_Node000011" class="edge">
<title>Node11&#45;&gt;Node30</title>
<g id="a_edge37_Node000030_Node000011"><a xlink:title=" ">
<path fill="none" stroke="orange" stroke-dasharray="5,2" d="M525.75,-526C593.33,-526 680.27,-526 740.49,-526"/>
<polygon fill="orange" stroke="orange" points="526.17,-522.5 516.17,-526 526.17,-529.5 526.17,-522.5"/>
</a>
</g>
<text text-anchor="middle" x="618.5" y="-528.5" font-family="Helvetica,sans-Serif" font-size="10.00" fill="grey"> &lt; Settings, SettingsVM &gt;</text>
</g>
<!-- Node12 -->
<g id="Node000012" class="node">
<title>Node12</title>
<g id="a_Node000012"><a xlink:href="../../db/dc5/interface_deluxe_1_1_deluxe_brand_center_1_1_a_m_m_1_1_a_p_i_1_1_services_1_1_i_persona_service.html" target="_top" xlink:title=" ">
<polygon fill="white" stroke="#666666" points="1292.12,-580 1117.12,-580 1117.12,-548 1292.12,-548 1292.12,-580"/>
<text text-anchor="start" x="1125.12" y="-566.5" font-family="Helvetica,sans-Serif" font-size="10.00">Deluxe.DeluxeBrandCenter.</text>
<text text-anchor="middle" x="1204.62" y="-554.5" font-family="Helvetica,sans-Serif" font-size="10.00">AMM.API.Services.IPersonaService</text>
</a>
</g>
</g>
<!-- Node12&#45;&gt;Node1 -->
<g id="edge13_Node000001_Node000012" class="edge">
<title>Node12&#45;&gt;Node1</title>
<g id="a_edge13_Node000001_Node000012"><a xlink:title=" ">
<path fill="none" stroke="#9a32cd" stroke-dasharray="5,2" d="M1303.89,-554.28C1346.82,-546.48 1396.14,-532.39 1435,-507 1479.75,-477.76 1513.34,-422.95 1529.65,-392.26"/>
<polygon fill="#9a32cd" stroke="#9a32cd" points="1303.3,-550.83 1294.03,-555.97 1304.48,-557.73 1303.3,-550.83"/>
</a>
</g>
<text text-anchor="middle" x="1375.38" y="-554.39" font-family="Helvetica,sans-Serif" font-size="10.00" fill="grey"> _personaService</text>
</g>
<!-- Node13 -->
<g id="Node000013" class="node">
<title>Node13</title>
<g id="a_Node000013"><a xlink:href="../../dd/d36/interface_deluxe_1_1_deluxe_brand_center_1_1_a_m_m_1_1_a_p_i_1_1_services_1_1_i_signature_block_service.html" target="_top" xlink:title=" ">
<polygon fill="white" stroke="#666666" points="1290.62,-44 1118.62,-44 1118.62,0 1290.62,0 1290.62,-44"/>
<text text-anchor="start" x="1126.62" y="-30.5" font-family="Helvetica,sans-Serif" font-size="10.00">Deluxe.DeluxeBrandCenter.</text>
<text text-anchor="start" x="1126.62" y="-18.5" font-family="Helvetica,sans-Serif" font-size="10.00">AMM.API.Services.ISignatureBlock</text>
<text text-anchor="middle" x="1204.62" y="-6.5" font-family="Helvetica,sans-Serif" font-size="10.00">Service</text>
</a>
</g>
</g>
<!-- Node13&#45;&gt;Node1 -->
<g id="edge14_Node000001_Node000013" class="edge">
<title>Node13&#45;&gt;Node1</title>
<g id="a_edge14_Node000001_Node000013"><a xlink:title=" ">
<path fill="none" stroke="#9a32cd" stroke-dasharray="5,2" d="M1302.19,-19.78C1347.27,-23.61 1398.83,-35.62 1435,-67 1521.27,-141.83 1537.1,-291.12 1539.99,-347.63"/>
<polygon fill="#9a32cd" stroke="#9a32cd" points="1302.62,-16.3 1292.39,-19.08 1302.12,-23.28 1302.62,-16.3"/>
</a>
</g>
<text text-anchor="middle" x="1375.38" y="-69.5" font-family="Helvetica,sans-Serif" font-size="10.00" fill="grey"> _signatureBlockService</text>
</g>
<!-- Node14 -->
<g id="Node000014" class="node">
<title>Node14</title>
<g id="a_Node000014"><a xlink:href="../../d3/ddb/interface_deluxe_1_1_deluxe_brand_center_1_1_a_m_m_1_1_a_p_i_1_1_services_1_1_i_d_b_service.html" target="_top" xlink:title=" ">
<polygon fill="white" stroke="#666666" points="885,-44 740.75,-44 740.75,-12 885,-12 885,-44"/>
<text text-anchor="start" x="748.75" y="-30.5" font-family="Helvetica,sans-Serif" font-size="10.00">IDBService&lt; SignatureBlock,</text>
<text text-anchor="middle" x="812.88" y="-18.5" font-family="Helvetica,sans-Serif" font-size="10.00"> SignatureBlockVM &gt;</text>
</a>
</g>
</g>
<!-- Node14&#45;&gt;Node13 -->
<g id="edge15_Node000013_Node000014" class="edge">
<title>Node14&#45;&gt;Node13</title>
<g id="a_edge15_Node000013_Node000014"><a xlink:title=" ">
<path fill="none" stroke="#63b8ff" d="M896.82,-26.72C962.03,-25.72 1052.52,-24.33 1118.33,-23.31"/>
<polygon fill="#63b8ff" stroke="#63b8ff" points="896.82,-23.22 886.87,-26.88 896.93,-30.22 896.82,-23.22"/>
</a>
</g>
</g>
<!-- Node15 -->
<g id="Node000015" class="node">
<title>Node15</title>
<g id="a_Node000015"><a xlink:href="../../d3/ddb/interface_deluxe_1_1_deluxe_brand_center_1_1_a_m_m_1_1_a_p_i_1_1_services_1_1_i_d_b_service.html" target="_top" xlink:title=" ">
<polygon fill="white" stroke="#666666" points="499.25,-131 346,-131 346,-87 499.25,-87 499.25,-131"/>
<text text-anchor="start" x="354" y="-117.5" font-family="Helvetica,sans-Serif" font-size="10.00">Deluxe.DeluxeBrandCenter.</text>
<text text-anchor="start" x="354" y="-105.5" font-family="Helvetica,sans-Serif" font-size="10.00">AMM.API.Services.IDBService</text>
<text text-anchor="middle" x="422.62" y="-93.5" font-family="Helvetica,sans-Serif" font-size="10.00">&lt; TModel, TModelVM &gt;</text>
</a>
</g>
</g>
<!-- Node15&#45;&gt;Node14 -->
<g id="edge16_Node000014_Node000015" class="edge">
<title>Node15&#45;&gt;Node14</title>
<g id="a_edge16_Node000014_Node000015"><a xlink:title=" ">
<path fill="none" stroke="orange" stroke-dasharray="5,2" d="M474.39,-81.54C492.22,-73.01 512.69,-64.43 532.25,-59 601.31,-39.82 683.08,-32.44 740.3,-29.64"/>
<polygon fill="orange" stroke="orange" points="473.01,-78.32 465.58,-85.87 476.1,-84.6 473.01,-78.32"/>
</a>
</g>
<text text-anchor="start" x="555.88" y="-73.5" font-family="Helvetica,sans-Serif" font-size="10.00" fill="grey"> &lt; SignatureBlock, Signature</text>
<text text-anchor="middle" x="618.5" y="-61.5" font-family="Helvetica,sans-Serif" font-size="10.00" fill="grey">BlockVM &gt;</text>
</g>
<!-- Node21 -->
<g id="Node000021" class="node">
<title>Node21</title>
<g id="a_Node000021"><a xlink:href="../../d3/ddb/interface_deluxe_1_1_deluxe_brand_center_1_1_a_m_m_1_1_a_p_i_1_1_services_1_1_i_d_b_service.html" target="_top" xlink:title=" ">
<polygon fill="white" stroke="#666666" points="871.5,-95 754.25,-95 754.25,-63 871.5,-63 871.5,-95"/>
<text text-anchor="start" x="762.25" y="-81.5" font-family="Helvetica,sans-Serif" font-size="10.00">IDBService&lt; Template,</text>
<text text-anchor="middle" x="812.88" y="-69.5" font-family="Helvetica,sans-Serif" font-size="10.00"> TemplateVM &gt;</text>
</a>
</g>
</g>
<!-- Node15&#45;&gt;Node21 -->
<g id="edge25_Node000021_Node000015" class="edge">
<title>Node15&#45;&gt;Node21</title>
<g id="a_edge25_Node000021_Node000015"><a xlink:title=" ">
<path fill="none" stroke="orange" stroke-dasharray="5,2" d="M510.92,-101.71C518.14,-101.12 525.32,-100.55 532.25,-100 608.81,-93.95 697.19,-87.38 753.76,-83.23"/>
<polygon fill="orange" stroke="orange" points="510.78,-98.21 501.1,-102.51 511.35,-105.18 510.78,-98.21"/>
</a>
</g>
<text text-anchor="middle" x="618.5" y="-102.5" font-family="Helvetica,sans-Serif" font-size="10.00" fill="grey"> &lt; Template, TemplateVM &gt;</text>
</g>
<!-- Node26 -->
<g id="Node000026" class="node">
<title>Node26</title>
<g id="a_Node000026"><a xlink:href="../../d3/ddb/interface_deluxe_1_1_deluxe_brand_center_1_1_a_m_m_1_1_a_p_i_1_1_services_1_1_i_d_b_service.html" target="_top" xlink:title=" ">
<polygon fill="white" stroke="#666666" points="869.25,-307 756.5,-307 756.5,-275 869.25,-275 869.25,-307"/>
<text text-anchor="start" x="764.5" y="-293.5" font-family="Helvetica,sans-Serif" font-size="10.00">IDBService&lt; Contact,</text>
<text text-anchor="middle" x="812.88" y="-281.5" font-family="Helvetica,sans-Serif" font-size="10.00"> ContactVM &gt;</text>
</a>
</g>
</g>
<!-- Node15&#45;&gt;Node26 -->
<g id="edge31_Node000026_Node000015" class="edge">
<title>Node15&#45;&gt;Node26</title>
<g id="a_edge31_Node000026_Node000015"><a xlink:title=" ">
<path fill="none" stroke="orange" stroke-dasharray="5,2" d="M482,-136.36C563.82,-174.72 710.08,-243.28 776.87,-274.59"/>
<polygon fill="orange" stroke="orange" points="483.53,-133.22 472.99,-132.14 480.56,-139.56 483.53,-133.22"/>
</a>
</g>
<text text-anchor="middle" x="618.5" y="-239.72" font-family="Helvetica,sans-Serif" font-size="10.00" fill="grey"> &lt; Contact, ContactVM &gt;</text>
</g>
<!-- Node28 -->
<g id="Node000028" class="node">
<title>Node28</title>
<g id="a_Node000028"><a xlink:href="../../d3/ddb/interface_deluxe_1_1_deluxe_brand_center_1_1_a_m_m_1_1_a_p_i_1_1_services_1_1_i_d_b_service.html" target="_top" xlink:title=" ">
<polygon fill="white" stroke="#666666" points="884.62,-148 741.12,-148 741.12,-116 884.62,-116 884.62,-148"/>
<text text-anchor="start" x="749.12" y="-134.5" font-family="Helvetica,sans-Serif" font-size="10.00">IDBService&lt; UserCampaign,</text>
<text text-anchor="middle" x="812.88" y="-122.5" font-family="Helvetica,sans-Serif" font-size="10.00"> UserCampaignVM &gt;</text>
</a>
</g>
</g>
<!-- Node15&#45;&gt;Node28 -->
<g id="edge34_Node000028_Node000015" class="edge">
<title>Node15&#45;&gt;Node28</title>
<g id="a_edge34_Node000028_Node000015"><a xlink:title=" ">
<path fill="none" stroke="orange" stroke-dasharray="5,2" d="M510.74,-114.16C580.14,-118.27 676.08,-123.96 740.87,-127.79"/>
<polygon fill="orange" stroke="orange" points="511.11,-110.68 500.92,-113.58 510.69,-117.66 511.11,-110.68"/>
</a>
</g>
<text text-anchor="middle" x="618.5" y="-127.7" font-family="Helvetica,sans-Serif" font-size="10.00" fill="grey"> &lt; UserCampaign, UserCampaignVM &gt;</text>
</g>
<!-- Node16 -->
<g id="Node000016" class="node">
<title>Node16</title>
<g id="a_Node000016"><a xlink:href="../../d7/d95/interface_deluxe_1_1_deluxe_brand_center_1_1_a_m_m_1_1_a_p_i_1_1_services_1_1_i_campaign_service.html" target="_top" xlink:title=" ">
<polygon fill="white" stroke="#666666" points="1296.25,-442 1113,-442 1113,-410 1296.25,-410 1296.25,-442"/>
<text text-anchor="start" x="1121" y="-428.5" font-family="Helvetica,sans-Serif" font-size="10.00">Deluxe.DeluxeBrandCenter.</text>
<text text-anchor="middle" x="1204.62" y="-416.5" font-family="Helvetica,sans-Serif" font-size="10.00">AMM.API.Services.ICampaignService</text>
</a>
</g>
</g>
<!-- Node16&#45;&gt;Node1 -->
<g id="edge17_Node000001_Node000016" class="edge">
<title>Node16&#45;&gt;Node1</title>
<g id="a_edge17_Node000001_Node000016"><a xlink:title=" ">
<path fill="none" stroke="#9a32cd" stroke-dasharray="5,2" d="M1307.99,-408.89C1354.24,-401.16 1408.34,-392.11 1452.73,-384.69"/>
<polygon fill="#9a32cd" stroke="#9a32cd" points="1307.5,-405.42 1298.22,-410.52 1308.66,-412.33 1307.5,-405.42"/>
</a>
</g>
<text text-anchor="middle" x="1375.38" y="-408.79" font-family="Helvetica,sans-Serif" font-size="10.00" fill="grey"> _campaignService</text>
</g>
<!-- Node17&#45;&gt;Node16 -->
<g id="edge18_Node000016_Node000017" class="edge">
<title>Node17&#45;&gt;Node16</title>
<g id="a_edge18_Node000016_Node000017"><a xlink:title=" ">
<path fill="none" stroke="#63b8ff" d="M900.99,-426C964.01,-426 1048.96,-426 1112.81,-426"/>
<polygon fill="#63b8ff" stroke="#63b8ff" points="901,-422.5 891,-426 901,-429.5 901,-422.5"/>
</a>
</g>
</g>
<!-- Node18 -->
<g id="Node000018" class="node">
<title>Node18</title>
<g id="a_Node000018"><a xlink:href="../../d2/d03/interface_deluxe_1_1_deluxe_brand_center_1_1_a_m_m_1_1_a_p_i_1_1_services_1_1_i_campaign_element_service.html" target="_top" xlink:title=" ">
<polygon fill="white" stroke="#666666" points="1297.75,-642 1111.5,-642 1111.5,-598 1297.75,-598 1297.75,-642"/>
<text text-anchor="start" x="1119.5" y="-628.5" font-family="Helvetica,sans-Serif" font-size="10.00">Deluxe.DeluxeBrandCenter.</text>
<text text-anchor="start" x="1119.5" y="-616.5" font-family="Helvetica,sans-Serif" font-size="10.00">AMM.API.Services.ICampaignElement</text>
<text text-anchor="middle" x="1204.62" y="-604.5" font-family="Helvetica,sans-Serif" font-size="10.00">Service</text>
</a>
</g>
</g>
<!-- Node18&#45;&gt;Node1 -->
<g id="edge20_Node000001_Node000018" class="edge">
<title>Node18&#45;&gt;Node1</title>
<g id="a_edge20_Node000001_Node000018"><a xlink:title=" ">
<path fill="none" stroke="#9a32cd" stroke-dasharray="5,2" d="M1309.32,-615.17C1351.79,-608.72 1399.24,-595.29 1435,-568 1494.47,-522.62 1524.15,-433.94 1535.27,-392.43"/>
<polygon fill="#9a32cd" stroke="#9a32cd" points="1308.99,-611.68 1299.57,-616.52 1309.96,-618.61 1308.99,-611.68"/>
</a>
</g>
<text text-anchor="middle" x="1375.38" y="-616.2" font-family="Helvetica,sans-Serif" font-size="10.00" fill="grey"> _campaignElementService</text>
</g>
<!-- Node19&#45;&gt;Node18 -->
<g id="edge21_Node000018_Node000019" class="edge">
<title>Node19&#45;&gt;Node18</title>
<g id="a_edge21_Node000018_Node000019"><a xlink:title=" ">
<path fill="none" stroke="#63b8ff" d="M905.49,-591.7C967.45,-597.58 1048.99,-605.32 1111.13,-611.22"/>
<polygon fill="#63b8ff" stroke="#63b8ff" points="905.95,-588.23 895.67,-590.76 905.29,-595.19 905.95,-588.23"/>
</a>
</g>
</g>
<!-- Node20 -->
<g id="Node000020" class="node">
<title>Node20</title>
<g id="a_Node000020"><a xlink:href="../../d0/ddb/interface_deluxe_1_1_deluxe_brand_center_1_1_a_m_m_1_1_a_p_i_1_1_services_1_1_i_template_service.html" target="_top" xlink:title=" ">
<polygon fill="white" stroke="#666666" points="1294,-94 1115.25,-94 1115.25,-62 1294,-62 1294,-94"/>
<text text-anchor="start" x="1123.25" y="-80.5" font-family="Helvetica,sans-Serif" font-size="10.00">Deluxe.DeluxeBrandCenter.</text>
<text text-anchor="middle" x="1204.62" y="-68.5" font-family="Helvetica,sans-Serif" font-size="10.00">AMM.API.Services.ITemplateService</text>
</a>
</g>
</g>
<!-- Node20&#45;&gt;Node1 -->
<g id="edge23_Node000001_Node000020" class="edge">
<title>Node20&#45;&gt;Node1</title>
<g id="a_edge23_Node000001_Node000020"><a xlink:title=" ">
<path fill="none" stroke="#9a32cd" stroke-dasharray="5,2" d="M1305.56,-80.87C1349.41,-86.76 1398.99,-100.31 1435,-130 1504.72,-187.49 1529.82,-300.12 1537.58,-347.82"/>
<polygon fill="#9a32cd" stroke="#9a32cd" points="1306.1,-77.41 1295.75,-79.68 1305.26,-84.36 1306.1,-77.41"/>
</a>
</g>
<text text-anchor="middle" x="1375.38" y="-132.5" font-family="Helvetica,sans-Serif" font-size="10.00" fill="grey"> _templateService</text>
</g>
<!-- Node21&#45;&gt;Node20 -->
<g id="edge24_Node000020_Node000021" class="edge">
<title>Node21&#45;&gt;Node20</title>
<g id="a_edge24_Node000020_Node000021"><a xlink:title=" ">
<path fill="none" stroke="#63b8ff" d="M883.1,-78.82C947.79,-78.66 1044.69,-78.41 1115.01,-78.23"/>
<polygon fill="#63b8ff" stroke="#63b8ff" points="883.31,-75.32 873.32,-78.85 883.33,-82.32 883.31,-75.32"/>
</a>
</g>
</g>
<!-- Node22 -->
<g id="Node000022" class="node">
<title>Node22</title>
<g id="a_Node000022"><a xlink:href="../../df/db6/interface_deluxe_1_1_deluxe_brand_center_1_1_a_m_m_1_1_infrastructure_1_1_a_w_s_1_1_s3_1_1_i_amazon_s3_service.html" target="_top" xlink:title=" ">
<polygon fill="white" stroke="#666666" points="1295.88,-330 1113.38,-330 1113.38,-286 1295.88,-286 1295.88,-330"/>
<text text-anchor="start" x="1121.38" y="-316.5" font-family="Helvetica,sans-Serif" font-size="10.00">Deluxe.DeluxeBrandCenter.</text>
<text text-anchor="start" x="1121.38" y="-304.5" font-family="Helvetica,sans-Serif" font-size="10.00">AMM.Infrastructure.AWS.S3.IAmazon</text>
<text text-anchor="middle" x="1204.62" y="-292.5" font-family="Helvetica,sans-Serif" font-size="10.00">S3Service</text>
</a>
</g>
</g>
<!-- Node22&#45;&gt;Node1 -->
<g id="edge26_Node000001_Node000022" class="edge">
<title>Node22&#45;&gt;Node1</title>
<g id="a_edge26_Node000001_Node000022"><a xlink:title=" ">
<path fill="none" stroke="#9a32cd" stroke-dasharray="5,2" d="M1307.55,-326.86C1353.82,-335.43 1408.02,-345.46 1452.5,-353.69"/>
<polygon fill="#9a32cd" stroke="#9a32cd" points="1308.24,-323.43 1297.77,-325.05 1306.97,-330.32 1308.24,-323.43"/>
</a>
</g>
<text text-anchor="middle" x="1375.38" y="-352.45" font-family="Helvetica,sans-Serif" font-size="10.00" fill="grey"> _amazonS3Service</text>
</g>
<!-- Node23 -->
<g id="Node000023" class="node">
<title>Node23</title>
<g id="a_Node000023"><a xlink:href="../../da/dd6/interface_deluxe_1_1_deluxe_brand_center_1_1_a_m_m_1_1_domain_1_1_ext_service_model_1_1_i_send_email_service.html" target="_top" xlink:title=" ">
<polygon fill="white" stroke="#666666" points="1295.5,-268 1113.75,-268 1113.75,-224 1295.5,-224 1295.5,-268"/>
<text text-anchor="start" x="1121.75" y="-254.5" font-family="Helvetica,sans-Serif" font-size="10.00">Deluxe.DeluxeBrandCenter.</text>
<text text-anchor="start" x="1121.75" y="-242.5" font-family="Helvetica,sans-Serif" font-size="10.00">AMM.Domain.ExtServiceModel.ISend</text>
<text text-anchor="middle" x="1204.62" y="-230.5" font-family="Helvetica,sans-Serif" font-size="10.00">EmailService</text>
</a>
</g>
</g>
<!-- Node23&#45;&gt;Node1 -->
<g id="edge27_Node000001_Node000023" class="edge">
<title>Node23&#45;&gt;Node1</title>
<g id="a_edge27_Node000001_Node000023"><a xlink:title=" ">
<path fill="none" stroke="#9a32cd" stroke-dasharray="5,2" d="M1306.8,-271.3C1347.29,-282.63 1393.97,-297.24 1435,-314 1458.25,-323.5 1483.12,-336.53 1502.88,-347.63"/>
<polygon fill="#9a32cd" stroke="#9a32cd" points="1307.85,-267.96 1297.28,-268.67 1305.99,-274.71 1307.85,-267.96"/>
</a>
</g>
<text text-anchor="middle" x="1375.38" y="-316.5" font-family="Helvetica,sans-Serif" font-size="10.00" fill="grey"> _sendEmailService</text>
</g>
<!-- Node24 -->
<g id="Node000024" class="node">
<title>Node24</title>
<g id="a_Node000024"><a xlink:href="../../d2/dd7/interface_deluxe_1_1_deluxe_brand_center_1_1_a_m_m_1_1_a_p_i_1_1_services_1_1_i_mindfire_service.html" target="_top" xlink:title=" ">
<polygon fill="white" stroke="#666666" points="1291.38,-206 1117.88,-206 1117.88,-174 1291.38,-174 1291.38,-206"/>
<text text-anchor="start" x="1125.88" y="-192.5" font-family="Helvetica,sans-Serif" font-size="10.00">Deluxe.DeluxeBrandCenter.</text>
<text text-anchor="middle" x="1204.62" y="-180.5" font-family="Helvetica,sans-Serif" font-size="10.00">AMM.API.Services.IMindfireService</text>
</a>
</g>
</g>
<!-- Node24&#45;&gt;Node1 -->
<g id="edge28_Node000001_Node000024" class="edge">
<title>Node24&#45;&gt;Node1</title>
<g id="a_edge28_Node000001_Node000024"><a xlink:title=" ">
<path fill="none" stroke="#9a32cd" stroke-dasharray="5,2" d="M1302.71,-206.54C1345.53,-216.83 1395.08,-233.02 1435,-258 1473.06,-281.82 1506.66,-322.61 1525.26,-347.84"/>
<polygon fill="#9a32cd" stroke="#9a32cd" points="1303.69,-203.18 1293.16,-204.33 1302.11,-210 1303.69,-203.18"/>
</a>
</g>
<text text-anchor="middle" x="1375.38" y="-260.5" font-family="Helvetica,sans-Serif" font-size="10.00" fill="grey"> _mindfireService</text>
</g>
<!-- Node25 -->
<g id="Node000025" class="node">
<title>Node25</title>
<g id="a_Node000025"><a xlink:href="../../d8/d4e/interface_deluxe_1_1_deluxe_brand_center_1_1_a_m_m_1_1_a_p_i_1_1_services_1_1_i_contact_manager_service.html" target="_top" xlink:title=" ">
<polygon fill="white" stroke="#666666" points="1293.62,-392 1115.62,-392 1115.62,-348 1293.62,-348 1293.62,-392"/>
<text text-anchor="start" x="1123.62" y="-378.5" font-family="Helvetica,sans-Serif" font-size="10.00">Deluxe.DeluxeBrandCenter.</text>
<text text-anchor="start" x="1123.62" y="-366.5" font-family="Helvetica,sans-Serif" font-size="10.00">AMM.API.Services.IContactManager</text>
<text text-anchor="middle" x="1204.62" y="-354.5" font-family="Helvetica,sans-Serif" font-size="10.00">Service</text>
</a>
</g>
</g>
<!-- Node25&#45;&gt;Node1 -->
<g id="edge29_Node000001_Node000025" class="edge">
<title>Node25&#45;&gt;Node1</title>
<g id="a_edge29_Node000001_Node000025"><a xlink:title=" ">
<path fill="none" stroke="#9a32cd" stroke-dasharray="5,2" d="M1305.46,-370C1352.2,-370 1407.38,-370 1452.55,-370"/>
<polygon fill="#9a32cd" stroke="#9a32cd" points="1305.59,-366.5 1295.59,-370 1305.59,-373.5 1305.59,-366.5"/>
</a>
</g>
<text text-anchor="middle" x="1375.38" y="-372.5" font-family="Helvetica,sans-Serif" font-size="10.00" fill="grey"> _contactManagerService</text>
</g>
<!-- Node26&#45;&gt;Node25 -->
<g id="edge30_Node000025_Node000026" class="edge">
<title>Node26&#45;&gt;Node25</title>
<g id="a_edge30_Node000025_Node000026"><a xlink:title=" ">
<path fill="none" stroke="#63b8ff" d="M881,-304.61C945.72,-317.72 1044.04,-337.65 1115.13,-352.06"/>
<polygon fill="#63b8ff" stroke="#63b8ff" points="881.7,-301.18 871.2,-302.62 880.31,-308.04 881.7,-301.18"/>
</a>
</g>
</g>
<!-- Node27 -->
<g id="Node000027" class="node">
<title>Node27</title>
<g id="a_Node000027"><a xlink:href="../../d9/daf/interface_deluxe_1_1_deluxe_brand_center_1_1_a_m_m_1_1_a_p_i_1_1_services_1_1_i_user_campaign_service.html" target="_top" xlink:title=" ">
<polygon fill="white" stroke="#666666" points="1290.25,-156 1119,-156 1119,-112 1290.25,-112 1290.25,-156"/>
<text text-anchor="start" x="1127" y="-142.5" font-family="Helvetica,sans-Serif" font-size="10.00">Deluxe.DeluxeBrandCenter.</text>
<text text-anchor="start" x="1127" y="-130.5" font-family="Helvetica,sans-Serif" font-size="10.00">AMM.API.Services.IUserCampaign</text>
<text text-anchor="middle" x="1204.62" y="-118.5" font-family="Helvetica,sans-Serif" font-size="10.00">Service</text>
</a>
</g>
</g>
<!-- Node27&#45;&gt;Node1 -->
<g id="edge32_Node000001_Node000027" class="edge">
<title>Node27&#45;&gt;Node1</title>
<g id="a_edge32_Node000001_Node000027"><a xlink:title=" ">
<path fill="none" stroke="#9a32cd" stroke-dasharray="5,2" d="M1301.93,-143C1345.97,-151.06 1396.72,-166.27 1435,-195 1488.22,-234.94 1520.14,-310.25 1533.42,-347.7"/>
<polygon fill="#9a32cd" stroke="#9a32cd" points="1302.54,-139.56 1292.09,-141.32 1301.36,-146.46 1302.54,-139.56"/>
</a>
</g>
<text text-anchor="middle" x="1375.38" y="-197.5" font-family="Helvetica,sans-Serif" font-size="10.00" fill="grey"> _userCampaignService</text>
</g>
<!-- Node28&#45;&gt;Node27 -->
<g id="edge33_Node000027_Node000028" class="edge">
<title>Node28&#45;&gt;Node27</title>
<g id="a_edge33_Node000027_Node000028"><a xlink:title=" ">
<path fill="none" stroke="#63b8ff" d="M896.4,-132.42C961.8,-132.76 1052.84,-133.23 1118.83,-133.56"/>
<polygon fill="#63b8ff" stroke="#63b8ff" points="896.44,-128.92 886.42,-132.37 896.4,-135.92 896.44,-128.92"/>
</a>
</g>
</g>
<!-- Node29 -->
<g id="Node000029" class="node">
<title>Node29</title>
<g id="a_Node000029"><a xlink:href="../../d3/d8e/interface_deluxe_1_1_deluxe_brand_center_1_1_a_m_m_1_1_a_p_i_1_1_services_1_1_i_settings_service.html" target="_top" xlink:title=" ">
<polygon fill="white" stroke="#666666" points="1292.12,-530 1117.12,-530 1117.12,-498 1292.12,-498 1292.12,-530"/>
<text text-anchor="start" x="1125.12" y="-516.5" font-family="Helvetica,sans-Serif" font-size="10.00">Deluxe.DeluxeBrandCenter.</text>
<text text-anchor="middle" x="1204.62" y="-504.5" font-family="Helvetica,sans-Serif" font-size="10.00">AMM.API.Services.ISettingsService</text>
</a>
</g>
</g>
<!-- Node29&#45;&gt;Node1 -->
<g id="edge35_Node000001_Node000029" class="edge">
<title>Node29&#45;&gt;Node1</title>
<g id="a_edge35_Node000001_Node000029"><a xlink:title=" ">
<path fill="none" stroke="#9a32cd" stroke-dasharray="5,2" d="M1303.12,-494.89C1345.04,-484.54 1393.78,-469.57 1435,-449 1465.32,-433.87 1495.89,-409.83 1516.28,-392.24"/>
<polygon fill="#9a32cd" stroke="#9a32cd" points="1302.43,-491.46 1293.52,-497.2 1304.07,-498.26 1302.43,-491.46"/>
</a>
</g>
<text text-anchor="middle" x="1375.38" y="-493.26" font-family="Helvetica,sans-Serif" font-size="10.00" fill="grey"> _settingsService</text>
</g>
<!-- Node30&#45;&gt;Node29 -->
<g id="edge36_Node000029_Node000030" class="edge">
<title>Node30&#45;&gt;Node29</title>
<g id="a_edge36_Node000029_Node000030"><a xlink:title=" ">
<path fill="none" stroke="#63b8ff" d="M896.74,-523.45C961.49,-521.46 1051.21,-518.69 1116.92,-516.67"/>
<polygon fill="#63b8ff" stroke="#63b8ff" points="896.76,-519.95 886.87,-523.75 896.98,-526.94 896.76,-519.95"/>
</a>
</g>
</g>
</g>
</svg>
