<?xml version="1.0" encoding="UTF-8" standalone="no"?>
<!DOCTYPE svg PUBLIC "-//W3C//DTD SVG 1.1//EN"
 "http://www.w3.org/Graphics/SVG/1.1/DTD/svg11.dtd">
<!-- Generated by graphviz version 12.1.1 (20240910.0053)
 -->
<!-- Title: Deluxe.DeluxeBrandCenter.AMM.ScriptRunner.Services.Scripts.UpdateSocialCallbackUrl Pages: 1 -->
<svg width="864pt" height="54pt"
 viewBox="0.00 0.00 863.75 54.00" xmlns="http://www.w3.org/2000/svg" xmlns:xlink="http://www.w3.org/1999/xlink">
<g id="graph0" class="graph" transform="scale(1 1) rotate(0) translate(4 50)">
<title>Deluxe.DeluxeBrandCenter.AMM.ScriptRunner.Services.Scripts.UpdateSocialCallbackUrl</title>
<!-- Node1 -->
<g id="Node000001" class="node">
<title>Node1</title>
<g id="a_Node000001"><a xlink:title=" ">
<polygon fill="#999999" stroke="#666666" points="855.75,-44 678.5,-44 678.5,0 855.75,0 855.75,-44"/>
<text text-anchor="start" x="686.5" y="-30.5" font-family="Helvetica,sans-Serif" font-size="10.00">Deluxe.DeluxeBrandCenter.</text>
<text text-anchor="start" x="686.5" y="-18.5" font-family="Helvetica,sans-Serif" font-size="10.00">AMM.ScriptRunner.Services.Scripts.</text>
<text text-anchor="middle" x="767.12" y="-6.5" font-family="Helvetica,sans-Serif" font-size="10.00">UpdateSocialCallbackUrl</text>
</a>
</g>
</g>
<!-- Node2 -->
<g id="Node000002" class="node">
<title>Node2</title>
<g id="a_Node000002"><a xlink:href="../../d9/d9b/class_deluxe_1_1_deluxe_brand_center_1_1_a_m_m_1_1_script_runner_1_1_services_1_1_script.html" target="_top" xlink:title=" ">
<polygon fill="white" stroke="#666666" points="641.5,-38 487.5,-38 487.5,-6 641.5,-6 641.5,-38"/>
<text text-anchor="start" x="495.5" y="-24.5" font-family="Helvetica,sans-Serif" font-size="10.00">Script&lt; CsvLogCampaignScript</text>
<text text-anchor="middle" x="564.5" y="-12.5" font-family="Helvetica,sans-Serif" font-size="10.00">Entry, JsonObject &gt;</text>
</a>
</g>
</g>
<!-- Node2&#45;&gt;Node1 -->
<g id="edge1_Node000001_Node000002" class="edge">
<title>Node2&#45;&gt;Node1</title>
<g id="a_edge1_Node000001_Node000002"><a xlink:title=" ">
<path fill="none" stroke="#63b8ff" d="M653.43,-22C661.64,-22 669.96,-22 678.17,-22"/>
<polygon fill="#63b8ff" stroke="#63b8ff" points="653.43,-18.5 643.43,-22 653.43,-25.5 653.43,-18.5"/>
</a>
</g>
</g>
<!-- Node3 -->
<g id="Node000003" class="node">
<title>Node3</title>
<g id="a_Node000003"><a xlink:href="../../d9/d9b/class_deluxe_1_1_deluxe_brand_center_1_1_a_m_m_1_1_script_runner_1_1_services_1_1_script.html" target="_top" xlink:title=" ">
<polygon fill="white" stroke="#666666" points="310.5,-44 141.5,-44 141.5,0 310.5,0 310.5,-44"/>
<text text-anchor="start" x="149.5" y="-30.5" font-family="Helvetica,sans-Serif" font-size="10.00">Deluxe.DeluxeBrandCenter.</text>
<text text-anchor="start" x="149.5" y="-18.5" font-family="Helvetica,sans-Serif" font-size="10.00">AMM.ScriptRunner.Services.Script</text>
<text text-anchor="middle" x="226" y="-6.5" font-family="Helvetica,sans-Serif" font-size="10.00">&lt; CsvLogEntryType, DataType &gt;</text>
</a>
</g>
</g>
<!-- Node3&#45;&gt;Node2 -->
<g id="edge2_Node000002_Node000003" class="edge">
<title>Node3&#45;&gt;Node2</title>
<g id="a_edge2_Node000002_Node000003"><a xlink:title=" ">
<path fill="none" stroke="orange" stroke-dasharray="5,2" d="M321.92,-22C374.2,-22 438.22,-22 487.22,-22"/>
<polygon fill="orange" stroke="orange" points="322.13,-18.5 312.13,-22 322.13,-25.5 322.13,-18.5"/>
</a>
</g>
<text text-anchor="start" x="328.5" y="-36.5" font-family="Helvetica,sans-Serif" font-size="10.00" fill="grey"> &lt; CsvLogCampaignScriptEntry,</text>
<text text-anchor="middle" x="399" y="-24.5" font-family="Helvetica,sans-Serif" font-size="10.00" fill="grey"> JsonObject &gt;</text>
</g>
<!-- Node4 -->
<g id="Node000004" class="node">
<title>Node4</title>
<g id="a_Node000004"><a xlink:href="../../df/dfe/interface_deluxe_1_1_deluxe_brand_center_1_1_a_m_m_1_1_script_runner_1_1_services_1_1_i_script.html" target="_top" xlink:title=" ">
<polygon fill="white" stroke="#666666" points="104.5,-32 0,-32 0,-12 104.5,-12 104.5,-32"/>
<text text-anchor="middle" x="52.25" y="-18.5" font-family="Helvetica,sans-Serif" font-size="10.00">IScript&lt; DataType &gt;</text>
</a>
</g>
</g>
<!-- Node4&#45;&gt;Node3 -->
<g id="edge3_Node000003_Node000004" class="edge">
<title>Node4&#45;&gt;Node3</title>
<g id="a_edge3_Node000003_Node000004"><a xlink:title=" ">
<path fill="none" stroke="#63b8ff" d="M116.06,-22C124.21,-22 132.65,-22 141.07,-22"/>
<polygon fill="#63b8ff" stroke="#63b8ff" points="116.29,-18.5 106.29,-22 116.29,-25.5 116.29,-18.5"/>
</a>
</g>
</g>
</g>
</svg>
