<?xml version="1.0" encoding="UTF-8" standalone="no"?>
<!DOCTYPE svg PUBLIC "-//W3C//DTD SVG 1.1//EN"
 "http://www.w3.org/Graphics/SVG/1.1/DTD/svg11.dtd">
<!-- Generated by graphviz version 12.1.1 (20240910.0053)
 -->
<!-- Title: Deluxe.DeluxeBrandCenter.AMM.Domain.DataModel.Campaign Pages: 1 -->
<svg width="271pt" height="264pt"
 viewBox="0.00 0.00 270.88 264.00" xmlns="http://www.w3.org/2000/svg" xmlns:xlink="http://www.w3.org/1999/xlink">

<svg id="main" version="1.1" xmlns="http://www.w3.org/2000/svg" xmlns:xlink="http://www.w3.org/1999/xlink" xml:space="preserve">

<style type="text/css"><![CDATA[
.node, .edge {opacity: 0.7;}
.node.selected, .edge.selected {opacity: 1;}
.edge:hover path { stroke: red; }
.edge:hover polygon { stroke: red; fill: red; }
]]></style>
<script type="application/ecmascript" xlink:href="../../svg.min.js"/>
<svg id="graph" class="graph">
<g id="graph0" class="graph" transform="scale(1 1) rotate(0) translate(4 260)">
<title>Deluxe.DeluxeBrandCenter.AMM.Domain.DataModel.Campaign</title>
<!-- Node1 -->
<g id="Node000001" class="node">
<title>Node1</title>
<g id="a_Node000001"><a xlink:title=" ">
<polygon fill="#999999" stroke="#666666" points="173.5,-32 0,-32 0,0 173.5,0 173.5,-32"/>
<text text-anchor="start" x="8" y="-18.5" font-family="Helvetica,sans-Serif" font-size="10.00">Deluxe.DeluxeBrandCenter.</text>
<text text-anchor="middle" x="86.75" y="-6.5" font-family="Helvetica,sans-Serif" font-size="10.00">AMM.Domain.DataModel.Campaign</text>
</a>
</g>
</g>
<!-- Node2 -->
<g id="Node000002" class="node">
<title>Node2</title>
<g id="a_Node000002"><a xlink:href="../../d4/d1a/class_deluxe_1_1_deluxe_brand_center_1_1_a_m_m_1_1_domain_1_1_data_model_1_1_base_entity_named.html" target="_top" xlink:title=" ">
<polygon fill="white" stroke="#666666" points="210.5,-88 115,-88 115,-68 210.5,-68 210.5,-88"/>
<text text-anchor="middle" x="162.75" y="-74.5" font-family="Helvetica,sans-Serif" font-size="10.00">BaseEntityNamed</text>
</a>
</g>
</g>
<!-- Node2&#45;&gt;Node1 -->
<g id="edge1_Node000001_Node000002" class="edge">
<title>Node2&#45;&gt;Node1</title>
<g id="a_edge1_Node000001_Node000002"><a xlink:title=" ">
<path fill="none" stroke="#63b8ff" d="M141.86,-60.51C130.73,-51.72 117.13,-40.98 106.22,-32.37"/>
<polygon fill="#63b8ff" stroke="#63b8ff" points="139.67,-63.24 149.69,-66.69 144.01,-57.74 139.67,-63.24"/>
</a>
</g>
</g>
<!-- Node3 -->
<g id="Node000003" class="node">
<title>Node3</title>
<g id="a_Node000003"><a xlink:href="../../d7/d1c/class_deluxe_1_1_deluxe_brand_center_1_1_a_m_m_1_1_domain_1_1_data_model_1_1_base_entity.html" target="_top" xlink:title=" ">
<polygon fill="white" stroke="#666666" points="255.75,-144 191.75,-144 191.75,-124 255.75,-124 255.75,-144"/>
<text text-anchor="middle" x="223.75" y="-130.5" font-family="Helvetica,sans-Serif" font-size="10.00">BaseEntity</text>
</a>
</g>
</g>
<!-- Node3&#45;&gt;Node2 -->
<g id="edge2_Node000002_Node000003" class="edge">
<title>Node3&#45;&gt;Node2</title>
<g id="a_edge2_Node000002_Node000003"><a xlink:title=" ">
<path fill="none" stroke="#63b8ff" d="M204.69,-116.13C194.31,-106.94 181.88,-95.93 173.25,-88.3"/>
<polygon fill="#63b8ff" stroke="#63b8ff" points="202.18,-118.58 211.99,-122.59 206.82,-113.34 202.18,-118.58"/>
</a>
</g>
</g>
<!-- Node4 -->
<g id="Node000004" class="node">
<title>Node4</title>
<g id="a_Node000004"><a xlink:href="../../d6/df6/class_deluxe_1_1_deluxe_brand_center_1_1_a_m_m_1_1_domain_1_1_data_model_1_1_modified_entity.html" target="_top" xlink:title=" ">
<polygon fill="white" stroke="#666666" points="262.88,-200 184.62,-200 184.62,-180 262.88,-180 262.88,-200"/>
<text text-anchor="middle" x="223.75" y="-186.5" font-family="Helvetica,sans-Serif" font-size="10.00">ModifiedEntity</text>
</a>
</g>
</g>
<!-- Node4&#45;&gt;Node3 -->
<g id="edge3_Node000003_Node000004" class="edge">
<title>Node4&#45;&gt;Node3</title>
<g id="a_edge3_Node000003_Node000004"><a xlink:title=" ">
<path fill="none" stroke="#63b8ff" d="M223.75,-168.13C223.75,-159.9 223.75,-150.85 223.75,-144.3"/>
<polygon fill="#63b8ff" stroke="#63b8ff" points="220.25,-168.08 223.75,-178.08 227.25,-168.08 220.25,-168.08"/>
</a>
</g>
</g>
<!-- Node5 -->
<g id="Node000005" class="node">
<title>Node5</title>
<g id="a_Node000005"><a xlink:href="../../d6/dad/interface_deluxe_1_1_deluxe_brand_center_1_1_a_m_m_1_1_domain_1_1_data_model_1_1_interface_1_1_i_modified.html" target="_top" xlink:title=" ">
<polygon fill="white" stroke="#666666" points="205.62,-256 149.88,-256 149.88,-236 205.62,-236 205.62,-256"/>
<text text-anchor="middle" x="177.75" y="-242.5" font-family="Helvetica,sans-Serif" font-size="10.00">IModified</text>
</a>
</g>
</g>
<!-- Node5&#45;&gt;Node4 -->
<g id="edge4_Node000004_Node000005" class="edge">
<title>Node5&#45;&gt;Node4</title>
<g id="a_edge4_Node000004_Node000005"><a xlink:title=" ">
<path fill="none" stroke="#63b8ff" d="M193.08,-227C200.7,-218.06 209.59,-207.62 215.83,-200.3"/>
<polygon fill="#63b8ff" stroke="#63b8ff" points="190.56,-224.56 186.74,-234.44 195.89,-229.1 190.56,-224.56"/>
</a>
</g>
</g>
<!-- Node6 -->
<g id="Node000006" class="node">
<title>Node6</title>
<g id="a_Node000006"><a xlink:href="../../d5/d26/interface_deluxe_1_1_deluxe_brand_center_1_1_a_m_m_1_1_domain_1_1_data_model_1_1_interface_1_1_i_base_entity.html" target="_top" xlink:title=" ">
<polygon fill="white" stroke="#666666" points="166.25,-200 99.25,-200 99.25,-180 166.25,-180 166.25,-200"/>
<text text-anchor="middle" x="132.75" y="-186.5" font-family="Helvetica,sans-Serif" font-size="10.00">IBaseEntity</text>
</a>
</g>
</g>
<!-- Node5&#45;&gt;Node6 -->
<g id="edge6_Node000006_Node000005" class="edge">
<title>Node5&#45;&gt;Node6</title>
<g id="a_edge6_Node000006_Node000005"><a xlink:title=" ">
<path fill="none" stroke="#63b8ff" d="M162.75,-227C155.3,-218.06 146.6,-207.62 140.5,-200.3"/>
<polygon fill="#63b8ff" stroke="#63b8ff" points="159.85,-228.99 168.94,-234.43 165.23,-224.51 159.85,-228.99"/>
</a>
</g>
</g>
<!-- Node6&#45;&gt;Node1 -->
<g id="edge11_Node000001_Node000006" class="edge">
<title>Node6&#45;&gt;Node1</title>
<g id="a_edge11_Node000001_Node000006"><a xlink:title=" ">
<path fill="none" stroke="#63b8ff" d="M87.81,-181.37C66.08,-175.18 41.9,-164.02 28.75,-144 4.13,-106.52 45.38,-56.89 70.16,-32.24"/>
<polygon fill="#63b8ff" stroke="#63b8ff" points="86.86,-184.74 97.41,-183.81 88.58,-177.96 86.86,-184.74"/>
</a>
</g>
</g>
<!-- Node6&#45;&gt;Node2 -->
<g id="edge9_Node000002_Node000006" class="edge">
<title>Node6&#45;&gt;Node2</title>
<g id="a_edge9_Node000002_Node000006"><a xlink:title=" ">
<path fill="none" stroke="#63b8ff" d="M138.3,-168.64C144.83,-144.72 155.38,-106.03 160.2,-88.35"/>
<polygon fill="#63b8ff" stroke="#63b8ff" points="134.96,-167.59 135.71,-178.16 141.71,-169.43 134.96,-167.59"/>
</a>
</g>
</g>
<!-- Node6&#45;&gt;Node3 -->
<g id="edge5_Node000003_Node000006" class="edge">
<title>Node6&#45;&gt;Node3</title>
<g id="a_edge5_Node000003_Node000006"><a xlink:title=" ">
<path fill="none" stroke="#63b8ff" d="M158.35,-173.81C174.22,-164.39 194.12,-152.58 207.78,-144.48"/>
<polygon fill="#63b8ff" stroke="#63b8ff" points="156.72,-170.71 149.9,-178.82 160.29,-176.73 156.72,-170.71"/>
</a>
</g>
</g>
<!-- Node7 -->
<g id="Node000007" class="node">
<title>Node7</title>
<g id="a_Node000007"><a xlink:href="../../d9/dec/interface_deluxe_1_1_deluxe_brand_center_1_1_a_m_m_1_1_domain_1_1_data_model_1_1_interface_1_1_i_base_entity_named.html" target="_top" xlink:title=" ">
<polygon fill="white" stroke="#666666" points="136,-144 37.5,-144 37.5,-124 136,-124 136,-144"/>
<text text-anchor="middle" x="86.75" y="-130.5" font-family="Helvetica,sans-Serif" font-size="10.00">IBaseEntityNamed</text>
</a>
</g>
</g>
<!-- Node6&#45;&gt;Node7 -->
<g id="edge8_Node000007_Node000006" class="edge">
<title>Node6&#45;&gt;Node7</title>
<g id="a_edge8_Node000007_Node000006"><a xlink:title=" ">
<path fill="none" stroke="#63b8ff" d="M117.42,-171C109.8,-162.06 100.91,-151.62 94.67,-144.3"/>
<polygon fill="#63b8ff" stroke="#63b8ff" points="114.61,-173.1 123.76,-178.44 119.94,-168.56 114.61,-173.1"/>
</a>
</g>
</g>
<!-- Node7&#45;&gt;Node1 -->
<g id="edge10_Node000001_Node000007" class="edge">
<title>Node7&#45;&gt;Node1</title>
<g id="a_edge10_Node000001_Node000007"><a xlink:title=" ">
<path fill="none" stroke="#63b8ff" d="M86.75,-112.04C86.75,-89.1 86.75,-52.88 86.75,-32.41"/>
<polygon fill="#63b8ff" stroke="#63b8ff" points="83.25,-111.99 86.75,-121.99 90.25,-111.99 83.25,-111.99"/>
</a>
</g>
</g>
<!-- Node7&#45;&gt;Node2 -->
<g id="edge7_Node000002_Node000007" class="edge">
<title>Node7&#45;&gt;Node2</title>
<g id="a_edge7_Node000002_Node000007"><a xlink:title=" ">
<path fill="none" stroke="#63b8ff" d="M109.27,-117C122.33,-107.72 138.33,-96.35 149.41,-88.48"/>
<polygon fill="#63b8ff" stroke="#63b8ff" points="107.35,-114.07 101.22,-122.72 111.4,-119.78 107.35,-114.07"/>
</a>
</g>
</g>
</g>
</svg>
</svg>

<style type='text/css'>
<![CDATA[
[data-mouse-over-selected='false'] { opacity: 0.7; }
[data-mouse-over-selected='true']  { opacity: 1.0; }
]]>
</style>
<script type="application/ecmascript"><![CDATA[
document.addEventListener('DOMContentLoaded', (event) => {
  highlightEdges();
  highlightAdjacentNodes();
});
]]></script>
</svg>
