<?xml version="1.0" encoding="UTF-8" standalone="no"?>
<!DOCTYPE svg PUBLIC "-//W3C//DTD SVG 1.1//EN"
 "http://www.w3.org/Graphics/SVG/1.1/DTD/svg11.dtd">
<!-- Generated by graphviz version 12.1.1 (20240910.0053)
 -->
<!-- Title: Deluxe.DeluxeBrandCenter.AMM.Infrastructure.Mindfire.UserServiceMF Pages: 1 -->
<svg width="220pt" height="164pt"
 viewBox="0.00 0.00 219.62 164.00" xmlns="http://www.w3.org/2000/svg" xmlns:xlink="http://www.w3.org/1999/xlink">
<g id="graph0" class="graph" transform="scale(1 1) rotate(0) translate(4 160)">
<title>Deluxe.DeluxeBrandCenter.AMM.Infrastructure.Mindfire.UserServiceMF</title>
<!-- Node1 -->
<g id="Node000001" class="node">
<title>Node1</title>
<g id="a_Node000001"><a xlink:title=" ">
<polygon fill="#999999" stroke="#666666" points="190.75,-44 29.25,-44 29.25,0 190.75,0 190.75,-44"/>
<text text-anchor="start" x="37.25" y="-30.5" font-family="Helvetica,sans-Serif" font-size="10.00">Deluxe.DeluxeBrandCenter.</text>
<text text-anchor="start" x="37.25" y="-18.5" font-family="Helvetica,sans-Serif" font-size="10.00">AMM.Infrastructure.Mindfire.User</text>
<text text-anchor="middle" x="110" y="-6.5" font-family="Helvetica,sans-Serif" font-size="10.00">ServiceMF</text>
</a>
</g>
</g>
<!-- Node2 -->
<g id="Node000002" class="node">
<title>Node2</title>
<g id="a_Node000002"><a xlink:href="../../d7/d00/class_deluxe_1_1_deluxe_brand_center_1_1_a_m_m_1_1_infrastructure_1_1_mindfire_1_1_base_mindfire_service.html" target="_top" xlink:title=" ">
<polygon fill="white" stroke="#666666" points="106,-100 0,-100 0,-80 106,-80 106,-100"/>
<text text-anchor="middle" x="53" y="-86.5" font-family="Helvetica,sans-Serif" font-size="10.00">BaseMindfireService</text>
</a>
</g>
</g>
<!-- Node2&#45;&gt;Node1 -->
<g id="edge1_Node000001_Node000002" class="edge">
<title>Node2&#45;&gt;Node1</title>
<g id="a_edge1_Node000001_Node000002"><a xlink:title=" ">
<path fill="none" stroke="#63b8ff" d="M68.47,-71.08C75.58,-62.86 84.06,-53.04 91.49,-44.43"/>
<polygon fill="#63b8ff" stroke="#63b8ff" points="66.04,-68.54 62.16,-78.4 71.34,-73.12 66.04,-68.54"/>
</a>
</g>
</g>
<!-- Node3 -->
<g id="Node000003" class="node">
<title>Node3</title>
<g id="a_Node000003"><a xlink:href="../../de/d4f/interface_deluxe_1_1_deluxe_brand_center_1_1_a_m_m_1_1_infrastructure_1_1_mindfire_1_1_i_base_mindfire_service.html" target="_top" xlink:title=" ">
<polygon fill="white" stroke="#666666" points="164.5,-156 55.5,-156 55.5,-136 164.5,-136 164.5,-156"/>
<text text-anchor="middle" x="110" y="-142.5" font-family="Helvetica,sans-Serif" font-size="10.00">IBaseMindfireService</text>
</a>
</g>
</g>
<!-- Node3&#45;&gt;Node2 -->
<g id="edge2_Node000002_Node000003" class="edge">
<title>Node3&#45;&gt;Node2</title>
<g id="a_edge2_Node000002_Node000003"><a xlink:title=" ">
<path fill="none" stroke="#63b8ff" d="M91.89,-127.85C82.26,-118.72 70.79,-107.86 62.81,-100.3"/>
<polygon fill="#63b8ff" stroke="#63b8ff" points="89.31,-130.22 98.97,-134.55 94.12,-125.13 89.31,-130.22"/>
</a>
</g>
</g>
<!-- Node4 -->
<g id="Node000004" class="node">
<title>Node4</title>
<g id="a_Node000004"><a xlink:href="../../d0/d33/interface_deluxe_1_1_deluxe_brand_center_1_1_a_m_m_1_1_infrastructure_1_1_mindfire_1_1_i_user_service_m_f.html" target="_top" xlink:title=" ">
<polygon fill="white" stroke="#666666" points="211.62,-100 124.38,-100 124.38,-80 211.62,-80 211.62,-100"/>
<text text-anchor="middle" x="168" y="-86.5" font-family="Helvetica,sans-Serif" font-size="10.00">IUserServiceMF</text>
</a>
</g>
</g>
<!-- Node3&#45;&gt;Node4 -->
<g id="edge4_Node000004_Node000003" class="edge">
<title>Node3&#45;&gt;Node4</title>
<g id="a_edge4_Node000004_Node000003"><a xlink:title=" ">
<path fill="none" stroke="#63b8ff" d="M128.42,-127.85C138.23,-118.72 149.9,-107.86 158.01,-100.3"/>
<polygon fill="#63b8ff" stroke="#63b8ff" points="126.14,-125.19 121.21,-134.56 130.91,-130.31 126.14,-125.19"/>
</a>
</g>
</g>
<!-- Node4&#45;&gt;Node1 -->
<g id="edge3_Node000001_Node000004" class="edge">
<title>Node4&#45;&gt;Node1</title>
<g id="a_edge3_Node000001_Node000004"><a xlink:title=" ">
<path fill="none" stroke="#63b8ff" d="M152.26,-71.08C145.03,-62.86 136.4,-53.04 128.83,-44.43"/>
<polygon fill="#63b8ff" stroke="#63b8ff" points="149.46,-73.21 158.69,-78.41 154.72,-68.58 149.46,-73.21"/>
</a>
</g>
</g>
</g>
</svg>
