<?xml version="1.0" encoding="UTF-8" standalone="no"?>
<!DOCTYPE svg PUBLIC "-//W3C//DTD SVG 1.1//EN"
 "http://www.w3.org/Graphics/SVG/1.1/DTD/svg11.dtd">
<!-- Generated by graphviz version 12.1.1 (20240910.0053)
 -->
<!-- Title: Deluxe.DeluxeBrandCenter.AMM.Domain.ITableEditor&lt; T &gt; Pages: 1 -->
<svg width="216pt" height="96pt"
 viewBox="0.00 0.00 215.75 96.00" xmlns="http://www.w3.org/2000/svg" xmlns:xlink="http://www.w3.org/1999/xlink">
<g id="graph0" class="graph" transform="scale(1 1) rotate(0) translate(4 92)">
<title>Deluxe.DeluxeBrandCenter.AMM.Domain.ITableEditor&lt; T &gt;</title>
<!-- Node1 -->
<g id="Node000001" class="node">
<title>Node1</title>
<g id="a_Node000001"><a xlink:title="Interface implements IRowEditor and IColumnEditor.">
<polygon fill="#999999" stroke="#666666" points="177,-32 23,-32 23,0 177,0 177,-32"/>
<text text-anchor="start" x="31" y="-18.5" font-family="Helvetica,sans-Serif" font-size="10.00">Deluxe.DeluxeBrandCenter.</text>
<text text-anchor="middle" x="100" y="-6.5" font-family="Helvetica,sans-Serif" font-size="10.00">AMM.Domain.ITableEditor&lt; T &gt;</text>
</a>
</g>
</g>
<!-- Node2 -->
<g id="Node000002" class="node">
<title>Node2</title>
<g id="a_Node000002"><a xlink:href="../../d0/d81/interface_deluxe_1_1_deluxe_brand_center_1_1_a_m_m_1_1_domain_1_1_i_row_editor.html" target="_top" xlink:title="Interface for row editing that has Delete row, append row and insert row.">
<polygon fill="white" stroke="#666666" points="88,-88 0,-88 0,-68 88,-68 88,-88"/>
<text text-anchor="middle" x="44" y="-74.5" font-family="Helvetica,sans-Serif" font-size="10.00">IRowEditor&lt; T &gt;</text>
</a>
</g>
</g>
<!-- Node2&#45;&gt;Node1 -->
<g id="edge1_Node000001_Node000002" class="edge">
<title>Node2&#45;&gt;Node1</title>
<g id="a_edge1_Node000001_Node000002"><a xlink:title=" ">
<path fill="none" stroke="#63b8ff" d="M60.45,-59.37C68.52,-50.73 78.14,-40.42 85.87,-32.14"/>
<polygon fill="#63b8ff" stroke="#63b8ff" points="58.05,-56.82 53.78,-66.52 63.16,-61.6 58.05,-56.82"/>
</a>
</g>
</g>
<!-- Node3 -->
<g id="Node000003" class="node">
<title>Node3</title>
<g id="a_Node000003"><a xlink:href="../../d7/d95/interface_deluxe_1_1_deluxe_brand_center_1_1_a_m_m_1_1_domain_1_1_i_column_editor.html" target="_top" xlink:title="Interface for column editing (delete column, append column and insert column)">
<polygon fill="white" stroke="#666666" points="207.75,-88 106.25,-88 106.25,-68 207.75,-68 207.75,-88"/>
<text text-anchor="middle" x="157" y="-74.5" font-family="Helvetica,sans-Serif" font-size="10.00">IColumnEditor&lt; T &gt;</text>
</a>
</g>
</g>
<!-- Node3&#45;&gt;Node1 -->
<g id="edge2_Node000001_Node000003" class="edge">
<title>Node3&#45;&gt;Node1</title>
<g id="a_edge2_Node000001_Node000003"><a xlink:title=" ">
<path fill="none" stroke="#63b8ff" d="M140.25,-59.37C132.04,-50.73 122.25,-40.42 114.38,-32.14"/>
<polygon fill="#63b8ff" stroke="#63b8ff" points="137.63,-61.69 147.05,-66.53 142.7,-56.87 137.63,-61.69"/>
</a>
</g>
</g>
</g>
</svg>
