<?xml version="1.0" encoding="UTF-8" standalone="no"?>
<!DOCTYPE svg PUBLIC "-//W3C//DTD SVG 1.1//EN"
 "http://www.w3.org/Graphics/SVG/1.1/DTD/svg11.dtd">
<!-- Generated by graphviz version 12.1.1 (20240910.0053)
 -->
<!-- Title: Deluxe.DeluxeBrandCenter.AMM.Domain.Table&lt; T &gt; Pages: 1 -->
<svg width="1157pt" height="123pt"
 viewBox="0.00 0.00 1157.00 123.00" xmlns="http://www.w3.org/2000/svg" xmlns:xlink="http://www.w3.org/1999/xlink">
<g id="graph0" class="graph" transform="scale(1 1) rotate(0) translate(4 119)">
<title>Deluxe.DeluxeBrandCenter.AMM.Domain.Table&lt; T &gt;</title>
<!-- Node1 -->
<g id="Node000001" class="node">
<title>Node1</title>
<g id="a_Node000001"><a xlink:title=" ">
<polygon fill="#999999" stroke="#666666" points="513.25,-83 375,-83 375,-51 513.25,-51 513.25,-83"/>
<text text-anchor="start" x="383" y="-69.5" font-family="Helvetica,sans-Serif" font-size="10.00">Deluxe.DeluxeBrandCenter.</text>
<text text-anchor="middle" x="444.12" y="-57.5" font-family="Helvetica,sans-Serif" font-size="10.00">AMM.Domain.Table&lt; T &gt;</text>
</a>
</g>
</g>
<!-- Node8 -->
<g id="Node000008" class="node">
<title>Node8</title>
<g id="a_Node000008"><a xlink:href="../../d7/d96/class_deluxe_1_1_deluxe_brand_center_1_1_a_m_m_1_1_domain_1_1_table.html" target="_top" xlink:title=" ">
<polygon fill="white" stroke="#666666" points="738.5,-83 594.25,-83 594.25,-51 738.5,-51 738.5,-83"/>
<text text-anchor="start" x="602.25" y="-69.5" font-family="Helvetica,sans-Serif" font-size="10.00">Deluxe.DeluxeBrandCenter.</text>
<text text-anchor="middle" x="666.38" y="-57.5" font-family="Helvetica,sans-Serif" font-size="10.00">AMM.Domain.Table&lt; string &gt;</text>
</a>
</g>
</g>
<!-- Node1&#45;&gt;Node8 -->
<g id="edge7_Node000001_Node000008" class="edge">
<title>Node1&#45;&gt;Node8</title>
<g id="a_edge7_Node000001_Node000008"><a xlink:title=" ">
<path fill="none" stroke="orange" stroke-dasharray="5,2" d="M524.87,-67C547.43,-67 571.84,-67 593.89,-67"/>
<polygon fill="orange" stroke="orange" points="525.12,-63.5 515.12,-67 525.12,-70.5 525.12,-63.5"/>
</a>
</g>
<text text-anchor="middle" x="553.75" y="-69.5" font-family="Helvetica,sans-Serif" font-size="10.00" fill="grey"> &lt; string &gt;</text>
</g>
<!-- Node2 -->
<g id="Node000002" class="node">
<title>Node2</title>
<g id="a_Node000002"><a xlink:href="../../d8/d96/interface_deluxe_1_1_deluxe_brand_center_1_1_a_m_m_1_1_domain_1_1_i_table.html" target="_top" xlink:title="Interface implements ITableReader, ITableWriter, ITableEditor.">
<polygon fill="white" stroke="#666666" points="338,-77 272.5,-77 272.5,-57 338,-57 338,-77"/>
<text text-anchor="middle" x="305.25" y="-63.5" font-family="Helvetica,sans-Serif" font-size="10.00">ITable&lt; T &gt;</text>
</a>
</g>
</g>
<!-- Node2&#45;&gt;Node1 -->
<g id="edge1_Node000001_Node000002" class="edge">
<title>Node2&#45;&gt;Node1</title>
<g id="a_edge1_Node000001_Node000002"><a xlink:title=" ">
<path fill="none" stroke="#63b8ff" d="M349.85,-67C357.74,-67 366.13,-67 374.53,-67"/>
<polygon fill="#63b8ff" stroke="#63b8ff" points="349.85,-63.5 339.85,-67 349.85,-70.5 349.85,-63.5"/>
</a>
</g>
</g>
<!-- Node3 -->
<g id="Node000003" class="node">
<title>Node3</title>
<g id="a_Node000003"><a xlink:href="../../d3/dd6/interface_deluxe_1_1_deluxe_brand_center_1_1_a_m_m_1_1_domain_1_1_i_table_reader.html" target="_top" xlink:title=" ">
<polygon fill="white" stroke="#666666" points="235.5,-115 138.5,-115 138.5,-95 235.5,-95 235.5,-115"/>
<text text-anchor="middle" x="187" y="-101.5" font-family="Helvetica,sans-Serif" font-size="10.00">ITableReader&lt; T &gt;</text>
</a>
</g>
</g>
<!-- Node3&#45;&gt;Node2 -->
<g id="edge2_Node000002_Node000003" class="edge">
<title>Node3&#45;&gt;Node2</title>
<g id="a_edge2_Node000002_Node000003"><a xlink:title=" ">
<path fill="none" stroke="#63b8ff" d="M230.76,-91.02C244.49,-86.53 259.46,-81.64 272.28,-77.45"/>
<polygon fill="#63b8ff" stroke="#63b8ff" points="229.93,-87.61 221.51,-94.05 232.1,-94.27 229.93,-87.61"/>
</a>
</g>
</g>
<!-- Node4 -->
<g id="Node000004" class="node">
<title>Node4</title>
<g id="a_Node000004"><a xlink:href="../../df/d98/interface_deluxe_1_1_deluxe_brand_center_1_1_a_m_m_1_1_domain_1_1_i_table_writer.html" target="_top" xlink:title="Interface for writing that has SetValue.">
<polygon fill="white" stroke="#666666" points="232.5,-77 141.5,-77 141.5,-57 232.5,-57 232.5,-77"/>
<text text-anchor="middle" x="187" y="-63.5" font-family="Helvetica,sans-Serif" font-size="10.00">ITableWriter&lt; T &gt;</text>
</a>
</g>
</g>
<!-- Node4&#45;&gt;Node2 -->
<g id="edge3_Node000002_Node000004" class="edge">
<title>Node4&#45;&gt;Node2</title>
<g id="a_edge3_Node000002_Node000004"><a xlink:title=" ">
<path fill="none" stroke="#63b8ff" d="M244.41,-67C253.9,-67 263.44,-67 272.03,-67"/>
<polygon fill="#63b8ff" stroke="#63b8ff" points="244.46,-63.5 234.46,-67 244.46,-70.5 244.46,-63.5"/>
</a>
</g>
</g>
<!-- Node5 -->
<g id="Node000005" class="node">
<title>Node5</title>
<g id="a_Node000005"><a xlink:href="../../de/d9e/interface_deluxe_1_1_deluxe_brand_center_1_1_a_m_m_1_1_domain_1_1_i_table_editor.html" target="_top" xlink:title="Interface implements IRowEditor and IColumnEditor.">
<polygon fill="white" stroke="#666666" points="232.5,-39 141.5,-39 141.5,-19 232.5,-19 232.5,-39"/>
<text text-anchor="middle" x="187" y="-25.5" font-family="Helvetica,sans-Serif" font-size="10.00">ITableEditor&lt; T &gt;</text>
</a>
</g>
</g>
<!-- Node5&#45;&gt;Node2 -->
<g id="edge4_Node000002_Node000005" class="edge">
<title>Node5&#45;&gt;Node2</title>
<g id="a_edge4_Node000002_Node000005"><a xlink:title=" ">
<path fill="none" stroke="#63b8ff" d="M230.76,-42.98C244.49,-47.47 259.46,-52.36 272.28,-56.55"/>
<polygon fill="#63b8ff" stroke="#63b8ff" points="232.1,-39.73 221.51,-39.95 229.93,-46.39 232.1,-39.73"/>
</a>
</g>
</g>
<!-- Node6 -->
<g id="Node000006" class="node">
<title>Node6</title>
<g id="a_Node000006"><a xlink:href="../../d0/d81/interface_deluxe_1_1_deluxe_brand_center_1_1_a_m_m_1_1_domain_1_1_i_row_editor.html" target="_top" xlink:title="Interface for row editing that has Delete row, append row and insert row.">
<polygon fill="white" stroke="#666666" points="94.75,-58 6.75,-58 6.75,-38 94.75,-38 94.75,-58"/>
<text text-anchor="middle" x="50.75" y="-44.5" font-family="Helvetica,sans-Serif" font-size="10.00">IRowEditor&lt; T &gt;</text>
</a>
</g>
</g>
<!-- Node6&#45;&gt;Node5 -->
<g id="edge5_Node000005_Node000006" class="edge">
<title>Node6&#45;&gt;Node5</title>
<g id="a_edge5_Node000005_Node000006"><a xlink:title=" ">
<path fill="none" stroke="#63b8ff" d="M106.28,-40.28C117.82,-38.65 129.88,-36.94 141.02,-35.37"/>
<polygon fill="#63b8ff" stroke="#63b8ff" points="105.88,-36.8 96.47,-41.67 106.86,-43.74 105.88,-36.8"/>
</a>
</g>
</g>
<!-- Node7 -->
<g id="Node000007" class="node">
<title>Node7</title>
<g id="a_Node000007"><a xlink:href="../../d7/d95/interface_deluxe_1_1_deluxe_brand_center_1_1_a_m_m_1_1_domain_1_1_i_column_editor.html" target="_top" xlink:title="Interface for column editing (delete column, append column and insert column)">
<polygon fill="white" stroke="#666666" points="101.5,-20 0,-20 0,0 101.5,0 101.5,-20"/>
<text text-anchor="middle" x="50.75" y="-6.5" font-family="Helvetica,sans-Serif" font-size="10.00">IColumnEditor&lt; T &gt;</text>
</a>
</g>
</g>
<!-- Node7&#45;&gt;Node5 -->
<g id="edge6_Node000005_Node000007" class="edge">
<title>Node7&#45;&gt;Node5</title>
<g id="a_edge6_Node000005_Node000007"><a xlink:title=" ">
<path fill="none" stroke="#63b8ff" d="M112.85,-18.65C122.43,-20 132.16,-21.38 141.28,-22.67"/>
<polygon fill="#63b8ff" stroke="#63b8ff" points="113.63,-15.22 103.24,-17.29 112.65,-22.15 113.63,-15.22"/>
</a>
</g>
</g>
<!-- Node9 -->
<g id="Node000009" class="node">
<title>Node9</title>
<g id="a_Node000009"><a xlink:href="../../d0/d2a/class_deluxe_1_1_deluxe_brand_center_1_1_a_m_m_1_1_domain_1_1_utility_1_1_c_s_v_table.html" target="_top" xlink:title=" ">
<polygon fill="white" stroke="#666666" points="926.5,-83 775.5,-83 775.5,-51 926.5,-51 926.5,-83"/>
<text text-anchor="start" x="783.5" y="-69.5" font-family="Helvetica,sans-Serif" font-size="10.00">Deluxe.DeluxeBrandCenter.</text>
<text text-anchor="middle" x="851" y="-57.5" font-family="Helvetica,sans-Serif" font-size="10.00">AMM.Domain.Utility.CSVTable</text>
</a>
</g>
</g>
<!-- Node8&#45;&gt;Node9 -->
<g id="edge8_Node000008_Node000009" class="edge">
<title>Node8&#45;&gt;Node9</title>
<g id="a_edge8_Node000008_Node000009"><a xlink:title=" ">
<path fill="none" stroke="#63b8ff" d="M750.04,-67C758.37,-67 766.8,-67 775.04,-67"/>
<polygon fill="#63b8ff" stroke="#63b8ff" points="750.28,-63.5 740.28,-67 750.28,-70.5 750.28,-63.5"/>
</a>
</g>
</g>
<!-- Node10 -->
<g id="Node000010" class="node">
<title>Node10</title>
<g id="a_Node000010"><a xlink:href="../../d8/d92/class_deluxe_1_1_deluxe_brand_center_1_1_a_m_m_1_1_domain_1_1_utility_1_1_activity_c_s_v_table.html" target="_top" xlink:title=" ">
<polygon fill="white" stroke="#666666" points="1148.25,-108 964.25,-108 964.25,-76 1148.25,-76 1148.25,-108"/>
<text text-anchor="start" x="972.25" y="-94.5" font-family="Helvetica,sans-Serif" font-size="10.00">Deluxe.DeluxeBrandCenter.</text>
<text text-anchor="middle" x="1056.25" y="-82.5" font-family="Helvetica,sans-Serif" font-size="10.00">AMM.Domain.Utility.ActivityCSVTable</text>
</a>
</g>
</g>
<!-- Node9&#45;&gt;Node10 -->
<g id="edge9_Node000009_Node000010" class="edge">
<title>Node9&#45;&gt;Node10</title>
<g id="a_edge9_Node000009_Node000010"><a xlink:title=" ">
<path fill="none" stroke="#63b8ff" d="M938.02,-77.58C946.62,-78.64 955.38,-79.72 964.03,-80.78"/>
<polygon fill="#63b8ff" stroke="#63b8ff" points="938.67,-74.13 928.32,-76.39 937.82,-81.08 938.67,-74.13"/>
</a>
</g>
</g>
<!-- Node11 -->
<g id="Node000011" class="node">
<title>Node11</title>
<g id="a_Node000011"><a xlink:href="../../dd/d19/class_deluxe_1_1_deluxe_brand_center_1_1_a_m_m_1_1_domain_1_1_utility_1_1_contact_c_s_v_table.html" target="_top" xlink:title=" ">
<polygon fill="white" stroke="#666666" points="1149,-58 963.5,-58 963.5,-26 1149,-26 1149,-58"/>
<text text-anchor="start" x="971.5" y="-44.5" font-family="Helvetica,sans-Serif" font-size="10.00">Deluxe.DeluxeBrandCenter.</text>
<text text-anchor="middle" x="1056.25" y="-32.5" font-family="Helvetica,sans-Serif" font-size="10.00">AMM.Domain.Utility.ContactCSVTable</text>
</a>
</g>
</g>
<!-- Node9&#45;&gt;Node11 -->
<g id="edge10_Node000009_Node000011" class="edge">
<title>Node9&#45;&gt;Node11</title>
<g id="a_edge10_Node000009_Node000011"><a xlink:title=" ">
<path fill="none" stroke="#63b8ff" d="M938.09,-56.41C946.44,-55.38 954.93,-54.34 963.34,-53.31"/>
<polygon fill="#63b8ff" stroke="#63b8ff" points="937.82,-52.92 928.32,-57.61 938.67,-59.87 937.82,-52.92"/>
</a>
</g>
</g>
</g>
</svg>
