<?xml version="1.0" encoding="UTF-8" standalone="no"?>
<!DOCTYPE svg PUBLIC "-//W3C//DTD SVG 1.1//EN"
 "http://www.w3.org/Graphics/SVG/1.1/DTD/svg11.dtd">
<!-- Generated by graphviz version 12.1.1 (20240910.0053)
 -->
<!-- Title: Deluxe.DeluxeBrandCenter.AMM.Domain.ViewModel.CampaignBuilder.Comment.GetComment Pages: 1 -->
<!--zoomable 388 -->

<svg id="main" version="1.1" xmlns="http://www.w3.org/2000/svg" xmlns:xlink="http://www.w3.org/1999/xlink" xml:space="preserve" onload="init(evt)">

<style type="text/css"><![CDATA[
.node, .edge {opacity: 0.7;}
.node.selected, .edge.selected {opacity: 1;}
.edge:hover path { stroke: red; }
.edge:hover polygon { stroke: red; fill: red; }
]]></style>

<defs>
  <circle id="rim" cx="0" cy="0" r="7"/>
  <circle id="rim2" cx="0" cy="0" r="3.5"/>
  <g id="zoomPlus">
    <use xlink:href="#rim" fill="#404040"><set attributeName="fill" to="#808080" begin="zoomplus.mouseover" end="zoomplus.mouseout"/></use>
    <path d="M-4,0h8M0,-4v8" fill="none" stroke="white" stroke-width="1.5" pointer-events="none"/>
  </g>
  <g id="zoomMin">
    <use xlink:href="#rim" fill="#404040"><set attributeName="fill" to="#808080" begin="zoomminus.mouseover" end="zoomminus.mouseout"/></use>
    <path d="M-4,0h8" fill="none" stroke="white" stroke-width="1.5" pointer-events="none"/>
  </g>
  <g id="arrowUp" transform="translate(30 24)">
    <use xlink:href="#rim"/>
    <path pointer-events="none" fill="none" stroke="white" stroke-width="1.5" d="M0,-3.0v7 M-2.5,-0.5L0,-3.0L2.5,-0.5"/>
  </g>
  <g id="arrowRight" transform="rotate(90) translate(36 -43)">
    <use xlink:href="#rim"/>
    <path pointer-events="none" fill="none" stroke="white" stroke-width="1.5" d="M0,-3.0v7 M-2.5,-0.5L0,-3.0L2.5,-0.5"/>
  </g>
  <g id="arrowDown" transform="rotate(180) translate(-30 -48)">
    <use xlink:href="#rim"/>
    <path pointer-events="none" fill="none" stroke="white" stroke-width="1.5" d="M0,-3.0v7 M-2.5,-0.5L0,-3.0L2.5,-0.5"/>
  </g>
  <g id="arrowLeft" transform="rotate(270) translate(-36 17)">
    <use xlink:href="#rim"/>
    <path pointer-events="none" fill="none" stroke="white" stroke-width="1.5" d="M0,-3.0v7 M-2.5,-0.5L0,-3.0L2.5,-0.5"/>
  </g>
  <g id="resetDef">
    <use xlink:href="#rim2" fill="#404040"><set attributeName="fill" to="#808080" begin="reset.mouseover" end="reset.mouseout"/></use>
  </g>
</defs>
<script type="application/ecmascript">
var viewWidth = 1341;
var viewHeight = 388;
var sectionId = 'dynsection-0';
</script>
<script type="application/ecmascript" xlink:href="../../svg.min.js"/>
<svg id="graph" class="graph">
<g id="viewport">
<title>Deluxe.DeluxeBrandCenter.AMM.Domain.ViewModel.CampaignBuilder.Comment.GetComment</title>
<!-- Node1 -->
<g id="Node000001" class="node">
<title>Node1</title>
<g id="a_Node000001"><a xlink:title=" ">
<polygon fill="#999999" stroke="#666666" points="1332.75,-237 1125.5,-237 1125.5,-193 1332.75,-193 1332.75,-237"/>
<text text-anchor="start" x="1133.5" y="-223.5" font-family="Helvetica,sans-Serif" font-size="10.00">Deluxe.DeluxeBrandCenter.</text>
<text text-anchor="start" x="1133.5" y="-211.5" font-family="Helvetica,sans-Serif" font-size="10.00">AMM.Domain.ViewModel.CampaignBuilder.</text>
<text text-anchor="middle" x="1229.12" y="-199.5" font-family="Helvetica,sans-Serif" font-size="10.00">Comment.GetComment</text>
</a>
</g>
</g>
<!-- Node2 -->
<g id="Node000002" class="node">
<title>Node2</title>
<g id="a_Node000002"><a xlink:href="../../d6/d65/class_deluxe_1_1_deluxe_brand_center_1_1_a_m_m_1_1_a_p_i_1_1_services_1_1_campaign_builder_service.html#a57435ae2fe593aa7ce835a599a8cb799" target="_top" xlink:title=" ">
<polygon fill="white" stroke="#666666" points="630.38,-350 453.12,-350 453.12,-306 630.38,-306 630.38,-350"/>
<text text-anchor="start" x="461.12" y="-336.5" font-family="Helvetica,sans-Serif" font-size="10.00">Deluxe.DeluxeBrandCenter.</text>
<text text-anchor="start" x="461.12" y="-324.5" font-family="Helvetica,sans-Serif" font-size="10.00">AMM.API.Services.CampaignBuilder</text>
<text text-anchor="middle" x="541.75" y="-312.5" font-family="Helvetica,sans-Serif" font-size="10.00">Service.GetCampaign</text>
</a>
</g>
</g>
<!-- Node1&#45;&gt;Node2 -->
<g id="edge1_Node000001_Node000002" class="edge">
<title>Node1&#45;&gt;Node2</title>
<g id="a_edge1_Node000001_Node000002"><a xlink:title=" ">
<path fill="none" stroke="#63b8ff" d="M1200.18,-245.52C1174.23,-271.76 1133.1,-308.26 1089.5,-327 916.7,-401.28 854.2,-381.85 667.5,-359 652.22,-357.13 636.11,-354.02 620.73,-350.46"/>
<polygon fill="#63b8ff" stroke="#63b8ff" points="1202.56,-248.1 1207.01,-238.48 1197.54,-243.22 1202.56,-248.1"/>
</a>
</g>
</g>
<!-- Node3 -->
<g id="Node000003" class="node">
<title>Node3</title>
<g id="a_Node000003"><a xlink:href="../../d6/d65/class_deluxe_1_1_deluxe_brand_center_1_1_a_m_m_1_1_a_p_i_1_1_services_1_1_campaign_builder_service.html#a586c0501817a5a833896810a9317d00c" target="_top" xlink:title=" ">
<polygon fill="white" stroke="#666666" points="1076,-144 898.75,-144 898.75,-100 1076,-100 1076,-144"/>
<text text-anchor="start" x="906.75" y="-130.5" font-family="Helvetica,sans-Serif" font-size="10.00">Deluxe.DeluxeBrandCenter.</text>
<text text-anchor="start" x="906.75" y="-118.5" font-family="Helvetica,sans-Serif" font-size="10.00">AMM.API.Services.CampaignBuilder</text>
<text text-anchor="middle" x="987.38" y="-106.5" font-family="Helvetica,sans-Serif" font-size="10.00">Service.MapEmailElementToXML</text>
</a>
</g>
</g>
<!-- Node1&#45;&gt;Node3 -->
<g id="edge2_Node000001_Node000003" class="edge">
<title>Node1&#45;&gt;Node3</title>
<g id="a_edge2_Node000001_Node000003"><a xlink:title=" ">
<path fill="none" stroke="#63b8ff" d="M1171.54,-187.8C1146.67,-176.33 1116.93,-163.29 1089.5,-153 1081.68,-150.06 1073.44,-147.19 1065.19,-144.46"/>
<polygon fill="#63b8ff" stroke="#63b8ff" points="1169.96,-190.92 1180.51,-191.96 1172.91,-184.57 1169.96,-190.92"/>
</a>
</g>
</g>
<!-- Node5 -->
<g id="Node000005" class="node">
<title>Node5</title>
<g id="a_Node000005"><a xlink:href="../../d6/d65/class_deluxe_1_1_deluxe_brand_center_1_1_a_m_m_1_1_a_p_i_1_1_services_1_1_campaign_builder_service.html#a6703c8b60de403fb70c7b691d4d7c2a9" target="_top" xlink:title=" ">
<polygon fill="white" stroke="#666666" points="630.38,-119 453.12,-119 453.12,-75 630.38,-75 630.38,-119"/>
<text text-anchor="start" x="461.12" y="-105.5" font-family="Helvetica,sans-Serif" font-size="10.00">Deluxe.DeluxeBrandCenter.</text>
<text text-anchor="start" x="461.12" y="-93.5" font-family="Helvetica,sans-Serif" font-size="10.00">AMM.API.Services.CampaignBuilder</text>
<text text-anchor="middle" x="541.75" y="-81.5" font-family="Helvetica,sans-Serif" font-size="10.00">Service.MapUserCampaignToXML</text>
</a>
</g>
</g>
<!-- Node1&#45;&gt;Node5 -->
<g id="edge10_Node000001_Node000005" class="edge">
<title>Node1&#45;&gt;Node5</title>
<g id="a_edge10_Node000001_Node000005"><a xlink:title=" ">
<path fill="none" stroke="#63b8ff" d="M1204.81,-183.77C1180.06,-153.49 1137.89,-109.48 1089.5,-91 936.53,-32.57 741.46,-55.61 630.49,-76.85"/>
<polygon fill="#63b8ff" stroke="#63b8ff" points="1202.01,-185.87 1210.98,-191.51 1207.48,-181.51 1202.01,-185.87"/>
</a>
</g>
</g>
<!-- Node8 -->
<g id="Node000008" class="node">
<title>Node8</title>
<g id="a_Node000008"><a xlink:href="../../d6/d65/class_deluxe_1_1_deluxe_brand_center_1_1_a_m_m_1_1_a_p_i_1_1_services_1_1_campaign_builder_service.html#af750674ed0f54f17fe4e2987ff7c0a63" target="_top" xlink:title=" ">
<polygon fill="white" stroke="#666666" points="1076,-206 898.75,-206 898.75,-162 1076,-162 1076,-206"/>
<text text-anchor="start" x="906.75" y="-192.5" font-family="Helvetica,sans-Serif" font-size="10.00">Deluxe.DeluxeBrandCenter.</text>
<text text-anchor="start" x="906.75" y="-180.5" font-family="Helvetica,sans-Serif" font-size="10.00">AMM.API.Services.CampaignBuilder</text>
<text text-anchor="middle" x="987.38" y="-168.5" font-family="Helvetica,sans-Serif" font-size="10.00">Service.MapSocialElementToXML</text>
</a>
</g>
</g>
<!-- Node1&#45;&gt;Node8 -->
<g id="edge8_Node000001_Node000008" class="edge">
<title>Node1&#45;&gt;Node8</title>
<g id="a_edge8_Node000001_Node000008"><a xlink:title=" ">
<path fill="none" stroke="#63b8ff" d="M1113.97,-200.24C1101.3,-198.6 1088.55,-196.95 1076.29,-195.37"/>
<polygon fill="#63b8ff" stroke="#63b8ff" points="1113.19,-203.67 1123.56,-201.48 1114.09,-196.73 1113.19,-203.67"/>
</a>
</g>
</g>
<!-- Node9 -->
<g id="Node000009" class="node">
<title>Node9</title>
<g id="a_Node000009"><a xlink:href="../../d6/d65/class_deluxe_1_1_deluxe_brand_center_1_1_a_m_m_1_1_a_p_i_1_1_services_1_1_campaign_builder_service.html#ad283235567b856b4e70d91da2bbeca0e" target="_top" xlink:title=" ">
<polygon fill="white" stroke="#666666" points="848.12,-288 668.62,-288 668.62,-244 848.12,-244 848.12,-288"/>
<text text-anchor="start" x="676.62" y="-274.5" font-family="Helvetica,sans-Serif" font-size="10.00">Deluxe.DeluxeBrandCenter.</text>
<text text-anchor="start" x="676.62" y="-262.5" font-family="Helvetica,sans-Serif" font-size="10.00">AMM.API.Services.CampaignBuilder</text>
<text text-anchor="middle" x="758.38" y="-250.5" font-family="Helvetica,sans-Serif" font-size="10.00">Service.MapXMLtoCampaignElement</text>
</a>
</g>
</g>
<!-- Node1&#45;&gt;Node9 -->
<g id="edge11_Node000001_Node000009" class="edge">
<title>Node1&#45;&gt;Node9</title>
<g id="a_edge11_Node000001_Node000009"><a xlink:title=" ">
<path fill="none" stroke="#63b8ff" d="M1179.97,-242.57C1154.06,-255.83 1121.03,-270.27 1089.5,-277 1009.16,-294.15 915.37,-288.66 848.33,-280.5"/>
<polygon fill="#63b8ff" stroke="#63b8ff" points="1181.31,-245.82 1188.55,-238.08 1178.07,-239.62 1181.31,-245.82"/>
</a>
</g>
</g>
<!-- Node11 -->
<g id="Node000011" class="node">
<title>Node11</title>
<g id="a_Node000011"><a xlink:href="../../d6/d65/class_deluxe_1_1_deluxe_brand_center_1_1_a_m_m_1_1_a_p_i_1_1_services_1_1_campaign_builder_service.html#a74ba8e98a9d32f4a88b206365c879163" target="_top" xlink:title=" ">
<polygon fill="white" stroke="#666666" points="1076,-268 898.75,-268 898.75,-224 1076,-224 1076,-268"/>
<text text-anchor="start" x="906.75" y="-254.5" font-family="Helvetica,sans-Serif" font-size="10.00">Deluxe.DeluxeBrandCenter.</text>
<text text-anchor="start" x="906.75" y="-242.5" font-family="Helvetica,sans-Serif" font-size="10.00">AMM.API.Services.CampaignBuilder</text>
<text text-anchor="middle" x="987.38" y="-230.5" font-family="Helvetica,sans-Serif" font-size="10.00">Service.MapXMLToSchedule</text>
</a>
</g>
</g>
<!-- Node1&#45;&gt;Node11 -->
<g id="edge14_Node000001_Node000011" class="edge">
<title>Node1&#45;&gt;Node11</title>
<g id="a_edge14_Node000001_Node000011"><a xlink:title=" ">
<path fill="none" stroke="#63b8ff" d="M1113.97,-229.76C1101.3,-231.4 1088.55,-233.05 1076.29,-234.63"/>
<polygon fill="#63b8ff" stroke="#63b8ff" points="1114.09,-233.27 1123.56,-228.52 1113.19,-226.33 1114.09,-233.27"/>
</a>
</g>
</g>
<!-- Node12 -->
<g id="Node000012" class="node">
<title>Node12</title>
<g id="a_Node000012"><a xlink:href="../../d8/d0b/class_deluxe_1_1_deluxe_brand_center_1_1_a_m_m_1_1_a_p_i_1_1_services_1_1_user_campaign_service.html#ad8d306df4cba2c96949141d32a08585e" target="_top" xlink:title=" ">
<polygon fill="white" stroke="#666666" points="1089.5,-44 885.25,-44 885.25,0 1089.5,0 1089.5,-44"/>
<text text-anchor="start" x="893.25" y="-30.5" font-family="Helvetica,sans-Serif" font-size="10.00">Deluxe.DeluxeBrandCenter.</text>
<text text-anchor="start" x="893.25" y="-18.5" font-family="Helvetica,sans-Serif" font-size="10.00">AMM.API.Services.UserCampaignService.</text>
<text text-anchor="middle" x="987.38" y="-6.5" font-family="Helvetica,sans-Serif" font-size="10.00">PendingCampaignDetails</text>
</a>
</g>
</g>
<!-- Node1&#45;&gt;Node12 -->
<g id="edge16_Node000001_Node000012" class="edge">
<title>Node1&#45;&gt;Node12</title>
<g id="a_edge16_Node000001_Node000012"><a xlink:title=" ">
<path fill="none" stroke="#63b8ff" d="M1207.47,-183.2C1183.13,-148.04 1139.6,-91.89 1089.5,-58 1081.86,-52.83 1073.39,-48.32 1064.7,-44.39"/>
<polygon fill="#63b8ff" stroke="#63b8ff" points="1204.44,-184.97 1212.96,-191.27 1210.23,-181.04 1204.44,-184.97"/>
</a>
</g>
</g>
<!-- Node13 -->
<g id="Node000013" class="node">
<title>Node13</title>
<g id="a_Node000013"><a xlink:href="../../d6/d65/class_deluxe_1_1_deluxe_brand_center_1_1_a_m_m_1_1_a_p_i_1_1_services_1_1_campaign_builder_service.html#a80e018243b86364b46a1d5f5c20689a9" target="_top" xlink:title=" ">
<polygon fill="white" stroke="#666666" points="847,-350 669.75,-350 669.75,-306 847,-306 847,-350"/>
<text text-anchor="start" x="677.75" y="-336.5" font-family="Helvetica,sans-Serif" font-size="10.00">Deluxe.DeluxeBrandCenter.</text>
<text text-anchor="start" x="677.75" y="-324.5" font-family="Helvetica,sans-Serif" font-size="10.00">AMM.API.Services.CampaignBuilder</text>
<text text-anchor="middle" x="758.38" y="-312.5" font-family="Helvetica,sans-Serif" font-size="10.00">Service.SetScheduleConfig</text>
</a>
</g>
</g>
<!-- Node1&#45;&gt;Node13 -->
<g id="edge17_Node000001_Node000013" class="edge">
<title>Node1&#45;&gt;Node13</title>
<g id="a_edge17_Node000001_Node000013"><a xlink:title=" ">
<path fill="none" stroke="#63b8ff" d="M1189.82,-243.95C1163.16,-262.47 1125.98,-285.16 1089.5,-297 1010.25,-322.73 915.07,-329.27 847.32,-330.1"/>
<polygon fill="#63b8ff" stroke="#63b8ff" points="1191.77,-246.86 1197.91,-238.22 1187.73,-241.15 1191.77,-246.86"/>
</a>
</g>
</g>
<!-- Node4 -->
<g id="Node000004" class="node">
<title>Node4</title>
<g id="a_Node000004"><a xlink:href="../../d6/d65/class_deluxe_1_1_deluxe_brand_center_1_1_a_m_m_1_1_a_p_i_1_1_services_1_1_campaign_builder_service.html#a9e215d58437e7593cd45bea7ec806076" target="_top" xlink:title=" ">
<polygon fill="white" stroke="#666666" points="849.25,-144 667.5,-144 667.5,-100 849.25,-100 849.25,-144"/>
<text text-anchor="start" x="675.5" y="-130.5" font-family="Helvetica,sans-Serif" font-size="10.00">Deluxe.DeluxeBrandCenter.</text>
<text text-anchor="start" x="675.5" y="-118.5" font-family="Helvetica,sans-Serif" font-size="10.00">AMM.API.Services.CampaignBuilder</text>
<text text-anchor="middle" x="758.38" y="-106.5" font-family="Helvetica,sans-Serif" font-size="10.00">Service.MapCampaignElementToXML</text>
</a>
</g>
</g>
<!-- Node3&#45;&gt;Node4 -->
<g id="edge3_Node000003_Node000004" class="edge">
<title>Node3&#45;&gt;Node4</title>
<g id="a_edge3_Node000003_Node000004"><a xlink:title=" ">
<path fill="none" stroke="#63b8ff" d="M886.97,-122C874.56,-122 861.92,-122 849.66,-122"/>
<polygon fill="#63b8ff" stroke="#63b8ff" points="886.77,-125.5 896.77,-122 886.77,-118.5 886.77,-125.5"/>
</a>
</g>
</g>
<!-- Node4&#45;&gt;Node5 -->
<g id="edge4_Node000004_Node000005" class="edge">
<title>Node4&#45;&gt;Node5</title>
<g id="a_edge4_Node000004_Node000005"><a xlink:title=" ">
<path fill="none" stroke="#63b8ff" d="M656.11,-110.2C647.57,-109.21 638.97,-108.21 630.55,-107.23"/>
<polygon fill="#63b8ff" stroke="#63b8ff" points="655.45,-113.65 665.78,-111.33 656.26,-106.7 655.45,-113.65"/>
</a>
</g>
</g>
<!-- Node6 -->
<g id="Node000006" class="node">
<title>Node6</title>
<g id="a_Node000006"><a xlink:href="../../d6/d65/class_deluxe_1_1_deluxe_brand_center_1_1_a_m_m_1_1_a_p_i_1_1_services_1_1_campaign_builder_service.html#ab302b4e7e24055c5859436dea04b8f65" target="_top" xlink:title=" ">
<polygon fill="white" stroke="#666666" points="416,-94 213.25,-94 213.25,-50 416,-50 416,-94"/>
<text text-anchor="start" x="221.25" y="-80.5" font-family="Helvetica,sans-Serif" font-size="10.00">Deluxe.DeluxeBrandCenter.</text>
<text text-anchor="start" x="221.25" y="-68.5" font-family="Helvetica,sans-Serif" font-size="10.00">AMM.API.Services.CampaignBuilder</text>
<text text-anchor="middle" x="314.62" y="-56.5" font-family="Helvetica,sans-Serif" font-size="10.00">Service.LaunchAlreadyLaunchedCampaign</text>
</a>
</g>
</g>
<!-- Node5&#45;&gt;Node6 -->
<g id="edge5_Node000005_Node000006" class="edge">
<title>Node5&#45;&gt;Node6</title>
<g id="a_edge5_Node000005_Node000006"><a xlink:title=" ">
<path fill="none" stroke="#63b8ff" d="M441.43,-85.97C433.08,-85.04 424.63,-84.1 416.27,-83.18"/>
<polygon fill="#63b8ff" stroke="#63b8ff" points="440.91,-89.43 451.24,-87.06 441.69,-82.48 440.91,-89.43"/>
</a>
</g>
</g>
<!-- Node7 -->
<g id="Node000007" class="node">
<title>Node7</title>
<g id="a_Node000007"><a xlink:href="../../d6/d65/class_deluxe_1_1_deluxe_brand_center_1_1_a_m_m_1_1_a_p_i_1_1_services_1_1_campaign_builder_service.html#a947f982ab93bc77b7199c9aa69ae3628" target="_top" xlink:title=" ">
<polygon fill="white" stroke="#666666" points="177.25,-119 0,-119 0,-75 177.25,-75 177.25,-119"/>
<text text-anchor="start" x="8" y="-105.5" font-family="Helvetica,sans-Serif" font-size="10.00">Deluxe.DeluxeBrandCenter.</text>
<text text-anchor="start" x="8" y="-93.5" font-family="Helvetica,sans-Serif" font-size="10.00">AMM.API.Services.CampaignBuilder</text>
<text text-anchor="middle" x="88.62" y="-81.5" font-family="Helvetica,sans-Serif" font-size="10.00">Service.LaunchCampaign</text>
</a>
</g>
</g>
<!-- Node5&#45;&gt;Node7 -->
<g id="edge7_Node000005_Node000007" class="edge">
<title>Node5&#45;&gt;Node7</title>
<g id="a_edge7_Node000005_Node000007"><a xlink:title=" ">
<path fill="none" stroke="#63b8ff" d="M441.51,-102.21C432.89,-102.53 424.29,-102.8 416,-103 325.91,-105.17 303.33,-105.18 213.25,-103 201.76,-102.72 189.67,-102.3 177.74,-101.8"/>
<polygon fill="#63b8ff" stroke="#63b8ff" points="441.48,-105.71 451.34,-101.82 441.21,-98.72 441.48,-105.71"/>
</a>
</g>
</g>
<!-- Node6&#45;&gt;Node7 -->
<g id="edge6_Node000006_Node000007" class="edge">
<title>Node6&#45;&gt;Node7</title>
<g id="a_edge6_Node000006_Node000007"><a xlink:title=" ">
<path fill="none" stroke="#63b8ff" d="M201.46,-84.52C193.45,-85.41 185.45,-86.31 177.61,-87.18"/>
<polygon fill="#63b8ff" stroke="#63b8ff" points="201.71,-88.01 211.26,-83.42 200.93,-81.06 201.71,-88.01"/>
</a>
</g>
</g>
<!-- Node8&#45;&gt;Node4 -->
<g id="edge9_Node000008_Node000004" class="edge">
<title>Node8&#45;&gt;Node4</title>
<g id="a_edge9_Node000008_Node000004"><a xlink:title=" ">
<path fill="none" stroke="#63b8ff" d="M893.04,-158.51C876.03,-153.86 858.41,-149.05 841.75,-144.5"/>
<polygon fill="#63b8ff" stroke="#63b8ff" points="892.07,-161.87 902.64,-161.13 893.92,-155.12 892.07,-161.87"/>
</a>
</g>
</g>
<!-- Node9&#45;&gt;Node2 -->
<g id="edge12_Node000009_Node000002" class="edge">
<title>Node9&#45;&gt;Node2</title>
<g id="a_edge12_Node000009_Node000002"><a xlink:title=" ">
<path fill="none" stroke="#63b8ff" d="M668.66,-291.63C652.73,-296.23 636.23,-301 620.63,-305.5"/>
<polygon fill="#63b8ff" stroke="#63b8ff" points="669.5,-295.03 678.13,-288.89 667.55,-288.3 669.5,-295.03"/>
</a>
</g>
</g>
<!-- Node10 -->
<g id="Node000010" class="node">
<title>Node10</title>
<g id="a_Node000010"><a xlink:href="../../d6/d65/class_deluxe_1_1_deluxe_brand_center_1_1_a_m_m_1_1_a_p_i_1_1_services_1_1_campaign_builder_service.html#a04a2bdc2d02130bbd00f6b00406563d4" target="_top" xlink:title=" ">
<polygon fill="white" stroke="#666666" points="631.5,-288 452,-288 452,-244 631.5,-244 631.5,-288"/>
<text text-anchor="start" x="460" y="-274.5" font-family="Helvetica,sans-Serif" font-size="10.00">Deluxe.DeluxeBrandCenter.</text>
<text text-anchor="start" x="460" y="-262.5" font-family="Helvetica,sans-Serif" font-size="10.00">AMM.API.Services.CampaignBuilder</text>
<text text-anchor="middle" x="541.75" y="-250.5" font-family="Helvetica,sans-Serif" font-size="10.00">Service.UpdateNameAndContentUrls</text>
</a>
</g>
</g>
<!-- Node9&#45;&gt;Node10 -->
<g id="edge13_Node000009_Node000010" class="edge">
<title>Node9&#45;&gt;Node10</title>
<g id="a_edge13_Node000009_Node000010"><a xlink:title=" ">
<path fill="none" stroke="#63b8ff" d="M656.92,-266C648.59,-266 640.21,-266 631.97,-266"/>
<polygon fill="#63b8ff" stroke="#63b8ff" points="656.71,-269.5 666.71,-266 656.71,-262.5 656.71,-269.5"/>
</a>
</g>
</g>
<!-- Node11&#45;&gt;Node9 -->
<g id="edge15_Node000011_Node000009" class="edge">
<title>Node11&#45;&gt;Node9</title>
<g id="a_edge15_Node000011_Node000009"><a xlink:title=" ">
<path fill="none" stroke="#63b8ff" d="M887.09,-254.75C874.26,-255.88 861.19,-257.03 848.54,-258.14"/>
<polygon fill="#63b8ff" stroke="#63b8ff" points="887.12,-258.26 896.78,-253.89 886.51,-251.29 887.12,-258.26"/>
</a>
</g>
</g>
<!-- Node13&#45;&gt;Node2 -->
<g id="edge18_Node000013_Node000002" class="edge">
<title>Node13&#45;&gt;Node2</title>
<g id="a_edge18_Node000013_Node000002"><a xlink:title=" ">
<path fill="none" stroke="#63b8ff" d="M658.24,-328C648.99,-328 639.66,-328 630.53,-328"/>
<polygon fill="#63b8ff" stroke="#63b8ff" points="657.95,-331.5 667.95,-328 657.95,-324.5 657.95,-331.5"/>
</a>
</g>
</g>
<!-- Node13&#45;&gt;Node10 -->
<g id="edge19_Node000013_Node000010" class="edge">
<title>Node13&#45;&gt;Node10</title>
<g id="a_edge19_Node000013_Node000010"><a xlink:title=" ">
<path fill="none" stroke="#63b8ff" d="M668.66,-302.37C652.73,-297.77 636.23,-293 620.63,-288.5"/>
<polygon fill="#63b8ff" stroke="#63b8ff" points="667.55,-305.7 678.13,-305.11 669.5,-298.97 667.55,-305.7"/>
</a>
</g>
</g>
</g>
</svg>

<g id="navigator" transform="translate(0 0)" fill="#404254">
  <rect fill="#f2f5e9" fill-opacity="0.5" stroke="#606060" stroke-width=".5" x="0" y="0" width="60" height="60"/>
  <use id="zoomplus" xlink:href="#zoomPlus" x="17" y="9" onmousedown="handleZoom(evt,'in')"/>
  <use id="zoomminus" xlink:href="#zoomMin" x="42" y="9" onmousedown="handleZoom(evt,'out')"/>
  <use id="reset" xlink:href="#resetDef" x="30" y="36" onmousedown="handleReset()"/>
   <use id="arrowup" xlink:href="#arrowUp" x="0" y="0" onmousedown="handlePan(0,-1)"/>
  <use id="arrowright" xlink:href="#arrowRight" x="0" y="0" onmousedown="handlePan(1,0)"/>
  <use id="arrowdown" xlink:href="#arrowDown" x="0" y="0" onmousedown="handlePan(0,1)"/>
  <use id="arrowleft" xlink:href="#arrowLeft" x="0" y="0" onmousedown="handlePan(-1,0)"/>
</g>
<svg viewBox="0 0 15 15" width="100%" height="30px" preserveAspectRatio="xMaxYMin meet">
 <g id="arrow_out" transform="scale(0.3 0.3)">
  <a xlink:href="class_deluxe_1_1_deluxe_brand_center_1_1_a_m_m_1_1_domain_1_1_view_model_1_1_campaign_builder_1_1_comment_a4a056a46f74757164c6d2fc2c69a86f0_icgraph_org.svg" target="_base">
   <rect id="button" ry="5" rx="5" y="6" x="6" height="38" width="38"
        fill="#f2f5e9" fill-opacity="0.5" stroke="#606060" stroke-width="1.0"/>
   <path id="arrow"
     d="M 11.500037,31.436501 C 11.940474,20.09759 22.043105,11.32322 32.158766,21.979434 L 37.068811,17.246167 C 37.068811,17.246167 37.088388,32 37.088388,32 L 22.160133,31.978069 C 22.160133,31.978069 26.997745,27.140456 26.997745,27.140456 C 18.528582,18.264221 13.291696,25.230495 11.500037,31.436501 z"
     style="fill:#404040;"/>
  </a>
 </g>
</svg>

<style type='text/css'>
<![CDATA[
[data-mouse-over-selected='false'] { opacity: 0.7; }
[data-mouse-over-selected='true']  { opacity: 1.0; }
]]>
</style>
<script type="application/ecmascript"><![CDATA[
document.addEventListener('DOMContentLoaded', (event) => {
  highlightEdges();
  highlightAdjacentNodes();
});
]]></script>
</svg>
