<?xml version="1.0" encoding="UTF-8" standalone="no"?>
<!DOCTYPE svg PUBLIC "-//W3C//DTD SVG 1.1//EN"
 "http://www.w3.org/Graphics/SVG/1.1/DTD/svg11.dtd">
<!-- Generated by graphviz version 12.1.1 (20240910.0053)
 -->
<!-- Title: Deluxe.DeluxeBrandCenter.AMM.ScriptRunner.Models.CsvLogScriptEntry Pages: 1 -->
<svg width="494pt" height="114pt"
 viewBox="0.00 0.00 494.00 114.00" xmlns="http://www.w3.org/2000/svg" xmlns:xlink="http://www.w3.org/1999/xlink">
<g id="graph0" class="graph" transform="scale(1 1) rotate(0) translate(4 110)">
<title>Deluxe.DeluxeBrandCenter.AMM.ScriptRunner.Models.CsvLogScriptEntry</title>
<!-- Node1 -->
<g id="Node000001" class="node">
<title>Node1</title>
<g id="a_Node000001"><a xlink:title=" ">
<polygon fill="#999999" stroke="#666666" points="279.5,-75 109,-75 109,-31 279.5,-31 279.5,-75"/>
<text text-anchor="start" x="117" y="-61.5" font-family="Helvetica,sans-Serif" font-size="10.00">Deluxe.DeluxeBrandCenter.</text>
<text text-anchor="start" x="117" y="-49.5" font-family="Helvetica,sans-Serif" font-size="10.00">AMM.ScriptRunner.Models.CsvLog</text>
<text text-anchor="middle" x="194.25" y="-37.5" font-family="Helvetica,sans-Serif" font-size="10.00">ScriptEntry</text>
</a>
</g>
</g>
<!-- Node3 -->
<g id="Node000003" class="node">
<title>Node3</title>
<g id="a_Node000003"><a xlink:href="../../d2/d67/class_deluxe_1_1_deluxe_brand_center_1_1_a_m_m_1_1_script_runner_1_1_models_1_1_csv_log_campaign_script_entry.html" target="_top" xlink:title=" ">
<polygon fill="white" stroke="#666666" points="486,-106 315.5,-106 315.5,-62 486,-62 486,-106"/>
<text text-anchor="start" x="323.5" y="-92.5" font-family="Helvetica,sans-Serif" font-size="10.00">Deluxe.DeluxeBrandCenter.</text>
<text text-anchor="start" x="323.5" y="-80.5" font-family="Helvetica,sans-Serif" font-size="10.00">AMM.ScriptRunner.Models.CsvLog</text>
<text text-anchor="middle" x="400.75" y="-68.5" font-family="Helvetica,sans-Serif" font-size="10.00">CampaignScriptEntry</text>
</a>
</g>
</g>
<!-- Node1&#45;&gt;Node3 -->
<g id="edge2_Node000001_Node000003" class="edge">
<title>Node1&#45;&gt;Node3</title>
<g id="a_edge2_Node000001_Node000003"><a xlink:title=" ">
<path fill="none" stroke="#63b8ff" d="M291.17,-67.54C299.18,-68.75 307.24,-69.98 315.16,-71.18"/>
<polygon fill="#63b8ff" stroke="#63b8ff" points="291.81,-64.1 281.4,-66.06 290.76,-71.02 291.81,-64.1"/>
</a>
</g>
</g>
<!-- Node4 -->
<g id="Node000004" class="node">
<title>Node4</title>
<g id="a_Node000004"><a xlink:href="../../d7/d12/class_deluxe_1_1_deluxe_brand_center_1_1_a_m_m_1_1_script_runner_1_1_models_1_1_csv_log_persona_script_entry.html" target="_top" xlink:title=" ">
<polygon fill="white" stroke="#666666" points="486,-44 315.5,-44 315.5,0 486,0 486,-44"/>
<text text-anchor="start" x="323.5" y="-30.5" font-family="Helvetica,sans-Serif" font-size="10.00">Deluxe.DeluxeBrandCenter.</text>
<text text-anchor="start" x="323.5" y="-18.5" font-family="Helvetica,sans-Serif" font-size="10.00">AMM.ScriptRunner.Models.CsvLog</text>
<text text-anchor="middle" x="400.75" y="-6.5" font-family="Helvetica,sans-Serif" font-size="10.00">PersonaScriptEntry</text>
</a>
</g>
</g>
<!-- Node1&#45;&gt;Node4 -->
<g id="edge3_Node000001_Node000004" class="edge">
<title>Node1&#45;&gt;Node4</title>
<g id="a_edge3_Node000001_Node000004"><a xlink:title=" ">
<path fill="none" stroke="#63b8ff" d="M291.17,-38.46C299.18,-37.25 307.24,-36.02 315.16,-34.82"/>
<polygon fill="#63b8ff" stroke="#63b8ff" points="290.76,-34.98 281.4,-39.94 291.81,-41.9 290.76,-34.98"/>
</a>
</g>
</g>
<!-- Node2 -->
<g id="Node000002" class="node">
<title>Node2</title>
<g id="a_Node000002"><a xlink:href="../../d9/d0a/class_deluxe_1_1_deluxe_brand_center_1_1_a_m_m_1_1_script_runner_1_1_models_1_1_csv_log_entry.html" target="_top" xlink:title=" ">
<polygon fill="white" stroke="#666666" points="73,-63 0,-63 0,-43 73,-43 73,-63"/>
<text text-anchor="middle" x="36.5" y="-49.5" font-family="Helvetica,sans-Serif" font-size="10.00">CsvLogEntry</text>
</a>
</g>
</g>
<!-- Node2&#45;&gt;Node1 -->
<g id="edge1_Node000001_Node000002" class="edge">
<title>Node2&#45;&gt;Node1</title>
<g id="a_edge1_Node000001_Node000002"><a xlink:title=" ">
<path fill="none" stroke="#63b8ff" d="M84.74,-53C92.34,-53 100.4,-53 108.56,-53"/>
<polygon fill="#63b8ff" stroke="#63b8ff" points="84.75,-49.5 74.75,-53 84.75,-56.5 84.75,-49.5"/>
</a>
</g>
</g>
</g>
</svg>
