<?xml version="1.0" encoding="UTF-8" standalone="no"?>
<!DOCTYPE svg PUBLIC "-//W3C//DTD SVG 1.1//EN"
 "http://www.w3.org/Graphics/SVG/1.1/DTD/svg11.dtd">
<!-- Generated by graphviz version 12.1.1 (20240910.0053)
 -->
<!-- Title: Deluxe.DeluxeBrandCenter.AMM.Domain.Table.GetColumnNo Pages: 1 -->
<svg width="809pt" height="351pt"
 viewBox="0.00 0.00 808.50 351.00" xmlns="http://www.w3.org/2000/svg" xmlns:xlink="http://www.w3.org/1999/xlink">
<g id="graph0" class="graph" transform="scale(1 1) rotate(0) translate(4 347)">
<title>Deluxe.DeluxeBrandCenter.AMM.Domain.Table.GetColumnNo</title>
<!-- Node1 -->
<g id="Node000001" class="node">
<title>Node1</title>
<g id="a_Node000001"><a xlink:title=" ">
<polygon fill="#999999" stroke="#666666" points="800.5,-175 633,-175 633,-143 800.5,-143 800.5,-175"/>
<text text-anchor="start" x="641" y="-161.5" font-family="Helvetica,sans-Serif" font-size="10.00">Deluxe.DeluxeBrandCenter.</text>
<text text-anchor="middle" x="716.75" y="-149.5" font-family="Helvetica,sans-Serif" font-size="10.00">AMM.Domain.Table.GetColumnNo</text>
</a>
</g>
</g>
<!-- Node2 -->
<g id="Node000002" class="node">
<title>Node2</title>
<g id="a_Node000002"><a xlink:href="../../d4/d06/class_deluxe_1_1_deluxe_brand_center_1_1_a_m_m_1_1_a_p_i_1_1_services_1_1_contact_manager_service.html#a0ea8d4c9c0c9ec2f05066c6cef1040d5" target="_top" xlink:title=" ">
<polygon fill="white" stroke="#666666" points="597,-312 422,-312 422,-268 597,-268 597,-312"/>
<text text-anchor="start" x="430" y="-298.5" font-family="Helvetica,sans-Serif" font-size="10.00">Deluxe.DeluxeBrandCenter.</text>
<text text-anchor="start" x="430" y="-286.5" font-family="Helvetica,sans-Serif" font-size="10.00">AMM.API.Services.ContactManager</text>
<text text-anchor="middle" x="509.5" y="-274.5" font-family="Helvetica,sans-Serif" font-size="10.00">Service.AddGroupsAndTagsToDb</text>
</a>
</g>
</g>
<!-- Node1&#45;&gt;Node2 -->
<g id="edge1_Node000001_Node000002" class="edge">
<title>Node1&#45;&gt;Node2</title>
<g id="a_edge1_Node000001_Node000002"><a xlink:title=" ">
<path fill="none" stroke="#63b8ff" d="M692.26,-183.23C669.6,-205.46 633.46,-238.03 597,-259 591.61,-262.1 585.85,-264.98 579.96,-267.63"/>
<polygon fill="#63b8ff" stroke="#63b8ff" points="694.57,-185.87 699.18,-176.33 689.63,-180.91 694.57,-185.87"/>
</a>
</g>
</g>
<!-- Node6 -->
<g id="Node000006" class="node">
<title>Node6</title>
<g id="a_Node000006"><a xlink:href="../../d7/d96/class_deluxe_1_1_deluxe_brand_center_1_1_a_m_m_1_1_domain_1_1_table.html#a928744b47ce228cc198330e3a723c2d2" target="_top" xlink:title=" ">
<polygon fill="white" stroke="#666666" points="579,-250 440,-250 440,-218 579,-218 579,-250"/>
<text text-anchor="start" x="448" y="-236.5" font-family="Helvetica,sans-Serif" font-size="10.00">Deluxe.DeluxeBrandCenter.</text>
<text text-anchor="middle" x="509.5" y="-224.5" font-family="Helvetica,sans-Serif" font-size="10.00">AMM.Domain.Table.Column</text>
</a>
</g>
</g>
<!-- Node1&#45;&gt;Node6 -->
<g id="edge5_Node000001_Node000006" class="edge">
<title>Node1&#45;&gt;Node6</title>
<g id="a_edge5_Node000001_Node000006"><a xlink:title=" ">
<path fill="none" stroke="#63b8ff" d="M669.52,-179.95C647.75,-189.43 621.29,-200.41 597,-209 588.6,-211.97 579.65,-214.86 570.82,-217.55"/>
<polygon fill="#63b8ff" stroke="#63b8ff" points="670.67,-183.27 678.42,-176.04 667.85,-176.86 670.67,-183.27"/>
</a>
</g>
</g>
<!-- Node7 -->
<g id="Node000007" class="node">
<title>Node7</title>
<g id="a_Node000007"><a xlink:href="../../d7/d96/class_deluxe_1_1_deluxe_brand_center_1_1_a_m_m_1_1_domain_1_1_table.html#aa75e844f02be8837af58fa6c45393ebc" target="_top" xlink:title=" ">
<polygon fill="white" stroke="#666666" points="578.62,-200 440.38,-200 440.38,-168 578.62,-168 578.62,-200"/>
<text text-anchor="start" x="448.38" y="-186.5" font-family="Helvetica,sans-Serif" font-size="10.00">Deluxe.DeluxeBrandCenter.</text>
<text text-anchor="middle" x="509.5" y="-174.5" font-family="Helvetica,sans-Serif" font-size="10.00">AMM.Domain.Table.Data</text>
</a>
</g>
</g>
<!-- Node1&#45;&gt;Node7 -->
<g id="edge6_Node000001_Node000007" class="edge">
<title>Node1&#45;&gt;Node7</title>
<g id="a_edge6_Node000001_Node000007"><a xlink:title=" ">
<path fill="none" stroke="#63b8ff" d="M621.22,-170.51C607.01,-172.25 592.58,-174 579.04,-175.65"/>
<polygon fill="#63b8ff" stroke="#63b8ff" points="621.56,-174 631.06,-169.32 620.71,-167.05 621.56,-174"/>
</a>
</g>
</g>
<!-- Node8 -->
<g id="Node000008" class="node">
<title>Node8</title>
<g id="a_Node000008"><a xlink:href="../../d7/d96/class_deluxe_1_1_deluxe_brand_center_1_1_a_m_m_1_1_domain_1_1_table.html#a936e56d57d027b6c1819b8527f1d6ee4" target="_top" xlink:title=" ">
<polygon fill="white" stroke="#666666" points="593.62,-150 425.38,-150 425.38,-118 593.62,-118 593.62,-150"/>
<text text-anchor="start" x="433.38" y="-136.5" font-family="Helvetica,sans-Serif" font-size="10.00">Deluxe.DeluxeBrandCenter.</text>
<text text-anchor="middle" x="509.5" y="-124.5" font-family="Helvetica,sans-Serif" font-size="10.00">AMM.Domain.Table.DataOrDefault</text>
</a>
</g>
</g>
<!-- Node1&#45;&gt;Node8 -->
<g id="edge7_Node000001_Node000008" class="edge">
<title>Node1&#45;&gt;Node8</title>
<g id="a_edge7_Node000001_Node000008"><a xlink:title=" ">
<path fill="none" stroke="#63b8ff" d="M621.4,-147.51C612.19,-146.39 602.89,-145.25 593.81,-144.15"/>
<polygon fill="#63b8ff" stroke="#63b8ff" points="620.71,-150.95 631.06,-148.68 621.56,-144 620.71,-150.95"/>
</a>
</g>
</g>
<!-- Node9 -->
<g id="Node000009" class="node">
<title>Node9</title>
<g id="a_Node000009"><a xlink:href="../../d7/d96/class_deluxe_1_1_deluxe_brand_center_1_1_a_m_m_1_1_domain_1_1_table.html#a16ef5704b665df667a264872797972b0" target="_top" xlink:title="Delete column.">
<polygon fill="white" stroke="#666666" points="593.25,-82 425.75,-82 425.75,-50 593.25,-50 593.25,-82"/>
<text text-anchor="start" x="433.75" y="-68.5" font-family="Helvetica,sans-Serif" font-size="10.00">Deluxe.DeluxeBrandCenter.</text>
<text text-anchor="middle" x="509.5" y="-56.5" font-family="Helvetica,sans-Serif" font-size="10.00">AMM.Domain.Table.DeleteColumn</text>
</a>
</g>
</g>
<!-- Node1&#45;&gt;Node9 -->
<g id="edge8_Node000001_Node000009" class="edge">
<title>Node1&#45;&gt;Node9</title>
<g id="a_edge8_Node000001_Node000009"><a xlink:title=" ">
<path fill="none" stroke="#63b8ff" d="M669.45,-138.02C632.3,-121.19 580.89,-97.89 546.7,-82.4"/>
<polygon fill="#63b8ff" stroke="#63b8ff" points="667.6,-141.02 678.15,-141.96 670.49,-134.65 667.6,-141.02"/>
</a>
</g>
</g>
<!-- Node10 -->
<g id="Node000010" class="node">
<title>Node10</title>
<g id="a_Node000010"><a xlink:href="../../d7/d96/class_deluxe_1_1_deluxe_brand_center_1_1_a_m_m_1_1_domain_1_1_table.html#a063396e7bb68637f1ee9ef56ff1a6afc" target="_top" xlink:title="Set value for specific field.">
<polygon fill="white" stroke="#666666" points="581.62,-32 437.38,-32 437.38,0 581.62,0 581.62,-32"/>
<text text-anchor="start" x="445.38" y="-18.5" font-family="Helvetica,sans-Serif" font-size="10.00">Deluxe.DeluxeBrandCenter.</text>
<text text-anchor="middle" x="509.5" y="-6.5" font-family="Helvetica,sans-Serif" font-size="10.00">AMM.Domain.Table.SetValue</text>
</a>
</g>
</g>
<!-- Node1&#45;&gt;Node10 -->
<g id="edge10_Node000001_Node000010" class="edge">
<title>Node1&#45;&gt;Node10</title>
<g id="a_edge10_Node000001_Node000010"><a xlink:title=" ">
<path fill="none" stroke="#63b8ff" d="M696.91,-133.89C675.53,-107.1 638.23,-65.26 597,-41 591.48,-37.75 585.5,-34.9 579.37,-32.4"/>
<polygon fill="#63b8ff" stroke="#63b8ff" points="693.94,-135.77 702.86,-141.49 699.45,-131.46 693.94,-135.77"/>
</a>
</g>
</g>
<!-- Node3 -->
<g id="Node000003" class="node">
<title>Node3</title>
<g id="a_Node000003"><a xlink:href="../../d4/d06/class_deluxe_1_1_deluxe_brand_center_1_1_a_m_m_1_1_a_p_i_1_1_services_1_1_contact_manager_service.html#aa1fe050e4d5227a691150b9849f7b1a3" target="_top" xlink:title=" ">
<polygon fill="white" stroke="#666666" points="386,-312 211,-312 211,-268 386,-268 386,-312"/>
<text text-anchor="start" x="219" y="-298.5" font-family="Helvetica,sans-Serif" font-size="10.00">Deluxe.DeluxeBrandCenter.</text>
<text text-anchor="start" x="219" y="-286.5" font-family="Helvetica,sans-Serif" font-size="10.00">AMM.API.Services.ContactManager</text>
<text text-anchor="middle" x="298.5" y="-274.5" font-family="Helvetica,sans-Serif" font-size="10.00">Service.UploadContacts</text>
</a>
</g>
</g>
<!-- Node2&#45;&gt;Node3 -->
<g id="edge2_Node000002_Node000003" class="edge">
<title>Node2&#45;&gt;Node3</title>
<g id="a_edge2_Node000002_Node000003"><a xlink:title=" ">
<path fill="none" stroke="#63b8ff" d="M410.4,-290C402.38,-290 394.31,-290 386.39,-290"/>
<polygon fill="#63b8ff" stroke="#63b8ff" points="410.17,-293.5 420.17,-290 410.17,-286.5 410.17,-293.5"/>
</a>
</g>
</g>
<!-- Node4 -->
<g id="Node000004" class="node">
<title>Node4</title>
<g id="a_Node000004"><a xlink:href="../../d4/d06/class_deluxe_1_1_deluxe_brand_center_1_1_a_m_m_1_1_a_p_i_1_1_services_1_1_contact_manager_service.html#a7f6af03e51f7bb3b4b003c2296015349" target="_top" xlink:title=" ">
<polygon fill="white" stroke="#666666" points="175,-343 0,-343 0,-299 175,-299 175,-343"/>
<text text-anchor="start" x="8" y="-329.5" font-family="Helvetica,sans-Serif" font-size="10.00">Deluxe.DeluxeBrandCenter.</text>
<text text-anchor="start" x="8" y="-317.5" font-family="Helvetica,sans-Serif" font-size="10.00">AMM.API.Services.ContactManager</text>
<text text-anchor="middle" x="87.5" y="-305.5" font-family="Helvetica,sans-Serif" font-size="10.00">Service.UploadRedTailContacts</text>
</a>
</g>
</g>
<!-- Node3&#45;&gt;Node4 -->
<g id="edge3_Node000003_Node000004" class="edge">
<title>Node3&#45;&gt;Node4</title>
<g id="a_edge3_Node000003_Node000004"><a xlink:title=" ">
<path fill="none" stroke="#63b8ff" d="M199.4,-304.55C191.38,-305.74 183.31,-306.94 175.39,-308.11"/>
<polygon fill="#63b8ff" stroke="#63b8ff" points="199.81,-308.03 209.18,-303.1 198.78,-301.1 199.81,-308.03"/>
</a>
</g>
</g>
<!-- Node5 -->
<g id="Node000005" class="node">
<title>Node5</title>
<g id="a_Node000005"><a xlink:href="../../d4/d06/class_deluxe_1_1_deluxe_brand_center_1_1_a_m_m_1_1_a_p_i_1_1_services_1_1_contact_manager_service.html#a9fed8bce1aa679c38c8e729ee735ca5f" target="_top" xlink:title=" ">
<polygon fill="white" stroke="#666666" points="175,-281 0,-281 0,-237 175,-237 175,-281"/>
<text text-anchor="start" x="8" y="-267.5" font-family="Helvetica,sans-Serif" font-size="10.00">Deluxe.DeluxeBrandCenter.</text>
<text text-anchor="start" x="8" y="-255.5" font-family="Helvetica,sans-Serif" font-size="10.00">AMM.API.Services.ContactManager</text>
<text text-anchor="middle" x="87.5" y="-243.5" font-family="Helvetica,sans-Serif" font-size="10.00">Service.UploadSaleForceContacts</text>
</a>
</g>
</g>
<!-- Node3&#45;&gt;Node5 -->
<g id="edge4_Node000003_Node000005" class="edge">
<title>Node3&#45;&gt;Node5</title>
<g id="a_edge4_Node000003_Node000005"><a xlink:title=" ">
<path fill="none" stroke="#63b8ff" d="M199.4,-275.45C191.38,-274.26 183.31,-273.06 175.39,-271.89"/>
<polygon fill="#63b8ff" stroke="#63b8ff" points="198.78,-278.9 209.18,-276.9 199.81,-271.97 198.78,-278.9"/>
</a>
</g>
</g>
<!-- Node9&#45;&gt;Node9 -->
<g id="edge9_Node000009_Node000009" class="edge">
<title>Node9&#45;&gt;Node9</title>
<g id="a_edge9_Node000009_Node000009"><a xlink:title=" ">
<path fill="none" stroke="#63b8ff" d="M544.28,-93.54C538.61,-97.41 527.01,-100 509.5,-100 477.93,-100 465.59,-91.58 472.5,-82.44"/>
<polygon fill="#63b8ff" stroke="#63b8ff" points="547.67,-94.42 546.2,-83.93 540.81,-93.05 547.67,-94.42"/>
</a>
</g>
</g>
</g>
</svg>
