<?xml version="1.0" encoding="UTF-8" standalone="no"?>
<!DOCTYPE svg PUBLIC "-//W3C//DTD SVG 1.1//EN"
 "http://www.w3.org/Graphics/SVG/1.1/DTD/svg11.dtd">
<!-- Generated by graphviz version 12.1.1 (20240910.0053)
 -->
<!-- Title: Deluxe.DeluxeBrandCenter.AMM.API.Services.RedShiftService.format Pages: 1 -->
<svg width="471pt" height="858pt"
 viewBox="0.00 0.00 470.50 858.00" xmlns="http://www.w3.org/2000/svg" xmlns:xlink="http://www.w3.org/1999/xlink">
<g id="graph0" class="graph" transform="scale(1 1) rotate(0) translate(4 854)">
<title>Deluxe.DeluxeBrandCenter.AMM.API.Services.RedShiftService.format</title>
<!-- Node1 -->
<g id="Node000001" class="node">
<title>Node1</title>
<g id="a_Node000001"><a xlink:title=" ">
<polygon fill="#999999" stroke="#666666" points="462.5,-441 257.5,-441 257.5,-409 462.5,-409 462.5,-441"/>
<text text-anchor="start" x="265.5" y="-427.5" font-family="Helvetica,sans-Serif" font-size="10.00">Deluxe.DeluxeBrandCenter.</text>
<text text-anchor="middle" x="360" y="-415.5" font-family="Helvetica,sans-Serif" font-size="10.00">AMM.API.Services.RedShiftService.format</text>
</a>
</g>
</g>
<!-- Node2 -->
<g id="Node000002" class="node">
<title>Node2</title>
<g id="a_Node000002"><a xlink:href="../../d0/d3a/class_deluxe_1_1_deluxe_brand_center_1_1_a_m_m_1_1_a_p_i_1_1_services_1_1_red_shift_service.html#ab00de72b5a7ae4aa4203a5a36ba97b62" target="_top" xlink:title=" ">
<polygon fill="white" stroke="#666666" points="206.12,-850 15.38,-850 15.38,-806 206.12,-806 206.12,-850"/>
<text text-anchor="start" x="23.38" y="-836.5" font-family="Helvetica,sans-Serif" font-size="10.00">Deluxe.DeluxeBrandCenter.</text>
<text text-anchor="start" x="23.38" y="-824.5" font-family="Helvetica,sans-Serif" font-size="10.00">AMM.API.Services.RedShiftService.get</text>
<text text-anchor="middle" x="110.75" y="-812.5" font-family="Helvetica,sans-Serif" font-size="10.00">ContactDetails</text>
</a>
</g>
</g>
<!-- Node1&#45;&gt;Node2 -->
<g id="edge1_Node000001_Node000002" class="edge">
<title>Node1&#45;&gt;Node2</title>
<g id="a_edge1_Node000001_Node000002"><a xlink:title=" ">
<path fill="none" stroke="#63b8ff" d="M357.12,-452.29C350.9,-520.8 325.01,-701.33 221.5,-797 216.99,-801.17 211.97,-804.78 206.62,-807.91"/>
<polygon fill="#63b8ff" stroke="#63b8ff" points="360.57,-452.97 357.91,-442.72 353.6,-452.39 360.57,-452.97"/>
</a>
</g>
</g>
<!-- Node3 -->
<g id="Node000003" class="node">
<title>Node3</title>
<g id="a_Node000003"><a xlink:href="../../d0/d3a/class_deluxe_1_1_deluxe_brand_center_1_1_a_m_m_1_1_a_p_i_1_1_services_1_1_red_shift_service.html#a83f82fd8b7d74df5d5949579b7c26f00" target="_top" xlink:title=" ">
<polygon fill="white" stroke="#666666" points="206.12,-788 15.38,-788 15.38,-744 206.12,-744 206.12,-788"/>
<text text-anchor="start" x="23.38" y="-774.5" font-family="Helvetica,sans-Serif" font-size="10.00">Deluxe.DeluxeBrandCenter.</text>
<text text-anchor="start" x="23.38" y="-762.5" font-family="Helvetica,sans-Serif" font-size="10.00">AMM.API.Services.RedShiftService.get</text>
<text text-anchor="middle" x="110.75" y="-750.5" font-family="Helvetica,sans-Serif" font-size="10.00">ElegetOutboundElementContactsClicks</text>
</a>
</g>
</g>
<!-- Node1&#45;&gt;Node3 -->
<g id="edge2_Node000001_Node000003" class="edge">
<title>Node1&#45;&gt;Node3</title>
<g id="a_edge2_Node000001_Node000003"><a xlink:title=" ">
<path fill="none" stroke="#63b8ff" d="M354.8,-452.6C344.1,-513.1 310.14,-658.14 221.5,-735 216.94,-738.96 211.9,-742.41 206.58,-745.42"/>
<polygon fill="#63b8ff" stroke="#63b8ff" points="358.23,-453.28 356.43,-442.84 351.33,-452.12 358.23,-453.28"/>
</a>
</g>
</g>
<!-- Node4 -->
<g id="Node000004" class="node">
<title>Node4</title>
<g id="a_Node000004"><a xlink:href="../../d0/d3a/class_deluxe_1_1_deluxe_brand_center_1_1_a_m_m_1_1_a_p_i_1_1_services_1_1_red_shift_service.html#add07cb8066b88aa8a35cd839021b640c" target="_top" xlink:title=" ">
<polygon fill="white" stroke="#666666" points="206.12,-726 15.38,-726 15.38,-682 206.12,-682 206.12,-726"/>
<text text-anchor="start" x="23.38" y="-712.5" font-family="Helvetica,sans-Serif" font-size="10.00">Deluxe.DeluxeBrandCenter.</text>
<text text-anchor="start" x="23.38" y="-700.5" font-family="Helvetica,sans-Serif" font-size="10.00">AMM.API.Services.RedShiftService.get</text>
<text text-anchor="middle" x="110.75" y="-688.5" font-family="Helvetica,sans-Serif" font-size="10.00">ElegetOutboundElementContactsFailed</text>
</a>
</g>
</g>
<!-- Node1&#45;&gt;Node4 -->
<g id="edge3_Node000001_Node000004" class="edge">
<title>Node1&#45;&gt;Node4</title>
<g id="a_edge3_Node000001_Node000004"><a xlink:title=" ">
<path fill="none" stroke="#63b8ff" d="M351.64,-451.97C336.3,-503.04 295.97,-614.01 221.5,-673 216.84,-676.69 211.77,-679.94 206.45,-682.8"/>
<polygon fill="#63b8ff" stroke="#63b8ff" points="354.92,-453.21 354.35,-442.63 348.2,-451.26 354.92,-453.21"/>
</a>
</g>
</g>
<!-- Node5 -->
<g id="Node000005" class="node">
<title>Node5</title>
<g id="a_Node000005"><a xlink:href="../../d0/d3a/class_deluxe_1_1_deluxe_brand_center_1_1_a_m_m_1_1_a_p_i_1_1_services_1_1_red_shift_service.html#aaba5b68aaa3908d35228e11c3ab43981" target="_top" xlink:title=" ">
<polygon fill="white" stroke="#666666" points="221.12,-664 0.38,-664 0.38,-620 221.12,-620 221.12,-664"/>
<text text-anchor="start" x="8.38" y="-650.5" font-family="Helvetica,sans-Serif" font-size="10.00">Deluxe.DeluxeBrandCenter.</text>
<text text-anchor="start" x="8.38" y="-638.5" font-family="Helvetica,sans-Serif" font-size="10.00">AMM.API.Services.RedShiftService.get</text>
<text text-anchor="middle" x="110.75" y="-626.5" font-family="Helvetica,sans-Serif" font-size="10.00">ElegetOutboundElementContactsHardBounced</text>
</a>
</g>
</g>
<!-- Node1&#45;&gt;Node5 -->
<g id="edge4_Node000001_Node000005" class="edge">
<title>Node1&#45;&gt;Node5</title>
<g id="a_edge4_Node000001_Node000005"><a xlink:title=" ">
<path fill="none" stroke="#63b8ff" d="M346.65,-451.42C326.34,-491.95 282.02,-569.17 221.5,-611 216.94,-614.15 212.06,-616.99 207,-619.53"/>
<polygon fill="#63b8ff" stroke="#63b8ff" points="349.71,-453.13 350.96,-442.61 343.42,-450.06 349.71,-453.13"/>
</a>
</g>
</g>
<!-- Node6 -->
<g id="Node000006" class="node">
<title>Node6</title>
<g id="a_Node000006"><a xlink:href="../../d0/d3a/class_deluxe_1_1_deluxe_brand_center_1_1_a_m_m_1_1_a_p_i_1_1_services_1_1_red_shift_service.html#a284fb293a0b91e1316ca5631ab4f02e2" target="_top" xlink:title=" ">
<polygon fill="white" stroke="#666666" points="208.38,-602 13.12,-602 13.12,-558 208.38,-558 208.38,-602"/>
<text text-anchor="start" x="21.12" y="-588.5" font-family="Helvetica,sans-Serif" font-size="10.00">Deluxe.DeluxeBrandCenter.</text>
<text text-anchor="start" x="21.12" y="-576.5" font-family="Helvetica,sans-Serif" font-size="10.00">AMM.API.Services.RedShiftService.get</text>
<text text-anchor="middle" x="110.75" y="-564.5" font-family="Helvetica,sans-Serif" font-size="10.00">ElegetOutboundElementContactsOpened</text>
</a>
</g>
</g>
<!-- Node1&#45;&gt;Node6 -->
<g id="edge5_Node000001_Node000006" class="edge">
<title>Node1&#45;&gt;Node6</title>
<g id="a_edge5_Node000001_Node000006"><a xlink:title=" ">
<path fill="none" stroke="#63b8ff" d="M338.11,-449.71C313.13,-477.74 268.73,-522.92 221.5,-549 215.78,-552.16 209.71,-555.02 203.48,-557.6"/>
<polygon fill="#63b8ff" stroke="#63b8ff" points="340.56,-452.23 344.52,-442.4 335.3,-447.61 340.56,-452.23"/>
</a>
</g>
</g>
<!-- Node7 -->
<g id="Node000007" class="node">
<title>Node7</title>
<g id="a_Node000007"><a xlink:href="../../d0/d3a/class_deluxe_1_1_deluxe_brand_center_1_1_a_m_m_1_1_a_p_i_1_1_services_1_1_red_shift_service.html#ae65962a03938ce22cbedfedf55692c49" target="_top" xlink:title=" ">
<polygon fill="white" stroke="#666666" points="206.88,-540 14.62,-540 14.62,-496 206.88,-496 206.88,-540"/>
<text text-anchor="start" x="22.62" y="-526.5" font-family="Helvetica,sans-Serif" font-size="10.00">Deluxe.DeluxeBrandCenter.</text>
<text text-anchor="start" x="22.62" y="-514.5" font-family="Helvetica,sans-Serif" font-size="10.00">AMM.API.Services.RedShiftService.get</text>
<text text-anchor="middle" x="110.75" y="-502.5" font-family="Helvetica,sans-Serif" font-size="10.00">ElegetOutboundElementContactsSentTo</text>
</a>
</g>
</g>
<!-- Node1&#45;&gt;Node7 -->
<g id="edge6_Node000001_Node000007" class="edge">
<title>Node1&#45;&gt;Node7</title>
<g id="a_edge6_Node000001_Node000007"><a xlink:title=" ">
<path fill="none" stroke="#63b8ff" d="M316.05,-446.35C289.27,-459.16 253.86,-475.21 221.5,-487 213.31,-489.98 204.7,-492.86 196.05,-495.57"/>
<polygon fill="#63b8ff" stroke="#63b8ff" points="317.38,-449.6 324.87,-442.1 314.34,-443.29 317.38,-449.6"/>
</a>
</g>
</g>
<!-- Node8 -->
<g id="Node000008" class="node">
<title>Node8</title>
<g id="a_Node000008"><a xlink:href="../../d0/d3a/class_deluxe_1_1_deluxe_brand_center_1_1_a_m_m_1_1_a_p_i_1_1_services_1_1_red_shift_service.html#a4aa9233528a384ba36382ec625088736" target="_top" xlink:title=" ">
<polygon fill="white" stroke="#666666" points="219.62,-478 1.88,-478 1.88,-434 219.62,-434 219.62,-478"/>
<text text-anchor="start" x="9.88" y="-464.5" font-family="Helvetica,sans-Serif" font-size="10.00">Deluxe.DeluxeBrandCenter.</text>
<text text-anchor="start" x="9.88" y="-452.5" font-family="Helvetica,sans-Serif" font-size="10.00">AMM.API.Services.RedShiftService.get</text>
<text text-anchor="middle" x="110.75" y="-440.5" font-family="Helvetica,sans-Serif" font-size="10.00">ElegetOutboundElementContactsSoftBounced</text>
</a>
</g>
</g>
<!-- Node1&#45;&gt;Node8 -->
<g id="edge7_Node000001_Node000008" class="edge">
<title>Node1&#45;&gt;Node8</title>
<g id="a_edge7_Node000001_Node000008"><a xlink:title=" ">
<path fill="none" stroke="#63b8ff" d="M245.75,-439.2C237.15,-440.28 228.48,-441.36 219.92,-442.44"/>
<polygon fill="#63b8ff" stroke="#63b8ff" points="246.02,-442.69 255.5,-437.98 245.15,-435.75 246.02,-442.69"/>
</a>
</g>
</g>
<!-- Node9 -->
<g id="Node000009" class="node">
<title>Node9</title>
<g id="a_Node000009"><a xlink:href="../../d0/d3a/class_deluxe_1_1_deluxe_brand_center_1_1_a_m_m_1_1_a_p_i_1_1_services_1_1_red_shift_service.html#a22b3696ffd0a00dc0fdf48ff1367e438" target="_top" xlink:title=" ">
<polygon fill="white" stroke="#666666" points="206.12,-416 15.38,-416 15.38,-372 206.12,-372 206.12,-416"/>
<text text-anchor="start" x="23.38" y="-402.5" font-family="Helvetica,sans-Serif" font-size="10.00">Deluxe.DeluxeBrandCenter.</text>
<text text-anchor="start" x="23.38" y="-390.5" font-family="Helvetica,sans-Serif" font-size="10.00">AMM.API.Services.RedShiftService.get</text>
<text text-anchor="middle" x="110.75" y="-378.5" font-family="Helvetica,sans-Serif" font-size="10.00">ElegetOutboundElementContactsSpam</text>
</a>
</g>
</g>
<!-- Node1&#45;&gt;Node9 -->
<g id="edge8_Node000001_Node000009" class="edge">
<title>Node1&#45;&gt;Node9</title>
<g id="a_edge8_Node000001_Node000009"><a xlink:title=" ">
<path fill="none" stroke="#63b8ff" d="M245.94,-410.82C232.71,-409.17 219.31,-407.49 206.37,-405.86"/>
<polygon fill="#63b8ff" stroke="#63b8ff" points="245.15,-414.25 255.5,-412.02 246.02,-407.31 245.15,-414.25"/>
</a>
</g>
</g>
<!-- Node10 -->
<g id="Node000010" class="node">
<title>Node10</title>
<g id="a_Node000010"><a xlink:href="../../d0/d3a/class_deluxe_1_1_deluxe_brand_center_1_1_a_m_m_1_1_a_p_i_1_1_services_1_1_red_shift_service.html#acba0e5318120a2225fdb5140ce8998b9" target="_top" xlink:title=" ">
<polygon fill="white" stroke="#666666" points="217.38,-354 4.12,-354 4.12,-310 217.38,-310 217.38,-354"/>
<text text-anchor="start" x="12.12" y="-340.5" font-family="Helvetica,sans-Serif" font-size="10.00">Deluxe.DeluxeBrandCenter.</text>
<text text-anchor="start" x="12.12" y="-328.5" font-family="Helvetica,sans-Serif" font-size="10.00">AMM.API.Services.RedShiftService.get</text>
<text text-anchor="middle" x="110.75" y="-316.5" font-family="Helvetica,sans-Serif" font-size="10.00">ElegetOutboundElementContactsSuppressed</text>
</a>
</g>
</g>
<!-- Node1&#45;&gt;Node10 -->
<g id="edge9_Node000001_Node000010" class="edge">
<title>Node1&#45;&gt;Node10</title>
<g id="a_edge9_Node000001_Node000010"><a xlink:title=" ">
<path fill="none" stroke="#63b8ff" d="M316.05,-403.65C289.27,-390.84 253.86,-374.79 221.5,-363 213.31,-360.02 204.7,-357.14 196.05,-354.43"/>
<polygon fill="#63b8ff" stroke="#63b8ff" points="314.34,-406.71 324.87,-407.9 317.38,-400.4 314.34,-406.71"/>
</a>
</g>
</g>
<!-- Node11 -->
<g id="Node000011" class="node">
<title>Node11</title>
<g id="a_Node000011"><a xlink:href="../../d0/d3a/class_deluxe_1_1_deluxe_brand_center_1_1_a_m_m_1_1_a_p_i_1_1_services_1_1_red_shift_service.html#a85cc540aff0b3b7df248a21a9df5b023" target="_top" xlink:title=" ">
<polygon fill="white" stroke="#666666" points="221.5,-292 0,-292 0,-248 221.5,-248 221.5,-292"/>
<text text-anchor="start" x="8" y="-278.5" font-family="Helvetica,sans-Serif" font-size="10.00">Deluxe.DeluxeBrandCenter.</text>
<text text-anchor="start" x="8" y="-266.5" font-family="Helvetica,sans-Serif" font-size="10.00">AMM.API.Services.RedShiftService.get</text>
<text text-anchor="middle" x="110.75" y="-254.5" font-family="Helvetica,sans-Serif" font-size="10.00">ElegetOutboundElementContactsUnsubscribed</text>
</a>
</g>
</g>
<!-- Node1&#45;&gt;Node11 -->
<g id="edge10_Node000001_Node000011" class="edge">
<title>Node1&#45;&gt;Node11</title>
<g id="a_edge10_Node000001_Node000011"><a xlink:title=" ">
<path fill="none" stroke="#63b8ff" d="M338.11,-400.29C313.13,-372.26 268.73,-327.08 221.5,-301 215.78,-297.84 209.71,-294.98 203.48,-292.4"/>
<polygon fill="#63b8ff" stroke="#63b8ff" points="335.3,-402.39 344.52,-407.6 340.56,-397.77 335.3,-402.39"/>
</a>
</g>
</g>
<!-- Node12 -->
<g id="Node000012" class="node">
<title>Node12</title>
<g id="a_Node000012"><a xlink:href="../../d0/d3a/class_deluxe_1_1_deluxe_brand_center_1_1_a_m_m_1_1_a_p_i_1_1_services_1_1_red_shift_service.html#a5f62ac985c36c1ea6b1d886d0b9e22eb" target="_top" xlink:title=" ">
<polygon fill="white" stroke="#666666" points="206.12,-230 15.38,-230 15.38,-186 206.12,-186 206.12,-230"/>
<text text-anchor="start" x="23.38" y="-216.5" font-family="Helvetica,sans-Serif" font-size="10.00">Deluxe.DeluxeBrandCenter.</text>
<text text-anchor="start" x="23.38" y="-204.5" font-family="Helvetica,sans-Serif" font-size="10.00">AMM.API.Services.RedShiftService.get</text>
<text text-anchor="middle" x="110.75" y="-192.5" font-family="Helvetica,sans-Serif" font-size="10.00">InboundElements</text>
</a>
</g>
</g>
<!-- Node1&#45;&gt;Node12 -->
<g id="edge11_Node000001_Node000012" class="edge">
<title>Node1&#45;&gt;Node12</title>
<g id="a_edge11_Node000001_Node000012"><a xlink:title=" ">
<path fill="none" stroke="#63b8ff" d="M346.65,-398.58C326.34,-358.05 282.02,-280.83 221.5,-239 216.78,-235.74 211.71,-232.81 206.45,-230.2"/>
<polygon fill="#63b8ff" stroke="#63b8ff" points="343.42,-399.94 350.96,-407.39 349.71,-396.87 343.42,-399.94"/>
</a>
</g>
</g>
<!-- Node13 -->
<g id="Node000013" class="node">
<title>Node13</title>
<g id="a_Node000013"><a xlink:href="../../d0/d3a/class_deluxe_1_1_deluxe_brand_center_1_1_a_m_m_1_1_a_p_i_1_1_services_1_1_red_shift_service.html#a52197b54046689979a9b3498126097e8" target="_top" xlink:title=" ">
<polygon fill="white" stroke="#666666" points="204.62,-168 16.88,-168 16.88,-124 204.62,-124 204.62,-168"/>
<text text-anchor="start" x="24.88" y="-154.5" font-family="Helvetica,sans-Serif" font-size="10.00">Deluxe.DeluxeBrandCenter.</text>
<text text-anchor="start" x="24.88" y="-142.5" font-family="Helvetica,sans-Serif" font-size="10.00">AMM.API.Services.RedShiftService.ge</text>
<text text-anchor="middle" x="110.75" y="-130.5" font-family="Helvetica,sans-Serif" font-size="10.00">TotalNumberOfLaunchedCampaigns</text>
</a>
</g>
</g>
<!-- Node1&#45;&gt;Node13 -->
<g id="edge12_Node000001_Node000013" class="edge">
<title>Node1&#45;&gt;Node13</title>
<g id="a_edge12_Node000001_Node000013"><a xlink:title=" ">
<path fill="none" stroke="#63b8ff" d="M351.64,-398.03C336.3,-346.96 295.97,-235.99 221.5,-177 216.46,-173 210.92,-169.52 205.11,-166.49"/>
<polygon fill="#63b8ff" stroke="#63b8ff" points="348.2,-398.74 354.35,-407.37 354.92,-396.79 348.2,-398.74"/>
</a>
</g>
</g>
<!-- Node14 -->
<g id="Node000014" class="node">
<title>Node14</title>
<g id="a_Node000014"><a xlink:href="../../d0/d3a/class_deluxe_1_1_deluxe_brand_center_1_1_a_m_m_1_1_a_p_i_1_1_services_1_1_red_shift_service.html#a52c8229b7b3d8c5468e9294390f5966c" target="_top" xlink:title=" ">
<polygon fill="white" stroke="#666666" points="206.12,-106 15.38,-106 15.38,-62 206.12,-62 206.12,-106"/>
<text text-anchor="start" x="23.38" y="-92.5" font-family="Helvetica,sans-Serif" font-size="10.00">Deluxe.DeluxeBrandCenter.</text>
<text text-anchor="start" x="23.38" y="-80.5" font-family="Helvetica,sans-Serif" font-size="10.00">AMM.API.Services.RedShiftService.get</text>
<text text-anchor="middle" x="110.75" y="-68.5" font-family="Helvetica,sans-Serif" font-size="10.00">OutboundDetails</text>
</a>
</g>
</g>
<!-- Node1&#45;&gt;Node14 -->
<g id="edge13_Node000001_Node000014" class="edge">
<title>Node1&#45;&gt;Node14</title>
<g id="a_edge13_Node000001_Node000014"><a xlink:title=" ">
<path fill="none" stroke="#63b8ff" d="M354.8,-397.4C344.1,-336.9 310.14,-191.86 221.5,-115 216.94,-111.04 211.9,-107.59 206.58,-104.58"/>
<polygon fill="#63b8ff" stroke="#63b8ff" points="351.33,-397.88 356.43,-407.16 358.23,-396.72 351.33,-397.88"/>
</a>
</g>
</g>
<!-- Node15 -->
<g id="Node000015" class="node">
<title>Node15</title>
<g id="a_Node000015"><a xlink:href="../../d0/d3a/class_deluxe_1_1_deluxe_brand_center_1_1_a_m_m_1_1_a_p_i_1_1_services_1_1_red_shift_service.html#ae9abc95dd3e2bbca28f9781ba6e38896" target="_top" xlink:title=" ">
<polygon fill="white" stroke="#666666" points="206.12,-44 15.38,-44 15.38,0 206.12,0 206.12,-44"/>
<text text-anchor="start" x="23.38" y="-30.5" font-family="Helvetica,sans-Serif" font-size="10.00">Deluxe.DeluxeBrandCenter.</text>
<text text-anchor="start" x="23.38" y="-18.5" font-family="Helvetica,sans-Serif" font-size="10.00">AMM.API.Services.RedShiftService.get</text>
<text text-anchor="middle" x="110.75" y="-6.5" font-family="Helvetica,sans-Serif" font-size="10.00">TopNCampaigns</text>
</a>
</g>
</g>
<!-- Node1&#45;&gt;Node15 -->
<g id="edge14_Node000001_Node000015" class="edge">
<title>Node1&#45;&gt;Node15</title>
<g id="a_edge14_Node000001_Node000015"><a xlink:title=" ">
<path fill="none" stroke="#63b8ff" d="M357.12,-397.71C350.9,-329.2 325.01,-148.67 221.5,-53 216.99,-48.83 211.97,-45.22 206.62,-42.09"/>
<polygon fill="#63b8ff" stroke="#63b8ff" points="353.6,-397.61 357.91,-407.28 360.57,-397.03 353.6,-397.61"/>
</a>
</g>
</g>
</g>
</svg>
