<?xml version="1.0" encoding="UTF-8" standalone="no"?>
<!DOCTYPE svg PUBLIC "-//W3C//DTD SVG 1.1//EN"
 "http://www.w3.org/Graphics/SVG/1.1/DTD/svg11.dtd">
<!-- Generated by graphviz version 12.1.1 (20240910.0053)
 -->
<!-- Title: Deluxe.DeluxeBrandCenter.AMM.API.Services.RedShiftService.formatInboundSqlForRedShift Pages: 1 -->
<!--zoomable 796 -->

<svg id="main" version="1.1" xmlns="http://www.w3.org/2000/svg" xmlns:xlink="http://www.w3.org/1999/xlink" xml:space="preserve" onload="init(evt)">

<style type="text/css"><![CDATA[
.node, .edge {opacity: 0.7;}
.node.selected, .edge.selected {opacity: 1;}
.edge:hover path { stroke: red; }
.edge:hover polygon { stroke: red; fill: red; }
]]></style>

<defs>
  <circle id="rim" cx="0" cy="0" r="7"/>
  <circle id="rim2" cx="0" cy="0" r="3.5"/>
  <g id="zoomPlus">
    <use xlink:href="#rim" fill="#404040"><set attributeName="fill" to="#808080" begin="zoomplus.mouseover" end="zoomplus.mouseout"/></use>
    <path d="M-4,0h8M0,-4v8" fill="none" stroke="white" stroke-width="1.5" pointer-events="none"/>
  </g>
  <g id="zoomMin">
    <use xlink:href="#rim" fill="#404040"><set attributeName="fill" to="#808080" begin="zoomminus.mouseover" end="zoomminus.mouseout"/></use>
    <path d="M-4,0h8" fill="none" stroke="white" stroke-width="1.5" pointer-events="none"/>
  </g>
  <g id="arrowUp" transform="translate(30 24)">
    <use xlink:href="#rim"/>
    <path pointer-events="none" fill="none" stroke="white" stroke-width="1.5" d="M0,-3.0v7 M-2.5,-0.5L0,-3.0L2.5,-0.5"/>
  </g>
  <g id="arrowRight" transform="rotate(90) translate(36 -43)">
    <use xlink:href="#rim"/>
    <path pointer-events="none" fill="none" stroke="white" stroke-width="1.5" d="M0,-3.0v7 M-2.5,-0.5L0,-3.0L2.5,-0.5"/>
  </g>
  <g id="arrowDown" transform="rotate(180) translate(-30 -48)">
    <use xlink:href="#rim"/>
    <path pointer-events="none" fill="none" stroke="white" stroke-width="1.5" d="M0,-3.0v7 M-2.5,-0.5L0,-3.0L2.5,-0.5"/>
  </g>
  <g id="arrowLeft" transform="rotate(270) translate(-36 17)">
    <use xlink:href="#rim"/>
    <path pointer-events="none" fill="none" stroke="white" stroke-width="1.5" d="M0,-3.0v7 M-2.5,-0.5L0,-3.0L2.5,-0.5"/>
  </g>
  <g id="resetDef">
    <use xlink:href="#rim2" fill="#404040"><set attributeName="fill" to="#808080" begin="reset.mouseover" end="reset.mouseout"/></use>
  </g>
</defs>
<script type="application/ecmascript">
var viewWidth = 453;
var viewHeight = 796;
var sectionId = 'dynsection-4';
</script>
<script type="application/ecmascript" xlink:href="../../svg.min.js"/>
<svg id="graph" class="graph">
<g id="viewport">
<title>Deluxe.DeluxeBrandCenter.AMM.API.Services.RedShiftService.formatInboundSqlForRedShift</title>
<!-- Node1 -->
<g id="Node000001" class="node">
<title>Node1</title>
<g id="a_Node000001"><a xlink:title=" ">
<polygon fill="#999999" stroke="#666666" points="445.25,-416 240.25,-416 240.25,-372 445.25,-372 445.25,-416"/>
<text text-anchor="start" x="248.25" y="-402.5" font-family="Helvetica,sans-Serif" font-size="10.00">Deluxe.DeluxeBrandCenter.</text>
<text text-anchor="start" x="248.25" y="-390.5" font-family="Helvetica,sans-Serif" font-size="10.00">AMM.API.Services.RedShiftService.format</text>
<text text-anchor="middle" x="342.75" y="-378.5" font-family="Helvetica,sans-Serif" font-size="10.00">InboundSqlForRedShift</text>
</a>
</g>
</g>
<!-- Node2 -->
<g id="Node000002" class="node">
<title>Node2</title>
<g id="a_Node000002"><a xlink:href="../../d0/d3a/class_deluxe_1_1_deluxe_brand_center_1_1_a_m_m_1_1_a_p_i_1_1_services_1_1_red_shift_service.html#a7f41c26226b2ed365a27bfa47d0096ef" target="_top" xlink:title=" ">
<polygon fill="white" stroke="#666666" points="197.5,-788 6.75,-788 6.75,-744 197.5,-744 197.5,-788"/>
<text text-anchor="start" x="14.75" y="-774.5" font-family="Helvetica,sans-Serif" font-size="10.00">Deluxe.DeluxeBrandCenter.</text>
<text text-anchor="start" x="14.75" y="-762.5" font-family="Helvetica,sans-Serif" font-size="10.00">AMM.API.Services.RedShiftService.get</text>
<text text-anchor="middle" x="102.12" y="-750.5" font-family="Helvetica,sans-Serif" font-size="10.00">ClickRatesOverDays</text>
</a>
</g>
</g>
<!-- Node1&#45;&gt;Node2 -->
<g id="edge1_Node000001_Node000002" class="edge">
<title>Node1&#45;&gt;Node2</title>
<g id="a_edge1_Node000001_Node000002"><a xlink:title=" ">
<path fill="none" stroke="#63b8ff" d="M337.78,-427.74C327.98,-495.86 296.31,-650.52 204.25,-735 200.73,-738.23 196.89,-741.12 192.81,-743.71"/>
<polygon fill="#63b8ff" stroke="#63b8ff" points="341.24,-428.32 339.12,-417.94 334.3,-427.37 341.24,-428.32"/>
</a>
</g>
</g>
<!-- Node3 -->
<g id="Node000003" class="node">
<title>Node3</title>
<g id="a_Node000003"><a xlink:href="../../d0/d3a/class_deluxe_1_1_deluxe_brand_center_1_1_a_m_m_1_1_a_p_i_1_1_services_1_1_red_shift_service.html#a2c4f13a168b0696c3af1c317617f9209" target="_top" xlink:title=" ">
<polygon fill="white" stroke="#666666" points="197.5,-726 6.75,-726 6.75,-682 197.5,-682 197.5,-726"/>
<text text-anchor="start" x="14.75" y="-712.5" font-family="Helvetica,sans-Serif" font-size="10.00">Deluxe.DeluxeBrandCenter.</text>
<text text-anchor="start" x="14.75" y="-700.5" font-family="Helvetica,sans-Serif" font-size="10.00">AMM.API.Services.RedShiftService.get</text>
<text text-anchor="middle" x="102.12" y="-688.5" font-family="Helvetica,sans-Serif" font-size="10.00">MicrositeClicksSql</text>
</a>
</g>
</g>
<!-- Node1&#45;&gt;Node3 -->
<g id="edge2_Node000001_Node000003" class="edge">
<title>Node1&#45;&gt;Node3</title>
<g id="a_edge2_Node000001_Node000003"><a xlink:title=" ">
<path fill="none" stroke="#63b8ff" d="M334.5,-427.32C320.06,-485.73 282.15,-606.69 204.25,-673 200.47,-676.21 196.37,-679.09 192.05,-681.68"/>
<polygon fill="#63b8ff" stroke="#63b8ff" points="337.89,-428.19 336.8,-417.65 331.08,-426.56 337.89,-428.19"/>
</a>
</g>
</g>
<!-- Node4 -->
<g id="Node000004" class="node">
<title>Node4</title>
<g id="a_Node000004"><a xlink:href="../../d0/d3a/class_deluxe_1_1_deluxe_brand_center_1_1_a_m_m_1_1_a_p_i_1_1_services_1_1_red_shift_service.html#adb74663b688c26984a761c5b9c09cad4" target="_top" xlink:title=" ">
<polygon fill="white" stroke="#666666" points="197.5,-664 6.75,-664 6.75,-620 197.5,-620 197.5,-664"/>
<text text-anchor="start" x="14.75" y="-650.5" font-family="Helvetica,sans-Serif" font-size="10.00">Deluxe.DeluxeBrandCenter.</text>
<text text-anchor="start" x="14.75" y="-638.5" font-family="Helvetica,sans-Serif" font-size="10.00">AMM.API.Services.RedShiftService.get</text>
<text text-anchor="middle" x="102.12" y="-626.5" font-family="Helvetica,sans-Serif" font-size="10.00">MicrositeSubmitsSql</text>
</a>
</g>
</g>
<!-- Node1&#45;&gt;Node4 -->
<g id="edge3_Node000001_Node000004" class="edge">
<title>Node1&#45;&gt;Node4</title>
<g id="a_edge3_Node000001_Node000004"><a xlink:title=" ">
<path fill="none" stroke="#63b8ff" d="M329.49,-427.09C310.15,-474.74 268.1,-562.29 204.25,-611 200.02,-614.23 195.44,-617.13 190.66,-619.72"/>
<polygon fill="#63b8ff" stroke="#63b8ff" points="332.72,-428.44 333.14,-417.85 326.21,-425.86 332.72,-428.44"/>
</a>
</g>
</g>
<!-- Node5 -->
<g id="Node000005" class="node">
<title>Node5</title>
<g id="a_Node000005"><a xlink:href="../../d0/d3a/class_deluxe_1_1_deluxe_brand_center_1_1_a_m_m_1_1_a_p_i_1_1_services_1_1_red_shift_service.html#a92dc7341ba74fb69153caf203bfe61d9" target="_top" xlink:title=" ">
<polygon fill="white" stroke="#666666" points="197.5,-602 6.75,-602 6.75,-558 197.5,-558 197.5,-602"/>
<text text-anchor="start" x="14.75" y="-588.5" font-family="Helvetica,sans-Serif" font-size="10.00">Deluxe.DeluxeBrandCenter.</text>
<text text-anchor="start" x="14.75" y="-576.5" font-family="Helvetica,sans-Serif" font-size="10.00">AMM.API.Services.RedShiftService.get</text>
<text text-anchor="middle" x="102.12" y="-564.5" font-family="Helvetica,sans-Serif" font-size="10.00">MicrositeVisitsSql</text>
</a>
</g>
</g>
<!-- Node1&#45;&gt;Node5 -->
<g id="edge4_Node000001_Node000005" class="edge">
<title>Node1&#45;&gt;Node5</title>
<g id="a_edge4_Node000001_Node000005"><a xlink:title=" ">
<path fill="none" stroke="#63b8ff" d="M321.5,-425.8C297.57,-460.88 254.59,-516.64 204.25,-549 199.38,-552.13 194.18,-554.96 188.81,-557.51"/>
<polygon fill="#63b8ff" stroke="#63b8ff" points="324.23,-428.01 326.89,-417.75 318.42,-424.11 324.23,-428.01"/>
</a>
</g>
</g>
<!-- Node6 -->
<g id="Node000006" class="node">
<title>Node6</title>
<g id="a_Node000006"><a xlink:href="../../d0/d3a/class_deluxe_1_1_deluxe_brand_center_1_1_a_m_m_1_1_a_p_i_1_1_services_1_1_red_shift_service.html#a0db4594887421a601f5af19345c42fee" target="_top" xlink:title=" ">
<polygon fill="white" stroke="#666666" points="197.5,-540 6.75,-540 6.75,-496 197.5,-496 197.5,-540"/>
<text text-anchor="start" x="14.75" y="-526.5" font-family="Helvetica,sans-Serif" font-size="10.00">Deluxe.DeluxeBrandCenter.</text>
<text text-anchor="start" x="14.75" y="-514.5" font-family="Helvetica,sans-Serif" font-size="10.00">AMM.API.Services.RedShiftService.get</text>
<text text-anchor="middle" x="102.12" y="-502.5" font-family="Helvetica,sans-Serif" font-size="10.00">OpenRatesOverDays</text>
</a>
</g>
</g>
<!-- Node1&#45;&gt;Node6 -->
<g id="edge5_Node000001_Node000006" class="edge">
<title>Node1&#45;&gt;Node6</title>
<g id="a_edge5_Node000001_Node000006"><a xlink:title=" ">
<path fill="none" stroke="#63b8ff" d="M305.06,-423.26C278.36,-443.41 240.65,-469.59 204.25,-487 197.79,-490.09 190.95,-492.96 184,-495.6"/>
<polygon fill="#63b8ff" stroke="#63b8ff" points="307,-426.18 312.82,-417.33 302.75,-420.62 307,-426.18"/>
</a>
</g>
</g>
<!-- Node7 -->
<g id="Node000007" class="node">
<title>Node7</title>
<g id="a_Node000007"><a xlink:href="../../d0/d3a/class_deluxe_1_1_deluxe_brand_center_1_1_a_m_m_1_1_a_p_i_1_1_services_1_1_red_shift_service.html#ad2db6d35e7f55fb83b0582f5c958e108" target="_top" xlink:title=" ">
<polygon fill="white" stroke="#666666" points="197.5,-478 6.75,-478 6.75,-434 197.5,-434 197.5,-478"/>
<text text-anchor="start" x="14.75" y="-464.5" font-family="Helvetica,sans-Serif" font-size="10.00">Deluxe.DeluxeBrandCenter.</text>
<text text-anchor="start" x="14.75" y="-452.5" font-family="Helvetica,sans-Serif" font-size="10.00">AMM.API.Services.RedShiftService.get</text>
<text text-anchor="middle" x="102.12" y="-440.5" font-family="Helvetica,sans-Serif" font-size="10.00">TopNClickRateByAction</text>
</a>
</g>
</g>
<!-- Node1&#45;&gt;Node7 -->
<g id="edge6_Node000001_Node000007" class="edge">
<title>Node1&#45;&gt;Node7</title>
<g id="a_edge6_Node000001_Node000007"><a xlink:title=" ">
<path fill="none" stroke="#63b8ff" d="M244.14,-419.36C226.11,-424.05 207.39,-428.91 189.72,-433.5"/>
<polygon fill="#63b8ff" stroke="#63b8ff" points="245,-422.75 253.8,-416.85 243.24,-415.98 245,-422.75"/>
</a>
</g>
</g>
<!-- Node8 -->
<g id="Node000008" class="node">
<title>Node8</title>
<g id="a_Node000008"><a xlink:href="../../d0/d3a/class_deluxe_1_1_deluxe_brand_center_1_1_a_m_m_1_1_a_p_i_1_1_services_1_1_red_shift_service.html#a7e8d87faec9963c4d6dc1584e41bd320" target="_top" xlink:title=" ">
<polygon fill="white" stroke="#666666" points="197.5,-416 6.75,-416 6.75,-372 197.5,-372 197.5,-416"/>
<text text-anchor="start" x="14.75" y="-402.5" font-family="Helvetica,sans-Serif" font-size="10.00">Deluxe.DeluxeBrandCenter.</text>
<text text-anchor="start" x="14.75" y="-390.5" font-family="Helvetica,sans-Serif" font-size="10.00">AMM.API.Services.RedShiftService.get</text>
<text text-anchor="middle" x="102.12" y="-378.5" font-family="Helvetica,sans-Serif" font-size="10.00">TopNClickRateByEmail</text>
</a>
</g>
</g>
<!-- Node1&#45;&gt;Node8 -->
<g id="edge7_Node000001_Node000008" class="edge">
<title>Node1&#45;&gt;Node8</title>
<g id="a_edge7_Node000001_Node000008"><a xlink:title=" ">
<path fill="none" stroke="#63b8ff" d="M228.37,-394C218.16,-394 207.89,-394 197.87,-394"/>
<polygon fill="#63b8ff" stroke="#63b8ff" points="228.35,-397.5 238.35,-394 228.35,-390.5 228.35,-397.5"/>
</a>
</g>
</g>
<!-- Node9 -->
<g id="Node000009" class="node">
<title>Node9</title>
<g id="a_Node000009"><a xlink:href="../../d0/d3a/class_deluxe_1_1_deluxe_brand_center_1_1_a_m_m_1_1_a_p_i_1_1_services_1_1_red_shift_service.html#abc28cb705de0193078113a4408f492dc" target="_top" xlink:title=" ">
<polygon fill="white" stroke="#666666" points="197.5,-354 6.75,-354 6.75,-310 197.5,-310 197.5,-354"/>
<text text-anchor="start" x="14.75" y="-340.5" font-family="Helvetica,sans-Serif" font-size="10.00">Deluxe.DeluxeBrandCenter.</text>
<text text-anchor="start" x="14.75" y="-328.5" font-family="Helvetica,sans-Serif" font-size="10.00">AMM.API.Services.RedShiftService.get</text>
<text text-anchor="middle" x="102.12" y="-316.5" font-family="Helvetica,sans-Serif" font-size="10.00">TopNClickRateByOutboundName</text>
</a>
</g>
</g>
<!-- Node1&#45;&gt;Node9 -->
<g id="edge8_Node000001_Node000009" class="edge">
<title>Node1&#45;&gt;Node9</title>
<g id="a_edge8_Node000001_Node000009"><a xlink:title=" ">
<path fill="none" stroke="#63b8ff" d="M244.14,-368.64C226.11,-363.95 207.39,-359.09 189.72,-354.5"/>
<polygon fill="#63b8ff" stroke="#63b8ff" points="243.24,-372.02 253.8,-371.15 245,-365.25 243.24,-372.02"/>
</a>
</g>
</g>
<!-- Node10 -->
<g id="Node000010" class="node">
<title>Node10</title>
<g id="a_Node000010"><a xlink:href="../../d0/d3a/class_deluxe_1_1_deluxe_brand_center_1_1_a_m_m_1_1_a_p_i_1_1_services_1_1_red_shift_service.html#a7d86aaa69b285ddc714c0feb86884352" target="_top" xlink:title=" ">
<polygon fill="white" stroke="#666666" points="203.88,-292 0.38,-292 0.38,-248 203.88,-248 203.88,-292"/>
<text text-anchor="start" x="8.38" y="-278.5" font-family="Helvetica,sans-Serif" font-size="10.00">Deluxe.DeluxeBrandCenter.</text>
<text text-anchor="start" x="8.38" y="-266.5" font-family="Helvetica,sans-Serif" font-size="10.00">AMM.API.Services.RedShiftService.get</text>
<text text-anchor="middle" x="102.12" y="-254.5" font-family="Helvetica,sans-Serif" font-size="10.00">TopNClickRateByOutboundScheduleName</text>
</a>
</g>
</g>
<!-- Node1&#45;&gt;Node10 -->
<g id="edge9_Node000001_Node000010" class="edge">
<title>Node1&#45;&gt;Node10</title>
<g id="a_edge9_Node000001_Node000010"><a xlink:title=" ">
<path fill="none" stroke="#63b8ff" d="M305.06,-364.74C278.36,-344.59 240.65,-318.41 204.25,-301 197.79,-297.91 190.95,-295.04 184,-292.4"/>
<polygon fill="#63b8ff" stroke="#63b8ff" points="302.75,-367.38 312.82,-370.67 307,-361.82 302.75,-367.38"/>
</a>
</g>
</g>
<!-- Node11 -->
<g id="Node000011" class="node">
<title>Node11</title>
<g id="a_Node000011"><a xlink:href="../../d0/d3a/class_deluxe_1_1_deluxe_brand_center_1_1_a_m_m_1_1_a_p_i_1_1_services_1_1_red_shift_service.html#a7adb00e76aa348d054d879893fc45eb4" target="_top" xlink:title=" ">
<polygon fill="white" stroke="#666666" points="197.5,-230 6.75,-230 6.75,-186 197.5,-186 197.5,-230"/>
<text text-anchor="start" x="14.75" y="-216.5" font-family="Helvetica,sans-Serif" font-size="10.00">Deluxe.DeluxeBrandCenter.</text>
<text text-anchor="start" x="14.75" y="-204.5" font-family="Helvetica,sans-Serif" font-size="10.00">AMM.API.Services.RedShiftService.get</text>
<text text-anchor="middle" x="102.12" y="-192.5" font-family="Helvetica,sans-Serif" font-size="10.00">TopNEngagedCampaignsSql</text>
</a>
</g>
</g>
<!-- Node1&#45;&gt;Node11 -->
<g id="edge10_Node000001_Node000011" class="edge">
<title>Node1&#45;&gt;Node11</title>
<g id="a_edge10_Node000001_Node000011"><a xlink:title=" ">
<path fill="none" stroke="#63b8ff" d="M321.5,-362.2C297.57,-327.12 254.59,-271.36 204.25,-239 199.38,-235.87 194.18,-233.04 188.81,-230.49"/>
<polygon fill="#63b8ff" stroke="#63b8ff" points="318.42,-363.89 326.89,-370.25 324.23,-359.99 318.42,-363.89"/>
</a>
</g>
</g>
<!-- Node12 -->
<g id="Node000012" class="node">
<title>Node12</title>
<g id="a_Node000012"><a xlink:href="../../d0/d3a/class_deluxe_1_1_deluxe_brand_center_1_1_a_m_m_1_1_a_p_i_1_1_services_1_1_red_shift_service.html#ac655889c7154138b9a72e0b87befbaaf" target="_top" xlink:title=" ">
<polygon fill="white" stroke="#666666" points="197.5,-168 6.75,-168 6.75,-124 197.5,-124 197.5,-168"/>
<text text-anchor="start" x="14.75" y="-154.5" font-family="Helvetica,sans-Serif" font-size="10.00">Deluxe.DeluxeBrandCenter.</text>
<text text-anchor="start" x="14.75" y="-142.5" font-family="Helvetica,sans-Serif" font-size="10.00">AMM.API.Services.RedShiftService.get</text>
<text text-anchor="middle" x="102.12" y="-130.5" font-family="Helvetica,sans-Serif" font-size="10.00">TopNEngagedContactsSql</text>
</a>
</g>
</g>
<!-- Node1&#45;&gt;Node12 -->
<g id="edge11_Node000001_Node000012" class="edge">
<title>Node1&#45;&gt;Node12</title>
<g id="a_edge11_Node000001_Node000012"><a xlink:title=" ">
<path fill="none" stroke="#63b8ff" d="M329.49,-360.91C310.15,-313.26 268.1,-225.71 204.25,-177 200.02,-173.77 195.44,-170.87 190.66,-168.28"/>
<polygon fill="#63b8ff" stroke="#63b8ff" points="326.21,-362.14 333.14,-370.15 332.72,-359.56 326.21,-362.14"/>
</a>
</g>
</g>
<!-- Node13 -->
<g id="Node000013" class="node">
<title>Node13</title>
<g id="a_Node000013"><a xlink:href="../../d0/d3a/class_deluxe_1_1_deluxe_brand_center_1_1_a_m_m_1_1_a_p_i_1_1_services_1_1_red_shift_service.html#ae428cfcb9974764f772377f47e81992e" target="_top" xlink:title=" ">
<polygon fill="white" stroke="#666666" points="197.5,-106 6.75,-106 6.75,-62 197.5,-62 197.5,-106"/>
<text text-anchor="start" x="14.75" y="-92.5" font-family="Helvetica,sans-Serif" font-size="10.00">Deluxe.DeluxeBrandCenter.</text>
<text text-anchor="start" x="14.75" y="-80.5" font-family="Helvetica,sans-Serif" font-size="10.00">AMM.API.Services.RedShiftService.get</text>
<text text-anchor="middle" x="102.12" y="-68.5" font-family="Helvetica,sans-Serif" font-size="10.00">TopNOpenRateByOutboundName</text>
</a>
</g>
</g>
<!-- Node1&#45;&gt;Node13 -->
<g id="edge12_Node000001_Node000013" class="edge">
<title>Node1&#45;&gt;Node13</title>
<g id="a_edge12_Node000001_Node000013"><a xlink:title=" ">
<path fill="none" stroke="#63b8ff" d="M334.5,-360.68C320.06,-302.27 282.15,-181.31 204.25,-115 200.47,-111.79 196.37,-108.91 192.05,-106.32"/>
<polygon fill="#63b8ff" stroke="#63b8ff" points="331.08,-361.44 336.8,-370.35 337.89,-359.81 331.08,-361.44"/>
</a>
</g>
</g>
<!-- Node14 -->
<g id="Node000014" class="node">
<title>Node14</title>
<g id="a_Node000014"><a xlink:href="../../d0/d3a/class_deluxe_1_1_deluxe_brand_center_1_1_a_m_m_1_1_a_p_i_1_1_services_1_1_red_shift_service.html#ae731919dcfed7b35d8ac663750c0d7f1" target="_top" xlink:title=" ">
<polygon fill="white" stroke="#666666" points="204.25,-44 0,-44 0,0 204.25,0 204.25,-44"/>
<text text-anchor="start" x="8" y="-30.5" font-family="Helvetica,sans-Serif" font-size="10.00">Deluxe.DeluxeBrandCenter.</text>
<text text-anchor="start" x="8" y="-18.5" font-family="Helvetica,sans-Serif" font-size="10.00">AMM.API.Services.RedShiftService.get</text>
<text text-anchor="middle" x="102.12" y="-6.5" font-family="Helvetica,sans-Serif" font-size="10.00">TopNOpenRateByOutboundScheduleName</text>
</a>
</g>
</g>
<!-- Node1&#45;&gt;Node14 -->
<g id="edge13_Node000001_Node000014" class="edge">
<title>Node1&#45;&gt;Node14</title>
<g id="a_edge13_Node000001_Node000014"><a xlink:title=" ">
<path fill="none" stroke="#63b8ff" d="M337.78,-360.26C327.98,-292.14 296.31,-137.48 204.25,-53 200.73,-49.77 196.89,-46.88 192.81,-44.29"/>
<polygon fill="#63b8ff" stroke="#63b8ff" points="334.3,-360.63 339.12,-370.06 341.24,-359.68 334.3,-360.63"/>
</a>
</g>
</g>
</g>
</svg>

<g id="navigator" transform="translate(0 0)" fill="#404254">
  <rect fill="#f2f5e9" fill-opacity="0.5" stroke="#606060" stroke-width=".5" x="0" y="0" width="60" height="60"/>
  <use id="zoomplus" xlink:href="#zoomPlus" x="17" y="9" onmousedown="handleZoom(evt,'in')"/>
  <use id="zoomminus" xlink:href="#zoomMin" x="42" y="9" onmousedown="handleZoom(evt,'out')"/>
  <use id="reset" xlink:href="#resetDef" x="30" y="36" onmousedown="handleReset()"/>
   <use id="arrowup" xlink:href="#arrowUp" x="0" y="0" onmousedown="handlePan(0,-1)"/>
  <use id="arrowright" xlink:href="#arrowRight" x="0" y="0" onmousedown="handlePan(1,0)"/>
  <use id="arrowdown" xlink:href="#arrowDown" x="0" y="0" onmousedown="handlePan(0,1)"/>
  <use id="arrowleft" xlink:href="#arrowLeft" x="0" y="0" onmousedown="handlePan(-1,0)"/>
</g>
<svg viewBox="0 0 15 15" width="100%" height="30px" preserveAspectRatio="xMaxYMin meet">
 <g id="arrow_out" transform="scale(0.3 0.3)">
  <a xlink:href="class_deluxe_1_1_deluxe_brand_center_1_1_a_m_m_1_1_a_p_i_1_1_services_1_1_red_shift_service_a327ee20d5244dcb90ab082e68b9b72f4_icgraph_org.svg" target="_base">
   <rect id="button" ry="5" rx="5" y="6" x="6" height="38" width="38"
        fill="#f2f5e9" fill-opacity="0.5" stroke="#606060" stroke-width="1.0"/>
   <path id="arrow"
     d="M 11.500037,31.436501 C 11.940474,20.09759 22.043105,11.32322 32.158766,21.979434 L 37.068811,17.246167 C 37.068811,17.246167 37.088388,32 37.088388,32 L 22.160133,31.978069 C 22.160133,31.978069 26.997745,27.140456 26.997745,27.140456 C 18.528582,18.264221 13.291696,25.230495 11.500037,31.436501 z"
     style="fill:#404040;"/>
  </a>
 </g>
</svg>

<style type='text/css'>
<![CDATA[
[data-mouse-over-selected='false'] { opacity: 0.7; }
[data-mouse-over-selected='true']  { opacity: 1.0; }
]]>
</style>
<script type="application/ecmascript"><![CDATA[
document.addEventListener('DOMContentLoaded', (event) => {
  highlightEdges();
  highlightAdjacentNodes();
});
]]></script>
</svg>
