<?xml version="1.0" encoding="UTF-8" standalone="no"?>
<!DOCTYPE svg PUBLIC "-//W3C//DTD SVG 1.1//EN"
 "http://www.w3.org/Graphics/SVG/1.1/DTD/svg11.dtd">
<!-- Generated by graphviz version 12.1.1 (20240910.0053)
 -->
<!-- Title: Deluxe.DeluxeBrandCenter.AMM.API.Services.RedShiftService.formatOutboundSqlForRedShift Pages: 1 -->
<!--zoomable 548 -->

<svg id="main" version="1.1" xmlns="http://www.w3.org/2000/svg" xmlns:xlink="http://www.w3.org/1999/xlink" xml:space="preserve" onload="init(evt)">

<style type="text/css"><![CDATA[
.node, .edge {opacity: 0.7;}
.node.selected, .edge.selected {opacity: 1;}
.edge:hover path { stroke: red; }
.edge:hover polygon { stroke: red; fill: red; }
]]></style>

<defs>
  <circle id="rim" cx="0" cy="0" r="7"/>
  <circle id="rim2" cx="0" cy="0" r="3.5"/>
  <g id="zoomPlus">
    <use xlink:href="#rim" fill="#404040"><set attributeName="fill" to="#808080" begin="zoomplus.mouseover" end="zoomplus.mouseout"/></use>
    <path d="M-4,0h8M0,-4v8" fill="none" stroke="white" stroke-width="1.5" pointer-events="none"/>
  </g>
  <g id="zoomMin">
    <use xlink:href="#rim" fill="#404040"><set attributeName="fill" to="#808080" begin="zoomminus.mouseover" end="zoomminus.mouseout"/></use>
    <path d="M-4,0h8" fill="none" stroke="white" stroke-width="1.5" pointer-events="none"/>
  </g>
  <g id="arrowUp" transform="translate(30 24)">
    <use xlink:href="#rim"/>
    <path pointer-events="none" fill="none" stroke="white" stroke-width="1.5" d="M0,-3.0v7 M-2.5,-0.5L0,-3.0L2.5,-0.5"/>
  </g>
  <g id="arrowRight" transform="rotate(90) translate(36 -43)">
    <use xlink:href="#rim"/>
    <path pointer-events="none" fill="none" stroke="white" stroke-width="1.5" d="M0,-3.0v7 M-2.5,-0.5L0,-3.0L2.5,-0.5"/>
  </g>
  <g id="arrowDown" transform="rotate(180) translate(-30 -48)">
    <use xlink:href="#rim"/>
    <path pointer-events="none" fill="none" stroke="white" stroke-width="1.5" d="M0,-3.0v7 M-2.5,-0.5L0,-3.0L2.5,-0.5"/>
  </g>
  <g id="arrowLeft" transform="rotate(270) translate(-36 17)">
    <use xlink:href="#rim"/>
    <path pointer-events="none" fill="none" stroke="white" stroke-width="1.5" d="M0,-3.0v7 M-2.5,-0.5L0,-3.0L2.5,-0.5"/>
  </g>
  <g id="resetDef">
    <use xlink:href="#rim2" fill="#404040"><set attributeName="fill" to="#808080" begin="reset.mouseover" end="reset.mouseout"/></use>
  </g>
</defs>
<script type="application/ecmascript">
var viewWidth = 440;
var viewHeight = 548;
var sectionId = 'dynsection-5';
</script>
<script type="application/ecmascript" xlink:href="../../svg.min.js"/>
<svg id="graph" class="graph">
<g id="viewport">
<title>Deluxe.DeluxeBrandCenter.AMM.API.Services.RedShiftService.formatOutboundSqlForRedShift</title>
<!-- Node1 -->
<g id="Node000001" class="node">
<title>Node1</title>
<g id="a_Node000001"><a xlink:title=" ">
<polygon fill="#999999" stroke="#666666" points="431.75,-292 226.75,-292 226.75,-248 431.75,-248 431.75,-292"/>
<text text-anchor="start" x="234.75" y="-278.5" font-family="Helvetica,sans-Serif" font-size="10.00">Deluxe.DeluxeBrandCenter.</text>
<text text-anchor="start" x="234.75" y="-266.5" font-family="Helvetica,sans-Serif" font-size="10.00">AMM.API.Services.RedShiftService.format</text>
<text text-anchor="middle" x="329.25" y="-254.5" font-family="Helvetica,sans-Serif" font-size="10.00">OutboundSqlForRedShift</text>
</a>
</g>
</g>
<!-- Node2 -->
<g id="Node000002" class="node">
<title>Node2</title>
<g id="a_Node000002"><a xlink:href="../../d0/d3a/class_deluxe_1_1_deluxe_brand_center_1_1_a_m_m_1_1_a_p_i_1_1_services_1_1_red_shift_service.html#a39e40b48b2defd84d11ba0acc2f57702" target="_top" xlink:title=" ">
<polygon fill="white" stroke="#666666" points="190.75,-540 0,-540 0,-496 190.75,-496 190.75,-540"/>
<text text-anchor="start" x="8" y="-526.5" font-family="Helvetica,sans-Serif" font-size="10.00">Deluxe.DeluxeBrandCenter.</text>
<text text-anchor="start" x="8" y="-514.5" font-family="Helvetica,sans-Serif" font-size="10.00">AMM.API.Services.RedShiftService.get</text>
<text text-anchor="middle" x="95.38" y="-502.5" font-family="Helvetica,sans-Serif" font-size="10.00">ClicksEmailsSql</text>
</a>
</g>
</g>
<!-- Node1&#45;&gt;Node2 -->
<g id="edge1_Node000001_Node000002" class="edge">
<title>Node1&#45;&gt;Node2</title>
<g id="a_edge1_Node000001_Node000002"><a xlink:title=" ">
<path fill="none" stroke="#63b8ff" d="M315.86,-302.93C296.36,-350.37 254.11,-437.65 190.75,-487 186.67,-490.18 182.25,-493.04 177.62,-495.61"/>
<polygon fill="#63b8ff" stroke="#63b8ff" points="319.07,-304.31 319.54,-293.73 312.57,-301.71 319.07,-304.31"/>
</a>
</g>
</g>
<!-- Node3 -->
<g id="Node000003" class="node">
<title>Node3</title>
<g id="a_Node000003"><a xlink:href="../../d0/d3a/class_deluxe_1_1_deluxe_brand_center_1_1_a_m_m_1_1_a_p_i_1_1_services_1_1_red_shift_service.html#aceb5699f943bcf5e1dc622ea73ddfe5b" target="_top" xlink:title=" ">
<polygon fill="white" stroke="#666666" points="190.75,-478 0,-478 0,-434 190.75,-434 190.75,-478"/>
<text text-anchor="start" x="8" y="-464.5" font-family="Helvetica,sans-Serif" font-size="10.00">Deluxe.DeluxeBrandCenter.</text>
<text text-anchor="start" x="8" y="-452.5" font-family="Helvetica,sans-Serif" font-size="10.00">AMM.API.Services.RedShiftService.get</text>
<text text-anchor="middle" x="95.38" y="-440.5" font-family="Helvetica,sans-Serif" font-size="10.00">OpenedEmailsSql</text>
</a>
</g>
</g>
<!-- Node1&#45;&gt;Node3 -->
<g id="edge2_Node000001_Node000003" class="edge">
<title>Node1&#45;&gt;Node3</title>
<g id="a_edge2_Node000001_Node000003"><a xlink:title=" ">
<path fill="none" stroke="#63b8ff" d="M307.88,-301.62C283.84,-336.53 240.76,-392.14 190.75,-425 185.99,-428.12 180.9,-430.96 175.62,-433.53"/>
<polygon fill="#63b8ff" stroke="#63b8ff" points="310.59,-303.85 313.29,-293.61 304.79,-299.93 310.59,-303.85"/>
</a>
</g>
</g>
<!-- Node4 -->
<g id="Node000004" class="node">
<title>Node4</title>
<g id="a_Node000004"><a xlink:href="../../d0/d3a/class_deluxe_1_1_deluxe_brand_center_1_1_a_m_m_1_1_a_p_i_1_1_services_1_1_red_shift_service.html#aeab11fee0e4c700b3a061e008b745ac7" target="_top" xlink:title=" ">
<polygon fill="white" stroke="#666666" points="190.75,-416 0,-416 0,-372 190.75,-372 190.75,-416"/>
<text text-anchor="start" x="8" y="-402.5" font-family="Helvetica,sans-Serif" font-size="10.00">Deluxe.DeluxeBrandCenter.</text>
<text text-anchor="start" x="8" y="-390.5" font-family="Helvetica,sans-Serif" font-size="10.00">AMM.API.Services.RedShiftService.get</text>
<text text-anchor="middle" x="95.38" y="-378.5" font-family="Helvetica,sans-Serif" font-size="10.00">PrintsSentSql</text>
</a>
</g>
</g>
<!-- Node1&#45;&gt;Node4 -->
<g id="edge3_Node000001_Node000004" class="edge">
<title>Node1&#45;&gt;Node4</title>
<g id="a_edge3_Node000001_Node000004"><a xlink:title=" ">
<path fill="none" stroke="#63b8ff" d="M291.19,-299.23C264.46,-319.25 226.86,-345.29 190.75,-363 184.56,-366.04 177.99,-368.88 171.33,-371.52"/>
<polygon fill="#63b8ff" stroke="#63b8ff" points="293.11,-302.17 298.97,-293.34 288.89,-296.59 293.11,-302.17"/>
</a>
</g>
</g>
<!-- Node5 -->
<g id="Node000005" class="node">
<title>Node5</title>
<g id="a_Node000005"><a xlink:href="../../d0/d3a/class_deluxe_1_1_deluxe_brand_center_1_1_a_m_m_1_1_a_p_i_1_1_services_1_1_red_shift_service.html#afe0bde713fad5e35ab7836da6846a952" target="_top" xlink:title=" ">
<polygon fill="white" stroke="#666666" points="190.75,-354 0,-354 0,-310 190.75,-310 190.75,-354"/>
<text text-anchor="start" x="8" y="-340.5" font-family="Helvetica,sans-Serif" font-size="10.00">Deluxe.DeluxeBrandCenter.</text>
<text text-anchor="start" x="8" y="-328.5" font-family="Helvetica,sans-Serif" font-size="10.00">AMM.API.Services.RedShiftService.get</text>
<text text-anchor="middle" x="95.38" y="-316.5" font-family="Helvetica,sans-Serif" font-size="10.00">SentEmailsSql</text>
</a>
</g>
</g>
<!-- Node1&#45;&gt;Node5 -->
<g id="edge4_Node000001_Node000005" class="edge">
<title>Node1&#45;&gt;Node5</title>
<g id="a_edge4_Node000001_Node000005"><a xlink:title=" ">
<path fill="none" stroke="#63b8ff" d="M233.4,-295.36C215.88,-300.05 197.69,-304.91 180.52,-309.5"/>
<polygon fill="#63b8ff" stroke="#63b8ff" points="233.99,-298.83 242.75,-292.86 232.18,-292.06 233.99,-298.83"/>
</a>
</g>
</g>
<!-- Node6 -->
<g id="Node000006" class="node">
<title>Node6</title>
<g id="a_Node000006"><a xlink:href="../../d0/d3a/class_deluxe_1_1_deluxe_brand_center_1_1_a_m_m_1_1_a_p_i_1_1_services_1_1_red_shift_service.html#afd2ee1c14867ef30faddcdb311e0cd4c" target="_top" xlink:title=" ">
<polygon fill="white" stroke="#666666" points="190.75,-292 0,-292 0,-248 190.75,-248 190.75,-292"/>
<text text-anchor="start" x="8" y="-278.5" font-family="Helvetica,sans-Serif" font-size="10.00">Deluxe.DeluxeBrandCenter.</text>
<text text-anchor="start" x="8" y="-266.5" font-family="Helvetica,sans-Serif" font-size="10.00">AMM.API.Services.RedShiftService.get</text>
<text text-anchor="middle" x="95.38" y="-254.5" font-family="Helvetica,sans-Serif" font-size="10.00">SocialPostsSql</text>
</a>
</g>
</g>
<!-- Node1&#45;&gt;Node6 -->
<g id="edge5_Node000001_Node000006" class="edge">
<title>Node1&#45;&gt;Node6</title>
<g id="a_edge5_Node000001_Node000006"><a xlink:title=" ">
<path fill="none" stroke="#63b8ff" d="M215.16,-270C207.08,-270 198.99,-270 191.04,-270"/>
<polygon fill="#63b8ff" stroke="#63b8ff" points="215.03,-273.5 225.03,-270 215.03,-266.5 215.03,-273.5"/>
</a>
</g>
</g>
<!-- Node7 -->
<g id="Node000007" class="node">
<title>Node7</title>
<g id="a_Node000007"><a xlink:href="../../d0/d3a/class_deluxe_1_1_deluxe_brand_center_1_1_a_m_m_1_1_a_p_i_1_1_services_1_1_red_shift_service.html#a41c90ad63ed538a0379f46def7c04f35" target="_top" xlink:title=" ">
<polygon fill="white" stroke="#666666" points="190.75,-230 0,-230 0,-186 190.75,-186 190.75,-230"/>
<text text-anchor="start" x="8" y="-216.5" font-family="Helvetica,sans-Serif" font-size="10.00">Deluxe.DeluxeBrandCenter.</text>
<text text-anchor="start" x="8" y="-204.5" font-family="Helvetica,sans-Serif" font-size="10.00">AMM.API.Services.RedShiftService.get</text>
<text text-anchor="middle" x="95.38" y="-192.5" font-family="Helvetica,sans-Serif" font-size="10.00">SpamEmailsSql</text>
</a>
</g>
</g>
<!-- Node1&#45;&gt;Node7 -->
<g id="edge6_Node000001_Node000007" class="edge">
<title>Node1&#45;&gt;Node7</title>
<g id="a_edge6_Node000001_Node000007"><a xlink:title=" ">
<path fill="none" stroke="#63b8ff" d="M233.4,-244.64C215.88,-239.95 197.69,-235.09 180.52,-230.5"/>
<polygon fill="#63b8ff" stroke="#63b8ff" points="232.18,-247.94 242.75,-247.14 233.99,-241.17 232.18,-247.94"/>
</a>
</g>
</g>
<!-- Node8 -->
<g id="Node000008" class="node">
<title>Node8</title>
<g id="a_Node000008"><a xlink:href="../../d0/d3a/class_deluxe_1_1_deluxe_brand_center_1_1_a_m_m_1_1_a_p_i_1_1_services_1_1_red_shift_service.html#afe9668ce6dfd422698852651bf78cf82" target="_top" xlink:title=" ">
<polygon fill="white" stroke="#666666" points="190.75,-168 0,-168 0,-124 190.75,-124 190.75,-168"/>
<text text-anchor="start" x="8" y="-154.5" font-family="Helvetica,sans-Serif" font-size="10.00">Deluxe.DeluxeBrandCenter.</text>
<text text-anchor="start" x="8" y="-142.5" font-family="Helvetica,sans-Serif" font-size="10.00">AMM.API.Services.RedShiftService.get</text>
<text text-anchor="middle" x="95.38" y="-130.5" font-family="Helvetica,sans-Serif" font-size="10.00">SuppressedEmailsSql</text>
</a>
</g>
</g>
<!-- Node1&#45;&gt;Node8 -->
<g id="edge7_Node000001_Node000008" class="edge">
<title>Node1&#45;&gt;Node8</title>
<g id="a_edge7_Node000001_Node000008"><a xlink:title=" ">
<path fill="none" stroke="#63b8ff" d="M291.19,-240.77C264.46,-220.75 226.86,-194.71 190.75,-177 184.56,-173.96 177.99,-171.12 171.33,-168.48"/>
<polygon fill="#63b8ff" stroke="#63b8ff" points="288.89,-243.41 298.97,-246.66 293.11,-237.83 288.89,-243.41"/>
</a>
</g>
</g>
<!-- Node9 -->
<g id="Node000009" class="node">
<title>Node9</title>
<g id="a_Node000009"><a xlink:href="../../d0/d3a/class_deluxe_1_1_deluxe_brand_center_1_1_a_m_m_1_1_a_p_i_1_1_services_1_1_red_shift_service.html#a6d057531c3ce96a5a1f8a5c38e076d32" target="_top" xlink:title=" ">
<polygon fill="white" stroke="#666666" points="190.75,-106 0,-106 0,-62 190.75,-62 190.75,-106"/>
<text text-anchor="start" x="8" y="-92.5" font-family="Helvetica,sans-Serif" font-size="10.00">Deluxe.DeluxeBrandCenter.</text>
<text text-anchor="start" x="8" y="-80.5" font-family="Helvetica,sans-Serif" font-size="10.00">AMM.API.Services.RedShiftService.get</text>
<text text-anchor="middle" x="95.38" y="-68.5" font-family="Helvetica,sans-Serif" font-size="10.00">UndeliverableEmailsSql</text>
</a>
</g>
</g>
<!-- Node1&#45;&gt;Node9 -->
<g id="edge8_Node000001_Node000009" class="edge">
<title>Node1&#45;&gt;Node9</title>
<g id="a_edge8_Node000001_Node000009"><a xlink:title=" ">
<path fill="none" stroke="#63b8ff" d="M307.88,-238.38C283.84,-203.47 240.76,-147.86 190.75,-115 185.99,-111.88 180.9,-109.04 175.62,-106.47"/>
<polygon fill="#63b8ff" stroke="#63b8ff" points="304.79,-240.07 313.29,-246.39 310.59,-236.15 304.79,-240.07"/>
</a>
</g>
</g>
<!-- Node10 -->
<g id="Node000010" class="node">
<title>Node10</title>
<g id="a_Node000010"><a xlink:href="../../d0/d3a/class_deluxe_1_1_deluxe_brand_center_1_1_a_m_m_1_1_a_p_i_1_1_services_1_1_red_shift_service.html#a7cd39c7cd81c4cb1a5433b790c08ed83" target="_top" xlink:title=" ">
<polygon fill="white" stroke="#666666" points="190.75,-44 0,-44 0,0 190.75,0 190.75,-44"/>
<text text-anchor="start" x="8" y="-30.5" font-family="Helvetica,sans-Serif" font-size="10.00">Deluxe.DeluxeBrandCenter.</text>
<text text-anchor="start" x="8" y="-18.5" font-family="Helvetica,sans-Serif" font-size="10.00">AMM.API.Services.RedShiftService.get</text>
<text text-anchor="middle" x="95.38" y="-6.5" font-family="Helvetica,sans-Serif" font-size="10.00">UnsubscribeEmailsSql</text>
</a>
</g>
</g>
<!-- Node1&#45;&gt;Node10 -->
<g id="edge9_Node000001_Node000010" class="edge">
<title>Node1&#45;&gt;Node10</title>
<g id="a_edge9_Node000001_Node000010"><a xlink:title=" ">
<path fill="none" stroke="#63b8ff" d="M315.86,-237.07C296.36,-189.63 254.11,-102.35 190.75,-53 186.67,-49.82 182.25,-46.96 177.62,-44.39"/>
<polygon fill="#63b8ff" stroke="#63b8ff" points="312.57,-238.29 319.54,-246.27 319.07,-235.69 312.57,-238.29"/>
</a>
</g>
</g>
</g>
</svg>

<g id="navigator" transform="translate(0 0)" fill="#404254">
  <rect fill="#f2f5e9" fill-opacity="0.5" stroke="#606060" stroke-width=".5" x="0" y="0" width="60" height="60"/>
  <use id="zoomplus" xlink:href="#zoomPlus" x="17" y="9" onmousedown="handleZoom(evt,'in')"/>
  <use id="zoomminus" xlink:href="#zoomMin" x="42" y="9" onmousedown="handleZoom(evt,'out')"/>
  <use id="reset" xlink:href="#resetDef" x="30" y="36" onmousedown="handleReset()"/>
   <use id="arrowup" xlink:href="#arrowUp" x="0" y="0" onmousedown="handlePan(0,-1)"/>
  <use id="arrowright" xlink:href="#arrowRight" x="0" y="0" onmousedown="handlePan(1,0)"/>
  <use id="arrowdown" xlink:href="#arrowDown" x="0" y="0" onmousedown="handlePan(0,1)"/>
  <use id="arrowleft" xlink:href="#arrowLeft" x="0" y="0" onmousedown="handlePan(-1,0)"/>
</g>
<svg viewBox="0 0 15 15" width="100%" height="30px" preserveAspectRatio="xMaxYMin meet">
 <g id="arrow_out" transform="scale(0.3 0.3)">
  <a xlink:href="class_deluxe_1_1_deluxe_brand_center_1_1_a_m_m_1_1_a_p_i_1_1_services_1_1_red_shift_service_abf03fc9500dbd3caa0c8a854ced796a5_icgraph_org.svg" target="_base">
   <rect id="button" ry="5" rx="5" y="6" x="6" height="38" width="38"
        fill="#f2f5e9" fill-opacity="0.5" stroke="#606060" stroke-width="1.0"/>
   <path id="arrow"
     d="M 11.500037,31.436501 C 11.940474,20.09759 22.043105,11.32322 32.158766,21.979434 L 37.068811,17.246167 C 37.068811,17.246167 37.088388,32 37.088388,32 L 22.160133,31.978069 C 22.160133,31.978069 26.997745,27.140456 26.997745,27.140456 C 18.528582,18.264221 13.291696,25.230495 11.500037,31.436501 z"
     style="fill:#404040;"/>
  </a>
 </g>
</svg>

<style type='text/css'>
<![CDATA[
[data-mouse-over-selected='false'] { opacity: 0.7; }
[data-mouse-over-selected='true']  { opacity: 1.0; }
]]>
</style>
<script type="application/ecmascript"><![CDATA[
document.addEventListener('DOMContentLoaded', (event) => {
  highlightEdges();
  highlightAdjacentNodes();
});
]]></script>
</svg>
