<?xml version="1.0" encoding="UTF-8" standalone="no"?>
<!DOCTYPE svg PUBLIC "-//W3C//DTD SVG 1.1//EN"
 "http://www.w3.org/Graphics/SVG/1.1/DTD/svg11.dtd">
<!-- Generated by graphviz version 12.1.1 (20240910.0053)
 -->
<!-- Title: Deluxe.DeluxeBrandCenter.AMM.API.Services.DBService&lt; TModel, TModelVM &gt; Pages: 1 -->
<svg width="1586pt" height="592pt"
 viewBox="0.00 0.00 1586.00 592.00" xmlns="http://www.w3.org/2000/svg" xmlns:xlink="http://www.w3.org/1999/xlink">
<g id="graph0" class="graph" transform="scale(1 1) rotate(0) translate(4 588)">
<title>Deluxe.DeluxeBrandCenter.AMM.API.Services.DBService&lt; TModel, TModelVM &gt;</title>
<!-- Node1 -->
<g id="Node000001" class="node">
<title>Node1</title>
<g id="a_Node000001"><a xlink:title=" ">
<polygon fill="#999999" stroke="#666666" points="297,-168 146.75,-168 146.75,-124 297,-124 297,-168"/>
<text text-anchor="start" x="154.75" y="-154.5" font-family="Helvetica,sans-Serif" font-size="10.00">Deluxe.DeluxeBrandCenter.</text>
<text text-anchor="start" x="154.75" y="-142.5" font-family="Helvetica,sans-Serif" font-size="10.00">AMM.API.Services.DBService</text>
<text text-anchor="middle" x="221.88" y="-130.5" font-family="Helvetica,sans-Serif" font-size="10.00">&lt; TModel, TModelVM &gt;</text>
</a>
</g>
</g>
<!-- Node3 -->
<g id="Node000003" class="node">
<title>Node3</title>
<g id="a_Node000003"><a xlink:href="../../dd/dd8/class_deluxe_1_1_deluxe_brand_center_1_1_a_m_m_1_1_a_p_i_1_1_services_1_1_named_db_service.html" target="_top" xlink:title=" ">
<polygon fill="white" stroke="#666666" points="675.62,-381 495.38,-381 495.38,-337 675.62,-337 675.62,-381"/>
<text text-anchor="start" x="503.38" y="-367.5" font-family="Helvetica,sans-Serif" font-size="10.00">Deluxe.DeluxeBrandCenter.</text>
<text text-anchor="start" x="503.38" y="-355.5" font-family="Helvetica,sans-Serif" font-size="10.00">AMM.API.Services.NamedDbService</text>
<text text-anchor="middle" x="585.5" y="-343.5" font-family="Helvetica,sans-Serif" font-size="10.00">&lt; TModel, TModelVM &gt;</text>
</a>
</g>
</g>
<!-- Node1&#45;&gt;Node3 -->
<g id="edge2_Node000001_Node000003" class="edge">
<title>Node1&#45;&gt;Node3</title>
<g id="a_edge2_Node000001_Node000003"><a xlink:title=" ">
<path fill="none" stroke="#63b8ff" d="M267.26,-174.45C282.34,-183.97 299.33,-194.56 315,-204 395.69,-252.58 491.6,-306.95 544.48,-336.64"/>
<polygon fill="#63b8ff" stroke="#63b8ff" points="269.27,-171.57 258.95,-169.17 265.52,-177.48 269.27,-171.57"/>
</a>
</g>
</g>
<!-- Node16 -->
<g id="Node000016" class="node">
<title>Node16</title>
<g id="a_Node000016"><a xlink:href="../../d6/d4e/class_deluxe_1_1_deluxe_brand_center_1_1_a_m_m_1_1_a_p_i_1_1_services_1_1_d_b_service.html" target="_top" xlink:title=" ">
<polygon fill="white" stroke="#666666" points="660.62,-230 510.38,-230 510.38,-186 660.62,-186 660.62,-230"/>
<text text-anchor="start" x="518.38" y="-216.5" font-family="Helvetica,sans-Serif" font-size="10.00">Deluxe.DeluxeBrandCenter.</text>
<text text-anchor="start" x="518.38" y="-204.5" font-family="Helvetica,sans-Serif" font-size="10.00">AMM.API.Services.DBService</text>
<text text-anchor="middle" x="585.5" y="-192.5" font-family="Helvetica,sans-Serif" font-size="10.00">&lt; Contact, ContactVM &gt;</text>
</a>
</g>
</g>
<!-- Node1&#45;&gt;Node16 -->
<g id="edge15_Node000001_Node000016" class="edge">
<title>Node1&#45;&gt;Node16</title>
<g id="a_edge15_Node000001_Node000016"><a xlink:title=" ">
<path fill="none" stroke="orange" stroke-dasharray="5,2" d="M308.44,-160.87C310.65,-161.25 312.84,-161.63 315,-162 380.95,-173.36 456.01,-186.16 510.14,-195.37"/>
<polygon fill="orange" stroke="orange" points="309.23,-157.45 298.78,-159.2 308.04,-164.35 309.23,-157.45"/>
</a>
</g>
<text text-anchor="middle" x="394.5" y="-190.77" font-family="Helvetica,sans-Serif" font-size="10.00" fill="grey"> &lt; Contact, ContactVM &gt;</text>
</g>
<!-- Node18 -->
<g id="Node000018" class="node">
<title>Node18</title>
<g id="a_Node000018"><a xlink:href="../../d6/d4e/class_deluxe_1_1_deluxe_brand_center_1_1_a_m_m_1_1_a_p_i_1_1_services_1_1_d_b_service.html" target="_top" xlink:title=" ">
<polygon fill="white" stroke="#666666" points="671.5,-168 499.5,-168 499.5,-124 671.5,-124 671.5,-168"/>
<text text-anchor="start" x="507.5" y="-154.5" font-family="Helvetica,sans-Serif" font-size="10.00">Deluxe.DeluxeBrandCenter.</text>
<text text-anchor="start" x="507.5" y="-142.5" font-family="Helvetica,sans-Serif" font-size="10.00">AMM.API.Services.DBService</text>
<text text-anchor="middle" x="585.5" y="-130.5" font-family="Helvetica,sans-Serif" font-size="10.00">&lt; EmailDomain, EmailDomainVM &gt;</text>
</a>
</g>
</g>
<!-- Node1&#45;&gt;Node18 -->
<g id="edge17_Node000001_Node000018" class="edge">
<title>Node1&#45;&gt;Node18</title>
<g id="a_edge17_Node000001_Node000018"><a xlink:title=" ">
<path fill="none" stroke="orange" stroke-dasharray="5,2" d="M308.62,-146C366.12,-146 441.55,-146 499,-146"/>
<polygon fill="orange" stroke="orange" points="308.88,-142.5 298.88,-146 308.88,-149.5 308.88,-142.5"/>
</a>
</g>
<text text-anchor="middle" x="394.5" y="-148.5" font-family="Helvetica,sans-Serif" font-size="10.00" fill="grey"> &lt; EmailDomain, EmailDomainVM &gt;</text>
</g>
<!-- Node20 -->
<g id="Node000020" class="node">
<title>Node20</title>
<g id="a_Node000020"><a xlink:href="../../d6/d4e/class_deluxe_1_1_deluxe_brand_center_1_1_a_m_m_1_1_a_p_i_1_1_services_1_1_d_b_service.html" target="_top" xlink:title=" ">
<polygon fill="white" stroke="#666666" points="679,-106 492,-106 492,-62 679,-62 679,-106"/>
<text text-anchor="start" x="500" y="-92.5" font-family="Helvetica,sans-Serif" font-size="10.00">Deluxe.DeluxeBrandCenter.</text>
<text text-anchor="start" x="500" y="-80.5" font-family="Helvetica,sans-Serif" font-size="10.00">AMM.API.Services.DBService</text>
<text text-anchor="middle" x="585.5" y="-68.5" font-family="Helvetica,sans-Serif" font-size="10.00">&lt; SignatureBlock, SignatureBlockVM &gt;</text>
</a>
</g>
</g>
<!-- Node1&#45;&gt;Node20 -->
<g id="edge19_Node000001_Node000020" class="edge">
<title>Node1&#45;&gt;Node20</title>
<g id="a_edge19_Node000001_Node000020"><a xlink:title=" ">
<path fill="none" stroke="orange" stroke-dasharray="5,2" d="M303.33,-120.69C307.26,-119.72 311.16,-118.82 315,-118 373.11,-105.6 439.31,-97.17 491.55,-91.8"/>
<polygon fill="orange" stroke="orange" points="302.49,-117.29 293.68,-123.18 304.24,-124.07 302.49,-117.29"/>
</a>
</g>
<text text-anchor="start" x="331.88" y="-132.5" font-family="Helvetica,sans-Serif" font-size="10.00" fill="grey"> &lt; SignatureBlock, Signature</text>
<text text-anchor="middle" x="394.5" y="-120.5" font-family="Helvetica,sans-Serif" font-size="10.00" fill="grey">BlockVM &gt;</text>
</g>
<!-- Node22 -->
<g id="Node000022" class="node">
<title>Node22</title>
<g id="a_Node000022"><a xlink:href="../../d6/d4e/class_deluxe_1_1_deluxe_brand_center_1_1_a_m_m_1_1_a_p_i_1_1_services_1_1_d_b_service.html" target="_top" xlink:title=" ">
<polygon fill="white" stroke="#666666" points="660.62,-44 510.38,-44 510.38,0 660.62,0 660.62,-44"/>
<text text-anchor="start" x="518.38" y="-30.5" font-family="Helvetica,sans-Serif" font-size="10.00">Deluxe.DeluxeBrandCenter.</text>
<text text-anchor="start" x="518.38" y="-18.5" font-family="Helvetica,sans-Serif" font-size="10.00">AMM.API.Services.DBService</text>
<text text-anchor="middle" x="585.5" y="-6.5" font-family="Helvetica,sans-Serif" font-size="10.00">&lt; Template, TemplateVM &gt;</text>
</a>
</g>
</g>
<!-- Node1&#45;&gt;Node22 -->
<g id="edge21_Node000001_Node000022" class="edge">
<title>Node1&#45;&gt;Node22</title>
<g id="a_edge21_Node000001_Node000022"><a xlink:title=" ">
<path fill="none" stroke="orange" stroke-dasharray="5,2" d="M255.6,-116.41C272.29,-102.8 293.56,-87.58 315,-78 377.5,-50.06 454.44,-35.86 510.09,-28.76"/>
<polygon fill="orange" stroke="orange" points="253.41,-113.69 247.99,-122.79 257.9,-119.05 253.41,-113.69"/>
</a>
</g>
<text text-anchor="middle" x="394.5" y="-80.5" font-family="Helvetica,sans-Serif" font-size="10.00" fill="grey"> &lt; Template, TemplateVM &gt;</text>
</g>
<!-- Node2 -->
<g id="Node000002" class="node">
<title>Node2</title>
<g id="a_Node000002"><a xlink:href="../../d3/ddb/interface_deluxe_1_1_deluxe_brand_center_1_1_a_m_m_1_1_a_p_i_1_1_services_1_1_i_d_b_service.html" target="_top" xlink:title=" ">
<polygon fill="white" stroke="#666666" points="109.75,-162 0,-162 0,-130 109.75,-130 109.75,-162"/>
<text text-anchor="start" x="8" y="-148.5" font-family="Helvetica,sans-Serif" font-size="10.00">IDBService&lt; TModel,</text>
<text text-anchor="middle" x="54.88" y="-136.5" font-family="Helvetica,sans-Serif" font-size="10.00"> TModelVM &gt;</text>
</a>
</g>
</g>
<!-- Node2&#45;&gt;Node1 -->
<g id="edge1_Node000001_Node000002" class="edge">
<title>Node2&#45;&gt;Node1</title>
<g id="a_edge1_Node000001_Node000002"><a xlink:title=" ">
<path fill="none" stroke="#63b8ff" d="M121.33,-146C129.55,-146 138.01,-146 146.36,-146"/>
<polygon fill="#63b8ff" stroke="#63b8ff" points="121.42,-142.5 111.42,-146 121.42,-149.5 121.42,-142.5"/>
</a>
</g>
</g>
<!-- Node4 -->
<g id="Node000004" class="node">
<title>Node4</title>
<g id="a_Node000004"><a xlink:href="../../dd/dd8/class_deluxe_1_1_deluxe_brand_center_1_1_a_m_m_1_1_a_p_i_1_1_services_1_1_named_db_service.html" target="_top" xlink:title=" ">
<polygon fill="white" stroke="#666666" points="1086.5,-564 904,-564 904,-520 1086.5,-520 1086.5,-564"/>
<text text-anchor="start" x="912" y="-550.5" font-family="Helvetica,sans-Serif" font-size="10.00">Deluxe.DeluxeBrandCenter.</text>
<text text-anchor="start" x="912" y="-538.5" font-family="Helvetica,sans-Serif" font-size="10.00">AMM.API.Services.NamedDbService</text>
<text text-anchor="middle" x="995.25" y="-526.5" font-family="Helvetica,sans-Serif" font-size="10.00">&lt; AccountStatus, AccountStatusVM &gt;</text>
</a>
</g>
</g>
<!-- Node3&#45;&gt;Node4 -->
<g id="edge3_Node000003_Node000004" class="edge">
<title>Node3&#45;&gt;Node4</title>
<g id="a_edge3_Node000003_Node000004"><a xlink:title=" ">
<path fill="none" stroke="orange" stroke-dasharray="5,2" d="M613.21,-389.45C634.03,-411.43 664.73,-440.24 697,-458 761.6,-493.54 842.56,-515.14 903.67,-527.52"/>
<polygon fill="orange" stroke="orange" points="615.86,-387.16 606.5,-382.21 610.73,-391.93 615.86,-387.16"/>
</a>
</g>
<text text-anchor="start" x="724.75" y="-534.37" font-family="Helvetica,sans-Serif" font-size="10.00" fill="grey"> &lt; AccountStatus, Account</text>
<text text-anchor="middle" x="783.25" y="-522.37" font-family="Helvetica,sans-Serif" font-size="10.00" fill="grey">StatusVM &gt;</text>
</g>
<!-- Node6 -->
<g id="Node000006" class="node">
<title>Node6</title>
<g id="a_Node000006"><a xlink:href="../../dd/dd8/class_deluxe_1_1_deluxe_brand_center_1_1_a_m_m_1_1_a_p_i_1_1_services_1_1_named_db_service.html" target="_top" xlink:title=" ">
<polygon fill="white" stroke="#666666" points="1088,-475 902.5,-475 902.5,-431 1088,-431 1088,-475"/>
<text text-anchor="start" x="910.5" y="-461.5" font-family="Helvetica,sans-Serif" font-size="10.00">Deluxe.DeluxeBrandCenter.</text>
<text text-anchor="start" x="910.5" y="-449.5" font-family="Helvetica,sans-Serif" font-size="10.00">AMM.API.Services.NamedDbService</text>
<text text-anchor="middle" x="995.25" y="-437.5" font-family="Helvetica,sans-Serif" font-size="10.00">&lt; UserCampaign, UserCampaignVM &gt;</text>
</a>
</g>
</g>
<!-- Node3&#45;&gt;Node6 -->
<g id="edge5_Node000003_Node000006" class="edge">
<title>Node3&#45;&gt;Node6</title>
<g id="a_edge5_Node000003_Node000006"><a xlink:title=" ">
<path fill="none" stroke="orange" stroke-dasharray="5,2" d="M639,-386.35C656.99,-394.74 677.5,-403.27 697,-409 764.19,-428.75 842.66,-439.89 902.09,-446.01"/>
<polygon fill="orange" stroke="orange" points="640.63,-383.25 630.1,-382.1 637.62,-389.57 640.63,-383.25"/>
</a>
</g>
<text text-anchor="middle" x="783.25" y="-444.23" font-family="Helvetica,sans-Serif" font-size="10.00" fill="grey"> &lt; UserCampaign, UserCampaignVM &gt;</text>
</g>
<!-- Node10 -->
<g id="Node000010" class="node">
<title>Node10</title>
<g id="a_Node000010"><a xlink:href="../../dd/dd8/class_deluxe_1_1_deluxe_brand_center_1_1_a_m_m_1_1_a_p_i_1_1_services_1_1_named_db_service.html" target="_top" xlink:title=" ">
<polygon fill="white" stroke="#666666" points="1103,-413 887.5,-413 887.5,-369 1103,-369 1103,-413"/>
<text text-anchor="start" x="895.5" y="-399.5" font-family="Helvetica,sans-Serif" font-size="10.00">Deluxe.DeluxeBrandCenter.</text>
<text text-anchor="start" x="895.5" y="-387.5" font-family="Helvetica,sans-Serif" font-size="10.00">AMM.API.Services.NamedDbService</text>
<text text-anchor="middle" x="995.25" y="-375.5" font-family="Helvetica,sans-Serif" font-size="10.00">&lt; CampaignElement, CampaignElementVM &gt;</text>
</a>
</g>
</g>
<!-- Node3&#45;&gt;Node10 -->
<g id="edge9_Node000003_Node000010" class="edge">
<title>Node3&#45;&gt;Node10</title>
<g id="a_edge9_Node000003_Node000010"><a xlink:title=" ">
<path fill="none" stroke="orange" stroke-dasharray="5,2" d="M687.13,-366.9C747.92,-371.67 825.35,-377.74 887.25,-382.6"/>
<polygon fill="orange" stroke="orange" points="687.73,-363.43 677.49,-366.14 687.19,-370.41 687.73,-363.43"/>
</a>
</g>
<text text-anchor="start" x="729.62" y="-395.15" font-family="Helvetica,sans-Serif" font-size="10.00" fill="grey"> &lt; CampaignElement,</text>
<text text-anchor="middle" x="783.25" y="-383.15" font-family="Helvetica,sans-Serif" font-size="10.00" fill="grey"> CampaignElementVM &gt;</text>
</g>
<!-- Node12 -->
<g id="Node000012" class="node">
<title>Node12</title>
<g id="a_Node000012"><a xlink:href="../../dd/dd8/class_deluxe_1_1_deluxe_brand_center_1_1_a_m_m_1_1_a_p_i_1_1_services_1_1_named_db_service.html" target="_top" xlink:title=" ">
<polygon fill="white" stroke="#666666" points="1085.38,-351 905.12,-351 905.12,-307 1085.38,-307 1085.38,-351"/>
<text text-anchor="start" x="913.12" y="-337.5" font-family="Helvetica,sans-Serif" font-size="10.00">Deluxe.DeluxeBrandCenter.</text>
<text text-anchor="start" x="913.12" y="-325.5" font-family="Helvetica,sans-Serif" font-size="10.00">AMM.API.Services.NamedDbService</text>
<text text-anchor="middle" x="995.25" y="-313.5" font-family="Helvetica,sans-Serif" font-size="10.00">&lt; Campaign, CampaignVM &gt;</text>
</a>
</g>
</g>
<!-- Node3&#45;&gt;Node12 -->
<g id="edge11_Node000003_Node000012" class="edge">
<title>Node3&#45;&gt;Node12</title>
<g id="a_edge11_Node000003_Node000012"><a xlink:title=" ">
<path fill="none" stroke="orange" stroke-dasharray="5,2" d="M687.28,-350.75C690.56,-350.49 693.81,-350.24 697,-350 766.77,-344.69 845.79,-339.13 904.81,-335.07"/>
<polygon fill="orange" stroke="orange" points="687.26,-347.24 677.56,-351.51 687.8,-354.22 687.26,-347.24"/>
</a>
</g>
<text text-anchor="middle" x="783.25" y="-352.5" font-family="Helvetica,sans-Serif" font-size="10.00" fill="grey"> &lt; Campaign, CampaignVM &gt;</text>
</g>
<!-- Node14 -->
<g id="Node000014" class="node">
<title>Node14</title>
<g id="a_Node000014"><a xlink:href="../../dd/dd8/class_deluxe_1_1_deluxe_brand_center_1_1_a_m_m_1_1_a_p_i_1_1_services_1_1_named_db_service.html" target="_top" xlink:title=" ">
<polygon fill="white" stroke="#666666" points="1085.38,-289 905.12,-289 905.12,-245 1085.38,-245 1085.38,-289"/>
<text text-anchor="start" x="913.12" y="-275.5" font-family="Helvetica,sans-Serif" font-size="10.00">Deluxe.DeluxeBrandCenter.</text>
<text text-anchor="start" x="913.12" y="-263.5" font-family="Helvetica,sans-Serif" font-size="10.00">AMM.API.Services.NamedDbService</text>
<text text-anchor="middle" x="995.25" y="-251.5" font-family="Helvetica,sans-Serif" font-size="10.00">&lt; Settings, SettingsVM &gt;</text>
</a>
</g>
</g>
<!-- Node3&#45;&gt;Node14 -->
<g id="edge13_Node000003_Node000014" class="edge">
<title>Node3&#45;&gt;Node14</title>
<g id="a_edge13_Node000003_Node000014"><a xlink:title=" ">
<path fill="none" stroke="orange" stroke-dasharray="5,2" d="M659.39,-332.99C671.85,-329.01 684.73,-325.17 697,-322 765.98,-304.16 845.38,-289.78 904.76,-280.2"/>
<polygon fill="orange" stroke="orange" points="658.43,-329.62 650.01,-336.05 660.6,-336.28 658.43,-329.62"/>
</a>
</g>
<text text-anchor="middle" x="783.25" y="-324.5" font-family="Helvetica,sans-Serif" font-size="10.00" fill="grey"> &lt; Settings, SettingsVM &gt;</text>
</g>
<!-- Node5 -->
<g id="Node000005" class="node">
<title>Node5</title>
<g id="a_Node000005"><a xlink:href="../../d3/dbb/class_deluxe_1_1_deluxe_brand_center_1_1_a_m_m_1_1_a_p_i_1_1_services_1_1_account_status_service.html" target="_top" xlink:title=" ">
<polygon fill="white" stroke="#666666" points="1324.38,-584 1156.88,-584 1156.88,-540 1324.38,-540 1324.38,-584"/>
<text text-anchor="start" x="1164.88" y="-570.5" font-family="Helvetica,sans-Serif" font-size="10.00">Deluxe.DeluxeBrandCenter.</text>
<text text-anchor="start" x="1164.88" y="-558.5" font-family="Helvetica,sans-Serif" font-size="10.00">AMM.API.Services.AccountStatus</text>
<text text-anchor="middle" x="1240.62" y="-546.5" font-family="Helvetica,sans-Serif" font-size="10.00">Service</text>
</a>
</g>
</g>
<!-- Node4&#45;&gt;Node5 -->
<g id="edge4_Node000004_Node000005" class="edge">
<title>Node4&#45;&gt;Node5</title>
<g id="a_edge4_Node000004_Node000005"><a xlink:title=" ">
<path fill="none" stroke="#63b8ff" d="M1098.23,-550.38C1117.67,-551.98 1137.8,-553.63 1156.57,-555.17"/>
<polygon fill="#63b8ff" stroke="#63b8ff" points="1098.64,-546.9 1088.38,-549.57 1098.06,-553.88 1098.64,-546.9"/>
</a>
</g>
</g>
<!-- Node7 -->
<g id="Node000007" class="node">
<title>Node7</title>
<g id="a_Node000007"><a xlink:href="../../d6/d65/class_deluxe_1_1_deluxe_brand_center_1_1_a_m_m_1_1_a_p_i_1_1_services_1_1_campaign_builder_service.html" target="_top" xlink:title=" ">
<polygon fill="white" stroke="#666666" points="1329.25,-522 1152,-522 1152,-478 1329.25,-478 1329.25,-522"/>
<text text-anchor="start" x="1160" y="-508.5" font-family="Helvetica,sans-Serif" font-size="10.00">Deluxe.DeluxeBrandCenter.</text>
<text text-anchor="start" x="1160" y="-496.5" font-family="Helvetica,sans-Serif" font-size="10.00">AMM.API.Services.CampaignBuilder</text>
<text text-anchor="middle" x="1240.62" y="-484.5" font-family="Helvetica,sans-Serif" font-size="10.00">Service</text>
</a>
</g>
</g>
<!-- Node6&#45;&gt;Node7 -->
<g id="edge6_Node000006_Node000007" class="edge">
<title>Node6&#45;&gt;Node7</title>
<g id="a_edge6_Node000006_Node000007"><a xlink:title=" ">
<path fill="none" stroke="#63b8ff" d="M1099.54,-472.95C1116.83,-476.29 1134.64,-479.73 1151.51,-482.98"/>
<polygon fill="#63b8ff" stroke="#63b8ff" points="1100.23,-469.52 1089.75,-471.06 1098.9,-476.39 1100.23,-469.52"/>
</a>
</g>
</g>
<!-- Node9 -->
<g id="Node000009" class="node">
<title>Node9</title>
<g id="a_Node000009"><a xlink:href="../../d8/d0b/class_deluxe_1_1_deluxe_brand_center_1_1_a_m_m_1_1_a_p_i_1_1_services_1_1_user_campaign_service.html" target="_top" xlink:title=" ">
<polygon fill="white" stroke="#666666" points="1341.25,-460 1140,-460 1140,-428 1341.25,-428 1341.25,-460"/>
<text text-anchor="start" x="1148" y="-446.5" font-family="Helvetica,sans-Serif" font-size="10.00">Deluxe.DeluxeBrandCenter.</text>
<text text-anchor="middle" x="1240.62" y="-434.5" font-family="Helvetica,sans-Serif" font-size="10.00">AMM.API.Services.UserCampaignService</text>
</a>
</g>
</g>
<!-- Node6&#45;&gt;Node9 -->
<g id="edge8_Node000006_Node000009" class="edge">
<title>Node6&#45;&gt;Node9</title>
<g id="a_edge8_Node000006_Node000009"><a xlink:title=" ">
<path fill="none" stroke="#63b8ff" d="M1099.4,-449.19C1112.77,-448.69 1126.45,-448.19 1139.76,-447.69"/>
<polygon fill="#63b8ff" stroke="#63b8ff" points="1099.64,-445.67 1089.77,-449.54 1099.89,-452.67 1099.64,-445.67"/>
</a>
</g>
</g>
<!-- Node8 -->
<g id="Node000008" class="node">
<title>Node8</title>
<g id="a_Node000008"><a xlink:href="../../d3/d00/class_deluxe_1_1_deluxe_brand_center_1_1_a_m_m_1_1_tests_1_1_mocks_1_1_mock_campaign_builder_service.html" target="_top" xlink:title=" ">
<polygon fill="white" stroke="#666666" points="1578,-522 1378.25,-522 1378.25,-478 1578,-478 1578,-522"/>
<text text-anchor="start" x="1386.25" y="-508.5" font-family="Helvetica,sans-Serif" font-size="10.00">Deluxe.DeluxeBrandCenter.</text>
<text text-anchor="start" x="1386.25" y="-496.5" font-family="Helvetica,sans-Serif" font-size="10.00">AMM.Tests.Mocks.MockCampaignBuilder</text>
<text text-anchor="middle" x="1478.12" y="-484.5" font-family="Helvetica,sans-Serif" font-size="10.00">Service</text>
</a>
</g>
</g>
<!-- Node7&#45;&gt;Node8 -->
<g id="edge7_Node000007_Node000008" class="edge">
<title>Node7&#45;&gt;Node8</title>
<g id="a_edge7_Node000007_Node000008"><a xlink:title=" ">
<path fill="none" stroke="#63b8ff" d="M1340.88,-500C1353.2,-500 1365.8,-500 1378.13,-500"/>
<polygon fill="#63b8ff" stroke="#63b8ff" points="1341.16,-496.5 1331.16,-500 1341.16,-503.5 1341.16,-496.5"/>
</a>
</g>
</g>
<!-- Node11 -->
<g id="Node000011" class="node">
<title>Node11</title>
<g id="a_Node000011"><a xlink:href="../../dd/d2b/class_deluxe_1_1_deluxe_brand_center_1_1_a_m_m_1_1_a_p_i_1_1_services_1_1_campaign_element_service.html" target="_top" xlink:title=" ">
<polygon fill="white" stroke="#666666" points="1332.25,-410 1149,-410 1149,-366 1332.25,-366 1332.25,-410"/>
<text text-anchor="start" x="1157" y="-396.5" font-family="Helvetica,sans-Serif" font-size="10.00">Deluxe.DeluxeBrandCenter.</text>
<text text-anchor="start" x="1157" y="-384.5" font-family="Helvetica,sans-Serif" font-size="10.00">AMM.API.Services.CampaignElement</text>
<text text-anchor="middle" x="1240.62" y="-372.5" font-family="Helvetica,sans-Serif" font-size="10.00">Service</text>
</a>
</g>
</g>
<!-- Node10&#45;&gt;Node11 -->
<g id="edge10_Node000010_Node000011" class="edge">
<title>Node10&#45;&gt;Node11</title>
<g id="a_edge10_Node000010_Node000011"><a xlink:title=" ">
<path fill="none" stroke="#63b8ff" d="M1114.78,-389.54C1126.23,-389.4 1137.72,-389.26 1148.84,-389.12"/>
<polygon fill="#63b8ff" stroke="#63b8ff" points="1114.82,-386.04 1104.87,-389.66 1114.91,-393.04 1114.82,-386.04"/>
</a>
</g>
</g>
<!-- Node13 -->
<g id="Node000013" class="node">
<title>Node13</title>
<g id="a_Node000013"><a xlink:href="../../d7/d3d/class_deluxe_1_1_deluxe_brand_center_1_1_a_m_m_1_1_a_p_i_1_1_services_1_1_campaign_service.html" target="_top" xlink:title=" ">
<polygon fill="white" stroke="#666666" points="1330.75,-345 1150.5,-345 1150.5,-313 1330.75,-313 1330.75,-345"/>
<text text-anchor="start" x="1158.5" y="-331.5" font-family="Helvetica,sans-Serif" font-size="10.00">Deluxe.DeluxeBrandCenter.</text>
<text text-anchor="middle" x="1240.62" y="-319.5" font-family="Helvetica,sans-Serif" font-size="10.00">AMM.API.Services.CampaignService</text>
</a>
</g>
</g>
<!-- Node12&#45;&gt;Node13 -->
<g id="edge12_Node000012_Node000013" class="edge">
<title>Node12&#45;&gt;Node13</title>
<g id="a_edge12_Node000012_Node000013"><a xlink:title=" ">
<path fill="none" stroke="#63b8ff" d="M1097.28,-329C1114.84,-329 1133,-329 1150.23,-329"/>
<polygon fill="#63b8ff" stroke="#63b8ff" points="1097.35,-325.5 1087.35,-329 1097.35,-332.5 1097.35,-325.5"/>
</a>
</g>
</g>
<!-- Node15 -->
<g id="Node000015" class="node">
<title>Node15</title>
<g id="a_Node000015"><a xlink:href="../../d3/d4f/class_deluxe_1_1_deluxe_brand_center_1_1_a_m_m_1_1_a_p_i_1_1_services_1_1_settings_service.html" target="_top" xlink:title=" ">
<polygon fill="white" stroke="#666666" points="1326.62,-283 1154.62,-283 1154.62,-251 1326.62,-251 1326.62,-283"/>
<text text-anchor="start" x="1162.62" y="-269.5" font-family="Helvetica,sans-Serif" font-size="10.00">Deluxe.DeluxeBrandCenter.</text>
<text text-anchor="middle" x="1240.62" y="-257.5" font-family="Helvetica,sans-Serif" font-size="10.00">AMM.API.Services.SettingsService</text>
</a>
</g>
</g>
<!-- Node14&#45;&gt;Node15 -->
<g id="edge14_Node000014_Node000015" class="edge">
<title>Node14&#45;&gt;Node15</title>
<g id="a_edge14_Node000014_Node000015"><a xlink:title=" ">
<path fill="none" stroke="#63b8ff" d="M1097.22,-267C1116.19,-267 1135.84,-267 1154.27,-267"/>
<polygon fill="#63b8ff" stroke="#63b8ff" points="1097.35,-263.5 1087.35,-267 1097.35,-270.5 1097.35,-263.5"/>
</a>
</g>
</g>
<!-- Node17 -->
<g id="Node000017" class="node">
<title>Node17</title>
<g id="a_Node000017"><a xlink:href="../../d4/d06/class_deluxe_1_1_deluxe_brand_center_1_1_a_m_m_1_1_a_p_i_1_1_services_1_1_contact_manager_service.html" target="_top" xlink:title=" ">
<polygon fill="white" stroke="#666666" points="1082.75,-227 907.75,-227 907.75,-183 1082.75,-183 1082.75,-227"/>
<text text-anchor="start" x="915.75" y="-213.5" font-family="Helvetica,sans-Serif" font-size="10.00">Deluxe.DeluxeBrandCenter.</text>
<text text-anchor="start" x="915.75" y="-201.5" font-family="Helvetica,sans-Serif" font-size="10.00">AMM.API.Services.ContactManager</text>
<text text-anchor="middle" x="995.25" y="-189.5" font-family="Helvetica,sans-Serif" font-size="10.00">Service</text>
</a>
</g>
</g>
<!-- Node16&#45;&gt;Node17 -->
<g id="edge16_Node000016_Node000017" class="edge">
<title>Node16&#45;&gt;Node17</title>
<g id="a_edge16_Node000016_Node000017"><a xlink:title=" ">
<path fill="none" stroke="#63b8ff" d="M672.08,-207.37C741.16,-206.86 837.93,-206.15 907.36,-205.64"/>
<polygon fill="#63b8ff" stroke="#63b8ff" points="672.3,-203.87 662.33,-207.44 672.35,-210.87 672.3,-203.87"/>
</a>
</g>
</g>
<!-- Node19 -->
<g id="Node000019" class="node">
<title>Node19</title>
<g id="a_Node000019"><a xlink:href="../../dc/d62/class_deluxe_1_1_deluxe_brand_center_1_1_a_m_m_1_1_a_p_i_1_1_services_1_1_email_domain_service.html" target="_top" xlink:title=" ">
<polygon fill="white" stroke="#666666" points="1092.5,-162 898,-162 898,-130 1092.5,-130 1092.5,-162"/>
<text text-anchor="start" x="906" y="-148.5" font-family="Helvetica,sans-Serif" font-size="10.00">Deluxe.DeluxeBrandCenter.</text>
<text text-anchor="middle" x="995.25" y="-136.5" font-family="Helvetica,sans-Serif" font-size="10.00">AMM.API.Services.EmailDomainService</text>
</a>
</g>
</g>
<!-- Node18&#45;&gt;Node19 -->
<g id="edge18_Node000018_Node000019" class="edge">
<title>Node18&#45;&gt;Node19</title>
<g id="a_edge18_Node000018_Node000019"><a xlink:title=" ">
<path fill="none" stroke="#63b8ff" d="M683.42,-146C748.22,-146 833.12,-146 897.81,-146"/>
<polygon fill="#63b8ff" stroke="#63b8ff" points="683.49,-142.5 673.49,-146 683.49,-149.5 683.49,-142.5"/>
</a>
</g>
</g>
<!-- Node21 -->
<g id="Node000021" class="node">
<title>Node21</title>
<g id="a_Node000021"><a xlink:href="../../d5/dd8/class_deluxe_1_1_deluxe_brand_center_1_1_a_m_m_1_1_a_p_i_1_1_services_1_1_signature_block_service.html" target="_top" xlink:title=" ">
<polygon fill="white" stroke="#666666" points="1079.75,-106 910.75,-106 910.75,-62 1079.75,-62 1079.75,-106"/>
<text text-anchor="start" x="918.75" y="-92.5" font-family="Helvetica,sans-Serif" font-size="10.00">Deluxe.DeluxeBrandCenter.</text>
<text text-anchor="start" x="918.75" y="-80.5" font-family="Helvetica,sans-Serif" font-size="10.00">AMM.API.Services.SignatureBlock</text>
<text text-anchor="middle" x="995.25" y="-68.5" font-family="Helvetica,sans-Serif" font-size="10.00">Service</text>
</a>
</g>
</g>
<!-- Node20&#45;&gt;Node21 -->
<g id="edge20_Node000020_Node000021" class="edge">
<title>Node20&#45;&gt;Node21</title>
<g id="a_edge20_Node000020_Node000021"><a xlink:title=" ">
<path fill="none" stroke="#63b8ff" d="M690.48,-84C758.72,-84 846.79,-84 910.52,-84"/>
<polygon fill="#63b8ff" stroke="#63b8ff" points="690.79,-80.5 680.79,-84 690.79,-87.5 690.79,-80.5"/>
</a>
</g>
</g>
<!-- Node23 -->
<g id="Node000023" class="node">
<title>Node23</title>
<g id="a_Node000023"><a xlink:href="../../de/d5c/class_deluxe_1_1_deluxe_brand_center_1_1_a_m_m_1_1_a_p_i_1_1_services_1_1_template_service.html" target="_top" xlink:title=" ">
<polygon fill="white" stroke="#666666" points="1083.12,-38 907.38,-38 907.38,-6 1083.12,-6 1083.12,-38"/>
<text text-anchor="start" x="915.38" y="-24.5" font-family="Helvetica,sans-Serif" font-size="10.00">Deluxe.DeluxeBrandCenter.</text>
<text text-anchor="middle" x="995.25" y="-12.5" font-family="Helvetica,sans-Serif" font-size="10.00">AMM.API.Services.TemplateService</text>
</a>
</g>
</g>
<!-- Node22&#45;&gt;Node23 -->
<g id="edge22_Node000022_Node000023" class="edge">
<title>Node22&#45;&gt;Node23</title>
<g id="a_edge22_Node000022_Node000023"><a xlink:title=" ">
<path fill="none" stroke="#63b8ff" d="M672.06,-22C741.02,-22 837.59,-22 906.99,-22"/>
<polygon fill="#63b8ff" stroke="#63b8ff" points="672.33,-18.5 662.33,-22 672.33,-25.5 672.33,-18.5"/>
</a>
</g>
</g>
</g>
</svg>
