<?xml version="1.0" encoding="UTF-8" standalone="no"?>
<!DOCTYPE svg PUBLIC "-//W3C//DTD SVG 1.1//EN"
 "http://www.w3.org/Graphics/SVG/1.1/DTD/svg11.dtd">
<!-- Generated by graphviz version 12.1.1 (20240910.0053)
 -->
<!-- Title: Deluxe.DeluxeBrandCenter.AMM.Domain.DataModel.Interface.IBaseEntityNamed Pages: 1 -->
<!--zoomable 714 -->

<svg id="main" version="1.1" xmlns="http://www.w3.org/2000/svg" xmlns:xlink="http://www.w3.org/1999/xlink" xml:space="preserve" onload="init(evt)">

<style type="text/css"><![CDATA[
.node, .edge {opacity: 0.7;}
.node.selected, .edge.selected {opacity: 1;}
.edge:hover path { stroke: red; }
.edge:hover polygon { stroke: red; fill: red; }
]]></style>

<defs>
  <circle id="rim" cx="0" cy="0" r="7"/>
  <circle id="rim2" cx="0" cy="0" r="3.5"/>
  <g id="zoomPlus">
    <use xlink:href="#rim" fill="#404040"><set attributeName="fill" to="#808080" begin="zoomplus.mouseover" end="zoomplus.mouseout"/></use>
    <path d="M-4,0h8M0,-4v8" fill="none" stroke="white" stroke-width="1.5" pointer-events="none"/>
  </g>
  <g id="zoomMin">
    <use xlink:href="#rim" fill="#404040"><set attributeName="fill" to="#808080" begin="zoomminus.mouseover" end="zoomminus.mouseout"/></use>
    <path d="M-4,0h8" fill="none" stroke="white" stroke-width="1.5" pointer-events="none"/>
  </g>
  <g id="arrowUp" transform="translate(30 24)">
    <use xlink:href="#rim"/>
    <path pointer-events="none" fill="none" stroke="white" stroke-width="1.5" d="M0,-3.0v7 M-2.5,-0.5L0,-3.0L2.5,-0.5"/>
  </g>
  <g id="arrowRight" transform="rotate(90) translate(36 -43)">
    <use xlink:href="#rim"/>
    <path pointer-events="none" fill="none" stroke="white" stroke-width="1.5" d="M0,-3.0v7 M-2.5,-0.5L0,-3.0L2.5,-0.5"/>
  </g>
  <g id="arrowDown" transform="rotate(180) translate(-30 -48)">
    <use xlink:href="#rim"/>
    <path pointer-events="none" fill="none" stroke="white" stroke-width="1.5" d="M0,-3.0v7 M-2.5,-0.5L0,-3.0L2.5,-0.5"/>
  </g>
  <g id="arrowLeft" transform="rotate(270) translate(-36 17)">
    <use xlink:href="#rim"/>
    <path pointer-events="none" fill="none" stroke="white" stroke-width="1.5" d="M0,-3.0v7 M-2.5,-0.5L0,-3.0L2.5,-0.5"/>
  </g>
  <g id="resetDef">
    <use xlink:href="#rim2" fill="#404040"><set attributeName="fill" to="#808080" begin="reset.mouseover" end="reset.mouseout"/></use>
  </g>
</defs>
<script type="application/ecmascript">
var viewWidth = 861;
var viewHeight = 714;
var sectionId = 'dynsection-0';
</script>
<script type="application/ecmascript" xlink:href="../../svg.min.js"/>
<svg id="graph" class="graph">
<g id="viewport">
<title>Deluxe.DeluxeBrandCenter.AMM.Domain.DataModel.Interface.IBaseEntityNamed</title>
<!-- Node1 -->
<g id="Node000001" class="node">
<title>Node1</title>
<g id="a_Node000001"><a xlink:title=" ">
<polygon fill="#999999" stroke="#666666" points="365.25,-225 194.75,-225 194.75,-181 365.25,-181 365.25,-225"/>
<text text-anchor="start" x="202.75" y="-211.5" font-family="Helvetica,sans-Serif" font-size="10.00">Deluxe.DeluxeBrandCenter.</text>
<text text-anchor="start" x="202.75" y="-199.5" font-family="Helvetica,sans-Serif" font-size="10.00">AMM.Domain.DataModel.Interface.</text>
<text text-anchor="middle" x="280" y="-187.5" font-family="Helvetica,sans-Serif" font-size="10.00">IBaseEntityNamed</text>
</a>
</g>
</g>
<!-- Node4 -->
<g id="Node000004" class="node">
<title>Node4</title>
<g id="a_Node000004"><a xlink:href="../../d4/d1a/class_deluxe_1_1_deluxe_brand_center_1_1_a_m_m_1_1_domain_1_1_data_model_1_1_base_entity_named.html" target="_top" xlink:title=" ">
<polygon fill="white" stroke="#666666" points="610,-338 401.25,-338 401.25,-306 610,-306 610,-338"/>
<text text-anchor="start" x="409.25" y="-324.5" font-family="Helvetica,sans-Serif" font-size="10.00">Deluxe.DeluxeBrandCenter.</text>
<text text-anchor="middle" x="505.62" y="-312.5" font-family="Helvetica,sans-Serif" font-size="10.00">AMM.Domain.DataModel.BaseEntityNamed</text>
</a>
</g>
</g>
<!-- Node1&#45;&gt;Node4 -->
<g id="edge3_Node000001_Node000004" class="edge">
<title>Node1&#45;&gt;Node4</title>
<g id="a_edge3_Node000001_Node000004"><a xlink:title=" ">
<path fill="none" stroke="#63b8ff" d="M333.21,-230.78C376.87,-254.02 437.66,-286.36 473.89,-305.64"/>
<polygon fill="#63b8ff" stroke="#63b8ff" points="334.87,-227.7 324.4,-226.09 331.58,-233.88 334.87,-227.7"/>
</a>
</g>
</g>
<!-- Node7 -->
<g id="Node000007" class="node">
<title>Node7</title>
<g id="a_Node000007"><a xlink:href="../../dd/ddc/class_deluxe_1_1_deluxe_brand_center_1_1_a_m_m_1_1_domain_1_1_data_model_1_1_campaign.html" target="_top" xlink:title=" ">
<polygon fill="white" stroke="#666666" points="836,-706 662.5,-706 662.5,-674 836,-674 836,-706"/>
<text text-anchor="start" x="670.5" y="-692.5" font-family="Helvetica,sans-Serif" font-size="10.00">Deluxe.DeluxeBrandCenter.</text>
<text text-anchor="middle" x="749.25" y="-680.5" font-family="Helvetica,sans-Serif" font-size="10.00">AMM.Domain.DataModel.Campaign</text>
</a>
</g>
</g>
<!-- Node1&#45;&gt;Node7 -->
<g id="edge18_Node000001_Node000007" class="edge">
<title>Node1&#45;&gt;Node7</title>
<g id="a_edge18_Node000001_Node000007"><a xlink:title=" ">
<path fill="none" stroke="#63b8ff" d="M287.16,-236.28C299.63,-296.14 332.74,-423.5 401.25,-507 483.38,-607.09 527.08,-613.8 646,-665 653.39,-668.18 661.25,-671 669.22,-673.5"/>
<polygon fill="#63b8ff" stroke="#63b8ff" points="290.64,-235.84 285.23,-226.73 283.77,-237.22 290.64,-235.84"/>
</a>
</g>
</g>
<!-- Node9 -->
<g id="Node000009" class="node">
<title>Node9</title>
<g id="a_Node000009"><a xlink:href="../../de/dc3/class_deluxe_1_1_deluxe_brand_center_1_1_a_m_m_1_1_domain_1_1_data_model_1_1_campaign_type.html" target="_top" xlink:title="Campaign types standard, event, ...">
<polygon fill="white" stroke="#666666" points="846.5,-656 652,-656 652,-624 846.5,-624 846.5,-656"/>
<text text-anchor="start" x="660" y="-642.5" font-family="Helvetica,sans-Serif" font-size="10.00">Deluxe.DeluxeBrandCenter.</text>
<text text-anchor="middle" x="749.25" y="-630.5" font-family="Helvetica,sans-Serif" font-size="10.00">AMM.Domain.DataModel.CampaignType</text>
</a>
</g>
</g>
<!-- Node1&#45;&gt;Node9 -->
<g id="edge19_Node000001_Node000009" class="edge">
<title>Node1&#45;&gt;Node9</title>
<g id="a_edge19_Node000001_Node000009"><a xlink:title=" ">
<path fill="none" stroke="#63b8ff" d="M299.41,-234.96C346.3,-313.28 478.45,-515.64 646,-615 651.5,-618.26 657.41,-621.1 663.51,-623.57"/>
<polygon fill="#63b8ff" stroke="#63b8ff" points="302.5,-233.3 294.39,-226.48 296.47,-236.87 302.5,-233.3"/>
</a>
</g>
</g>
<!-- Node13 -->
<g id="Node000013" class="node">
<title>Node13</title>
<g id="a_Node000013"><a xlink:href="../../db/d17/class_deluxe_1_1_deluxe_brand_center_1_1_a_m_m_1_1_domain_1_1_data_model_1_1_customized_video.html" target="_top" xlink:title=" ">
<polygon fill="white" stroke="#666666" points="852.5,-232 646,-232 646,-200 852.5,-200 852.5,-232"/>
<text text-anchor="start" x="654" y="-218.5" font-family="Helvetica,sans-Serif" font-size="10.00">Deluxe.DeluxeBrandCenter.</text>
<text text-anchor="middle" x="749.25" y="-206.5" font-family="Helvetica,sans-Serif" font-size="10.00">AMM.Domain.DataModel.CustomizedVideo</text>
</a>
</g>
</g>
<!-- Node1&#45;&gt;Node13 -->
<g id="edge20_Node000001_Node000013" class="edge">
<title>Node1&#45;&gt;Node13</title>
<g id="a_edge20_Node000001_Node000013"><a xlink:title=" ">
<path fill="none" stroke="#63b8ff" d="M377.22,-208.06C385.35,-208.4 393.44,-208.73 401.25,-209 483.45,-211.88 576.64,-213.68 645.74,-214.73"/>
<polygon fill="#63b8ff" stroke="#63b8ff" points="377.39,-204.56 367.25,-207.61 377.08,-211.55 377.39,-204.56"/>
</a>
</g>
</g>
<!-- Node17 -->
<g id="Node000017" class="node">
<title>Node17</title>
<g id="a_Node000017"><a xlink:href="../../dc/d90/class_deluxe_1_1_deluxe_brand_center_1_1_a_m_m_1_1_domain_1_1_data_model_1_1_signature_block.html" target="_top" xlink:title=" ">
<polygon fill="white" stroke="#666666" points="846.88,-82 651.62,-82 651.62,-50 846.88,-50 846.88,-82"/>
<text text-anchor="start" x="659.62" y="-68.5" font-family="Helvetica,sans-Serif" font-size="10.00">Deluxe.DeluxeBrandCenter.</text>
<text text-anchor="middle" x="749.25" y="-56.5" font-family="Helvetica,sans-Serif" font-size="10.00">AMM.Domain.DataModel.SignatureBlock</text>
</a>
</g>
</g>
<!-- Node1&#45;&gt;Node17 -->
<g id="edge25_Node000001_Node000017" class="edge">
<title>Node1&#45;&gt;Node17</title>
<g id="a_edge25_Node000001_Node000017"><a xlink:title=" ">
<path fill="none" stroke="#63b8ff" d="M302.46,-171.66C323.83,-143.37 359.41,-103.45 401.25,-85 480.19,-50.19 579.21,-48.34 651.25,-53.49"/>
<polygon fill="#63b8ff" stroke="#63b8ff" points="299.78,-169.41 296.67,-179.54 305.42,-173.55 299.78,-169.41"/>
</a>
</g>
</g>
<!-- Node18 -->
<g id="Node000018" class="node">
<title>Node18</title>
<g id="a_Node000018"><a xlink:href="../../db/dda/class_deluxe_1_1_deluxe_brand_center_1_1_a_m_m_1_1_domain_1_1_data_model_1_1_user_campaign.html" target="_top" xlink:title=" ">
<polygon fill="white" stroke="#666666" points="846.5,-32 652,-32 652,0 846.5,0 846.5,-32"/>
<text text-anchor="start" x="660" y="-18.5" font-family="Helvetica,sans-Serif" font-size="10.00">Deluxe.DeluxeBrandCenter.</text>
<text text-anchor="middle" x="749.25" y="-6.5" font-family="Helvetica,sans-Serif" font-size="10.00">AMM.Domain.DataModel.UserCampaign</text>
</a>
</g>
</g>
<!-- Node1&#45;&gt;Node18 -->
<g id="edge26_Node000001_Node000018" class="edge">
<title>Node1&#45;&gt;Node18</title>
<g id="a_edge26_Node000001_Node000018"><a xlink:title=" ">
<path fill="none" stroke="#63b8ff" d="M295.88,-170.41C314.67,-133.44 350.76,-74.69 401.25,-47 477.88,-4.98 578.56,-0.52 651.72,-4.6"/>
<polygon fill="#63b8ff" stroke="#63b8ff" points="292.77,-168.8 291.49,-179.32 299.05,-171.9 292.77,-168.8"/>
</a>
</g>
</g>
<!-- Node19 -->
<g id="Node000019" class="node">
<title>Node19</title>
<g id="a_Node000019"><a xlink:href="../../d6/da4/interface_deluxe_1_1_deluxe_brand_center_1_1_a_m_m_1_1_domain_1_1_data_model_1_1_interface_1_1_i_settings.html" target="_top" xlink:title=" ">
<polygon fill="white" stroke="#666666" points="590.88,-200 420.38,-200 420.38,-156 590.88,-156 590.88,-200"/>
<text text-anchor="start" x="428.38" y="-186.5" font-family="Helvetica,sans-Serif" font-size="10.00">Deluxe.DeluxeBrandCenter.</text>
<text text-anchor="start" x="428.38" y="-174.5" font-family="Helvetica,sans-Serif" font-size="10.00">AMM.Domain.DataModel.Interface.</text>
<text text-anchor="middle" x="505.62" y="-162.5" font-family="Helvetica,sans-Serif" font-size="10.00">ISettings</text>
</a>
</g>
</g>
<!-- Node1&#45;&gt;Node19 -->
<g id="edge21_Node000001_Node000019" class="edge">
<title>Node1&#45;&gt;Node19</title>
<g id="a_edge21_Node000001_Node000019"><a xlink:title=" ">
<path fill="none" stroke="#63b8ff" d="M376.93,-192.28C391.24,-190.68 405.91,-189.04 419.96,-187.46"/>
<polygon fill="#63b8ff" stroke="#63b8ff" points="376.6,-188.79 367.05,-193.38 377.37,-195.75 376.6,-188.79"/>
</a>
</g>
</g>
<!-- Node20 -->
<g id="Node000020" class="node">
<title>Node20</title>
<g id="a_Node000020"><a xlink:href="../../d0/dfb/interface_deluxe_1_1_deluxe_brand_center_1_1_a_m_m_1_1_domain_1_1_data_model_1_1_interface_1_1_i_settings_group.html" target="_top" xlink:title=" ">
<polygon fill="white" stroke="#666666" points="590.88,-138 420.38,-138 420.38,-94 590.88,-94 590.88,-138"/>
<text text-anchor="start" x="428.38" y="-124.5" font-family="Helvetica,sans-Serif" font-size="10.00">Deluxe.DeluxeBrandCenter.</text>
<text text-anchor="start" x="428.38" y="-112.5" font-family="Helvetica,sans-Serif" font-size="10.00">AMM.Domain.DataModel.Interface.</text>
<text text-anchor="middle" x="505.62" y="-100.5" font-family="Helvetica,sans-Serif" font-size="10.00">ISettingsGroup</text>
</a>
</g>
</g>
<!-- Node1&#45;&gt;Node20 -->
<g id="edge23_Node000001_Node000020" class="edge">
<title>Node1&#45;&gt;Node20</title>
<g id="a_edge23_Node000001_Node000020"><a xlink:title=" ">
<path fill="none" stroke="#63b8ff" d="M335.5,-175.59C355.86,-165.89 379.35,-155.33 401.25,-147 409.04,-144.03 417.25,-141.16 425.49,-138.44"/>
<polygon fill="#63b8ff" stroke="#63b8ff" points="334.02,-172.41 326.53,-179.91 337.06,-178.72 334.02,-172.41"/>
</a>
</g>
</g>
<!-- Node2 -->
<g id="Node000002" class="node">
<title>Node2</title>
<g id="a_Node000002"><a xlink:href="../../d5/d26/interface_deluxe_1_1_deluxe_brand_center_1_1_a_m_m_1_1_domain_1_1_data_model_1_1_interface_1_1_i_base_entity.html" target="_top" xlink:title=" ">
<polygon fill="white" stroke="#666666" points="158.75,-213 91.75,-213 91.75,-193 158.75,-193 158.75,-213"/>
<text text-anchor="middle" x="125.25" y="-199.5" font-family="Helvetica,sans-Serif" font-size="10.00">IBaseEntity</text>
</a>
</g>
</g>
<!-- Node2&#45;&gt;Node1 -->
<g id="edge1_Node000001_Node000002" class="edge">
<title>Node2&#45;&gt;Node1</title>
<g id="a_edge1_Node000001_Node000002"><a xlink:title=" ">
<path fill="none" stroke="#63b8ff" d="M170.5,-203C178.11,-203 186.25,-203 194.51,-203"/>
<polygon fill="#63b8ff" stroke="#63b8ff" points="170.53,-199.5 160.53,-203 170.53,-206.5 170.53,-199.5"/>
</a>
</g>
</g>
<!-- Node3 -->
<g id="Node000003" class="node">
<title>Node3</title>
<g id="a_Node000003"><a xlink:href="../../d6/dad/interface_deluxe_1_1_deluxe_brand_center_1_1_a_m_m_1_1_domain_1_1_data_model_1_1_interface_1_1_i_modified.html" target="_top" xlink:title=" ">
<polygon fill="white" stroke="#666666" points="55.75,-213 0,-213 0,-193 55.75,-193 55.75,-213"/>
<text text-anchor="middle" x="27.88" y="-199.5" font-family="Helvetica,sans-Serif" font-size="10.00">IModified</text>
</a>
</g>
</g>
<!-- Node3&#45;&gt;Node2 -->
<g id="edge2_Node000002_Node000003" class="edge">
<title>Node3&#45;&gt;Node2</title>
<g id="a_edge2_Node000002_Node000003"><a xlink:title=" ">
<path fill="none" stroke="#63b8ff" d="M67.51,-203C75.47,-203 83.78,-203 91.51,-203"/>
<polygon fill="#63b8ff" stroke="#63b8ff" points="67.72,-199.5 57.72,-203 67.72,-206.5 67.72,-199.5"/>
</a>
</g>
</g>
<!-- Node5 -->
<g id="Node000005" class="node">
<title>Node5</title>
<g id="a_Node000005"><a xlink:href="../../d2/d0f/class_deluxe_1_1_deluxe_brand_center_1_1_a_m_m_1_1_domain_1_1_campaign_element.html" target="_top" xlink:title=" ">
<polygon fill="white" stroke="#666666" points="828.88,-606 669.62,-606 669.62,-574 828.88,-574 828.88,-606"/>
<text text-anchor="start" x="677.62" y="-592.5" font-family="Helvetica,sans-Serif" font-size="10.00">Deluxe.DeluxeBrandCenter.</text>
<text text-anchor="middle" x="749.25" y="-580.5" font-family="Helvetica,sans-Serif" font-size="10.00">AMM.Domain.CampaignElement</text>
</a>
</g>
</g>
<!-- Node4&#45;&gt;Node5 -->
<g id="edge4_Node000004_Node000005" class="edge">
<title>Node4&#45;&gt;Node5</title>
<g id="a_edge4_Node000004_Node000005"><a xlink:title=" ">
<path fill="none" stroke="#63b8ff" d="M523.86,-347.81C545.18,-380.18 582.06,-437.65 610,-489 627.86,-521.83 617.03,-541.38 646,-565 652.87,-570.6 660.81,-574.98 669.16,-578.39"/>
<polygon fill="#63b8ff" stroke="#63b8ff" points="526.79,-345.9 518.36,-339.49 520.96,-349.76 526.79,-345.9"/>
</a>
</g>
</g>
<!-- Node6 -->
<g id="Node000006" class="node">
<title>Node6</title>
<g id="a_Node000006"><a xlink:href="../../db/d20/class_deluxe_1_1_deluxe_brand_center_1_1_a_m_m_1_1_domain_1_1_data_model_1_1_account_status.html" target="_top" xlink:title=" ">
<polygon fill="white" stroke="#666666" points="846.12,-556 652.38,-556 652.38,-524 846.12,-524 846.12,-556"/>
<text text-anchor="start" x="660.38" y="-542.5" font-family="Helvetica,sans-Serif" font-size="10.00">Deluxe.DeluxeBrandCenter.</text>
<text text-anchor="middle" x="749.25" y="-530.5" font-family="Helvetica,sans-Serif" font-size="10.00">AMM.Domain.DataModel.AccountStatus</text>
</a>
</g>
</g>
<!-- Node4&#45;&gt;Node6 -->
<g id="edge5_Node000004_Node000006" class="edge">
<title>Node4&#45;&gt;Node6</title>
<g id="a_edge5_Node000004_Node000006"><a xlink:title=" ">
<path fill="none" stroke="#63b8ff" d="M518.36,-348.78C538.27,-390.95 582.74,-472.41 646,-515 650.85,-518.27 656.09,-521.11 661.54,-523.58"/>
<polygon fill="#63b8ff" stroke="#63b8ff" points="521.61,-347.47 514.25,-339.85 515.25,-350.4 521.61,-347.47"/>
</a>
</g>
</g>
<!-- Node4&#45;&gt;Node7 -->
<g id="edge6_Node000004_Node000007" class="edge">
<title>Node4&#45;&gt;Node7</title>
<g id="a_edge6_Node000004_Node000007"><a xlink:title=" ">
<path fill="none" stroke="#63b8ff" d="M515.95,-348.88C542.88,-425.83 620.43,-642.92 646,-665 650.84,-669.18 656.27,-672.69 662.03,-675.62"/>
<polygon fill="#63b8ff" stroke="#63b8ff" points="519.32,-347.9 512.72,-339.61 512.71,-350.2 519.32,-347.9"/>
</a>
</g>
</g>
<!-- Node8 -->
<g id="Node000008" class="node">
<title>Node8</title>
<g id="a_Node000008"><a xlink:href="../../d2/d93/class_deluxe_1_1_deluxe_brand_center_1_1_a_m_m_1_1_domain_1_1_data_model_1_1_campaign_setting.html" target="_top" xlink:title=" ">
<polygon fill="white" stroke="#666666" points="851.38,-506 647.12,-506 647.12,-474 851.38,-474 851.38,-506"/>
<text text-anchor="start" x="655.12" y="-492.5" font-family="Helvetica,sans-Serif" font-size="10.00">Deluxe.DeluxeBrandCenter.</text>
<text text-anchor="middle" x="749.25" y="-480.5" font-family="Helvetica,sans-Serif" font-size="10.00">AMM.Domain.DataModel.CampaignSetting</text>
</a>
</g>
</g>
<!-- Node4&#45;&gt;Node8 -->
<g id="edge7_Node000004_Node000008" class="edge">
<title>Node4&#45;&gt;Node8</title>
<g id="a_edge7_Node000004_Node000008"><a xlink:title=" ">
<path fill="none" stroke="#63b8ff" d="M524.24,-347.41C548.06,-379.77 593.62,-435.08 646,-465 651.71,-468.26 657.84,-471.1 664.15,-473.57"/>
<polygon fill="#63b8ff" stroke="#63b8ff" points="527.14,-345.44 518.45,-339.38 521.46,-349.54 527.14,-345.44"/>
</a>
</g>
</g>
<!-- Node4&#45;&gt;Node9 -->
<g id="edge8_Node000004_Node000009" class="edge">
<title>Node4&#45;&gt;Node9</title>
<g id="a_edge8_Node000004_Node000009"><a xlink:title=" ">
<path fill="none" stroke="#63b8ff" d="M525.34,-347.21C548.09,-378.89 586.38,-435.58 610,-489 633.55,-542.27 604.03,-574.62 646,-615 649.42,-618.29 653.21,-621.18 657.24,-623.7"/>
<polygon fill="#63b8ff" stroke="#63b8ff" points="528.4,-345.48 519.7,-339.44 522.74,-349.59 528.4,-345.48"/>
</a>
</g>
</g>
<!-- Node10 -->
<g id="Node000010" class="node">
<title>Node10</title>
<g id="a_Node000010"><a xlink:href="../../d3/d4c/class_deluxe_1_1_deluxe_brand_center_1_1_a_m_m_1_1_domain_1_1_data_model_1_1_client_1_1_client.html" target="_top" xlink:title=" ">
<polygon fill="white" stroke="#666666" points="840.88,-456 657.62,-456 657.62,-424 840.88,-424 840.88,-456"/>
<text text-anchor="start" x="665.62" y="-442.5" font-family="Helvetica,sans-Serif" font-size="10.00">Deluxe.DeluxeBrandCenter.</text>
<text text-anchor="middle" x="749.25" y="-430.5" font-family="Helvetica,sans-Serif" font-size="10.00">AMM.Domain.DataModel.Client.Client</text>
</a>
</g>
</g>
<!-- Node4&#45;&gt;Node10 -->
<g id="edge9_Node000004_Node000010" class="edge">
<title>Node4&#45;&gt;Node10</title>
<g id="a_edge9_Node000004_Node000010"><a xlink:title=" ">
<path fill="none" stroke="#63b8ff" d="M534.98,-345.27C561.98,-366.34 604.55,-396.78 646,-415 653.28,-418.2 661.03,-421.03 668.9,-423.53"/>
<polygon fill="#63b8ff" stroke="#63b8ff" points="537.3,-342.65 527.29,-339.18 532.96,-348.13 537.3,-342.65"/>
</a>
</g>
</g>
<!-- Node11 -->
<g id="Node000011" class="node">
<title>Node11</title>
<g id="a_Node000011"><a xlink:href="../../db/de4/class_deluxe_1_1_deluxe_brand_center_1_1_a_m_m_1_1_domain_1_1_data_model_1_1_contact_manager_1_1_contact_group.html" target="_top" xlink:title=" ">
<polygon fill="white" stroke="#666666" points="851.38,-406 647.12,-406 647.12,-362 851.38,-362 851.38,-406"/>
<text text-anchor="start" x="655.12" y="-392.5" font-family="Helvetica,sans-Serif" font-size="10.00">Deluxe.DeluxeBrandCenter.</text>
<text text-anchor="start" x="655.12" y="-380.5" font-family="Helvetica,sans-Serif" font-size="10.00">AMM.Domain.DataModel.ContactManager.</text>
<text text-anchor="middle" x="749.25" y="-368.5" font-family="Helvetica,sans-Serif" font-size="10.00">ContactGroup</text>
</a>
</g>
</g>
<!-- Node4&#45;&gt;Node11 -->
<g id="edge10_Node000004_Node000011" class="edge">
<title>Node4&#45;&gt;Node11</title>
<g id="a_edge10_Node000004_Node000011"><a xlink:title=" ">
<path fill="none" stroke="#63b8ff" d="M581.63,-341.25C606.65,-347.67 634.74,-354.87 660.63,-361.52"/>
<polygon fill="#63b8ff" stroke="#63b8ff" points="582.76,-337.92 572.21,-338.83 581.02,-344.7 582.76,-337.92"/>
</a>
</g>
</g>
<!-- Node12 -->
<g id="Node000012" class="node">
<title>Node12</title>
<g id="a_Node000012"><a xlink:href="../../dc/d10/class_deluxe_1_1_deluxe_brand_center_1_1_a_m_m_1_1_domain_1_1_data_model_1_1_contact_manager_1_1_contact_tag.html" target="_top" xlink:title=" ">
<polygon fill="white" stroke="#666666" points="851.38,-344 647.12,-344 647.12,-300 851.38,-300 851.38,-344"/>
<text text-anchor="start" x="655.12" y="-330.5" font-family="Helvetica,sans-Serif" font-size="10.00">Deluxe.DeluxeBrandCenter.</text>
<text text-anchor="start" x="655.12" y="-318.5" font-family="Helvetica,sans-Serif" font-size="10.00">AMM.Domain.DataModel.ContactManager.</text>
<text text-anchor="middle" x="749.25" y="-306.5" font-family="Helvetica,sans-Serif" font-size="10.00">ContactTag</text>
</a>
</g>
</g>
<!-- Node4&#45;&gt;Node12 -->
<g id="edge11_Node000004_Node000012" class="edge">
<title>Node4&#45;&gt;Node12</title>
<g id="a_edge11_Node000004_Node000012"><a xlink:title=" ">
<path fill="none" stroke="#63b8ff" d="M621.82,-322C630.15,-322 638.52,-322 646.76,-322"/>
<polygon fill="#63b8ff" stroke="#63b8ff" points="622.01,-318.5 612.01,-322 622.01,-325.5 622.01,-318.5"/>
</a>
</g>
</g>
<!-- Node4&#45;&gt;Node13 -->
<g id="edge12_Node000004_Node000013" class="edge">
<title>Node4&#45;&gt;Node13</title>
<g id="a_edge12_Node000004_Node000013"><a xlink:title=" ">
<path fill="none" stroke="#63b8ff" d="M539.19,-299.45C566.6,-281.38 607.39,-256.56 646,-241 653.88,-237.82 662.27,-234.98 670.73,-232.44"/>
<polygon fill="#63b8ff" stroke="#63b8ff" points="537.36,-296.47 530.99,-304.93 541.25,-302.29 537.36,-296.47"/>
</a>
</g>
</g>
<!-- Node14 -->
<g id="Node000014" class="node">
<title>Node14</title>
<g id="a_Node000014"><a xlink:href="../../d9/d05/class_deluxe_1_1_deluxe_brand_center_1_1_a_m_m_1_1_domain_1_1_data_model_1_1_editor_field.html" target="_top" xlink:title=" ">
<polygon fill="white" stroke="#666666" points="837.12,-282 661.38,-282 661.38,-250 837.12,-250 837.12,-282"/>
<text text-anchor="start" x="669.38" y="-268.5" font-family="Helvetica,sans-Serif" font-size="10.00">Deluxe.DeluxeBrandCenter.</text>
<text text-anchor="middle" x="749.25" y="-256.5" font-family="Helvetica,sans-Serif" font-size="10.00">AMM.Domain.DataModel.EditorField</text>
</a>
</g>
</g>
<!-- Node4&#45;&gt;Node14 -->
<g id="edge13_Node000004_Node000014" class="edge">
<title>Node4&#45;&gt;Node14</title>
<g id="a_edge13_Node000004_Node000014"><a xlink:title=" ">
<path fill="none" stroke="#63b8ff" d="M589.03,-302.9C617.66,-296.27 649.51,-288.88 677.15,-282.48"/>
<polygon fill="#63b8ff" stroke="#63b8ff" points="588.24,-299.49 579.29,-305.16 589.82,-306.31 588.24,-299.49"/>
</a>
</g>
</g>
<!-- Node15 -->
<g id="Node000015" class="node">
<title>Node15</title>
<g id="a_Node000015"><a xlink:href="../../d4/da4/class_deluxe_1_1_deluxe_brand_center_1_1_a_m_m_1_1_domain_1_1_data_model_1_1_settings.html" target="_top" xlink:title=" ">
<polygon fill="white" stroke="#666666" points="831.88,-182 666.62,-182 666.62,-150 831.88,-150 831.88,-182"/>
<text text-anchor="start" x="674.62" y="-168.5" font-family="Helvetica,sans-Serif" font-size="10.00">Deluxe.DeluxeBrandCenter.</text>
<text text-anchor="middle" x="749.25" y="-156.5" font-family="Helvetica,sans-Serif" font-size="10.00">AMM.Domain.DataModel.Settings</text>
</a>
</g>
</g>
<!-- Node4&#45;&gt;Node15 -->
<g id="edge14_Node000004_Node000015" class="edge">
<title>Node4&#45;&gt;Node15</title>
<g id="a_edge14_Node000004_Node000015"><a xlink:title=" ">
<path fill="none" stroke="#63b8ff" d="M525.89,-297.37C550.52,-267.6 596.01,-218.12 646,-191 652.34,-187.56 659.17,-184.58 666.17,-182.01"/>
<polygon fill="#63b8ff" stroke="#63b8ff" points="523.48,-294.79 519.89,-304.75 528.91,-299.2 523.48,-294.79"/>
</a>
</g>
</g>
<!-- Node16 -->
<g id="Node000016" class="node">
<title>Node16</title>
<g id="a_Node000016"><a xlink:href="../../dc/ddd/class_deluxe_1_1_deluxe_brand_center_1_1_a_m_m_1_1_domain_1_1_data_model_1_1_settings_group.html" target="_top" xlink:title=" ">
<polygon fill="white" stroke="#666666" points="845,-132 653.5,-132 653.5,-100 845,-100 845,-132"/>
<text text-anchor="start" x="661.5" y="-118.5" font-family="Helvetica,sans-Serif" font-size="10.00">Deluxe.DeluxeBrandCenter.</text>
<text text-anchor="middle" x="749.25" y="-106.5" font-family="Helvetica,sans-Serif" font-size="10.00">AMM.Domain.DataModel.SettingsGroup</text>
</a>
</g>
</g>
<!-- Node4&#45;&gt;Node16 -->
<g id="edge15_Node000004_Node000016" class="edge">
<title>Node4&#45;&gt;Node16</title>
<g id="a_edge15_Node000004_Node000016"><a xlink:title=" ">
<path fill="none" stroke="#63b8ff" d="M532.19,-297.78C554.42,-275.91 586.64,-242.15 610,-209 629.7,-181.05 619.02,-162.02 646,-141 650.18,-137.74 654.73,-134.9 659.5,-132.43"/>
<polygon fill="#63b8ff" stroke="#63b8ff" points="530.01,-295.02 525.29,-304.5 534.89,-300.04 530.01,-295.02"/>
</a>
</g>
</g>
<!-- Node4&#45;&gt;Node17 -->
<g id="edge16_Node000004_Node000017" class="edge">
<title>Node4&#45;&gt;Node17</title>
<g id="a_edge16_Node000004_Node000017"><a xlink:title=" ">
<path fill="none" stroke="#63b8ff" d="M534.61,-298.05C557.82,-276.81 590.14,-243.81 610,-209 637.17,-161.38 606.15,-128.66 646,-91 649.45,-87.74 653.26,-84.88 657.31,-82.38"/>
<polygon fill="#63b8ff" stroke="#63b8ff" points="532.43,-295.31 527.33,-304.59 537.11,-300.51 532.43,-295.31"/>
</a>
</g>
</g>
<!-- Node4&#45;&gt;Node18 -->
<g id="edge17_Node000004_Node000018" class="edge">
<title>Node4&#45;&gt;Node18</title>
<g id="a_edge17_Node000004_Node000018"><a xlink:title=" ">
<path fill="none" stroke="#63b8ff" d="M535.79,-298.1C559.44,-277.09 591.74,-244.42 610,-209 644.99,-141.13 592.78,-95.77 646,-41 649.18,-37.72 652.72,-34.85 656.51,-32.33"/>
<polygon fill="#63b8ff" stroke="#63b8ff" points="533.59,-295.36 528.34,-304.56 538.18,-300.65 533.59,-295.36"/>
</a>
</g>
</g>
<!-- Node19&#45;&gt;Node15 -->
<g id="edge22_Node000019_Node000015" class="edge">
<title>Node19&#45;&gt;Node15</title>
<g id="a_edge22_Node000019_Node000015"><a xlink:title=" ">
<path fill="none" stroke="#63b8ff" d="M602.4,-173.24C623.52,-172.19 645.71,-171.09 666.23,-170.07"/>
<polygon fill="#63b8ff" stroke="#63b8ff" points="602.46,-169.74 592.65,-173.73 602.81,-176.73 602.46,-169.74"/>
</a>
</g>
</g>
<!-- Node20&#45;&gt;Node16 -->
<g id="edge24_Node000020_Node000016" class="edge">
<title>Node20&#45;&gt;Node16</title>
<g id="a_edge24_Node000020_Node000016"><a xlink:title=" ">
<path fill="none" stroke="#63b8ff" d="M602.52,-116C619.15,-116 636.44,-116 653.05,-116"/>
<polygon fill="#63b8ff" stroke="#63b8ff" points="602.65,-112.5 592.65,-116 602.65,-119.5 602.65,-112.5"/>
</a>
</g>
</g>
</g>
</svg>

<g id="navigator" transform="translate(0 0)" fill="#404254">
  <rect fill="#f2f5e9" fill-opacity="0.5" stroke="#606060" stroke-width=".5" x="0" y="0" width="60" height="60"/>
  <use id="zoomplus" xlink:href="#zoomPlus" x="17" y="9" onmousedown="handleZoom(evt,'in')"/>
  <use id="zoomminus" xlink:href="#zoomMin" x="42" y="9" onmousedown="handleZoom(evt,'out')"/>
  <use id="reset" xlink:href="#resetDef" x="30" y="36" onmousedown="handleReset()"/>
   <use id="arrowup" xlink:href="#arrowUp" x="0" y="0" onmousedown="handlePan(0,-1)"/>
  <use id="arrowright" xlink:href="#arrowRight" x="0" y="0" onmousedown="handlePan(1,0)"/>
  <use id="arrowdown" xlink:href="#arrowDown" x="0" y="0" onmousedown="handlePan(0,1)"/>
  <use id="arrowleft" xlink:href="#arrowLeft" x="0" y="0" onmousedown="handlePan(-1,0)"/>
</g>
<svg viewBox="0 0 15 15" width="100%" height="30px" preserveAspectRatio="xMaxYMin meet">
 <g id="arrow_out" transform="scale(0.3 0.3)">
  <a xlink:href="interface_deluxe_1_1_deluxe_brand_center_1_1_a_m_m_1_1_domain_1_1_data_model_1_1_interface_1_1_if08ea4ec194c6182845c2083eed85964_org.svg" target="_base">
   <rect id="button" ry="5" rx="5" y="6" x="6" height="38" width="38"
        fill="#f2f5e9" fill-opacity="0.5" stroke="#606060" stroke-width="1.0"/>
   <path id="arrow"
     d="M 11.500037,31.436501 C 11.940474,20.09759 22.043105,11.32322 32.158766,21.979434 L 37.068811,17.246167 C 37.068811,17.246167 37.088388,32 37.088388,32 L 22.160133,31.978069 C 22.160133,31.978069 26.997745,27.140456 26.997745,27.140456 C 18.528582,18.264221 13.291696,25.230495 11.500037,31.436501 z"
     style="fill:#404040;"/>
  </a>
 </g>
</svg>

<style type='text/css'>
<![CDATA[
[data-mouse-over-selected='false'] { opacity: 0.7; }
[data-mouse-over-selected='true']  { opacity: 1.0; }
]]>
</style>
<script type="application/ecmascript"><![CDATA[
document.addEventListener('DOMContentLoaded', (event) => {
  highlightEdges();
  highlightAdjacentNodes();
});
]]></script>
</svg>
