<?xml version="1.0" encoding="UTF-8" standalone="no"?>
<!DOCTYPE svg PUBLIC "-//W3C//DTD SVG 1.1//EN"
 "http://www.w3.org/Graphics/SVG/1.1/DTD/svg11.dtd">
<!-- Generated by graphviz version 12.1.1 (20240910.0053)
 -->
<!-- Title: Deluxe.DeluxeBrandCenter.AMM.API.Controllers.IDPController Pages: 1 -->
<svg width="262pt" height="120pt"
 viewBox="0.00 0.00 262.38 120.00" xmlns="http://www.w3.org/2000/svg" xmlns:xlink="http://www.w3.org/1999/xlink">
<g id="graph0" class="graph" transform="scale(1 1) rotate(0) translate(4 116)">
<title>Deluxe.DeluxeBrandCenter.AMM.API.Controllers.IDPController</title>
<!-- Node1 -->
<g id="Node000001" class="node">
<title>Node1</title>
<g id="a_Node000001"><a xlink:title=" ">
<polygon fill="#999999" stroke="#666666" points="193.88,-32 22.62,-32 22.62,0 193.88,0 193.88,-32"/>
<text text-anchor="start" x="30.62" y="-18.5" font-family="Helvetica,sans-Serif" font-size="10.00">Deluxe.DeluxeBrandCenter.</text>
<text text-anchor="middle" x="108.25" y="-6.5" font-family="Helvetica,sans-Serif" font-size="10.00">AMM.API.Controllers.IDPController</text>
</a>
</g>
</g>
<!-- Node2 -->
<g id="Node000002" class="node">
<title>Node2</title>
<g id="a_Node000002"><a xlink:title=" ">
<polygon fill="white" stroke="#666666" points="80.5,-106 0,-106 0,-86 80.5,-86 80.5,-106"/>
<text text-anchor="middle" x="40.25" y="-92.5" font-family="Helvetica,sans-Serif" font-size="10.00">ControllerBase</text>
</a>
</g>
</g>
<!-- Node2&#45;&gt;Node1 -->
<g id="edge1_Node000001_Node000002" class="edge">
<title>Node2&#45;&gt;Node1</title>
<g id="a_edge1_Node000001_Node000002"><a xlink:title=" ">
<path fill="none" stroke="#63b8ff" d="M55.68,-77.3C67.47,-63.78 83.55,-45.34 94.81,-32.42"/>
<polygon fill="#63b8ff" stroke="#63b8ff" points="53.25,-74.77 49.31,-84.61 58.52,-79.37 53.25,-74.77"/>
</a>
</g>
</g>
<!-- Node3 -->
<g id="Node000003" class="node">
<title>Node3</title>
<g id="a_Node000003"><a xlink:href="../../db/de9/interface_deluxe_1_1_deluxe_brand_center_1_1_a_m_m_1_1_a_p_i_1_1_services_1_1_i_i_d_p_service.html" target="_top" xlink:title=" ">
<polygon fill="white" stroke="#666666" points="254.38,-112 98.12,-112 98.12,-80 254.38,-80 254.38,-112"/>
<text text-anchor="start" x="106.12" y="-98.5" font-family="Helvetica,sans-Serif" font-size="10.00">Deluxe.DeluxeBrandCenter.</text>
<text text-anchor="middle" x="176.25" y="-86.5" font-family="Helvetica,sans-Serif" font-size="10.00">AMM.API.Services.IIDPService</text>
</a>
</g>
</g>
<!-- Node3&#45;&gt;Node1 -->
<g id="edge2_Node000001_Node000003" class="edge">
<title>Node3&#45;&gt;Node1</title>
<g id="a_edge2_Node000001_Node000003"><a xlink:title=" ">
<path fill="none" stroke="#9a32cd" stroke-dasharray="5,2" d="M155.29,-70.96C144.33,-58.39 131.24,-43.37 121.66,-32.38"/>
<polygon fill="#9a32cd" stroke="#9a32cd" points="152.61,-73.21 161.82,-78.45 157.89,-68.61 152.61,-73.21"/>
</a>
</g>
<text text-anchor="middle" x="173.32" y="-52.5" font-family="Helvetica,sans-Serif" font-size="10.00" fill="grey"> _idpService</text>
</g>
</g>
</svg>
