<?xml version="1.0" encoding="UTF-8" standalone="no"?>
<!DOCTYPE svg PUBLIC "-//W3C//DTD SVG 1.1//EN"
 "http://www.w3.org/Graphics/SVG/1.1/DTD/svg11.dtd">
<!-- Generated by graphviz version 12.1.1 (20240910.0053)
 -->
<!-- Title: Deluxe.DeluxeBrandCenter.AMM.Infrastructure.Databases.ApplicationDbContext.SaveChangesWithoutTimestamps Pages: 1 -->
<!--zoomable 238 -->

<svg id="main" version="1.1" xmlns="http://www.w3.org/2000/svg" xmlns:xlink="http://www.w3.org/1999/xlink" xml:space="preserve" onload="init(evt)">

<style type="text/css"><![CDATA[
.node, .edge {opacity: 0.7;}
.node.selected, .edge.selected {opacity: 1;}
.edge:hover path { stroke: red; }
.edge:hover polygon { stroke: red; fill: red; }
]]></style>

<defs>
  <circle id="rim" cx="0" cy="0" r="7"/>
  <circle id="rim2" cx="0" cy="0" r="3.5"/>
  <g id="zoomPlus">
    <use xlink:href="#rim" fill="#404040"><set attributeName="fill" to="#808080" begin="zoomplus.mouseover" end="zoomplus.mouseout"/></use>
    <path d="M-4,0h8M0,-4v8" fill="none" stroke="white" stroke-width="1.5" pointer-events="none"/>
  </g>
  <g id="zoomMin">
    <use xlink:href="#rim" fill="#404040"><set attributeName="fill" to="#808080" begin="zoomminus.mouseover" end="zoomminus.mouseout"/></use>
    <path d="M-4,0h8" fill="none" stroke="white" stroke-width="1.5" pointer-events="none"/>
  </g>
  <g id="arrowUp" transform="translate(30 24)">
    <use xlink:href="#rim"/>
    <path pointer-events="none" fill="none" stroke="white" stroke-width="1.5" d="M0,-3.0v7 M-2.5,-0.5L0,-3.0L2.5,-0.5"/>
  </g>
  <g id="arrowRight" transform="rotate(90) translate(36 -43)">
    <use xlink:href="#rim"/>
    <path pointer-events="none" fill="none" stroke="white" stroke-width="1.5" d="M0,-3.0v7 M-2.5,-0.5L0,-3.0L2.5,-0.5"/>
  </g>
  <g id="arrowDown" transform="rotate(180) translate(-30 -48)">
    <use xlink:href="#rim"/>
    <path pointer-events="none" fill="none" stroke="white" stroke-width="1.5" d="M0,-3.0v7 M-2.5,-0.5L0,-3.0L2.5,-0.5"/>
  </g>
  <g id="arrowLeft" transform="rotate(270) translate(-36 17)">
    <use xlink:href="#rim"/>
    <path pointer-events="none" fill="none" stroke="white" stroke-width="1.5" d="M0,-3.0v7 M-2.5,-0.5L0,-3.0L2.5,-0.5"/>
  </g>
  <g id="resetDef">
    <use xlink:href="#rim2" fill="#404040"><set attributeName="fill" to="#808080" begin="reset.mouseover" end="reset.mouseout"/></use>
  </g>
</defs>
<script type="application/ecmascript">
var viewWidth = 662;
var viewHeight = 238;
var sectionId = 'dynsection-9';
</script>
<script type="application/ecmascript" xlink:href="../../svg.min.js"/>
<svg id="graph" class="graph">
<g id="viewport">
<title>Deluxe.DeluxeBrandCenter.AMM.Infrastructure.Databases.ApplicationDbContext.SaveChangesWithoutTimestamps</title>
<!-- Node1 -->
<g id="Node000001" class="node">
<title>Node1</title>
<g id="a_Node000001"><a xlink:title=" ">
<polygon fill="#999999" stroke="#666666" points="654,-137 438.5,-137 438.5,-93 654,-93 654,-137"/>
<text text-anchor="start" x="446.5" y="-123.5" font-family="Helvetica,sans-Serif" font-size="10.00">Deluxe.DeluxeBrandCenter.</text>
<text text-anchor="start" x="446.5" y="-111.5" font-family="Helvetica,sans-Serif" font-size="10.00">AMM.Infrastructure.Databases.Application</text>
<text text-anchor="middle" x="546.25" y="-99.5" font-family="Helvetica,sans-Serif" font-size="10.00">DbContext.SaveChangesWithoutTimestamps</text>
</a>
</g>
</g>
<!-- Node2 -->
<g id="Node000002" class="node">
<title>Node2</title>
<g id="a_Node000002"><a xlink:href="../../d1/da9/class_deluxe_1_1_deluxe_brand_center_1_1_a_m_m_1_1_a_p_i_1_1_services_1_1_session_1_1_database_session.html#ae5f942b83770273fcae74111b4548168" target="_top" xlink:title=" ">
<polygon fill="white" stroke="#666666" points="402.5,-230 219.25,-230 219.25,-186 402.5,-186 402.5,-230"/>
<text text-anchor="start" x="227.25" y="-216.5" font-family="Helvetica,sans-Serif" font-size="10.00">Deluxe.DeluxeBrandCenter.</text>
<text text-anchor="start" x="227.25" y="-204.5" font-family="Helvetica,sans-Serif" font-size="10.00">AMM.API.Services.Session.Database</text>
<text text-anchor="middle" x="310.88" y="-192.5" font-family="Helvetica,sans-Serif" font-size="10.00">Session.Clear</text>
</a>
</g>
</g>
<!-- Node1&#45;&gt;Node2 -->
<g id="edge1_Node000001_Node000002" class="edge">
<title>Node1&#45;&gt;Node2</title>
<g id="a_edge1_Node000001_Node000002"><a xlink:title=" ">
<path fill="none" stroke="#63b8ff" d="M486.17,-141.92C460.63,-153.23 430.29,-166.23 402.5,-177 395.06,-179.88 387.22,-182.78 379.4,-185.57"/>
<polygon fill="#63b8ff" stroke="#63b8ff" points="487.34,-145.24 495.05,-137.97 484.49,-138.84 487.34,-145.24"/>
</a>
</g>
</g>
<!-- Node3 -->
<g id="Node000003" class="node">
<title>Node3</title>
<g id="a_Node000003"><a xlink:href="../../d1/da9/class_deluxe_1_1_deluxe_brand_center_1_1_a_m_m_1_1_a_p_i_1_1_services_1_1_session_1_1_database_session.html#a12650358ccee82a71281666512696a80" target="_top" xlink:title=" ">
<polygon fill="white" stroke="#666666" points="402.5,-168 219.25,-168 219.25,-124 402.5,-124 402.5,-168"/>
<text text-anchor="start" x="227.25" y="-154.5" font-family="Helvetica,sans-Serif" font-size="10.00">Deluxe.DeluxeBrandCenter.</text>
<text text-anchor="start" x="227.25" y="-142.5" font-family="Helvetica,sans-Serif" font-size="10.00">AMM.API.Services.Session.Database</text>
<text text-anchor="middle" x="310.88" y="-130.5" font-family="Helvetica,sans-Serif" font-size="10.00">Session.GetOrCreateSession</text>
</a>
</g>
</g>
<!-- Node1&#45;&gt;Node3 -->
<g id="edge2_Node000001_Node000003" class="edge">
<title>Node1&#45;&gt;Node3</title>
<g id="a_edge2_Node000001_Node000003"><a xlink:title=" ">
<path fill="none" stroke="#63b8ff" d="M426.82,-130.73C418.81,-131.8 410.82,-132.86 402.99,-133.9"/>
<polygon fill="#63b8ff" stroke="#63b8ff" points="427.17,-134.22 436.62,-129.43 426.25,-127.28 427.17,-134.22"/>
</a>
</g>
</g>
<!-- Node6 -->
<g id="Node000006" class="node">
<title>Node6</title>
<g id="a_Node000006"><a xlink:href="../../d1/da9/class_deluxe_1_1_deluxe_brand_center_1_1_a_m_m_1_1_a_p_i_1_1_services_1_1_session_1_1_database_session.html#ab2c11cdb72766d8fa7d876e91054555d" target="_top" xlink:title=" ">
<polygon fill="white" stroke="#666666" points="402.5,-106 219.25,-106 219.25,-62 402.5,-62 402.5,-106"/>
<text text-anchor="start" x="227.25" y="-92.5" font-family="Helvetica,sans-Serif" font-size="10.00">Deluxe.DeluxeBrandCenter.</text>
<text text-anchor="start" x="227.25" y="-80.5" font-family="Helvetica,sans-Serif" font-size="10.00">AMM.API.Services.Session.Database</text>
<text text-anchor="middle" x="310.88" y="-68.5" font-family="Helvetica,sans-Serif" font-size="10.00">Session.Remove</text>
</a>
</g>
</g>
<!-- Node1&#45;&gt;Node6 -->
<g id="edge5_Node000001_Node000006" class="edge">
<title>Node1&#45;&gt;Node6</title>
<g id="a_edge5_Node000001_Node000006"><a xlink:title=" ">
<path fill="none" stroke="#63b8ff" d="M426.82,-99.27C418.81,-98.2 410.82,-97.14 402.99,-96.1"/>
<polygon fill="#63b8ff" stroke="#63b8ff" points="426.25,-102.72 436.62,-100.57 427.17,-95.78 426.25,-102.72"/>
</a>
</g>
</g>
<!-- Node7 -->
<g id="Node000007" class="node">
<title>Node7</title>
<g id="a_Node000007"><a xlink:href="../../d1/da9/class_deluxe_1_1_deluxe_brand_center_1_1_a_m_m_1_1_a_p_i_1_1_services_1_1_session_1_1_database_session.html#a284c5d2551dbdce7c9c4c501a33f83d9" target="_top" xlink:title=" ">
<polygon fill="white" stroke="#666666" points="402.5,-44 219.25,-44 219.25,0 402.5,0 402.5,-44"/>
<text text-anchor="start" x="227.25" y="-30.5" font-family="Helvetica,sans-Serif" font-size="10.00">Deluxe.DeluxeBrandCenter.</text>
<text text-anchor="start" x="227.25" y="-18.5" font-family="Helvetica,sans-Serif" font-size="10.00">AMM.API.Services.Session.Database</text>
<text text-anchor="middle" x="310.88" y="-6.5" font-family="Helvetica,sans-Serif" font-size="10.00">Session.Set</text>
</a>
</g>
</g>
<!-- Node1&#45;&gt;Node7 -->
<g id="edge6_Node000001_Node000007" class="edge">
<title>Node1&#45;&gt;Node7</title>
<g id="a_edge6_Node000001_Node000007"><a xlink:title=" ">
<path fill="none" stroke="#63b8ff" d="M486.17,-88.08C460.63,-76.77 430.29,-63.77 402.5,-53 395.06,-50.12 387.22,-47.22 379.4,-44.43"/>
<polygon fill="#63b8ff" stroke="#63b8ff" points="484.49,-91.16 495.05,-92.03 487.34,-84.76 484.49,-91.16"/>
</a>
</g>
</g>
<!-- Node4 -->
<g id="Node000004" class="node">
<title>Node4</title>
<g id="a_Node000004"><a xlink:href="../../d1/da9/class_deluxe_1_1_deluxe_brand_center_1_1_a_m_m_1_1_a_p_i_1_1_services_1_1_session_1_1_database_session.html#afe9aad3a727b93290776c170bcc3d018" target="_top" xlink:title=" ">
<polygon fill="white" stroke="#666666" points="183.25,-199 0,-199 0,-155 183.25,-155 183.25,-199"/>
<text text-anchor="start" x="8" y="-185.5" font-family="Helvetica,sans-Serif" font-size="10.00">Deluxe.DeluxeBrandCenter.</text>
<text text-anchor="start" x="8" y="-173.5" font-family="Helvetica,sans-Serif" font-size="10.00">AMM.API.Services.Session.Database</text>
<text text-anchor="middle" x="91.62" y="-161.5" font-family="Helvetica,sans-Serif" font-size="10.00">Session.DatabaseSession</text>
</a>
</g>
</g>
<!-- Node3&#45;&gt;Node4 -->
<g id="edge3_Node000003_Node000004" class="edge">
<title>Node3&#45;&gt;Node4</title>
<g id="a_edge3_Node000003_Node000004"><a xlink:title=" ">
<path fill="none" stroke="#63b8ff" d="M207.65,-160.59C199.58,-161.74 191.47,-162.9 183.49,-164.03"/>
<polygon fill="#63b8ff" stroke="#63b8ff" points="208.1,-164.06 217.5,-159.18 207.11,-157.13 208.1,-164.06"/>
</a>
</g>
</g>
<!-- Node5 -->
<g id="Node000005" class="node">
<title>Node5</title>
<g id="a_Node000005"><a xlink:href="../../d1/da9/class_deluxe_1_1_deluxe_brand_center_1_1_a_m_m_1_1_a_p_i_1_1_services_1_1_session_1_1_database_session.html#aa9059f9f68b7099285a2ed8e6636c278" target="_top" xlink:title=" ">
<polygon fill="white" stroke="#666666" points="183.25,-137 0,-137 0,-93 183.25,-93 183.25,-137"/>
<text text-anchor="start" x="8" y="-123.5" font-family="Helvetica,sans-Serif" font-size="10.00">Deluxe.DeluxeBrandCenter.</text>
<text text-anchor="start" x="8" y="-111.5" font-family="Helvetica,sans-Serif" font-size="10.00">AMM.API.Services.Session.Database</text>
<text text-anchor="middle" x="91.62" y="-99.5" font-family="Helvetica,sans-Serif" font-size="10.00">Session.DatabaseSession</text>
</a>
</g>
</g>
<!-- Node3&#45;&gt;Node5 -->
<g id="edge4_Node000003_Node000005" class="edge">
<title>Node3&#45;&gt;Node5</title>
<g id="a_edge4_Node000003_Node000005"><a xlink:title=" ">
<path fill="none" stroke="#63b8ff" d="M207.65,-131.41C199.58,-130.26 191.47,-129.1 183.49,-127.97"/>
<polygon fill="#63b8ff" stroke="#63b8ff" points="207.11,-134.87 217.5,-132.82 208.1,-127.94 207.11,-134.87"/>
</a>
</g>
</g>
</g>
</svg>

<g id="navigator" transform="translate(0 0)" fill="#404254">
  <rect fill="#f2f5e9" fill-opacity="0.5" stroke="#606060" stroke-width=".5" x="0" y="0" width="60" height="60"/>
  <use id="zoomplus" xlink:href="#zoomPlus" x="17" y="9" onmousedown="handleZoom(evt,'in')"/>
  <use id="zoomminus" xlink:href="#zoomMin" x="42" y="9" onmousedown="handleZoom(evt,'out')"/>
  <use id="reset" xlink:href="#resetDef" x="30" y="36" onmousedown="handleReset()"/>
   <use id="arrowup" xlink:href="#arrowUp" x="0" y="0" onmousedown="handlePan(0,-1)"/>
  <use id="arrowright" xlink:href="#arrowRight" x="0" y="0" onmousedown="handlePan(1,0)"/>
  <use id="arrowdown" xlink:href="#arrowDown" x="0" y="0" onmousedown="handlePan(0,1)"/>
  <use id="arrowleft" xlink:href="#arrowLeft" x="0" y="0" onmousedown="handlePan(-1,0)"/>
</g>
<svg viewBox="0 0 15 15" width="100%" height="30px" preserveAspectRatio="xMaxYMin meet">
 <g id="arrow_out" transform="scale(0.3 0.3)">
  <a xlink:href="class_deluxe_1_1_deluxe_brand_center_1_1_a_m_m_1_1_infrastructure_1_1_databases_1_1_application_db_context_aad8f9f0eec3c480e88ed9adbaa592aef_icgraph_org.svg" target="_base">
   <rect id="button" ry="5" rx="5" y="6" x="6" height="38" width="38"
        fill="#f2f5e9" fill-opacity="0.5" stroke="#606060" stroke-width="1.0"/>
   <path id="arrow"
     d="M 11.500037,31.436501 C 11.940474,20.09759 22.043105,11.32322 32.158766,21.979434 L 37.068811,17.246167 C 37.068811,17.246167 37.088388,32 37.088388,32 L 22.160133,31.978069 C 22.160133,31.978069 26.997745,27.140456 26.997745,27.140456 C 18.528582,18.264221 13.291696,25.230495 11.500037,31.436501 z"
     style="fill:#404040;"/>
  </a>
 </g>
</svg>

<style type='text/css'>
<![CDATA[
[data-mouse-over-selected='false'] { opacity: 0.7; }
[data-mouse-over-selected='true']  { opacity: 1.0; }
]]>
</style>
<script type="application/ecmascript"><![CDATA[
document.addEventListener('DOMContentLoaded', (event) => {
  highlightEdges();
  highlightAdjacentNodes();
});
]]></script>
</svg>
