<?xml version="1.0" encoding="UTF-8" standalone="no"?>
<!DOCTYPE svg PUBLIC "-//W3C//DTD SVG 1.1//EN"
 "http://www.w3.org/Graphics/SVG/1.1/DTD/svg11.dtd">
<!-- Generated by graphviz version 12.1.1 (20240910.0053)
 -->
<!-- Title: Deluxe.DeluxeBrandCenter.AMM.Infrastructure.Databases.ApplicationDbContext.SaveChangesWithoutTimestamps Pages: 1 -->
<svg width="662pt" height="238pt"
 viewBox="0.00 0.00 662.00 238.00" xmlns="http://www.w3.org/2000/svg" xmlns:xlink="http://www.w3.org/1999/xlink">
<g id="graph0" class="graph" transform="scale(1 1) rotate(0) translate(4 234)">
<title>Deluxe.DeluxeBrandCenter.AMM.Infrastructure.Databases.ApplicationDbContext.SaveChangesWithoutTimestamps</title>
<!-- Node1 -->
<g id="Node000001" class="node">
<title>Node1</title>
<g id="a_Node000001"><a xlink:title=" ">
<polygon fill="#999999" stroke="#666666" points="654,-137 438.5,-137 438.5,-93 654,-93 654,-137"/>
<text text-anchor="start" x="446.5" y="-123.5" font-family="Helvetica,sans-Serif" font-size="10.00">Deluxe.DeluxeBrandCenter.</text>
<text text-anchor="start" x="446.5" y="-111.5" font-family="Helvetica,sans-Serif" font-size="10.00">AMM.Infrastructure.Databases.Application</text>
<text text-anchor="middle" x="546.25" y="-99.5" font-family="Helvetica,sans-Serif" font-size="10.00">DbContext.SaveChangesWithoutTimestamps</text>
</a>
</g>
</g>
<!-- Node2 -->
<g id="Node000002" class="node">
<title>Node2</title>
<g id="a_Node000002"><a xlink:href="../../d1/da9/class_deluxe_1_1_deluxe_brand_center_1_1_a_m_m_1_1_a_p_i_1_1_services_1_1_session_1_1_database_session.html#ae5f942b83770273fcae74111b4548168" target="_top" xlink:title=" ">
<polygon fill="white" stroke="#666666" points="402.5,-230 219.25,-230 219.25,-186 402.5,-186 402.5,-230"/>
<text text-anchor="start" x="227.25" y="-216.5" font-family="Helvetica,sans-Serif" font-size="10.00">Deluxe.DeluxeBrandCenter.</text>
<text text-anchor="start" x="227.25" y="-204.5" font-family="Helvetica,sans-Serif" font-size="10.00">AMM.API.Services.Session.Database</text>
<text text-anchor="middle" x="310.88" y="-192.5" font-family="Helvetica,sans-Serif" font-size="10.00">Session.Clear</text>
</a>
</g>
</g>
<!-- Node1&#45;&gt;Node2 -->
<g id="edge1_Node000001_Node000002" class="edge">
<title>Node1&#45;&gt;Node2</title>
<g id="a_edge1_Node000001_Node000002"><a xlink:title=" ">
<path fill="none" stroke="#63b8ff" d="M486.17,-141.92C460.63,-153.23 430.29,-166.23 402.5,-177 395.06,-179.88 387.22,-182.78 379.4,-185.57"/>
<polygon fill="#63b8ff" stroke="#63b8ff" points="487.34,-145.24 495.05,-137.97 484.49,-138.84 487.34,-145.24"/>
</a>
</g>
</g>
<!-- Node3 -->
<g id="Node000003" class="node">
<title>Node3</title>
<g id="a_Node000003"><a xlink:href="../../d1/da9/class_deluxe_1_1_deluxe_brand_center_1_1_a_m_m_1_1_a_p_i_1_1_services_1_1_session_1_1_database_session.html#a12650358ccee82a71281666512696a80" target="_top" xlink:title=" ">
<polygon fill="white" stroke="#666666" points="402.5,-168 219.25,-168 219.25,-124 402.5,-124 402.5,-168"/>
<text text-anchor="start" x="227.25" y="-154.5" font-family="Helvetica,sans-Serif" font-size="10.00">Deluxe.DeluxeBrandCenter.</text>
<text text-anchor="start" x="227.25" y="-142.5" font-family="Helvetica,sans-Serif" font-size="10.00">AMM.API.Services.Session.Database</text>
<text text-anchor="middle" x="310.88" y="-130.5" font-family="Helvetica,sans-Serif" font-size="10.00">Session.GetOrCreateSession</text>
</a>
</g>
</g>
<!-- Node1&#45;&gt;Node3 -->
<g id="edge2_Node000001_Node000003" class="edge">
<title>Node1&#45;&gt;Node3</title>
<g id="a_edge2_Node000001_Node000003"><a xlink:title=" ">
<path fill="none" stroke="#63b8ff" d="M426.82,-130.73C418.81,-131.8 410.82,-132.86 402.99,-133.9"/>
<polygon fill="#63b8ff" stroke="#63b8ff" points="427.17,-134.22 436.62,-129.43 426.25,-127.28 427.17,-134.22"/>
</a>
</g>
</g>
<!-- Node6 -->
<g id="Node000006" class="node">
<title>Node6</title>
<g id="a_Node000006"><a xlink:href="../../d1/da9/class_deluxe_1_1_deluxe_brand_center_1_1_a_m_m_1_1_a_p_i_1_1_services_1_1_session_1_1_database_session.html#ab2c11cdb72766d8fa7d876e91054555d" target="_top" xlink:title=" ">
<polygon fill="white" stroke="#666666" points="402.5,-106 219.25,-106 219.25,-62 402.5,-62 402.5,-106"/>
<text text-anchor="start" x="227.25" y="-92.5" font-family="Helvetica,sans-Serif" font-size="10.00">Deluxe.DeluxeBrandCenter.</text>
<text text-anchor="start" x="227.25" y="-80.5" font-family="Helvetica,sans-Serif" font-size="10.00">AMM.API.Services.Session.Database</text>
<text text-anchor="middle" x="310.88" y="-68.5" font-family="Helvetica,sans-Serif" font-size="10.00">Session.Remove</text>
</a>
</g>
</g>
<!-- Node1&#45;&gt;Node6 -->
<g id="edge5_Node000001_Node000006" class="edge">
<title>Node1&#45;&gt;Node6</title>
<g id="a_edge5_Node000001_Node000006"><a xlink:title=" ">
<path fill="none" stroke="#63b8ff" d="M426.82,-99.27C418.81,-98.2 410.82,-97.14 402.99,-96.1"/>
<polygon fill="#63b8ff" stroke="#63b8ff" points="426.25,-102.72 436.62,-100.57 427.17,-95.78 426.25,-102.72"/>
</a>
</g>
</g>
<!-- Node7 -->
<g id="Node000007" class="node">
<title>Node7</title>
<g id="a_Node000007"><a xlink:href="../../d1/da9/class_deluxe_1_1_deluxe_brand_center_1_1_a_m_m_1_1_a_p_i_1_1_services_1_1_session_1_1_database_session.html#a284c5d2551dbdce7c9c4c501a33f83d9" target="_top" xlink:title=" ">
<polygon fill="white" stroke="#666666" points="402.5,-44 219.25,-44 219.25,0 402.5,0 402.5,-44"/>
<text text-anchor="start" x="227.25" y="-30.5" font-family="Helvetica,sans-Serif" font-size="10.00">Deluxe.DeluxeBrandCenter.</text>
<text text-anchor="start" x="227.25" y="-18.5" font-family="Helvetica,sans-Serif" font-size="10.00">AMM.API.Services.Session.Database</text>
<text text-anchor="middle" x="310.88" y="-6.5" font-family="Helvetica,sans-Serif" font-size="10.00">Session.Set</text>
</a>
</g>
</g>
<!-- Node1&#45;&gt;Node7 -->
<g id="edge6_Node000001_Node000007" class="edge">
<title>Node1&#45;&gt;Node7</title>
<g id="a_edge6_Node000001_Node000007"><a xlink:title=" ">
<path fill="none" stroke="#63b8ff" d="M486.17,-88.08C460.63,-76.77 430.29,-63.77 402.5,-53 395.06,-50.12 387.22,-47.22 379.4,-44.43"/>
<polygon fill="#63b8ff" stroke="#63b8ff" points="484.49,-91.16 495.05,-92.03 487.34,-84.76 484.49,-91.16"/>
</a>
</g>
</g>
<!-- Node4 -->
<g id="Node000004" class="node">
<title>Node4</title>
<g id="a_Node000004"><a xlink:href="../../d1/da9/class_deluxe_1_1_deluxe_brand_center_1_1_a_m_m_1_1_a_p_i_1_1_services_1_1_session_1_1_database_session.html#afe9aad3a727b93290776c170bcc3d018" target="_top" xlink:title=" ">
<polygon fill="white" stroke="#666666" points="183.25,-199 0,-199 0,-155 183.25,-155 183.25,-199"/>
<text text-anchor="start" x="8" y="-185.5" font-family="Helvetica,sans-Serif" font-size="10.00">Deluxe.DeluxeBrandCenter.</text>
<text text-anchor="start" x="8" y="-173.5" font-family="Helvetica,sans-Serif" font-size="10.00">AMM.API.Services.Session.Database</text>
<text text-anchor="middle" x="91.62" y="-161.5" font-family="Helvetica,sans-Serif" font-size="10.00">Session.DatabaseSession</text>
</a>
</g>
</g>
<!-- Node3&#45;&gt;Node4 -->
<g id="edge3_Node000003_Node000004" class="edge">
<title>Node3&#45;&gt;Node4</title>
<g id="a_edge3_Node000003_Node000004"><a xlink:title=" ">
<path fill="none" stroke="#63b8ff" d="M207.65,-160.59C199.58,-161.74 191.47,-162.9 183.49,-164.03"/>
<polygon fill="#63b8ff" stroke="#63b8ff" points="208.1,-164.06 217.5,-159.18 207.11,-157.13 208.1,-164.06"/>
</a>
</g>
</g>
<!-- Node5 -->
<g id="Node000005" class="node">
<title>Node5</title>
<g id="a_Node000005"><a xlink:href="../../d1/da9/class_deluxe_1_1_deluxe_brand_center_1_1_a_m_m_1_1_a_p_i_1_1_services_1_1_session_1_1_database_session.html#aa9059f9f68b7099285a2ed8e6636c278" target="_top" xlink:title=" ">
<polygon fill="white" stroke="#666666" points="183.25,-137 0,-137 0,-93 183.25,-93 183.25,-137"/>
<text text-anchor="start" x="8" y="-123.5" font-family="Helvetica,sans-Serif" font-size="10.00">Deluxe.DeluxeBrandCenter.</text>
<text text-anchor="start" x="8" y="-111.5" font-family="Helvetica,sans-Serif" font-size="10.00">AMM.API.Services.Session.Database</text>
<text text-anchor="middle" x="91.62" y="-99.5" font-family="Helvetica,sans-Serif" font-size="10.00">Session.DatabaseSession</text>
</a>
</g>
</g>
<!-- Node3&#45;&gt;Node5 -->
<g id="edge4_Node000003_Node000005" class="edge">
<title>Node3&#45;&gt;Node5</title>
<g id="a_edge4_Node000003_Node000005"><a xlink:title=" ">
<path fill="none" stroke="#63b8ff" d="M207.65,-131.41C199.58,-130.26 191.47,-129.1 183.49,-127.97"/>
<polygon fill="#63b8ff" stroke="#63b8ff" points="207.11,-134.87 217.5,-132.82 208.1,-127.94 207.11,-134.87"/>
</a>
</g>
</g>
</g>
</svg>
