<?xml version="1.0" encoding="UTF-8" standalone="no"?>
<!DOCTYPE svg PUBLIC "-//W3C//DTD SVG 1.1//EN"
 "http://www.w3.org/Graphics/SVG/1.1/DTD/svg11.dtd">
<!-- Generated by graphviz version 12.1.1 (20240910.0053)
 -->
<!-- Title: Deluxe.DeluxeBrandCenter.AMM.Infrastructure.Databases.ApplicationDbContext.AddTimestampsToEntities Pages: 1 -->
<svg width="1592pt" height="990pt"
 viewBox="0.00 0.00 1592.25 990.00" xmlns="http://www.w3.org/2000/svg" xmlns:xlink="http://www.w3.org/1999/xlink">
<g id="graph0" class="graph" transform="scale(1 1) rotate(0) translate(4 986)">
<title>Deluxe.DeluxeBrandCenter.AMM.Infrastructure.Databases.ApplicationDbContext.AddTimestampsToEntities</title>
<!-- Node1 -->
<g id="Node000001" class="node">
<title>Node1</title>
<g id="a_Node000001"><a xlink:title=" ">
<polygon fill="#999999" stroke="#666666" points="1584.25,-681 1383,-681 1383,-637 1584.25,-637 1584.25,-681"/>
<text text-anchor="start" x="1391" y="-667.5" font-family="Helvetica,sans-Serif" font-size="10.00">Deluxe.DeluxeBrandCenter.</text>
<text text-anchor="start" x="1391" y="-655.5" font-family="Helvetica,sans-Serif" font-size="10.00">AMM.Infrastructure.Databases.Application</text>
<text text-anchor="middle" x="1483.62" y="-643.5" font-family="Helvetica,sans-Serif" font-size="10.00">DbContext.AddTimestampsToEntities</text>
</a>
</g>
</g>
<!-- Node2 -->
<g id="Node000002" class="node">
<title>Node2</title>
<g id="a_Node000002"><a xlink:href="../../d6/db1/class_deluxe_1_1_deluxe_brand_center_1_1_a_m_m_1_1_infrastructure_1_1_databases_1_1_application_db_context.html#aea43a5ab4bb779ccf8678ef7aac5be0c" target="_top" xlink:title=" ">
<polygon fill="white" stroke="#666666" points="1347,-681 1145.75,-681 1145.75,-637 1347,-637 1347,-681"/>
<text text-anchor="start" x="1153.75" y="-667.5" font-family="Helvetica,sans-Serif" font-size="10.00">Deluxe.DeluxeBrandCenter.</text>
<text text-anchor="start" x="1153.75" y="-655.5" font-family="Helvetica,sans-Serif" font-size="10.00">AMM.Infrastructure.Databases.Application</text>
<text text-anchor="middle" x="1246.38" y="-643.5" font-family="Helvetica,sans-Serif" font-size="10.00">DbContext.OnBeforeSaveChanges</text>
</a>
</g>
</g>
<!-- Node1&#45;&gt;Node2 -->
<g id="edge1_Node000001_Node000002" class="edge">
<title>Node1&#45;&gt;Node2</title>
<g id="a_edge1_Node000001_Node000002"><a xlink:title=" ">
<path fill="none" stroke="#63b8ff" d="M1371.01,-659C1363.13,-659 1355.21,-659 1347.39,-659"/>
<polygon fill="#63b8ff" stroke="#63b8ff" points="1371,-662.5 1381,-659 1371,-655.5 1371,-662.5"/>
</a>
</g>
</g>
<!-- Node3 -->
<g id="Node000003" class="node">
<title>Node3</title>
<g id="a_Node000003"><a xlink:href="../../d6/db1/class_deluxe_1_1_deluxe_brand_center_1_1_a_m_m_1_1_infrastructure_1_1_databases_1_1_application_db_context.html#a68491aad504c2902ca7aee6585aab3bb" target="_top" xlink:title=" ">
<polygon fill="white" stroke="#666666" points="1109.75,-920 908.5,-920 908.5,-876 1109.75,-876 1109.75,-920"/>
<text text-anchor="start" x="916.5" y="-906.5" font-family="Helvetica,sans-Serif" font-size="10.00">Deluxe.DeluxeBrandCenter.</text>
<text text-anchor="start" x="916.5" y="-894.5" font-family="Helvetica,sans-Serif" font-size="10.00">AMM.Infrastructure.Databases.Application</text>
<text text-anchor="middle" x="1009.12" y="-882.5" font-family="Helvetica,sans-Serif" font-size="10.00">DbContext.SaveChanges</text>
</a>
</g>
</g>
<!-- Node2&#45;&gt;Node3 -->
<g id="edge2_Node000002_Node000003" class="edge">
<title>Node2&#45;&gt;Node3</title>
<g id="a_edge2_Node000002_Node000003"><a xlink:title=" ">
<path fill="none" stroke="#63b8ff" d="M1215.38,-689.47C1167.36,-738.26 1074.34,-832.77 1032.03,-875.75"/>
<polygon fill="#63b8ff" stroke="#63b8ff" points="1217.66,-692.15 1222.18,-682.56 1212.67,-687.23 1217.66,-692.15"/>
</a>
</g>
</g>
<!-- Node7 -->
<g id="Node000007" class="node">
<title>Node7</title>
<g id="a_Node000007"><a xlink:href="../../d6/db1/class_deluxe_1_1_deluxe_brand_center_1_1_a_m_m_1_1_infrastructure_1_1_databases_1_1_application_db_context.html#a92bd6d01c18ab350b60414ec6991a32d" target="_top" xlink:title=" ">
<polygon fill="white" stroke="#666666" points="1109.75,-467 908.5,-467 908.5,-423 1109.75,-423 1109.75,-467"/>
<text text-anchor="start" x="916.5" y="-453.5" font-family="Helvetica,sans-Serif" font-size="10.00">Deluxe.DeluxeBrandCenter.</text>
<text text-anchor="start" x="916.5" y="-441.5" font-family="Helvetica,sans-Serif" font-size="10.00">AMM.Infrastructure.Databases.Application</text>
<text text-anchor="middle" x="1009.12" y="-429.5" font-family="Helvetica,sans-Serif" font-size="10.00">DbContext.SaveChangesAsync</text>
</a>
</g>
</g>
<!-- Node2&#45;&gt;Node7 -->
<g id="edge6_Node000002_Node000007" class="edge">
<title>Node2&#45;&gt;Node7</title>
<g id="a_edge6_Node000002_Node000007"><a xlink:title=" ">
<path fill="none" stroke="#63b8ff" d="M1212.18,-628.8C1164.3,-585.24 1076.94,-505.78 1034.52,-467.2"/>
<polygon fill="#63b8ff" stroke="#63b8ff" points="1209.77,-631.34 1219.52,-635.48 1214.48,-626.17 1209.77,-631.34"/>
</a>
</g>
</g>
<!-- Node4 -->
<g id="Node000004" class="node">
<title>Node4</title>
<g id="a_Node000004"><a xlink:href="../../dd/d07/class_deluxe_1_1_deluxe_brand_center_1_1_a_m_m_1_1_a_p_i_1_1_services_1_1_admin_service.html#a27d9ff106615256bef038ce32482da06" target="_top" xlink:title=" ">
<polygon fill="white" stroke="#666666" points="852.25,-920 685.5,-920 685.5,-876 852.25,-876 852.25,-920"/>
<text text-anchor="start" x="693.5" y="-906.5" font-family="Helvetica,sans-Serif" font-size="10.00">Deluxe.DeluxeBrandCenter.</text>
<text text-anchor="start" x="693.5" y="-894.5" font-family="Helvetica,sans-Serif" font-size="10.00">AMM.API.Services.AdminService.</text>
<text text-anchor="middle" x="768.88" y="-882.5" font-family="Helvetica,sans-Serif" font-size="10.00">DeactivateUser</text>
</a>
</g>
</g>
<!-- Node3&#45;&gt;Node4 -->
<g id="edge3_Node000003_Node000004" class="edge">
<title>Node3&#45;&gt;Node4</title>
<g id="a_edge3_Node000003_Node000004"><a xlink:title=" ">
<path fill="none" stroke="#63b8ff" d="M896.81,-898C881.95,-898 866.93,-898 852.68,-898"/>
<polygon fill="#63b8ff" stroke="#63b8ff" points="896.61,-901.5 906.61,-898 896.61,-894.5 896.61,-901.5"/>
</a>
</g>
</g>
<!-- Node5 -->
<g id="Node000005" class="node">
<title>Node5</title>
<g id="a_Node000005"><a xlink:href="../../d5/da7/class_deluxe_1_1_deluxe_brand_center_1_1_a_m_m_1_1_a_p_i_1_1_services_1_1_job_pool_service.html#a11b3fe567731c4251c731cf2eb151b0a" target="_top" xlink:title=" ">
<polygon fill="white" stroke="#666666" points="856,-982 681.75,-982 681.75,-938 856,-938 856,-982"/>
<text text-anchor="start" x="689.75" y="-968.5" font-family="Helvetica,sans-Serif" font-size="10.00">Deluxe.DeluxeBrandCenter.</text>
<text text-anchor="start" x="689.75" y="-956.5" font-family="Helvetica,sans-Serif" font-size="10.00">AMM.API.Services.JobPoolService.</text>
<text text-anchor="middle" x="768.88" y="-944.5" font-family="Helvetica,sans-Serif" font-size="10.00">RemoveJob</text>
</a>
</g>
</g>
<!-- Node3&#45;&gt;Node5 -->
<g id="edge4_Node000003_Node000005" class="edge">
<title>Node3&#45;&gt;Node5</title>
<g id="a_edge4_Node000003_Node000005"><a xlink:title=" ">
<path fill="none" stroke="#63b8ff" d="M910.67,-923.36C892.67,-928.05 873.98,-932.91 856.33,-937.5"/>
<polygon fill="#63b8ff" stroke="#63b8ff" points="911.51,-926.76 920.31,-920.85 909.75,-919.98 911.51,-926.76"/>
</a>
</g>
</g>
<!-- Node6 -->
<g id="Node000006" class="node">
<title>Node6</title>
<g id="a_Node000006"><a xlink:href="../../d5/da7/class_deluxe_1_1_deluxe_brand_center_1_1_a_m_m_1_1_a_p_i_1_1_services_1_1_job_pool_service.html#a7ac4efd6ea8dfe764d989531562898da" target="_top" xlink:title=" ">
<polygon fill="white" stroke="#666666" points="612.75,-982 438.5,-982 438.5,-938 612.75,-938 612.75,-982"/>
<text text-anchor="start" x="446.5" y="-968.5" font-family="Helvetica,sans-Serif" font-size="10.00">Deluxe.DeluxeBrandCenter.</text>
<text text-anchor="start" x="446.5" y="-956.5" font-family="Helvetica,sans-Serif" font-size="10.00">AMM.API.Services.JobPoolService.</text>
<text text-anchor="middle" x="525.62" y="-944.5" font-family="Helvetica,sans-Serif" font-size="10.00">RemoveJob</text>
</a>
</g>
</g>
<!-- Node5&#45;&gt;Node6 -->
<g id="edge5_Node000005_Node000006" class="edge">
<title>Node5&#45;&gt;Node6</title>
<g id="a_edge5_Node000005_Node000006"><a xlink:title=" ">
<path fill="none" stroke="#63b8ff" d="M670.16,-960C651.32,-960 631.71,-960 613.25,-960"/>
<polygon fill="#63b8ff" stroke="#63b8ff" points="669.95,-963.5 679.95,-960 669.95,-956.5 669.95,-963.5"/>
</a>
</g>
</g>
<!-- Node8 -->
<g id="Node000008" class="node">
<title>Node8</title>
<g id="a_Node000008"><a xlink:href="../../d1/d32/class_deluxe_1_1_deluxe_brand_center_1_1_a_m_m_1_1_infrastructure_1_1_social_1_1_linkedin_service.html#abb7bc77ee8f44aa0c2828024c0160530" target="_top" xlink:title=" ">
<polygon fill="white" stroke="#666666" points="853.38,-758 684.38,-758 684.38,-714 853.38,-714 853.38,-758"/>
<text text-anchor="start" x="692.38" y="-744.5" font-family="Helvetica,sans-Serif" font-size="10.00">Deluxe.DeluxeBrandCenter.</text>
<text text-anchor="start" x="692.38" y="-732.5" font-family="Helvetica,sans-Serif" font-size="10.00">AMM.Infrastructure.Social.Linkedin</text>
<text text-anchor="middle" x="768.88" y="-720.5" font-family="Helvetica,sans-Serif" font-size="10.00">Service.GetBySocialToken</text>
</a>
</g>
</g>
<!-- Node7&#45;&gt;Node8 -->
<g id="edge7_Node000007_Node000008" class="edge">
<title>Node7&#45;&gt;Node8</title>
<g id="a_edge7_Node000007_Node000008"><a xlink:title=" ">
<path fill="none" stroke="#63b8ff" d="M999.9,-478.08C984.47,-533.31 945.9,-644.22 872.5,-705 866.84,-709.69 860.48,-713.67 853.78,-717.05"/>
<polygon fill="#63b8ff" stroke="#63b8ff" points="1003.23,-479.21 1002.46,-468.64 996.47,-477.38 1003.23,-479.21"/>
</a>
</g>
</g>
<!-- Node9 -->
<g id="Node000009" class="node">
<title>Node9</title>
<g id="a_Node000009"><a xlink:href="../../de/d3c/class_deluxe_1_1_deluxe_brand_center_1_1_a_m_m_1_1_infrastructure_1_1_social_1_1_twitter_service.html#a8034291dee916419c3c8dfd9185574bd" target="_top" xlink:title=" ">
<polygon fill="white" stroke="#666666" points="850,-696 687.75,-696 687.75,-652 850,-652 850,-696"/>
<text text-anchor="start" x="695.75" y="-682.5" font-family="Helvetica,sans-Serif" font-size="10.00">Deluxe.DeluxeBrandCenter.</text>
<text text-anchor="start" x="695.75" y="-670.5" font-family="Helvetica,sans-Serif" font-size="10.00">AMM.Infrastructure.Social.Twitter</text>
<text text-anchor="middle" x="768.88" y="-658.5" font-family="Helvetica,sans-Serif" font-size="10.00">Service.GetBySocialToken</text>
</a>
</g>
</g>
<!-- Node7&#45;&gt;Node9 -->
<g id="edge8_Node000007_Node000009" class="edge">
<title>Node7&#45;&gt;Node9</title>
<g id="a_edge8_Node000007_Node000009"><a xlink:title=" ">
<path fill="none" stroke="#63b8ff" d="M994.19,-477.83C973.85,-521.87 931.86,-599.56 872.5,-643 865.74,-647.95 858.19,-652.11 850.33,-655.62"/>
<polygon fill="#63b8ff" stroke="#63b8ff" points="997.35,-479.33 998.27,-468.78 990.97,-476.46 997.35,-479.33"/>
</a>
</g>
</g>
<!-- Node10 -->
<g id="Node000010" class="node">
<title>Node10</title>
<g id="a_Node000010"><a xlink:href="../../d1/d32/class_deluxe_1_1_deluxe_brand_center_1_1_a_m_m_1_1_infrastructure_1_1_social_1_1_linkedin_service.html#a1a83942db4bc072b45440664ca09b0b5" target="_top" xlink:title=" ">
<polygon fill="white" stroke="#666666" points="853.38,-634 684.38,-634 684.38,-590 853.38,-590 853.38,-634"/>
<text text-anchor="start" x="692.38" y="-620.5" font-family="Helvetica,sans-Serif" font-size="10.00">Deluxe.DeluxeBrandCenter.</text>
<text text-anchor="start" x="692.38" y="-608.5" font-family="Helvetica,sans-Serif" font-size="10.00">AMM.Infrastructure.Social.Linkedin</text>
<text text-anchor="middle" x="768.88" y="-596.5" font-family="Helvetica,sans-Serif" font-size="10.00">Service.GetSocailAccountInfo</text>
</a>
</g>
</g>
<!-- Node7&#45;&gt;Node10 -->
<g id="edge9_Node000007_Node000010" class="edge">
<title>Node7&#45;&gt;Node10</title>
<g id="a_edge9_Node000007_Node000010"><a xlink:title=" ">
<path fill="none" stroke="#63b8ff" d="M984.5,-476.48C959.77,-507.33 918.25,-553.57 872.5,-581 866.59,-584.54 860.25,-587.71 853.72,-590.53"/>
<polygon fill="#63b8ff" stroke="#63b8ff" points="987.24,-478.66 990.68,-468.63 981.74,-474.33 987.24,-478.66"/>
</a>
</g>
</g>
<!-- Node11 -->
<g id="Node000011" class="node">
<title>Node11</title>
<g id="a_Node000011"><a xlink:href="../../de/d3c/class_deluxe_1_1_deluxe_brand_center_1_1_a_m_m_1_1_infrastructure_1_1_social_1_1_twitter_service.html#a0ab0505caaa0407cd085cf521aade6a7" target="_top" xlink:title=" ">
<polygon fill="white" stroke="#666666" points="850,-572 687.75,-572 687.75,-528 850,-528 850,-572"/>
<text text-anchor="start" x="695.75" y="-558.5" font-family="Helvetica,sans-Serif" font-size="10.00">Deluxe.DeluxeBrandCenter.</text>
<text text-anchor="start" x="695.75" y="-546.5" font-family="Helvetica,sans-Serif" font-size="10.00">AMM.Infrastructure.Social.Twitter</text>
<text text-anchor="middle" x="768.88" y="-534.5" font-family="Helvetica,sans-Serif" font-size="10.00">Service.GetSocailAccountInfo</text>
</a>
</g>
</g>
<!-- Node7&#45;&gt;Node11 -->
<g id="edge10_Node000007_Node000011" class="edge">
<title>Node7&#45;&gt;Node11</title>
<g id="a_edge10_Node000007_Node000011"><a xlink:title=" ">
<path fill="none" stroke="#63b8ff" d="M962.17,-473.16C936.45,-488.13 903.41,-506.06 872.5,-519 865.29,-522.02 857.68,-524.88 850,-527.56"/>
<polygon fill="#63b8ff" stroke="#63b8ff" points="963.86,-476.23 970.71,-468.14 960.31,-470.19 963.86,-476.23"/>
</a>
</g>
</g>
<!-- Node12 -->
<g id="Node000012" class="node">
<title>Node12</title>
<g id="a_Node000012"><a xlink:href="../../d1/d19/class_deluxe_1_1_deluxe_brand_center_1_1_a_m_m_1_1_infrastructure_1_1_mindfire_1_1_report_service_m_f.html#a9ac758f76c8914498504f9c98c65d635" target="_top" xlink:title=" ">
<polygon fill="white" stroke="#666666" points="853.75,-492 684,-492 684,-448 853.75,-448 853.75,-492"/>
<text text-anchor="start" x="692" y="-478.5" font-family="Helvetica,sans-Serif" font-size="10.00">Deluxe.DeluxeBrandCenter.</text>
<text text-anchor="start" x="692" y="-466.5" font-family="Helvetica,sans-Serif" font-size="10.00">AMM.Infrastructure.Mindfire.Report</text>
<text text-anchor="middle" x="768.88" y="-454.5" font-family="Helvetica,sans-Serif" font-size="10.00">ServiceMF.GetUnsubscribedList</text>
</a>
</g>
</g>
<!-- Node7&#45;&gt;Node12 -->
<g id="edge11_Node000007_Node000012" class="edge">
<title>Node7&#45;&gt;Node12</title>
<g id="a_edge11_Node000007_Node000012"><a xlink:title=" ">
<path fill="none" stroke="#63b8ff" d="M896.7,-456.69C882.39,-458.19 867.93,-459.71 854.16,-461.16"/>
<polygon fill="#63b8ff" stroke="#63b8ff" points="897.04,-460.18 906.62,-455.65 896.31,-453.21 897.04,-460.18"/>
</a>
</g>
</g>
<!-- Node13 -->
<g id="Node000013" class="node">
<title>Node13</title>
<g id="a_Node000013"><a xlink:href="../../dc/db9/class_deluxe_1_1_deluxe_brand_center_1_1_a_m_m_1_1_a_p_i_1_1_services_1_1_account_service.html#ae47fd0f3f51489123d65b4d4c1778e9e" target="_top" xlink:title=" ">
<polygon fill="white" stroke="#666666" points="386,-423 211,-423 211,-379 386,-379 386,-423"/>
<text text-anchor="start" x="219" y="-409.5" font-family="Helvetica,sans-Serif" font-size="10.00">Deluxe.DeluxeBrandCenter.</text>
<text text-anchor="start" x="219" y="-397.5" font-family="Helvetica,sans-Serif" font-size="10.00">AMM.API.Services.AccountService.</text>
<text text-anchor="middle" x="298.5" y="-385.5" font-family="Helvetica,sans-Serif" font-size="10.00">RegisterAdvisor</text>
</a>
</g>
</g>
<!-- Node7&#45;&gt;Node13 -->
<g id="edge13_Node000007_Node000013" class="edge">
<title>Node7&#45;&gt;Node13</title>
<g id="a_edge13_Node000007_Node000013"><a xlink:title=" ">
<path fill="none" stroke="#63b8ff" d="M981.12,-414.76C955.94,-389.03 915.84,-353.93 872.5,-339 777.85,-306.4 519.38,-315.76 422,-339 389.89,-346.66 356.67,-364.18 332.94,-378.65"/>
<polygon fill="#63b8ff" stroke="#63b8ff" points="978.27,-416.85 987.71,-421.66 983.33,-412.01 978.27,-416.85"/>
</a>
</g>
</g>
<!-- Node14 -->
<g id="Node000014" class="node">
<title>Node14</title>
<g id="a_Node000014"><a xlink:href="../../dc/db9/class_deluxe_1_1_deluxe_brand_center_1_1_a_m_m_1_1_a_p_i_1_1_services_1_1_account_service.html#ae3584aa7350a66b28807932012ac7dd2" target="_top" xlink:title=" ">
<polygon fill="white" stroke="#666666" points="175,-504 0,-504 0,-460 175,-460 175,-504"/>
<text text-anchor="start" x="8" y="-490.5" font-family="Helvetica,sans-Serif" font-size="10.00">Deluxe.DeluxeBrandCenter.</text>
<text text-anchor="start" x="8" y="-478.5" font-family="Helvetica,sans-Serif" font-size="10.00">AMM.API.Services.AccountService.</text>
<text text-anchor="middle" x="87.5" y="-466.5" font-family="Helvetica,sans-Serif" font-size="10.00">SSOSignIn</text>
</a>
</g>
</g>
<!-- Node7&#45;&gt;Node14 -->
<g id="edge28_Node000007_Node000014" class="edge">
<title>Node7&#45;&gt;Node14</title>
<g id="a_edge28_Node000007_Node000014"><a xlink:title=" ">
<path fill="none" stroke="#63b8ff" d="M896.89,-439.68C888.64,-439.41 880.44,-439.18 872.5,-439 780.41,-436.96 753.41,-412.31 665.25,-439 646.85,-444.57 647.55,-457.11 629.25,-463 475.46,-512.53 284.22,-504.08 175.28,-493.2"/>
<polygon fill="#63b8ff" stroke="#63b8ff" points="896.52,-443.17 906.64,-440.02 896.77,-436.17 896.52,-443.17"/>
</a>
</g>
</g>
<!-- Node15 -->
<g id="Node000015" class="node">
<title>Node15</title>
<g id="a_Node000015"><a xlink:href="../../dc/db9/class_deluxe_1_1_deluxe_brand_center_1_1_a_m_m_1_1_a_p_i_1_1_services_1_1_account_service.html#a3eeabb0ad01853e571664879ebdf71c4" target="_top" xlink:title=" ">
<polygon fill="white" stroke="#666666" points="872.5,-392 665.25,-392 665.25,-348 872.5,-348 872.5,-392"/>
<text text-anchor="start" x="673.25" y="-378.5" font-family="Helvetica,sans-Serif" font-size="10.00">Deluxe.DeluxeBrandCenter.</text>
<text text-anchor="start" x="673.25" y="-366.5" font-family="Helvetica,sans-Serif" font-size="10.00">AMM.API.Services.AccountService.register</text>
<text text-anchor="middle" x="768.88" y="-354.5" font-family="Helvetica,sans-Serif" font-size="10.00">ApplicationUserWithUserId</text>
</a>
</g>
</g>
<!-- Node7&#45;&gt;Node15 -->
<g id="edge15_Node000007_Node000015" class="edge">
<title>Node7&#45;&gt;Node15</title>
<g id="a_edge15_Node000007_Node000015"><a xlink:title=" ">
<path fill="none" stroke="#63b8ff" d="M926.12,-419.19C898.46,-410.48 867.84,-400.84 841.08,-392.41"/>
<polygon fill="#63b8ff" stroke="#63b8ff" points="924.93,-422.48 935.52,-422.14 927.03,-415.8 924.93,-422.48"/>
</a>
</g>
</g>
<!-- Node18 -->
<g id="Node000018" class="node">
<title>Node18</title>
<g id="a_Node000018"><a xlink:href="../../d1/d32/class_deluxe_1_1_deluxe_brand_center_1_1_a_m_m_1_1_infrastructure_1_1_social_1_1_linkedin_service.html#a7032e9ad1e59f267b9a6565276ec43a9" target="_top" xlink:title=" ">
<polygon fill="white" stroke="#666666" points="853.38,-292 684.38,-292 684.38,-248 853.38,-248 853.38,-292"/>
<text text-anchor="start" x="692.38" y="-278.5" font-family="Helvetica,sans-Serif" font-size="10.00">Deluxe.DeluxeBrandCenter.</text>
<text text-anchor="start" x="692.38" y="-266.5" font-family="Helvetica,sans-Serif" font-size="10.00">AMM.Infrastructure.Social.Linkedin</text>
<text text-anchor="middle" x="768.88" y="-254.5" font-family="Helvetica,sans-Serif" font-size="10.00">Service.Remove</text>
</a>
</g>
</g>
<!-- Node7&#45;&gt;Node18 -->
<g id="edge20_Node000007_Node000018" class="edge">
<title>Node7&#45;&gt;Node18</title>
<g id="a_edge20_Node000007_Node000018"><a xlink:title=" ">
<path fill="none" stroke="#63b8ff" d="M984.91,-413.89C960.17,-382.69 918.3,-335.2 872.5,-306 864.46,-300.87 855.6,-296.37 846.55,-292.44"/>
<polygon fill="#63b8ff" stroke="#63b8ff" points="981.88,-415.7 990.79,-421.43 987.4,-411.39 981.88,-415.7"/>
</a>
</g>
</g>
<!-- Node19 -->
<g id="Node000019" class="node">
<title>Node19</title>
<g id="a_Node000019"><a xlink:href="../../de/d3c/class_deluxe_1_1_deluxe_brand_center_1_1_a_m_m_1_1_infrastructure_1_1_social_1_1_twitter_service.html#aac546539771bd68fc17bd84ce0e0380d" target="_top" xlink:title=" ">
<polygon fill="white" stroke="#666666" points="850,-230 687.75,-230 687.75,-186 850,-186 850,-230"/>
<text text-anchor="start" x="695.75" y="-216.5" font-family="Helvetica,sans-Serif" font-size="10.00">Deluxe.DeluxeBrandCenter.</text>
<text text-anchor="start" x="695.75" y="-204.5" font-family="Helvetica,sans-Serif" font-size="10.00">AMM.Infrastructure.Social.Twitter</text>
<text text-anchor="middle" x="768.88" y="-192.5" font-family="Helvetica,sans-Serif" font-size="10.00">Service.Remove</text>
</a>
</g>
</g>
<!-- Node7&#45;&gt;Node19 -->
<g id="edge21_Node000007_Node000019" class="edge">
<title>Node7&#45;&gt;Node19</title>
<g id="a_edge21_Node000007_Node000019"><a xlink:title=" ">
<path fill="none" stroke="#63b8ff" d="M995.14,-412.2C975.44,-366.64 933.69,-284.65 872.5,-239 865.79,-233.99 858.26,-229.79 850.42,-226.26"/>
<polygon fill="#63b8ff" stroke="#63b8ff" points="991.86,-413.44 998.97,-421.3 998.31,-410.72 991.86,-413.44"/>
</a>
</g>
</g>
<!-- Node20 -->
<g id="Node000020" class="node">
<title>Node20</title>
<g id="a_Node000020"><a xlink:href="../../d5/dd8/class_deluxe_1_1_deluxe_brand_center_1_1_a_m_m_1_1_script_runner_1_1_services_1_1_scripts_1_1_update_billing_codes.html#a9f558c64bc2ce711e63fdb8471f846dd" target="_top" xlink:title=" ">
<polygon fill="white" stroke="#666666" points="857.5,-168 680.25,-168 680.25,-124 857.5,-124 857.5,-168"/>
<text text-anchor="start" x="688.25" y="-154.5" font-family="Helvetica,sans-Serif" font-size="10.00">Deluxe.DeluxeBrandCenter.</text>
<text text-anchor="start" x="688.25" y="-142.5" font-family="Helvetica,sans-Serif" font-size="10.00">AMM.ScriptRunner.Services.Scripts.</text>
<text text-anchor="middle" x="768.88" y="-130.5" font-family="Helvetica,sans-Serif" font-size="10.00">UpdateBillingCodes.Run</text>
</a>
</g>
</g>
<!-- Node7&#45;&gt;Node20 -->
<g id="edge22_Node000007_Node000020" class="edge">
<title>Node7&#45;&gt;Node20</title>
<g id="a_edge22_Node000007_Node000020"><a xlink:title=" ">
<path fill="none" stroke="#63b8ff" d="M1000.41,-411.69C985.57,-355.05 947.64,-240.01 872.5,-177 867.94,-173.17 862.91,-169.82 857.61,-166.88"/>
<polygon fill="#63b8ff" stroke="#63b8ff" points="996.94,-412.23 1002.78,-421.06 1003.72,-410.51 996.94,-412.23"/>
</a>
</g>
</g>
<!-- Node21 -->
<g id="Node000021" class="node">
<title>Node21</title>
<g id="a_Node000021"><a xlink:href="../../d1/d32/class_deluxe_1_1_deluxe_brand_center_1_1_a_m_m_1_1_infrastructure_1_1_social_1_1_linkedin_service.html#a97046f2c418bbd7a4092f3bc3b6bc982" target="_top" xlink:title=" ">
<polygon fill="white" stroke="#666666" points="853.38,-106 684.38,-106 684.38,-62 853.38,-62 853.38,-106"/>
<text text-anchor="start" x="692.38" y="-92.5" font-family="Helvetica,sans-Serif" font-size="10.00">Deluxe.DeluxeBrandCenter.</text>
<text text-anchor="start" x="692.38" y="-80.5" font-family="Helvetica,sans-Serif" font-size="10.00">AMM.Infrastructure.Social.Linkedin</text>
<text text-anchor="middle" x="768.88" y="-68.5" font-family="Helvetica,sans-Serif" font-size="10.00">Service.SaveCredentials</text>
</a>
</g>
</g>
<!-- Node7&#45;&gt;Node21 -->
<g id="edge23_Node000007_Node000021" class="edge">
<title>Node7&#45;&gt;Node21</title>
<g id="a_edge23_Node000007_Node000021"><a xlink:title=" ">
<path fill="none" stroke="#63b8ff" d="M1003.97,-411.83C993.9,-345.58 962.06,-196.3 872.5,-115 866.92,-109.93 860.54,-105.69 853.74,-102.15"/>
<polygon fill="#63b8ff" stroke="#63b8ff" points="1000.45,-411.93 1005.34,-421.33 1007.38,-410.94 1000.45,-411.93"/>
</a>
</g>
</g>
<!-- Node22 -->
<g id="Node000022" class="node">
<title>Node22</title>
<g id="a_Node000022"><a xlink:href="../../de/d3c/class_deluxe_1_1_deluxe_brand_center_1_1_a_m_m_1_1_infrastructure_1_1_social_1_1_twitter_service.html#abf7bcf69ca6e4a59e8c11a856119cb74" target="_top" xlink:title=" ">
<polygon fill="white" stroke="#666666" points="850,-44 687.75,-44 687.75,0 850,0 850,-44"/>
<text text-anchor="start" x="695.75" y="-30.5" font-family="Helvetica,sans-Serif" font-size="10.00">Deluxe.DeluxeBrandCenter.</text>
<text text-anchor="start" x="695.75" y="-18.5" font-family="Helvetica,sans-Serif" font-size="10.00">AMM.Infrastructure.Social.Twitter</text>
<text text-anchor="middle" x="768.88" y="-6.5" font-family="Helvetica,sans-Serif" font-size="10.00">Service.SaveCredentials</text>
</a>
</g>
</g>
<!-- Node7&#45;&gt;Node22 -->
<g id="edge24_Node000007_Node000022" class="edge">
<title>Node7&#45;&gt;Node22</title>
<g id="a_edge24_Node000007_Node000022"><a xlink:title=" ">
<path fill="none" stroke="#63b8ff" d="M1006.43,-411.58C1000.78,-336.44 976.49,-152.94 872.5,-53 866.06,-46.81 858.42,-41.85 850.27,-37.88"/>
<polygon fill="#63b8ff" stroke="#63b8ff" points="1002.91,-411.43 1007.08,-421.17 1009.89,-410.96 1002.91,-411.43"/>
</a>
</g>
</g>
<!-- Node23 -->
<g id="Node000023" class="node">
<title>Node23</title>
<g id="a_Node000023"><a xlink:href="../../d7/d5a/class_deluxe_1_1_deluxe_brand_center_1_1_a_m_m_1_1_infrastructure_1_1_social_1_1_social_network_service.html#a7d33f1a39aa5117dcaa3ad9cfe38cc0b" target="_top" xlink:title="Does actual posting on given social network.">
<polygon fill="white" stroke="#666666" points="848.88,-858 688.88,-858 688.88,-814 848.88,-814 848.88,-858"/>
<text text-anchor="start" x="696.88" y="-844.5" font-family="Helvetica,sans-Serif" font-size="10.00">Deluxe.DeluxeBrandCenter.</text>
<text text-anchor="start" x="696.88" y="-832.5" font-family="Helvetica,sans-Serif" font-size="10.00">AMM.Infrastructure.Social.Social</text>
<text text-anchor="middle" x="768.88" y="-820.5" font-family="Helvetica,sans-Serif" font-size="10.00">NetworkService.Sharing</text>
</a>
</g>
</g>
<!-- Node7&#45;&gt;Node23 -->
<g id="edge25_Node000007_Node000023" class="edge">
<title>Node7&#45;&gt;Node23</title>
<g id="a_edge25_Node000007_Node000023"><a xlink:title=" ">
<path fill="none" stroke="#63b8ff" d="M1004.69,-478.33C995.79,-547.84 965.71,-709.32 872.5,-800 865.73,-806.58 857.69,-811.97 849.14,-816.37"/>
<polygon fill="#63b8ff" stroke="#63b8ff" points="1008.13,-479.07 1005.85,-468.73 1001.18,-478.23 1008.13,-479.07"/>
</a>
</g>
</g>
<!-- Node24 -->
<g id="Node000024" class="node">
<title>Node24</title>
<g id="a_Node000024"><a xlink:href="../../dc/db9/class_deluxe_1_1_deluxe_brand_center_1_1_a_m_m_1_1_a_p_i_1_1_services_1_1_account_service.html#a9280300b6414aabe58c40ef3dd7780c3" target="_top" xlink:title=" ">
<polygon fill="white" stroke="#666666" points="386,-681 211,-681 211,-637 386,-637 386,-681"/>
<text text-anchor="start" x="219" y="-667.5" font-family="Helvetica,sans-Serif" font-size="10.00">Deluxe.DeluxeBrandCenter.</text>
<text text-anchor="start" x="219" y="-655.5" font-family="Helvetica,sans-Serif" font-size="10.00">AMM.API.Services.AccountService.</text>
<text text-anchor="middle" x="298.5" y="-643.5" font-family="Helvetica,sans-Serif" font-size="10.00">SignIn</text>
</a>
</g>
</g>
<!-- Node7&#45;&gt;Node24 -->
<g id="edge26_Node000007_Node000024" class="edge">
<title>Node7&#45;&gt;Node24</title>
<g id="a_edge26_Node000007_Node000024"><a xlink:title=" ">
<path fill="none" stroke="#63b8ff" d="M1005.61,-478.71C998.49,-547.08 971.66,-701.17 872.5,-767 788.9,-822.5 491.14,-727.27 361.06,-681.48"/>
<polygon fill="#63b8ff" stroke="#63b8ff" points="1009.09,-479.15 1006.55,-468.86 1002.12,-478.49 1009.09,-479.15"/>
</a>
</g>
</g>
<!-- Node12&#45;&gt;Node12 -->
<g id="edge12_Node000012_Node000012" class="edge">
<title>Node12&#45;&gt;Node12</title>
<g id="a_edge12_Node000012_Node000012"><a xlink:title=" ">
<path fill="none" stroke="#63b8ff" d="M808.94,-502.58C802.27,-507.03 788.92,-510 768.88,-510 735.56,-510 720.72,-501.8 724.37,-492.21"/>
<polygon fill="#63b8ff" stroke="#63b8ff" points="812.06,-504.17 812.79,-493.6 805.63,-501.41 812.06,-504.17"/>
</a>
</g>
</g>
<!-- Node13&#45;&gt;Node14 -->
<g id="edge14_Node000013_Node000014" class="edge">
<title>Node13&#45;&gt;Node14</title>
<g id="a_edge14_Node000013_Node000014"><a xlink:title=" ">
<path fill="none" stroke="#63b8ff" d="M229.14,-427.49C202.44,-437.84 172.16,-449.58 146.55,-459.5"/>
<polygon fill="#63b8ff" stroke="#63b8ff" points="230.09,-430.88 238.15,-424 227.56,-424.35 230.09,-430.88"/>
</a>
</g>
</g>
<!-- Node16 -->
<g id="Node000016" class="node">
<title>Node16</title>
<g id="a_Node000016"><a xlink:href="../../dc/db9/class_deluxe_1_1_deluxe_brand_center_1_1_a_m_m_1_1_a_p_i_1_1_services_1_1_account_service.html#aab5e5f4f159724b2d4a8059499f33bad" target="_top" xlink:title=" ">
<polygon fill="white" stroke="#666666" points="629.25,-454 422,-454 422,-410 629.25,-410 629.25,-454"/>
<text text-anchor="start" x="430" y="-440.5" font-family="Helvetica,sans-Serif" font-size="10.00">Deluxe.DeluxeBrandCenter.</text>
<text text-anchor="start" x="430" y="-428.5" font-family="Helvetica,sans-Serif" font-size="10.00">AMM.API.Services.AccountService.register</text>
<text text-anchor="middle" x="525.62" y="-416.5" font-family="Helvetica,sans-Serif" font-size="10.00">UserAdminWithUserId</text>
</a>
</g>
</g>
<!-- Node15&#45;&gt;Node16 -->
<g id="edge16_Node000015_Node000016" class="edge">
<title>Node15&#45;&gt;Node16</title>
<g id="a_edge16_Node000015_Node000016"><a xlink:title=" ">
<path fill="none" stroke="#63b8ff" d="M669.45,-395.29C651.14,-400 632.13,-404.89 614.17,-409.5"/>
<polygon fill="#63b8ff" stroke="#63b8ff" points="670.16,-398.73 678.97,-392.85 668.41,-391.95 670.16,-398.73"/>
</a>
</g>
</g>
<!-- Node17 -->
<g id="Node000017" class="node">
<title>Node17</title>
<g id="a_Node000017"><a xlink:href="../../dc/db9/class_deluxe_1_1_deluxe_brand_center_1_1_a_m_m_1_1_a_p_i_1_1_services_1_1_account_service.html#a23c6273daa8f4761e7b257a9d0d510c0" target="_top" xlink:title=" ">
<polygon fill="white" stroke="#666666" points="629.25,-392 422,-392 422,-348 629.25,-348 629.25,-392"/>
<text text-anchor="start" x="430" y="-378.5" font-family="Helvetica,sans-Serif" font-size="10.00">Deluxe.DeluxeBrandCenter.</text>
<text text-anchor="start" x="430" y="-366.5" font-family="Helvetica,sans-Serif" font-size="10.00">AMM.API.Services.AccountService.register</text>
<text text-anchor="middle" x="525.62" y="-354.5" font-family="Helvetica,sans-Serif" font-size="10.00">UserAdvisorWithUserId</text>
</a>
</g>
</g>
<!-- Node15&#45;&gt;Node17 -->
<g id="edge18_Node000015_Node000017" class="edge">
<title>Node15&#45;&gt;Node17</title>
<g id="a_edge18_Node000015_Node000017"><a xlink:title=" ">
<path fill="none" stroke="#63b8ff" d="M653.61,-370C645.62,-370 637.6,-370 629.68,-370"/>
<polygon fill="#63b8ff" stroke="#63b8ff" points="653.35,-373.5 663.35,-370 653.35,-366.5 653.35,-373.5"/>
</a>
</g>
</g>
<!-- Node16&#45;&gt;Node13 -->
<g id="edge17_Node000016_Node000013" class="edge">
<title>Node16&#45;&gt;Node13</title>
<g id="a_edge17_Node000016_Node000013"><a xlink:title=" ">
<path fill="none" stroke="#63b8ff" d="M410.24,-416.25C402.19,-415.14 394.15,-414.03 386.29,-412.95"/>
<polygon fill="#63b8ff" stroke="#63b8ff" points="409.73,-419.71 420.12,-417.61 410.69,-412.78 409.73,-419.71"/>
</a>
</g>
</g>
<!-- Node17&#45;&gt;Node13 -->
<g id="edge19_Node000017_Node000013" class="edge">
<title>Node17&#45;&gt;Node13</title>
<g id="a_edge19_Node000017_Node000013"><a xlink:title=" ">
<path fill="none" stroke="#63b8ff" d="M410.24,-385.75C402.19,-386.86 394.15,-387.97 386.29,-389.05"/>
<polygon fill="#63b8ff" stroke="#63b8ff" points="410.69,-389.22 420.12,-384.39 409.73,-382.29 410.69,-389.22"/>
</a>
</g>
</g>
<!-- Node24&#45;&gt;Node14 -->
<g id="edge27_Node000024_Node000014" class="edge">
<title>Node24&#45;&gt;Node14</title>
<g id="a_edge27_Node000024_Node000014"><a xlink:title=" ">
<path fill="none" stroke="#63b8ff" d="M262.31,-629.19C220.61,-593.88 152.09,-535.85 114.76,-504.24"/>
<polygon fill="#63b8ff" stroke="#63b8ff" points="259.98,-631.81 269.88,-635.6 264.51,-626.47 259.98,-631.81"/>
</a>
</g>
</g>
</g>
</svg>
