<?xml version="1.0" encoding="UTF-8" standalone="no"?>
<!DOCTYPE svg PUBLIC "-//W3C//DTD SVG 1.1//EN"
 "http://www.w3.org/Graphics/SVG/1.1/DTD/svg11.dtd">
<!-- Generated by graphviz version 12.1.1 (20240910.0053)
 -->
<!-- Title: Deluxe.DeluxeBrandCenter.AMM.API.Services.IUserService Pages: 1 -->
<svg width="187pt" height="270pt"
 viewBox="0.00 0.00 186.75 270.00" xmlns="http://www.w3.org/2000/svg" xmlns:xlink="http://www.w3.org/1999/xlink">
<g id="graph0" class="graph" transform="scale(1 1) rotate(0) translate(4 266)">
<title>Deluxe.DeluxeBrandCenter.AMM.API.Services.IUserService</title>
<!-- Node1 -->
<g id="Node000001" class="node">
<title>Node1</title>
<g id="a_Node000001"><a xlink:title=" ">
<polygon fill="#999999" stroke="#666666" points="169.38,-101 9.38,-101 9.38,-69 169.38,-69 169.38,-101"/>
<text text-anchor="start" x="17.38" y="-87.5" font-family="Helvetica,sans-Serif" font-size="10.00">Deluxe.DeluxeBrandCenter.</text>
<text text-anchor="middle" x="89.38" y="-75.5" font-family="Helvetica,sans-Serif" font-size="10.00">AMM.API.Services.IUserService</text>
</a>
</g>
</g>
<!-- Node4 -->
<g id="Node000004" class="node">
<title>Node4</title>
<g id="a_Node000004"><a xlink:href="../../d3/df8/class_deluxe_1_1_deluxe_brand_center_1_1_a_m_m_1_1_a_p_i_1_1_services_1_1_user_service.html" target="_top" xlink:title=" ">
<polygon fill="white" stroke="#666666" points="167.88,-32 10.88,-32 10.88,0 167.88,0 167.88,-32"/>
<text text-anchor="start" x="18.88" y="-18.5" font-family="Helvetica,sans-Serif" font-size="10.00">Deluxe.DeluxeBrandCenter.</text>
<text text-anchor="middle" x="89.38" y="-6.5" font-family="Helvetica,sans-Serif" font-size="10.00">AMM.API.Services.UserService</text>
</a>
</g>
</g>
<!-- Node1&#45;&gt;Node4 -->
<g id="edge3_Node000001_Node000004" class="edge">
<title>Node1&#45;&gt;Node4</title>
<g id="a_edge3_Node000001_Node000004"><a xlink:title=" ">
<path fill="none" stroke="#63b8ff" d="M89.38,-57.35C89.38,-48.78 89.38,-39.59 89.38,-32.14"/>
<polygon fill="#63b8ff" stroke="#63b8ff" points="85.88,-57.28 89.38,-67.28 92.88,-57.28 85.88,-57.28"/>
</a>
</g>
</g>
<!-- Node2 -->
<g id="Node000002" class="node">
<title>Node2</title>
<g id="a_Node000002"><a xlink:href="../../d0/dcc/interface_deluxe_1_1_deluxe_brand_center_1_1_a_m_m_1_1_a_p_i_1_1_services_1_1_i_client_d_b_service.html" target="_top" xlink:title=" ">
<polygon fill="white" stroke="#666666" points="151.75,-170 27,-170 27,-138 151.75,-138 151.75,-170"/>
<text text-anchor="start" x="35" y="-156.5" font-family="Helvetica,sans-Serif" font-size="10.00">IClientDBService&lt; User,</text>
<text text-anchor="middle" x="89.38" y="-144.5" font-family="Helvetica,sans-Serif" font-size="10.00"> UserVM &gt;</text>
</a>
</g>
</g>
<!-- Node2&#45;&gt;Node1 -->
<g id="edge1_Node000001_Node000002" class="edge">
<title>Node2&#45;&gt;Node1</title>
<g id="a_edge1_Node000001_Node000002"><a xlink:title=" ">
<path fill="none" stroke="#63b8ff" d="M89.38,-126.35C89.38,-117.78 89.38,-108.59 89.38,-101.14"/>
<polygon fill="#63b8ff" stroke="#63b8ff" points="85.88,-126.28 89.38,-136.28 92.88,-126.28 85.88,-126.28"/>
</a>
</g>
</g>
<!-- Node3 -->
<g id="Node000003" class="node">
<title>Node3</title>
<g id="a_Node000003"><a xlink:href="../../d0/dcc/interface_deluxe_1_1_deluxe_brand_center_1_1_a_m_m_1_1_a_p_i_1_1_services_1_1_i_client_d_b_service.html" target="_top" xlink:title=" ">
<polygon fill="white" stroke="#666666" points="178.75,-262 0,-262 0,-218 178.75,-218 178.75,-262"/>
<text text-anchor="start" x="8" y="-248.5" font-family="Helvetica,sans-Serif" font-size="10.00">Deluxe.DeluxeBrandCenter.</text>
<text text-anchor="start" x="8" y="-236.5" font-family="Helvetica,sans-Serif" font-size="10.00">AMM.API.Services.IClientDBService</text>
<text text-anchor="middle" x="89.38" y="-224.5" font-family="Helvetica,sans-Serif" font-size="10.00">&lt; TModel, TModelVM &gt;</text>
</a>
</g>
</g>
<!-- Node3&#45;&gt;Node2 -->
<g id="edge2_Node000002_Node000003" class="edge">
<title>Node3&#45;&gt;Node2</title>
<g id="a_edge2_Node000002_Node000003"><a xlink:title=" ">
<path fill="none" stroke="orange" stroke-dasharray="5,2" d="M89.38,-206.41C89.38,-194 89.38,-180.44 89.38,-170.36"/>
<polygon fill="orange" stroke="orange" points="85.88,-206.29 89.38,-216.29 92.88,-206.29 85.88,-206.29"/>
</a>
</g>
<text text-anchor="middle" x="131.38" y="-190.5" font-family="Helvetica,sans-Serif" font-size="10.00" fill="grey"> &lt; User, UserVM &gt;</text>
</g>
</g>
</svg>
