<?xml version="1.0" encoding="UTF-8" standalone="no"?>
<!DOCTYPE svg PUBLIC "-//W3C//DTD SVG 1.1//EN"
 "http://www.w3.org/Graphics/SVG/1.1/DTD/svg11.dtd">
<!-- Generated by graphviz version 12.1.1 (20240910.0053)
 -->
<!-- Title: Deluxe.DeluxeBrandCenter.AMM.API.Models.ControllerResult.ControllerResult Pages: 1 -->
<svg width="637pt" height="852pt"
 viewBox="0.00 0.00 637.25 852.00" xmlns="http://www.w3.org/2000/svg" xmlns:xlink="http://www.w3.org/1999/xlink">
<g id="graph0" class="graph" transform="scale(1 1) rotate(0) translate(4 848)">
<title>Deluxe.DeluxeBrandCenter.AMM.API.Models.ControllerResult.ControllerResult</title>
<!-- Node1 -->
<g id="Node000001" class="node">
<title>Node1</title>
<g id="a_Node000001"><a xlink:title=" ">
<polygon fill="#999999" stroke="#666666" points="629.25,-447 459.5,-447 459.5,-403 629.25,-403 629.25,-447"/>
<text text-anchor="start" x="467.5" y="-433.5" font-family="Helvetica,sans-Serif" font-size="10.00">Deluxe.DeluxeBrandCenter.</text>
<text text-anchor="start" x="467.5" y="-421.5" font-family="Helvetica,sans-Serif" font-size="10.00">AMM.API.Models.ControllerResult.</text>
<text text-anchor="middle" x="544.38" y="-409.5" font-family="Helvetica,sans-Serif" font-size="10.00">ControllerResult</text>
</a>
</g>
</g>
<!-- Node2 -->
<g id="Node000002" class="node">
<title>Node2</title>
<g id="a_Node000002"><a xlink:href="../../d0/d53/class_deluxe_1_1_deluxe_brand_center_1_1_a_m_m_1_1_a_p_i_1_1_models_1_1_controller_result.html#a4643fc38e7faa60236c8ba1a94293b15" target="_top" xlink:title=" ">
<polygon fill="white" stroke="#666666" points="405.88,-838 236.12,-838 236.12,-794 405.88,-794 405.88,-838"/>
<text text-anchor="start" x="244.12" y="-824.5" font-family="Helvetica,sans-Serif" font-size="10.00">Deluxe.DeluxeBrandCenter.</text>
<text text-anchor="start" x="244.12" y="-812.5" font-family="Helvetica,sans-Serif" font-size="10.00">AMM.API.Models.ControllerResult.</text>
<text text-anchor="middle" x="321" y="-800.5" font-family="Helvetica,sans-Serif" font-size="10.00">As&lt; T2 &gt;</text>
</a>
</g>
</g>
<!-- Node1&#45;&gt;Node2 -->
<g id="edge1_Node000001_Node000002" class="edge">
<title>Node1&#45;&gt;Node2</title>
<g id="a_edge1_Node000001_Node000002"><a xlink:title=" ">
<path fill="none" stroke="#63b8ff" d="M542.05,-458.5C537.43,-529.1 516.67,-694.13 423.5,-785 418.36,-790.02 412.42,-794.23 406.06,-797.75"/>
<polygon fill="#63b8ff" stroke="#63b8ff" points="545.53,-458.92 542.62,-448.74 538.55,-458.52 545.53,-458.92"/>
</a>
</g>
</g>
<!-- Node3 -->
<g id="Node000003" class="node">
<title>Node3</title>
<g id="a_Node000003"><a xlink:href="../../d0/d53/class_deluxe_1_1_deluxe_brand_center_1_1_a_m_m_1_1_a_p_i_1_1_models_1_1_controller_result.html#a15c64c0519ca5f3b158bbc632f895cec" target="_top" xlink:title=" ">
<polygon fill="white" stroke="#666666" points="405.88,-776 236.12,-776 236.12,-732 405.88,-732 405.88,-776"/>
<text text-anchor="start" x="244.12" y="-762.5" font-family="Helvetica,sans-Serif" font-size="10.00">Deluxe.DeluxeBrandCenter.</text>
<text text-anchor="start" x="244.12" y="-750.5" font-family="Helvetica,sans-Serif" font-size="10.00">AMM.API.Models.ControllerResult.</text>
<text text-anchor="middle" x="321" y="-738.5" font-family="Helvetica,sans-Serif" font-size="10.00">AsEmpty</text>
</a>
</g>
</g>
<!-- Node1&#45;&gt;Node3 -->
<g id="edge2_Node000001_Node000003" class="edge">
<title>Node1&#45;&gt;Node3</title>
<g id="a_edge2_Node000001_Node000003"><a xlink:title=" ">
<path fill="none" stroke="#63b8ff" d="M539.33,-458.71C530.16,-520.21 502.09,-650.9 423.5,-723 418.34,-727.73 412.48,-731.74 406.23,-735.14"/>
<polygon fill="#63b8ff" stroke="#63b8ff" points="542.79,-459.26 540.71,-448.87 535.86,-458.29 542.79,-459.26"/>
</a>
</g>
</g>
<!-- Node4 -->
<g id="Node000004" class="node">
<title>Node4</title>
<g id="a_Node000004"><a xlink:href="../../d0/d53/class_deluxe_1_1_deluxe_brand_center_1_1_a_m_m_1_1_a_p_i_1_1_models_1_1_controller_result.html#aedbea8b3284f4fa00fc470b2b82d4423" target="_top" xlink:title=" ">
<polygon fill="white" stroke="#666666" points="417.12,-714 224.88,-714 224.88,-682 417.12,-682 417.12,-714"/>
<text text-anchor="start" x="232.88" y="-700.5" font-family="Helvetica,sans-Serif" font-size="10.00">Deluxe.DeluxeBrandCenter.</text>
<text text-anchor="middle" x="321" y="-688.5" font-family="Helvetica,sans-Serif" font-size="10.00">AMM.API.Models.ControllerResult.From</text>
</a>
</g>
</g>
<!-- Node1&#45;&gt;Node4 -->
<g id="edge3_Node000001_Node000004" class="edge">
<title>Node1&#45;&gt;Node4</title>
<g id="a_edge3_Node000001_Node000004"><a xlink:title=" ">
<path fill="none" stroke="#63b8ff" d="M536.77,-458.45C524.37,-512.14 492.38,-617.18 423.5,-673 419.41,-676.31 414.95,-679.2 410.24,-681.71"/>
<polygon fill="#63b8ff" stroke="#63b8ff" points="540.12,-459.5 538.86,-448.98 533.29,-457.99 540.12,-459.5"/>
</a>
</g>
</g>
<!-- Node10 -->
<g id="Node000010" class="node">
<title>Node10</title>
<g id="a_Node000010"><a xlink:href="../../d0/d53/class_deluxe_1_1_deluxe_brand_center_1_1_a_m_m_1_1_a_p_i_1_1_models_1_1_controller_result.html#a9fa95a611cfb5658a7f46e27e8f99508" target="_top" xlink:title=" ">
<polygon fill="white" stroke="#666666" points="405.88,-664 236.12,-664 236.12,-620 405.88,-620 405.88,-664"/>
<text text-anchor="start" x="244.12" y="-650.5" font-family="Helvetica,sans-Serif" font-size="10.00">Deluxe.DeluxeBrandCenter.</text>
<text text-anchor="start" x="244.12" y="-638.5" font-family="Helvetica,sans-Serif" font-size="10.00">AMM.API.Models.ControllerResult.</text>
<text text-anchor="middle" x="321" y="-626.5" font-family="Helvetica,sans-Serif" font-size="10.00">From&lt; T &gt;</text>
</a>
</g>
</g>
<!-- Node1&#45;&gt;Node10 -->
<g id="edge9_Node000001_Node000010" class="edge">
<title>Node1&#45;&gt;Node10</title>
<g id="a_edge9_Node000001_Node000010"><a xlink:title=" ">
<path fill="none" stroke="#63b8ff" d="M530.76,-457.65C513.02,-499.28 476.81,-570.7 423.5,-611 418.21,-615 412.4,-618.49 406.32,-621.53"/>
<polygon fill="#63b8ff" stroke="#63b8ff" points="533.89,-459.22 534.49,-448.64 527.43,-456.54 533.89,-459.22"/>
</a>
</g>
</g>
<!-- Node11 -->
<g id="Node000011" class="node">
<title>Node11</title>
<g id="a_Node000011"><a xlink:href="../../d0/d53/class_deluxe_1_1_deluxe_brand_center_1_1_a_m_m_1_1_a_p_i_1_1_models_1_1_controller_result.html#a885706f628e6f2059f130c06bbe78cca" target="_top" xlink:title=" ">
<polygon fill="white" stroke="#666666" points="405.88,-602 236.12,-602 236.12,-558 405.88,-558 405.88,-602"/>
<text text-anchor="start" x="244.12" y="-588.5" font-family="Helvetica,sans-Serif" font-size="10.00">Deluxe.DeluxeBrandCenter.</text>
<text text-anchor="start" x="244.12" y="-576.5" font-family="Helvetica,sans-Serif" font-size="10.00">AMM.API.Models.ControllerResult.</text>
<text text-anchor="middle" x="321" y="-564.5" font-family="Helvetica,sans-Serif" font-size="10.00">From&lt; T &gt;</text>
</a>
</g>
</g>
<!-- Node1&#45;&gt;Node11 -->
<g id="edge10_Node000001_Node000011" class="edge">
<title>Node1&#45;&gt;Node11</title>
<g id="a_edge10_Node000001_Node000011"><a xlink:title=" ">
<path fill="none" stroke="#63b8ff" d="M520.79,-456.12C498.88,-484.2 463.19,-524.7 423.5,-549 418.08,-552.32 412.28,-555.31 406.29,-557.99"/>
<polygon fill="#63b8ff" stroke="#63b8ff" points="523.46,-458.39 526.76,-448.32 517.9,-454.14 523.46,-458.39"/>
</a>
</g>
</g>
<!-- Node12 -->
<g id="Node000012" class="node">
<title>Node12</title>
<g id="a_Node000012"><a xlink:href="../../d0/d53/class_deluxe_1_1_deluxe_brand_center_1_1_a_m_m_1_1_a_p_i_1_1_models_1_1_controller_result.html#a8f2bbd366906b4670b0bfc5cbcd32d27" target="_top" xlink:title=" ">
<polygon fill="white" stroke="#666666" points="405.88,-540 236.12,-540 236.12,-496 405.88,-496 405.88,-540"/>
<text text-anchor="start" x="244.12" y="-526.5" font-family="Helvetica,sans-Serif" font-size="10.00">Deluxe.DeluxeBrandCenter.</text>
<text text-anchor="start" x="244.12" y="-514.5" font-family="Helvetica,sans-Serif" font-size="10.00">AMM.API.Models.ControllerResult.</text>
<text text-anchor="middle" x="321" y="-502.5" font-family="Helvetica,sans-Serif" font-size="10.00">From&lt; T &gt;</text>
</a>
</g>
</g>
<!-- Node1&#45;&gt;Node12 -->
<g id="edge11_Node000001_Node000012" class="edge">
<title>Node1&#45;&gt;Node12</title>
<g id="a_edge11_Node000001_Node000012"><a xlink:title=" ">
<path fill="none" stroke="#63b8ff" d="M494.71,-452.72C473.29,-464.24 447.57,-477.19 423.5,-487 416.16,-489.99 408.43,-492.85 400.63,-495.54"/>
<polygon fill="#63b8ff" stroke="#63b8ff" points="496.1,-455.94 503.21,-448.09 492.75,-449.8 496.1,-455.94"/>
</a>
</g>
</g>
<!-- Node13 -->
<g id="Node000013" class="node">
<title>Node13</title>
<g id="a_Node000013"><a xlink:href="../../d0/d53/class_deluxe_1_1_deluxe_brand_center_1_1_a_m_m_1_1_a_p_i_1_1_models_1_1_controller_result.html#a3f376cabc208574ab60ed5934e684311" target="_top" xlink:title=" ">
<polygon fill="white" stroke="#666666" points="423.5,-478 218.5,-478 218.5,-434 423.5,-434 423.5,-478"/>
<text text-anchor="start" x="226.5" y="-464.5" font-family="Helvetica,sans-Serif" font-size="10.00">Deluxe.DeluxeBrandCenter.</text>
<text text-anchor="start" x="226.5" y="-452.5" font-family="Helvetica,sans-Serif" font-size="10.00">AMM.API.Models.ControllerResult.operator</text>
<text text-anchor="middle" x="321" y="-440.5" font-family="Helvetica,sans-Serif" font-size="10.00"> ControllerResult</text>
</a>
</g>
</g>
<!-- Node1&#45;&gt;Node13 -->
<g id="edge12_Node000001_Node000013" class="edge">
<title>Node1&#45;&gt;Node13</title>
<g id="a_edge12_Node000001_Node000013"><a xlink:title=" ">
<path fill="none" stroke="#63b8ff" d="M447.91,-438.37C439.96,-439.48 431.91,-440.61 423.92,-441.73"/>
<polygon fill="#63b8ff" stroke="#63b8ff" points="448.13,-441.87 457.55,-437.02 447.16,-434.94 448.13,-441.87"/>
</a>
</g>
</g>
<!-- Node14 -->
<g id="Node000014" class="node">
<title>Node14</title>
<g id="a_Node000014"><a xlink:href="../../d0/d53/class_deluxe_1_1_deluxe_brand_center_1_1_a_m_m_1_1_a_p_i_1_1_models_1_1_controller_result.html#aacbe3affc4dcfa844ee0b75c9830ef7a" target="_top" xlink:title=" ">
<polygon fill="white" stroke="#666666" points="423.5,-416 218.5,-416 218.5,-372 423.5,-372 423.5,-416"/>
<text text-anchor="start" x="226.5" y="-402.5" font-family="Helvetica,sans-Serif" font-size="10.00">Deluxe.DeluxeBrandCenter.</text>
<text text-anchor="start" x="226.5" y="-390.5" font-family="Helvetica,sans-Serif" font-size="10.00">AMM.API.Models.ControllerResult.operator</text>
<text text-anchor="middle" x="321" y="-378.5" font-family="Helvetica,sans-Serif" font-size="10.00"> ControllerResult</text>
</a>
</g>
</g>
<!-- Node1&#45;&gt;Node14 -->
<g id="edge13_Node000001_Node000014" class="edge">
<title>Node1&#45;&gt;Node14</title>
<g id="a_edge13_Node000001_Node000014"><a xlink:title=" ">
<path fill="none" stroke="#63b8ff" d="M447.91,-411.63C439.96,-410.52 431.91,-409.39 423.92,-408.27"/>
<polygon fill="#63b8ff" stroke="#63b8ff" points="447.16,-415.06 457.55,-412.98 448.13,-408.13 447.16,-415.06"/>
</a>
</g>
</g>
<!-- Node15 -->
<g id="Node000015" class="node">
<title>Node15</title>
<g id="a_Node000015"><a xlink:href="../../d0/d53/class_deluxe_1_1_deluxe_brand_center_1_1_a_m_m_1_1_a_p_i_1_1_models_1_1_controller_result.html#a88f82e7f4913d2c720f63e21a08094e8" target="_top" xlink:title=" ">
<polygon fill="white" stroke="#666666" points="423.5,-354 218.5,-354 218.5,-310 423.5,-310 423.5,-354"/>
<text text-anchor="start" x="226.5" y="-340.5" font-family="Helvetica,sans-Serif" font-size="10.00">Deluxe.DeluxeBrandCenter.</text>
<text text-anchor="start" x="226.5" y="-328.5" font-family="Helvetica,sans-Serif" font-size="10.00">AMM.API.Models.ControllerResult.operator</text>
<text text-anchor="middle" x="321" y="-316.5" font-family="Helvetica,sans-Serif" font-size="10.00"> ControllerResult&lt; T &gt;</text>
</a>
</g>
</g>
<!-- Node1&#45;&gt;Node15 -->
<g id="edge14_Node000001_Node000015" class="edge">
<title>Node1&#45;&gt;Node15</title>
<g id="a_edge14_Node000001_Node000015"><a xlink:title=" ">
<path fill="none" stroke="#63b8ff" d="M494.71,-397.28C473.29,-385.76 447.57,-372.81 423.5,-363 416.16,-360.01 408.43,-357.15 400.63,-354.46"/>
<polygon fill="#63b8ff" stroke="#63b8ff" points="492.75,-400.2 503.21,-401.91 496.1,-394.06 492.75,-400.2"/>
</a>
</g>
</g>
<!-- Node16 -->
<g id="Node000016" class="node">
<title>Node16</title>
<g id="a_Node000016"><a xlink:href="../../d0/d53/class_deluxe_1_1_deluxe_brand_center_1_1_a_m_m_1_1_a_p_i_1_1_models_1_1_controller_result.html#a973a22b7fed5135c1b3a8c0319ceace3" target="_top" xlink:title=" ">
<polygon fill="white" stroke="#666666" points="423.5,-292 218.5,-292 218.5,-248 423.5,-248 423.5,-292"/>
<text text-anchor="start" x="226.5" y="-278.5" font-family="Helvetica,sans-Serif" font-size="10.00">Deluxe.DeluxeBrandCenter.</text>
<text text-anchor="start" x="226.5" y="-266.5" font-family="Helvetica,sans-Serif" font-size="10.00">AMM.API.Models.ControllerResult.operator</text>
<text text-anchor="middle" x="321" y="-254.5" font-family="Helvetica,sans-Serif" font-size="10.00"> ControllerResult&lt; T &gt;</text>
</a>
</g>
</g>
<!-- Node1&#45;&gt;Node16 -->
<g id="edge15_Node000001_Node000016" class="edge">
<title>Node1&#45;&gt;Node16</title>
<g id="a_edge15_Node000001_Node000016"><a xlink:title=" ">
<path fill="none" stroke="#63b8ff" d="M520.79,-393.88C498.88,-365.8 463.19,-325.3 423.5,-301 418.39,-297.87 412.95,-295.04 407.33,-292.48"/>
<polygon fill="#63b8ff" stroke="#63b8ff" points="517.9,-395.86 526.76,-401.68 523.46,-391.61 517.9,-395.86"/>
</a>
</g>
</g>
<!-- Node17 -->
<g id="Node000017" class="node">
<title>Node17</title>
<g id="a_Node000017"><a xlink:href="../../d0/d53/class_deluxe_1_1_deluxe_brand_center_1_1_a_m_m_1_1_a_p_i_1_1_models_1_1_controller_result.html#a72b5e4eacc5cfffaf1d498c51c622360" target="_top" xlink:title=" ">
<polygon fill="white" stroke="#666666" points="423.5,-230 218.5,-230 218.5,-186 423.5,-186 423.5,-230"/>
<text text-anchor="start" x="226.5" y="-216.5" font-family="Helvetica,sans-Serif" font-size="10.00">Deluxe.DeluxeBrandCenter.</text>
<text text-anchor="start" x="226.5" y="-204.5" font-family="Helvetica,sans-Serif" font-size="10.00">AMM.API.Models.ControllerResult.operator</text>
<text text-anchor="middle" x="321" y="-192.5" font-family="Helvetica,sans-Serif" font-size="10.00"> ControllerResult&lt; T &gt;</text>
</a>
</g>
</g>
<!-- Node1&#45;&gt;Node17 -->
<g id="edge16_Node000001_Node000017" class="edge">
<title>Node1&#45;&gt;Node17</title>
<g id="a_edge16_Node000001_Node000017"><a xlink:title=" ">
<path fill="none" stroke="#63b8ff" d="M530.76,-392.35C513.02,-350.72 476.81,-279.3 423.5,-239 419.24,-235.78 414.64,-232.89 409.83,-230.3"/>
<polygon fill="#63b8ff" stroke="#63b8ff" points="527.43,-393.46 534.49,-401.36 533.89,-390.78 527.43,-393.46"/>
</a>
</g>
</g>
<!-- Node18 -->
<g id="Node000018" class="node">
<title>Node18</title>
<g id="a_Node000018"><a xlink:href="../../d0/d53/class_deluxe_1_1_deluxe_brand_center_1_1_a_m_m_1_1_a_p_i_1_1_models_1_1_controller_result.html#a98744407e2e624c303e32de55cf368f3" target="_top" xlink:title=" ">
<polygon fill="white" stroke="#666666" points="423.5,-168 218.5,-168 218.5,-124 423.5,-124 423.5,-168"/>
<text text-anchor="start" x="226.5" y="-154.5" font-family="Helvetica,sans-Serif" font-size="10.00">Deluxe.DeluxeBrandCenter.</text>
<text text-anchor="start" x="226.5" y="-142.5" font-family="Helvetica,sans-Serif" font-size="10.00">AMM.API.Models.ControllerResult.operator</text>
<text text-anchor="middle" x="321" y="-130.5" font-family="Helvetica,sans-Serif" font-size="10.00"> ControllerResult&lt; T &gt;</text>
</a>
</g>
</g>
<!-- Node1&#45;&gt;Node18 -->
<g id="edge17_Node000001_Node000018" class="edge">
<title>Node1&#45;&gt;Node18</title>
<g id="a_edge17_Node000001_Node000018"><a xlink:title=" ">
<path fill="none" stroke="#63b8ff" d="M536.33,-391.64C523.37,-338.45 490.68,-234.57 423.5,-177 419.72,-173.76 415.61,-170.86 411.28,-168.27"/>
<polygon fill="#63b8ff" stroke="#63b8ff" points="532.91,-392.39 538.6,-401.33 539.73,-390.79 532.91,-392.39"/>
</a>
</g>
</g>
<!-- Node19 -->
<g id="Node000019" class="node">
<title>Node19</title>
<g id="a_Node000019"><a xlink:href="../../d0/d53/class_deluxe_1_1_deluxe_brand_center_1_1_a_m_m_1_1_a_p_i_1_1_models_1_1_controller_result.html#a67a7285296b9244fb9997434f3532d05" target="_top" xlink:title=" ">
<polygon fill="white" stroke="#666666" points="423.5,-106 218.5,-106 218.5,-62 423.5,-62 423.5,-106"/>
<text text-anchor="start" x="226.5" y="-92.5" font-family="Helvetica,sans-Serif" font-size="10.00">Deluxe.DeluxeBrandCenter.</text>
<text text-anchor="start" x="226.5" y="-80.5" font-family="Helvetica,sans-Serif" font-size="10.00">AMM.API.Models.ControllerResult.operator</text>
<text text-anchor="middle" x="321" y="-68.5" font-family="Helvetica,sans-Serif" font-size="10.00"> ControllerResult&lt; T &gt;</text>
</a>
</g>
</g>
<!-- Node1&#45;&gt;Node19 -->
<g id="edge18_Node000001_Node000019" class="edge">
<title>Node1&#45;&gt;Node19</title>
<g id="a_edge18_Node000001_Node000019"><a xlink:title=" ">
<path fill="none" stroke="#63b8ff" d="M539.93,-391.29C531.66,-327.94 504.88,-190.68 423.5,-115 419.99,-111.74 416.15,-108.82 412.08,-106.21"/>
<polygon fill="#63b8ff" stroke="#63b8ff" points="536.44,-391.58 541.13,-401.08 543.39,-390.73 536.44,-391.58"/>
</a>
</g>
</g>
<!-- Node20 -->
<g id="Node000020" class="node">
<title>Node20</title>
<g id="a_Node000020"><a xlink:href="../../d0/d53/class_deluxe_1_1_deluxe_brand_center_1_1_a_m_m_1_1_a_p_i_1_1_models_1_1_controller_result.html#a95486863125b02e8b2df6d5c76f6a1c8" target="_top" xlink:title=" ">
<polygon fill="white" stroke="#666666" points="423.5,-44 218.5,-44 218.5,0 423.5,0 423.5,-44"/>
<text text-anchor="start" x="226.5" y="-30.5" font-family="Helvetica,sans-Serif" font-size="10.00">Deluxe.DeluxeBrandCenter.</text>
<text text-anchor="start" x="226.5" y="-18.5" font-family="Helvetica,sans-Serif" font-size="10.00">AMM.API.Models.ControllerResult.operator</text>
<text text-anchor="middle" x="321" y="-6.5" font-family="Helvetica,sans-Serif" font-size="10.00"> ControllerResult&lt; T &gt;</text>
</a>
</g>
</g>
<!-- Node1&#45;&gt;Node20 -->
<g id="edge19_Node000001_Node000020" class="edge">
<title>Node1&#45;&gt;Node20</title>
<g id="a_edge19_Node000001_Node000020"><a xlink:title=" ">
<path fill="none" stroke="#63b8ff" d="M542.47,-391.38C538.67,-319.03 519.44,-147.49 423.5,-53 420.22,-49.77 416.61,-46.87 412.77,-44.28"/>
<polygon fill="#63b8ff" stroke="#63b8ff" points="538.96,-391.17 542.9,-401 545.95,-390.85 538.96,-391.17"/>
</a>
</g>
</g>
<!-- Node5 -->
<g id="Node000005" class="node">
<title>Node5</title>
<g id="a_Node000005"><a xlink:href="../../d1/de1/class_deluxe_1_1_deluxe_brand_center_1_1_a_m_m_1_1_a_p_i_1_1_controllers_1_1_d_b_c_controller.html#adb76ae74c314067de76b60d21ee9c6d9" target="_top" xlink:title=" ">
<polygon fill="white" stroke="#666666" points="180.62,-844 1.88,-844 1.88,-800 180.62,-800 180.62,-844"/>
<text text-anchor="start" x="9.88" y="-830.5" font-family="Helvetica,sans-Serif" font-size="10.00">Deluxe.DeluxeBrandCenter.</text>
<text text-anchor="start" x="9.88" y="-818.5" font-family="Helvetica,sans-Serif" font-size="10.00">AMM.API.Controllers.DBCController.</text>
<text text-anchor="middle" x="91.25" y="-806.5" font-family="Helvetica,sans-Serif" font-size="10.00">GetAccountingUnits</text>
</a>
</g>
</g>
<!-- Node4&#45;&gt;Node5 -->
<g id="edge4_Node000004_Node000005" class="edge">
<title>Node4&#45;&gt;Node5</title>
<g id="a_edge4_Node000004_Node000005"><a xlink:title=" ">
<path fill="none" stroke="#63b8ff" d="M222.08,-720.36C220.86,-721.21 219.67,-722.09 218.5,-723 191.54,-744.04 208.49,-768.78 182.5,-791 178.72,-794.23 174.59,-797.13 170.24,-799.73"/>
<polygon fill="#63b8ff" stroke="#63b8ff" points="223.83,-723.4 230.6,-715.25 220.23,-717.4 223.83,-723.4"/>
</a>
</g>
</g>
<!-- Node6 -->
<g id="Node000006" class="node">
<title>Node6</title>
<g id="a_Node000006"><a xlink:href="../../de/d9b/class_deluxe_1_1_deluxe_brand_center_1_1_a_m_m_1_1_a_p_i_1_1_controllers_1_1_root_controller.html#a61c91311b0b4228ba5aa85bd39e1067e" target="_top" xlink:title=" ">
<polygon fill="white" stroke="#666666" points="180.25,-782 2.25,-782 2.25,-738 180.25,-738 180.25,-782"/>
<text text-anchor="start" x="10.25" y="-768.5" font-family="Helvetica,sans-Serif" font-size="10.00">Deluxe.DeluxeBrandCenter.</text>
<text text-anchor="start" x="10.25" y="-756.5" font-family="Helvetica,sans-Serif" font-size="10.00">AMM.API.Controllers.RootController.</text>
<text text-anchor="middle" x="91.25" y="-744.5" font-family="Helvetica,sans-Serif" font-size="10.00">GetJob&lt; T &gt;</text>
</a>
</g>
</g>
<!-- Node4&#45;&gt;Node6 -->
<g id="edge5_Node000004_Node000006" class="edge">
<title>Node4&#45;&gt;Node6</title>
<g id="a_edge5_Node000004_Node000006"><a xlink:title=" ">
<path fill="none" stroke="#63b8ff" d="M240.23,-717.3C232.87,-719.18 225.54,-721.1 218.5,-723 201.74,-727.52 183.8,-732.61 166.87,-737.55"/>
<polygon fill="#63b8ff" stroke="#63b8ff" points="241.08,-720.7 249.91,-714.84 239.35,-713.91 241.08,-720.7"/>
</a>
</g>
</g>
<!-- Node7 -->
<g id="Node000007" class="node">
<title>Node7</title>
<g id="a_Node000007"><a xlink:href="../../de/d9b/class_deluxe_1_1_deluxe_brand_center_1_1_a_m_m_1_1_a_p_i_1_1_controllers_1_1_root_controller.html#a78690c4b1cb19d441a6f42d6d1a1e62a" target="_top" xlink:title=" ">
<polygon fill="white" stroke="#666666" points="180.25,-720 2.25,-720 2.25,-676 180.25,-676 180.25,-720"/>
<text text-anchor="start" x="10.25" y="-706.5" font-family="Helvetica,sans-Serif" font-size="10.00">Deluxe.DeluxeBrandCenter.</text>
<text text-anchor="start" x="10.25" y="-694.5" font-family="Helvetica,sans-Serif" font-size="10.00">AMM.API.Controllers.RootController.</text>
<text text-anchor="middle" x="91.25" y="-682.5" font-family="Helvetica,sans-Serif" font-size="10.00">GetJobApiResponse&lt; T &gt;</text>
</a>
</g>
</g>
<!-- Node4&#45;&gt;Node7 -->
<g id="edge6_Node000004_Node000007" class="edge">
<title>Node4&#45;&gt;Node7</title>
<g id="a_edge6_Node000004_Node000007"><a xlink:title=" ">
<path fill="none" stroke="#63b8ff" d="M213.14,-698C202.28,-698 191.33,-698 180.7,-698"/>
<polygon fill="#63b8ff" stroke="#63b8ff" points="212.89,-701.5 222.89,-698 212.89,-694.5 212.89,-701.5"/>
</a>
</g>
</g>
<!-- Node8 -->
<g id="Node000008" class="node">
<title>Node8</title>
<g id="a_Node000008"><a xlink:href="../../de/d9b/class_deluxe_1_1_deluxe_brand_center_1_1_a_m_m_1_1_a_p_i_1_1_controllers_1_1_root_controller.html#a19c2451db5f600b7fd7aeecd8baf68ed" target="_top" xlink:title=" ">
<polygon fill="white" stroke="#666666" points="180.25,-658 2.25,-658 2.25,-614 180.25,-614 180.25,-658"/>
<text text-anchor="start" x="10.25" y="-644.5" font-family="Helvetica,sans-Serif" font-size="10.00">Deluxe.DeluxeBrandCenter.</text>
<text text-anchor="start" x="10.25" y="-632.5" font-family="Helvetica,sans-Serif" font-size="10.00">AMM.API.Controllers.RootController.</text>
<text text-anchor="middle" x="91.25" y="-620.5" font-family="Helvetica,sans-Serif" font-size="10.00">GetJobServiceResult&lt; T &gt;</text>
</a>
</g>
</g>
<!-- Node4&#45;&gt;Node8 -->
<g id="edge7_Node000004_Node000008" class="edge">
<title>Node4&#45;&gt;Node8</title>
<g id="a_edge7_Node000004_Node000008"><a xlink:title=" ">
<path fill="none" stroke="#63b8ff" d="M240.23,-678.7C232.87,-676.82 225.54,-674.9 218.5,-673 201.74,-668.48 183.8,-663.39 166.87,-658.45"/>
<polygon fill="#63b8ff" stroke="#63b8ff" points="239.35,-682.09 249.91,-681.16 241.08,-675.3 239.35,-682.09"/>
</a>
</g>
</g>
<!-- Node9 -->
<g id="Node000009" class="node">
<title>Node9</title>
<g id="a_Node000009"><a xlink:href="../../d4/dfa/class_deluxe_1_1_deluxe_brand_center_1_1_a_m_m_1_1_a_p_i_1_1_controllers_1_1_utility_controller.html#a44d5ae94a1a648195f3b9419f2527924" target="_top" xlink:title="Get a list of all Time Zones.">
<polygon fill="white" stroke="#666666" points="182.5,-596 0,-596 0,-552 182.5,-552 182.5,-596"/>
<text text-anchor="start" x="8" y="-582.5" font-family="Helvetica,sans-Serif" font-size="10.00">Deluxe.DeluxeBrandCenter.</text>
<text text-anchor="start" x="8" y="-570.5" font-family="Helvetica,sans-Serif" font-size="10.00">AMM.API.Controllers.UtilityController.</text>
<text text-anchor="middle" x="91.25" y="-558.5" font-family="Helvetica,sans-Serif" font-size="10.00">GetTimeZones</text>
</a>
</g>
</g>
<!-- Node4&#45;&gt;Node9 -->
<g id="edge8_Node000004_Node000009" class="edge">
<title>Node4&#45;&gt;Node9</title>
<g id="a_edge8_Node000004_Node000009"><a xlink:title=" ">
<path fill="none" stroke="#63b8ff" d="M222.08,-675.64C220.86,-674.79 219.67,-673.91 218.5,-673 191.54,-651.96 208.49,-627.22 182.5,-605 178.72,-601.77 174.59,-598.87 170.24,-596.27"/>
<polygon fill="#63b8ff" stroke="#63b8ff" points="220.23,-678.6 230.6,-680.75 223.83,-672.6 220.23,-678.6"/>
</a>
</g>
</g>
</g>
</svg>
