<?xml version="1.0" encoding="UTF-8" standalone="no"?>
<!DOCTYPE svg PUBLIC "-//W3C//DTD SVG 1.1//EN"
 "http://www.w3.org/Graphics/SVG/1.1/DTD/svg11.dtd">
<!-- Generated by graphviz version 12.1.1 (20240910.0053)
 -->
<!-- Title: Deluxe.DeluxeBrandCenter.AMM.Domain.ViewModel.BaseEntityNamedVM Pages: 1 -->
<svg width="547pt" height="650pt"
 viewBox="0.00 0.00 547.25 650.00" xmlns="http://www.w3.org/2000/svg" xmlns:xlink="http://www.w3.org/1999/xlink">
<g id="graph0" class="graph" transform="scale(1 1) rotate(0) translate(4 646)">
<title>Deluxe.DeluxeBrandCenter.AMM.Domain.ViewModel.BaseEntityNamedVM</title>
<!-- Node1 -->
<g id="Node000001" class="node">
<title>Node1</title>
<g id="a_Node000001"><a xlink:title=" ">
<polygon fill="#999999" stroke="#666666" points="293,-349 115,-349 115,-305 293,-305 293,-349"/>
<text text-anchor="start" x="123" y="-335.5" font-family="Helvetica,sans-Serif" font-size="10.00">Deluxe.DeluxeBrandCenter.</text>
<text text-anchor="start" x="123" y="-323.5" font-family="Helvetica,sans-Serif" font-size="10.00">AMM.Domain.ViewModel.BaseEntity</text>
<text text-anchor="middle" x="204" y="-311.5" font-family="Helvetica,sans-Serif" font-size="10.00">NamedVM</text>
</a>
</g>
</g>
<!-- Node3 -->
<g id="Node000003" class="node">
<title>Node3</title>
<g id="a_Node000003"><a xlink:href="../../d5/d1e/class_deluxe_1_1_deluxe_brand_center_1_1_a_m_m_1_1_domain_1_1_campaign_element_v_m.html" target="_top" xlink:title=" ">
<polygon fill="white" stroke="#666666" points="521.25,-642 347,-642 347,-610 521.25,-610 521.25,-642"/>
<text text-anchor="start" x="355" y="-628.5" font-family="Helvetica,sans-Serif" font-size="10.00">Deluxe.DeluxeBrandCenter.</text>
<text text-anchor="middle" x="434.12" y="-616.5" font-family="Helvetica,sans-Serif" font-size="10.00">AMM.Domain.CampaignElementVM</text>
</a>
</g>
</g>
<!-- Node1&#45;&gt;Node3 -->
<g id="edge2_Node000001_Node000003" class="edge">
<title>Node1&#45;&gt;Node3</title>
<g id="a_edge2_Node000001_Node000003"><a xlink:title=" ">
<path fill="none" stroke="#63b8ff" d="M210.41,-360.58C221.6,-418.77 252.94,-538.13 329,-601 334.3,-605.38 340.25,-609.02 346.54,-612.04"/>
<polygon fill="#63b8ff" stroke="#63b8ff" points="213.89,-360.16 208.65,-350.95 207,-361.42 213.89,-360.16"/>
</a>
</g>
</g>
<!-- Node4 -->
<g id="Node000004" class="node">
<title>Node4</title>
<g id="a_Node000004"><a xlink:href="../../d9/d46/class_deluxe_1_1_deluxe_brand_center_1_1_a_m_m_1_1_domain_1_1_view_model_1_1_account_status_v_m.html" target="_top" xlink:title=" ">
<polygon fill="white" stroke="#666666" points="538.88,-592 329.38,-592 329.38,-560 538.88,-560 538.88,-592"/>
<text text-anchor="start" x="337.38" y="-578.5" font-family="Helvetica,sans-Serif" font-size="10.00">Deluxe.DeluxeBrandCenter.</text>
<text text-anchor="middle" x="434.12" y="-566.5" font-family="Helvetica,sans-Serif" font-size="10.00">AMM.Domain.ViewModel.AccountStatusVM</text>
</a>
</g>
</g>
<!-- Node1&#45;&gt;Node4 -->
<g id="edge3_Node000001_Node000004" class="edge">
<title>Node1&#45;&gt;Node4</title>
<g id="a_edge3_Node000001_Node000004"><a xlink:title=" ">
<path fill="none" stroke="#63b8ff" d="M214,-360.18C229.17,-409.63 264.68,-502.06 329,-551 333.29,-554.26 337.95,-557.11 342.83,-559.59"/>
<polygon fill="#63b8ff" stroke="#63b8ff" points="217.44,-359.5 211.25,-350.9 210.73,-361.49 217.44,-359.5"/>
</a>
</g>
</g>
<!-- Node5 -->
<g id="Node000005" class="node">
<title>Node5</title>
<g id="a_Node000005"><a xlink:href="../../d1/d2b/class_deluxe_1_1_deluxe_brand_center_1_1_a_m_m_1_1_domain_1_1_view_model_1_1_campaign_v_m.html" target="_top" xlink:title=" ">
<polygon fill="white" stroke="#666666" points="528.75,-542 339.5,-542 339.5,-510 528.75,-510 528.75,-542"/>
<text text-anchor="start" x="347.5" y="-528.5" font-family="Helvetica,sans-Serif" font-size="10.00">Deluxe.DeluxeBrandCenter.</text>
<text text-anchor="middle" x="434.12" y="-516.5" font-family="Helvetica,sans-Serif" font-size="10.00">AMM.Domain.ViewModel.CampaignVM</text>
</a>
</g>
</g>
<!-- Node1&#45;&gt;Node5 -->
<g id="edge4_Node000001_Node000005" class="edge">
<title>Node1&#45;&gt;Node5</title>
<g id="a_edge4_Node000001_Node000005"><a xlink:title=" ">
<path fill="none" stroke="#63b8ff" d="M219.29,-359.55C238.43,-399.22 276.19,-465.36 329,-501 333.85,-504.28 339.09,-507.12 344.54,-509.6"/>
<polygon fill="#63b8ff" stroke="#63b8ff" points="222.56,-358.28 215.14,-350.72 216.23,-361.26 222.56,-358.28"/>
</a>
</g>
</g>
<!-- Node6 -->
<g id="Node000006" class="node">
<title>Node6</title>
<g id="a_Node000006"><a xlink:href="../../df/d7f/class_deluxe_1_1_deluxe_brand_center_1_1_a_m_m_1_1_domain_1_1_view_model_1_1_client_v_m.html" target="_top" xlink:title=" ">
<polygon fill="white" stroke="#666666" points="519.38,-492 348.88,-492 348.88,-460 519.38,-460 519.38,-492"/>
<text text-anchor="start" x="356.88" y="-478.5" font-family="Helvetica,sans-Serif" font-size="10.00">Deluxe.DeluxeBrandCenter.</text>
<text text-anchor="middle" x="434.12" y="-466.5" font-family="Helvetica,sans-Serif" font-size="10.00">AMM.Domain.ViewModel.ClientVM</text>
</a>
</g>
</g>
<!-- Node1&#45;&gt;Node6 -->
<g id="edge5_Node000001_Node000006" class="edge">
<title>Node1&#45;&gt;Node6</title>
<g id="a_edge5_Node000001_Node000006"><a xlink:title=" ">
<path fill="none" stroke="#63b8ff" d="M227.58,-357.81C250.1,-386.29 287.29,-427.64 329,-451 335.16,-454.45 341.79,-457.43 348.61,-460"/>
<polygon fill="#63b8ff" stroke="#63b8ff" points="230.61,-356.01 221.72,-350.25 225.08,-360.29 230.61,-356.01"/>
</a>
</g>
</g>
<!-- Node7 -->
<g id="Node000007" class="node">
<title>Node7</title>
<g id="a_Node000007"><a xlink:href="../../d5/d30/class_deluxe_1_1_deluxe_brand_center_1_1_a_m_m_1_1_domain_1_1_view_model_1_1_contact_manager_1_1_associated_group_v_m.html" target="_top" xlink:title=" ">
<polygon fill="white" stroke="#666666" points="536.62,-442 331.62,-442 331.62,-398 536.62,-398 536.62,-442"/>
<text text-anchor="start" x="339.62" y="-428.5" font-family="Helvetica,sans-Serif" font-size="10.00">Deluxe.DeluxeBrandCenter.</text>
<text text-anchor="start" x="339.62" y="-416.5" font-family="Helvetica,sans-Serif" font-size="10.00">AMM.Domain.ViewModel.ContactManager.</text>
<text text-anchor="middle" x="434.12" y="-404.5" font-family="Helvetica,sans-Serif" font-size="10.00">AssociatedGroupVM</text>
</a>
</g>
</g>
<!-- Node1&#45;&gt;Node7 -->
<g id="edge6_Node000001_Node000007" class="edge">
<title>Node1&#45;&gt;Node7</title>
<g id="a_edge6_Node000001_Node000007"><a xlink:title=" ">
<path fill="none" stroke="#63b8ff" d="M255.41,-354.71C277.58,-366.23 304.17,-379.18 329,-389 336.54,-391.98 344.49,-394.84 352.49,-397.52"/>
<polygon fill="#63b8ff" stroke="#63b8ff" points="257.05,-351.62 246.57,-350.06 253.79,-357.81 257.05,-351.62"/>
</a>
</g>
</g>
<!-- Node8 -->
<g id="Node000008" class="node">
<title>Node8</title>
<g id="a_Node000008"><a xlink:href="../../db/d28/class_deluxe_1_1_deluxe_brand_center_1_1_a_m_m_1_1_domain_1_1_view_model_1_1_contact_manager_1_1_contact_group_v_m.html" target="_top" xlink:title=" ">
<polygon fill="white" stroke="#666666" points="536.62,-380 331.62,-380 331.62,-336 536.62,-336 536.62,-380"/>
<text text-anchor="start" x="339.62" y="-366.5" font-family="Helvetica,sans-Serif" font-size="10.00">Deluxe.DeluxeBrandCenter.</text>
<text text-anchor="start" x="339.62" y="-354.5" font-family="Helvetica,sans-Serif" font-size="10.00">AMM.Domain.ViewModel.ContactManager.</text>
<text text-anchor="middle" x="434.12" y="-342.5" font-family="Helvetica,sans-Serif" font-size="10.00">ContactGroupVM</text>
</a>
</g>
</g>
<!-- Node1&#45;&gt;Node8 -->
<g id="edge7_Node000001_Node000008" class="edge">
<title>Node1&#45;&gt;Node8</title>
<g id="a_edge7_Node000001_Node000008"><a xlink:title=" ">
<path fill="none" stroke="#63b8ff" d="M304.47,-340.52C313.42,-341.73 322.51,-342.97 331.48,-344.19"/>
<polygon fill="#63b8ff" stroke="#63b8ff" points="305.08,-337.07 294.7,-339.19 304.14,-344 305.08,-337.07"/>
</a>
</g>
</g>
<!-- Node9 -->
<g id="Node000009" class="node">
<title>Node9</title>
<g id="a_Node000009"><a xlink:href="../../d8/d8d/class_deluxe_1_1_deluxe_brand_center_1_1_a_m_m_1_1_domain_1_1_view_model_1_1_contact_manager_1_1_contact_tag_v_m.html" target="_top" xlink:title=" ">
<polygon fill="white" stroke="#666666" points="536.62,-318 331.62,-318 331.62,-274 536.62,-274 536.62,-318"/>
<text text-anchor="start" x="339.62" y="-304.5" font-family="Helvetica,sans-Serif" font-size="10.00">Deluxe.DeluxeBrandCenter.</text>
<text text-anchor="start" x="339.62" y="-292.5" font-family="Helvetica,sans-Serif" font-size="10.00">AMM.Domain.ViewModel.ContactManager.</text>
<text text-anchor="middle" x="434.12" y="-280.5" font-family="Helvetica,sans-Serif" font-size="10.00">ContactTagVM</text>
</a>
</g>
</g>
<!-- Node1&#45;&gt;Node9 -->
<g id="edge8_Node000001_Node000009" class="edge">
<title>Node1&#45;&gt;Node9</title>
<g id="a_edge8_Node000001_Node000009"><a xlink:title=" ">
<path fill="none" stroke="#63b8ff" d="M304.47,-313.48C313.42,-312.27 322.51,-311.03 331.48,-309.81"/>
<polygon fill="#63b8ff" stroke="#63b8ff" points="304.14,-310 294.7,-314.81 305.08,-316.93 304.14,-310"/>
</a>
</g>
</g>
<!-- Node10 -->
<g id="Node000010" class="node">
<title>Node10</title>
<g id="a_Node000010"><a xlink:href="../../d2/da8/class_deluxe_1_1_deluxe_brand_center_1_1_a_m_m_1_1_domain_1_1_view_model_1_1_editor_field_v_m.html" target="_top" xlink:title=" ">
<polygon fill="white" stroke="#666666" points="529.88,-256 338.38,-256 338.38,-224 529.88,-224 529.88,-256"/>
<text text-anchor="start" x="346.38" y="-242.5" font-family="Helvetica,sans-Serif" font-size="10.00">Deluxe.DeluxeBrandCenter.</text>
<text text-anchor="middle" x="434.12" y="-230.5" font-family="Helvetica,sans-Serif" font-size="10.00">AMM.Domain.ViewModel.EditorFieldVM</text>
</a>
</g>
</g>
<!-- Node1&#45;&gt;Node10 -->
<g id="edge9_Node000001_Node000010" class="edge">
<title>Node1&#45;&gt;Node10</title>
<g id="a_edge9_Node000001_Node000010"><a xlink:title=" ">
<path fill="none" stroke="#63b8ff" d="M254.09,-299.21C276.42,-287.43 303.51,-274.29 329,-265 337.56,-261.88 346.66,-259.04 355.77,-256.48"/>
<polygon fill="#63b8ff" stroke="#63b8ff" points="252.68,-296 245.52,-303.8 255.99,-302.17 252.68,-296"/>
</a>
</g>
</g>
<!-- Node11 -->
<g id="Node000011" class="node">
<title>Node11</title>
<g id="a_Node000011"><a xlink:href="../../d8/dab/class_deluxe_1_1_deluxe_brand_center_1_1_a_m_m_1_1_domain_1_1_view_model_1_1_settings_v_m.html" target="_top" xlink:title=" ">
<polygon fill="white" stroke="#666666" points="524.62,-206 343.62,-206 343.62,-174 524.62,-174 524.62,-206"/>
<text text-anchor="start" x="351.62" y="-192.5" font-family="Helvetica,sans-Serif" font-size="10.00">Deluxe.DeluxeBrandCenter.</text>
<text text-anchor="middle" x="434.12" y="-180.5" font-family="Helvetica,sans-Serif" font-size="10.00">AMM.Domain.ViewModel.SettingsVM</text>
</a>
</g>
</g>
<!-- Node1&#45;&gt;Node11 -->
<g id="edge10_Node000001_Node000011" class="edge">
<title>Node1&#45;&gt;Node11</title>
<g id="a_edge10_Node000001_Node000011"><a xlink:title=" ">
<path fill="none" stroke="#63b8ff" d="M230.83,-296.33C253.99,-270.8 290.21,-235.45 329,-215 335.17,-211.75 341.76,-208.91 348.53,-206.44"/>
<polygon fill="#63b8ff" stroke="#63b8ff" points="228.24,-293.98 224.21,-303.78 233.47,-298.63 228.24,-293.98"/>
</a>
</g>
</g>
<!-- Node12 -->
<g id="Node000012" class="node">
<title>Node12</title>
<g id="a_Node000012"><a xlink:href="../../d0/d97/class_deluxe_1_1_deluxe_brand_center_1_1_a_m_m_1_1_domain_1_1_view_model_1_1_signature_block_v_m.html" target="_top" xlink:title=" ">
<polygon fill="white" stroke="#666666" points="519.75,-156 348.5,-156 348.5,-112 519.75,-112 519.75,-156"/>
<text text-anchor="start" x="356.5" y="-142.5" font-family="Helvetica,sans-Serif" font-size="10.00">Deluxe.DeluxeBrandCenter.</text>
<text text-anchor="start" x="356.5" y="-130.5" font-family="Helvetica,sans-Serif" font-size="10.00">AMM.Domain.ViewModel.Signature</text>
<text text-anchor="middle" x="434.12" y="-118.5" font-family="Helvetica,sans-Serif" font-size="10.00">BlockVM</text>
</a>
</g>
</g>
<!-- Node1&#45;&gt;Node12 -->
<g id="edge11_Node000001_Node000012" class="edge">
<title>Node1&#45;&gt;Node12</title>
<g id="a_edge11_Node000001_Node000012"><a xlink:title=" ">
<path fill="none" stroke="#63b8ff" d="M221.45,-294.83C241.83,-258.11 279.95,-198.8 329,-165 334.9,-160.93 341.35,-157.39 348.04,-154.31"/>
<polygon fill="#63b8ff" stroke="#63b8ff" points="218.59,-292.75 216.9,-303.21 224.74,-296.09 218.59,-292.75"/>
</a>
</g>
</g>
<!-- Node13 -->
<g id="Node000013" class="node">
<title>Node13</title>
<g id="a_Node000013"><a xlink:href="../../d5/dca/class_deluxe_1_1_deluxe_brand_center_1_1_a_m_m_1_1_domain_1_1_view_model_1_1_user_campaign_simple_v_m.html" target="_top" xlink:title=" ">
<polygon fill="white" stroke="#666666" points="531.75,-94 336.5,-94 336.5,-50 531.75,-50 531.75,-94"/>
<text text-anchor="start" x="344.5" y="-80.5" font-family="Helvetica,sans-Serif" font-size="10.00">Deluxe.DeluxeBrandCenter.</text>
<text text-anchor="start" x="344.5" y="-68.5" font-family="Helvetica,sans-Serif" font-size="10.00">AMM.Domain.ViewModel.UserCampaign</text>
<text text-anchor="middle" x="434.12" y="-56.5" font-family="Helvetica,sans-Serif" font-size="10.00">SimpleVM</text>
</a>
</g>
</g>
<!-- Node1&#45;&gt;Node13 -->
<g id="edge12_Node000001_Node000013" class="edge">
<title>Node1&#45;&gt;Node13</title>
<g id="a_edge12_Node000001_Node000013"><a xlink:title=" ">
<path fill="none" stroke="#63b8ff" d="M214.55,-293.56C230.28,-244.51 266.31,-153.42 329,-103 332.97,-99.81 337.26,-96.95 341.76,-94.38"/>
<polygon fill="#63b8ff" stroke="#63b8ff" points="211.23,-292.47 211.61,-303.06 217.91,-294.55 211.23,-292.47"/>
</a>
</g>
</g>
<!-- Node14 -->
<g id="Node000014" class="node">
<title>Node14</title>
<g id="a_Node000014"><a xlink:href="../../dd/df2/class_deluxe_1_1_deluxe_brand_center_1_1_a_m_m_1_1_domain_1_1_view_model_1_1_user_campaign_v_m.html" target="_top" xlink:title=" ">
<polygon fill="white" stroke="#666666" points="539.25,-32 329,-32 329,0 539.25,0 539.25,-32"/>
<text text-anchor="start" x="337" y="-18.5" font-family="Helvetica,sans-Serif" font-size="10.00">Deluxe.DeluxeBrandCenter.</text>
<text text-anchor="middle" x="434.12" y="-6.5" font-family="Helvetica,sans-Serif" font-size="10.00">AMM.Domain.ViewModel.UserCampaignVM</text>
</a>
</g>
</g>
<!-- Node1&#45;&gt;Node14 -->
<g id="edge13_Node000001_Node000014" class="edge">
<title>Node1&#45;&gt;Node14</title>
<g id="a_edge13_Node000001_Node000014"><a xlink:title=" ">
<path fill="none" stroke="#63b8ff" d="M209.65,-293.7C219.85,-233.68 249.94,-107.41 329,-41 332.84,-37.77 337.03,-34.95 341.46,-32.47"/>
<polygon fill="#63b8ff" stroke="#63b8ff" points="206.24,-292.86 208.11,-303.29 213.15,-293.97 206.24,-292.86"/>
</a>
</g>
</g>
<!-- Node2 -->
<g id="Node000002" class="node">
<title>Node2</title>
<g id="a_Node000002"><a xlink:href="../../de/de3/class_deluxe_1_1_deluxe_brand_center_1_1_a_m_m_1_1_domain_1_1_view_model_1_1_base_entity_v_m.html" target="_top" xlink:title=" ">
<polygon fill="white" stroke="#666666" points="79,-337 0,-337 0,-317 79,-317 79,-337"/>
<text text-anchor="middle" x="39.5" y="-323.5" font-family="Helvetica,sans-Serif" font-size="10.00">BaseEntityVM</text>
</a>
</g>
</g>
<!-- Node2&#45;&gt;Node1 -->
<g id="edge1_Node000001_Node000002" class="edge">
<title>Node2&#45;&gt;Node1</title>
<g id="a_edge1_Node000001_Node000002"><a xlink:title=" ">
<path fill="none" stroke="#63b8ff" d="M90.73,-327C98.43,-327 106.57,-327 114.8,-327"/>
<polygon fill="#63b8ff" stroke="#63b8ff" points="90.94,-323.5 80.94,-327 90.94,-330.5 90.94,-323.5"/>
</a>
</g>
</g>
</g>
</svg>
