<?xml version="1.0" encoding="UTF-8" standalone="no"?>
<!DOCTYPE svg PUBLIC "-//W3C//DTD SVG 1.1//EN"
 "http://www.w3.org/Graphics/SVG/1.1/DTD/svg11.dtd">
<!-- Generated by graphviz version 12.1.1 (20240910.0053)
 -->
<!-- Title: Deluxe.DeluxeBrandCenter.AMM.API.Services.ContactManagerService.GetGroups Pages: 1 -->
<!--zoomable 356 -->

<svg id="main" version="1.1" xmlns="http://www.w3.org/2000/svg" xmlns:xlink="http://www.w3.org/1999/xlink" xml:space="preserve" onload="init(evt)">

<style type="text/css"><![CDATA[
.node, .edge {opacity: 0.7;}
.node.selected, .edge.selected {opacity: 1;}
.edge:hover path { stroke: red; }
.edge:hover polygon { stroke: red; fill: red; }
]]></style>

<defs>
  <circle id="rim" cx="0" cy="0" r="7"/>
  <circle id="rim2" cx="0" cy="0" r="3.5"/>
  <g id="zoomPlus">
    <use xlink:href="#rim" fill="#404040"><set attributeName="fill" to="#808080" begin="zoomplus.mouseover" end="zoomplus.mouseout"/></use>
    <path d="M-4,0h8M0,-4v8" fill="none" stroke="white" stroke-width="1.5" pointer-events="none"/>
  </g>
  <g id="zoomMin">
    <use xlink:href="#rim" fill="#404040"><set attributeName="fill" to="#808080" begin="zoomminus.mouseover" end="zoomminus.mouseout"/></use>
    <path d="M-4,0h8" fill="none" stroke="white" stroke-width="1.5" pointer-events="none"/>
  </g>
  <g id="arrowUp" transform="translate(30 24)">
    <use xlink:href="#rim"/>
    <path pointer-events="none" fill="none" stroke="white" stroke-width="1.5" d="M0,-3.0v7 M-2.5,-0.5L0,-3.0L2.5,-0.5"/>
  </g>
  <g id="arrowRight" transform="rotate(90) translate(36 -43)">
    <use xlink:href="#rim"/>
    <path pointer-events="none" fill="none" stroke="white" stroke-width="1.5" d="M0,-3.0v7 M-2.5,-0.5L0,-3.0L2.5,-0.5"/>
  </g>
  <g id="arrowDown" transform="rotate(180) translate(-30 -48)">
    <use xlink:href="#rim"/>
    <path pointer-events="none" fill="none" stroke="white" stroke-width="1.5" d="M0,-3.0v7 M-2.5,-0.5L0,-3.0L2.5,-0.5"/>
  </g>
  <g id="arrowLeft" transform="rotate(270) translate(-36 17)">
    <use xlink:href="#rim"/>
    <path pointer-events="none" fill="none" stroke="white" stroke-width="1.5" d="M0,-3.0v7 M-2.5,-0.5L0,-3.0L2.5,-0.5"/>
  </g>
  <g id="resetDef">
    <use xlink:href="#rim2" fill="#404040"><set attributeName="fill" to="#808080" begin="reset.mouseover" end="reset.mouseout"/></use>
  </g>
</defs>
<script type="application/ecmascript">
var viewWidth = 1543;
var viewHeight = 356;
var sectionId = 'dynsection-50';
</script>
<script type="application/ecmascript" xlink:href="../../svg.min.js"/>
<svg id="graph" class="graph">
<g id="viewport">
<title>Deluxe.DeluxeBrandCenter.AMM.API.Services.ContactManagerService.GetGroups</title>
<!-- Node1 -->
<g id="Node000001" class="node">
<title>Node1</title>
<g id="a_Node000001"><a xlink:title="Get paginated list of groups.">
<polygon fill="#999999" stroke="#666666" points="175,-307 0,-307 0,-263 175,-263 175,-307"/>
<text text-anchor="start" x="8" y="-293.5" font-family="Helvetica,sans-Serif" font-size="10.00">Deluxe.DeluxeBrandCenter.</text>
<text text-anchor="start" x="8" y="-281.5" font-family="Helvetica,sans-Serif" font-size="10.00">AMM.API.Services.ContactManager</text>
<text text-anchor="middle" x="87.5" y="-269.5" font-family="Helvetica,sans-Serif" font-size="10.00">Service.GetGroups</text>
</a>
</g>
</g>
<!-- Node2 -->
<g id="Node000002" class="node">
<title>Node2</title>
<g id="a_Node000002"><a xlink:href="../../d4/d06/class_deluxe_1_1_deluxe_brand_center_1_1_a_m_m_1_1_a_p_i_1_1_services_1_1_contact_manager_service.html#a15078488db9949c55dbf5ed4655f81bf" target="_top" xlink:title="Get filtered List of Contacts.">
<polygon fill="white" stroke="#666666" points="386,-282 211,-282 211,-238 386,-238 386,-282"/>
<text text-anchor="start" x="219" y="-268.5" font-family="Helvetica,sans-Serif" font-size="10.00">Deluxe.DeluxeBrandCenter.</text>
<text text-anchor="start" x="219" y="-256.5" font-family="Helvetica,sans-Serif" font-size="10.00">AMM.API.Services.ContactManager</text>
<text text-anchor="middle" x="298.5" y="-244.5" font-family="Helvetica,sans-Serif" font-size="10.00">Service.GetContacts</text>
</a>
</g>
</g>
<!-- Node1&#45;&gt;Node2 -->
<g id="edge1_Node000001_Node000002" class="edge">
<title>Node1&#45;&gt;Node2</title>
<g id="a_edge1_Node000001_Node000002"><a xlink:title=" ">
<path fill="none" stroke="#63b8ff" d="M175.32,-274.61C183.25,-273.67 191.31,-272.7 199.33,-271.74"/>
<polygon fill="#63b8ff" stroke="#63b8ff" points="199.6,-275.24 209.11,-270.57 198.77,-268.29 199.6,-275.24"/>
</a>
</g>
</g>
<!-- Node5 -->
<g id="Node000005" class="node">
<title>Node5</title>
<g id="a_Node000005"><a xlink:href="../../d4/d06/class_deluxe_1_1_deluxe_brand_center_1_1_a_m_m_1_1_a_p_i_1_1_services_1_1_contact_manager_service.html#af5c0313fcaae40d09f41022ef3f1d08d" target="_top" xlink:title=" ">
<polygon fill="white" stroke="#666666" points="1083.12,-282 908.12,-282 908.12,-238 1083.12,-238 1083.12,-282"/>
<text text-anchor="start" x="916.12" y="-268.5" font-family="Helvetica,sans-Serif" font-size="10.00">Deluxe.DeluxeBrandCenter.</text>
<text text-anchor="start" x="916.12" y="-256.5" font-family="Helvetica,sans-Serif" font-size="10.00">AMM.API.Services.ContactManager</text>
<text text-anchor="middle" x="995.62" y="-244.5" font-family="Helvetica,sans-Serif" font-size="10.00">Service.GetContactsForFilteringOut</text>
</a>
</g>
</g>
<!-- Node1&#45;&gt;Node5 -->
<g id="edge7_Node000001_Node000005" class="edge">
<title>Node1&#45;&gt;Node5</title>
<g id="a_edge7_Node000001_Node000005"><a xlink:title=" ">
<path fill="none" stroke="#63b8ff" d="M175.38,-292.6C319,-303.63 614.72,-319.76 862.75,-291 875.22,-289.55 888.22,-287.36 900.99,-284.8"/>
<polygon fill="#63b8ff" stroke="#63b8ff" points="901.58,-288.25 910.65,-282.78 900.14,-281.4 901.58,-288.25"/>
</a>
</g>
</g>
<!-- Node7 -->
<g id="Node000007" class="node">
<title>Node7</title>
<g id="a_Node000007"><a xlink:href="../../dd/d7d/interface_deluxe_1_1_deluxe_brand_center_1_1_a_m_m_1_1_domain_1_1_services_1_1_i_session_service.html#acfcf18f3c8f0b4e9c334223ec33b588f" target="_top" xlink:title=" ">
<polygon fill="white" stroke="#666666" points="1534.75,-282 1340.25,-282 1340.25,-238 1534.75,-238 1534.75,-282"/>
<text text-anchor="start" x="1348.25" y="-268.5" font-family="Helvetica,sans-Serif" font-size="10.00">Deluxe.DeluxeBrandCenter.</text>
<text text-anchor="start" x="1348.25" y="-256.5" font-family="Helvetica,sans-Serif" font-size="10.00">AMM.Domain.Services.ISessionService.</text>
<text text-anchor="middle" x="1437.5" y="-244.5" font-family="Helvetica,sans-Serif" font-size="10.00">SessionGetUser</text>
</a>
</g>
</g>
<!-- Node1&#45;&gt;Node7 -->
<g id="edge16_Node000001_Node000007" class="edge">
<title>Node1&#45;&gt;Node7</title>
<g id="a_edge16_Node000001_Node000007"><a xlink:title=" ">
<path fill="none" stroke="#63b8ff" d="M175.23,-306.88C187.2,-309.5 199.37,-311.97 211,-314 342.09,-336.92 375.42,-348 508.5,-348 508.5,-348 508.5,-348 996.62,-348 1124.71,-348 1269.77,-311.68 1357.13,-285.71"/>
<polygon fill="#63b8ff" stroke="#63b8ff" points="1358,-289.1 1366.57,-282.87 1355.99,-282.4 1358,-289.1"/>
</a>
</g>
</g>
<!-- Node8 -->
<g id="Node000008" class="node">
<title>Node8</title>
<g id="a_Node000008"><a xlink:href="../../d4/d06/class_deluxe_1_1_deluxe_brand_center_1_1_a_m_m_1_1_a_p_i_1_1_services_1_1_contact_manager_service.html#a7c46eb328b0be11ae5082d8512e4356e" target="_top" xlink:title=" ">
<polygon fill="white" stroke="#666666" points="597,-194 422,-194 422,-150 597,-150 597,-194"/>
<text text-anchor="start" x="430" y="-180.5" font-family="Helvetica,sans-Serif" font-size="10.00">Deluxe.DeluxeBrandCenter.</text>
<text text-anchor="start" x="430" y="-168.5" font-family="Helvetica,sans-Serif" font-size="10.00">AMM.API.Services.ContactManager</text>
<text text-anchor="middle" x="509.5" y="-156.5" font-family="Helvetica,sans-Serif" font-size="10.00">Service.GetGroup</text>
</a>
</g>
</g>
<!-- Node1&#45;&gt;Node8 -->
<g id="edge8_Node000001_Node000008" class="edge">
<title>Node1&#45;&gt;Node8</title>
<g id="a_edge8_Node000001_Node000008"><a xlink:title=" ">
<path fill="none" stroke="#63b8ff" d="M130.87,-262.58C154.01,-251.13 183.49,-237.78 211,-229 276.07,-208.23 351.69,-193.86 410.4,-184.75"/>
<polygon fill="#63b8ff" stroke="#63b8ff" points="410.68,-188.24 420.04,-183.28 409.63,-181.32 410.68,-188.24"/>
</a>
</g>
</g>
<!-- Node3 -->
<g id="Node000003" class="node">
<title>Node3</title>
<g id="a_Node000003"><a xlink:href="../../d4/d06/class_deluxe_1_1_deluxe_brand_center_1_1_a_m_m_1_1_a_p_i_1_1_services_1_1_contact_manager_service.html#ab1141e6abe5397940a9170ec65047b69" target="_top" xlink:title=" ">
<polygon fill="white" stroke="#666666" points="597,-282 422,-282 422,-238 597,-238 597,-282"/>
<text text-anchor="start" x="430" y="-268.5" font-family="Helvetica,sans-Serif" font-size="10.00">Deluxe.DeluxeBrandCenter.</text>
<text text-anchor="start" x="430" y="-256.5" font-family="Helvetica,sans-Serif" font-size="10.00">AMM.API.Services.ContactManager</text>
<text text-anchor="middle" x="509.5" y="-244.5" font-family="Helvetica,sans-Serif" font-size="10.00">Service.GetContactsCSVTable</text>
</a>
</g>
</g>
<!-- Node2&#45;&gt;Node3 -->
<g id="edge2_Node000002_Node000003" class="edge">
<title>Node2&#45;&gt;Node3</title>
<g id="a_edge2_Node000002_Node000003"><a xlink:title=" ">
<path fill="none" stroke="#63b8ff" d="M386.32,-260C394.25,-260 402.31,-260 410.33,-260"/>
<polygon fill="#63b8ff" stroke="#63b8ff" points="410.1,-263.5 420.1,-260 410.1,-256.5 410.1,-263.5"/>
</a>
</g>
</g>
<!-- Node4 -->
<g id="Node000004" class="node">
<title>Node4</title>
<g id="a_Node000004"><a xlink:href="../../d4/d06/class_deluxe_1_1_deluxe_brand_center_1_1_a_m_m_1_1_a_p_i_1_1_services_1_1_contact_manager_service.html#af3ee320e832b5241f698ab94cadab7cb" target="_top" xlink:title="Updates filter to exclude Unsubscribed and Ppersona Contacts.">
<polygon fill="white" stroke="#666666" points="835.38,-282 660.38,-282 660.38,-238 835.38,-238 835.38,-282"/>
<text text-anchor="start" x="668.38" y="-268.5" font-family="Helvetica,sans-Serif" font-size="10.00">Deluxe.DeluxeBrandCenter.</text>
<text text-anchor="start" x="668.38" y="-256.5" font-family="Helvetica,sans-Serif" font-size="10.00">AMM.API.Services.ContactManager</text>
<text text-anchor="middle" x="747.88" y="-244.5" font-family="Helvetica,sans-Serif" font-size="10.00">Service.FilterOutContacts</text>
</a>
</g>
</g>
<!-- Node3&#45;&gt;Node4 -->
<g id="edge3_Node000003_Node000004" class="edge">
<title>Node3&#45;&gt;Node4</title>
<g id="a_edge3_Node000003_Node000004"><a xlink:title=" ">
<path fill="none" stroke="#63b8ff" d="M597.18,-260C614.04,-260 631.82,-260 649.01,-260"/>
<polygon fill="#63b8ff" stroke="#63b8ff" points="648.7,-263.5 658.7,-260 648.7,-256.5 648.7,-263.5"/>
</a>
</g>
</g>
<!-- Node4&#45;&gt;Node5 -->
<g id="edge4_Node000004_Node000005" class="edge">
<title>Node4&#45;&gt;Node5</title>
<g id="a_edge4_Node000004_Node000005"><a xlink:title=" ">
<path fill="none" stroke="#63b8ff" d="M835.86,-260C855.46,-260 876.39,-260 896.41,-260"/>
<polygon fill="#63b8ff" stroke="#63b8ff" points="896.24,-263.5 906.24,-260 896.24,-256.5 896.24,-263.5"/>
</a>
</g>
</g>
<!-- Node6 -->
<g id="Node000006" class="node">
<title>Node6</title>
<g id="a_Node000006"><a xlink:href="../../d4/d06/class_deluxe_1_1_deluxe_brand_center_1_1_a_m_m_1_1_a_p_i_1_1_services_1_1_contact_manager_service.html#a0d4bb3161a8ff399d0720dbb775430c3" target="_top" xlink:title=" ">
<polygon fill="white" stroke="#666666" points="1304.25,-282 1128.5,-282 1128.5,-238 1304.25,-238 1304.25,-282"/>
<text text-anchor="start" x="1136.5" y="-268.5" font-family="Helvetica,sans-Serif" font-size="10.00">Deluxe.DeluxeBrandCenter.</text>
<text text-anchor="start" x="1136.5" y="-256.5" font-family="Helvetica,sans-Serif" font-size="10.00">AMM.API.Services.ContactManager</text>
<text text-anchor="middle" x="1216.38" y="-244.5" font-family="Helvetica,sans-Serif" font-size="10.00">Service.GetUnsubscribedContactsId</text>
</a>
</g>
</g>
<!-- Node5&#45;&gt;Node6 -->
<g id="edge5_Node000005_Node000006" class="edge">
<title>Node5&#45;&gt;Node6</title>
<g id="a_edge5_Node000005_Node000006"><a xlink:title=" ">
<path fill="none" stroke="#63b8ff" d="M1083.39,-260C1094.49,-260 1105.91,-260 1117.16,-260"/>
<polygon fill="#63b8ff" stroke="#63b8ff" points="1116.84,-263.5 1126.84,-260 1116.84,-256.5 1116.84,-263.5"/>
</a>
</g>
</g>
<!-- Node6&#45;&gt;Node7 -->
<g id="edge6_Node000006_Node000007" class="edge">
<title>Node6&#45;&gt;Node7</title>
<g id="a_edge6_Node000006_Node000007"><a xlink:title=" ">
<path fill="none" stroke="#63b8ff" d="M1304.61,-260C1312.48,-260 1320.51,-260 1328.52,-260"/>
<polygon fill="#63b8ff" stroke="#63b8ff" points="1328.32,-263.5 1338.32,-260 1328.32,-256.5 1328.32,-263.5"/>
</a>
</g>
</g>
<!-- Node8&#45;&gt;Node4 -->
<g id="edge9_Node000008_Node000004" class="edge">
<title>Node8&#45;&gt;Node4</title>
<g id="a_edge9_Node000008_Node000004"><a xlink:title=" ">
<path fill="none" stroke="#63b8ff" d="M560.43,-194.47C582.48,-204.06 608.83,-215.07 633,-224 642.19,-227.39 651.86,-230.76 661.52,-233.99"/>
<polygon fill="#63b8ff" stroke="#63b8ff" points="660.38,-237.3 670.97,-237.11 662.57,-230.65 660.38,-237.3"/>
</a>
</g>
</g>
<!-- Node8&#45;&gt;Node5 -->
<g id="edge10_Node000008_Node000005" class="edge">
<title>Node8&#45;&gt;Node5</title>
<g id="a_edge10_Node000008_Node000005"><a xlink:title=" ">
<path fill="none" stroke="#63b8ff" d="M597.3,-184.3C668.78,-194.85 772.66,-211.15 862.75,-229 873.85,-231.2 885.44,-233.67 896.94,-236.23"/>
<polygon fill="#63b8ff" stroke="#63b8ff" points="895.92,-239.58 906.44,-238.37 897.45,-232.76 895.92,-239.58"/>
</a>
</g>
</g>
<!-- Node8&#45;&gt;Node7 -->
<g id="edge15_Node000008_Node000007" class="edge">
<title>Node8&#45;&gt;Node7</title>
<g id="a_edge15_Node000008_Node000007"><a xlink:title=" ">
<path fill="none" stroke="#63b8ff" d="M597.44,-173.03C744.13,-175.92 1049.69,-186.96 1304.25,-229 1314.89,-230.76 1325.96,-232.88 1336.95,-235.17"/>
<polygon fill="#63b8ff" stroke="#63b8ff" points="1335.91,-238.53 1346.42,-237.2 1337.38,-231.69 1335.91,-238.53"/>
</a>
</g>
</g>
<!-- Node9 -->
<g id="Node000009" class="node">
<title>Node9</title>
<g id="a_Node000009"><a xlink:href="../../d4/d06/class_deluxe_1_1_deluxe_brand_center_1_1_a_m_m_1_1_a_p_i_1_1_services_1_1_contact_manager_service.html#a2bd48bb80346e93bd53e62486e837a22" target="_top" xlink:title=" ">
<polygon fill="white" stroke="#666666" points="1092.5,-125 898.75,-125 898.75,-81 1092.5,-81 1092.5,-125"/>
<text text-anchor="start" x="906.75" y="-111.5" font-family="Helvetica,sans-Serif" font-size="10.00">Deluxe.DeluxeBrandCenter.</text>
<text text-anchor="start" x="906.75" y="-99.5" font-family="Helvetica,sans-Serif" font-size="10.00">AMM.API.Services.ContactManager</text>
<text text-anchor="middle" x="995.62" y="-87.5" font-family="Helvetica,sans-Serif" font-size="10.00">Service.getManuallyAddedContactsFilter</text>
</a>
</g>
</g>
<!-- Node8&#45;&gt;Node9 -->
<g id="edge11_Node000008_Node000009" class="edge">
<title>Node8&#45;&gt;Node9</title>
<g id="a_edge11_Node000008_Node000009"><a xlink:title=" ">
<path fill="none" stroke="#63b8ff" d="M597.33,-159.62C678.53,-148.05 800.04,-130.73 887.29,-118.3"/>
<polygon fill="#63b8ff" stroke="#63b8ff" points="887.66,-121.78 897.06,-116.91 886.67,-114.85 887.66,-121.78"/>
</a>
</g>
</g>
<!-- Node10 -->
<g id="Node000010" class="node">
<title>Node10</title>
<g id="a_Node000010"><a xlink:href="../../d4/d06/class_deluxe_1_1_deluxe_brand_center_1_1_a_m_m_1_1_a_p_i_1_1_services_1_1_contact_manager_service.html#afe4d7064e42787c37ba33c7cd3ad9921" target="_top" xlink:title=" ">
<polygon fill="white" stroke="#666666" points="862.75,-106 633,-106 633,-62 862.75,-62 862.75,-106"/>
<text text-anchor="start" x="641" y="-92.5" font-family="Helvetica,sans-Serif" font-size="10.00">Deluxe.DeluxeBrandCenter.</text>
<text text-anchor="start" x="641" y="-80.5" font-family="Helvetica,sans-Serif" font-size="10.00">AMM.API.Services.ContactManager</text>
<text text-anchor="middle" x="747.88" y="-68.5" font-family="Helvetica,sans-Serif" font-size="10.00">Service.removeManuallyAdedContactsFromFilter</text>
</a>
</g>
</g>
<!-- Node8&#45;&gt;Node10 -->
<g id="edge12_Node000008_Node000010" class="edge">
<title>Node8&#45;&gt;Node10</title>
<g id="a_edge12_Node000008_Node000010"><a xlink:title=" ">
<path fill="none" stroke="#63b8ff" d="M560.43,-149.53C582.48,-139.94 608.83,-128.93 633,-120 642.19,-116.61 651.86,-113.24 661.52,-110.01"/>
<polygon fill="#63b8ff" stroke="#63b8ff" points="662.57,-113.35 670.97,-106.89 660.38,-106.7 662.57,-113.35"/>
</a>
</g>
</g>
<!-- Node11 -->
<g id="Node000011" class="node">
<title>Node11</title>
<g id="a_Node000011"><a xlink:href="../../dd/d7d/interface_deluxe_1_1_deluxe_brand_center_1_1_a_m_m_1_1_domain_1_1_services_1_1_i_session_service.html#a0ec7d7d28fa63000ba8d1bea1960d1e0" target="_top" xlink:title=" ">
<polygon fill="white" stroke="#666666" points="845.12,-44 650.62,-44 650.62,0 845.12,0 845.12,-44"/>
<text text-anchor="start" x="658.62" y="-30.5" font-family="Helvetica,sans-Serif" font-size="10.00">Deluxe.DeluxeBrandCenter.</text>
<text text-anchor="start" x="658.62" y="-18.5" font-family="Helvetica,sans-Serif" font-size="10.00">AMM.Domain.Services.ISessionService.</text>
<text text-anchor="middle" x="747.88" y="-6.5" font-family="Helvetica,sans-Serif" font-size="10.00">SessionGetClientName</text>
</a>
</g>
</g>
<!-- Node8&#45;&gt;Node11 -->
<g id="edge14_Node000008_Node000011" class="edge">
<title>Node8&#45;&gt;Node11</title>
<g id="a_edge14_Node000008_Node000011"><a xlink:title=" ">
<path fill="none" stroke="#63b8ff" d="M527.48,-149.66C549.1,-122.78 588.96,-78.12 633,-53 635.33,-51.67 637.71,-50.4 640.15,-49.18"/>
<polygon fill="#63b8ff" stroke="#63b8ff" points="641.4,-52.46 649.02,-45.09 638.47,-46.1 641.4,-52.46"/>
</a>
</g>
</g>
<!-- Node10&#45;&gt;Node9 -->
<g id="edge13_Node000010_Node000009" class="edge">
<title>Node10&#45;&gt;Node9</title>
<g id="a_edge13_Node000010_Node000009"><a xlink:title=" ">
<path fill="none" stroke="#63b8ff" d="M863.12,-92.83C871.03,-93.44 879,-94.06 886.88,-94.67"/>
<polygon fill="#63b8ff" stroke="#63b8ff" points="886.6,-98.16 896.84,-95.44 887.14,-91.18 886.6,-98.16"/>
</a>
</g>
</g>
</g>
</svg>

<g id="navigator" transform="translate(0 0)" fill="#404254">
  <rect fill="#f2f5e9" fill-opacity="0.5" stroke="#606060" stroke-width=".5" x="0" y="0" width="60" height="60"/>
  <use id="zoomplus" xlink:href="#zoomPlus" x="17" y="9" onmousedown="handleZoom(evt,'in')"/>
  <use id="zoomminus" xlink:href="#zoomMin" x="42" y="9" onmousedown="handleZoom(evt,'out')"/>
  <use id="reset" xlink:href="#resetDef" x="30" y="36" onmousedown="handleReset()"/>
   <use id="arrowup" xlink:href="#arrowUp" x="0" y="0" onmousedown="handlePan(0,-1)"/>
  <use id="arrowright" xlink:href="#arrowRight" x="0" y="0" onmousedown="handlePan(1,0)"/>
  <use id="arrowdown" xlink:href="#arrowDown" x="0" y="0" onmousedown="handlePan(0,1)"/>
  <use id="arrowleft" xlink:href="#arrowLeft" x="0" y="0" onmousedown="handlePan(-1,0)"/>
</g>
<svg viewBox="0 0 15 15" width="100%" height="30px" preserveAspectRatio="xMaxYMin meet">
 <g id="arrow_out" transform="scale(0.3 0.3)">
  <a xlink:href="class_deluxe_1_1_deluxe_brand_center_1_1_a_m_m_1_1_a_p_i_1_1_services_1_1_contact_manager_service_a083029cf71592c87e571f1d675e4da7a_cgraph_org.svg" target="_base">
   <rect id="button" ry="5" rx="5" y="6" x="6" height="38" width="38"
        fill="#f2f5e9" fill-opacity="0.5" stroke="#606060" stroke-width="1.0"/>
   <path id="arrow"
     d="M 11.500037,31.436501 C 11.940474,20.09759 22.043105,11.32322 32.158766,21.979434 L 37.068811,17.246167 C 37.068811,17.246167 37.088388,32 37.088388,32 L 22.160133,31.978069 C 22.160133,31.978069 26.997745,27.140456 26.997745,27.140456 C 18.528582,18.264221 13.291696,25.230495 11.500037,31.436501 z"
     style="fill:#404040;"/>
  </a>
 </g>
</svg>

<style type='text/css'>
<![CDATA[
[data-mouse-over-selected='false'] { opacity: 0.7; }
[data-mouse-over-selected='true']  { opacity: 1.0; }
]]>
</style>
<script type="application/ecmascript"><![CDATA[
document.addEventListener('DOMContentLoaded', (event) => {
  highlightEdges();
  highlightAdjacentNodes();
});
]]></script>
</svg>
