<?xml version="1.0" encoding="UTF-8" standalone="no"?>
<!DOCTYPE svg PUBLIC "-//W3C//DTD SVG 1.1//EN"
 "http://www.w3.org/Graphics/SVG/1.1/DTD/svg11.dtd">
<!-- Generated by graphviz version 12.1.1 (20240910.0053)
 -->
<!-- Title: Deluxe.DeluxeBrandCenter.AMM.API.Services.ContactManagerService.GetGroupContactsPaginated Pages: 1 -->
<!--zoomable 276 -->

<svg id="main" version="1.1" xmlns="http://www.w3.org/2000/svg" xmlns:xlink="http://www.w3.org/1999/xlink" xml:space="preserve" onload="init(evt)">

<style type="text/css"><![CDATA[
.node, .edge {opacity: 0.7;}
.node.selected, .edge.selected {opacity: 1;}
.edge:hover path { stroke: red; }
.edge:hover polygon { stroke: red; fill: red; }
]]></style>

<defs>
  <circle id="rim" cx="0" cy="0" r="7"/>
  <circle id="rim2" cx="0" cy="0" r="3.5"/>
  <g id="zoomPlus">
    <use xlink:href="#rim" fill="#404040"><set attributeName="fill" to="#808080" begin="zoomplus.mouseover" end="zoomplus.mouseout"/></use>
    <path d="M-4,0h8M0,-4v8" fill="none" stroke="white" stroke-width="1.5" pointer-events="none"/>
  </g>
  <g id="zoomMin">
    <use xlink:href="#rim" fill="#404040"><set attributeName="fill" to="#808080" begin="zoomminus.mouseover" end="zoomminus.mouseout"/></use>
    <path d="M-4,0h8" fill="none" stroke="white" stroke-width="1.5" pointer-events="none"/>
  </g>
  <g id="arrowUp" transform="translate(30 24)">
    <use xlink:href="#rim"/>
    <path pointer-events="none" fill="none" stroke="white" stroke-width="1.5" d="M0,-3.0v7 M-2.5,-0.5L0,-3.0L2.5,-0.5"/>
  </g>
  <g id="arrowRight" transform="rotate(90) translate(36 -43)">
    <use xlink:href="#rim"/>
    <path pointer-events="none" fill="none" stroke="white" stroke-width="1.5" d="M0,-3.0v7 M-2.5,-0.5L0,-3.0L2.5,-0.5"/>
  </g>
  <g id="arrowDown" transform="rotate(180) translate(-30 -48)">
    <use xlink:href="#rim"/>
    <path pointer-events="none" fill="none" stroke="white" stroke-width="1.5" d="M0,-3.0v7 M-2.5,-0.5L0,-3.0L2.5,-0.5"/>
  </g>
  <g id="arrowLeft" transform="rotate(270) translate(-36 17)">
    <use xlink:href="#rim"/>
    <path pointer-events="none" fill="none" stroke="white" stroke-width="1.5" d="M0,-3.0v7 M-2.5,-0.5L0,-3.0L2.5,-0.5"/>
  </g>
  <g id="resetDef">
    <use xlink:href="#rim2" fill="#404040"><set attributeName="fill" to="#808080" begin="reset.mouseover" end="reset.mouseout"/></use>
  </g>
</defs>
<script type="application/ecmascript">
var viewWidth = 1279;
var viewHeight = 276;
var sectionId = 'dynsection-49';
</script>
<script type="application/ecmascript" xlink:href="../../svg.min.js"/>
<svg id="graph" class="graph">
<g id="viewport">
<title>Deluxe.DeluxeBrandCenter.AMM.API.Services.ContactManagerService.GetGroupContactsPaginated</title>
<!-- Node1 -->
<g id="Node000001" class="node">
<title>Node1</title>
<g id="a_Node000001"><a xlink:title=" ">
<polygon fill="#999999" stroke="#666666" points="177.25,-94 0,-94 0,-50 177.25,-50 177.25,-94"/>
<text text-anchor="start" x="8" y="-80.5" font-family="Helvetica,sans-Serif" font-size="10.00">Deluxe.DeluxeBrandCenter.</text>
<text text-anchor="start" x="8" y="-68.5" font-family="Helvetica,sans-Serif" font-size="10.00">AMM.API.Services.ContactManager</text>
<text text-anchor="middle" x="88.62" y="-56.5" font-family="Helvetica,sans-Serif" font-size="10.00">Service.GetGroupContactsPaginated</text>
</a>
</g>
</g>
<!-- Node2 -->
<g id="Node000002" class="node">
<title>Node2</title>
<g id="a_Node000002"><a xlink:href="../../d4/d06/class_deluxe_1_1_deluxe_brand_center_1_1_a_m_m_1_1_a_p_i_1_1_services_1_1_contact_manager_service.html#ae33c1b36ed9e432ded5f28b4137fea46" target="_top" xlink:title="Get Paginated Contacts. Exclusion of Unsubscribed and PersonaContacts are added to filter prior to MF...">
<polygon fill="white" stroke="#666666" points="397.62,-175 222.62,-175 222.62,-131 397.62,-131 397.62,-175"/>
<text text-anchor="start" x="230.62" y="-161.5" font-family="Helvetica,sans-Serif" font-size="10.00">Deluxe.DeluxeBrandCenter.</text>
<text text-anchor="start" x="230.62" y="-149.5" font-family="Helvetica,sans-Serif" font-size="10.00">AMM.API.Services.ContactManager</text>
<text text-anchor="middle" x="310.12" y="-137.5" font-family="Helvetica,sans-Serif" font-size="10.00">Service.GetPaginatedContacts</text>
</a>
</g>
</g>
<!-- Node1&#45;&gt;Node2 -->
<g id="edge1_Node000001_Node000002" class="edge">
<title>Node1&#45;&gt;Node2</title>
<g id="a_edge1_Node000001_Node000002"><a xlink:title=" ">
<path fill="none" stroke="#63b8ff" d="M150.48,-94.46C177.48,-104.42 209.44,-116.21 237.58,-126.6"/>
<polygon fill="#63b8ff" stroke="#63b8ff" points="236.14,-129.8 246.74,-129.98 238.57,-123.23 236.14,-129.8"/>
</a>
</g>
</g>
<!-- Node6 -->
<g id="Node000006" class="node">
<title>Node6</title>
<g id="a_Node000006"><a xlink:href="../../dd/d7d/interface_deluxe_1_1_deluxe_brand_center_1_1_a_m_m_1_1_domain_1_1_services_1_1_i_session_service.html#acfcf18f3c8f0b4e9c334223ec33b588f" target="_top" xlink:title=" ">
<polygon fill="white" stroke="#666666" points="1271.25,-206 1076.75,-206 1076.75,-162 1271.25,-162 1271.25,-206"/>
<text text-anchor="start" x="1084.75" y="-192.5" font-family="Helvetica,sans-Serif" font-size="10.00">Deluxe.DeluxeBrandCenter.</text>
<text text-anchor="start" x="1084.75" y="-180.5" font-family="Helvetica,sans-Serif" font-size="10.00">AMM.Domain.Services.ISessionService.</text>
<text text-anchor="middle" x="1174" y="-168.5" font-family="Helvetica,sans-Serif" font-size="10.00">SessionGetUser</text>
</a>
</g>
</g>
<!-- Node1&#45;&gt;Node6 -->
<g id="edge11_Node000001_Node000006" class="edge">
<title>Node1&#45;&gt;Node6</title>
<g id="a_edge11_Node000001_Node000006"><a xlink:title=" ">
<path fill="none" stroke="#63b8ff" d="M177.67,-72C266.47,-72 407.5,-72 529.5,-72 529.5,-72 529.5,-72 742.5,-72 877.52,-72 1028.91,-124.24 1111.34,-157.36"/>
<polygon fill="#63b8ff" stroke="#63b8ff" points="1109.79,-160.51 1120.37,-161.03 1112.42,-154.03 1109.79,-160.51"/>
</a>
</g>
</g>
<!-- Node10 -->
<g id="Node000010" class="node">
<title>Node10</title>
<g id="a_Node000010"><a xlink:href="../../d6/d98/class_deluxe_1_1_deluxe_brand_center_1_1_a_m_m_1_1_domain_1_1_ext_service_model_1_1_mindfire_1_1_segmentation_filter.html#af2519793df88d9c56a3ab502972fecd4" target="_top" xlink:title=" ">
<polygon fill="white" stroke="#666666" points="407,-44 213.25,-44 213.25,0 407,0 407,-44"/>
<text text-anchor="start" x="221.25" y="-30.5" font-family="Helvetica,sans-Serif" font-size="10.00">Deluxe.DeluxeBrandCenter.</text>
<text text-anchor="start" x="221.25" y="-18.5" font-family="Helvetica,sans-Serif" font-size="10.00">AMM.Domain.ExtServiceModel.Mindfire.</text>
<text text-anchor="middle" x="310.12" y="-6.5" font-family="Helvetica,sans-Serif" font-size="10.00">SegmentationFilter.SegmentationFilter</text>
</a>
</g>
</g>
<!-- Node1&#45;&gt;Node10 -->
<g id="edge10_Node000001_Node000010" class="edge">
<title>Node1&#45;&gt;Node10</title>
<g id="a_edge10_Node000001_Node000010"><a xlink:title=" ">
<path fill="none" stroke="#63b8ff" d="M177.64,-51.95C185.59,-50.14 193.71,-48.29 201.8,-46.45"/>
<polygon fill="#63b8ff" stroke="#63b8ff" points="202.36,-49.91 211.34,-44.28 200.81,-43.08 202.36,-49.91"/>
</a>
</g>
</g>
<!-- Node3 -->
<g id="Node000003" class="node">
<title>Node3</title>
<g id="a_Node000003"><a xlink:href="../../d4/d06/class_deluxe_1_1_deluxe_brand_center_1_1_a_m_m_1_1_a_p_i_1_1_services_1_1_contact_manager_service.html#af3ee320e832b5241f698ab94cadab7cb" target="_top" xlink:title="Updates filter to exclude Unsubscribed and Ppersona Contacts.">
<polygon fill="white" stroke="#666666" points="618,-268 443,-268 443,-224 618,-224 618,-268"/>
<text text-anchor="start" x="451" y="-254.5" font-family="Helvetica,sans-Serif" font-size="10.00">Deluxe.DeluxeBrandCenter.</text>
<text text-anchor="start" x="451" y="-242.5" font-family="Helvetica,sans-Serif" font-size="10.00">AMM.API.Services.ContactManager</text>
<text text-anchor="middle" x="530.5" y="-230.5" font-family="Helvetica,sans-Serif" font-size="10.00">Service.FilterOutContacts</text>
</a>
</g>
</g>
<!-- Node2&#45;&gt;Node3 -->
<g id="edge2_Node000002_Node000003" class="edge">
<title>Node2&#45;&gt;Node3</title>
<g id="a_edge2_Node000002_Node000003"><a xlink:title=" ">
<path fill="none" stroke="#63b8ff" d="M356.12,-175.46C381.39,-187.74 413.66,-202.88 443,-215 446.76,-216.55 450.63,-218.1 454.55,-219.64"/>
<polygon fill="#63b8ff" stroke="#63b8ff" points="453,-222.79 463.59,-223.11 455.5,-216.26 453,-222.79"/>
</a>
</g>
</g>
<!-- Node7 -->
<g id="Node000007" class="node">
<title>Node7</title>
<g id="a_Node000007"><a xlink:href="../../d4/d06/class_deluxe_1_1_deluxe_brand_center_1_1_a_m_m_1_1_a_p_i_1_1_services_1_1_contact_manager_service.html#a22f946e29ca8db2aaea63a388be914be" target="_top" xlink:title=" ">
<polygon fill="white" stroke="#666666" points="618,-206 443,-206 443,-162 618,-162 618,-206"/>
<text text-anchor="start" x="451" y="-192.5" font-family="Helvetica,sans-Serif" font-size="10.00">Deluxe.DeluxeBrandCenter.</text>
<text text-anchor="start" x="451" y="-180.5" font-family="Helvetica,sans-Serif" font-size="10.00">AMM.API.Services.ContactManager</text>
<text text-anchor="middle" x="530.5" y="-168.5" font-family="Helvetica,sans-Serif" font-size="10.00">Service.FormatFilter</text>
</a>
</g>
</g>
<!-- Node2&#45;&gt;Node7 -->
<g id="edge6_Node000002_Node000007" class="edge">
<title>Node2&#45;&gt;Node7</title>
<g id="a_edge6_Node000002_Node000007"><a xlink:title=" ">
<path fill="none" stroke="#63b8ff" d="M398.06,-165.34C409.03,-166.9 420.32,-168.5 431.45,-170.08"/>
<polygon fill="#63b8ff" stroke="#63b8ff" points="430.62,-173.5 441.01,-171.44 431.6,-166.57 430.62,-173.5"/>
</a>
</g>
</g>
<!-- Node9 -->
<g id="Node000009" class="node">
<title>Node9</title>
<g id="a_Node000009"><a xlink:href="../../d4/d06/class_deluxe_1_1_deluxe_brand_center_1_1_a_m_m_1_1_a_p_i_1_1_services_1_1_contact_manager_service.html#a2d2353a12a0fecf787fe8b3a870db8b8" target="_top" xlink:title=" ">
<polygon fill="white" stroke="#666666" points="618,-144 443,-144 443,-100 618,-100 618,-144"/>
<text text-anchor="start" x="451" y="-130.5" font-family="Helvetica,sans-Serif" font-size="10.00">Deluxe.DeluxeBrandCenter.</text>
<text text-anchor="start" x="451" y="-118.5" font-family="Helvetica,sans-Serif" font-size="10.00">AMM.API.Services.ContactManager</text>
<text text-anchor="middle" x="530.5" y="-106.5" font-family="Helvetica,sans-Serif" font-size="10.00">Service.GetSortExpressionString</text>
</a>
</g>
</g>
<!-- Node2&#45;&gt;Node9 -->
<g id="edge9_Node000002_Node000009" class="edge">
<title>Node2&#45;&gt;Node9</title>
<g id="a_edge9_Node000002_Node000009"><a xlink:title=" ">
<path fill="none" stroke="#63b8ff" d="M398.06,-140.66C409.03,-139.1 420.32,-137.5 431.45,-135.92"/>
<polygon fill="#63b8ff" stroke="#63b8ff" points="431.6,-139.43 441.01,-134.56 430.62,-132.5 431.6,-139.43"/>
</a>
</g>
</g>
<!-- Node4 -->
<g id="Node000004" class="node">
<title>Node4</title>
<g id="a_Node000004"><a xlink:href="../../d4/d06/class_deluxe_1_1_deluxe_brand_center_1_1_a_m_m_1_1_a_p_i_1_1_services_1_1_contact_manager_service.html#af5c0313fcaae40d09f41022ef3f1d08d" target="_top" xlink:title=" ">
<polygon fill="white" stroke="#666666" points="829,-268 654,-268 654,-224 829,-224 829,-268"/>
<text text-anchor="start" x="662" y="-254.5" font-family="Helvetica,sans-Serif" font-size="10.00">Deluxe.DeluxeBrandCenter.</text>
<text text-anchor="start" x="662" y="-242.5" font-family="Helvetica,sans-Serif" font-size="10.00">AMM.API.Services.ContactManager</text>
<text text-anchor="middle" x="741.5" y="-230.5" font-family="Helvetica,sans-Serif" font-size="10.00">Service.GetContactsForFilteringOut</text>
</a>
</g>
</g>
<!-- Node3&#45;&gt;Node4 -->
<g id="edge3_Node000003_Node000004" class="edge">
<title>Node3&#45;&gt;Node4</title>
<g id="a_edge3_Node000003_Node000004"><a xlink:title=" ">
<path fill="none" stroke="#63b8ff" d="M618.32,-246C626.25,-246 634.31,-246 642.33,-246"/>
<polygon fill="#63b8ff" stroke="#63b8ff" points="642.1,-249.5 652.1,-246 642.1,-242.5 642.1,-249.5"/>
</a>
</g>
</g>
<!-- Node5 -->
<g id="Node000005" class="node">
<title>Node5</title>
<g id="a_Node000005"><a xlink:href="../../d4/d06/class_deluxe_1_1_deluxe_brand_center_1_1_a_m_m_1_1_a_p_i_1_1_services_1_1_contact_manager_service.html#a0d4bb3161a8ff399d0720dbb775430c3" target="_top" xlink:title=" ">
<polygon fill="white" stroke="#666666" points="1040.75,-268 865,-268 865,-224 1040.75,-224 1040.75,-268"/>
<text text-anchor="start" x="873" y="-254.5" font-family="Helvetica,sans-Serif" font-size="10.00">Deluxe.DeluxeBrandCenter.</text>
<text text-anchor="start" x="873" y="-242.5" font-family="Helvetica,sans-Serif" font-size="10.00">AMM.API.Services.ContactManager</text>
<text text-anchor="middle" x="952.88" y="-230.5" font-family="Helvetica,sans-Serif" font-size="10.00">Service.GetUnsubscribedContactsId</text>
</a>
</g>
</g>
<!-- Node4&#45;&gt;Node5 -->
<g id="edge4_Node000004_Node000005" class="edge">
<title>Node4&#45;&gt;Node5</title>
<g id="a_edge4_Node000004_Node000005"><a xlink:title=" ">
<path fill="none" stroke="#63b8ff" d="M829.47,-246C837.42,-246 845.5,-246 853.53,-246"/>
<polygon fill="#63b8ff" stroke="#63b8ff" points="853.32,-249.5 863.32,-246 853.32,-242.5 853.32,-249.5"/>
</a>
</g>
</g>
<!-- Node5&#45;&gt;Node6 -->
<g id="edge5_Node000005_Node000006" class="edge">
<title>Node5&#45;&gt;Node6</title>
<g id="a_edge5_Node000005_Node000006"><a xlink:title=" ">
<path fill="none" stroke="#63b8ff" d="M1033.29,-223.53C1049.37,-218.98 1066.38,-214.17 1082.8,-209.52"/>
<polygon fill="#63b8ff" stroke="#63b8ff" points="1083.36,-213 1092.03,-206.91 1081.45,-206.27 1083.36,-213"/>
</a>
</g>
</g>
<!-- Node8 -->
<g id="Node000008" class="node">
<title>Node8</title>
<g id="a_Node000008"><a xlink:href="../../d4/d06/class_deluxe_1_1_deluxe_brand_center_1_1_a_m_m_1_1_a_p_i_1_1_services_1_1_contact_manager_service.html#a891d2dc0f2891c477b6eeeebfdef3f9c" target="_top" xlink:title="Get Group from DB.">
<polygon fill="white" stroke="#666666" points="1040.38,-206 865.38,-206 865.38,-162 1040.38,-162 1040.38,-206"/>
<text text-anchor="start" x="873.38" y="-192.5" font-family="Helvetica,sans-Serif" font-size="10.00">Deluxe.DeluxeBrandCenter.</text>
<text text-anchor="start" x="873.38" y="-180.5" font-family="Helvetica,sans-Serif" font-size="10.00">AMM.API.Services.ContactManager</text>
<text text-anchor="middle" x="952.88" y="-168.5" font-family="Helvetica,sans-Serif" font-size="10.00">Service.GetContactGroupDB</text>
</a>
</g>
</g>
<!-- Node7&#45;&gt;Node8 -->
<g id="edge7_Node000007_Node000008" class="edge">
<title>Node7&#45;&gt;Node8</title>
<g id="a_edge7_Node000007_Node000008"><a xlink:title=" ">
<path fill="none" stroke="#63b8ff" d="M618.35,-184C686.92,-184 782.61,-184 853.91,-184"/>
<polygon fill="#63b8ff" stroke="#63b8ff" points="853.63,-187.5 863.63,-184 853.63,-180.5 853.63,-187.5"/>
</a>
</g>
</g>
<!-- Node8&#45;&gt;Node6 -->
<g id="edge8_Node000008_Node000006" class="edge">
<title>Node8&#45;&gt;Node6</title>
<g id="a_edge8_Node000008_Node000006"><a xlink:title=" ">
<path fill="none" stroke="#63b8ff" d="M1040.79,-184C1048.75,-184 1056.88,-184 1064.99,-184"/>
<polygon fill="#63b8ff" stroke="#63b8ff" points="1064.93,-187.5 1074.93,-184 1064.93,-180.5 1064.93,-187.5"/>
</a>
</g>
</g>
</g>
</svg>

<g id="navigator" transform="translate(0 0)" fill="#404254">
  <rect fill="#f2f5e9" fill-opacity="0.5" stroke="#606060" stroke-width=".5" x="0" y="0" width="60" height="60"/>
  <use id="zoomplus" xlink:href="#zoomPlus" x="17" y="9" onmousedown="handleZoom(evt,'in')"/>
  <use id="zoomminus" xlink:href="#zoomMin" x="42" y="9" onmousedown="handleZoom(evt,'out')"/>
  <use id="reset" xlink:href="#resetDef" x="30" y="36" onmousedown="handleReset()"/>
   <use id="arrowup" xlink:href="#arrowUp" x="0" y="0" onmousedown="handlePan(0,-1)"/>
  <use id="arrowright" xlink:href="#arrowRight" x="0" y="0" onmousedown="handlePan(1,0)"/>
  <use id="arrowdown" xlink:href="#arrowDown" x="0" y="0" onmousedown="handlePan(0,1)"/>
  <use id="arrowleft" xlink:href="#arrowLeft" x="0" y="0" onmousedown="handlePan(-1,0)"/>
</g>
<svg viewBox="0 0 15 15" width="100%" height="30px" preserveAspectRatio="xMaxYMin meet">
 <g id="arrow_out" transform="scale(0.3 0.3)">
  <a xlink:href="class_deluxe_1_1_deluxe_brand_center_1_1_a_m_m_1_1_a_p_i_1_1_services_1_1_contact_manager_service_a5ec626d341e4b4f081d3fca715b95944_cgraph_org.svg" target="_base">
   <rect id="button" ry="5" rx="5" y="6" x="6" height="38" width="38"
        fill="#f2f5e9" fill-opacity="0.5" stroke="#606060" stroke-width="1.0"/>
   <path id="arrow"
     d="M 11.500037,31.436501 C 11.940474,20.09759 22.043105,11.32322 32.158766,21.979434 L 37.068811,17.246167 C 37.068811,17.246167 37.088388,32 37.088388,32 L 22.160133,31.978069 C 22.160133,31.978069 26.997745,27.140456 26.997745,27.140456 C 18.528582,18.264221 13.291696,25.230495 11.500037,31.436501 z"
     style="fill:#404040;"/>
  </a>
 </g>
</svg>

<style type='text/css'>
<![CDATA[
[data-mouse-over-selected='false'] { opacity: 0.7; }
[data-mouse-over-selected='true']  { opacity: 1.0; }
]]>
</style>
<script type="application/ecmascript"><![CDATA[
document.addEventListener('DOMContentLoaded', (event) => {
  highlightEdges();
  highlightAdjacentNodes();
});
]]></script>
</svg>
