<?xml version="1.0" encoding="UTF-8" standalone="no"?>
<!DOCTYPE svg PUBLIC "-//W3C//DTD SVG 1.1//EN"
 "http://www.w3.org/Graphics/SVG/1.1/DTD/svg11.dtd">
<!-- Generated by graphviz version 12.1.1 (20240910.0053)
 -->
<!-- Title: Deluxe.DeluxeBrandCenter.AMM.API.Services.ContactManagerService.AddOrUpdateTagDb Pages: 1 -->
<svg width="816pt" height="145pt"
 viewBox="0.00 0.00 816.00 145.00" xmlns="http://www.w3.org/2000/svg" xmlns:xlink="http://www.w3.org/1999/xlink">
<g id="graph0" class="graph" transform="scale(1 1) rotate(0) translate(4 141)">
<title>Deluxe.DeluxeBrandCenter.AMM.API.Services.ContactManagerService.AddOrUpdateTagDb</title>
<!-- Node1 -->
<g id="Node000001" class="node">
<title>Node1</title>
<g id="a_Node000001"><a xlink:title=" ">
<polygon fill="#999999" stroke="#666666" points="808,-75 633,-75 633,-31 808,-31 808,-75"/>
<text text-anchor="start" x="641" y="-61.5" font-family="Helvetica,sans-Serif" font-size="10.00">Deluxe.DeluxeBrandCenter.</text>
<text text-anchor="start" x="641" y="-49.5" font-family="Helvetica,sans-Serif" font-size="10.00">AMM.API.Services.ContactManager</text>
<text text-anchor="middle" x="720.5" y="-37.5" font-family="Helvetica,sans-Serif" font-size="10.00">Service.AddOrUpdateTagDb</text>
</a>
</g>
</g>
<!-- Node2 -->
<g id="Node000002" class="node">
<title>Node2</title>
<g id="a_Node000002"><a xlink:href="../../d4/d06/class_deluxe_1_1_deluxe_brand_center_1_1_a_m_m_1_1_a_p_i_1_1_services_1_1_contact_manager_service.html#a0ea8d4c9c0c9ec2f05066c6cef1040d5" target="_top" xlink:title=" ">
<polygon fill="white" stroke="#666666" points="597,-106 422,-106 422,-62 597,-62 597,-106"/>
<text text-anchor="start" x="430" y="-92.5" font-family="Helvetica,sans-Serif" font-size="10.00">Deluxe.DeluxeBrandCenter.</text>
<text text-anchor="start" x="430" y="-80.5" font-family="Helvetica,sans-Serif" font-size="10.00">AMM.API.Services.ContactManager</text>
<text text-anchor="middle" x="509.5" y="-68.5" font-family="Helvetica,sans-Serif" font-size="10.00">Service.AddGroupsAndTagsToDb</text>
</a>
</g>
</g>
<!-- Node1&#45;&gt;Node2 -->
<g id="edge1_Node000001_Node000002" class="edge">
<title>Node1&#45;&gt;Node2</title>
<g id="a_edge1_Node000001_Node000002"><a xlink:title=" ">
<path fill="none" stroke="#63b8ff" d="M621.4,-67.55C613.38,-68.74 605.31,-69.94 597.39,-71.11"/>
<polygon fill="#63b8ff" stroke="#63b8ff" points="621.81,-71.03 631.18,-66.1 620.78,-64.1 621.81,-71.03"/>
</a>
</g>
</g>
<!-- Node6 -->
<g id="Node000006" class="node">
<title>Node6</title>
<g id="a_Node000006"><a xlink:href="../../d4/d06/class_deluxe_1_1_deluxe_brand_center_1_1_a_m_m_1_1_a_p_i_1_1_services_1_1_contact_manager_service.html#aab42ea45768418dcf29fabe521d8b577" target="_top" xlink:title=" ">
<polygon fill="white" stroke="#666666" points="597,-44 422,-44 422,0 597,0 597,-44"/>
<text text-anchor="start" x="430" y="-30.5" font-family="Helvetica,sans-Serif" font-size="10.00">Deluxe.DeluxeBrandCenter.</text>
<text text-anchor="start" x="430" y="-18.5" font-family="Helvetica,sans-Serif" font-size="10.00">AMM.API.Services.ContactManager</text>
<text text-anchor="middle" x="509.5" y="-6.5" font-family="Helvetica,sans-Serif" font-size="10.00">Service.AddOrUpdateTag</text>
</a>
</g>
</g>
<!-- Node1&#45;&gt;Node6 -->
<g id="edge5_Node000001_Node000006" class="edge">
<title>Node1&#45;&gt;Node6</title>
<g id="a_edge5_Node000001_Node000006"><a xlink:title=" ">
<path fill="none" stroke="#63b8ff" d="M621.4,-38.45C613.38,-37.26 605.31,-36.06 597.39,-34.89"/>
<polygon fill="#63b8ff" stroke="#63b8ff" points="620.78,-41.9 631.18,-39.9 621.81,-34.97 620.78,-41.9"/>
</a>
</g>
</g>
<!-- Node3 -->
<g id="Node000003" class="node">
<title>Node3</title>
<g id="a_Node000003"><a xlink:href="../../d4/d06/class_deluxe_1_1_deluxe_brand_center_1_1_a_m_m_1_1_a_p_i_1_1_services_1_1_contact_manager_service.html#aa1fe050e4d5227a691150b9849f7b1a3" target="_top" xlink:title=" ">
<polygon fill="white" stroke="#666666" points="386,-106 211,-106 211,-62 386,-62 386,-106"/>
<text text-anchor="start" x="219" y="-92.5" font-family="Helvetica,sans-Serif" font-size="10.00">Deluxe.DeluxeBrandCenter.</text>
<text text-anchor="start" x="219" y="-80.5" font-family="Helvetica,sans-Serif" font-size="10.00">AMM.API.Services.ContactManager</text>
<text text-anchor="middle" x="298.5" y="-68.5" font-family="Helvetica,sans-Serif" font-size="10.00">Service.UploadContacts</text>
</a>
</g>
</g>
<!-- Node2&#45;&gt;Node3 -->
<g id="edge2_Node000002_Node000003" class="edge">
<title>Node2&#45;&gt;Node3</title>
<g id="a_edge2_Node000002_Node000003"><a xlink:title=" ">
<path fill="none" stroke="#63b8ff" d="M410.4,-84C402.38,-84 394.31,-84 386.39,-84"/>
<polygon fill="#63b8ff" stroke="#63b8ff" points="410.17,-87.5 420.17,-84 410.17,-80.5 410.17,-87.5"/>
</a>
</g>
</g>
<!-- Node4 -->
<g id="Node000004" class="node">
<title>Node4</title>
<g id="a_Node000004"><a xlink:href="../../d4/d06/class_deluxe_1_1_deluxe_brand_center_1_1_a_m_m_1_1_a_p_i_1_1_services_1_1_contact_manager_service.html#a7f6af03e51f7bb3b4b003c2296015349" target="_top" xlink:title=" ">
<polygon fill="white" stroke="#666666" points="175,-137 0,-137 0,-93 175,-93 175,-137"/>
<text text-anchor="start" x="8" y="-123.5" font-family="Helvetica,sans-Serif" font-size="10.00">Deluxe.DeluxeBrandCenter.</text>
<text text-anchor="start" x="8" y="-111.5" font-family="Helvetica,sans-Serif" font-size="10.00">AMM.API.Services.ContactManager</text>
<text text-anchor="middle" x="87.5" y="-99.5" font-family="Helvetica,sans-Serif" font-size="10.00">Service.UploadRedTailContacts</text>
</a>
</g>
</g>
<!-- Node3&#45;&gt;Node4 -->
<g id="edge3_Node000003_Node000004" class="edge">
<title>Node3&#45;&gt;Node4</title>
<g id="a_edge3_Node000003_Node000004"><a xlink:title=" ">
<path fill="none" stroke="#63b8ff" d="M199.4,-98.55C191.38,-99.74 183.31,-100.94 175.39,-102.11"/>
<polygon fill="#63b8ff" stroke="#63b8ff" points="199.81,-102.03 209.18,-97.1 198.78,-95.1 199.81,-102.03"/>
</a>
</g>
</g>
<!-- Node5 -->
<g id="Node000005" class="node">
<title>Node5</title>
<g id="a_Node000005"><a xlink:href="../../d4/d06/class_deluxe_1_1_deluxe_brand_center_1_1_a_m_m_1_1_a_p_i_1_1_services_1_1_contact_manager_service.html#a9fed8bce1aa679c38c8e729ee735ca5f" target="_top" xlink:title=" ">
<polygon fill="white" stroke="#666666" points="175,-75 0,-75 0,-31 175,-31 175,-75"/>
<text text-anchor="start" x="8" y="-61.5" font-family="Helvetica,sans-Serif" font-size="10.00">Deluxe.DeluxeBrandCenter.</text>
<text text-anchor="start" x="8" y="-49.5" font-family="Helvetica,sans-Serif" font-size="10.00">AMM.API.Services.ContactManager</text>
<text text-anchor="middle" x="87.5" y="-37.5" font-family="Helvetica,sans-Serif" font-size="10.00">Service.UploadSaleForceContacts</text>
</a>
</g>
</g>
<!-- Node3&#45;&gt;Node5 -->
<g id="edge4_Node000003_Node000005" class="edge">
<title>Node3&#45;&gt;Node5</title>
<g id="a_edge4_Node000003_Node000005"><a xlink:title=" ">
<path fill="none" stroke="#63b8ff" d="M199.4,-69.45C191.38,-68.26 183.31,-67.06 175.39,-65.89"/>
<polygon fill="#63b8ff" stroke="#63b8ff" points="198.78,-72.9 209.18,-70.9 199.81,-65.97 198.78,-72.9"/>
</a>
</g>
</g>
</g>
</svg>
