<?xml version="1.0" encoding="UTF-8" standalone="no"?>
<!DOCTYPE svg PUBLIC "-//W3C//DTD SVG 1.1//EN"
 "http://www.w3.org/Graphics/SVG/1.1/DTD/svg11.dtd">
<!-- Generated by graphviz version 12.1.1 (20240910.0053)
 -->
<!-- Title: Deluxe.DeluxeBrandCenter.AMM.API.Services.ContactManagerService.GetGroup Pages: 1 -->
<svg width="1121pt" height="290pt"
 viewBox="0.00 0.00 1120.75 290.00" xmlns="http://www.w3.org/2000/svg" xmlns:xlink="http://www.w3.org/1999/xlink">
<g id="graph0" class="graph" transform="scale(1 1) rotate(0) translate(4 286)">
<title>Deluxe.DeluxeBrandCenter.AMM.API.Services.ContactManagerService.GetGroup</title>
<!-- Node1 -->
<g id="Node000001" class="node">
<title>Node1</title>
<g id="a_Node000001"><a xlink:title=" ">
<polygon fill="#999999" stroke="#666666" points="175,-175 0,-175 0,-131 175,-131 175,-175"/>
<text text-anchor="start" x="8" y="-161.5" font-family="Helvetica,sans-Serif" font-size="10.00">Deluxe.DeluxeBrandCenter.</text>
<text text-anchor="start" x="8" y="-149.5" font-family="Helvetica,sans-Serif" font-size="10.00">AMM.API.Services.ContactManager</text>
<text text-anchor="middle" x="87.5" y="-137.5" font-family="Helvetica,sans-Serif" font-size="10.00">Service.GetGroup</text>
</a>
</g>
</g>
<!-- Node2 -->
<g id="Node000002" class="node">
<title>Node2</title>
<g id="a_Node000002"><a xlink:href="../../d4/d06/class_deluxe_1_1_deluxe_brand_center_1_1_a_m_m_1_1_a_p_i_1_1_services_1_1_contact_manager_service.html#af3ee320e832b5241f698ab94cadab7cb" target="_top" xlink:title="Updates filter to exclude Unsubscribed and Ppersona Contacts.">
<polygon fill="white" stroke="#666666" points="413.38,-282 238.38,-282 238.38,-238 413.38,-238 413.38,-282"/>
<text text-anchor="start" x="246.38" y="-268.5" font-family="Helvetica,sans-Serif" font-size="10.00">Deluxe.DeluxeBrandCenter.</text>
<text text-anchor="start" x="246.38" y="-256.5" font-family="Helvetica,sans-Serif" font-size="10.00">AMM.API.Services.ContactManager</text>
<text text-anchor="middle" x="325.88" y="-244.5" font-family="Helvetica,sans-Serif" font-size="10.00">Service.FilterOutContacts</text>
</a>
</g>
</g>
<!-- Node1&#45;&gt;Node2 -->
<g id="edge1_Node000001_Node000002" class="edge">
<title>Node1&#45;&gt;Node2</title>
<g id="a_edge1_Node000001_Node000002"><a xlink:title=" ">
<path fill="none" stroke="#63b8ff" d="M122.55,-175.45C146.55,-190.6 179.85,-210.25 211,-224 218.8,-227.44 227.04,-230.71 235.36,-233.77"/>
<polygon fill="#63b8ff" stroke="#63b8ff" points="233.91,-236.97 244.51,-237.02 236.26,-230.37 233.91,-236.97"/>
</a>
</g>
</g>
<!-- Node3 -->
<g id="Node000003" class="node">
<title>Node3</title>
<g id="a_Node000003"><a xlink:href="../../d4/d06/class_deluxe_1_1_deluxe_brand_center_1_1_a_m_m_1_1_a_p_i_1_1_services_1_1_contact_manager_service.html#af5c0313fcaae40d09f41022ef3f1d08d" target="_top" xlink:title=" ">
<polygon fill="white" stroke="#666666" points="661.12,-244 486.12,-244 486.12,-200 661.12,-200 661.12,-244"/>
<text text-anchor="start" x="494.12" y="-230.5" font-family="Helvetica,sans-Serif" font-size="10.00">Deluxe.DeluxeBrandCenter.</text>
<text text-anchor="start" x="494.12" y="-218.5" font-family="Helvetica,sans-Serif" font-size="10.00">AMM.API.Services.ContactManager</text>
<text text-anchor="middle" x="573.62" y="-206.5" font-family="Helvetica,sans-Serif" font-size="10.00">Service.GetContactsForFilteringOut</text>
</a>
</g>
</g>
<!-- Node1&#45;&gt;Node3 -->
<g id="edge5_Node000001_Node000003" class="edge">
<title>Node1&#45;&gt;Node3</title>
<g id="a_edge5_Node000001_Node000003"><a xlink:title=" ">
<path fill="none" stroke="#63b8ff" d="M164.19,-175.46C179.57,-179.44 195.73,-183.2 211,-186 299.36,-202.19 401.3,-211.5 474.38,-216.59"/>
<polygon fill="#63b8ff" stroke="#63b8ff" points="474.12,-220.08 484.34,-217.26 474.6,-213.09 474.12,-220.08"/>
</a>
</g>
</g>
<!-- Node5 -->
<g id="Node000005" class="node">
<title>Node5</title>
<g id="a_Node000005"><a xlink:href="../../dd/d7d/interface_deluxe_1_1_deluxe_brand_center_1_1_a_m_m_1_1_domain_1_1_services_1_1_i_session_service.html#acfcf18f3c8f0b4e9c334223ec33b588f" target="_top" xlink:title=" ">
<polygon fill="white" stroke="#666666" points="1112.75,-219 918.25,-219 918.25,-175 1112.75,-175 1112.75,-219"/>
<text text-anchor="start" x="926.25" y="-205.5" font-family="Helvetica,sans-Serif" font-size="10.00">Deluxe.DeluxeBrandCenter.</text>
<text text-anchor="start" x="926.25" y="-193.5" font-family="Helvetica,sans-Serif" font-size="10.00">AMM.Domain.Services.ISessionService.</text>
<text text-anchor="middle" x="1015.5" y="-181.5" font-family="Helvetica,sans-Serif" font-size="10.00">SessionGetUser</text>
</a>
</g>
</g>
<!-- Node1&#45;&gt;Node5 -->
<g id="edge10_Node000001_Node000005" class="edge">
<title>Node1&#45;&gt;Node5</title>
<g id="a_edge10_Node000001_Node000005"><a xlink:title=" ">
<path fill="none" stroke="#63b8ff" d="M175.2,-157.12C344.97,-165.19 720.82,-183.05 906.45,-191.87"/>
<polygon fill="#63b8ff" stroke="#63b8ff" points="906.19,-195.36 916.34,-192.34 906.52,-188.37 906.19,-195.36"/>
</a>
</g>
</g>
<!-- Node6 -->
<g id="Node000006" class="node">
<title>Node6</title>
<g id="a_Node000006"><a xlink:href="../../d4/d06/class_deluxe_1_1_deluxe_brand_center_1_1_a_m_m_1_1_a_p_i_1_1_services_1_1_contact_manager_service.html#a2bd48bb80346e93bd53e62486e837a22" target="_top" xlink:title=" ">
<polygon fill="white" stroke="#666666" points="670.5,-125 476.75,-125 476.75,-81 670.5,-81 670.5,-125"/>
<text text-anchor="start" x="484.75" y="-111.5" font-family="Helvetica,sans-Serif" font-size="10.00">Deluxe.DeluxeBrandCenter.</text>
<text text-anchor="start" x="484.75" y="-99.5" font-family="Helvetica,sans-Serif" font-size="10.00">AMM.API.Services.ContactManager</text>
<text text-anchor="middle" x="573.62" y="-87.5" font-family="Helvetica,sans-Serif" font-size="10.00">Service.getManuallyAddedContactsFilter</text>
</a>
</g>
</g>
<!-- Node1&#45;&gt;Node6 -->
<g id="edge6_Node000001_Node000006" class="edge">
<title>Node1&#45;&gt;Node6</title>
<g id="a_edge6_Node000001_Node000006"><a xlink:title=" ">
<path fill="none" stroke="#63b8ff" d="M175.33,-144.03C256.53,-135.65 378.04,-123.1 465.29,-114.09"/>
<polygon fill="#63b8ff" stroke="#63b8ff" points="465.47,-117.59 475.05,-113.08 464.75,-110.62 465.47,-117.59"/>
</a>
</g>
</g>
<!-- Node7 -->
<g id="Node000007" class="node">
<title>Node7</title>
<g id="a_Node000007"><a xlink:href="../../d4/d06/class_deluxe_1_1_deluxe_brand_center_1_1_a_m_m_1_1_a_p_i_1_1_services_1_1_contact_manager_service.html#afe4d7064e42787c37ba33c7cd3ad9921" target="_top" xlink:title=" ">
<polygon fill="white" stroke="#666666" points="440.75,-106 211,-106 211,-62 440.75,-62 440.75,-106"/>
<text text-anchor="start" x="219" y="-92.5" font-family="Helvetica,sans-Serif" font-size="10.00">Deluxe.DeluxeBrandCenter.</text>
<text text-anchor="start" x="219" y="-80.5" font-family="Helvetica,sans-Serif" font-size="10.00">AMM.API.Services.ContactManager</text>
<text text-anchor="middle" x="325.88" y="-68.5" font-family="Helvetica,sans-Serif" font-size="10.00">Service.removeManuallyAdedContactsFromFilter</text>
</a>
</g>
</g>
<!-- Node1&#45;&gt;Node7 -->
<g id="edge7_Node000001_Node000007" class="edge">
<title>Node1&#45;&gt;Node7</title>
<g id="a_edge7_Node000001_Node000007"><a xlink:title=" ">
<path fill="none" stroke="#63b8ff" d="M165.57,-130.5C188.37,-123.85 213.49,-116.51 236.92,-109.67"/>
<polygon fill="#63b8ff" stroke="#63b8ff" points="237.84,-113.05 246.46,-106.89 235.88,-106.33 237.84,-113.05"/>
</a>
</g>
</g>
<!-- Node8 -->
<g id="Node000008" class="node">
<title>Node8</title>
<g id="a_Node000008"><a xlink:href="../../dd/d7d/interface_deluxe_1_1_deluxe_brand_center_1_1_a_m_m_1_1_domain_1_1_services_1_1_i_session_service.html#a0ec7d7d28fa63000ba8d1bea1960d1e0" target="_top" xlink:title=" ">
<polygon fill="white" stroke="#666666" points="423.12,-44 228.62,-44 228.62,0 423.12,0 423.12,-44"/>
<text text-anchor="start" x="236.62" y="-30.5" font-family="Helvetica,sans-Serif" font-size="10.00">Deluxe.DeluxeBrandCenter.</text>
<text text-anchor="start" x="236.62" y="-18.5" font-family="Helvetica,sans-Serif" font-size="10.00">AMM.Domain.Services.ISessionService.</text>
<text text-anchor="middle" x="325.88" y="-6.5" font-family="Helvetica,sans-Serif" font-size="10.00">SessionGetClientName</text>
</a>
</g>
</g>
<!-- Node1&#45;&gt;Node8 -->
<g id="edge9_Node000001_Node000008" class="edge">
<title>Node1&#45;&gt;Node8</title>
<g id="a_edge9_Node000001_Node000008"><a xlink:title=" ">
<path fill="none" stroke="#63b8ff" d="M109.92,-130.68C132.9,-107.99 171.45,-73.35 211,-53 213.86,-51.53 216.8,-50.12 219.8,-48.77"/>
<polygon fill="#63b8ff" stroke="#63b8ff" points="220.9,-52.1 228.78,-45.01 218.2,-45.65 220.9,-52.1"/>
</a>
</g>
</g>
<!-- Node2&#45;&gt;Node3 -->
<g id="edge2_Node000002_Node000003" class="edge">
<title>Node2&#45;&gt;Node3</title>
<g id="a_edge2_Node000002_Node000003"><a xlink:title=" ">
<path fill="none" stroke="#63b8ff" d="M413.86,-246.55C433.46,-243.52 454.39,-240.28 474.41,-237.19"/>
<polygon fill="#63b8ff" stroke="#63b8ff" points="474.91,-240.65 484.26,-235.66 473.84,-233.73 474.91,-240.65"/>
</a>
</g>
</g>
<!-- Node4 -->
<g id="Node000004" class="node">
<title>Node4</title>
<g id="a_Node000004"><a xlink:href="../../d4/d06/class_deluxe_1_1_deluxe_brand_center_1_1_a_m_m_1_1_a_p_i_1_1_services_1_1_contact_manager_service.html#a0d4bb3161a8ff399d0720dbb775430c3" target="_top" xlink:title=" ">
<polygon fill="white" stroke="#666666" points="882.25,-244 706.5,-244 706.5,-200 882.25,-200 882.25,-244"/>
<text text-anchor="start" x="714.5" y="-230.5" font-family="Helvetica,sans-Serif" font-size="10.00">Deluxe.DeluxeBrandCenter.</text>
<text text-anchor="start" x="714.5" y="-218.5" font-family="Helvetica,sans-Serif" font-size="10.00">AMM.API.Services.ContactManager</text>
<text text-anchor="middle" x="794.38" y="-206.5" font-family="Helvetica,sans-Serif" font-size="10.00">Service.GetUnsubscribedContactsId</text>
</a>
</g>
</g>
<!-- Node3&#45;&gt;Node4 -->
<g id="edge3_Node000003_Node000004" class="edge">
<title>Node3&#45;&gt;Node4</title>
<g id="a_edge3_Node000003_Node000004"><a xlink:title=" ">
<path fill="none" stroke="#63b8ff" d="M661.39,-222C672.49,-222 683.91,-222 695.16,-222"/>
<polygon fill="#63b8ff" stroke="#63b8ff" points="694.84,-225.5 704.84,-222 694.84,-218.5 694.84,-225.5"/>
</a>
</g>
</g>
<!-- Node4&#45;&gt;Node5 -->
<g id="edge4_Node000004_Node000005" class="edge">
<title>Node4&#45;&gt;Node5</title>
<g id="a_edge4_Node000004_Node000005"><a xlink:title=" ">
<path fill="none" stroke="#63b8ff" d="M882.61,-212.05C890.48,-211.15 898.51,-210.23 906.52,-209.32"/>
<polygon fill="#63b8ff" stroke="#63b8ff" points="906.79,-212.81 916.33,-208.2 906,-205.86 906.79,-212.81"/>
</a>
</g>
</g>
<!-- Node7&#45;&gt;Node6 -->
<g id="edge8_Node000007_Node000006" class="edge">
<title>Node7&#45;&gt;Node6</title>
<g id="a_edge8_Node000007_Node000006"><a xlink:title=" ">
<path fill="none" stroke="#63b8ff" d="M441.12,-92.83C449.03,-93.44 457,-94.06 464.88,-94.67"/>
<polygon fill="#63b8ff" stroke="#63b8ff" points="464.6,-98.16 474.84,-95.44 465.14,-91.18 464.6,-98.16"/>
</a>
</g>
</g>
</g>
</svg>
