<?xml version="1.0" encoding="UTF-8" standalone="no"?>
<!DOCTYPE svg PUBLIC "-//W3C//DTD SVG 1.1//EN"
 "http://www.w3.org/Graphics/SVG/1.1/DTD/svg11.dtd">
<!-- Generated by graphviz version 12.1.1 (20240910.0053)
 -->
<!-- Title: Deluxe.DeluxeBrandCenter.AMM.API.Services.ContactManagerService.GetErrorCSV Pages: 1 -->
<svg width="638pt" height="176pt"
 viewBox="0.00 0.00 638.00 176.00" xmlns="http://www.w3.org/2000/svg" xmlns:xlink="http://www.w3.org/1999/xlink">
<g id="graph0" class="graph" transform="scale(1 1) rotate(0) translate(4 172)">
<title>Deluxe.DeluxeBrandCenter.AMM.API.Services.ContactManagerService.GetErrorCSV</title>
<!-- Node1 -->
<g id="Node000001" class="node">
<title>Node1</title>
<g id="a_Node000001"><a xlink:title=" ">
<polygon fill="#999999" stroke="#666666" points="175,-106 0,-106 0,-62 175,-62 175,-106"/>
<text text-anchor="start" x="8" y="-92.5" font-family="Helvetica,sans-Serif" font-size="10.00">Deluxe.DeluxeBrandCenter.</text>
<text text-anchor="start" x="8" y="-80.5" font-family="Helvetica,sans-Serif" font-size="10.00">AMM.API.Services.ContactManager</text>
<text text-anchor="middle" x="87.5" y="-68.5" font-family="Helvetica,sans-Serif" font-size="10.00">Service.GetErrorCSV</text>
</a>
</g>
</g>
<!-- Node2 -->
<g id="Node000002" class="node">
<title>Node2</title>
<g id="a_Node000002"><a xlink:href="../../dd/d19/class_deluxe_1_1_deluxe_brand_center_1_1_a_m_m_1_1_domain_1_1_utility_1_1_contact_c_s_v_table.html#a1301cb8c89b6bd73b049104a84c5ee0d" target="_top" xlink:title=" ">
<polygon fill="white" stroke="#666666" points="402.5,-168 214,-168 214,-124 402.5,-124 402.5,-168"/>
<text text-anchor="start" x="222" y="-154.5" font-family="Helvetica,sans-Serif" font-size="10.00">Deluxe.DeluxeBrandCenter.</text>
<text text-anchor="start" x="222" y="-142.5" font-family="Helvetica,sans-Serif" font-size="10.00">AMM.Domain.Utility.ContactCSVTable.</text>
<text text-anchor="middle" x="308.25" y="-130.5" font-family="Helvetica,sans-Serif" font-size="10.00">GetErrorRows</text>
</a>
</g>
</g>
<!-- Node1&#45;&gt;Node2 -->
<g id="edge1_Node000001_Node000002" class="edge">
<title>Node1&#45;&gt;Node2</title>
<g id="a_edge1_Node000001_Node000002"><a xlink:title=" ">
<path fill="none" stroke="#63b8ff" d="M167.78,-106.47C183.83,-111.02 200.82,-115.83 217.2,-120.48"/>
<polygon fill="#63b8ff" stroke="#63b8ff" points="215.84,-123.73 226.41,-123.09 217.75,-116.99 215.84,-123.73"/>
</a>
</g>
</g>
<!-- Node4 -->
<g id="Node000004" class="node">
<title>Node4</title>
<g id="a_Node000004"><a xlink:href="../../dd/d7d/interface_deluxe_1_1_deluxe_brand_center_1_1_a_m_m_1_1_domain_1_1_services_1_1_i_session_service.html#acfcf18f3c8f0b4e9c334223ec33b588f" target="_top" xlink:title=" ">
<polygon fill="white" stroke="#666666" points="405.5,-106 211,-106 211,-62 405.5,-62 405.5,-106"/>
<text text-anchor="start" x="219" y="-92.5" font-family="Helvetica,sans-Serif" font-size="10.00">Deluxe.DeluxeBrandCenter.</text>
<text text-anchor="start" x="219" y="-80.5" font-family="Helvetica,sans-Serif" font-size="10.00">AMM.Domain.Services.ISessionService.</text>
<text text-anchor="middle" x="308.25" y="-68.5" font-family="Helvetica,sans-Serif" font-size="10.00">SessionGetUser</text>
</a>
</g>
</g>
<!-- Node1&#45;&gt;Node4 -->
<g id="edge3_Node000001_Node000004" class="edge">
<title>Node1&#45;&gt;Node4</title>
<g id="a_edge3_Node000001_Node000004"><a xlink:title=" ">
<path fill="none" stroke="#63b8ff" d="M175.27,-84C183.22,-84 191.33,-84 199.43,-84"/>
<polygon fill="#63b8ff" stroke="#63b8ff" points="199.34,-87.5 209.34,-84 199.34,-80.5 199.34,-87.5"/>
</a>
</g>
</g>
<!-- Node5 -->
<g id="Node000005" class="node">
<title>Node5</title>
<g id="a_Node000005"><a xlink:href="../../df/db6/interface_deluxe_1_1_deluxe_brand_center_1_1_a_m_m_1_1_infrastructure_1_1_a_w_s_1_1_s3_1_1_i_amazon_s3_service.html#a490efb7571eb581bce83501b3103eadc" target="_top" xlink:title=" ">
<polygon fill="white" stroke="#666666" points="399.5,-44 217,-44 217,0 399.5,0 399.5,-44"/>
<text text-anchor="start" x="225" y="-30.5" font-family="Helvetica,sans-Serif" font-size="10.00">Deluxe.DeluxeBrandCenter.</text>
<text text-anchor="start" x="225" y="-18.5" font-family="Helvetica,sans-Serif" font-size="10.00">AMM.Infrastructure.AWS.S3.IAmazon</text>
<text text-anchor="middle" x="308.25" y="-6.5" font-family="Helvetica,sans-Serif" font-size="10.00">S3Service.UploadBadCSV</text>
</a>
</g>
</g>
<!-- Node1&#45;&gt;Node5 -->
<g id="edge4_Node000001_Node000005" class="edge">
<title>Node1&#45;&gt;Node5</title>
<g id="a_edge4_Node000001_Node000005"><a xlink:title=" ">
<path fill="none" stroke="#63b8ff" d="M167.78,-61.53C183.83,-56.98 200.82,-52.17 217.2,-47.52"/>
<polygon fill="#63b8ff" stroke="#63b8ff" points="217.75,-51.01 226.41,-44.91 215.84,-44.27 217.75,-51.01"/>
</a>
</g>
</g>
<!-- Node3 -->
<g id="Node000003" class="node">
<title>Node3</title>
<g id="a_Node000003"><a xlink:href="../../dd/d19/class_deluxe_1_1_deluxe_brand_center_1_1_a_m_m_1_1_domain_1_1_utility_1_1_contact_c_s_v_table.html#a47e9c53d2eac1f9adbc67b409c42454c" target="_top" xlink:title=" ">
<polygon fill="white" stroke="#666666" points="630,-168 441.5,-168 441.5,-124 630,-124 630,-168"/>
<text text-anchor="start" x="449.5" y="-154.5" font-family="Helvetica,sans-Serif" font-size="10.00">Deluxe.DeluxeBrandCenter.</text>
<text text-anchor="start" x="449.5" y="-142.5" font-family="Helvetica,sans-Serif" font-size="10.00">AMM.Domain.Utility.ContactCSVTable.</text>
<text text-anchor="middle" x="535.75" y="-130.5" font-family="Helvetica,sans-Serif" font-size="10.00">ContactCSVTable</text>
</a>
</g>
</g>
<!-- Node2&#45;&gt;Node3 -->
<g id="edge2_Node000002_Node000003" class="edge">
<title>Node2&#45;&gt;Node3</title>
<g id="a_edge2_Node000002_Node000003"><a xlink:title=" ">
<path fill="none" stroke="#63b8ff" d="M402.92,-146C411.77,-146 420.78,-146 429.73,-146"/>
<polygon fill="#63b8ff" stroke="#63b8ff" points="429.49,-149.5 439.49,-146 429.49,-142.5 429.49,-149.5"/>
</a>
</g>
</g>
</g>
</svg>
