<?xml version="1.0" encoding="UTF-8" standalone="no"?>
<!DOCTYPE svg PUBLIC "-//W3C//DTD SVG 1.1//EN"
 "http://www.w3.org/Graphics/SVG/1.1/DTD/svg11.dtd">
<!-- Generated by graphviz version 12.1.1 (20240910.0053)
 -->
<!-- Title: Deluxe.DeluxeBrandCenter.AMM.API.Services.ContactManagerService.getManuallyAddedContactsFilter Pages: 1 -->
<svg width="890pt" height="77pt"
 viewBox="0.00 0.00 889.50 77.00" xmlns="http://www.w3.org/2000/svg" xmlns:xlink="http://www.w3.org/1999/xlink">
<g id="graph0" class="graph" transform="scale(1 1) rotate(0) translate(4 73)">
<title>Deluxe.DeluxeBrandCenter.AMM.API.Services.ContactManagerService.getManuallyAddedContactsFilter</title>
<!-- Node1 -->
<g id="Node000001" class="node">
<title>Node1</title>
<g id="a_Node000001"><a xlink:title=" ">
<polygon fill="#999999" stroke="#666666" points="881.5,-69 687.75,-69 687.75,-25 881.5,-25 881.5,-69"/>
<text text-anchor="start" x="695.75" y="-55.5" font-family="Helvetica,sans-Serif" font-size="10.00">Deluxe.DeluxeBrandCenter.</text>
<text text-anchor="start" x="695.75" y="-43.5" font-family="Helvetica,sans-Serif" font-size="10.00">AMM.API.Services.ContactManager</text>
<text text-anchor="middle" x="784.62" y="-31.5" font-family="Helvetica,sans-Serif" font-size="10.00">Service.getManuallyAddedContactsFilter</text>
</a>
</g>
</g>
<!-- Node2 -->
<g id="Node000002" class="node">
<title>Node2</title>
<g id="a_Node000002"><a xlink:href="../../d4/d06/class_deluxe_1_1_deluxe_brand_center_1_1_a_m_m_1_1_a_p_i_1_1_services_1_1_contact_manager_service.html#a7c46eb328b0be11ae5082d8512e4356e" target="_top" xlink:title=" ">
<polygon fill="white" stroke="#666666" points="386,-69 211,-69 211,-25 386,-25 386,-69"/>
<text text-anchor="start" x="219" y="-55.5" font-family="Helvetica,sans-Serif" font-size="10.00">Deluxe.DeluxeBrandCenter.</text>
<text text-anchor="start" x="219" y="-43.5" font-family="Helvetica,sans-Serif" font-size="10.00">AMM.API.Services.ContactManager</text>
<text text-anchor="middle" x="298.5" y="-31.5" font-family="Helvetica,sans-Serif" font-size="10.00">Service.GetGroup</text>
</a>
</g>
</g>
<!-- Node1&#45;&gt;Node2 -->
<g id="edge1_Node000001_Node000002" class="edge">
<title>Node1&#45;&gt;Node2</title>
<g id="a_edge1_Node000001_Node000002"><a xlink:title=" ">
<path fill="none" stroke="#63b8ff" d="M676.2,-52.29C667.93,-52.58 659.71,-52.82 651.75,-53 549.67,-55.32 524.08,-55.5 422,-53 410.51,-52.72 398.41,-52.29 386.48,-51.79"/>
<polygon fill="#63b8ff" stroke="#63b8ff" points="676.11,-55.8 685.98,-51.94 675.86,-48.8 676.11,-55.8"/>
</a>
</g>
</g>
<!-- Node4 -->
<g id="Node000004" class="node">
<title>Node4</title>
<g id="a_Node000004"><a xlink:href="../../d4/d06/class_deluxe_1_1_deluxe_brand_center_1_1_a_m_m_1_1_a_p_i_1_1_services_1_1_contact_manager_service.html#afe4d7064e42787c37ba33c7cd3ad9921" target="_top" xlink:title=" ">
<polygon fill="white" stroke="#666666" points="651.75,-44 422,-44 422,0 651.75,0 651.75,-44"/>
<text text-anchor="start" x="430" y="-30.5" font-family="Helvetica,sans-Serif" font-size="10.00">Deluxe.DeluxeBrandCenter.</text>
<text text-anchor="start" x="430" y="-18.5" font-family="Helvetica,sans-Serif" font-size="10.00">AMM.API.Services.ContactManager</text>
<text text-anchor="middle" x="536.88" y="-6.5" font-family="Helvetica,sans-Serif" font-size="10.00">Service.removeManuallyAdedContactsFromFilter</text>
</a>
</g>
</g>
<!-- Node1&#45;&gt;Node4 -->
<g id="edge3_Node000001_Node000004" class="edge">
<title>Node1&#45;&gt;Node4</title>
<g id="a_edge3_Node000001_Node000004"><a xlink:title=" ">
<path fill="none" stroke="#63b8ff" d="M676.21,-36.07C668.13,-35.25 659.97,-34.42 651.85,-33.59"/>
<polygon fill="#63b8ff" stroke="#63b8ff" points="675.75,-39.54 686.05,-37.07 676.46,-32.58 675.75,-39.54"/>
</a>
</g>
</g>
<!-- Node3 -->
<g id="Node000003" class="node">
<title>Node3</title>
<g id="a_Node000003"><a xlink:href="../../d4/d06/class_deluxe_1_1_deluxe_brand_center_1_1_a_m_m_1_1_a_p_i_1_1_services_1_1_contact_manager_service.html#a083029cf71592c87e571f1d675e4da7a" target="_top" xlink:title="Get paginated list of groups.">
<polygon fill="white" stroke="#666666" points="175,-69 0,-69 0,-25 175,-25 175,-69"/>
<text text-anchor="start" x="8" y="-55.5" font-family="Helvetica,sans-Serif" font-size="10.00">Deluxe.DeluxeBrandCenter.</text>
<text text-anchor="start" x="8" y="-43.5" font-family="Helvetica,sans-Serif" font-size="10.00">AMM.API.Services.ContactManager</text>
<text text-anchor="middle" x="87.5" y="-31.5" font-family="Helvetica,sans-Serif" font-size="10.00">Service.GetGroups</text>
</a>
</g>
</g>
<!-- Node2&#45;&gt;Node3 -->
<g id="edge2_Node000002_Node000003" class="edge">
<title>Node2&#45;&gt;Node3</title>
<g id="a_edge2_Node000002_Node000003"><a xlink:title=" ">
<path fill="none" stroke="#63b8ff" d="M199.4,-47C191.38,-47 183.31,-47 175.39,-47"/>
<polygon fill="#63b8ff" stroke="#63b8ff" points="199.17,-50.5 209.17,-47 199.17,-43.5 199.17,-50.5"/>
</a>
</g>
</g>
<!-- Node4&#45;&gt;Node2 -->
<g id="edge4_Node000004_Node000002" class="edge">
<title>Node4&#45;&gt;Node2</title>
<g id="a_edge4_Node000004_Node000002"><a xlink:title=" ">
<path fill="none" stroke="#63b8ff" d="M410.66,-35.24C402.47,-36.11 394.33,-36.97 386.39,-37.81"/>
<polygon fill="#63b8ff" stroke="#63b8ff" points="410.76,-38.75 420.34,-34.22 410.02,-31.79 410.76,-38.75"/>
</a>
</g>
</g>
</g>
</svg>
