<?xml version="1.0" encoding="UTF-8" standalone="no"?>
<!DOCTYPE svg PUBLIC "-//W3C//DTD SVG 1.1//EN"
 "http://www.w3.org/Graphics/SVG/1.1/DTD/svg11.dtd">
<!-- Generated by graphviz version 12.1.1 (20240910.0053)
 -->
<!-- Title: Deluxe.DeluxeBrandCenter.AMM.API.Services.ContactManagerService.GetSFLeads Pages: 1 -->
<svg width="414pt" height="238pt"
 viewBox="0.00 0.00 413.50 238.00" xmlns="http://www.w3.org/2000/svg" xmlns:xlink="http://www.w3.org/1999/xlink">
<g id="graph0" class="graph" transform="scale(1 1) rotate(0) translate(4 234)">
<title>Deluxe.DeluxeBrandCenter.AMM.API.Services.ContactManagerService.GetSFLeads</title>
<!-- Node1 -->
<g id="Node000001" class="node">
<title>Node1</title>
<g id="a_Node000001"><a xlink:title=" ">
<polygon fill="#999999" stroke="#666666" points="175,-137 0,-137 0,-93 175,-93 175,-137"/>
<text text-anchor="start" x="8" y="-123.5" font-family="Helvetica,sans-Serif" font-size="10.00">Deluxe.DeluxeBrandCenter.</text>
<text text-anchor="start" x="8" y="-111.5" font-family="Helvetica,sans-Serif" font-size="10.00">AMM.API.Services.ContactManager</text>
<text text-anchor="middle" x="87.5" y="-99.5" font-family="Helvetica,sans-Serif" font-size="10.00">Service.GetSFLeads</text>
</a>
</g>
</g>
<!-- Node2 -->
<g id="Node000002" class="node">
<title>Node2</title>
<g id="a_Node000002"><a xlink:href="../../db/d9f/interface_deluxe_1_1_deluxe_brand_center_1_1_a_m_m_1_1_infrastructure_1_1_salesforce_1_1_i_salesforce_service.html#a9d48ddfc80783f301037cca7aea9f667" target="_top" xlink:title=" ">
<polygon fill="white" stroke="#666666" points="404.75,-230 211.75,-230 211.75,-186 404.75,-186 404.75,-230"/>
<text text-anchor="start" x="219.75" y="-216.5" font-family="Helvetica,sans-Serif" font-size="10.00">Deluxe.DeluxeBrandCenter.</text>
<text text-anchor="start" x="219.75" y="-204.5" font-family="Helvetica,sans-Serif" font-size="10.00">AMM.Infrastructure.Salesforce.</text>
<text text-anchor="middle" x="308.25" y="-192.5" font-family="Helvetica,sans-Serif" font-size="10.00">ISalesforceService.GetSalesForceLeads</text>
</a>
</g>
</g>
<!-- Node1&#45;&gt;Node2 -->
<g id="edge1_Node000001_Node000002" class="edge">
<title>Node1&#45;&gt;Node2</title>
<g id="a_edge1_Node000001_Node000002"><a xlink:title=" ">
<path fill="none" stroke="#63b8ff" d="M128.86,-137.45C152.4,-150.02 182.89,-165.44 211,-177 214.84,-178.58 218.79,-180.13 222.8,-181.64"/>
<polygon fill="#63b8ff" stroke="#63b8ff" points="221.49,-184.89 232.09,-185.05 223.9,-178.32 221.49,-184.89"/>
</a>
</g>
</g>
<!-- Node3 -->
<g id="Node000003" class="node">
<title>Node3</title>
<g id="a_Node000003"><a xlink:href="../../dd/d7d/interface_deluxe_1_1_deluxe_brand_center_1_1_a_m_m_1_1_domain_1_1_services_1_1_i_session_service.html#ad85d03e7ce57159f6df745351cde07be" target="_top" xlink:title=" ">
<polygon fill="white" stroke="#666666" points="405.5,-168 211,-168 211,-124 405.5,-124 405.5,-168"/>
<text text-anchor="start" x="219" y="-154.5" font-family="Helvetica,sans-Serif" font-size="10.00">Deluxe.DeluxeBrandCenter.</text>
<text text-anchor="start" x="219" y="-142.5" font-family="Helvetica,sans-Serif" font-size="10.00">AMM.Domain.Services.ISessionService.</text>
<text text-anchor="middle" x="308.25" y="-130.5" font-family="Helvetica,sans-Serif" font-size="10.00">SessionGetSFApiVersion</text>
</a>
</g>
</g>
<!-- Node1&#45;&gt;Node3 -->
<g id="edge2_Node000001_Node000003" class="edge">
<title>Node1&#45;&gt;Node3</title>
<g id="a_edge2_Node000001_Node000003"><a xlink:title=" ">
<path fill="none" stroke="#63b8ff" d="M175.27,-127.3C183.31,-128.44 191.51,-129.6 199.71,-130.76"/>
<polygon fill="#63b8ff" stroke="#63b8ff" points="198.96,-134.19 209.36,-132.13 199.95,-127.26 198.96,-134.19"/>
</a>
</g>
</g>
<!-- Node4 -->
<g id="Node000004" class="node">
<title>Node4</title>
<g id="a_Node000004"><a xlink:href="../../dd/d7d/interface_deluxe_1_1_deluxe_brand_center_1_1_a_m_m_1_1_domain_1_1_services_1_1_i_session_service.html#a1ff9609246578949bb1833867cb198f3" target="_top" xlink:title=" ">
<polygon fill="white" stroke="#666666" points="405.5,-106 211,-106 211,-62 405.5,-62 405.5,-106"/>
<text text-anchor="start" x="219" y="-92.5" font-family="Helvetica,sans-Serif" font-size="10.00">Deluxe.DeluxeBrandCenter.</text>
<text text-anchor="start" x="219" y="-80.5" font-family="Helvetica,sans-Serif" font-size="10.00">AMM.Domain.Services.ISessionService.</text>
<text text-anchor="middle" x="308.25" y="-68.5" font-family="Helvetica,sans-Serif" font-size="10.00">SessionGetSFAuthToken</text>
</a>
</g>
</g>
<!-- Node1&#45;&gt;Node4 -->
<g id="edge3_Node000001_Node000004" class="edge">
<title>Node1&#45;&gt;Node4</title>
<g id="a_edge3_Node000001_Node000004"><a xlink:title=" ">
<path fill="none" stroke="#63b8ff" d="M175.27,-102.7C183.31,-101.56 191.51,-100.4 199.71,-99.24"/>
<polygon fill="#63b8ff" stroke="#63b8ff" points="199.95,-102.74 209.36,-97.87 198.96,-95.81 199.95,-102.74"/>
</a>
</g>
</g>
<!-- Node5 -->
<g id="Node000005" class="node">
<title>Node5</title>
<g id="a_Node000005"><a xlink:href="../../dd/d7d/interface_deluxe_1_1_deluxe_brand_center_1_1_a_m_m_1_1_domain_1_1_services_1_1_i_session_service.html#a7c5139f27a5eec5ef0e3a6f867c728e8" target="_top" xlink:title=" ">
<polygon fill="white" stroke="#666666" points="405.5,-44 211,-44 211,0 405.5,0 405.5,-44"/>
<text text-anchor="start" x="219" y="-30.5" font-family="Helvetica,sans-Serif" font-size="10.00">Deluxe.DeluxeBrandCenter.</text>
<text text-anchor="start" x="219" y="-18.5" font-family="Helvetica,sans-Serif" font-size="10.00">AMM.Domain.Services.ISessionService.</text>
<text text-anchor="middle" x="308.25" y="-6.5" font-family="Helvetica,sans-Serif" font-size="10.00">SessionGetSFInstance</text>
</a>
</g>
</g>
<!-- Node1&#45;&gt;Node5 -->
<g id="edge4_Node000001_Node000005" class="edge">
<title>Node1&#45;&gt;Node5</title>
<g id="a_edge4_Node000001_Node000005"><a xlink:title=" ">
<path fill="none" stroke="#63b8ff" d="M128.86,-92.55C152.4,-79.98 182.89,-64.56 211,-53 214.84,-51.42 218.79,-49.87 222.8,-48.36"/>
<polygon fill="#63b8ff" stroke="#63b8ff" points="223.9,-51.68 232.09,-44.95 221.49,-45.11 223.9,-51.68"/>
</a>
</g>
</g>
</g>
</svg>
