<?xml version="1.0" encoding="UTF-8" standalone="no"?>
<!DOCTYPE svg PUBLIC "-//W3C//DTD SVG 1.1//EN"
 "http://www.w3.org/Graphics/SVG/1.1/DTD/svg11.dtd">
<!-- Generated by graphviz version 12.1.1 (20240910.0053)
 -->
<!-- Title: Deluxe.DeluxeBrandCenter.AMM.API.Services.ContactManagerService.GetRedtailTagGroup Pages: 1 -->
<svg width="855pt" height="251pt"
 viewBox="0.00 0.00 855.00 251.00" xmlns="http://www.w3.org/2000/svg" xmlns:xlink="http://www.w3.org/1999/xlink">
<g id="graph0" class="graph" transform="scale(1 1) rotate(0) translate(4 247)">
<title>Deluxe.DeluxeBrandCenter.AMM.API.Services.ContactManagerService.GetRedtailTagGroup</title>
<!-- Node1 -->
<g id="Node000001" class="node">
<title>Node1</title>
<g id="a_Node000001"><a xlink:title=" ">
<polygon fill="#999999" stroke="#666666" points="175,-131 0,-131 0,-87 175,-87 175,-131"/>
<text text-anchor="start" x="8" y="-117.5" font-family="Helvetica,sans-Serif" font-size="10.00">Deluxe.DeluxeBrandCenter.</text>
<text text-anchor="start" x="8" y="-105.5" font-family="Helvetica,sans-Serif" font-size="10.00">AMM.API.Services.ContactManager</text>
<text text-anchor="middle" x="87.5" y="-93.5" font-family="Helvetica,sans-Serif" font-size="10.00">Service.GetRedtailTagGroup</text>
</a>
</g>
</g>
<!-- Node2 -->
<g id="Node000002" class="node">
<title>Node2</title>
<g id="a_Node000002"><a xlink:href="../../d4/d06/class_deluxe_1_1_deluxe_brand_center_1_1_a_m_m_1_1_a_p_i_1_1_services_1_1_contact_manager_service.html#a783fc2f127a67a065676691c50834e1c" target="_top" xlink:title=" ">
<polygon fill="white" stroke="#666666" points="395.75,-206 220.75,-206 220.75,-162 395.75,-162 395.75,-206"/>
<text text-anchor="start" x="228.75" y="-192.5" font-family="Helvetica,sans-Serif" font-size="10.00">Deluxe.DeluxeBrandCenter.</text>
<text text-anchor="start" x="228.75" y="-180.5" font-family="Helvetica,sans-Serif" font-size="10.00">AMM.API.Services.ContactManager</text>
<text text-anchor="middle" x="308.25" y="-168.5" font-family="Helvetica,sans-Serif" font-size="10.00">Service.FillContactInfoErrors</text>
</a>
</g>
</g>
<!-- Node1&#45;&gt;Node2 -->
<g id="edge1_Node000001_Node000002" class="edge">
<title>Node1&#45;&gt;Node2</title>
<g id="a_edge1_Node000001_Node000002"><a xlink:title=" ">
<path fill="none" stroke="#63b8ff" d="M153.84,-131.4C178.18,-139.75 206.02,-149.29 231.24,-157.94"/>
<polygon fill="#63b8ff" stroke="#63b8ff" points="229.85,-161.16 240.44,-161.09 232.12,-154.54 229.85,-161.16"/>
</a>
</g>
</g>
<!-- Node3 -->
<g id="Node000003" class="node">
<title>Node3</title>
<g id="a_Node000003"><a xlink:href="../../d4/d06/class_deluxe_1_1_deluxe_brand_center_1_1_a_m_m_1_1_a_p_i_1_1_services_1_1_contact_manager_service.html#a133274531a3def5d94274b0079caf72f" target="_top" xlink:title=" ">
<polygon fill="white" stroke="#666666" points="616.5,-181 441.5,-181 441.5,-137 616.5,-137 616.5,-181"/>
<text text-anchor="start" x="449.5" y="-167.5" font-family="Helvetica,sans-Serif" font-size="10.00">Deluxe.DeluxeBrandCenter.</text>
<text text-anchor="start" x="449.5" y="-155.5" font-family="Helvetica,sans-Serif" font-size="10.00">AMM.API.Services.ContactManager</text>
<text text-anchor="middle" x="529" y="-143.5" font-family="Helvetica,sans-Serif" font-size="10.00">Service.GetContactInfoAsync</text>
</a>
</g>
</g>
<!-- Node1&#45;&gt;Node3 -->
<g id="edge6_Node000001_Node000003" class="edge">
<title>Node1&#45;&gt;Node3</title>
<g id="a_edge6_Node000001_Node000003"><a xlink:title=" ">
<path fill="none" stroke="#63b8ff" d="M175.33,-118.88C248.77,-127.23 353.93,-139.2 430.3,-147.88"/>
<polygon fill="#63b8ff" stroke="#63b8ff" points="429.51,-151.32 439.85,-148.97 430.31,-144.36 429.51,-151.32"/>
</a>
</g>
</g>
<!-- Node7 -->
<g id="Node000007" class="node">
<title>Node7</title>
<g id="a_Node000007"><a xlink:href="../../d9/dc4/interface_deluxe_1_1_deluxe_brand_center_1_1_a_m_m_1_1_infrastructure_1_1_red_tail_1_1_i_red_tail_service.html#acc8a6c8e48c817124f97fb93e4569e59" target="_top" xlink:title=" ">
<polygon fill="white" stroke="#666666" points="388.25,-106 228.25,-106 228.25,-62 388.25,-62 388.25,-106"/>
<text text-anchor="start" x="236.25" y="-92.5" font-family="Helvetica,sans-Serif" font-size="10.00">Deluxe.DeluxeBrandCenter.</text>
<text text-anchor="start" x="236.25" y="-80.5" font-family="Helvetica,sans-Serif" font-size="10.00">AMM.Infrastructure.RedTail.IRed</text>
<text text-anchor="middle" x="308.25" y="-68.5" font-family="Helvetica,sans-Serif" font-size="10.00">TailService.PullRedtailTagGroup</text>
</a>
</g>
</g>
<!-- Node1&#45;&gt;Node7 -->
<g id="edge7_Node000001_Node000007" class="edge">
<title>Node1&#45;&gt;Node7</title>
<g id="a_edge7_Node000001_Node000007"><a xlink:title=" ">
<path fill="none" stroke="#63b8ff" d="M175.27,-99.08C188.88,-97.53 202.97,-95.92 216.66,-94.35"/>
<polygon fill="#63b8ff" stroke="#63b8ff" points="217,-97.84 226.54,-93.22 216.21,-90.88 217,-97.84"/>
</a>
</g>
</g>
<!-- Node8 -->
<g id="Node000008" class="node">
<title>Node8</title>
<g id="a_Node000008"><a xlink:href="../../dd/d7d/interface_deluxe_1_1_deluxe_brand_center_1_1_a_m_m_1_1_domain_1_1_services_1_1_i_session_service.html#acfcf18f3c8f0b4e9c334223ec33b588f" target="_top" xlink:title=" ">
<polygon fill="white" stroke="#666666" points="405.5,-44 211,-44 211,0 405.5,0 405.5,-44"/>
<text text-anchor="start" x="219" y="-30.5" font-family="Helvetica,sans-Serif" font-size="10.00">Deluxe.DeluxeBrandCenter.</text>
<text text-anchor="start" x="219" y="-18.5" font-family="Helvetica,sans-Serif" font-size="10.00">AMM.Domain.Services.ISessionService.</text>
<text text-anchor="middle" x="308.25" y="-6.5" font-family="Helvetica,sans-Serif" font-size="10.00">SessionGetUser</text>
</a>
</g>
</g>
<!-- Node1&#45;&gt;Node8 -->
<g id="edge8_Node000001_Node000008" class="edge">
<title>Node1&#45;&gt;Node8</title>
<g id="a_edge8_Node000001_Node000008"><a xlink:title=" ">
<path fill="none" stroke="#63b8ff" d="M134.2,-86.56C157,-75.77 185.17,-63.03 211,-53 215.12,-51.4 219.35,-49.82 223.65,-48.26"/>
<polygon fill="#63b8ff" stroke="#63b8ff" points="224.72,-51.6 232.98,-44.96 222.38,-45 224.72,-51.6"/>
</a>
</g>
</g>
<!-- Node2&#45;&gt;Node3 -->
<g id="edge2_Node000002_Node000003" class="edge">
<title>Node2&#45;&gt;Node3</title>
<g id="a_edge2_Node000002_Node000003"><a xlink:title=" ">
<path fill="none" stroke="#63b8ff" d="M396.02,-174.08C407.2,-172.81 418.72,-171.49 430.06,-170.19"/>
<polygon fill="#63b8ff" stroke="#63b8ff" points="430.29,-173.69 439.83,-169.08 429.5,-166.73 430.29,-173.69"/>
</a>
</g>
</g>
<!-- Node4 -->
<g id="Node000004" class="node">
<title>Node4</title>
<g id="a_Node000004"><a xlink:href="../../d5/d37/class_deluxe_1_1_deluxe_brand_center_1_1_a_m_m_1_1_domain_1_1_utility_1_1_hash_helper.html#acba4243f79f37b8b22aff859a90c4a81" target="_top" xlink:title=" ">
<polygon fill="white" stroke="#666666" points="830.5,-243 669,-243 669,-199 830.5,-199 830.5,-243"/>
<text text-anchor="start" x="677" y="-229.5" font-family="Helvetica,sans-Serif" font-size="10.00">Deluxe.DeluxeBrandCenter.</text>
<text text-anchor="start" x="677" y="-217.5" font-family="Helvetica,sans-Serif" font-size="10.00">AMM.Domain.Utility.HashHelper.</text>
<text text-anchor="middle" x="749.75" y="-205.5" font-family="Helvetica,sans-Serif" font-size="10.00">GetHashCode</text>
</a>
</g>
</g>
<!-- Node3&#45;&gt;Node4 -->
<g id="edge3_Node000003_Node000004" class="edge">
<title>Node3&#45;&gt;Node4</title>
<g id="a_edge3_Node000003_Node000004"><a xlink:title=" ">
<path fill="none" stroke="#63b8ff" d="M609.28,-181.47C625.33,-186.02 642.32,-190.83 658.7,-195.48"/>
<polygon fill="#63b8ff" stroke="#63b8ff" points="657.34,-198.73 667.91,-198.09 659.25,-191.99 657.34,-198.73"/>
</a>
</g>
</g>
<!-- Node5 -->
<g id="Node000005" class="node">
<title>Node5</title>
<g id="a_Node000005"><a xlink:href="../../d9/dc4/interface_deluxe_1_1_deluxe_brand_center_1_1_a_m_m_1_1_infrastructure_1_1_red_tail_1_1_i_red_tail_service.html#a2551fe5043230115bff802b247b2d98b" target="_top" xlink:title=" ">
<polygon fill="white" stroke="#666666" points="829.75,-181 669.75,-181 669.75,-137 829.75,-137 829.75,-181"/>
<text text-anchor="start" x="677.75" y="-167.5" font-family="Helvetica,sans-Serif" font-size="10.00">Deluxe.DeluxeBrandCenter.</text>
<text text-anchor="start" x="677.75" y="-155.5" font-family="Helvetica,sans-Serif" font-size="10.00">AMM.Infrastructure.RedTail.IRed</text>
<text text-anchor="middle" x="749.75" y="-143.5" font-family="Helvetica,sans-Serif" font-size="10.00">TailService.PullRedtailContact</text>
</a>
</g>
</g>
<!-- Node3&#45;&gt;Node5 -->
<g id="edge4_Node000003_Node000005" class="edge">
<title>Node3&#45;&gt;Node5</title>
<g id="a_edge4_Node000003_Node000005"><a xlink:title=" ">
<path fill="none" stroke="#63b8ff" d="M616.77,-159C630.38,-159 644.47,-159 658.16,-159"/>
<polygon fill="#63b8ff" stroke="#63b8ff" points="658.03,-162.5 668.03,-159 658.03,-155.5 658.03,-162.5"/>
</a>
</g>
</g>
<!-- Node6 -->
<g id="Node000006" class="node">
<title>Node6</title>
<g id="a_Node000006"><a xlink:href="../../dd/d7d/interface_deluxe_1_1_deluxe_brand_center_1_1_a_m_m_1_1_domain_1_1_services_1_1_i_session_service.html#a0ec7d7d28fa63000ba8d1bea1960d1e0" target="_top" xlink:title=" ">
<polygon fill="white" stroke="#666666" points="847,-119 652.5,-119 652.5,-75 847,-75 847,-119"/>
<text text-anchor="start" x="660.5" y="-105.5" font-family="Helvetica,sans-Serif" font-size="10.00">Deluxe.DeluxeBrandCenter.</text>
<text text-anchor="start" x="660.5" y="-93.5" font-family="Helvetica,sans-Serif" font-size="10.00">AMM.Domain.Services.ISessionService.</text>
<text text-anchor="middle" x="749.75" y="-81.5" font-family="Helvetica,sans-Serif" font-size="10.00">SessionGetClientName</text>
</a>
</g>
</g>
<!-- Node3&#45;&gt;Node6 -->
<g id="edge5_Node000003_Node000006" class="edge">
<title>Node3&#45;&gt;Node6</title>
<g id="a_edge5_Node000003_Node000006"><a xlink:title=" ">
<path fill="none" stroke="#63b8ff" d="M609.28,-136.53C625.33,-131.98 642.32,-127.17 658.7,-122.52"/>
<polygon fill="#63b8ff" stroke="#63b8ff" points="659.25,-126.01 667.91,-119.91 657.34,-119.27 659.25,-126.01"/>
</a>
</g>
</g>
</g>
</svg>
