<?xml version="1.0" encoding="UTF-8" standalone="no"?>
<!DOCTYPE svg PUBLIC "-//W3C//DTD SVG 1.1//EN"
 "http://www.w3.org/Graphics/SVG/1.1/DTD/svg11.dtd">
<!-- Generated by graphviz version 12.1.1 (20240910.0053)
 -->
<!-- Title: Deluxe.DeluxeBrandCenter.AMM.API.Services.ContactManagerService.GetContact Pages: 1 -->
<svg width="1277pt" height="126pt"
 viewBox="0.00 0.00 1277.00 126.00" xmlns="http://www.w3.org/2000/svg" xmlns:xlink="http://www.w3.org/1999/xlink">
<g id="graph0" class="graph" transform="scale(1 1) rotate(0) translate(4 122)">
<title>Deluxe.DeluxeBrandCenter.AMM.API.Services.ContactManagerService.GetContact</title>
<!-- Node1 -->
<g id="Node000001" class="node">
<title>Node1</title>
<g id="a_Node000001"><a xlink:title=" ">
<polygon fill="#999999" stroke="#666666" points="175,-78 0,-78 0,-34 175,-34 175,-78"/>
<text text-anchor="start" x="8" y="-64.5" font-family="Helvetica,sans-Serif" font-size="10.00">Deluxe.DeluxeBrandCenter.</text>
<text text-anchor="start" x="8" y="-52.5" font-family="Helvetica,sans-Serif" font-size="10.00">AMM.API.Services.ContactManager</text>
<text text-anchor="middle" x="87.5" y="-40.5" font-family="Helvetica,sans-Serif" font-size="10.00">Service.GetContact</text>
</a>
</g>
</g>
<!-- Node2 -->
<g id="Node000002" class="node">
<title>Node2</title>
<g id="a_Node000002"><a xlink:href="../../d8/d59/class_deluxe_1_1_deluxe_brand_center_1_1_a_m_m_1_1_domain_1_1_ext_service_model_1_1_mindfire_1_1_segmentation_filter_criteria.html#afc4d845e0553321f921936781a3609f0" target="_top" xlink:title=" ">
<polygon fill="white" stroke="#666666" points="404.75,-118 211,-118 211,-62 404.75,-62 404.75,-118"/>
<text text-anchor="start" x="219" y="-104.5" font-family="Helvetica,sans-Serif" font-size="10.00">Deluxe.DeluxeBrandCenter.</text>
<text text-anchor="start" x="219" y="-92.5" font-family="Helvetica,sans-Serif" font-size="10.00">AMM.Domain.ExtServiceModel.Mindfire.</text>
<text text-anchor="start" x="219" y="-80.5" font-family="Helvetica,sans-Serif" font-size="10.00">SegmentationFilterCriteria.GenerateFilter</text>
<text text-anchor="middle" x="307.88" y="-68.5" font-family="Helvetica,sans-Serif" font-size="10.00">Criteria</text>
</a>
</g>
</g>
<!-- Node1&#45;&gt;Node2 -->
<g id="edge1_Node000001_Node000002" class="edge">
<title>Node1&#45;&gt;Node2</title>
<g id="a_edge1_Node000001_Node000002"><a xlink:title=" ">
<path fill="none" stroke="#63b8ff" d="M175.44,-69.54C183.28,-70.76 191.28,-72 199.27,-73.25"/>
<polygon fill="#63b8ff" stroke="#63b8ff" points="198.63,-76.69 209.04,-74.77 199.7,-69.77 198.63,-76.69"/>
</a>
</g>
</g>
<!-- Node3 -->
<g id="Node000003" class="node">
<title>Node3</title>
<g id="a_Node000003"><a xlink:href="../../d4/d06/class_deluxe_1_1_deluxe_brand_center_1_1_a_m_m_1_1_a_p_i_1_1_services_1_1_contact_manager_service.html#ab1141e6abe5397940a9170ec65047b69" target="_top" xlink:title=" ">
<polygon fill="white" stroke="#666666" points="395.38,-44 220.38,-44 220.38,0 395.38,0 395.38,-44"/>
<text text-anchor="start" x="228.38" y="-30.5" font-family="Helvetica,sans-Serif" font-size="10.00">Deluxe.DeluxeBrandCenter.</text>
<text text-anchor="start" x="228.38" y="-18.5" font-family="Helvetica,sans-Serif" font-size="10.00">AMM.API.Services.ContactManager</text>
<text text-anchor="middle" x="307.88" y="-6.5" font-family="Helvetica,sans-Serif" font-size="10.00">Service.GetContactsCSVTable</text>
</a>
</g>
</g>
<!-- Node1&#45;&gt;Node3 -->
<g id="edge2_Node000001_Node000003" class="edge">
<title>Node1&#45;&gt;Node3</title>
<g id="a_edge2_Node000001_Node000003"><a xlink:title=" ">
<path fill="none" stroke="#63b8ff" d="M175.44,-42.46C186.41,-40.76 197.69,-39 208.82,-37.27"/>
<polygon fill="#63b8ff" stroke="#63b8ff" points="209.04,-40.77 218.39,-35.78 207.97,-33.86 209.04,-40.77"/>
</a>
</g>
</g>
<!-- Node4 -->
<g id="Node000004" class="node">
<title>Node4</title>
<g id="a_Node000004"><a xlink:href="../../d4/d06/class_deluxe_1_1_deluxe_brand_center_1_1_a_m_m_1_1_a_p_i_1_1_services_1_1_contact_manager_service.html#af3ee320e832b5241f698ab94cadab7cb" target="_top" xlink:title="Updates filter to exclude Unsubscribed and Ppersona Contacts.">
<polygon fill="white" stroke="#666666" points="615.75,-44 440.75,-44 440.75,0 615.75,0 615.75,-44"/>
<text text-anchor="start" x="448.75" y="-30.5" font-family="Helvetica,sans-Serif" font-size="10.00">Deluxe.DeluxeBrandCenter.</text>
<text text-anchor="start" x="448.75" y="-18.5" font-family="Helvetica,sans-Serif" font-size="10.00">AMM.API.Services.ContactManager</text>
<text text-anchor="middle" x="528.25" y="-6.5" font-family="Helvetica,sans-Serif" font-size="10.00">Service.FilterOutContacts</text>
</a>
</g>
</g>
<!-- Node3&#45;&gt;Node4 -->
<g id="edge3_Node000003_Node000004" class="edge">
<title>Node3&#45;&gt;Node4</title>
<g id="a_edge3_Node000003_Node000004"><a xlink:title=" ">
<path fill="none" stroke="#63b8ff" d="M395.81,-22C406.67,-22 417.83,-22 428.85,-22"/>
<polygon fill="#63b8ff" stroke="#63b8ff" points="428.74,-25.5 438.74,-22 428.74,-18.5 428.74,-25.5"/>
</a>
</g>
</g>
<!-- Node5 -->
<g id="Node000005" class="node">
<title>Node5</title>
<g id="a_Node000005"><a xlink:href="../../d4/d06/class_deluxe_1_1_deluxe_brand_center_1_1_a_m_m_1_1_a_p_i_1_1_services_1_1_contact_manager_service.html#af5c0313fcaae40d09f41022ef3f1d08d" target="_top" xlink:title=" ">
<polygon fill="white" stroke="#666666" points="826.75,-44 651.75,-44 651.75,0 826.75,0 826.75,-44"/>
<text text-anchor="start" x="659.75" y="-30.5" font-family="Helvetica,sans-Serif" font-size="10.00">Deluxe.DeluxeBrandCenter.</text>
<text text-anchor="start" x="659.75" y="-18.5" font-family="Helvetica,sans-Serif" font-size="10.00">AMM.API.Services.ContactManager</text>
<text text-anchor="middle" x="739.25" y="-6.5" font-family="Helvetica,sans-Serif" font-size="10.00">Service.GetContactsForFilteringOut</text>
</a>
</g>
</g>
<!-- Node4&#45;&gt;Node5 -->
<g id="edge4_Node000004_Node000005" class="edge">
<title>Node4&#45;&gt;Node5</title>
<g id="a_edge4_Node000004_Node000005"><a xlink:title=" ">
<path fill="none" stroke="#63b8ff" d="M616.07,-22C624,-22 632.06,-22 640.08,-22"/>
<polygon fill="#63b8ff" stroke="#63b8ff" points="639.85,-25.5 649.85,-22 639.85,-18.5 639.85,-25.5"/>
</a>
</g>
</g>
<!-- Node6 -->
<g id="Node000006" class="node">
<title>Node6</title>
<g id="a_Node000006"><a xlink:href="../../d4/d06/class_deluxe_1_1_deluxe_brand_center_1_1_a_m_m_1_1_a_p_i_1_1_services_1_1_contact_manager_service.html#a0d4bb3161a8ff399d0720dbb775430c3" target="_top" xlink:title=" ">
<polygon fill="white" stroke="#666666" points="1038.5,-44 862.75,-44 862.75,0 1038.5,0 1038.5,-44"/>
<text text-anchor="start" x="870.75" y="-30.5" font-family="Helvetica,sans-Serif" font-size="10.00">Deluxe.DeluxeBrandCenter.</text>
<text text-anchor="start" x="870.75" y="-18.5" font-family="Helvetica,sans-Serif" font-size="10.00">AMM.API.Services.ContactManager</text>
<text text-anchor="middle" x="950.62" y="-6.5" font-family="Helvetica,sans-Serif" font-size="10.00">Service.GetUnsubscribedContactsId</text>
</a>
</g>
</g>
<!-- Node5&#45;&gt;Node6 -->
<g id="edge5_Node000005_Node000006" class="edge">
<title>Node5&#45;&gt;Node6</title>
<g id="a_edge5_Node000005_Node000006"><a xlink:title=" ">
<path fill="none" stroke="#63b8ff" d="M827.22,-22C835.17,-22 843.25,-22 851.28,-22"/>
<polygon fill="#63b8ff" stroke="#63b8ff" points="851.07,-25.5 861.07,-22 851.07,-18.5 851.07,-25.5"/>
</a>
</g>
</g>
<!-- Node7 -->
<g id="Node000007" class="node">
<title>Node7</title>
<g id="a_Node000007"><a xlink:href="../../dd/d7d/interface_deluxe_1_1_deluxe_brand_center_1_1_a_m_m_1_1_domain_1_1_services_1_1_i_session_service.html#acfcf18f3c8f0b4e9c334223ec33b588f" target="_top" xlink:title=" ">
<polygon fill="white" stroke="#666666" points="1269,-44 1074.5,-44 1074.5,0 1269,0 1269,-44"/>
<text text-anchor="start" x="1082.5" y="-30.5" font-family="Helvetica,sans-Serif" font-size="10.00">Deluxe.DeluxeBrandCenter.</text>
<text text-anchor="start" x="1082.5" y="-18.5" font-family="Helvetica,sans-Serif" font-size="10.00">AMM.Domain.Services.ISessionService.</text>
<text text-anchor="middle" x="1171.75" y="-6.5" font-family="Helvetica,sans-Serif" font-size="10.00">SessionGetUser</text>
</a>
</g>
</g>
<!-- Node6&#45;&gt;Node7 -->
<g id="edge6_Node000006_Node000007" class="edge">
<title>Node6&#45;&gt;Node7</title>
<g id="a_edge6_Node000006_Node000007"><a xlink:title=" ">
<path fill="none" stroke="#63b8ff" d="M1038.86,-22C1046.73,-22 1054.76,-22 1062.77,-22"/>
<polygon fill="#63b8ff" stroke="#63b8ff" points="1062.57,-25.5 1072.57,-22 1062.57,-18.5 1062.57,-25.5"/>
</a>
</g>
</g>
</g>
</svg>
