<?xml version="1.0" encoding="UTF-8" standalone="no"?>
<!DOCTYPE svg PUBLIC "-//W3C//DTD SVG 1.1//EN"
 "http://www.w3.org/Graphics/SVG/1.1/DTD/svg11.dtd">
<!-- Generated by graphviz version 12.1.1 (20240910.0053)
 -->
<!-- Title: Deluxe.DeluxeBrandCenter.AMM.API.Services.ContactManagerService.GetColumnNames Pages: 1 -->
<!--zoomable 462 -->

<svg id="main" version="1.1" xmlns="http://www.w3.org/2000/svg" xmlns:xlink="http://www.w3.org/1999/xlink" xml:space="preserve" onload="init(evt)">

<style type="text/css"><![CDATA[
.node, .edge {opacity: 0.7;}
.node.selected, .edge.selected {opacity: 1;}
.edge:hover path { stroke: red; }
.edge:hover polygon { stroke: red; fill: red; }
]]></style>

<defs>
  <circle id="rim" cx="0" cy="0" r="7"/>
  <circle id="rim2" cx="0" cy="0" r="3.5"/>
  <g id="zoomPlus">
    <use xlink:href="#rim" fill="#404040"><set attributeName="fill" to="#808080" begin="zoomplus.mouseover" end="zoomplus.mouseout"/></use>
    <path d="M-4,0h8M0,-4v8" fill="none" stroke="white" stroke-width="1.5" pointer-events="none"/>
  </g>
  <g id="zoomMin">
    <use xlink:href="#rim" fill="#404040"><set attributeName="fill" to="#808080" begin="zoomminus.mouseover" end="zoomminus.mouseout"/></use>
    <path d="M-4,0h8" fill="none" stroke="white" stroke-width="1.5" pointer-events="none"/>
  </g>
  <g id="arrowUp" transform="translate(30 24)">
    <use xlink:href="#rim"/>
    <path pointer-events="none" fill="none" stroke="white" stroke-width="1.5" d="M0,-3.0v7 M-2.5,-0.5L0,-3.0L2.5,-0.5"/>
  </g>
  <g id="arrowRight" transform="rotate(90) translate(36 -43)">
    <use xlink:href="#rim"/>
    <path pointer-events="none" fill="none" stroke="white" stroke-width="1.5" d="M0,-3.0v7 M-2.5,-0.5L0,-3.0L2.5,-0.5"/>
  </g>
  <g id="arrowDown" transform="rotate(180) translate(-30 -48)">
    <use xlink:href="#rim"/>
    <path pointer-events="none" fill="none" stroke="white" stroke-width="1.5" d="M0,-3.0v7 M-2.5,-0.5L0,-3.0L2.5,-0.5"/>
  </g>
  <g id="arrowLeft" transform="rotate(270) translate(-36 17)">
    <use xlink:href="#rim"/>
    <path pointer-events="none" fill="none" stroke="white" stroke-width="1.5" d="M0,-3.0v7 M-2.5,-0.5L0,-3.0L2.5,-0.5"/>
  </g>
  <g id="resetDef">
    <use xlink:href="#rim2" fill="#404040"><set attributeName="fill" to="#808080" begin="reset.mouseover" end="reset.mouseout"/></use>
  </g>
</defs>
<script type="application/ecmascript">
var viewWidth = 882;
var viewHeight = 462;
var sectionId = 'dynsection-32';
</script>
<script type="application/ecmascript" xlink:href="../../svg.min.js"/>
<svg id="graph" class="graph">
<g id="viewport">
<title>Deluxe.DeluxeBrandCenter.AMM.API.Services.ContactManagerService.GetColumnNames</title>
<!-- Node1 -->
<g id="Node000001" class="node">
<title>Node1</title>
<g id="a_Node000001"><a xlink:title=" ">
<polygon fill="#999999" stroke="#666666" points="175,-175 0,-175 0,-131 175,-131 175,-175"/>
<text text-anchor="start" x="8" y="-161.5" font-family="Helvetica,sans-Serif" font-size="10.00">Deluxe.DeluxeBrandCenter.</text>
<text text-anchor="start" x="8" y="-149.5" font-family="Helvetica,sans-Serif" font-size="10.00">AMM.API.Services.ContactManager</text>
<text text-anchor="middle" x="87.5" y="-137.5" font-family="Helvetica,sans-Serif" font-size="10.00">Service.GetColumnNames</text>
</a>
</g>
</g>
<!-- Node2 -->
<g id="Node000002" class="node">
<title>Node2</title>
<g id="a_Node000002"><a xlink:href="../../df/df6/class_deluxe_1_1_deluxe_brand_center_1_1_a_m_m_1_1_domain_1_1_ext_service_model_1_1_contact_v_m.html#ac8f49cc65f78a460aef97a4681cff6f8" target="_top" xlink:title=" ">
<polygon fill="white" stroke="#666666" points="411.12,-330 220.38,-330 220.38,-286 411.12,-286 411.12,-330"/>
<text text-anchor="start" x="228.38" y="-316.5" font-family="Helvetica,sans-Serif" font-size="10.00">Deluxe.DeluxeBrandCenter.</text>
<text text-anchor="start" x="228.38" y="-304.5" font-family="Helvetica,sans-Serif" font-size="10.00">AMM.Domain.ExtServiceModel.Contact</text>
<text text-anchor="middle" x="315.75" y="-292.5" font-family="Helvetica,sans-Serif" font-size="10.00">VM.GetPropertyNames</text>
</a>
</g>
</g>
<!-- Node1&#45;&gt;Node2 -->
<g id="edge1_Node000001_Node000002" class="edge">
<title>Node1&#45;&gt;Node2</title>
<g id="a_edge1_Node000001_Node000002"><a xlink:title=" ">
<path fill="none" stroke="#63b8ff" d="M104.63,-175.15C125.96,-202.89 166.12,-250.04 211,-277 213.05,-278.23 215.14,-279.41 217.28,-280.55"/>
<polygon fill="#63b8ff" stroke="#63b8ff" points="215.69,-283.67 226.21,-284.9 218.75,-277.37 215.69,-283.67"/>
</a>
</g>
</g>
<!-- Node9 -->
<g id="Node000009" class="node">
<title>Node9</title>
<g id="a_Node000009"><a xlink:href="../../db/d79/class_deluxe_1_1_deluxe_brand_center_1_1_a_m_m_1_1_domain_1_1_utility_1_1_c_s_v_helper.html#aad3cb0af4a9c787714727fefbe58654f" target="_top" xlink:title=" ">
<polygon fill="white" stroke="#666666" points="407,-268 224.5,-268 224.5,-224 407,-224 407,-268"/>
<text text-anchor="start" x="232.5" y="-254.5" font-family="Helvetica,sans-Serif" font-size="10.00">Deluxe.DeluxeBrandCenter.</text>
<text text-anchor="start" x="232.5" y="-242.5" font-family="Helvetica,sans-Serif" font-size="10.00">AMM.Domain.Utility.CSVHelper.Read</text>
<text text-anchor="middle" x="315.75" y="-230.5" font-family="Helvetica,sans-Serif" font-size="10.00">CSVFromFile</text>
</a>
</g>
</g>
<!-- Node1&#45;&gt;Node9 -->
<g id="edge10_Node000001_Node000009" class="edge">
<title>Node1&#45;&gt;Node9</title>
<g id="a_edge10_Node000001_Node000009"><a xlink:title=" ">
<path fill="none" stroke="#63b8ff" d="M128.22,-175.38C151.8,-188.08 182.55,-203.65 211,-215 215.11,-216.64 219.33,-218.24 223.63,-219.79"/>
<polygon fill="#63b8ff" stroke="#63b8ff" points="222.37,-223.06 232.96,-223.05 224.68,-216.45 222.37,-223.06"/>
</a>
</g>
</g>
<!-- Node10 -->
<g id="Node000010" class="node">
<title>Node10</title>
<g id="a_Node000010"><a xlink:href="../../dd/d7d/interface_deluxe_1_1_deluxe_brand_center_1_1_a_m_m_1_1_domain_1_1_services_1_1_i_session_service.html#a0ec7d7d28fa63000ba8d1bea1960d1e0" target="_top" xlink:title=" ">
<polygon fill="white" stroke="#666666" points="413,-206 218.5,-206 218.5,-162 413,-162 413,-206"/>
<text text-anchor="start" x="226.5" y="-192.5" font-family="Helvetica,sans-Serif" font-size="10.00">Deluxe.DeluxeBrandCenter.</text>
<text text-anchor="start" x="226.5" y="-180.5" font-family="Helvetica,sans-Serif" font-size="10.00">AMM.Domain.Services.ISessionService.</text>
<text text-anchor="middle" x="315.75" y="-168.5" font-family="Helvetica,sans-Serif" font-size="10.00">SessionGetClientName</text>
</a>
</g>
</g>
<!-- Node1&#45;&gt;Node10 -->
<g id="edge11_Node000001_Node000010" class="edge">
<title>Node1&#45;&gt;Node10</title>
<g id="a_edge11_Node000001_Node000010"><a xlink:title=" ">
<path fill="none" stroke="#63b8ff" d="M175.33,-164.9C185.78,-166.33 196.55,-167.8 207.25,-169.27"/>
<polygon fill="#63b8ff" stroke="#63b8ff" points="206.48,-172.7 216.86,-170.59 207.43,-165.76 206.48,-172.7"/>
</a>
</g>
</g>
<!-- Node11 -->
<g id="Node000011" class="node">
<title>Node11</title>
<g id="a_Node000011"><a xlink:href="../../df/db6/interface_deluxe_1_1_deluxe_brand_center_1_1_a_m_m_1_1_infrastructure_1_1_a_w_s_1_1_s3_1_1_i_amazon_s3_service.html#ab053c6166e83efe3d6b9a05386103df5" target="_top" xlink:title=" ">
<polygon fill="white" stroke="#666666" points="407,-144 224.5,-144 224.5,-100 407,-100 407,-144"/>
<text text-anchor="start" x="232.5" y="-130.5" font-family="Helvetica,sans-Serif" font-size="10.00">Deluxe.DeluxeBrandCenter.</text>
<text text-anchor="start" x="232.5" y="-118.5" font-family="Helvetica,sans-Serif" font-size="10.00">AMM.Infrastructure.AWS.S3.IAmazon</text>
<text text-anchor="middle" x="315.75" y="-106.5" font-family="Helvetica,sans-Serif" font-size="10.00">S3Service.UploadCSV</text>
</a>
</g>
</g>
<!-- Node1&#45;&gt;Node11 -->
<g id="edge12_Node000001_Node000011" class="edge">
<title>Node1&#45;&gt;Node11</title>
<g id="a_edge12_Node000001_Node000011"><a xlink:title=" ">
<path fill="none" stroke="#63b8ff" d="M175.33,-141.1C187.54,-139.43 200.18,-137.7 212.65,-135.99"/>
<polygon fill="#63b8ff" stroke="#63b8ff" points="213.1,-139.46 222.53,-134.64 212.15,-132.53 213.1,-139.46"/>
</a>
</g>
</g>
<!-- Node12 -->
<g id="Node000012" class="node">
<title>Node12</title>
<g id="a_Node000012"><a xlink:href="../../db/d79/class_deluxe_1_1_deluxe_brand_center_1_1_a_m_m_1_1_domain_1_1_utility_1_1_c_s_v_helper.html#af2b5194a7bf658121a14479360da43ec" target="_top" xlink:title=" ">
<polygon fill="white" stroke="#666666" points="412.62,-82 218.88,-82 218.88,-50 412.62,-50 412.62,-82"/>
<text text-anchor="start" x="226.88" y="-68.5" font-family="Helvetica,sans-Serif" font-size="10.00">Deluxe.DeluxeBrandCenter.</text>
<text text-anchor="middle" x="315.75" y="-56.5" font-family="Helvetica,sans-Serif" font-size="10.00">AMM.Domain.Utility.CSVHelper.Validate</text>
</a>
</g>
</g>
<!-- Node1&#45;&gt;Node12 -->
<g id="edge13_Node000001_Node000012" class="edge">
<title>Node1&#45;&gt;Node12</title>
<g id="a_edge13_Node000001_Node000012"><a xlink:title=" ">
<path fill="none" stroke="#63b8ff" d="M127.18,-130.5C150.78,-117.52 181.92,-101.7 211,-91 216.06,-89.14 221.31,-87.38 226.64,-85.72"/>
<polygon fill="#63b8ff" stroke="#63b8ff" points="227.61,-89.08 236.21,-82.88 225.63,-82.37 227.61,-89.08"/>
</a>
</g>
</g>
<!-- Node13 -->
<g id="Node000013" class="node">
<title>Node13</title>
<g id="a_Node000013"><a xlink:href="../../db/d79/class_deluxe_1_1_deluxe_brand_center_1_1_a_m_m_1_1_domain_1_1_utility_1_1_c_s_v_helper.html#aa33f9ca255879b797bfc35ccc2403c36" target="_top" xlink:title=" ">
<polygon fill="white" stroke="#666666" points="420.5,-32 211,-32 211,0 420.5,0 420.5,-32"/>
<text text-anchor="start" x="219" y="-18.5" font-family="Helvetica,sans-Serif" font-size="10.00">Deluxe.DeluxeBrandCenter.</text>
<text text-anchor="middle" x="315.75" y="-6.5" font-family="Helvetica,sans-Serif" font-size="10.00">AMM.Domain.Utility.CSVHelper.ValidateFile</text>
</a>
</g>
</g>
<!-- Node1&#45;&gt;Node13 -->
<g id="edge14_Node000001_Node000013" class="edge">
<title>Node1&#45;&gt;Node13</title>
<g id="a_edge14_Node000001_Node000013"><a xlink:title=" ">
<path fill="none" stroke="#63b8ff" d="M106.43,-130.91C128.39,-105.35 168,-63.86 211,-41 213.88,-39.47 216.85,-38.03 219.88,-36.68"/>
<polygon fill="#63b8ff" stroke="#63b8ff" points="221.07,-39.98 229.03,-32.99 218.45,-33.49 221.07,-39.98"/>
</a>
</g>
</g>
<!-- Node3 -->
<g id="Node000003" class="node">
<title>Node3</title>
<g id="a_Node000003"><a xlink:href="../../df/df6/class_deluxe_1_1_deluxe_brand_center_1_1_a_m_m_1_1_domain_1_1_ext_service_model_1_1_contact_v_m.html#a8b6890c9d50ade1bc06622bfb4a397df" target="_top" xlink:title=" ">
<polygon fill="white" stroke="#666666" points="647.25,-454 456.5,-454 456.5,-410 647.25,-410 647.25,-454"/>
<text text-anchor="start" x="464.5" y="-440.5" font-family="Helvetica,sans-Serif" font-size="10.00">Deluxe.DeluxeBrandCenter.</text>
<text text-anchor="start" x="464.5" y="-428.5" font-family="Helvetica,sans-Serif" font-size="10.00">AMM.Domain.ExtServiceModel.Contact</text>
<text text-anchor="middle" x="551.88" y="-416.5" font-family="Helvetica,sans-Serif" font-size="10.00">VM.CheckIfExluded</text>
</a>
</g>
</g>
<!-- Node2&#45;&gt;Node3 -->
<g id="edge2_Node000002_Node000003" class="edge">
<title>Node2&#45;&gt;Node3</title>
<g id="a_edge2_Node000002_Node000003"><a xlink:title=" ">
<path fill="none" stroke="#63b8ff" d="M345.34,-330.39C372.66,-350.94 415.61,-381.13 456.5,-401 459.54,-402.48 462.67,-403.91 465.86,-405.3"/>
<polygon fill="#63b8ff" stroke="#63b8ff" points="464.22,-408.41 474.8,-408.99 466.89,-401.94 464.22,-408.41"/>
</a>
</g>
</g>
<!-- Node4 -->
<g id="Node000004" class="node">
<title>Node4</title>
<g id="a_Node000004"><a xlink:href="../../df/df6/class_deluxe_1_1_deluxe_brand_center_1_1_a_m_m_1_1_domain_1_1_ext_service_model_1_1_contact_v_m.html#a1648649d5df1291a6fa3dd235ee21b09" target="_top" xlink:title=" ">
<polygon fill="white" stroke="#666666" points="647.25,-392 456.5,-392 456.5,-348 647.25,-348 647.25,-392"/>
<text text-anchor="start" x="464.5" y="-378.5" font-family="Helvetica,sans-Serif" font-size="10.00">Deluxe.DeluxeBrandCenter.</text>
<text text-anchor="start" x="464.5" y="-366.5" font-family="Helvetica,sans-Serif" font-size="10.00">AMM.Domain.ExtServiceModel.Contact</text>
<text text-anchor="middle" x="551.88" y="-354.5" font-family="Helvetica,sans-Serif" font-size="10.00">VM.CheckIfPropertyIsRequired</text>
</a>
</g>
</g>
<!-- Node2&#45;&gt;Node4 -->
<g id="edge3_Node000002_Node000004" class="edge">
<title>Node2&#45;&gt;Node4</title>
<g id="a_edge3_Node000002_Node000004"><a xlink:title=" ">
<path fill="none" stroke="#63b8ff" d="M401.61,-330.47C418.95,-335.06 437.31,-339.93 455,-344.61"/>
<polygon fill="#63b8ff" stroke="#63b8ff" points="453.89,-347.94 464.45,-347.11 455.68,-341.17 453.89,-347.94"/>
</a>
</g>
</g>
<!-- Node6 -->
<g id="Node000006" class="node">
<title>Node6</title>
<g id="a_Node000006"><a xlink:href="../../df/df6/class_deluxe_1_1_deluxe_brand_center_1_1_a_m_m_1_1_domain_1_1_ext_service_model_1_1_contact_v_m.html#a2787dfbe0c788a6d93767b662f15d3f3" target="_top" xlink:title=" ">
<polygon fill="white" stroke="#666666" points="647.25,-330 456.5,-330 456.5,-286 647.25,-286 647.25,-330"/>
<text text-anchor="start" x="464.5" y="-316.5" font-family="Helvetica,sans-Serif" font-size="10.00">Deluxe.DeluxeBrandCenter.</text>
<text text-anchor="start" x="464.5" y="-304.5" font-family="Helvetica,sans-Serif" font-size="10.00">AMM.Domain.ExtServiceModel.Contact</text>
<text text-anchor="middle" x="551.88" y="-292.5" font-family="Helvetica,sans-Serif" font-size="10.00">VM.GetDisplayName</text>
</a>
</g>
</g>
<!-- Node2&#45;&gt;Node6 -->
<g id="edge5_Node000002_Node000006" class="edge">
<title>Node2&#45;&gt;Node6</title>
<g id="a_edge5_Node000002_Node000006"><a xlink:title=" ">
<path fill="none" stroke="#63b8ff" d="M411.3,-308C422.44,-308 433.86,-308 445.14,-308"/>
<polygon fill="#63b8ff" stroke="#63b8ff" points="444.84,-311.5 454.84,-308 444.84,-304.5 444.84,-311.5"/>
</a>
</g>
</g>
<!-- Node7 -->
<g id="Node000007" class="node">
<title>Node7</title>
<g id="a_Node000007"><a xlink:href="../../df/df6/class_deluxe_1_1_deluxe_brand_center_1_1_a_m_m_1_1_domain_1_1_ext_service_model_1_1_contact_v_m.html#ab2d616d67804d24b74cdb693b7b68d87" target="_top" xlink:title=" ">
<polygon fill="white" stroke="#666666" points="647.25,-268 456.5,-268 456.5,-224 647.25,-224 647.25,-268"/>
<text text-anchor="start" x="464.5" y="-254.5" font-family="Helvetica,sans-Serif" font-size="10.00">Deluxe.DeluxeBrandCenter.</text>
<text text-anchor="start" x="464.5" y="-242.5" font-family="Helvetica,sans-Serif" font-size="10.00">AMM.Domain.ExtServiceModel.Contact</text>
<text text-anchor="middle" x="551.88" y="-230.5" font-family="Helvetica,sans-Serif" font-size="10.00">VM.GetMaxLength</text>
</a>
</g>
</g>
<!-- Node2&#45;&gt;Node7 -->
<g id="edge6_Node000002_Node000007" class="edge">
<title>Node2&#45;&gt;Node7</title>
<g id="a_edge6_Node000002_Node000007"><a xlink:title=" ">
<path fill="none" stroke="#63b8ff" d="M401.61,-285.53C418.95,-280.94 437.31,-276.07 455,-271.39"/>
<polygon fill="#63b8ff" stroke="#63b8ff" points="455.68,-274.83 464.45,-268.89 453.89,-268.06 455.68,-274.83"/>
</a>
</g>
</g>
<!-- Node8 -->
<g id="Node000008" class="node">
<title>Node8</title>
<g id="a_Node000008"><a xlink:href="../../df/df6/class_deluxe_1_1_deluxe_brand_center_1_1_a_m_m_1_1_domain_1_1_ext_service_model_1_1_contact_v_m.html#afc5c1a69d032613fbd527a1a136d7905" target="_top" xlink:title=" ">
<polygon fill="white" stroke="#666666" points="647.25,-206 456.5,-206 456.5,-162 647.25,-162 647.25,-206"/>
<text text-anchor="start" x="464.5" y="-192.5" font-family="Helvetica,sans-Serif" font-size="10.00">Deluxe.DeluxeBrandCenter.</text>
<text text-anchor="start" x="464.5" y="-180.5" font-family="Helvetica,sans-Serif" font-size="10.00">AMM.Domain.ExtServiceModel.Contact</text>
<text text-anchor="middle" x="551.88" y="-168.5" font-family="Helvetica,sans-Serif" font-size="10.00">VM.GetRegex</text>
</a>
</g>
</g>
<!-- Node2&#45;&gt;Node8 -->
<g id="edge8_Node000002_Node000008" class="edge">
<title>Node2&#45;&gt;Node8</title>
<g id="a_edge8_Node000002_Node000008"><a xlink:title=" ">
<path fill="none" stroke="#63b8ff" d="M407.71,-285.5C412.21,-282.97 416.51,-280.14 420.5,-277 445.52,-257.27 431.74,-235.06 456.5,-215 457.47,-214.21 458.46,-213.45 459.47,-212.7"/>
<polygon fill="#63b8ff" stroke="#63b8ff" points="461.29,-215.69 467.76,-207.3 457.47,-209.83 461.29,-215.69"/>
</a>
</g>
</g>
<!-- Node5 -->
<g id="Node000005" class="node">
<title>Node5</title>
<g id="a_Node000005"><a xlink:href="../../df/df6/class_deluxe_1_1_deluxe_brand_center_1_1_a_m_m_1_1_domain_1_1_ext_service_model_1_1_contact_v_m.html#a4084b5beb776ff091c16312cc8cddce3" target="_top" xlink:title=" ">
<polygon fill="white" stroke="#666666" points="874,-268 683.25,-268 683.25,-224 874,-224 874,-268"/>
<text text-anchor="start" x="691.25" y="-254.5" font-family="Helvetica,sans-Serif" font-size="10.00">Deluxe.DeluxeBrandCenter.</text>
<text text-anchor="start" x="691.25" y="-242.5" font-family="Helvetica,sans-Serif" font-size="10.00">AMM.Domain.ExtServiceModel.Contact</text>
<text text-anchor="middle" x="778.62" y="-230.5" font-family="Helvetica,sans-Serif" font-size="10.00">VM.Validate</text>
</a>
</g>
</g>
<!-- Node4&#45;&gt;Node5 -->
<g id="edge4_Node000004_Node000005" class="edge">
<title>Node4&#45;&gt;Node5</title>
<g id="a_edge4_Node000004_Node000005"><a xlink:title=" ">
<path fill="none" stroke="#63b8ff" d="M627.91,-347.69C634.56,-345.01 641.09,-342.11 647.25,-339 681.94,-321.45 717.63,-295.32 742.88,-275.23"/>
<polygon fill="#63b8ff" stroke="#63b8ff" points="744.92,-278.08 750.51,-269.07 740.53,-272.63 744.92,-278.08"/>
</a>
</g>
</g>
<!-- Node7&#45;&gt;Node5 -->
<g id="edge7_Node000007_Node000005" class="edge">
<title>Node7&#45;&gt;Node5</title>
<g id="a_edge7_Node000007_Node000005"><a xlink:title=" ">
<path fill="none" stroke="#63b8ff" d="M647.54,-246C655.53,-246 663.64,-246 671.71,-246"/>
<polygon fill="#63b8ff" stroke="#63b8ff" points="671.56,-249.5 681.56,-246 671.56,-242.5 671.56,-249.5"/>
</a>
</g>
</g>
<!-- Node8&#45;&gt;Node5 -->
<g id="edge9_Node000008_Node000005" class="edge">
<title>Node8&#45;&gt;Node5</title>
<g id="a_edge9_Node000008_Node000005"><a xlink:title=" ">
<path fill="none" stroke="#63b8ff" d="M634.33,-206.47C650.82,-211.02 668.27,-215.83 685.11,-220.48"/>
<polygon fill="#63b8ff" stroke="#63b8ff" points="684.04,-223.81 694.61,-223.1 685.9,-217.07 684.04,-223.81"/>
</a>
</g>
</g>
</g>
</svg>

<g id="navigator" transform="translate(0 0)" fill="#404254">
  <rect fill="#f2f5e9" fill-opacity="0.5" stroke="#606060" stroke-width=".5" x="0" y="0" width="60" height="60"/>
  <use id="zoomplus" xlink:href="#zoomPlus" x="17" y="9" onmousedown="handleZoom(evt,'in')"/>
  <use id="zoomminus" xlink:href="#zoomMin" x="42" y="9" onmousedown="handleZoom(evt,'out')"/>
  <use id="reset" xlink:href="#resetDef" x="30" y="36" onmousedown="handleReset()"/>
   <use id="arrowup" xlink:href="#arrowUp" x="0" y="0" onmousedown="handlePan(0,-1)"/>
  <use id="arrowright" xlink:href="#arrowRight" x="0" y="0" onmousedown="handlePan(1,0)"/>
  <use id="arrowdown" xlink:href="#arrowDown" x="0" y="0" onmousedown="handlePan(0,1)"/>
  <use id="arrowleft" xlink:href="#arrowLeft" x="0" y="0" onmousedown="handlePan(-1,0)"/>
</g>
<svg viewBox="0 0 15 15" width="100%" height="30px" preserveAspectRatio="xMaxYMin meet">
 <g id="arrow_out" transform="scale(0.3 0.3)">
  <a xlink:href="class_deluxe_1_1_deluxe_brand_center_1_1_a_m_m_1_1_a_p_i_1_1_services_1_1_contact_manager_service_ab75a603e20951db8a999d521c9438162_cgraph_org.svg" target="_base">
   <rect id="button" ry="5" rx="5" y="6" x="6" height="38" width="38"
        fill="#f2f5e9" fill-opacity="0.5" stroke="#606060" stroke-width="1.0"/>
   <path id="arrow"
     d="M 11.500037,31.436501 C 11.940474,20.09759 22.043105,11.32322 32.158766,21.979434 L 37.068811,17.246167 C 37.068811,17.246167 37.088388,32 37.088388,32 L 22.160133,31.978069 C 22.160133,31.978069 26.997745,27.140456 26.997745,27.140456 C 18.528582,18.264221 13.291696,25.230495 11.500037,31.436501 z"
     style="fill:#404040;"/>
  </a>
 </g>
</svg>

<style type='text/css'>
<![CDATA[
[data-mouse-over-selected='false'] { opacity: 0.7; }
[data-mouse-over-selected='true']  { opacity: 1.0; }
]]>
</style>
<script type="application/ecmascript"><![CDATA[
document.addEventListener('DOMContentLoaded', (event) => {
  highlightEdges();
  highlightAdjacentNodes();
});
]]></script>
</svg>
