<?xml version="1.0" encoding="UTF-8" standalone="no"?>
<!DOCTYPE svg PUBLIC "-//W3C//DTD SVG 1.1//EN"
 "http://www.w3.org/Graphics/SVG/1.1/DTD/svg11.dtd">
<!-- Generated by graphviz version 12.1.1 (20240910.0053)
 -->
<!-- Title: Deluxe.DeluxeBrandCenter.AMM.API.Services.ContactManagerService.AddGroupsAndTagsToDb Pages: 1 -->
<svg width="634pt" height="202pt"
 viewBox="0.00 0.00 634.25 202.00" xmlns="http://www.w3.org/2000/svg" xmlns:xlink="http://www.w3.org/1999/xlink">
<g id="graph0" class="graph" transform="scale(1 1) rotate(0) translate(4 198)">
<title>Deluxe.DeluxeBrandCenter.AMM.API.Services.ContactManagerService.AddGroupsAndTagsToDb</title>
<!-- Node1 -->
<g id="Node000001" class="node">
<title>Node1</title>
<g id="a_Node000001"><a xlink:title=" ">
<polygon fill="#999999" stroke="#666666" points="175,-110 0,-110 0,-66 175,-66 175,-110"/>
<text text-anchor="start" x="8" y="-96.5" font-family="Helvetica,sans-Serif" font-size="10.00">Deluxe.DeluxeBrandCenter.</text>
<text text-anchor="start" x="8" y="-84.5" font-family="Helvetica,sans-Serif" font-size="10.00">AMM.API.Services.ContactManager</text>
<text text-anchor="middle" x="87.5" y="-72.5" font-family="Helvetica,sans-Serif" font-size="10.00">Service.AddGroupsAndTagsToDb</text>
</a>
</g>
</g>
<!-- Node2 -->
<g id="Node000002" class="node">
<title>Node2</title>
<g id="a_Node000002"><a xlink:href="../../d4/d06/class_deluxe_1_1_deluxe_brand_center_1_1_a_m_m_1_1_a_p_i_1_1_services_1_1_contact_manager_service.html#a3b76c744327f7ab88edec35ccf52635d" target="_top" xlink:title=" ">
<polygon fill="white" stroke="#666666" points="386,-182 211,-182 211,-138 386,-138 386,-182"/>
<text text-anchor="start" x="219" y="-168.5" font-family="Helvetica,sans-Serif" font-size="10.00">Deluxe.DeluxeBrandCenter.</text>
<text text-anchor="start" x="219" y="-156.5" font-family="Helvetica,sans-Serif" font-size="10.00">AMM.API.Services.ContactManager</text>
<text text-anchor="middle" x="298.5" y="-144.5" font-family="Helvetica,sans-Serif" font-size="10.00">Service.AddOrUpdateTagDb</text>
</a>
</g>
</g>
<!-- Node1&#45;&gt;Node2 -->
<g id="edge1_Node000001_Node000002" class="edge">
<title>Node1&#45;&gt;Node2</title>
<g id="a_edge1_Node000001_Node000002"><a xlink:title=" ">
<path fill="none" stroke="#63b8ff" d="M153.77,-110.49C175.28,-117.9 199.39,-126.2 221.62,-133.86"/>
<polygon fill="#63b8ff" stroke="#63b8ff" points="220.34,-137.12 230.94,-137.07 222.62,-130.5 220.34,-137.12"/>
</a>
</g>
</g>
<!-- Node4 -->
<g id="Node000004" class="node">
<title>Node4</title>
<g id="a_Node000004"><a xlink:href="../../dd/d7d/interface_deluxe_1_1_deluxe_brand_center_1_1_a_m_m_1_1_domain_1_1_services_1_1_i_session_service.html#acfcf18f3c8f0b4e9c334223ec33b588f" target="_top" xlink:title=" ">
<polygon fill="white" stroke="#666666" points="621.38,-132 426.88,-132 426.88,-88 621.38,-88 621.38,-132"/>
<text text-anchor="start" x="434.88" y="-118.5" font-family="Helvetica,sans-Serif" font-size="10.00">Deluxe.DeluxeBrandCenter.</text>
<text text-anchor="start" x="434.88" y="-106.5" font-family="Helvetica,sans-Serif" font-size="10.00">AMM.Domain.Services.ISessionService.</text>
<text text-anchor="middle" x="524.12" y="-94.5" font-family="Helvetica,sans-Serif" font-size="10.00">SessionGetUser</text>
</a>
</g>
</g>
<!-- Node1&#45;&gt;Node4 -->
<g id="edge6_Node000001_Node000004" class="edge">
<title>Node1&#45;&gt;Node4</title>
<g id="a_edge6_Node000001_Node000004"><a xlink:title=" ">
<path fill="none" stroke="#63b8ff" d="M175.41,-92.4C244.45,-95.89 341.35,-100.8 415.33,-104.54"/>
<polygon fill="#63b8ff" stroke="#63b8ff" points="414.86,-108.02 425.02,-105.03 415.21,-101.03 414.86,-108.02"/>
</a>
</g>
</g>
<!-- Node5 -->
<g id="Node000005" class="node">
<title>Node5</title>
<g id="a_Node000005"><a xlink:href="../../d7/d96/class_deluxe_1_1_deluxe_brand_center_1_1_a_m_m_1_1_domain_1_1_table.html#aec63c5179a35ee90ad13d60fbd19303e" target="_top" xlink:title=" ">
<polygon fill="white" stroke="#666666" points="368,-82 229,-82 229,-50 368,-50 368,-82"/>
<text text-anchor="start" x="237" y="-68.5" font-family="Helvetica,sans-Serif" font-size="10.00">Deluxe.DeluxeBrandCenter.</text>
<text text-anchor="middle" x="298.5" y="-56.5" font-family="Helvetica,sans-Serif" font-size="10.00">AMM.Domain.Table.Column</text>
</a>
</g>
</g>
<!-- Node1&#45;&gt;Node5 -->
<g id="edge4_Node000001_Node000005" class="edge">
<title>Node1&#45;&gt;Node5</title>
<g id="a_edge4_Node000001_Node000005"><a xlink:title=" ">
<path fill="none" stroke="#63b8ff" d="M175.32,-78.86C189.25,-77.39 203.61,-75.88 217.38,-74.43"/>
<polygon fill="#63b8ff" stroke="#63b8ff" points="217.7,-77.92 227.27,-73.39 216.96,-70.96 217.7,-77.92"/>
</a>
</g>
</g>
<!-- Node6 -->
<g id="Node000006" class="node">
<title>Node6</title>
<g id="a_Node000006"><a xlink:href="../../d7/d96/class_deluxe_1_1_deluxe_brand_center_1_1_a_m_m_1_1_domain_1_1_table.html#a16e661cd62aceaa49f099a1454be6a2d" target="_top" xlink:title=" ">
<polygon fill="white" stroke="#666666" points="382.25,-32 214.75,-32 214.75,0 382.25,0 382.25,-32"/>
<text text-anchor="start" x="222.75" y="-18.5" font-family="Helvetica,sans-Serif" font-size="10.00">Deluxe.DeluxeBrandCenter.</text>
<text text-anchor="middle" x="298.5" y="-6.5" font-family="Helvetica,sans-Serif" font-size="10.00">AMM.Domain.Table.GetColumnNo</text>
</a>
</g>
</g>
<!-- Node1&#45;&gt;Node6 -->
<g id="edge5_Node000001_Node000006" class="edge">
<title>Node1&#45;&gt;Node6</title>
<g id="a_edge5_Node000001_Node000006"><a xlink:title=" ">
<path fill="none" stroke="#63b8ff" d="M143.94,-65.58C164.82,-57.44 188.87,-48.43 211,-41 216.33,-39.21 221.87,-37.43 227.45,-35.7"/>
<polygon fill="#63b8ff" stroke="#63b8ff" points="228.21,-39.12 236.75,-32.86 226.17,-32.43 228.21,-39.12"/>
</a>
</g>
</g>
<!-- Node3 -->
<g id="Node000003" class="node">
<title>Node3</title>
<g id="a_Node000003"><a xlink:href="../../d3/d96/interface_deluxe_1_1_deluxe_brand_center_1_1_a_m_m_1_1_infrastructure_1_1_databases_1_1_i_application_db_context.html#a8a659fe1e536a2f0e3016e7ef8f62622" target="_top" xlink:title=" ">
<polygon fill="white" stroke="#666666" points="626.25,-194 422,-194 422,-150 626.25,-150 626.25,-194"/>
<text text-anchor="start" x="430" y="-180.5" font-family="Helvetica,sans-Serif" font-size="10.00">Deluxe.DeluxeBrandCenter.</text>
<text text-anchor="start" x="430" y="-168.5" font-family="Helvetica,sans-Serif" font-size="10.00">AMM.Infrastructure.Databases.IApplication</text>
<text text-anchor="middle" x="524.12" y="-156.5" font-family="Helvetica,sans-Serif" font-size="10.00">DbContext.SaveChangesAsync</text>
</a>
</g>
</g>
<!-- Node2&#45;&gt;Node3 -->
<g id="edge2_Node000002_Node000003" class="edge">
<title>Node2&#45;&gt;Node3</title>
<g id="a_edge2_Node000002_Node000003"><a xlink:title=" ">
<path fill="none" stroke="#63b8ff" d="M386.28,-164.66C394.21,-165.08 402.31,-165.52 410.42,-165.95"/>
<polygon fill="#63b8ff" stroke="#63b8ff" points="410.19,-169.44 420.36,-166.49 410.57,-162.45 410.19,-169.44"/>
</a>
</g>
</g>
<!-- Node2&#45;&gt;Node4 -->
<g id="edge3_Node000002_Node000004" class="edge">
<title>Node2&#45;&gt;Node4</title>
<g id="a_edge3_Node000002_Node000004"><a xlink:title=" ">
<path fill="none" stroke="#63b8ff" d="M386.28,-140.6C395.91,-138.44 405.81,-136.23 415.66,-134.03"/>
<polygon fill="#63b8ff" stroke="#63b8ff" points="416.27,-137.48 425.27,-131.88 414.74,-130.65 416.27,-137.48"/>
</a>
</g>
</g>
</g>
</svg>
