<?xml version="1.0" encoding="UTF-8" standalone="no"?>
<!DOCTYPE svg PUBLIC "-//W3C//DTD SVG 1.1//EN"
 "http://www.w3.org/Graphics/SVG/1.1/DTD/svg11.dtd">
<!-- Generated by graphviz version 12.1.1 (20240910.0053)
 -->
<!-- Title: Deluxe.DeluxeBrandCenter.AMM.API.Services.ContactManagerService.FilterOutContacts Pages: 1 -->
<!--zoomable 524 -->

<svg id="main" version="1.1" xmlns="http://www.w3.org/2000/svg" xmlns:xlink="http://www.w3.org/1999/xlink" xml:space="preserve" onload="init(evt)">

<style type="text/css"><![CDATA[
.node, .edge {opacity: 0.7;}
.node.selected, .edge.selected {opacity: 1;}
.edge:hover path { stroke: red; }
.edge:hover polygon { stroke: red; fill: red; }
]]></style>

<defs>
  <circle id="rim" cx="0" cy="0" r="7"/>
  <circle id="rim2" cx="0" cy="0" r="3.5"/>
  <g id="zoomPlus">
    <use xlink:href="#rim" fill="#404040"><set attributeName="fill" to="#808080" begin="zoomplus.mouseover" end="zoomplus.mouseout"/></use>
    <path d="M-4,0h8M0,-4v8" fill="none" stroke="white" stroke-width="1.5" pointer-events="none"/>
  </g>
  <g id="zoomMin">
    <use xlink:href="#rim" fill="#404040"><set attributeName="fill" to="#808080" begin="zoomminus.mouseover" end="zoomminus.mouseout"/></use>
    <path d="M-4,0h8" fill="none" stroke="white" stroke-width="1.5" pointer-events="none"/>
  </g>
  <g id="arrowUp" transform="translate(30 24)">
    <use xlink:href="#rim"/>
    <path pointer-events="none" fill="none" stroke="white" stroke-width="1.5" d="M0,-3.0v7 M-2.5,-0.5L0,-3.0L2.5,-0.5"/>
  </g>
  <g id="arrowRight" transform="rotate(90) translate(36 -43)">
    <use xlink:href="#rim"/>
    <path pointer-events="none" fill="none" stroke="white" stroke-width="1.5" d="M0,-3.0v7 M-2.5,-0.5L0,-3.0L2.5,-0.5"/>
  </g>
  <g id="arrowDown" transform="rotate(180) translate(-30 -48)">
    <use xlink:href="#rim"/>
    <path pointer-events="none" fill="none" stroke="white" stroke-width="1.5" d="M0,-3.0v7 M-2.5,-0.5L0,-3.0L2.5,-0.5"/>
  </g>
  <g id="arrowLeft" transform="rotate(270) translate(-36 17)">
    <use xlink:href="#rim"/>
    <path pointer-events="none" fill="none" stroke="white" stroke-width="1.5" d="M0,-3.0v7 M-2.5,-0.5L0,-3.0L2.5,-0.5"/>
  </g>
  <g id="resetDef">
    <use xlink:href="#rim2" fill="#404040"><set attributeName="fill" to="#808080" begin="reset.mouseover" end="reset.mouseout"/></use>
  </g>
</defs>
<script type="application/ecmascript">
var viewWidth = 1048;
var viewHeight = 524;
var sectionId = 'dynsection-26';
</script>
<script type="application/ecmascript" xlink:href="../../svg.min.js"/>
<svg id="graph" class="graph">
<g id="viewport">
<title>Deluxe.DeluxeBrandCenter.AMM.API.Services.ContactManagerService.FilterOutContacts</title>
<!-- Node1 -->
<g id="Node000001" class="node">
<title>Node1</title>
<g id="a_Node000001"><a xlink:title="Updates filter to exclude Unsubscribed and Ppersona Contacts.">
<polygon fill="#999999" stroke="#666666" points="1040,-197 865,-197 865,-153 1040,-153 1040,-197"/>
<text text-anchor="start" x="873" y="-183.5" font-family="Helvetica,sans-Serif" font-size="10.00">Deluxe.DeluxeBrandCenter.</text>
<text text-anchor="start" x="873" y="-171.5" font-family="Helvetica,sans-Serif" font-size="10.00">AMM.API.Services.ContactManager</text>
<text text-anchor="middle" x="952.5" y="-159.5" font-family="Helvetica,sans-Serif" font-size="10.00">Service.FilterOutContacts</text>
</a>
</g>
</g>
<!-- Node2 -->
<g id="Node000002" class="node">
<title>Node2</title>
<g id="a_Node000002"><a xlink:href="../../d4/d06/class_deluxe_1_1_deluxe_brand_center_1_1_a_m_m_1_1_a_p_i_1_1_services_1_1_contact_manager_service.html#a30c19c1749ece30e8201ad5972b6d3be" target="_top" xlink:title="Count Contacts except unsubscribed and Persona Contacts.">
<polygon fill="white" stroke="#666666" points="829,-299 654,-299 654,-255 829,-255 829,-299"/>
<text text-anchor="start" x="662" y="-285.5" font-family="Helvetica,sans-Serif" font-size="10.00">Deluxe.DeluxeBrandCenter.</text>
<text text-anchor="start" x="662" y="-273.5" font-family="Helvetica,sans-Serif" font-size="10.00">AMM.API.Services.ContactManager</text>
<text text-anchor="middle" x="741.5" y="-261.5" font-family="Helvetica,sans-Serif" font-size="10.00">Service.CountContacts</text>
</a>
</g>
</g>
<!-- Node1&#45;&gt;Node2 -->
<g id="edge1_Node000001_Node000002" class="edge">
<title>Node1&#45;&gt;Node2</title>
<g id="a_edge1_Node000001_Node000002"><a xlink:title=" ">
<path fill="none" stroke="#63b8ff" d="M907.04,-203.38C884.24,-217.26 855.7,-233.6 829,-246 822.63,-248.96 815.9,-251.81 809.11,-254.51"/>
<polygon fill="#63b8ff" stroke="#63b8ff" points="908.79,-206.42 915.47,-198.2 905.12,-200.45 908.79,-206.42"/>
</a>
</g>
</g>
<!-- Node3 -->
<g id="Node000003" class="node">
<title>Node3</title>
<g id="a_Node000003"><a xlink:href="../../d4/d06/class_deluxe_1_1_deluxe_brand_center_1_1_a_m_m_1_1_a_p_i_1_1_services_1_1_contact_manager_service.html#ab1141e6abe5397940a9170ec65047b69" target="_top" xlink:title=" ">
<polygon fill="white" stroke="#666666" points="829,-237 654,-237 654,-193 829,-193 829,-237"/>
<text text-anchor="start" x="662" y="-223.5" font-family="Helvetica,sans-Serif" font-size="10.00">Deluxe.DeluxeBrandCenter.</text>
<text text-anchor="start" x="662" y="-211.5" font-family="Helvetica,sans-Serif" font-size="10.00">AMM.API.Services.ContactManager</text>
<text text-anchor="middle" x="741.5" y="-199.5" font-family="Helvetica,sans-Serif" font-size="10.00">Service.GetContactsCSVTable</text>
</a>
</g>
</g>
<!-- Node1&#45;&gt;Node3 -->
<g id="edge2_Node000001_Node000003" class="edge">
<title>Node1&#45;&gt;Node3</title>
<g id="a_edge2_Node000001_Node000003"><a xlink:title=" ">
<path fill="none" stroke="#63b8ff" d="M853.4,-193.78C845.38,-195.31 837.31,-196.85 829.39,-198.37"/>
<polygon fill="#63b8ff" stroke="#63b8ff" points="854.03,-197.22 863.19,-191.9 852.71,-190.34 854.03,-197.22"/>
</a>
</g>
</g>
<!-- Node20 -->
<g id="Node000020" class="node">
<title>Node20</title>
<g id="a_Node000020"><a xlink:href="../../d4/d06/class_deluxe_1_1_deluxe_brand_center_1_1_a_m_m_1_1_a_p_i_1_1_services_1_1_contact_manager_service.html#a7c46eb328b0be11ae5082d8512e4356e" target="_top" xlink:title=" ">
<polygon fill="white" stroke="#666666" points="829,-166 654,-166 654,-122 829,-122 829,-166"/>
<text text-anchor="start" x="662" y="-152.5" font-family="Helvetica,sans-Serif" font-size="10.00">Deluxe.DeluxeBrandCenter.</text>
<text text-anchor="start" x="662" y="-140.5" font-family="Helvetica,sans-Serif" font-size="10.00">AMM.API.Services.ContactManager</text>
<text text-anchor="middle" x="741.5" y="-128.5" font-family="Helvetica,sans-Serif" font-size="10.00">Service.GetGroup</text>
</a>
</g>
</g>
<!-- Node1&#45;&gt;Node20 -->
<g id="edge20_Node000001_Node000020" class="edge">
<title>Node1&#45;&gt;Node20</title>
<g id="a_edge20_Node000001_Node000020"><a xlink:title=" ">
<path fill="none" stroke="#63b8ff" d="M853.4,-160.45C845.38,-159.26 837.31,-158.06 829.39,-156.89"/>
<polygon fill="#63b8ff" stroke="#63b8ff" points="852.78,-163.9 863.18,-161.9 853.81,-156.97 852.78,-163.9"/>
</a>
</g>
</g>
<!-- Node21 -->
<g id="Node000021" class="node">
<title>Node21</title>
<g id="a_Node000021"><a xlink:href="../../d4/d06/class_deluxe_1_1_deluxe_brand_center_1_1_a_m_m_1_1_a_p_i_1_1_services_1_1_contact_manager_service.html#ae33c1b36ed9e432ded5f28b4137fea46" target="_top" xlink:title="Get Paginated Contacts. Exclusion of Unsubscribed and PersonaContacts are added to filter prior to MF...">
<polygon fill="white" stroke="#666666" points="829,-85 654,-85 654,-41 829,-41 829,-85"/>
<text text-anchor="start" x="662" y="-71.5" font-family="Helvetica,sans-Serif" font-size="10.00">Deluxe.DeluxeBrandCenter.</text>
<text text-anchor="start" x="662" y="-59.5" font-family="Helvetica,sans-Serif" font-size="10.00">AMM.API.Services.ContactManager</text>
<text text-anchor="middle" x="741.5" y="-47.5" font-family="Helvetica,sans-Serif" font-size="10.00">Service.GetPaginatedContacts</text>
</a>
</g>
</g>
<!-- Node1&#45;&gt;Node21 -->
<g id="edge22_Node000001_Node000021" class="edge">
<title>Node1&#45;&gt;Node21</title>
<g id="a_edge22_Node000001_Node000021"><a xlink:title=" ">
<path fill="none" stroke="#63b8ff" d="M899.97,-147.39C864.33,-128.29 817.52,-103.2 784.22,-85.36"/>
<polygon fill="#63b8ff" stroke="#63b8ff" points="897.91,-150.25 908.37,-151.89 901.21,-144.08 897.91,-150.25"/>
</a>
</g>
</g>
<!-- Node4 -->
<g id="Node000004" class="node">
<title>Node4</title>
<g id="a_Node000004"><a xlink:href="../../d4/d06/class_deluxe_1_1_deluxe_brand_center_1_1_a_m_m_1_1_a_p_i_1_1_services_1_1_contact_manager_service.html#ad5a6675a4bbdf499e765e18b3f2f71d3" target="_top" xlink:title=" ">
<polygon fill="white" stroke="#666666" points="393.5,-268 218.5,-268 218.5,-224 393.5,-224 393.5,-268"/>
<text text-anchor="start" x="226.5" y="-254.5" font-family="Helvetica,sans-Serif" font-size="10.00">Deluxe.DeluxeBrandCenter.</text>
<text text-anchor="start" x="226.5" y="-242.5" font-family="Helvetica,sans-Serif" font-size="10.00">AMM.API.Services.ContactManager</text>
<text text-anchor="middle" x="306" y="-230.5" font-family="Helvetica,sans-Serif" font-size="10.00">Service.DownloadCSV</text>
</a>
</g>
</g>
<!-- Node3&#45;&gt;Node4 -->
<g id="edge3_Node000003_Node000004" class="edge">
<title>Node3&#45;&gt;Node4</title>
<g id="a_edge3_Node000003_Node000004"><a xlink:title=" ">
<path fill="none" stroke="#63b8ff" d="M660.72,-242.3C658.43,-243.49 656.18,-244.73 654,-246 635.76,-256.63 637.79,-269.65 618,-277 536.48,-307.26 435.16,-287.49 370.76,-268.47"/>
<polygon fill="#63b8ff" stroke="#63b8ff" points="662.17,-245.49 669.64,-237.97 659.11,-239.19 662.17,-245.49"/>
</a>
</g>
</g>
<!-- Node6 -->
<g id="Node000006" class="node">
<title>Node6</title>
<g id="a_Node000006"><a xlink:href="../../d4/d06/class_deluxe_1_1_deluxe_brand_center_1_1_a_m_m_1_1_a_p_i_1_1_services_1_1_contact_manager_service.html#ab308541a7dfc0ce6c37951b978981a75" target="_top" xlink:title=" ">
<polygon fill="white" stroke="#666666" points="618,-268 429.5,-268 429.5,-224 618,-224 618,-268"/>
<text text-anchor="start" x="437.5" y="-254.5" font-family="Helvetica,sans-Serif" font-size="10.00">Deluxe.DeluxeBrandCenter.</text>
<text text-anchor="start" x="437.5" y="-242.5" font-family="Helvetica,sans-Serif" font-size="10.00">AMM.API.Services.ContactManager</text>
<text text-anchor="middle" x="523.75" y="-230.5" font-family="Helvetica,sans-Serif" font-size="10.00">Service.GenerateGroupCreationOptions</text>
</a>
</g>
</g>
<!-- Node3&#45;&gt;Node6 -->
<g id="edge5_Node000003_Node000006" class="edge">
<title>Node3&#45;&gt;Node6</title>
<g id="a_edge5_Node000003_Node000006"><a xlink:title=" ">
<path fill="none" stroke="#63b8ff" d="M642.45,-229.09C634.47,-230.24 626.41,-231.39 618.45,-232.54"/>
<polygon fill="#63b8ff" stroke="#63b8ff" points="642.78,-232.58 652.18,-227.69 641.78,-225.65 642.78,-232.58"/>
</a>
</g>
</g>
<!-- Node7 -->
<g id="Node000007" class="node">
<title>Node7</title>
<g id="a_Node000007"><a xlink:href="../../d4/d06/class_deluxe_1_1_deluxe_brand_center_1_1_a_m_m_1_1_a_p_i_1_1_services_1_1_contact_manager_service.html#a19a435c98b149ec6d21c881109ebf6aa" target="_top" xlink:title=" ">
<polygon fill="white" stroke="#666666" points="611.25,-206 436.25,-206 436.25,-162 611.25,-162 611.25,-206"/>
<text text-anchor="start" x="444.25" y="-192.5" font-family="Helvetica,sans-Serif" font-size="10.00">Deluxe.DeluxeBrandCenter.</text>
<text text-anchor="start" x="444.25" y="-180.5" font-family="Helvetica,sans-Serif" font-size="10.00">AMM.API.Services.ContactManager</text>
<text text-anchor="middle" x="523.75" y="-168.5" font-family="Helvetica,sans-Serif" font-size="10.00">Service.GetContact</text>
</a>
</g>
</g>
<!-- Node3&#45;&gt;Node7 -->
<g id="edge6_Node000003_Node000007" class="edge">
<title>Node3&#45;&gt;Node7</title>
<g id="a_edge6_Node000003_Node000007"><a xlink:title=" ">
<path fill="none" stroke="#63b8ff" d="M642.58,-200.93C632.3,-199.45 621.89,-197.96 611.74,-196.5"/>
<polygon fill="#63b8ff" stroke="#63b8ff" points="641.78,-204.35 652.18,-202.31 642.78,-197.42 641.78,-204.35"/>
</a>
</g>
</g>
<!-- Node8 -->
<g id="Node000008" class="node">
<title>Node8</title>
<g id="a_Node000008"><a xlink:href="../../d4/d06/class_deluxe_1_1_deluxe_brand_center_1_1_a_m_m_1_1_a_p_i_1_1_services_1_1_contact_manager_service.html#a15078488db9949c55dbf5ed4655f81bf" target="_top" xlink:title="Get filtered List of Contacts.">
<polygon fill="white" stroke="#666666" points="611.25,-144 436.25,-144 436.25,-100 611.25,-100 611.25,-144"/>
<text text-anchor="start" x="444.25" y="-130.5" font-family="Helvetica,sans-Serif" font-size="10.00">Deluxe.DeluxeBrandCenter.</text>
<text text-anchor="start" x="444.25" y="-118.5" font-family="Helvetica,sans-Serif" font-size="10.00">AMM.API.Services.ContactManager</text>
<text text-anchor="middle" x="523.75" y="-106.5" font-family="Helvetica,sans-Serif" font-size="10.00">Service.GetContacts</text>
</a>
</g>
</g>
<!-- Node3&#45;&gt;Node8 -->
<g id="edge7_Node000003_Node000008" class="edge">
<title>Node3&#45;&gt;Node8</title>
<g id="a_edge7_Node000003_Node000008"><a xlink:title=" ">
<path fill="none" stroke="#63b8ff" d="M679.32,-187.78C670.74,-183.65 662.09,-179.32 654,-175 637.46,-166.16 635.01,-160.9 618,-153 611.5,-149.98 604.62,-147.12 597.67,-144.44"/>
<polygon fill="#63b8ff" stroke="#63b8ff" points="677.8,-190.94 688.34,-192.05 680.8,-184.61 677.8,-190.94"/>
</a>
</g>
</g>
<!-- Node14 -->
<g id="Node000014" class="node">
<title>Node14</title>
<g id="a_Node000014"><a xlink:href="../../d4/d06/class_deluxe_1_1_deluxe_brand_center_1_1_a_m_m_1_1_a_p_i_1_1_services_1_1_contact_manager_service.html#a056bd26f7d76ff3998f5adda2e3d1db4" target="_top" xlink:title=" ">
<polygon fill="white" stroke="#666666" points="617.62,-454 429.88,-454 429.88,-410 617.62,-410 617.62,-454"/>
<text text-anchor="start" x="437.88" y="-440.5" font-family="Helvetica,sans-Serif" font-size="10.00">Deluxe.DeluxeBrandCenter.</text>
<text text-anchor="start" x="437.88" y="-428.5" font-family="Helvetica,sans-Serif" font-size="10.00">AMM.API.Services.ContactManager</text>
<text text-anchor="middle" x="523.75" y="-416.5" font-family="Helvetica,sans-Serif" font-size="10.00">Service.UpdateContactsCollectionField</text>
</a>
</g>
</g>
<!-- Node3&#45;&gt;Node14 -->
<g id="edge14_Node000003_Node000014" class="edge">
<title>Node3&#45;&gt;Node14</title>
<g id="a_edge14_Node000003_Node000014"><a xlink:title=" ">
<path fill="none" stroke="#63b8ff" d="M655.11,-244.83C654.74,-245.22 654.37,-245.61 654,-246 612.96,-290.29 654.69,-329.04 618,-377 607.72,-390.44 593.15,-401.22 578.56,-409.56"/>
<polygon fill="#63b8ff" stroke="#63b8ff" points="657.25,-247.61 662.56,-238.44 652.69,-242.29 657.25,-247.61"/>
</a>
</g>
</g>
<!-- Node17 -->
<g id="Node000017" class="node">
<title>Node17</title>
<g id="a_Node000017"><a xlink:href="../../d4/d06/class_deluxe_1_1_deluxe_brand_center_1_1_a_m_m_1_1_a_p_i_1_1_services_1_1_contact_manager_service.html#aa1fe050e4d5227a691150b9849f7b1a3" target="_top" xlink:title=" ">
<polygon fill="white" stroke="#666666" points="611.25,-368 436.25,-368 436.25,-324 611.25,-324 611.25,-368"/>
<text text-anchor="start" x="444.25" y="-354.5" font-family="Helvetica,sans-Serif" font-size="10.00">Deluxe.DeluxeBrandCenter.</text>
<text text-anchor="start" x="444.25" y="-342.5" font-family="Helvetica,sans-Serif" font-size="10.00">AMM.API.Services.ContactManager</text>
<text text-anchor="middle" x="523.75" y="-330.5" font-family="Helvetica,sans-Serif" font-size="10.00">Service.UploadContacts</text>
</a>
</g>
</g>
<!-- Node3&#45;&gt;Node17 -->
<g id="edge17_Node000003_Node000017" class="edge">
<title>Node3&#45;&gt;Node17</title>
<g id="a_edge17_Node000003_Node000017"><a xlink:title=" ">
<path fill="none" stroke="#63b8ff" d="M656.9,-243.67C655.91,-244.42 654.94,-245.2 654,-246 629.07,-267.06 642.68,-288.64 618,-310 611.96,-315.22 605.09,-319.73 597.86,-323.62"/>
<polygon fill="#63b8ff" stroke="#63b8ff" points="658.67,-246.69 665,-238.2 654.75,-240.89 658.67,-246.69"/>
</a>
</g>
</g>
<!-- Node5 -->
<g id="Node000005" class="node">
<title>Node5</title>
<g id="a_Node000005"><a xlink:href="../../d4/d06/class_deluxe_1_1_deluxe_brand_center_1_1_a_m_m_1_1_a_p_i_1_1_services_1_1_contact_manager_service.html#a606f9329995599eb3ae8583e6d033f8d" target="_top" xlink:title=" ">
<polygon fill="white" stroke="#666666" points="182.5,-268 0,-268 0,-224 182.5,-224 182.5,-268"/>
<text text-anchor="start" x="8" y="-254.5" font-family="Helvetica,sans-Serif" font-size="10.00">Deluxe.DeluxeBrandCenter.</text>
<text text-anchor="start" x="8" y="-242.5" font-family="Helvetica,sans-Serif" font-size="10.00">AMM.API.Services.ContactManager</text>
<text text-anchor="middle" x="91.25" y="-230.5" font-family="Helvetica,sans-Serif" font-size="10.00">Service.DownloadGroupContactsCSV</text>
</a>
</g>
</g>
<!-- Node4&#45;&gt;Node5 -->
<g id="edge4_Node000004_Node000005" class="edge">
<title>Node4&#45;&gt;Node5</title>
<g id="a_edge4_Node000004_Node000005"><a xlink:title=" ">
<path fill="none" stroke="#63b8ff" d="M206.65,-246C198.76,-246 190.8,-246 182.96,-246"/>
<polygon fill="#63b8ff" stroke="#63b8ff" points="206.65,-249.5 216.65,-246 206.65,-242.5 206.65,-249.5"/>
</a>
</g>
</g>
<!-- Node8&#45;&gt;Node4 -->
<g id="edge9_Node000008_Node000004" class="edge">
<title>Node8&#45;&gt;Node4</title>
<g id="a_edge9_Node000008_Node000004"><a xlink:title=" ">
<path fill="none" stroke="#63b8ff" d="M432.93,-150.35C431.76,-151.21 430.62,-152.09 429.5,-153 404.78,-173.11 417.98,-194.61 393.5,-215 389.7,-218.16 385.55,-221.02 381.2,-223.59"/>
<polygon fill="#63b8ff" stroke="#63b8ff" points="434.56,-153.47 441.05,-145.09 430.76,-147.59 434.56,-153.47"/>
</a>
</g>
</g>
<!-- Node9 -->
<g id="Node000009" class="node">
<title>Node9</title>
<g id="a_Node000009"><a xlink:href="../../d4/d06/class_deluxe_1_1_deluxe_brand_center_1_1_a_m_m_1_1_a_p_i_1_1_services_1_1_contact_manager_service.html#a3dc71e4629a2d7c6f113ecddd3867d51" target="_top" xlink:title=" ">
<polygon fill="white" stroke="#666666" points="393.5,-206 218.5,-206 218.5,-162 393.5,-162 393.5,-206"/>
<text text-anchor="start" x="226.5" y="-192.5" font-family="Helvetica,sans-Serif" font-size="10.00">Deluxe.DeluxeBrandCenter.</text>
<text text-anchor="start" x="226.5" y="-180.5" font-family="Helvetica,sans-Serif" font-size="10.00">AMM.API.Services.ContactManager</text>
<text text-anchor="middle" x="306" y="-168.5" font-family="Helvetica,sans-Serif" font-size="10.00">Service.CreateContactMF</text>
</a>
</g>
</g>
<!-- Node8&#45;&gt;Node9 -->
<g id="edge8_Node000008_Node000009" class="edge">
<title>Node8&#45;&gt;Node9</title>
<g id="a_edge8_Node000008_Node000009"><a xlink:title=" ">
<path fill="none" stroke="#63b8ff" d="M433.57,-147.63C417.56,-152.23 400.97,-157 385.29,-161.5"/>
<polygon fill="#63b8ff" stroke="#63b8ff" points="434.46,-151.01 443.1,-144.89 432.52,-144.29 434.46,-151.01"/>
</a>
</g>
</g>
<!-- Node10 -->
<g id="Node000010" class="node">
<title>Node10</title>
<g id="a_Node000010"><a xlink:href="../../d4/d06/class_deluxe_1_1_deluxe_brand_center_1_1_a_m_m_1_1_a_p_i_1_1_services_1_1_contact_manager_service.html#a083029cf71592c87e571f1d675e4da7a" target="_top" xlink:title="Get paginated list of groups.">
<polygon fill="white" stroke="#666666" points="393.5,-82 218.5,-82 218.5,-38 393.5,-38 393.5,-82"/>
<text text-anchor="start" x="226.5" y="-68.5" font-family="Helvetica,sans-Serif" font-size="10.00">Deluxe.DeluxeBrandCenter.</text>
<text text-anchor="start" x="226.5" y="-56.5" font-family="Helvetica,sans-Serif" font-size="10.00">AMM.API.Services.ContactManager</text>
<text text-anchor="middle" x="306" y="-44.5" font-family="Helvetica,sans-Serif" font-size="10.00">Service.GetGroups</text>
</a>
</g>
</g>
<!-- Node8&#45;&gt;Node10 -->
<g id="edge10_Node000008_Node000010" class="edge">
<title>Node8&#45;&gt;Node10</title>
<g id="a_edge10_Node000008_Node000010"><a xlink:title=" ">
<path fill="none" stroke="#63b8ff" d="M433.57,-96.37C417.56,-91.77 400.97,-87 385.29,-82.5"/>
<polygon fill="#63b8ff" stroke="#63b8ff" points="432.52,-99.71 443.1,-99.11 434.46,-92.99 432.52,-99.71"/>
</a>
</g>
</g>
<!-- Node11 -->
<g id="Node000011" class="node">
<title>Node11</title>
<g id="a_Node000011"><a xlink:href="../../d4/d06/class_deluxe_1_1_deluxe_brand_center_1_1_a_m_m_1_1_a_p_i_1_1_services_1_1_contact_manager_service.html#a25fae23757589d7d6c66979e3e85bbe4" target="_top" xlink:title=" ">
<polygon fill="white" stroke="#666666" points="393.5,-144 218.5,-144 218.5,-100 393.5,-100 393.5,-144"/>
<text text-anchor="start" x="226.5" y="-130.5" font-family="Helvetica,sans-Serif" font-size="10.00">Deluxe.DeluxeBrandCenter.</text>
<text text-anchor="start" x="226.5" y="-118.5" font-family="Helvetica,sans-Serif" font-size="10.00">AMM.API.Services.ContactManager</text>
<text text-anchor="middle" x="306" y="-106.5" font-family="Helvetica,sans-Serif" font-size="10.00">Service.MFGetTags</text>
</a>
</g>
</g>
<!-- Node8&#45;&gt;Node11 -->
<g id="edge11_Node000008_Node000011" class="edge">
<title>Node8&#45;&gt;Node11</title>
<g id="a_edge11_Node000008_Node000011"><a xlink:title=" ">
<path fill="none" stroke="#63b8ff" d="M424.51,-122C414.33,-122 404.04,-122 393.99,-122"/>
<polygon fill="#63b8ff" stroke="#63b8ff" points="424.42,-125.5 434.42,-122 424.42,-118.5 424.42,-125.5"/>
</a>
</g>
</g>
<!-- Node12 -->
<g id="Node000012" class="node">
<title>Node12</title>
<g id="a_Node000012"><a xlink:href="../../d4/d06/class_deluxe_1_1_deluxe_brand_center_1_1_a_m_m_1_1_a_p_i_1_1_services_1_1_contact_manager_service.html#a8da96ba054538c9cfcf67c23d9172795" target="_top" xlink:title="Get all tag Names from MF.">
<polygon fill="white" stroke="#666666" points="178.75,-113 3.75,-113 3.75,-69 178.75,-69 178.75,-113"/>
<text text-anchor="start" x="11.75" y="-99.5" font-family="Helvetica,sans-Serif" font-size="10.00">Deluxe.DeluxeBrandCenter.</text>
<text text-anchor="start" x="11.75" y="-87.5" font-family="Helvetica,sans-Serif" font-size="10.00">AMM.API.Services.ContactManager</text>
<text text-anchor="middle" x="91.25" y="-75.5" font-family="Helvetica,sans-Serif" font-size="10.00">Service.GetTagNames</text>
</a>
</g>
</g>
<!-- Node11&#45;&gt;Node12 -->
<g id="edge12_Node000011_Node000012" class="edge">
<title>Node11&#45;&gt;Node12</title>
<g id="a_edge12_Node000011_Node000012"><a xlink:title=" ">
<path fill="none" stroke="#63b8ff" d="M206.92,-107.71C197.66,-106.36 188.31,-105 179.16,-103.66"/>
<polygon fill="#63b8ff" stroke="#63b8ff" points="206.26,-111.15 216.66,-109.13 207.27,-104.22 206.26,-111.15"/>
</a>
</g>
</g>
<!-- Node13 -->
<g id="Node000013" class="node">
<title>Node13</title>
<g id="a_Node000013"><a xlink:href="../../d4/d06/class_deluxe_1_1_deluxe_brand_center_1_1_a_m_m_1_1_a_p_i_1_1_services_1_1_contact_manager_service.html#a0d9c1d7e70a053e3d7083040bba5d44b" target="_top" xlink:title="Get list of Tags (UserId, Tag name and number of contacts associated with that tag)">
<polygon fill="white" stroke="#666666" points="178.75,-175 3.75,-175 3.75,-131 178.75,-131 178.75,-175"/>
<text text-anchor="start" x="11.75" y="-161.5" font-family="Helvetica,sans-Serif" font-size="10.00">Deluxe.DeluxeBrandCenter.</text>
<text text-anchor="start" x="11.75" y="-149.5" font-family="Helvetica,sans-Serif" font-size="10.00">AMM.API.Services.ContactManager</text>
<text text-anchor="middle" x="91.25" y="-137.5" font-family="Helvetica,sans-Serif" font-size="10.00">Service.GetTags</text>
</a>
</g>
</g>
<!-- Node11&#45;&gt;Node13 -->
<g id="edge13_Node000011_Node000013" class="edge">
<title>Node11&#45;&gt;Node13</title>
<g id="a_edge13_Node000011_Node000013"><a xlink:title=" ">
<path fill="none" stroke="#63b8ff" d="M206.92,-136.29C197.66,-137.64 188.31,-139 179.16,-140.34"/>
<polygon fill="#63b8ff" stroke="#63b8ff" points="207.27,-139.78 216.66,-134.87 206.26,-132.85 207.27,-139.78"/>
</a>
</g>
</g>
<!-- Node15 -->
<g id="Node000015" class="node">
<title>Node15</title>
<g id="a_Node000015"><a xlink:href="../../d4/d06/class_deluxe_1_1_deluxe_brand_center_1_1_a_m_m_1_1_a_p_i_1_1_services_1_1_contact_manager_service.html#aab42ea45768418dcf29fabe521d8b577" target="_top" xlink:title=" ">
<polygon fill="white" stroke="#666666" points="393.5,-516 218.5,-516 218.5,-472 393.5,-472 393.5,-516"/>
<text text-anchor="start" x="226.5" y="-502.5" font-family="Helvetica,sans-Serif" font-size="10.00">Deluxe.DeluxeBrandCenter.</text>
<text text-anchor="start" x="226.5" y="-490.5" font-family="Helvetica,sans-Serif" font-size="10.00">AMM.API.Services.ContactManager</text>
<text text-anchor="middle" x="306" y="-478.5" font-family="Helvetica,sans-Serif" font-size="10.00">Service.AddOrUpdateTag</text>
</a>
</g>
</g>
<!-- Node14&#45;&gt;Node15 -->
<g id="edge15_Node000014_Node000015" class="edge">
<title>Node14&#45;&gt;Node15</title>
<g id="a_edge15_Node000014_Node000015"><a xlink:title=" ">
<path fill="none" stroke="#63b8ff" d="M433.57,-457.63C417.56,-462.23 400.97,-467 385.29,-471.5"/>
<polygon fill="#63b8ff" stroke="#63b8ff" points="434.46,-461.01 443.1,-454.89 432.52,-454.29 434.46,-461.01"/>
</a>
</g>
</g>
<!-- Node16 -->
<g id="Node000016" class="node">
<title>Node16</title>
<g id="a_Node000016"><a xlink:href="../../d4/d06/class_deluxe_1_1_deluxe_brand_center_1_1_a_m_m_1_1_a_p_i_1_1_services_1_1_contact_manager_service.html#a619cc4b0feff32ead048acb292ab8e82" target="_top" xlink:title=" ">
<polygon fill="white" stroke="#666666" points="393.5,-454 218.5,-454 218.5,-410 393.5,-410 393.5,-454"/>
<text text-anchor="start" x="226.5" y="-440.5" font-family="Helvetica,sans-Serif" font-size="10.00">Deluxe.DeluxeBrandCenter.</text>
<text text-anchor="start" x="226.5" y="-428.5" font-family="Helvetica,sans-Serif" font-size="10.00">AMM.API.Services.ContactManager</text>
<text text-anchor="middle" x="306" y="-416.5" font-family="Helvetica,sans-Serif" font-size="10.00">Service.DeleteTag</text>
</a>
</g>
</g>
<!-- Node14&#45;&gt;Node16 -->
<g id="edge16_Node000014_Node000016" class="edge">
<title>Node14&#45;&gt;Node16</title>
<g id="a_edge16_Node000014_Node000016"><a xlink:title=" ">
<path fill="none" stroke="#63b8ff" d="M418.23,-432C410.11,-432 401.95,-432 393.96,-432"/>
<polygon fill="#63b8ff" stroke="#63b8ff" points="418.17,-435.5 428.17,-432 418.17,-428.5 418.17,-435.5"/>
</a>
</g>
</g>
<!-- Node18 -->
<g id="Node000018" class="node">
<title>Node18</title>
<g id="a_Node000018"><a xlink:href="../../d4/d06/class_deluxe_1_1_deluxe_brand_center_1_1_a_m_m_1_1_a_p_i_1_1_services_1_1_contact_manager_service.html#a7f6af03e51f7bb3b4b003c2296015349" target="_top" xlink:title=" ">
<polygon fill="white" stroke="#666666" points="393.5,-392 218.5,-392 218.5,-348 393.5,-348 393.5,-392"/>
<text text-anchor="start" x="226.5" y="-378.5" font-family="Helvetica,sans-Serif" font-size="10.00">Deluxe.DeluxeBrandCenter.</text>
<text text-anchor="start" x="226.5" y="-366.5" font-family="Helvetica,sans-Serif" font-size="10.00">AMM.API.Services.ContactManager</text>
<text text-anchor="middle" x="306" y="-354.5" font-family="Helvetica,sans-Serif" font-size="10.00">Service.UploadRedTailContacts</text>
</a>
</g>
</g>
<!-- Node17&#45;&gt;Node18 -->
<g id="edge18_Node000017_Node000018" class="edge">
<title>Node17&#45;&gt;Node18</title>
<g id="a_edge18_Node000017_Node000018"><a xlink:title=" ">
<path fill="none" stroke="#63b8ff" d="M424.51,-356.93C414.33,-358.06 404.04,-359.21 393.99,-360.32"/>
<polygon fill="#63b8ff" stroke="#63b8ff" points="424.87,-360.41 434.42,-355.83 424.1,-353.45 424.87,-360.41"/>
</a>
</g>
</g>
<!-- Node19 -->
<g id="Node000019" class="node">
<title>Node19</title>
<g id="a_Node000019"><a xlink:href="../../d4/d06/class_deluxe_1_1_deluxe_brand_center_1_1_a_m_m_1_1_a_p_i_1_1_services_1_1_contact_manager_service.html#a9fed8bce1aa679c38c8e729ee735ca5f" target="_top" xlink:title=" ">
<polygon fill="white" stroke="#666666" points="393.5,-330 218.5,-330 218.5,-286 393.5,-286 393.5,-330"/>
<text text-anchor="start" x="226.5" y="-316.5" font-family="Helvetica,sans-Serif" font-size="10.00">Deluxe.DeluxeBrandCenter.</text>
<text text-anchor="start" x="226.5" y="-304.5" font-family="Helvetica,sans-Serif" font-size="10.00">AMM.API.Services.ContactManager</text>
<text text-anchor="middle" x="306" y="-292.5" font-family="Helvetica,sans-Serif" font-size="10.00">Service.UploadSaleForceContacts</text>
</a>
</g>
</g>
<!-- Node17&#45;&gt;Node19 -->
<g id="edge19_Node000017_Node000019" class="edge">
<title>Node17&#45;&gt;Node19</title>
<g id="a_edge19_Node000017_Node000019"><a xlink:title=" ">
<path fill="none" stroke="#63b8ff" d="M424.83,-328.75C414.55,-326.94 404.14,-325.11 393.99,-323.32"/>
<polygon fill="#63b8ff" stroke="#63b8ff" points="423.98,-332.16 434.44,-330.45 425.2,-325.26 423.98,-332.16"/>
</a>
</g>
</g>
<!-- Node20&#45;&gt;Node10 -->
<g id="edge21_Node000020_Node000010" class="edge">
<title>Node20&#45;&gt;Node10</title>
<g id="a_edge21_Node000020_Node000010"><a xlink:title=" ">
<path fill="none" stroke="#63b8ff" d="M687.38,-116.75C666.29,-107.09 641.51,-97.1 618,-91 543.81,-71.75 456.81,-64.31 393.72,-61.5"/>
<polygon fill="#63b8ff" stroke="#63b8ff" points="685.81,-119.89 696.35,-120.97 688.78,-113.55 685.81,-119.89"/>
</a>
</g>
</g>
<!-- Node22 -->
<g id="Node000022" class="node">
<title>Node22</title>
<g id="a_Node000022"><a xlink:href="../../d4/d06/class_deluxe_1_1_deluxe_brand_center_1_1_a_m_m_1_1_a_p_i_1_1_services_1_1_contact_manager_service.html#a5ec626d341e4b4f081d3fca715b95944" target="_top" xlink:title=" ">
<polygon fill="white" stroke="#666666" points="612.38,-44 435.12,-44 435.12,0 612.38,0 612.38,-44"/>
<text text-anchor="start" x="443.12" y="-30.5" font-family="Helvetica,sans-Serif" font-size="10.00">Deluxe.DeluxeBrandCenter.</text>
<text text-anchor="start" x="443.12" y="-18.5" font-family="Helvetica,sans-Serif" font-size="10.00">AMM.API.Services.ContactManager</text>
<text text-anchor="middle" x="523.75" y="-6.5" font-family="Helvetica,sans-Serif" font-size="10.00">Service.GetGroupContactsPaginated</text>
</a>
</g>
</g>
<!-- Node21&#45;&gt;Node22 -->
<g id="edge23_Node000021_Node000022" class="edge">
<title>Node21&#45;&gt;Node22</title>
<g id="a_edge23_Node000021_Node000022"><a xlink:title=" ">
<path fill="none" stroke="#63b8ff" d="M642.55,-44.39C632.63,-42.5 622.6,-40.6 612.8,-38.73"/>
<polygon fill="#63b8ff" stroke="#63b8ff" points="641.71,-47.79 652.19,-46.22 643.02,-40.91 641.71,-47.79"/>
</a>
</g>
</g>
</g>
</svg>

<g id="navigator" transform="translate(0 0)" fill="#404254">
  <rect fill="#f2f5e9" fill-opacity="0.5" stroke="#606060" stroke-width=".5" x="0" y="0" width="60" height="60"/>
  <use id="zoomplus" xlink:href="#zoomPlus" x="17" y="9" onmousedown="handleZoom(evt,'in')"/>
  <use id="zoomminus" xlink:href="#zoomMin" x="42" y="9" onmousedown="handleZoom(evt,'out')"/>
  <use id="reset" xlink:href="#resetDef" x="30" y="36" onmousedown="handleReset()"/>
   <use id="arrowup" xlink:href="#arrowUp" x="0" y="0" onmousedown="handlePan(0,-1)"/>
  <use id="arrowright" xlink:href="#arrowRight" x="0" y="0" onmousedown="handlePan(1,0)"/>
  <use id="arrowdown" xlink:href="#arrowDown" x="0" y="0" onmousedown="handlePan(0,1)"/>
  <use id="arrowleft" xlink:href="#arrowLeft" x="0" y="0" onmousedown="handlePan(-1,0)"/>
</g>
<svg viewBox="0 0 15 15" width="100%" height="30px" preserveAspectRatio="xMaxYMin meet">
 <g id="arrow_out" transform="scale(0.3 0.3)">
  <a xlink:href="class_deluxe_1_1_deluxe_brand_center_1_1_a_m_m_1_1_a_p_i_1_1_services_1_1_contact_manager_service_af3ee320e832b5241f698ab94cadab7cb_icgraph_org.svg" target="_base">
   <rect id="button" ry="5" rx="5" y="6" x="6" height="38" width="38"
        fill="#f2f5e9" fill-opacity="0.5" stroke="#606060" stroke-width="1.0"/>
   <path id="arrow"
     d="M 11.500037,31.436501 C 11.940474,20.09759 22.043105,11.32322 32.158766,21.979434 L 37.068811,17.246167 C 37.068811,17.246167 37.088388,32 37.088388,32 L 22.160133,31.978069 C 22.160133,31.978069 26.997745,27.140456 26.997745,27.140456 C 18.528582,18.264221 13.291696,25.230495 11.500037,31.436501 z"
     style="fill:#404040;"/>
  </a>
 </g>
</svg>

<style type='text/css'>
<![CDATA[
[data-mouse-over-selected='false'] { opacity: 0.7; }
[data-mouse-over-selected='true']  { opacity: 1.0; }
]]>
</style>
<script type="application/ecmascript"><![CDATA[
document.addEventListener('DOMContentLoaded', (event) => {
  highlightEdges();
  highlightAdjacentNodes();
});
]]></script>
</svg>
