<?xml version="1.0" encoding="UTF-8" standalone="no"?>
<!DOCTYPE svg PUBLIC "-//W3C//DTD SVG 1.1//EN"
 "http://www.w3.org/Graphics/SVG/1.1/DTD/svg11.dtd">
<!-- Generated by graphviz version 12.1.1 (20240910.0053)
 -->
<!-- Title: Deluxe.DeluxeBrandCenter.AMM.API.Services.ContactManagerService.GetContactGroupDB Pages: 1 -->
<!--zoomable 114 -->

<svg id="main" version="1.1" xmlns="http://www.w3.org/2000/svg" xmlns:xlink="http://www.w3.org/1999/xlink" xml:space="preserve" onload="init(evt)">

<style type="text/css"><![CDATA[
.node, .edge {opacity: 0.7;}
.node.selected, .edge.selected {opacity: 1;}
.edge:hover path { stroke: red; }
.edge:hover polygon { stroke: red; fill: red; }
]]></style>

<defs>
  <circle id="rim" cx="0" cy="0" r="7"/>
  <circle id="rim2" cx="0" cy="0" r="3.5"/>
  <g id="zoomPlus">
    <use xlink:href="#rim" fill="#404040"><set attributeName="fill" to="#808080" begin="zoomplus.mouseover" end="zoomplus.mouseout"/></use>
    <path d="M-4,0h8M0,-4v8" fill="none" stroke="white" stroke-width="1.5" pointer-events="none"/>
  </g>
  <g id="zoomMin">
    <use xlink:href="#rim" fill="#404040"><set attributeName="fill" to="#808080" begin="zoomminus.mouseover" end="zoomminus.mouseout"/></use>
    <path d="M-4,0h8" fill="none" stroke="white" stroke-width="1.5" pointer-events="none"/>
  </g>
  <g id="arrowUp" transform="translate(30 24)">
    <use xlink:href="#rim"/>
    <path pointer-events="none" fill="none" stroke="white" stroke-width="1.5" d="M0,-3.0v7 M-2.5,-0.5L0,-3.0L2.5,-0.5"/>
  </g>
  <g id="arrowRight" transform="rotate(90) translate(36 -43)">
    <use xlink:href="#rim"/>
    <path pointer-events="none" fill="none" stroke="white" stroke-width="1.5" d="M0,-3.0v7 M-2.5,-0.5L0,-3.0L2.5,-0.5"/>
  </g>
  <g id="arrowDown" transform="rotate(180) translate(-30 -48)">
    <use xlink:href="#rim"/>
    <path pointer-events="none" fill="none" stroke="white" stroke-width="1.5" d="M0,-3.0v7 M-2.5,-0.5L0,-3.0L2.5,-0.5"/>
  </g>
  <g id="arrowLeft" transform="rotate(270) translate(-36 17)">
    <use xlink:href="#rim"/>
    <path pointer-events="none" fill="none" stroke="white" stroke-width="1.5" d="M0,-3.0v7 M-2.5,-0.5L0,-3.0L2.5,-0.5"/>
  </g>
  <g id="resetDef">
    <use xlink:href="#rim2" fill="#404040"><set attributeName="fill" to="#808080" begin="reset.mouseover" end="reset.mouseout"/></use>
  </g>
</defs>
<script type="application/ecmascript">
var viewWidth = 824;
var viewHeight = 114;
var sectionId = 'dynsection-36';
</script>
<script type="application/ecmascript" xlink:href="../../svg.min.js"/>
<svg id="graph" class="graph">
<g id="viewport">
<title>Deluxe.DeluxeBrandCenter.AMM.API.Services.ContactManagerService.GetContactGroupDB</title>
<!-- Node1 -->
<g id="Node000001" class="node">
<title>Node1</title>
<g id="a_Node000001"><a xlink:title="Get Group from DB.">
<polygon fill="#999999" stroke="#666666" points="815.5,-75 640.5,-75 640.5,-31 815.5,-31 815.5,-75"/>
<text text-anchor="start" x="648.5" y="-61.5" font-family="Helvetica,sans-Serif" font-size="10.00">Deluxe.DeluxeBrandCenter.</text>
<text text-anchor="start" x="648.5" y="-49.5" font-family="Helvetica,sans-Serif" font-size="10.00">AMM.API.Services.ContactManager</text>
<text text-anchor="middle" x="728" y="-37.5" font-family="Helvetica,sans-Serif" font-size="10.00">Service.GetContactGroupDB</text>
</a>
</g>
</g>
<!-- Node2 -->
<g id="Node000002" class="node">
<title>Node2</title>
<g id="a_Node000002"><a xlink:href="../../d4/d06/class_deluxe_1_1_deluxe_brand_center_1_1_a_m_m_1_1_a_p_i_1_1_services_1_1_contact_manager_service.html#a22f946e29ca8db2aaea63a388be914be" target="_top" xlink:title=" ">
<polygon fill="white" stroke="#666666" points="604.5,-75 429.5,-75 429.5,-31 604.5,-31 604.5,-75"/>
<text text-anchor="start" x="437.5" y="-61.5" font-family="Helvetica,sans-Serif" font-size="10.00">Deluxe.DeluxeBrandCenter.</text>
<text text-anchor="start" x="437.5" y="-49.5" font-family="Helvetica,sans-Serif" font-size="10.00">AMM.API.Services.ContactManager</text>
<text text-anchor="middle" x="517" y="-37.5" font-family="Helvetica,sans-Serif" font-size="10.00">Service.FormatFilter</text>
</a>
</g>
</g>
<!-- Node1&#45;&gt;Node2 -->
<g id="edge1_Node000001_Node000002" class="edge">
<title>Node1&#45;&gt;Node2</title>
<g id="a_edge1_Node000001_Node000002"><a xlink:title=" ">
<path fill="none" stroke="#63b8ff" d="M628.9,-53C620.88,-53 612.81,-53 604.89,-53"/>
<polygon fill="#63b8ff" stroke="#63b8ff" points="628.67,-56.5 638.67,-53 628.67,-49.5 628.67,-56.5"/>
</a>
</g>
</g>
<!-- Node3 -->
<g id="Node000003" class="node">
<title>Node3</title>
<g id="a_Node000003"><a xlink:href="../../d4/d06/class_deluxe_1_1_deluxe_brand_center_1_1_a_m_m_1_1_a_p_i_1_1_services_1_1_contact_manager_service.html#ad5a6675a4bbdf499e765e18b3f2f71d3" target="_top" xlink:title=" ">
<polygon fill="white" stroke="#666666" points="393.5,-106 218.5,-106 218.5,-62 393.5,-62 393.5,-106"/>
<text text-anchor="start" x="226.5" y="-92.5" font-family="Helvetica,sans-Serif" font-size="10.00">Deluxe.DeluxeBrandCenter.</text>
<text text-anchor="start" x="226.5" y="-80.5" font-family="Helvetica,sans-Serif" font-size="10.00">AMM.API.Services.ContactManager</text>
<text text-anchor="middle" x="306" y="-68.5" font-family="Helvetica,sans-Serif" font-size="10.00">Service.DownloadCSV</text>
</a>
</g>
</g>
<!-- Node2&#45;&gt;Node3 -->
<g id="edge2_Node000002_Node000003" class="edge">
<title>Node2&#45;&gt;Node3</title>
<g id="a_edge2_Node000002_Node000003"><a xlink:title=" ">
<path fill="none" stroke="#63b8ff" d="M417.9,-67.55C409.88,-68.74 401.81,-69.94 393.89,-71.11"/>
<polygon fill="#63b8ff" stroke="#63b8ff" points="418.31,-71.03 427.68,-66.1 417.28,-64.1 418.31,-71.03"/>
</a>
</g>
</g>
<!-- Node5 -->
<g id="Node000005" class="node">
<title>Node5</title>
<g id="a_Node000005"><a xlink:href="../../d4/d06/class_deluxe_1_1_deluxe_brand_center_1_1_a_m_m_1_1_a_p_i_1_1_services_1_1_contact_manager_service.html#ae33c1b36ed9e432ded5f28b4137fea46" target="_top" xlink:title="Get Paginated Contacts. Exclusion of Unsubscribed and PersonaContacts are added to filter prior to MF...">
<polygon fill="white" stroke="#666666" points="393.5,-44 218.5,-44 218.5,0 393.5,0 393.5,-44"/>
<text text-anchor="start" x="226.5" y="-30.5" font-family="Helvetica,sans-Serif" font-size="10.00">Deluxe.DeluxeBrandCenter.</text>
<text text-anchor="start" x="226.5" y="-18.5" font-family="Helvetica,sans-Serif" font-size="10.00">AMM.API.Services.ContactManager</text>
<text text-anchor="middle" x="306" y="-6.5" font-family="Helvetica,sans-Serif" font-size="10.00">Service.GetPaginatedContacts</text>
</a>
</g>
</g>
<!-- Node2&#45;&gt;Node5 -->
<g id="edge4_Node000002_Node000005" class="edge">
<title>Node2&#45;&gt;Node5</title>
<g id="a_edge4_Node000002_Node000005"><a xlink:title=" ">
<path fill="none" stroke="#63b8ff" d="M417.9,-38.45C409.88,-37.26 401.81,-36.06 393.89,-34.89"/>
<polygon fill="#63b8ff" stroke="#63b8ff" points="417.28,-41.9 427.68,-39.9 418.31,-34.97 417.28,-41.9"/>
</a>
</g>
</g>
<!-- Node4 -->
<g id="Node000004" class="node">
<title>Node4</title>
<g id="a_Node000004"><a xlink:href="../../d4/d06/class_deluxe_1_1_deluxe_brand_center_1_1_a_m_m_1_1_a_p_i_1_1_services_1_1_contact_manager_service.html#a606f9329995599eb3ae8583e6d033f8d" target="_top" xlink:title=" ">
<polygon fill="white" stroke="#666666" points="182.5,-106 0,-106 0,-62 182.5,-62 182.5,-106"/>
<text text-anchor="start" x="8" y="-92.5" font-family="Helvetica,sans-Serif" font-size="10.00">Deluxe.DeluxeBrandCenter.</text>
<text text-anchor="start" x="8" y="-80.5" font-family="Helvetica,sans-Serif" font-size="10.00">AMM.API.Services.ContactManager</text>
<text text-anchor="middle" x="91.25" y="-68.5" font-family="Helvetica,sans-Serif" font-size="10.00">Service.DownloadGroupContactsCSV</text>
</a>
</g>
</g>
<!-- Node3&#45;&gt;Node4 -->
<g id="edge3_Node000003_Node000004" class="edge">
<title>Node3&#45;&gt;Node4</title>
<g id="a_edge3_Node000003_Node000004"><a xlink:title=" ">
<path fill="none" stroke="#63b8ff" d="M206.65,-84C198.76,-84 190.8,-84 182.96,-84"/>
<polygon fill="#63b8ff" stroke="#63b8ff" points="206.65,-87.5 216.65,-84 206.65,-80.5 206.65,-87.5"/>
</a>
</g>
</g>
<!-- Node6 -->
<g id="Node000006" class="node">
<title>Node6</title>
<g id="a_Node000006"><a xlink:href="../../d4/d06/class_deluxe_1_1_deluxe_brand_center_1_1_a_m_m_1_1_a_p_i_1_1_services_1_1_contact_manager_service.html#a5ec626d341e4b4f081d3fca715b95944" target="_top" xlink:title=" ">
<polygon fill="white" stroke="#666666" points="179.88,-44 2.62,-44 2.62,0 179.88,0 179.88,-44"/>
<text text-anchor="start" x="10.62" y="-30.5" font-family="Helvetica,sans-Serif" font-size="10.00">Deluxe.DeluxeBrandCenter.</text>
<text text-anchor="start" x="10.62" y="-18.5" font-family="Helvetica,sans-Serif" font-size="10.00">AMM.API.Services.ContactManager</text>
<text text-anchor="middle" x="91.25" y="-6.5" font-family="Helvetica,sans-Serif" font-size="10.00">Service.GetGroupContactsPaginated</text>
</a>
</g>
</g>
<!-- Node5&#45;&gt;Node6 -->
<g id="edge5_Node000005_Node000006" class="edge">
<title>Node5&#45;&gt;Node6</title>
<g id="a_edge5_Node000005_Node000006"><a xlink:title=" ">
<path fill="none" stroke="#63b8ff" d="M206.93,-22C198.01,-22 189.01,-22 180.19,-22"/>
<polygon fill="#63b8ff" stroke="#63b8ff" points="206.65,-25.5 216.65,-22 206.65,-18.5 206.65,-25.5"/>
</a>
</g>
</g>
</g>
</svg>

<g id="navigator" transform="translate(0 0)" fill="#404254">
  <rect fill="#f2f5e9" fill-opacity="0.5" stroke="#606060" stroke-width=".5" x="0" y="0" width="60" height="60"/>
  <use id="zoomplus" xlink:href="#zoomPlus" x="17" y="9" onmousedown="handleZoom(evt,'in')"/>
  <use id="zoomminus" xlink:href="#zoomMin" x="42" y="9" onmousedown="handleZoom(evt,'out')"/>
  <use id="reset" xlink:href="#resetDef" x="30" y="36" onmousedown="handleReset()"/>
   <use id="arrowup" xlink:href="#arrowUp" x="0" y="0" onmousedown="handlePan(0,-1)"/>
  <use id="arrowright" xlink:href="#arrowRight" x="0" y="0" onmousedown="handlePan(1,0)"/>
  <use id="arrowdown" xlink:href="#arrowDown" x="0" y="0" onmousedown="handlePan(0,1)"/>
  <use id="arrowleft" xlink:href="#arrowLeft" x="0" y="0" onmousedown="handlePan(-1,0)"/>
</g>
<svg viewBox="0 0 15 15" width="100%" height="30px" preserveAspectRatio="xMaxYMin meet">
 <g id="arrow_out" transform="scale(0.3 0.3)">
  <a xlink:href="class_deluxe_1_1_deluxe_brand_center_1_1_a_m_m_1_1_a_p_i_1_1_services_1_1_contact_manager_service_a891d2dc0f2891c477b6eeeebfdef3f9c_icgraph_org.svg" target="_base">
   <rect id="button" ry="5" rx="5" y="6" x="6" height="38" width="38"
        fill="#f2f5e9" fill-opacity="0.5" stroke="#606060" stroke-width="1.0"/>
   <path id="arrow"
     d="M 11.500037,31.436501 C 11.940474,20.09759 22.043105,11.32322 32.158766,21.979434 L 37.068811,17.246167 C 37.068811,17.246167 37.088388,32 37.088388,32 L 22.160133,31.978069 C 22.160133,31.978069 26.997745,27.140456 26.997745,27.140456 C 18.528582,18.264221 13.291696,25.230495 11.500037,31.436501 z"
     style="fill:#404040;"/>
  </a>
 </g>
</svg>

<style type='text/css'>
<![CDATA[
[data-mouse-over-selected='false'] { opacity: 0.7; }
[data-mouse-over-selected='true']  { opacity: 1.0; }
]]>
</style>
<script type="application/ecmascript"><![CDATA[
document.addEventListener('DOMContentLoaded', (event) => {
  highlightEdges();
  highlightAdjacentNodes();
});
]]></script>
</svg>
