<?xml version="1.0" encoding="UTF-8" standalone="no"?>
<!DOCTYPE svg PUBLIC "-//W3C//DTD SVG 1.1//EN"
 "http://www.w3.org/Graphics/SVG/1.1/DTD/svg11.dtd">
<!-- Generated by graphviz version 12.1.1 (20240910.0053)
 -->
<!-- Title: Deluxe.DeluxeBrandCenter.AMM.API.Services.ContactManagerService.GenerateGroupCreationOptions Pages: 1 -->
<svg width="1272pt" height="152pt"
 viewBox="0.00 0.00 1271.75 152.00" xmlns="http://www.w3.org/2000/svg" xmlns:xlink="http://www.w3.org/1999/xlink">
<g id="graph0" class="graph" transform="scale(1 1) rotate(0) translate(4 148)">
<title>Deluxe.DeluxeBrandCenter.AMM.API.Services.ContactManagerService.GenerateGroupCreationOptions</title>
<!-- Node1 -->
<g id="Node000001" class="node">
<title>Node1</title>
<g id="a_Node000001"><a xlink:title=" ">
<polygon fill="#999999" stroke="#666666" points="188.5,-94 0,-94 0,-50 188.5,-50 188.5,-94"/>
<text text-anchor="start" x="8" y="-80.5" font-family="Helvetica,sans-Serif" font-size="10.00">Deluxe.DeluxeBrandCenter.</text>
<text text-anchor="start" x="8" y="-68.5" font-family="Helvetica,sans-Serif" font-size="10.00">AMM.API.Services.ContactManager</text>
<text text-anchor="middle" x="94.25" y="-56.5" font-family="Helvetica,sans-Serif" font-size="10.00">Service.GenerateGroupCreationOptions</text>
</a>
</g>
</g>
<!-- Node2 -->
<g id="Node000002" class="node">
<title>Node2</title>
<g id="a_Node000002"><a xlink:href="../../d4/d06/class_deluxe_1_1_deluxe_brand_center_1_1_a_m_m_1_1_a_p_i_1_1_services_1_1_contact_manager_service.html#ab1141e6abe5397940a9170ec65047b69" target="_top" xlink:title=" ">
<polygon fill="white" stroke="#666666" points="399.5,-144 224.5,-144 224.5,-100 399.5,-100 399.5,-144"/>
<text text-anchor="start" x="232.5" y="-130.5" font-family="Helvetica,sans-Serif" font-size="10.00">Deluxe.DeluxeBrandCenter.</text>
<text text-anchor="start" x="232.5" y="-118.5" font-family="Helvetica,sans-Serif" font-size="10.00">AMM.API.Services.ContactManager</text>
<text text-anchor="middle" x="312" y="-106.5" font-family="Helvetica,sans-Serif" font-size="10.00">Service.GetContactsCSVTable</text>
</a>
</g>
</g>
<!-- Node1&#45;&gt;Node2 -->
<g id="edge1_Node000001_Node000002" class="edge">
<title>Node1&#45;&gt;Node2</title>
<g id="a_edge1_Node000001_Node000002"><a xlink:title=" ">
<path fill="none" stroke="#63b8ff" d="M188.94,-93.71C196.99,-95.58 205.15,-97.47 213.24,-99.34"/>
<polygon fill="#63b8ff" stroke="#63b8ff" points="212.19,-102.69 222.72,-101.54 213.77,-95.87 212.19,-102.69"/>
</a>
</g>
</g>
<!-- Node6 -->
<g id="Node000006" class="node">
<title>Node6</title>
<g id="a_Node000006"><a xlink:href="../../dd/d7d/interface_deluxe_1_1_deluxe_brand_center_1_1_a_m_m_1_1_domain_1_1_services_1_1_i_session_service.html#acfcf18f3c8f0b4e9c334223ec33b588f" target="_top" xlink:title=" ">
<polygon fill="white" stroke="#666666" points="1263.75,-119 1069.25,-119 1069.25,-75 1263.75,-75 1263.75,-119"/>
<text text-anchor="start" x="1077.25" y="-105.5" font-family="Helvetica,sans-Serif" font-size="10.00">Deluxe.DeluxeBrandCenter.</text>
<text text-anchor="start" x="1077.25" y="-93.5" font-family="Helvetica,sans-Serif" font-size="10.00">AMM.Domain.Services.ISessionService.</text>
<text text-anchor="middle" x="1166.5" y="-81.5" font-family="Helvetica,sans-Serif" font-size="10.00">SessionGetUser</text>
</a>
</g>
</g>
<!-- Node1&#45;&gt;Node6 -->
<g id="edge7_Node000001_Node000006" class="edge">
<title>Node1&#45;&gt;Node6</title>
<g id="a_edge7_Node000001_Node000006"><a xlink:title=" ">
<path fill="none" stroke="#63b8ff" d="M188.91,-72C275.37,-72 407.35,-72 522,-72 522,-72 522,-72 735,-72 845.09,-72 970.76,-80.25 1057.78,-87.27"/>
<polygon fill="#63b8ff" stroke="#63b8ff" points="1057.23,-90.74 1067.48,-88.06 1057.8,-83.76 1057.23,-90.74"/>
</a>
</g>
</g>
<!-- Node7 -->
<g id="Node000007" class="node">
<title>Node7</title>
<g id="a_Node000007"><a xlink:href="../../d8/de3/interface_deluxe_1_1_deluxe_brand_center_1_1_a_m_m_1_1_a_p_i_1_1_services_1_1_i_state_service.html#a31b4266066d04f875f065548674d4969" target="_top" xlink:title=" ">
<polygon fill="white" stroke="#666666" points="394.62,-44 229.38,-44 229.38,0 394.62,0 394.62,-44"/>
<text text-anchor="start" x="237.38" y="-30.5" font-family="Helvetica,sans-Serif" font-size="10.00">Deluxe.DeluxeBrandCenter.</text>
<text text-anchor="start" x="237.38" y="-18.5" font-family="Helvetica,sans-Serif" font-size="10.00">AMM.API.Services.IStateService.</text>
<text text-anchor="middle" x="312" y="-6.5" font-family="Helvetica,sans-Serif" font-size="10.00">GetStates</text>
</a>
</g>
</g>
<!-- Node1&#45;&gt;Node7 -->
<g id="edge6_Node000001_Node000007" class="edge">
<title>Node1&#45;&gt;Node7</title>
<g id="a_edge6_Node000001_Node000007"><a xlink:title=" ">
<path fill="none" stroke="#63b8ff" d="M188.94,-50.29C198.5,-48.07 208.22,-45.82 217.78,-43.6"/>
<polygon fill="#63b8ff" stroke="#63b8ff" points="218.48,-47.03 227.43,-41.37 216.9,-40.22 218.48,-47.03"/>
</a>
</g>
</g>
<!-- Node3 -->
<g id="Node000003" class="node">
<title>Node3</title>
<g id="a_Node000003"><a xlink:href="../../d4/d06/class_deluxe_1_1_deluxe_brand_center_1_1_a_m_m_1_1_a_p_i_1_1_services_1_1_contact_manager_service.html#af3ee320e832b5241f698ab94cadab7cb" target="_top" xlink:title="Updates filter to exclude Unsubscribed and Ppersona Contacts.">
<polygon fill="white" stroke="#666666" points="610.5,-144 435.5,-144 435.5,-100 610.5,-100 610.5,-144"/>
<text text-anchor="start" x="443.5" y="-130.5" font-family="Helvetica,sans-Serif" font-size="10.00">Deluxe.DeluxeBrandCenter.</text>
<text text-anchor="start" x="443.5" y="-118.5" font-family="Helvetica,sans-Serif" font-size="10.00">AMM.API.Services.ContactManager</text>
<text text-anchor="middle" x="523" y="-106.5" font-family="Helvetica,sans-Serif" font-size="10.00">Service.FilterOutContacts</text>
</a>
</g>
</g>
<!-- Node2&#45;&gt;Node3 -->
<g id="edge2_Node000002_Node000003" class="edge">
<title>Node2&#45;&gt;Node3</title>
<g id="a_edge2_Node000002_Node000003"><a xlink:title=" ">
<path fill="none" stroke="#63b8ff" d="M399.82,-122C407.75,-122 415.81,-122 423.83,-122"/>
<polygon fill="#63b8ff" stroke="#63b8ff" points="423.6,-125.5 433.6,-122 423.6,-118.5 423.6,-125.5"/>
</a>
</g>
</g>
<!-- Node4 -->
<g id="Node000004" class="node">
<title>Node4</title>
<g id="a_Node000004"><a xlink:href="../../d4/d06/class_deluxe_1_1_deluxe_brand_center_1_1_a_m_m_1_1_a_p_i_1_1_services_1_1_contact_manager_service.html#af5c0313fcaae40d09f41022ef3f1d08d" target="_top" xlink:title=" ">
<polygon fill="white" stroke="#666666" points="821.5,-144 646.5,-144 646.5,-100 821.5,-100 821.5,-144"/>
<text text-anchor="start" x="654.5" y="-130.5" font-family="Helvetica,sans-Serif" font-size="10.00">Deluxe.DeluxeBrandCenter.</text>
<text text-anchor="start" x="654.5" y="-118.5" font-family="Helvetica,sans-Serif" font-size="10.00">AMM.API.Services.ContactManager</text>
<text text-anchor="middle" x="734" y="-106.5" font-family="Helvetica,sans-Serif" font-size="10.00">Service.GetContactsForFilteringOut</text>
</a>
</g>
</g>
<!-- Node3&#45;&gt;Node4 -->
<g id="edge3_Node000003_Node000004" class="edge">
<title>Node3&#45;&gt;Node4</title>
<g id="a_edge3_Node000003_Node000004"><a xlink:title=" ">
<path fill="none" stroke="#63b8ff" d="M610.82,-122C618.75,-122 626.81,-122 634.83,-122"/>
<polygon fill="#63b8ff" stroke="#63b8ff" points="634.6,-125.5 644.6,-122 634.6,-118.5 634.6,-125.5"/>
</a>
</g>
</g>
<!-- Node5 -->
<g id="Node000005" class="node">
<title>Node5</title>
<g id="a_Node000005"><a xlink:href="../../d4/d06/class_deluxe_1_1_deluxe_brand_center_1_1_a_m_m_1_1_a_p_i_1_1_services_1_1_contact_manager_service.html#a0d4bb3161a8ff399d0720dbb775430c3" target="_top" xlink:title=" ">
<polygon fill="white" stroke="#666666" points="1033.25,-144 857.5,-144 857.5,-100 1033.25,-100 1033.25,-144"/>
<text text-anchor="start" x="865.5" y="-130.5" font-family="Helvetica,sans-Serif" font-size="10.00">Deluxe.DeluxeBrandCenter.</text>
<text text-anchor="start" x="865.5" y="-118.5" font-family="Helvetica,sans-Serif" font-size="10.00">AMM.API.Services.ContactManager</text>
<text text-anchor="middle" x="945.38" y="-106.5" font-family="Helvetica,sans-Serif" font-size="10.00">Service.GetUnsubscribedContactsId</text>
</a>
</g>
</g>
<!-- Node4&#45;&gt;Node5 -->
<g id="edge4_Node000004_Node000005" class="edge">
<title>Node4&#45;&gt;Node5</title>
<g id="a_edge4_Node000004_Node000005"><a xlink:title=" ">
<path fill="none" stroke="#63b8ff" d="M821.97,-122C829.92,-122 838,-122 846.03,-122"/>
<polygon fill="#63b8ff" stroke="#63b8ff" points="845.82,-125.5 855.82,-122 845.82,-118.5 845.82,-125.5"/>
</a>
</g>
</g>
<!-- Node5&#45;&gt;Node6 -->
<g id="edge5_Node000005_Node000006" class="edge">
<title>Node5&#45;&gt;Node6</title>
<g id="a_edge5_Node000005_Node000006"><a xlink:title=" ">
<path fill="none" stroke="#63b8ff" d="M1033.61,-112.05C1041.48,-111.15 1049.51,-110.23 1057.52,-109.32"/>
<polygon fill="#63b8ff" stroke="#63b8ff" points="1057.79,-112.81 1067.33,-108.2 1057,-105.86 1057.79,-112.81"/>
</a>
</g>
</g>
</g>
</svg>
