<?xml version="1.0" encoding="UTF-8" standalone="no"?>
<!DOCTYPE svg PUBLIC "-//W3C//DTD SVG 1.1//EN"
 "http://www.w3.org/Graphics/SVG/1.1/DTD/svg11.dtd">
<!-- Generated by graphviz version 12.1.1 (20240910.0053)
 -->
<!-- Title: Deluxe.DeluxeBrandCenter.AMM.API.Services.ContactManagerService.FormatCSV Pages: 1 -->
<!--zoomable 548 -->

<svg id="main" version="1.1" xmlns="http://www.w3.org/2000/svg" xmlns:xlink="http://www.w3.org/1999/xlink" xml:space="preserve" onload="init(evt)">

<style type="text/css"><![CDATA[
.node, .edge {opacity: 0.7;}
.node.selected, .edge.selected {opacity: 1;}
.edge:hover path { stroke: red; }
.edge:hover polygon { stroke: red; fill: red; }
]]></style>

<defs>
  <circle id="rim" cx="0" cy="0" r="7"/>
  <circle id="rim2" cx="0" cy="0" r="3.5"/>
  <g id="zoomPlus">
    <use xlink:href="#rim" fill="#404040"><set attributeName="fill" to="#808080" begin="zoomplus.mouseover" end="zoomplus.mouseout"/></use>
    <path d="M-4,0h8M0,-4v8" fill="none" stroke="white" stroke-width="1.5" pointer-events="none"/>
  </g>
  <g id="zoomMin">
    <use xlink:href="#rim" fill="#404040"><set attributeName="fill" to="#808080" begin="zoomminus.mouseover" end="zoomminus.mouseout"/></use>
    <path d="M-4,0h8" fill="none" stroke="white" stroke-width="1.5" pointer-events="none"/>
  </g>
  <g id="arrowUp" transform="translate(30 24)">
    <use xlink:href="#rim"/>
    <path pointer-events="none" fill="none" stroke="white" stroke-width="1.5" d="M0,-3.0v7 M-2.5,-0.5L0,-3.0L2.5,-0.5"/>
  </g>
  <g id="arrowRight" transform="rotate(90) translate(36 -43)">
    <use xlink:href="#rim"/>
    <path pointer-events="none" fill="none" stroke="white" stroke-width="1.5" d="M0,-3.0v7 M-2.5,-0.5L0,-3.0L2.5,-0.5"/>
  </g>
  <g id="arrowDown" transform="rotate(180) translate(-30 -48)">
    <use xlink:href="#rim"/>
    <path pointer-events="none" fill="none" stroke="white" stroke-width="1.5" d="M0,-3.0v7 M-2.5,-0.5L0,-3.0L2.5,-0.5"/>
  </g>
  <g id="arrowLeft" transform="rotate(270) translate(-36 17)">
    <use xlink:href="#rim"/>
    <path pointer-events="none" fill="none" stroke="white" stroke-width="1.5" d="M0,-3.0v7 M-2.5,-0.5L0,-3.0L2.5,-0.5"/>
  </g>
  <g id="resetDef">
    <use xlink:href="#rim2" fill="#404040"><set attributeName="fill" to="#808080" begin="reset.mouseover" end="reset.mouseout"/></use>
  </g>
</defs>
<script type="application/ecmascript">
var viewWidth = 865;
var viewHeight = 548;
var sectionId = 'dynsection-27';
</script>
<script type="application/ecmascript" xlink:href="../../svg.min.js"/>
<svg id="graph" class="graph">
<g id="viewport">
<title>Deluxe.DeluxeBrandCenter.AMM.API.Services.ContactManagerService.FormatCSV</title>
<!-- Node1 -->
<g id="Node000001" class="node">
<title>Node1</title>
<g id="a_Node000001"><a xlink:title=" ">
<polygon fill="#999999" stroke="#666666" points="175,-292 0,-292 0,-248 175,-248 175,-292"/>
<text text-anchor="start" x="8" y="-278.5" font-family="Helvetica,sans-Serif" font-size="10.00">Deluxe.DeluxeBrandCenter.</text>
<text text-anchor="start" x="8" y="-266.5" font-family="Helvetica,sans-Serif" font-size="10.00">AMM.API.Services.ContactManager</text>
<text text-anchor="middle" x="87.5" y="-254.5" font-family="Helvetica,sans-Serif" font-size="10.00">Service.FormatCSV</text>
</a>
</g>
</g>
<!-- Node2 -->
<g id="Node000002" class="node">
<title>Node2</title>
<g id="a_Node000002"><a xlink:href="../../dd/d19/class_deluxe_1_1_deluxe_brand_center_1_1_a_m_m_1_1_domain_1_1_utility_1_1_contact_c_s_v_table.html#a6baa37d8eb840bf59cc10a8b36fd0179" target="_top" xlink:title=" ">
<polygon fill="white" stroke="#666666" points="402.5,-478 214,-478 214,-434 402.5,-434 402.5,-478"/>
<text text-anchor="start" x="222" y="-464.5" font-family="Helvetica,sans-Serif" font-size="10.00">Deluxe.DeluxeBrandCenter.</text>
<text text-anchor="start" x="222" y="-452.5" font-family="Helvetica,sans-Serif" font-size="10.00">AMM.Domain.Utility.ContactCSVTable.</text>
<text text-anchor="middle" x="308.25" y="-440.5" font-family="Helvetica,sans-Serif" font-size="10.00">CheckImportType</text>
</a>
</g>
</g>
<!-- Node1&#45;&gt;Node2 -->
<g id="edge1_Node000001_Node000002" class="edge">
<title>Node1&#45;&gt;Node2</title>
<g id="a_edge1_Node000001_Node000002"><a xlink:title=" ">
<path fill="none" stroke="#63b8ff" d="M100.44,-292.44C119.44,-326.08 159.72,-389.4 211,-425 212.59,-426.1 214.21,-427.16 215.88,-428.19"/>
<polygon fill="#63b8ff" stroke="#63b8ff" points="213.98,-431.14 224.41,-432.95 217.38,-425.03 213.98,-431.14"/>
</a>
</g>
</g>
<!-- Node4 -->
<g id="Node000004" class="node">
<title>Node4</title>
<g id="a_Node000004"><a xlink:href="../../dd/d19/class_deluxe_1_1_deluxe_brand_center_1_1_a_m_m_1_1_domain_1_1_utility_1_1_contact_c_s_v_table.html#ab9cb98c92d3f18d847b2c798b0758fd8" target="_top" xlink:title=" ">
<polygon fill="white" stroke="#666666" points="402.5,-540 214,-540 214,-496 402.5,-496 402.5,-540"/>
<text text-anchor="start" x="222" y="-526.5" font-family="Helvetica,sans-Serif" font-size="10.00">Deluxe.DeluxeBrandCenter.</text>
<text text-anchor="start" x="222" y="-514.5" font-family="Helvetica,sans-Serif" font-size="10.00">AMM.Domain.Utility.ContactCSVTable.</text>
<text text-anchor="middle" x="308.25" y="-502.5" font-family="Helvetica,sans-Serif" font-size="10.00">FormatDateFields</text>
</a>
</g>
</g>
<!-- Node1&#45;&gt;Node4 -->
<g id="edge3_Node000001_Node000004" class="edge">
<title>Node1&#45;&gt;Node4</title>
<g id="a_edge3_Node000001_Node000004"><a xlink:title=" ">
<path fill="none" stroke="#63b8ff" d="M95.02,-292.35C108.96,-336.18 145.8,-433.81 211,-487 212.11,-487.91 213.25,-488.78 214.41,-489.64"/>
<polygon fill="#63b8ff" stroke="#63b8ff" points="212.17,-492.36 222.46,-494.87 215.98,-486.49 212.17,-492.36"/>
</a>
</g>
</g>
<!-- Node8 -->
<g id="Node000008" class="node">
<title>Node8</title>
<g id="a_Node000008"><a xlink:href="../../d8/de3/interface_deluxe_1_1_deluxe_brand_center_1_1_a_m_m_1_1_a_p_i_1_1_services_1_1_i_state_service.html#a31b4266066d04f875f065548674d4969" target="_top" xlink:title=" ">
<polygon fill="white" stroke="#666666" points="390.88,-168 225.62,-168 225.62,-124 390.88,-124 390.88,-168"/>
<text text-anchor="start" x="233.62" y="-154.5" font-family="Helvetica,sans-Serif" font-size="10.00">Deluxe.DeluxeBrandCenter.</text>
<text text-anchor="start" x="233.62" y="-142.5" font-family="Helvetica,sans-Serif" font-size="10.00">AMM.API.Services.IStateService.</text>
<text text-anchor="middle" x="308.25" y="-130.5" font-family="Helvetica,sans-Serif" font-size="10.00">GetStates</text>
</a>
</g>
</g>
<!-- Node1&#45;&gt;Node8 -->
<g id="edge8_Node000001_Node000008" class="edge">
<title>Node1&#45;&gt;Node8</title>
<g id="a_edge8_Node000001_Node000008"><a xlink:title=" ">
<path fill="none" stroke="#63b8ff" d="M112.61,-247.73C136.17,-226.96 173.82,-196.38 211,-177 213.68,-175.6 216.44,-174.25 219.24,-172.95"/>
<polygon fill="#63b8ff" stroke="#63b8ff" points="220.44,-176.25 228.21,-169.05 217.65,-169.83 220.44,-176.25"/>
</a>
</g>
</g>
<!-- Node9 -->
<g id="Node000009" class="node">
<title>Node9</title>
<g id="a_Node000009"><a xlink:href="../../dd/d19/class_deluxe_1_1_deluxe_brand_center_1_1_a_m_m_1_1_domain_1_1_utility_1_1_contact_c_s_v_table.html#a4e99831e24530e0868b7ea5ea6fcadbd" target="_top" xlink:title=" ">
<polygon fill="white" stroke="#666666" points="402.5,-106 214,-106 214,-62 402.5,-62 402.5,-106"/>
<text text-anchor="start" x="222" y="-92.5" font-family="Helvetica,sans-Serif" font-size="10.00">Deluxe.DeluxeBrandCenter.</text>
<text text-anchor="start" x="222" y="-80.5" font-family="Helvetica,sans-Serif" font-size="10.00">AMM.Domain.Utility.ContactCSVTable.</text>
<text text-anchor="middle" x="308.25" y="-68.5" font-family="Helvetica,sans-Serif" font-size="10.00">ReplaceHeader</text>
</a>
</g>
</g>
<!-- Node1&#45;&gt;Node9 -->
<g id="edge9_Node000001_Node000009" class="edge">
<title>Node1&#45;&gt;Node9</title>
<g id="a_edge9_Node000001_Node000009"><a xlink:title=" ">
<path fill="none" stroke="#63b8ff" d="M100.44,-247.56C119.44,-213.92 159.72,-150.6 211,-115 212.59,-113.9 214.21,-112.84 215.88,-111.81"/>
<polygon fill="#63b8ff" stroke="#63b8ff" points="217.38,-114.97 224.41,-107.05 213.98,-108.86 217.38,-114.97"/>
</a>
</g>
</g>
<!-- Node12 -->
<g id="Node000012" class="node">
<title>Node12</title>
<g id="a_Node000012"><a xlink:href="../../dd/d7d/interface_deluxe_1_1_deluxe_brand_center_1_1_a_m_m_1_1_domain_1_1_services_1_1_i_session_service.html#a0ec7d7d28fa63000ba8d1bea1960d1e0" target="_top" xlink:title=" ">
<polygon fill="white" stroke="#666666" points="405.5,-44 211,-44 211,0 405.5,0 405.5,-44"/>
<text text-anchor="start" x="219" y="-30.5" font-family="Helvetica,sans-Serif" font-size="10.00">Deluxe.DeluxeBrandCenter.</text>
<text text-anchor="start" x="219" y="-18.5" font-family="Helvetica,sans-Serif" font-size="10.00">AMM.Domain.Services.ISessionService.</text>
<text text-anchor="middle" x="308.25" y="-6.5" font-family="Helvetica,sans-Serif" font-size="10.00">SessionGetClientName</text>
</a>
</g>
</g>
<!-- Node1&#45;&gt;Node12 -->
<g id="edge12_Node000001_Node000012" class="edge">
<title>Node1&#45;&gt;Node12</title>
<g id="a_edge12_Node000001_Node000012"><a xlink:title=" ">
<path fill="none" stroke="#63b8ff" d="M95.02,-247.65C108.96,-203.82 145.8,-106.19 211,-53 212.11,-52.09 213.25,-51.22 214.41,-50.36"/>
<polygon fill="#63b8ff" stroke="#63b8ff" points="215.98,-53.51 222.46,-45.13 212.17,-47.64 215.98,-53.51"/>
</a>
</g>
</g>
<!-- Node13 -->
<g id="Node000013" class="node">
<title>Node13</title>
<g id="a_Node000013"><a xlink:href="../../dd/d19/class_deluxe_1_1_deluxe_brand_center_1_1_a_m_m_1_1_domain_1_1_utility_1_1_contact_c_s_v_table.html#a8d2643b6e107ec22efd88700ee9bb99a" target="_top" xlink:title=" ">
<polygon fill="white" stroke="#666666" points="402.5,-230 214,-230 214,-186 402.5,-186 402.5,-230"/>
<text text-anchor="start" x="222" y="-216.5" font-family="Helvetica,sans-Serif" font-size="10.00">Deluxe.DeluxeBrandCenter.</text>
<text text-anchor="start" x="222" y="-204.5" font-family="Helvetica,sans-Serif" font-size="10.00">AMM.Domain.Utility.ContactCSVTable.</text>
<text text-anchor="middle" x="308.25" y="-192.5" font-family="Helvetica,sans-Serif" font-size="10.00">SetAccountId</text>
</a>
</g>
</g>
<!-- Node1&#45;&gt;Node13 -->
<g id="edge13_Node000001_Node000013" class="edge">
<title>Node1&#45;&gt;Node13</title>
<g id="a_edge13_Node000001_Node000013"><a xlink:title=" ">
<path fill="none" stroke="#63b8ff" d="M167.78,-247.53C183.83,-242.98 200.82,-238.17 217.2,-233.52"/>
<polygon fill="#63b8ff" stroke="#63b8ff" points="217.75,-237.01 226.41,-230.91 215.84,-230.27 217.75,-237.01"/>
</a>
</g>
</g>
<!-- Node16 -->
<g id="Node000016" class="node">
<title>Node16</title>
<g id="a_Node000016"><a xlink:href="../../dd/d19/class_deluxe_1_1_deluxe_brand_center_1_1_a_m_m_1_1_domain_1_1_utility_1_1_contact_c_s_v_table.html#a3eefc436a692451b968244c90b795dff" target="_top" xlink:title=" ">
<polygon fill="white" stroke="#666666" points="402.5,-292 214,-292 214,-248 402.5,-248 402.5,-292"/>
<text text-anchor="start" x="222" y="-278.5" font-family="Helvetica,sans-Serif" font-size="10.00">Deluxe.DeluxeBrandCenter.</text>
<text text-anchor="start" x="222" y="-266.5" font-family="Helvetica,sans-Serif" font-size="10.00">AMM.Domain.Utility.ContactCSVTable.</text>
<text text-anchor="middle" x="308.25" y="-254.5" font-family="Helvetica,sans-Serif" font-size="10.00">SetDateField</text>
</a>
</g>
</g>
<!-- Node1&#45;&gt;Node16 -->
<g id="edge18_Node000001_Node000016" class="edge">
<title>Node1&#45;&gt;Node16</title>
<g id="a_edge18_Node000001_Node000016"><a xlink:title=" ">
<path fill="none" stroke="#63b8ff" d="M175.27,-270C184.16,-270 193.26,-270 202.32,-270"/>
<polygon fill="#63b8ff" stroke="#63b8ff" points="202.24,-273.5 212.24,-270 202.24,-266.5 202.24,-273.5"/>
</a>
</g>
</g>
<!-- Node17 -->
<g id="Node000017" class="node">
<title>Node17</title>
<g id="a_Node000017"><a xlink:href="../../dd/d19/class_deluxe_1_1_deluxe_brand_center_1_1_a_m_m_1_1_domain_1_1_utility_1_1_contact_c_s_v_table.html#a390244b1cedef58dbef003c3d144e28b" target="_top" xlink:title="Add ContsctSource column if it does&#39;n exist and fill it with selected source.">
<polygon fill="white" stroke="#666666" points="402.5,-354 214,-354 214,-310 402.5,-310 402.5,-354"/>
<text text-anchor="start" x="222" y="-340.5" font-family="Helvetica,sans-Serif" font-size="10.00">Deluxe.DeluxeBrandCenter.</text>
<text text-anchor="start" x="222" y="-328.5" font-family="Helvetica,sans-Serif" font-size="10.00">AMM.Domain.Utility.ContactCSVTable.</text>
<text text-anchor="middle" x="308.25" y="-316.5" font-family="Helvetica,sans-Serif" font-size="10.00">SetSource</text>
</a>
</g>
</g>
<!-- Node1&#45;&gt;Node17 -->
<g id="edge22_Node000001_Node000017" class="edge">
<title>Node1&#45;&gt;Node17</title>
<g id="a_edge22_Node000001_Node000017"><a xlink:title=" ">
<path fill="none" stroke="#63b8ff" d="M167.78,-292.47C183.83,-297.02 200.82,-301.83 217.2,-306.48"/>
<polygon fill="#63b8ff" stroke="#63b8ff" points="215.84,-309.73 226.41,-309.09 217.75,-302.99 215.84,-309.73"/>
</a>
</g>
</g>
<!-- Node18 -->
<g id="Node000018" class="node">
<title>Node18</title>
<g id="a_Node000018"><a xlink:href="../../dd/d19/class_deluxe_1_1_deluxe_brand_center_1_1_a_m_m_1_1_domain_1_1_utility_1_1_contact_c_s_v_table.html#a9da70e2320c8073f64a8173cfc4cf1db" target="_top" xlink:title=" ">
<polygon fill="white" stroke="#666666" points="402.5,-416 214,-416 214,-372 402.5,-372 402.5,-416"/>
<text text-anchor="start" x="222" y="-402.5" font-family="Helvetica,sans-Serif" font-size="10.00">Deluxe.DeluxeBrandCenter.</text>
<text text-anchor="start" x="222" y="-390.5" font-family="Helvetica,sans-Serif" font-size="10.00">AMM.Domain.Utility.ContactCSVTable.</text>
<text text-anchor="middle" x="308.25" y="-378.5" font-family="Helvetica,sans-Serif" font-size="10.00">SetStateField</text>
</a>
</g>
</g>
<!-- Node1&#45;&gt;Node18 -->
<g id="edge26_Node000001_Node000018" class="edge">
<title>Node1&#45;&gt;Node18</title>
<g id="a_edge26_Node000001_Node000018"><a xlink:title=" ">
<path fill="none" stroke="#63b8ff" d="M112.61,-292.27C136.17,-313.04 173.82,-343.62 211,-363 213.68,-364.4 216.44,-365.75 219.24,-367.05"/>
<polygon fill="#63b8ff" stroke="#63b8ff" points="217.65,-370.17 228.21,-370.95 220.44,-363.75 217.65,-370.17"/>
</a>
</g>
</g>
<!-- Node3 -->
<g id="Node000003" class="node">
<title>Node3</title>
<g id="a_Node000003"><a xlink:href="../../d7/d96/class_deluxe_1_1_deluxe_brand_center_1_1_a_m_m_1_1_domain_1_1_table.html#a16e661cd62aceaa49f099a1454be6a2d" target="_top" xlink:title=" ">
<polygon fill="white" stroke="#666666" points="606,-416 467.75,-416 467.75,-372 606,-372 606,-416"/>
<text text-anchor="start" x="475.75" y="-402.5" font-family="Helvetica,sans-Serif" font-size="10.00">Deluxe.DeluxeBrandCenter.</text>
<text text-anchor="start" x="475.75" y="-390.5" font-family="Helvetica,sans-Serif" font-size="10.00">AMM.Domain.Table&lt; string</text>
<text text-anchor="middle" x="536.88" y="-378.5" font-family="Helvetica,sans-Serif" font-size="10.00"> &gt;::GetColumnNo</text>
</a>
</g>
</g>
<!-- Node2&#45;&gt;Node3 -->
<g id="edge2_Node000002_Node000003" class="edge">
<title>Node2&#45;&gt;Node3</title>
<g id="a_edge2_Node000002_Node000003"><a xlink:title=" ">
<path fill="none" stroke="#63b8ff" d="M391.39,-433.53C412.64,-427.72 435.47,-421.47 456.58,-415.69"/>
<polygon fill="#63b8ff" stroke="#63b8ff" points="457.25,-419.14 465.98,-413.12 455.41,-412.39 457.25,-419.14"/>
</a>
</g>
</g>
<!-- Node4&#45;&gt;Node3 -->
<g id="edge4_Node000004_Node000003" class="edge">
<title>Node4&#45;&gt;Node3</title>
<g id="a_edge4_Node000004_Node000003"><a xlink:title=" ">
<path fill="none" stroke="#63b8ff" d="M386.29,-495.57C392.89,-492.93 399.38,-490.07 405.5,-487 440.24,-469.55 475.92,-443.41 501.16,-423.29"/>
<polygon fill="#63b8ff" stroke="#63b8ff" points="503.21,-426.13 508.78,-417.13 498.81,-420.69 503.21,-426.13"/>
</a>
</g>
</g>
<!-- Node5 -->
<g id="Node000005" class="node">
<title>Node5</title>
<g id="a_Node000005"><a xlink:href="../../df/df6/class_deluxe_1_1_deluxe_brand_center_1_1_a_m_m_1_1_domain_1_1_ext_service_model_1_1_contact_v_m.html#af93941da74872d2c8b0ecb643d3dd9e3" target="_top" xlink:title=" ">
<polygon fill="white" stroke="#666666" points="632.25,-540 441.5,-540 441.5,-496 632.25,-496 632.25,-540"/>
<text text-anchor="start" x="449.5" y="-526.5" font-family="Helvetica,sans-Serif" font-size="10.00">Deluxe.DeluxeBrandCenter.</text>
<text text-anchor="start" x="449.5" y="-514.5" font-family="Helvetica,sans-Serif" font-size="10.00">AMM.Domain.ExtServiceModel.Contact</text>
<text text-anchor="middle" x="536.88" y="-502.5" font-family="Helvetica,sans-Serif" font-size="10.00">VM.GetDateFields</text>
</a>
</g>
</g>
<!-- Node4&#45;&gt;Node5 -->
<g id="edge5_Node000004_Node000005" class="edge">
<title>Node4&#45;&gt;Node5</title>
<g id="a_edge5_Node000004_Node000005"><a xlink:title=" ">
<path fill="none" stroke="#63b8ff" d="M402.74,-518C411.65,-518 420.74,-518 429.76,-518"/>
<polygon fill="#63b8ff" stroke="#63b8ff" points="429.63,-521.5 439.63,-518 429.63,-514.5 429.63,-521.5"/>
</a>
</g>
</g>
<!-- Node6 -->
<g id="Node000006" class="node">
<title>Node6</title>
<g id="a_Node000006"><a xlink:href="../../dd/d19/class_deluxe_1_1_deluxe_brand_center_1_1_a_m_m_1_1_domain_1_1_utility_1_1_contact_c_s_v_table.html#abe42ffe53fb04e44d563e21a26bcf92a" target="_top" xlink:title=" ">
<polygon fill="white" stroke="#666666" points="631.12,-354 442.62,-354 442.62,-310 631.12,-310 631.12,-354"/>
<text text-anchor="start" x="450.62" y="-340.5" font-family="Helvetica,sans-Serif" font-size="10.00">Deluxe.DeluxeBrandCenter.</text>
<text text-anchor="start" x="450.62" y="-328.5" font-family="Helvetica,sans-Serif" font-size="10.00">AMM.Domain.Utility.ContactCSVTable.</text>
<text text-anchor="middle" x="536.88" y="-316.5" font-family="Helvetica,sans-Serif" font-size="10.00">SetValue</text>
</a>
</g>
</g>
<!-- Node4&#45;&gt;Node6 -->
<g id="edge6_Node000004_Node000006" class="edge">
<title>Node4&#45;&gt;Node6</title>
<g id="a_edge6_Node000004_Node000006"><a xlink:title=" ">
<path fill="none" stroke="#63b8ff" d="M395.46,-495.52C399.06,-492.98 402.44,-490.15 405.5,-487 445.49,-445.84 401.63,-404.28 441.5,-363 441.99,-362.5 442.48,-362 442.98,-361.51"/>
<polygon fill="#63b8ff" stroke="#63b8ff" points="445.09,-364.31 450.6,-355.26 440.65,-358.9 445.09,-364.31"/>
</a>
</g>
</g>
<!-- Node7 -->
<g id="Node000007" class="node">
<title>Node7</title>
<g id="a_Node000007"><a xlink:href="../../dd/d19/class_deluxe_1_1_deluxe_brand_center_1_1_a_m_m_1_1_domain_1_1_utility_1_1_contact_c_s_v_table.html#a5ae94898c67c3ea77bb863a210eed88e" target="_top" xlink:title=" ">
<polygon fill="white" stroke="#666666" points="856.75,-354 668.25,-354 668.25,-310 856.75,-310 856.75,-354"/>
<text text-anchor="start" x="676.25" y="-340.5" font-family="Helvetica,sans-Serif" font-size="10.00">Deluxe.DeluxeBrandCenter.</text>
<text text-anchor="start" x="676.25" y="-328.5" font-family="Helvetica,sans-Serif" font-size="10.00">AMM.Domain.Utility.ContactCSVTable.</text>
<text text-anchor="middle" x="762.5" y="-316.5" font-family="Helvetica,sans-Serif" font-size="10.00">IsNullableType</text>
</a>
</g>
</g>
<!-- Node6&#45;&gt;Node7 -->
<g id="edge7_Node000006_Node000007" class="edge">
<title>Node6&#45;&gt;Node7</title>
<g id="a_edge7_Node000006_Node000007"><a xlink:title=" ">
<path fill="none" stroke="#63b8ff" d="M631.42,-332C639.73,-332 648.18,-332 656.57,-332"/>
<polygon fill="#63b8ff" stroke="#63b8ff" points="656.46,-335.5 666.46,-332 656.46,-328.5 656.46,-335.5"/>
</a>
</g>
</g>
<!-- Node10 -->
<g id="Node000010" class="node">
<title>Node10</title>
<g id="a_Node000010"><a xlink:href="../../dd/d19/class_deluxe_1_1_deluxe_brand_center_1_1_a_m_m_1_1_domain_1_1_utility_1_1_contact_c_s_v_table.html#aefc0f66ba15ba01a053845312b0bb44c" target="_top" xlink:title=" ">
<polygon fill="white" stroke="#666666" points="631.12,-106 442.62,-106 442.62,-62 631.12,-62 631.12,-106"/>
<text text-anchor="start" x="450.62" y="-92.5" font-family="Helvetica,sans-Serif" font-size="10.00">Deluxe.DeluxeBrandCenter.</text>
<text text-anchor="start" x="450.62" y="-80.5" font-family="Helvetica,sans-Serif" font-size="10.00">AMM.Domain.Utility.ContactCSVTable.</text>
<text text-anchor="middle" x="536.88" y="-68.5" font-family="Helvetica,sans-Serif" font-size="10.00">DeleteColumnsFromCSV</text>
</a>
</g>
</g>
<!-- Node9&#45;&gt;Node10 -->
<g id="edge10_Node000009_Node000010" class="edge">
<title>Node9&#45;&gt;Node10</title>
<g id="a_edge10_Node000009_Node000010"><a xlink:title=" ">
<path fill="none" stroke="#63b8ff" d="M402.74,-84C412.01,-84 421.47,-84 430.85,-84"/>
<polygon fill="#63b8ff" stroke="#63b8ff" points="430.73,-87.5 440.73,-84 430.73,-80.5 430.73,-87.5"/>
</a>
</g>
</g>
<!-- Node11 -->
<g id="Node000011" class="node">
<title>Node11</title>
<g id="a_Node000011"><a xlink:href="../../d7/d96/class_deluxe_1_1_deluxe_brand_center_1_1_a_m_m_1_1_domain_1_1_table.html#a16ef5704b665df667a264872797972b0" target="_top" xlink:title=" ">
<polygon fill="white" stroke="#666666" points="831.62,-106 693.38,-106 693.38,-62 831.62,-62 831.62,-106"/>
<text text-anchor="start" x="701.38" y="-92.5" font-family="Helvetica,sans-Serif" font-size="10.00">Deluxe.DeluxeBrandCenter.</text>
<text text-anchor="start" x="701.38" y="-80.5" font-family="Helvetica,sans-Serif" font-size="10.00">AMM.Domain.Table&lt; string</text>
<text text-anchor="middle" x="762.5" y="-68.5" font-family="Helvetica,sans-Serif" font-size="10.00"> &gt;::DeleteColumn</text>
</a>
</g>
</g>
<!-- Node10&#45;&gt;Node11 -->
<g id="edge11_Node000010_Node000011" class="edge">
<title>Node10&#45;&gt;Node11</title>
<g id="a_edge11_Node000010_Node000011"><a xlink:title=" ">
<path fill="none" stroke="#63b8ff" d="M631.42,-84C648.24,-84 665.63,-84 682.01,-84"/>
<polygon fill="#63b8ff" stroke="#63b8ff" points="681.65,-87.5 691.65,-84 681.65,-80.5 681.65,-87.5"/>
</a>
</g>
</g>
<!-- Node13&#45;&gt;Node3 -->
<g id="edge15_Node000013_Node000003" class="edge">
<title>Node13&#45;&gt;Node3</title>
<g id="a_edge15_Node000013_Node000003"><a xlink:title=" ">
<path fill="none" stroke="#63b8ff" d="M395.46,-230.48C399.06,-233.02 402.44,-235.85 405.5,-239 445.49,-280.16 401.63,-321.72 441.5,-363 446.11,-367.77 451.45,-371.8 457.22,-375.22"/>
<polygon fill="#63b8ff" stroke="#63b8ff" points="455.43,-378.23 465.92,-379.71 458.64,-372.01 455.43,-378.23"/>
</a>
</g>
</g>
<!-- Node13&#45;&gt;Node6 -->
<g id="edge17_Node000013_Node000006" class="edge">
<title>Node13&#45;&gt;Node6</title>
<g id="a_edge17_Node000013_Node000006"><a xlink:title=" ">
<path fill="none" stroke="#63b8ff" d="M392.72,-230.36C397.23,-232.94 401.54,-235.81 405.5,-239 430.31,-258.99 416.74,-280.94 441.5,-301 442.47,-301.79 443.46,-302.55 444.47,-303.3"/>
<polygon fill="#63b8ff" stroke="#63b8ff" points="442.47,-306.17 452.76,-308.7 446.29,-300.31 442.47,-306.17"/>
</a>
</g>
</g>
<!-- Node14 -->
<g id="Node000014" class="node">
<title>Node14</title>
<g id="a_Node000014"><a xlink:href="../../d7/d96/class_deluxe_1_1_deluxe_brand_center_1_1_a_m_m_1_1_domain_1_1_table.html#a825b952404a9e84cb0be14c68e6b428f" target="_top" xlink:title=" ">
<polygon fill="white" stroke="#666666" points="606,-292 467.75,-292 467.75,-248 606,-248 606,-292"/>
<text text-anchor="start" x="475.75" y="-278.5" font-family="Helvetica,sans-Serif" font-size="10.00">Deluxe.DeluxeBrandCenter.</text>
<text text-anchor="start" x="475.75" y="-266.5" font-family="Helvetica,sans-Serif" font-size="10.00">AMM.Domain.Table&lt; string</text>
<text text-anchor="middle" x="536.88" y="-254.5" font-family="Helvetica,sans-Serif" font-size="10.00"> &gt;::AppendColumn</text>
</a>
</g>
</g>
<!-- Node13&#45;&gt;Node14 -->
<g id="edge14_Node000013_Node000014" class="edge">
<title>Node13&#45;&gt;Node14</title>
<g id="a_edge14_Node000013_Node000014"><a xlink:title=" ">
<path fill="none" stroke="#63b8ff" d="M391.39,-230.47C412.64,-236.28 435.47,-242.53 456.58,-248.31"/>
<polygon fill="#63b8ff" stroke="#63b8ff" points="455.41,-251.61 465.98,-250.88 457.25,-244.86 455.41,-251.61"/>
</a>
</g>
</g>
<!-- Node15 -->
<g id="Node000015" class="node">
<title>Node15</title>
<g id="a_Node000015"><a xlink:href="../../d5/d37/class_deluxe_1_1_deluxe_brand_center_1_1_a_m_m_1_1_domain_1_1_utility_1_1_hash_helper.html#acba4243f79f37b8b22aff859a90c4a81" target="_top" xlink:title=" ">
<polygon fill="white" stroke="#666666" points="617.62,-230 456.12,-230 456.12,-186 617.62,-186 617.62,-230"/>
<text text-anchor="start" x="464.12" y="-216.5" font-family="Helvetica,sans-Serif" font-size="10.00">Deluxe.DeluxeBrandCenter.</text>
<text text-anchor="start" x="464.12" y="-204.5" font-family="Helvetica,sans-Serif" font-size="10.00">AMM.Domain.Utility.HashHelper.</text>
<text text-anchor="middle" x="536.88" y="-192.5" font-family="Helvetica,sans-Serif" font-size="10.00">GetHashCode</text>
</a>
</g>
</g>
<!-- Node13&#45;&gt;Node15 -->
<g id="edge16_Node000013_Node000015" class="edge">
<title>Node13&#45;&gt;Node15</title>
<g id="a_edge16_Node000013_Node000015"><a xlink:title=" ">
<path fill="none" stroke="#63b8ff" d="M402.74,-208C416.55,-208 430.77,-208 444.53,-208"/>
<polygon fill="#63b8ff" stroke="#63b8ff" points="444.46,-211.5 454.46,-208 444.46,-204.5 444.46,-211.5"/>
</a>
</g>
</g>
<!-- Node16&#45;&gt;Node3 -->
<g id="edge20_Node000016_Node000003" class="edge">
<title>Node16&#45;&gt;Node3</title>
<g id="a_edge20_Node000016_Node000003"><a xlink:title=" ">
<path fill="none" stroke="#63b8ff" d="M392.72,-292.36C397.23,-294.94 401.54,-297.81 405.5,-301 430.31,-320.99 416.74,-342.94 441.5,-363 446.27,-366.87 451.55,-370.26 457.09,-373.23"/>
<polygon fill="#63b8ff" stroke="#63b8ff" points="455.4,-376.31 465.93,-377.49 458.44,-370 455.4,-376.31"/>
</a>
</g>
</g>
<!-- Node16&#45;&gt;Node6 -->
<g id="edge21_Node000016_Node000006" class="edge">
<title>Node16&#45;&gt;Node6</title>
<g id="a_edge21_Node000016_Node000006"><a xlink:title=" ">
<path fill="none" stroke="#63b8ff" d="M391.39,-292.47C408.01,-297.02 425.61,-301.83 442.59,-306.48"/>
<polygon fill="#63b8ff" stroke="#63b8ff" points="441.61,-309.84 452.18,-309.1 443.46,-303.09 441.61,-309.84"/>
</a>
</g>
</g>
<!-- Node16&#45;&gt;Node14 -->
<g id="edge19_Node000016_Node000014" class="edge">
<title>Node16&#45;&gt;Node14</title>
<g id="a_edge19_Node000016_Node000014"><a xlink:title=" ">
<path fill="none" stroke="#63b8ff" d="M402.74,-270C420.54,-270 439.02,-270 456.33,-270"/>
<polygon fill="#63b8ff" stroke="#63b8ff" points="456.02,-273.5 466.02,-270 456.02,-266.5 456.02,-273.5"/>
</a>
</g>
</g>
<!-- Node17&#45;&gt;Node3 -->
<g id="edge24_Node000017_Node000003" class="edge">
<title>Node17&#45;&gt;Node3</title>
<g id="a_edge24_Node000017_Node000003"><a xlink:title=" ">
<path fill="none" stroke="#63b8ff" d="M391.39,-354.47C412.64,-360.28 435.47,-366.53 456.58,-372.31"/>
<polygon fill="#63b8ff" stroke="#63b8ff" points="455.41,-375.61 465.98,-374.88 457.25,-368.86 455.41,-375.61"/>
</a>
</g>
</g>
<!-- Node17&#45;&gt;Node6 -->
<g id="edge25_Node000017_Node000006" class="edge">
<title>Node17&#45;&gt;Node6</title>
<g id="a_edge25_Node000017_Node000006"><a xlink:title=" ">
<path fill="none" stroke="#63b8ff" d="M402.74,-332C412.01,-332 421.47,-332 430.85,-332"/>
<polygon fill="#63b8ff" stroke="#63b8ff" points="430.73,-335.5 440.73,-332 430.73,-328.5 430.73,-335.5"/>
</a>
</g>
</g>
<!-- Node17&#45;&gt;Node14 -->
<g id="edge23_Node000017_Node000014" class="edge">
<title>Node17&#45;&gt;Node14</title>
<g id="a_edge23_Node000017_Node000014"><a xlink:title=" ">
<path fill="none" stroke="#63b8ff" d="M391.39,-309.53C412.64,-303.72 435.47,-297.47 456.58,-291.69"/>
<polygon fill="#63b8ff" stroke="#63b8ff" points="457.25,-295.14 465.98,-289.12 455.41,-288.39 457.25,-295.14"/>
</a>
</g>
</g>
<!-- Node18&#45;&gt;Node3 -->
<g id="edge27_Node000018_Node000003" class="edge">
<title>Node18&#45;&gt;Node3</title>
<g id="a_edge27_Node000018_Node000003"><a xlink:title=" ">
<path fill="none" stroke="#63b8ff" d="M402.74,-394C420.54,-394 439.02,-394 456.33,-394"/>
<polygon fill="#63b8ff" stroke="#63b8ff" points="456.02,-397.5 466.02,-394 456.02,-390.5 456.02,-397.5"/>
</a>
</g>
</g>
<!-- Node18&#45;&gt;Node6 -->
<g id="edge28_Node000018_Node000006" class="edge">
<title>Node18&#45;&gt;Node6</title>
<g id="a_edge28_Node000018_Node000006"><a xlink:title=" ">
<path fill="none" stroke="#63b8ff" d="M391.39,-371.53C408.01,-366.98 425.61,-362.17 442.59,-357.52"/>
<polygon fill="#63b8ff" stroke="#63b8ff" points="443.46,-360.91 452.18,-354.9 441.61,-354.16 443.46,-360.91"/>
</a>
</g>
</g>
</g>
</svg>

<g id="navigator" transform="translate(0 0)" fill="#404254">
  <rect fill="#f2f5e9" fill-opacity="0.5" stroke="#606060" stroke-width=".5" x="0" y="0" width="60" height="60"/>
  <use id="zoomplus" xlink:href="#zoomPlus" x="17" y="9" onmousedown="handleZoom(evt,'in')"/>
  <use id="zoomminus" xlink:href="#zoomMin" x="42" y="9" onmousedown="handleZoom(evt,'out')"/>
  <use id="reset" xlink:href="#resetDef" x="30" y="36" onmousedown="handleReset()"/>
   <use id="arrowup" xlink:href="#arrowUp" x="0" y="0" onmousedown="handlePan(0,-1)"/>
  <use id="arrowright" xlink:href="#arrowRight" x="0" y="0" onmousedown="handlePan(1,0)"/>
  <use id="arrowdown" xlink:href="#arrowDown" x="0" y="0" onmousedown="handlePan(0,1)"/>
  <use id="arrowleft" xlink:href="#arrowLeft" x="0" y="0" onmousedown="handlePan(-1,0)"/>
</g>
<svg viewBox="0 0 15 15" width="100%" height="30px" preserveAspectRatio="xMaxYMin meet">
 <g id="arrow_out" transform="scale(0.3 0.3)">
  <a xlink:href="class_deluxe_1_1_deluxe_brand_center_1_1_a_m_m_1_1_a_p_i_1_1_services_1_1_contact_manager_service_a6b3cb62fedd89a5b7c82e4c21859750f_cgraph_org.svg" target="_base">
   <rect id="button" ry="5" rx="5" y="6" x="6" height="38" width="38"
        fill="#f2f5e9" fill-opacity="0.5" stroke="#606060" stroke-width="1.0"/>
   <path id="arrow"
     d="M 11.500037,31.436501 C 11.940474,20.09759 22.043105,11.32322 32.158766,21.979434 L 37.068811,17.246167 C 37.068811,17.246167 37.088388,32 37.088388,32 L 22.160133,31.978069 C 22.160133,31.978069 26.997745,27.140456 26.997745,27.140456 C 18.528582,18.264221 13.291696,25.230495 11.500037,31.436501 z"
     style="fill:#404040;"/>
  </a>
 </g>
</svg>

<style type='text/css'>
<![CDATA[
[data-mouse-over-selected='false'] { opacity: 0.7; }
[data-mouse-over-selected='true']  { opacity: 1.0; }
]]>
</style>
<script type="application/ecmascript"><![CDATA[
document.addEventListener('DOMContentLoaded', (event) => {
  highlightEdges();
  highlightAdjacentNodes();
});
]]></script>
</svg>
