<?xml version="1.0" encoding="UTF-8" standalone="no"?>
<!DOCTYPE svg PUBLIC "-//W3C//DTD SVG 1.1//EN"
 "http://www.w3.org/Graphics/SVG/1.1/DTD/svg11.dtd">
<!-- Generated by graphviz version 12.1.1 (20240910.0053)
 -->
<!-- Title: Deluxe.DeluxeBrandCenter.AMM.API.Services.ContactManagerService.GetContactsForFilteringOut Pages: 1 -->
<svg width="1259pt" height="505pt"
 viewBox="0.00 0.00 1259.00 504.79" xmlns="http://www.w3.org/2000/svg" xmlns:xlink="http://www.w3.org/1999/xlink">
<g id="graph0" class="graph" transform="scale(1 1) rotate(0) translate(4 500.79)">
<title>Deluxe.DeluxeBrandCenter.AMM.API.Services.ContactManagerService.GetContactsForFilteringOut</title>
<!-- Node1 -->
<g id="Node000001" class="node">
<title>Node1</title>
<g id="a_Node000001"><a xlink:title=" ">
<polygon fill="#999999" stroke="#666666" points="1251,-485 1076,-485 1076,-441 1251,-441 1251,-485"/>
<text text-anchor="start" x="1084" y="-471.5" font-family="Helvetica,sans-Serif" font-size="10.00">Deluxe.DeluxeBrandCenter.</text>
<text text-anchor="start" x="1084" y="-459.5" font-family="Helvetica,sans-Serif" font-size="10.00">AMM.API.Services.ContactManager</text>
<text text-anchor="middle" x="1163.5" y="-447.5" font-family="Helvetica,sans-Serif" font-size="10.00">Service.GetContactsForFilteringOut</text>
</a>
</g>
</g>
<!-- Node2 -->
<g id="Node000002" class="node">
<title>Node2</title>
<g id="a_Node000002"><a xlink:href="../../d4/d06/class_deluxe_1_1_deluxe_brand_center_1_1_a_m_m_1_1_a_p_i_1_1_services_1_1_contact_manager_service.html#af3ee320e832b5241f698ab94cadab7cb" target="_top" xlink:title="Updates filter to exclude Unsubscribed and Ppersona Contacts.">
<polygon fill="white" stroke="#666666" points="1040,-423 865,-423 865,-379 1040,-379 1040,-423"/>
<text text-anchor="start" x="873" y="-409.5" font-family="Helvetica,sans-Serif" font-size="10.00">Deluxe.DeluxeBrandCenter.</text>
<text text-anchor="start" x="873" y="-397.5" font-family="Helvetica,sans-Serif" font-size="10.00">AMM.API.Services.ContactManager</text>
<text text-anchor="middle" x="952.5" y="-385.5" font-family="Helvetica,sans-Serif" font-size="10.00">Service.FilterOutContacts</text>
</a>
</g>
</g>
<!-- Node1&#45;&gt;Node2 -->
<g id="edge1_Node000001_Node000002" class="edge">
<title>Node1&#45;&gt;Node2</title>
<g id="a_edge1_Node000001_Node000002"><a xlink:title=" ">
<path fill="none" stroke="#63b8ff" d="M1076.11,-437.37C1060.6,-432.77 1044.53,-428 1029.34,-423.5"/>
<polygon fill="#63b8ff" stroke="#63b8ff" points="1074.72,-440.61 1085.3,-440.1 1076.71,-433.9 1074.72,-440.61"/>
</a>
</g>
</g>
<!-- Node11 -->
<g id="Node000011" class="node">
<title>Node11</title>
<g id="a_Node000011"><a xlink:href="../../d4/d06/class_deluxe_1_1_deluxe_brand_center_1_1_a_m_m_1_1_a_p_i_1_1_services_1_1_contact_manager_service.html#a083029cf71592c87e571f1d675e4da7a" target="_top" xlink:title="Get paginated list of groups.">
<polygon fill="white" stroke="#666666" points="393.5,-491 218.5,-491 218.5,-447 393.5,-447 393.5,-491"/>
<text text-anchor="start" x="226.5" y="-477.5" font-family="Helvetica,sans-Serif" font-size="10.00">Deluxe.DeluxeBrandCenter.</text>
<text text-anchor="start" x="226.5" y="-465.5" font-family="Helvetica,sans-Serif" font-size="10.00">AMM.API.Services.ContactManager</text>
<text text-anchor="middle" x="306" y="-453.5" font-family="Helvetica,sans-Serif" font-size="10.00">Service.GetGroups</text>
</a>
</g>
</g>
<!-- Node1&#45;&gt;Node11 -->
<g id="edge26_Node000001_Node000011" class="edge">
<title>Node1&#45;&gt;Node11</title>
<g id="a_edge26_Node000001_Node000011"><a xlink:title=" ">
<path fill="none" stroke="#63b8ff" d="M1064.33,-474.51C1056.1,-475.39 1047.91,-476.23 1040,-477 946.36,-486.12 923.01,-490.22 829,-494 651.48,-501.14 606.65,-493.47 429.5,-480 418,-479.13 405.91,-478.13 393.97,-477.1"/>
<polygon fill="#63b8ff" stroke="#63b8ff" points="1064.47,-478.02 1074.04,-473.46 1063.72,-471.06 1064.47,-478.02"/>
</a>
</g>
</g>
<!-- Node21 -->
<g id="Node000021" class="node">
<title>Node21</title>
<g id="a_Node000021"><a xlink:href="../../d4/d06/class_deluxe_1_1_deluxe_brand_center_1_1_a_m_m_1_1_a_p_i_1_1_services_1_1_contact_manager_service.html#a7c46eb328b0be11ae5082d8512e4356e" target="_top" xlink:title=" ">
<polygon fill="white" stroke="#666666" points="829,-485 654,-485 654,-441 829,-441 829,-485"/>
<text text-anchor="start" x="662" y="-471.5" font-family="Helvetica,sans-Serif" font-size="10.00">Deluxe.DeluxeBrandCenter.</text>
<text text-anchor="start" x="662" y="-459.5" font-family="Helvetica,sans-Serif" font-size="10.00">AMM.API.Services.ContactManager</text>
<text text-anchor="middle" x="741.5" y="-447.5" font-family="Helvetica,sans-Serif" font-size="10.00">Service.GetGroup</text>
</a>
</g>
</g>
<!-- Node1&#45;&gt;Node21 -->
<g id="edge25_Node000001_Node000021" class="edge">
<title>Node1&#45;&gt;Node21</title>
<g id="a_edge25_Node000001_Node000021"><a xlink:title=" ">
<path fill="none" stroke="#63b8ff" d="M1064.51,-463C993.24,-463 897.64,-463 829.16,-463"/>
<polygon fill="#63b8ff" stroke="#63b8ff" points="1064.22,-466.5 1074.22,-463 1064.22,-459.5 1064.22,-466.5"/>
</a>
</g>
</g>
<!-- Node3 -->
<g id="Node000003" class="node">
<title>Node3</title>
<g id="a_Node000003"><a xlink:href="../../d4/d06/class_deluxe_1_1_deluxe_brand_center_1_1_a_m_m_1_1_a_p_i_1_1_services_1_1_contact_manager_service.html#a30c19c1749ece30e8201ad5972b6d3be" target="_top" xlink:title="Count Contacts except unsubscribed and Persona Contacts.">
<polygon fill="white" stroke="#666666" points="829,-423 654,-423 654,-379 829,-379 829,-423"/>
<text text-anchor="start" x="662" y="-409.5" font-family="Helvetica,sans-Serif" font-size="10.00">Deluxe.DeluxeBrandCenter.</text>
<text text-anchor="start" x="662" y="-397.5" font-family="Helvetica,sans-Serif" font-size="10.00">AMM.API.Services.ContactManager</text>
<text text-anchor="middle" x="741.5" y="-385.5" font-family="Helvetica,sans-Serif" font-size="10.00">Service.CountContacts</text>
</a>
</g>
</g>
<!-- Node2&#45;&gt;Node3 -->
<g id="edge2_Node000002_Node000003" class="edge">
<title>Node2&#45;&gt;Node3</title>
<g id="a_edge2_Node000002_Node000003"><a xlink:title=" ">
<path fill="none" stroke="#63b8ff" d="M853.4,-401C845.38,-401 837.31,-401 829.39,-401"/>
<polygon fill="#63b8ff" stroke="#63b8ff" points="853.17,-404.5 863.17,-401 853.17,-397.5 853.17,-404.5"/>
</a>
</g>
</g>
<!-- Node4 -->
<g id="Node000004" class="node">
<title>Node4</title>
<g id="a_Node000004"><a xlink:href="../../d4/d06/class_deluxe_1_1_deluxe_brand_center_1_1_a_m_m_1_1_a_p_i_1_1_services_1_1_contact_manager_service.html#ab1141e6abe5397940a9170ec65047b69" target="_top" xlink:title=" ">
<polygon fill="white" stroke="#666666" points="829,-279 654,-279 654,-235 829,-235 829,-279"/>
<text text-anchor="start" x="662" y="-265.5" font-family="Helvetica,sans-Serif" font-size="10.00">Deluxe.DeluxeBrandCenter.</text>
<text text-anchor="start" x="662" y="-253.5" font-family="Helvetica,sans-Serif" font-size="10.00">AMM.API.Services.ContactManager</text>
<text text-anchor="middle" x="741.5" y="-241.5" font-family="Helvetica,sans-Serif" font-size="10.00">Service.GetContactsCSVTable</text>
</a>
</g>
</g>
<!-- Node2&#45;&gt;Node4 -->
<g id="edge3_Node000002_Node000004" class="edge">
<title>Node2&#45;&gt;Node4</title>
<g id="a_edge3_Node000002_Node000004"><a xlink:title=" ">
<path fill="none" stroke="#63b8ff" d="M915.21,-371.68C891.26,-352.77 858.88,-328.05 829,-308 814.23,-298.09 797.5,-287.98 782.72,-279.41"/>
<polygon fill="#63b8ff" stroke="#63b8ff" points="912.77,-374.21 922.78,-377.68 917.12,-368.72 912.77,-374.21"/>
</a>
</g>
</g>
<!-- Node2&#45;&gt;Node21 -->
<g id="edge21_Node000002_Node000021" class="edge">
<title>Node2&#45;&gt;Node21</title>
<g id="a_edge21_Node000002_Node000021"><a xlink:title=" ">
<path fill="none" stroke="#63b8ff" d="M865.11,-426.63C849.6,-431.23 833.53,-436 818.34,-440.5"/>
<polygon fill="#63b8ff" stroke="#63b8ff" points="865.71,-430.1 874.3,-423.9 863.72,-423.39 865.71,-430.1"/>
</a>
</g>
</g>
<!-- Node22 -->
<g id="Node000022" class="node">
<title>Node22</title>
<g id="a_Node000022"><a xlink:href="../../d4/d06/class_deluxe_1_1_deluxe_brand_center_1_1_a_m_m_1_1_a_p_i_1_1_services_1_1_contact_manager_service.html#ae33c1b36ed9e432ded5f28b4137fea46" target="_top" xlink:title="Get Paginated Contacts. Exclusion of Unsubscribed and PersonaContacts are added to filter prior to MF...">
<polygon fill="white" stroke="#666666" points="829,-361 654,-361 654,-317 829,-317 829,-361"/>
<text text-anchor="start" x="662" y="-347.5" font-family="Helvetica,sans-Serif" font-size="10.00">Deluxe.DeluxeBrandCenter.</text>
<text text-anchor="start" x="662" y="-335.5" font-family="Helvetica,sans-Serif" font-size="10.00">AMM.API.Services.ContactManager</text>
<text text-anchor="middle" x="741.5" y="-323.5" font-family="Helvetica,sans-Serif" font-size="10.00">Service.GetPaginatedContacts</text>
</a>
</g>
</g>
<!-- Node2&#45;&gt;Node22 -->
<g id="edge23_Node000002_Node000022" class="edge">
<title>Node2&#45;&gt;Node22</title>
<g id="a_edge23_Node000002_Node000022"><a xlink:title=" ">
<path fill="none" stroke="#63b8ff" d="M865.11,-375.37C849.6,-370.77 833.53,-366 818.34,-361.5"/>
<polygon fill="#63b8ff" stroke="#63b8ff" points="863.72,-378.61 874.3,-378.1 865.71,-371.9 863.72,-378.61"/>
</a>
</g>
</g>
<!-- Node5 -->
<g id="Node000005" class="node">
<title>Node5</title>
<g id="a_Node000005"><a xlink:href="../../d4/d06/class_deluxe_1_1_deluxe_brand_center_1_1_a_m_m_1_1_a_p_i_1_1_services_1_1_contact_manager_service.html#ad5a6675a4bbdf499e765e18b3f2f71d3" target="_top" xlink:title=" ">
<polygon fill="white" stroke="#666666" points="393.5,-416 218.5,-416 218.5,-372 393.5,-372 393.5,-416"/>
<text text-anchor="start" x="226.5" y="-402.5" font-family="Helvetica,sans-Serif" font-size="10.00">Deluxe.DeluxeBrandCenter.</text>
<text text-anchor="start" x="226.5" y="-390.5" font-family="Helvetica,sans-Serif" font-size="10.00">AMM.API.Services.ContactManager</text>
<text text-anchor="middle" x="306" y="-378.5" font-family="Helvetica,sans-Serif" font-size="10.00">Service.DownloadCSV</text>
</a>
</g>
</g>
<!-- Node4&#45;&gt;Node5 -->
<g id="edge4_Node000004_Node000005" class="edge">
<title>Node4&#45;&gt;Node5</title>
<g id="a_edge4_Node000004_Node000005"><a xlink:title=" ">
<path fill="none" stroke="#63b8ff" d="M686.61,-285.05C675.36,-291.91 663.92,-299.69 654,-308 635.16,-323.79 639.56,-338.18 618,-350 580.46,-370.57 471.99,-382.46 393.72,-388.58"/>
<polygon fill="#63b8ff" stroke="#63b8ff" points="688.27,-288.13 695.1,-280.04 684.71,-282.11 688.27,-288.13"/>
</a>
</g>
</g>
<!-- Node7 -->
<g id="Node000007" class="node">
<title>Node7</title>
<g id="a_Node000007"><a xlink:href="../../d4/d06/class_deluxe_1_1_deluxe_brand_center_1_1_a_m_m_1_1_a_p_i_1_1_services_1_1_contact_manager_service.html#ab308541a7dfc0ce6c37951b978981a75" target="_top" xlink:title=" ">
<polygon fill="white" stroke="#666666" points="618,-279 429.5,-279 429.5,-235 618,-235 618,-279"/>
<text text-anchor="start" x="437.5" y="-265.5" font-family="Helvetica,sans-Serif" font-size="10.00">Deluxe.DeluxeBrandCenter.</text>
<text text-anchor="start" x="437.5" y="-253.5" font-family="Helvetica,sans-Serif" font-size="10.00">AMM.API.Services.ContactManager</text>
<text text-anchor="middle" x="523.75" y="-241.5" font-family="Helvetica,sans-Serif" font-size="10.00">Service.GenerateGroupCreationOptions</text>
</a>
</g>
</g>
<!-- Node4&#45;&gt;Node7 -->
<g id="edge6_Node000004_Node000007" class="edge">
<title>Node4&#45;&gt;Node7</title>
<g id="a_edge6_Node000004_Node000007"><a xlink:title=" ">
<path fill="none" stroke="#63b8ff" d="M642.18,-257C634.28,-257 626.32,-257 618.45,-257"/>
<polygon fill="#63b8ff" stroke="#63b8ff" points="642.17,-260.5 652.17,-257 642.17,-253.5 642.17,-260.5"/>
</a>
</g>
</g>
<!-- Node8 -->
<g id="Node000008" class="node">
<title>Node8</title>
<g id="a_Node000008"><a xlink:href="../../d4/d06/class_deluxe_1_1_deluxe_brand_center_1_1_a_m_m_1_1_a_p_i_1_1_services_1_1_contact_manager_service.html#a19a435c98b149ec6d21c881109ebf6aa" target="_top" xlink:title=" ">
<polygon fill="white" stroke="#666666" points="611.25,-75 436.25,-75 436.25,-31 611.25,-31 611.25,-75"/>
<text text-anchor="start" x="444.25" y="-61.5" font-family="Helvetica,sans-Serif" font-size="10.00">Deluxe.DeluxeBrandCenter.</text>
<text text-anchor="start" x="444.25" y="-49.5" font-family="Helvetica,sans-Serif" font-size="10.00">AMM.API.Services.ContactManager</text>
<text text-anchor="middle" x="523.75" y="-37.5" font-family="Helvetica,sans-Serif" font-size="10.00">Service.GetContact</text>
</a>
</g>
</g>
<!-- Node4&#45;&gt;Node8 -->
<g id="edge7_Node000004_Node000008" class="edge">
<title>Node4&#45;&gt;Node8</title>
<g id="a_edge7_Node000004_Node000008"><a xlink:title=" ">
<path fill="none" stroke="#63b8ff" d="M725.49,-224.48C706,-185.67 668.4,-121.36 618,-84 613.75,-80.85 609.16,-78.01 604.38,-75.45"/>
<polygon fill="#63b8ff" stroke="#63b8ff" points="722.3,-225.91 729.84,-233.35 728.58,-222.83 722.3,-225.91"/>
</a>
</g>
</g>
<!-- Node9 -->
<g id="Node000009" class="node">
<title>Node9</title>
<g id="a_Node000009"><a xlink:href="../../d4/d06/class_deluxe_1_1_deluxe_brand_center_1_1_a_m_m_1_1_a_p_i_1_1_services_1_1_contact_manager_service.html#a15078488db9949c55dbf5ed4655f81bf" target="_top" xlink:title="Get filtered List of Contacts.">
<polygon fill="white" stroke="#666666" points="611.25,-341 436.25,-341 436.25,-297 611.25,-297 611.25,-341"/>
<text text-anchor="start" x="444.25" y="-327.5" font-family="Helvetica,sans-Serif" font-size="10.00">Deluxe.DeluxeBrandCenter.</text>
<text text-anchor="start" x="444.25" y="-315.5" font-family="Helvetica,sans-Serif" font-size="10.00">AMM.API.Services.ContactManager</text>
<text text-anchor="middle" x="523.75" y="-303.5" font-family="Helvetica,sans-Serif" font-size="10.00">Service.GetContacts</text>
</a>
</g>
</g>
<!-- Node4&#45;&gt;Node9 -->
<g id="edge8_Node000004_Node000009" class="edge">
<title>Node4&#45;&gt;Node9</title>
<g id="a_edge8_Node000004_Node000009"><a xlink:title=" ">
<path fill="none" stroke="#63b8ff" d="M651.32,-282.63C635.31,-287.23 618.72,-292 603.04,-296.5"/>
<polygon fill="#63b8ff" stroke="#63b8ff" points="652.21,-286.01 660.85,-279.89 650.27,-279.29 652.21,-286.01"/>
</a>
</g>
</g>
<!-- Node15 -->
<g id="Node000015" class="node">
<title>Node15</title>
<g id="a_Node000015"><a xlink:href="../../d4/d06/class_deluxe_1_1_deluxe_brand_center_1_1_a_m_m_1_1_a_p_i_1_1_services_1_1_contact_manager_service.html#a056bd26f7d76ff3998f5adda2e3d1db4" target="_top" xlink:title=" ">
<polygon fill="white" stroke="#666666" points="617.62,-137 429.88,-137 429.88,-93 617.62,-93 617.62,-137"/>
<text text-anchor="start" x="437.88" y="-123.5" font-family="Helvetica,sans-Serif" font-size="10.00">Deluxe.DeluxeBrandCenter.</text>
<text text-anchor="start" x="437.88" y="-111.5" font-family="Helvetica,sans-Serif" font-size="10.00">AMM.API.Services.ContactManager</text>
<text text-anchor="middle" x="523.75" y="-99.5" font-family="Helvetica,sans-Serif" font-size="10.00">Service.UpdateContactsCollectionField</text>
</a>
</g>
</g>
<!-- Node4&#45;&gt;Node15 -->
<g id="edge15_Node000004_Node000015" class="edge">
<title>Node4&#45;&gt;Node15</title>
<g id="a_edge15_Node000004_Node000015"><a xlink:title=" ">
<path fill="none" stroke="#63b8ff" d="M705.01,-227.56C681.14,-208.4 648.57,-183.44 618,-164 603.19,-154.58 586.37,-145.33 571.14,-137.45"/>
<polygon fill="#63b8ff" stroke="#63b8ff" points="702.55,-230.08 712.53,-233.65 706.96,-224.64 702.55,-230.08"/>
</a>
</g>
</g>
<!-- Node18 -->
<g id="Node000018" class="node">
<title>Node18</title>
<g id="a_Node000018"><a xlink:href="../../d4/d06/class_deluxe_1_1_deluxe_brand_center_1_1_a_m_m_1_1_a_p_i_1_1_services_1_1_contact_manager_service.html#aa1fe050e4d5227a691150b9849f7b1a3" target="_top" xlink:title=" ">
<polygon fill="white" stroke="#666666" points="611.25,-217 436.25,-217 436.25,-173 611.25,-173 611.25,-217"/>
<text text-anchor="start" x="444.25" y="-203.5" font-family="Helvetica,sans-Serif" font-size="10.00">Deluxe.DeluxeBrandCenter.</text>
<text text-anchor="start" x="444.25" y="-191.5" font-family="Helvetica,sans-Serif" font-size="10.00">AMM.API.Services.ContactManager</text>
<text text-anchor="middle" x="523.75" y="-179.5" font-family="Helvetica,sans-Serif" font-size="10.00">Service.UploadContacts</text>
</a>
</g>
</g>
<!-- Node4&#45;&gt;Node18 -->
<g id="edge18_Node000004_Node000018" class="edge">
<title>Node4&#45;&gt;Node18</title>
<g id="a_edge18_Node000004_Node000018"><a xlink:title=" ">
<path fill="none" stroke="#63b8ff" d="M651.32,-231.37C635.31,-226.77 618.72,-222 603.04,-217.5"/>
<polygon fill="#63b8ff" stroke="#63b8ff" points="650.27,-234.71 660.85,-234.11 652.21,-227.99 650.27,-234.71"/>
</a>
</g>
</g>
<!-- Node6 -->
<g id="Node000006" class="node">
<title>Node6</title>
<g id="a_Node000006"><a xlink:href="../../d4/d06/class_deluxe_1_1_deluxe_brand_center_1_1_a_m_m_1_1_a_p_i_1_1_services_1_1_contact_manager_service.html#a606f9329995599eb3ae8583e6d033f8d" target="_top" xlink:title=" ">
<polygon fill="white" stroke="#666666" points="182.5,-416 0,-416 0,-372 182.5,-372 182.5,-416"/>
<text text-anchor="start" x="8" y="-402.5" font-family="Helvetica,sans-Serif" font-size="10.00">Deluxe.DeluxeBrandCenter.</text>
<text text-anchor="start" x="8" y="-390.5" font-family="Helvetica,sans-Serif" font-size="10.00">AMM.API.Services.ContactManager</text>
<text text-anchor="middle" x="91.25" y="-378.5" font-family="Helvetica,sans-Serif" font-size="10.00">Service.DownloadGroupContactsCSV</text>
</a>
</g>
</g>
<!-- Node5&#45;&gt;Node6 -->
<g id="edge5_Node000005_Node000006" class="edge">
<title>Node5&#45;&gt;Node6</title>
<g id="a_edge5_Node000005_Node000006"><a xlink:title=" ">
<path fill="none" stroke="#63b8ff" d="M206.65,-394C198.76,-394 190.8,-394 182.96,-394"/>
<polygon fill="#63b8ff" stroke="#63b8ff" points="206.65,-397.5 216.65,-394 206.65,-390.5 206.65,-397.5"/>
</a>
</g>
</g>
<!-- Node9&#45;&gt;Node5 -->
<g id="edge10_Node000009_Node000005" class="edge">
<title>Node9&#45;&gt;Node5</title>
<g id="a_edge10_Node000009_Node000005"><a xlink:title=" ">
<path fill="none" stroke="#63b8ff" d="M447.49,-345.16C422.71,-353.78 395.39,-363.27 371.48,-371.59"/>
<polygon fill="#63b8ff" stroke="#63b8ff" points="448.58,-348.49 456.88,-341.9 446.29,-341.88 448.58,-348.49"/>
</a>
</g>
</g>
<!-- Node10 -->
<g id="Node000010" class="node">
<title>Node10</title>
<g id="a_Node000010"><a xlink:href="../../d4/d06/class_deluxe_1_1_deluxe_brand_center_1_1_a_m_m_1_1_a_p_i_1_1_services_1_1_contact_manager_service.html#a3dc71e4629a2d7c6f113ecddd3867d51" target="_top" xlink:title=" ">
<polygon fill="white" stroke="#666666" points="393.5,-354 218.5,-354 218.5,-310 393.5,-310 393.5,-354"/>
<text text-anchor="start" x="226.5" y="-340.5" font-family="Helvetica,sans-Serif" font-size="10.00">Deluxe.DeluxeBrandCenter.</text>
<text text-anchor="start" x="226.5" y="-328.5" font-family="Helvetica,sans-Serif" font-size="10.00">AMM.API.Services.ContactManager</text>
<text text-anchor="middle" x="306" y="-316.5" font-family="Helvetica,sans-Serif" font-size="10.00">Service.CreateContactMF</text>
</a>
</g>
</g>
<!-- Node9&#45;&gt;Node10 -->
<g id="edge9_Node000009_Node000010" class="edge">
<title>Node9&#45;&gt;Node10</title>
<g id="a_edge9_Node000009_Node000010"><a xlink:title=" ">
<path fill="none" stroke="#63b8ff" d="M424.51,-324.92C414.33,-325.53 404.04,-326.15 393.99,-326.76"/>
<polygon fill="#63b8ff" stroke="#63b8ff" points="424.65,-328.42 434.42,-324.32 424.23,-321.43 424.65,-328.42"/>
</a>
</g>
</g>
<!-- Node9&#45;&gt;Node11 -->
<g id="edge11_Node000009_Node000011" class="edge">
<title>Node9&#45;&gt;Node11</title>
<g id="a_edge11_Node000009_Node000011"><a xlink:title=" ">
<path fill="none" stroke="#63b8ff" d="M480.47,-348.07C464.09,-359.89 445.47,-374.04 429.5,-388 412.22,-403.1 411.97,-411.39 393.5,-425 382.65,-432.99 370.13,-440.29 358.05,-446.54"/>
<polygon fill="#63b8ff" stroke="#63b8ff" points="482.48,-350.93 488.58,-342.27 478.41,-345.23 482.48,-350.93"/>
</a>
</g>
</g>
<!-- Node12 -->
<g id="Node000012" class="node">
<title>Node12</title>
<g id="a_Node000012"><a xlink:href="../../d4/d06/class_deluxe_1_1_deluxe_brand_center_1_1_a_m_m_1_1_a_p_i_1_1_services_1_1_contact_manager_service.html#a25fae23757589d7d6c66979e3e85bbe4" target="_top" xlink:title=" ">
<polygon fill="white" stroke="#666666" points="393.5,-292 218.5,-292 218.5,-248 393.5,-248 393.5,-292"/>
<text text-anchor="start" x="226.5" y="-278.5" font-family="Helvetica,sans-Serif" font-size="10.00">Deluxe.DeluxeBrandCenter.</text>
<text text-anchor="start" x="226.5" y="-266.5" font-family="Helvetica,sans-Serif" font-size="10.00">AMM.API.Services.ContactManager</text>
<text text-anchor="middle" x="306" y="-254.5" font-family="Helvetica,sans-Serif" font-size="10.00">Service.MFGetTags</text>
</a>
</g>
</g>
<!-- Node9&#45;&gt;Node12 -->
<g id="edge12_Node000009_Node000012" class="edge">
<title>Node9&#45;&gt;Node12</title>
<g id="a_edge12_Node000009_Node000012"><a xlink:title=" ">
<path fill="none" stroke="#63b8ff" d="M424.83,-296.76C414.55,-294.43 404.14,-292.06 393.99,-289.76"/>
<polygon fill="#63b8ff" stroke="#63b8ff" points="423.93,-300.14 434.45,-298.95 425.48,-293.32 423.93,-300.14"/>
</a>
</g>
</g>
<!-- Node13 -->
<g id="Node000013" class="node">
<title>Node13</title>
<g id="a_Node000013"><a xlink:href="../../d4/d06/class_deluxe_1_1_deluxe_brand_center_1_1_a_m_m_1_1_a_p_i_1_1_services_1_1_contact_manager_service.html#a8da96ba054538c9cfcf67c23d9172795" target="_top" xlink:title="Get all tag Names from MF.">
<polygon fill="white" stroke="#666666" points="178.75,-261 3.75,-261 3.75,-217 178.75,-217 178.75,-261"/>
<text text-anchor="start" x="11.75" y="-247.5" font-family="Helvetica,sans-Serif" font-size="10.00">Deluxe.DeluxeBrandCenter.</text>
<text text-anchor="start" x="11.75" y="-235.5" font-family="Helvetica,sans-Serif" font-size="10.00">AMM.API.Services.ContactManager</text>
<text text-anchor="middle" x="91.25" y="-223.5" font-family="Helvetica,sans-Serif" font-size="10.00">Service.GetTagNames</text>
</a>
</g>
</g>
<!-- Node12&#45;&gt;Node13 -->
<g id="edge13_Node000012_Node000013" class="edge">
<title>Node12&#45;&gt;Node13</title>
<g id="a_edge13_Node000012_Node000013"><a xlink:title=" ">
<path fill="none" stroke="#63b8ff" d="M206.92,-255.71C197.66,-254.36 188.31,-253 179.16,-251.66"/>
<polygon fill="#63b8ff" stroke="#63b8ff" points="206.26,-259.15 216.66,-257.13 207.27,-252.22 206.26,-259.15"/>
</a>
</g>
</g>
<!-- Node14 -->
<g id="Node000014" class="node">
<title>Node14</title>
<g id="a_Node000014"><a xlink:href="../../d4/d06/class_deluxe_1_1_deluxe_brand_center_1_1_a_m_m_1_1_a_p_i_1_1_services_1_1_contact_manager_service.html#a0d9c1d7e70a053e3d7083040bba5d44b" target="_top" xlink:title="Get list of Tags (UserId, Tag name and number of contacts associated with that tag)">
<polygon fill="white" stroke="#666666" points="178.75,-323 3.75,-323 3.75,-279 178.75,-279 178.75,-323"/>
<text text-anchor="start" x="11.75" y="-309.5" font-family="Helvetica,sans-Serif" font-size="10.00">Deluxe.DeluxeBrandCenter.</text>
<text text-anchor="start" x="11.75" y="-297.5" font-family="Helvetica,sans-Serif" font-size="10.00">AMM.API.Services.ContactManager</text>
<text text-anchor="middle" x="91.25" y="-285.5" font-family="Helvetica,sans-Serif" font-size="10.00">Service.GetTags</text>
</a>
</g>
</g>
<!-- Node12&#45;&gt;Node14 -->
<g id="edge14_Node000012_Node000014" class="edge">
<title>Node12&#45;&gt;Node14</title>
<g id="a_edge14_Node000012_Node000014"><a xlink:title=" ">
<path fill="none" stroke="#63b8ff" d="M206.92,-284.29C197.66,-285.64 188.31,-287 179.16,-288.34"/>
<polygon fill="#63b8ff" stroke="#63b8ff" points="207.27,-287.78 216.66,-282.87 206.26,-280.85 207.27,-287.78"/>
</a>
</g>
</g>
<!-- Node16 -->
<g id="Node000016" class="node">
<title>Node16</title>
<g id="a_Node000016"><a xlink:href="../../d4/d06/class_deluxe_1_1_deluxe_brand_center_1_1_a_m_m_1_1_a_p_i_1_1_services_1_1_contact_manager_service.html#aab42ea45768418dcf29fabe521d8b577" target="_top" xlink:title=" ">
<polygon fill="white" stroke="#666666" points="393.5,-106 218.5,-106 218.5,-62 393.5,-62 393.5,-106"/>
<text text-anchor="start" x="226.5" y="-92.5" font-family="Helvetica,sans-Serif" font-size="10.00">Deluxe.DeluxeBrandCenter.</text>
<text text-anchor="start" x="226.5" y="-80.5" font-family="Helvetica,sans-Serif" font-size="10.00">AMM.API.Services.ContactManager</text>
<text text-anchor="middle" x="306" y="-68.5" font-family="Helvetica,sans-Serif" font-size="10.00">Service.AddOrUpdateTag</text>
</a>
</g>
</g>
<!-- Node15&#45;&gt;Node16 -->
<g id="edge16_Node000015_Node000016" class="edge">
<title>Node15&#45;&gt;Node16</title>
<g id="a_edge16_Node000015_Node000016"><a xlink:title=" ">
<path fill="none" stroke="#63b8ff" d="M418.51,-100.02C410.29,-98.84 402.05,-97.66 393.96,-96.5"/>
<polygon fill="#63b8ff" stroke="#63b8ff" points="417.79,-103.46 428.19,-101.41 418.79,-96.53 417.79,-103.46"/>
</a>
</g>
</g>
<!-- Node17 -->
<g id="Node000017" class="node">
<title>Node17</title>
<g id="a_Node000017"><a xlink:href="../../d4/d06/class_deluxe_1_1_deluxe_brand_center_1_1_a_m_m_1_1_a_p_i_1_1_services_1_1_contact_manager_service.html#a619cc4b0feff32ead048acb292ab8e82" target="_top" xlink:title=" ">
<polygon fill="white" stroke="#666666" points="393.5,-44 218.5,-44 218.5,0 393.5,0 393.5,-44"/>
<text text-anchor="start" x="226.5" y="-30.5" font-family="Helvetica,sans-Serif" font-size="10.00">Deluxe.DeluxeBrandCenter.</text>
<text text-anchor="start" x="226.5" y="-18.5" font-family="Helvetica,sans-Serif" font-size="10.00">AMM.API.Services.ContactManager</text>
<text text-anchor="middle" x="306" y="-6.5" font-family="Helvetica,sans-Serif" font-size="10.00">Service.DeleteTag</text>
</a>
</g>
</g>
<!-- Node15&#45;&gt;Node17 -->
<g id="edge17_Node000015_Node000017" class="edge">
<title>Node15&#45;&gt;Node17</title>
<g id="a_edge17_Node000015_Node000017"><a xlink:title=" ">
<path fill="none" stroke="#63b8ff" d="M436.63,-87.81C434.2,-86.58 431.82,-85.31 429.5,-84 411.13,-73.58 411.74,-63.63 393.5,-53 388.12,-49.87 382.38,-46.97 376.5,-44.31"/>
<polygon fill="#63b8ff" stroke="#63b8ff" points="434.92,-90.88 445.46,-91.95 437.9,-84.54 434.92,-90.88"/>
</a>
</g>
</g>
<!-- Node19 -->
<g id="Node000019" class="node">
<title>Node19</title>
<g id="a_Node000019"><a xlink:href="../../d4/d06/class_deluxe_1_1_deluxe_brand_center_1_1_a_m_m_1_1_a_p_i_1_1_services_1_1_contact_manager_service.html#a7f6af03e51f7bb3b4b003c2296015349" target="_top" xlink:title=" ">
<polygon fill="white" stroke="#666666" points="393.5,-230 218.5,-230 218.5,-186 393.5,-186 393.5,-230"/>
<text text-anchor="start" x="226.5" y="-216.5" font-family="Helvetica,sans-Serif" font-size="10.00">Deluxe.DeluxeBrandCenter.</text>
<text text-anchor="start" x="226.5" y="-204.5" font-family="Helvetica,sans-Serif" font-size="10.00">AMM.API.Services.ContactManager</text>
<text text-anchor="middle" x="306" y="-192.5" font-family="Helvetica,sans-Serif" font-size="10.00">Service.UploadRedTailContacts</text>
</a>
</g>
</g>
<!-- Node18&#45;&gt;Node19 -->
<g id="edge19_Node000018_Node000019" class="edge">
<title>Node18&#45;&gt;Node19</title>
<g id="a_edge19_Node000018_Node000019"><a xlink:title=" ">
<path fill="none" stroke="#63b8ff" d="M424.51,-200.92C414.33,-201.53 404.04,-202.15 393.99,-202.76"/>
<polygon fill="#63b8ff" stroke="#63b8ff" points="424.65,-204.42 434.42,-200.32 424.23,-197.43 424.65,-204.42"/>
</a>
</g>
</g>
<!-- Node20 -->
<g id="Node000020" class="node">
<title>Node20</title>
<g id="a_Node000020"><a xlink:href="../../d4/d06/class_deluxe_1_1_deluxe_brand_center_1_1_a_m_m_1_1_a_p_i_1_1_services_1_1_contact_manager_service.html#a9fed8bce1aa679c38c8e729ee735ca5f" target="_top" xlink:title=" ">
<polygon fill="white" stroke="#666666" points="393.5,-168 218.5,-168 218.5,-124 393.5,-124 393.5,-168"/>
<text text-anchor="start" x="226.5" y="-154.5" font-family="Helvetica,sans-Serif" font-size="10.00">Deluxe.DeluxeBrandCenter.</text>
<text text-anchor="start" x="226.5" y="-142.5" font-family="Helvetica,sans-Serif" font-size="10.00">AMM.API.Services.ContactManager</text>
<text text-anchor="middle" x="306" y="-130.5" font-family="Helvetica,sans-Serif" font-size="10.00">Service.UploadSaleForceContacts</text>
</a>
</g>
</g>
<!-- Node18&#45;&gt;Node20 -->
<g id="edge20_Node000018_Node000020" class="edge">
<title>Node18&#45;&gt;Node20</title>
<g id="a_edge20_Node000018_Node000020"><a xlink:title=" ">
<path fill="none" stroke="#63b8ff" d="M424.83,-172.76C414.55,-170.43 404.14,-168.06 393.99,-165.76"/>
<polygon fill="#63b8ff" stroke="#63b8ff" points="423.93,-176.14 434.45,-174.95 425.48,-169.32 423.93,-176.14"/>
</a>
</g>
</g>
<!-- Node21&#45;&gt;Node11 -->
<g id="edge22_Node000021_Node000011" class="edge">
<title>Node21&#45;&gt;Node11</title>
<g id="a_edge22_Node000021_Node000011"><a xlink:title=" ">
<path fill="none" stroke="#63b8ff" d="M642.27,-464.36C567.5,-465.39 465.58,-466.81 393.8,-467.8"/>
<polygon fill="#63b8ff" stroke="#63b8ff" points="642.09,-467.86 652.04,-464.22 642,-460.86 642.09,-467.86"/>
</a>
</g>
</g>
<!-- Node23 -->
<g id="Node000023" class="node">
<title>Node23</title>
<g id="a_Node000023"><a xlink:href="../../d4/d06/class_deluxe_1_1_deluxe_brand_center_1_1_a_m_m_1_1_a_p_i_1_1_services_1_1_contact_manager_service.html#a5ec626d341e4b4f081d3fca715b95944" target="_top" xlink:title=" ">
<polygon fill="white" stroke="#666666" points="612.38,-441 435.12,-441 435.12,-397 612.38,-397 612.38,-441"/>
<text text-anchor="start" x="443.12" y="-427.5" font-family="Helvetica,sans-Serif" font-size="10.00">Deluxe.DeluxeBrandCenter.</text>
<text text-anchor="start" x="443.12" y="-415.5" font-family="Helvetica,sans-Serif" font-size="10.00">AMM.API.Services.ContactManager</text>
<text text-anchor="middle" x="523.75" y="-403.5" font-family="Helvetica,sans-Serif" font-size="10.00">Service.GetGroupContactsPaginated</text>
</a>
</g>
</g>
<!-- Node22&#45;&gt;Node23 -->
<g id="edge24_Node000022_Node000023" class="edge">
<title>Node22&#45;&gt;Node23</title>
<g id="a_edge24_Node000022_Node000023"><a xlink:title=" ">
<path fill="none" stroke="#63b8ff" d="M666.8,-365.31C662.47,-366.89 658.17,-368.46 654,-370 630.81,-378.55 605.36,-388.15 583.22,-396.58"/>
<polygon fill="#63b8ff" stroke="#63b8ff" points="667.99,-368.6 676.19,-361.9 665.6,-362.02 667.99,-368.6"/>
</a>
</g>
</g>
</g>
</svg>
