<?xml version="1.0" encoding="UTF-8" standalone="no"?>
<!DOCTYPE svg PUBLIC "-//W3C//DTD SVG 1.1//EN"
 "http://www.w3.org/Graphics/SVG/1.1/DTD/svg11.dtd">
<!-- Generated by graphviz version 12.1.1 (20240910.0053)
 -->
<!-- Title: Deluxe.DeluxeBrandCenter.AMM.API.Services.NamedDbService.Update Pages: 1 -->
<svg width="662pt" height="140pt"
 viewBox="0.00 0.00 662.00 140.00" xmlns="http://www.w3.org/2000/svg" xmlns:xlink="http://www.w3.org/1999/xlink">
<g id="graph0" class="graph" transform="scale(1 1) rotate(0) translate(4 136)">
<title>Deluxe.DeluxeBrandCenter.AMM.API.Services.NamedDbService.Update</title>
<!-- Node1 -->
<g id="Node000001" class="node">
<title>Node1</title>
<g id="a_Node000001"><a xlink:title=" ">
<polygon fill="#999999" stroke="#666666" points="183.25,-82 0,-82 0,-38 183.25,-38 183.25,-82"/>
<text text-anchor="start" x="8" y="-68.5" font-family="Helvetica,sans-Serif" font-size="10.00">Deluxe.DeluxeBrandCenter.</text>
<text text-anchor="start" x="8" y="-56.5" font-family="Helvetica,sans-Serif" font-size="10.00">AMM.API.Services.NamedDbService.</text>
<text text-anchor="middle" x="91.62" y="-44.5" font-family="Helvetica,sans-Serif" font-size="10.00">Update</text>
</a>
</g>
</g>
<!-- Node2 -->
<g id="Node000002" class="node">
<title>Node2</title>
<g id="a_Node000002"><a xlink:href="../../d3/d96/interface_deluxe_1_1_deluxe_brand_center_1_1_a_m_m_1_1_infrastructure_1_1_databases_1_1_i_application_db_context.html#aed14c2bb69c07bf938cb742595204d35" target="_top" xlink:title=" ">
<polygon fill="white" stroke="#666666" points="423.5,-132 219.25,-132 219.25,-88 423.5,-88 423.5,-132"/>
<text text-anchor="start" x="227.25" y="-118.5" font-family="Helvetica,sans-Serif" font-size="10.00">Deluxe.DeluxeBrandCenter.</text>
<text text-anchor="start" x="227.25" y="-106.5" font-family="Helvetica,sans-Serif" font-size="10.00">AMM.Infrastructure.Databases.IApplication</text>
<text text-anchor="middle" x="321.38" y="-94.5" font-family="Helvetica,sans-Serif" font-size="10.00">DbContext.SaveChanges</text>
</a>
</g>
</g>
<!-- Node1&#45;&gt;Node2 -->
<g id="edge1_Node000001_Node000002" class="edge">
<title>Node1&#45;&gt;Node2</title>
<g id="a_edge1_Node000001_Node000002"><a xlink:title=" ">
<path fill="none" stroke="#63b8ff" d="M183.62,-79.98C191.63,-81.73 199.79,-83.53 207.95,-85.32"/>
<polygon fill="#63b8ff" stroke="#63b8ff" points="207.05,-88.7 217.57,-87.43 208.55,-81.87 207.05,-88.7"/>
</a>
</g>
</g>
<!-- Node3 -->
<g id="Node000003" class="node">
<title>Node3</title>
<g id="a_Node000003"><a xlink:href="../../dd/d7d/interface_deluxe_1_1_deluxe_brand_center_1_1_a_m_m_1_1_domain_1_1_services_1_1_i_session_service.html#a31fd07938dc12b3d600f3bd500d3aacd" target="_top" xlink:title=" ">
<polygon fill="white" stroke="#666666" points="654,-60 459.5,-60 459.5,-16 654,-16 654,-60"/>
<text text-anchor="start" x="467.5" y="-46.5" font-family="Helvetica,sans-Serif" font-size="10.00">Deluxe.DeluxeBrandCenter.</text>
<text text-anchor="start" x="467.5" y="-34.5" font-family="Helvetica,sans-Serif" font-size="10.00">AMM.Domain.Services.ISessionService.</text>
<text text-anchor="middle" x="556.75" y="-22.5" font-family="Helvetica,sans-Serif" font-size="10.00">SessionGetClientId</text>
</a>
</g>
</g>
<!-- Node1&#45;&gt;Node3 -->
<g id="edge2_Node000001_Node000003" class="edge">
<title>Node1&#45;&gt;Node3</title>
<g id="a_edge2_Node000001_Node000003"><a xlink:title=" ">
<path fill="none" stroke="#63b8ff" d="M183.57,-55.68C259.43,-52.08 367.68,-46.93 447.9,-43.12"/>
<polygon fill="#63b8ff" stroke="#63b8ff" points="447.69,-46.64 457.51,-42.67 447.36,-39.65 447.69,-46.64"/>
</a>
</g>
</g>
<!-- Node4 -->
<g id="Node000004" class="node">
<title>Node4</title>
<g id="a_Node000004"><a xlink:href="../../d6/d4e/class_deluxe_1_1_deluxe_brand_center_1_1_a_m_m_1_1_a_p_i_1_1_services_1_1_d_b_service.html#afe2cfea5a2d80d175eb77eed44f64d1c" target="_top" xlink:title=" ">
<polygon fill="white" stroke="#666666" points="411.5,-32 231.25,-32 231.25,0 411.5,0 411.5,-32"/>
<text text-anchor="start" x="239.25" y="-18.5" font-family="Helvetica,sans-Serif" font-size="10.00">Deluxe.DeluxeBrandCenter.</text>
<text text-anchor="middle" x="321.38" y="-6.5" font-family="Helvetica,sans-Serif" font-size="10.00">AMM.API.Services.DBService.Single</text>
</a>
</g>
</g>
<!-- Node1&#45;&gt;Node4 -->
<g id="edge3_Node000001_Node000004" class="edge">
<title>Node1&#45;&gt;Node4</title>
<g id="a_edge3_Node000001_Node000004"><a xlink:title=" ">
<path fill="none" stroke="#63b8ff" d="M183.62,-42.42C196.88,-39.86 210.57,-37.21 223.94,-34.63"/>
<polygon fill="#63b8ff" stroke="#63b8ff" points="224.43,-38.1 233.59,-32.77 223.1,-31.23 224.43,-38.1"/>
</a>
</g>
</g>
<!-- Node4&#45;&gt;Node3 -->
<g id="edge4_Node000004_Node000003" class="edge">
<title>Node4&#45;&gt;Node3</title>
<g id="a_edge4_Node000004_Node000003"><a xlink:title=" ">
<path fill="none" stroke="#63b8ff" d="M411.94,-24.44C423.63,-25.54 435.7,-26.68 447.65,-27.81"/>
<polygon fill="#63b8ff" stroke="#63b8ff" points="447.27,-31.29 457.55,-28.74 447.92,-24.32 447.27,-31.29"/>
</a>
</g>
</g>
</g>
</svg>
