<?xml version="1.0" encoding="UTF-8" standalone="no"?>
<!DOCTYPE svg PUBLIC "-//W3C//DTD SVG 1.1//EN"
 "http://www.w3.org/Graphics/SVG/1.1/DTD/svg11.dtd">
<!-- Generated by graphviz version 12.1.1 (20240910.0053)
 -->
<!-- Title: Deluxe.DeluxeBrandCenter.AMM.API.Services.PersonaService Pages: 1 -->
<svg width="847pt" height="268pt"
 viewBox="0.00 0.00 846.50 268.00" xmlns="http://www.w3.org/2000/svg" xmlns:xlink="http://www.w3.org/1999/xlink">
<g id="graph0" class="graph" transform="scale(1 1) rotate(0) translate(4 264)">
<title>Deluxe.DeluxeBrandCenter.AMM.API.Services.PersonaService</title>
<!-- Node1 -->
<g id="Node000001" class="node">
<title>Node1</title>
<g id="a_Node000001"><a xlink:title=" ">
<polygon fill="#999999" stroke="#666666" points="838.5,-190 666.5,-190 666.5,-158 838.5,-158 838.5,-190"/>
<text text-anchor="start" x="674.5" y="-176.5" font-family="Helvetica,sans-Serif" font-size="10.00">Deluxe.DeluxeBrandCenter.</text>
<text text-anchor="middle" x="752.5" y="-164.5" font-family="Helvetica,sans-Serif" font-size="10.00">AMM.API.Services.PersonaService</text>
</a>
</g>
</g>
<!-- Node2 -->
<g id="Node000002" class="node">
<title>Node2</title>
<g id="a_Node000002"><a xlink:href="../../db/dc5/interface_deluxe_1_1_deluxe_brand_center_1_1_a_m_m_1_1_a_p_i_1_1_services_1_1_i_persona_service.html" target="_top" xlink:title=" ">
<polygon fill="white" stroke="#666666" points="475.62,-260 387.62,-260 387.62,-240 475.62,-240 475.62,-260"/>
<text text-anchor="middle" x="431.62" y="-246.5" font-family="Helvetica,sans-Serif" font-size="10.00">IPersonaService</text>
</a>
</g>
</g>
<!-- Node2&#45;&gt;Node1 -->
<g id="edge1_Node000001_Node000002" class="edge">
<title>Node2&#45;&gt;Node1</title>
<g id="a_edge1_Node000001_Node000002"><a xlink:title=" ">
<path fill="none" stroke="#63b8ff" d="M486.82,-239.9C501.57,-237.09 517.54,-233.98 532.25,-231 584.04,-220.49 597.38,-219.41 648.5,-206 665.98,-201.42 684.92,-195.74 701.73,-190.45"/>
<polygon fill="#63b8ff" stroke="#63b8ff" points="486.48,-236.4 477.31,-241.71 487.79,-243.28 486.48,-236.4"/>
</a>
</g>
</g>
<!-- Node3 -->
<g id="Node000003" class="node">
<title>Node3</title>
<g id="a_Node000003"><a xlink:href="../../d3/d78/interface_deluxe_1_1_deluxe_brand_center_1_1_a_m_m_1_1_infrastructure_1_1_p_m_s_1_1_i_persona_microservice.html" target="_top" xlink:title=" ">
<polygon fill="white" stroke="#666666" points="515,-222 348.25,-222 348.25,-178 515,-178 515,-222"/>
<text text-anchor="start" x="356.25" y="-208.5" font-family="Helvetica,sans-Serif" font-size="10.00">Deluxe.DeluxeBrandCenter.</text>
<text text-anchor="start" x="356.25" y="-196.5" font-family="Helvetica,sans-Serif" font-size="10.00">AMM.Infrastructure.PMS.IPersona</text>
<text text-anchor="middle" x="431.62" y="-184.5" font-family="Helvetica,sans-Serif" font-size="10.00">Microservice</text>
</a>
</g>
</g>
<!-- Node3&#45;&gt;Node1 -->
<g id="edge2_Node000001_Node000003" class="edge">
<title>Node3&#45;&gt;Node1</title>
<g id="a_edge2_Node000001_Node000003"><a xlink:title=" ">
<path fill="none" stroke="#9a32cd" stroke-dasharray="5,2" d="M526.52,-192.34C570.76,-188.74 623.16,-184.46 666.26,-180.95"/>
<polygon fill="#9a32cd" stroke="#9a32cd" points="526.35,-188.85 516.67,-193.15 526.92,-195.82 526.35,-188.85"/>
</a>
</g>
<text text-anchor="middle" x="599.38" y="-192.59" font-family="Helvetica,sans-Serif" font-size="10.00" fill="grey"> _personaMicroservice</text>
</g>
<!-- Node4 -->
<g id="Node000004" class="node">
<title>Node4</title>
<g id="a_Node000004"><a xlink:href="../../dd/d7d/interface_deluxe_1_1_deluxe_brand_center_1_1_a_m_m_1_1_domain_1_1_services_1_1_i_session_service.html" target="_top" xlink:title=" ">
<polygon fill="white" stroke="#666666" points="205.75,-168 14.25,-168 14.25,-136 205.75,-136 205.75,-168"/>
<text text-anchor="start" x="22.25" y="-154.5" font-family="Helvetica,sans-Serif" font-size="10.00">Deluxe.DeluxeBrandCenter.</text>
<text text-anchor="middle" x="110" y="-142.5" font-family="Helvetica,sans-Serif" font-size="10.00">AMM.Domain.Services.ISessionService</text>
</a>
</g>
</g>
<!-- Node4&#45;&gt;Node1 -->
<g id="edge3_Node000001_Node000004" class="edge">
<title>Node4&#45;&gt;Node1</title>
<g id="a_edge3_Node000001_Node000004"><a xlink:title=" ">
<path fill="none" stroke="#9a32cd" stroke-dasharray="5,2" d="M217.5,-151.34C302.7,-151.27 425.2,-152.22 532.25,-157 576.49,-158.98 625.66,-162.65 666.2,-166.08"/>
<polygon fill="#9a32cd" stroke="#9a32cd" points="217.5,-147.84 207.51,-151.35 217.51,-154.84 217.5,-147.84"/>
</a>
</g>
<text text-anchor="middle" x="431.62" y="-159.5" font-family="Helvetica,sans-Serif" font-size="10.00" fill="grey"> _sessionService</text>
</g>
<!-- Node5 -->
<g id="Node000005" class="node">
<title>Node5</title>
<g id="a_Node000005"><a xlink:href="../../d6/db1/class_deluxe_1_1_deluxe_brand_center_1_1_a_m_m_1_1_infrastructure_1_1_databases_1_1_application_db_context.html" target="_top" xlink:title=" ">
<polygon fill="white" stroke="#666666" points="532.25,-111 331,-111 331,-67 532.25,-67 532.25,-111"/>
<text text-anchor="start" x="339" y="-97.5" font-family="Helvetica,sans-Serif" font-size="10.00">Deluxe.DeluxeBrandCenter.</text>
<text text-anchor="start" x="339" y="-85.5" font-family="Helvetica,sans-Serif" font-size="10.00">AMM.Infrastructure.Databases.Application</text>
<text text-anchor="middle" x="431.62" y="-73.5" font-family="Helvetica,sans-Serif" font-size="10.00">DbContext</text>
</a>
</g>
</g>
<!-- Node4&#45;&gt;Node5 -->
<g id="edge7_Node000005_Node000004" class="edge">
<title>Node4&#45;&gt;Node5</title>
<g id="a_edge7_Node000005_Node000004"><a xlink:title=" ">
<path fill="none" stroke="#9a32cd" stroke-dasharray="5,2" d="M196.03,-132.89C204.15,-130.95 212.24,-128.97 220,-127 228.05,-124.96 229.9,-123.81 238,-122 267.96,-115.29 300.82,-109.2 330.77,-104.13"/>
<polygon fill="#9a32cd" stroke="#9a32cd" points="195.38,-129.45 186.46,-135.16 197,-136.26 195.38,-129.45"/>
</a>
</g>
<text text-anchor="middle" x="275.5" y="-124.5" font-family="Helvetica,sans-Serif" font-size="10.00" fill="grey"> _sessionService</text>
</g>
<!-- Node5&#45;&gt;Node1 -->
<g id="edge4_Node000001_Node000005" class="edge">
<title>Node5&#45;&gt;Node1</title>
<g id="a_edge4_Node000001_Node000005"><a xlink:title=" ">
<path fill="none" stroke="#9a32cd" stroke-dasharray="5,2" d="M543.7,-99.15C577.84,-104.08 615.18,-111.34 648.5,-122 675.78,-130.73 704.72,-145.93 724.96,-157.65"/>
<polygon fill="#9a32cd" stroke="#9a32cd" points="544.62,-95.74 534.24,-97.84 543.66,-102.68 544.62,-95.74"/>
</a>
</g>
<text text-anchor="middle" x="599.38" y="-124.5" font-family="Helvetica,sans-Serif" font-size="10.00" fill="grey"> _dbContext</text>
</g>
<!-- Node6 -->
<g id="Node000006" class="node">
<title>Node6</title>
<g id="a_Node000006"><a xlink:title=" ">
<polygon fill="white" stroke="#666666" points="220,-118 0,-118 0,-38 220,-38 220,-118"/>
<text text-anchor="start" x="8" y="-104.5" font-family="Helvetica,sans-Serif" font-size="10.00">IdentityDbContext&lt;</text>
<text text-anchor="start" x="8" y="-92.5" font-family="Helvetica,sans-Serif" font-size="10.00"> ApplicationUser, Application</text>
<text text-anchor="start" x="8" y="-80.5" font-family="Helvetica,sans-Serif" font-size="10.00">Role, string, IdentityUserClaim</text>
<text text-anchor="start" x="8" y="-68.5" font-family="Helvetica,sans-Serif" font-size="10.00">&lt; string &gt;, ApplicationUserRole,</text>
<text text-anchor="start" x="8" y="-56.5" font-family="Helvetica,sans-Serif" font-size="10.00"> IdentityUserLogin&lt; string &gt;, IdentityRole</text>
<text text-anchor="middle" x="110" y="-44.5" font-family="Helvetica,sans-Serif" font-size="10.00">Claim&lt; string &gt;, IdentityUserToken&lt; string &gt; &gt;</text>
</a>
</g>
</g>
<!-- Node6&#45;&gt;Node5 -->
<g id="edge5_Node000005_Node000006" class="edge">
<title>Node6&#45;&gt;Node5</title>
<g id="a_edge5_Node000005_Node000006"><a xlink:title=" ">
<path fill="none" stroke="#63b8ff" d="M231.55,-82.15C264.21,-83.27 299.21,-84.48 330.61,-85.56"/>
<polygon fill="#63b8ff" stroke="#63b8ff" points="231.73,-78.65 221.62,-81.81 231.49,-85.65 231.73,-78.65"/>
</a>
</g>
</g>
<!-- Node7 -->
<g id="Node000007" class="node">
<title>Node7</title>
<g id="a_Node000007"><a xlink:href="../../d3/d96/interface_deluxe_1_1_deluxe_brand_center_1_1_a_m_m_1_1_infrastructure_1_1_databases_1_1_i_application_db_context.html" target="_top" xlink:title=" ">
<polygon fill="white" stroke="#666666" points="167.12,-20 52.87,-20 52.87,0 167.12,0 167.12,-20"/>
<text text-anchor="middle" x="110" y="-6.5" font-family="Helvetica,sans-Serif" font-size="10.00">IApplicationDbContext</text>
</a>
</g>
</g>
<!-- Node7&#45;&gt;Node5 -->
<g id="edge6_Node000005_Node000007" class="edge">
<title>Node7&#45;&gt;Node5</title>
<g id="a_edge6_Node000005_Node000007"><a xlink:title=" ">
<path fill="none" stroke="#63b8ff" d="M178.84,-20.69C192.52,-23.16 206.76,-25.97 220,-29 266.7,-39.69 318.45,-54.39 358.97,-66.57"/>
<polygon fill="#63b8ff" stroke="#63b8ff" points="179.46,-17.25 169.01,-18.95 178.25,-24.14 179.46,-17.25"/>
</a>
</g>
</g>
</g>
</svg>
