<?xml version="1.0" encoding="UTF-8" standalone="no"?>
<!DOCTYPE svg PUBLIC "-//W3C//DTD SVG 1.1//EN"
 "http://www.w3.org/Graphics/SVG/1.1/DTD/svg11.dtd">
<!-- Generated by graphviz version 12.1.1 (20240910.0053)
 -->
<!-- Title: Deluxe.DeluxeBrandCenter.AMM.API.Services.UserCampaignService.CampaignDetails Pages: 1 -->
<!--zoomable 808 -->

<svg id="main" version="1.1" xmlns="http://www.w3.org/2000/svg" xmlns:xlink="http://www.w3.org/1999/xlink" xml:space="preserve" onload="init(evt)">

<style type="text/css"><![CDATA[
.node, .edge {opacity: 0.7;}
.node.selected, .edge.selected {opacity: 1;}
.edge:hover path { stroke: red; }
.edge:hover polygon { stroke: red; fill: red; }
]]></style>

<defs>
  <circle id="rim" cx="0" cy="0" r="7"/>
  <circle id="rim2" cx="0" cy="0" r="3.5"/>
  <g id="zoomPlus">
    <use xlink:href="#rim" fill="#404040"><set attributeName="fill" to="#808080" begin="zoomplus.mouseover" end="zoomplus.mouseout"/></use>
    <path d="M-4,0h8M0,-4v8" fill="none" stroke="white" stroke-width="1.5" pointer-events="none"/>
  </g>
  <g id="zoomMin">
    <use xlink:href="#rim" fill="#404040"><set attributeName="fill" to="#808080" begin="zoomminus.mouseover" end="zoomminus.mouseout"/></use>
    <path d="M-4,0h8" fill="none" stroke="white" stroke-width="1.5" pointer-events="none"/>
  </g>
  <g id="arrowUp" transform="translate(30 24)">
    <use xlink:href="#rim"/>
    <path pointer-events="none" fill="none" stroke="white" stroke-width="1.5" d="M0,-3.0v7 M-2.5,-0.5L0,-3.0L2.5,-0.5"/>
  </g>
  <g id="arrowRight" transform="rotate(90) translate(36 -43)">
    <use xlink:href="#rim"/>
    <path pointer-events="none" fill="none" stroke="white" stroke-width="1.5" d="M0,-3.0v7 M-2.5,-0.5L0,-3.0L2.5,-0.5"/>
  </g>
  <g id="arrowDown" transform="rotate(180) translate(-30 -48)">
    <use xlink:href="#rim"/>
    <path pointer-events="none" fill="none" stroke="white" stroke-width="1.5" d="M0,-3.0v7 M-2.5,-0.5L0,-3.0L2.5,-0.5"/>
  </g>
  <g id="arrowLeft" transform="rotate(270) translate(-36 17)">
    <use xlink:href="#rim"/>
    <path pointer-events="none" fill="none" stroke="white" stroke-width="1.5" d="M0,-3.0v7 M-2.5,-0.5L0,-3.0L2.5,-0.5"/>
  </g>
  <g id="resetDef">
    <use xlink:href="#rim2" fill="#404040"><set attributeName="fill" to="#808080" begin="reset.mouseover" end="reset.mouseout"/></use>
  </g>
</defs>
<script type="application/ecmascript">
var viewWidth = 453;
var viewHeight = 808;
var sectionId = 'dynsection-2';
</script>
<script type="application/ecmascript" xlink:href="../../svg.min.js"/>
<svg id="graph" class="graph">
<g id="viewport">
<title>Deluxe.DeluxeBrandCenter.AMM.API.Services.UserCampaignService.CampaignDetails</title>
<!-- Node1 -->
<g id="Node000001" class="node">
<title>Node1</title>
<g id="a_Node000001"><a xlink:title=" ">
<polygon fill="#999999" stroke="#666666" points="204.25,-373 0,-373 0,-329 204.25,-329 204.25,-373"/>
<text text-anchor="start" x="8" y="-359.5" font-family="Helvetica,sans-Serif" font-size="10.00">Deluxe.DeluxeBrandCenter.</text>
<text text-anchor="start" x="8" y="-347.5" font-family="Helvetica,sans-Serif" font-size="10.00">AMM.API.Services.UserCampaignService.</text>
<text text-anchor="middle" x="102.12" y="-335.5" font-family="Helvetica,sans-Serif" font-size="10.00">CampaignDetails</text>
</a>
</g>
</g>
<!-- Node2 -->
<g id="Node000002" class="node">
<title>Node2</title>
<g id="a_Node000002"><a xlink:href="../../df/db6/interface_deluxe_1_1_deluxe_brand_center_1_1_a_m_m_1_1_infrastructure_1_1_a_w_s_1_1_s3_1_1_i_amazon_s3_service.html#a63d81bc5c5327a88e5644fe287360bfb" target="_top" xlink:title=" ">
<polygon fill="white" stroke="#666666" points="438.12,-800 246.62,-800 246.62,-756 438.12,-756 438.12,-800"/>
<text text-anchor="start" x="254.62" y="-786.5" font-family="Helvetica,sans-Serif" font-size="10.00">Deluxe.DeluxeBrandCenter.</text>
<text text-anchor="start" x="254.62" y="-774.5" font-family="Helvetica,sans-Serif" font-size="10.00">AMM.Infrastructure.AWS.S3.IAmazon</text>
<text text-anchor="middle" x="342.38" y="-762.5" font-family="Helvetica,sans-Serif" font-size="10.00">S3Service.DownloadCampaignTemplate</text>
</a>
</g>
</g>
<!-- Node1&#45;&gt;Node2 -->
<g id="edge1_Node000001_Node000002" class="edge">
<title>Node1&#45;&gt;Node2</title>
<g id="a_edge1_Node000001_Node000002"><a xlink:title=" ">
<path fill="none" stroke="#63b8ff" d="M104.08,-373.05C108.15,-439.56 129.51,-640.16 240.25,-747 240.87,-747.6 241.5,-748.18 242.14,-748.76"/>
<polygon fill="#63b8ff" stroke="#63b8ff" points="239.77,-751.35 249.83,-754.69 244.05,-745.81 239.77,-751.35"/>
</a>
</g>
</g>
<!-- Node3 -->
<g id="Node000003" class="node">
<title>Node3</title>
<g id="a_Node000003"><a xlink:href="../../df/db6/interface_deluxe_1_1_deluxe_brand_center_1_1_a_m_m_1_1_infrastructure_1_1_a_w_s_1_1_s3_1_1_i_amazon_s3_service.html#a83dd3d3be30d946df425e6da19a21f31" target="_top" xlink:title=" ">
<polygon fill="white" stroke="#666666" points="433.62,-738 251.12,-738 251.12,-694 433.62,-694 433.62,-738"/>
<text text-anchor="start" x="259.12" y="-724.5" font-family="Helvetica,sans-Serif" font-size="10.00">Deluxe.DeluxeBrandCenter.</text>
<text text-anchor="start" x="259.12" y="-712.5" font-family="Helvetica,sans-Serif" font-size="10.00">AMM.Infrastructure.AWS.S3.IAmazon</text>
<text text-anchor="middle" x="342.38" y="-700.5" font-family="Helvetica,sans-Serif" font-size="10.00">S3Service.DownloadPreviewTemplate</text>
</a>
</g>
</g>
<!-- Node1&#45;&gt;Node3 -->
<g id="edge2_Node000001_Node000003" class="edge">
<title>Node1&#45;&gt;Node3</title>
<g id="a_edge2_Node000001_Node000003"><a xlink:title=" ">
<path fill="none" stroke="#63b8ff" d="M105.74,-373.42C113.89,-433.15 144.37,-597.57 240.25,-685 241.02,-685.7 241.81,-686.39 242.61,-687.06"/>
<polygon fill="#63b8ff" stroke="#63b8ff" points="240.34,-689.74 250.49,-692.79 244.46,-684.08 240.34,-689.74"/>
</a>
</g>
</g>
<!-- Node4 -->
<g id="Node000004" class="node">
<title>Node4</title>
<g id="a_Node000004"><a xlink:href="../../df/db6/interface_deluxe_1_1_deluxe_brand_center_1_1_a_m_m_1_1_infrastructure_1_1_a_w_s_1_1_s3_1_1_i_amazon_s3_service.html#ad8b9fc7f361abef30885bd62c0cca386" target="_top" xlink:title=" ">
<polygon fill="white" stroke="#666666" points="433.62,-676 251.12,-676 251.12,-632 433.62,-632 433.62,-676"/>
<text text-anchor="start" x="259.12" y="-662.5" font-family="Helvetica,sans-Serif" font-size="10.00">Deluxe.DeluxeBrandCenter.</text>
<text text-anchor="start" x="259.12" y="-650.5" font-family="Helvetica,sans-Serif" font-size="10.00">AMM.Infrastructure.AWS.S3.IAmazon</text>
<text text-anchor="middle" x="342.38" y="-638.5" font-family="Helvetica,sans-Serif" font-size="10.00">S3Service.DownloadString</text>
</a>
</g>
</g>
<!-- Node1&#45;&gt;Node4 -->
<g id="edge3_Node000001_Node000004" class="edge">
<title>Node1&#45;&gt;Node4</title>
<g id="a_edge3_Node000001_Node000004"><a xlink:title=" ">
<path fill="none" stroke="#63b8ff" d="M108.05,-373.39C120.61,-425.23 158.79,-554.3 240.25,-623 241.2,-623.8 242.17,-624.58 243.15,-625.34"/>
<polygon fill="#63b8ff" stroke="#63b8ff" points="240.98,-628.1 251.23,-630.79 244.9,-622.29 240.98,-628.1"/>
</a>
</g>
</g>
<!-- Node5 -->
<g id="Node000005" class="node">
<title>Node5</title>
<g id="a_Node000005"><a xlink:href="../../df/db6/interface_deluxe_1_1_deluxe_brand_center_1_1_a_m_m_1_1_infrastructure_1_1_a_w_s_1_1_s3_1_1_i_amazon_s3_service.html#a7b9829166ab5ef984d380210f6414bed" target="_top" xlink:title=" ">
<polygon fill="white" stroke="#666666" points="433.62,-614 251.12,-614 251.12,-570 433.62,-570 433.62,-614"/>
<text text-anchor="start" x="259.12" y="-600.5" font-family="Helvetica,sans-Serif" font-size="10.00">Deluxe.DeluxeBrandCenter.</text>
<text text-anchor="start" x="259.12" y="-588.5" font-family="Helvetica,sans-Serif" font-size="10.00">AMM.Infrastructure.AWS.S3.IAmazon</text>
<text text-anchor="middle" x="342.38" y="-576.5" font-family="Helvetica,sans-Serif" font-size="10.00">S3Service.DownloadStringHTML</text>
</a>
</g>
</g>
<!-- Node1&#45;&gt;Node5 -->
<g id="edge4_Node000001_Node000005" class="edge">
<title>Node1&#45;&gt;Node5</title>
<g id="a_edge4_Node000001_Node000005"><a xlink:title=" ">
<path fill="none" stroke="#63b8ff" d="M111.61,-373.38C129.03,-416.29 172.92,-510.35 240.25,-561 241.58,-562 242.94,-562.97 244.33,-563.91"/>
<polygon fill="#63b8ff" stroke="#63b8ff" points="242.22,-566.72 252.59,-568.87 245.83,-560.72 242.22,-566.72"/>
</a>
</g>
</g>
<!-- Node6 -->
<g id="Node000006" class="node">
<title>Node6</title>
<g id="a_Node000006"><a xlink:href="../../d3/ddb/interface_deluxe_1_1_deluxe_brand_center_1_1_a_m_m_1_1_a_p_i_1_1_services_1_1_i_d_b_service.html#a8efd19afb6eb2fdee5f7fdaff06e95e0" target="_top" xlink:title=" ">
<polygon fill="white" stroke="#666666" points="430.62,-552 254.12,-552 254.12,-496 430.62,-496 430.62,-552"/>
<text text-anchor="start" x="262.12" y="-538.5" font-family="Helvetica,sans-Serif" font-size="10.00">Deluxe.DeluxeBrandCenter.</text>
<text text-anchor="start" x="262.12" y="-526.5" font-family="Helvetica,sans-Serif" font-size="10.00">AMM.API.Services.IDBService</text>
<text text-anchor="start" x="262.12" y="-514.5" font-family="Helvetica,sans-Serif" font-size="10.00">&lt; UserCampaign, UserCampaignVM</text>
<text text-anchor="middle" x="342.38" y="-502.5" font-family="Helvetica,sans-Serif" font-size="10.00"> &gt;::FillHtmlContent</text>
</a>
</g>
</g>
<!-- Node1&#45;&gt;Node6 -->
<g id="edge5_Node000001_Node000006" class="edge">
<title>Node1&#45;&gt;Node6</title>
<g id="a_edge5_Node000001_Node000006"><a xlink:title=" ">
<path fill="none" stroke="#63b8ff" d="M120.34,-373.27C144.31,-402.94 190.44,-455.35 240.25,-487 241.9,-488.05 243.59,-489.08 245.31,-490.08"/>
<polygon fill="#63b8ff" stroke="#63b8ff" points="243.63,-493.15 254.09,-494.85 246.97,-487 243.63,-493.15"/>
</a>
</g>
</g>
<!-- Node7 -->
<g id="Node000007" class="node">
<title>Node7</title>
<g id="a_Node000007"><a xlink:href="../../d3/ddb/interface_deluxe_1_1_deluxe_brand_center_1_1_a_m_m_1_1_a_p_i_1_1_services_1_1_i_d_b_service.html#a91f5506fa72eb65dbb71c189accac9ee" target="_top" xlink:title=" ">
<polygon fill="white" stroke="#666666" points="430.62,-478 254.12,-478 254.12,-422 430.62,-422 430.62,-478"/>
<text text-anchor="start" x="262.12" y="-464.5" font-family="Helvetica,sans-Serif" font-size="10.00">Deluxe.DeluxeBrandCenter.</text>
<text text-anchor="start" x="262.12" y="-452.5" font-family="Helvetica,sans-Serif" font-size="10.00">AMM.API.Services.IDBService</text>
<text text-anchor="start" x="262.12" y="-440.5" font-family="Helvetica,sans-Serif" font-size="10.00">&lt; UserCampaign, UserCampaignVM</text>
<text text-anchor="middle" x="342.38" y="-428.5" font-family="Helvetica,sans-Serif" font-size="10.00"> &gt;::FillHtmlWithPersonalInfo</text>
</a>
</g>
</g>
<!-- Node1&#45;&gt;Node7 -->
<g id="edge6_Node000001_Node000007" class="edge">
<title>Node1&#45;&gt;Node7</title>
<g id="a_edge6_Node000001_Node000007"><a xlink:title=" ">
<path fill="none" stroke="#63b8ff" d="M150.35,-373.39C176.61,-385.58 210.02,-400.65 240.25,-413 243.86,-414.48 247.56,-415.96 251.3,-417.43"/>
<polygon fill="#63b8ff" stroke="#63b8ff" points="249.94,-420.66 260.53,-421.02 252.48,-414.14 249.94,-420.66"/>
</a>
</g>
</g>
<!-- Node8 -->
<g id="Node000008" class="node">
<title>Node8</title>
<g id="a_Node000008"><a xlink:href="../../db/dc5/interface_deluxe_1_1_deluxe_brand_center_1_1_a_m_m_1_1_a_p_i_1_1_services_1_1_i_persona_service.html#a62bec89aefd40827f2329b18cfb763ec" target="_top" xlink:title=" ">
<polygon fill="white" stroke="#666666" points="431.38,-404 253.38,-404 253.38,-360 431.38,-360 431.38,-404"/>
<text text-anchor="start" x="261.38" y="-390.5" font-family="Helvetica,sans-Serif" font-size="10.00">Deluxe.DeluxeBrandCenter.</text>
<text text-anchor="start" x="261.38" y="-378.5" font-family="Helvetica,sans-Serif" font-size="10.00">AMM.API.Services.IPersonaService.</text>
<text text-anchor="middle" x="342.38" y="-366.5" font-family="Helvetica,sans-Serif" font-size="10.00">GetPersonaByGUID</text>
</a>
</g>
</g>
<!-- Node1&#45;&gt;Node8 -->
<g id="edge7_Node000001_Node000008" class="edge">
<title>Node1&#45;&gt;Node8</title>
<g id="a_edge7_Node000001_Node000008"><a xlink:title=" ">
<path fill="none" stroke="#63b8ff" d="M204.51,-364.19C216.82,-365.79 229.4,-367.43 241.69,-369.03"/>
<polygon fill="#63b8ff" stroke="#63b8ff" points="241.01,-372.47 251.38,-370.29 241.91,-365.53 241.01,-372.47"/>
</a>
</g>
</g>
<!-- Node9 -->
<g id="Node000009" class="node">
<title>Node9</title>
<g id="a_Node000009"><a xlink:href="../../d0/ddb/interface_deluxe_1_1_deluxe_brand_center_1_1_a_m_m_1_1_a_p_i_1_1_services_1_1_i_template_service.html#ac7863abd76202cb634b5fc69db283ba4" target="_top" xlink:title=" ">
<polygon fill="white" stroke="#666666" points="433.25,-342 251.5,-342 251.5,-298 433.25,-298 433.25,-342"/>
<text text-anchor="start" x="259.5" y="-328.5" font-family="Helvetica,sans-Serif" font-size="10.00">Deluxe.DeluxeBrandCenter.</text>
<text text-anchor="start" x="259.5" y="-316.5" font-family="Helvetica,sans-Serif" font-size="10.00">AMM.API.Services.ITemplateService.</text>
<text text-anchor="middle" x="342.38" y="-304.5" font-family="Helvetica,sans-Serif" font-size="10.00">GetSingleByTemplateId</text>
</a>
</g>
</g>
<!-- Node1&#45;&gt;Node9 -->
<g id="edge8_Node000001_Node000009" class="edge">
<title>Node1&#45;&gt;Node9</title>
<g id="a_edge8_Node000001_Node000009"><a xlink:title=" ">
<path fill="none" stroke="#63b8ff" d="M204.51,-337.81C216.22,-336.28 228.16,-334.73 239.87,-333.21"/>
<polygon fill="#63b8ff" stroke="#63b8ff" points="240.05,-336.71 249.51,-331.95 239.15,-329.77 240.05,-336.71"/>
</a>
</g>
</g>
<!-- Node10 -->
<g id="Node000010" class="node">
<title>Node10</title>
<g id="a_Node000010"><a xlink:href="../../d5/d5f/class_deluxe_1_1_deluxe_brand_center_1_1_a_m_m_1_1_domain_1_1_utility_1_1_json_helper.html#ab745292f943d4bb123831d596477056d" target="_top" xlink:title=" ">
<polygon fill="white" stroke="#666666" points="434.75,-280 250,-280 250,-248 434.75,-248 434.75,-280"/>
<text text-anchor="start" x="258" y="-266.5" font-family="Helvetica,sans-Serif" font-size="10.00">Deluxe.DeluxeBrandCenter.</text>
<text text-anchor="middle" x="342.38" y="-254.5" font-family="Helvetica,sans-Serif" font-size="10.00">AMM.Domain.Utility.JsonHelper.Parse</text>
</a>
</g>
</g>
<!-- Node1&#45;&gt;Node10 -->
<g id="edge9_Node000001_Node000010" class="edge">
<title>Node1&#45;&gt;Node10</title>
<g id="a_edge9_Node000001_Node000010"><a xlink:title=" ">
<path fill="none" stroke="#63b8ff" d="M147.37,-328.51C173.83,-315.69 208.4,-300.03 240.25,-289 245.66,-287.12 251.29,-285.33 256.99,-283.62"/>
<polygon fill="#63b8ff" stroke="#63b8ff" points="257.9,-287 266.55,-280.88 255.97,-280.28 257.9,-287"/>
</a>
</g>
</g>
<!-- Node11 -->
<g id="Node000011" class="node">
<title>Node11</title>
<g id="a_Node000011"><a xlink:href="../../d8/d0b/class_deluxe_1_1_deluxe_brand_center_1_1_a_m_m_1_1_a_p_i_1_1_services_1_1_user_campaign_service.html#a5e1ac3799c90ae43ea6c9c178da07e8d" target="_top" xlink:title=" ">
<polygon fill="white" stroke="#666666" points="444.5,-230 240.25,-230 240.25,-186 444.5,-186 444.5,-230"/>
<text text-anchor="start" x="248.25" y="-216.5" font-family="Helvetica,sans-Serif" font-size="10.00">Deluxe.DeluxeBrandCenter.</text>
<text text-anchor="start" x="248.25" y="-204.5" font-family="Helvetica,sans-Serif" font-size="10.00">AMM.API.Services.UserCampaignService.</text>
<text text-anchor="middle" x="342.38" y="-192.5" font-family="Helvetica,sans-Serif" font-size="10.00">ReplaceStageFolder</text>
</a>
</g>
</g>
<!-- Node1&#45;&gt;Node11 -->
<g id="edge10_Node000001_Node000011" class="edge">
<title>Node1&#45;&gt;Node11</title>
<g id="a_edge10_Node000001_Node000011"><a xlink:title=" ">
<path fill="none" stroke="#63b8ff" d="M124.91,-328.58C150.42,-303.5 194.99,-263.21 240.25,-239 242.8,-237.64 245.42,-236.32 248.09,-235.06"/>
<polygon fill="#63b8ff" stroke="#63b8ff" points="249.48,-238.27 257.22,-231.04 246.65,-231.87 249.48,-238.27"/>
</a>
</g>
</g>
<!-- Node12 -->
<g id="Node000012" class="node">
<title>Node12</title>
<g id="a_Node000012"><a xlink:href="../../d3/ddb/interface_deluxe_1_1_deluxe_brand_center_1_1_a_m_m_1_1_a_p_i_1_1_services_1_1_i_d_b_service.html#a65b574cf2a33323f24c4657b8b606f68" target="_top" xlink:title=" ">
<polygon fill="white" stroke="#666666" points="434,-168 250.75,-168 250.75,-136 434,-136 434,-168"/>
<text text-anchor="start" x="258.75" y="-154.5" font-family="Helvetica,sans-Serif" font-size="10.00">Deluxe.DeluxeBrandCenter.</text>
<text text-anchor="middle" x="342.38" y="-142.5" font-family="Helvetica,sans-Serif" font-size="10.00">AMM.API.Services.IDBService.Single</text>
</a>
</g>
</g>
<!-- Node1&#45;&gt;Node12 -->
<g id="edge11_Node000001_Node000012" class="edge">
<title>Node1&#45;&gt;Node12</title>
<g id="a_edge11_Node000001_Node000012"><a xlink:title=" ">
<path fill="none" stroke="#63b8ff" d="M111.75,-328.58C130.17,-289.15 176.9,-208.86 240.25,-168 240.46,-167.87 240.67,-167.73 240.88,-167.6"/>
<polygon fill="#63b8ff" stroke="#63b8ff" points="242.4,-170.75 249.42,-162.82 238.99,-164.65 242.4,-170.75"/>
</a>
</g>
</g>
<!-- Node1&#45;&gt;Node12 -->
<g id="edge12_Node000001_Node000012" class="edge">
<title>Node1&#45;&gt;Node12</title>
<g id="a_edge12_Node000001_Node000012"><a xlink:title=" ">
<path fill="none" stroke="#63b8ff" d="M117.53,-328.69C138.9,-292.74 182.72,-223.11 240.25,-186 249.65,-179.93 260.42,-175.34 271.34,-171.73"/>
<polygon fill="#63b8ff" stroke="#63b8ff" points="272.25,-175.11 280.82,-168.88 270.23,-168.41 272.25,-175.11"/>
</a>
</g>
</g>
<!-- Node13 -->
<g id="Node000013" class="node">
<title>Node13</title>
<g id="a_Node000013"><a xlink:href="../../d3/ddb/interface_deluxe_1_1_deluxe_brand_center_1_1_a_m_m_1_1_a_p_i_1_1_services_1_1_i_d_b_service.html#aa0ba6da8a3ea94ad9a91cd83ddb4d67c" target="_top" xlink:title=" ">
<polygon fill="white" stroke="#666666" points="430.62,-118 254.12,-118 254.12,-62 430.62,-62 430.62,-118"/>
<text text-anchor="start" x="262.12" y="-104.5" font-family="Helvetica,sans-Serif" font-size="10.00">Deluxe.DeluxeBrandCenter.</text>
<text text-anchor="start" x="262.12" y="-92.5" font-family="Helvetica,sans-Serif" font-size="10.00">AMM.API.Services.IDBService</text>
<text text-anchor="start" x="262.12" y="-80.5" font-family="Helvetica,sans-Serif" font-size="10.00">&lt; UserCampaign, UserCampaignVM</text>
<text text-anchor="middle" x="342.38" y="-68.5" font-family="Helvetica,sans-Serif" font-size="10.00"> &gt;::UpdateSocialURLs</text>
</a>
</g>
</g>
<!-- Node1&#45;&gt;Node13 -->
<g id="edge13_Node000001_Node000013" class="edge">
<title>Node1&#45;&gt;Node13</title>
<g id="a_edge13_Node000001_Node000013"><a xlink:title=" ">
<path fill="none" stroke="#63b8ff" d="M111.05,-328.5C127.9,-283.81 171.46,-183.33 240.25,-127 241.56,-125.93 242.91,-124.88 244.28,-123.87"/>
<polygon fill="#63b8ff" stroke="#63b8ff" points="246.09,-126.87 252.48,-118.42 242.22,-121.04 246.09,-126.87"/>
</a>
</g>
</g>
<!-- Node14 -->
<g id="Node000014" class="node">
<title>Node14</title>
<g id="a_Node000014"><a xlink:href="../../df/db6/interface_deluxe_1_1_deluxe_brand_center_1_1_a_m_m_1_1_infrastructure_1_1_a_w_s_1_1_s3_1_1_i_amazon_s3_service.html#a1a5b0cb27a6ab8bb34922f57b0a86d2d" target="_top" xlink:title=" ">
<polygon fill="white" stroke="#666666" points="433.62,-44 251.12,-44 251.12,0 433.62,0 433.62,-44"/>
<text text-anchor="start" x="259.12" y="-30.5" font-family="Helvetica,sans-Serif" font-size="10.00">Deluxe.DeluxeBrandCenter.</text>
<text text-anchor="start" x="259.12" y="-18.5" font-family="Helvetica,sans-Serif" font-size="10.00">AMM.Infrastructure.AWS.S3.IAmazon</text>
<text text-anchor="middle" x="342.38" y="-6.5" font-family="Helvetica,sans-Serif" font-size="10.00">S3Service.UploadHtml</text>
</a>
</g>
</g>
<!-- Node1&#45;&gt;Node14 -->
<g id="edge14_Node000001_Node000014" class="edge">
<title>Node1&#45;&gt;Node14</title>
<g id="a_edge14_Node000001_Node000014"><a xlink:title=" ">
<path fill="none" stroke="#63b8ff" d="M106.97,-328.57C117.64,-273.3 152.79,-129.48 240.25,-53 241.04,-52.31 241.84,-51.64 242.65,-50.98"/>
<polygon fill="#63b8ff" stroke="#63b8ff" points="244.47,-53.98 250.63,-45.37 240.44,-48.26 244.47,-53.98"/>
</a>
</g>
</g>
</g>
</svg>

<g id="navigator" transform="translate(0 0)" fill="#404254">
  <rect fill="#f2f5e9" fill-opacity="0.5" stroke="#606060" stroke-width=".5" x="0" y="0" width="60" height="60"/>
  <use id="zoomplus" xlink:href="#zoomPlus" x="17" y="9" onmousedown="handleZoom(evt,'in')"/>
  <use id="zoomminus" xlink:href="#zoomMin" x="42" y="9" onmousedown="handleZoom(evt,'out')"/>
  <use id="reset" xlink:href="#resetDef" x="30" y="36" onmousedown="handleReset()"/>
   <use id="arrowup" xlink:href="#arrowUp" x="0" y="0" onmousedown="handlePan(0,-1)"/>
  <use id="arrowright" xlink:href="#arrowRight" x="0" y="0" onmousedown="handlePan(1,0)"/>
  <use id="arrowdown" xlink:href="#arrowDown" x="0" y="0" onmousedown="handlePan(0,1)"/>
  <use id="arrowleft" xlink:href="#arrowLeft" x="0" y="0" onmousedown="handlePan(-1,0)"/>
</g>
<svg viewBox="0 0 15 15" width="100%" height="30px" preserveAspectRatio="xMaxYMin meet">
 <g id="arrow_out" transform="scale(0.3 0.3)">
  <a xlink:href="class_deluxe_1_1_deluxe_brand_center_1_1_a_m_m_1_1_a_p_i_1_1_services_1_1_user_campaign_service_aded739d67eedc332d45dbba0d8a95f0a_cgraph_org.svg" target="_base">
   <rect id="button" ry="5" rx="5" y="6" x="6" height="38" width="38"
        fill="#f2f5e9" fill-opacity="0.5" stroke="#606060" stroke-width="1.0"/>
   <path id="arrow"
     d="M 11.500037,31.436501 C 11.940474,20.09759 22.043105,11.32322 32.158766,21.979434 L 37.068811,17.246167 C 37.068811,17.246167 37.088388,32 37.088388,32 L 22.160133,31.978069 C 22.160133,31.978069 26.997745,27.140456 26.997745,27.140456 C 18.528582,18.264221 13.291696,25.230495 11.500037,31.436501 z"
     style="fill:#404040;"/>
  </a>
 </g>
</svg>

<style type='text/css'>
<![CDATA[
[data-mouse-over-selected='false'] { opacity: 0.7; }
[data-mouse-over-selected='true']  { opacity: 1.0; }
]]>
</style>
<script type="application/ecmascript"><![CDATA[
document.addEventListener('DOMContentLoaded', (event) => {
  highlightEdges();
  highlightAdjacentNodes();
});
]]></script>
</svg>
