<?xml version="1.0" encoding="UTF-8" standalone="no"?>
<!DOCTYPE svg PUBLIC "-//W3C//DTD SVG 1.1//EN"
 "http://www.w3.org/Graphics/SVG/1.1/DTD/svg11.dtd">
<!-- Generated by graphviz version 12.1.1 (20240910.0053)
 -->
<!-- Title: Deluxe.DeluxeBrandCenter.AMM.API.Services.UserCampaignService.SyncPersonaDataWithMF Pages: 1 -->
<!--zoomable 350 -->

<svg id="main" version="1.1" xmlns="http://www.w3.org/2000/svg" xmlns:xlink="http://www.w3.org/1999/xlink" xml:space="preserve" onload="init(evt)">

<style type="text/css"><![CDATA[
.node, .edge {opacity: 0.7;}
.node.selected, .edge.selected {opacity: 1;}
.edge:hover path { stroke: red; }
.edge:hover polygon { stroke: red; fill: red; }
]]></style>

<defs>
  <circle id="rim" cx="0" cy="0" r="7"/>
  <circle id="rim2" cx="0" cy="0" r="3.5"/>
  <g id="zoomPlus">
    <use xlink:href="#rim" fill="#404040"><set attributeName="fill" to="#808080" begin="zoomplus.mouseover" end="zoomplus.mouseout"/></use>
    <path d="M-4,0h8M0,-4v8" fill="none" stroke="white" stroke-width="1.5" pointer-events="none"/>
  </g>
  <g id="zoomMin">
    <use xlink:href="#rim" fill="#404040"><set attributeName="fill" to="#808080" begin="zoomminus.mouseover" end="zoomminus.mouseout"/></use>
    <path d="M-4,0h8" fill="none" stroke="white" stroke-width="1.5" pointer-events="none"/>
  </g>
  <g id="arrowUp" transform="translate(30 24)">
    <use xlink:href="#rim"/>
    <path pointer-events="none" fill="none" stroke="white" stroke-width="1.5" d="M0,-3.0v7 M-2.5,-0.5L0,-3.0L2.5,-0.5"/>
  </g>
  <g id="arrowRight" transform="rotate(90) translate(36 -43)">
    <use xlink:href="#rim"/>
    <path pointer-events="none" fill="none" stroke="white" stroke-width="1.5" d="M0,-3.0v7 M-2.5,-0.5L0,-3.0L2.5,-0.5"/>
  </g>
  <g id="arrowDown" transform="rotate(180) translate(-30 -48)">
    <use xlink:href="#rim"/>
    <path pointer-events="none" fill="none" stroke="white" stroke-width="1.5" d="M0,-3.0v7 M-2.5,-0.5L0,-3.0L2.5,-0.5"/>
  </g>
  <g id="arrowLeft" transform="rotate(270) translate(-36 17)">
    <use xlink:href="#rim"/>
    <path pointer-events="none" fill="none" stroke="white" stroke-width="1.5" d="M0,-3.0v7 M-2.5,-0.5L0,-3.0L2.5,-0.5"/>
  </g>
  <g id="resetDef">
    <use xlink:href="#rim2" fill="#404040"><set attributeName="fill" to="#808080" begin="reset.mouseover" end="reset.mouseout"/></use>
  </g>
</defs>
<script type="application/ecmascript">
var viewWidth = 1187;
var viewHeight = 350;
var sectionId = 'dynsection-20';
</script>
<script type="application/ecmascript" xlink:href="../../svg.min.js"/>
<svg id="graph" class="graph">
<g id="viewport">
<title>Deluxe.DeluxeBrandCenter.AMM.API.Services.UserCampaignService.SyncPersonaDataWithMF</title>
<!-- Node1 -->
<g id="Node000001" class="node">
<title>Node1</title>
<g id="a_Node000001"><a xlink:title=" ">
<polygon fill="#999999" stroke="#666666" points="204.25,-283 0,-283 0,-239 204.25,-239 204.25,-283"/>
<text text-anchor="start" x="8" y="-269.5" font-family="Helvetica,sans-Serif" font-size="10.00">Deluxe.DeluxeBrandCenter.</text>
<text text-anchor="start" x="8" y="-257.5" font-family="Helvetica,sans-Serif" font-size="10.00">AMM.API.Services.UserCampaignService.</text>
<text text-anchor="middle" x="102.12" y="-245.5" font-family="Helvetica,sans-Serif" font-size="10.00">SyncPersonaDataWithMF</text>
</a>
</g>
</g>
<!-- Node2 -->
<g id="Node000002" class="node">
<title>Node2</title>
<g id="a_Node000002"><a xlink:href="../../db/dc5/interface_deluxe_1_1_deluxe_brand_center_1_1_a_m_m_1_1_a_p_i_1_1_services_1_1_i_persona_service.html#a62bec89aefd40827f2329b18cfb763ec" target="_top" xlink:title=" ">
<polygon fill="white" stroke="#666666" points="431.38,-314 253.38,-314 253.38,-270 431.38,-270 431.38,-314"/>
<text text-anchor="start" x="261.38" y="-300.5" font-family="Helvetica,sans-Serif" font-size="10.00">Deluxe.DeluxeBrandCenter.</text>
<text text-anchor="start" x="261.38" y="-288.5" font-family="Helvetica,sans-Serif" font-size="10.00">AMM.API.Services.IPersonaService.</text>
<text text-anchor="middle" x="342.38" y="-276.5" font-family="Helvetica,sans-Serif" font-size="10.00">GetPersonaByGUID</text>
</a>
</g>
</g>
<!-- Node1&#45;&gt;Node2 -->
<g id="edge1_Node000001_Node000002" class="edge">
<title>Node1&#45;&gt;Node2</title>
<g id="a_edge1_Node000001_Node000002"><a xlink:title=" ">
<path fill="none" stroke="#63b8ff" d="M204.51,-274.19C216.82,-275.79 229.4,-277.43 241.69,-279.03"/>
<polygon fill="#63b8ff" stroke="#63b8ff" points="241.01,-282.47 251.38,-280.29 241.91,-275.53 241.01,-282.47"/>
</a>
</g>
</g>
<!-- Node3 -->
<g id="Node000003" class="node">
<title>Node3</title>
<g id="a_Node000003"><a xlink:href="../../d8/d0b/class_deluxe_1_1_deluxe_brand_center_1_1_a_m_m_1_1_a_p_i_1_1_services_1_1_user_campaign_service.html#a1d654c3b7ffdfc7bfbc0e3dc6e0ea4ba" target="_top" xlink:title=" ">
<polygon fill="white" stroke="#666666" points="444.5,-252 240.25,-252 240.25,-208 444.5,-208 444.5,-252"/>
<text text-anchor="start" x="248.25" y="-238.5" font-family="Helvetica,sans-Serif" font-size="10.00">Deluxe.DeluxeBrandCenter.</text>
<text text-anchor="start" x="248.25" y="-226.5" font-family="Helvetica,sans-Serif" font-size="10.00">AMM.API.Services.UserCampaignService.</text>
<text text-anchor="middle" x="342.38" y="-214.5" font-family="Helvetica,sans-Serif" font-size="10.00">UpdateLaunchedCampaign</text>
</a>
</g>
</g>
<!-- Node1&#45;&gt;Node3 -->
<g id="edge2_Node000001_Node000003" class="edge">
<title>Node1&#45;&gt;Node3</title>
<g id="a_edge2_Node000001_Node000003"><a xlink:title=" ">
<path fill="none" stroke="#63b8ff" d="M204.51,-247.81C212.52,-246.77 220.63,-245.71 228.71,-244.66"/>
<polygon fill="#63b8ff" stroke="#63b8ff" points="229.12,-248.14 238.58,-243.38 228.21,-241.19 229.12,-248.14"/>
</a>
</g>
</g>
<!-- Node4 -->
<g id="Node000004" class="node">
<title>Node4</title>
<g id="a_Node000004"><a xlink:href="../../d6/d52/class_deluxe_1_1_deluxe_brand_center_1_1_a_m_m_1_1_domain_1_1_view_model_1_1_p_m_s_persona_d_t_o.html#a98b99d81cb565732615f5eee5195dc7c" target="_top" xlink:title=" ">
<polygon fill="white" stroke="#666666" points="676.5,-342 488.75,-342 488.75,-298 676.5,-298 676.5,-342"/>
<text text-anchor="start" x="496.75" y="-328.5" font-family="Helvetica,sans-Serif" font-size="10.00">Deluxe.DeluxeBrandCenter.</text>
<text text-anchor="start" x="496.75" y="-316.5" font-family="Helvetica,sans-Serif" font-size="10.00">AMM.Domain.ViewModel.PMSPersona</text>
<text text-anchor="middle" x="582.62" y="-304.5" font-family="Helvetica,sans-Serif" font-size="10.00">DTO.Duplicate</text>
</a>
</g>
</g>
<!-- Node3&#45;&gt;Node4 -->
<g id="edge3_Node000003_Node000004" class="edge">
<title>Node3&#45;&gt;Node4</title>
<g id="a_edge3_Node000003_Node000004"><a xlink:title=" ">
<path fill="none" stroke="#63b8ff" d="M425.8,-252.47C432.25,-255.07 438.55,-257.91 444.5,-261 462.49,-270.35 462.51,-279.65 480.5,-289 483.19,-290.4 485.96,-291.75 488.79,-293.05"/>
<polygon fill="#63b8ff" stroke="#63b8ff" points="487.24,-296.19 497.81,-296.93 490,-289.76 487.24,-296.19"/>
</a>
</g>
</g>
<!-- Node5 -->
<g id="Node000005" class="node">
<title>Node5</title>
<g id="a_Node000005"><a xlink:href="../../d8/d0b/class_deluxe_1_1_deluxe_brand_center_1_1_a_m_m_1_1_a_p_i_1_1_services_1_1_user_campaign_service.html#a4b4403c25751d3a49e8fc7d5cad827fe" target="_top" xlink:title=" ">
<polygon fill="white" stroke="#666666" points="684.75,-280 480.5,-280 480.5,-236 684.75,-236 684.75,-280"/>
<text text-anchor="start" x="488.5" y="-266.5" font-family="Helvetica,sans-Serif" font-size="10.00">Deluxe.DeluxeBrandCenter.</text>
<text text-anchor="start" x="488.5" y="-254.5" font-family="Helvetica,sans-Serif" font-size="10.00">AMM.API.Services.UserCampaignService.</text>
<text text-anchor="middle" x="582.62" y="-242.5" font-family="Helvetica,sans-Serif" font-size="10.00">GetPersonaGuid</text>
</a>
</g>
</g>
<!-- Node3&#45;&gt;Node5 -->
<g id="edge4_Node000003_Node000005" class="edge">
<title>Node3&#45;&gt;Node5</title>
<g id="a_edge4_Node000003_Node000005"><a xlink:title=" ">
<path fill="none" stroke="#63b8ff" d="M444.76,-241.92C452.77,-242.86 460.88,-243.81 468.96,-244.76"/>
<polygon fill="#63b8ff" stroke="#63b8ff" points="468.49,-248.23 478.83,-245.92 469.3,-241.28 468.49,-248.23"/>
</a>
</g>
</g>
<!-- Node6 -->
<g id="Node000006" class="node">
<title>Node6</title>
<g id="a_Node000006"><a xlink:href="../../d5/d5f/class_deluxe_1_1_deluxe_brand_center_1_1_a_m_m_1_1_domain_1_1_utility_1_1_json_helper.html#ab745292f943d4bb123831d596477056d" target="_top" xlink:title=" ">
<polygon fill="white" stroke="#666666" points="675,-218 490.25,-218 490.25,-186 675,-186 675,-218"/>
<text text-anchor="start" x="498.25" y="-204.5" font-family="Helvetica,sans-Serif" font-size="10.00">Deluxe.DeluxeBrandCenter.</text>
<text text-anchor="middle" x="582.62" y="-192.5" font-family="Helvetica,sans-Serif" font-size="10.00">AMM.Domain.Utility.JsonHelper.Parse</text>
</a>
</g>
</g>
<!-- Node3&#45;&gt;Node6 -->
<g id="edge5_Node000003_Node000006" class="edge">
<title>Node3&#45;&gt;Node6</title>
<g id="a_edge5_Node000003_Node000006"><a xlink:title=" ">
<path fill="none" stroke="#63b8ff" d="M444.76,-218.08C455.97,-216.77 467.39,-215.43 478.62,-214.11"/>
<polygon fill="#63b8ff" stroke="#63b8ff" points="478.74,-217.62 488.27,-212.97 477.92,-210.66 478.74,-217.62"/>
</a>
</g>
</g>
<!-- Node7 -->
<g id="Node000007" class="node">
<title>Node7</title>
<g id="a_Node000007"><a xlink:href="../../d8/d0b/class_deluxe_1_1_deluxe_brand_center_1_1_a_m_m_1_1_a_p_i_1_1_services_1_1_user_campaign_service.html#a25280a99634acb5e767062e2cf73f0af" target="_top" xlink:title=" ">
<polygon fill="white" stroke="#666666" points="684.75,-168 480.5,-168 480.5,-124 684.75,-124 684.75,-168"/>
<text text-anchor="start" x="488.5" y="-154.5" font-family="Helvetica,sans-Serif" font-size="10.00">Deluxe.DeluxeBrandCenter.</text>
<text text-anchor="start" x="488.5" y="-142.5" font-family="Helvetica,sans-Serif" font-size="10.00">AMM.API.Services.UserCampaignService.</text>
<text text-anchor="middle" x="582.62" y="-130.5" font-family="Helvetica,sans-Serif" font-size="10.00">UpdateMAML</text>
</a>
</g>
</g>
<!-- Node3&#45;&gt;Node7 -->
<g id="edge6_Node000003_Node000007" class="edge">
<title>Node3&#45;&gt;Node7</title>
<g id="a_edge6_Node000003_Node000007"><a xlink:title=" ">
<path fill="none" stroke="#63b8ff" d="M398.75,-207.56C423.6,-197.76 453.37,-186.39 480.5,-177 485.45,-175.29 490.54,-173.57 495.7,-171.88"/>
<polygon fill="#63b8ff" stroke="#63b8ff" points="496.46,-175.31 504.89,-168.9 494.3,-168.65 496.46,-175.31"/>
</a>
</g>
</g>
<!-- Node8 -->
<g id="Node000008" class="node">
<title>Node8</title>
<g id="a_Node000008"><a xlink:href="../../d8/d0b/class_deluxe_1_1_deluxe_brand_center_1_1_a_m_m_1_1_a_p_i_1_1_services_1_1_user_campaign_service.html#a833d2c76e3a48f7567afd4eb55064e21" target="_top" xlink:title=" ">
<polygon fill="white" stroke="#666666" points="925,-280 720.75,-280 720.75,-236 925,-236 925,-280"/>
<text text-anchor="start" x="728.75" y="-266.5" font-family="Helvetica,sans-Serif" font-size="10.00">Deluxe.DeluxeBrandCenter.</text>
<text text-anchor="start" x="728.75" y="-254.5" font-family="Helvetica,sans-Serif" font-size="10.00">AMM.API.Services.UserCampaignService.</text>
<text text-anchor="middle" x="822.88" y="-242.5" font-family="Helvetica,sans-Serif" font-size="10.00">FillAdvisorColumns</text>
</a>
</g>
</g>
<!-- Node7&#45;&gt;Node8 -->
<g id="edge7_Node000007_Node000008" class="edge">
<title>Node7&#45;&gt;Node8</title>
<g id="a_edge7_Node000007_Node000008"><a xlink:title=" ">
<path fill="none" stroke="#63b8ff" d="M670.69,-168.45C675.62,-171 680.35,-173.84 684.75,-177 707,-192.96 698.5,-211.04 720.75,-227 722.13,-227.99 723.53,-228.94 724.97,-229.87"/>
<polygon fill="#63b8ff" stroke="#63b8ff" points="723.09,-232.82 733.5,-234.8 726.59,-226.76 723.09,-232.82"/>
</a>
</g>
</g>
<!-- Node10 -->
<g id="Node000010" class="node">
<title>Node10</title>
<g id="a_Node000010"><a xlink:href="../../d8/d0b/class_deluxe_1_1_deluxe_brand_center_1_1_a_m_m_1_1_a_p_i_1_1_services_1_1_user_campaign_service.html#a3bb58adab8ed47fe112726cbe54ca54a" target="_top" xlink:title=" ">
<polygon fill="white" stroke="#666666" points="925,-218 720.75,-218 720.75,-174 925,-174 925,-218"/>
<text text-anchor="start" x="728.75" y="-204.5" font-family="Helvetica,sans-Serif" font-size="10.00">Deluxe.DeluxeBrandCenter.</text>
<text text-anchor="start" x="728.75" y="-192.5" font-family="Helvetica,sans-Serif" font-size="10.00">AMM.API.Services.UserCampaignService.</text>
<text text-anchor="middle" x="822.88" y="-180.5" font-family="Helvetica,sans-Serif" font-size="10.00">FillAdvisorContentVariables</text>
</a>
</g>
</g>
<!-- Node7&#45;&gt;Node10 -->
<g id="edge9_Node000007_Node000010" class="edge">
<title>Node7&#45;&gt;Node10</title>
<g id="a_edge9_Node000007_Node000010"><a xlink:title=" ">
<path fill="none" stroke="#63b8ff" d="M685.01,-167.28C693.11,-168.98 701.32,-170.7 709.48,-172.41"/>
<polygon fill="#63b8ff" stroke="#63b8ff" points="708.59,-175.8 719.1,-174.43 710.03,-168.95 708.59,-175.8"/>
</a>
</g>
</g>
<!-- Node11 -->
<g id="Node000011" class="node">
<title>Node11</title>
<g id="a_Node000011"><a xlink:href="../../d8/d0b/class_deluxe_1_1_deluxe_brand_center_1_1_a_m_m_1_1_a_p_i_1_1_services_1_1_user_campaign_service.html#a8d4febbb67746cbe81ec44e14989a393" target="_top" xlink:title=" ">
<polygon fill="white" stroke="#666666" points="1172,-193 967.75,-193 967.75,-149 1172,-149 1172,-193"/>
<text text-anchor="start" x="975.75" y="-179.5" font-family="Helvetica,sans-Serif" font-size="10.00">Deluxe.DeluxeBrandCenter.</text>
<text text-anchor="start" x="975.75" y="-167.5" font-family="Helvetica,sans-Serif" font-size="10.00">AMM.API.Services.UserCampaignService.</text>
<text text-anchor="middle" x="1069.88" y="-155.5" font-family="Helvetica,sans-Serif" font-size="10.00">SetContentVariable</text>
</a>
</g>
</g>
<!-- Node7&#45;&gt;Node11 -->
<g id="edge12_Node000007_Node000011" class="edge">
<title>Node7&#45;&gt;Node11</title>
<g id="a_edge12_Node000007_Node000011"><a xlink:title=" ">
<path fill="none" stroke="#63b8ff" d="M685.05,-151.23C764.26,-155.31 874.26,-160.97 956.21,-165.2"/>
<polygon fill="#63b8ff" stroke="#63b8ff" points="955.9,-168.68 966.07,-165.7 956.26,-161.69 955.9,-168.68"/>
</a>
</g>
</g>
<!-- Node12 -->
<g id="Node000012" class="node">
<title>Node12</title>
<g id="a_Node000012"><a xlink:href="../../d3/ddb/interface_deluxe_1_1_deluxe_brand_center_1_1_a_m_m_1_1_a_p_i_1_1_services_1_1_i_d_b_service.html#a91f5506fa72eb65dbb71c189accac9ee" target="_top" xlink:title=" ">
<polygon fill="white" stroke="#666666" points="911.12,-118 734.62,-118 734.62,-62 911.12,-62 911.12,-118"/>
<text text-anchor="start" x="742.62" y="-104.5" font-family="Helvetica,sans-Serif" font-size="10.00">Deluxe.DeluxeBrandCenter.</text>
<text text-anchor="start" x="742.62" y="-92.5" font-family="Helvetica,sans-Serif" font-size="10.00">AMM.API.Services.IDBService</text>
<text text-anchor="start" x="742.62" y="-80.5" font-family="Helvetica,sans-Serif" font-size="10.00">&lt; UserCampaign, UserCampaignVM</text>
<text text-anchor="middle" x="822.88" y="-68.5" font-family="Helvetica,sans-Serif" font-size="10.00"> &gt;::FillHtmlWithPersonalInfo</text>
</a>
</g>
</g>
<!-- Node7&#45;&gt;Node12 -->
<g id="edge11_Node000007_Node000012" class="edge">
<title>Node7&#45;&gt;Node12</title>
<g id="a_edge11_Node000007_Node000012"><a xlink:title=" ">
<path fill="none" stroke="#63b8ff" d="M679.16,-123.55C693.7,-120.13 708.74,-116.59 723.35,-113.16"/>
<polygon fill="#63b8ff" stroke="#63b8ff" points="724.01,-116.6 732.95,-110.9 722.41,-109.78 724.01,-116.6"/>
</a>
</g>
</g>
<!-- Node13 -->
<g id="Node000013" class="node">
<title>Node13</title>
<g id="a_Node000013"><a xlink:href="../../d3/d8e/interface_deluxe_1_1_deluxe_brand_center_1_1_a_m_m_1_1_a_p_i_1_1_services_1_1_i_settings_service.html#ae7e408d07e4c31ff8cee83f391ceaa73" target="_top" xlink:title=" ">
<polygon fill="white" stroke="#666666" points="911.88,-44 733.88,-44 733.88,0 911.88,0 911.88,-44"/>
<text text-anchor="start" x="741.88" y="-30.5" font-family="Helvetica,sans-Serif" font-size="10.00">Deluxe.DeluxeBrandCenter.</text>
<text text-anchor="start" x="741.88" y="-18.5" font-family="Helvetica,sans-Serif" font-size="10.00">AMM.API.Services.ISettingsService.</text>
<text text-anchor="middle" x="822.88" y="-6.5" font-family="Helvetica,sans-Serif" font-size="10.00">SingleByName</text>
</a>
</g>
</g>
<!-- Node7&#45;&gt;Node13 -->
<g id="edge13_Node000007_Node000013" class="edge">
<title>Node7&#45;&gt;Node13</title>
<g id="a_edge13_Node000007_Node000013"><a xlink:title=" ">
<path fill="none" stroke="#63b8ff" d="M611.27,-123.59C637.94,-102.87 680.15,-72.45 720.75,-53 723.84,-51.52 727.01,-50.09 730.25,-48.72"/>
<polygon fill="#63b8ff" stroke="#63b8ff" points="731.36,-52.04 739.33,-45.06 728.74,-45.55 731.36,-52.04"/>
</a>
</g>
</g>
<!-- Node9 -->
<g id="Node000009" class="node">
<title>Node9</title>
<g id="a_Node000009"><a xlink:href="../../d8/d0b/class_deluxe_1_1_deluxe_brand_center_1_1_a_m_m_1_1_a_p_i_1_1_services_1_1_user_campaign_service.html#a9a30cd71462ec6d8f7c7dc0dba3acb79" target="_top" xlink:title=" ">
<polygon fill="white" stroke="#666666" points="1178.75,-280 961,-280 961,-236 1178.75,-236 1178.75,-280"/>
<text text-anchor="start" x="969" y="-266.5" font-family="Helvetica,sans-Serif" font-size="10.00">Deluxe.DeluxeBrandCenter.</text>
<text text-anchor="start" x="969" y="-254.5" font-family="Helvetica,sans-Serif" font-size="10.00">AMM.API.Services.UserCampaignService.get</text>
<text text-anchor="middle" x="1069.88" y="-242.5" font-family="Helvetica,sans-Serif" font-size="10.00">RouleValue</text>
</a>
</g>
</g>
<!-- Node8&#45;&gt;Node9 -->
<g id="edge8_Node000008_Node000009" class="edge">
<title>Node8&#45;&gt;Node9</title>
<g id="a_edge8_Node000008_Node000009"><a xlink:title=" ">
<path fill="none" stroke="#63b8ff" d="M925.29,-258C933.26,-258 941.34,-258 949.41,-258"/>
<polygon fill="#63b8ff" stroke="#63b8ff" points="949.28,-261.5 959.28,-258 949.28,-254.5 949.28,-261.5"/>
</a>
</g>
</g>
<!-- Node10&#45;&gt;Node11 -->
<g id="edge10_Node000010_Node000011" class="edge">
<title>Node10&#45;&gt;Node11</title>
<g id="a_edge10_Node000010_Node000011"><a xlink:title=" ">
<path fill="none" stroke="#63b8ff" d="M925.29,-185.65C935.54,-184.61 945.99,-183.54 956.35,-182.48"/>
<polygon fill="#63b8ff" stroke="#63b8ff" points="956.43,-185.99 966.03,-181.49 955.72,-179.03 956.43,-185.99"/>
</a>
</g>
</g>
</g>
</svg>

<g id="navigator" transform="translate(0 0)" fill="#404254">
  <rect fill="#f2f5e9" fill-opacity="0.5" stroke="#606060" stroke-width=".5" x="0" y="0" width="60" height="60"/>
  <use id="zoomplus" xlink:href="#zoomPlus" x="17" y="9" onmousedown="handleZoom(evt,'in')"/>
  <use id="zoomminus" xlink:href="#zoomMin" x="42" y="9" onmousedown="handleZoom(evt,'out')"/>
  <use id="reset" xlink:href="#resetDef" x="30" y="36" onmousedown="handleReset()"/>
   <use id="arrowup" xlink:href="#arrowUp" x="0" y="0" onmousedown="handlePan(0,-1)"/>
  <use id="arrowright" xlink:href="#arrowRight" x="0" y="0" onmousedown="handlePan(1,0)"/>
  <use id="arrowdown" xlink:href="#arrowDown" x="0" y="0" onmousedown="handlePan(0,1)"/>
  <use id="arrowleft" xlink:href="#arrowLeft" x="0" y="0" onmousedown="handlePan(-1,0)"/>
</g>
<svg viewBox="0 0 15 15" width="100%" height="30px" preserveAspectRatio="xMaxYMin meet">
 <g id="arrow_out" transform="scale(0.3 0.3)">
  <a xlink:href="class_deluxe_1_1_deluxe_brand_center_1_1_a_m_m_1_1_a_p_i_1_1_services_1_1_user_campaign_service_acae0839d509d83c19c2c036632eac839_cgraph_org.svg" target="_base">
   <rect id="button" ry="5" rx="5" y="6" x="6" height="38" width="38"
        fill="#f2f5e9" fill-opacity="0.5" stroke="#606060" stroke-width="1.0"/>
   <path id="arrow"
     d="M 11.500037,31.436501 C 11.940474,20.09759 22.043105,11.32322 32.158766,21.979434 L 37.068811,17.246167 C 37.068811,17.246167 37.088388,32 37.088388,32 L 22.160133,31.978069 C 22.160133,31.978069 26.997745,27.140456 26.997745,27.140456 C 18.528582,18.264221 13.291696,25.230495 11.500037,31.436501 z"
     style="fill:#404040;"/>
  </a>
 </g>
</svg>

<style type='text/css'>
<![CDATA[
[data-mouse-over-selected='false'] { opacity: 0.7; }
[data-mouse-over-selected='true']  { opacity: 1.0; }
]]>
</style>
<script type="application/ecmascript"><![CDATA[
document.addEventListener('DOMContentLoaded', (event) => {
  highlightEdges();
  highlightAdjacentNodes();
});
]]></script>
</svg>
