<?xml version="1.0" encoding="UTF-8" standalone="no"?>
<!DOCTYPE svg PUBLIC "-//W3C//DTD SVG 1.1//EN"
 "http://www.w3.org/Graphics/SVG/1.1/DTD/svg11.dtd">
<!-- Generated by graphviz version 12.1.1 (20240910.0053)
 -->
<!-- Title: Deluxe.DeluxeBrandCenter.AMM.API.Services.UserCampaignService.SetContentVariable Pages: 1 -->
<svg width="1173pt" height="77pt"
 viewBox="0.00 0.00 1173.25 77.00" xmlns="http://www.w3.org/2000/svg" xmlns:xlink="http://www.w3.org/1999/xlink">
<g id="graph0" class="graph" transform="scale(1 1) rotate(0) translate(4 73)">
<title>Deluxe.DeluxeBrandCenter.AMM.API.Services.UserCampaignService.SetContentVariable</title>
<!-- Node1 -->
<g id="Node000001" class="node">
<title>Node1</title>
<g id="a_Node000001"><a xlink:title=" ">
<polygon fill="#999999" stroke="#666666" points="1165.25,-44 961,-44 961,0 1165.25,0 1165.25,-44"/>
<text text-anchor="start" x="969" y="-30.5" font-family="Helvetica,sans-Serif" font-size="10.00">Deluxe.DeluxeBrandCenter.</text>
<text text-anchor="start" x="969" y="-18.5" font-family="Helvetica,sans-Serif" font-size="10.00">AMM.API.Services.UserCampaignService.</text>
<text text-anchor="middle" x="1063.12" y="-6.5" font-family="Helvetica,sans-Serif" font-size="10.00">SetContentVariable</text>
</a>
</g>
</g>
<!-- Node2 -->
<g id="Node000002" class="node">
<title>Node2</title>
<g id="a_Node000002"><a xlink:href="../../d8/d0b/class_deluxe_1_1_deluxe_brand_center_1_1_a_m_m_1_1_a_p_i_1_1_services_1_1_user_campaign_service.html#a3bb58adab8ed47fe112726cbe54ca54a" target="_top" xlink:title=" ">
<polygon fill="white" stroke="#666666" points="925,-69 720.75,-69 720.75,-25 925,-25 925,-69"/>
<text text-anchor="start" x="728.75" y="-55.5" font-family="Helvetica,sans-Serif" font-size="10.00">Deluxe.DeluxeBrandCenter.</text>
<text text-anchor="start" x="728.75" y="-43.5" font-family="Helvetica,sans-Serif" font-size="10.00">AMM.API.Services.UserCampaignService.</text>
<text text-anchor="middle" x="822.88" y="-31.5" font-family="Helvetica,sans-Serif" font-size="10.00">FillAdvisorContentVariables</text>
</a>
</g>
</g>
<!-- Node1&#45;&gt;Node2 -->
<g id="edge1_Node000001_Node000002" class="edge">
<title>Node1&#45;&gt;Node2</title>
<g id="a_edge1_Node000001_Node000002"><a xlink:title=" ">
<path fill="none" stroke="#63b8ff" d="M949.36,-33.83C941.29,-34.68 933.17,-35.53 925.17,-36.37"/>
<polygon fill="#63b8ff" stroke="#63b8ff" points="949.65,-37.32 959.23,-32.8 948.92,-30.36 949.65,-37.32"/>
</a>
</g>
</g>
<!-- Node3 -->
<g id="Node000003" class="node">
<title>Node3</title>
<g id="a_Node000003"><a xlink:href="../../d8/d0b/class_deluxe_1_1_deluxe_brand_center_1_1_a_m_m_1_1_a_p_i_1_1_services_1_1_user_campaign_service.html#a25280a99634acb5e767062e2cf73f0af" target="_top" xlink:title=" ">
<polygon fill="white" stroke="#666666" points="684.75,-44 480.5,-44 480.5,0 684.75,0 684.75,-44"/>
<text text-anchor="start" x="488.5" y="-30.5" font-family="Helvetica,sans-Serif" font-size="10.00">Deluxe.DeluxeBrandCenter.</text>
<text text-anchor="start" x="488.5" y="-18.5" font-family="Helvetica,sans-Serif" font-size="10.00">AMM.API.Services.UserCampaignService.</text>
<text text-anchor="middle" x="582.62" y="-6.5" font-family="Helvetica,sans-Serif" font-size="10.00">UpdateMAML</text>
</a>
</g>
</g>
<!-- Node1&#45;&gt;Node3 -->
<g id="edge5_Node000001_Node000003" class="edge">
<title>Node1&#45;&gt;Node3</title>
<g id="a_edge5_Node000001_Node000003"><a xlink:title=" ">
<path fill="none" stroke="#63b8ff" d="M949.4,-16.67C941.14,-16.4 932.94,-16.17 925,-16 834.24,-14.02 811.51,-14.02 720.75,-16 709.2,-16.25 697.1,-16.62 685.08,-17.06"/>
<polygon fill="#63b8ff" stroke="#63b8ff" points="949.05,-20.16 959.16,-17.01 949.29,-13.17 949.05,-20.16"/>
</a>
</g>
</g>
<!-- Node2&#45;&gt;Node3 -->
<g id="edge2_Node000002_Node000003" class="edge">
<title>Node2&#45;&gt;Node3</title>
<g id="a_edge2_Node000002_Node000003"><a xlink:title=" ">
<path fill="none" stroke="#63b8ff" d="M709.11,-35.17C701.04,-34.32 692.92,-33.47 684.92,-32.63"/>
<polygon fill="#63b8ff" stroke="#63b8ff" points="708.67,-38.64 718.98,-36.2 709.4,-31.68 708.67,-38.64"/>
</a>
</g>
</g>
<!-- Node4 -->
<g id="Node000004" class="node">
<title>Node4</title>
<g id="a_Node000004"><a xlink:href="../../d8/d0b/class_deluxe_1_1_deluxe_brand_center_1_1_a_m_m_1_1_a_p_i_1_1_services_1_1_user_campaign_service.html#a1d654c3b7ffdfc7bfbc0e3dc6e0ea4ba" target="_top" xlink:title=" ">
<polygon fill="white" stroke="#666666" points="444.5,-44 240.25,-44 240.25,0 444.5,0 444.5,-44"/>
<text text-anchor="start" x="248.25" y="-30.5" font-family="Helvetica,sans-Serif" font-size="10.00">Deluxe.DeluxeBrandCenter.</text>
<text text-anchor="start" x="248.25" y="-18.5" font-family="Helvetica,sans-Serif" font-size="10.00">AMM.API.Services.UserCampaignService.</text>
<text text-anchor="middle" x="342.38" y="-6.5" font-family="Helvetica,sans-Serif" font-size="10.00">UpdateLaunchedCampaign</text>
</a>
</g>
</g>
<!-- Node3&#45;&gt;Node4 -->
<g id="edge3_Node000003_Node000004" class="edge">
<title>Node3&#45;&gt;Node4</title>
<g id="a_edge3_Node000003_Node000004"><a xlink:title=" ">
<path fill="none" stroke="#63b8ff" d="M468.86,-22C460.79,-22 452.67,-22 444.67,-22"/>
<polygon fill="#63b8ff" stroke="#63b8ff" points="468.73,-25.5 478.73,-22 468.73,-18.5 468.73,-25.5"/>
</a>
</g>
</g>
<!-- Node5 -->
<g id="Node000005" class="node">
<title>Node5</title>
<g id="a_Node000005"><a xlink:href="../../d8/d0b/class_deluxe_1_1_deluxe_brand_center_1_1_a_m_m_1_1_a_p_i_1_1_services_1_1_user_campaign_service.html#acae0839d509d83c19c2c036632eac839" target="_top" xlink:title=" ">
<polygon fill="white" stroke="#666666" points="204.25,-44 0,-44 0,0 204.25,0 204.25,-44"/>
<text text-anchor="start" x="8" y="-30.5" font-family="Helvetica,sans-Serif" font-size="10.00">Deluxe.DeluxeBrandCenter.</text>
<text text-anchor="start" x="8" y="-18.5" font-family="Helvetica,sans-Serif" font-size="10.00">AMM.API.Services.UserCampaignService.</text>
<text text-anchor="middle" x="102.12" y="-6.5" font-family="Helvetica,sans-Serif" font-size="10.00">SyncPersonaDataWithMF</text>
</a>
</g>
</g>
<!-- Node4&#45;&gt;Node5 -->
<g id="edge4_Node000004_Node000005" class="edge">
<title>Node4&#45;&gt;Node5</title>
<g id="a_edge4_Node000004_Node000005"><a xlink:title=" ">
<path fill="none" stroke="#63b8ff" d="M228.61,-22C220.54,-22 212.42,-22 204.42,-22"/>
<polygon fill="#63b8ff" stroke="#63b8ff" points="228.48,-25.5 238.48,-22 228.48,-18.5 228.48,-25.5"/>
</a>
</g>
</g>
</g>
</svg>
