<?xml version="1.0" encoding="UTF-8" standalone="no"?>
<!DOCTYPE svg PUBLIC "-//W3C//DTD SVG 1.1//EN"
 "http://www.w3.org/Graphics/SVG/1.1/DTD/svg11.dtd">
<!-- Generated by graphviz version 12.1.1 (20240910.0053)
 -->
<!-- Title: Deluxe.DeluxeBrandCenter.AMM.API.Services.UserCampaignService.UpdateMAML Pages: 1 -->
<svg width="706pt" height="288pt"
 viewBox="0.00 0.00 706.25 288.00" xmlns="http://www.w3.org/2000/svg" xmlns:xlink="http://www.w3.org/1999/xlink">
<g id="graph0" class="graph" transform="scale(1 1) rotate(0) translate(4 284)">
<title>Deluxe.DeluxeBrandCenter.AMM.API.Services.UserCampaignService.UpdateMAML</title>
<!-- Node1 -->
<g id="Node000001" class="node">
<title>Node1</title>
<g id="a_Node000001"><a xlink:title=" ">
<polygon fill="#999999" stroke="#666666" points="204.25,-168 0,-168 0,-124 204.25,-124 204.25,-168"/>
<text text-anchor="start" x="8" y="-154.5" font-family="Helvetica,sans-Serif" font-size="10.00">Deluxe.DeluxeBrandCenter.</text>
<text text-anchor="start" x="8" y="-142.5" font-family="Helvetica,sans-Serif" font-size="10.00">AMM.API.Services.UserCampaignService.</text>
<text text-anchor="middle" x="102.12" y="-130.5" font-family="Helvetica,sans-Serif" font-size="10.00">UpdateMAML</text>
</a>
</g>
</g>
<!-- Node2 -->
<g id="Node000002" class="node">
<title>Node2</title>
<g id="a_Node000002"><a xlink:href="../../d8/d0b/class_deluxe_1_1_deluxe_brand_center_1_1_a_m_m_1_1_a_p_i_1_1_services_1_1_user_campaign_service.html#a833d2c76e3a48f7567afd4eb55064e21" target="_top" xlink:title=" ">
<polygon fill="white" stroke="#666666" points="444.5,-280 240.25,-280 240.25,-236 444.5,-236 444.5,-280"/>
<text text-anchor="start" x="248.25" y="-266.5" font-family="Helvetica,sans-Serif" font-size="10.00">Deluxe.DeluxeBrandCenter.</text>
<text text-anchor="start" x="248.25" y="-254.5" font-family="Helvetica,sans-Serif" font-size="10.00">AMM.API.Services.UserCampaignService.</text>
<text text-anchor="middle" x="342.38" y="-242.5" font-family="Helvetica,sans-Serif" font-size="10.00">FillAdvisorColumns</text>
</a>
</g>
</g>
<!-- Node1&#45;&gt;Node2 -->
<g id="edge1_Node000001_Node000002" class="edge">
<title>Node1&#45;&gt;Node2</title>
<g id="a_edge1_Node000001_Node000002"><a xlink:title=" ">
<path fill="none" stroke="#63b8ff" d="M136.03,-168.45C163.1,-186.16 202.94,-210.54 240.25,-227 243.8,-228.57 247.46,-230.09 251.17,-231.56"/>
<polygon fill="#63b8ff" stroke="#63b8ff" points="249.77,-234.77 260.36,-235.03 252.24,-228.22 249.77,-234.77"/>
</a>
</g>
</g>
<!-- Node4 -->
<g id="Node000004" class="node">
<title>Node4</title>
<g id="a_Node000004"><a xlink:href="../../d8/d0b/class_deluxe_1_1_deluxe_brand_center_1_1_a_m_m_1_1_a_p_i_1_1_services_1_1_user_campaign_service.html#a3bb58adab8ed47fe112726cbe54ca54a" target="_top" xlink:title=" ">
<polygon fill="white" stroke="#666666" points="444.5,-218 240.25,-218 240.25,-174 444.5,-174 444.5,-218"/>
<text text-anchor="start" x="248.25" y="-204.5" font-family="Helvetica,sans-Serif" font-size="10.00">Deluxe.DeluxeBrandCenter.</text>
<text text-anchor="start" x="248.25" y="-192.5" font-family="Helvetica,sans-Serif" font-size="10.00">AMM.API.Services.UserCampaignService.</text>
<text text-anchor="middle" x="342.38" y="-180.5" font-family="Helvetica,sans-Serif" font-size="10.00">FillAdvisorContentVariables</text>
</a>
</g>
</g>
<!-- Node1&#45;&gt;Node4 -->
<g id="edge3_Node000001_Node000004" class="edge">
<title>Node1&#45;&gt;Node4</title>
<g id="a_edge3_Node000001_Node000004"><a xlink:title=" ">
<path fill="none" stroke="#63b8ff" d="M204.51,-167.28C212.61,-168.98 220.82,-170.7 228.98,-172.41"/>
<polygon fill="#63b8ff" stroke="#63b8ff" points="228.09,-175.8 238.6,-174.43 229.53,-168.95 228.09,-175.8"/>
</a>
</g>
</g>
<!-- Node5 -->
<g id="Node000005" class="node">
<title>Node5</title>
<g id="a_Node000005"><a xlink:href="../../d8/d0b/class_deluxe_1_1_deluxe_brand_center_1_1_a_m_m_1_1_a_p_i_1_1_services_1_1_user_campaign_service.html#a8d4febbb67746cbe81ec44e14989a393" target="_top" xlink:title=" ">
<polygon fill="white" stroke="#666666" points="691.5,-193 487.25,-193 487.25,-149 691.5,-149 691.5,-193"/>
<text text-anchor="start" x="495.25" y="-179.5" font-family="Helvetica,sans-Serif" font-size="10.00">Deluxe.DeluxeBrandCenter.</text>
<text text-anchor="start" x="495.25" y="-167.5" font-family="Helvetica,sans-Serif" font-size="10.00">AMM.API.Services.UserCampaignService.</text>
<text text-anchor="middle" x="589.38" y="-155.5" font-family="Helvetica,sans-Serif" font-size="10.00">SetContentVariable</text>
</a>
</g>
</g>
<!-- Node1&#45;&gt;Node5 -->
<g id="edge6_Node000001_Node000005" class="edge">
<title>Node1&#45;&gt;Node5</title>
<g id="a_edge6_Node000001_Node000005"><a xlink:title=" ">
<path fill="none" stroke="#63b8ff" d="M204.55,-151.23C283.76,-155.31 393.76,-160.97 475.71,-165.2"/>
<polygon fill="#63b8ff" stroke="#63b8ff" points="475.4,-168.68 485.57,-165.7 475.76,-161.69 475.4,-168.68"/>
</a>
</g>
</g>
<!-- Node6 -->
<g id="Node000006" class="node">
<title>Node6</title>
<g id="a_Node000006"><a xlink:href="../../d3/ddb/interface_deluxe_1_1_deluxe_brand_center_1_1_a_m_m_1_1_a_p_i_1_1_services_1_1_i_d_b_service.html#a91f5506fa72eb65dbb71c189accac9ee" target="_top" xlink:title=" ">
<polygon fill="white" stroke="#666666" points="430.62,-118 254.12,-118 254.12,-62 430.62,-62 430.62,-118"/>
<text text-anchor="start" x="262.12" y="-104.5" font-family="Helvetica,sans-Serif" font-size="10.00">Deluxe.DeluxeBrandCenter.</text>
<text text-anchor="start" x="262.12" y="-92.5" font-family="Helvetica,sans-Serif" font-size="10.00">AMM.API.Services.IDBService</text>
<text text-anchor="start" x="262.12" y="-80.5" font-family="Helvetica,sans-Serif" font-size="10.00">&lt; UserCampaign, UserCampaignVM</text>
<text text-anchor="middle" x="342.38" y="-68.5" font-family="Helvetica,sans-Serif" font-size="10.00"> &gt;::FillHtmlWithPersonalInfo</text>
</a>
</g>
</g>
<!-- Node1&#45;&gt;Node6 -->
<g id="edge5_Node000001_Node000006" class="edge">
<title>Node1&#45;&gt;Node6</title>
<g id="a_edge5_Node000001_Node000006"><a xlink:title=" ">
<path fill="none" stroke="#63b8ff" d="M198.66,-123.55C213.2,-120.13 228.24,-116.59 242.85,-113.16"/>
<polygon fill="#63b8ff" stroke="#63b8ff" points="243.51,-116.6 252.45,-110.9 241.91,-109.78 243.51,-116.6"/>
</a>
</g>
</g>
<!-- Node7 -->
<g id="Node000007" class="node">
<title>Node7</title>
<g id="a_Node000007"><a xlink:href="../../d3/d8e/interface_deluxe_1_1_deluxe_brand_center_1_1_a_m_m_1_1_a_p_i_1_1_services_1_1_i_settings_service.html#ae7e408d07e4c31ff8cee83f391ceaa73" target="_top" xlink:title=" ">
<polygon fill="white" stroke="#666666" points="431.38,-44 253.38,-44 253.38,0 431.38,0 431.38,-44"/>
<text text-anchor="start" x="261.38" y="-30.5" font-family="Helvetica,sans-Serif" font-size="10.00">Deluxe.DeluxeBrandCenter.</text>
<text text-anchor="start" x="261.38" y="-18.5" font-family="Helvetica,sans-Serif" font-size="10.00">AMM.API.Services.ISettingsService.</text>
<text text-anchor="middle" x="342.38" y="-6.5" font-family="Helvetica,sans-Serif" font-size="10.00">SingleByName</text>
</a>
</g>
</g>
<!-- Node1&#45;&gt;Node7 -->
<g id="edge7_Node000001_Node000007" class="edge">
<title>Node1&#45;&gt;Node7</title>
<g id="a_edge7_Node000001_Node000007"><a xlink:title=" ">
<path fill="none" stroke="#63b8ff" d="M130.77,-123.59C157.44,-102.87 199.65,-72.45 240.25,-53 243.34,-51.52 246.51,-50.09 249.75,-48.72"/>
<polygon fill="#63b8ff" stroke="#63b8ff" points="250.86,-52.04 258.83,-45.06 248.24,-45.55 250.86,-52.04"/>
</a>
</g>
</g>
<!-- Node3 -->
<g id="Node000003" class="node">
<title>Node3</title>
<g id="a_Node000003"><a xlink:href="../../d8/d0b/class_deluxe_1_1_deluxe_brand_center_1_1_a_m_m_1_1_a_p_i_1_1_services_1_1_user_campaign_service.html#a9a30cd71462ec6d8f7c7dc0dba3acb79" target="_top" xlink:title=" ">
<polygon fill="white" stroke="#666666" points="698.25,-280 480.5,-280 480.5,-236 698.25,-236 698.25,-280"/>
<text text-anchor="start" x="488.5" y="-266.5" font-family="Helvetica,sans-Serif" font-size="10.00">Deluxe.DeluxeBrandCenter.</text>
<text text-anchor="start" x="488.5" y="-254.5" font-family="Helvetica,sans-Serif" font-size="10.00">AMM.API.Services.UserCampaignService.get</text>
<text text-anchor="middle" x="589.38" y="-242.5" font-family="Helvetica,sans-Serif" font-size="10.00">RouleValue</text>
</a>
</g>
</g>
<!-- Node2&#45;&gt;Node3 -->
<g id="edge2_Node000002_Node000003" class="edge">
<title>Node2&#45;&gt;Node3</title>
<g id="a_edge2_Node000002_Node000003"><a xlink:title=" ">
<path fill="none" stroke="#63b8ff" d="M444.79,-258C452.76,-258 460.84,-258 468.91,-258"/>
<polygon fill="#63b8ff" stroke="#63b8ff" points="468.78,-261.5 478.78,-258 468.78,-254.5 468.78,-261.5"/>
</a>
</g>
</g>
<!-- Node4&#45;&gt;Node5 -->
<g id="edge4_Node000004_Node000005" class="edge">
<title>Node4&#45;&gt;Node5</title>
<g id="a_edge4_Node000004_Node000005"><a xlink:title=" ">
<path fill="none" stroke="#63b8ff" d="M444.79,-185.65C455.04,-184.61 465.49,-183.54 475.85,-182.48"/>
<polygon fill="#63b8ff" stroke="#63b8ff" points="475.93,-185.99 485.53,-181.49 475.22,-179.03 475.93,-185.99"/>
</a>
</g>
</g>
</g>
</svg>
