<?xml version="1.0" encoding="UTF-8" standalone="no"?>
<!DOCTYPE svg PUBLIC "-//W3C//DTD SVG 1.1//EN"
 "http://www.w3.org/Graphics/SVG/1.1/DTD/svg11.dtd">
<!-- Generated by graphviz version 12.1.1 (20240910.0053)
 -->
<!-- Title: Deluxe.DeluxeBrandCenter.AMM.API.Services.MindfireService.MindfireService Pages: 1 -->
<svg width="643pt" height="139pt"
 viewBox="0.00 0.00 642.50 139.00" xmlns="http://www.w3.org/2000/svg" xmlns:xlink="http://www.w3.org/1999/xlink">
<g id="graph0" class="graph" transform="scale(1 1) rotate(0) translate(4 135)">
<title>Deluxe.DeluxeBrandCenter.AMM.API.Services.MindfireService.MindfireService</title>
<!-- Node1 -->
<g id="Node000001" class="node">
<title>Node1</title>
<g id="a_Node000001"><a xlink:title=" ">
<polygon fill="#999999" stroke="#666666" points="173.5,-106 0,-106 0,-62 173.5,-62 173.5,-106"/>
<text text-anchor="start" x="8" y="-92.5" font-family="Helvetica,sans-Serif" font-size="10.00">Deluxe.DeluxeBrandCenter.</text>
<text text-anchor="start" x="8" y="-80.5" font-family="Helvetica,sans-Serif" font-size="10.00">AMM.API.Services.MindfireService.</text>
<text text-anchor="middle" x="86.75" y="-68.5" font-family="Helvetica,sans-Serif" font-size="10.00">MindfireService</text>
</a>
</g>
</g>
<!-- Node2 -->
<g id="Node000002" class="node">
<title>Node2</title>
<g id="a_Node000002"><a xlink:href="../../dd/d7d/interface_deluxe_1_1_deluxe_brand_center_1_1_a_m_m_1_1_domain_1_1_services_1_1_i_session_service.html#a31fd07938dc12b3d600f3bd500d3aacd" target="_top" xlink:title=" ">
<polygon fill="white" stroke="#666666" points="634.5,-131 440,-131 440,-87 634.5,-87 634.5,-131"/>
<text text-anchor="start" x="448" y="-117.5" font-family="Helvetica,sans-Serif" font-size="10.00">Deluxe.DeluxeBrandCenter.</text>
<text text-anchor="start" x="448" y="-105.5" font-family="Helvetica,sans-Serif" font-size="10.00">AMM.Domain.Services.ISessionService.</text>
<text text-anchor="middle" x="537.25" y="-93.5" font-family="Helvetica,sans-Serif" font-size="10.00">SessionGetClientId</text>
</a>
</g>
</g>
<!-- Node1&#45;&gt;Node2 -->
<g id="edge1_Node000001_Node000002" class="edge">
<title>Node1&#45;&gt;Node2</title>
<g id="a_edge1_Node000001_Node000002"><a xlink:title=" ">
<path fill="none" stroke="#63b8ff" d="M163.83,-106.46C178.84,-110.01 194.57,-113.13 209.5,-115 282.13,-124.1 364.53,-122.51 428.42,-118.68"/>
<polygon fill="#63b8ff" stroke="#63b8ff" points="428.45,-122.19 438.21,-118.07 428.01,-115.2 428.45,-122.19"/>
</a>
</g>
</g>
<!-- Node3 -->
<g id="Node000003" class="node">
<title>Node3</title>
<g id="a_Node000003"><a xlink:href="../../dd/d7d/interface_deluxe_1_1_deluxe_brand_center_1_1_a_m_m_1_1_domain_1_1_services_1_1_i_session_service.html#acfcf18f3c8f0b4e9c334223ec33b588f" target="_top" xlink:title=" ">
<polygon fill="white" stroke="#666666" points="404,-106 209.5,-106 209.5,-62 404,-62 404,-106"/>
<text text-anchor="start" x="217.5" y="-92.5" font-family="Helvetica,sans-Serif" font-size="10.00">Deluxe.DeluxeBrandCenter.</text>
<text text-anchor="start" x="217.5" y="-80.5" font-family="Helvetica,sans-Serif" font-size="10.00">AMM.Domain.Services.ISessionService.</text>
<text text-anchor="middle" x="306.75" y="-68.5" font-family="Helvetica,sans-Serif" font-size="10.00">SessionGetUser</text>
</a>
</g>
</g>
<!-- Node1&#45;&gt;Node3 -->
<g id="edge2_Node000001_Node000003" class="edge">
<title>Node1&#45;&gt;Node3</title>
<g id="a_edge2_Node000001_Node000003"><a xlink:title=" ">
<path fill="none" stroke="#63b8ff" d="M173.91,-84C181.76,-84 189.77,-84 197.77,-84"/>
<polygon fill="#63b8ff" stroke="#63b8ff" points="197.55,-87.5 207.55,-84 197.55,-80.5 197.55,-87.5"/>
</a>
</g>
</g>
<!-- Node4 -->
<g id="Node000004" class="node">
<title>Node4</title>
<g id="a_Node000004"><a xlink:href="../../de/d03/class_deluxe_1_1_deluxe_brand_center_1_1_a_m_m_1_1_a_p_i_1_1_services_1_1_mindfire_service.html#a3b172efaa45a0d964004f54a2a465c81" target="_top" xlink:title=" ">
<polygon fill="white" stroke="#666666" points="393.5,-44 220,-44 220,0 393.5,0 393.5,-44"/>
<text text-anchor="start" x="228" y="-30.5" font-family="Helvetica,sans-Serif" font-size="10.00">Deluxe.DeluxeBrandCenter.</text>
<text text-anchor="start" x="228" y="-18.5" font-family="Helvetica,sans-Serif" font-size="10.00">AMM.API.Services.MindfireService.</text>
<text text-anchor="middle" x="306.75" y="-6.5" font-family="Helvetica,sans-Serif" font-size="10.00">SetUserCredentials</text>
</a>
</g>
</g>
<!-- Node1&#45;&gt;Node4 -->
<g id="edge3_Node000001_Node000004" class="edge">
<title>Node1&#45;&gt;Node4</title>
<g id="a_edge3_Node000001_Node000004"><a xlink:title=" ">
<path fill="none" stroke="#63b8ff" d="M166.76,-61.53C182.75,-56.98 199.68,-52.17 216.01,-47.52"/>
<polygon fill="#63b8ff" stroke="#63b8ff" points="216.53,-51.01 225.19,-44.91 214.61,-44.28 216.53,-51.01"/>
</a>
</g>
</g>
<!-- Node4&#45;&gt;Node2 -->
<g id="edge4_Node000004_Node000002" class="edge">
<title>Node4&#45;&gt;Node2</title>
<g id="a_edge4_Node000004_Node000002"><a xlink:title=" ">
<path fill="none" stroke="#63b8ff" d="M379.99,-44.5C388.13,-47.26 396.27,-50.12 404,-53 427.71,-61.82 453.39,-72.44 475.76,-82.05"/>
<polygon fill="#63b8ff" stroke="#63b8ff" points="474.16,-85.17 484.73,-85.93 476.94,-78.75 474.16,-85.17"/>
</a>
</g>
</g>
<!-- Node5 -->
<g id="Node000005" class="node">
<title>Node5</title>
<g id="a_Node000005"><a xlink:href="../../de/d03/class_deluxe_1_1_deluxe_brand_center_1_1_a_m_m_1_1_a_p_i_1_1_services_1_1_mindfire_service.html#a62cacf734cb82835cfb63fd0766ce223" target="_top" xlink:title=" ">
<polygon fill="white" stroke="#666666" points="624,-44 450.5,-44 450.5,0 624,0 624,-44"/>
<text text-anchor="start" x="458.5" y="-30.5" font-family="Helvetica,sans-Serif" font-size="10.00">Deluxe.DeluxeBrandCenter.</text>
<text text-anchor="start" x="458.5" y="-18.5" font-family="Helvetica,sans-Serif" font-size="10.00">AMM.API.Services.MindfireService.</text>
<text text-anchor="middle" x="537.25" y="-6.5" font-family="Helvetica,sans-Serif" font-size="10.00">SetUserTicket</text>
</a>
</g>
</g>
<!-- Node4&#45;&gt;Node5 -->
<g id="edge5_Node000004_Node000005" class="edge">
<title>Node4&#45;&gt;Node5</title>
<g id="a_edge5_Node000004_Node000005"><a xlink:title=" ">
<path fill="none" stroke="#63b8ff" d="M393.81,-22C408.53,-22 423.91,-22 438.9,-22"/>
<polygon fill="#63b8ff" stroke="#63b8ff" points="438.75,-25.5 448.75,-22 438.75,-18.5 438.75,-25.5"/>
</a>
</g>
</g>
</g>
</svg>
