<?xml version="1.0" encoding="UTF-8" standalone="no"?>
<!DOCTYPE svg PUBLIC "-//W3C//DTD SVG 1.1//EN"
 "http://www.w3.org/Graphics/SVG/1.1/DTD/svg11.dtd">
<!-- Generated by graphviz version 12.1.1 (20240910.0053)
 -->
<!-- Title: Deluxe.DeluxeBrandCenter.AMM.API.Services.UserCampaignService Pages: 1 -->
<!--zoomable 533 -->

<svg id="main" version="1.1" xmlns="http://www.w3.org/2000/svg" xmlns:xlink="http://www.w3.org/1999/xlink" xml:space="preserve" onload="init(evt)">

<style type="text/css"><![CDATA[
.node, .edge {opacity: 0.7;}
.node.selected, .edge.selected {opacity: 1;}
.edge:hover path { stroke: red; }
.edge:hover polygon { stroke: red; fill: red; }
]]></style>

<defs>
  <circle id="rim" cx="0" cy="0" r="7"/>
  <circle id="rim2" cx="0" cy="0" r="3.5"/>
  <g id="zoomPlus">
    <use xlink:href="#rim" fill="#404040"><set attributeName="fill" to="#808080" begin="zoomplus.mouseover" end="zoomplus.mouseout"/></use>
    <path d="M-4,0h8M0,-4v8" fill="none" stroke="white" stroke-width="1.5" pointer-events="none"/>
  </g>
  <g id="zoomMin">
    <use xlink:href="#rim" fill="#404040"><set attributeName="fill" to="#808080" begin="zoomminus.mouseover" end="zoomminus.mouseout"/></use>
    <path d="M-4,0h8" fill="none" stroke="white" stroke-width="1.5" pointer-events="none"/>
  </g>
  <g id="arrowUp" transform="translate(30 24)">
    <use xlink:href="#rim"/>
    <path pointer-events="none" fill="none" stroke="white" stroke-width="1.5" d="M0,-3.0v7 M-2.5,-0.5L0,-3.0L2.5,-0.5"/>
  </g>
  <g id="arrowRight" transform="rotate(90) translate(36 -43)">
    <use xlink:href="#rim"/>
    <path pointer-events="none" fill="none" stroke="white" stroke-width="1.5" d="M0,-3.0v7 M-2.5,-0.5L0,-3.0L2.5,-0.5"/>
  </g>
  <g id="arrowDown" transform="rotate(180) translate(-30 -48)">
    <use xlink:href="#rim"/>
    <path pointer-events="none" fill="none" stroke="white" stroke-width="1.5" d="M0,-3.0v7 M-2.5,-0.5L0,-3.0L2.5,-0.5"/>
  </g>
  <g id="arrowLeft" transform="rotate(270) translate(-36 17)">
    <use xlink:href="#rim"/>
    <path pointer-events="none" fill="none" stroke="white" stroke-width="1.5" d="M0,-3.0v7 M-2.5,-0.5L0,-3.0L2.5,-0.5"/>
  </g>
  <g id="resetDef">
    <use xlink:href="#rim2" fill="#404040"><set attributeName="fill" to="#808080" begin="reset.mouseover" end="reset.mouseout"/></use>
  </g>
</defs>
<script type="application/ecmascript">
var viewWidth = 1646;
var viewHeight = 533;
var sectionId = 'dynsection-1';
</script>
<script type="application/ecmascript" xlink:href="../../svg.min.js"/>
<svg id="graph" class="graph">
<g id="viewport">
<title>Deluxe.DeluxeBrandCenter.AMM.API.Services.UserCampaignService</title>
<!-- Node1 -->
<g id="Node000001" class="node">
<title>Node1</title>
<g id="a_Node000001"><a xlink:title=" ">
<polygon fill="#999999" stroke="#666666" points="1637.75,-290 1436.5,-290 1436.5,-258 1637.75,-258 1637.75,-290"/>
<text text-anchor="start" x="1444.5" y="-276.5" font-family="Helvetica,sans-Serif" font-size="10.00">Deluxe.DeluxeBrandCenter.</text>
<text text-anchor="middle" x="1537.12" y="-264.5" font-family="Helvetica,sans-Serif" font-size="10.00">AMM.API.Services.UserCampaignService</text>
</a>
</g>
</g>
<!-- Node2 -->
<g id="Node000002" class="node">
<title>Node2</title>
<g id="a_Node000002"><a xlink:href="../../dd/dd8/class_deluxe_1_1_deluxe_brand_center_1_1_a_m_m_1_1_a_p_i_1_1_services_1_1_named_db_service.html" target="_top" xlink:title=" ">
<polygon fill="white" stroke="#666666" points="1288.38,-506 1117.88,-506 1117.88,-474 1288.38,-474 1288.38,-506"/>
<text text-anchor="start" x="1125.88" y="-492.5" font-family="Helvetica,sans-Serif" font-size="10.00">NamedDbService&lt; UserCampaign,</text>
<text text-anchor="middle" x="1203.12" y="-480.5" font-family="Helvetica,sans-Serif" font-size="10.00"> UserCampaignVM &gt;</text>
</a>
</g>
</g>
<!-- Node2&#45;&gt;Node1 -->
<g id="edge1_Node000001_Node000002" class="edge">
<title>Node2&#45;&gt;Node1</title>
<g id="a_edge1_Node000001_Node000002"><a xlink:title=" ">
<path fill="none" stroke="#63b8ff" d="M1299.9,-476.06C1339.18,-466.99 1383.54,-452.15 1418.5,-428 1472.2,-390.9 1512.06,-321.59 1528.22,-290.2"/>
<polygon fill="#63b8ff" stroke="#63b8ff" points="1299.19,-472.63 1290.18,-478.2 1300.7,-479.47 1299.19,-472.63"/>
</a>
</g>
</g>
<!-- Node3 -->
<g id="Node000003" class="node">
<title>Node3</title>
<g id="a_Node000003"><a xlink:href="../../dd/dd8/class_deluxe_1_1_deluxe_brand_center_1_1_a_m_m_1_1_a_p_i_1_1_services_1_1_named_db_service.html" target="_top" xlink:title=" ">
<polygon fill="white" stroke="#666666" points="903,-469 722.75,-469 722.75,-425 903,-425 903,-469"/>
<text text-anchor="start" x="730.75" y="-455.5" font-family="Helvetica,sans-Serif" font-size="10.00">Deluxe.DeluxeBrandCenter.</text>
<text text-anchor="start" x="730.75" y="-443.5" font-family="Helvetica,sans-Serif" font-size="10.00">AMM.API.Services.NamedDbService</text>
<text text-anchor="middle" x="812.88" y="-431.5" font-family="Helvetica,sans-Serif" font-size="10.00">&lt; TModel, TModelVM &gt;</text>
</a>
</g>
</g>
<!-- Node3&#45;&gt;Node2 -->
<g id="edge2_Node000002_Node000003" class="edge">
<title>Node3&#45;&gt;Node2</title>
<g id="a_edge2_Node000002_Node000003"><a xlink:title=" ">
<path fill="none" stroke="orange" stroke-dasharray="5,2" d="M914.6,-458.16C977.65,-465.14 1057.96,-474.03 1117.67,-480.65"/>
<polygon fill="orange" stroke="orange" points="915.26,-454.71 904.94,-457.09 914.49,-461.67 915.26,-454.71"/>
</a>
</g>
<text text-anchor="middle" x="1007.25" y="-479.79" font-family="Helvetica,sans-Serif" font-size="10.00" fill="grey"> &lt; UserCampaign, UserCampaignVM &gt;</text>
</g>
<!-- Node4 -->
<g id="Node000004" class="node">
<title>Node4</title>
<g id="a_Node000004"><a xlink:href="../../d6/d4e/class_deluxe_1_1_deluxe_brand_center_1_1_a_m_m_1_1_a_p_i_1_1_services_1_1_d_b_service.html" target="_top" xlink:title=" ">
<polygon fill="white" stroke="#666666" points="476,-463 369.25,-463 369.25,-431 476,-431 476,-463"/>
<text text-anchor="start" x="377.25" y="-449.5" font-family="Helvetica,sans-Serif" font-size="10.00">DBService&lt; TModel,</text>
<text text-anchor="middle" x="422.62" y="-437.5" font-family="Helvetica,sans-Serif" font-size="10.00"> TModelVM &gt;</text>
</a>
</g>
</g>
<!-- Node4&#45;&gt;Node3 -->
<g id="edge3_Node000003_Node000004" class="edge">
<title>Node4&#45;&gt;Node3</title>
<g id="a_edge3_Node000003_Node000004"><a xlink:title=" ">
<path fill="none" stroke="#63b8ff" d="M487.52,-447C551.51,-447 650.53,-447 722.34,-447"/>
<polygon fill="#63b8ff" stroke="#63b8ff" points="487.9,-443.5 477.9,-447 487.9,-450.5 487.9,-443.5"/>
</a>
</g>
</g>
<!-- Node5 -->
<g id="Node000005" class="node">
<title>Node5</title>
<g id="a_Node000005"><a xlink:href="../../d3/ddb/interface_deluxe_1_1_deluxe_brand_center_1_1_a_m_m_1_1_a_p_i_1_1_services_1_1_i_d_b_service.html" target="_top" xlink:title=" ">
<polygon fill="white" stroke="#666666" points="150.62,-405 40.88,-405 40.88,-373 150.62,-373 150.62,-405"/>
<text text-anchor="start" x="48.88" y="-391.5" font-family="Helvetica,sans-Serif" font-size="10.00">IDBService&lt; TModel,</text>
<text text-anchor="middle" x="95.75" y="-379.5" font-family="Helvetica,sans-Serif" font-size="10.00"> TModelVM &gt;</text>
</a>
</g>
</g>
<!-- Node5&#45;&gt;Node4 -->
<g id="edge4_Node000004_Node000005" class="edge">
<title>Node5&#45;&gt;Node4</title>
<g id="a_edge4_Node000004_Node000005"><a xlink:title=" ">
<path fill="none" stroke="#63b8ff" d="M161.77,-400.61C222.59,-411.47 312.32,-427.49 368.83,-437.58"/>
<polygon fill="#63b8ff" stroke="#63b8ff" points="162.71,-397.22 152.25,-398.91 161.48,-404.11 162.71,-397.22"/>
</a>
</g>
</g>
<!-- Node8 -->
<g id="Node000008" class="node">
<title>Node8</title>
<g id="a_Node000008"><a xlink:href="../../d3/dac/interface_deluxe_1_1_deluxe_brand_center_1_1_a_m_m_1_1_a_p_i_1_1_services_1_1_i_named_db_service.html" target="_top" xlink:title=" ">
<polygon fill="white" stroke="#666666" points="492.5,-409 352.75,-409 352.75,-377 492.5,-377 492.5,-409"/>
<text text-anchor="start" x="360.75" y="-395.5" font-family="Helvetica,sans-Serif" font-size="10.00">INamedDbService&lt; TModel,</text>
<text text-anchor="middle" x="422.62" y="-383.5" font-family="Helvetica,sans-Serif" font-size="10.00"> TModelVM &gt;</text>
</a>
</g>
</g>
<!-- Node5&#45;&gt;Node8 -->
<g id="edge8_Node000008_Node000005" class="edge">
<title>Node5&#45;&gt;Node8</title>
<g id="a_edge8_Node000008_Node000005"><a xlink:title=" ">
<path fill="none" stroke="#63b8ff" d="M162.17,-389.81C217.39,-390.49 296.22,-391.46 352.47,-392.15"/>
<polygon fill="#63b8ff" stroke="#63b8ff" points="162.32,-386.31 152.27,-389.68 162.23,-393.31 162.32,-386.31"/>
</a>
</g>
</g>
<!-- Node22 -->
<g id="Node000022" class="node">
<title>Node22</title>
<g id="a_Node000022"><a xlink:href="../../d3/dac/interface_deluxe_1_1_deluxe_brand_center_1_1_a_m_m_1_1_a_p_i_1_1_services_1_1_i_named_db_service.html" target="_top" xlink:title=" ">
<polygon fill="white" stroke="#666666" points="514.25,-88 331,-88 331,-44 514.25,-44 514.25,-88"/>
<text text-anchor="start" x="339" y="-74.5" font-family="Helvetica,sans-Serif" font-size="10.00">Deluxe.DeluxeBrandCenter.</text>
<text text-anchor="start" x="339" y="-62.5" font-family="Helvetica,sans-Serif" font-size="10.00">AMM.API.Services.INamedDbService</text>
<text text-anchor="middle" x="422.62" y="-50.5" font-family="Helvetica,sans-Serif" font-size="10.00">&lt; TModel, TModelVM &gt;</text>
</a>
</g>
</g>
<!-- Node5&#45;&gt;Node22 -->
<g id="edge25_Node000022_Node000005" class="edge">
<title>Node5&#45;&gt;Node22</title>
<g id="a_edge25_Node000022_Node000005"><a xlink:title=" ">
<path fill="none" stroke="#63b8ff" d="M121.26,-364.63C182.33,-303.91 340.59,-146.56 399.29,-88.21"/>
<polygon fill="#63b8ff" stroke="#63b8ff" points="119,-361.94 114.38,-371.47 123.94,-366.9 119,-361.94"/>
</a>
</g>
</g>
<!-- Node6 -->
<g id="Node000006" class="node">
<title>Node6</title>
<g id="a_Node000006"><a xlink:href="../../da/d0c/interface_deluxe_1_1_deluxe_brand_center_1_1_a_m_m_1_1_infrastructure_1_1_social_1_1_i_social_network_service.html" target="_top" xlink:title=" ">
<polygon fill="white" stroke="#666666" points="177.25,-525 14.25,-525 14.25,-481 177.25,-481 177.25,-525"/>
<text text-anchor="start" x="22.25" y="-511.5" font-family="Helvetica,sans-Serif" font-size="10.00">Deluxe.DeluxeBrandCenter.</text>
<text text-anchor="start" x="22.25" y="-499.5" font-family="Helvetica,sans-Serif" font-size="10.00">AMM.Infrastructure.Social.ISocial</text>
<text text-anchor="middle" x="95.75" y="-487.5" font-family="Helvetica,sans-Serif" font-size="10.00">NetworkService</text>
</a>
</g>
</g>
<!-- Node6&#45;&gt;Node4 -->
<g id="edge5_Node000004_Node000006" class="edge">
<title>Node6&#45;&gt;Node4</title>
<g id="a_edge5_Node000004_Node000006"><a xlink:title=" ">
<path fill="none" stroke="#9a32cd" stroke-dasharray="5,2" d="M188.54,-487.18C246.78,-477.14 320.08,-464.5 368.77,-456.11"/>
<polygon fill="#9a32cd" stroke="#9a32cd" points="188.23,-483.68 178.97,-488.83 189.41,-490.58 188.23,-483.68"/>
</a>
</g>
<text text-anchor="middle" x="261.25" y="-485.79" font-family="Helvetica,sans-Serif" font-size="10.00" fill="grey"> _socialNetworkService</text>
</g>
<!-- Node7 -->
<g id="Node000007" class="node">
<title>Node7</title>
<g id="a_Node000007"><a xlink:href="../../dd/d7d/interface_deluxe_1_1_deluxe_brand_center_1_1_a_m_m_1_1_domain_1_1_services_1_1_i_session_service.html" target="_top" xlink:title=" ">
<polygon fill="white" stroke="#666666" points="191.5,-463 0,-463 0,-431 191.5,-431 191.5,-463"/>
<text text-anchor="start" x="8" y="-449.5" font-family="Helvetica,sans-Serif" font-size="10.00">Deluxe.DeluxeBrandCenter.</text>
<text text-anchor="middle" x="95.75" y="-437.5" font-family="Helvetica,sans-Serif" font-size="10.00">AMM.Domain.Services.ISessionService</text>
</a>
</g>
</g>
<!-- Node7&#45;&gt;Node4 -->
<g id="edge6_Node000004_Node000007" class="edge">
<title>Node7&#45;&gt;Node4</title>
<g id="a_edge6_Node000004_Node000007"><a xlink:title=" ">
<path fill="none" stroke="#9a32cd" stroke-dasharray="5,2" d="M202.94,-447C258.62,-447 324.35,-447 369.11,-447"/>
<polygon fill="#9a32cd" stroke="#9a32cd" points="203.1,-443.5 193.1,-447 203.1,-450.5 203.1,-443.5"/>
</a>
</g>
<text text-anchor="middle" x="261.25" y="-449.5" font-family="Helvetica,sans-Serif" font-size="10.00" fill="grey"> _sessionService</text>
</g>
<!-- Node8&#45;&gt;Node3 -->
<g id="edge7_Node000003_Node000008" class="edge">
<title>Node8&#45;&gt;Node3</title>
<g id="a_edge7_Node000003_Node000008"><a xlink:title=" ">
<path fill="none" stroke="#63b8ff" d="M503.77,-404.15C567.42,-413 656.38,-425.37 722.36,-434.55"/>
<polygon fill="#63b8ff" stroke="#63b8ff" points="504.47,-400.71 494.09,-402.8 503.51,-407.64 504.47,-400.71"/>
</a>
</g>
</g>
<!-- Node9 -->
<g id="Node000009" class="node">
<title>Node9</title>
<g id="a_Node000009"><a xlink:href="../../d9/daf/interface_deluxe_1_1_deluxe_brand_center_1_1_a_m_m_1_1_a_p_i_1_1_services_1_1_i_user_campaign_service.html" target="_top" xlink:title=" ">
<polygon fill="white" stroke="#666666" points="1261.75,-456 1144.5,-456 1144.5,-436 1261.75,-436 1261.75,-456"/>
<text text-anchor="middle" x="1203.12" y="-442.5" font-family="Helvetica,sans-Serif" font-size="10.00">IUserCampaignService</text>
</a>
</g>
</g>
<!-- Node9&#45;&gt;Node1 -->
<g id="edge9_Node000001_Node000009" class="edge">
<title>Node9&#45;&gt;Node1</title>
<g id="a_edge9_Node000001_Node000009"><a xlink:title=" ">
<path fill="none" stroke="#63b8ff" d="M1273.28,-440.27C1317.26,-434.2 1374.07,-421.71 1418.5,-396 1465.87,-368.59 1506.5,-316.61 1525.18,-290.23"/>
<polygon fill="#63b8ff" stroke="#63b8ff" points="1273.07,-436.77 1263.6,-441.52 1273.97,-443.71 1273.07,-436.77"/>
</a>
</g>
</g>
<!-- Node10 -->
<g id="Node000010" class="node">
<title>Node10</title>
<g id="a_Node000010"><a xlink:href="../../d3/ddb/interface_deluxe_1_1_deluxe_brand_center_1_1_a_m_m_1_1_a_p_i_1_1_services_1_1_i_d_b_service.html" target="_top" xlink:title=" ">
<polygon fill="white" stroke="#666666" points="884.62,-394 741.12,-394 741.12,-362 884.62,-362 884.62,-394"/>
<text text-anchor="start" x="749.12" y="-380.5" font-family="Helvetica,sans-Serif" font-size="10.00">IDBService&lt; UserCampaign,</text>
<text text-anchor="middle" x="812.88" y="-368.5" font-family="Helvetica,sans-Serif" font-size="10.00"> UserCampaignVM &gt;</text>
</a>
</g>
</g>
<!-- Node10&#45;&gt;Node9 -->
<g id="edge10_Node000009_Node000010" class="edge">
<title>Node10&#45;&gt;Node9</title>
<g id="a_edge10_Node000009_Node000010"><a xlink:title=" ">
<path fill="none" stroke="#63b8ff" d="M896.27,-392.43C970.67,-405.46 1078.28,-424.31 1144.03,-435.82"/>
<polygon fill="#63b8ff" stroke="#63b8ff" points="897.03,-389.01 886.58,-390.73 895.82,-395.91 897.03,-389.01"/>
</a>
</g>
</g>
<!-- Node11 -->
<g id="Node000011" class="node">
<title>Node11</title>
<g id="a_Node000011"><a xlink:href="../../d3/ddb/interface_deluxe_1_1_deluxe_brand_center_1_1_a_m_m_1_1_a_p_i_1_1_services_1_1_i_d_b_service.html" target="_top" xlink:title=" ">
<polygon fill="white" stroke="#666666" points="499.25,-324 346,-324 346,-280 499.25,-280 499.25,-324"/>
<text text-anchor="start" x="354" y="-310.5" font-family="Helvetica,sans-Serif" font-size="10.00">Deluxe.DeluxeBrandCenter.</text>
<text text-anchor="start" x="354" y="-298.5" font-family="Helvetica,sans-Serif" font-size="10.00">AMM.API.Services.IDBService</text>
<text text-anchor="middle" x="422.62" y="-286.5" font-family="Helvetica,sans-Serif" font-size="10.00">&lt; TModel, TModelVM &gt;</text>
</a>
</g>
</g>
<!-- Node11&#45;&gt;Node10 -->
<g id="edge11_Node000010_Node000011" class="edge">
<title>Node11&#45;&gt;Node10</title>
<g id="a_edge11_Node000010_Node000011"><a xlink:title=" ">
<path fill="none" stroke="orange" stroke-dasharray="5,2" d="M510.31,-318.97C579.74,-332.56 675.95,-351.39 740.87,-364.1"/>
<polygon fill="orange" stroke="orange" points="511.38,-315.61 500.89,-317.12 510.03,-322.48 511.38,-315.61"/>
</a>
</g>
<text text-anchor="middle" x="618.5" y="-358.04" font-family="Helvetica,sans-Serif" font-size="10.00" fill="grey"> &lt; UserCampaign, UserCampaignVM &gt;</text>
</g>
<!-- Node15 -->
<g id="Node000015" class="node">
<title>Node15</title>
<g id="a_Node000015"><a xlink:href="../../d3/ddb/interface_deluxe_1_1_deluxe_brand_center_1_1_a_m_m_1_1_a_p_i_1_1_services_1_1_i_d_b_service.html" target="_top" xlink:title=" ">
<polygon fill="white" stroke="#666666" points="871.5,-318 754.25,-318 754.25,-286 871.5,-286 871.5,-318"/>
<text text-anchor="start" x="762.25" y="-304.5" font-family="Helvetica,sans-Serif" font-size="10.00">IDBService&lt; Template,</text>
<text text-anchor="middle" x="812.88" y="-292.5" font-family="Helvetica,sans-Serif" font-size="10.00"> TemplateVM &gt;</text>
</a>
</g>
</g>
<!-- Node11&#45;&gt;Node15 -->
<g id="edge16_Node000015_Node000011" class="edge">
<title>Node11&#45;&gt;Node15</title>
<g id="a_edge16_Node000015_Node000011"><a xlink:title=" ">
<path fill="none" stroke="orange" stroke-dasharray="5,2" d="M510.59,-302C584.85,-302 689.58,-302 753.98,-302"/>
<polygon fill="orange" stroke="orange" points="510.92,-298.5 500.92,-302 510.92,-305.5 510.92,-298.5"/>
</a>
</g>
<text text-anchor="middle" x="618.5" y="-304.5" font-family="Helvetica,sans-Serif" font-size="10.00" fill="grey"> &lt; Template, TemplateVM &gt;</text>
</g>
<!-- Node19 -->
<g id="Node000019" class="node">
<title>Node19</title>
<g id="a_Node000019"><a xlink:href="../../d3/ddb/interface_deluxe_1_1_deluxe_brand_center_1_1_a_m_m_1_1_a_p_i_1_1_services_1_1_i_d_b_service.html" target="_top" xlink:title=" ">
<polygon fill="white" stroke="#666666" points="885,-188 740.75,-188 740.75,-156 885,-156 885,-188"/>
<text text-anchor="start" x="748.75" y="-174.5" font-family="Helvetica,sans-Serif" font-size="10.00">IDBService&lt; SignatureBlock,</text>
<text text-anchor="middle" x="812.88" y="-162.5" font-family="Helvetica,sans-Serif" font-size="10.00"> SignatureBlockVM &gt;</text>
</a>
</g>
</g>
<!-- Node11&#45;&gt;Node19 -->
<g id="edge21_Node000019_Node000011" class="edge">
<title>Node11&#45;&gt;Node19</title>
<g id="a_edge21_Node000019_Node000011"><a xlink:title=" ">
<path fill="none" stroke="orange" stroke-dasharray="5,2" d="M501.53,-275.91C579.45,-249.82 696.91,-210.49 762.72,-188.46"/>
<polygon fill="orange" stroke="orange" points="500.62,-272.53 492.24,-279.02 502.84,-279.17 500.62,-272.53"/>
</a>
</g>
<text text-anchor="start" x="555.88" y="-278.09" font-family="Helvetica,sans-Serif" font-size="10.00" fill="grey"> &lt; SignatureBlock, Signature</text>
<text text-anchor="middle" x="618.5" y="-266.09" font-family="Helvetica,sans-Serif" font-size="10.00" fill="grey">BlockVM &gt;</text>
</g>
<!-- Node12 -->
<g id="Node000012" class="node">
<title>Node12</title>
<g id="a_Node000012"><a xlink:href="../../d2/dd7/interface_deluxe_1_1_deluxe_brand_center_1_1_a_m_m_1_1_a_p_i_1_1_services_1_1_i_mindfire_service.html" target="_top" xlink:title=" ">
<polygon fill="white" stroke="#666666" points="1289.88,-418 1116.38,-418 1116.38,-386 1289.88,-386 1289.88,-418"/>
<text text-anchor="start" x="1124.38" y="-404.5" font-family="Helvetica,sans-Serif" font-size="10.00">Deluxe.DeluxeBrandCenter.</text>
<text text-anchor="middle" x="1203.12" y="-392.5" font-family="Helvetica,sans-Serif" font-size="10.00">AMM.API.Services.IMindfireService</text>
</a>
</g>
</g>
<!-- Node12&#45;&gt;Node1 -->
<g id="edge12_Node000001_Node000012" class="edge">
<title>Node12&#45;&gt;Node1</title>
<g id="a_edge12_Node000001_Node000012"><a xlink:title=" ">
<path fill="none" stroke="#9a32cd" stroke-dasharray="5,2" d="M1301.27,-383.67C1338.75,-374.91 1381.43,-362.82 1418.5,-347 1454.09,-331.81 1491.44,-306.86 1514.26,-290.42"/>
<polygon fill="#9a32cd" stroke="#9a32cd" points="1300.78,-380.19 1291.81,-385.83 1302.34,-387.01 1300.78,-380.19"/>
</a>
</g>
<text text-anchor="middle" x="1365.62" y="-382.83" font-family="Helvetica,sans-Serif" font-size="10.00" fill="grey"> _mindfireService</text>
</g>
<!-- Node13 -->
<g id="Node000013" class="node">
<title>Node13</title>
<g id="a_Node000013"><a xlink:href="../../db/dc5/interface_deluxe_1_1_deluxe_brand_center_1_1_a_m_m_1_1_a_p_i_1_1_services_1_1_i_persona_service.html" target="_top" xlink:title=" ">
<polygon fill="white" stroke="#666666" points="1290.62,-368 1115.62,-368 1115.62,-336 1290.62,-336 1290.62,-368"/>
<text text-anchor="start" x="1123.62" y="-354.5" font-family="Helvetica,sans-Serif" font-size="10.00">Deluxe.DeluxeBrandCenter.</text>
<text text-anchor="middle" x="1203.12" y="-342.5" font-family="Helvetica,sans-Serif" font-size="10.00">AMM.API.Services.IPersonaService</text>
</a>
</g>
</g>
<!-- Node13&#45;&gt;Node1 -->
<g id="edge13_Node000001_Node000013" class="edge">
<title>Node13&#45;&gt;Node1</title>
<g id="a_edge13_Node000001_Node000013"><a xlink:title=" ">
<path fill="none" stroke="#9a32cd" stroke-dasharray="5,2" d="M1302.24,-333.56C1338.87,-326.23 1380.72,-317.32 1418.5,-308 1439.55,-302.81 1462.5,-296.35 1482.49,-290.47"/>
<polygon fill="#9a32cd" stroke="#9a32cd" points="1301.66,-330.1 1292.53,-335.48 1303.02,-336.97 1301.66,-330.1"/>
</a>
</g>
<text text-anchor="middle" x="1365.62" y="-333.81" font-family="Helvetica,sans-Serif" font-size="10.00" fill="grey"> _personaService</text>
</g>
<!-- Node14 -->
<g id="Node000014" class="node">
<title>Node14</title>
<g id="a_Node000014"><a xlink:href="../../d0/ddb/interface_deluxe_1_1_deluxe_brand_center_1_1_a_m_m_1_1_a_p_i_1_1_services_1_1_i_template_service.html" target="_top" xlink:title=" ">
<polygon fill="white" stroke="#666666" points="1292.5,-318 1113.75,-318 1113.75,-286 1292.5,-286 1292.5,-318"/>
<text text-anchor="start" x="1121.75" y="-304.5" font-family="Helvetica,sans-Serif" font-size="10.00">Deluxe.DeluxeBrandCenter.</text>
<text text-anchor="middle" x="1203.12" y="-292.5" font-family="Helvetica,sans-Serif" font-size="10.00">AMM.API.Services.ITemplateService</text>
</a>
</g>
</g>
<!-- Node14&#45;&gt;Node1 -->
<g id="edge14_Node000001_Node000014" class="edge">
<title>Node14&#45;&gt;Node1</title>
<g id="a_edge14_Node000001_Node000014"><a xlink:title=" ">
<path fill="none" stroke="#9a32cd" stroke-dasharray="5,2" d="M1303.98,-293.58C1345.79,-290.05 1394.29,-285.96 1436.12,-282.43"/>
<polygon fill="#9a32cd" stroke="#9a32cd" points="1303.84,-290.08 1294.17,-294.41 1304.43,-297.05 1303.84,-290.08"/>
</a>
</g>
<text text-anchor="middle" x="1365.62" y="-294.64" font-family="Helvetica,sans-Serif" font-size="10.00" fill="grey"> _templateService</text>
</g>
<!-- Node15&#45;&gt;Node14 -->
<g id="edge15_Node000014_Node000015" class="edge">
<title>Node15&#45;&gt;Node14</title>
<g id="a_edge15_Node000014_Node000015"><a xlink:title=" ">
<path fill="none" stroke="#63b8ff" d="M883.22,-302C947.5,-302 1043.46,-302 1113.32,-302"/>
<polygon fill="#63b8ff" stroke="#63b8ff" points="883.51,-298.5 873.51,-302 883.51,-305.5 883.51,-298.5"/>
</a>
</g>
</g>
<!-- Node16 -->
<g id="Node000016" class="node">
<title>Node16</title>
<g id="a_Node000016"><a xlink:href="../../df/db6/interface_deluxe_1_1_deluxe_brand_center_1_1_a_m_m_1_1_infrastructure_1_1_a_w_s_1_1_s3_1_1_i_amazon_s3_service.html" target="_top" xlink:title=" ">
<polygon fill="white" stroke="#666666" points="1294.38,-268 1111.88,-268 1111.88,-224 1294.38,-224 1294.38,-268"/>
<text text-anchor="start" x="1119.88" y="-254.5" font-family="Helvetica,sans-Serif" font-size="10.00">Deluxe.DeluxeBrandCenter.</text>
<text text-anchor="start" x="1119.88" y="-242.5" font-family="Helvetica,sans-Serif" font-size="10.00">AMM.Infrastructure.AWS.S3.IAmazon</text>
<text text-anchor="middle" x="1203.12" y="-230.5" font-family="Helvetica,sans-Serif" font-size="10.00">S3Service</text>
</a>
</g>
</g>
<!-- Node16&#45;&gt;Node1 -->
<g id="edge17_Node000001_Node000016" class="edge">
<title>Node16&#45;&gt;Node1</title>
<g id="a_edge17_Node000001_Node000016"><a xlink:title=" ">
<path fill="none" stroke="#9a32cd" stroke-dasharray="5,2" d="M1306.32,-254.62C1347.61,-258.1 1395.11,-262.11 1436.18,-265.57"/>
<polygon fill="#9a32cd" stroke="#9a32cd" points="1306.61,-251.13 1296.35,-253.78 1306.02,-258.11 1306.61,-251.13"/>
</a>
</g>
<text text-anchor="middle" x="1365.62" y="-265.83" font-family="Helvetica,sans-Serif" font-size="10.00" fill="grey"> _amazonS3Service</text>
</g>
<!-- Node17 -->
<g id="Node000017" class="node">
<title>Node17</title>
<g id="a_Node000017"><a xlink:href="../../d3/d78/interface_deluxe_1_1_deluxe_brand_center_1_1_a_m_m_1_1_infrastructure_1_1_p_m_s_1_1_i_persona_microservice.html" target="_top" xlink:title=" ">
<polygon fill="white" stroke="#666666" points="1286.5,-206 1119.75,-206 1119.75,-162 1286.5,-162 1286.5,-206"/>
<text text-anchor="start" x="1127.75" y="-192.5" font-family="Helvetica,sans-Serif" font-size="10.00">Deluxe.DeluxeBrandCenter.</text>
<text text-anchor="start" x="1127.75" y="-180.5" font-family="Helvetica,sans-Serif" font-size="10.00">AMM.Infrastructure.PMS.IPersona</text>
<text text-anchor="middle" x="1203.12" y="-168.5" font-family="Helvetica,sans-Serif" font-size="10.00">Microservice</text>
</a>
</g>
</g>
<!-- Node17&#45;&gt;Node1 -->
<g id="edge18_Node000001_Node000017" class="edge">
<title>Node17&#45;&gt;Node1</title>
<g id="a_edge18_Node000001_Node000017"><a xlink:title=" ">
<path fill="none" stroke="#9a32cd" stroke-dasharray="5,2" d="M1297.91,-207.94C1335.46,-217.67 1379.09,-229.16 1418.5,-240 1438.69,-245.55 1460.75,-251.87 1480.27,-257.53"/>
<polygon fill="#9a32cd" stroke="#9a32cd" points="1298.99,-204.6 1288.44,-205.49 1297.24,-211.38 1298.99,-204.6"/>
</a>
</g>
<text text-anchor="middle" x="1365.62" y="-242.5" font-family="Helvetica,sans-Serif" font-size="10.00" fill="grey"> _personaMicroservice</text>
</g>
<!-- Node18 -->
<g id="Node000018" class="node">
<title>Node18</title>
<g id="a_Node000018"><a xlink:href="../../dd/d36/interface_deluxe_1_1_deluxe_brand_center_1_1_a_m_m_1_1_a_p_i_1_1_services_1_1_i_signature_block_service.html" target="_top" xlink:title=" ">
<polygon fill="white" stroke="#666666" points="1289.12,-144 1117.12,-144 1117.12,-100 1289.12,-100 1289.12,-144"/>
<text text-anchor="start" x="1125.12" y="-130.5" font-family="Helvetica,sans-Serif" font-size="10.00">Deluxe.DeluxeBrandCenter.</text>
<text text-anchor="start" x="1125.12" y="-118.5" font-family="Helvetica,sans-Serif" font-size="10.00">AMM.API.Services.ISignatureBlock</text>
<text text-anchor="middle" x="1203.12" y="-106.5" font-family="Helvetica,sans-Serif" font-size="10.00">Service</text>
</a>
</g>
</g>
<!-- Node18&#45;&gt;Node1 -->
<g id="edge19_Node000001_Node000018" class="edge">
<title>Node18&#45;&gt;Node1</title>
<g id="a_edge19_Node000001_Node000018"><a xlink:title=" ">
<path fill="none" stroke="#9a32cd" stroke-dasharray="5,2" d="M1280.53,-148.11C1285.35,-149.76 1290.11,-151.4 1294.75,-153 1349.8,-171.98 1366.33,-170.15 1418.5,-196 1454.29,-213.73 1492.19,-240.5 1515,-257.62"/>
<polygon fill="#9a32cd" stroke="#9a32cd" points="1282,-144.91 1271.4,-144.97 1279.72,-151.53 1282,-144.91"/>
</a>
</g>
<text text-anchor="middle" x="1365.62" y="-198.5" font-family="Helvetica,sans-Serif" font-size="10.00" fill="grey"> _signatureBlockService</text>
</g>
<!-- Node19&#45;&gt;Node18 -->
<g id="edge20_Node000018_Node000019" class="edge">
<title>Node19&#45;&gt;Node18</title>
<g id="a_edge20_Node000018_Node000019"><a xlink:title=" ">
<path fill="none" stroke="#63b8ff" d="M896.48,-161.36C961.32,-153.01 1051.28,-141.43 1116.81,-132.99"/>
<polygon fill="#63b8ff" stroke="#63b8ff" points="896.06,-157.89 886.59,-162.64 896.95,-164.83 896.06,-157.89"/>
</a>
</g>
</g>
<!-- Node20 -->
<g id="Node000020" class="node">
<title>Node20</title>
<g id="a_Node000020"><a xlink:href="../../d7/d95/interface_deluxe_1_1_deluxe_brand_center_1_1_a_m_m_1_1_a_p_i_1_1_services_1_1_i_campaign_service.html" target="_top" xlink:title=" ">
<polygon fill="white" stroke="#666666" points="1294.75,-82 1111.5,-82 1111.5,-50 1294.75,-50 1294.75,-82"/>
<text text-anchor="start" x="1119.5" y="-68.5" font-family="Helvetica,sans-Serif" font-size="10.00">Deluxe.DeluxeBrandCenter.</text>
<text text-anchor="middle" x="1203.12" y="-56.5" font-family="Helvetica,sans-Serif" font-size="10.00">AMM.API.Services.ICampaignService</text>
</a>
</g>
</g>
<!-- Node20&#45;&gt;Node1 -->
<g id="edge22_Node000001_Node000020" class="edge">
<title>Node20&#45;&gt;Node1</title>
<g id="a_edge22_Node000001_Node000020"><a xlink:title=" ">
<path fill="none" stroke="#9a32cd" stroke-dasharray="5,2" d="M1291.23,-85.57C1332.37,-97.63 1380.64,-116.06 1418.5,-143 1465.07,-176.14 1506.37,-230.76 1525.25,-257.8"/>
<polygon fill="#9a32cd" stroke="#9a32cd" points="1292.41,-82.27 1281.84,-82.9 1290.5,-89 1292.41,-82.27"/>
</a>
</g>
<text text-anchor="middle" x="1365.62" y="-145.5" font-family="Helvetica,sans-Serif" font-size="10.00" fill="grey"> _campaignService</text>
</g>
<!-- Node21 -->
<g id="Node000021" class="node">
<title>Node21</title>
<g id="a_Node000021"><a xlink:href="../../d3/dac/interface_deluxe_1_1_deluxe_brand_center_1_1_a_m_m_1_1_a_p_i_1_1_services_1_1_i_named_db_service.html" target="_top" xlink:title=" ">
<polygon fill="white" stroke="#666666" points="889.12,-82 736.62,-82 736.62,-50 889.12,-50 889.12,-82"/>
<text text-anchor="start" x="744.62" y="-68.5" font-family="Helvetica,sans-Serif" font-size="10.00">INamedDbService&lt; Campaign,</text>
<text text-anchor="middle" x="812.88" y="-56.5" font-family="Helvetica,sans-Serif" font-size="10.00"> CampaignVM &gt;</text>
</a>
</g>
</g>
<!-- Node21&#45;&gt;Node20 -->
<g id="edge23_Node000020_Node000021" class="edge">
<title>Node21&#45;&gt;Node20</title>
<g id="a_edge23_Node000020_Node000021"><a xlink:title=" ">
<path fill="none" stroke="#63b8ff" d="M900.63,-66C963.3,-66 1047.73,-66 1111.31,-66"/>
<polygon fill="#63b8ff" stroke="#63b8ff" points="900.71,-62.5 890.71,-66 900.71,-69.5 900.71,-62.5"/>
</a>
</g>
</g>
<!-- Node22&#45;&gt;Node21 -->
<g id="edge24_Node000021_Node000022" class="edge">
<title>Node22&#45;&gt;Node21</title>
<g id="a_edge24_Node000021_Node000022"><a xlink:title=" ">
<path fill="none" stroke="orange" stroke-dasharray="5,2" d="M525.92,-66C591.97,-66 676.45,-66 736.42,-66"/>
<polygon fill="orange" stroke="orange" points="526.17,-62.5 516.17,-66 526.17,-69.5 526.17,-62.5"/>
</a>
</g>
<text text-anchor="middle" x="618.5" y="-68.5" font-family="Helvetica,sans-Serif" font-size="10.00" fill="grey"> &lt; Campaign, CampaignVM &gt;</text>
</g>
<!-- Node24 -->
<g id="Node000024" class="node">
<title>Node24</title>
<g id="a_Node000024"><a xlink:href="../../d3/dac/interface_deluxe_1_1_deluxe_brand_center_1_1_a_m_m_1_1_a_p_i_1_1_services_1_1_i_named_db_service.html" target="_top" xlink:title=" ">
<polygon fill="white" stroke="#666666" points="885,-32 740.75,-32 740.75,0 885,0 885,-32"/>
<text text-anchor="start" x="748.75" y="-18.5" font-family="Helvetica,sans-Serif" font-size="10.00">INamedDbService&lt; Settings,</text>
<text text-anchor="middle" x="812.88" y="-6.5" font-family="Helvetica,sans-Serif" font-size="10.00"> SettingsVM &gt;</text>
</a>
</g>
</g>
<!-- Node22&#45;&gt;Node24 -->
<g id="edge28_Node000024_Node000022" class="edge">
<title>Node22&#45;&gt;Node24</title>
<g id="a_edge28_Node000024_Node000022"><a xlink:title=" ">
<path fill="none" stroke="orange" stroke-dasharray="5,2" d="M525.98,-50.85C528.09,-50.56 530.18,-50.28 532.25,-50 602.89,-40.5 683.73,-30.8 740.26,-24.2"/>
<polygon fill="orange" stroke="orange" points="525.5,-47.38 516.08,-52.22 526.46,-54.32 525.5,-47.38"/>
</a>
</g>
<text text-anchor="middle" x="618.5" y="-52.5" font-family="Helvetica,sans-Serif" font-size="10.00" fill="grey"> &lt; Settings, SettingsVM &gt;</text>
</g>
<!-- Node23 -->
<g id="Node000023" class="node">
<title>Node23</title>
<g id="a_Node000023"><a xlink:href="../../d3/d8e/interface_deluxe_1_1_deluxe_brand_center_1_1_a_m_m_1_1_a_p_i_1_1_services_1_1_i_settings_service.html" target="_top" xlink:title=" ">
<polygon fill="white" stroke="#666666" points="1290.62,-32 1115.62,-32 1115.62,0 1290.62,0 1290.62,-32"/>
<text text-anchor="start" x="1123.62" y="-18.5" font-family="Helvetica,sans-Serif" font-size="10.00">Deluxe.DeluxeBrandCenter.</text>
<text text-anchor="middle" x="1203.12" y="-6.5" font-family="Helvetica,sans-Serif" font-size="10.00">AMM.API.Services.ISettingsService</text>
</a>
</g>
</g>
<!-- Node23&#45;&gt;Node1 -->
<g id="edge26_Node000001_Node000023" class="edge">
<title>Node23&#45;&gt;Node1</title>
<g id="a_edge26_Node000001_Node000023"><a xlink:title=" ">
<path fill="none" stroke="#9a32cd" stroke-dasharray="5,2" d="M1302.21,-27.29C1341.46,-35.71 1385.17,-50.39 1418.5,-76 1482.38,-125.09 1518.57,-219.57 1531.09,-257.57"/>
<polygon fill="#9a32cd" stroke="#9a32cd" points="1302.98,-23.88 1292.49,-25.33 1301.6,-30.74 1302.98,-23.88"/>
</a>
</g>
<text text-anchor="middle" x="1365.62" y="-78.5" font-family="Helvetica,sans-Serif" font-size="10.00" fill="grey"> _settingsService</text>
</g>
<!-- Node24&#45;&gt;Node23 -->
<g id="edge27_Node000023_Node000024" class="edge">
<title>Node24&#45;&gt;Node23</title>
<g id="a_edge27_Node000023_Node000024"><a xlink:title=" ">
<path fill="none" stroke="#63b8ff" d="M896.4,-16C960.79,-16 1049.98,-16 1115.41,-16"/>
<polygon fill="#63b8ff" stroke="#63b8ff" points="896.6,-12.5 886.6,-16 896.6,-19.5 896.6,-12.5"/>
</a>
</g>
</g>
</g>
</svg>

<g id="navigator" transform="translate(0 0)" fill="#404254">
  <rect fill="#f2f5e9" fill-opacity="0.5" stroke="#606060" stroke-width=".5" x="0" y="0" width="60" height="60"/>
  <use id="zoomplus" xlink:href="#zoomPlus" x="17" y="9" onmousedown="handleZoom(evt,'in')"/>
  <use id="zoomminus" xlink:href="#zoomMin" x="42" y="9" onmousedown="handleZoom(evt,'out')"/>
  <use id="reset" xlink:href="#resetDef" x="30" y="36" onmousedown="handleReset()"/>
   <use id="arrowup" xlink:href="#arrowUp" x="0" y="0" onmousedown="handlePan(0,-1)"/>
  <use id="arrowright" xlink:href="#arrowRight" x="0" y="0" onmousedown="handlePan(1,0)"/>
  <use id="arrowdown" xlink:href="#arrowDown" x="0" y="0" onmousedown="handlePan(0,1)"/>
  <use id="arrowleft" xlink:href="#arrowLeft" x="0" y="0" onmousedown="handlePan(-1,0)"/>
</g>
<svg viewBox="0 0 15 15" width="100%" height="30px" preserveAspectRatio="xMaxYMin meet">
 <g id="arrow_out" transform="scale(0.3 0.3)">
  <a xlink:href="class_deluxe_1_1_deluxe_brand_center_1_1_a_m_m_1_1_a_p_i_1_1_services_1_1_user_campaign_service__coll__graph_org.svg" target="_base">
   <rect id="button" ry="5" rx="5" y="6" x="6" height="38" width="38"
        fill="#f2f5e9" fill-opacity="0.5" stroke="#606060" stroke-width="1.0"/>
   <path id="arrow"
     d="M 11.500037,31.436501 C 11.940474,20.09759 22.043105,11.32322 32.158766,21.979434 L 37.068811,17.246167 C 37.068811,17.246167 37.088388,32 37.088388,32 L 22.160133,31.978069 C 22.160133,31.978069 26.997745,27.140456 26.997745,27.140456 C 18.528582,18.264221 13.291696,25.230495 11.500037,31.436501 z"
     style="fill:#404040;"/>
  </a>
 </g>
</svg>

<style type='text/css'>
<![CDATA[
[data-mouse-over-selected='false'] { opacity: 0.7; }
[data-mouse-over-selected='true']  { opacity: 1.0; }
]]>
</style>
<script type="application/ecmascript"><![CDATA[
document.addEventListener('DOMContentLoaded', (event) => {
  highlightEdges();
  highlightAdjacentNodes();
});
]]></script>
</svg>
