<?xml version="1.0" encoding="UTF-8" standalone="no"?>
<!DOCTYPE svg PUBLIC "-//W3C//DTD SVG 1.1//EN"
 "http://www.w3.org/Graphics/SVG/1.1/DTD/svg11.dtd">
<!-- Generated by graphviz version 12.1.1 (20240910.0053)
 -->
<!-- Title: Deluxe.DeluxeBrandCenter.AMM.ScriptRunner.Services.Scripts.UpdateBillingCodes Pages: 1 -->
<svg width="1037pt" height="302pt"
 viewBox="0.00 0.00 1036.75 302.00" xmlns="http://www.w3.org/2000/svg" xmlns:xlink="http://www.w3.org/1999/xlink">
<g id="graph0" class="graph" transform="scale(1 1) rotate(0) translate(4 298)">
<title>Deluxe.DeluxeBrandCenter.AMM.ScriptRunner.Services.Scripts.UpdateBillingCodes</title>
<!-- Node1 -->
<g id="Node000001" class="node">
<title>Node1</title>
<g id="a_Node000001"><a xlink:title=" ">
<polygon fill="#999999" stroke="#666666" points="1028.75,-106 851.5,-106 851.5,-62 1028.75,-62 1028.75,-106"/>
<text text-anchor="start" x="859.5" y="-92.5" font-family="Helvetica,sans-Serif" font-size="10.00">Deluxe.DeluxeBrandCenter.</text>
<text text-anchor="start" x="859.5" y="-80.5" font-family="Helvetica,sans-Serif" font-size="10.00">AMM.ScriptRunner.Services.Scripts.</text>
<text text-anchor="middle" x="940.12" y="-68.5" font-family="Helvetica,sans-Serif" font-size="10.00">UpdateBillingCodes</text>
</a>
</g>
</g>
<!-- Node2 -->
<g id="Node000002" class="node">
<title>Node2</title>
<g id="a_Node000002"><a xlink:href="../../d9/d9b/class_deluxe_1_1_deluxe_brand_center_1_1_a_m_m_1_1_script_runner_1_1_services_1_1_script.html" target="_top" xlink:title=" ">
<polygon fill="white" stroke="#666666" points="719.5,-230 558.75,-230 558.75,-198 719.5,-198 719.5,-230"/>
<text text-anchor="start" x="566.75" y="-216.5" font-family="Helvetica,sans-Serif" font-size="10.00">Script&lt; CsvLogCampaignScript</text>
<text text-anchor="middle" x="639.12" y="-204.5" font-family="Helvetica,sans-Serif" font-size="10.00">Entry, UpdateBillingCodesData &gt;</text>
</a>
</g>
</g>
<!-- Node2&#45;&gt;Node1 -->
<g id="edge1_Node000001_Node000002" class="edge">
<title>Node2&#45;&gt;Node1</title>
<g id="a_edge1_Node000001_Node000002"><a xlink:title=" ">
<path fill="none" stroke="#63b8ff" d="M688.44,-192.99C743.06,-169.25 831.63,-130.74 887.55,-106.42"/>
<polygon fill="#63b8ff" stroke="#63b8ff" points="687.16,-189.73 679.38,-196.93 689.95,-196.15 687.16,-189.73"/>
</a>
</g>
</g>
<!-- Node3 -->
<g id="Node000003" class="node">
<title>Node3</title>
<g id="a_Node000003"><a xlink:href="../../d9/d9b/class_deluxe_1_1_deluxe_brand_center_1_1_a_m_m_1_1_script_runner_1_1_services_1_1_script.html" target="_top" xlink:title=" ">
<polygon fill="white" stroke="#666666" points="336,-294 167,-294 167,-250 336,-250 336,-294"/>
<text text-anchor="start" x="175" y="-280.5" font-family="Helvetica,sans-Serif" font-size="10.00">Deluxe.DeluxeBrandCenter.</text>
<text text-anchor="start" x="175" y="-268.5" font-family="Helvetica,sans-Serif" font-size="10.00">AMM.ScriptRunner.Services.Script</text>
<text text-anchor="middle" x="251.5" y="-256.5" font-family="Helvetica,sans-Serif" font-size="10.00">&lt; CsvLogEntryType, DataType &gt;</text>
</a>
</g>
</g>
<!-- Node3&#45;&gt;Node2 -->
<g id="edge2_Node000002_Node000003" class="edge">
<title>Node3&#45;&gt;Node2</title>
<g id="a_edge2_Node000002_Node000003"><a xlink:title=" ">
<path fill="none" stroke="orange" stroke-dasharray="5,2" d="M347.22,-257.75C412.11,-247.99 497.2,-235.2 558.57,-225.97"/>
<polygon fill="orange" stroke="orange" points="347.04,-254.24 337.67,-259.19 348.08,-261.16 347.04,-254.24"/>
</a>
</g>
<text text-anchor="start" x="379.5" y="-266.08" font-family="Helvetica,sans-Serif" font-size="10.00" fill="grey"> &lt; CsvLogCampaignScriptEntry,</text>
<text text-anchor="middle" x="450" y="-254.08" font-family="Helvetica,sans-Serif" font-size="10.00" fill="grey"> UpdateBillingCodesData &gt;</text>
</g>
<!-- Node4 -->
<g id="Node000004" class="node">
<title>Node4</title>
<g id="a_Node000004"><a xlink:href="../../df/dfe/interface_deluxe_1_1_deluxe_brand_center_1_1_a_m_m_1_1_script_runner_1_1_services_1_1_i_script.html" target="_top" xlink:title=" ">
<polygon fill="white" stroke="#666666" points="104.5,-282 0,-282 0,-262 104.5,-262 104.5,-282"/>
<text text-anchor="middle" x="52.25" y="-268.5" font-family="Helvetica,sans-Serif" font-size="10.00">IScript&lt; DataType &gt;</text>
</a>
</g>
</g>
<!-- Node4&#45;&gt;Node3 -->
<g id="edge3_Node000003_Node000004" class="edge">
<title>Node4&#45;&gt;Node3</title>
<g id="a_edge3_Node000003_Node000004"><a xlink:title=" ">
<path fill="none" stroke="#63b8ff" d="M116.24,-272C132.31,-272 149.85,-272 166.79,-272"/>
<polygon fill="#63b8ff" stroke="#63b8ff" points="116.33,-268.5 106.33,-272 116.33,-275.5 116.33,-268.5"/>
</a>
</g>
</g>
<!-- Node5 -->
<g id="Node000005" class="node">
<title>Node5</title>
<g id="a_Node000005"><a xlink:href="../../d6/db1/class_deluxe_1_1_deluxe_brand_center_1_1_a_m_m_1_1_infrastructure_1_1_databases_1_1_application_db_context.html" target="_top" xlink:title=" ">
<polygon fill="white" stroke="#666666" points="739.75,-146 538.5,-146 538.5,-102 739.75,-102 739.75,-146"/>
<text text-anchor="start" x="546.5" y="-132.5" font-family="Helvetica,sans-Serif" font-size="10.00">Deluxe.DeluxeBrandCenter.</text>
<text text-anchor="start" x="546.5" y="-120.5" font-family="Helvetica,sans-Serif" font-size="10.00">AMM.Infrastructure.Databases.Application</text>
<text text-anchor="middle" x="639.12" y="-108.5" font-family="Helvetica,sans-Serif" font-size="10.00">DbContext</text>
</a>
</g>
</g>
<!-- Node5&#45;&gt;Node1 -->
<g id="edge4_Node000001_Node000005" class="edge">
<title>Node5&#45;&gt;Node1</title>
<g id="a_edge4_Node000001_Node000005"><a xlink:title=" ">
<path fill="none" stroke="#9a32cd" stroke-dasharray="5,2" d="M751.19,-109.14C784.23,-104.72 819.94,-99.94 851.28,-95.75"/>
<polygon fill="#9a32cd" stroke="#9a32cd" points="751.05,-105.63 741.6,-110.42 751.98,-112.57 751.05,-105.63"/>
</a>
</g>
<text text-anchor="middle" x="795.62" y="-110.08" font-family="Helvetica,sans-Serif" font-size="10.00" fill="grey"> _dbContext</text>
</g>
<!-- Node6 -->
<g id="Node000006" class="node">
<title>Node6</title>
<g id="a_Node000006"><a xlink:title=" ">
<polygon fill="white" stroke="#666666" points="361.5,-232 141.5,-232 141.5,-152 361.5,-152 361.5,-232"/>
<text text-anchor="start" x="149.5" y="-218.5" font-family="Helvetica,sans-Serif" font-size="10.00">IdentityDbContext&lt;</text>
<text text-anchor="start" x="149.5" y="-206.5" font-family="Helvetica,sans-Serif" font-size="10.00"> ApplicationUser, Application</text>
<text text-anchor="start" x="149.5" y="-194.5" font-family="Helvetica,sans-Serif" font-size="10.00">Role, string, IdentityUserClaim</text>
<text text-anchor="start" x="149.5" y="-182.5" font-family="Helvetica,sans-Serif" font-size="10.00">&lt; string &gt;, ApplicationUserRole,</text>
<text text-anchor="start" x="149.5" y="-170.5" font-family="Helvetica,sans-Serif" font-size="10.00"> IdentityUserLogin&lt; string &gt;, IdentityRole</text>
<text text-anchor="middle" x="251.5" y="-158.5" font-family="Helvetica,sans-Serif" font-size="10.00">Claim&lt; string &gt;, IdentityUserToken&lt; string &gt; &gt;</text>
</a>
</g>
</g>
<!-- Node6&#45;&gt;Node5 -->
<g id="edge5_Node000005_Node000006" class="edge">
<title>Node6&#45;&gt;Node5</title>
<g id="a_edge5_Node000005_Node000006"><a xlink:title=" ">
<path fill="none" stroke="#63b8ff" d="M373.16,-170.72C426.24,-161.36 487.84,-150.5 538.28,-141.61"/>
<polygon fill="#63b8ff" stroke="#63b8ff" points="372.7,-167.25 363.46,-172.43 373.92,-174.14 372.7,-167.25"/>
</a>
</g>
</g>
<!-- Node7 -->
<g id="Node000007" class="node">
<title>Node7</title>
<g id="a_Node000007"><a xlink:href="../../d3/d96/interface_deluxe_1_1_deluxe_brand_center_1_1_a_m_m_1_1_infrastructure_1_1_databases_1_1_i_application_db_context.html" target="_top" xlink:title=" ">
<polygon fill="white" stroke="#666666" points="308.62,-134 194.38,-134 194.38,-114 308.62,-114 308.62,-134"/>
<text text-anchor="middle" x="251.5" y="-120.5" font-family="Helvetica,sans-Serif" font-size="10.00">IApplicationDbContext</text>
</a>
</g>
</g>
<!-- Node7&#45;&gt;Node5 -->
<g id="edge6_Node000005_Node000007" class="edge">
<title>Node7&#45;&gt;Node5</title>
<g id="a_edge6_Node000005_Node000007"><a xlink:title=" ">
<path fill="none" stroke="#63b8ff" d="M320.28,-124C380.58,-124 469.59,-124 538.09,-124"/>
<polygon fill="#63b8ff" stroke="#63b8ff" points="320.5,-120.5 310.5,-124 320.5,-127.5 320.5,-120.5"/>
</a>
</g>
</g>
<!-- Node8 -->
<g id="Node000008" class="node">
<title>Node8</title>
<g id="a_Node000008"><a xlink:href="../../dd/d7d/interface_deluxe_1_1_deluxe_brand_center_1_1_a_m_m_1_1_domain_1_1_services_1_1_i_session_service.html" target="_top" xlink:title=" ">
<polygon fill="white" stroke="#666666" points="347.25,-92 155.75,-92 155.75,-60 347.25,-60 347.25,-92"/>
<text text-anchor="start" x="163.75" y="-78.5" font-family="Helvetica,sans-Serif" font-size="10.00">Deluxe.DeluxeBrandCenter.</text>
<text text-anchor="middle" x="251.5" y="-66.5" font-family="Helvetica,sans-Serif" font-size="10.00">AMM.Domain.Services.ISessionService</text>
</a>
</g>
</g>
<!-- Node8&#45;&gt;Node1 -->
<g id="edge8_Node000001_Node000008" class="edge">
<title>Node8&#45;&gt;Node1</title>
<g id="a_edge8_Node000001_Node000008"><a xlink:title=" ">
<path fill="none" stroke="#9a32cd" stroke-dasharray="5,2" d="M359.21,-76.95C457.93,-77.86 608.75,-79.34 739.75,-81 776.27,-81.46 816.55,-82.05 851.29,-82.59"/>
<polygon fill="#9a32cd" stroke="#9a32cd" points="359.28,-73.45 349.25,-76.86 359.21,-80.45 359.28,-73.45"/>
</a>
</g>
<text text-anchor="middle" x="639.12" y="-83.5" font-family="Helvetica,sans-Serif" font-size="10.00" fill="grey"> _sessionService</text>
</g>
<!-- Node8&#45;&gt;Node5 -->
<g id="edge7_Node000005_Node000008" class="edge">
<title>Node8&#45;&gt;Node5</title>
<g id="a_edge7_Node000005_Node000008"><a xlink:title=" ">
<path fill="none" stroke="#9a32cd" stroke-dasharray="5,2" d="M359.04,-88.32C408.22,-94.1 467.35,-101.21 520.5,-108 526.22,-108.73 532.1,-109.49 538.03,-110.27"/>
<polygon fill="#9a32cd" stroke="#9a32cd" points="359.59,-84.86 349.25,-87.17 358.77,-91.81 359.59,-84.86"/>
</a>
</g>
<text text-anchor="middle" x="450" y="-110.5" font-family="Helvetica,sans-Serif" font-size="10.00" fill="grey"> _sessionService</text>
</g>
<!-- Node9 -->
<g id="Node000009" class="node">
<title>Node9</title>
<g id="a_Node000009"><a xlink:href="../../d2/dd7/interface_deluxe_1_1_deluxe_brand_center_1_1_a_m_m_1_1_a_p_i_1_1_services_1_1_i_mindfire_service.html" target="_top" xlink:title=" ">
<polygon fill="white" stroke="#666666" points="725.88,-32 552.38,-32 552.38,0 725.88,0 725.88,-32"/>
<text text-anchor="start" x="560.38" y="-18.5" font-family="Helvetica,sans-Serif" font-size="10.00">Deluxe.DeluxeBrandCenter.</text>
<text text-anchor="middle" x="639.12" y="-6.5" font-family="Helvetica,sans-Serif" font-size="10.00">AMM.API.Services.IMindfireService</text>
</a>
</g>
</g>
<!-- Node9&#45;&gt;Node1 -->
<g id="edge9_Node000001_Node000009" class="edge">
<title>Node9&#45;&gt;Node1</title>
<g id="a_edge9_Node000001_Node000009"><a xlink:title=" ">
<path fill="none" stroke="#9a32cd" stroke-dasharray="5,2" d="M737.46,-24.37C768.47,-28.29 802.71,-33.94 833.5,-42 852.4,-46.95 872.48,-54.35 890,-61.57"/>
<polygon fill="#9a32cd" stroke="#9a32cd" points="738.05,-20.92 727.7,-23.19 737.21,-27.87 738.05,-20.92"/>
</a>
</g>
<text text-anchor="middle" x="795.62" y="-44.5" font-family="Helvetica,sans-Serif" font-size="10.00" fill="grey"> _mindfireService</text>
</g>
</g>
</svg>
