<?xml version="1.0" encoding="UTF-8" standalone="no"?>
<!DOCTYPE svg PUBLIC "-//W3C//DTD SVG 1.1//EN"
 "http://www.w3.org/Graphics/SVG/1.1/DTD/svg11.dtd">
<!-- Generated by graphviz version 12.1.1 (20240910.0053)
 -->
<!-- Title: Deluxe.DeluxeBrandCenter.AMM.API.Services.EmailDomainService Pages: 1 -->
<svg width="1067pt" height="108pt"
 viewBox="0.00 0.00 1066.75 108.00" xmlns="http://www.w3.org/2000/svg" xmlns:xlink="http://www.w3.org/1999/xlink">
<g id="graph0" class="graph" transform="scale(1 1) rotate(0) translate(4 104)">
<title>Deluxe.DeluxeBrandCenter.AMM.API.Services.EmailDomainService</title>
<!-- Node1 -->
<g id="Node000001" class="node">
<title>Node1</title>
<g id="a_Node000001"><a xlink:title=" ">
<polygon fill="#999999" stroke="#666666" points="1058.75,-68 864.25,-68 864.25,-36 1058.75,-36 1058.75,-68"/>
<text text-anchor="start" x="872.25" y="-54.5" font-family="Helvetica,sans-Serif" font-size="10.00">Deluxe.DeluxeBrandCenter.</text>
<text text-anchor="middle" x="961.5" y="-42.5" font-family="Helvetica,sans-Serif" font-size="10.00">AMM.API.Services.EmailDomainService</text>
</a>
</g>
</g>
<!-- Node2 -->
<g id="Node000002" class="node">
<title>Node2</title>
<g id="a_Node000002"><a xlink:href="../../d6/d4e/class_deluxe_1_1_deluxe_brand_center_1_1_a_m_m_1_1_a_p_i_1_1_services_1_1_d_b_service.html" target="_top" xlink:title=" ">
<polygon fill="white" stroke="#666666" points="827.25,-92 693.5,-92 693.5,-60 827.25,-60 827.25,-92"/>
<text text-anchor="start" x="701.5" y="-78.5" font-family="Helvetica,sans-Serif" font-size="10.00">DBService&lt; EmailDomain,</text>
<text text-anchor="middle" x="760.38" y="-66.5" font-family="Helvetica,sans-Serif" font-size="10.00"> EmailDomainVM &gt;</text>
</a>
</g>
</g>
<!-- Node2&#45;&gt;Node1 -->
<g id="edge1_Node000001_Node000002" class="edge">
<title>Node2&#45;&gt;Node1</title>
<g id="a_edge1_Node000001_Node000002"><a xlink:title=" ">
<path fill="none" stroke="#63b8ff" d="M839.07,-66.64C847.23,-65.65 855.61,-64.64 863.95,-63.64"/>
<polygon fill="#63b8ff" stroke="#63b8ff" points="838.69,-63.16 829.18,-67.83 839.53,-70.11 838.69,-63.16"/>
</a>
</g>
</g>
<!-- Node3 -->
<g id="Node000003" class="node">
<title>Node3</title>
<g id="a_Node000003"><a xlink:href="../../d6/d4e/class_deluxe_1_1_deluxe_brand_center_1_1_a_m_m_1_1_a_p_i_1_1_services_1_1_d_b_service.html" target="_top" xlink:title=" ">
<polygon fill="white" stroke="#666666" points="498.5,-100 348.25,-100 348.25,-56 498.5,-56 498.5,-100"/>
<text text-anchor="start" x="356.25" y="-86.5" font-family="Helvetica,sans-Serif" font-size="10.00">Deluxe.DeluxeBrandCenter.</text>
<text text-anchor="start" x="356.25" y="-74.5" font-family="Helvetica,sans-Serif" font-size="10.00">AMM.API.Services.DBService</text>
<text text-anchor="middle" x="423.38" y="-62.5" font-family="Helvetica,sans-Serif" font-size="10.00">&lt; TModel, TModelVM &gt;</text>
</a>
</g>
</g>
<!-- Node3&#45;&gt;Node2 -->
<g id="edge2_Node000002_Node000003" class="edge">
<title>Node3&#45;&gt;Node2</title>
<g id="a_edge2_Node000002_Node000003"><a xlink:title=" ">
<path fill="none" stroke="orange" stroke-dasharray="5,2" d="M509.88,-77.49C566.87,-77.15 640.66,-76.71 693.18,-76.4"/>
<polygon fill="orange" stroke="orange" points="510.21,-73.99 500.24,-77.55 510.26,-80.99 510.21,-73.99"/>
</a>
</g>
<text text-anchor="middle" x="596" y="-79.91" font-family="Helvetica,sans-Serif" font-size="10.00" fill="grey"> &lt; EmailDomain, EmailDomainVM &gt;</text>
</g>
<!-- Node4 -->
<g id="Node000004" class="node">
<title>Node4</title>
<g id="a_Node000004"><a xlink:href="../../d3/ddb/interface_deluxe_1_1_deluxe_brand_center_1_1_a_m_m_1_1_a_p_i_1_1_services_1_1_i_d_b_service.html" target="_top" xlink:title=" ">
<polygon fill="white" stroke="#666666" points="131.5,-94 21.75,-94 21.75,-62 131.5,-62 131.5,-94"/>
<text text-anchor="start" x="29.75" y="-80.5" font-family="Helvetica,sans-Serif" font-size="10.00">IDBService&lt; TModel,</text>
<text text-anchor="middle" x="76.62" y="-68.5" font-family="Helvetica,sans-Serif" font-size="10.00"> TModelVM &gt;</text>
</a>
</g>
</g>
<!-- Node4&#45;&gt;Node3 -->
<g id="edge3_Node000003_Node000004" class="edge">
<title>Node4&#45;&gt;Node3</title>
<g id="a_edge3_Node000003_Node000004"><a xlink:title=" ">
<path fill="none" stroke="#63b8ff" d="M143.18,-78C201.58,-78 287,-78 347.95,-78"/>
<polygon fill="#63b8ff" stroke="#63b8ff" points="143.39,-74.5 133.38,-78 143.38,-81.5 143.39,-74.5"/>
</a>
</g>
</g>
<!-- Node5 -->
<g id="Node000005" class="node">
<title>Node5</title>
<g id="a_Node000005"><a xlink:href="../../d1/d31/interface_deluxe_1_1_deluxe_brand_center_1_1_a_m_m_1_1_a_p_i_1_1_services_1_1_i_email_domain_service.html" target="_top" xlink:title=" ">
<polygon fill="white" stroke="#666666" points="815.62,-41 705.12,-41 705.12,-21 815.62,-21 815.62,-41"/>
<text text-anchor="middle" x="760.38" y="-27.5" font-family="Helvetica,sans-Serif" font-size="10.00">IEmailDomainService</text>
</a>
</g>
</g>
<!-- Node5&#45;&gt;Node1 -->
<g id="edge4_Node000001_Node000005" class="edge">
<title>Node5&#45;&gt;Node1</title>
<g id="a_edge4_Node000001_Node000005"><a xlink:title=" ">
<path fill="none" stroke="#63b8ff" d="M827.48,-37.97C839.16,-39.2 851.55,-40.51 863.87,-41.81"/>
<polygon fill="#63b8ff" stroke="#63b8ff" points="827.87,-34.49 817.56,-36.92 827.13,-41.45 827.87,-34.49"/>
</a>
</g>
</g>
<!-- Node6 -->
<g id="Node000006" class="node">
<title>Node6</title>
<g id="a_Node000006"><a xlink:href="../../d3/ddb/interface_deluxe_1_1_deluxe_brand_center_1_1_a_m_m_1_1_a_p_i_1_1_services_1_1_i_d_b_service.html" target="_top" xlink:title=" ">
<polygon fill="white" stroke="#666666" points="491.75,-38 355,-38 355,-6 491.75,-6 491.75,-38"/>
<text text-anchor="start" x="363" y="-24.5" font-family="Helvetica,sans-Serif" font-size="10.00">IDBService&lt; EmailDomain,</text>
<text text-anchor="middle" x="423.38" y="-12.5" font-family="Helvetica,sans-Serif" font-size="10.00"> EmailDomainVM &gt;</text>
</a>
</g>
</g>
<!-- Node6&#45;&gt;Node5 -->
<g id="edge5_Node000005_Node000006" class="edge">
<title>Node6&#45;&gt;Node5</title>
<g id="a_edge5_Node000005_Node000006"><a xlink:title=" ">
<path fill="none" stroke="#63b8ff" d="M503.46,-24.12C565.43,-25.79 650.02,-28.06 704.68,-29.53"/>
<polygon fill="#63b8ff" stroke="#63b8ff" points="503.77,-20.63 493.68,-23.86 503.58,-27.63 503.77,-20.63"/>
</a>
</g>
</g>
<!-- Node7 -->
<g id="Node000007" class="node">
<title>Node7</title>
<g id="a_Node000007"><a xlink:href="../../d3/ddb/interface_deluxe_1_1_deluxe_brand_center_1_1_a_m_m_1_1_a_p_i_1_1_services_1_1_i_d_b_service.html" target="_top" xlink:title=" ">
<polygon fill="white" stroke="#666666" points="153.25,-44 0,-44 0,0 153.25,0 153.25,-44"/>
<text text-anchor="start" x="8" y="-30.5" font-family="Helvetica,sans-Serif" font-size="10.00">Deluxe.DeluxeBrandCenter.</text>
<text text-anchor="start" x="8" y="-18.5" font-family="Helvetica,sans-Serif" font-size="10.00">AMM.API.Services.IDBService</text>
<text text-anchor="middle" x="76.62" y="-6.5" font-family="Helvetica,sans-Serif" font-size="10.00">&lt; TModel, TModelVM &gt;</text>
</a>
</g>
</g>
<!-- Node7&#45;&gt;Node6 -->
<g id="edge6_Node000006_Node000007" class="edge">
<title>Node7&#45;&gt;Node6</title>
<g id="a_edge6_Node000006_Node000007"><a xlink:title=" ">
<path fill="none" stroke="orange" stroke-dasharray="5,2" d="M164.86,-22C223.76,-22 300.35,-22 354.65,-22"/>
<polygon fill="orange" stroke="orange" points="165.22,-18.5 155.22,-22 165.22,-25.5 165.22,-18.5"/>
</a>
</g>
<text text-anchor="middle" x="250.75" y="-24.5" font-family="Helvetica,sans-Serif" font-size="10.00" fill="grey"> &lt; EmailDomain, EmailDomainVM &gt;</text>
</g>
</g>
</svg>
