<?xml version="1.0" encoding="UTF-8" standalone="no"?>
<!DOCTYPE svg PUBLIC "-//W3C//DTD SVG 1.1//EN"
 "http://www.w3.org/Graphics/SVG/1.1/DTD/svg11.dtd">
<!-- Generated by graphviz version 12.1.1 (20240910.0053)
 -->
<!-- Title: Deluxe.DeluxeBrandCenter.AMM.Domain.Services.ISessionService.SessionGetUserId Pages: 1 -->
<!--zoomable 845 -->

<svg id="main" version="1.1" xmlns="http://www.w3.org/2000/svg" xmlns:xlink="http://www.w3.org/1999/xlink" xml:space="preserve" onload="init(evt)">

<style type="text/css"><![CDATA[
.node, .edge {opacity: 0.7;}
.node.selected, .edge.selected {opacity: 1;}
.edge:hover path { stroke: red; }
.edge:hover polygon { stroke: red; fill: red; }
]]></style>

<defs>
  <circle id="rim" cx="0" cy="0" r="7"/>
  <circle id="rim2" cx="0" cy="0" r="3.5"/>
  <g id="zoomPlus">
    <use xlink:href="#rim" fill="#404040"><set attributeName="fill" to="#808080" begin="zoomplus.mouseover" end="zoomplus.mouseout"/></use>
    <path d="M-4,0h8M0,-4v8" fill="none" stroke="white" stroke-width="1.5" pointer-events="none"/>
  </g>
  <g id="zoomMin">
    <use xlink:href="#rim" fill="#404040"><set attributeName="fill" to="#808080" begin="zoomminus.mouseover" end="zoomminus.mouseout"/></use>
    <path d="M-4,0h8" fill="none" stroke="white" stroke-width="1.5" pointer-events="none"/>
  </g>
  <g id="arrowUp" transform="translate(30 24)">
    <use xlink:href="#rim"/>
    <path pointer-events="none" fill="none" stroke="white" stroke-width="1.5" d="M0,-3.0v7 M-2.5,-0.5L0,-3.0L2.5,-0.5"/>
  </g>
  <g id="arrowRight" transform="rotate(90) translate(36 -43)">
    <use xlink:href="#rim"/>
    <path pointer-events="none" fill="none" stroke="white" stroke-width="1.5" d="M0,-3.0v7 M-2.5,-0.5L0,-3.0L2.5,-0.5"/>
  </g>
  <g id="arrowDown" transform="rotate(180) translate(-30 -48)">
    <use xlink:href="#rim"/>
    <path pointer-events="none" fill="none" stroke="white" stroke-width="1.5" d="M0,-3.0v7 M-2.5,-0.5L0,-3.0L2.5,-0.5"/>
  </g>
  <g id="arrowLeft" transform="rotate(270) translate(-36 17)">
    <use xlink:href="#rim"/>
    <path pointer-events="none" fill="none" stroke="white" stroke-width="1.5" d="M0,-3.0v7 M-2.5,-0.5L0,-3.0L2.5,-0.5"/>
  </g>
  <g id="resetDef">
    <use xlink:href="#rim2" fill="#404040"><set attributeName="fill" to="#808080" begin="reset.mouseover" end="reset.mouseout"/></use>
  </g>
</defs>
<script type="application/ecmascript">
var viewWidth = 661;
var viewHeight = 845;
var sectionId = 'dynsection-13';
</script>
<script type="application/ecmascript" xlink:href="../../svg.min.js"/>
<svg id="graph" class="graph">
<g id="viewport">
<title>Deluxe.DeluxeBrandCenter.AMM.Domain.Services.ISessionService.SessionGetUserId</title>
<!-- Node1 -->
<g id="Node000001" class="node">
<title>Node1</title>
<g id="a_Node000001"><a xlink:title=" ">
<polygon fill="#999999" stroke="#666666" points="653.25,-465 458.75,-465 458.75,-421 653.25,-421 653.25,-465"/>
<text text-anchor="start" x="466.75" y="-451.5" font-family="Helvetica,sans-Serif" font-size="10.00">Deluxe.DeluxeBrandCenter.</text>
<text text-anchor="start" x="466.75" y="-439.5" font-family="Helvetica,sans-Serif" font-size="10.00">AMM.Domain.Services.ISessionService.</text>
<text text-anchor="middle" x="556" y="-427.5" font-family="Helvetica,sans-Serif" font-size="10.00">SessionGetUserId</text>
</a>
</g>
</g>
<!-- Node2 -->
<g id="Node000002" class="node">
<title>Node2</title>
<g id="a_Node000002"><a xlink:href="../../d4/d06/class_deluxe_1_1_deluxe_brand_center_1_1_a_m_m_1_1_a_p_i_1_1_services_1_1_contact_manager_service.html#aacae5406cf025bf160825b800afd0187" target="_top" xlink:title=" ">
<polygon fill="white" stroke="#666666" points="414.5,-837 239.5,-837 239.5,-793 414.5,-793 414.5,-837"/>
<text text-anchor="start" x="247.5" y="-823.5" font-family="Helvetica,sans-Serif" font-size="10.00">Deluxe.DeluxeBrandCenter.</text>
<text text-anchor="start" x="247.5" y="-811.5" font-family="Helvetica,sans-Serif" font-size="10.00">AMM.API.Services.ContactManager</text>
<text text-anchor="middle" x="327" y="-799.5" font-family="Helvetica,sans-Serif" font-size="10.00">Service.AddOrUpdateGroupDb</text>
</a>
</g>
</g>
<!-- Node1&#45;&gt;Node2 -->
<g id="edge1_Node000001_Node000002" class="edge">
<title>Node1&#45;&gt;Node2</title>
<g id="a_edge1_Node000001_Node000002"><a xlink:title=" ">
<path fill="none" stroke="#63b8ff" d="M551.46,-476.57C542.54,-544.38 512.97,-698.5 422.75,-784 419.36,-787.21 415.63,-790.1 411.67,-792.68"/>
<polygon fill="#63b8ff" stroke="#63b8ff" points="554.92,-477.18 552.67,-466.82 547.97,-476.32 554.92,-477.18"/>
</a>
</g>
</g>
<!-- Node4 -->
<g id="Node000004" class="node">
<title>Node4</title>
<g id="a_Node000004"><a xlink:href="../../d1/d82/class_deluxe_1_1_deluxe_brand_center_1_1_a_m_m_1_1_a_p_i_1_1_controllers_1_1_contact_manager_controller.html#a532cd4056891ff303839cadc5d94d485" target="_top" xlink:title="Removes RedTail connections for selected User. If userId param is null Current user is disconnectred ...">
<polygon fill="white" stroke="#666666" points="419,-775 235,-775 235,-731 419,-731 419,-775"/>
<text text-anchor="start" x="243" y="-761.5" font-family="Helvetica,sans-Serif" font-size="10.00">Deluxe.DeluxeBrandCenter.</text>
<text text-anchor="start" x="243" y="-749.5" font-family="Helvetica,sans-Serif" font-size="10.00">AMM.API.Controllers.ContactManager</text>
<text text-anchor="middle" x="327" y="-737.5" font-family="Helvetica,sans-Serif" font-size="10.00">Controller.DisconnectRT</text>
</a>
</g>
</g>
<!-- Node1&#45;&gt;Node4 -->
<g id="edge3_Node000001_Node000004" class="edge">
<title>Node1&#45;&gt;Node4</title>
<g id="a_edge3_Node000001_Node000004"><a xlink:title=" ">
<path fill="none" stroke="#63b8ff" d="M548.18,-476.59C534.62,-534.9 498.76,-655.04 422.75,-722 419.11,-725.2 415.14,-728.08 410.94,-730.65"/>
<polygon fill="#63b8ff" stroke="#63b8ff" points="551.58,-477.45 550.34,-466.93 544.74,-475.92 551.58,-477.45"/>
</a>
</g>
</g>
<!-- Node5 -->
<g id="Node000005" class="node">
<title>Node5</title>
<g id="a_Node000005"><a xlink:href="../../d5/d6c/class_deluxe_1_1_deluxe_brand_center_1_1_a_m_m_1_1_a_p_i_1_1_services_1_1_persona_service.html#a5cd63501cc523b3c5ab46cb60f1d957c" target="_top" xlink:title=" ">
<polygon fill="white" stroke="#666666" points="414.5,-713 239.5,-713 239.5,-669 414.5,-669 414.5,-713"/>
<text text-anchor="start" x="247.5" y="-699.5" font-family="Helvetica,sans-Serif" font-size="10.00">Deluxe.DeluxeBrandCenter.</text>
<text text-anchor="start" x="247.5" y="-687.5" font-family="Helvetica,sans-Serif" font-size="10.00">AMM.API.Services.PersonaService.</text>
<text text-anchor="middle" x="327" y="-675.5" font-family="Helvetica,sans-Serif" font-size="10.00">FindPersonaByType</text>
</a>
</g>
</g>
<!-- Node1&#45;&gt;Node5 -->
<g id="edge4_Node000001_Node000005" class="edge">
<title>Node1&#45;&gt;Node5</title>
<g id="a_edge4_Node000001_Node000005"><a xlink:title=" ">
<path fill="none" stroke="#63b8ff" d="M543.43,-475.93C525.12,-523.38 485.03,-610.68 422.75,-660 418.68,-663.22 414.26,-666.12 409.63,-668.71"/>
<polygon fill="#63b8ff" stroke="#63b8ff" points="546.64,-477.34 546.88,-466.75 540.09,-474.88 546.64,-477.34"/>
</a>
</g>
</g>
<!-- Node7 -->
<g id="Node000007" class="node">
<title>Node7</title>
<g id="a_Node000007"><a xlink:href="../../d1/de1/class_deluxe_1_1_deluxe_brand_center_1_1_a_m_m_1_1_a_p_i_1_1_controllers_1_1_d_b_c_controller.html#adb76ae74c314067de76b60d21ee9c6d9" target="_top" xlink:title=" ">
<polygon fill="white" stroke="#666666" points="416.38,-651 237.62,-651 237.62,-607 416.38,-607 416.38,-651"/>
<text text-anchor="start" x="245.62" y="-637.5" font-family="Helvetica,sans-Serif" font-size="10.00">Deluxe.DeluxeBrandCenter.</text>
<text text-anchor="start" x="245.62" y="-625.5" font-family="Helvetica,sans-Serif" font-size="10.00">AMM.API.Controllers.DBCController.</text>
<text text-anchor="middle" x="327" y="-613.5" font-family="Helvetica,sans-Serif" font-size="10.00">GetAccountingUnits</text>
</a>
</g>
</g>
<!-- Node1&#45;&gt;Node7 -->
<g id="edge6_Node000001_Node000007" class="edge">
<title>Node1&#45;&gt;Node7</title>
<g id="a_edge6_Node000001_Node000007"><a xlink:title=" ">
<path fill="none" stroke="#63b8ff" d="M535.69,-474.66C512.84,-509.6 471.64,-565.24 422.75,-598 418.01,-601.18 412.91,-604.05 407.63,-606.65"/>
<polygon fill="#63b8ff" stroke="#63b8ff" points="538.37,-476.96 540.83,-466.66 532.48,-473.18 538.37,-476.96"/>
</a>
</g>
</g>
<!-- Node8 -->
<g id="Node000008" class="node">
<title>Node8</title>
<g id="a_Node000008"><a xlink:href="../../d3/d7d/class_deluxe_1_1_deluxe_brand_center_1_1_a_m_m_1_1_a_p_i_1_1_services_1_1_b_i_service.html#a27c49d051ba20f0221f1caf56d38b09d" target="_top" xlink:title=" ">
<polygon fill="white" stroke="#666666" points="409.25,-589 244.75,-589 244.75,-545 409.25,-545 409.25,-589"/>
<text text-anchor="start" x="252.75" y="-575.5" font-family="Helvetica,sans-Serif" font-size="10.00">Deluxe.DeluxeBrandCenter.</text>
<text text-anchor="start" x="252.75" y="-563.5" font-family="Helvetica,sans-Serif" font-size="10.00">AMM.API.Services.BIService.Get</text>
<text text-anchor="middle" x="327" y="-551.5" font-family="Helvetica,sans-Serif" font-size="10.00">CampaignsWithElements</text>
</a>
</g>
</g>
<!-- Node1&#45;&gt;Node8 -->
<g id="edge7_Node000001_Node000008" class="edge">
<title>Node1&#45;&gt;Node8</title>
<g id="a_edge7_Node000001_Node000008"><a xlink:title=" ">
<path fill="none" stroke="#63b8ff" d="M519.69,-472.21C494.05,-492.3 457.84,-518.42 422.75,-536 416.64,-539.06 410.16,-541.92 403.56,-544.56"/>
<polygon fill="#63b8ff" stroke="#63b8ff" points="521.8,-475.01 527.45,-466.05 517.44,-469.53 521.8,-475.01"/>
</a>
</g>
</g>
<!-- Node10 -->
<g id="Node000010" class="node">
<title>Node10</title>
<g id="a_Node000010"><a xlink:href="../../d4/d06/class_deluxe_1_1_deluxe_brand_center_1_1_a_m_m_1_1_a_p_i_1_1_services_1_1_contact_manager_service.html#ab03f84824476989f6978179a32c95de0" target="_top" xlink:title=" ">
<polygon fill="white" stroke="#666666" points="418.25,-527 235.75,-527 235.75,-483 418.25,-483 418.25,-527"/>
<text text-anchor="start" x="243.75" y="-513.5" font-family="Helvetica,sans-Serif" font-size="10.00">Deluxe.DeluxeBrandCenter.</text>
<text text-anchor="start" x="243.75" y="-501.5" font-family="Helvetica,sans-Serif" font-size="10.00">AMM.API.Services.ContactManager</text>
<text text-anchor="middle" x="327" y="-489.5" font-family="Helvetica,sans-Serif" font-size="10.00">Service.GetContactAssociatedGroups</text>
</a>
</g>
</g>
<!-- Node1&#45;&gt;Node10 -->
<g id="edge9_Node000001_Node000010" class="edge">
<title>Node1&#45;&gt;Node10</title>
<g id="a_edge9_Node000001_Node000010"><a xlink:title=" ">
<path fill="none" stroke="#63b8ff" d="M461.66,-468.49C444.66,-473.14 427.03,-477.95 410.37,-482.5"/>
<polygon fill="#63b8ff" stroke="#63b8ff" points="462.54,-471.88 471.27,-465.87 460.7,-465.13 462.54,-471.88"/>
</a>
</g>
</g>
<!-- Node11 -->
<g id="Node000011" class="node">
<title>Node11</title>
<g id="a_Node000011"><a xlink:href="../../d5/d6c/class_deluxe_1_1_deluxe_brand_center_1_1_a_m_m_1_1_a_p_i_1_1_services_1_1_persona_service.html#a43f89b3f0a8d5cadfcc099860878bedd" target="_top" xlink:title=" ">
<polygon fill="white" stroke="#666666" points="414.5,-465 239.5,-465 239.5,-421 414.5,-421 414.5,-465"/>
<text text-anchor="start" x="247.5" y="-451.5" font-family="Helvetica,sans-Serif" font-size="10.00">Deluxe.DeluxeBrandCenter.</text>
<text text-anchor="start" x="247.5" y="-439.5" font-family="Helvetica,sans-Serif" font-size="10.00">AMM.API.Services.PersonaService.</text>
<text text-anchor="middle" x="327" y="-427.5" font-family="Helvetica,sans-Serif" font-size="10.00">GetPersonaByGUID</text>
</a>
</g>
</g>
<!-- Node1&#45;&gt;Node11 -->
<g id="edge10_Node000001_Node000011" class="edge">
<title>Node1&#45;&gt;Node11</title>
<g id="a_edge10_Node000001_Node000011"><a xlink:title=" ">
<path fill="none" stroke="#63b8ff" d="M447.14,-443C436.3,-443 425.39,-443 414.81,-443"/>
<polygon fill="#63b8ff" stroke="#63b8ff" points="446.89,-446.5 456.89,-443 446.89,-439.5 446.89,-446.5"/>
</a>
</g>
</g>
<!-- Node12 -->
<g id="Node000012" class="node">
<title>Node12</title>
<g id="a_Node000012"><a xlink:href="../../d5/d6c/class_deluxe_1_1_deluxe_brand_center_1_1_a_m_m_1_1_a_p_i_1_1_services_1_1_persona_service.html#a73e67dbad6ad9248750b2897d76cf528" target="_top" xlink:title=" ">
<polygon fill="white" stroke="#666666" points="422.75,-403 231.25,-403 231.25,-359 422.75,-359 422.75,-403"/>
<text text-anchor="start" x="239.25" y="-389.5" font-family="Helvetica,sans-Serif" font-size="10.00">Deluxe.DeluxeBrandCenter.</text>
<text text-anchor="start" x="239.25" y="-377.5" font-family="Helvetica,sans-Serif" font-size="10.00">AMM.API.Services.PersonaService.</text>
<text text-anchor="middle" x="327" y="-365.5" font-family="Helvetica,sans-Serif" font-size="10.00">GetPersonaInstanceNamesForAudience</text>
</a>
</g>
</g>
<!-- Node1&#45;&gt;Node12 -->
<g id="edge11_Node000001_Node000012" class="edge">
<title>Node1&#45;&gt;Node12</title>
<g id="a_edge11_Node000001_Node000012"><a xlink:title=" ">
<path fill="none" stroke="#63b8ff" d="M461.66,-417.51C444.66,-412.86 427.03,-408.05 410.37,-403.5"/>
<polygon fill="#63b8ff" stroke="#63b8ff" points="460.7,-420.87 471.27,-420.13 462.54,-414.12 460.7,-420.87"/>
</a>
</g>
</g>
<!-- Node14 -->
<g id="Node000014" class="node">
<title>Node14</title>
<g id="a_Node000014"><a xlink:href="../../d5/d6c/class_deluxe_1_1_deluxe_brand_center_1_1_a_m_m_1_1_a_p_i_1_1_services_1_1_persona_service.html#ac63f498e6f4d9a8b1df97daace8afb30" target="_top" xlink:title=" ">
<polygon fill="white" stroke="#666666" points="414.5,-341 239.5,-341 239.5,-297 414.5,-297 414.5,-341"/>
<text text-anchor="start" x="247.5" y="-327.5" font-family="Helvetica,sans-Serif" font-size="10.00">Deluxe.DeluxeBrandCenter.</text>
<text text-anchor="start" x="247.5" y="-315.5" font-family="Helvetica,sans-Serif" font-size="10.00">AMM.API.Services.PersonaService.</text>
<text text-anchor="middle" x="327" y="-303.5" font-family="Helvetica,sans-Serif" font-size="10.00">GetPersonasForProfile</text>
</a>
</g>
</g>
<!-- Node1&#45;&gt;Node14 -->
<g id="edge13_Node000001_Node000014" class="edge">
<title>Node1&#45;&gt;Node14</title>
<g id="a_edge13_Node000001_Node000014"><a xlink:title=" ">
<path fill="none" stroke="#63b8ff" d="M519.69,-413.79C494.05,-393.7 457.84,-367.58 422.75,-350 416.64,-346.94 410.16,-344.08 403.56,-341.44"/>
<polygon fill="#63b8ff" stroke="#63b8ff" points="517.44,-416.47 527.45,-419.95 521.8,-410.99 517.44,-416.47"/>
</a>
</g>
</g>
<!-- Node15 -->
<g id="Node000015" class="node">
<title>Node15</title>
<g id="a_Node000015"><a xlink:href="../../d1/d19/class_deluxe_1_1_deluxe_brand_center_1_1_a_m_m_1_1_infrastructure_1_1_mindfire_1_1_report_service_m_f.html#a9ac758f76c8914498504f9c98c65d635" target="_top" xlink:title=" ">
<polygon fill="white" stroke="#666666" points="411.88,-261 242.12,-261 242.12,-217 411.88,-217 411.88,-261"/>
<text text-anchor="start" x="250.12" y="-247.5" font-family="Helvetica,sans-Serif" font-size="10.00">Deluxe.DeluxeBrandCenter.</text>
<text text-anchor="start" x="250.12" y="-235.5" font-family="Helvetica,sans-Serif" font-size="10.00">AMM.Infrastructure.Mindfire.Report</text>
<text text-anchor="middle" x="327" y="-223.5" font-family="Helvetica,sans-Serif" font-size="10.00">ServiceMF.GetUnsubscribedList</text>
</a>
</g>
</g>
<!-- Node1&#45;&gt;Node15 -->
<g id="edge14_Node000001_Node000015" class="edge">
<title>Node1&#45;&gt;Node15</title>
<g id="a_edge14_Node000001_Node000015"><a xlink:title=" ">
<path fill="none" stroke="#63b8ff" d="M533.57,-411.2C509.6,-377.42 468.14,-324.03 422.75,-288 409.84,-277.75 394.45,-268.71 379.87,-261.27"/>
<polygon fill="#63b8ff" stroke="#63b8ff" points="530.67,-413.17 539.27,-419.35 536.41,-409.15 530.67,-413.17"/>
</a>
</g>
</g>
<!-- Node16 -->
<g id="Node000016" class="node">
<title>Node16</title>
<g id="a_Node000016"><a xlink:href="../../d4/d06/class_deluxe_1_1_deluxe_brand_center_1_1_a_m_m_1_1_a_p_i_1_1_services_1_1_contact_manager_service.html#ac5beee423172aea47d2f6ca2f73f8a92" target="_top" xlink:title=" ">
<polygon fill="white" stroke="#666666" points="414.5,-199 239.5,-199 239.5,-155 414.5,-155 414.5,-199"/>
<text text-anchor="start" x="247.5" y="-185.5" font-family="Helvetica,sans-Serif" font-size="10.00">Deluxe.DeluxeBrandCenter.</text>
<text text-anchor="start" x="247.5" y="-173.5" font-family="Helvetica,sans-Serif" font-size="10.00">AMM.API.Services.ContactManager</text>
<text text-anchor="middle" x="327" y="-161.5" font-family="Helvetica,sans-Serif" font-size="10.00">Service.SFAuthenticte</text>
</a>
</g>
</g>
<!-- Node1&#45;&gt;Node16 -->
<g id="edge16_Node000001_Node000016" class="edge">
<title>Node1&#45;&gt;Node16</title>
<g id="a_edge16_Node000001_Node000016"><a xlink:title=" ">
<path fill="none" stroke="#63b8ff" d="M545.07,-409.95C528.16,-359.24 489.03,-262.39 422.75,-208 418.87,-204.82 414.65,-201.96 410.23,-199.39"/>
<polygon fill="#63b8ff" stroke="#63b8ff" points="541.65,-410.75 548.06,-419.19 548.31,-408.6 541.65,-410.75"/>
</a>
</g>
</g>
<!-- Node17 -->
<g id="Node000017" class="node">
<title>Node17</title>
<g id="a_Node000017"><a xlink:href="../../d5/d6c/class_deluxe_1_1_deluxe_brand_center_1_1_a_m_m_1_1_a_p_i_1_1_services_1_1_persona_service.html#a6882190ee9ea6f2e4692cafaf4f80c37" target="_top" xlink:title=" ">
<polygon fill="white" stroke="#666666" points="414.5,-137 239.5,-137 239.5,-93 414.5,-93 414.5,-137"/>
<text text-anchor="start" x="247.5" y="-123.5" font-family="Helvetica,sans-Serif" font-size="10.00">Deluxe.DeluxeBrandCenter.</text>
<text text-anchor="start" x="247.5" y="-111.5" font-family="Helvetica,sans-Serif" font-size="10.00">AMM.API.Services.PersonaService.</text>
<text text-anchor="middle" x="327" y="-99.5" font-family="Helvetica,sans-Serif" font-size="10.00">Single</text>
</a>
</g>
</g>
<!-- Node1&#45;&gt;Node17 -->
<g id="edge17_Node000001_Node000017" class="edge">
<title>Node1&#45;&gt;Node17</title>
<g id="a_edge17_Node000001_Node000017"><a xlink:title=" ">
<path fill="none" stroke="#63b8ff" d="M549.28,-409.49C537.1,-348.34 502.9,-218.31 422.75,-146 419.15,-142.75 415.21,-139.85 411.04,-137.24"/>
<polygon fill="#63b8ff" stroke="#63b8ff" points="545.84,-410.11 551.15,-419.28 552.71,-408.8 545.84,-410.11"/>
</a>
</g>
</g>
<!-- Node18 -->
<g id="Node000018" class="node">
<title>Node18</title>
<g id="a_Node000018"><a xlink:href="../../d4/d06/class_deluxe_1_1_deluxe_brand_center_1_1_a_m_m_1_1_a_p_i_1_1_services_1_1_contact_manager_service.html#a056bd26f7d76ff3998f5adda2e3d1db4" target="_top" xlink:title=" ">
<polygon fill="white" stroke="#666666" points="420.88,-75 233.12,-75 233.12,-31 420.88,-31 420.88,-75"/>
<text text-anchor="start" x="241.12" y="-61.5" font-family="Helvetica,sans-Serif" font-size="10.00">Deluxe.DeluxeBrandCenter.</text>
<text text-anchor="start" x="241.12" y="-49.5" font-family="Helvetica,sans-Serif" font-size="10.00">AMM.API.Services.ContactManager</text>
<text text-anchor="middle" x="327" y="-37.5" font-family="Helvetica,sans-Serif" font-size="10.00">Service.UpdateContactsCollectionField</text>
</a>
</g>
</g>
<!-- Node1&#45;&gt;Node18 -->
<g id="edge18_Node000001_Node000018" class="edge">
<title>Node1&#45;&gt;Node18</title>
<g id="a_edge18_Node000001_Node000018"><a xlink:title=" ">
<path fill="none" stroke="#63b8ff" d="M552.24,-409.66C544.65,-339.4 517.23,-175.07 422.75,-84 419.39,-80.76 415.68,-77.85 411.73,-75.25"/>
<polygon fill="#63b8ff" stroke="#63b8ff" points="548.74,-409.78 553.22,-419.38 555.7,-409.08 548.74,-409.78"/>
</a>
</g>
</g>
<!-- Node3 -->
<g id="Node000003" class="node">
<title>Node3</title>
<g id="a_Node000003"><a xlink:href="../../d4/d06/class_deluxe_1_1_deluxe_brand_center_1_1_a_m_m_1_1_a_p_i_1_1_services_1_1_contact_manager_service.html#a4a4816316103e1cfbf5450d609a9feb0" target="_top" xlink:title=" ">
<polygon fill="white" stroke="#666666" points="185.12,-837 10.12,-837 10.12,-793 185.12,-793 185.12,-837"/>
<text text-anchor="start" x="18.12" y="-823.5" font-family="Helvetica,sans-Serif" font-size="10.00">Deluxe.DeluxeBrandCenter.</text>
<text text-anchor="start" x="18.12" y="-811.5" font-family="Helvetica,sans-Serif" font-size="10.00">AMM.API.Services.ContactManager</text>
<text text-anchor="middle" x="97.62" y="-799.5" font-family="Helvetica,sans-Serif" font-size="10.00">Service.AddOrUpdateContactGroup</text>
</a>
</g>
</g>
<!-- Node2&#45;&gt;Node3 -->
<g id="edge2_Node000002_Node000003" class="edge">
<title>Node2&#45;&gt;Node3</title>
<g id="a_edge2_Node000002_Node000003"><a xlink:title=" ">
<path fill="none" stroke="#63b8ff" d="M227.86,-815C213.77,-815 199.36,-815 185.51,-815"/>
<polygon fill="#63b8ff" stroke="#63b8ff" points="227.55,-818.5 237.55,-815 227.55,-811.5 227.55,-818.5"/>
</a>
</g>
</g>
<!-- Node6 -->
<g id="Node000006" class="node">
<title>Node6</title>
<g id="a_Node000006"><a xlink:href="../../d5/d6c/class_deluxe_1_1_deluxe_brand_center_1_1_a_m_m_1_1_a_p_i_1_1_services_1_1_persona_service.html#aeac46e324eda8e66b9048cee84da0bb9" target="_top" xlink:title=" ">
<polygon fill="white" stroke="#666666" points="185.12,-713 10.12,-713 10.12,-669 185.12,-669 185.12,-713"/>
<text text-anchor="start" x="18.12" y="-699.5" font-family="Helvetica,sans-Serif" font-size="10.00">Deluxe.DeluxeBrandCenter.</text>
<text text-anchor="start" x="18.12" y="-687.5" font-family="Helvetica,sans-Serif" font-size="10.00">AMM.API.Services.PersonaService.</text>
<text text-anchor="middle" x="97.62" y="-675.5" font-family="Helvetica,sans-Serif" font-size="10.00">GetDefaultPersonaForProfile</text>
</a>
</g>
</g>
<!-- Node5&#45;&gt;Node6 -->
<g id="edge5_Node000005_Node000006" class="edge">
<title>Node5&#45;&gt;Node6</title>
<g id="a_edge5_Node000005_Node000006"><a xlink:title=" ">
<path fill="none" stroke="#63b8ff" d="M227.86,-691C213.77,-691 199.36,-691 185.51,-691"/>
<polygon fill="#63b8ff" stroke="#63b8ff" points="227.55,-694.5 237.55,-691 227.55,-687.5 227.55,-694.5"/>
</a>
</g>
</g>
<!-- Node9 -->
<g id="Node000009" class="node">
<title>Node9</title>
<g id="a_Node000009"><a xlink:href="../../d3/d7d/class_deluxe_1_1_deluxe_brand_center_1_1_a_m_m_1_1_a_p_i_1_1_services_1_1_b_i_service.html#a16746817aced3795d9ed8f95e89c36b3" target="_top" xlink:title=" ">
<polygon fill="white" stroke="#666666" points="179.88,-589 15.38,-589 15.38,-545 179.88,-545 179.88,-589"/>
<text text-anchor="start" x="23.38" y="-575.5" font-family="Helvetica,sans-Serif" font-size="10.00">Deluxe.DeluxeBrandCenter.</text>
<text text-anchor="start" x="23.38" y="-563.5" font-family="Helvetica,sans-Serif" font-size="10.00">AMM.API.Services.BIService.Get</text>
<text text-anchor="middle" x="97.62" y="-551.5" font-family="Helvetica,sans-Serif" font-size="10.00">CampaignsAndStats</text>
</a>
</g>
</g>
<!-- Node8&#45;&gt;Node9 -->
<g id="edge8_Node000008_Node000009" class="edge">
<title>Node8&#45;&gt;Node9</title>
<g id="a_edge8_Node000008_Node000009"><a xlink:title=" ">
<path fill="none" stroke="#63b8ff" d="M233.15,-567C215.63,-567 197.42,-567 180.27,-567"/>
<polygon fill="#63b8ff" stroke="#63b8ff" points="233.04,-570.5 243.04,-567 233.04,-563.5 233.04,-570.5"/>
</a>
</g>
</g>
<!-- Node13 -->
<g id="Node000013" class="node">
<title>Node13</title>
<g id="a_Node000013"><a xlink:href="../../d5/d6c/class_deluxe_1_1_deluxe_brand_center_1_1_a_m_m_1_1_a_p_i_1_1_services_1_1_persona_service.html#a2f1b9bc4af6da9a571ce2d238acf1fa8" target="_top" xlink:title=" ">
<polygon fill="white" stroke="#666666" points="195.25,-403 0,-403 0,-359 195.25,-359 195.25,-403"/>
<text text-anchor="start" x="8" y="-389.5" font-family="Helvetica,sans-Serif" font-size="10.00">Deluxe.DeluxeBrandCenter.</text>
<text text-anchor="start" x="8" y="-377.5" font-family="Helvetica,sans-Serif" font-size="10.00">AMM.API.Services.PersonaService.</text>
<text text-anchor="middle" x="97.62" y="-365.5" font-family="Helvetica,sans-Serif" font-size="10.00">GetPersonaInstanceNamesForCampaign</text>
</a>
</g>
</g>
<!-- Node12&#45;&gt;Node13 -->
<g id="edge12_Node000012_Node000013" class="edge">
<title>Node12&#45;&gt;Node13</title>
<g id="a_edge12_Node000012_Node000013"><a xlink:title=" ">
<path fill="none" stroke="#63b8ff" d="M219.6,-381C211.58,-381 203.51,-381 195.55,-381"/>
<polygon fill="#63b8ff" stroke="#63b8ff" points="219.38,-384.5 229.38,-381 219.38,-377.5 219.38,-384.5"/>
</a>
</g>
</g>
<!-- Node15&#45;&gt;Node15 -->
<g id="edge15_Node000015_Node000015" class="edge">
<title>Node15&#45;&gt;Node15</title>
<g id="a_edge15_Node000015_Node000015"><a xlink:title=" ">
<path fill="none" stroke="#63b8ff" d="M364.94,-271.75C358.5,-276.11 345.86,-279 327,-279 295.24,-279 281.1,-270.8 284.58,-261.21"/>
<polygon fill="#63b8ff" stroke="#63b8ff" points="368.13,-273.18 368.83,-262.6 361.69,-270.43 368.13,-273.18"/>
</a>
</g>
</g>
<!-- Node19 -->
<g id="Node000019" class="node">
<title>Node19</title>
<g id="a_Node000019"><a xlink:href="../../d4/d06/class_deluxe_1_1_deluxe_brand_center_1_1_a_m_m_1_1_a_p_i_1_1_services_1_1_contact_manager_service.html#aab42ea45768418dcf29fabe521d8b577" target="_top" xlink:title=" ">
<polygon fill="white" stroke="#666666" points="185.12,-106 10.12,-106 10.12,-62 185.12,-62 185.12,-106"/>
<text text-anchor="start" x="18.12" y="-92.5" font-family="Helvetica,sans-Serif" font-size="10.00">Deluxe.DeluxeBrandCenter.</text>
<text text-anchor="start" x="18.12" y="-80.5" font-family="Helvetica,sans-Serif" font-size="10.00">AMM.API.Services.ContactManager</text>
<text text-anchor="middle" x="97.62" y="-68.5" font-family="Helvetica,sans-Serif" font-size="10.00">Service.AddOrUpdateTag</text>
</a>
</g>
</g>
<!-- Node18&#45;&gt;Node19 -->
<g id="edge19_Node000018_Node000019" class="edge">
<title>Node18&#45;&gt;Node19</title>
<g id="a_edge19_Node000018_Node000019"><a xlink:title=" ">
<path fill="none" stroke="#63b8ff" d="M221.75,-67.21C209.59,-68.87 197.29,-70.55 185.4,-72.17"/>
<polygon fill="#63b8ff" stroke="#63b8ff" points="221.93,-70.72 231.36,-65.9 220.98,-63.79 221.93,-70.72"/>
</a>
</g>
</g>
<!-- Node20 -->
<g id="Node000020" class="node">
<title>Node20</title>
<g id="a_Node000020"><a xlink:href="../../d4/d06/class_deluxe_1_1_deluxe_brand_center_1_1_a_m_m_1_1_a_p_i_1_1_services_1_1_contact_manager_service.html#a619cc4b0feff32ead048acb292ab8e82" target="_top" xlink:title=" ">
<polygon fill="white" stroke="#666666" points="185.12,-44 10.12,-44 10.12,0 185.12,0 185.12,-44"/>
<text text-anchor="start" x="18.12" y="-30.5" font-family="Helvetica,sans-Serif" font-size="10.00">Deluxe.DeluxeBrandCenter.</text>
<text text-anchor="start" x="18.12" y="-18.5" font-family="Helvetica,sans-Serif" font-size="10.00">AMM.API.Services.ContactManager</text>
<text text-anchor="middle" x="97.62" y="-6.5" font-family="Helvetica,sans-Serif" font-size="10.00">Service.DeleteTag</text>
</a>
</g>
</g>
<!-- Node18&#45;&gt;Node20 -->
<g id="edge20_Node000018_Node000020" class="edge">
<title>Node18&#45;&gt;Node20</title>
<g id="a_edge20_Node000018_Node000020"><a xlink:title=" ">
<path fill="none" stroke="#63b8ff" d="M221.75,-38.79C209.59,-37.13 197.29,-35.45 185.4,-33.83"/>
<polygon fill="#63b8ff" stroke="#63b8ff" points="220.98,-42.21 231.36,-40.1 221.93,-35.28 220.98,-42.21"/>
</a>
</g>
</g>
</g>
</svg>

<g id="navigator" transform="translate(0 0)" fill="#404254">
  <rect fill="#f2f5e9" fill-opacity="0.5" stroke="#606060" stroke-width=".5" x="0" y="0" width="60" height="60"/>
  <use id="zoomplus" xlink:href="#zoomPlus" x="17" y="9" onmousedown="handleZoom(evt,'in')"/>
  <use id="zoomminus" xlink:href="#zoomMin" x="42" y="9" onmousedown="handleZoom(evt,'out')"/>
  <use id="reset" xlink:href="#resetDef" x="30" y="36" onmousedown="handleReset()"/>
   <use id="arrowup" xlink:href="#arrowUp" x="0" y="0" onmousedown="handlePan(0,-1)"/>
  <use id="arrowright" xlink:href="#arrowRight" x="0" y="0" onmousedown="handlePan(1,0)"/>
  <use id="arrowdown" xlink:href="#arrowDown" x="0" y="0" onmousedown="handlePan(0,1)"/>
  <use id="arrowleft" xlink:href="#arrowLeft" x="0" y="0" onmousedown="handlePan(-1,0)"/>
</g>
<svg viewBox="0 0 15 15" width="100%" height="30px" preserveAspectRatio="xMaxYMin meet">
 <g id="arrow_out" transform="scale(0.3 0.3)">
  <a xlink:href="interface_deluxe_1_1_deluxe_brand_center_1_1_a_m_m_1_1_domain_1_1_services_1_1_i_session_service_aaac0af72e9b32df926d2afea555e1e34_icgraph_org.svg" target="_base">
   <rect id="button" ry="5" rx="5" y="6" x="6" height="38" width="38"
        fill="#f2f5e9" fill-opacity="0.5" stroke="#606060" stroke-width="1.0"/>
   <path id="arrow"
     d="M 11.500037,31.436501 C 11.940474,20.09759 22.043105,11.32322 32.158766,21.979434 L 37.068811,17.246167 C 37.068811,17.246167 37.088388,32 37.088388,32 L 22.160133,31.978069 C 22.160133,31.978069 26.997745,27.140456 26.997745,27.140456 C 18.528582,18.264221 13.291696,25.230495 11.500037,31.436501 z"
     style="fill:#404040;"/>
  </a>
 </g>
</svg>

<style type='text/css'>
<![CDATA[
[data-mouse-over-selected='false'] { opacity: 0.7; }
[data-mouse-over-selected='true']  { opacity: 1.0; }
]]>
</style>
<script type="application/ecmascript"><![CDATA[
document.addEventListener('DOMContentLoaded', (event) => {
  highlightEdges();
  highlightAdjacentNodes();
});
]]></script>
</svg>
