<?xml version="1.0" encoding="UTF-8" standalone="no"?>
<!DOCTYPE svg PUBLIC "-//W3C//DTD SVG 1.1//EN"
 "http://www.w3.org/Graphics/SVG/1.1/DTD/svg11.dtd">
<!-- Generated by graphviz version 12.1.1 (20240910.0053)
 -->
<!-- Title: Deluxe.DeluxeBrandCenter.AMM.Domain.Services.ISessionService.SetUserId Pages: 1 -->
<!--zoomable 474 -->

<svg id="main" version="1.1" xmlns="http://www.w3.org/2000/svg" xmlns:xlink="http://www.w3.org/1999/xlink" xml:space="preserve" onload="init(evt)">

<style type="text/css"><![CDATA[
.node, .edge {opacity: 0.7;}
.node.selected, .edge.selected {opacity: 1;}
.edge:hover path { stroke: red; }
.edge:hover polygon { stroke: red; fill: red; }
]]></style>

<defs>
  <circle id="rim" cx="0" cy="0" r="7"/>
  <circle id="rim2" cx="0" cy="0" r="3.5"/>
  <g id="zoomPlus">
    <use xlink:href="#rim" fill="#404040"><set attributeName="fill" to="#808080" begin="zoomplus.mouseover" end="zoomplus.mouseout"/></use>
    <path d="M-4,0h8M0,-4v8" fill="none" stroke="white" stroke-width="1.5" pointer-events="none"/>
  </g>
  <g id="zoomMin">
    <use xlink:href="#rim" fill="#404040"><set attributeName="fill" to="#808080" begin="zoomminus.mouseover" end="zoomminus.mouseout"/></use>
    <path d="M-4,0h8" fill="none" stroke="white" stroke-width="1.5" pointer-events="none"/>
  </g>
  <g id="arrowUp" transform="translate(30 24)">
    <use xlink:href="#rim"/>
    <path pointer-events="none" fill="none" stroke="white" stroke-width="1.5" d="M0,-3.0v7 M-2.5,-0.5L0,-3.0L2.5,-0.5"/>
  </g>
  <g id="arrowRight" transform="rotate(90) translate(36 -43)">
    <use xlink:href="#rim"/>
    <path pointer-events="none" fill="none" stroke="white" stroke-width="1.5" d="M0,-3.0v7 M-2.5,-0.5L0,-3.0L2.5,-0.5"/>
  </g>
  <g id="arrowDown" transform="rotate(180) translate(-30 -48)">
    <use xlink:href="#rim"/>
    <path pointer-events="none" fill="none" stroke="white" stroke-width="1.5" d="M0,-3.0v7 M-2.5,-0.5L0,-3.0L2.5,-0.5"/>
  </g>
  <g id="arrowLeft" transform="rotate(270) translate(-36 17)">
    <use xlink:href="#rim"/>
    <path pointer-events="none" fill="none" stroke="white" stroke-width="1.5" d="M0,-3.0v7 M-2.5,-0.5L0,-3.0L2.5,-0.5"/>
  </g>
  <g id="resetDef">
    <use xlink:href="#rim2" fill="#404040"><set attributeName="fill" to="#808080" begin="reset.mouseover" end="reset.mouseout"/></use>
  </g>
</defs>
<script type="application/ecmascript">
var viewWidth = 642;
var viewHeight = 474;
var sectionId = 'dynsection-19';
</script>
<script type="application/ecmascript" xlink:href="../../svg.min.js"/>
<svg id="graph" class="graph">
<g id="viewport">
<title>Deluxe.DeluxeBrandCenter.AMM.Domain.Services.ISessionService.SetUserId</title>
<!-- Node1 -->
<g id="Node000001" class="node">
<title>Node1</title>
<g id="a_Node000001"><a xlink:title=" ">
<polygon fill="#999999" stroke="#666666" points="633.75,-261 439.25,-261 439.25,-217 633.75,-217 633.75,-261"/>
<text text-anchor="start" x="447.25" y="-247.5" font-family="Helvetica,sans-Serif" font-size="10.00">Deluxe.DeluxeBrandCenter.</text>
<text text-anchor="start" x="447.25" y="-235.5" font-family="Helvetica,sans-Serif" font-size="10.00">AMM.Domain.Services.ISessionService.</text>
<text text-anchor="middle" x="536.5" y="-223.5" font-family="Helvetica,sans-Serif" font-size="10.00">SetUserId</text>
</a>
</g>
</g>
<!-- Node2 -->
<g id="Node000002" class="node">
<title>Node2</title>
<g id="a_Node000002"><a xlink:href="../../d7/d88/class_deluxe_1_1_deluxe_brand_center_1_1_a_m_m_1_1_a_p_i_1_1_services_1_1_i_d_p_extension_methods.html#a67b6fec088ac8c30b5526beca2ea9206" target="_top" xlink:title=" ">
<polygon fill="white" stroke="#666666" points="403.25,-466 199,-466 199,-422 403.25,-422 403.25,-466"/>
<text text-anchor="start" x="207" y="-452.5" font-family="Helvetica,sans-Serif" font-size="10.00">Deluxe.DeluxeBrandCenter.</text>
<text text-anchor="start" x="207" y="-440.5" font-family="Helvetica,sans-Serif" font-size="10.00">AMM.API.Services.IDPExtensionMethods.</text>
<text text-anchor="middle" x="301.12" y="-428.5" font-family="Helvetica,sans-Serif" font-size="10.00">AddIDPAuthentication</text>
</a>
</g>
</g>
<!-- Node1&#45;&gt;Node2 -->
<g id="edge1_Node000001_Node000002" class="edge">
<title>Node1&#45;&gt;Node2</title>
<g id="a_edge1_Node000001_Node000002"><a xlink:title=" ">
<path fill="none" stroke="#63b8ff" d="M519.15,-271.33C497.74,-310.49 456.55,-375.81 403.25,-413 398.73,-416.15 393.88,-418.99 388.85,-421.55"/>
<polygon fill="#63b8ff" stroke="#63b8ff" points="522.19,-273.06 523.82,-262.59 516.02,-269.76 522.19,-273.06"/>
</a>
</g>
</g>
<!-- Node3 -->
<g id="Node000003" class="node">
<title>Node3</title>
<g id="a_Node000003"><a xlink:href="../../d7/d46/class_deluxe_1_1_deluxe_brand_center_1_1_a_m_m_1_1_a_p_i_1_1_program.html#a28f3fcc5623aa9a9c456c190c7e29b7f" target="_top" xlink:title=" ">
<polygon fill="white" stroke="#666666" points="392,-404 210.25,-404 210.25,-372 392,-372 392,-404"/>
<text text-anchor="start" x="218.25" y="-390.5" font-family="Helvetica,sans-Serif" font-size="10.00">Deluxe.DeluxeBrandCenter.</text>
<text text-anchor="middle" x="301.12" y="-378.5" font-family="Helvetica,sans-Serif" font-size="10.00">AMM.API.Program.ConfigureServices</text>
</a>
</g>
</g>
<!-- Node1&#45;&gt;Node3 -->
<g id="edge2_Node000001_Node000003" class="edge">
<title>Node1&#45;&gt;Node3</title>
<g id="a_edge2_Node000001_Node000003"><a xlink:title=" ">
<path fill="none" stroke="#63b8ff" d="M510.52,-270.19C486.12,-298.58 446.42,-339.54 403.25,-363 397.29,-366.24 390.91,-369.06 384.35,-371.53"/>
<polygon fill="#63b8ff" stroke="#63b8ff" points="513.15,-272.51 516.92,-262.61 507.8,-268 513.15,-272.51"/>
</a>
</g>
</g>
<!-- Node6 -->
<g id="Node000006" class="node">
<title>Node6</title>
<g id="a_Node000006"><a xlink:href="../../de/d34/class_deluxe_1_1_deluxe_brand_center_1_1_a_m_m_1_1_script_runner_1_1_services_1_1_scripts_1_1_sync_campaign_element_metadata.html#a2dc07ce280c82cbd08cb77a581c9af0e" target="_top" xlink:title=" ">
<polygon fill="white" stroke="#666666" points="391.25,-354 211,-354 211,-310 391.25,-310 391.25,-354"/>
<text text-anchor="start" x="219" y="-340.5" font-family="Helvetica,sans-Serif" font-size="10.00">Deluxe.DeluxeBrandCenter.</text>
<text text-anchor="start" x="219" y="-328.5" font-family="Helvetica,sans-Serif" font-size="10.00">AMM.ScriptRunner.Services.Scripts.</text>
<text text-anchor="middle" x="301.12" y="-316.5" font-family="Helvetica,sans-Serif" font-size="10.00">SyncCampaignElementMetadata.Run</text>
</a>
</g>
</g>
<!-- Node1&#45;&gt;Node6 -->
<g id="edge5_Node000001_Node000006" class="edge">
<title>Node1&#45;&gt;Node6</title>
<g id="a_edge5_Node000001_Node000006"><a xlink:title=" ">
<path fill="none" stroke="#63b8ff" d="M481.6,-266.38C457.9,-277.86 429.53,-290.87 403.25,-301 395.63,-303.94 387.6,-306.79 379.53,-309.5"/>
<polygon fill="#63b8ff" stroke="#63b8ff" points="482.98,-269.59 490.43,-262.06 479.91,-263.31 482.98,-269.59"/>
</a>
</g>
</g>
<!-- Node7 -->
<g id="Node000007" class="node">
<title>Node7</title>
<g id="a_Node000007"><a xlink:href="../../db/d64/class_deluxe_1_1_deluxe_brand_center_1_1_a_m_m_1_1_script_runner_1_1_services_1_1_scripts_1_1_sync_campaign_with_persona.html#a66c0a549986cd95034673dce0a592cc9" target="_top" xlink:title=" ">
<polygon fill="white" stroke="#666666" points="389.75,-292 212.5,-292 212.5,-248 389.75,-248 389.75,-292"/>
<text text-anchor="start" x="220.5" y="-278.5" font-family="Helvetica,sans-Serif" font-size="10.00">Deluxe.DeluxeBrandCenter.</text>
<text text-anchor="start" x="220.5" y="-266.5" font-family="Helvetica,sans-Serif" font-size="10.00">AMM.ScriptRunner.Services.Scripts.</text>
<text text-anchor="middle" x="301.12" y="-254.5" font-family="Helvetica,sans-Serif" font-size="10.00">SyncCampaignWithPersona.Run</text>
</a>
</g>
</g>
<!-- Node1&#45;&gt;Node7 -->
<g id="edge6_Node000001_Node000007" class="edge">
<title>Node1&#45;&gt;Node7</title>
<g id="a_edge6_Node000001_Node000007"><a xlink:title=" ">
<path fill="none" stroke="#63b8ff" d="M427.83,-253.3C415.19,-254.98 402.4,-256.68 390.07,-258.32"/>
<polygon fill="#63b8ff" stroke="#63b8ff" points="427.94,-256.82 437.39,-252.03 427.02,-249.88 427.94,-256.82"/>
</a>
</g>
</g>
<!-- Node8 -->
<g id="Node000008" class="node">
<title>Node8</title>
<g id="a_Node000008"><a xlink:href="../../d5/dd8/class_deluxe_1_1_deluxe_brand_center_1_1_a_m_m_1_1_script_runner_1_1_services_1_1_scripts_1_1_update_billing_codes.html#a9f558c64bc2ce711e63fdb8471f846dd" target="_top" xlink:title=" ">
<polygon fill="white" stroke="#666666" points="389.75,-230 212.5,-230 212.5,-186 389.75,-186 389.75,-230"/>
<text text-anchor="start" x="220.5" y="-216.5" font-family="Helvetica,sans-Serif" font-size="10.00">Deluxe.DeluxeBrandCenter.</text>
<text text-anchor="start" x="220.5" y="-204.5" font-family="Helvetica,sans-Serif" font-size="10.00">AMM.ScriptRunner.Services.Scripts.</text>
<text text-anchor="middle" x="301.12" y="-192.5" font-family="Helvetica,sans-Serif" font-size="10.00">UpdateBillingCodes.Run</text>
</a>
</g>
</g>
<!-- Node1&#45;&gt;Node8 -->
<g id="edge7_Node000001_Node000008" class="edge">
<title>Node1&#45;&gt;Node8</title>
<g id="a_edge7_Node000001_Node000008"><a xlink:title=" ">
<path fill="none" stroke="#63b8ff" d="M427.83,-224.7C415.19,-223.02 402.4,-221.32 390.07,-219.68"/>
<polygon fill="#63b8ff" stroke="#63b8ff" points="427.02,-228.12 437.39,-225.97 427.94,-221.18 427.02,-228.12"/>
</a>
</g>
</g>
<!-- Node9 -->
<g id="Node000009" class="node">
<title>Node9</title>
<g id="a_Node000009"><a xlink:href="../../da/d5b/class_deluxe_1_1_deluxe_brand_center_1_1_a_m_m_1_1_script_runner_1_1_services_1_1_scripts_1_1_update_recurring_schedules.html#a312e788a76f2d0d5e65fcc363d93d5f1" target="_top" xlink:title=" ">
<polygon fill="white" stroke="#666666" points="389.75,-168 212.5,-168 212.5,-124 389.75,-124 389.75,-168"/>
<text text-anchor="start" x="220.5" y="-154.5" font-family="Helvetica,sans-Serif" font-size="10.00">Deluxe.DeluxeBrandCenter.</text>
<text text-anchor="start" x="220.5" y="-142.5" font-family="Helvetica,sans-Serif" font-size="10.00">AMM.ScriptRunner.Services.Scripts.</text>
<text text-anchor="middle" x="301.12" y="-130.5" font-family="Helvetica,sans-Serif" font-size="10.00">UpdateRecurringSchedules.Run</text>
</a>
</g>
</g>
<!-- Node1&#45;&gt;Node9 -->
<g id="edge8_Node000001_Node000009" class="edge">
<title>Node1&#45;&gt;Node9</title>
<g id="a_edge8_Node000001_Node000009"><a xlink:title=" ">
<path fill="none" stroke="#63b8ff" d="M481.6,-211.62C457.9,-200.14 429.53,-187.13 403.25,-177 395.63,-174.06 387.6,-171.21 379.53,-168.5"/>
<polygon fill="#63b8ff" stroke="#63b8ff" points="479.91,-214.69 490.43,-215.94 482.98,-208.41 479.91,-214.69"/>
</a>
</g>
</g>
<!-- Node10 -->
<g id="Node000010" class="node">
<title>Node10</title>
<g id="a_Node000010"><a xlink:href="../../d9/dc8/class_deluxe_1_1_deluxe_brand_center_1_1_a_m_m_1_1_script_runner_1_1_services_1_1_scripts_1_1_update_social_callback_url.html#ac6b0e2b6a7a8b74581551d913ae00445" target="_top" xlink:title=" ">
<polygon fill="white" stroke="#666666" points="389.75,-106 212.5,-106 212.5,-62 389.75,-62 389.75,-106"/>
<text text-anchor="start" x="220.5" y="-92.5" font-family="Helvetica,sans-Serif" font-size="10.00">Deluxe.DeluxeBrandCenter.</text>
<text text-anchor="start" x="220.5" y="-80.5" font-family="Helvetica,sans-Serif" font-size="10.00">AMM.ScriptRunner.Services.Scripts.</text>
<text text-anchor="middle" x="301.12" y="-68.5" font-family="Helvetica,sans-Serif" font-size="10.00">UpdateSocialCallbackUrl.Run</text>
</a>
</g>
</g>
<!-- Node1&#45;&gt;Node10 -->
<g id="edge9_Node000001_Node000010" class="edge">
<title>Node1&#45;&gt;Node10</title>
<g id="a_edge9_Node000001_Node000010"><a xlink:title=" ">
<path fill="none" stroke="#63b8ff" d="M510.22,-208.35C485.6,-180.34 445.76,-139.64 403.25,-115 397.85,-111.87 392.1,-109.02 386.19,-106.44"/>
<polygon fill="#63b8ff" stroke="#63b8ff" points="507.49,-210.54 516.67,-215.81 512.78,-205.96 507.49,-210.54"/>
</a>
</g>
</g>
<!-- Node11 -->
<g id="Node000011" class="node">
<title>Node11</title>
<g id="a_Node000011"><a xlink:href="../../de/de4/class_deluxe_1_1_deluxe_brand_center_1_1_a_m_m_1_1_a_p_i_1_1_controllers_1_1_account_controller.html#aae7c1797604eeecb999bcd568479ffd0" target="_top" xlink:title="SSO SignIn endpoint (clientName used instead of clientId.">
<polygon fill="white" stroke="#666666" points="397.62,-44 204.62,-44 204.62,0 397.62,0 397.62,-44"/>
<text text-anchor="start" x="212.62" y="-30.5" font-family="Helvetica,sans-Serif" font-size="10.00">Deluxe.DeluxeBrandCenter.</text>
<text text-anchor="start" x="212.62" y="-18.5" font-family="Helvetica,sans-Serif" font-size="10.00">AMM.API.Controllers.AccountController.</text>
<text text-anchor="middle" x="301.12" y="-6.5" font-family="Helvetica,sans-Serif" font-size="10.00">SSOSignIn</text>
</a>
</g>
</g>
<!-- Node1&#45;&gt;Node11 -->
<g id="edge10_Node000001_Node000011" class="edge">
<title>Node1&#45;&gt;Node11</title>
<g id="a_edge10_Node000001_Node000011"><a xlink:title=" ">
<path fill="none" stroke="#63b8ff" d="M520.81,-206.63C500.31,-165.04 459.26,-93.42 403.25,-53 398.86,-49.83 394.13,-46.98 389.21,-44.42"/>
<polygon fill="#63b8ff" stroke="#63b8ff" points="517.54,-207.91 525.03,-215.4 523.85,-204.87 517.54,-207.91"/>
</a>
</g>
</g>
<!-- Node4 -->
<g id="Node000004" class="node">
<title>Node4</title>
<g id="a_Node000004"><a xlink:href="../../d7/d46/class_deluxe_1_1_deluxe_brand_center_1_1_a_m_m_1_1_a_p_i_1_1_program.html#a532919596f0e222c40869227ca3f649c" target="_top" xlink:title=" ">
<polygon fill="white" stroke="#666666" points="150.62,-429 12.38,-429 12.38,-397 150.62,-397 150.62,-429"/>
<text text-anchor="start" x="20.38" y="-415.5" font-family="Helvetica,sans-Serif" font-size="10.00">Deluxe.DeluxeBrandCenter.</text>
<text text-anchor="middle" x="81.5" y="-403.5" font-family="Helvetica,sans-Serif" font-size="10.00">AMM.API.Program.Main</text>
</a>
</g>
</g>
<!-- Node3&#45;&gt;Node4 -->
<g id="edge3_Node000003_Node000004" class="edge">
<title>Node3&#45;&gt;Node4</title>
<g id="a_edge3_Node000003_Node000004"><a xlink:title=" ">
<path fill="none" stroke="#63b8ff" d="M198.85,-399.63C182.61,-401.5 166.15,-403.39 150.92,-405.14"/>
<polygon fill="#63b8ff" stroke="#63b8ff" points="199,-403.14 208.53,-398.52 198.2,-396.19 199,-403.14"/>
</a>
</g>
</g>
<!-- Node5 -->
<g id="Node000005" class="node">
<title>Node5</title>
<g id="a_Node000005"><a xlink:href="../../d5/d31/class_deluxe_1_1_deluxe_brand_center_1_1_a_m_m_1_1_script_runner_1_1_program.html#af8b8129124833727adb81605472812f8" target="_top" xlink:title=" ">
<polygon fill="white" stroke="#666666" points="163,-379 0,-379 0,-347 163,-347 163,-379"/>
<text text-anchor="start" x="8" y="-365.5" font-family="Helvetica,sans-Serif" font-size="10.00">Deluxe.DeluxeBrandCenter.</text>
<text text-anchor="middle" x="81.5" y="-353.5" font-family="Helvetica,sans-Serif" font-size="10.00">AMM.ScriptRunner.Program.Main</text>
</a>
</g>
</g>
<!-- Node3&#45;&gt;Node5 -->
<g id="edge4_Node000003_Node000005" class="edge">
<title>Node3&#45;&gt;Node5</title>
<g id="a_edge4_Node000003_Node000005"><a xlink:title=" ">
<path fill="none" stroke="#63b8ff" d="M198.75,-376.35C186.92,-375 174.97,-373.62 163.47,-372.3"/>
<polygon fill="#63b8ff" stroke="#63b8ff" points="198.2,-379.81 208.53,-377.48 199,-372.86 198.2,-379.81"/>
</a>
</g>
</g>
</g>
</svg>

<g id="navigator" transform="translate(0 0)" fill="#404254">
  <rect fill="#f2f5e9" fill-opacity="0.5" stroke="#606060" stroke-width=".5" x="0" y="0" width="60" height="60"/>
  <use id="zoomplus" xlink:href="#zoomPlus" x="17" y="9" onmousedown="handleZoom(evt,'in')"/>
  <use id="zoomminus" xlink:href="#zoomMin" x="42" y="9" onmousedown="handleZoom(evt,'out')"/>
  <use id="reset" xlink:href="#resetDef" x="30" y="36" onmousedown="handleReset()"/>
   <use id="arrowup" xlink:href="#arrowUp" x="0" y="0" onmousedown="handlePan(0,-1)"/>
  <use id="arrowright" xlink:href="#arrowRight" x="0" y="0" onmousedown="handlePan(1,0)"/>
  <use id="arrowdown" xlink:href="#arrowDown" x="0" y="0" onmousedown="handlePan(0,1)"/>
  <use id="arrowleft" xlink:href="#arrowLeft" x="0" y="0" onmousedown="handlePan(-1,0)"/>
</g>
<svg viewBox="0 0 15 15" width="100%" height="30px" preserveAspectRatio="xMaxYMin meet">
 <g id="arrow_out" transform="scale(0.3 0.3)">
  <a xlink:href="interface_deluxe_1_1_deluxe_brand_center_1_1_a_m_m_1_1_domain_1_1_services_1_1_i_session_service_ae94ac3c976ea7efacd75965d046f4bc8_icgraph_org.svg" target="_base">
   <rect id="button" ry="5" rx="5" y="6" x="6" height="38" width="38"
        fill="#f2f5e9" fill-opacity="0.5" stroke="#606060" stroke-width="1.0"/>
   <path id="arrow"
     d="M 11.500037,31.436501 C 11.940474,20.09759 22.043105,11.32322 32.158766,21.979434 L 37.068811,17.246167 C 37.068811,17.246167 37.088388,32 37.088388,32 L 22.160133,31.978069 C 22.160133,31.978069 26.997745,27.140456 26.997745,27.140456 C 18.528582,18.264221 13.291696,25.230495 11.500037,31.436501 z"
     style="fill:#404040;"/>
  </a>
 </g>
</svg>

<style type='text/css'>
<![CDATA[
[data-mouse-over-selected='false'] { opacity: 0.7; }
[data-mouse-over-selected='true']  { opacity: 1.0; }
]]>
</style>
<script type="application/ecmascript"><![CDATA[
document.addEventListener('DOMContentLoaded', (event) => {
  highlightEdges();
  highlightAdjacentNodes();
});
]]></script>
</svg>
