<?xml version="1.0" encoding="UTF-8" standalone="no"?>
<!DOCTYPE svg PUBLIC "-//W3C//DTD SVG 1.1//EN"
 "http://www.w3.org/Graphics/SVG/1.1/DTD/svg11.dtd">
<!-- Generated by graphviz version 12.1.1 (20240910.0053)
 -->
<!-- Title: Deluxe.DeluxeBrandCenter.AMM.Domain.Services.ISessionService.SessionGetClientId Pages: 1 -->
<!--zoomable 953 -->

<svg id="main" version="1.1" xmlns="http://www.w3.org/2000/svg" xmlns:xlink="http://www.w3.org/1999/xlink" xml:space="preserve" onload="init(evt)">

<style type="text/css"><![CDATA[
.node, .edge {opacity: 0.7;}
.node.selected, .edge.selected {opacity: 1;}
.edge:hover path { stroke: red; }
.edge:hover polygon { stroke: red; fill: red; }
]]></style>

<defs>
  <circle id="rim" cx="0" cy="0" r="7"/>
  <circle id="rim2" cx="0" cy="0" r="3.5"/>
  <g id="zoomPlus">
    <use xlink:href="#rim" fill="#404040"><set attributeName="fill" to="#808080" begin="zoomplus.mouseover" end="zoomplus.mouseout"/></use>
    <path d="M-4,0h8M0,-4v8" fill="none" stroke="white" stroke-width="1.5" pointer-events="none"/>
  </g>
  <g id="zoomMin">
    <use xlink:href="#rim" fill="#404040"><set attributeName="fill" to="#808080" begin="zoomminus.mouseover" end="zoomminus.mouseout"/></use>
    <path d="M-4,0h8" fill="none" stroke="white" stroke-width="1.5" pointer-events="none"/>
  </g>
  <g id="arrowUp" transform="translate(30 24)">
    <use xlink:href="#rim"/>
    <path pointer-events="none" fill="none" stroke="white" stroke-width="1.5" d="M0,-3.0v7 M-2.5,-0.5L0,-3.0L2.5,-0.5"/>
  </g>
  <g id="arrowRight" transform="rotate(90) translate(36 -43)">
    <use xlink:href="#rim"/>
    <path pointer-events="none" fill="none" stroke="white" stroke-width="1.5" d="M0,-3.0v7 M-2.5,-0.5L0,-3.0L2.5,-0.5"/>
  </g>
  <g id="arrowDown" transform="rotate(180) translate(-30 -48)">
    <use xlink:href="#rim"/>
    <path pointer-events="none" fill="none" stroke="white" stroke-width="1.5" d="M0,-3.0v7 M-2.5,-0.5L0,-3.0L2.5,-0.5"/>
  </g>
  <g id="arrowLeft" transform="rotate(270) translate(-36 17)">
    <use xlink:href="#rim"/>
    <path pointer-events="none" fill="none" stroke="white" stroke-width="1.5" d="M0,-3.0v7 M-2.5,-0.5L0,-3.0L2.5,-0.5"/>
  </g>
  <g id="resetDef">
    <use xlink:href="#rim2" fill="#404040"><set attributeName="fill" to="#808080" begin="reset.mouseover" end="reset.mouseout"/></use>
  </g>
</defs>
<script type="application/ecmascript">
var viewWidth = 878;
var viewHeight = 953;
var sectionId = 'dynsection-2';
</script>
<script type="application/ecmascript" xlink:href="../../svg.min.js"/>
<svg id="graph" class="graph">
<g id="viewport">
<title>Deluxe.DeluxeBrandCenter.AMM.Domain.Services.ISessionService.SessionGetClientId</title>
<!-- Node1 -->
<g id="Node000001" class="node">
<title>Node1</title>
<g id="a_Node000001"><a xlink:title=" ">
<polygon fill="#999999" stroke="#666666" points="869.5,-477.5 675,-477.5 675,-433.5 869.5,-433.5 869.5,-477.5"/>
<text text-anchor="start" x="683" y="-464" font-family="Helvetica,sans-Serif" font-size="10.00">Deluxe.DeluxeBrandCenter.</text>
<text text-anchor="start" x="683" y="-452" font-family="Helvetica,sans-Serif" font-size="10.00">AMM.Domain.Services.ISessionService.</text>
<text text-anchor="middle" x="772.25" y="-440" font-family="Helvetica,sans-Serif" font-size="10.00">SessionGetClientId</text>
</a>
</g>
</g>
<!-- Node2 -->
<g id="Node000002" class="node">
<title>Node2</title>
<g id="a_Node000002"><a xlink:href="../../d6/d4e/class_deluxe_1_1_deluxe_brand_center_1_1_a_m_m_1_1_a_p_i_1_1_services_1_1_d_b_service.html#a6c85cb2ef87129e03336b272296ef9ed" target="_top" xlink:title=" ">
<polygon fill="white" stroke="#666666" points="626.25,-944.5 444.5,-944.5 444.5,-912.5 626.25,-912.5 626.25,-944.5"/>
<text text-anchor="start" x="452.5" y="-931" font-family="Helvetica,sans-Serif" font-size="10.00">Deluxe.DeluxeBrandCenter.</text>
<text text-anchor="middle" x="535.38" y="-919" font-family="Helvetica,sans-Serif" font-size="10.00">AMM.API.Services.DBService.Delete</text>
</a>
</g>
</g>
<!-- Node1&#45;&gt;Node2 -->
<g id="edge1_Node000001_Node000002" class="edge">
<title>Node1&#45;&gt;Node2</title>
<g id="a_edge1_Node000001_Node000002"><a xlink:title=" ">
<path fill="none" stroke="#63b8ff" d="M771.92,-489.07C771.66,-572.21 758.88,-789.25 639,-903.5 635.28,-907.04 631.15,-910.11 626.74,-912.76"/>
<polygon fill="#63b8ff" stroke="#63b8ff" points="775.42,-489.3 771.89,-479.31 768.42,-489.32 775.42,-489.3"/>
</a>
</g>
</g>
<!-- Node3 -->
<g id="Node000003" class="node">
<title>Node3</title>
<g id="a_Node000003"><a xlink:href="../../d6/d4e/class_deluxe_1_1_deluxe_brand_center_1_1_a_m_m_1_1_a_p_i_1_1_services_1_1_d_b_service.html#a1b430fff2cd0fd362f2292842556e150" target="_top" xlink:title=" ">
<polygon fill="white" stroke="#666666" points="623.62,-894.5 447.12,-894.5 447.12,-850.5 623.62,-850.5 623.62,-894.5"/>
<text text-anchor="start" x="455.12" y="-881" font-family="Helvetica,sans-Serif" font-size="10.00">Deluxe.DeluxeBrandCenter.</text>
<text text-anchor="start" x="455.12" y="-869" font-family="Helvetica,sans-Serif" font-size="10.00">AMM.API.Services.DBService.Does</text>
<text text-anchor="middle" x="535.38" y="-857" font-family="Helvetica,sans-Serif" font-size="10.00">Exist&lt; TModelCheck &gt;</text>
</a>
</g>
</g>
<!-- Node1&#45;&gt;Node3 -->
<g id="edge2_Node000001_Node000003" class="edge">
<title>Node1&#45;&gt;Node3</title>
<g id="a_edge2_Node000001_Node000003"><a xlink:title=" ">
<path fill="none" stroke="#63b8ff" d="M769.63,-489.39C764.2,-563.97 740.7,-743.47 639,-841.5 634.44,-845.89 629.29,-849.67 623.77,-852.9"/>
<polygon fill="#63b8ff" stroke="#63b8ff" points="773.12,-489.66 770.28,-479.45 766.13,-489.2 773.12,-489.66"/>
</a>
</g>
</g>
<!-- Node4 -->
<g id="Node000004" class="node">
<title>Node4</title>
<g id="a_Node000004"><a xlink:href="../../d6/d4e/class_deluxe_1_1_deluxe_brand_center_1_1_a_m_m_1_1_a_p_i_1_1_services_1_1_d_b_service.html#aec72952783f3ca26271f0d83daf842a0" target="_top" xlink:title=" ">
<polygon fill="white" stroke="#666666" points="624.75,-832.5 446,-832.5 446,-800.5 624.75,-800.5 624.75,-832.5"/>
<text text-anchor="start" x="454" y="-819" font-family="Helvetica,sans-Serif" font-size="10.00">Deluxe.DeluxeBrandCenter.</text>
<text text-anchor="middle" x="535.38" y="-807" font-family="Helvetica,sans-Serif" font-size="10.00">AMM.API.Services.DBService.Entity</text>
</a>
</g>
</g>
<!-- Node1&#45;&gt;Node4 -->
<g id="edge3_Node000001_Node000004" class="edge">
<title>Node1&#45;&gt;Node4</title>
<g id="a_edge3_Node000001_Node000004"><a xlink:title=" ">
<path fill="none" stroke="#63b8ff" d="M767.55,-488.82C758.38,-555.36 728.44,-705.24 639,-786.5 633.02,-791.93 626.12,-796.38 618.76,-800.03"/>
<polygon fill="#63b8ff" stroke="#63b8ff" points="770.98,-489.64 768.79,-479.27 764.03,-488.74 770.98,-489.64"/>
</a>
</g>
</g>
<!-- Node5 -->
<g id="Node000005" class="node">
<title>Node5</title>
<g id="a_Node000005"><a xlink:href="../../d6/d4e/class_deluxe_1_1_deluxe_brand_center_1_1_a_m_m_1_1_a_p_i_1_1_services_1_1_d_b_service.html#a6a36267be41c5fcd421f142fdc3cdee5" target="_top" xlink:title=" ">
<polygon fill="white" stroke="#666666" points="395.75,-816.5 211,-816.5 211,-772.5 395.75,-772.5 395.75,-816.5"/>
<text text-anchor="start" x="219" y="-803" font-family="Helvetica,sans-Serif" font-size="10.00">Deluxe.DeluxeBrandCenter.</text>
<text text-anchor="start" x="219" y="-791" font-family="Helvetica,sans-Serif" font-size="10.00">AMM.API.Services.DBService.Update</text>
<text text-anchor="middle" x="303.38" y="-779" font-family="Helvetica,sans-Serif" font-size="10.00">Entity</text>
</a>
</g>
</g>
<!-- Node1&#45;&gt;Node5 -->
<g id="edge25_Node000001_Node000005" class="edge">
<title>Node1&#45;&gt;Node5</title>
<g id="a_edge25_Node000001_Node000005"><a xlink:title=" ">
<path fill="none" stroke="#63b8ff" d="M767.12,-488.89C757.39,-552.04 726.81,-688.46 639,-753.5 619.75,-767.76 488.21,-780.56 395.91,-787.92"/>
<polygon fill="#63b8ff" stroke="#63b8ff" points="770.57,-489.53 768.54,-479.13 763.64,-488.53 770.57,-489.53"/>
</a>
</g>
</g>
<!-- Node6 -->
<g id="Node000006" class="node">
<title>Node6</title>
<g id="a_Node000006"><a xlink:href="../../d6/d4e/class_deluxe_1_1_deluxe_brand_center_1_1_a_m_m_1_1_a_p_i_1_1_services_1_1_d_b_service.html#af384a955359d87b218b1ce907bfbe6c3" target="_top" xlink:title=" ">
<polygon fill="white" stroke="#666666" points="618.38,-744.5 452.38,-744.5 452.38,-700.5 618.38,-700.5 618.38,-744.5"/>
<text text-anchor="start" x="460.38" y="-731" font-family="Helvetica,sans-Serif" font-size="10.00">Deluxe.DeluxeBrandCenter.</text>
<text text-anchor="start" x="460.38" y="-719" font-family="Helvetica,sans-Serif" font-size="10.00">AMM.API.Services.DBService.Fill</text>
<text text-anchor="middle" x="535.38" y="-707" font-family="Helvetica,sans-Serif" font-size="10.00">HtmlContent</text>
</a>
</g>
</g>
<!-- Node1&#45;&gt;Node6 -->
<g id="edge5_Node000001_Node000006" class="edge">
<title>Node1&#45;&gt;Node6</title>
<g id="a_edge5_Node000001_Node000006"><a xlink:title=" ">
<path fill="none" stroke="#63b8ff" d="M761.64,-488.48C745.06,-539.56 706.24,-637.5 639,-691.5 632.91,-696.4 626.05,-700.52 618.84,-703.99"/>
<polygon fill="#63b8ff" stroke="#63b8ff" points="764.9,-489.77 764.56,-479.18 758.22,-487.67 764.9,-489.77"/>
</a>
</g>
</g>
<!-- Node7 -->
<g id="Node000007" class="node">
<title>Node7</title>
<g id="a_Node000007"><a xlink:href="../../d1/d32/class_deluxe_1_1_deluxe_brand_center_1_1_a_m_m_1_1_infrastructure_1_1_social_1_1_linkedin_service.html#abb7bc77ee8f44aa0c2828024c0160530" target="_top" xlink:title=" ">
<polygon fill="white" stroke="#666666" points="619.88,-682.5 450.88,-682.5 450.88,-638.5 619.88,-638.5 619.88,-682.5"/>
<text text-anchor="start" x="458.88" y="-669" font-family="Helvetica,sans-Serif" font-size="10.00">Deluxe.DeluxeBrandCenter.</text>
<text text-anchor="start" x="458.88" y="-657" font-family="Helvetica,sans-Serif" font-size="10.00">AMM.Infrastructure.Social.Linkedin</text>
<text text-anchor="middle" x="535.38" y="-645" font-family="Helvetica,sans-Serif" font-size="10.00">Service.GetBySocialToken</text>
</a>
</g>
</g>
<!-- Node1&#45;&gt;Node7 -->
<g id="edge6_Node000001_Node000007" class="edge">
<title>Node1&#45;&gt;Node7</title>
<g id="a_edge6_Node000001_Node000007"><a xlink:title=" ">
<path fill="none" stroke="#63b8ff" d="M754.93,-487.87C733.54,-527.06 692.38,-592.42 639,-629.5 633.19,-633.54 626.85,-637.06 620.25,-640.13"/>
<polygon fill="#63b8ff" stroke="#63b8ff" points="757.97,-489.59 759.59,-479.12 751.8,-486.3 757.97,-489.59"/>
</a>
</g>
</g>
<!-- Node8 -->
<g id="Node000008" class="node">
<title>Node8</title>
<g id="a_Node000008"><a xlink:href="../../de/d3c/class_deluxe_1_1_deluxe_brand_center_1_1_a_m_m_1_1_infrastructure_1_1_social_1_1_twitter_service.html#a8034291dee916419c3c8dfd9185574bd" target="_top" xlink:title=" ">
<polygon fill="white" stroke="#666666" points="616.5,-620.5 454.25,-620.5 454.25,-576.5 616.5,-576.5 616.5,-620.5"/>
<text text-anchor="start" x="462.25" y="-607" font-family="Helvetica,sans-Serif" font-size="10.00">Deluxe.DeluxeBrandCenter.</text>
<text text-anchor="start" x="462.25" y="-595" font-family="Helvetica,sans-Serif" font-size="10.00">AMM.Infrastructure.Social.Twitter</text>
<text text-anchor="middle" x="535.38" y="-583" font-family="Helvetica,sans-Serif" font-size="10.00">Service.GetBySocialToken</text>
</a>
</g>
</g>
<!-- Node1&#45;&gt;Node8 -->
<g id="edge7_Node000001_Node000008" class="edge">
<title>Node1&#45;&gt;Node8</title>
<g id="a_edge7_Node000001_Node000008"><a xlink:title=" ">
<path fill="none" stroke="#63b8ff" d="M742.42,-486.1C717.26,-511.18 678.66,-545.94 639,-567.5 632.05,-571.28 624.58,-574.66 616.95,-577.67"/>
<polygon fill="#63b8ff" stroke="#63b8ff" points="744.82,-488.65 749.35,-479.07 739.84,-483.73 744.82,-488.65"/>
</a>
</g>
</g>
<!-- Node9 -->
<g id="Node000009" class="node">
<title>Node9</title>
<g id="a_Node000009"><a xlink:href="../../d3/d7d/class_deluxe_1_1_deluxe_brand_center_1_1_a_m_m_1_1_a_p_i_1_1_services_1_1_b_i_service.html#a16746817aced3795d9ed8f95e89c36b3" target="_top" xlink:title=" ">
<polygon fill="white" stroke="#666666" points="617.62,-558.5 453.12,-558.5 453.12,-514.5 617.62,-514.5 617.62,-558.5"/>
<text text-anchor="start" x="461.12" y="-545" font-family="Helvetica,sans-Serif" font-size="10.00">Deluxe.DeluxeBrandCenter.</text>
<text text-anchor="start" x="461.12" y="-533" font-family="Helvetica,sans-Serif" font-size="10.00">AMM.API.Services.BIService.Get</text>
<text text-anchor="middle" x="535.38" y="-521" font-family="Helvetica,sans-Serif" font-size="10.00">CampaignsAndStats</text>
</a>
</g>
</g>
<!-- Node1&#45;&gt;Node9 -->
<g id="edge8_Node000001_Node000009" class="edge">
<title>Node1&#45;&gt;Node9</title>
<g id="a_edge8_Node000001_Node000009"><a xlink:title=" ">
<path fill="none" stroke="#63b8ff" d="M703.98,-481.95C683.25,-489.82 660.28,-498.28 639,-505.5 630.54,-508.37 621.65,-511.26 612.78,-514.05"/>
<polygon fill="#63b8ff" stroke="#63b8ff" points="705.09,-485.27 713.18,-478.43 702.59,-478.73 705.09,-485.27"/>
</a>
</g>
</g>
<!-- Node10 -->
<g id="Node000010" class="node">
<title>Node10</title>
<g id="a_Node000010"><a xlink:href="../../d6/d4e/class_deluxe_1_1_deluxe_brand_center_1_1_a_m_m_1_1_a_p_i_1_1_services_1_1_d_b_service.html#a046c056e20d9b800c2e6dc5cfd0259e3" target="_top" xlink:title=" ">
<polygon fill="white" stroke="#666666" points="627.75,-496.5 443,-496.5 443,-464.5 627.75,-464.5 627.75,-496.5"/>
<text text-anchor="start" x="451" y="-483" font-family="Helvetica,sans-Serif" font-size="10.00">Deluxe.DeluxeBrandCenter.</text>
<text text-anchor="middle" x="535.38" y="-471" font-family="Helvetica,sans-Serif" font-size="10.00">AMM.API.Services.DBService.GetList</text>
</a>
</g>
</g>
<!-- Node1&#45;&gt;Node10 -->
<g id="edge9_Node000001_Node000010" class="edge">
<title>Node1&#45;&gt;Node10</title>
<g id="a_edge9_Node000001_Node000010"><a xlink:title=" ">
<path fill="none" stroke="#63b8ff" d="M663.41,-466.98C651.58,-468.24 639.62,-469.51 628.01,-470.75"/>
<polygon fill="#63b8ff" stroke="#63b8ff" points="663.62,-470.48 673.2,-465.94 662.88,-463.52 663.62,-470.48"/>
</a>
</g>
</g>
<!-- Node11 -->
<g id="Node000011" class="node">
<title>Node11</title>
<g id="a_Node000011"><a xlink:href="../../d6/d4e/class_deluxe_1_1_deluxe_brand_center_1_1_a_m_m_1_1_a_p_i_1_1_services_1_1_d_b_service.html#a505675679603ae3ebac9631884a7c2ed" target="_top" xlink:title=" ">
<polygon fill="white" stroke="#666666" points="627.75,-446.5 443,-446.5 443,-414.5 627.75,-414.5 627.75,-446.5"/>
<text text-anchor="start" x="451" y="-433" font-family="Helvetica,sans-Serif" font-size="10.00">Deluxe.DeluxeBrandCenter.</text>
<text text-anchor="middle" x="535.38" y="-421" font-family="Helvetica,sans-Serif" font-size="10.00">AMM.API.Services.DBService.GetList</text>
</a>
</g>
</g>
<!-- Node1&#45;&gt;Node11 -->
<g id="edge10_Node000001_Node000011" class="edge">
<title>Node1&#45;&gt;Node11</title>
<g id="a_edge10_Node000001_Node000011"><a xlink:title=" ">
<path fill="none" stroke="#63b8ff" d="M663.41,-444.02C651.58,-442.76 639.62,-441.49 628.01,-440.26"/>
<polygon fill="#63b8ff" stroke="#63b8ff" points="662.88,-447.49 673.2,-445.06 663.62,-440.53 662.88,-447.49"/>
</a>
</g>
</g>
<!-- Node12 -->
<g id="Node000012" class="node">
<title>Node12</title>
<g id="a_Node000012"><a xlink:href="../../de/d03/class_deluxe_1_1_deluxe_brand_center_1_1_a_m_m_1_1_a_p_i_1_1_services_1_1_mindfire_service.html#ad1005cde72c7f7bc65810148a47a6569" target="_top" xlink:title=" ">
<polygon fill="white" stroke="#666666" points="390.12,-383.5 216.62,-383.5 216.62,-339.5 390.12,-339.5 390.12,-383.5"/>
<text text-anchor="start" x="224.62" y="-370" font-family="Helvetica,sans-Serif" font-size="10.00">Deluxe.DeluxeBrandCenter.</text>
<text text-anchor="start" x="224.62" y="-358" font-family="Helvetica,sans-Serif" font-size="10.00">AMM.API.Services.MindfireService.</text>
<text text-anchor="middle" x="303.38" y="-346" font-family="Helvetica,sans-Serif" font-size="10.00">MindfireService</text>
</a>
</g>
</g>
<!-- Node1&#45;&gt;Node12 -->
<g id="edge11_Node000001_Node000012" class="edge">
<title>Node1&#45;&gt;Node12</title>
<g id="a_edge11_Node000001_Node000012"><a xlink:title=" ">
<path fill="none" stroke="#63b8ff" d="M709.8,-428.9C687.82,-420.29 662.63,-411.44 639,-405.5 555.89,-384.62 458.53,-373.24 390.32,-367.32"/>
<polygon fill="#63b8ff" stroke="#63b8ff" points="708.33,-432.08 718.91,-432.53 710.92,-425.58 708.33,-432.08"/>
</a>
</g>
</g>
<!-- Node13 -->
<g id="Node000013" class="node">
<title>Node13</title>
<g id="a_Node000013"><a xlink:href="../../dc/db9/class_deluxe_1_1_deluxe_brand_center_1_1_a_m_m_1_1_a_p_i_1_1_services_1_1_account_service.html#aab5e5f4f159724b2d4a8059499f33bad" target="_top" xlink:title=" ">
<polygon fill="white" stroke="#666666" points="639,-296.5 431.75,-296.5 431.75,-252.5 639,-252.5 639,-296.5"/>
<text text-anchor="start" x="439.75" y="-283" font-family="Helvetica,sans-Serif" font-size="10.00">Deluxe.DeluxeBrandCenter.</text>
<text text-anchor="start" x="439.75" y="-271" font-family="Helvetica,sans-Serif" font-size="10.00">AMM.API.Services.AccountService.register</text>
<text text-anchor="middle" x="535.38" y="-259" font-family="Helvetica,sans-Serif" font-size="10.00">UserAdminWithUserId</text>
</a>
</g>
</g>
<!-- Node1&#45;&gt;Node13 -->
<g id="edge12_Node000001_Node000013" class="edge">
<title>Node1&#45;&gt;Node13</title>
<g id="a_edge12_Node000001_Node000013"><a xlink:title=" ">
<path fill="none" stroke="#63b8ff" d="M751.16,-423.69C728.08,-389.65 687.13,-336.4 639,-305.5 634.07,-302.33 628.79,-299.48 623.34,-296.9"/>
<polygon fill="#63b8ff" stroke="#63b8ff" points="748.17,-425.51 756.63,-431.9 754,-421.64 748.17,-425.51"/>
</a>
</g>
</g>
<!-- Node16 -->
<g id="Node000016" class="node">
<title>Node16</title>
<g id="a_Node000016"><a xlink:href="../../dc/db9/class_deluxe_1_1_deluxe_brand_center_1_1_a_m_m_1_1_a_p_i_1_1_services_1_1_account_service.html#a23c6273daa8f4761e7b257a9d0d510c0" target="_top" xlink:title=" ">
<polygon fill="white" stroke="#666666" points="639,-234.5 431.75,-234.5 431.75,-190.5 639,-190.5 639,-234.5"/>
<text text-anchor="start" x="439.75" y="-221" font-family="Helvetica,sans-Serif" font-size="10.00">Deluxe.DeluxeBrandCenter.</text>
<text text-anchor="start" x="439.75" y="-209" font-family="Helvetica,sans-Serif" font-size="10.00">AMM.API.Services.AccountService.register</text>
<text text-anchor="middle" x="535.38" y="-197" font-family="Helvetica,sans-Serif" font-size="10.00">UserAdvisorWithUserId</text>
</a>
</g>
</g>
<!-- Node1&#45;&gt;Node16 -->
<g id="edge15_Node000001_Node000016" class="edge">
<title>Node1&#45;&gt;Node16</title>
<g id="a_edge15_Node000001_Node000016"><a xlink:title=" ">
<path fill="none" stroke="#63b8ff" d="M759.36,-422.48C740.85,-375.75 700.74,-290.75 639,-243.5 634.86,-240.33 630.4,-237.49 625.74,-234.93"/>
<polygon fill="#63b8ff" stroke="#63b8ff" points="756.09,-423.73 762.95,-431.81 762.62,-421.22 756.09,-423.73"/>
</a>
</g>
</g>
<!-- Node17 -->
<g id="Node000017" class="node">
<title>Node17</title>
<g id="a_Node000017"><a xlink:href="../../de/d03/class_deluxe_1_1_deluxe_brand_center_1_1_a_m_m_1_1_a_p_i_1_1_services_1_1_mindfire_service.html#a3b172efaa45a0d964004f54a2a465c81" target="_top" xlink:title=" ">
<polygon fill="white" stroke="#666666" points="622.12,-358.5 448.62,-358.5 448.62,-314.5 622.12,-314.5 622.12,-358.5"/>
<text text-anchor="start" x="456.62" y="-345" font-family="Helvetica,sans-Serif" font-size="10.00">Deluxe.DeluxeBrandCenter.</text>
<text text-anchor="start" x="456.62" y="-333" font-family="Helvetica,sans-Serif" font-size="10.00">AMM.API.Services.MindfireService.</text>
<text text-anchor="middle" x="535.38" y="-321" font-family="Helvetica,sans-Serif" font-size="10.00">SetUserCredentials</text>
</a>
</g>
</g>
<!-- Node1&#45;&gt;Node17 -->
<g id="edge17_Node000001_Node000017" class="edge">
<title>Node1&#45;&gt;Node17</title>
<g id="a_edge17_Node000001_Node000017"><a xlink:title=" ">
<path fill="none" stroke="#63b8ff" d="M730.73,-426.75C705.22,-409.51 671.16,-387.99 639,-372.5 628.88,-367.63 617.92,-363.07 607.06,-358.95"/>
<polygon fill="#63b8ff" stroke="#63b8ff" points="728.58,-429.52 738.81,-432.27 732.53,-423.74 728.58,-429.52"/>
</a>
</g>
</g>
<!-- Node18 -->
<g id="Node000018" class="node">
<title>Node18</title>
<g id="a_Node000018"><a xlink:href="../../d6/d4e/class_deluxe_1_1_deluxe_brand_center_1_1_a_m_m_1_1_a_p_i_1_1_services_1_1_d_b_service.html#a3aa44a3da33309365ed82634a6599750" target="_top" xlink:title=" ">
<polygon fill="white" stroke="#666666" points="625.5,-172.5 445.25,-172.5 445.25,-140.5 625.5,-140.5 625.5,-172.5"/>
<text text-anchor="start" x="453.25" y="-159" font-family="Helvetica,sans-Serif" font-size="10.00">Deluxe.DeluxeBrandCenter.</text>
<text text-anchor="middle" x="535.38" y="-147" font-family="Helvetica,sans-Serif" font-size="10.00">AMM.API.Services.DBService.Single</text>
</a>
</g>
</g>
<!-- Node1&#45;&gt;Node18 -->
<g id="edge19_Node000001_Node000018" class="edge">
<title>Node1&#45;&gt;Node18</title>
<g id="a_edge19_Node000001_Node000018"><a xlink:title=" ">
<path fill="none" stroke="#63b8ff" d="M764.76,-421.9C751.71,-363.68 716.62,-244.27 639,-181.5 634.86,-178.16 630.35,-175.25 625.59,-172.72"/>
<polygon fill="#63b8ff" stroke="#63b8ff" points="761.31,-422.51 766.84,-431.55 768.16,-421.03 761.31,-422.51"/>
</a>
</g>
</g>
<!-- Node19 -->
<g id="Node000019" class="node">
<title>Node19</title>
<g id="a_Node000019"><a xlink:href="../../d6/d4e/class_deluxe_1_1_deluxe_brand_center_1_1_a_m_m_1_1_a_p_i_1_1_services_1_1_d_b_service.html#afe2cfea5a2d80d175eb77eed44f64d1c" target="_top" xlink:title=" ">
<polygon fill="white" stroke="#666666" points="625.5,-84.5 445.25,-84.5 445.25,-52.5 625.5,-52.5 625.5,-84.5"/>
<text text-anchor="start" x="453.25" y="-71" font-family="Helvetica,sans-Serif" font-size="10.00">Deluxe.DeluxeBrandCenter.</text>
<text text-anchor="middle" x="535.38" y="-59" font-family="Helvetica,sans-Serif" font-size="10.00">AMM.API.Services.DBService.Single</text>
</a>
</g>
</g>
<!-- Node1&#45;&gt;Node19 -->
<g id="edge20_Node000001_Node000019" class="edge">
<title>Node1&#45;&gt;Node19</title>
<g id="a_edge20_Node000001_Node000019"><a xlink:title=" ">
<path fill="none" stroke="#63b8ff" d="M768.66,-422.11C761.38,-351.78 734.53,-187.53 639,-98.5 633.16,-93.06 626.39,-88.6 619.16,-84.94"/>
<polygon fill="#63b8ff" stroke="#63b8ff" points="765.15,-422.22 769.59,-431.84 772.12,-421.55 765.15,-422.22"/>
</a>
</g>
</g>
<!-- Node20 -->
<g id="Node000020" class="node">
<title>Node20</title>
<g id="a_Node000020"><a xlink:href="../../d6/d4e/class_deluxe_1_1_deluxe_brand_center_1_1_a_m_m_1_1_a_p_i_1_1_services_1_1_d_b_service.html#a3c3157f7342639a27aaf96d9a6789a0d" target="_top" xlink:title=" ">
<polygon fill="white" stroke="#666666" points="395.75,-112.5 211,-112.5 211,-80.5 395.75,-80.5 395.75,-112.5"/>
<text text-anchor="start" x="219" y="-99" font-family="Helvetica,sans-Serif" font-size="10.00">Deluxe.DeluxeBrandCenter.</text>
<text text-anchor="middle" x="303.38" y="-87" font-family="Helvetica,sans-Serif" font-size="10.00">AMM.API.Services.DBService.Update</text>
</a>
</g>
</g>
<!-- Node1&#45;&gt;Node20 -->
<g id="edge23_Node000001_Node000020" class="edge">
<title>Node1&#45;&gt;Node20</title>
<g id="a_edge23_Node000001_Node000020"><a xlink:title=" ">
<path fill="none" stroke="#63b8ff" d="M768.53,-421.97C761.1,-354.53 734.12,-202.88 639,-131.5 601.86,-103.63 481.77,-96.88 396.1,-95.76"/>
<polygon fill="#63b8ff" stroke="#63b8ff" points="765.02,-422.07 769.51,-431.66 771.98,-421.36 765.02,-422.07"/>
</a>
</g>
</g>
<!-- Node21 -->
<g id="Node000021" class="node">
<title>Node21</title>
<g id="a_Node000021"><a xlink:href="../../dd/dd8/class_deluxe_1_1_deluxe_brand_center_1_1_a_m_m_1_1_a_p_i_1_1_services_1_1_named_db_service.html#a1973004478b40ea1649588ebc63d796b" target="_top" xlink:title=" ">
<polygon fill="white" stroke="#666666" points="395,-54.5 211.75,-54.5 211.75,-10.5 395,-10.5 395,-54.5"/>
<text text-anchor="start" x="219.75" y="-41" font-family="Helvetica,sans-Serif" font-size="10.00">Deluxe.DeluxeBrandCenter.</text>
<text text-anchor="start" x="219.75" y="-29" font-family="Helvetica,sans-Serif" font-size="10.00">AMM.API.Services.NamedDbService.</text>
<text text-anchor="middle" x="303.38" y="-17" font-family="Helvetica,sans-Serif" font-size="10.00">Update</text>
</a>
</g>
</g>
<!-- Node1&#45;&gt;Node21 -->
<g id="edge24_Node000001_Node000021" class="edge">
<title>Node1&#45;&gt;Node21</title>
<g id="a_edge24_Node000001_Node000021"><a xlink:title=" ">
<path fill="none" stroke="#63b8ff" d="M772.24,-421.74C772.57,-340.76 760.77,-135.4 639,-43.5 568.6,9.64 464.08,3.64 390.63,-10.05"/>
<polygon fill="#63b8ff" stroke="#63b8ff" points="768.74,-421.64 772.13,-431.68 775.74,-421.72 768.74,-421.64"/>
</a>
</g>
</g>
<!-- Node4&#45;&gt;Node5 -->
<g id="edge4_Node000004_Node000005" class="edge">
<title>Node4&#45;&gt;Node5</title>
<g id="a_edge4_Node000004_Node000005"><a xlink:title=" ">
<path fill="none" stroke="#63b8ff" d="M434.59,-806.96C421.75,-805.73 408.66,-804.48 395.97,-803.26"/>
<polygon fill="#63b8ff" stroke="#63b8ff" points="433.99,-810.42 444.27,-807.88 434.65,-803.45 433.99,-810.42"/>
</a>
</g>
</g>
<!-- Node14 -->
<g id="Node000014" class="node">
<title>Node14</title>
<g id="a_Node000014"><a xlink:href="../../dc/db9/class_deluxe_1_1_deluxe_brand_center_1_1_a_m_m_1_1_a_p_i_1_1_services_1_1_account_service.html#ae47fd0f3f51489123d65b4d4c1778e9e" target="_top" xlink:title=" ">
<polygon fill="white" stroke="#666666" points="390.88,-265.5 215.88,-265.5 215.88,-221.5 390.88,-221.5 390.88,-265.5"/>
<text text-anchor="start" x="223.88" y="-252" font-family="Helvetica,sans-Serif" font-size="10.00">Deluxe.DeluxeBrandCenter.</text>
<text text-anchor="start" x="223.88" y="-240" font-family="Helvetica,sans-Serif" font-size="10.00">AMM.API.Services.AccountService.</text>
<text text-anchor="middle" x="303.38" y="-228" font-family="Helvetica,sans-Serif" font-size="10.00">RegisterAdvisor</text>
</a>
</g>
</g>
<!-- Node13&#45;&gt;Node14 -->
<g id="edge13_Node000013_Node000014" class="edge">
<title>Node13&#45;&gt;Node14</title>
<g id="a_edge13_Node000013_Node000014"><a xlink:title=" ">
<path fill="none" stroke="#63b8ff" d="M420.14,-259.11C410.47,-257.8 400.79,-256.5 391.37,-255.23"/>
<polygon fill="#63b8ff" stroke="#63b8ff" points="419.61,-262.56 429.98,-260.43 420.54,-255.63 419.61,-262.56"/>
</a>
</g>
</g>
<!-- Node15 -->
<g id="Node000015" class="node">
<title>Node15</title>
<g id="a_Node000015"><a xlink:href="../../dc/db9/class_deluxe_1_1_deluxe_brand_center_1_1_a_m_m_1_1_a_p_i_1_1_services_1_1_account_service.html#ae3584aa7350a66b28807932012ac7dd2" target="_top" xlink:title=" ">
<polygon fill="white" stroke="#666666" points="175,-265.5 0,-265.5 0,-221.5 175,-221.5 175,-265.5"/>
<text text-anchor="start" x="8" y="-252" font-family="Helvetica,sans-Serif" font-size="10.00">Deluxe.DeluxeBrandCenter.</text>
<text text-anchor="start" x="8" y="-240" font-family="Helvetica,sans-Serif" font-size="10.00">AMM.API.Services.AccountService.</text>
<text text-anchor="middle" x="87.5" y="-228" font-family="Helvetica,sans-Serif" font-size="10.00">SSOSignIn</text>
</a>
</g>
</g>
<!-- Node14&#45;&gt;Node15 -->
<g id="edge14_Node000014_Node000015" class="edge">
<title>Node14&#45;&gt;Node15</title>
<g id="a_edge14_Node000014_Node000015"><a xlink:title=" ">
<path fill="none" stroke="#63b8ff" d="M204.18,-243.5C194.58,-243.5 184.89,-243.5 175.41,-243.5"/>
<polygon fill="#63b8ff" stroke="#63b8ff" points="203.87,-247 213.87,-243.5 203.87,-240 203.87,-247"/>
</a>
</g>
</g>
<!-- Node16&#45;&gt;Node14 -->
<g id="edge16_Node000016_Node000014" class="edge">
<title>Node16&#45;&gt;Node14</title>
<g id="a_edge16_Node000016_Node000014"><a xlink:title=" ">
<path fill="none" stroke="#63b8ff" d="M420.14,-227.9C410.47,-229.2 400.79,-230.51 391.37,-231.78"/>
<polygon fill="#63b8ff" stroke="#63b8ff" points="420.54,-231.38 429.98,-226.57 419.61,-224.44 420.54,-231.38"/>
</a>
</g>
</g>
<!-- Node17&#45;&gt;Node12 -->
<g id="edge18_Node000017_Node000012" class="edge">
<title>Node17&#45;&gt;Node12</title>
<g id="a_edge18_Node000017_Node000012"><a xlink:title=" ">
<path fill="none" stroke="#63b8ff" d="M437.23,-347.06C421.75,-348.74 405.83,-350.47 390.62,-352.13"/>
<polygon fill="#63b8ff" stroke="#63b8ff" points="437.34,-350.57 446.9,-346.01 436.58,-343.61 437.34,-350.57"/>
</a>
</g>
</g>
<!-- Node19&#45;&gt;Node20 -->
<g id="edge21_Node000019_Node000020" class="edge">
<title>Node19&#45;&gt;Node20</title>
<g id="a_edge21_Node000019_Node000020"><a xlink:title=" ">
<path fill="none" stroke="#63b8ff" d="M433.43,-80.79C420.97,-82.31 408.29,-83.85 395.99,-85.35"/>
<polygon fill="#63b8ff" stroke="#63b8ff" points="433.79,-84.27 443.29,-79.59 432.94,-77.32 433.79,-84.27"/>
</a>
</g>
</g>
<!-- Node19&#45;&gt;Node21 -->
<g id="edge22_Node000019_Node000021" class="edge">
<title>Node19&#45;&gt;Node21</title>
<g id="a_edge22_Node000019_Node000021"><a xlink:title=" ">
<path fill="none" stroke="#63b8ff" d="M433.64,-52.73C420.86,-50.73 407.84,-48.7 395.23,-46.72"/>
<polygon fill="#63b8ff" stroke="#63b8ff" points="432.88,-56.16 443.3,-54.25 433.96,-49.24 432.88,-56.16"/>
</a>
</g>
</g>
</g>
</svg>

<g id="navigator" transform="translate(0 0)" fill="#404254">
  <rect fill="#f2f5e9" fill-opacity="0.5" stroke="#606060" stroke-width=".5" x="0" y="0" width="60" height="60"/>
  <use id="zoomplus" xlink:href="#zoomPlus" x="17" y="9" onmousedown="handleZoom(evt,'in')"/>
  <use id="zoomminus" xlink:href="#zoomMin" x="42" y="9" onmousedown="handleZoom(evt,'out')"/>
  <use id="reset" xlink:href="#resetDef" x="30" y="36" onmousedown="handleReset()"/>
   <use id="arrowup" xlink:href="#arrowUp" x="0" y="0" onmousedown="handlePan(0,-1)"/>
  <use id="arrowright" xlink:href="#arrowRight" x="0" y="0" onmousedown="handlePan(1,0)"/>
  <use id="arrowdown" xlink:href="#arrowDown" x="0" y="0" onmousedown="handlePan(0,1)"/>
  <use id="arrowleft" xlink:href="#arrowLeft" x="0" y="0" onmousedown="handlePan(-1,0)"/>
</g>
<svg viewBox="0 0 15 15" width="100%" height="30px" preserveAspectRatio="xMaxYMin meet">
 <g id="arrow_out" transform="scale(0.3 0.3)">
  <a xlink:href="interface_deluxe_1_1_deluxe_brand_center_1_1_a_m_m_1_1_domain_1_1_services_1_1_i_session_service_a31fd07938dc12b3d600f3bd500d3aacd_icgraph_org.svg" target="_base">
   <rect id="button" ry="5" rx="5" y="6" x="6" height="38" width="38"
        fill="#f2f5e9" fill-opacity="0.5" stroke="#606060" stroke-width="1.0"/>
   <path id="arrow"
     d="M 11.500037,31.436501 C 11.940474,20.09759 22.043105,11.32322 32.158766,21.979434 L 37.068811,17.246167 C 37.068811,17.246167 37.088388,32 37.088388,32 L 22.160133,31.978069 C 22.160133,31.978069 26.997745,27.140456 26.997745,27.140456 C 18.528582,18.264221 13.291696,25.230495 11.500037,31.436501 z"
     style="fill:#404040;"/>
  </a>
 </g>
</svg>

<style type='text/css'>
<![CDATA[
[data-mouse-over-selected='false'] { opacity: 0.7; }
[data-mouse-over-selected='true']  { opacity: 1.0; }
]]>
</style>
<script type="application/ecmascript"><![CDATA[
document.addEventListener('DOMContentLoaded', (event) => {
  highlightEdges();
  highlightAdjacentNodes();
});
]]></script>
</svg>
