<?xml version="1.0" encoding="UTF-8" standalone="no"?>
<!DOCTYPE svg PUBLIC "-//W3C//DTD SVG 1.1//EN"
 "http://www.w3.org/Graphics/SVG/1.1/DTD/svg11.dtd">
<!-- Generated by graphviz version 12.1.1 (20240910.0053)
 -->
<!-- Title: Deluxe.DeluxeBrandCenter.AMM.Domain.Utility.Util.DateTimeUtils.GetTimeZoneList Pages: 1 -->
<svg width="801pt" height="176pt"
 viewBox="0.00 0.00 801.00 176.00" xmlns="http://www.w3.org/2000/svg" xmlns:xlink="http://www.w3.org/1999/xlink">
<g id="graph0" class="graph" transform="scale(1 1) rotate(0) translate(4 172)">
<title>Deluxe.DeluxeBrandCenter.AMM.Domain.Utility.Util.DateTimeUtils.GetTimeZoneList</title>
<!-- Node1 -->
<g id="Node000001" class="node">
<title>Node1</title>
<g id="a_Node000001"><a xlink:title=" ">
<polygon fill="#999999" stroke="#666666" points="793,-75 625.5,-75 625.5,-31 793,-31 793,-75"/>
<text text-anchor="start" x="633.5" y="-61.5" font-family="Helvetica,sans-Serif" font-size="10.00">Deluxe.DeluxeBrandCenter.</text>
<text text-anchor="start" x="633.5" y="-49.5" font-family="Helvetica,sans-Serif" font-size="10.00">AMM.Domain.Utility.Util.DateTime</text>
<text text-anchor="middle" x="709.25" y="-37.5" font-family="Helvetica,sans-Serif" font-size="10.00">Utils.GetTimeZoneList</text>
</a>
</g>
</g>
<!-- Node2 -->
<g id="Node000002" class="node">
<title>Node2</title>
<g id="a_Node000002"><a xlink:href="../../df/df1/class_deluxe_1_1_deluxe_brand_center_1_1_a_m_m_1_1_domain_1_1_utility_1_1_util_1_1_date_time_utils.html#acded9e5c02d1d240e8181da0f5c3aad2" target="_top" xlink:title=" ">
<polygon fill="white" stroke="#666666" points="582,-106 414.5,-106 414.5,-62 582,-62 582,-106"/>
<text text-anchor="start" x="422.5" y="-92.5" font-family="Helvetica,sans-Serif" font-size="10.00">Deluxe.DeluxeBrandCenter.</text>
<text text-anchor="start" x="422.5" y="-80.5" font-family="Helvetica,sans-Serif" font-size="10.00">AMM.Domain.Utility.Util.DateTime</text>
<text text-anchor="middle" x="498.25" y="-68.5" font-family="Helvetica,sans-Serif" font-size="10.00">Utils.getTimeZoneDisplayName</text>
</a>
</g>
</g>
<!-- Node1&#45;&gt;Node2 -->
<g id="edge1_Node000001_Node000002" class="edge">
<title>Node1&#45;&gt;Node2</title>
<g id="a_edge1_Node000001_Node000002"><a xlink:title=" ">
<path fill="none" stroke="#63b8ff" d="M613.7,-67.02C603.18,-68.58 592.53,-70.16 582.17,-71.7"/>
<polygon fill="#63b8ff" stroke="#63b8ff" points="614.17,-70.49 623.55,-65.56 613.14,-63.57 614.17,-70.49"/>
</a>
</g>
</g>
<!-- Node7 -->
<g id="Node000007" class="node">
<title>Node7</title>
<g id="a_Node000007"><a xlink:href="../../d4/dfa/class_deluxe_1_1_deluxe_brand_center_1_1_a_m_m_1_1_a_p_i_1_1_controllers_1_1_utility_controller.html#a44d5ae94a1a648195f3b9419f2527924" target="_top" xlink:title="Get a list of all Time Zones.">
<polygon fill="white" stroke="#666666" points="589.5,-44 407,-44 407,0 589.5,0 589.5,-44"/>
<text text-anchor="start" x="415" y="-30.5" font-family="Helvetica,sans-Serif" font-size="10.00">Deluxe.DeluxeBrandCenter.</text>
<text text-anchor="start" x="415" y="-18.5" font-family="Helvetica,sans-Serif" font-size="10.00">AMM.API.Controllers.UtilityController.</text>
<text text-anchor="middle" x="498.25" y="-6.5" font-family="Helvetica,sans-Serif" font-size="10.00">GetTimeZones</text>
</a>
</g>
</g>
<!-- Node1&#45;&gt;Node7 -->
<g id="edge6_Node000001_Node000007" class="edge">
<title>Node1&#45;&gt;Node7</title>
<g id="a_edge6_Node000001_Node000007"><a xlink:title=" ">
<path fill="none" stroke="#63b8ff" d="M613.8,-38.99C605.79,-37.8 597.7,-36.6 589.72,-35.42"/>
<polygon fill="#63b8ff" stroke="#63b8ff" points="613.14,-42.43 623.55,-40.44 614.17,-35.51 613.14,-42.43"/>
</a>
</g>
</g>
<!-- Node3 -->
<g id="Node000003" class="node">
<title>Node3</title>
<g id="a_Node000003"><a xlink:href="../../df/df1/class_deluxe_1_1_deluxe_brand_center_1_1_a_m_m_1_1_domain_1_1_utility_1_1_util_1_1_date_time_utils.html#aab986ab716881a9098aaf64429b93752" target="_top" xlink:title=" ">
<polygon fill="white" stroke="#666666" points="371,-137 203.5,-137 203.5,-93 371,-93 371,-137"/>
<text text-anchor="start" x="211.5" y="-123.5" font-family="Helvetica,sans-Serif" font-size="10.00">Deluxe.DeluxeBrandCenter.</text>
<text text-anchor="start" x="211.5" y="-111.5" font-family="Helvetica,sans-Serif" font-size="10.00">AMM.Domain.Utility.Util.DateTime</text>
<text text-anchor="middle" x="287.25" y="-99.5" font-family="Helvetica,sans-Serif" font-size="10.00">Utils.GetTimeZoneOffset</text>
</a>
</g>
</g>
<!-- Node2&#45;&gt;Node3 -->
<g id="edge2_Node000002_Node000003" class="edge">
<title>Node2&#45;&gt;Node3</title>
<g id="a_edge2_Node000002_Node000003"><a xlink:title=" ">
<path fill="none" stroke="#63b8ff" d="M402.7,-98.02C392.18,-99.58 381.53,-101.16 371.17,-102.7"/>
<polygon fill="#63b8ff" stroke="#63b8ff" points="403.17,-101.49 412.55,-96.56 402.14,-94.57 403.17,-101.49"/>
</a>
</g>
</g>
<!-- Node6 -->
<g id="Node000006" class="node">
<title>Node6</title>
<g id="a_Node000006"><a xlink:href="../../df/df1/class_deluxe_1_1_deluxe_brand_center_1_1_a_m_m_1_1_domain_1_1_utility_1_1_util_1_1_date_time_utils.html#a7ba9382c36b2c9c5acdaff3f6345429e" target="_top" xlink:title=" ">
<polygon fill="white" stroke="#666666" points="371,-75 203.5,-75 203.5,-31 371,-31 371,-75"/>
<text text-anchor="start" x="211.5" y="-61.5" font-family="Helvetica,sans-Serif" font-size="10.00">Deluxe.DeluxeBrandCenter.</text>
<text text-anchor="start" x="211.5" y="-49.5" font-family="Helvetica,sans-Serif" font-size="10.00">AMM.Domain.Utility.Util.DateTime</text>
<text text-anchor="middle" x="287.25" y="-37.5" font-family="Helvetica,sans-Serif" font-size="10.00">Utils.TimeZoneIdToDisplayName</text>
</a>
</g>
</g>
<!-- Node2&#45;&gt;Node6 -->
<g id="edge5_Node000002_Node000006" class="edge">
<title>Node2&#45;&gt;Node6</title>
<g id="a_edge5_Node000002_Node000006"><a xlink:title=" ">
<path fill="none" stroke="#63b8ff" d="M402.7,-69.98C392.18,-68.42 381.53,-66.84 371.17,-65.3"/>
<polygon fill="#63b8ff" stroke="#63b8ff" points="402.14,-73.43 412.55,-71.44 403.17,-66.51 402.14,-73.43"/>
</a>
</g>
</g>
<!-- Node4 -->
<g id="Node000004" class="node">
<title>Node4</title>
<g id="a_Node000004"><a xlink:href="../../df/df1/class_deluxe_1_1_deluxe_brand_center_1_1_a_m_m_1_1_domain_1_1_utility_1_1_util_1_1_date_time_utils.html#a51ea64bc7b606c33dce079dd492974e7" target="_top" xlink:title=" ">
<polygon fill="white" stroke="#666666" points="167.5,-168 0,-168 0,-124 167.5,-124 167.5,-168"/>
<text text-anchor="start" x="8" y="-154.5" font-family="Helvetica,sans-Serif" font-size="10.00">Deluxe.DeluxeBrandCenter.</text>
<text text-anchor="start" x="8" y="-142.5" font-family="Helvetica,sans-Serif" font-size="10.00">AMM.Domain.Utility.Util.DateTime</text>
<text text-anchor="middle" x="83.75" y="-130.5" font-family="Helvetica,sans-Serif" font-size="10.00">Utils.convertToLocalTime</text>
</a>
</g>
</g>
<!-- Node3&#45;&gt;Node4 -->
<g id="edge3_Node000003_Node000004" class="edge">
<title>Node3&#45;&gt;Node4</title>
<g id="a_edge3_Node000003_Node000004"><a xlink:title=" ">
<path fill="none" stroke="#63b8ff" d="M191.8,-129.53C183.74,-130.77 175.64,-132.02 167.68,-133.24"/>
<polygon fill="#63b8ff" stroke="#63b8ff" points="192.28,-133 201.63,-128.02 191.22,-126.08 192.28,-133"/>
</a>
</g>
</g>
<!-- Node5 -->
<g id="Node000005" class="node">
<title>Node5</title>
<g id="a_Node000005"><a xlink:href="../../df/df1/class_deluxe_1_1_deluxe_brand_center_1_1_a_m_m_1_1_domain_1_1_utility_1_1_util_1_1_date_time_utils.html#a05680049d1a76f9b28e59ab31171c76c" target="_top" xlink:title=" ">
<polygon fill="white" stroke="#666666" points="167.5,-106 0,-106 0,-62 167.5,-62 167.5,-106"/>
<text text-anchor="start" x="8" y="-92.5" font-family="Helvetica,sans-Serif" font-size="10.00">Deluxe.DeluxeBrandCenter.</text>
<text text-anchor="start" x="8" y="-80.5" font-family="Helvetica,sans-Serif" font-size="10.00">AMM.Domain.Utility.Util.DateTime</text>
<text text-anchor="middle" x="83.75" y="-68.5" font-family="Helvetica,sans-Serif" font-size="10.00">Utils.convertToUtc</text>
</a>
</g>
</g>
<!-- Node3&#45;&gt;Node5 -->
<g id="edge4_Node000003_Node000005" class="edge">
<title>Node3&#45;&gt;Node5</title>
<g id="a_edge4_Node000003_Node000005"><a xlink:title=" ">
<path fill="none" stroke="#63b8ff" d="M191.8,-100.47C183.74,-99.23 175.64,-97.98 167.68,-96.76"/>
<polygon fill="#63b8ff" stroke="#63b8ff" points="191.22,-103.92 201.63,-101.98 192.28,-97 191.22,-103.92"/>
</a>
</g>
</g>
</g>
</svg>
