<?xml version="1.0" encoding="UTF-8" standalone="no"?>
<!DOCTYPE svg PUBLIC "-//W3C//DTD SVG 1.1//EN"
 "http://www.w3.org/Graphics/SVG/1.1/DTD/svg11.dtd">
<!-- Generated by graphviz version 12.1.1 (20240910.0053)
 -->
<!-- Title: Deluxe.DeluxeBrandCenter.AMM.Domain.ExtServiceModel.ContactVM.GetPropertyNames Pages: 1 -->
<svg width="652pt" height="300pt"
 viewBox="0.00 0.00 652.25 300.00" xmlns="http://www.w3.org/2000/svg" xmlns:xlink="http://www.w3.org/1999/xlink">
<g id="graph0" class="graph" transform="scale(1 1) rotate(0) translate(4 296)">
<title>Deluxe.DeluxeBrandCenter.AMM.Domain.ExtServiceModel.ContactVM.GetPropertyNames</title>
<!-- Node1 -->
<g id="Node000001" class="node">
<title>Node1</title>
<g id="a_Node000001"><a xlink:title=" ">
<polygon fill="#999999" stroke="#666666" points="190.75,-168 0,-168 0,-124 190.75,-124 190.75,-168"/>
<text text-anchor="start" x="8" y="-154.5" font-family="Helvetica,sans-Serif" font-size="10.00">Deluxe.DeluxeBrandCenter.</text>
<text text-anchor="start" x="8" y="-142.5" font-family="Helvetica,sans-Serif" font-size="10.00">AMM.Domain.ExtServiceModel.Contact</text>
<text text-anchor="middle" x="95.38" y="-130.5" font-family="Helvetica,sans-Serif" font-size="10.00">VM.GetPropertyNames</text>
</a>
</g>
</g>
<!-- Node2 -->
<g id="Node000002" class="node">
<title>Node2</title>
<g id="a_Node000002"><a xlink:href="../../df/df6/class_deluxe_1_1_deluxe_brand_center_1_1_a_m_m_1_1_domain_1_1_ext_service_model_1_1_contact_v_m.html#a8b6890c9d50ade1bc06622bfb4a397df" target="_top" xlink:title=" ">
<polygon fill="white" stroke="#666666" points="417.5,-292 226.75,-292 226.75,-248 417.5,-248 417.5,-292"/>
<text text-anchor="start" x="234.75" y="-278.5" font-family="Helvetica,sans-Serif" font-size="10.00">Deluxe.DeluxeBrandCenter.</text>
<text text-anchor="start" x="234.75" y="-266.5" font-family="Helvetica,sans-Serif" font-size="10.00">AMM.Domain.ExtServiceModel.Contact</text>
<text text-anchor="middle" x="322.12" y="-254.5" font-family="Helvetica,sans-Serif" font-size="10.00">VM.CheckIfExluded</text>
</a>
</g>
</g>
<!-- Node1&#45;&gt;Node2 -->
<g id="edge1_Node000001_Node000002" class="edge">
<title>Node1&#45;&gt;Node2</title>
<g id="a_edge1_Node000001_Node000002"><a xlink:title=" ">
<path fill="none" stroke="#63b8ff" d="M122.31,-168.12C147.59,-188.78 187.8,-219.29 226.75,-239 229.64,-240.46 232.6,-241.87 235.63,-243.24"/>
<polygon fill="#63b8ff" stroke="#63b8ff" points="234.12,-246.4 244.7,-247.09 236.86,-239.96 234.12,-246.4"/>
</a>
</g>
</g>
<!-- Node3 -->
<g id="Node000003" class="node">
<title>Node3</title>
<g id="a_Node000003"><a xlink:href="../../df/df6/class_deluxe_1_1_deluxe_brand_center_1_1_a_m_m_1_1_domain_1_1_ext_service_model_1_1_contact_v_m.html#a1648649d5df1291a6fa3dd235ee21b09" target="_top" xlink:title=" ">
<polygon fill="white" stroke="#666666" points="417.5,-230 226.75,-230 226.75,-186 417.5,-186 417.5,-230"/>
<text text-anchor="start" x="234.75" y="-216.5" font-family="Helvetica,sans-Serif" font-size="10.00">Deluxe.DeluxeBrandCenter.</text>
<text text-anchor="start" x="234.75" y="-204.5" font-family="Helvetica,sans-Serif" font-size="10.00">AMM.Domain.ExtServiceModel.Contact</text>
<text text-anchor="middle" x="322.12" y="-192.5" font-family="Helvetica,sans-Serif" font-size="10.00">VM.CheckIfPropertyIsRequired</text>
</a>
</g>
</g>
<!-- Node1&#45;&gt;Node3 -->
<g id="edge2_Node000001_Node000003" class="edge">
<title>Node1&#45;&gt;Node3</title>
<g id="a_edge2_Node000001_Node000003"><a xlink:title=" ">
<path fill="none" stroke="#63b8ff" d="M177.83,-168.47C194.32,-173.02 211.77,-177.83 228.61,-182.48"/>
<polygon fill="#63b8ff" stroke="#63b8ff" points="227.54,-185.81 238.11,-185.1 229.4,-179.07 227.54,-185.81"/>
</a>
</g>
</g>
<!-- Node5 -->
<g id="Node000005" class="node">
<title>Node5</title>
<g id="a_Node000005"><a xlink:href="../../df/df6/class_deluxe_1_1_deluxe_brand_center_1_1_a_m_m_1_1_domain_1_1_ext_service_model_1_1_contact_v_m.html#a2787dfbe0c788a6d93767b662f15d3f3" target="_top" xlink:title=" ">
<polygon fill="white" stroke="#666666" points="417.5,-168 226.75,-168 226.75,-124 417.5,-124 417.5,-168"/>
<text text-anchor="start" x="234.75" y="-154.5" font-family="Helvetica,sans-Serif" font-size="10.00">Deluxe.DeluxeBrandCenter.</text>
<text text-anchor="start" x="234.75" y="-142.5" font-family="Helvetica,sans-Serif" font-size="10.00">AMM.Domain.ExtServiceModel.Contact</text>
<text text-anchor="middle" x="322.12" y="-130.5" font-family="Helvetica,sans-Serif" font-size="10.00">VM.GetDisplayName</text>
</a>
</g>
</g>
<!-- Node1&#45;&gt;Node5 -->
<g id="edge4_Node000001_Node000005" class="edge">
<title>Node1&#45;&gt;Node5</title>
<g id="a_edge4_Node000001_Node000005"><a xlink:title=" ">
<path fill="none" stroke="#63b8ff" d="M191.04,-146C199.03,-146 207.14,-146 215.21,-146"/>
<polygon fill="#63b8ff" stroke="#63b8ff" points="215.06,-149.5 225.06,-146 215.06,-142.5 215.06,-149.5"/>
</a>
</g>
</g>
<!-- Node6 -->
<g id="Node000006" class="node">
<title>Node6</title>
<g id="a_Node000006"><a xlink:href="../../df/df6/class_deluxe_1_1_deluxe_brand_center_1_1_a_m_m_1_1_domain_1_1_ext_service_model_1_1_contact_v_m.html#ab2d616d67804d24b74cdb693b7b68d87" target="_top" xlink:title=" ">
<polygon fill="white" stroke="#666666" points="417.5,-106 226.75,-106 226.75,-62 417.5,-62 417.5,-106"/>
<text text-anchor="start" x="234.75" y="-92.5" font-family="Helvetica,sans-Serif" font-size="10.00">Deluxe.DeluxeBrandCenter.</text>
<text text-anchor="start" x="234.75" y="-80.5" font-family="Helvetica,sans-Serif" font-size="10.00">AMM.Domain.ExtServiceModel.Contact</text>
<text text-anchor="middle" x="322.12" y="-68.5" font-family="Helvetica,sans-Serif" font-size="10.00">VM.GetMaxLength</text>
</a>
</g>
</g>
<!-- Node1&#45;&gt;Node6 -->
<g id="edge5_Node000001_Node000006" class="edge">
<title>Node1&#45;&gt;Node6</title>
<g id="a_edge5_Node000001_Node000006"><a xlink:title=" ">
<path fill="none" stroke="#63b8ff" d="M177.83,-123.53C194.32,-118.98 211.77,-114.17 228.61,-109.52"/>
<polygon fill="#63b8ff" stroke="#63b8ff" points="229.4,-112.93 238.11,-106.9 227.54,-106.19 229.4,-112.93"/>
</a>
</g>
</g>
<!-- Node7 -->
<g id="Node000007" class="node">
<title>Node7</title>
<g id="a_Node000007"><a xlink:href="../../df/df6/class_deluxe_1_1_deluxe_brand_center_1_1_a_m_m_1_1_domain_1_1_ext_service_model_1_1_contact_v_m.html#afc5c1a69d032613fbd527a1a136d7905" target="_top" xlink:title=" ">
<polygon fill="white" stroke="#666666" points="417.5,-44 226.75,-44 226.75,0 417.5,0 417.5,-44"/>
<text text-anchor="start" x="234.75" y="-30.5" font-family="Helvetica,sans-Serif" font-size="10.00">Deluxe.DeluxeBrandCenter.</text>
<text text-anchor="start" x="234.75" y="-18.5" font-family="Helvetica,sans-Serif" font-size="10.00">AMM.Domain.ExtServiceModel.Contact</text>
<text text-anchor="middle" x="322.12" y="-6.5" font-family="Helvetica,sans-Serif" font-size="10.00">VM.GetRegex</text>
</a>
</g>
</g>
<!-- Node1&#45;&gt;Node7 -->
<g id="edge7_Node000001_Node000007" class="edge">
<title>Node1&#45;&gt;Node7</title>
<g id="a_edge7_Node000001_Node000007"><a xlink:title=" ">
<path fill="none" stroke="#63b8ff" d="M122.31,-123.88C147.59,-103.22 187.8,-72.71 226.75,-53 229.64,-51.54 232.6,-50.13 235.63,-48.76"/>
<polygon fill="#63b8ff" stroke="#63b8ff" points="236.86,-52.04 244.7,-44.91 234.12,-45.6 236.86,-52.04"/>
</a>
</g>
</g>
<!-- Node4 -->
<g id="Node000004" class="node">
<title>Node4</title>
<g id="a_Node000004"><a xlink:href="../../df/df6/class_deluxe_1_1_deluxe_brand_center_1_1_a_m_m_1_1_domain_1_1_ext_service_model_1_1_contact_v_m.html#a4084b5beb776ff091c16312cc8cddce3" target="_top" xlink:title=" ">
<polygon fill="white" stroke="#666666" points="644.25,-106 453.5,-106 453.5,-62 644.25,-62 644.25,-106"/>
<text text-anchor="start" x="461.5" y="-92.5" font-family="Helvetica,sans-Serif" font-size="10.00">Deluxe.DeluxeBrandCenter.</text>
<text text-anchor="start" x="461.5" y="-80.5" font-family="Helvetica,sans-Serif" font-size="10.00">AMM.Domain.ExtServiceModel.Contact</text>
<text text-anchor="middle" x="548.88" y="-68.5" font-family="Helvetica,sans-Serif" font-size="10.00">VM.Validate</text>
</a>
</g>
</g>
<!-- Node3&#45;&gt;Node4 -->
<g id="edge3_Node000003_Node000004" class="edge">
<title>Node3&#45;&gt;Node4</title>
<g id="a_edge3_Node000003_Node000004"><a xlink:title=" ">
<path fill="none" stroke="#63b8ff" d="M398.16,-185.69C404.81,-183.01 411.34,-180.11 417.5,-177 452.19,-159.45 487.88,-133.32 513.13,-113.23"/>
<polygon fill="#63b8ff" stroke="#63b8ff" points="515.17,-116.08 520.76,-107.07 510.78,-110.63 515.17,-116.08"/>
</a>
</g>
</g>
<!-- Node6&#45;&gt;Node4 -->
<g id="edge6_Node000006_Node000004" class="edge">
<title>Node6&#45;&gt;Node4</title>
<g id="a_edge6_Node000006_Node000004"><a xlink:title=" ">
<path fill="none" stroke="#63b8ff" d="M417.79,-84C425.78,-84 433.89,-84 441.96,-84"/>
<polygon fill="#63b8ff" stroke="#63b8ff" points="441.81,-87.5 451.81,-84 441.81,-80.5 441.81,-87.5"/>
</a>
</g>
</g>
<!-- Node7&#45;&gt;Node4 -->
<g id="edge8_Node000007_Node000004" class="edge">
<title>Node7&#45;&gt;Node4</title>
<g id="a_edge8_Node000007_Node000004"><a xlink:title=" ">
<path fill="none" stroke="#63b8ff" d="M404.58,-44.47C421.07,-49.02 438.52,-53.83 455.36,-58.48"/>
<polygon fill="#63b8ff" stroke="#63b8ff" points="454.29,-61.81 464.86,-61.1 456.15,-55.07 454.29,-61.81"/>
</a>
</g>
</g>
</g>
</svg>
