<?xml version="1.0" encoding="UTF-8" standalone="no"?>
<!DOCTYPE svg PUBLIC "-//W3C//DTD SVG 1.1//EN"
 "http://www.w3.org/Graphics/SVG/1.1/DTD/svg11.dtd">
<!-- Generated by graphviz version 12.1.1 (20240910.0053)
 -->
<!-- Title: Deluxe.DeluxeBrandCenter.AMM.Domain.DataModel.UserCampaigns.Recurrence Pages: 1 -->
<svg width="211pt" height="220pt"
 viewBox="0.00 0.00 210.75 220.00" xmlns="http://www.w3.org/2000/svg" xmlns:xlink="http://www.w3.org/1999/xlink">
<g id="graph0" class="graph" transform="scale(1 1) rotate(0) translate(4 216)">
<title>Deluxe.DeluxeBrandCenter.AMM.Domain.DataModel.UserCampaigns.Recurrence</title>
<!-- Node1 -->
<g id="Node000001" class="node">
<title>Node1</title>
<g id="a_Node000001"><a xlink:title=" ">
<polygon fill="#999999" stroke="#666666" points="202.75,-44 0,-44 0,0 202.75,0 202.75,-44"/>
<text text-anchor="start" x="8" y="-30.5" font-family="Helvetica,sans-Serif" font-size="10.00">Deluxe.DeluxeBrandCenter.</text>
<text text-anchor="start" x="8" y="-18.5" font-family="Helvetica,sans-Serif" font-size="10.00">AMM.Domain.DataModel.UserCampaigns.</text>
<text text-anchor="middle" x="101.38" y="-6.5" font-family="Helvetica,sans-Serif" font-size="10.00">Recurrence</text>
</a>
</g>
</g>
<!-- Node2 -->
<g id="Node000002" class="node">
<title>Node2</title>
<g id="a_Node000002"><a xlink:href="../../d7/d1c/class_deluxe_1_1_deluxe_brand_center_1_1_a_m_m_1_1_domain_1_1_data_model_1_1_base_entity.html" target="_top" xlink:title=" ">
<polygon fill="white" stroke="#666666" points="133.38,-100 69.38,-100 69.38,-80 133.38,-80 133.38,-100"/>
<text text-anchor="middle" x="101.38" y="-86.5" font-family="Helvetica,sans-Serif" font-size="10.00">BaseEntity</text>
</a>
</g>
</g>
<!-- Node2&#45;&gt;Node1 -->
<g id="edge1_Node000001_Node000002" class="edge">
<title>Node2&#45;&gt;Node1</title>
<g id="a_edge1_Node000001_Node000002"><a xlink:title=" ">
<path fill="none" stroke="#63b8ff" d="M101.38,-68.1C101.38,-60.55 101.38,-52.02 101.38,-44.43"/>
<polygon fill="#63b8ff" stroke="#63b8ff" points="97.88,-68.03 101.38,-78.03 104.88,-68.03 97.88,-68.03"/>
</a>
</g>
</g>
<!-- Node3 -->
<g id="Node000003" class="node">
<title>Node3</title>
<g id="a_Node000003"><a xlink:href="../../d6/df6/class_deluxe_1_1_deluxe_brand_center_1_1_a_m_m_1_1_domain_1_1_data_model_1_1_modified_entity.html" target="_top" xlink:title=" ">
<polygon fill="white" stroke="#666666" points="95.5,-156 17.25,-156 17.25,-136 95.5,-136 95.5,-156"/>
<text text-anchor="middle" x="56.38" y="-142.5" font-family="Helvetica,sans-Serif" font-size="10.00">ModifiedEntity</text>
</a>
</g>
</g>
<!-- Node3&#45;&gt;Node2 -->
<g id="edge2_Node000002_Node000003" class="edge">
<title>Node3&#45;&gt;Node2</title>
<g id="a_edge2_Node000002_Node000003"><a xlink:title=" ">
<path fill="none" stroke="#63b8ff" d="M71.37,-127C78.83,-118.06 87.52,-107.62 93.63,-100.3"/>
<polygon fill="#63b8ff" stroke="#63b8ff" points="68.9,-124.51 65.18,-134.43 74.27,-128.99 68.9,-124.51"/>
</a>
</g>
</g>
<!-- Node4 -->
<g id="Node000004" class="node">
<title>Node4</title>
<g id="a_Node000004"><a xlink:href="../../d6/dad/interface_deluxe_1_1_deluxe_brand_center_1_1_a_m_m_1_1_domain_1_1_data_model_1_1_interface_1_1_i_modified.html" target="_top" xlink:title=" ">
<polygon fill="white" stroke="#666666" points="129.25,-212 73.5,-212 73.5,-192 129.25,-192 129.25,-212"/>
<text text-anchor="middle" x="101.38" y="-198.5" font-family="Helvetica,sans-Serif" font-size="10.00">IModified</text>
</a>
</g>
</g>
<!-- Node4&#45;&gt;Node3 -->
<g id="edge3_Node000003_Node000004" class="edge">
<title>Node4&#45;&gt;Node3</title>
<g id="a_edge3_Node000003_Node000004"><a xlink:title=" ">
<path fill="none" stroke="#63b8ff" d="M86.38,-183C78.92,-174.06 70.23,-163.62 64.12,-156.3"/>
<polygon fill="#63b8ff" stroke="#63b8ff" points="83.48,-184.99 92.57,-190.43 88.85,-180.51 83.48,-184.99"/>
</a>
</g>
</g>
<!-- Node5 -->
<g id="Node000005" class="node">
<title>Node5</title>
<g id="a_Node000005"><a xlink:href="../../d5/d26/interface_deluxe_1_1_deluxe_brand_center_1_1_a_m_m_1_1_domain_1_1_data_model_1_1_interface_1_1_i_base_entity.html" target="_top" xlink:title=" ">
<polygon fill="white" stroke="#666666" points="180.88,-156 113.88,-156 113.88,-136 180.88,-136 180.88,-156"/>
<text text-anchor="middle" x="147.38" y="-142.5" font-family="Helvetica,sans-Serif" font-size="10.00">IBaseEntity</text>
</a>
</g>
</g>
<!-- Node4&#45;&gt;Node5 -->
<g id="edge5_Node000005_Node000004" class="edge">
<title>Node4&#45;&gt;Node5</title>
<g id="a_edge5_Node000005_Node000004"><a xlink:title=" ">
<path fill="none" stroke="#63b8ff" d="M116.71,-183C124.33,-174.06 133.21,-163.62 139.45,-156.3"/>
<polygon fill="#63b8ff" stroke="#63b8ff" points="114.19,-180.56 110.37,-190.44 119.52,-185.1 114.19,-180.56"/>
</a>
</g>
</g>
<!-- Node5&#45;&gt;Node2 -->
<g id="edge4_Node000002_Node000005" class="edge">
<title>Node5&#45;&gt;Node2</title>
<g id="a_edge4_Node000002_Node000005"><a xlink:title=" ">
<path fill="none" stroke="#63b8ff" d="M132.04,-127C124.42,-118.06 115.54,-107.62 109.3,-100.3"/>
<polygon fill="#63b8ff" stroke="#63b8ff" points="129.23,-129.1 138.38,-134.44 134.56,-124.56 129.23,-129.1"/>
</a>
</g>
</g>
</g>
</svg>
