<?xml version="1.0" encoding="UTF-8" standalone="no"?>
<!DOCTYPE svg PUBLIC "-//W3C//DTD SVG 1.1//EN"
 "http://www.w3.org/Graphics/SVG/1.1/DTD/svg11.dtd">
<!-- Generated by graphviz version 12.1.1 (20240910.0053)
 -->
<!-- Title: Deluxe.DeluxeBrandCenter.AMM.Domain.DataModel.BaseEntityNamed Pages: 1 -->
<svg width="800pt" height="714pt"
 viewBox="0.00 0.00 799.75 714.00" xmlns="http://www.w3.org/2000/svg" xmlns:xlink="http://www.w3.org/1999/xlink">
<g id="graph0" class="graph" transform="scale(1 1) rotate(0) translate(4 710)">
<title>Deluxe.DeluxeBrandCenter.AMM.Domain.DataModel.BaseEntityNamed</title>
<!-- Node1 -->
<g id="Node000001" class="node">
<title>Node1</title>
<g id="a_Node000001"><a xlink:title=" ">
<polygon fill="#999999" stroke="#666666" points="549.25,-369 340.5,-369 340.5,-337 549.25,-337 549.25,-369"/>
<text text-anchor="start" x="348.5" y="-355.5" font-family="Helvetica,sans-Serif" font-size="10.00">Deluxe.DeluxeBrandCenter.</text>
<text text-anchor="middle" x="444.88" y="-343.5" font-family="Helvetica,sans-Serif" font-size="10.00">AMM.Domain.DataModel.BaseEntityNamed</text>
</a>
</g>
</g>
<!-- Node7 -->
<g id="Node000007" class="node">
<title>Node7</title>
<g id="a_Node000007"><a xlink:href="../../d2/d0f/class_deluxe_1_1_deluxe_brand_center_1_1_a_m_m_1_1_domain_1_1_campaign_element.html" target="_top" xlink:title=" ">
<polygon fill="white" stroke="#666666" points="768.12,-706 608.88,-706 608.88,-674 768.12,-674 768.12,-706"/>
<text text-anchor="start" x="616.88" y="-692.5" font-family="Helvetica,sans-Serif" font-size="10.00">Deluxe.DeluxeBrandCenter.</text>
<text text-anchor="middle" x="688.5" y="-680.5" font-family="Helvetica,sans-Serif" font-size="10.00">AMM.Domain.CampaignElement</text>
</a>
</g>
</g>
<!-- Node1&#45;&gt;Node7 -->
<g id="edge9_Node000001_Node000007" class="edge">
<title>Node1&#45;&gt;Node7</title>
<g id="a_edge9_Node000001_Node000007"><a xlink:title=" ">
<path fill="none" stroke="#63b8ff" d="M449.93,-380.59C460.41,-441.7 494.26,-589.1 585.25,-665 592.13,-670.74 600.12,-675.19 608.54,-678.65"/>
<polygon fill="#63b8ff" stroke="#63b8ff" points="453.38,-380.04 448.32,-370.73 446.47,-381.16 453.38,-380.04"/>
</a>
</g>
</g>
<!-- Node8 -->
<g id="Node000008" class="node">
<title>Node8</title>
<g id="a_Node000008"><a xlink:href="../../db/d20/class_deluxe_1_1_deluxe_brand_center_1_1_a_m_m_1_1_domain_1_1_data_model_1_1_account_status.html" target="_top" xlink:title=" ">
<polygon fill="white" stroke="#666666" points="785.38,-656 591.62,-656 591.62,-624 785.38,-624 785.38,-656"/>
<text text-anchor="start" x="599.62" y="-642.5" font-family="Helvetica,sans-Serif" font-size="10.00">Deluxe.DeluxeBrandCenter.</text>
<text text-anchor="middle" x="688.5" y="-630.5" font-family="Helvetica,sans-Serif" font-size="10.00">AMM.Domain.DataModel.AccountStatus</text>
</a>
</g>
</g>
<!-- Node1&#45;&gt;Node8 -->
<g id="edge10_Node000001_Node000008" class="edge">
<title>Node1&#45;&gt;Node8</title>
<g id="a_edge10_Node000001_Node000008"><a xlink:title=" ">
<path fill="none" stroke="#63b8ff" d="M452.38,-380.22C466.68,-433.88 506.03,-553.41 585.25,-615 589.43,-618.25 593.98,-621.09 598.76,-623.56"/>
<polygon fill="#63b8ff" stroke="#63b8ff" points="455.82,-379.52 449.94,-370.7 449.04,-381.26 455.82,-379.52"/>
</a>
</g>
</g>
<!-- Node9 -->
<g id="Node000009" class="node">
<title>Node9</title>
<g id="a_Node000009"><a xlink:href="../../dd/ddc/class_deluxe_1_1_deluxe_brand_center_1_1_a_m_m_1_1_domain_1_1_data_model_1_1_campaign.html" target="_top" xlink:title=" ">
<polygon fill="white" stroke="#666666" points="775.25,-606 601.75,-606 601.75,-574 775.25,-574 775.25,-606"/>
<text text-anchor="start" x="609.75" y="-592.5" font-family="Helvetica,sans-Serif" font-size="10.00">Deluxe.DeluxeBrandCenter.</text>
<text text-anchor="middle" x="688.5" y="-580.5" font-family="Helvetica,sans-Serif" font-size="10.00">AMM.Domain.DataModel.Campaign</text>
</a>
</g>
</g>
<!-- Node1&#45;&gt;Node9 -->
<g id="edge11_Node000001_Node000009" class="edge">
<title>Node1&#45;&gt;Node9</title>
<g id="a_edge11_Node000001_Node000009"><a xlink:title=" ">
<path fill="none" stroke="#63b8ff" d="M455.81,-379.78C474.11,-425.24 517.57,-517.24 585.25,-565 590.25,-568.53 595.7,-571.56 601.38,-574.17"/>
<polygon fill="#63b8ff" stroke="#63b8ff" points="459.16,-378.72 452.25,-370.68 452.64,-381.27 459.16,-378.72"/>
</a>
</g>
</g>
<!-- Node10 -->
<g id="Node000010" class="node">
<title>Node10</title>
<g id="a_Node000010"><a xlink:href="../../d2/d93/class_deluxe_1_1_deluxe_brand_center_1_1_a_m_m_1_1_domain_1_1_data_model_1_1_campaign_setting.html" target="_top" xlink:title=" ">
<polygon fill="white" stroke="#666666" points="790.62,-556 586.38,-556 586.38,-524 790.62,-524 790.62,-556"/>
<text text-anchor="start" x="594.38" y="-542.5" font-family="Helvetica,sans-Serif" font-size="10.00">Deluxe.DeluxeBrandCenter.</text>
<text text-anchor="middle" x="688.5" y="-530.5" font-family="Helvetica,sans-Serif" font-size="10.00">AMM.Domain.DataModel.CampaignSetting</text>
</a>
</g>
</g>
<!-- Node1&#45;&gt;Node10 -->
<g id="edge12_Node000001_Node000010" class="edge">
<title>Node1&#45;&gt;Node10</title>
<g id="a_edge12_Node000001_Node000010"><a xlink:title=" ">
<path fill="none" stroke="#63b8ff" d="M460.98,-379.1C483.36,-415.36 528.83,-480.4 585.25,-515 590.55,-518.25 596.24,-521.07 602.13,-523.53"/>
<polygon fill="#63b8ff" stroke="#63b8ff" points="463.99,-377.31 455.82,-370.56 457.99,-380.93 463.99,-377.31"/>
</a>
</g>
</g>
<!-- Node11 -->
<g id="Node000011" class="node">
<title>Node11</title>
<g id="a_Node000011"><a xlink:href="../../de/dc3/class_deluxe_1_1_deluxe_brand_center_1_1_a_m_m_1_1_domain_1_1_data_model_1_1_campaign_type.html" target="_top" xlink:title="Campaign types standard, event, ...">
<polygon fill="white" stroke="#666666" points="785.75,-506 591.25,-506 591.25,-474 785.75,-474 785.75,-506"/>
<text text-anchor="start" x="599.25" y="-492.5" font-family="Helvetica,sans-Serif" font-size="10.00">Deluxe.DeluxeBrandCenter.</text>
<text text-anchor="middle" x="688.5" y="-480.5" font-family="Helvetica,sans-Serif" font-size="10.00">AMM.Domain.DataModel.CampaignType</text>
</a>
</g>
</g>
<!-- Node1&#45;&gt;Node11 -->
<g id="edge13_Node000001_Node000011" class="edge">
<title>Node1&#45;&gt;Node11</title>
<g id="a_edge13_Node000001_Node000011"><a xlink:title=" ">
<path fill="none" stroke="#63b8ff" d="M469.48,-377.5C495.5,-403.08 539.73,-442.54 585.25,-465 591.81,-468.23 598.81,-471.07 605.96,-473.55"/>
<polygon fill="#63b8ff" stroke="#63b8ff" points="472,-375.06 462.45,-370.47 467.05,-380.01 472,-375.06"/>
</a>
</g>
</g>
<!-- Node12 -->
<g id="Node000012" class="node">
<title>Node12</title>
<g id="a_Node000012"><a xlink:href="../../d3/d4c/class_deluxe_1_1_deluxe_brand_center_1_1_a_m_m_1_1_domain_1_1_data_model_1_1_client_1_1_client.html" target="_top" xlink:title=" ">
<polygon fill="white" stroke="#666666" points="780.12,-456 596.88,-456 596.88,-424 780.12,-424 780.12,-456"/>
<text text-anchor="start" x="604.88" y="-442.5" font-family="Helvetica,sans-Serif" font-size="10.00">Deluxe.DeluxeBrandCenter.</text>
<text text-anchor="middle" x="688.5" y="-430.5" font-family="Helvetica,sans-Serif" font-size="10.00">AMM.Domain.DataModel.Client.Client</text>
</a>
</g>
</g>
<!-- Node1&#45;&gt;Node12 -->
<g id="edge14_Node000001_Node000012" class="edge">
<title>Node1&#45;&gt;Node12</title>
<g id="a_edge14_Node000001_Node000012"><a xlink:title=" ">
<path fill="none" stroke="#63b8ff" d="M488.75,-374.47C515.92,-387.47 552.06,-403.66 585.25,-415 594.24,-418.07 603.8,-420.93 613.32,-423.53"/>
<polygon fill="#63b8ff" stroke="#63b8ff" points="490.33,-371.34 479.8,-370.14 487.28,-377.64 490.33,-371.34"/>
</a>
</g>
</g>
<!-- Node13 -->
<g id="Node000013" class="node">
<title>Node13</title>
<g id="a_Node000013"><a xlink:href="../../db/de4/class_deluxe_1_1_deluxe_brand_center_1_1_a_m_m_1_1_domain_1_1_data_model_1_1_contact_manager_1_1_contact_group.html" target="_top" xlink:title=" ">
<polygon fill="white" stroke="#666666" points="790.62,-406 586.38,-406 586.38,-362 790.62,-362 790.62,-406"/>
<text text-anchor="start" x="594.38" y="-392.5" font-family="Helvetica,sans-Serif" font-size="10.00">Deluxe.DeluxeBrandCenter.</text>
<text text-anchor="start" x="594.38" y="-380.5" font-family="Helvetica,sans-Serif" font-size="10.00">AMM.Domain.DataModel.ContactManager.</text>
<text text-anchor="middle" x="688.5" y="-368.5" font-family="Helvetica,sans-Serif" font-size="10.00">ContactGroup</text>
</a>
</g>
</g>
<!-- Node1&#45;&gt;Node13 -->
<g id="edge15_Node000001_Node000013" class="edge">
<title>Node1&#45;&gt;Node13</title>
<g id="a_edge15_Node000001_Node000013"><a xlink:title=" ">
<path fill="none" stroke="#63b8ff" d="M561.07,-367.78C569.4,-368.85 577.77,-369.92 586.01,-370.98"/>
<polygon fill="#63b8ff" stroke="#63b8ff" points="561.61,-364.32 551.25,-366.52 560.72,-371.26 561.61,-364.32"/>
</a>
</g>
</g>
<!-- Node14 -->
<g id="Node000014" class="node">
<title>Node14</title>
<g id="a_Node000014"><a xlink:href="../../dc/d10/class_deluxe_1_1_deluxe_brand_center_1_1_a_m_m_1_1_domain_1_1_data_model_1_1_contact_manager_1_1_contact_tag.html" target="_top" xlink:title=" ">
<polygon fill="white" stroke="#666666" points="790.62,-344 586.38,-344 586.38,-300 790.62,-300 790.62,-344"/>
<text text-anchor="start" x="594.38" y="-330.5" font-family="Helvetica,sans-Serif" font-size="10.00">Deluxe.DeluxeBrandCenter.</text>
<text text-anchor="start" x="594.38" y="-318.5" font-family="Helvetica,sans-Serif" font-size="10.00">AMM.Domain.DataModel.ContactManager.</text>
<text text-anchor="middle" x="688.5" y="-306.5" font-family="Helvetica,sans-Serif" font-size="10.00">ContactTag</text>
</a>
</g>
</g>
<!-- Node1&#45;&gt;Node14 -->
<g id="edge16_Node000001_Node000014" class="edge">
<title>Node1&#45;&gt;Node14</title>
<g id="a_edge16_Node000001_Node000014"><a xlink:title=" ">
<path fill="none" stroke="#63b8ff" d="M561.07,-338.22C569.4,-337.15 577.77,-336.08 586.01,-335.02"/>
<polygon fill="#63b8ff" stroke="#63b8ff" points="560.72,-334.74 551.25,-339.48 561.61,-341.68 560.72,-334.74"/>
</a>
</g>
</g>
<!-- Node15 -->
<g id="Node000015" class="node">
<title>Node15</title>
<g id="a_Node000015"><a xlink:href="../../db/d17/class_deluxe_1_1_deluxe_brand_center_1_1_a_m_m_1_1_domain_1_1_data_model_1_1_customized_video.html" target="_top" xlink:title=" ">
<polygon fill="white" stroke="#666666" points="791.75,-282 585.25,-282 585.25,-250 791.75,-250 791.75,-282"/>
<text text-anchor="start" x="593.25" y="-268.5" font-family="Helvetica,sans-Serif" font-size="10.00">Deluxe.DeluxeBrandCenter.</text>
<text text-anchor="middle" x="688.5" y="-256.5" font-family="Helvetica,sans-Serif" font-size="10.00">AMM.Domain.DataModel.CustomizedVideo</text>
</a>
</g>
</g>
<!-- Node1&#45;&gt;Node15 -->
<g id="edge17_Node000001_Node000015" class="edge">
<title>Node1&#45;&gt;Node15</title>
<g id="a_edge17_Node000001_Node000015"><a xlink:title=" ">
<path fill="none" stroke="#63b8ff" d="M488.75,-331.53C515.92,-318.53 552.06,-302.34 585.25,-291 594.24,-287.93 603.8,-285.07 613.32,-282.47"/>
<polygon fill="#63b8ff" stroke="#63b8ff" points="487.28,-328.36 479.8,-335.86 490.33,-334.66 487.28,-328.36"/>
</a>
</g>
</g>
<!-- Node16 -->
<g id="Node000016" class="node">
<title>Node16</title>
<g id="a_Node000016"><a xlink:href="../../d9/d05/class_deluxe_1_1_deluxe_brand_center_1_1_a_m_m_1_1_domain_1_1_data_model_1_1_editor_field.html" target="_top" xlink:title=" ">
<polygon fill="white" stroke="#666666" points="776.38,-232 600.62,-232 600.62,-200 776.38,-200 776.38,-232"/>
<text text-anchor="start" x="608.62" y="-218.5" font-family="Helvetica,sans-Serif" font-size="10.00">Deluxe.DeluxeBrandCenter.</text>
<text text-anchor="middle" x="688.5" y="-206.5" font-family="Helvetica,sans-Serif" font-size="10.00">AMM.Domain.DataModel.EditorField</text>
</a>
</g>
</g>
<!-- Node1&#45;&gt;Node16 -->
<g id="edge18_Node000001_Node000016" class="edge">
<title>Node1&#45;&gt;Node16</title>
<g id="a_edge18_Node000001_Node000016"><a xlink:title=" ">
<path fill="none" stroke="#63b8ff" d="M469.48,-328.5C495.5,-302.92 539.73,-263.46 585.25,-241 591.81,-237.77 598.81,-234.93 605.96,-232.45"/>
<polygon fill="#63b8ff" stroke="#63b8ff" points="467.05,-325.99 462.45,-335.53 472,-330.94 467.05,-325.99"/>
</a>
</g>
</g>
<!-- Node17 -->
<g id="Node000017" class="node">
<title>Node17</title>
<g id="a_Node000017"><a xlink:href="../../d4/da4/class_deluxe_1_1_deluxe_brand_center_1_1_a_m_m_1_1_domain_1_1_data_model_1_1_settings.html" target="_top" xlink:title=" ">
<polygon fill="white" stroke="#666666" points="771.12,-182 605.88,-182 605.88,-150 771.12,-150 771.12,-182"/>
<text text-anchor="start" x="613.88" y="-168.5" font-family="Helvetica,sans-Serif" font-size="10.00">Deluxe.DeluxeBrandCenter.</text>
<text text-anchor="middle" x="688.5" y="-156.5" font-family="Helvetica,sans-Serif" font-size="10.00">AMM.Domain.DataModel.Settings</text>
</a>
</g>
</g>
<!-- Node1&#45;&gt;Node17 -->
<g id="edge19_Node000001_Node000017" class="edge">
<title>Node1&#45;&gt;Node17</title>
<g id="a_edge19_Node000001_Node000017"><a xlink:title=" ">
<path fill="none" stroke="#63b8ff" d="M460.98,-326.9C483.36,-290.64 528.83,-225.6 585.25,-191 591.56,-187.13 598.43,-183.86 605.53,-181.1"/>
<polygon fill="#63b8ff" stroke="#63b8ff" points="457.99,-325.07 455.82,-335.44 463.99,-328.69 457.99,-325.07"/>
</a>
</g>
</g>
<!-- Node18 -->
<g id="Node000018" class="node">
<title>Node18</title>
<g id="a_Node000018"><a xlink:href="../../dc/ddd/class_deluxe_1_1_deluxe_brand_center_1_1_a_m_m_1_1_domain_1_1_data_model_1_1_settings_group.html" target="_top" xlink:title=" ">
<polygon fill="white" stroke="#666666" points="784.25,-132 592.75,-132 592.75,-100 784.25,-100 784.25,-132"/>
<text text-anchor="start" x="600.75" y="-118.5" font-family="Helvetica,sans-Serif" font-size="10.00">Deluxe.DeluxeBrandCenter.</text>
<text text-anchor="middle" x="688.5" y="-106.5" font-family="Helvetica,sans-Serif" font-size="10.00">AMM.Domain.DataModel.SettingsGroup</text>
</a>
</g>
</g>
<!-- Node1&#45;&gt;Node18 -->
<g id="edge20_Node000001_Node000018" class="edge">
<title>Node1&#45;&gt;Node18</title>
<g id="a_edge20_Node000001_Node000018"><a xlink:title=" ">
<path fill="none" stroke="#63b8ff" d="M455.81,-326.22C474.11,-280.76 517.57,-188.76 585.25,-141 589.88,-137.73 594.89,-134.89 600.11,-132.42"/>
<polygon fill="#63b8ff" stroke="#63b8ff" points="452.64,-324.73 452.25,-335.32 459.16,-327.28 452.64,-324.73"/>
</a>
</g>
</g>
<!-- Node19 -->
<g id="Node000019" class="node">
<title>Node19</title>
<g id="a_Node000019"><a xlink:href="../../dc/d90/class_deluxe_1_1_deluxe_brand_center_1_1_a_m_m_1_1_domain_1_1_data_model_1_1_signature_block.html" target="_top" xlink:title=" ">
<polygon fill="white" stroke="#666666" points="786.12,-82 590.88,-82 590.88,-50 786.12,-50 786.12,-82"/>
<text text-anchor="start" x="598.88" y="-68.5" font-family="Helvetica,sans-Serif" font-size="10.00">Deluxe.DeluxeBrandCenter.</text>
<text text-anchor="middle" x="688.5" y="-56.5" font-family="Helvetica,sans-Serif" font-size="10.00">AMM.Domain.DataModel.SignatureBlock</text>
</a>
</g>
</g>
<!-- Node1&#45;&gt;Node19 -->
<g id="edge21_Node000001_Node000019" class="edge">
<title>Node1&#45;&gt;Node19</title>
<g id="a_edge21_Node000001_Node000019"><a xlink:title=" ">
<path fill="none" stroke="#63b8ff" d="M452.38,-325.78C466.68,-272.12 506.03,-152.59 585.25,-91 589.43,-87.75 593.98,-84.91 598.76,-82.44"/>
<polygon fill="#63b8ff" stroke="#63b8ff" points="449.04,-324.74 449.94,-335.3 455.82,-326.48 449.04,-324.74"/>
</a>
</g>
</g>
<!-- Node20 -->
<g id="Node000020" class="node">
<title>Node20</title>
<g id="a_Node000020"><a xlink:href="../../db/dda/class_deluxe_1_1_deluxe_brand_center_1_1_a_m_m_1_1_domain_1_1_data_model_1_1_user_campaign.html" target="_top" xlink:title=" ">
<polygon fill="white" stroke="#666666" points="785.75,-32 591.25,-32 591.25,0 785.75,0 785.75,-32"/>
<text text-anchor="start" x="599.25" y="-18.5" font-family="Helvetica,sans-Serif" font-size="10.00">Deluxe.DeluxeBrandCenter.</text>
<text text-anchor="middle" x="688.5" y="-6.5" font-family="Helvetica,sans-Serif" font-size="10.00">AMM.Domain.DataModel.UserCampaign</text>
</a>
</g>
</g>
<!-- Node1&#45;&gt;Node20 -->
<g id="edge22_Node000001_Node000020" class="edge">
<title>Node1&#45;&gt;Node20</title>
<g id="a_edge22_Node000001_Node000020"><a xlink:title=" ">
<path fill="none" stroke="#63b8ff" d="M449.93,-325.41C460.41,-264.3 494.26,-116.9 585.25,-41 589.18,-37.72 593.47,-34.86 598,-32.37"/>
<polygon fill="#63b8ff" stroke="#63b8ff" points="446.47,-324.84 448.32,-335.27 453.38,-325.96 446.47,-324.84"/>
</a>
</g>
</g>
<!-- Node2 -->
<g id="Node000002" class="node">
<title>Node2</title>
<g id="a_Node000002"><a xlink:href="../../d7/d1c/class_deluxe_1_1_deluxe_brand_center_1_1_a_m_m_1_1_domain_1_1_data_model_1_1_base_entity.html" target="_top" xlink:title=" ">
<polygon fill="white" stroke="#666666" points="287.25,-401 223.25,-401 223.25,-381 287.25,-381 287.25,-401"/>
<text text-anchor="middle" x="255.25" y="-387.5" font-family="Helvetica,sans-Serif" font-size="10.00">BaseEntity</text>
</a>
</g>
</g>
<!-- Node2&#45;&gt;Node1 -->
<g id="edge1_Node000001_Node000002" class="edge">
<title>Node2&#45;&gt;Node1</title>
<g id="a_edge1_Node000001_Node000002"><a xlink:title=" ">
<path fill="none" stroke="#63b8ff" d="M298.85,-382.37C317.74,-378.55 340.63,-373.91 362.58,-369.47"/>
<polygon fill="#63b8ff" stroke="#63b8ff" points="298.24,-378.92 289.14,-384.34 299.63,-385.78 298.24,-378.92"/>
</a>
</g>
</g>
<!-- Node3 -->
<g id="Node000003" class="node">
<title>Node3</title>
<g id="a_Node000003"><a xlink:href="../../d6/df6/class_deluxe_1_1_deluxe_brand_center_1_1_a_m_m_1_1_domain_1_1_data_model_1_1_modified_entity.html" target="_top" xlink:title=" ">
<polygon fill="white" stroke="#666666" points="170,-401 91.75,-401 91.75,-381 170,-381 170,-401"/>
<text text-anchor="middle" x="130.88" y="-387.5" font-family="Helvetica,sans-Serif" font-size="10.00">ModifiedEntity</text>
</a>
</g>
</g>
<!-- Node3&#45;&gt;Node2 -->
<g id="edge2_Node000002_Node000003" class="edge">
<title>Node3&#45;&gt;Node2</title>
<g id="a_edge2_Node000002_Node000003"><a xlink:title=" ">
<path fill="none" stroke="#63b8ff" d="M181.72,-391C195.66,-391 210.43,-391 222.96,-391"/>
<polygon fill="#63b8ff" stroke="#63b8ff" points="181.77,-387.5 171.77,-391 181.77,-394.5 181.77,-387.5"/>
</a>
</g>
</g>
<!-- Node4 -->
<g id="Node000004" class="node">
<title>Node4</title>
<g id="a_Node000004"><a xlink:href="../../d6/dad/interface_deluxe_1_1_deluxe_brand_center_1_1_a_m_m_1_1_domain_1_1_data_model_1_1_interface_1_1_i_modified.html" target="_top" xlink:title=" ">
<polygon fill="white" stroke="#666666" points="55.75,-382 0,-382 0,-362 55.75,-362 55.75,-382"/>
<text text-anchor="middle" x="27.88" y="-368.5" font-family="Helvetica,sans-Serif" font-size="10.00">IModified</text>
</a>
</g>
</g>
<!-- Node4&#45;&gt;Node3 -->
<g id="edge3_Node000003_Node000004" class="edge">
<title>Node4&#45;&gt;Node3</title>
<g id="a_edge3_Node000003_Node000004"><a xlink:title=" ">
<path fill="none" stroke="#63b8ff" d="M67.4,-379.25C75.3,-380.73 83.63,-382.3 91.53,-383.79"/>
<polygon fill="#63b8ff" stroke="#63b8ff" points="68.17,-375.83 57.69,-377.42 66.88,-382.71 68.17,-375.83"/>
</a>
</g>
</g>
<!-- Node5 -->
<g id="Node000005" class="node">
<title>Node5</title>
<g id="a_Node000005"><a xlink:href="../../d5/d26/interface_deluxe_1_1_deluxe_brand_center_1_1_a_m_m_1_1_domain_1_1_data_model_1_1_interface_1_1_i_base_entity.html" target="_top" xlink:title=" ">
<polygon fill="white" stroke="#666666" points="164.38,-363 97.38,-363 97.38,-343 164.38,-343 164.38,-363"/>
<text text-anchor="middle" x="130.88" y="-349.5" font-family="Helvetica,sans-Serif" font-size="10.00">IBaseEntity</text>
</a>
</g>
</g>
<!-- Node4&#45;&gt;Node5 -->
<g id="edge5_Node000005_Node000004" class="edge">
<title>Node4&#45;&gt;Node5</title>
<g id="a_edge5_Node000005_Node000004"><a xlink:title=" ">
<path fill="none" stroke="#63b8ff" d="M67.34,-364.76C77.16,-362.92 87.63,-360.95 97.13,-359.16"/>
<polygon fill="#63b8ff" stroke="#63b8ff" points="66.88,-361.29 57.69,-366.58 68.17,-368.17 66.88,-361.29"/>
</a>
</g>
</g>
<!-- Node5&#45;&gt;Node1 -->
<g id="edge8_Node000001_Node000005" class="edge">
<title>Node5&#45;&gt;Node1</title>
<g id="a_edge8_Node000001_Node000005"><a xlink:title=" ">
<path fill="none" stroke="#63b8ff" d="M176.02,-353C218.54,-353 284.44,-353 340.23,-353"/>
<polygon fill="#63b8ff" stroke="#63b8ff" points="176.19,-349.5 166.19,-353 176.19,-356.5 176.19,-349.5"/>
</a>
</g>
</g>
<!-- Node5&#45;&gt;Node2 -->
<g id="edge4_Node000002_Node000005" class="edge">
<title>Node5&#45;&gt;Node2</title>
<g id="a_edge4_Node000002_Node000005"><a xlink:title=" ">
<path fill="none" stroke="#63b8ff" d="M175.26,-366.47C191.03,-371.37 208.54,-376.81 223.05,-381.31"/>
<polygon fill="#63b8ff" stroke="#63b8ff" points="176.7,-363.26 166.11,-363.63 174.63,-369.94 176.7,-363.26"/>
</a>
</g>
</g>
<!-- Node6 -->
<g id="Node000006" class="node">
<title>Node6</title>
<g id="a_Node000006"><a xlink:href="../../d9/dec/interface_deluxe_1_1_deluxe_brand_center_1_1_a_m_m_1_1_domain_1_1_data_model_1_1_interface_1_1_i_base_entity_named.html" target="_top" xlink:title=" ">
<polygon fill="white" stroke="#666666" points="304.5,-325 206,-325 206,-305 304.5,-305 304.5,-325"/>
<text text-anchor="middle" x="255.25" y="-311.5" font-family="Helvetica,sans-Serif" font-size="10.00">IBaseEntityNamed</text>
</a>
</g>
</g>
<!-- Node5&#45;&gt;Node6 -->
<g id="edge7_Node000006_Node000005" class="edge">
<title>Node5&#45;&gt;Node6</title>
<g id="a_edge7_Node000006_Node000005"><a xlink:title=" ">
<path fill="none" stroke="#63b8ff" d="M175.61,-339.42C190.38,-334.83 206.64,-329.79 220.51,-325.48"/>
<polygon fill="#63b8ff" stroke="#63b8ff" points="174.63,-336.06 166.11,-342.37 176.7,-342.74 174.63,-336.06"/>
</a>
</g>
</g>
<!-- Node6&#45;&gt;Node1 -->
<g id="edge6_Node000001_Node000006" class="edge">
<title>Node6&#45;&gt;Node1</title>
<g id="a_edge6_Node000001_Node000006"><a xlink:title=" ">
<path fill="none" stroke="#63b8ff" d="M315.68,-327.04C330.58,-330.05 346.83,-333.35 362.61,-336.54"/>
<polygon fill="#63b8ff" stroke="#63b8ff" points="316.55,-323.64 306.05,-325.09 315.16,-330.5 316.55,-323.64"/>
</a>
</g>
</g>
</g>
</svg>
