<?xml version="1.0" encoding="UTF-8" standalone="no"?>
<!DOCTYPE svg PUBLIC "-//W3C//DTD SVG 1.1//EN"
 "http://www.w3.org/Graphics/SVG/1.1/DTD/svg11.dtd">
<!-- Generated by graphviz version 12.1.1 (20240910.0053)
 -->
<!-- Title: Deluxe.DeluxeBrandCenter.AMM.API.Services.BIService Pages: 1 -->
<svg width="1035pt" height="252pt"
 viewBox="0.00 0.00 1034.50 252.00" xmlns="http://www.w3.org/2000/svg" xmlns:xlink="http://www.w3.org/1999/xlink">
<g id="graph0" class="graph" transform="scale(1 1) rotate(0) translate(4 248)">
<title>Deluxe.DeluxeBrandCenter.AMM.API.Services.BIService</title>
<!-- Node1 -->
<g id="Node000001" class="node">
<title>Node1</title>
<g id="a_Node000001"><a xlink:title=" ">
<polygon fill="#999999" stroke="#666666" points="1026.5,-150 880.75,-150 880.75,-118 1026.5,-118 1026.5,-150"/>
<text text-anchor="start" x="888.75" y="-136.5" font-family="Helvetica,sans-Serif" font-size="10.00">Deluxe.DeluxeBrandCenter.</text>
<text text-anchor="middle" x="953.62" y="-124.5" font-family="Helvetica,sans-Serif" font-size="10.00">AMM.API.Services.BIService</text>
</a>
</g>
</g>
<!-- Node2 -->
<g id="Node000002" class="node">
<title>Node2</title>
<g id="a_Node000002"><a xlink:href="../../d0/d71/interface_deluxe_1_1_deluxe_brand_center_1_1_a_m_m_1_1_a_p_i_1_1_services_1_1_i_b_i_service.html" target="_top" xlink:title=" ">
<polygon fill="white" stroke="#666666" points="668.88,-244 607.12,-244 607.12,-224 668.88,-224 668.88,-244"/>
<text text-anchor="middle" x="638" y="-230.5" font-family="Helvetica,sans-Serif" font-size="10.00">IBIService</text>
</a>
</g>
</g>
<!-- Node2&#45;&gt;Node1 -->
<g id="edge1_Node000001_Node000002" class="edge">
<title>Node2&#45;&gt;Node1</title>
<g id="a_edge1_Node000001_Node000002"><a xlink:title=" ">
<path fill="none" stroke="#63b8ff" d="M680.44,-228.89C726.23,-222.35 801.58,-208.89 862.75,-185 886.15,-175.86 910.83,-161.47 928.4,-150.3"/>
<polygon fill="#63b8ff" stroke="#63b8ff" points="680.11,-225.4 670.69,-230.24 681.07,-232.34 680.11,-225.4"/>
</a>
</g>
</g>
<!-- Node3 -->
<g id="Node000003" class="node">
<title>Node3</title>
<g id="a_Node000003"><a xlink:href="../../de/de7/interface_deluxe_1_1_deluxe_brand_center_1_1_a_m_m_1_1_a_p_i_1_1_services_1_1_i_red_shift_service.html" target="_top" xlink:title=" ">
<polygon fill="white" stroke="#666666" points="726.62,-206 549.38,-206 549.38,-174 726.62,-174 726.62,-206"/>
<text text-anchor="start" x="557.38" y="-192.5" font-family="Helvetica,sans-Serif" font-size="10.00">Deluxe.DeluxeBrandCenter.</text>
<text text-anchor="middle" x="638" y="-180.5" font-family="Helvetica,sans-Serif" font-size="10.00">AMM.API.Services.IRedShiftService</text>
</a>
</g>
</g>
<!-- Node3&#45;&gt;Node1 -->
<g id="edge2_Node000001_Node000003" class="edge">
<title>Node3&#45;&gt;Node1</title>
<g id="a_edge2_Node000001_Node000003"><a xlink:title=" ">
<path fill="none" stroke="#9a32cd" stroke-dasharray="5,2" d="M738.04,-172.32C784.23,-164.07 838.21,-154.43 880.47,-146.88"/>
<polygon fill="#9a32cd" stroke="#9a32cd" points="737.5,-168.86 728.27,-174.06 738.73,-175.75 737.5,-168.86"/>
</a>
</g>
<text text-anchor="middle" x="807.25" y="-171.16" font-family="Helvetica,sans-Serif" font-size="10.00" fill="grey"> _redShiftService</text>
</g>
<!-- Node4 -->
<g id="Node000004" class="node">
<title>Node4</title>
<g id="a_Node000004"><a xlink:href="../../d8/d4e/interface_deluxe_1_1_deluxe_brand_center_1_1_a_m_m_1_1_a_p_i_1_1_services_1_1_i_contact_manager_service.html" target="_top" xlink:title=" ">
<polygon fill="white" stroke="#666666" points="727,-156 549,-156 549,-112 727,-112 727,-156"/>
<text text-anchor="start" x="557" y="-142.5" font-family="Helvetica,sans-Serif" font-size="10.00">Deluxe.DeluxeBrandCenter.</text>
<text text-anchor="start" x="557" y="-130.5" font-family="Helvetica,sans-Serif" font-size="10.00">AMM.API.Services.IContactManager</text>
<text text-anchor="middle" x="638" y="-118.5" font-family="Helvetica,sans-Serif" font-size="10.00">Service</text>
</a>
</g>
</g>
<!-- Node4&#45;&gt;Node1 -->
<g id="edge3_Node000001_Node000004" class="edge">
<title>Node4&#45;&gt;Node1</title>
<g id="a_edge3_Node000001_Node000004"><a xlink:title=" ">
<path fill="none" stroke="#9a32cd" stroke-dasharray="5,2" d="M738.43,-134C784.51,-134 838.27,-134 880.4,-134"/>
<polygon fill="#9a32cd" stroke="#9a32cd" points="738.71,-130.5 728.71,-134 738.71,-137.5 738.71,-130.5"/>
</a>
</g>
<text text-anchor="middle" x="807.25" y="-136.5" font-family="Helvetica,sans-Serif" font-size="10.00" fill="grey"> _contactManagerService</text>
</g>
<!-- Node5 -->
<g id="Node000005" class="node">
<title>Node5</title>
<g id="a_Node000005"><a xlink:href="../../d3/ddb/interface_deluxe_1_1_deluxe_brand_center_1_1_a_m_m_1_1_a_p_i_1_1_services_1_1_i_d_b_service.html" target="_top" xlink:title=" ">
<polygon fill="white" stroke="#666666" points="489.88,-148 377.12,-148 377.12,-116 489.88,-116 489.88,-148"/>
<text text-anchor="start" x="385.12" y="-134.5" font-family="Helvetica,sans-Serif" font-size="10.00">IDBService&lt; Contact,</text>
<text text-anchor="middle" x="433.5" y="-122.5" font-family="Helvetica,sans-Serif" font-size="10.00"> ContactVM &gt;</text>
</a>
</g>
</g>
<!-- Node5&#45;&gt;Node4 -->
<g id="edge4_Node000004_Node000005" class="edge">
<title>Node5&#45;&gt;Node4</title>
<g id="a_edge4_Node000004_Node000005"><a xlink:title=" ">
<path fill="none" stroke="#63b8ff" d="M501.63,-132.66C516.68,-132.81 532.87,-132.97 548.63,-133.13"/>
<polygon fill="#63b8ff" stroke="#63b8ff" points="501.92,-129.17 491.88,-132.57 501.85,-136.17 501.92,-129.17"/>
</a>
</g>
</g>
<!-- Node6 -->
<g id="Node000006" class="node">
<title>Node6</title>
<g id="a_Node000006"><a xlink:href="../../d3/ddb/interface_deluxe_1_1_deluxe_brand_center_1_1_a_m_m_1_1_a_p_i_1_1_services_1_1_i_d_b_service.html" target="_top" xlink:title=" ">
<polygon fill="white" stroke="#666666" points="153.25,-127 0,-127 0,-83 153.25,-83 153.25,-127"/>
<text text-anchor="start" x="8" y="-113.5" font-family="Helvetica,sans-Serif" font-size="10.00">Deluxe.DeluxeBrandCenter.</text>
<text text-anchor="start" x="8" y="-101.5" font-family="Helvetica,sans-Serif" font-size="10.00">AMM.API.Services.IDBService</text>
<text text-anchor="middle" x="76.62" y="-89.5" font-family="Helvetica,sans-Serif" font-size="10.00">&lt; TModel, TModelVM &gt;</text>
</a>
</g>
</g>
<!-- Node6&#45;&gt;Node5 -->
<g id="edge5_Node000005_Node000006" class="edge">
<title>Node6&#45;&gt;Node5</title>
<g id="a_edge5_Node000005_Node000006"><a xlink:title=" ">
<path fill="none" stroke="orange" stroke-dasharray="5,2" d="M164.56,-111.61C230.7,-116.65 319.76,-123.42 376.67,-127.75"/>
<polygon fill="orange" stroke="orange" points="165.07,-108.14 154.83,-110.87 164.53,-115.12 165.07,-108.14"/>
</a>
</g>
<text text-anchor="middle" x="257.5" y="-127.26" font-family="Helvetica,sans-Serif" font-size="10.00" fill="grey"> &lt; Contact, ContactVM &gt;</text>
</g>
<!-- Node8 -->
<g id="Node000008" class="node">
<title>Node8</title>
<g id="a_Node000008"><a xlink:href="../../d3/ddb/interface_deluxe_1_1_deluxe_brand_center_1_1_a_m_m_1_1_a_p_i_1_1_services_1_1_i_d_b_service.html" target="_top" xlink:title=" ">
<polygon fill="white" stroke="#666666" points="505.25,-97 361.75,-97 361.75,-65 505.25,-65 505.25,-97"/>
<text text-anchor="start" x="369.75" y="-83.5" font-family="Helvetica,sans-Serif" font-size="10.00">IDBService&lt; UserCampaign,</text>
<text text-anchor="middle" x="433.5" y="-71.5" font-family="Helvetica,sans-Serif" font-size="10.00"> UserCampaignVM &gt;</text>
</a>
</g>
</g>
<!-- Node6&#45;&gt;Node8 -->
<g id="edge8_Node000008_Node000006" class="edge">
<title>Node6&#45;&gt;Node8</title>
<g id="a_edge8_Node000008_Node000006"><a xlink:title=" ">
<path fill="none" stroke="orange" stroke-dasharray="5,2" d="M165.02,-93.57C167.12,-93.37 169.2,-93.18 171.25,-93 235.48,-87.42 308.84,-84.34 361.43,-82.7"/>
<polygon fill="orange" stroke="orange" points="164.8,-90.07 155.21,-94.57 165.51,-97.04 164.8,-90.07"/>
</a>
</g>
<text text-anchor="middle" x="257.5" y="-95.5" font-family="Helvetica,sans-Serif" font-size="10.00" fill="grey"> &lt; UserCampaign, UserCampaignVM &gt;</text>
</g>
<!-- Node7 -->
<g id="Node000007" class="node">
<title>Node7</title>
<g id="a_Node000007"><a xlink:href="../../d9/daf/interface_deluxe_1_1_deluxe_brand_center_1_1_a_m_m_1_1_a_p_i_1_1_services_1_1_i_user_campaign_service.html" target="_top" xlink:title=" ">
<polygon fill="white" stroke="#666666" points="723.62,-94 552.38,-94 552.38,-50 723.62,-50 723.62,-94"/>
<text text-anchor="start" x="560.38" y="-80.5" font-family="Helvetica,sans-Serif" font-size="10.00">Deluxe.DeluxeBrandCenter.</text>
<text text-anchor="start" x="560.38" y="-68.5" font-family="Helvetica,sans-Serif" font-size="10.00">AMM.API.Services.IUserCampaign</text>
<text text-anchor="middle" x="638" y="-56.5" font-family="Helvetica,sans-Serif" font-size="10.00">Service</text>
</a>
</g>
</g>
<!-- Node7&#45;&gt;Node1 -->
<g id="edge6_Node000001_Node000007" class="edge">
<title>Node7&#45;&gt;Node1</title>
<g id="a_edge6_Node000001_Node000007"><a xlink:title=" ">
<path fill="none" stroke="#9a32cd" stroke-dasharray="5,2" d="M734.96,-90.97C781.82,-100.23 837.25,-111.19 880.45,-119.73"/>
<polygon fill="#9a32cd" stroke="#9a32cd" points="735.85,-87.58 725.36,-89.07 734.49,-94.44 735.85,-87.58"/>
</a>
</g>
<text text-anchor="middle" x="807.25" y="-118.18" font-family="Helvetica,sans-Serif" font-size="10.00" fill="grey"> _userCampaignService</text>
</g>
<!-- Node8&#45;&gt;Node7 -->
<g id="edge7_Node000007_Node000008" class="edge">
<title>Node8&#45;&gt;Node7</title>
<g id="a_edge7_Node000007_Node000008"><a xlink:title=" ">
<path fill="none" stroke="#63b8ff" d="M517.05,-77.33C528.63,-76.82 540.54,-76.29 552.16,-75.77"/>
<polygon fill="#63b8ff" stroke="#63b8ff" points="516.96,-73.83 507.12,-77.77 517.27,-80.82 516.96,-73.83"/>
</a>
</g>
</g>
<!-- Node9 -->
<g id="Node000009" class="node">
<title>Node9</title>
<g id="a_Node000009"><a xlink:href="../../dd/d7d/interface_deluxe_1_1_deluxe_brand_center_1_1_a_m_m_1_1_domain_1_1_services_1_1_i_session_service.html" target="_top" xlink:title=" ">
<polygon fill="white" stroke="#666666" points="733.75,-32 542.25,-32 542.25,0 733.75,0 733.75,-32"/>
<text text-anchor="start" x="550.25" y="-18.5" font-family="Helvetica,sans-Serif" font-size="10.00">Deluxe.DeluxeBrandCenter.</text>
<text text-anchor="middle" x="638" y="-6.5" font-family="Helvetica,sans-Serif" font-size="10.00">AMM.Domain.Services.ISessionService</text>
</a>
</g>
</g>
<!-- Node9&#45;&gt;Node1 -->
<g id="edge9_Node000001_Node000009" class="edge">
<title>Node9&#45;&gt;Node1</title>
<g id="a_edge9_Node000001_Node000009"><a xlink:title=" ">
<path fill="none" stroke="#9a32cd" stroke-dasharray="5,2" d="M727.24,-35.22C769.25,-45.87 819.6,-60.87 862.75,-80 886.38,-90.48 911.45,-105.95 929.09,-117.64"/>
<polygon fill="#9a32cd" stroke="#9a32cd" points="728.21,-31.86 717.66,-32.83 726.52,-38.65 728.21,-31.86"/>
</a>
</g>
<text text-anchor="middle" x="807.25" y="-82.5" font-family="Helvetica,sans-Serif" font-size="10.00" fill="grey"> _sessionService</text>
</g>
</g>
</svg>
