<?xml version="1.0" encoding="UTF-8" standalone="no"?>
<!DOCTYPE svg PUBLIC "-//W3C//DTD SVG 1.1//EN"
 "http://www.w3.org/Graphics/SVG/1.1/DTD/svg11.dtd">
<!-- Generated by graphviz version 12.1.1 (20240910.0053)
 -->
<!-- Title: Deluxe.DeluxeBrandCenter.AMM.Infrastructure.Mindfire.UserServiceMF Pages: 1 -->
<svg width="746pt" height="128pt"
 viewBox="0.00 0.00 746.00 128.00" xmlns="http://www.w3.org/2000/svg" xmlns:xlink="http://www.w3.org/1999/xlink">
<g id="graph0" class="graph" transform="scale(1 1) rotate(0) translate(4 124)">
<title>Deluxe.DeluxeBrandCenter.AMM.Infrastructure.Mindfire.UserServiceMF</title>
<!-- Node1 -->
<g id="Node000001" class="node">
<title>Node1</title>
<g id="a_Node000001"><a xlink:title=" ">
<polygon fill="#999999" stroke="#666666" points="738,-94 576.5,-94 576.5,-50 738,-50 738,-94"/>
<text text-anchor="start" x="584.5" y="-80.5" font-family="Helvetica,sans-Serif" font-size="10.00">Deluxe.DeluxeBrandCenter.</text>
<text text-anchor="start" x="584.5" y="-68.5" font-family="Helvetica,sans-Serif" font-size="10.00">AMM.Infrastructure.Mindfire.User</text>
<text text-anchor="middle" x="657.25" y="-56.5" font-family="Helvetica,sans-Serif" font-size="10.00">ServiceMF</text>
</a>
</g>
</g>
<!-- Node2 -->
<g id="Node000002" class="node">
<title>Node2</title>
<g id="a_Node000002"><a xlink:href="../../d7/d00/class_deluxe_1_1_deluxe_brand_center_1_1_a_m_m_1_1_infrastructure_1_1_mindfire_1_1_base_mindfire_service.html" target="_top" xlink:title=" ">
<polygon fill="white" stroke="#666666" points="442.62,-82 336.62,-82 336.62,-62 442.62,-62 442.62,-82"/>
<text text-anchor="middle" x="389.62" y="-68.5" font-family="Helvetica,sans-Serif" font-size="10.00">BaseMindfireService</text>
</a>
</g>
</g>
<!-- Node2&#45;&gt;Node1 -->
<g id="edge1_Node000001_Node000002" class="edge">
<title>Node2&#45;&gt;Node1</title>
<g id="a_edge1_Node000001_Node000002"><a xlink:title=" ">
<path fill="none" stroke="#63b8ff" d="M454.6,-72C491.12,-72 537.23,-72 576.14,-72"/>
<polygon fill="#63b8ff" stroke="#63b8ff" points="454.62,-68.5 444.62,-72 454.62,-75.5 454.62,-68.5"/>
</a>
</g>
</g>
<!-- Node3 -->
<g id="Node000003" class="node">
<title>Node3</title>
<g id="a_Node000003"><a xlink:href="../../de/d4f/interface_deluxe_1_1_deluxe_brand_center_1_1_a_m_m_1_1_infrastructure_1_1_mindfire_1_1_i_base_mindfire_service.html" target="_top" xlink:title=" ">
<polygon fill="white" stroke="#666666" points="150.25,-116 41.25,-116 41.25,-96 150.25,-96 150.25,-116"/>
<text text-anchor="middle" x="95.75" y="-102.5" font-family="Helvetica,sans-Serif" font-size="10.00">IBaseMindfireService</text>
</a>
</g>
</g>
<!-- Node3&#45;&gt;Node2 -->
<g id="edge2_Node000002_Node000003" class="edge">
<title>Node3&#45;&gt;Node2</title>
<g id="a_edge2_Node000002_Node000003"><a xlink:title=" ">
<path fill="none" stroke="#63b8ff" d="M161.87,-98.41C214.53,-92.28 287.71,-83.76 336.54,-78.07"/>
<polygon fill="#63b8ff" stroke="#63b8ff" points="161.66,-94.92 152.13,-99.55 162.47,-101.87 161.66,-94.92"/>
</a>
</g>
</g>
<!-- Node5 -->
<g id="Node000005" class="node">
<title>Node5</title>
<g id="a_Node000005"><a xlink:href="../../d0/d33/interface_deluxe_1_1_deluxe_brand_center_1_1_a_m_m_1_1_infrastructure_1_1_mindfire_1_1_i_user_service_m_f.html" target="_top" xlink:title=" ">
<polygon fill="white" stroke="#666666" points="433.25,-120 346,-120 346,-100 433.25,-100 433.25,-120"/>
<text text-anchor="middle" x="389.62" y="-106.5" font-family="Helvetica,sans-Serif" font-size="10.00">IUserServiceMF</text>
</a>
</g>
</g>
<!-- Node3&#45;&gt;Node5 -->
<g id="edge5_Node000005_Node000003" class="edge">
<title>Node3&#45;&gt;Node5</title>
<g id="a_edge5_Node000005_Node000003"><a xlink:title=" ">
<path fill="none" stroke="#63b8ff" d="M161.85,-106.89C217.85,-107.66 297.05,-108.75 345.51,-109.41"/>
<polygon fill="#63b8ff" stroke="#63b8ff" points="162.18,-103.4 152.14,-106.76 162.09,-110.4 162.18,-103.4"/>
</a>
</g>
</g>
<!-- Node4 -->
<g id="Node000004" class="node">
<title>Node4</title>
<g id="a_Node000004"><a xlink:href="../../dd/d7d/interface_deluxe_1_1_deluxe_brand_center_1_1_a_m_m_1_1_domain_1_1_services_1_1_i_session_service.html" target="_top" xlink:title=" ">
<polygon fill="white" stroke="#666666" points="191.5,-74 0,-74 0,-42 191.5,-42 191.5,-74"/>
<text text-anchor="start" x="8" y="-60.5" font-family="Helvetica,sans-Serif" font-size="10.00">Deluxe.DeluxeBrandCenter.</text>
<text text-anchor="middle" x="95.75" y="-48.5" font-family="Helvetica,sans-Serif" font-size="10.00">AMM.Domain.Services.ISessionService</text>
</a>
</g>
</g>
<!-- Node4&#45;&gt;Node2 -->
<g id="edge3_Node000002_Node000004" class="edge">
<title>Node4&#45;&gt;Node2</title>
<g id="a_edge3_Node000002_Node000004"><a xlink:title=" ">
<path fill="none" stroke="#9a32cd" stroke-dasharray="5,2" d="M203.13,-56.37C229.73,-56.56 258.17,-57.29 284.5,-59 301.41,-60.1 319.77,-62.11 336.3,-64.23"/>
<polygon fill="#9a32cd" stroke="#9a32cd" points="203.39,-52.87 193.37,-56.32 203.36,-59.87 203.39,-52.87"/>
</a>
</g>
<text text-anchor="middle" x="247" y="-61.5" font-family="Helvetica,sans-Serif" font-size="10.00" fill="grey"> _sessionService</text>
</g>
<!-- Node5&#45;&gt;Node1 -->
<g id="edge4_Node000001_Node000005" class="edge">
<title>Node5&#45;&gt;Node1</title>
<g id="a_edge4_Node000001_Node000005"><a xlink:title=" ">
<path fill="none" stroke="#63b8ff" d="M444.61,-102.29C477.52,-97.58 520.44,-91.45 558.5,-86 564.27,-85.17 570.23,-84.32 576.23,-83.46"/>
<polygon fill="#63b8ff" stroke="#63b8ff" points="444.31,-98.79 434.9,-103.67 445.3,-105.72 444.31,-98.79"/>
</a>
</g>
</g>
<!-- Node6 -->
<g id="Node000006" class="node">
<title>Node6</title>
<g id="a_Node000006"><a xlink:href="../../dc/d6a/interface_deluxe_1_1_deluxe_brand_center_1_1_a_m_m_1_1_domain_1_1_config_model_1_1_i_mindfire_settings.html" target="_top" xlink:title=" ">
<polygon fill="white" stroke="#666666" points="476.75,-44 302.5,-44 302.5,0 476.75,0 476.75,-44"/>
<text text-anchor="start" x="310.5" y="-30.5" font-family="Helvetica,sans-Serif" font-size="10.00">Deluxe.DeluxeBrandCenter.</text>
<text text-anchor="start" x="310.5" y="-18.5" font-family="Helvetica,sans-Serif" font-size="10.00">AMM.Domain.ConfigModel.IMindfire</text>
<text text-anchor="middle" x="389.62" y="-6.5" font-family="Helvetica,sans-Serif" font-size="10.00">Settings</text>
</a>
</g>
</g>
<!-- Node6&#45;&gt;Node1 -->
<g id="edge6_Node000001_Node000006" class="edge">
<title>Node6&#45;&gt;Node1</title>
<g id="a_edge6_Node000001_Node000006"><a xlink:title=" ">
<path fill="none" stroke="#9a32cd" stroke-dasharray="5,2" d="M488.18,-40.36C517.08,-45.8 548.39,-51.7 576.06,-56.91"/>
<polygon fill="#9a32cd" stroke="#9a32cd" points="489.2,-36.99 478.72,-38.58 487.9,-43.87 489.2,-36.99"/>
</a>
</g>
<text text-anchor="middle" x="526.62" y="-55.45" font-family="Helvetica,sans-Serif" font-size="10.00" fill="grey"> _configuration</text>
</g>
</g>
</svg>
