<?xml version="1.0" encoding="UTF-8" standalone="no"?>
<!DOCTYPE svg PUBLIC "-//W3C//DTD SVG 1.1//EN"
 "http://www.w3.org/Graphics/SVG/1.1/DTD/svg11.dtd">
<!-- Generated by graphviz version 12.1.1 (20240910.0053)
 -->
<!-- Title: Deluxe.DeluxeBrandCenter.AMM.Domain.Utility.CSVHelper.CreateFromContactList Pages: 1 -->
<svg width="626pt" height="214pt"
 viewBox="0.00 0.00 626.00 214.00" xmlns="http://www.w3.org/2000/svg" xmlns:xlink="http://www.w3.org/1999/xlink">
<g id="graph0" class="graph" transform="scale(1 1) rotate(0) translate(4 210)">
<title>Deluxe.DeluxeBrandCenter.AMM.Domain.Utility.CSVHelper.CreateFromContactList</title>
<!-- Node1 -->
<g id="Node000001" class="node">
<title>Node1</title>
<g id="a_Node000001"><a xlink:title=" ">
<polygon fill="#999999" stroke="#666666" points="618,-131 429.5,-131 429.5,-87 618,-87 618,-131"/>
<text text-anchor="start" x="437.5" y="-117.5" font-family="Helvetica,sans-Serif" font-size="10.00">Deluxe.DeluxeBrandCenter.</text>
<text text-anchor="start" x="437.5" y="-105.5" font-family="Helvetica,sans-Serif" font-size="10.00">AMM.Domain.Utility.CSVHelper.Create</text>
<text text-anchor="middle" x="523.75" y="-93.5" font-family="Helvetica,sans-Serif" font-size="10.00">FromContactList</text>
</a>
</g>
</g>
<!-- Node2 -->
<g id="Node000002" class="node">
<title>Node2</title>
<g id="a_Node000002"><a xlink:href="../../d4/d06/class_deluxe_1_1_deluxe_brand_center_1_1_a_m_m_1_1_a_p_i_1_1_services_1_1_contact_manager_service.html#ad5a6675a4bbdf499e765e18b3f2f71d3" target="_top" xlink:title=" ">
<polygon fill="white" stroke="#666666" points="393.5,-206 218.5,-206 218.5,-162 393.5,-162 393.5,-206"/>
<text text-anchor="start" x="226.5" y="-192.5" font-family="Helvetica,sans-Serif" font-size="10.00">Deluxe.DeluxeBrandCenter.</text>
<text text-anchor="start" x="226.5" y="-180.5" font-family="Helvetica,sans-Serif" font-size="10.00">AMM.API.Services.ContactManager</text>
<text text-anchor="middle" x="306" y="-168.5" font-family="Helvetica,sans-Serif" font-size="10.00">Service.DownloadCSV</text>
</a>
</g>
</g>
<!-- Node1&#45;&gt;Node2 -->
<g id="edge1_Node000001_Node000002" class="edge">
<title>Node1&#45;&gt;Node2</title>
<g id="a_edge1_Node000001_Node000002"><a xlink:title=" ">
<path fill="none" stroke="#63b8ff" d="M447.49,-135.16C422.71,-143.78 395.39,-153.27 371.48,-161.59"/>
<polygon fill="#63b8ff" stroke="#63b8ff" points="448.58,-138.49 456.88,-131.9 446.29,-131.88 448.58,-138.49"/>
</a>
</g>
</g>
<!-- Node3 -->
<g id="Node000003" class="node">
<title>Node3</title>
<g id="a_Node000003"><a xlink:href="../../d4/d06/class_deluxe_1_1_deluxe_brand_center_1_1_a_m_m_1_1_a_p_i_1_1_services_1_1_contact_manager_service.html#a606f9329995599eb3ae8583e6d033f8d" target="_top" xlink:title=" ">
<polygon fill="white" stroke="#666666" points="182.5,-181 0,-181 0,-137 182.5,-137 182.5,-181"/>
<text text-anchor="start" x="8" y="-167.5" font-family="Helvetica,sans-Serif" font-size="10.00">Deluxe.DeluxeBrandCenter.</text>
<text text-anchor="start" x="8" y="-155.5" font-family="Helvetica,sans-Serif" font-size="10.00">AMM.API.Services.ContactManager</text>
<text text-anchor="middle" x="91.25" y="-143.5" font-family="Helvetica,sans-Serif" font-size="10.00">Service.DownloadGroupContactsCSV</text>
</a>
</g>
</g>
<!-- Node1&#45;&gt;Node3 -->
<g id="edge3_Node000001_Node000003" class="edge">
<title>Node1&#45;&gt;Node3</title>
<g id="a_edge3_Node000001_Node000003"><a xlink:title=" ">
<path fill="none" stroke="#63b8ff" d="M417.73,-121.2C345.81,-129.55 251.39,-140.52 182.79,-148.48"/>
<polygon fill="#63b8ff" stroke="#63b8ff" points="418.04,-124.69 427.57,-120.05 417.23,-117.73 418.04,-124.69"/>
</a>
</g>
</g>
<!-- Node4 -->
<g id="Node000004" class="node">
<title>Node4</title>
<g id="a_Node000004"><a xlink:href="../../d4/d06/class_deluxe_1_1_deluxe_brand_center_1_1_a_m_m_1_1_a_p_i_1_1_services_1_1_contact_manager_service.html#a7f6af03e51f7bb3b4b003c2296015349" target="_top" xlink:title=" ">
<polygon fill="white" stroke="#666666" points="393.5,-106 218.5,-106 218.5,-62 393.5,-62 393.5,-106"/>
<text text-anchor="start" x="226.5" y="-92.5" font-family="Helvetica,sans-Serif" font-size="10.00">Deluxe.DeluxeBrandCenter.</text>
<text text-anchor="start" x="226.5" y="-80.5" font-family="Helvetica,sans-Serif" font-size="10.00">AMM.API.Services.ContactManager</text>
<text text-anchor="middle" x="306" y="-68.5" font-family="Helvetica,sans-Serif" font-size="10.00">Service.UploadRedTailContacts</text>
</a>
</g>
</g>
<!-- Node1&#45;&gt;Node4 -->
<g id="edge4_Node000001_Node000004" class="edge">
<title>Node1&#45;&gt;Node4</title>
<g id="a_edge4_Node000001_Node000004"><a xlink:title=" ">
<path fill="none" stroke="#63b8ff" d="M417.75,-96.83C409.73,-95.9 401.69,-94.97 393.8,-94.06"/>
<polygon fill="#63b8ff" stroke="#63b8ff" points="417.22,-100.3 427.56,-97.97 418.03,-93.34 417.22,-100.3"/>
</a>
</g>
</g>
<!-- Node5 -->
<g id="Node000005" class="node">
<title>Node5</title>
<g id="a_Node000005"><a xlink:href="../../d4/d06/class_deluxe_1_1_deluxe_brand_center_1_1_a_m_m_1_1_a_p_i_1_1_services_1_1_contact_manager_service.html#a9fed8bce1aa679c38c8e729ee735ca5f" target="_top" xlink:title=" ">
<polygon fill="white" stroke="#666666" points="393.5,-44 218.5,-44 218.5,0 393.5,0 393.5,-44"/>
<text text-anchor="start" x="226.5" y="-30.5" font-family="Helvetica,sans-Serif" font-size="10.00">Deluxe.DeluxeBrandCenter.</text>
<text text-anchor="start" x="226.5" y="-18.5" font-family="Helvetica,sans-Serif" font-size="10.00">AMM.API.Services.ContactManager</text>
<text text-anchor="middle" x="306" y="-6.5" font-family="Helvetica,sans-Serif" font-size="10.00">Service.UploadSaleForceContacts</text>
</a>
</g>
</g>
<!-- Node1&#45;&gt;Node5 -->
<g id="edge5_Node000001_Node000005" class="edge">
<title>Node1&#45;&gt;Node5</title>
<g id="a_edge5_Node000001_Node000005"><a xlink:title=" ">
<path fill="none" stroke="#63b8ff" d="M462.67,-82.01C441,-72.53 416.27,-62 393.5,-53 386.23,-50.13 378.58,-47.22 370.95,-44.39"/>
<polygon fill="#63b8ff" stroke="#63b8ff" points="461.09,-85.14 471.66,-85.96 463.91,-78.73 461.09,-85.14"/>
</a>
</g>
</g>
<!-- Node2&#45;&gt;Node3 -->
<g id="edge2_Node000002_Node000003" class="edge">
<title>Node2&#45;&gt;Node3</title>
<g id="a_edge2_Node000002_Node000003"><a xlink:title=" ">
<path fill="none" stroke="#63b8ff" d="M206.93,-172.48C198.94,-171.54 190.89,-170.59 182.96,-169.66"/>
<polygon fill="#63b8ff" stroke="#63b8ff" points="206.32,-175.93 216.66,-173.62 207.13,-168.98 206.32,-175.93"/>
</a>
</g>
</g>
</g>
</svg>
