<?xml version="1.0" encoding="UTF-8" standalone="no"?>
<!DOCTYPE svg PUBLIC "-//W3C//DTD SVG 1.1//EN"
 "http://www.w3.org/Graphics/SVG/1.1/DTD/svg11.dtd">
<!-- Generated by graphviz version 12.1.1 (20240910.0053)
 -->
<!-- Title: Deluxe.DeluxeBrandCenter.AMM.API.Services.SettingsService Pages: 1 -->
<svg width="1169pt" height="152pt"
 viewBox="0.00 0.00 1168.50 152.00" xmlns="http://www.w3.org/2000/svg" xmlns:xlink="http://www.w3.org/1999/xlink">
<g id="graph0" class="graph" transform="scale(1 1) rotate(0) translate(4 148)">
<title>Deluxe.DeluxeBrandCenter.AMM.API.Services.SettingsService</title>
<!-- Node1 -->
<g id="Node000001" class="node">
<title>Node1</title>
<g id="a_Node000001"><a xlink:title=" ">
<polygon fill="#999999" stroke="#666666" points="1160.5,-71 988.5,-71 988.5,-39 1160.5,-39 1160.5,-71"/>
<text text-anchor="start" x="996.5" y="-57.5" font-family="Helvetica,sans-Serif" font-size="10.00">Deluxe.DeluxeBrandCenter.</text>
<text text-anchor="middle" x="1074.5" y="-45.5" font-family="Helvetica,sans-Serif" font-size="10.00">AMM.API.Services.SettingsService</text>
</a>
</g>
</g>
<!-- Node2 -->
<g id="Node000002" class="node">
<title>Node2</title>
<g id="a_Node000002"><a xlink:href="../../dd/dd8/class_deluxe_1_1_deluxe_brand_center_1_1_a_m_m_1_1_a_p_i_1_1_services_1_1_named_db_service.html" target="_top" xlink:title=" ">
<polygon fill="white" stroke="#666666" points="951.5,-92 810.25,-92 810.25,-60 951.5,-60 951.5,-92"/>
<text text-anchor="start" x="818.25" y="-78.5" font-family="Helvetica,sans-Serif" font-size="10.00">NamedDbService&lt; Settings,</text>
<text text-anchor="middle" x="880.88" y="-66.5" font-family="Helvetica,sans-Serif" font-size="10.00"> SettingsVM &gt;</text>
</a>
</g>
</g>
<!-- Node2&#45;&gt;Node1 -->
<g id="edge1_Node000001_Node000002" class="edge">
<title>Node2&#45;&gt;Node1</title>
<g id="a_edge1_Node000001_Node000002"><a xlink:title=" ">
<path fill="none" stroke="#63b8ff" d="M963.04,-67.11C971.31,-66.2 979.73,-65.28 988.05,-64.36"/>
<polygon fill="#63b8ff" stroke="#63b8ff" points="962.93,-63.6 953.37,-68.16 963.7,-70.55 962.93,-63.6"/>
</a>
</g>
</g>
<!-- Node3 -->
<g id="Node000003" class="node">
<title>Node3</title>
<g id="a_Node000003"><a xlink:href="../../dd/dd8/class_deluxe_1_1_deluxe_brand_center_1_1_a_m_m_1_1_a_p_i_1_1_services_1_1_named_db_service.html" target="_top" xlink:title=" ">
<polygon fill="white" stroke="#666666" points="660.25,-100 480,-100 480,-56 660.25,-56 660.25,-100"/>
<text text-anchor="start" x="488" y="-86.5" font-family="Helvetica,sans-Serif" font-size="10.00">Deluxe.DeluxeBrandCenter.</text>
<text text-anchor="start" x="488" y="-74.5" font-family="Helvetica,sans-Serif" font-size="10.00">AMM.API.Services.NamedDbService</text>
<text text-anchor="middle" x="570.12" y="-62.5" font-family="Helvetica,sans-Serif" font-size="10.00">&lt; TModel, TModelVM &gt;</text>
</a>
</g>
</g>
<!-- Node3&#45;&gt;Node2 -->
<g id="edge2_Node000002_Node000003" class="edge">
<title>Node3&#45;&gt;Node2</title>
<g id="a_edge2_Node000002_Node000003"><a xlink:title=" ">
<path fill="none" stroke="orange" stroke-dasharray="5,2" d="M671.75,-77.35C716.9,-77.06 769.07,-76.72 809.88,-76.45"/>
<polygon fill="orange" stroke="orange" points="671.92,-73.85 661.94,-77.41 671.96,-80.85 671.92,-73.85"/>
</a>
</g>
<text text-anchor="middle" x="735.25" y="-79.8" font-family="Helvetica,sans-Serif" font-size="10.00" fill="grey"> &lt; Settings, SettingsVM &gt;</text>
</g>
<!-- Node4 -->
<g id="Node000004" class="node">
<title>Node4</title>
<g id="a_Node000004"><a xlink:href="../../d6/d4e/class_deluxe_1_1_deluxe_brand_center_1_1_a_m_m_1_1_a_p_i_1_1_services_1_1_d_b_service.html" target="_top" xlink:title=" ">
<polygon fill="white" stroke="#666666" points="291.75,-144 185,-144 185,-112 291.75,-112 291.75,-144"/>
<text text-anchor="start" x="193" y="-130.5" font-family="Helvetica,sans-Serif" font-size="10.00">DBService&lt; TModel,</text>
<text text-anchor="middle" x="238.38" y="-118.5" font-family="Helvetica,sans-Serif" font-size="10.00"> TModelVM &gt;</text>
</a>
</g>
</g>
<!-- Node4&#45;&gt;Node3 -->
<g id="edge3_Node000003_Node000004" class="edge">
<title>Node4&#45;&gt;Node3</title>
<g id="a_edge3_Node000003_Node000004"><a xlink:title=" ">
<path fill="none" stroke="#63b8ff" d="M303.33,-118.3C353.51,-110.69 423.96,-100.01 479.73,-91.56"/>
<polygon fill="#63b8ff" stroke="#63b8ff" points="302.85,-114.84 293.49,-119.8 303.9,-121.76 302.85,-114.84"/>
</a>
</g>
</g>
<!-- Node5 -->
<g id="Node000005" class="node">
<title>Node5</title>
<g id="a_Node000005"><a xlink:href="../../d3/ddb/interface_deluxe_1_1_deluxe_brand_center_1_1_a_m_m_1_1_a_p_i_1_1_services_1_1_i_d_b_service.html" target="_top" xlink:title=" ">
<polygon fill="white" stroke="#666666" points="109.75,-94 0,-94 0,-62 109.75,-62 109.75,-94"/>
<text text-anchor="start" x="8" y="-80.5" font-family="Helvetica,sans-Serif" font-size="10.00">IDBService&lt; TModel,</text>
<text text-anchor="middle" x="54.88" y="-68.5" font-family="Helvetica,sans-Serif" font-size="10.00"> TModelVM &gt;</text>
</a>
</g>
</g>
<!-- Node5&#45;&gt;Node4 -->
<g id="edge4_Node000004_Node000005" class="edge">
<title>Node5&#45;&gt;Node4</title>
<g id="a_edge4_Node000004_Node000005"><a xlink:title=" ">
<path fill="none" stroke="#63b8ff" d="M120.88,-95.91C141.77,-101.66 164.65,-107.97 184.56,-113.45"/>
<polygon fill="#63b8ff" stroke="#63b8ff" points="121.87,-92.55 111.3,-93.27 120.01,-99.3 121.87,-92.55"/>
</a>
</g>
</g>
<!-- Node6 -->
<g id="Node000006" class="node">
<title>Node6</title>
<g id="a_Node000006"><a xlink:href="../../d3/dac/interface_deluxe_1_1_deluxe_brand_center_1_1_a_m_m_1_1_a_p_i_1_1_services_1_1_i_named_db_service.html" target="_top" xlink:title=" ">
<polygon fill="white" stroke="#666666" points="308.25,-94 168.5,-94 168.5,-62 308.25,-62 308.25,-94"/>
<text text-anchor="start" x="176.5" y="-80.5" font-family="Helvetica,sans-Serif" font-size="10.00">INamedDbService&lt; TModel,</text>
<text text-anchor="middle" x="238.38" y="-68.5" font-family="Helvetica,sans-Serif" font-size="10.00"> TModelVM &gt;</text>
</a>
</g>
</g>
<!-- Node5&#45;&gt;Node6 -->
<g id="edge6_Node000006_Node000005" class="edge">
<title>Node5&#45;&gt;Node6</title>
<g id="a_edge6_Node000006_Node000005"><a xlink:title=" ">
<path fill="none" stroke="#63b8ff" d="M121.25,-78C136.47,-78 152.73,-78 168.12,-78"/>
<polygon fill="#63b8ff" stroke="#63b8ff" points="121.35,-74.5 111.35,-78 121.35,-81.5 121.35,-74.5"/>
</a>
</g>
</g>
<!-- Node9 -->
<g id="Node000009" class="node">
<title>Node9</title>
<g id="a_Node000009"><a xlink:href="../../d3/dac/interface_deluxe_1_1_deluxe_brand_center_1_1_a_m_m_1_1_a_p_i_1_1_services_1_1_i_named_db_service.html" target="_top" xlink:title=" ">
<polygon fill="white" stroke="#666666" points="330,-44 146.75,-44 146.75,0 330,0 330,-44"/>
<text text-anchor="start" x="154.75" y="-30.5" font-family="Helvetica,sans-Serif" font-size="10.00">Deluxe.DeluxeBrandCenter.</text>
<text text-anchor="start" x="154.75" y="-18.5" font-family="Helvetica,sans-Serif" font-size="10.00">AMM.API.Services.INamedDbService</text>
<text text-anchor="middle" x="238.38" y="-6.5" font-family="Helvetica,sans-Serif" font-size="10.00">&lt; TModel, TModelVM &gt;</text>
</a>
</g>
</g>
<!-- Node5&#45;&gt;Node9 -->
<g id="edge10_Node000009_Node000005" class="edge">
<title>Node5&#45;&gt;Node9</title>
<g id="a_edge10_Node000009_Node000005"><a xlink:title=" ">
<path fill="none" stroke="#63b8ff" d="M120.17,-58.16C134.61,-53.71 150.03,-48.95 164.78,-44.4"/>
<polygon fill="#63b8ff" stroke="#63b8ff" points="119.32,-54.76 110.8,-61.05 121.38,-61.45 119.32,-54.76"/>
</a>
</g>
</g>
<!-- Node6&#45;&gt;Node3 -->
<g id="edge5_Node000003_Node000006" class="edge">
<title>Node6&#45;&gt;Node3</title>
<g id="a_edge5_Node000003_Node000006"><a xlink:title=" ">
<path fill="none" stroke="#63b8ff" d="M319.86,-78C368.22,-78 429.83,-78 479.71,-78"/>
<polygon fill="#63b8ff" stroke="#63b8ff" points="320.01,-74.5 310.01,-78 320.01,-81.5 320.01,-74.5"/>
</a>
</g>
</g>
<!-- Node7 -->
<g id="Node000007" class="node">
<title>Node7</title>
<g id="a_Node000007"><a xlink:href="../../d3/d8e/interface_deluxe_1_1_deluxe_brand_center_1_1_a_m_m_1_1_a_p_i_1_1_services_1_1_i_settings_service.html" target="_top" xlink:title=" ">
<polygon fill="white" stroke="#666666" points="924.88,-41 836.88,-41 836.88,-21 924.88,-21 924.88,-41"/>
<text text-anchor="middle" x="880.88" y="-27.5" font-family="Helvetica,sans-Serif" font-size="10.00">ISettingsService</text>
</a>
</g>
</g>
<!-- Node7&#45;&gt;Node1 -->
<g id="edge7_Node000001_Node000007" class="edge">
<title>Node7&#45;&gt;Node1</title>
<g id="a_edge7_Node000001_Node000007"><a xlink:title=" ">
<path fill="none" stroke="#63b8ff" d="M936.7,-37.87C952.77,-39.88 970.75,-42.13 988.25,-44.32"/>
<polygon fill="#63b8ff" stroke="#63b8ff" points="937.22,-34.4 926.86,-36.63 936.35,-41.35 937.22,-34.4"/>
</a>
</g>
</g>
<!-- Node8 -->
<g id="Node000008" class="node">
<title>Node8</title>
<g id="a_Node000008"><a xlink:href="../../d3/dac/interface_deluxe_1_1_deluxe_brand_center_1_1_a_m_m_1_1_a_p_i_1_1_services_1_1_i_named_db_service.html" target="_top" xlink:title=" ">
<polygon fill="white" stroke="#666666" points="642.25,-38 498,-38 498,-6 642.25,-6 642.25,-38"/>
<text text-anchor="start" x="506" y="-24.5" font-family="Helvetica,sans-Serif" font-size="10.00">INamedDbService&lt; Settings,</text>
<text text-anchor="middle" x="570.12" y="-12.5" font-family="Helvetica,sans-Serif" font-size="10.00"> SettingsVM &gt;</text>
</a>
</g>
</g>
<!-- Node8&#45;&gt;Node7 -->
<g id="edge8_Node000007_Node000008" class="edge">
<title>Node8&#45;&gt;Node7</title>
<g id="a_edge8_Node000007_Node000008"><a xlink:title=" ">
<path fill="none" stroke="#63b8ff" d="M653.89,-24.41C712.79,-26.13 789.55,-28.37 836.74,-29.74"/>
<polygon fill="#63b8ff" stroke="#63b8ff" points="654.35,-20.92 644.25,-24.13 654.14,-27.92 654.35,-20.92"/>
</a>
</g>
</g>
<!-- Node9&#45;&gt;Node8 -->
<g id="edge9_Node000008_Node000009" class="edge">
<title>Node9&#45;&gt;Node8</title>
<g id="a_edge9_Node000008_Node000009"><a xlink:title=" ">
<path fill="none" stroke="orange" stroke-dasharray="5,2" d="M341.65,-22C392.18,-22 451.93,-22 497.5,-22"/>
<polygon fill="orange" stroke="orange" points="341.87,-18.5 331.87,-22 341.87,-25.5 341.87,-18.5"/>
</a>
</g>
<text text-anchor="middle" x="405" y="-24.5" font-family="Helvetica,sans-Serif" font-size="10.00" fill="grey"> &lt; Settings, SettingsVM &gt;</text>
</g>
</g>
</svg>
