<?xml version="1.0" encoding="UTF-8" standalone="no"?>
<!DOCTYPE svg PUBLIC "-//W3C//DTD SVG 1.1//EN"
 "http://www.w3.org/Graphics/SVG/1.1/DTD/svg11.dtd">
<!-- Generated by graphviz version 12.1.1 (20240910.0053)
 -->
<!-- Title: Deluxe.DeluxeBrandCenter.AMM.API.Services.ContactManagerService Pages: 1 -->
<svg width="1127pt" height="506pt"
 viewBox="0.00 0.00 1126.50 506.00" xmlns="http://www.w3.org/2000/svg" xmlns:xlink="http://www.w3.org/1999/xlink">
<g id="graph0" class="graph" transform="scale(1 1) rotate(0) translate(4 502)">
<title>Deluxe.DeluxeBrandCenter.AMM.API.Services.ContactManagerService</title>
<!-- Node1 -->
<g id="Node000001" class="node">
<title>Node1</title>
<g id="a_Node000001"><a xlink:title=" ">
<polygon fill="#999999" stroke="#666666" points="1118.5,-246 943.5,-246 943.5,-202 1118.5,-202 1118.5,-246"/>
<text text-anchor="start" x="951.5" y="-232.5" font-family="Helvetica,sans-Serif" font-size="10.00">Deluxe.DeluxeBrandCenter.</text>
<text text-anchor="start" x="951.5" y="-220.5" font-family="Helvetica,sans-Serif" font-size="10.00">AMM.API.Services.ContactManager</text>
<text text-anchor="middle" x="1031" y="-208.5" font-family="Helvetica,sans-Serif" font-size="10.00">Service</text>
</a>
</g>
</g>
<!-- Node2 -->
<g id="Node000002" class="node">
<title>Node2</title>
<g id="a_Node000002"><a xlink:href="../../d6/d4e/class_deluxe_1_1_deluxe_brand_center_1_1_a_m_m_1_1_a_p_i_1_1_services_1_1_d_b_service.html" target="_top" xlink:title=" ">
<polygon fill="white" stroke="#666666" points="781.88,-412 672.12,-412 672.12,-380 781.88,-380 781.88,-412"/>
<text text-anchor="start" x="680.12" y="-398.5" font-family="Helvetica,sans-Serif" font-size="10.00">DBService&lt; Contact,</text>
<text text-anchor="middle" x="727" y="-386.5" font-family="Helvetica,sans-Serif" font-size="10.00"> ContactVM &gt;</text>
</a>
</g>
</g>
<!-- Node2&#45;&gt;Node1 -->
<g id="edge1_Node000001_Node000002" class="edge">
<title>Node2&#45;&gt;Node1</title>
<g id="a_edge1_Node000001_Node000002"><a xlink:title=" ">
<path fill="none" stroke="#63b8ff" d="M793.36,-379.04C833.44,-366.86 884.71,-347.99 925.5,-322 958.85,-300.75 991.09,-268.09 1010.73,-246.39"/>
<polygon fill="#63b8ff" stroke="#63b8ff" points="792.41,-375.67 783.82,-381.87 794.4,-382.38 792.41,-375.67"/>
</a>
</g>
</g>
<!-- Node3 -->
<g id="Node000003" class="node">
<title>Node3</title>
<g id="a_Node000003"><a xlink:href="../../d6/d4e/class_deluxe_1_1_deluxe_brand_center_1_1_a_m_m_1_1_a_p_i_1_1_services_1_1_d_b_service.html" target="_top" xlink:title=" ">
<polygon fill="white" stroke="#666666" points="488.75,-420 338.5,-420 338.5,-376 488.75,-376 488.75,-420"/>
<text text-anchor="start" x="346.5" y="-406.5" font-family="Helvetica,sans-Serif" font-size="10.00">Deluxe.DeluxeBrandCenter.</text>
<text text-anchor="start" x="346.5" y="-394.5" font-family="Helvetica,sans-Serif" font-size="10.00">AMM.API.Services.DBService</text>
<text text-anchor="middle" x="413.62" y="-382.5" font-family="Helvetica,sans-Serif" font-size="10.00">&lt; TModel, TModelVM &gt;</text>
</a>
</g>
</g>
<!-- Node3&#45;&gt;Node2 -->
<g id="edge2_Node000002_Node000003" class="edge">
<title>Node3&#45;&gt;Node2</title>
<g id="a_edge2_Node000002_Node000003"><a xlink:title=" ">
<path fill="none" stroke="orange" stroke-dasharray="5,2" d="M500.67,-397.45C555.5,-397.1 624.83,-396.65 672.01,-396.35"/>
<polygon fill="orange" stroke="orange" points="500.7,-393.95 490.72,-397.51 500.74,-400.95 500.7,-393.95"/>
</a>
</g>
<text text-anchor="middle" x="562.25" y="-399.85" font-family="Helvetica,sans-Serif" font-size="10.00" fill="grey"> &lt; Contact, ContactVM &gt;</text>
</g>
<!-- Node4 -->
<g id="Node000004" class="node">
<title>Node4</title>
<g id="a_Node000004"><a xlink:href="../../d3/ddb/interface_deluxe_1_1_deluxe_brand_center_1_1_a_m_m_1_1_a_p_i_1_1_services_1_1_i_d_b_service.html" target="_top" xlink:title=" ">
<polygon fill="white" stroke="#666666" points="150.62,-498 40.88,-498 40.88,-466 150.62,-466 150.62,-498"/>
<text text-anchor="start" x="48.88" y="-484.5" font-family="Helvetica,sans-Serif" font-size="10.00">IDBService&lt; TModel,</text>
<text text-anchor="middle" x="95.75" y="-472.5" font-family="Helvetica,sans-Serif" font-size="10.00"> TModelVM &gt;</text>
</a>
</g>
</g>
<!-- Node4&#45;&gt;Node3 -->
<g id="edge3_Node000003_Node000004" class="edge">
<title>Node4&#45;&gt;Node3</title>
<g id="a_edge3_Node000003_Node000004"><a xlink:title=" ">
<path fill="none" stroke="#63b8ff" d="M162.08,-469.27C206.98,-459.99 267.79,-446.39 320.5,-431 331.26,-427.86 342.6,-424.14 353.5,-420.36"/>
<polygon fill="#63b8ff" stroke="#63b8ff" points="161.59,-465.79 152.5,-471.23 163,-472.65 161.59,-465.79"/>
</a>
</g>
</g>
<!-- Node5 -->
<g id="Node000005" class="node">
<title>Node5</title>
<g id="a_Node000005"><a xlink:href="../../da/d0c/interface_deluxe_1_1_deluxe_brand_center_1_1_a_m_m_1_1_infrastructure_1_1_social_1_1_i_social_network_service.html" target="_top" xlink:title=" ">
<polygon fill="white" stroke="#666666" points="177.25,-448 14.25,-448 14.25,-404 177.25,-404 177.25,-448"/>
<text text-anchor="start" x="22.25" y="-434.5" font-family="Helvetica,sans-Serif" font-size="10.00">Deluxe.DeluxeBrandCenter.</text>
<text text-anchor="start" x="22.25" y="-422.5" font-family="Helvetica,sans-Serif" font-size="10.00">AMM.Infrastructure.Social.ISocial</text>
<text text-anchor="middle" x="95.75" y="-410.5" font-family="Helvetica,sans-Serif" font-size="10.00">NetworkService</text>
</a>
</g>
</g>
<!-- Node5&#45;&gt;Node3 -->
<g id="edge4_Node000003_Node000005" class="edge">
<title>Node5&#45;&gt;Node3</title>
<g id="a_edge4_Node000003_Node000005"><a xlink:title=" ">
<path fill="none" stroke="#9a32cd" stroke-dasharray="5,2" d="M188.9,-417.83C236.37,-413.62 293.49,-408.56 338.13,-404.6"/>
<polygon fill="#9a32cd" stroke="#9a32cd" points="188.84,-414.32 179.19,-418.69 189.46,-421.3 188.84,-414.32"/>
</a>
</g>
<text text-anchor="middle" x="265" y="-417.83" font-family="Helvetica,sans-Serif" font-size="10.00" fill="grey"> _socialNetworkService</text>
</g>
<!-- Node6 -->
<g id="Node000006" class="node">
<title>Node6</title>
<g id="a_Node000006"><a xlink:href="../../dd/d7d/interface_deluxe_1_1_deluxe_brand_center_1_1_a_m_m_1_1_domain_1_1_services_1_1_i_session_service.html" target="_top" xlink:title=" ">
<polygon fill="white" stroke="#666666" points="191.5,-386 0,-386 0,-354 191.5,-354 191.5,-386"/>
<text text-anchor="start" x="8" y="-372.5" font-family="Helvetica,sans-Serif" font-size="10.00">Deluxe.DeluxeBrandCenter.</text>
<text text-anchor="middle" x="95.75" y="-360.5" font-family="Helvetica,sans-Serif" font-size="10.00">AMM.Domain.Services.ISessionService</text>
</a>
</g>
</g>
<!-- Node6&#45;&gt;Node3 -->
<g id="edge5_Node000003_Node000006" class="edge">
<title>Node6&#45;&gt;Node3</title>
<g id="a_edge5_Node000003_Node000006"><a xlink:title=" ">
<path fill="none" stroke="#9a32cd" stroke-dasharray="5,2" d="M203.37,-379.45C247.66,-383.38 297.99,-387.84 338.18,-391.4"/>
<polygon fill="#9a32cd" stroke="#9a32cd" points="203.73,-375.97 193.46,-378.57 203.11,-382.94 203.73,-375.97"/>
</a>
</g>
<text text-anchor="middle" x="265" y="-392.23" font-family="Helvetica,sans-Serif" font-size="10.00" fill="grey"> _sessionService</text>
</g>
<!-- Node7 -->
<g id="Node000007" class="node">
<title>Node7</title>
<g id="a_Node000007"><a xlink:href="../../d8/d4e/interface_deluxe_1_1_deluxe_brand_center_1_1_a_m_m_1_1_a_p_i_1_1_services_1_1_i_contact_manager_service.html" target="_top" xlink:title=" ">
<polygon fill="white" stroke="#666666" points="789,-356 665,-356 665,-336 789,-336 789,-356"/>
<text text-anchor="middle" x="727" y="-342.5" font-family="Helvetica,sans-Serif" font-size="10.00">IContactManagerService</text>
</a>
</g>
</g>
<!-- Node7&#45;&gt;Node1 -->
<g id="edge6_Node000001_Node000007" class="edge">
<title>Node7&#45;&gt;Node1</title>
<g id="a_edge6_Node000001_Node000007"><a xlink:title=" ">
<path fill="none" stroke="#63b8ff" d="M792.82,-333.1C801.4,-331.17 810.06,-329.12 818.25,-327 866.53,-314.52 880.47,-315.44 925.5,-294 952.91,-280.95 981.36,-261.44 1001.64,-246.32"/>
<polygon fill="#63b8ff" stroke="#63b8ff" points="792.13,-329.66 783.11,-335.22 793.63,-336.5 792.13,-329.66"/>
</a>
</g>
</g>
<!-- Node8 -->
<g id="Node000008" class="node">
<title>Node8</title>
<g id="a_Node000008"><a xlink:href="../../d3/ddb/interface_deluxe_1_1_deluxe_brand_center_1_1_a_m_m_1_1_a_p_i_1_1_services_1_1_i_d_b_service.html" target="_top" xlink:title=" ">
<polygon fill="white" stroke="#666666" points="470,-358 357.25,-358 357.25,-326 470,-326 470,-358"/>
<text text-anchor="start" x="365.25" y="-344.5" font-family="Helvetica,sans-Serif" font-size="10.00">IDBService&lt; Contact,</text>
<text text-anchor="middle" x="413.62" y="-332.5" font-family="Helvetica,sans-Serif" font-size="10.00"> ContactVM &gt;</text>
</a>
</g>
</g>
<!-- Node8&#45;&gt;Node7 -->
<g id="edge7_Node000007_Node000008" class="edge">
<title>Node8&#45;&gt;Node7</title>
<g id="a_edge7_Node000007_Node000008"><a xlink:title=" ">
<path fill="none" stroke="#63b8ff" d="M481.54,-342.86C535.89,-343.56 611.91,-344.53 664.68,-345.21"/>
<polygon fill="#63b8ff" stroke="#63b8ff" points="481.85,-339.36 471.81,-342.73 481.76,-346.36 481.85,-339.36"/>
</a>
</g>
</g>
<!-- Node9 -->
<g id="Node000009" class="node">
<title>Node9</title>
<g id="a_Node000009"><a xlink:href="../../d3/ddb/interface_deluxe_1_1_deluxe_brand_center_1_1_a_m_m_1_1_a_p_i_1_1_services_1_1_i_d_b_service.html" target="_top" xlink:title=" ">
<polygon fill="white" stroke="#666666" points="172.38,-336 19.12,-336 19.12,-292 172.38,-292 172.38,-336"/>
<text text-anchor="start" x="27.12" y="-322.5" font-family="Helvetica,sans-Serif" font-size="10.00">Deluxe.DeluxeBrandCenter.</text>
<text text-anchor="start" x="27.12" y="-310.5" font-family="Helvetica,sans-Serif" font-size="10.00">AMM.API.Services.IDBService</text>
<text text-anchor="middle" x="95.75" y="-298.5" font-family="Helvetica,sans-Serif" font-size="10.00">&lt; TModel, TModelVM &gt;</text>
</a>
</g>
</g>
<!-- Node9&#45;&gt;Node8 -->
<g id="edge8_Node000008_Node000009" class="edge">
<title>Node9&#45;&gt;Node8</title>
<g id="a_edge8_Node000008_Node000009"><a xlink:title=" ">
<path fill="none" stroke="orange" stroke-dasharray="5,2" d="M184.02,-321.74C239.31,-326.64 309.17,-332.83 357.02,-337.07"/>
<polygon fill="orange" stroke="orange" points="184.59,-318.27 174.32,-320.88 183.97,-325.25 184.59,-318.27"/>
</a>
</g>
<text text-anchor="middle" x="265" y="-336.23" font-family="Helvetica,sans-Serif" font-size="10.00" fill="grey"> &lt; Contact, ContactVM &gt;</text>
</g>
<!-- Node10 -->
<g id="Node000010" class="node">
<title>Node10</title>
<g id="a_Node000010"><a xlink:href="../../d2/dd7/interface_deluxe_1_1_deluxe_brand_center_1_1_a_m_m_1_1_a_p_i_1_1_services_1_1_i_mindfire_service.html" target="_top" xlink:title=" ">
<polygon fill="white" stroke="#666666" points="813.75,-318 640.25,-318 640.25,-286 813.75,-286 813.75,-318"/>
<text text-anchor="start" x="648.25" y="-304.5" font-family="Helvetica,sans-Serif" font-size="10.00">Deluxe.DeluxeBrandCenter.</text>
<text text-anchor="middle" x="727" y="-292.5" font-family="Helvetica,sans-Serif" font-size="10.00">AMM.API.Services.IMindfireService</text>
</a>
</g>
</g>
<!-- Node10&#45;&gt;Node1 -->
<g id="edge9_Node000001_Node000010" class="edge">
<title>Node10&#45;&gt;Node1</title>
<g id="a_edge9_Node000001_Node000010"><a xlink:title=" ">
<path fill="none" stroke="#9a32cd" stroke-dasharray="5,2" d="M817.98,-283.13C851.84,-275.6 890.59,-266.47 925.5,-257 937.25,-253.81 949.66,-250.15 961.66,-246.46"/>
<polygon fill="#9a32cd" stroke="#9a32cd" points="817.66,-279.61 808.65,-285.19 819.17,-286.45 817.66,-279.61"/>
</a>
</g>
<text text-anchor="middle" x="880.88" y="-280.84" font-family="Helvetica,sans-Serif" font-size="10.00" fill="grey"> _mindfireService</text>
</g>
<!-- Node11 -->
<g id="Node000011" class="node">
<title>Node11</title>
<g id="a_Node000011"><a xlink:href="../../d8/de3/interface_deluxe_1_1_deluxe_brand_center_1_1_a_m_m_1_1_a_p_i_1_1_services_1_1_i_state_service.html" target="_top" xlink:title=" ">
<polygon fill="white" stroke="#666666" points="808.12,-268 645.88,-268 645.88,-236 808.12,-236 808.12,-268"/>
<text text-anchor="start" x="653.88" y="-254.5" font-family="Helvetica,sans-Serif" font-size="10.00">Deluxe.DeluxeBrandCenter.</text>
<text text-anchor="middle" x="727" y="-242.5" font-family="Helvetica,sans-Serif" font-size="10.00">AMM.API.Services.IStateService</text>
</a>
</g>
</g>
<!-- Node11&#45;&gt;Node1 -->
<g id="edge10_Node000001_Node000011" class="edge">
<title>Node11&#45;&gt;Node1</title>
<g id="a_edge10_Node000001_Node000011"><a xlink:title=" ">
<path fill="none" stroke="#9a32cd" stroke-dasharray="5,2" d="M819.93,-243.48C859.07,-239.85 904.49,-235.64 943.07,-232.06"/>
<polygon fill="#9a32cd" stroke="#9a32cd" points="819.67,-239.99 810.04,-244.39 820.32,-246.96 819.67,-239.99"/>
</a>
</g>
<text text-anchor="middle" x="880.88" y="-243.83" font-family="Helvetica,sans-Serif" font-size="10.00" fill="grey"> _stateService</text>
</g>
<!-- Node12 -->
<g id="Node000012" class="node">
<title>Node12</title>
<g id="a_Node000012"><a xlink:href="../../df/db6/interface_deluxe_1_1_deluxe_brand_center_1_1_a_m_m_1_1_infrastructure_1_1_a_w_s_1_1_s3_1_1_i_amazon_s3_service.html" target="_top" xlink:title=" ">
<polygon fill="white" stroke="#666666" points="818.25,-218 635.75,-218 635.75,-174 818.25,-174 818.25,-218"/>
<text text-anchor="start" x="643.75" y="-204.5" font-family="Helvetica,sans-Serif" font-size="10.00">Deluxe.DeluxeBrandCenter.</text>
<text text-anchor="start" x="643.75" y="-192.5" font-family="Helvetica,sans-Serif" font-size="10.00">AMM.Infrastructure.AWS.S3.IAmazon</text>
<text text-anchor="middle" x="727" y="-180.5" font-family="Helvetica,sans-Serif" font-size="10.00">S3Service</text>
</a>
</g>
</g>
<!-- Node12&#45;&gt;Node1 -->
<g id="edge11_Node000001_Node000012" class="edge">
<title>Node12&#45;&gt;Node1</title>
<g id="a_edge11_Node000001_Node000012"><a xlink:title=" ">
<path fill="none" stroke="#9a32cd" stroke-dasharray="5,2" d="M829.86,-205.44C866.62,-208.85 907.73,-212.66 943.08,-215.94"/>
<polygon fill="#9a32cd" stroke="#9a32cd" points="830.4,-201.98 820.12,-204.54 829.75,-208.95 830.4,-201.98"/>
</a>
</g>
<text text-anchor="middle" x="880.88" y="-216.64" font-family="Helvetica,sans-Serif" font-size="10.00" fill="grey"> _amazonS3Service</text>
</g>
<!-- Node13 -->
<g id="Node000013" class="node">
<title>Node13</title>
<g id="a_Node000013"><a xlink:href="../../d9/dc4/interface_deluxe_1_1_deluxe_brand_center_1_1_a_m_m_1_1_infrastructure_1_1_red_tail_1_1_i_red_tail_service.html" target="_top" xlink:title=" ">
<polygon fill="white" stroke="#666666" points="807,-156 647,-156 647,-112 807,-112 807,-156"/>
<text text-anchor="start" x="655" y="-142.5" font-family="Helvetica,sans-Serif" font-size="10.00">Deluxe.DeluxeBrandCenter.</text>
<text text-anchor="start" x="655" y="-130.5" font-family="Helvetica,sans-Serif" font-size="10.00">AMM.Infrastructure.RedTail.IRed</text>
<text text-anchor="middle" x="727" y="-118.5" font-family="Helvetica,sans-Serif" font-size="10.00">TailService</text>
</a>
</g>
</g>
<!-- Node13&#45;&gt;Node1 -->
<g id="edge12_Node000001_Node000013" class="edge">
<title>Node13&#45;&gt;Node1</title>
<g id="a_edge12_Node000001_Node000013"><a xlink:title=" ">
<path fill="none" stroke="#9a32cd" stroke-dasharray="5,2" d="M818.18,-159.52C851.91,-169.19 890.51,-180.43 925.5,-191 936.61,-194.36 948.36,-197.99 959.81,-201.57"/>
<polygon fill="#9a32cd" stroke="#9a32cd" points="819.45,-156.24 808.87,-156.85 817.52,-162.97 819.45,-156.24"/>
</a>
</g>
<text text-anchor="middle" x="880.88" y="-193.5" font-family="Helvetica,sans-Serif" font-size="10.00" fill="grey"> _redTailService</text>
</g>
<!-- Node14 -->
<g id="Node000014" class="node">
<title>Node14</title>
<g id="a_Node000014"><a xlink:href="../../db/d9f/interface_deluxe_1_1_deluxe_brand_center_1_1_a_m_m_1_1_infrastructure_1_1_salesforce_1_1_i_salesforce_service.html" target="_top" xlink:title=" ">
<polygon fill="white" stroke="#666666" points="803.25,-94 650.75,-94 650.75,-50 803.25,-50 803.25,-94"/>
<text text-anchor="start" x="658.75" y="-80.5" font-family="Helvetica,sans-Serif" font-size="10.00">Deluxe.DeluxeBrandCenter.</text>
<text text-anchor="start" x="658.75" y="-68.5" font-family="Helvetica,sans-Serif" font-size="10.00">AMM.Infrastructure.Salesforce.</text>
<text text-anchor="middle" x="727" y="-56.5" font-family="Helvetica,sans-Serif" font-size="10.00">ISalesforceService</text>
</a>
</g>
</g>
<!-- Node14&#45;&gt;Node1 -->
<g id="edge13_Node000001_Node000014" class="edge">
<title>Node14&#45;&gt;Node1</title>
<g id="a_edge13_Node000001_Node000014"><a xlink:title=" ">
<path fill="none" stroke="#9a32cd" stroke-dasharray="5,2" d="M805.79,-98.31C810.02,-99.87 814.19,-101.44 818.25,-103 866.64,-121.66 880.33,-123.51 925.5,-149 952.92,-164.48 981.84,-185.66 1002.28,-201.56"/>
<polygon fill="#9a32cd" stroke="#9a32cd" points="807.24,-95.11 796.65,-94.99 804.86,-101.69 807.24,-95.11"/>
</a>
</g>
<text text-anchor="middle" x="880.88" y="-151.5" font-family="Helvetica,sans-Serif" font-size="10.00" fill="grey"> _salesForceService</text>
</g>
<!-- Node15 -->
<g id="Node000015" class="node">
<title>Node15</title>
<g id="a_Node000015"><a xlink:href="../../d0/d18/interface_deluxe_1_1_deluxe_brand_center_1_1_a_m_m_1_1_a_p_i_1_1_services_1_1_i_d_b_c_service.html" target="_top" xlink:title=" ">
<polygon fill="white" stroke="#666666" points="807.38,-32 646.62,-32 646.62,0 807.38,0 807.38,-32"/>
<text text-anchor="start" x="654.62" y="-18.5" font-family="Helvetica,sans-Serif" font-size="10.00">Deluxe.DeluxeBrandCenter.</text>
<text text-anchor="middle" x="727" y="-6.5" font-family="Helvetica,sans-Serif" font-size="10.00">AMM.API.Services.IDBCService</text>
</a>
</g>
</g>
<!-- Node15&#45;&gt;Node1 -->
<g id="edge14_Node000001_Node000015" class="edge">
<title>Node15&#45;&gt;Node1</title>
<g id="a_edge14_Node000001_Node000015"><a xlink:title=" ">
<path fill="none" stroke="#9a32cd" stroke-dasharray="5,2" d="M808.36,-35.71C846.68,-47.95 891.47,-66.68 925.5,-94 964.57,-125.36 998.56,-173.7 1016.49,-201.75"/>
<polygon fill="#9a32cd" stroke="#9a32cd" points="809.78,-32.48 799.19,-32.87 807.71,-39.17 809.78,-32.48"/>
</a>
</g>
<text text-anchor="middle" x="880.88" y="-96.5" font-family="Helvetica,sans-Serif" font-size="10.00" fill="grey"> _dbcService</text>
</g>
</g>
</svg>
