<?xml version="1.0" encoding="UTF-8" standalone="no"?>
<!DOCTYPE svg PUBLIC "-//W3C//DTD SVG 1.1//EN"
 "http://www.w3.org/Graphics/SVG/1.1/DTD/svg11.dtd">
<!-- Generated by graphviz version 12.1.1 (20240910.0053)
 -->
<!-- Title: Deluxe.DeluxeBrandCenter.AMM.Domain.DataModel.BaseEntity Pages: 1 -->
<svg width="910pt" height="1116pt"
 viewBox="0.00 0.00 910.00 1116.00" xmlns="http://www.w3.org/2000/svg" xmlns:xlink="http://www.w3.org/1999/xlink">
<g id="graph0" class="graph" transform="scale(1 1) rotate(0) translate(4 1112)">
<title>Deluxe.DeluxeBrandCenter.AMM.Domain.DataModel.BaseEntity</title>
<!-- Node1 -->
<g id="Node000001" class="node">
<title>Node1</title>
<g id="a_Node000001"><a xlink:title=" ">
<polygon fill="#999999" stroke="#666666" points="383.25,-446 206,-446 206,-414 383.25,-414 383.25,-446"/>
<text text-anchor="start" x="214" y="-432.5" font-family="Helvetica,sans-Serif" font-size="10.00">Deluxe.DeluxeBrandCenter.</text>
<text text-anchor="middle" x="294.62" y="-420.5" font-family="Helvetica,sans-Serif" font-size="10.00">AMM.Domain.DataModel.BaseEntity</text>
</a>
</g>
</g>
<!-- Node5 -->
<g id="Node000005" class="node">
<title>Node5</title>
<g id="a_Node000005"><a xlink:href="../../d5/d4f/class_deluxe_1_1_deluxe_brand_center_1_1_a_m_m_1_1_domain_1_1_content_url.html" target="_top" xlink:title=" ">
<polygon fill="white" stroke="#666666" points="608.5,-969 470.25,-969 470.25,-937 608.5,-937 608.5,-969"/>
<text text-anchor="start" x="478.25" y="-955.5" font-family="Helvetica,sans-Serif" font-size="10.00">Deluxe.DeluxeBrandCenter.</text>
<text text-anchor="middle" x="539.38" y="-943.5" font-family="Helvetica,sans-Serif" font-size="10.00">AMM.Domain.ContentUrl</text>
</a>
</g>
</g>
<!-- Node1&#45;&gt;Node5 -->
<g id="edge5_Node000001_Node000005" class="edge">
<title>Node1&#45;&gt;Node5</title>
<g id="a_edge5_Node000001_Node000005"><a xlink:title=" ">
<path fill="none" stroke="#63b8ff" d="M298.66,-457.72C309.58,-552.46 349.98,-861.21 419.25,-928 432.87,-941.13 451.52,-948.13 470.03,-951.69"/>
<polygon fill="#63b8ff" stroke="#63b8ff" points="302.14,-457.34 297.53,-447.8 295.18,-458.13 302.14,-457.34"/>
</a>
</g>
</g>
<!-- Node6 -->
<g id="Node000006" class="node">
<title>Node6</title>
<g id="a_Node000006"><a xlink:href="../../db/d37/class_deluxe_1_1_deluxe_brand_center_1_1_a_m_m_1_1_domain_1_1_data_model_1_1_address_info.html" target="_top" xlink:title=" ">
<polygon fill="white" stroke="#666666" points="630.25,-919 448.5,-919 448.5,-887 630.25,-887 630.25,-919"/>
<text text-anchor="start" x="456.5" y="-905.5" font-family="Helvetica,sans-Serif" font-size="10.00">Deluxe.DeluxeBrandCenter.</text>
<text text-anchor="middle" x="539.38" y="-893.5" font-family="Helvetica,sans-Serif" font-size="10.00">AMM.Domain.DataModel.AddressInfo</text>
</a>
</g>
</g>
<!-- Node1&#45;&gt;Node6 -->
<g id="edge6_Node000001_Node000006" class="edge">
<title>Node1&#45;&gt;Node6</title>
<g id="a_edge6_Node000001_Node000006"><a xlink:title=" ">
<path fill="none" stroke="#63b8ff" d="M304.01,-457.32C321.49,-512.47 364.75,-640.27 419.25,-739 451.22,-796.92 500.48,-858.22 524.39,-886.69"/>
<polygon fill="#63b8ff" stroke="#63b8ff" points="307.37,-456.33 301.04,-447.84 300.69,-458.43 307.37,-456.33"/>
</a>
</g>
</g>
<!-- Node9 -->
<g id="Node000009" class="node">
<title>Node9</title>
<g id="a_Node000009"><a xlink:href="../../d4/d1a/class_deluxe_1_1_deluxe_brand_center_1_1_a_m_m_1_1_domain_1_1_data_model_1_1_base_entity_named.html" target="_top" xlink:title=" ">
<polygon fill="white" stroke="#666666" points="643.75,-730 435,-730 435,-698 643.75,-698 643.75,-730"/>
<text text-anchor="start" x="443" y="-716.5" font-family="Helvetica,sans-Serif" font-size="10.00">Deluxe.DeluxeBrandCenter.</text>
<text text-anchor="middle" x="539.38" y="-704.5" font-family="Helvetica,sans-Serif" font-size="10.00">AMM.Domain.DataModel.BaseEntityNamed</text>
</a>
</g>
</g>
<!-- Node1&#45;&gt;Node9 -->
<g id="edge9_Node000001_Node000009" class="edge">
<title>Node1&#45;&gt;Node9</title>
<g id="a_edge9_Node000001_Node000009"><a xlink:title=" ">
<path fill="none" stroke="#63b8ff" d="M300.44,-457.45C311.35,-510.96 343.14,-629.17 419.25,-689 423.98,-692.72 429.14,-695.92 434.57,-698.68"/>
<polygon fill="#63b8ff" stroke="#63b8ff" points="303.94,-457.12 298.6,-447.96 297.07,-458.45 303.94,-457.12"/>
</a>
</g>
</g>
<!-- Node24 -->
<g id="Node000024" class="node">
<title>Node24</title>
<g id="a_Node000024"><a xlink:href="../../d5/d2b/class_deluxe_1_1_deluxe_brand_center_1_1_a_m_m_1_1_domain_1_1_data_model_1_1_client_1_1_user.html" target="_top" xlink:title=" ">
<polygon fill="white" stroke="#666666" points="628.75,-680 450,-680 450,-648 628.75,-648 628.75,-680"/>
<text text-anchor="start" x="458" y="-666.5" font-family="Helvetica,sans-Serif" font-size="10.00">Deluxe.DeluxeBrandCenter.</text>
<text text-anchor="middle" x="539.38" y="-654.5" font-family="Helvetica,sans-Serif" font-size="10.00">AMM.Domain.DataModel.Client.User</text>
</a>
</g>
</g>
<!-- Node1&#45;&gt;Node24 -->
<g id="edge24_Node000001_Node000024" class="edge">
<title>Node1&#45;&gt;Node24</title>
<g id="a_edge24_Node000001_Node000024"><a xlink:title=" ">
<path fill="none" stroke="#63b8ff" d="M303.71,-457.21C318.66,-502.53 355.1,-593.03 419.25,-639 428.35,-645.52 438.79,-650.42 449.63,-654.08"/>
<polygon fill="#63b8ff" stroke="#63b8ff" points="307.12,-456.37 300.75,-447.9 300.45,-458.49 307.12,-456.37"/>
</a>
</g>
</g>
<!-- Node25 -->
<g id="Node000025" class="node">
<title>Node25</title>
<g id="a_Node000025"><a xlink:href="../../d4/d45/class_deluxe_1_1_deluxe_brand_center_1_1_a_m_m_1_1_domain_1_1_data_model_1_1_contact.html" target="_top" xlink:title=" ">
<polygon fill="white" stroke="#666666" points="621.25,-630 457.5,-630 457.5,-598 621.25,-598 621.25,-630"/>
<text text-anchor="start" x="465.5" y="-616.5" font-family="Helvetica,sans-Serif" font-size="10.00">Deluxe.DeluxeBrandCenter.</text>
<text text-anchor="middle" x="539.38" y="-604.5" font-family="Helvetica,sans-Serif" font-size="10.00">AMM.Domain.DataModel.Contact</text>
</a>
</g>
</g>
<!-- Node1&#45;&gt;Node25 -->
<g id="edge25_Node000001_Node000025" class="edge">
<title>Node1&#45;&gt;Node25</title>
<g id="a_edge25_Node000001_Node000025"><a xlink:title=" ">
<path fill="none" stroke="#63b8ff" d="M308.63,-456.61C327.68,-492.63 366.71,-556.18 419.25,-589 430.72,-596.17 443.9,-601.31 457.22,-605"/>
<polygon fill="#63b8ff" stroke="#63b8ff" points="311.74,-455.01 304.05,-447.72 305.52,-458.21 311.74,-455.01"/>
</a>
</g>
</g>
<!-- Node26 -->
<g id="Node000026" class="node">
<title>Node26</title>
<g id="a_Node000026"><a xlink:href="../../d2/d8e/class_deluxe_1_1_deluxe_brand_center_1_1_a_m_m_1_1_domain_1_1_data_model_1_1_email_domain.html" target="_top" xlink:title=" ">
<polygon fill="white" stroke="#666666" points="633.25,-580 445.5,-580 445.5,-548 633.25,-548 633.25,-580"/>
<text text-anchor="start" x="453.5" y="-566.5" font-family="Helvetica,sans-Serif" font-size="10.00">Deluxe.DeluxeBrandCenter.</text>
<text text-anchor="middle" x="539.38" y="-554.5" font-family="Helvetica,sans-Serif" font-size="10.00">AMM.Domain.DataModel.EmailDomain</text>
</a>
</g>
</g>
<!-- Node1&#45;&gt;Node26 -->
<g id="edge26_Node000001_Node000026" class="edge">
<title>Node1&#45;&gt;Node26</title>
<g id="a_edge26_Node000001_Node000026"><a xlink:title=" ">
<path fill="none" stroke="#63b8ff" d="M316.29,-454.52C338.93,-479.71 377.61,-518.12 419.25,-539 427.37,-543.07 436.13,-546.48 445.07,-549.34"/>
<polygon fill="#63b8ff" stroke="#63b8ff" points="319.21,-452.54 309.97,-447.34 313.95,-457.16 319.21,-452.54"/>
</a>
</g>
</g>
<!-- Node27 -->
<g id="Node000027" class="node">
<title>Node27</title>
<g id="a_Node000027"><a xlink:href="../../d1/d8d/class_deluxe_1_1_deluxe_brand_center_1_1_a_m_m_1_1_domain_1_1_data_model_1_1_event_detail.html" target="_top" xlink:title=" ">
<polygon fill="white" stroke="#666666" points="629.5,-530 449.25,-530 449.25,-498 629.5,-498 629.5,-530"/>
<text text-anchor="start" x="457.25" y="-516.5" font-family="Helvetica,sans-Serif" font-size="10.00">Deluxe.DeluxeBrandCenter.</text>
<text text-anchor="middle" x="539.38" y="-504.5" font-family="Helvetica,sans-Serif" font-size="10.00">AMM.Domain.DataModel.EventDetail</text>
</a>
</g>
</g>
<!-- Node1&#45;&gt;Node27 -->
<g id="edge27_Node000001_Node000027" class="edge">
<title>Node1&#45;&gt;Node27</title>
<g id="a_edge27_Node000001_Node000027"><a xlink:title=" ">
<path fill="none" stroke="#63b8ff" d="M334.82,-451.67C358.64,-464.08 390.01,-479.11 419.25,-489 428.76,-492.22 438.84,-495.1 448.95,-497.66"/>
<polygon fill="#63b8ff" stroke="#63b8ff" points="336.58,-448.65 326.11,-447.06 333.31,-454.83 336.58,-448.65"/>
</a>
</g>
</g>
<!-- Node28 -->
<g id="Node000028" class="node">
<title>Node28</title>
<g id="a_Node000028"><a xlink:href="../../d2/dd1/class_deluxe_1_1_deluxe_brand_center_1_1_a_m_m_1_1_domain_1_1_data_model_1_1_social_1_1_linkedin_account.html" target="_top" xlink:title=" ">
<polygon fill="white" stroke="#666666" points="637,-480 441.75,-480 441.75,-436 637,-436 637,-480"/>
<text text-anchor="start" x="449.75" y="-466.5" font-family="Helvetica,sans-Serif" font-size="10.00">Deluxe.DeluxeBrandCenter.</text>
<text text-anchor="start" x="449.75" y="-454.5" font-family="Helvetica,sans-Serif" font-size="10.00">AMM.Domain.DataModel.Social.Linkedin</text>
<text text-anchor="middle" x="539.38" y="-442.5" font-family="Helvetica,sans-Serif" font-size="10.00">Account</text>
</a>
</g>
</g>
<!-- Node1&#45;&gt;Node28 -->
<g id="edge28_Node000001_Node000028" class="edge">
<title>Node1&#45;&gt;Node28</title>
<g id="a_edge28_Node000001_Node000028"><a xlink:title=" ">
<path fill="none" stroke="#63b8ff" d="M394.78,-441.44C410.26,-443.22 426.24,-445.07 441.66,-446.84"/>
<polygon fill="#63b8ff" stroke="#63b8ff" points="395.45,-437.99 385.11,-440.32 394.64,-444.94 395.45,-437.99"/>
</a>
</g>
</g>
<!-- Node29 -->
<g id="Node000029" class="node">
<title>Node29</title>
<g id="a_Node000029"><a xlink:href="../../d8/dde/class_deluxe_1_1_deluxe_brand_center_1_1_a_m_m_1_1_domain_1_1_data_model_1_1_template.html" target="_top" xlink:title=" ">
<polygon fill="white" stroke="#666666" points="623.88,-418 454.88,-418 454.88,-386 623.88,-386 623.88,-418"/>
<text text-anchor="start" x="462.88" y="-404.5" font-family="Helvetica,sans-Serif" font-size="10.00">Deluxe.DeluxeBrandCenter.</text>
<text text-anchor="middle" x="539.38" y="-392.5" font-family="Helvetica,sans-Serif" font-size="10.00">AMM.Domain.DataModel.Template</text>
</a>
</g>
</g>
<!-- Node1&#45;&gt;Node29 -->
<g id="edge29_Node000001_Node000029" class="edge">
<title>Node1&#45;&gt;Node29</title>
<g id="a_edge29_Node000001_Node000029"><a xlink:title=" ">
<path fill="none" stroke="#63b8ff" d="M394.87,-418.55C414.75,-416.26 435.45,-413.87 454.74,-411.65"/>
<polygon fill="#63b8ff" stroke="#63b8ff" points="394.64,-415.06 385.11,-419.68 395.45,-422.01 394.64,-415.06"/>
</a>
</g>
</g>
<!-- Node30 -->
<g id="Node000030" class="node">
<title>Node30</title>
<g id="a_Node000030"><a xlink:href="../../de/de4/class_deluxe_1_1_deluxe_brand_center_1_1_a_m_m_1_1_domain_1_1_data_model_1_1_template_field.html" target="_top" xlink:title=" ">
<polygon fill="white" stroke="#666666" points="634.38,-368 444.38,-368 444.38,-336 634.38,-336 634.38,-368"/>
<text text-anchor="start" x="452.38" y="-354.5" font-family="Helvetica,sans-Serif" font-size="10.00">Deluxe.DeluxeBrandCenter.</text>
<text text-anchor="middle" x="539.38" y="-342.5" font-family="Helvetica,sans-Serif" font-size="10.00">AMM.Domain.DataModel.TemplateField</text>
</a>
</g>
</g>
<!-- Node1&#45;&gt;Node30 -->
<g id="edge30_Node000001_Node000030" class="edge">
<title>Node1&#45;&gt;Node30</title>
<g id="a_edge30_Node000001_Node000030"><a xlink:title=" ">
<path fill="none" stroke="#63b8ff" d="M339.29,-408.76C362.6,-398.08 392.02,-385.6 419.25,-377 429.12,-373.88 439.58,-371.04 450.04,-368.49"/>
<polygon fill="#63b8ff" stroke="#63b8ff" points="338.01,-405.5 330.42,-412.89 340.96,-411.85 338.01,-405.5"/>
</a>
</g>
</g>
<!-- Node31 -->
<g id="Node000031" class="node">
<title>Node31</title>
<g id="a_Node000031"><a xlink:href="../../df/d65/class_deluxe_1_1_deluxe_brand_center_1_1_a_m_m_1_1_domain_1_1_data_model_1_1_template_field_option.html" target="_top" xlink:title=" ">
<polygon fill="white" stroke="#666666" points="634.38,-318 444.38,-318 444.38,-274 634.38,-274 634.38,-318"/>
<text text-anchor="start" x="452.38" y="-304.5" font-family="Helvetica,sans-Serif" font-size="10.00">Deluxe.DeluxeBrandCenter.</text>
<text text-anchor="start" x="452.38" y="-292.5" font-family="Helvetica,sans-Serif" font-size="10.00">AMM.Domain.DataModel.TemplateField</text>
<text text-anchor="middle" x="539.38" y="-280.5" font-family="Helvetica,sans-Serif" font-size="10.00">Option</text>
</a>
</g>
</g>
<!-- Node1&#45;&gt;Node31 -->
<g id="edge31_Node000001_Node000031" class="edge">
<title>Node1&#45;&gt;Node31</title>
<g id="a_edge31_Node000001_Node000031"><a xlink:title=" ">
<path fill="none" stroke="#63b8ff" d="M318.22,-405.77C341.42,-382.3 379.64,-347.35 419.25,-327 427.04,-323 435.4,-319.48 443.93,-316.4"/>
<polygon fill="#63b8ff" stroke="#63b8ff" points="315.89,-403.15 311.43,-412.77 320.91,-408.03 315.89,-403.15"/>
</a>
</g>
</g>
<!-- Node32 -->
<g id="Node000032" class="node">
<title>Node32</title>
<g id="a_Node000032"><a xlink:href="../../db/d7b/class_deluxe_1_1_deluxe_brand_center_1_1_a_m_m_1_1_domain_1_1_data_model_1_1_template_thumbnail_model.html" target="_top" xlink:title=" ">
<polygon fill="white" stroke="#666666" points="659.5,-256 419.25,-256 419.25,-224 659.5,-224 659.5,-256"/>
<text text-anchor="start" x="427.25" y="-242.5" font-family="Helvetica,sans-Serif" font-size="10.00">Deluxe.DeluxeBrandCenter.</text>
<text text-anchor="middle" x="539.38" y="-230.5" font-family="Helvetica,sans-Serif" font-size="10.00">AMM.Domain.DataModel.TemplateThumbnailModel</text>
</a>
</g>
</g>
<!-- Node1&#45;&gt;Node32 -->
<g id="edge32_Node000001_Node000032" class="edge">
<title>Node1&#45;&gt;Node32</title>
<g id="a_edge32_Node000001_Node000032"><a xlink:title=" ">
<path fill="none" stroke="#63b8ff" d="M307.83,-403.45C326.37,-366.27 365.26,-299.4 419.25,-265 424.33,-261.76 429.75,-258.94 435.38,-256.47"/>
<polygon fill="#63b8ff" stroke="#63b8ff" points="304.82,-401.64 303.6,-412.17 311.12,-404.7 304.82,-401.64"/>
</a>
</g>
</g>
<!-- Node33 -->
<g id="Node000033" class="node">
<title>Node33</title>
<g id="a_Node000033"><a xlink:href="../../dc/daf/class_deluxe_1_1_deluxe_brand_center_1_1_a_m_m_1_1_domain_1_1_data_model_1_1_template_thumbnail_overlay_model.html" target="_top" xlink:title=" ">
<polygon fill="white" stroke="#666666" points="646.38,-206 432.38,-206 432.38,-162 646.38,-162 646.38,-206"/>
<text text-anchor="start" x="440.38" y="-192.5" font-family="Helvetica,sans-Serif" font-size="10.00">Deluxe.DeluxeBrandCenter.</text>
<text text-anchor="start" x="440.38" y="-180.5" font-family="Helvetica,sans-Serif" font-size="10.00">AMM.Domain.DataModel.TemplateThumbnail</text>
<text text-anchor="middle" x="539.38" y="-168.5" font-family="Helvetica,sans-Serif" font-size="10.00">OverlayModel</text>
</a>
</g>
</g>
<!-- Node1&#45;&gt;Node33 -->
<g id="edge33_Node000001_Node000033" class="edge">
<title>Node1&#45;&gt;Node33</title>
<g id="a_edge33_Node000001_Node000033"><a xlink:title=" ">
<path fill="none" stroke="#63b8ff" d="M303.62,-402.7C318.52,-356.7 355.01,-264.01 419.25,-215 423.41,-211.82 427.87,-208.97 432.53,-206.41"/>
<polygon fill="#63b8ff" stroke="#63b8ff" points="300.31,-401.55 300.66,-412.14 306.99,-403.64 300.31,-401.55"/>
</a>
</g>
</g>
<!-- Node34 -->
<g id="Node000034" class="node">
<title>Node34</title>
<g id="a_Node000034"><a xlink:href="../../de/ddb/class_deluxe_1_1_deluxe_brand_center_1_1_a_m_m_1_1_domain_1_1_data_model_1_1_twitter_account.html" target="_top" xlink:title=" ">
<polygon fill="white" stroke="#666666" points="636.62,-144 442.12,-144 442.12,-112 636.62,-112 636.62,-144"/>
<text text-anchor="start" x="450.12" y="-130.5" font-family="Helvetica,sans-Serif" font-size="10.00">Deluxe.DeluxeBrandCenter.</text>
<text text-anchor="middle" x="539.38" y="-118.5" font-family="Helvetica,sans-Serif" font-size="10.00">AMM.Domain.DataModel.TwitterAccount</text>
</a>
</g>
</g>
<!-- Node1&#45;&gt;Node34 -->
<g id="edge34_Node000001_Node000034" class="edge">
<title>Node1&#45;&gt;Node34</title>
<g id="a_edge34_Node000001_Node000034"><a xlink:title=" ">
<path fill="none" stroke="#63b8ff" d="M299.49,-402.66C308.95,-346.51 338.69,-218.01 419.25,-153 425.99,-147.56 433.63,-143.22 441.71,-139.77"/>
<polygon fill="#63b8ff" stroke="#63b8ff" points="296.07,-401.88 297.96,-412.31 302.99,-402.98 296.07,-401.88"/>
</a>
</g>
</g>
<!-- Node35 -->
<g id="Node000035" class="node">
<title>Node35</title>
<g id="a_Node000035"><a xlink:href="../../de/d83/class_deluxe_1_1_deluxe_brand_center_1_1_a_m_m_1_1_domain_1_1_data_model_1_1_user_campaigns_1_1_recurrence.html" target="_top" xlink:title=" ">
<polygon fill="white" stroke="#666666" points="640.75,-94 438,-94 438,-50 640.75,-50 640.75,-94"/>
<text text-anchor="start" x="446" y="-80.5" font-family="Helvetica,sans-Serif" font-size="10.00">Deluxe.DeluxeBrandCenter.</text>
<text text-anchor="start" x="446" y="-68.5" font-family="Helvetica,sans-Serif" font-size="10.00">AMM.Domain.DataModel.UserCampaigns.</text>
<text text-anchor="middle" x="539.38" y="-56.5" font-family="Helvetica,sans-Serif" font-size="10.00">Recurrence</text>
</a>
</g>
</g>
<!-- Node1&#45;&gt;Node35 -->
<g id="edge35_Node000001_Node000035" class="edge">
<title>Node1&#45;&gt;Node35</title>
<g id="a_edge35_Node000001_Node000035"><a xlink:title=" ">
<path fill="none" stroke="#63b8ff" d="M297.72,-402.58C304.02,-339.76 328.46,-184.57 419.25,-103 424.81,-98 431.08,-93.79 437.76,-90.24"/>
<polygon fill="#63b8ff" stroke="#63b8ff" points="294.25,-402.08 296.82,-412.36 301.22,-402.72 294.25,-402.08"/>
</a>
</g>
</g>
<!-- Node36 -->
<g id="Node000036" class="node">
<title>Node36</title>
<g id="a_Node000036"><a xlink:href="../../dc/dbc/class_deluxe_1_1_deluxe_brand_center_1_1_a_m_m_1_1_domain_1_1_schedule.html" target="_top" xlink:title=" ">
<polygon fill="white" stroke="#666666" points="608.5,-32 470.25,-32 470.25,0 608.5,0 608.5,-32"/>
<text text-anchor="start" x="478.25" y="-18.5" font-family="Helvetica,sans-Serif" font-size="10.00">Deluxe.DeluxeBrandCenter.</text>
<text text-anchor="middle" x="539.38" y="-6.5" font-family="Helvetica,sans-Serif" font-size="10.00">AMM.Domain.Schedule</text>
</a>
</g>
</g>
<!-- Node1&#45;&gt;Node36 -->
<g id="edge36_Node000001_Node000036" class="edge">
<title>Node1&#45;&gt;Node36</title>
<g id="a_edge36_Node000001_Node000036"><a xlink:title=" ">
<path fill="none" stroke="#63b8ff" d="M295.54,-402.56C296.89,-331.27 310.92,-138.93 419.25,-41 433.12,-28.46 451.64,-21.6 469.94,-18"/>
<polygon fill="#63b8ff" stroke="#63b8ff" points="292.04,-402.13 295.43,-412.17 299.04,-402.2 292.04,-402.13"/>
</a>
</g>
</g>
<!-- Node2 -->
<g id="Node000002" class="node">
<title>Node2</title>
<g id="a_Node000002"><a xlink:href="../../d6/df6/class_deluxe_1_1_deluxe_brand_center_1_1_a_m_m_1_1_domain_1_1_data_model_1_1_modified_entity.html" target="_top" xlink:title=" ">
<polygon fill="white" stroke="#666666" points="170,-459 91.75,-459 91.75,-439 170,-439 170,-459"/>
<text text-anchor="middle" x="130.88" y="-445.5" font-family="Helvetica,sans-Serif" font-size="10.00">ModifiedEntity</text>
</a>
</g>
</g>
<!-- Node2&#45;&gt;Node1 -->
<g id="edge1_Node000001_Node000002" class="edge">
<title>Node2&#45;&gt;Node1</title>
<g id="a_edge1_Node000001_Node000002"><a xlink:title=" ">
<path fill="none" stroke="#63b8ff" d="M181.57,-443.16C189.31,-442.25 197.5,-441.29 205.79,-440.32"/>
<polygon fill="#63b8ff" stroke="#63b8ff" points="181.23,-439.68 171.71,-444.32 182.05,-446.63 181.23,-439.68"/>
</a>
</g>
</g>
<!-- Node3 -->
<g id="Node000003" class="node">
<title>Node3</title>
<g id="a_Node000003"><a xlink:href="../../d6/dad/interface_deluxe_1_1_deluxe_brand_center_1_1_a_m_m_1_1_domain_1_1_data_model_1_1_interface_1_1_i_modified.html" target="_top" xlink:title=" ">
<polygon fill="white" stroke="#666666" points="55.75,-440 0,-440 0,-420 55.75,-420 55.75,-440"/>
<text text-anchor="middle" x="27.88" y="-426.5" font-family="Helvetica,sans-Serif" font-size="10.00">IModified</text>
</a>
</g>
</g>
<!-- Node3&#45;&gt;Node2 -->
<g id="edge2_Node000002_Node000003" class="edge">
<title>Node3&#45;&gt;Node2</title>
<g id="a_edge2_Node000002_Node000003"><a xlink:title=" ">
<path fill="none" stroke="#63b8ff" d="M67.4,-437.25C75.3,-438.73 83.63,-440.3 91.53,-441.79"/>
<polygon fill="#63b8ff" stroke="#63b8ff" points="68.17,-433.83 57.69,-435.42 66.88,-440.71 68.17,-433.83"/>
</a>
</g>
</g>
<!-- Node4 -->
<g id="Node000004" class="node">
<title>Node4</title>
<g id="a_Node000004"><a xlink:href="../../d5/d26/interface_deluxe_1_1_deluxe_brand_center_1_1_a_m_m_1_1_domain_1_1_data_model_1_1_interface_1_1_i_base_entity.html" target="_top" xlink:title=" ">
<polygon fill="white" stroke="#666666" points="164.38,-421 97.38,-421 97.38,-401 164.38,-401 164.38,-421"/>
<text text-anchor="middle" x="130.88" y="-407.5" font-family="Helvetica,sans-Serif" font-size="10.00">IBaseEntity</text>
</a>
</g>
</g>
<!-- Node3&#45;&gt;Node4 -->
<g id="edge4_Node000004_Node000003" class="edge">
<title>Node3&#45;&gt;Node4</title>
<g id="a_edge4_Node000004_Node000003"><a xlink:title=" ">
<path fill="none" stroke="#63b8ff" d="M67.34,-422.76C77.16,-420.92 87.63,-418.95 97.13,-417.16"/>
<polygon fill="#63b8ff" stroke="#63b8ff" points="66.88,-419.29 57.69,-424.58 68.17,-426.17 66.88,-419.29"/>
</a>
</g>
</g>
<!-- Node4&#45;&gt;Node1 -->
<g id="edge3_Node000001_Node000004" class="edge">
<title>Node4&#45;&gt;Node1</title>
<g id="a_edge3_Node000001_Node000004"><a xlink:title=" ">
<path fill="none" stroke="#63b8ff" d="M175.92,-416.17C185.25,-417.27 195.4,-418.46 205.71,-419.67"/>
<polygon fill="#63b8ff" stroke="#63b8ff" points="176.45,-412.71 166.11,-415.02 175.63,-419.66 176.45,-412.71"/>
</a>
</g>
</g>
<!-- Node7 -->
<g id="Node000007" class="node">
<title>Node7</title>
<g id="a_Node000007"><a xlink:href="../../d0/d41/class_deluxe_1_1_deluxe_brand_center_1_1_a_m_m_1_1_domain_1_1_data_model_1_1_branch_data.html" target="_top" xlink:title=" ">
<polygon fill="white" stroke="#666666" points="889.25,-1108 708.25,-1108 708.25,-1076 889.25,-1076 889.25,-1108"/>
<text text-anchor="start" x="716.25" y="-1094.5" font-family="Helvetica,sans-Serif" font-size="10.00">Deluxe.DeluxeBrandCenter.</text>
<text text-anchor="middle" x="798.75" y="-1082.5" font-family="Helvetica,sans-Serif" font-size="10.00">AMM.Domain.DataModel.BranchData</text>
</a>
</g>
</g>
<!-- Node6&#45;&gt;Node7 -->
<g id="edge7_Node000006_Node000007" class="edge">
<title>Node6&#45;&gt;Node7</title>
<g id="a_edge7_Node000006_Node000007"><a xlink:title=" ">
<path fill="none" stroke="#63b8ff" d="M640.93,-915.03C647.71,-918.49 654.01,-922.76 659.5,-928 705.66,-972.06 650.07,-1022.18 695.5,-1067 699.27,-1070.72 703.5,-1073.92 708.04,-1076.67"/>
<polygon fill="#63b8ff" stroke="#63b8ff" points="642.66,-911.97 632.1,-911.14 639.84,-918.38 642.66,-911.97"/>
</a>
</g>
</g>
<!-- Node8 -->
<g id="Node000008" class="node">
<title>Node8</title>
<g id="a_Node000008"><a xlink:href="../../d1/d96/class_deluxe_1_1_deluxe_brand_center_1_1_a_m_m_1_1_domain_1_1_data_model_1_1_mailing_data.html" target="_top" xlink:title=" ">
<polygon fill="white" stroke="#666666" points="889.25,-1058 708.25,-1058 708.25,-1026 889.25,-1026 889.25,-1058"/>
<text text-anchor="start" x="716.25" y="-1044.5" font-family="Helvetica,sans-Serif" font-size="10.00">Deluxe.DeluxeBrandCenter.</text>
<text text-anchor="middle" x="798.75" y="-1032.5" font-family="Helvetica,sans-Serif" font-size="10.00">AMM.Domain.DataModel.MailingData</text>
</a>
</g>
</g>
<!-- Node6&#45;&gt;Node8 -->
<g id="edge8_Node000006_Node000008" class="edge">
<title>Node6&#45;&gt;Node8</title>
<g id="a_edge8_Node000006_Node000008"><a xlink:title=" ">
<path fill="none" stroke="#63b8ff" d="M641.25,-916.36C647.8,-919.54 653.97,-923.37 659.5,-928 692.23,-955.38 663.23,-989.09 695.5,-1017 699.37,-1020.35 703.62,-1023.26 708.11,-1025.8"/>
<polygon fill="#63b8ff" stroke="#63b8ff" points="642.66,-913.16 632.09,-912.48 639.93,-919.6 642.66,-913.16"/>
</a>
</g>
</g>
<!-- Node10 -->
<g id="Node000010" class="node">
<title>Node10</title>
<g id="a_Node000010"><a xlink:href="../../d2/d0f/class_deluxe_1_1_deluxe_brand_center_1_1_a_m_m_1_1_domain_1_1_campaign_element.html" target="_top" xlink:title=" ">
<polygon fill="white" stroke="#666666" points="878.38,-1008 719.12,-1008 719.12,-976 878.38,-976 878.38,-1008"/>
<text text-anchor="start" x="727.12" y="-994.5" font-family="Helvetica,sans-Serif" font-size="10.00">Deluxe.DeluxeBrandCenter.</text>
<text text-anchor="middle" x="798.75" y="-982.5" font-family="Helvetica,sans-Serif" font-size="10.00">AMM.Domain.CampaignElement</text>
</a>
</g>
</g>
<!-- Node9&#45;&gt;Node10 -->
<g id="edge10_Node000009_Node000010" class="edge">
<title>Node9&#45;&gt;Node10</title>
<g id="a_edge10_Node000009_Node000010"><a xlink:title=" ">
<path fill="none" stroke="#63b8ff" d="M561.68,-739.17C587.29,-770.28 630.43,-825.57 659.5,-878 680.19,-915.32 663.23,-939.09 695.5,-967 702.34,-972.92 710.36,-977.48 718.85,-980.99"/>
<polygon fill="#63b8ff" stroke="#63b8ff" points="564.38,-736.94 555.3,-731.48 559,-741.41 564.38,-736.94"/>
</a>
</g>
</g>
<!-- Node11 -->
<g id="Node000011" class="node">
<title>Node11</title>
<g id="a_Node000011"><a xlink:href="../../db/d20/class_deluxe_1_1_deluxe_brand_center_1_1_a_m_m_1_1_domain_1_1_data_model_1_1_account_status.html" target="_top" xlink:title=" ">
<polygon fill="white" stroke="#666666" points="895.62,-958 701.88,-958 701.88,-926 895.62,-926 895.62,-958"/>
<text text-anchor="start" x="709.88" y="-944.5" font-family="Helvetica,sans-Serif" font-size="10.00">Deluxe.DeluxeBrandCenter.</text>
<text text-anchor="middle" x="798.75" y="-932.5" font-family="Helvetica,sans-Serif" font-size="10.00">AMM.Domain.DataModel.AccountStatus</text>
</a>
</g>
</g>
<!-- Node9&#45;&gt;Node11 -->
<g id="edge11_Node000009_Node000011" class="edge">
<title>Node9&#45;&gt;Node11</title>
<g id="a_edge11_Node000009_Node000011"><a xlink:title=" ">
<path fill="none" stroke="#63b8ff" d="M558.49,-739.62C595.36,-791.49 677.23,-905.06 695.5,-917 700.47,-920.25 705.83,-923.08 711.39,-925.54"/>
<polygon fill="#63b8ff" stroke="#63b8ff" points="561.46,-737.77 552.82,-731.64 555.75,-741.82 561.46,-737.77"/>
</a>
</g>
</g>
<!-- Node12 -->
<g id="Node000012" class="node">
<title>Node12</title>
<g id="a_Node000012"><a xlink:href="../../dd/ddc/class_deluxe_1_1_deluxe_brand_center_1_1_a_m_m_1_1_domain_1_1_data_model_1_1_campaign.html" target="_top" xlink:title=" ">
<polygon fill="white" stroke="#666666" points="885.5,-908 712,-908 712,-876 885.5,-876 885.5,-908"/>
<text text-anchor="start" x="720" y="-894.5" font-family="Helvetica,sans-Serif" font-size="10.00">Deluxe.DeluxeBrandCenter.</text>
<text text-anchor="middle" x="798.75" y="-882.5" font-family="Helvetica,sans-Serif" font-size="10.00">AMM.Domain.DataModel.Campaign</text>
</a>
</g>
</g>
<!-- Node9&#45;&gt;Node12 -->
<g id="edge12_Node000009_Node000012" class="edge">
<title>Node9&#45;&gt;Node12</title>
<g id="a_edge12_Node000009_Node000012"><a xlink:title=" ">
<path fill="none" stroke="#63b8ff" d="M558.73,-739.2C585.07,-773.49 636.93,-834.3 695.5,-867 701.32,-870.25 707.57,-873.08 713.99,-875.55"/>
<polygon fill="#63b8ff" stroke="#63b8ff" points="561.72,-737.36 552.9,-731.49 556.13,-741.58 561.72,-737.36"/>
</a>
</g>
</g>
<!-- Node13 -->
<g id="Node000013" class="node">
<title>Node13</title>
<g id="a_Node000013"><a xlink:href="../../d2/d93/class_deluxe_1_1_deluxe_brand_center_1_1_a_m_m_1_1_domain_1_1_data_model_1_1_campaign_setting.html" target="_top" xlink:title=" ">
<polygon fill="white" stroke="#666666" points="900.88,-858 696.62,-858 696.62,-826 900.88,-826 900.88,-858"/>
<text text-anchor="start" x="704.62" y="-844.5" font-family="Helvetica,sans-Serif" font-size="10.00">Deluxe.DeluxeBrandCenter.</text>
<text text-anchor="middle" x="798.75" y="-832.5" font-family="Helvetica,sans-Serif" font-size="10.00">AMM.Domain.DataModel.CampaignSetting</text>
</a>
</g>
</g>
<!-- Node9&#45;&gt;Node13 -->
<g id="edge13_Node000009_Node000013" class="edge">
<title>Node9&#45;&gt;Node13</title>
<g id="a_edge13_Node000009_Node000013"><a xlink:title=" ">
<path fill="none" stroke="#63b8ff" d="M569.13,-737.56C599,-760.93 647.94,-796.16 695.5,-817 702.78,-820.19 710.54,-823.02 718.4,-825.51"/>
<polygon fill="#63b8ff" stroke="#63b8ff" points="571.32,-734.84 561.31,-731.37 566.97,-740.32 571.32,-734.84"/>
</a>
</g>
</g>
<!-- Node14 -->
<g id="Node000014" class="node">
<title>Node14</title>
<g id="a_Node000014"><a xlink:href="../../de/dc3/class_deluxe_1_1_deluxe_brand_center_1_1_a_m_m_1_1_domain_1_1_data_model_1_1_campaign_type.html" target="_top" xlink:title="Campaign types standard, event, ...">
<polygon fill="white" stroke="#666666" points="896,-808 701.5,-808 701.5,-776 896,-776 896,-808"/>
<text text-anchor="start" x="709.5" y="-794.5" font-family="Helvetica,sans-Serif" font-size="10.00">Deluxe.DeluxeBrandCenter.</text>
<text text-anchor="middle" x="798.75" y="-782.5" font-family="Helvetica,sans-Serif" font-size="10.00">AMM.Domain.DataModel.CampaignType</text>
</a>
</g>
</g>
<!-- Node9&#45;&gt;Node14 -->
<g id="edge14_Node000009_Node000014" class="edge">
<title>Node9&#45;&gt;Node14</title>
<g id="a_edge14_Node000009_Node000014"><a xlink:title=" ">
<path fill="none" stroke="#63b8ff" d="M595.66,-734.23C625.1,-744.67 662.05,-757.22 695.5,-767 705.59,-769.95 716.3,-772.84 726.85,-775.54"/>
<polygon fill="#63b8ff" stroke="#63b8ff" points="597.2,-731.06 586.6,-731 594.84,-737.66 597.2,-731.06"/>
</a>
</g>
</g>
<!-- Node15 -->
<g id="Node000015" class="node">
<title>Node15</title>
<g id="a_Node000015"><a xlink:href="../../d3/d4c/class_deluxe_1_1_deluxe_brand_center_1_1_a_m_m_1_1_domain_1_1_data_model_1_1_client_1_1_client.html" target="_top" xlink:title=" ">
<polygon fill="white" stroke="#666666" points="890.38,-758 707.12,-758 707.12,-726 890.38,-726 890.38,-758"/>
<text text-anchor="start" x="715.12" y="-744.5" font-family="Helvetica,sans-Serif" font-size="10.00">Deluxe.DeluxeBrandCenter.</text>
<text text-anchor="middle" x="798.75" y="-732.5" font-family="Helvetica,sans-Serif" font-size="10.00">AMM.Domain.DataModel.Client.Client</text>
</a>
</g>
</g>
<!-- Node9&#45;&gt;Node15 -->
<g id="edge15_Node000009_Node000015" class="edge">
<title>Node9&#45;&gt;Node15</title>
<g id="a_edge15_Node000009_Node000015"><a xlink:title=" ">
<path fill="none" stroke="#63b8ff" d="M655.24,-726.5C672.52,-728.38 690.14,-730.29 706.83,-732.11"/>
<polygon fill="#63b8ff" stroke="#63b8ff" points="655.77,-723.03 645.45,-725.43 655.01,-729.99 655.77,-723.03"/>
</a>
</g>
</g>
<!-- Node16 -->
<g id="Node000016" class="node">
<title>Node16</title>
<g id="a_Node000016"><a xlink:href="../../db/de4/class_deluxe_1_1_deluxe_brand_center_1_1_a_m_m_1_1_domain_1_1_data_model_1_1_contact_manager_1_1_contact_group.html" target="_top" xlink:title=" ">
<polygon fill="white" stroke="#666666" points="900.88,-708 696.62,-708 696.62,-664 900.88,-664 900.88,-708"/>
<text text-anchor="start" x="704.62" y="-694.5" font-family="Helvetica,sans-Serif" font-size="10.00">Deluxe.DeluxeBrandCenter.</text>
<text text-anchor="start" x="704.62" y="-682.5" font-family="Helvetica,sans-Serif" font-size="10.00">AMM.Domain.DataModel.ContactManager.</text>
<text text-anchor="middle" x="798.75" y="-670.5" font-family="Helvetica,sans-Serif" font-size="10.00">ContactGroup</text>
</a>
</g>
</g>
<!-- Node9&#45;&gt;Node16 -->
<g id="edge16_Node000009_Node000016" class="edge">
<title>Node9&#45;&gt;Node16</title>
<g id="a_edge16_Node000009_Node000016"><a xlink:title=" ">
<path fill="none" stroke="#63b8ff" d="M655.39,-701.49C669.09,-700 683,-698.48 696.48,-697.02"/>
<polygon fill="#63b8ff" stroke="#63b8ff" points="655.01,-698.01 645.45,-702.57 655.77,-704.97 655.01,-698.01"/>
</a>
</g>
</g>
<!-- Node17 -->
<g id="Node000017" class="node">
<title>Node17</title>
<g id="a_Node000017"><a xlink:href="../../dc/d10/class_deluxe_1_1_deluxe_brand_center_1_1_a_m_m_1_1_domain_1_1_data_model_1_1_contact_manager_1_1_contact_tag.html" target="_top" xlink:title=" ">
<polygon fill="white" stroke="#666666" points="900.88,-646 696.62,-646 696.62,-602 900.88,-602 900.88,-646"/>
<text text-anchor="start" x="704.62" y="-632.5" font-family="Helvetica,sans-Serif" font-size="10.00">Deluxe.DeluxeBrandCenter.</text>
<text text-anchor="start" x="704.62" y="-620.5" font-family="Helvetica,sans-Serif" font-size="10.00">AMM.Domain.DataModel.ContactManager.</text>
<text text-anchor="middle" x="798.75" y="-608.5" font-family="Helvetica,sans-Serif" font-size="10.00">ContactTag</text>
</a>
</g>
</g>
<!-- Node9&#45;&gt;Node17 -->
<g id="edge17_Node000009_Node000017" class="edge">
<title>Node9&#45;&gt;Node17</title>
<g id="a_edge17_Node000009_Node000017"><a xlink:title=" ">
<path fill="none" stroke="#63b8ff" d="M650.13,-693.47C653.33,-692.08 656.46,-690.59 659.5,-689 679,-678.8 676.46,-666.04 695.5,-655 700.88,-651.88 706.59,-649.05 712.48,-646.48"/>
<polygon fill="#63b8ff" stroke="#63b8ff" points="649.11,-690.11 641.1,-697.05 651.69,-696.62 649.11,-690.11"/>
</a>
</g>
</g>
<!-- Node18 -->
<g id="Node000018" class="node">
<title>Node18</title>
<g id="a_Node000018"><a xlink:href="../../db/d17/class_deluxe_1_1_deluxe_brand_center_1_1_a_m_m_1_1_domain_1_1_data_model_1_1_customized_video.html" target="_top" xlink:title=" ">
<polygon fill="white" stroke="#666666" points="902,-584 695.5,-584 695.5,-552 902,-552 902,-584"/>
<text text-anchor="start" x="703.5" y="-570.5" font-family="Helvetica,sans-Serif" font-size="10.00">Deluxe.DeluxeBrandCenter.</text>
<text text-anchor="middle" x="798.75" y="-558.5" font-family="Helvetica,sans-Serif" font-size="10.00">AMM.Domain.DataModel.CustomizedVideo</text>
</a>
</g>
</g>
<!-- Node9&#45;&gt;Node18 -->
<g id="edge18_Node000009_Node000018" class="edge">
<title>Node9&#45;&gt;Node18</title>
<g id="a_edge18_Node000009_Node000018"><a xlink:title=" ">
<path fill="none" stroke="#63b8ff" d="M653.5,-693.66C655.58,-692.2 657.58,-690.65 659.5,-689 694.07,-659.32 661.42,-623.25 695.5,-593 699.19,-589.72 703.24,-586.86 707.53,-584.36"/>
<polygon fill="#63b8ff" stroke="#63b8ff" points="652.01,-690.47 645.3,-698.67 655.66,-696.44 652.01,-690.47"/>
</a>
</g>
</g>
<!-- Node19 -->
<g id="Node000019" class="node">
<title>Node19</title>
<g id="a_Node000019"><a xlink:href="../../d9/d05/class_deluxe_1_1_deluxe_brand_center_1_1_a_m_m_1_1_domain_1_1_data_model_1_1_editor_field.html" target="_top" xlink:title=" ">
<polygon fill="white" stroke="#666666" points="886.62,-534 710.88,-534 710.88,-502 886.62,-502 886.62,-534"/>
<text text-anchor="start" x="718.88" y="-520.5" font-family="Helvetica,sans-Serif" font-size="10.00">Deluxe.DeluxeBrandCenter.</text>
<text text-anchor="middle" x="798.75" y="-508.5" font-family="Helvetica,sans-Serif" font-size="10.00">AMM.Domain.DataModel.EditorField</text>
</a>
</g>
</g>
<!-- Node9&#45;&gt;Node19 -->
<g id="edge19_Node000009_Node000019" class="edge">
<title>Node9&#45;&gt;Node19</title>
<g id="a_edge19_Node000009_Node000019"><a xlink:title=" ">
<path fill="none" stroke="#63b8ff" d="M653.57,-694.11C655.64,-692.52 657.62,-690.82 659.5,-689 707.57,-642.57 648.2,-590.21 695.5,-543 700.03,-538.48 705.23,-534.73 710.83,-531.62"/>
<polygon fill="#63b8ff" stroke="#63b8ff" points="651.72,-691.14 645.3,-699.57 655.58,-696.98 651.72,-691.14"/>
</a>
</g>
</g>
<!-- Node20 -->
<g id="Node000020" class="node">
<title>Node20</title>
<g id="a_Node000020"><a xlink:href="../../d4/da4/class_deluxe_1_1_deluxe_brand_center_1_1_a_m_m_1_1_domain_1_1_data_model_1_1_settings.html" target="_top" xlink:title=" ">
<polygon fill="white" stroke="#666666" points="881.38,-484 716.12,-484 716.12,-452 881.38,-452 881.38,-484"/>
<text text-anchor="start" x="724.12" y="-470.5" font-family="Helvetica,sans-Serif" font-size="10.00">Deluxe.DeluxeBrandCenter.</text>
<text text-anchor="middle" x="798.75" y="-458.5" font-family="Helvetica,sans-Serif" font-size="10.00">AMM.Domain.DataModel.Settings</text>
</a>
</g>
</g>
<!-- Node9&#45;&gt;Node20 -->
<g id="edge20_Node000009_Node000020" class="edge">
<title>Node9&#45;&gt;Node20</title>
<g id="a_edge20_Node000009_Node000020"><a xlink:title=" ">
<path fill="none" stroke="#63b8ff" d="M653.15,-694.72C655.38,-692.96 657.5,-691.05 659.5,-689 721.33,-625.59 634.72,-557.42 695.5,-493 701.27,-486.89 708.27,-482.16 715.86,-478.53"/>
<polygon fill="#63b8ff" stroke="#63b8ff" points="651.64,-691.52 645.34,-700.03 655.58,-697.31 651.64,-691.52"/>
</a>
</g>
</g>
<!-- Node21 -->
<g id="Node000021" class="node">
<title>Node21</title>
<g id="a_Node000021"><a xlink:href="../../dc/ddd/class_deluxe_1_1_deluxe_brand_center_1_1_a_m_m_1_1_domain_1_1_data_model_1_1_settings_group.html" target="_top" xlink:title=" ">
<polygon fill="white" stroke="#666666" points="894.5,-434 703,-434 703,-402 894.5,-402 894.5,-434"/>
<text text-anchor="start" x="711" y="-420.5" font-family="Helvetica,sans-Serif" font-size="10.00">Deluxe.DeluxeBrandCenter.</text>
<text text-anchor="middle" x="798.75" y="-408.5" font-family="Helvetica,sans-Serif" font-size="10.00">AMM.Domain.DataModel.SettingsGroup</text>
</a>
</g>
</g>
<!-- Node9&#45;&gt;Node21 -->
<g id="edge21_Node000009_Node000021" class="edge">
<title>Node9&#45;&gt;Node21</title>
<g id="a_edge21_Node000009_Node000021"><a xlink:title=" ">
<path fill="none" stroke="#63b8ff" d="M653.14,-694.91C655.38,-693.09 657.51,-691.12 659.5,-689 735.19,-608.5 621.14,-524.74 695.5,-443 698.45,-439.76 701.75,-436.9 705.3,-434.39"/>
<polygon fill="#63b8ff" stroke="#63b8ff" points="651.49,-691.8 645.26,-700.37 655.47,-697.55 651.49,-691.8"/>
</a>
</g>
</g>
<!-- Node22 -->
<g id="Node000022" class="node">
<title>Node22</title>
<g id="a_Node000022"><a xlink:href="../../dc/d90/class_deluxe_1_1_deluxe_brand_center_1_1_a_m_m_1_1_domain_1_1_data_model_1_1_signature_block.html" target="_top" xlink:title=" ">
<polygon fill="white" stroke="#666666" points="896.38,-384 701.12,-384 701.12,-352 896.38,-352 896.38,-384"/>
<text text-anchor="start" x="709.12" y="-370.5" font-family="Helvetica,sans-Serif" font-size="10.00">Deluxe.DeluxeBrandCenter.</text>
<text text-anchor="middle" x="798.75" y="-358.5" font-family="Helvetica,sans-Serif" font-size="10.00">AMM.Domain.DataModel.SignatureBlock</text>
</a>
</g>
</g>
<!-- Node9&#45;&gt;Node22 -->
<g id="edge22_Node000009_Node000022" class="edge">
<title>Node9&#45;&gt;Node22</title>
<g id="a_edge22_Node000009_Node000022"><a xlink:title=" ">
<path fill="none" stroke="#63b8ff" d="M653.21,-694.97C655.43,-693.13 657.53,-691.15 659.5,-689 749.1,-591.36 607.52,-492.11 695.5,-393 698.41,-389.72 701.68,-386.84 705.2,-384.3"/>
<polygon fill="#63b8ff" stroke="#63b8ff" points="651.55,-691.87 645.39,-700.49 655.58,-697.59 651.55,-691.87"/>
</a>
</g>
</g>
<!-- Node23 -->
<g id="Node000023" class="node">
<title>Node23</title>
<g id="a_Node000023"><a xlink:href="../../db/dda/class_deluxe_1_1_deluxe_brand_center_1_1_a_m_m_1_1_domain_1_1_data_model_1_1_user_campaign.html" target="_top" xlink:title=" ">
<polygon fill="white" stroke="#666666" points="896,-334 701.5,-334 701.5,-302 896,-302 896,-334"/>
<text text-anchor="start" x="709.5" y="-320.5" font-family="Helvetica,sans-Serif" font-size="10.00">Deluxe.DeluxeBrandCenter.</text>
<text text-anchor="middle" x="798.75" y="-308.5" font-family="Helvetica,sans-Serif" font-size="10.00">AMM.Domain.DataModel.UserCampaign</text>
</a>
</g>
</g>
<!-- Node9&#45;&gt;Node23 -->
<g id="edge23_Node000009_Node000023" class="edge">
<title>Node9&#45;&gt;Node23</title>
<g id="a_edge23_Node000009_Node000023"><a xlink:title=" ">
<path fill="none" stroke="#63b8ff" d="M653.26,-695.02C655.46,-693.17 657.55,-691.16 659.5,-689 763.04,-574.18 593.86,-459.51 695.5,-343 698.38,-339.69 701.62,-336.79 705.13,-334.24"/>
<polygon fill="#63b8ff" stroke="#63b8ff" points="651.59,-691.91 645.48,-700.57 655.65,-697.61 651.59,-691.91"/>
</a>
</g>
</g>
</g>
</svg>
