<?xml version="1.0" encoding="UTF-8" standalone="no"?>
<!DOCTYPE svg PUBLIC "-//W3C//DTD SVG 1.1//EN"
 "http://www.w3.org/Graphics/SVG/1.1/DTD/svg11.dtd">
<!-- Generated by graphviz version 12.1.1 (20240910.0053)
 -->
<!-- Title: Deluxe.DeluxeBrandCenter.AMM.ScriptRunner.Services.Scripts.SyncCampaignElementMetadata Pages: 1 -->
<svg width="1044pt" height="340pt"
 viewBox="0.00 0.00 1043.50 340.00" xmlns="http://www.w3.org/2000/svg" xmlns:xlink="http://www.w3.org/1999/xlink">
<g id="graph0" class="graph" transform="scale(1 1) rotate(0) translate(4 336)">
<title>Deluxe.DeluxeBrandCenter.AMM.ScriptRunner.Services.Scripts.SyncCampaignElementMetadata</title>
<!-- Node1 -->
<g id="Node000001" class="node">
<title>Node1</title>
<g id="a_Node000001"><a xlink:title=" ">
<polygon fill="#999999" stroke="#666666" points="1035.5,-178 858.25,-178 858.25,-134 1035.5,-134 1035.5,-178"/>
<text text-anchor="start" x="866.25" y="-164.5" font-family="Helvetica,sans-Serif" font-size="10.00">Deluxe.DeluxeBrandCenter.</text>
<text text-anchor="start" x="866.25" y="-152.5" font-family="Helvetica,sans-Serif" font-size="10.00">AMM.ScriptRunner.Services.Scripts.</text>
<text text-anchor="middle" x="946.88" y="-140.5" font-family="Helvetica,sans-Serif" font-size="10.00">SyncCampaignElementMetadata</text>
</a>
</g>
</g>
<!-- Node2 -->
<g id="Node000002" class="node">
<title>Node2</title>
<g id="a_Node000002"><a xlink:href="../../d9/d9b/class_deluxe_1_1_deluxe_brand_center_1_1_a_m_m_1_1_script_runner_1_1_services_1_1_script.html" target="_top" xlink:title=" ">
<polygon fill="white" stroke="#666666" points="730,-330 534.75,-330 534.75,-286 730,-286 730,-330"/>
<text text-anchor="start" x="542.75" y="-316.5" font-family="Helvetica,sans-Serif" font-size="10.00">Script&lt; CsvLogCampaignScript</text>
<text text-anchor="start" x="542.75" y="-304.5" font-family="Helvetica,sans-Serif" font-size="10.00">Entry, SyncCampaignElementComments</text>
<text text-anchor="middle" x="632.38" y="-292.5" font-family="Helvetica,sans-Serif" font-size="10.00">Data &gt;</text>
</a>
</g>
</g>
<!-- Node2&#45;&gt;Node1 -->
<g id="edge1_Node000001_Node000002" class="edge">
<title>Node2&#45;&gt;Node1</title>
<g id="a_edge1_Node000001_Node000002"><a xlink:title=" ">
<path fill="none" stroke="#63b8ff" d="M720.99,-281.91C725.58,-280.3 730.1,-278.66 734.5,-277 782.77,-258.73 795.34,-254.44 840.25,-229 867.21,-213.73 896.03,-193.52 916.75,-178.24"/>
<polygon fill="#63b8ff" stroke="#63b8ff" points="719.97,-278.56 711.63,-285.1 722.23,-285.18 719.97,-278.56"/>
</a>
</g>
</g>
<!-- Node3 -->
<g id="Node000003" class="node">
<title>Node3</title>
<g id="a_Node000003"><a xlink:href="../../d9/d9b/class_deluxe_1_1_deluxe_brand_center_1_1_a_m_m_1_1_script_runner_1_1_services_1_1_script.html" target="_top" xlink:title=" ">
<polygon fill="white" stroke="#666666" points="310.5,-330 141.5,-330 141.5,-286 310.5,-286 310.5,-330"/>
<text text-anchor="start" x="149.5" y="-316.5" font-family="Helvetica,sans-Serif" font-size="10.00">Deluxe.DeluxeBrandCenter.</text>
<text text-anchor="start" x="149.5" y="-304.5" font-family="Helvetica,sans-Serif" font-size="10.00">AMM.ScriptRunner.Services.Script</text>
<text text-anchor="middle" x="226" y="-292.5" font-family="Helvetica,sans-Serif" font-size="10.00">&lt; CsvLogEntryType, DataType &gt;</text>
</a>
</g>
</g>
<!-- Node3&#45;&gt;Node2 -->
<g id="edge2_Node000002_Node000003" class="edge">
<title>Node3&#45;&gt;Node2</title>
<g id="a_edge2_Node000002_Node000003"><a xlink:title=" ">
<path fill="none" stroke="orange" stroke-dasharray="5,2" d="M322.09,-308C386.08,-308 470.19,-308 534.55,-308"/>
<polygon fill="orange" stroke="orange" points="322.3,-304.5 312.3,-308 322.3,-311.5 322.3,-304.5"/>
</a>
</g>
<text text-anchor="start" x="328.5" y="-322.5" font-family="Helvetica,sans-Serif" font-size="10.00" fill="grey"> &lt; CsvLogCampaignScriptEntry,</text>
<text text-anchor="middle" x="420.38" y="-310.5" font-family="Helvetica,sans-Serif" font-size="10.00" fill="grey"> SyncCampaignElementCommentsData &gt;</text>
</g>
<!-- Node4 -->
<g id="Node000004" class="node">
<title>Node4</title>
<g id="a_Node000004"><a xlink:href="../../df/dfe/interface_deluxe_1_1_deluxe_brand_center_1_1_a_m_m_1_1_script_runner_1_1_services_1_1_i_script.html" target="_top" xlink:title=" ">
<polygon fill="white" stroke="#666666" points="104.5,-318 0,-318 0,-298 104.5,-298 104.5,-318"/>
<text text-anchor="middle" x="52.25" y="-304.5" font-family="Helvetica,sans-Serif" font-size="10.00">IScript&lt; DataType &gt;</text>
</a>
</g>
</g>
<!-- Node4&#45;&gt;Node3 -->
<g id="edge3_Node000003_Node000004" class="edge">
<title>Node4&#45;&gt;Node3</title>
<g id="a_edge3_Node000003_Node000004"><a xlink:title=" ">
<path fill="none" stroke="#63b8ff" d="M116.06,-308C124.21,-308 132.65,-308 141.07,-308"/>
<polygon fill="#63b8ff" stroke="#63b8ff" points="116.29,-304.5 106.29,-308 116.29,-311.5 116.29,-304.5"/>
</a>
</g>
</g>
<!-- Node5 -->
<g id="Node000005" class="node">
<title>Node5</title>
<g id="a_Node000005"><a xlink:href="../../d3/d96/interface_deluxe_1_1_deluxe_brand_center_1_1_a_m_m_1_1_infrastructure_1_1_databases_1_1_i_application_db_context.html" target="_top" xlink:title=" ">
<polygon fill="white" stroke="#666666" points="734.5,-268 530.25,-268 530.25,-224 734.5,-224 734.5,-268"/>
<text text-anchor="start" x="538.25" y="-254.5" font-family="Helvetica,sans-Serif" font-size="10.00">Deluxe.DeluxeBrandCenter.</text>
<text text-anchor="start" x="538.25" y="-242.5" font-family="Helvetica,sans-Serif" font-size="10.00">AMM.Infrastructure.Databases.IApplication</text>
<text text-anchor="middle" x="632.38" y="-230.5" font-family="Helvetica,sans-Serif" font-size="10.00">DbContext</text>
</a>
</g>
</g>
<!-- Node5&#45;&gt;Node1 -->
<g id="edge4_Node000001_Node000005" class="edge">
<title>Node5&#45;&gt;Node1</title>
<g id="a_edge4_Node000001_Node000005"><a xlink:title=" ">
<path fill="none" stroke="#9a32cd" stroke-dasharray="5,2" d="M728.13,-220.62C763.4,-210.98 803.73,-199.73 840.25,-189 851.59,-185.67 863.57,-182.03 875.24,-178.43"/>
<polygon fill="#9a32cd" stroke="#9a32cd" points="727.54,-217.15 718.81,-223.16 729.38,-223.9 727.54,-217.15"/>
</a>
</g>
<text text-anchor="middle" x="796.38" y="-215.67" font-family="Helvetica,sans-Serif" font-size="10.00" fill="grey"> _dbContext</text>
</g>
<!-- Node6 -->
<g id="Node000006" class="node">
<title>Node6</title>
<g id="a_Node000006"><a xlink:href="../../db/d7e/class_deluxe_1_1_deluxe_brand_center_1_1_a_m_m_1_1_infrastructure_1_1_databases_1_1_client_db_context.html" target="_top" xlink:title=" ">
<polygon fill="white" stroke="#666666" points="721.75,-206 543,-206 543,-162 721.75,-162 721.75,-206"/>
<text text-anchor="start" x="551" y="-192.5" font-family="Helvetica,sans-Serif" font-size="10.00">Deluxe.DeluxeBrandCenter.</text>
<text text-anchor="start" x="551" y="-180.5" font-family="Helvetica,sans-Serif" font-size="10.00">AMM.Infrastructure.Databases.Client</text>
<text text-anchor="middle" x="632.38" y="-168.5" font-family="Helvetica,sans-Serif" font-size="10.00">DbContext</text>
</a>
</g>
</g>
<!-- Node6&#45;&gt;Node1 -->
<g id="edge5_Node000001_Node000006" class="edge">
<title>Node6&#45;&gt;Node1</title>
<g id="a_edge5_Node000001_Node000006"><a xlink:title=" ">
<path fill="none" stroke="#9a32cd" stroke-dasharray="5,2" d="M733.47,-175.03C773.44,-171.45 819.06,-167.36 857.75,-163.9"/>
<polygon fill="#9a32cd" stroke="#9a32cd" points="733.24,-171.54 723.6,-175.92 733.87,-178.51 733.24,-171.54"/>
</a>
</g>
<text text-anchor="middle" x="796.38" y="-175.01" font-family="Helvetica,sans-Serif" font-size="10.00" fill="grey"> _clientDbContext</text>
</g>
<!-- Node7 -->
<g id="Node000007" class="node">
<title>Node7</title>
<g id="a_Node000007"><a xlink:title=" ">
<polygon fill="white" stroke="#666666" points="257.62,-194 194.38,-194 194.38,-174 257.62,-174 257.62,-194"/>
<text text-anchor="middle" x="226" y="-180.5" font-family="Helvetica,sans-Serif" font-size="10.00">DbContext</text>
</a>
</g>
</g>
<!-- Node7&#45;&gt;Node6 -->
<g id="edge6_Node000006_Node000007" class="edge">
<title>Node7&#45;&gt;Node6</title>
<g id="a_edge6_Node000006_Node000007"><a xlink:title=" ">
<path fill="none" stroke="#63b8ff" d="M269.38,-184C333.87,-184 458.07,-184 542.82,-184"/>
<polygon fill="#63b8ff" stroke="#63b8ff" points="269.57,-180.5 259.57,-184 269.57,-187.5 269.57,-180.5"/>
</a>
</g>
</g>
<!-- Node8 -->
<g id="Node000008" class="node">
<title>Node8</title>
<g id="a_Node000008"><a xlink:href="../../dd/d7d/interface_deluxe_1_1_deluxe_brand_center_1_1_a_m_m_1_1_domain_1_1_services_1_1_i_session_service.html" target="_top" xlink:title=" ">
<polygon fill="white" stroke="#666666" points="728.12,-144 536.62,-144 536.62,-112 728.12,-112 728.12,-144"/>
<text text-anchor="start" x="544.62" y="-130.5" font-family="Helvetica,sans-Serif" font-size="10.00">Deluxe.DeluxeBrandCenter.</text>
<text text-anchor="middle" x="632.38" y="-118.5" font-family="Helvetica,sans-Serif" font-size="10.00">AMM.Domain.Services.ISessionService</text>
</a>
</g>
</g>
<!-- Node8&#45;&gt;Node1 -->
<g id="edge7_Node000001_Node000008" class="edge">
<title>Node8&#45;&gt;Node1</title>
<g id="a_edge7_Node000001_Node000008"><a xlink:title=" ">
<path fill="none" stroke="#9a32cd" stroke-dasharray="5,2" d="M739.67,-137.52C778.18,-140.97 821.21,-144.83 857.96,-148.12"/>
<polygon fill="#9a32cd" stroke="#9a32cd" points="740.19,-134.06 729.92,-136.65 739.56,-141.03 740.19,-134.06"/>
</a>
</g>
<text text-anchor="middle" x="796.38" y="-148.64" font-family="Helvetica,sans-Serif" font-size="10.00" fill="grey"> _sessionService</text>
</g>
<!-- Node9 -->
<g id="Node000009" class="node">
<title>Node9</title>
<g id="a_Node000009"><a xlink:href="../../d2/dd7/interface_deluxe_1_1_deluxe_brand_center_1_1_a_m_m_1_1_a_p_i_1_1_services_1_1_i_mindfire_service.html" target="_top" xlink:title=" ">
<polygon fill="white" stroke="#666666" points="719.12,-94 545.62,-94 545.62,-62 719.12,-62 719.12,-94"/>
<text text-anchor="start" x="553.62" y="-80.5" font-family="Helvetica,sans-Serif" font-size="10.00">Deluxe.DeluxeBrandCenter.</text>
<text text-anchor="middle" x="632.38" y="-68.5" font-family="Helvetica,sans-Serif" font-size="10.00">AMM.API.Services.IMindfireService</text>
</a>
</g>
</g>
<!-- Node9&#45;&gt;Node1 -->
<g id="edge8_Node000001_Node000009" class="edge">
<title>Node9&#45;&gt;Node1</title>
<g id="a_edge8_Node000001_Node000009"><a xlink:title=" ">
<path fill="none" stroke="#9a32cd" stroke-dasharray="5,2" d="M728.58,-96.86C763.83,-104.33 804.02,-113.42 840.25,-123 852.23,-126.17 864.88,-129.83 877.1,-133.55"/>
<polygon fill="#9a32cd" stroke="#9a32cd" points="729.31,-93.44 718.81,-94.81 727.87,-100.29 729.31,-93.44"/>
</a>
</g>
<text text-anchor="middle" x="796.38" y="-125.5" font-family="Helvetica,sans-Serif" font-size="10.00" fill="grey"> _mindfireService</text>
</g>
<!-- Node10 -->
<g id="Node000010" class="node">
<title>Node10</title>
<g id="a_Node000010"><a xlink:href="../../df/db6/interface_deluxe_1_1_deluxe_brand_center_1_1_a_m_m_1_1_infrastructure_1_1_a_w_s_1_1_s3_1_1_i_amazon_s3_service.html" target="_top" xlink:title=" ">
<polygon fill="white" stroke="#666666" points="723.62,-44 541.12,-44 541.12,0 723.62,0 723.62,-44"/>
<text text-anchor="start" x="549.12" y="-30.5" font-family="Helvetica,sans-Serif" font-size="10.00">Deluxe.DeluxeBrandCenter.</text>
<text text-anchor="start" x="549.12" y="-18.5" font-family="Helvetica,sans-Serif" font-size="10.00">AMM.Infrastructure.AWS.S3.IAmazon</text>
<text text-anchor="middle" x="632.38" y="-6.5" font-family="Helvetica,sans-Serif" font-size="10.00">S3Service</text>
</a>
</g>
</g>
<!-- Node10&#45;&gt;Node1 -->
<g id="edge9_Node000001_Node000010" class="edge">
<title>Node10&#45;&gt;Node1</title>
<g id="a_edge9_Node000001_Node000010"><a xlink:title=" ">
<path fill="none" stroke="#9a32cd" stroke-dasharray="5,2" d="M717.95,-47.83C723.55,-49.57 729.11,-51.31 734.5,-53 781.6,-67.79 795.69,-65.75 840.25,-87 867.34,-99.91 895.68,-118.77 916.18,-133.5"/>
<polygon fill="#9a32cd" stroke="#9a32cd" points="719.18,-44.55 708.59,-44.93 717.11,-51.24 719.18,-44.55"/>
</a>
</g>
<text text-anchor="middle" x="796.38" y="-89.5" font-family="Helvetica,sans-Serif" font-size="10.00" fill="grey"> _amazonS3Service</text>
</g>
</g>
</svg>
